<svg id="svg" version="1.1" xmlns="http://www.w3.org/2000/svg" xmlns:xlink="http://www.w3.org/1999/xlink" width="400" height="258.91472868217056" viewBox="0, 0, 400,258.91472868217056"><g id="svgg"><path id="path0" d="M177.720 42.629 C 176.937 42.826,175.246 43.173,173.964 43.401 C 172.681 43.629,171.268 44.028,170.822 44.289 C 170.377 44.550,169.619 44.849,169.138 44.953 C 168.658 45.057,167.920 45.390,167.500 45.693 C 167.080 45.996,166.415 46.360,166.023 46.503 C 164.846 46.930,159.585 51.710,159.585 52.351 C 159.585 52.470,159.307 52.977,158.968 53.478 C 157.242 56.021,157.225 64.373,158.941 66.321 C 159.129 66.535,159.488 67.234,159.739 67.876 C 159.990 68.517,160.417 69.333,160.688 69.689 C 161.497 70.752,162.953 73.150,162.953 73.420 C 162.953 73.558,163.208 73.942,163.519 74.274 C 164.187 74.985,165.067 76.383,165.811 77.915 C 166.105 78.520,166.443 79.016,166.562 79.016 C 166.681 79.016,167.077 79.646,167.442 80.416 C 167.806 81.186,168.219 81.887,168.359 81.973 C 168.499 82.060,168.803 82.703,169.036 83.403 C 169.268 84.103,169.627 84.815,169.832 84.985 C 170.038 85.156,170.367 85.838,170.564 86.502 C 170.761 87.166,171.169 88.114,171.471 88.609 C 171.772 89.103,172.022 89.741,172.025 90.026 C 172.028 90.311,172.368 91.501,172.781 92.670 C 173.265 94.042,173.640 95.830,173.839 97.711 C 174.008 99.313,174.251 100.900,174.379 101.236 C 174.673 102.008,174.653 104.146,174.338 105.829 C 174.204 106.541,173.973 108.384,173.824 109.925 C 173.666 111.557,173.297 113.448,172.940 114.458 C 172.603 115.412,172.204 116.790,172.054 117.521 C 171.903 118.253,171.551 119.243,171.272 119.723 C 170.992 120.203,170.684 121.062,170.586 121.632 C 170.488 122.202,170.144 123.135,169.821 123.705 C 169.498 124.275,169.158 125.091,169.066 125.518 C 168.974 125.946,168.552 126.982,168.128 127.821 C 167.704 128.661,167.358 129.491,167.358 129.667 C 167.358 129.843,167.078 130.497,166.735 131.120 C 166.393 131.744,166.035 132.628,165.940 133.085 C 165.845 133.542,165.488 134.493,165.148 135.199 C 164.808 135.904,164.458 136.812,164.371 137.217 C 164.284 137.622,163.937 138.653,163.599 139.508 C 163.262 140.363,162.849 141.762,162.681 142.617 C 162.514 143.472,162.251 144.404,162.097 144.689 C 161.943 144.974,161.554 146.490,161.233 148.057 C 160.912 149.624,160.470 151.548,160.250 152.332 C 158.801 157.507,159.091 176.904,160.632 177.856 C 160.746 177.926,161.042 178.926,161.291 180.078 C 161.540 181.230,161.881 182.311,162.050 182.480 C 162.219 182.648,162.503 183.249,162.682 183.815 C 162.861 184.381,163.269 185.253,163.588 185.751 C 163.907 186.250,164.307 187.081,164.477 187.598 C 164.647 188.115,165.015 188.745,165.295 188.998 C 165.574 189.252,165.803 189.604,165.803 189.782 C 165.803 189.961,166.182 190.573,166.645 191.144 C 167.108 191.715,167.778 192.563,168.135 193.028 C 168.491 193.494,169.220 194.345,169.754 194.918 C 170.288 195.492,170.725 196.026,170.725 196.105 C 170.725 196.489,179.025 203.109,179.508 203.109 C 179.625 203.109,180.161 203.408,180.699 203.773 C 181.237 204.138,182.157 204.622,182.743 204.849 C 183.329 205.076,183.983 205.409,184.197 205.588 C 184.411 205.768,185.110 206.118,185.751 206.366 C 186.392 206.613,187.102 206.973,187.327 207.166 C 187.553 207.358,188.369 207.700,189.141 207.925 C 189.913 208.150,190.809 208.504,191.133 208.711 C 191.457 208.918,192.389 209.208,193.205 209.355 C 194.021 209.502,195.622 209.900,196.762 210.239 C 202.762 212.023,217.948 211.938,223.773 210.088 C 225.092 209.669,226.292 209.326,226.439 209.326 C 226.585 209.326,227.454 208.977,228.368 208.549 C 229.282 208.122,230.196 207.772,230.398 207.772 C 230.600 207.772,230.926 207.578,231.121 207.341 C 231.317 207.104,231.965 206.694,232.561 206.430 C 233.599 205.970,234.391 205.402,235.570 204.275 C 235.868 203.990,236.366 203.582,236.677 203.368 C 237.671 202.684,240.367 199.253,240.544 198.447 C 240.638 198.019,240.804 197.668,240.914 197.668 C 241.292 197.668,241.930 195.717,242.381 193.181 C 242.967 189.893,242.224 184.899,240.895 183.190 C 240.631 182.851,240.415 182.411,240.415 182.213 C 240.415 181.867,239.192 179.886,238.106 178.471 C 237.821 178.100,237.444 177.458,237.268 177.046 C 237.092 176.633,236.741 176.059,236.488 175.770 C 235.947 175.152,234.880 173.306,234.320 172.021 C 234.103 171.522,233.809 170.939,233.666 170.725 C 233.523 170.512,233.171 169.812,232.884 169.171 C 232.596 168.530,232.246 167.830,232.106 167.617 C 231.854 167.231,231.376 166.201,230.180 163.472 C 229.837 162.688,229.478 161.643,229.383 161.150 C 229.287 160.657,228.996 159.841,228.734 159.337 C 228.472 158.832,228.075 157.312,227.851 155.959 C 227.628 154.605,227.325 152.856,227.180 152.073 C 226.659 149.265,226.620 146.348,227.076 144.301 C 227.314 143.232,227.652 141.541,227.826 140.544 C 228.000 139.547,228.383 138.264,228.677 137.694 C 228.971 137.124,229.288 136.304,229.381 135.870 C 229.475 135.437,229.804 134.679,230.112 134.186 C 230.752 133.166,231.655 131.158,232.497 128.886 C 232.813 128.031,233.264 126.965,233.498 126.517 C 233.732 126.069,234.000 125.194,234.094 124.574 C 234.189 123.953,234.529 122.804,234.852 122.021 C 235.174 121.237,235.571 119.722,235.733 118.653 C 235.895 117.584,236.260 115.873,236.545 114.851 C 238.302 108.543,238.284 88.991,236.517 83.975 C 236.234 83.171,235.883 81.772,235.738 80.867 C 235.592 79.962,235.203 78.679,234.872 78.017 C 234.541 77.355,234.192 76.307,234.097 75.689 C 234.002 75.070,233.636 74.139,233.283 73.621 C 232.931 73.102,232.642 72.511,232.642 72.307 C 232.642 72.103,232.305 71.402,231.893 70.748 C 231.481 70.094,231.066 69.300,230.971 68.983 C 230.763 68.291,228.914 65.479,228.367 65.025 C 228.154 64.848,227.979 64.592,227.979 64.455 C 227.979 64.230,227.222 63.226,225.389 61.020 C 223.550 58.808,217.871 53.883,215.770 52.678 C 215.233 52.370,214.641 51.990,214.456 51.835 C 213.799 51.285,211.408 49.741,211.211 49.740 C 211.101 49.739,210.486 49.390,209.845 48.964 C 209.203 48.537,208.514 48.188,208.313 48.188 C 208.112 48.187,207.412 47.849,206.758 47.436 C 206.105 47.022,205.162 46.600,204.663 46.497 C 204.165 46.394,203.207 46.032,202.535 45.693 C 201.862 45.355,201.072 45.078,200.778 45.078 C 200.484 45.078,199.518 44.773,198.632 44.399 C 197.746 44.026,195.972 43.568,194.689 43.381 C 193.407 43.193,191.541 42.862,190.544 42.643 C 188.159 42.122,179.781 42.113,177.720 42.629 M190.627 53.731 C 192.006 54.073,193.718 54.432,194.430 54.528 C 195.142 54.625,195.967 54.858,196.262 55.048 C 196.558 55.237,197.315 55.531,197.946 55.700 C 198.577 55.870,199.793 56.337,200.648 56.738 C 201.503 57.140,202.610 57.655,203.109 57.883 C 204.443 58.494,206.002 59.377,206.917 60.039 C 207.360 60.359,207.842 60.622,207.988 60.622 C 208.134 60.622,208.407 60.770,208.595 60.951 C 208.784 61.132,209.288 61.544,209.715 61.866 C 211.625 63.304,212.041 63.635,212.606 64.170 C 212.937 64.482,213.372 64.832,213.573 64.947 C 214.475 65.461,216.647 67.534,217.165 68.375 C 217.479 68.884,218.000 69.547,218.324 69.848 C 218.647 70.150,218.912 70.532,218.912 70.698 C 218.912 70.865,219.075 71.063,219.274 71.140 C 219.473 71.216,219.910 71.795,220.245 72.427 C 220.580 73.058,220.927 73.575,221.017 73.575 C 221.106 73.575,221.440 74.187,221.758 74.935 C 222.076 75.683,222.488 76.470,222.673 76.684 C 222.858 76.898,223.147 77.597,223.316 78.238 C 223.484 78.880,223.835 79.754,224.096 80.181 C 224.356 80.609,224.703 81.703,224.867 82.614 C 225.031 83.524,225.382 84.819,225.647 85.491 C 227.397 89.930,227.395 108.029,225.644 113.731 C 225.359 114.657,224.959 116.310,224.755 117.404 C 224.551 118.499,224.218 119.723,224.014 120.125 C 223.811 120.526,223.498 121.496,223.319 122.280 C 223.140 123.063,222.789 124.054,222.539 124.482 C 222.289 124.909,221.889 125.862,221.650 126.599 C 221.411 127.336,221.047 128.079,220.841 128.250 C 220.635 128.421,220.465 128.692,220.463 128.853 C 220.461 129.014,220.122 129.811,219.709 130.625 C 219.296 131.439,218.817 132.547,218.643 133.086 C 218.470 133.626,218.119 134.537,217.863 135.111 C 217.606 135.685,217.201 137.376,216.963 138.868 C 216.725 140.360,216.415 142.163,216.275 142.876 C 215.676 145.925,215.729 149.539,216.434 153.808 C 216.805 156.060,217.220 158.585,217.355 159.420 C 217.490 160.255,217.712 161.072,217.848 161.236 C 217.983 161.399,218.283 162.347,218.514 163.341 C 218.744 164.335,219.085 165.384,219.271 165.670 C 219.457 165.957,219.816 166.833,220.067 167.617 C 220.319 168.400,220.697 169.315,220.907 169.650 C 221.117 169.985,221.513 170.909,221.787 171.704 C 222.060 172.500,222.439 173.333,222.628 173.557 C 222.817 173.781,223.132 174.372,223.329 174.870 C 223.525 175.369,223.952 176.172,224.278 176.655 C 224.604 177.138,224.870 177.635,224.870 177.759 C 224.870 177.882,225.220 178.467,225.648 179.057 C 226.075 179.647,226.425 180.230,226.425 180.352 C 226.425 180.475,227.124 181.604,227.979 182.860 C 228.834 184.117,229.534 185.246,229.534 185.369 C 229.534 185.493,229.812 185.891,230.153 186.255 C 231.479 187.674,231.969 190.779,231.168 192.695 C 230.792 193.595,227.595 196.891,227.098 196.891 C 226.967 196.891,226.324 197.209,225.670 197.598 C 223.544 198.861,220.614 199.792,217.358 200.237 C 216.146 200.403,214.509 200.661,213.718 200.812 C 212.177 201.105,207.673 200.974,204.922 200.556 C 203.996 200.415,202.422 200.186,201.425 200.047 C 200.427 199.908,198.716 199.490,197.623 199.120 C 196.529 198.749,195.421 198.442,195.162 198.437 C 194.902 198.433,193.993 198.083,193.141 197.660 C 192.290 197.237,191.402 196.891,191.168 196.891 C 190.935 196.891,190.465 196.679,190.126 196.420 C 189.786 196.161,189.100 195.790,188.601 195.596 C 188.102 195.401,187.365 194.972,186.962 194.642 C 186.559 194.312,186.068 194.041,185.870 194.041 C 185.672 194.041,185.112 193.692,184.625 193.264 C 184.138 192.837,183.655 192.487,183.551 192.487 C 182.100 192.487,174.508 184.008,173.624 181.400 C 173.465 180.931,173.108 180.228,172.830 179.837 C 172.552 179.447,172.238 178.669,172.133 178.108 C 172.028 177.547,171.665 176.461,171.326 175.696 C 170.845 174.608,170.679 173.673,170.566 171.414 C 170.487 169.824,170.257 168.084,170.056 167.547 C 169.590 166.306,169.592 164.837,170.062 162.270 C 170.267 161.150,170.512 158.951,170.607 157.383 C 170.711 155.682,170.987 153.911,171.293 152.988 C 171.574 152.139,171.958 150.496,172.145 149.338 C 172.333 148.180,172.722 146.771,173.010 146.207 C 173.297 145.643,173.648 144.604,173.789 143.899 C 173.930 143.194,174.345 141.917,174.711 141.062 C 175.077 140.207,175.379 139.271,175.382 138.983 C 175.386 138.694,175.567 138.203,175.785 137.892 C 176.003 137.581,176.404 136.651,176.677 135.826 C 176.950 135.001,177.468 133.744,177.828 133.031 C 178.187 132.319,178.485 131.575,178.489 131.378 C 178.494 131.181,178.716 130.656,178.984 130.212 C 179.252 129.768,179.609 128.938,179.779 128.368 C 179.948 127.798,180.375 126.739,180.726 126.014 C 181.078 125.289,181.436 124.240,181.521 123.682 C 181.606 123.125,181.945 122.085,182.275 121.373 C 182.604 120.661,182.996 119.311,183.145 118.373 C 183.294 117.435,183.578 116.328,183.778 115.912 C 184.796 113.784,185.578 102.889,184.983 99.123 C 184.845 98.252,184.610 96.392,184.460 94.991 C 184.310 93.590,184.025 92.128,183.825 91.742 C 183.625 91.356,183.329 90.287,183.165 89.367 C 183.002 88.447,182.643 87.221,182.368 86.642 C 182.092 86.063,181.681 84.965,181.454 84.201 C 181.227 83.437,180.884 82.570,180.692 82.274 C 180.500 81.978,180.155 81.179,179.926 80.498 C 179.696 79.817,179.222 78.839,178.873 78.324 C 178.524 77.810,178.238 77.252,178.238 77.085 C 178.238 76.918,178.020 76.547,177.752 76.260 C 177.485 75.973,177.020 75.223,176.719 74.592 C 176.418 73.961,175.705 72.746,175.134 71.891 C 174.563 71.036,173.955 70.045,173.781 69.689 C 173.608 69.333,173.141 68.659,172.743 68.190 C 172.346 67.722,172.021 67.226,172.021 67.087 C 172.021 66.948,171.671 66.352,171.244 65.762 C 170.816 65.172,170.466 64.552,170.466 64.385 C 170.466 64.217,170.186 63.817,169.843 63.495 C 169.501 63.173,169.146 62.482,169.056 61.960 C 168.965 61.438,168.762 60.683,168.605 60.284 C 168.394 59.747,168.396 59.479,168.615 59.260 C 168.779 59.097,168.912 58.773,168.912 58.540 C 168.912 57.269,173.426 54.724,176.943 54.012 C 178.154 53.767,179.320 53.467,179.534 53.346 C 180.459 52.819,188.008 53.081,190.627 53.731 " stroke="none" fill="#672f95" fill-rule="evenodd"></path><path id="path1" d="M0.000 129.534 L 0.000 259.067 200.000 259.067 L 400.000 259.067 400.000 129.534 L 400.000 0.000 200.000 0.000 L 0.000 0.000 0.000 129.534 M190.544 42.643 C 191.541 42.862,193.407 43.193,194.689 43.381 C 195.972 43.568,197.746 44.026,198.632 44.399 C 199.518 44.773,200.484 45.078,200.778 45.078 C 201.072 45.078,201.862 45.355,202.535 45.693 C 203.207 46.032,204.165 46.394,204.663 46.497 C 205.162 46.600,206.105 47.022,206.758 47.436 C 207.412 47.849,208.112 48.187,208.313 48.188 C 208.514 48.188,209.203 48.537,209.845 48.964 C 210.486 49.390,211.101 49.739,211.211 49.740 C 211.408 49.741,213.799 51.285,214.456 51.835 C 214.641 51.990,215.233 52.370,215.770 52.678 C 217.871 53.883,223.550 58.808,225.389 61.020 C 227.222 63.226,227.979 64.230,227.979 64.455 C 227.979 64.592,228.154 64.848,228.367 65.025 C 228.914 65.479,230.763 68.291,230.971 68.983 C 231.066 69.300,231.481 70.094,231.893 70.748 C 232.305 71.402,232.642 72.103,232.642 72.307 C 232.642 72.511,232.931 73.102,233.283 73.621 C 233.636 74.139,234.002 75.070,234.097 75.689 C 234.192 76.307,234.541 77.355,234.872 78.017 C 235.203 78.679,235.592 79.962,235.738 80.867 C 235.883 81.772,236.234 83.171,236.517 83.975 C 238.284 88.991,238.302 108.543,236.545 114.851 C 236.260 115.873,235.895 117.584,235.733 118.653 C 235.571 119.722,235.174 121.237,234.852 122.021 C 234.529 122.804,234.189 123.953,234.094 124.574 C 234.000 125.194,233.732 126.069,233.498 126.517 C 233.264 126.965,232.813 128.031,232.497 128.886 C 231.655 131.158,230.752 133.166,230.112 134.186 C 229.804 134.679,229.475 135.437,229.381 135.870 C 229.288 136.304,228.971 137.124,228.677 137.694 C 228.383 138.264,228.000 139.547,227.826 140.544 C 227.652 141.541,227.314 143.232,227.076 144.301 C 226.620 146.348,226.659 149.265,227.180 152.073 C 227.325 152.856,227.628 154.605,227.851 155.959 C 228.075 157.312,228.472 158.832,228.734 159.337 C 228.996 159.841,229.287 160.657,229.383 161.150 C 229.478 161.643,229.837 162.688,230.180 163.472 C 231.376 166.201,231.854 167.231,232.106 167.617 C 232.246 167.830,232.596 168.530,232.884 169.171 C 233.171 169.812,233.523 170.512,233.666 170.725 C 233.809 170.939,234.103 171.522,234.320 172.021 C 234.880 173.306,235.947 175.152,236.488 175.770 C 236.741 176.059,237.092 176.633,237.268 177.046 C 237.444 177.458,237.821 178.100,238.106 178.471 C 239.192 179.886,240.415 181.867,240.415 182.213 C 240.415 182.411,240.631 182.851,240.895 183.190 C 242.224 184.899,242.967 189.893,242.381 193.181 C 241.930 195.717,241.292 197.668,240.914 197.668 C 240.804 197.668,240.638 198.019,240.544 198.447 C 240.367 199.253,237.671 202.684,236.677 203.368 C 236.366 203.582,235.868 203.990,235.570 204.275 C 234.391 205.402,233.599 205.970,232.561 206.430 C 231.965 206.694,231.317 207.104,231.121 207.341 C 230.926 207.578,230.600 207.772,230.398 207.772 C 230.196 207.772,229.282 208.122,228.368 208.549 C 227.454 208.977,226.585 209.326,226.439 209.326 C 226.292 209.326,225.092 209.669,223.773 210.088 C 217.948 211.938,202.762 212.023,196.762 210.239 C 195.622 209.900,194.021 209.502,193.205 209.355 C 192.389 209.208,191.457 208.918,191.133 208.711 C 190.809 208.504,189.913 208.150,189.141 207.925 C 188.369 207.700,187.553 207.358,187.327 207.166 C 187.102 206.973,186.392 206.613,185.751 206.366 C 185.110 206.118,184.411 205.768,184.197 205.588 C 183.983 205.409,183.329 205.076,182.743 204.849 C 182.157 204.622,181.237 204.138,180.699 203.773 C 180.161 203.408,179.625 203.109,179.508 203.109 C 179.025 203.109,170.725 196.489,170.725 196.105 C 170.725 196.026,170.288 195.492,169.754 194.918 C 169.220 194.345,168.491 193.494,168.135 193.028 C 167.778 192.563,167.108 191.715,166.645 191.144 C 166.182 190.573,165.803 189.961,165.803 189.782 C 165.803 189.604,165.574 189.252,165.295 188.998 C 165.015 188.745,164.647 188.115,164.477 187.598 C 164.307 187.081,163.907 186.250,163.588 185.751 C 163.269 185.253,162.861 184.381,162.682 183.815 C 162.503 183.249,162.219 182.648,162.050 182.480 C 161.881 182.311,161.540 181.230,161.291 180.078 C 161.042 178.926,160.746 177.926,160.632 177.856 C 159.091 176.904,158.801 157.507,160.250 152.332 C 160.470 151.548,160.912 149.624,161.233 148.057 C 161.554 146.490,161.943 144.974,162.097 144.689 C 162.251 144.404,162.514 143.472,162.681 142.617 C 162.849 141.762,163.262 140.363,163.599 139.508 C 163.937 138.653,164.284 137.622,164.371 137.217 C 164.458 136.812,164.808 135.904,165.148 135.199 C 165.488 134.493,165.845 133.542,165.940 133.085 C 166.035 132.628,166.393 131.744,166.735 131.120 C 167.078 130.497,167.358 129.843,167.358 129.667 C 167.358 129.491,167.704 128.661,168.128 127.821 C 168.552 126.982,168.974 125.946,169.066 125.518 C 169.158 125.091,169.498 124.275,169.821 123.705 C 170.144 123.135,170.488 122.202,170.586 121.632 C 170.684 121.062,170.992 120.203,171.272 119.723 C 171.551 119.243,171.903 118.253,172.054 117.521 C 172.204 116.790,172.603 115.412,172.940 114.458 C 173.297 113.448,173.666 111.557,173.824 109.925 C 173.973 108.384,174.204 106.541,174.338 105.829 C 174.653 104.146,174.673 102.008,174.379 101.236 C 174.251 100.900,174.008 99.313,173.839 97.711 C 173.640 95.830,173.265 94.042,172.781 92.670 C 172.368 91.501,172.028 90.311,172.025 90.026 C 172.022 89.741,171.772 89.103,171.471 88.609 C 171.169 88.114,170.761 87.166,170.564 86.502 C 170.367 85.838,170.038 85.156,169.832 84.985 C 169.627 84.815,169.268 84.103,169.036 83.403 C 168.803 82.703,168.499 82.060,168.359 81.973 C 168.219 81.887,167.806 81.186,167.442 80.416 C 167.077 79.646,166.681 79.016,166.562 79.016 C 166.443 79.016,166.105 78.520,165.811 77.915 C 165.067 76.383,164.187 74.985,163.519 74.274 C 163.208 73.942,162.953 73.558,162.953 73.420 C 162.953 73.150,161.497 70.752,160.688 69.689 C 160.417 69.333,159.990 68.517,159.739 67.876 C 159.488 67.234,159.129 66.535,158.941 66.321 C 157.225 64.373,157.242 56.021,158.968 53.478 C 159.307 52.977,159.585 52.470,159.585 52.351 C 159.585 51.710,164.846 46.930,166.023 46.503 C 166.415 46.360,167.080 45.996,167.500 45.693 C 167.920 45.390,168.658 45.057,169.138 44.953 C 169.619 44.849,170.377 44.550,170.822 44.289 C 171.268 44.028,172.681 43.629,173.964 43.401 C 175.246 43.173,176.937 42.826,177.720 42.629 C 179.781 42.113,188.159 42.122,190.544 42.643 M179.534 53.346 C 179.320 53.467,178.154 53.767,176.943 54.012 C 173.426 54.724,168.912 57.269,168.912 58.540 C 168.912 58.773,168.779 59.097,168.615 59.260 C 168.396 59.479,168.394 59.747,168.605 60.284 C 168.762 60.683,168.965 61.438,169.056 61.960 C 169.146 62.482,169.501 63.173,169.843 63.495 C 170.186 63.817,170.466 64.217,170.466 64.385 C 170.466 64.552,170.816 65.172,171.244 65.762 C 171.671 66.352,172.021 66.948,172.021 67.087 C 172.021 67.226,172.346 67.722,172.743 68.190 C 173.141 68.659,173.608 69.333,173.781 69.689 C 173.955 70.045,174.563 71.036,175.134 71.891 C 175.705 72.746,176.418 73.961,176.719 74.592 C 177.020 75.223,177.485 75.973,177.752 76.260 C 178.020 76.547,178.238 76.918,178.238 77.085 C 178.238 77.252,178.524 77.810,178.873 78.324 C 179.222 78.839,179.696 79.817,179.926 80.498 C 180.155 81.179,180.500 81.978,180.692 82.274 C 180.884 82.570,181.227 83.437,181.454 84.201 C 181.681 84.965,182.092 86.063,182.368 86.642 C 182.643 87.221,183.002 88.447,183.165 89.367 C 183.329 90.287,183.625 91.356,183.825 91.742 C 184.025 92.128,184.310 93.590,184.460 94.991 C 184.610 96.392,184.845 98.252,184.983 99.123 C 185.578 102.889,184.796 113.784,183.778 115.912 C 183.578 116.328,183.294 117.435,183.145 118.373 C 182.996 119.311,182.604 120.661,182.275 121.373 C 181.945 122.085,181.606 123.125,181.521 123.682 C 181.436 124.240,181.078 125.289,180.726 126.014 C 180.375 126.739,179.948 127.798,179.779 128.368 C 179.609 128.938,179.252 129.768,178.984 130.212 C 178.716 130.656,178.494 131.181,178.489 131.378 C 178.485 131.575,178.187 132.319,177.828 133.031 C 177.468 133.744,176.950 135.001,176.677 135.826 C 176.404 136.651,176.003 137.581,175.785 137.892 C 175.567 138.203,175.386 138.694,175.382 138.983 C 175.379 139.271,175.077 140.207,174.711 141.062 C 174.345 141.917,173.930 143.194,173.789 143.899 C 173.648 144.604,173.297 145.643,173.010 146.207 C 172.722 146.771,172.333 148.180,172.145 149.338 C 171.958 150.496,171.574 152.139,171.293 152.988 C 170.987 153.911,170.711 155.682,170.607 157.383 C 170.512 158.951,170.267 161.150,170.062 162.270 C 169.592 164.837,169.590 166.306,170.056 167.547 C 170.257 168.084,170.487 169.824,170.566 171.414 C 170.679 173.673,170.845 174.608,171.326 175.696 C 171.665 176.461,172.028 177.547,172.133 178.108 C 172.238 178.669,172.552 179.447,172.830 179.837 C 173.108 180.228,173.465 180.931,173.624 181.400 C 174.508 184.008,182.100 192.487,183.551 192.487 C 183.655 192.487,184.138 192.837,184.625 193.264 C 185.112 193.692,185.672 194.041,185.870 194.041 C 186.068 194.041,186.559 194.312,186.962 194.642 C 187.365 194.972,188.102 195.401,188.601 195.596 C 189.100 195.790,189.786 196.161,190.126 196.420 C 190.465 196.679,190.935 196.891,191.168 196.891 C 191.402 196.891,192.290 197.237,193.141 197.660 C 193.993 198.083,194.902 198.433,195.162 198.437 C 195.421 198.442,196.529 198.749,197.623 199.120 C 198.716 199.490,200.427 199.908,201.425 200.047 C 202.422 200.186,203.996 200.415,204.922 200.556 C 207.673 200.974,212.177 201.105,213.718 200.812 C 214.509 200.661,216.146 200.403,217.358 200.237 C 220.614 199.792,223.544 198.861,225.670 197.598 C 226.324 197.209,226.967 196.891,227.098 196.891 C 227.595 196.891,230.792 193.595,231.168 192.695 C 231.969 190.779,231.479 187.674,230.153 186.255 C 229.812 185.891,229.534 185.493,229.534 185.369 C 229.534 185.246,228.834 184.117,227.979 182.860 C 227.124 181.604,226.425 180.475,226.425 180.352 C 226.425 180.230,226.075 179.647,225.648 179.057 C 225.220 178.467,224.870 177.882,224.870 177.759 C 224.870 177.635,224.604 177.138,224.278 176.655 C 223.952 176.172,223.525 175.369,223.329 174.870 C 223.132 174.372,222.817 173.781,222.628 173.557 C 222.439 173.333,222.060 172.500,221.787 171.704 C 221.513 170.909,221.117 169.985,220.907 169.650 C 220.697 169.315,220.319 168.400,220.067 167.617 C 219.816 166.833,219.457 165.957,219.271 165.670 C 219.085 165.384,218.744 164.335,218.514 163.341 C 218.283 162.347,217.983 161.399,217.848 161.236 C 217.712 161.072,217.490 160.255,217.355 159.420 C 217.220 158.585,216.805 156.060,216.434 153.808 C 215.729 149.539,215.676 145.925,216.275 142.876 C 216.415 142.163,216.725 140.360,216.963 138.868 C 217.201 137.376,217.606 135.685,217.863 135.111 C 218.119 134.537,218.470 133.626,218.643 133.086 C 218.817 132.547,219.296 131.439,219.709 130.625 C 220.122 129.811,220.461 129.014,220.463 128.853 C 220.465 128.692,220.635 128.421,220.841 128.250 C 221.047 128.079,221.411 127.336,221.650 126.599 C 221.889 125.862,222.289 124.909,222.539 124.482 C 222.789 124.054,223.140 123.063,223.319 122.280 C 223.498 121.496,223.811 120.526,224.014 120.125 C 224.218 119.723,224.551 118.499,224.755 117.404 C 224.959 116.310,225.359 114.657,225.644 113.731 C 227.395 108.029,227.397 89.930,225.647 85.491 C 225.382 84.819,225.031 83.524,224.867 82.614 C 224.703 81.703,224.356 80.609,224.096 80.181 C 223.835 79.754,223.484 78.880,223.316 78.238 C 223.147 77.597,222.858 76.898,222.673 76.684 C 222.488 76.470,222.076 75.683,221.758 74.935 C 221.440 74.187,221.106 73.575,221.017 73.575 C 220.927 73.575,220.580 73.058,220.245 72.427 C 219.910 71.795,219.473 71.216,219.274 71.140 C 219.075 71.063,218.912 70.865,218.912 70.698 C 218.912 70.532,218.647 70.150,218.324 69.848 C 218.000 69.547,217.479 68.884,217.165 68.375 C 216.647 67.534,214.475 65.461,213.573 64.947 C 213.372 64.832,212.937 64.482,212.606 64.170 C 212.041 63.635,211.625 63.304,209.715 61.866 C 209.288 61.544,208.784 61.132,208.595 60.951 C 208.407 60.770,208.134 60.622,207.988 60.622 C 207.842 60.622,207.360 60.359,206.917 60.039 C 206.002 59.377,204.443 58.494,203.109 57.883 C 202.610 57.655,201.503 57.140,200.648 56.738 C 199.793 56.337,198.577 55.870,197.946 55.700 C 197.315 55.531,196.558 55.237,196.262 55.048 C 195.967 54.858,195.142 54.625,194.430 54.528 C 193.718 54.432,192.006 54.073,190.627 53.731 C 188.008 53.081,180.459 52.819,179.534 53.346 " stroke="none" fill="#fcfcfc" fill-rule="evenodd"></path></g></svg>