<svg id="svg" version="1.1" xmlns="http://www.w3.org/2000/svg" xmlns:xlink="http://www.w3.org/1999/xlink" width="400" height="258.91472868217056" viewBox="0, 0, 400,258.91472868217056"><g id="svgg"><path id="path0" d="M177.720 44.192 C 177.079 44.406,175.549 44.740,174.321 44.935 C 172.997 45.144,171.574 45.562,170.826 45.960 C 170.132 46.330,169.330 46.635,169.044 46.639 C 168.757 46.643,168.065 46.993,167.506 47.417 C 166.946 47.840,166.383 48.187,166.254 48.187 C 165.738 48.187,161.140 52.396,161.140 52.868 C 161.140 52.957,160.906 53.300,160.620 53.630 C 160.333 53.960,159.971 54.706,159.814 55.288 C 159.657 55.871,159.350 56.960,159.133 57.708 C 158.315 60.519,161.035 68.763,163.723 71.625 C 164.012 71.932,164.249 72.293,164.249 72.426 C 164.250 72.705,166.129 75.526,166.828 76.295 C 167.086 76.580,167.383 77.105,167.486 77.461 C 167.590 77.817,167.940 78.400,168.264 78.756 C 168.588 79.113,168.940 79.696,169.046 80.052 C 169.152 80.408,169.461 81.015,169.733 81.400 C 170.004 81.786,170.356 82.485,170.515 82.955 C 170.674 83.424,171.034 84.137,171.314 84.539 C 171.594 84.942,171.983 85.799,172.177 86.445 C 172.372 87.091,172.753 87.986,173.026 88.434 C 173.298 88.882,173.603 89.773,173.703 90.415 C 173.804 91.056,174.104 92.083,174.371 92.697 C 174.637 93.312,174.980 94.827,175.133 96.065 C 175.285 97.303,175.522 99.096,175.658 100.050 C 175.975 102.261,175.975 104.951,175.658 107.184 C 175.521 108.149,175.282 109.976,175.126 111.245 C 174.971 112.513,174.672 113.962,174.462 114.465 C 174.252 114.967,173.918 116.160,173.718 117.116 C 173.519 118.072,173.130 119.305,172.853 119.855 C 172.576 120.405,172.270 121.295,172.172 121.834 C 172.074 122.372,171.757 123.215,171.468 123.706 C 171.178 124.197,170.788 125.178,170.601 125.887 C 170.414 126.596,170.030 127.503,169.748 127.902 C 169.466 128.301,169.151 129.035,169.048 129.534 C 168.945 130.032,168.595 130.907,168.270 131.477 C 167.945 132.047,167.593 132.921,167.487 133.420 C 167.381 133.918,167.030 134.793,166.707 135.363 C 166.384 135.933,166.041 136.851,165.944 137.404 C 165.847 137.956,165.496 139.021,165.165 139.769 C 164.835 140.517,164.480 141.639,164.377 142.262 C 164.274 142.884,163.920 144.041,163.591 144.831 C 163.261 145.621,162.910 147.020,162.810 147.940 C 162.711 148.859,162.417 150.253,162.157 151.036 C 161.568 152.810,161.143 155.895,161.129 158.503 C 161.122 159.597,160.949 160.959,160.744 161.528 C 160.243 162.920,160.243 167.650,160.744 169.041 C 160.949 169.611,161.123 170.835,161.130 171.762 C 161.148 173.944,161.592 176.667,162.043 177.360 C 162.239 177.660,162.525 178.593,162.679 179.432 C 162.834 180.272,163.308 181.645,163.734 182.485 C 164.159 183.324,164.508 184.187,164.508 184.403 C 164.508 184.619,164.782 185.156,165.118 185.597 C 165.454 186.038,165.811 186.661,165.913 186.982 C 166.201 187.892,168.013 190.500,169.828 192.617 C 170.194 193.044,170.799 193.783,171.171 194.259 C 171.543 194.735,172.790 195.942,173.942 196.942 C 175.094 197.941,176.346 199.038,176.725 199.380 C 177.104 199.721,177.515 200.000,177.638 200.000 C 177.761 200.000,178.267 200.324,178.762 200.719 C 179.258 201.115,180.100 201.666,180.635 201.944 C 181.169 202.222,181.606 202.524,181.606 202.614 C 181.606 202.705,182.160 202.988,182.837 203.243 C 183.514 203.499,184.345 203.923,184.685 204.185 C 185.025 204.448,185.419 204.663,185.560 204.663 C 185.701 204.663,186.490 205.005,187.313 205.424 C 188.136 205.842,189.316 206.318,189.936 206.481 C 190.555 206.644,191.322 206.944,191.640 207.148 C 191.957 207.351,193.007 207.698,193.971 207.918 C 194.936 208.138,196.425 208.535,197.280 208.802 C 198.135 209.068,200.058 209.424,201.554 209.593 C 203.051 209.762,204.974 210.003,205.829 210.129 C 207.868 210.430,212.278 210.425,214.458 210.120 C 215.412 209.986,217.358 209.739,218.782 209.570 C 220.207 209.401,222.189 208.981,223.187 208.637 C 224.184 208.292,225.523 207.892,226.162 207.747 C 226.801 207.602,227.500 207.330,227.716 207.142 C 227.932 206.955,228.575 206.657,229.145 206.482 C 230.104 206.186,230.803 205.802,232.735 204.510 C 233.142 204.238,233.842 203.780,234.289 203.492 C 236.347 202.170,238.329 199.665,239.938 196.352 C 241.565 193.005,241.424 187.760,239.609 184.067 C 239.189 183.212,238.849 182.423,238.853 182.312 C 238.862 182.062,237.299 179.677,236.414 178.591 C 236.049 178.144,235.751 177.666,235.751 177.529 C 235.751 177.392,235.402 176.797,234.974 176.207 C 234.547 175.617,234.197 175.039,234.197 174.924 C 234.197 174.808,233.864 174.253,233.458 173.691 C 233.052 173.129,232.584 172.268,232.419 171.778 C 232.253 171.289,231.948 170.700,231.739 170.470 C 231.531 170.240,231.185 169.555,230.971 168.947 C 230.756 168.339,230.345 167.542,230.057 167.176 C 229.769 166.810,229.534 166.263,229.534 165.960 C 229.534 165.658,229.224 164.828,228.845 164.117 C 228.465 163.406,228.052 162.358,227.925 161.788 C 227.799 161.218,227.468 160.278,227.190 159.699 C 226.912 159.120,226.500 157.430,226.273 155.942 C 226.047 154.455,225.748 152.655,225.610 151.943 C 225.097 149.306,225.064 146.538,225.520 144.279 C 225.762 143.080,226.115 141.205,226.304 140.112 C 226.493 139.020,226.948 137.564,227.314 136.876 C 227.680 136.188,227.979 135.378,227.979 135.076 C 227.979 134.773,228.205 134.238,228.482 133.887 C 228.758 133.535,229.218 132.632,229.504 131.880 C 229.790 131.127,230.189 130.321,230.390 130.088 C 230.591 129.854,230.897 129.080,231.068 128.368 C 231.240 127.655,231.599 126.699,231.867 126.241 C 232.134 125.784,232.472 124.769,232.617 123.985 C 232.761 123.202,233.107 122.116,233.384 121.572 C 233.662 121.028,233.968 120.004,234.065 119.294 C 234.161 118.585,234.525 116.904,234.873 115.559 C 235.222 114.214,235.619 111.649,235.758 109.860 C 235.896 108.070,236.136 105.615,236.292 104.404 C 236.883 99.808,236.053 87.592,234.879 83.619 C 234.531 82.441,234.181 80.937,234.101 80.277 C 234.022 79.617,233.661 78.522,233.299 77.842 C 232.938 77.163,232.642 76.407,232.642 76.164 C 232.642 75.920,232.293 75.065,231.865 74.264 C 231.438 73.463,231.086 72.660,231.083 72.479 C 231.081 72.298,230.731 71.637,230.306 71.010 C 229.881 70.383,229.533 69.684,229.533 69.456 C 229.533 69.228,229.183 68.633,228.756 68.135 C 228.330 67.636,227.980 67.123,227.980 66.994 C 227.979 66.690,226.494 64.656,225.583 63.710 C 225.191 63.303,224.870 62.909,224.870 62.834 C 224.870 62.679,220.073 58.008,218.824 56.947 C 216.365 54.857,214.234 53.339,211.435 51.681 C 210.957 51.398,210.082 50.847,209.492 50.458 C 208.902 50.069,208.236 49.748,208.011 49.746 C 207.786 49.743,207.086 49.405,206.456 48.995 C 205.826 48.585,204.870 48.171,204.331 48.075 C 203.793 47.979,202.931 47.615,202.417 47.267 C 201.903 46.918,201.263 46.632,200.995 46.632 C 200.727 46.632,199.665 46.334,198.635 45.969 C 197.605 45.604,195.712 45.130,194.430 44.914 C 193.148 44.698,191.516 44.400,190.803 44.251 C 188.555 43.780,179.080 43.738,177.720 44.192 M191.321 52.279 C 195.972 53.248,199.501 54.347,201.295 55.384 C 201.794 55.672,202.580 55.987,203.041 56.083 C 203.502 56.179,204.087 56.521,204.341 56.844 C 204.595 57.167,205.075 57.577,205.408 57.755 C 207.008 58.611,205.766 58.677,186.814 58.753 C 166.416 58.835,167.339 58.904,167.886 57.335 C 168.439 55.748,172.703 53.361,176.425 52.554 C 177.778 52.261,179.061 51.916,179.275 51.789 C 180.076 51.312,188.282 51.645,191.321 52.279 M216.071 65.290 C 217.284 65.939,220.687 69.912,221.635 71.786 C 221.881 72.272,222.313 72.922,222.596 73.232 C 224.050 74.824,223.404 74.867,198.501 74.869 C 177.653 74.870,176.100 74.840,175.444 74.417 C 174.573 73.856,173.901 73.090,173.682 72.409 C 173.591 72.124,173.287 71.641,173.008 71.336 C 172.729 71.031,172.305 70.437,172.066 70.017 C 171.107 68.329,170.564 67.502,169.895 66.715 C 168.390 64.945,167.291 65.026,192.819 65.026 C 207.763 65.026,215.747 65.116,216.071 65.290 M225.712 81.181 C 225.962 81.303,226.166 81.564,226.166 81.760 C 226.166 81.957,226.508 83.198,226.925 84.518 C 228.181 88.485,228.468 93.473,227.484 94.228 C 226.730 94.806,183.868 94.688,183.373 94.106 C 182.903 93.553,181.708 90.154,181.483 88.731 C 181.393 88.161,181.050 87.111,180.720 86.399 C 180.391 85.687,179.939 84.521,179.716 83.808 C 178.912 81.241,178.905 81.393,179.844 81.119 C 180.915 80.806,225.068 80.865,225.712 81.181 M227.915 101.033 C 228.823 101.588,228.985 102.329,228.512 103.783 C 228.378 104.196,228.151 106.032,228.006 107.864 C 227.794 110.564,227.656 111.261,227.279 111.548 C 226.533 112.113,183.881 112.084,183.411 111.518 C 183.144 111.196,183.141 110.681,183.397 108.862 C 183.572 107.621,183.794 105.401,183.891 103.929 C 184.056 101.426,184.110 101.228,184.715 100.894 C 185.918 100.230,226.814 100.363,227.915 101.033 M225.407 118.567 C 225.721 118.882,224.586 124.142,224.069 124.769 C 223.938 124.927,223.602 125.722,223.323 126.535 C 223.043 127.349,222.451 128.473,222.007 129.033 L 221.200 130.052 200.010 130.052 C 181.404 130.052,178.780 130.004,178.494 129.660 C 178.036 129.107,178.340 127.235,179.134 125.715 C 179.491 125.033,179.902 123.847,180.048 123.079 C 180.193 122.312,180.418 121.555,180.548 121.399 C 180.677 121.242,180.987 120.589,181.236 119.948 C 181.485 119.307,181.803 118.633,181.944 118.451 C 182.300 117.991,224.944 118.105,225.407 118.567 M218.276 136.707 C 218.746 137.177,218.680 139.102,218.106 141.683 C 217.960 142.339,217.732 143.373,217.599 143.980 C 217.466 144.588,217.358 145.799,217.358 146.672 C 217.358 147.880,217.249 148.341,216.904 148.603 C 216.321 149.046,173.275 149.129,171.697 148.691 C 170.547 148.372,170.559 148.449,171.348 146.438 C 171.690 145.565,172.054 144.348,172.156 143.733 C 172.259 143.119,172.604 142.092,172.923 141.451 C 173.243 140.810,173.589 139.821,173.692 139.253 C 173.948 137.847,174.244 137.364,175.211 136.775 C 176.411 136.043,217.547 135.978,218.276 136.707 M217.487 155.409 C 218.243 155.570,218.276 155.641,218.682 157.985 C 218.913 159.310,219.230 160.650,219.389 160.962 C 219.547 161.273,219.912 162.403,220.199 163.472 C 220.487 164.540,220.907 165.764,221.133 166.192 C 221.453 166.796,221.484 167.127,221.271 167.681 L 220.997 168.394 195.354 168.394 L 169.710 168.394 169.037 167.681 C 168.387 166.994,168.367 166.881,168.485 164.508 C 168.716 159.808,169.131 155.931,169.441 155.557 C 169.768 155.163,215.671 155.021,217.487 155.409 M225.178 175.583 C 225.690 176.117,226.194 176.846,226.296 177.202 C 226.399 177.558,226.748 178.141,227.073 178.497 C 227.397 178.854,227.738 179.397,227.831 179.705 C 227.924 180.013,228.345 180.700,228.767 181.231 C 229.189 181.761,229.534 182.299,229.534 182.425 C 229.534 182.552,229.940 183.246,230.437 183.968 C 232.353 186.754,234.548 186.558,202.424 186.472 C 171.875 186.390,174.532 186.566,173.684 184.565 C 173.498 184.126,173.170 183.621,172.956 183.443 C 172.741 183.265,172.425 182.691,172.253 182.168 C 172.082 181.645,171.683 180.807,171.367 180.304 C 170.855 179.490,170.451 178.225,170.034 176.133 C 169.717 174.538,168.378 174.611,197.673 174.611 L 224.247 174.611 225.178 175.583 M232.323 193.272 C 232.545 194.425,229.322 197.659,226.992 198.621 C 226.466 198.838,225.848 199.182,225.618 199.386 C 225.388 199.590,224.415 199.982,223.456 200.256 C 222.497 200.530,221.573 200.871,221.402 201.012 C 219.358 202.709,203.394 202.534,197.734 200.754 C 196.416 200.339,195.148 200.000,194.915 200.000 C 194.682 200.000,194.128 199.781,193.683 199.513 C 193.239 199.246,192.409 198.886,191.839 198.715 C 190.489 198.310,187.137 196.676,186.115 195.926 C 185.675 195.602,185.226 195.337,185.118 195.337 C 184.668 195.337,182.620 193.055,182.951 192.922 C 183.911 192.536,232.247 192.879,232.323 193.272 " stroke="none" fill="#6a3497" fill-rule="evenodd"></path><path id="path1" d="M0.000 129.534 L 0.000 259.067 200.000 259.067 L 400.000 259.067 400.000 129.534 L 400.000 0.000 200.000 0.000 L 0.000 0.000 0.000 129.534 M190.803 44.251 C 191.516 44.400,193.148 44.698,194.430 44.914 C 195.712 45.130,197.605 45.604,198.635 45.969 C 199.665 46.334,200.727 46.632,200.995 46.632 C 201.263 46.632,201.903 46.918,202.417 47.267 C 202.931 47.615,203.793 47.979,204.331 48.075 C 204.870 48.171,205.826 48.585,206.456 48.995 C 207.086 49.405,207.786 49.743,208.011 49.746 C 208.236 49.748,208.902 50.069,209.492 50.458 C 210.082 50.847,210.957 51.398,211.435 51.681 C 214.234 53.339,216.365 54.857,218.824 56.947 C 220.073 58.008,224.870 62.679,224.870 62.834 C 224.870 62.909,225.191 63.303,225.583 63.710 C 226.494 64.656,227.979 66.690,227.980 66.994 C 227.980 67.123,228.330 67.636,228.756 68.135 C 229.183 68.633,229.533 69.228,229.533 69.456 C 229.533 69.684,229.881 70.383,230.306 71.010 C 230.731 71.637,231.081 72.298,231.083 72.479 C 231.086 72.660,231.438 73.463,231.865 74.264 C 232.293 75.065,232.642 75.920,232.642 76.164 C 232.642 76.407,232.938 77.163,233.299 77.842 C 233.661 78.522,234.022 79.617,234.101 80.277 C 234.181 80.937,234.531 82.441,234.879 83.619 C 236.053 87.592,236.883 99.808,236.292 104.404 C 236.136 105.615,235.896 108.070,235.758 109.860 C 235.619 111.649,235.222 114.214,234.873 115.559 C 234.525 116.904,234.161 118.585,234.065 119.294 C 233.968 120.004,233.662 121.028,233.384 121.572 C 233.107 122.116,232.761 123.202,232.617 123.985 C 232.472 124.769,232.134 125.784,231.867 126.241 C 231.599 126.699,231.240 127.655,231.068 128.368 C 230.897 129.080,230.591 129.854,230.390 130.088 C 230.189 130.321,229.790 131.127,229.504 131.880 C 229.218 132.632,228.758 133.535,228.482 133.887 C 228.205 134.238,227.979 134.773,227.979 135.076 C 227.979 135.378,227.680 136.188,227.314 136.876 C 226.948 137.564,226.493 139.020,226.304 140.112 C 226.115 141.205,225.762 143.080,225.520 144.279 C 225.064 146.538,225.097 149.306,225.610 151.943 C 225.748 152.655,226.047 154.455,226.273 155.942 C 226.500 157.430,226.912 159.120,227.190 159.699 C 227.468 160.278,227.799 161.218,227.925 161.788 C 228.052 162.358,228.465 163.406,228.845 164.117 C 229.224 164.828,229.534 165.658,229.534 165.960 C 229.534 166.263,229.769 166.810,230.057 167.176 C 230.345 167.542,230.756 168.339,230.971 168.947 C 231.185 169.555,231.531 170.240,231.739 170.470 C 231.948 170.700,232.253 171.289,232.419 171.778 C 232.584 172.268,233.052 173.129,233.458 173.691 C 233.864 174.253,234.197 174.808,234.197 174.924 C 234.197 175.039,234.547 175.617,234.974 176.207 C 235.402 176.797,235.751 177.392,235.751 177.529 C 235.751 177.666,236.049 178.144,236.414 178.591 C 237.299 179.677,238.862 182.062,238.853 182.312 C 238.849 182.423,239.189 183.212,239.609 184.067 C 241.424 187.760,241.565 193.005,239.938 196.352 C 238.329 199.665,236.347 202.170,234.289 203.492 C 233.842 203.780,233.142 204.238,232.735 204.510 C 230.803 205.802,230.104 206.186,229.145 206.482 C 228.575 206.657,227.932 206.955,227.716 207.142 C 227.500 207.330,226.801 207.602,226.162 207.747 C 225.523 207.892,224.184 208.292,223.187 208.637 C 222.189 208.981,220.207 209.401,218.782 209.570 C 217.358 209.739,215.412 209.986,214.458 210.120 C 212.278 210.425,207.868 210.430,205.829 210.129 C 204.974 210.003,203.051 209.762,201.554 209.593 C 200.058 209.424,198.135 209.068,197.280 208.802 C 196.425 208.535,194.936 208.138,193.971 207.918 C 193.007 207.698,191.957 207.351,191.640 207.148 C 191.322 206.944,190.555 206.644,189.936 206.481 C 189.316 206.318,188.136 205.842,187.313 205.424 C 186.490 205.005,185.701 204.663,185.560 204.663 C 185.419 204.663,185.025 204.448,184.685 204.185 C 184.345 203.923,183.514 203.499,182.837 203.243 C 182.160 202.988,181.606 202.705,181.606 202.614 C 181.606 202.524,181.169 202.222,180.635 201.944 C 180.100 201.666,179.258 201.115,178.762 200.719 C 178.267 200.324,177.761 200.000,177.638 200.000 C 177.515 200.000,177.104 199.721,176.725 199.380 C 176.346 199.038,175.094 197.941,173.942 196.942 C 172.790 195.942,171.543 194.735,171.171 194.259 C 170.799 193.783,170.194 193.044,169.828 192.617 C 168.013 190.500,166.201 187.892,165.913 186.982 C 165.811 186.661,165.454 186.038,165.118 185.597 C 164.782 185.156,164.508 184.619,164.508 184.403 C 164.508 184.187,164.159 183.324,163.734 182.485 C 163.308 181.645,162.834 180.272,162.679 179.432 C 162.525 178.593,162.239 177.660,162.043 177.360 C 161.592 176.667,161.148 173.944,161.130 171.762 C 161.123 170.835,160.949 169.611,160.744 169.041 C 160.243 167.650,160.243 162.920,160.744 161.528 C 160.949 160.959,161.122 159.597,161.129 158.503 C 161.143 155.895,161.568 152.810,162.157 151.036 C 162.417 150.253,162.711 148.859,162.810 147.940 C 162.910 147.020,163.261 145.621,163.591 144.831 C 163.920 144.041,164.274 142.884,164.377 142.262 C 164.480 141.639,164.835 140.517,165.165 139.769 C 165.496 139.021,165.847 137.956,165.944 137.404 C 166.041 136.851,166.384 135.933,166.707 135.363 C 167.030 134.793,167.381 133.918,167.487 133.420 C 167.593 132.921,167.945 132.047,168.270 131.477 C 168.595 130.907,168.945 130.032,169.048 129.534 C 169.151 129.035,169.466 128.301,169.748 127.902 C 170.030 127.503,170.414 126.596,170.601 125.887 C 170.788 125.178,171.178 124.197,171.468 123.706 C 171.757 123.215,172.074 122.372,172.172 121.834 C 172.270 121.295,172.576 120.405,172.853 119.855 C 173.130 119.305,173.519 118.072,173.718 117.116 C 173.918 116.160,174.252 114.967,174.462 114.465 C 174.672 113.962,174.971 112.513,175.126 111.245 C 175.282 109.976,175.521 108.149,175.658 107.184 C 175.975 104.951,175.975 102.261,175.658 100.050 C 175.522 99.096,175.285 97.303,175.133 96.065 C 174.980 94.827,174.637 93.312,174.371 92.697 C 174.104 92.083,173.804 91.056,173.703 90.415 C 173.603 89.773,173.298 88.882,173.026 88.434 C 172.753 87.986,172.372 87.091,172.177 86.445 C 171.983 85.799,171.594 84.942,171.314 84.539 C 171.034 84.137,170.674 83.424,170.515 82.955 C 170.356 82.485,170.004 81.786,169.733 81.400 C 169.461 81.015,169.152 80.408,169.046 80.052 C 168.940 79.696,168.588 79.113,168.264 78.756 C 167.940 78.400,167.590 77.817,167.486 77.461 C 167.383 77.105,167.086 76.580,166.828 76.295 C 166.129 75.526,164.250 72.705,164.249 72.426 C 164.249 72.293,164.012 71.932,163.723 71.625 C 161.035 68.763,158.315 60.519,159.133 57.708 C 159.350 56.960,159.657 55.871,159.814 55.288 C 159.971 54.706,160.333 53.960,160.620 53.630 C 160.906 53.300,161.140 52.957,161.140 52.868 C 161.140 52.396,165.738 48.187,166.254 48.187 C 166.383 48.187,166.946 47.840,167.506 47.417 C 168.065 46.993,168.757 46.643,169.044 46.639 C 169.330 46.635,170.132 46.330,170.826 45.960 C 171.574 45.562,172.997 45.144,174.321 44.935 C 175.549 44.740,177.079 44.406,177.720 44.192 C 179.080 43.738,188.555 43.780,190.803 44.251 M179.275 51.789 C 179.061 51.916,177.778 52.261,176.425 52.554 C 172.703 53.361,168.439 55.748,167.886 57.335 C 167.339 58.904,166.416 58.835,186.814 58.753 C 205.766 58.677,207.008 58.611,205.408 57.755 C 205.075 57.577,204.595 57.167,204.341 56.844 C 204.087 56.521,203.502 56.179,203.041 56.083 C 202.580 55.987,201.794 55.672,201.295 55.384 C 196.937 52.865,181.657 50.370,179.275 51.789 M169.627 65.458 C 169.223 65.862,169.241 65.945,169.895 66.715 C 170.564 67.502,171.107 68.329,172.066 70.017 C 172.305 70.437,172.729 71.031,173.008 71.336 C 173.287 71.641,173.591 72.124,173.682 72.409 C 173.901 73.090,174.573 73.856,175.444 74.417 C 176.100 74.840,177.653 74.870,198.501 74.869 C 223.404 74.867,224.050 74.824,222.596 73.232 C 222.313 72.922,221.881 72.272,221.635 71.786 C 220.687 69.912,217.284 65.939,216.071 65.290 C 215.115 64.778,170.144 64.941,169.627 65.458 M179.844 81.119 C 178.905 81.393,178.912 81.241,179.716 83.808 C 179.939 84.521,180.391 85.687,180.720 86.399 C 181.050 87.111,181.393 88.161,181.483 88.731 C 181.708 90.154,182.903 93.553,183.373 94.106 C 183.868 94.688,226.730 94.806,227.484 94.228 C 228.468 93.473,228.181 88.485,226.925 84.518 C 226.508 83.198,226.166 81.957,226.166 81.760 C 226.166 81.564,225.962 81.303,225.712 81.181 C 225.068 80.865,180.915 80.806,179.844 81.119 M184.715 100.894 C 184.110 101.228,184.056 101.426,183.891 103.929 C 183.794 105.401,183.572 107.621,183.397 108.862 C 183.141 110.681,183.144 111.196,183.411 111.518 C 183.881 112.084,226.533 112.113,227.279 111.548 C 227.656 111.261,227.794 110.564,228.006 107.864 C 228.151 106.032,228.378 104.196,228.512 103.783 C 228.985 102.329,228.823 101.588,227.915 101.033 C 226.814 100.363,185.918 100.230,184.715 100.894 M181.944 118.451 C 181.803 118.633,181.485 119.307,181.236 119.948 C 180.987 120.589,180.677 121.242,180.548 121.399 C 180.418 121.555,180.193 122.312,180.048 123.079 C 179.902 123.847,179.491 125.033,179.134 125.715 C 178.340 127.235,178.036 129.107,178.494 129.660 C 178.780 130.004,181.404 130.052,200.010 130.052 L 221.200 130.052 222.007 129.033 C 222.451 128.473,223.043 127.349,223.323 126.535 C 223.602 125.722,223.938 124.927,224.069 124.769 C 224.586 124.142,225.721 118.882,225.407 118.567 C 224.944 118.105,182.300 117.991,181.944 118.451 M175.211 136.775 C 174.244 137.364,173.948 137.847,173.692 139.253 C 173.589 139.821,173.243 140.810,172.923 141.451 C 172.604 142.092,172.259 143.119,172.156 143.733 C 172.054 144.348,171.690 145.565,171.348 146.438 C 170.559 148.449,170.547 148.372,171.697 148.691 C 173.275 149.129,216.321 149.046,216.904 148.603 C 217.249 148.341,217.358 147.880,217.358 146.672 C 217.358 145.799,217.466 144.588,217.599 143.980 C 217.732 143.373,217.960 142.339,218.106 141.683 C 218.680 139.102,218.746 137.177,218.276 136.707 C 217.547 135.978,176.411 136.043,175.211 136.775 M169.441 155.557 C 169.131 155.931,168.716 159.808,168.485 164.508 C 168.367 166.881,168.387 166.994,169.037 167.681 L 169.710 168.394 195.354 168.394 L 220.997 168.394 221.271 167.681 C 221.484 167.127,221.453 166.796,221.133 166.192 C 220.907 165.764,220.487 164.540,220.199 163.472 C 219.912 162.403,219.547 161.273,219.389 160.962 C 219.230 160.650,218.913 159.310,218.682 157.985 C 218.276 155.641,218.243 155.570,217.487 155.409 C 215.671 155.021,169.768 155.163,169.441 155.557 M170.499 175.032 C 170.047 175.348,169.932 175.621,170.034 176.133 C 170.451 178.225,170.855 179.490,171.367 180.304 C 171.683 180.807,172.082 181.645,172.253 182.168 C 172.425 182.691,172.741 183.265,172.956 183.443 C 173.170 183.621,173.498 184.126,173.684 184.565 C 174.532 186.566,171.875 186.390,202.424 186.472 C 234.548 186.558,232.353 186.754,230.437 183.968 C 229.940 183.246,229.534 182.552,229.534 182.425 C 229.534 182.299,229.189 181.761,228.767 181.231 C 228.345 180.700,227.924 180.013,227.831 179.705 C 227.738 179.397,227.397 178.854,227.073 178.497 C 226.748 178.141,226.399 177.558,226.296 177.202 C 226.194 176.846,225.690 176.117,225.178 175.583 L 224.247 174.611 197.673 174.611 C 173.573 174.611,171.044 174.651,170.499 175.032 M182.951 192.922 C 182.620 193.055,184.668 195.337,185.118 195.337 C 185.226 195.337,185.675 195.602,186.115 195.926 C 187.137 196.676,190.489 198.310,191.839 198.715 C 192.409 198.886,193.239 199.246,193.683 199.513 C 194.128 199.781,194.682 200.000,194.915 200.000 C 195.148 200.000,196.416 200.339,197.734 200.754 C 203.394 202.534,219.358 202.709,221.402 201.012 C 221.573 200.871,222.497 200.530,223.456 200.256 C 224.415 199.982,225.388 199.590,225.618 199.386 C 225.848 199.182,226.466 198.838,226.992 198.621 C 229.322 197.659,232.545 194.425,232.323 193.272 C 232.247 192.879,183.911 192.536,182.951 192.922 " stroke="none" fill="#fcfcfc" fill-rule="evenodd"></path></g></svg>