<svg id="svg" version="1.1" xmlns="http://www.w3.org/2000/svg" xmlns:xlink="http://www.w3.org/1999/xlink" width="400" height="258.91472868217056" viewBox="0, 0, 400,258.91472868217056"><g id="svgg"><path id="path0" d="M128.497 44.688 C 127.999 44.873,126.253 45.159,124.618 45.323 C 122.673 45.518,121.495 45.757,121.210 46.015 C 120.970 46.232,120.098 46.586,119.271 46.802 C 118.445 47.018,117.434 47.476,117.025 47.820 C 116.616 48.164,116.108 48.446,115.895 48.446 C 115.104 48.446,110.363 52.776,110.363 53.498 C 110.363 53.700,110.071 54.136,109.713 54.467 C 108.218 55.854,108.190 63.343,109.672 65.482 C 110.052 66.030,110.363 66.659,110.363 66.879 C 110.363 67.099,110.710 67.793,111.135 68.420 C 111.560 69.047,111.910 69.701,111.912 69.874 C 111.915 70.048,112.267 70.588,112.694 71.074 C 113.122 71.561,113.472 72.083,113.472 72.233 C 113.472 72.384,113.817 72.885,114.238 73.346 C 114.660 73.808,115.075 74.505,115.161 74.895 C 115.247 75.285,115.490 75.671,115.703 75.752 C 115.915 75.834,116.312 76.405,116.584 77.021 C 116.857 77.637,117.307 78.346,117.584 78.597 C 117.861 78.848,118.166 79.366,118.262 79.747 C 118.358 80.128,118.655 80.645,118.923 80.895 C 119.191 81.145,119.540 81.844,119.698 82.449 C 119.856 83.054,120.133 83.666,120.313 83.808 C 120.771 84.171,121.243 85.110,121.247 85.669 C 121.249 85.928,121.417 86.431,121.620 86.788 C 122.365 88.093,122.718 89.015,122.890 90.100 C 122.987 90.711,123.297 91.641,123.579 92.168 C 124.124 93.184,124.154 93.326,124.627 97.138 C 124.794 98.484,125.092 100.044,125.289 100.603 C 125.757 101.930,125.760 106.008,125.294 107.085 C 124.893 108.013,124.353 111.188,124.351 112.634 C 124.349 113.827,123.896 115.542,123.446 116.062 C 123.261 116.276,122.985 117.262,122.833 118.254 C 122.674 119.292,122.331 120.361,122.025 120.775 C 121.733 121.170,121.421 122.029,121.331 122.683 C 121.241 123.338,120.892 124.279,120.556 124.775 C 120.220 125.271,119.837 126.155,119.705 126.739 C 119.574 127.324,119.228 128.126,118.935 128.521 C 118.643 128.916,118.294 129.732,118.158 130.334 C 118.023 130.937,117.686 131.736,117.409 132.110 C 117.133 132.484,116.773 133.412,116.610 134.171 C 116.447 134.931,116.081 135.879,115.797 136.278 C 115.512 136.678,115.172 137.568,115.041 138.256 C 114.745 139.810,114.525 140.432,114.088 140.944 C 113.901 141.163,113.673 142.038,113.581 142.887 C 113.489 143.735,113.127 145.052,112.777 145.813 C 112.387 146.659,112.054 148.016,111.919 149.310 C 111.798 150.473,111.561 151.775,111.392 152.202 C 109.857 156.083,109.768 174.476,111.273 176.785 C 111.469 177.086,111.745 178.057,111.887 178.943 C 112.029 179.829,112.443 181.063,112.808 181.686 C 113.173 182.308,113.472 183.110,113.472 183.468 C 113.472 183.826,113.821 184.602,114.249 185.192 C 114.676 185.782,115.026 186.412,115.026 186.592 C 115.026 186.772,115.434 187.493,115.933 188.194 C 116.431 188.896,116.839 189.610,116.839 189.783 C 116.839 189.955,117.131 190.287,117.487 190.520 C 117.843 190.754,118.135 191.106,118.135 191.303 C 118.135 191.740,124.814 198.446,125.250 198.446 C 125.420 198.446,125.710 198.725,125.893 199.067 C 126.075 199.408,126.532 199.752,126.908 199.829 C 127.283 199.907,127.977 200.327,128.449 200.762 C 128.921 201.198,129.458 201.554,129.644 201.554 C 129.829 201.554,130.259 201.828,130.599 202.163 C 130.939 202.498,131.567 202.856,131.995 202.959 C 132.422 203.062,133.063 203.415,133.420 203.744 C 133.776 204.072,134.501 204.418,135.031 204.513 C 135.561 204.607,136.319 204.956,136.715 205.288 C 137.111 205.621,137.960 205.977,138.601 206.080 C 139.242 206.183,140.233 206.532,140.803 206.855 C 141.373 207.179,142.681 207.565,143.709 207.715 C 144.737 207.864,146.078 208.224,146.688 208.514 C 149.751 209.972,168.091 209.912,171.389 208.433 C 172.110 208.110,173.276 207.760,173.980 207.656 C 174.683 207.552,175.609 207.207,176.036 206.888 C 176.464 206.569,177.367 206.156,178.044 205.970 C 178.721 205.784,179.275 205.525,179.275 205.394 C 179.275 205.262,179.712 204.972,180.246 204.749 C 180.780 204.526,181.601 204.007,182.069 203.597 C 182.537 203.186,183.093 202.850,183.305 202.850 C 183.517 202.850,183.822 202.561,183.983 202.207 C 184.144 201.854,184.492 201.496,184.757 201.411 C 185.022 201.327,185.412 200.924,185.623 200.516 C 185.834 200.107,186.218 199.620,186.475 199.433 C 186.733 199.246,187.102 198.685,187.296 198.187 C 187.490 197.688,187.866 197.036,188.132 196.738 C 189.460 195.247,189.452 186.378,188.120 184.508 C 187.834 184.106,187.517 183.434,187.417 183.015 C 187.317 182.597,186.902 181.919,186.493 181.511 C 186.085 181.102,185.751 180.611,185.751 180.419 C 185.751 180.227,185.402 179.672,184.974 179.185 C 184.547 178.698,184.197 178.132,184.197 177.927 C 184.197 177.722,183.853 177.170,183.433 176.699 C 183.013 176.229,182.598 175.518,182.511 175.120 C 182.423 174.722,182.197 174.336,182.008 174.264 C 181.819 174.191,181.454 173.569,181.198 172.882 C 180.941 172.195,180.474 171.366,180.160 171.041 C 179.846 170.716,179.515 170.058,179.425 169.578 C 179.335 169.098,179.088 168.561,178.877 168.386 C 178.665 168.210,178.303 167.415,178.071 166.618 C 177.839 165.821,177.434 164.874,177.170 164.514 C 176.906 164.154,176.571 163.227,176.426 162.453 C 176.280 161.679,175.998 160.863,175.799 160.640 C 175.329 160.112,174.959 158.609,174.742 156.347 C 174.647 155.350,174.380 154.242,174.149 153.886 C 173.506 152.894,173.514 143.884,174.159 142.228 C 174.408 141.587,174.723 140.253,174.858 139.265 C 175.005 138.190,175.316 137.181,175.630 136.756 C 175.919 136.365,176.266 135.553,176.401 134.951 C 176.537 134.348,176.870 133.553,177.143 133.184 C 177.415 132.815,177.788 132.047,177.970 131.477 C 178.153 130.907,178.526 130.195,178.799 129.895 C 179.072 129.594,179.365 128.895,179.451 128.340 C 179.609 127.316,180.212 125.888,180.592 125.641 C 180.707 125.566,180.930 124.692,181.088 123.698 C 181.245 122.704,181.660 121.286,182.009 120.547 C 182.357 119.808,182.642 118.783,182.642 118.269 C 182.642 117.105,183.369 113.531,183.748 112.829 C 184.856 110.776,184.735 87.833,183.604 85.622 C 183.385 85.194,183.022 83.750,182.797 82.412 C 182.571 81.074,182.107 79.383,181.766 78.655 C 181.425 77.927,181.066 76.845,180.968 76.251 C 180.870 75.656,180.644 75.114,180.464 75.045 C 180.285 74.976,179.925 74.243,179.665 73.415 C 179.405 72.587,178.980 71.683,178.721 71.405 C 178.462 71.127,178.115 70.482,177.948 69.971 C 177.782 69.460,177.371 68.763,177.035 68.423 C 176.700 68.083,176.425 67.667,176.425 67.498 C 176.425 67.330,176.075 66.800,175.648 66.321 C 175.220 65.842,174.870 65.314,174.870 65.147 C 174.870 64.651,170.459 59.994,168.621 58.549 C 168.168 58.193,167.494 57.600,167.124 57.232 C 166.754 56.864,166.159 56.410,165.803 56.222 C 165.119 55.862,163.987 55.001,162.649 53.821 C 162.204 53.429,161.692 53.109,161.510 53.109 C 161.328 53.109,160.830 52.814,160.402 52.454 C 159.974 52.095,159.238 51.666,158.767 51.501 C 158.295 51.337,157.680 50.988,157.399 50.726 C 157.117 50.464,156.417 50.124,155.843 49.969 C 155.268 49.814,154.470 49.454,154.070 49.169 C 153.669 48.884,152.753 48.496,152.034 48.306 C 151.314 48.116,150.533 47.791,150.298 47.583 C 150.063 47.375,148.967 47.020,147.862 46.795 C 146.758 46.569,145.592 46.213,145.271 46.003 C 144.737 45.653,142.864 45.368,138.280 44.941 C 137.320 44.851,136.468 44.671,136.386 44.539 C 136.159 44.171,129.555 44.295,128.497 44.688 M229.684 44.525 C 229.608 44.649,228.814 44.828,227.920 44.924 C 224.106 45.331,221.952 45.702,221.650 46.004 C 221.473 46.181,220.493 46.575,219.472 46.879 C 218.452 47.183,217.617 47.529,217.617 47.648 C 217.617 47.767,217.238 48.016,216.775 48.202 C 216.312 48.388,215.550 48.868,215.082 49.270 C 214.614 49.671,214.104 50.000,213.948 50.000 C 213.575 50.000,211.408 52.289,210.751 53.377 C 208.819 56.577,208.203 59.209,208.887 61.343 C 209.102 62.015,209.412 63.228,209.576 64.039 C 209.741 64.849,210.111 65.813,210.400 66.180 C 210.689 66.547,211.037 67.254,211.174 67.750 C 211.311 68.246,211.709 68.961,212.059 69.338 C 212.408 69.715,212.694 70.173,212.694 70.355 C 212.694 70.537,212.987 71.034,213.346 71.460 C 213.704 71.885,214.172 72.652,214.385 73.163 C 214.599 73.675,214.895 74.093,215.043 74.093 C 215.190 74.093,215.494 74.530,215.717 75.065 C 215.940 75.599,216.389 76.303,216.714 76.629 C 217.040 76.955,217.384 77.532,217.480 77.913 C 217.575 78.293,217.869 78.755,218.133 78.940 C 218.397 79.125,218.753 79.713,218.924 80.247 C 219.095 80.781,219.458 81.463,219.732 81.764 C 220.005 82.064,220.347 82.740,220.492 83.264 C 220.637 83.789,221.027 84.618,221.358 85.106 C 221.689 85.594,222.042 86.430,222.142 86.965 C 222.243 87.500,222.593 88.407,222.922 88.982 C 223.250 89.556,223.598 90.609,223.694 91.321 C 223.791 92.034,224.088 93.083,224.356 93.653 C 225.266 95.593,225.897 103.938,225.398 107.443 C 225.261 108.408,225.037 110.266,224.900 111.572 C 224.763 112.879,224.475 114.219,224.261 114.551 C 224.046 114.884,223.756 115.998,223.616 117.027 C 223.467 118.116,223.147 119.200,222.850 119.618 C 222.570 120.013,222.204 121.000,222.036 121.811 C 221.869 122.621,221.515 123.560,221.250 123.897 C 220.985 124.234,220.686 124.944,220.587 125.476 C 220.487 126.007,220.128 126.851,219.790 127.350 C 219.451 127.848,219.101 128.716,219.011 129.277 C 218.921 129.838,218.572 130.671,218.235 131.127 C 217.898 131.584,217.550 132.374,217.461 132.883 C 217.372 133.392,217.035 134.275,216.711 134.845 C 216.387 135.415,215.985 136.544,215.818 137.355 C 215.651 138.165,215.297 139.105,215.031 139.442 C 214.749 139.801,214.441 140.834,214.289 141.929 C 214.146 142.959,213.778 144.228,213.470 144.749 C 213.100 145.376,212.835 146.435,212.686 147.874 C 212.563 149.071,212.289 150.314,212.078 150.636 C 211.554 151.435,211.210 153.657,211.011 157.513 C 210.919 159.294,210.678 161.326,210.474 162.029 C 209.981 163.729,209.977 168.213,210.468 168.986 C 210.698 169.348,210.923 170.913,211.080 173.234 C 211.279 176.195,211.433 177.087,211.869 177.826 C 212.166 178.331,212.542 179.468,212.702 180.354 C 212.863 181.240,213.202 182.229,213.455 182.551 C 213.708 182.873,214.070 183.695,214.259 184.379 C 214.448 185.063,214.811 185.772,215.066 185.955 C 215.320 186.138,215.666 186.746,215.834 187.306 C 216.001 187.866,216.413 188.581,216.748 188.896 C 217.083 189.211,217.358 189.573,217.358 189.700 C 217.358 190.334,224.011 197.467,225.518 198.449 C 225.946 198.727,226.820 199.367,227.461 199.870 C 228.102 200.373,229.035 200.969,229.534 201.194 C 230.032 201.419,230.732 201.869,231.088 202.195 C 231.444 202.521,232.164 202.924,232.687 203.091 C 233.209 203.258,233.772 203.557,233.937 203.756 C 234.102 203.954,234.799 204.304,235.487 204.532 C 236.174 204.760,236.985 205.162,237.287 205.424 C 237.590 205.687,238.388 205.982,239.061 206.080 C 239.734 206.178,240.751 206.527,241.321 206.855 C 241.891 207.183,242.999 207.530,243.782 207.625 C 244.566 207.719,245.907 208.074,246.762 208.413 C 250.698 209.973,268.020 209.980,271.762 208.423 C 272.545 208.097,273.711 207.749,274.352 207.648 C 274.994 207.548,275.931 207.200,276.435 206.875 C 276.939 206.549,277.716 206.203,278.162 206.105 C 278.607 206.007,279.294 205.650,279.688 205.311 C 280.082 204.973,280.697 204.623,281.054 204.533 C 282.116 204.266,285.579 201.215,286.786 199.482 C 287.134 198.983,287.568 198.421,287.751 198.233 C 287.933 198.045,288.083 197.753,288.083 197.585 C 288.083 197.417,288.428 196.639,288.850 195.855 C 289.889 193.925,290.042 187.583,289.087 186.018 C 288.786 185.524,288.375 184.567,288.175 183.893 C 287.975 183.219,287.522 182.324,287.170 181.905 C 286.817 181.486,286.528 181.031,286.528 180.894 C 286.528 180.757,286.222 180.315,285.847 179.910 C 285.472 179.505,285.004 178.789,284.807 178.318 C 284.610 177.847,284.347 177.461,284.222 177.461 C 284.096 177.461,283.805 176.988,283.573 176.410 C 283.342 175.832,282.921 175.109,282.637 174.805 C 282.353 174.500,282.018 173.878,281.892 173.424 C 281.767 172.969,281.425 172.358,281.134 172.066 C 280.842 171.775,280.496 171.150,280.365 170.677 C 280.234 170.205,279.819 169.365,279.442 168.811 C 279.065 168.257,278.756 167.564,278.756 167.271 C 278.756 166.977,278.467 166.320,278.113 165.809 C 277.759 165.298,277.354 164.271,277.212 163.526 C 277.071 162.782,276.721 161.853,276.435 161.462 C 276.109 161.017,275.807 159.977,275.629 158.680 C 275.472 157.541,275.237 156.543,275.107 156.463 C 273.941 155.742,273.951 139.896,275.117 139.896 C 275.224 139.896,275.440 139.124,275.596 138.180 C 275.770 137.134,276.139 136.092,276.541 135.511 C 276.905 134.987,277.202 134.374,277.202 134.150 C 277.202 133.526,277.954 131.865,278.237 131.865 C 278.375 131.865,278.564 131.545,278.658 131.153 C 278.847 130.366,279.507 128.959,279.782 128.756 C 279.879 128.685,280.155 127.820,280.395 126.833 C 280.635 125.846,281.016 124.835,281.241 124.585 C 281.467 124.336,281.752 123.394,281.875 122.493 C 282.143 120.523,282.300 119.962,282.934 118.718 C 283.201 118.195,283.421 117.237,283.422 116.590 C 283.425 114.745,283.924 112.110,284.406 111.399 C 285.179 110.257,285.062 88.656,284.273 87.047 C 283.906 86.297,283.617 85.022,283.463 83.476 C 283.319 82.022,283.072 80.894,282.839 80.626 C 282.626 80.381,282.243 79.308,281.986 78.242 C 281.730 77.175,281.366 76.148,281.177 75.959 C 280.989 75.770,280.644 74.962,280.412 74.162 C 280.179 73.363,279.768 72.472,279.498 72.182 C 279.228 71.892,278.893 71.231,278.753 70.713 C 278.614 70.195,278.270 69.564,277.990 69.310 C 277.710 69.057,277.354 68.466,277.199 67.997 C 277.045 67.528,276.755 67.082,276.555 67.005 C 276.356 66.929,275.996 66.481,275.755 66.011 C 275.514 65.540,274.983 64.747,274.575 64.249 C 273.485 62.916,272.456 61.724,272.067 61.344 C 271.879 61.161,271.529 60.792,271.290 60.525 C 271.051 60.258,270.738 59.940,270.596 59.818 C 267.595 57.250,265.977 55.959,265.759 55.959 C 265.611 55.959,265.260 55.667,264.980 55.311 C 264.699 54.955,264.322 54.663,264.141 54.663 C 263.959 54.663,263.595 54.425,263.332 54.134 C 263.068 53.843,262.293 53.300,261.608 52.927 C 260.923 52.554,260.363 52.156,260.363 52.041 C 260.363 51.927,259.867 51.702,259.262 51.542 C 258.656 51.382,257.869 50.981,257.513 50.653 C 257.157 50.324,256.457 49.969,255.959 49.864 C 255.460 49.760,254.742 49.414,254.363 49.097 C 253.985 48.779,253.215 48.446,252.654 48.356 C 252.092 48.266,251.352 47.979,251.010 47.717 C 250.668 47.455,249.463 47.042,248.331 46.798 C 247.200 46.554,246.125 46.231,245.942 46.079 C 245.524 45.731,241.268 45.083,239.378 45.078 C 238.595 45.076,237.619 44.900,237.211 44.688 C 236.383 44.256,229.937 44.117,229.684 44.525 M139.767 51.756 C 140.479 52.036,141.841 52.346,142.793 52.446 C 143.745 52.546,144.962 52.852,145.499 53.126 C 146.036 53.399,147.176 53.803,148.032 54.022 C 148.888 54.241,149.769 54.584,149.989 54.782 C 150.209 54.981,150.972 55.340,151.684 55.580 C 152.396 55.819,153.187 56.234,153.440 56.502 C 153.694 56.770,154.247 57.168,154.671 57.387 C 155.535 57.834,155.647 58.314,155.012 58.841 C 154.215 59.503,117.011 59.498,116.349 58.836 C 114.803 57.290,120.078 53.040,124.406 52.343 C 125.260 52.206,126.120 51.959,126.316 51.796 C 127.409 50.889,137.484 50.859,139.767 51.756 M240.124 51.792 C 241.034 52.089,242.083 52.336,242.456 52.341 C 243.482 52.355,245.951 52.993,246.656 53.427 C 246.999 53.638,247.950 53.953,248.770 54.126 C 249.589 54.300,250.423 54.605,250.624 54.806 C 250.825 55.007,251.641 55.415,252.437 55.713 C 253.234 56.011,253.886 56.361,253.886 56.490 C 253.886 56.619,254.352 56.963,254.922 57.254 C 256.036 57.822,256.210 58.277,255.530 58.841 C 254.776 59.468,217.331 59.358,216.635 58.728 C 216.131 58.273,216.915 55.962,217.574 55.957 C 217.669 55.957,218.189 55.549,218.730 55.052 C 219.271 54.555,220.029 54.074,220.414 53.983 C 220.799 53.891,221.307 53.649,221.543 53.445 C 222.062 52.995,224.179 52.332,225.106 52.330 C 225.475 52.329,226.127 52.143,226.554 51.916 C 228.526 50.871,237.066 50.792,240.124 51.792 M164.693 64.746 C 165.444 64.961,166.755 66.161,168.329 68.074 C 168.649 68.464,169.245 69.190,169.654 69.689 C 170.062 70.188,170.648 71.091,170.955 71.697 C 171.262 72.302,171.625 72.798,171.762 72.798 C 172.166 72.798,172.348 74.000,172.034 74.587 L 171.743 75.130 147.976 75.130 C 126.007 75.130,124.160 75.096,123.568 74.688 C 122.747 74.122,122.351 73.601,122.151 72.824 C 122.063 72.482,121.706 71.978,121.358 71.704 C 121.010 71.430,120.725 71.044,120.725 70.845 C 120.725 70.647,120.391 70.101,119.983 69.633 C 119.575 69.165,119.151 68.491,119.041 68.135 C 118.932 67.778,118.566 67.209,118.229 66.869 C 117.510 66.143,117.476 65.860,118.020 65.084 L 118.423 64.508 141.143 64.508 C 154.163 64.508,164.218 64.609,164.693 64.746 M265.529 64.921 C 266.096 65.148,266.625 65.537,266.704 65.786 C 266.783 66.035,267.125 66.386,267.463 66.567 C 267.801 66.748,268.191 67.146,268.331 67.451 C 268.470 67.756,269.007 68.512,269.525 69.131 C 270.043 69.750,270.466 70.392,270.466 70.558 C 270.466 70.724,270.699 71.005,270.984 71.183 C 271.269 71.361,271.503 71.641,271.503 71.804 C 271.503 71.968,271.804 72.496,272.172 72.979 C 272.852 73.871,272.795 74.267,271.891 74.931 C 271.586 75.155,225.007 75.194,224.175 74.971 C 223.864 74.887,223.422 74.423,223.192 73.939 C 222.962 73.454,222.488 72.749,222.138 72.372 C 221.789 71.995,221.503 71.535,221.503 71.351 C 221.503 71.167,221.153 70.634,220.725 70.166 C 220.298 69.697,219.948 69.170,219.948 68.993 C 219.948 68.816,219.591 68.264,219.154 67.766 C 218.299 66.793,218.084 65.582,218.645 64.905 C 219.156 64.290,263.989 64.304,265.529 64.921 M174.960 80.956 C 175.173 81.168,175.427 81.722,175.526 82.186 C 175.625 82.651,175.968 83.614,176.290 84.326 C 177.169 86.276,177.746 93.180,177.111 94.149 L 176.670 94.822 154.203 94.755 L 131.736 94.689 131.031 93.210 C 130.643 92.396,130.216 91.052,130.083 90.224 C 129.950 89.396,129.538 88.150,129.169 87.455 C 128.800 86.761,128.497 85.885,128.497 85.508 C 128.497 85.132,128.254 84.363,127.957 83.798 C 127.076 82.123,126.926 81.401,127.368 80.959 C 127.955 80.372,174.374 80.369,174.960 80.956 M275.321 80.966 C 275.889 81.364,276.421 82.773,276.423 83.887 C 276.424 84.216,276.665 85.011,276.958 85.655 C 277.937 87.804,278.247 93.483,277.438 94.457 C 277.061 94.912,232.958 95.006,232.113 94.554 C 231.385 94.164,231.122 93.522,230.826 91.407 C 230.665 90.250,230.353 89.224,230.029 88.782 C 229.737 88.383,229.405 87.508,229.291 86.839 C 229.086 85.631,228.820 84.923,228.102 83.679 C 227.646 82.890,227.606 81.306,228.031 80.881 C 228.556 80.356,274.569 80.439,275.321 80.966 M177.556 100.796 C 178.368 101.435,178.449 102.534,177.852 104.827 C 177.639 105.644,177.388 107.405,177.294 108.741 C 177.166 110.558,176.998 111.329,176.626 111.803 L 176.128 112.435 154.274 112.435 C 134.341 112.435,132.383 112.398,131.994 112.009 C 131.217 111.232,131.696 101.621,132.550 100.842 L 133.190 100.259 155.031 100.259 C 176.736 100.259,176.877 100.262,177.556 100.796 M277.859 100.885 C 278.380 101.680,277.939 110.624,277.333 111.557 C 276.771 112.423,276.444 112.435,254.144 112.435 C 234.752 112.435,232.935 112.399,232.609 112.006 C 232.094 111.385,232.260 101.687,232.800 100.842 L 233.173 100.259 255.311 100.259 L 277.449 100.259 277.859 100.885 M174.847 118.243 C 175.418 118.760,175.398 120.173,174.808 120.916 C 174.668 121.092,174.334 122.073,174.066 123.096 C 173.797 124.120,173.412 125.141,173.211 125.367 C 173.009 125.593,172.658 126.418,172.430 127.202 C 172.172 128.093,171.671 128.991,171.096 129.598 L 170.175 130.570 148.935 130.570 C 131.025 130.570,127.582 130.512,126.978 130.200 L 126.262 129.829 126.797 127.630 C 127.091 126.421,127.429 125.335,127.549 125.216 C 127.899 124.868,128.497 123.298,128.497 122.727 C 128.497 122.437,128.847 121.460,129.275 120.555 C 129.702 119.651,130.052 118.801,130.052 118.667 C 130.052 117.605,130.159 117.601,152.758 117.675 C 173.572 117.744,174.317 117.763,174.847 118.243 M274.223 117.837 C 275.711 118.321,275.815 118.509,275.343 119.866 C 275.104 120.552,274.828 121.697,274.729 122.409 C 274.631 123.122,274.348 123.938,274.101 124.223 C 273.854 124.508,273.503 125.324,273.319 126.036 C 273.016 127.214,271.490 129.902,270.855 130.374 C 270.712 130.480,260.836 130.539,248.908 130.504 C 223.836 130.431,225.866 130.665,227.032 127.977 C 227.411 127.105,227.720 126.123,227.720 125.796 C 227.720 125.469,228.009 124.776,228.363 124.255 C 228.727 123.718,229.115 122.629,229.258 121.743 C 229.526 120.077,230.260 118.641,231.167 118.005 C 231.747 117.599,272.995 117.437,274.223 117.837 M167.492 136.338 L 168.174 136.924 167.766 139.674 C 167.541 141.187,167.358 142.854,167.358 143.379 C 167.358 143.905,167.240 144.555,167.096 144.824 C 166.952 145.093,166.761 146.047,166.672 146.944 C 166.582 147.841,166.394 148.721,166.254 148.899 C 165.848 149.414,120.057 149.368,119.541 148.853 C 118.985 148.297,119.094 147.114,119.828 145.733 C 120.189 145.053,120.553 143.958,120.636 143.298 C 120.719 142.638,121.055 141.629,121.381 141.054 C 121.708 140.480,122.060 139.547,122.162 138.982 C 122.788 135.536,121.116 135.764,145.776 135.757 L 166.810 135.751 167.492 136.338 M267.795 135.955 C 268.656 136.502,268.643 140.163,267.776 141.508 C 267.528 141.892,267.331 143.186,267.213 145.207 C 267.114 146.917,266.926 148.520,266.797 148.769 C 266.431 149.476,220.772 149.472,220.132 148.765 C 219.516 148.084,220.129 144.441,220.944 143.937 C 221.082 143.852,221.275 143.170,221.373 142.422 C 221.472 141.674,221.822 140.592,222.152 140.018 C 222.483 139.444,222.833 138.546,222.931 138.024 C 223.174 136.732,223.569 136.263,224.624 136.015 C 225.755 135.749,267.379 135.691,267.795 135.955 M167.296 155.246 C 167.440 155.424,167.699 156.444,167.871 157.513 C 168.044 158.582,168.346 159.710,168.543 160.021 C 168.739 160.331,169.087 161.490,169.315 162.597 C 169.544 163.703,169.955 164.893,170.228 165.241 C 170.839 166.017,170.888 167.787,170.322 168.595 L 169.919 169.171 144.152 169.171 L 118.386 169.171 117.438 168.302 C 116.316 167.274,116.041 165.505,116.586 162.824 C 116.943 161.067,117.257 159.087,117.513 156.995 C 117.609 156.211,117.802 155.424,117.942 155.246 C 118.144 154.991,123.391 154.922,142.617 154.922 C 161.839 154.922,167.091 154.991,167.296 155.246 M267.758 155.558 C 268.204 156.005,268.396 156.487,268.403 157.177 C 268.415 158.466,269.029 161.305,269.391 161.740 C 269.547 161.928,269.862 162.891,270.090 163.878 C 270.319 164.866,270.672 165.858,270.875 166.083 C 271.348 166.608,271.349 167.892,270.876 168.539 C 270.516 169.031,269.945 169.041,244.430 169.041 L 218.351 169.041 217.557 168.152 L 216.762 167.263 216.933 163.122 C 217.049 160.307,217.225 158.737,217.483 158.221 C 217.691 157.803,217.939 157.035,218.032 156.515 C 218.126 155.995,218.318 155.424,218.459 155.246 C 218.662 154.991,223.867 154.922,242.919 154.922 L 267.122 154.922 267.758 155.558 M174.183 175.028 C 174.830 175.685,175.431 176.544,175.517 176.939 C 175.604 177.333,175.954 177.918,176.295 178.238 C 176.637 178.559,176.988 179.147,177.075 179.544 C 177.162 179.942,177.576 180.626,177.995 181.064 C 178.414 181.502,178.756 181.985,178.756 182.137 C 178.756 182.289,179.092 182.844,179.502 183.370 C 180.291 184.383,180.829 185.715,180.829 186.656 C 180.829 187.809,180.457 187.824,151.882 187.824 L 124.938 187.824 123.609 186.766 C 122.878 186.183,122.280 185.551,122.280 185.361 C 122.280 185.170,121.987 184.666,121.629 184.240 C 121.271 183.815,120.807 182.982,120.598 182.390 C 120.389 181.798,119.997 181.000,119.726 180.618 C 119.456 180.235,119.149 179.398,119.045 178.756 C 118.941 178.115,118.674 177.386,118.453 177.135 C 117.866 176.471,117.992 174.845,118.674 174.288 C 119.194 173.862,120.893 173.834,146.117 173.834 L 173.006 173.834 174.183 175.028 M274.536 174.870 C 274.861 175.369,275.313 176.010,275.540 176.295 C 275.766 176.580,276.058 177.084,276.188 177.414 C 276.319 177.744,276.708 178.386,277.053 178.839 C 277.398 179.292,277.761 179.987,277.859 180.382 C 277.958 180.778,278.259 181.219,278.528 181.363 C 278.796 181.507,279.189 182.039,279.401 182.545 C 279.613 183.052,280.079 183.814,280.437 184.240 C 280.883 184.770,281.088 185.325,281.088 186.000 C 281.088 187.954,283.105 187.824,252.747 187.824 L 225.682 187.824 224.370 187.008 C 223.648 186.559,223.057 186.042,223.057 185.858 C 223.057 185.674,222.712 185.146,222.290 184.685 C 221.868 184.223,221.445 183.487,221.350 183.050 C 221.255 182.612,220.915 181.942,220.595 181.560 C 220.275 181.178,219.935 180.454,219.841 179.949 C 219.746 179.445,219.383 178.533,219.034 177.923 C 218.301 176.641,218.231 175.678,218.790 174.597 L 219.186 173.832 246.564 173.898 L 273.943 173.964 274.536 174.870 M181.026 192.811 C 181.825 193.803,181.648 194.656,180.380 195.921 C 178.224 198.071,177.142 198.964,176.694 198.964 C 176.454 198.964,175.800 199.310,175.240 199.734 C 174.681 200.157,173.953 200.507,173.624 200.511 C 173.294 200.515,172.374 200.826,171.579 201.202 C 170.574 201.678,169.415 201.957,167.774 202.118 C 166.476 202.246,165.105 202.521,164.727 202.729 C 163.758 203.264,153.993 203.283,153.231 202.752 C 152.950 202.556,151.464 202.274,149.929 202.125 C 148.083 201.945,146.756 201.669,146.011 201.308 C 145.392 201.008,144.155 200.634,143.264 200.477 C 142.358 200.318,141.432 199.981,141.165 199.714 C 140.902 199.451,140.363 199.166,139.968 199.081 C 138.931 198.858,137.306 198.142,137.306 197.909 C 137.306 197.799,136.942 197.630,136.497 197.532 C 136.053 197.434,135.336 197.017,134.905 196.605 C 134.473 196.192,133.958 195.855,133.761 195.855 C 132.485 195.855,130.910 193.447,131.774 192.816 C 132.428 192.338,180.641 192.333,181.026 192.811 M281.626 192.921 C 282.226 193.522,281.656 195.005,280.323 196.308 C 278.658 197.936,277.408 198.964,277.095 198.964 C 276.956 198.964,276.399 199.270,275.859 199.644 C 275.319 200.018,274.345 200.424,273.695 200.546 C 273.045 200.667,272.348 200.931,272.147 201.132 C 271.721 201.558,269.977 201.975,267.688 202.198 C 266.800 202.285,265.751 202.525,265.356 202.731 C 264.313 203.275,254.595 203.273,253.552 202.728 C 253.154 202.521,251.930 202.281,250.831 202.196 C 248.273 201.996,246.356 201.586,245.826 201.125 C 245.596 200.925,244.724 200.650,243.887 200.514 C 243.050 200.378,242.055 200.037,241.675 199.756 C 241.295 199.475,240.652 199.174,240.246 199.086 C 239.221 198.864,237.565 198.146,237.565 197.923 C 237.565 197.822,237.041 197.539,236.400 197.294 C 235.760 197.049,235.147 196.713,235.040 196.546 C 234.932 196.380,234.394 196.014,233.844 195.734 C 232.245 194.919,231.085 192.923,232.060 192.664 C 233.164 192.370,281.325 192.620,281.626 192.921 " stroke="none" fill="#683296" fill-rule="evenodd"></path><path id="path1" d="M0.000 129.534 L 0.000 259.067 200.000 259.067 L 400.000 259.067 400.000 129.534 L 400.000 0.000 200.000 0.000 L 0.000 0.000 0.000 129.534 M136.386 44.539 C 136.468 44.671,137.320 44.851,138.280 44.941 C 142.864 45.368,144.737 45.653,145.271 46.003 C 145.592 46.213,146.758 46.569,147.862 46.795 C 148.967 47.020,150.063 47.375,150.298 47.583 C 150.533 47.791,151.314 48.116,152.034 48.306 C 152.753 48.496,153.669 48.884,154.070 49.169 C 154.470 49.454,155.268 49.814,155.843 49.969 C 156.417 50.124,157.117 50.464,157.399 50.726 C 157.680 50.988,158.295 51.337,158.767 51.501 C 159.238 51.666,159.974 52.095,160.402 52.454 C 160.830 52.814,161.328 53.109,161.510 53.109 C 161.692 53.109,162.204 53.429,162.649 53.821 C 163.987 55.001,165.119 55.862,165.803 56.222 C 166.159 56.410,166.754 56.864,167.124 57.232 C 167.494 57.600,168.168 58.193,168.621 58.549 C 170.459 59.994,174.870 64.651,174.870 65.147 C 174.870 65.314,175.220 65.842,175.648 66.321 C 176.075 66.800,176.425 67.330,176.425 67.498 C 176.425 67.667,176.700 68.083,177.035 68.423 C 177.371 68.763,177.782 69.460,177.948 69.971 C 178.115 70.482,178.462 71.127,178.721 71.405 C 178.980 71.683,179.405 72.587,179.665 73.415 C 179.925 74.243,180.285 74.976,180.464 75.045 C 180.644 75.114,180.870 75.656,180.968 76.251 C 181.066 76.845,181.425 77.927,181.766 78.655 C 182.107 79.383,182.571 81.074,182.797 82.412 C 183.022 83.750,183.385 85.194,183.604 85.622 C 184.735 87.833,184.856 110.776,183.748 112.829 C 183.369 113.531,182.642 117.105,182.642 118.269 C 182.642 118.783,182.357 119.808,182.009 120.547 C 181.660 121.286,181.245 122.704,181.088 123.698 C 180.930 124.692,180.707 125.566,180.592 125.641 C 180.212 125.888,179.609 127.316,179.451 128.340 C 179.365 128.895,179.072 129.594,178.799 129.895 C 178.526 130.195,178.153 130.907,177.970 131.477 C 177.788 132.047,177.415 132.815,177.143 133.184 C 176.870 133.553,176.537 134.348,176.401 134.951 C 176.266 135.553,175.919 136.365,175.630 136.756 C 175.316 137.181,175.005 138.190,174.858 139.265 C 174.723 140.253,174.408 141.587,174.159 142.228 C 173.514 143.884,173.506 152.894,174.149 153.886 C 174.380 154.242,174.647 155.350,174.742 156.347 C 174.959 158.609,175.329 160.112,175.799 160.640 C 175.998 160.863,176.280 161.679,176.426 162.453 C 176.571 163.227,176.906 164.154,177.170 164.514 C 177.434 164.874,177.839 165.821,178.071 166.618 C 178.303 167.415,178.665 168.210,178.877 168.386 C 179.088 168.561,179.335 169.098,179.425 169.578 C 179.515 170.058,179.846 170.716,180.160 171.041 C 180.474 171.366,180.941 172.195,181.198 172.882 C 181.454 173.569,181.819 174.191,182.008 174.264 C 182.197 174.336,182.423 174.722,182.511 175.120 C 182.598 175.518,183.013 176.229,183.433 176.699 C 183.853 177.170,184.197 177.722,184.197 177.927 C 184.197 178.132,184.547 178.698,184.974 179.185 C 185.402 179.672,185.751 180.227,185.751 180.419 C 185.751 180.611,186.085 181.102,186.493 181.511 C 186.902 181.919,187.317 182.597,187.417 183.015 C 187.517 183.434,187.834 184.106,188.120 184.508 C 189.452 186.378,189.460 195.247,188.132 196.738 C 187.866 197.036,187.490 197.688,187.296 198.187 C 187.102 198.685,186.733 199.246,186.475 199.433 C 186.218 199.620,185.834 200.107,185.623 200.516 C 185.412 200.924,185.022 201.327,184.757 201.411 C 184.492 201.496,184.144 201.854,183.983 202.207 C 183.822 202.561,183.517 202.850,183.305 202.850 C 183.093 202.850,182.537 203.186,182.069 203.597 C 181.601 204.007,180.780 204.526,180.246 204.749 C 179.712 204.972,179.275 205.262,179.275 205.394 C 179.275 205.525,178.721 205.784,178.044 205.970 C 177.367 206.156,176.464 206.569,176.036 206.888 C 175.609 207.207,174.683 207.552,173.980 207.656 C 173.276 207.760,172.110 208.110,171.389 208.433 C 168.091 209.912,149.751 209.972,146.688 208.514 C 146.078 208.224,144.737 207.864,143.709 207.715 C 142.681 207.565,141.373 207.179,140.803 206.855 C 140.233 206.532,139.242 206.183,138.601 206.080 C 137.960 205.977,137.111 205.621,136.715 205.288 C 136.319 204.956,135.561 204.607,135.031 204.513 C 134.501 204.418,133.776 204.072,133.420 203.744 C 133.063 203.415,132.422 203.062,131.995 202.959 C 131.567 202.856,130.939 202.498,130.599 202.163 C 130.259 201.828,129.829 201.554,129.644 201.554 C 129.458 201.554,128.921 201.198,128.449 200.762 C 127.977 200.327,127.283 199.907,126.908 199.829 C 126.532 199.752,126.075 199.408,125.893 199.067 C 125.710 198.725,125.420 198.446,125.250 198.446 C 124.814 198.446,118.135 191.740,118.135 191.303 C 118.135 191.106,117.843 190.754,117.487 190.520 C 117.131 190.287,116.839 189.955,116.839 189.783 C 116.839 189.610,116.431 188.896,115.933 188.194 C 115.434 187.493,115.026 186.772,115.026 186.592 C 115.026 186.412,114.676 185.782,114.249 185.192 C 113.821 184.602,113.472 183.826,113.472 183.468 C 113.472 183.110,113.173 182.308,112.808 181.686 C 112.443 181.063,112.029 179.829,111.887 178.943 C 111.745 178.057,111.469 177.086,111.273 176.785 C 109.768 174.476,109.857 156.083,111.392 152.202 C 111.561 151.775,111.798 150.473,111.919 149.310 C 112.054 148.016,112.387 146.659,112.777 145.813 C 113.127 145.052,113.489 143.735,113.581 142.887 C 113.673 142.038,113.901 141.163,114.088 140.944 C 114.525 140.432,114.745 139.810,115.041 138.256 C 115.172 137.568,115.512 136.678,115.797 136.278 C 116.081 135.879,116.447 134.931,116.610 134.171 C 116.773 133.412,117.133 132.484,117.409 132.110 C 117.686 131.736,118.023 130.937,118.158 130.334 C 118.294 129.732,118.643 128.916,118.935 128.521 C 119.228 128.126,119.574 127.324,119.705 126.739 C 119.837 126.155,120.220 125.271,120.556 124.775 C 120.892 124.279,121.241 123.338,121.331 122.683 C 121.421 122.029,121.733 121.170,122.025 120.775 C 122.331 120.361,122.674 119.292,122.833 118.254 C 122.985 117.262,123.261 116.276,123.446 116.062 C 123.896 115.542,124.349 113.827,124.351 112.634 C 124.353 111.188,124.893 108.013,125.294 107.085 C 125.760 106.008,125.757 101.930,125.289 100.603 C 125.092 100.044,124.794 98.484,124.627 97.138 C 124.154 93.326,124.124 93.184,123.579 92.168 C 123.297 91.641,122.987 90.711,122.890 90.100 C 122.718 89.015,122.365 88.093,121.620 86.788 C 121.417 86.431,121.249 85.928,121.247 85.669 C 121.243 85.110,120.771 84.171,120.313 83.808 C 120.133 83.666,119.856 83.054,119.698 82.449 C 119.540 81.844,119.191 81.145,118.923 80.895 C 118.655 80.645,118.358 80.128,118.262 79.747 C 118.166 79.366,117.861 78.848,117.584 78.597 C 117.307 78.346,116.857 77.637,116.584 77.021 C 116.312 76.405,115.915 75.834,115.703 75.752 C 115.490 75.671,115.247 75.285,115.161 74.895 C 115.075 74.505,114.660 73.808,114.238 73.346 C 113.817 72.885,113.472 72.384,113.472 72.233 C 113.472 72.083,113.122 71.561,112.694 71.074 C 112.267 70.588,111.915 70.048,111.912 69.874 C 111.910 69.701,111.560 69.047,111.135 68.420 C 110.710 67.793,110.363 67.099,110.363 66.879 C 110.363 66.659,110.052 66.030,109.672 65.482 C 108.190 63.343,108.218 55.854,109.713 54.467 C 110.071 54.136,110.363 53.700,110.363 53.498 C 110.363 52.776,115.104 48.446,115.895 48.446 C 116.108 48.446,116.616 48.164,117.025 47.820 C 117.434 47.476,118.445 47.018,119.271 46.802 C 120.098 46.586,120.970 46.232,121.210 46.015 C 121.495 45.757,122.673 45.518,124.618 45.323 C 126.253 45.159,127.999 44.873,128.497 44.688 C 129.555 44.295,136.159 44.171,136.386 44.539 M237.211 44.688 C 237.619 44.900,238.595 45.076,239.378 45.078 C 241.268 45.083,245.524 45.731,245.942 46.079 C 246.125 46.231,247.200 46.554,248.331 46.798 C 249.463 47.042,250.668 47.455,251.010 47.717 C 251.352 47.979,252.092 48.266,252.654 48.356 C 253.215 48.446,253.985 48.779,254.363 49.097 C 254.742 49.414,255.460 49.760,255.959 49.864 C 256.457 49.969,257.157 50.324,257.513 50.653 C 257.869 50.981,258.656 51.382,259.262 51.542 C 259.867 51.702,260.363 51.927,260.363 52.041 C 260.363 52.156,260.923 52.554,261.608 52.927 C 262.293 53.300,263.068 53.843,263.332 54.134 C 263.595 54.425,263.959 54.663,264.141 54.663 C 264.322 54.663,264.699 54.955,264.980 55.311 C 265.260 55.667,265.611 55.959,265.759 55.959 C 265.977 55.959,267.595 57.250,270.596 59.818 C 270.738 59.940,271.051 60.258,271.290 60.525 C 271.529 60.792,271.879 61.161,272.067 61.344 C 272.456 61.724,273.485 62.916,274.575 64.249 C 274.983 64.747,275.514 65.540,275.755 66.011 C 275.996 66.481,276.356 66.929,276.555 67.005 C 276.755 67.082,277.045 67.528,277.199 67.997 C 277.354 68.466,277.710 69.057,277.990 69.310 C 278.270 69.564,278.614 70.195,278.753 70.713 C 278.893 71.231,279.228 71.892,279.498 72.182 C 279.768 72.472,280.179 73.363,280.412 74.162 C 280.644 74.962,280.989 75.770,281.177 75.959 C 281.366 76.148,281.730 77.175,281.986 78.242 C 282.243 79.308,282.626 80.381,282.839 80.626 C 283.072 80.894,283.319 82.022,283.463 83.476 C 283.617 85.022,283.906 86.297,284.273 87.047 C 285.062 88.656,285.179 110.257,284.406 111.399 C 283.924 112.110,283.425 114.745,283.422 116.590 C 283.421 117.237,283.201 118.195,282.934 118.718 C 282.300 119.962,282.143 120.523,281.875 122.493 C 281.752 123.394,281.467 124.336,281.241 124.585 C 281.016 124.835,280.635 125.846,280.395 126.833 C 280.155 127.820,279.879 128.685,279.782 128.756 C 279.507 128.959,278.847 130.366,278.658 131.153 C 278.564 131.545,278.375 131.865,278.237 131.865 C 277.954 131.865,277.202 133.526,277.202 134.150 C 277.202 134.374,276.905 134.987,276.541 135.511 C 276.139 136.092,275.770 137.134,275.596 138.180 C 275.440 139.124,275.224 139.896,275.117 139.896 C 273.951 139.896,273.941 155.742,275.107 156.463 C 275.237 156.543,275.472 157.541,275.629 158.680 C 275.807 159.977,276.109 161.017,276.435 161.462 C 276.721 161.853,277.071 162.782,277.212 163.526 C 277.354 164.271,277.759 165.298,278.113 165.809 C 278.467 166.320,278.756 166.977,278.756 167.271 C 278.756 167.564,279.065 168.257,279.442 168.811 C 279.819 169.365,280.234 170.205,280.365 170.677 C 280.496 171.150,280.842 171.775,281.134 172.066 C 281.425 172.358,281.767 172.969,281.892 173.424 C 282.018 173.878,282.353 174.500,282.637 174.805 C 282.921 175.109,283.342 175.832,283.573 176.410 C 283.805 176.988,284.096 177.461,284.222 177.461 C 284.347 177.461,284.610 177.847,284.807 178.318 C 285.004 178.789,285.472 179.505,285.847 179.910 C 286.222 180.315,286.528 180.757,286.528 180.894 C 286.528 181.031,286.817 181.486,287.170 181.905 C 287.522 182.324,287.975 183.219,288.175 183.893 C 288.375 184.567,288.786 185.524,289.087 186.018 C 290.042 187.583,289.889 193.925,288.850 195.855 C 288.428 196.639,288.083 197.417,288.083 197.585 C 288.083 197.753,287.933 198.045,287.751 198.233 C 287.568 198.421,287.134 198.983,286.786 199.482 C 285.579 201.215,282.116 204.266,281.054 204.533 C 280.697 204.623,280.082 204.973,279.688 205.311 C 279.294 205.650,278.607 206.007,278.162 206.105 C 277.716 206.203,276.939 206.549,276.435 206.875 C 275.931 207.200,274.994 207.548,274.352 207.648 C 273.711 207.749,272.545 208.097,271.762 208.423 C 268.020 209.980,250.698 209.973,246.762 208.413 C 245.907 208.074,244.566 207.719,243.782 207.625 C 242.999 207.530,241.891 207.183,241.321 206.855 C 240.751 206.527,239.734 206.178,239.061 206.080 C 238.388 205.982,237.590 205.687,237.287 205.424 C 236.985 205.162,236.174 204.760,235.487 204.532 C 234.799 204.304,234.102 203.954,233.937 203.756 C 233.772 203.557,233.209 203.258,232.687 203.091 C 232.164 202.924,231.444 202.521,231.088 202.195 C 230.732 201.869,230.032 201.419,229.534 201.194 C 229.035 200.969,228.102 200.373,227.461 199.870 C 226.820 199.367,225.946 198.727,225.518 198.449 C 224.011 197.467,217.358 190.334,217.358 189.700 C 217.358 189.573,217.083 189.211,216.748 188.896 C 216.413 188.581,216.001 187.866,215.834 187.306 C 215.666 186.746,215.320 186.138,215.066 185.955 C 214.811 185.772,214.448 185.063,214.259 184.379 C 214.070 183.695,213.708 182.873,213.455 182.551 C 213.202 182.229,212.863 181.240,212.702 180.354 C 212.542 179.468,212.166 178.331,211.869 177.826 C 211.433 177.087,211.279 176.195,211.080 173.234 C 210.923 170.913,210.698 169.348,210.468 168.986 C 209.977 168.213,209.981 163.729,210.474 162.029 C 210.678 161.326,210.919 159.294,211.011 157.513 C 211.210 153.657,211.554 151.435,212.078 150.636 C 212.289 150.314,212.563 149.071,212.686 147.874 C 212.835 146.435,213.100 145.376,213.470 144.749 C 213.778 144.228,214.146 142.959,214.289 141.929 C 214.441 140.834,214.749 139.801,215.031 139.442 C 215.297 139.105,215.651 138.165,215.818 137.355 C 215.985 136.544,216.387 135.415,216.711 134.845 C 217.035 134.275,217.372 133.392,217.461 132.883 C 217.550 132.374,217.898 131.584,218.235 131.127 C 218.572 130.671,218.921 129.838,219.011 129.277 C 219.101 128.716,219.451 127.848,219.790 127.350 C 220.128 126.851,220.487 126.007,220.587 125.476 C 220.686 124.944,220.985 124.234,221.250 123.897 C 221.515 123.560,221.869 122.621,222.036 121.811 C 222.204 121.000,222.570 120.013,222.850 119.618 C 223.147 119.200,223.467 118.116,223.616 117.027 C 223.756 115.998,224.046 114.884,224.261 114.551 C 224.475 114.219,224.763 112.879,224.900 111.572 C 225.037 110.266,225.261 108.408,225.398 107.443 C 225.897 103.938,225.266 95.593,224.356 93.653 C 224.088 93.083,223.791 92.034,223.694 91.321 C 223.598 90.609,223.250 89.556,222.922 88.982 C 222.593 88.407,222.243 87.500,222.142 86.965 C 222.042 86.430,221.689 85.594,221.358 85.106 C 221.027 84.618,220.637 83.789,220.492 83.264 C 220.347 82.740,220.005 82.064,219.732 81.764 C 219.458 81.463,219.095 80.781,218.924 80.247 C 218.753 79.713,218.397 79.125,218.133 78.940 C 217.869 78.755,217.575 78.293,217.480 77.913 C 217.384 77.532,217.040 76.955,216.714 76.629 C 216.389 76.303,215.940 75.599,215.717 75.065 C 215.494 74.530,215.190 74.093,215.043 74.093 C 214.895 74.093,214.599 73.675,214.385 73.163 C 214.172 72.652,213.704 71.885,213.346 71.460 C 212.987 71.034,212.694 70.537,212.694 70.355 C 212.694 70.173,212.408 69.715,212.059 69.338 C 211.709 68.961,211.311 68.246,211.174 67.750 C 211.037 67.254,210.689 66.547,210.400 66.180 C 210.111 65.813,209.741 64.849,209.576 64.039 C 209.412 63.228,209.102 62.015,208.887 61.343 C 208.203 59.209,208.819 56.577,210.751 53.377 C 211.408 52.289,213.575 50.000,213.948 50.000 C 214.104 50.000,214.614 49.671,215.082 49.270 C 215.550 48.868,216.312 48.388,216.775 48.202 C 217.238 48.016,217.617 47.767,217.617 47.648 C 217.617 47.529,218.452 47.183,219.472 46.879 C 220.493 46.575,221.473 46.181,221.650 46.004 C 221.952 45.702,224.106 45.331,227.920 44.924 C 228.814 44.828,229.608 44.649,229.684 44.525 C 229.937 44.117,236.383 44.256,237.211 44.688 M128.039 51.281 C 127.288 51.401,126.513 51.633,126.316 51.796 C 126.120 51.959,125.260 52.206,124.406 52.343 C 120.078 53.040,114.803 57.290,116.349 58.836 C 117.011 59.498,154.215 59.503,155.012 58.841 C 155.647 58.314,155.535 57.834,154.671 57.387 C 154.247 57.168,153.694 56.770,153.440 56.502 C 153.187 56.234,152.396 55.819,151.684 55.580 C 150.972 55.340,150.209 54.981,149.989 54.782 C 149.769 54.584,148.888 54.241,148.032 54.022 C 147.176 53.803,146.036 53.399,145.499 53.126 C 144.962 52.852,143.745 52.546,142.793 52.446 C 141.841 52.346,140.479 52.036,139.767 51.756 C 138.304 51.181,130.619 50.870,128.039 51.281 M228.497 51.283 C 227.856 51.404,226.982 51.690,226.554 51.916 C 226.127 52.143,225.475 52.329,225.106 52.330 C 224.179 52.332,222.062 52.995,221.543 53.445 C 221.307 53.649,220.799 53.891,220.414 53.983 C 220.029 54.074,219.271 54.555,218.730 55.052 C 218.189 55.549,217.669 55.957,217.574 55.957 C 216.915 55.962,216.131 58.273,216.635 58.728 C 217.331 59.358,254.776 59.468,255.530 58.841 C 256.210 58.277,256.036 57.822,254.922 57.254 C 254.352 56.963,253.886 56.619,253.886 56.490 C 253.886 56.361,253.234 56.011,252.437 55.713 C 251.641 55.415,250.825 55.007,250.624 54.806 C 250.423 54.605,249.589 54.300,248.770 54.126 C 247.950 53.953,246.999 53.638,246.656 53.427 C 245.951 52.993,243.482 52.355,242.456 52.341 C 242.083 52.336,241.034 52.089,240.124 51.792 C 238.279 51.188,230.733 50.858,228.497 51.283 M118.020 65.084 C 117.476 65.860,117.510 66.143,118.229 66.869 C 118.566 67.209,118.932 67.778,119.041 68.135 C 119.151 68.491,119.575 69.165,119.983 69.633 C 120.391 70.101,120.725 70.647,120.725 70.845 C 120.725 71.044,121.010 71.430,121.358 71.704 C 121.706 71.978,122.063 72.482,122.151 72.824 C 122.351 73.601,122.747 74.122,123.568 74.688 C 124.160 75.096,126.007 75.130,147.976 75.130 L 171.743 75.130 172.034 74.587 C 172.348 74.000,172.166 72.798,171.762 72.798 C 171.625 72.798,171.262 72.302,170.955 71.697 C 170.648 71.091,170.062 70.188,169.654 69.689 C 169.245 69.190,168.649 68.464,168.329 68.074 C 166.755 66.161,165.444 64.961,164.693 64.746 C 164.218 64.609,154.163 64.508,141.143 64.508 L 118.423 64.508 118.020 65.084 M218.645 64.905 C 218.084 65.582,218.299 66.793,219.154 67.766 C 219.591 68.264,219.948 68.816,219.948 68.993 C 219.948 69.170,220.298 69.697,220.725 70.166 C 221.153 70.634,221.503 71.167,221.503 71.351 C 221.503 71.535,221.789 71.995,222.138 72.372 C 222.488 72.749,222.962 73.454,223.192 73.939 C 223.422 74.423,223.864 74.887,224.175 74.971 C 225.007 75.194,271.586 75.155,271.891 74.931 C 272.795 74.267,272.852 73.871,272.172 72.979 C 271.804 72.496,271.503 71.968,271.503 71.804 C 271.503 71.641,271.269 71.361,270.984 71.183 C 270.699 71.005,270.466 70.724,270.466 70.558 C 270.466 70.392,270.043 69.750,269.525 69.131 C 269.007 68.512,268.470 67.756,268.331 67.451 C 268.191 67.146,267.801 66.748,267.463 66.567 C 267.125 66.386,266.783 66.035,266.704 65.786 C 266.301 64.516,266.133 64.508,241.736 64.508 C 221.592 64.508,218.937 64.553,218.645 64.905 M127.368 80.959 C 126.926 81.401,127.076 82.123,127.957 83.798 C 128.254 84.363,128.497 85.132,128.497 85.508 C 128.497 85.885,128.800 86.761,129.169 87.455 C 129.538 88.150,129.950 89.396,130.083 90.224 C 130.216 91.052,130.643 92.396,131.031 93.210 L 131.736 94.689 154.203 94.755 L 176.670 94.822 177.111 94.149 C 177.746 93.180,177.169 86.276,176.290 84.326 C 175.968 83.614,175.625 82.651,175.526 82.186 C 175.157 80.451,176.954 80.570,151.166 80.570 C 130.695 80.570,127.708 80.619,127.368 80.959 M228.031 80.881 C 227.606 81.306,227.646 82.890,228.102 83.679 C 228.820 84.923,229.086 85.631,229.291 86.839 C 229.405 87.508,229.737 88.383,230.029 88.782 C 230.353 89.224,230.665 90.250,230.826 91.407 C 231.122 93.522,231.385 94.164,232.113 94.554 C 232.958 95.006,277.061 94.912,277.438 94.457 C 278.247 93.483,277.937 87.804,276.958 85.655 C 276.665 85.011,276.424 84.216,276.423 83.887 C 276.421 82.773,275.889 81.364,275.321 80.966 C 274.569 80.439,228.556 80.356,228.031 80.881 M132.550 100.842 C 131.696 101.621,131.217 111.232,131.994 112.009 C 132.383 112.398,134.341 112.435,154.274 112.435 L 176.128 112.435 176.626 111.803 C 176.998 111.329,177.166 110.558,177.294 108.741 C 177.388 107.405,177.639 105.644,177.852 104.827 C 178.449 102.534,178.368 101.435,177.556 100.796 C 176.877 100.262,176.736 100.259,155.031 100.259 L 133.190 100.259 132.550 100.842 M232.800 100.842 C 232.260 101.687,232.094 111.385,232.609 112.006 C 232.935 112.399,234.752 112.435,254.144 112.435 C 276.444 112.435,276.771 112.423,277.333 111.557 C 277.939 110.624,278.380 101.680,277.859 100.885 L 277.449 100.259 255.311 100.259 L 233.173 100.259 232.800 100.842 M130.635 118.014 C 130.314 118.239,130.052 118.533,130.052 118.667 C 130.052 118.801,129.702 119.651,129.275 120.555 C 128.847 121.460,128.497 122.437,128.497 122.727 C 128.497 123.298,127.899 124.868,127.549 125.216 C 127.429 125.335,127.091 126.421,126.797 127.630 L 126.262 129.829 126.978 130.200 C 127.582 130.512,131.025 130.570,148.935 130.570 L 170.175 130.570 171.096 129.598 C 171.671 128.991,172.172 128.093,172.430 127.202 C 172.658 126.418,173.009 125.593,173.211 125.367 C 173.412 125.141,173.797 124.120,174.066 123.096 C 174.334 122.073,174.668 121.092,174.808 120.916 C 175.398 120.173,175.418 118.760,174.847 118.243 C 174.068 117.538,131.625 117.318,130.635 118.014 M231.167 118.005 C 230.260 118.641,229.526 120.077,229.258 121.743 C 229.115 122.629,228.727 123.718,228.363 124.255 C 228.009 124.776,227.720 125.469,227.720 125.796 C 227.720 126.123,227.411 127.105,227.032 127.977 C 225.866 130.665,223.836 130.431,248.908 130.504 C 260.836 130.539,270.712 130.480,270.855 130.374 C 271.490 129.902,273.016 127.214,273.319 126.036 C 273.503 125.324,273.854 124.508,274.101 124.223 C 274.348 123.938,274.631 123.122,274.729 122.409 C 274.828 121.697,275.104 120.552,275.343 119.866 C 275.815 118.509,275.711 118.321,274.223 117.837 C 272.995 117.437,231.747 117.599,231.167 118.005 M123.886 136.185 C 122.931 136.655,122.440 137.452,122.162 138.982 C 122.060 139.547,121.708 140.480,121.381 141.054 C 121.055 141.629,120.719 142.638,120.636 143.298 C 120.553 143.958,120.189 145.053,119.828 145.733 C 119.094 147.114,118.985 148.297,119.541 148.853 C 120.057 149.368,165.848 149.414,166.254 148.899 C 166.394 148.721,166.582 147.841,166.672 146.944 C 166.761 146.047,166.952 145.093,167.096 144.824 C 167.240 144.555,167.358 143.905,167.358 143.379 C 167.358 142.854,167.541 141.187,167.766 139.674 L 168.174 136.924 167.492 136.338 L 166.810 135.751 145.776 135.757 C 126.878 135.762,124.654 135.806,123.886 136.185 M224.624 136.015 C 223.569 136.263,223.174 136.732,222.931 138.024 C 222.833 138.546,222.483 139.444,222.152 140.018 C 221.822 140.592,221.472 141.674,221.373 142.422 C 221.275 143.170,221.082 143.852,220.944 143.937 C 220.129 144.441,219.516 148.084,220.132 148.765 C 220.772 149.472,266.431 149.476,266.797 148.769 C 266.926 148.520,267.114 146.917,267.213 145.207 C 267.331 143.186,267.528 141.892,267.776 141.508 C 268.643 140.163,268.656 136.502,267.795 135.955 C 267.379 135.691,225.755 135.749,224.624 136.015 M117.942 155.246 C 117.802 155.424,117.609 156.211,117.513 156.995 C 117.257 159.087,116.943 161.067,116.586 162.824 C 116.041 165.505,116.316 167.274,117.438 168.302 L 118.386 169.171 144.152 169.171 L 169.919 169.171 170.322 168.595 C 170.888 167.787,170.839 166.017,170.228 165.241 C 169.955 164.893,169.544 163.703,169.315 162.597 C 169.087 161.490,168.739 160.331,168.543 160.021 C 168.346 159.710,168.044 158.582,167.871 157.513 C 167.699 156.444,167.440 155.424,167.296 155.246 C 167.091 154.991,161.839 154.922,142.617 154.922 C 123.391 154.922,118.144 154.991,117.942 155.246 M218.459 155.246 C 218.318 155.424,218.126 155.995,218.032 156.515 C 217.939 157.035,217.691 157.803,217.483 158.221 C 217.225 158.737,217.049 160.307,216.933 163.122 L 216.762 167.263 217.557 168.152 L 218.351 169.041 244.430 169.041 C 269.945 169.041,270.516 169.031,270.876 168.539 C 271.349 167.892,271.348 166.608,270.875 166.083 C 270.672 165.858,270.319 164.866,270.090 163.878 C 269.862 162.891,269.547 161.928,269.391 161.740 C 269.029 161.305,268.415 158.466,268.403 157.177 C 268.396 156.487,268.204 156.005,267.758 155.558 L 267.122 154.922 242.919 154.922 C 223.867 154.922,218.662 154.991,218.459 155.246 M118.674 174.288 C 117.992 174.845,117.866 176.471,118.453 177.135 C 118.674 177.386,118.941 178.115,119.045 178.756 C 119.149 179.398,119.456 180.235,119.726 180.618 C 119.997 181.000,120.389 181.798,120.598 182.390 C 120.807 182.982,121.271 183.815,121.629 184.240 C 121.987 184.666,122.280 185.170,122.280 185.361 C 122.280 185.551,122.878 186.183,123.609 186.766 L 124.938 187.824 151.882 187.824 C 180.457 187.824,180.829 187.809,180.829 186.656 C 180.829 185.715,180.291 184.383,179.502 183.370 C 179.092 182.844,178.756 182.289,178.756 182.137 C 178.756 181.985,178.414 181.502,177.995 181.064 C 177.576 180.626,177.162 179.942,177.075 179.544 C 176.988 179.147,176.637 178.559,176.295 178.238 C 175.954 177.918,175.604 177.333,175.517 176.939 C 175.431 176.544,174.830 175.685,174.183 175.028 L 173.006 173.834 146.117 173.834 C 120.893 173.834,119.194 173.862,118.674 174.288 M218.790 174.597 C 218.231 175.678,218.301 176.641,219.034 177.923 C 219.383 178.533,219.746 179.445,219.841 179.949 C 219.935 180.454,220.275 181.178,220.595 181.560 C 220.915 181.942,221.255 182.612,221.350 183.050 C 221.445 183.487,221.868 184.223,222.290 184.685 C 222.712 185.146,223.057 185.674,223.057 185.858 C 223.057 186.042,223.648 186.559,224.370 187.008 L 225.682 187.824 252.747 187.824 C 283.105 187.824,281.088 187.954,281.088 186.000 C 281.088 185.325,280.883 184.770,280.437 184.240 C 280.079 183.814,279.613 183.052,279.401 182.545 C 279.189 182.039,278.796 181.507,278.528 181.363 C 278.259 181.219,277.958 180.778,277.859 180.382 C 277.761 179.987,277.398 179.292,277.053 178.839 C 276.708 178.386,276.319 177.744,276.188 177.414 C 276.058 177.084,275.766 176.580,275.540 176.295 C 275.313 176.010,274.861 175.369,274.536 174.870 L 273.943 173.964 246.564 173.898 L 219.186 173.832 218.790 174.597 M131.774 192.816 C 130.910 193.447,132.485 195.855,133.761 195.855 C 133.958 195.855,134.473 196.192,134.905 196.605 C 135.336 197.017,136.053 197.434,136.497 197.532 C 136.942 197.630,137.306 197.799,137.306 197.909 C 137.306 198.142,138.931 198.858,139.968 199.081 C 140.363 199.166,140.902 199.451,141.165 199.714 C 141.432 199.981,142.358 200.318,143.264 200.477 C 144.155 200.634,145.392 201.008,146.011 201.308 C 146.756 201.669,148.083 201.945,149.929 202.125 C 151.464 202.274,152.950 202.556,153.231 202.752 C 153.993 203.283,163.758 203.264,164.727 202.729 C 165.105 202.521,166.476 202.246,167.774 202.118 C 169.415 201.957,170.574 201.678,171.579 201.202 C 172.374 200.826,173.294 200.515,173.624 200.511 C 173.953 200.507,174.681 200.157,175.240 199.734 C 175.800 199.310,176.454 198.964,176.694 198.964 C 177.142 198.964,178.224 198.071,180.380 195.921 C 181.648 194.656,181.825 193.803,181.026 192.811 C 180.641 192.333,132.428 192.338,131.774 192.816 M232.060 192.664 C 231.085 192.923,232.245 194.919,233.844 195.734 C 234.394 196.014,234.932 196.380,235.040 196.546 C 235.147 196.713,235.760 197.049,236.400 197.294 C 237.041 197.539,237.565 197.822,237.565 197.923 C 237.565 198.146,239.221 198.864,240.246 199.086 C 240.652 199.174,241.295 199.475,241.675 199.756 C 242.055 200.037,243.050 200.378,243.887 200.514 C 244.724 200.650,245.596 200.925,245.826 201.125 C 246.356 201.586,248.273 201.996,250.831 202.196 C 251.930 202.281,253.154 202.521,253.552 202.728 C 254.595 203.273,264.313 203.275,265.356 202.731 C 265.751 202.525,266.800 202.285,267.688 202.198 C 269.977 201.975,271.721 201.558,272.147 201.132 C 272.348 200.931,273.045 200.667,273.695 200.546 C 274.345 200.424,275.319 200.018,275.859 199.644 C 276.399 199.270,276.956 198.964,277.095 198.964 C 277.408 198.964,278.658 197.936,280.323 196.308 C 281.656 195.005,282.226 193.522,281.626 192.921 C 281.325 192.620,233.164 192.370,232.060 192.664 " stroke="none" fill="#ffffff" fill-rule="evenodd"></path></g></svg>