<svg id="svg" version="1.1" xmlns="http://www.w3.org/2000/svg" xmlns:xlink="http://www.w3.org/1999/xlink" width="400" height="258.91472868217056" viewBox="0, 0, 400,258.91472868217056"><g id="svgg"><path id="path0" d="M198.789 37.370 C 198.363 38.044,197.688 39.281,197.271 40.155 C 197.033 40.654,196.679 41.354,196.484 41.710 C 196.112 42.391,195.587 43.475,195.102 44.560 C 194.943 44.916,194.590 45.557,194.317 45.984 C 194.044 46.412,193.812 46.982,193.801 47.251 C 193.791 47.520,193.433 48.309,193.005 49.004 C 192.578 49.698,192.228 50.398,192.228 50.558 C 192.228 50.718,191.878 51.418,191.451 52.113 C 191.023 52.807,190.674 53.507,190.674 53.667 C 190.674 53.827,190.342 54.497,189.937 55.156 C 189.532 55.814,189.120 56.777,189.023 57.296 C 188.926 57.814,188.681 58.376,188.478 58.544 C 188.276 58.712,187.909 59.394,187.664 60.059 C 187.419 60.725,187.073 61.444,186.895 61.658 C 186.717 61.872,186.369 62.571,186.121 63.212 C 185.874 63.854,185.514 64.563,185.322 64.788 C 185.129 65.014,184.782 65.772,184.549 66.472 C 184.316 67.173,183.961 67.936,183.760 68.169 C 183.559 68.401,183.282 69.000,183.144 69.498 C 183.007 69.997,182.622 70.805,182.290 71.295 C 181.958 71.784,181.613 72.477,181.523 72.834 C 181.434 73.191,181.066 73.917,180.706 74.448 C 180.346 74.978,180.052 75.559,180.052 75.739 C 180.052 75.919,179.644 76.875,179.146 77.865 C 178.648 78.854,178.240 79.793,178.239 79.952 C 178.239 80.111,178.012 80.529,177.735 80.880 C 177.459 81.232,177.033 82.035,176.788 82.664 C 176.544 83.293,176.189 83.991,175.998 84.215 C 175.808 84.439,175.417 85.305,175.130 86.140 C 174.842 86.975,174.449 87.841,174.255 88.065 C 174.062 88.289,173.821 88.821,173.719 89.249 C 173.618 89.676,173.271 90.376,172.948 90.803 C 172.626 91.231,172.276 91.930,172.171 92.358 C 172.066 92.785,171.707 93.494,171.373 93.933 C 171.039 94.373,170.685 95.161,170.586 95.684 C 170.488 96.208,170.185 96.919,169.913 97.265 C 169.641 97.611,169.244 98.391,169.029 98.999 C 168.815 99.607,168.470 100.290,168.264 100.518 C 168.058 100.746,167.714 101.430,167.499 102.037 C 167.285 102.645,166.882 103.432,166.604 103.785 C 166.326 104.139,166.017 104.799,165.917 105.251 C 165.818 105.704,165.479 106.485,165.164 106.988 C 164.848 107.490,164.505 108.251,164.400 108.679 C 164.294 109.106,163.944 109.806,163.622 110.233 C 163.299 110.661,162.957 111.328,162.862 111.716 C 162.766 112.104,162.406 112.837,162.062 113.344 C 161.718 113.851,161.355 114.641,161.256 115.099 C 161.157 115.558,160.876 116.224,160.632 116.580 C 160.389 116.937,159.986 117.753,159.736 118.394 C 159.487 119.035,159.136 119.734,158.956 119.948 C 158.777 120.162,158.427 120.861,158.179 121.503 C 157.931 122.144,157.574 122.843,157.385 123.057 C 155.857 124.786,155.962 128.374,157.621 131.088 C 157.839 131.444,158.189 132.144,158.399 132.642 C 158.608 133.141,158.950 133.841,159.158 134.197 C 159.366 134.553,159.910 135.661,160.368 136.658 C 162.048 140.319,163.015 142.376,163.414 143.135 C 163.638 143.562,163.909 144.087,164.014 144.301 C 165.330 146.956,165.758 147.919,165.916 148.575 C 166.019 149.003,166.366 149.702,166.689 150.130 C 167.011 150.557,167.361 151.256,167.466 151.684 C 167.571 152.111,167.921 152.811,168.243 153.238 C 168.566 153.666,168.914 154.358,169.018 154.777 C 169.121 155.196,169.445 155.874,169.737 156.285 C 170.030 156.696,170.431 157.569,170.628 158.225 C 170.826 158.881,171.158 159.607,171.368 159.839 C 171.577 160.070,171.923 160.756,172.138 161.364 C 172.352 161.972,172.763 162.769,173.051 163.135 C 173.339 163.501,173.575 163.918,173.575 164.062 C 173.575 164.206,173.983 165.172,174.482 166.209 C 174.981 167.246,175.389 168.215,175.389 168.362 C 175.389 168.509,175.683 169.064,176.043 169.594 C 176.403 170.124,176.770 170.850,176.860 171.207 C 176.950 171.564,177.299 172.264,177.637 172.762 C 177.975 173.259,178.322 173.967,178.409 174.333 C 178.496 174.700,178.725 175.183,178.919 175.407 C 179.112 175.630,179.505 176.497,179.793 177.332 C 180.080 178.167,180.471 179.033,180.661 179.257 C 180.852 179.480,181.210 180.188,181.458 180.829 C 181.706 181.470,182.056 182.170,182.235 182.383 C 182.415 182.597,182.765 183.297,183.013 183.938 C 183.260 184.579,183.614 185.278,183.799 185.492 C 183.984 185.706,184.218 186.172,184.318 186.528 C 184.418 186.885,185.206 188.633,186.069 190.415 C 186.932 192.196,187.764 193.944,187.919 194.301 C 188.073 194.657,188.406 195.226,188.659 195.566 C 188.912 195.906,189.119 196.442,189.119 196.758 C 189.119 197.073,189.467 197.844,189.892 198.471 C 190.317 199.098,190.666 199.798,190.669 200.026 C 190.671 200.254,191.021 200.953,191.446 201.580 C 191.871 202.207,192.221 202.880,192.223 203.076 C 192.226 203.272,192.569 204.088,192.986 204.889 C 193.403 205.691,193.887 206.736,194.063 207.211 C 194.238 207.686,194.514 208.211,194.675 208.377 C 194.836 208.543,195.178 209.235,195.435 209.914 C 195.691 210.593,196.041 211.293,196.212 211.468 C 196.383 211.644,196.732 212.343,196.989 213.023 C 197.246 213.702,197.614 214.417,197.808 214.611 C 198.002 214.805,198.232 215.240,198.319 215.578 C 198.752 217.263,199.732 217.424,200.121 215.873 C 200.216 215.496,200.523 214.864,200.804 214.470 C 201.085 214.076,201.444 213.369,201.604 212.900 C 201.763 212.431,202.112 211.731,202.381 211.346 C 202.649 210.960,203.000 210.261,203.160 209.791 C 203.320 209.322,203.665 208.660,203.927 208.321 C 204.188 207.982,204.530 207.232,204.685 206.655 C 204.840 206.078,205.249 205.191,205.593 204.686 C 205.936 204.180,206.218 203.599,206.218 203.395 C 206.218 203.191,206.553 202.490,206.963 201.836 C 207.373 201.182,207.789 200.307,207.886 199.891 C 207.983 199.475,208.289 198.847,208.564 198.497 C 208.840 198.147,209.194 197.384,209.351 196.802 C 209.507 196.220,209.851 195.470,210.114 195.135 C 210.377 194.801,210.732 194.097,210.904 193.572 C 211.075 193.046,211.425 192.347,211.681 192.017 C 211.937 191.688,212.285 190.989,212.453 190.463 C 212.622 189.938,212.920 189.323,213.117 189.097 C 213.313 188.872,213.648 188.101,213.861 187.384 C 214.074 186.668,214.464 185.803,214.729 185.463 C 214.993 185.123,215.350 184.415,215.521 183.889 C 215.692 183.364,216.041 182.664,216.295 182.335 C 216.550 182.005,216.951 181.163,217.186 180.462 C 217.422 179.761,217.775 179.003,217.971 178.778 C 218.168 178.552,218.477 177.902,218.658 177.332 C 218.839 176.762,219.197 176.026,219.453 175.696 C 219.709 175.367,220.056 174.681,220.224 174.171 C 220.392 173.662,220.807 172.837,221.146 172.338 C 221.484 171.839,221.762 171.299,221.762 171.139 C 221.762 170.978,222.001 170.401,222.293 169.856 C 222.585 169.312,223.060 168.264,223.349 167.529 C 223.639 166.793,224.032 166.017,224.223 165.803 C 224.414 165.589,224.654 165.065,224.755 164.637 C 224.856 164.210,225.198 163.510,225.515 163.083 C 225.832 162.655,226.180 162.014,226.288 161.658 C 226.509 160.933,227.849 157.990,228.412 156.995 C 228.613 156.639,228.962 155.939,229.188 155.440 C 229.413 154.942,229.763 154.242,229.965 153.886 C 230.167 153.530,230.514 152.830,230.735 152.332 C 230.956 151.833,231.415 150.842,231.754 150.130 C 232.094 149.417,232.542 148.426,232.752 147.927 C 232.961 147.429,233.310 146.729,233.528 146.373 C 233.746 146.017,234.096 145.317,234.305 144.819 C 234.515 144.320,234.857 143.620,235.065 143.264 C 235.611 142.332,237.208 138.845,237.440 138.083 C 237.548 137.727,237.847 137.166,238.104 136.836 C 238.361 136.507,238.709 135.820,238.877 135.311 C 239.045 134.802,239.460 133.977,239.799 133.478 C 240.137 132.979,240.415 132.465,240.415 132.336 C 240.415 132.208,240.761 131.361,241.185 130.455 C 242.662 127.295,242.601 125.368,240.937 122.675 C 240.650 122.210,240.415 121.700,240.415 121.541 C 240.415 121.382,240.065 120.683,239.637 119.988 C 239.210 119.293,238.860 118.594,238.860 118.434 C 238.860 118.274,238.525 117.587,238.116 116.908 C 237.706 116.229,237.290 115.331,237.192 114.912 C 237.093 114.493,236.776 113.820,236.488 113.415 C 236.200 113.010,235.846 112.251,235.702 111.728 C 235.557 111.205,235.175 110.421,234.852 109.987 C 234.529 109.552,234.190 108.879,234.098 108.491 C 234.006 108.103,233.650 107.371,233.306 106.863 C 232.961 106.356,232.598 105.566,232.498 105.108 C 232.398 104.650,232.105 104.005,231.846 103.676 C 231.588 103.346,231.237 102.647,231.067 102.121 C 230.896 101.596,230.536 100.850,230.265 100.465 C 229.995 100.079,229.642 99.380,229.482 98.910 C 229.322 98.441,228.918 97.651,228.585 97.155 C 228.252 96.659,227.979 96.134,227.979 95.989 C 227.979 95.844,227.643 95.026,227.232 94.171 C 226.822 93.316,226.302 92.209,226.077 91.710 C 225.853 91.211,225.508 90.512,225.312 90.155 C 224.799 89.227,223.486 86.474,222.408 84.067 C 221.898 82.927,221.346 81.762,221.183 81.477 C 221.020 81.192,220.671 80.492,220.408 79.922 C 220.145 79.352,219.815 78.711,219.675 78.497 C 219.534 78.284,219.237 77.701,219.014 77.202 C 218.791 76.703,218.211 75.459,217.724 74.437 C 217.238 73.415,216.839 72.469,216.839 72.335 C 216.839 72.201,216.626 71.813,216.366 71.473 C 216.106 71.133,215.688 70.330,215.438 69.689 C 215.187 69.048,214.837 68.348,214.658 68.135 C 214.480 67.921,214.189 67.338,214.012 66.839 C 213.615 65.723,212.736 63.813,211.269 60.881 C 211.056 60.453,210.723 59.783,210.529 59.391 C 210.336 58.999,209.999 58.329,209.781 57.902 C 208.743 55.872,207.772 53.728,207.772 53.469 C 207.772 53.311,207.495 52.773,207.156 52.273 C 206.817 51.774,206.403 50.949,206.235 50.440 C 206.067 49.931,205.719 49.245,205.461 48.915 C 205.204 48.586,204.910 48.025,204.808 47.668 C 204.619 47.011,204.146 45.993,203.482 44.819 C 203.281 44.462,203.114 43.996,203.112 43.782 C 203.109 43.569,202.758 42.869,202.332 42.228 C 201.905 41.587,201.556 40.885,201.556 40.669 C 201.555 40.453,201.262 39.845,200.904 39.319 C 200.546 38.792,200.141 38.066,200.004 37.704 C 199.737 37.004,199.128 36.836,198.789 37.370 " stroke="none" fill="#653594" fill-rule="evenodd"></path><path id="path1" d="M0.000 129.534 L 0.000 259.067 200.000 259.067 L 400.000 259.067 400.000 129.534 L 400.000 0.000 200.000 0.000 L 0.000 0.000 0.000 129.534 M200.004 37.704 C 200.141 38.066,200.546 38.792,200.904 39.319 C 201.262 39.845,201.555 40.453,201.556 40.669 C 201.556 40.885,201.905 41.587,202.332 42.228 C 202.758 42.869,203.109 43.569,203.112 43.782 C 203.114 43.996,203.281 44.462,203.482 44.819 C 204.146 45.993,204.619 47.011,204.808 47.668 C 204.910 48.025,205.204 48.586,205.461 48.915 C 205.719 49.245,206.067 49.931,206.235 50.440 C 206.403 50.949,206.817 51.774,207.156 52.273 C 207.495 52.773,207.772 53.311,207.772 53.469 C 207.772 53.728,208.743 55.872,209.781 57.902 C 209.999 58.329,210.336 58.999,210.529 59.391 C 210.723 59.783,211.056 60.453,211.269 60.881 C 212.736 63.813,213.615 65.723,214.012 66.839 C 214.189 67.338,214.480 67.921,214.658 68.135 C 214.837 68.348,215.187 69.048,215.438 69.689 C 215.688 70.330,216.106 71.133,216.366 71.473 C 216.626 71.813,216.839 72.201,216.839 72.335 C 216.839 72.469,217.238 73.415,217.724 74.437 C 218.211 75.459,218.791 76.703,219.014 77.202 C 219.237 77.701,219.534 78.284,219.675 78.497 C 219.815 78.711,220.145 79.352,220.408 79.922 C 220.671 80.492,221.020 81.192,221.183 81.477 C 221.346 81.762,221.898 82.927,222.408 84.067 C 223.486 86.474,224.799 89.227,225.312 90.155 C 225.508 90.512,225.853 91.211,226.077 91.710 C 226.302 92.209,226.822 93.316,227.232 94.171 C 227.643 95.026,227.979 95.844,227.979 95.989 C 227.979 96.134,228.252 96.659,228.585 97.155 C 228.918 97.651,229.322 98.441,229.482 98.910 C 229.642 99.380,229.995 100.079,230.265 100.465 C 230.536 100.850,230.896 101.596,231.067 102.121 C 231.237 102.647,231.588 103.346,231.846 103.676 C 232.105 104.005,232.398 104.650,232.498 105.108 C 232.598 105.566,232.961 106.356,233.306 106.863 C 233.650 107.371,234.006 108.103,234.098 108.491 C 234.190 108.879,234.529 109.552,234.852 109.987 C 235.175 110.421,235.557 111.205,235.702 111.728 C 235.846 112.251,236.200 113.010,236.488 113.415 C 236.776 113.820,237.093 114.493,237.192 114.912 C 237.290 115.331,237.706 116.229,238.116 116.908 C 238.525 117.587,238.860 118.274,238.860 118.434 C 238.860 118.594,239.210 119.293,239.637 119.988 C 240.065 120.683,240.415 121.382,240.415 121.541 C 240.415 121.700,240.650 122.210,240.937 122.675 C 242.601 125.368,242.662 127.295,241.185 130.455 C 240.761 131.361,240.415 132.208,240.415 132.336 C 240.415 132.465,240.137 132.979,239.799 133.478 C 239.460 133.977,239.045 134.802,238.877 135.311 C 238.709 135.820,238.361 136.507,238.104 136.836 C 237.847 137.166,237.548 137.727,237.440 138.083 C 237.208 138.845,235.611 142.332,235.065 143.264 C 234.857 143.620,234.515 144.320,234.305 144.819 C 234.096 145.317,233.746 146.017,233.528 146.373 C 233.310 146.729,232.961 147.429,232.752 147.927 C 232.542 148.426,232.094 149.417,231.754 150.130 C 231.415 150.842,230.956 151.833,230.735 152.332 C 230.514 152.830,230.167 153.530,229.965 153.886 C 229.763 154.242,229.413 154.942,229.188 155.440 C 228.962 155.939,228.613 156.639,228.412 156.995 C 227.849 157.990,226.509 160.933,226.288 161.658 C 226.180 162.014,225.832 162.655,225.515 163.083 C 225.198 163.510,224.856 164.210,224.755 164.637 C 224.654 165.065,224.414 165.589,224.223 165.803 C 224.032 166.017,223.639 166.793,223.349 167.529 C 223.060 168.264,222.585 169.312,222.293 169.856 C 222.001 170.401,221.762 170.978,221.762 171.139 C 221.762 171.299,221.484 171.839,221.146 172.338 C 220.807 172.837,220.392 173.662,220.224 174.171 C 220.056 174.681,219.709 175.367,219.453 175.696 C 219.197 176.026,218.839 176.762,218.658 177.332 C 218.477 177.902,218.168 178.552,217.971 178.778 C 217.775 179.003,217.422 179.761,217.186 180.462 C 216.951 181.163,216.550 182.005,216.295 182.335 C 216.041 182.664,215.692 183.364,215.521 183.889 C 215.350 184.415,214.993 185.123,214.729 185.463 C 214.464 185.803,214.074 186.668,213.861 187.384 C 213.648 188.101,213.313 188.872,213.117 189.097 C 212.920 189.323,212.622 189.938,212.453 190.463 C 212.285 190.989,211.937 191.688,211.681 192.017 C 211.425 192.347,211.075 193.046,210.904 193.572 C 210.732 194.097,210.377 194.801,210.114 195.135 C 209.851 195.470,209.507 196.220,209.351 196.802 C 209.194 197.384,208.840 198.147,208.564 198.497 C 208.289 198.847,207.983 199.475,207.886 199.891 C 207.789 200.307,207.373 201.182,206.963 201.836 C 206.553 202.490,206.218 203.191,206.218 203.395 C 206.218 203.599,205.936 204.180,205.593 204.686 C 205.249 205.191,204.840 206.078,204.685 206.655 C 204.530 207.232,204.188 207.982,203.927 208.321 C 203.665 208.660,203.320 209.322,203.160 209.791 C 203.000 210.261,202.649 210.960,202.381 211.346 C 202.112 211.731,201.763 212.431,201.604 212.900 C 201.444 213.369,201.085 214.076,200.804 214.470 C 200.523 214.864,200.216 215.496,200.121 215.873 C 199.732 217.424,198.752 217.263,198.319 215.578 C 198.232 215.240,198.002 214.805,197.808 214.611 C 197.614 214.417,197.246 213.702,196.989 213.023 C 196.732 212.343,196.383 211.644,196.212 211.468 C 196.041 211.293,195.691 210.593,195.435 209.914 C 195.178 209.235,194.836 208.543,194.675 208.377 C 194.514 208.211,194.238 207.686,194.063 207.211 C 193.887 206.736,193.403 205.691,192.986 204.889 C 192.569 204.088,192.226 203.272,192.223 203.076 C 192.221 202.880,191.871 202.207,191.446 201.580 C 191.021 200.953,190.671 200.254,190.669 200.026 C 190.666 199.798,190.317 199.098,189.892 198.471 C 189.467 197.844,189.119 197.073,189.119 196.758 C 189.119 196.442,188.912 195.906,188.659 195.566 C 188.406 195.226,188.073 194.657,187.919 194.301 C 187.764 193.944,186.932 192.196,186.069 190.415 C 185.206 188.633,184.418 186.885,184.318 186.528 C 184.218 186.172,183.984 185.706,183.799 185.492 C 183.614 185.278,183.260 184.579,183.013 183.938 C 182.765 183.297,182.415 182.597,182.235 182.383 C 182.056 182.170,181.706 181.470,181.458 180.829 C 181.210 180.188,180.852 179.480,180.661 179.257 C 180.471 179.033,180.080 178.167,179.793 177.332 C 179.505 176.497,179.112 175.630,178.919 175.407 C 178.725 175.183,178.496 174.700,178.409 174.333 C 178.322 173.967,177.975 173.259,177.637 172.762 C 177.299 172.264,176.950 171.564,176.860 171.207 C 176.770 170.850,176.403 170.124,176.043 169.594 C 175.683 169.064,175.389 168.509,175.389 168.362 C 175.389 168.215,174.981 167.246,174.482 166.209 C 173.983 165.172,173.575 164.206,173.575 164.062 C 173.575 163.918,173.339 163.501,173.051 163.135 C 172.763 162.769,172.352 161.972,172.138 161.364 C 171.923 160.756,171.577 160.070,171.368 159.839 C 171.158 159.607,170.826 158.881,170.628 158.225 C 170.431 157.569,170.030 156.696,169.737 156.285 C 169.445 155.874,169.121 155.196,169.018 154.777 C 168.914 154.358,168.566 153.666,168.243 153.238 C 167.921 152.811,167.571 152.111,167.466 151.684 C 167.361 151.256,167.011 150.557,166.689 150.130 C 166.366 149.702,166.019 149.003,165.916 148.575 C 165.758 147.919,165.330 146.956,164.014 144.301 C 163.909 144.087,163.638 143.562,163.414 143.135 C 163.015 142.376,162.048 140.319,160.368 136.658 C 159.910 135.661,159.366 134.553,159.158 134.197 C 158.950 133.841,158.608 133.141,158.399 132.642 C 158.189 132.144,157.839 131.444,157.621 131.088 C 155.962 128.374,155.857 124.786,157.385 123.057 C 157.574 122.843,157.931 122.144,158.179 121.503 C 158.427 120.861,158.777 120.162,158.956 119.948 C 159.136 119.734,159.487 119.035,159.736 118.394 C 159.986 117.753,160.389 116.937,160.632 116.580 C 160.876 116.224,161.157 115.558,161.256 115.099 C 161.355 114.641,161.718 113.851,162.062 113.344 C 162.406 112.837,162.766 112.104,162.862 111.716 C 162.957 111.328,163.299 110.661,163.622 110.233 C 163.944 109.806,164.294 109.106,164.400 108.679 C 164.505 108.251,164.848 107.490,165.164 106.988 C 165.479 106.485,165.818 105.704,165.917 105.251 C 166.017 104.799,166.326 104.139,166.604 103.785 C 166.882 103.432,167.285 102.645,167.499 102.037 C 167.714 101.430,168.058 100.746,168.264 100.518 C 168.470 100.290,168.815 99.607,169.029 98.999 C 169.244 98.391,169.641 97.611,169.913 97.265 C 170.185 96.919,170.488 96.208,170.586 95.684 C 170.685 95.161,171.039 94.373,171.373 93.933 C 171.707 93.494,172.066 92.785,172.171 92.358 C 172.276 91.930,172.626 91.231,172.948 90.803 C 173.271 90.376,173.618 89.676,173.719 89.249 C 173.821 88.821,174.062 88.289,174.255 88.065 C 174.449 87.841,174.842 86.975,175.130 86.140 C 175.417 85.305,175.808 84.439,175.998 84.215 C 176.189 83.991,176.544 83.293,176.788 82.664 C 177.033 82.035,177.459 81.232,177.735 80.880 C 178.012 80.529,178.239 80.111,178.239 79.952 C 178.240 79.793,178.648 78.854,179.146 77.865 C 179.644 76.875,180.052 75.919,180.052 75.739 C 180.052 75.559,180.346 74.978,180.706 74.448 C 181.066 73.917,181.434 73.191,181.523 72.834 C 181.613 72.477,181.958 71.784,182.290 71.295 C 182.622 70.805,183.007 69.997,183.144 69.498 C 183.282 69.000,183.559 68.401,183.760 68.169 C 183.961 67.936,184.316 67.173,184.549 66.472 C 184.782 65.772,185.129 65.014,185.322 64.788 C 185.514 64.563,185.874 63.854,186.121 63.212 C 186.369 62.571,186.717 61.872,186.895 61.658 C 187.073 61.444,187.419 60.725,187.664 60.059 C 187.909 59.394,188.276 58.712,188.478 58.544 C 188.681 58.376,188.926 57.814,189.023 57.296 C 189.120 56.777,189.532 55.814,189.937 55.156 C 190.342 54.497,190.674 53.827,190.674 53.667 C 190.674 53.507,191.023 52.807,191.451 52.113 C 191.878 51.418,192.228 50.718,192.228 50.558 C 192.228 50.398,192.578 49.698,193.005 49.004 C 193.433 48.309,193.791 47.520,193.801 47.251 C 193.812 46.982,194.044 46.412,194.317 45.984 C 194.590 45.557,194.943 44.916,195.102 44.560 C 195.587 43.475,196.112 42.391,196.484 41.710 C 196.679 41.354,197.033 40.654,197.271 40.155 C 197.688 39.281,198.363 38.044,198.789 37.370 C 199.128 36.836,199.737 37.004,200.004 37.704 " stroke="none" fill="#fcfcfc" fill-rule="evenodd"></path></g></svg>