<svg id="svg" version="1.1" xmlns="http://www.w3.org/2000/svg" xmlns:xlink="http://www.w3.org/1999/xlink" width="400" height="258.91472868217056" viewBox="0, 0, 400,258.91472868217056"><g id="svgg"><path id="path0" d="M254.566 37.681 C 254.335 38.034,254.145 38.443,254.145 38.588 C 254.145 38.851,252.878 41.505,252.160 42.746 C 251.954 43.102,251.614 43.802,251.404 44.301 C 251.195 44.799,250.889 45.440,250.725 45.725 C 250.560 46.010,250.286 46.535,250.115 46.891 C 248.754 49.722,248.187 50.997,248.187 51.221 C 248.187 51.364,247.909 51.891,247.571 52.390 C 247.232 52.889,246.817 53.714,246.649 54.223 C 246.481 54.732,246.133 55.419,245.876 55.748 C 245.619 56.078,245.325 56.639,245.223 56.995 C 245.056 57.578,243.981 59.964,243.123 61.658 C 242.410 63.066,241.994 63.902,241.544 64.832 C 241.285 65.366,241.002 65.803,240.915 65.803 C 240.827 65.803,240.608 66.299,240.427 66.904 C 240.246 67.510,239.820 68.482,239.479 69.064 C 239.139 69.647,238.860 70.301,238.860 70.518 C 238.860 70.735,238.583 71.321,238.244 71.820 C 237.905 72.319,237.483 73.167,237.306 73.705 C 237.128 74.242,236.706 75.090,236.367 75.590 C 236.028 76.089,235.751 76.605,235.751 76.736 C 235.751 77.005,234.092 80.613,233.511 81.606 C 233.303 81.962,232.961 82.662,232.751 83.161 C 232.541 83.659,232.192 84.359,231.974 84.715 C 231.756 85.071,231.403 85.771,231.190 86.269 C 230.977 86.768,230.517 87.717,230.168 88.377 C 229.819 89.038,229.534 89.743,229.534 89.945 C 229.534 90.148,229.184 90.865,228.756 91.539 C 228.329 92.213,227.979 92.912,227.979 93.093 C 227.979 93.274,227.630 93.973,227.202 94.647 C 226.775 95.321,226.425 96.015,226.424 96.188 C 226.424 96.361,226.090 97.144,225.681 97.927 C 225.273 98.711,224.798 99.790,224.625 100.324 C 224.453 100.858,224.219 101.295,224.105 101.295 C 223.991 101.295,223.636 101.995,223.316 102.850 C 222.996 103.705,222.648 104.404,222.542 104.404 C 222.437 104.404,222.140 104.958,221.882 105.635 C 221.625 106.312,221.143 107.378,220.811 108.005 C 220.479 108.632,220.207 109.286,220.207 109.458 C 220.207 109.631,219.930 110.181,219.591 110.680 C 219.253 111.179,218.838 112.004,218.670 112.513 C 218.502 113.023,218.156 113.709,217.901 114.038 C 217.647 114.368,217.246 115.211,217.010 115.911 C 216.775 116.612,216.422 117.370,216.226 117.595 C 216.030 117.821,215.670 118.617,215.427 119.365 C 215.183 120.113,214.885 120.725,214.765 120.725 C 214.644 120.725,214.295 121.394,213.989 122.212 C 213.683 123.029,213.322 123.766,213.188 123.850 C 211.723 124.755,211.757 128.820,213.246 130.780 C 213.496 131.110,213.839 131.796,214.007 132.305 C 214.175 132.814,214.589 133.640,214.928 134.139 C 215.267 134.638,215.544 135.180,215.544 135.344 C 215.544 135.508,215.785 136.104,216.080 136.668 C 216.375 137.232,216.850 138.277,217.137 138.990 C 217.423 139.702,217.805 140.460,217.985 140.674 C 218.166 140.887,218.516 141.587,218.764 142.228 C 219.012 142.869,219.364 143.569,219.546 143.782 C 219.728 143.996,220.093 144.754,220.356 145.466 C 220.620 146.179,220.985 146.916,221.169 147.104 C 221.352 147.292,221.503 147.574,221.503 147.730 C 221.503 147.886,222.252 149.539,223.169 151.403 C 224.085 153.267,225.201 155.609,225.649 156.606 C 226.541 158.594,226.954 159.445,227.409 160.233 C 227.573 160.518,227.879 161.159,228.088 161.658 C 228.298 162.157,228.640 162.856,228.848 163.212 C 229.507 164.340,231.088 167.831,231.088 168.159 C 231.088 168.332,231.373 168.848,231.722 169.305 C 232.071 169.762,232.436 170.473,232.533 170.884 C 232.631 171.296,232.980 171.995,233.310 172.439 C 233.640 172.882,233.991 173.582,234.089 173.993 C 234.188 174.404,234.602 175.382,235.009 176.166 C 235.417 176.949,235.751 177.707,235.752 177.850 C 235.753 177.992,236.102 178.633,236.528 179.275 C 236.955 179.916,237.304 180.602,237.305 180.800 C 237.305 180.998,237.637 181.699,238.042 182.358 C 238.448 183.016,238.859 183.979,238.956 184.498 C 239.053 185.016,239.299 185.578,239.501 185.746 C 239.703 185.914,240.072 186.596,240.320 187.261 C 240.568 187.927,240.975 188.741,241.225 189.071 C 241.476 189.400,241.821 190.100,241.992 190.625 C 242.163 191.150,242.519 191.858,242.783 192.197 C 243.047 192.536,243.385 193.267,243.534 193.822 C 243.683 194.376,244.092 195.251,244.441 195.767 C 244.791 196.283,245.078 196.892,245.079 197.122 C 245.079 197.351,245.429 198.063,245.855 198.705 C 246.281 199.346,246.630 200.047,246.631 200.264 C 246.632 200.480,246.918 201.077,247.266 201.590 C 247.615 202.104,247.980 202.860,248.076 203.270 C 248.173 203.680,248.587 204.613,248.996 205.342 C 249.406 206.072,249.741 206.843,249.741 207.056 C 249.741 207.269,249.967 207.731,250.244 208.082 C 250.520 208.434,250.947 209.237,251.191 209.866 C 251.435 210.495,251.792 211.195,251.984 211.420 C 252.176 211.646,252.526 212.404,252.762 213.104 C 252.997 213.805,253.405 214.656,253.668 214.996 C 253.930 215.336,254.145 215.760,254.145 215.939 C 254.145 216.630,255.066 217.462,255.399 217.071 C 256.076 216.277,257.050 214.638,257.445 213.630 C 257.674 213.044,258.075 212.287,258.335 211.947 C 258.595 211.607,258.808 211.218,258.808 211.083 C 258.808 210.947,259.148 210.118,259.564 209.239 C 259.979 208.361,260.522 207.179,260.769 206.613 C 261.017 206.046,261.377 205.426,261.568 205.234 C 261.760 205.042,261.917 204.737,261.917 204.555 C 261.917 204.159,262.643 202.617,263.086 202.073 C 263.260 201.859,263.481 201.354,263.577 200.950 C 263.673 200.546,264.015 199.789,264.338 199.266 C 264.661 198.744,265.065 197.834,265.236 197.246 C 265.407 196.657,265.715 196.036,265.921 195.865 C 266.126 195.694,266.435 195.127,266.606 194.604 C 266.777 194.081,267.191 193.247,267.526 192.751 C 267.861 192.255,268.135 191.729,268.135 191.583 C 268.135 191.437,268.436 190.751,268.804 190.060 C 269.172 189.368,269.636 188.341,269.835 187.778 C 270.034 187.214,270.414 186.440,270.680 186.058 C 270.946 185.676,271.294 184.979,271.453 184.509 C 271.613 184.040,271.972 183.333,272.253 182.939 C 272.534 182.545,272.849 181.883,272.953 181.469 C 273.057 181.054,273.352 180.359,273.608 179.925 C 273.864 179.490,274.257 178.618,274.479 177.987 C 274.702 177.356,275.038 176.659,275.226 176.438 C 275.414 176.217,275.770 175.512,276.018 174.870 C 276.266 174.229,276.621 173.530,276.808 173.316 C 276.995 173.102,277.330 172.403,277.552 171.762 C 277.775 171.120,278.940 168.660,280.141 166.294 C 281.343 163.928,282.405 161.633,282.501 161.195 C 282.597 160.757,282.837 160.265,283.034 160.102 C 283.230 159.938,283.579 159.240,283.808 158.549 C 284.038 157.859,284.387 157.159,284.585 156.995 C 284.784 156.830,285.133 156.131,285.363 155.440 C 285.592 154.750,285.942 154.050,286.140 153.886 C 286.338 153.722,286.696 152.984,286.936 152.247 C 287.176 151.510,287.512 150.732,287.684 150.518 C 287.855 150.304,288.200 149.574,288.451 148.894 C 288.701 148.215,289.046 147.515,289.217 147.340 C 289.388 147.164,289.733 146.476,289.985 145.811 C 290.236 145.145,290.603 144.467,290.800 144.303 C 290.997 144.139,291.235 143.635,291.329 143.182 C 291.423 142.728,291.839 141.747,292.253 141.001 C 292.667 140.255,293.006 139.498,293.006 139.317 C 293.007 139.137,293.356 138.465,293.782 137.824 C 294.209 137.183,294.558 136.483,294.560 136.269 C 294.561 136.056,294.911 135.356,295.337 134.715 C 295.763 134.074,296.112 133.407,296.113 133.233 C 296.113 133.059,296.639 131.808,297.280 130.454 C 298.498 127.882,298.678 126.837,298.100 125.688 C 297.910 125.309,297.458 124.417,297.096 123.705 C 296.734 122.992,296.290 121.943,296.109 121.373 C 295.928 120.803,295.570 120.067,295.314 119.738 C 295.058 119.408,294.708 118.709,294.537 118.183 C 294.365 117.658,294.016 116.958,293.759 116.629 C 293.503 116.299,293.154 115.600,292.984 115.074 C 292.814 114.549,292.465 113.821,292.209 113.456 C 291.954 113.091,291.664 112.450,291.566 112.031 C 291.468 111.612,291.052 110.735,290.642 110.081 C 290.232 109.427,289.896 108.728,289.895 108.527 C 289.895 108.325,289.545 107.636,289.119 106.995 C 288.693 106.354,288.343 105.654,288.341 105.440 C 288.340 105.227,288.107 104.702,287.824 104.275 C 287.540 103.847,287.134 102.901,286.921 102.171 C 286.708 101.442,286.364 100.704,286.157 100.532 C 285.949 100.360,285.592 99.654,285.363 98.964 C 285.133 98.273,284.792 97.581,284.605 97.426 C 284.418 97.270,284.058 96.591,283.807 95.916 C 283.555 95.241,283.189 94.504,282.994 94.279 C 282.800 94.053,282.465 93.280,282.252 92.561 C 282.038 91.842,281.696 91.114,281.490 90.944 C 281.285 90.773,280.929 90.069,280.699 89.378 C 280.470 88.688,280.120 87.988,279.921 87.823 C 279.723 87.658,279.424 87.095,279.256 86.573 C 279.089 86.050,278.742 85.272,278.485 84.845 C 278.228 84.417,277.822 83.484,277.583 82.772 C 277.344 82.060,276.995 81.302,276.808 81.088 C 276.621 80.874,276.266 80.175,276.018 79.534 C 275.770 78.892,275.414 78.187,275.226 77.966 C 275.038 77.746,274.709 77.068,274.494 76.460 C 274.280 75.852,273.883 75.041,273.613 74.659 C 273.343 74.277,273.033 73.557,272.925 73.060 C 272.818 72.562,272.462 71.805,272.136 71.376 C 271.810 70.947,271.457 70.246,271.352 69.819 C 271.247 69.391,270.897 68.692,270.575 68.264 C 270.252 67.837,269.903 67.137,269.798 66.710 C 269.693 66.282,269.347 65.583,269.029 65.155 C 268.711 64.728,268.365 63.970,268.260 63.472 C 268.156 62.973,267.847 62.249,267.575 61.864 C 267.302 61.478,266.949 60.779,266.790 60.309 C 266.631 59.840,266.281 59.141,266.013 58.755 C 265.745 58.369,265.393 57.670,265.231 57.201 C 265.070 56.731,264.673 55.939,264.350 55.440 C 264.027 54.942,263.684 54.215,263.590 53.825 C 263.495 53.435,262.456 51.217,261.282 48.896 C 260.107 46.575,258.995 44.213,258.810 43.646 C 258.625 43.080,258.391 42.558,258.289 42.487 C 257.990 42.278,257.254 40.734,257.254 40.316 C 257.254 40.106,257.094 39.774,256.899 39.578 C 256.704 39.383,256.362 38.871,256.139 38.440 C 255.462 37.132,255.055 36.935,254.566 37.681 M142.163 38.845 C 141.629 39.676,141.191 40.515,141.191 40.709 C 141.190 40.903,140.841 41.587,140.415 42.228 C 139.988 42.869,139.639 43.571,139.638 43.787 C 139.638 44.003,139.362 44.586,139.026 45.082 C 138.690 45.579,138.335 46.276,138.237 46.632 C 138.063 47.263,136.448 50.777,135.975 51.554 C 135.762 51.904,135.054 53.391,134.618 54.404 C 134.526 54.618,134.227 55.142,133.954 55.570 C 133.681 55.997,133.449 56.580,133.438 56.865 C 133.426 57.150,133.069 57.908,132.642 58.549 C 132.216 59.190,131.867 59.890,131.865 60.104 C 131.864 60.317,131.514 61.017,131.088 61.658 C 130.662 62.299,130.313 63.005,130.312 63.226 C 130.311 63.448,129.978 64.153,129.572 64.794 C 129.166 65.434,128.755 66.378,128.659 66.891 C 128.562 67.404,128.318 67.961,128.116 68.129 C 127.913 68.297,127.545 68.979,127.297 69.645 C 127.049 70.310,126.641 71.125,126.391 71.454 C 126.141 71.784,125.797 72.483,125.626 73.008 C 125.456 73.534,125.117 74.255,124.873 74.611 C 124.629 74.968,124.238 75.832,124.003 76.533 C 123.769 77.234,123.420 77.991,123.228 78.217 C 123.036 78.442,122.676 79.152,122.428 79.793 C 122.180 80.434,121.828 81.133,121.646 81.347 C 121.464 81.561,121.108 82.288,120.857 82.963 C 120.605 83.637,120.239 84.322,120.044 84.484 C 119.849 84.646,119.689 84.971,119.689 85.206 C 119.689 85.441,118.693 87.613,117.477 90.032 C 116.260 92.451,115.037 95.064,114.759 95.838 C 114.482 96.612,114.146 97.313,114.013 97.395 C 113.881 97.477,113.520 98.184,113.213 98.966 C 112.905 99.749,112.502 100.563,112.318 100.777 C 112.134 100.991,111.845 101.596,111.676 102.121 C 111.507 102.647,111.158 103.346,110.900 103.676 C 110.642 104.005,110.348 104.650,110.248 105.108 C 110.148 105.566,109.785 106.356,109.441 106.863 C 109.096 107.371,108.740 108.103,108.648 108.491 C 108.556 108.879,108.211 109.560,107.881 110.003 C 107.551 110.447,107.202 111.147,107.104 111.558 C 107.007 111.969,106.660 112.665,106.333 113.104 C 106.006 113.544,105.658 114.334,105.559 114.862 C 105.460 115.389,105.116 116.209,104.794 116.683 C 104.472 117.158,104.071 117.963,103.903 118.472 C 103.735 118.981,103.388 119.667,103.132 119.997 C 102.876 120.326,102.526 121.026,102.355 121.551 C 102.183 122.077,101.836 122.776,101.584 123.106 C 100.480 124.545,99.751 127.687,100.318 128.564 C 100.525 128.884,100.769 129.529,100.861 129.999 C 100.953 130.469,101.306 131.226,101.646 131.683 C 101.986 132.139,102.343 132.849,102.441 133.261 C 102.539 133.672,102.888 134.372,103.218 134.815 C 103.548 135.259,103.898 135.958,103.995 136.370 C 104.093 136.781,104.443 137.480,104.774 137.924 C 105.105 138.368,105.452 139.156,105.545 139.676 C 105.637 140.196,105.879 140.759,106.081 140.927 C 106.284 141.095,106.652 141.777,106.900 142.443 C 107.148 143.108,107.555 143.922,107.806 144.252 C 108.056 144.581,108.398 145.268,108.566 145.777 C 108.734 146.286,109.149 147.111,109.488 147.610 C 109.826 148.109,110.104 148.770,110.104 149.079 C 110.104 149.387,110.453 150.191,110.881 150.865 C 111.308 151.539,111.658 152.195,111.658 152.323 C 111.658 152.451,112.286 153.775,113.054 155.265 C 113.821 156.756,114.595 158.425,114.773 158.974 C 114.952 159.524,115.294 160.266,115.535 160.622 C 115.775 160.978,116.128 161.677,116.319 162.176 C 116.510 162.675,116.812 163.258,116.990 163.472 C 117.168 163.685,117.517 164.385,117.765 165.026 C 118.012 165.667,118.371 166.375,118.561 166.598 C 118.752 166.822,119.143 167.688,119.430 168.523 C 119.717 169.358,120.108 170.225,120.299 170.448 C 120.489 170.672,120.848 171.380,121.096 172.021 C 121.343 172.662,121.693 173.361,121.873 173.575 C 122.052 173.789,122.402 174.488,122.650 175.130 C 122.898 175.771,123.254 176.470,123.442 176.684 C 123.629 176.898,123.933 177.597,124.117 178.238 C 124.301 178.880,124.720 179.810,125.049 180.306 C 125.378 180.802,125.648 181.385,125.649 181.602 C 125.649 181.818,125.999 182.519,126.425 183.161 C 126.851 183.802,127.200 184.503,127.201 184.720 C 127.202 184.936,127.496 185.545,127.855 186.074 C 128.214 186.602,128.580 187.416,128.667 187.883 C 128.754 188.349,129.096 189.094,129.425 189.537 C 129.755 189.981,130.104 190.680,130.202 191.092 C 130.299 191.503,130.649 192.202,130.979 192.646 C 131.309 193.090,131.658 193.789,131.756 194.200 C 131.853 194.612,132.203 195.311,132.533 195.755 C 132.863 196.198,133.212 196.898,133.309 197.309 C 133.406 197.720,133.834 198.756,134.262 199.611 C 134.689 200.466,135.182 201.457,135.358 201.813 C 135.533 202.170,135.854 202.811,136.071 203.238 C 137.723 206.501,138.049 207.221,138.202 207.948 C 138.297 208.402,138.537 208.906,138.734 209.070 C 138.931 209.233,139.298 209.912,139.549 210.577 C 139.801 211.243,140.146 211.931,140.317 212.107 C 140.487 212.282,140.838 212.982,141.096 213.661 C 141.573 214.920,142.821 216.954,143.295 217.247 C 143.650 217.466,144.229 216.635,144.419 215.635 C 144.504 215.186,144.739 214.681,144.941 214.513 C 145.144 214.345,145.512 213.663,145.760 212.998 C 146.008 212.332,146.416 211.518,146.666 211.188 C 146.916 210.859,147.261 210.159,147.432 209.634 C 147.604 209.109,147.960 208.401,148.223 208.062 C 148.487 207.723,148.831 206.969,148.988 206.387 C 149.145 205.805,149.495 205.047,149.766 204.702 C 150.037 204.357,150.259 203.910,150.259 203.709 C 150.259 203.252,150.984 201.829,151.458 201.354 C 151.654 201.159,151.813 200.837,151.813 200.638 C 151.813 200.146,152.640 198.446,152.879 198.446 C 152.985 198.446,153.266 197.775,153.504 196.956 C 153.741 196.137,154.049 195.328,154.188 195.159 C 154.606 194.650,158.007 187.763,158.322 186.788 C 158.483 186.289,158.765 185.706,158.949 185.492 C 159.133 185.278,159.486 184.579,159.733 183.938 C 159.981 183.297,160.331 182.597,160.511 182.383 C 160.690 182.170,161.042 181.470,161.293 180.829 C 161.543 180.188,161.948 179.402,162.192 179.083 C 162.436 178.763,162.717 178.064,162.816 177.528 C 162.916 176.993,163.260 176.205,163.582 175.777 C 163.903 175.350,164.252 174.650,164.357 174.223 C 164.462 173.795,164.812 173.096,165.135 172.668 C 165.457 172.241,165.807 171.541,165.912 171.114 C 166.017 170.687,166.376 169.977,166.710 169.538 C 167.044 169.099,167.398 168.311,167.496 167.787 C 167.595 167.263,167.898 166.552,168.170 166.206 C 168.441 165.861,168.839 165.080,169.054 164.473 C 169.268 163.865,169.612 163.181,169.819 162.953 C 170.025 162.725,170.369 162.042,170.583 161.434 C 170.798 160.826,171.196 160.046,171.468 159.700 C 171.740 159.355,172.043 158.634,172.143 158.098 C 172.242 157.563,172.587 156.775,172.908 156.347 C 173.230 155.920,173.578 155.227,173.681 154.809 C 173.784 154.390,174.097 153.727,174.375 153.336 C 174.654 152.945,175.051 152.143,175.259 151.555 C 175.467 150.966,175.864 150.195,176.142 149.841 C 176.421 149.488,176.719 148.876,176.805 148.482 C 176.892 148.089,178.007 145.686,179.284 143.144 C 180.561 140.601,181.606 138.353,181.606 138.148 C 181.606 137.942,181.844 137.441,182.134 137.033 C 182.424 136.626,182.794 135.908,182.955 135.439 C 183.117 134.970,183.508 134.177,183.825 133.679 C 184.142 133.180,184.539 132.336,184.707 131.804 C 184.875 131.272,185.122 130.768,185.256 130.685 C 186.519 129.905,186.571 125.262,185.333 123.821 C 185.143 123.601,184.807 122.907,184.585 122.280 C 184.364 121.653,184.015 120.953,183.808 120.725 C 183.602 120.498,183.252 119.798,183.031 119.171 C 182.810 118.544,182.458 117.842,182.249 117.611 C 182.040 117.381,181.644 116.559,181.368 115.785 C 180.926 114.549,180.117 112.884,178.667 110.233 C 178.433 109.806,178.241 109.337,178.240 109.192 C 178.239 109.047,177.959 108.517,177.617 108.014 C 177.275 107.510,176.847 106.580,176.665 105.946 C 176.484 105.312,176.191 104.618,176.013 104.404 C 175.836 104.190,175.488 103.491,175.241 102.850 C 174.993 102.209,174.636 101.503,174.448 101.282 C 174.261 101.062,173.931 100.384,173.717 99.776 C 173.503 99.168,173.100 98.382,172.821 98.028 C 172.543 97.674,172.234 97.015,172.135 96.562 C 172.035 96.109,171.682 95.309,171.350 94.782 C 171.018 94.256,170.665 93.495,170.565 93.091 C 170.466 92.688,170.120 92.008,169.798 91.580 C 169.475 91.153,169.125 90.453,169.021 90.026 C 168.916 89.598,168.570 88.899,168.252 88.472 C 167.934 88.044,167.588 87.286,167.483 86.788 C 167.379 86.289,167.072 85.568,166.802 85.186 C 166.531 84.803,166.135 83.993,165.920 83.385 C 165.706 82.777,165.362 82.093,165.155 81.865 C 164.949 81.637,164.599 80.938,164.378 80.311 C 164.157 79.684,163.806 78.983,163.597 78.753 C 163.389 78.522,163.093 77.934,162.939 77.444 C 162.691 76.656,161.420 73.850,160.835 72.798 C 160.716 72.584,160.371 71.885,160.069 71.244 C 159.766 70.602,159.418 69.903,159.296 69.689 C 158.396 68.121,158.031 67.311,158.031 66.885 C 158.031 66.613,157.795 66.092,157.507 65.725 C 157.219 65.359,156.808 64.562,156.594 63.955 C 156.379 63.347,156.035 62.663,155.829 62.435 C 155.623 62.207,155.273 61.508,155.052 60.881 C 154.831 60.254,154.479 59.553,154.271 59.322 C 154.063 59.092,153.763 58.504,153.605 58.014 C 153.446 57.525,152.326 55.084,151.115 52.591 C 149.034 48.306,148.447 47.071,147.179 44.301 C 146.885 43.659,146.531 42.960,146.391 42.746 C 146.251 42.532,145.902 41.833,145.614 41.192 C 145.326 40.551,144.977 39.851,144.837 39.637 C 144.698 39.424,144.391 38.812,144.154 38.277 C 143.581 36.984,143.311 37.061,142.163 38.845 " stroke="none" fill="#643494" fill-rule="evenodd"></path><path id="path1" d="M0.000 129.534 L 0.000 259.067 200.000 259.067 L 400.000 259.067 400.000 129.534 L 400.000 0.000 200.000 0.000 L 0.000 0.000 0.000 129.534 M256.139 38.440 C 256.362 38.871,256.704 39.383,256.899 39.578 C 257.094 39.774,257.254 40.106,257.254 40.316 C 257.254 40.734,257.990 42.278,258.289 42.487 C 258.391 42.558,258.625 43.080,258.810 43.646 C 258.995 44.213,260.107 46.575,261.282 48.896 C 262.456 51.217,263.495 53.435,263.590 53.825 C 263.684 54.215,264.027 54.942,264.350 55.440 C 264.673 55.939,265.070 56.731,265.231 57.201 C 265.393 57.670,265.745 58.369,266.013 58.755 C 266.281 59.141,266.631 59.840,266.790 60.309 C 266.949 60.779,267.302 61.478,267.575 61.864 C 267.847 62.249,268.156 62.973,268.260 63.472 C 268.365 63.970,268.711 64.728,269.029 65.155 C 269.347 65.583,269.693 66.282,269.798 66.710 C 269.903 67.137,270.252 67.837,270.575 68.264 C 270.897 68.692,271.247 69.391,271.352 69.819 C 271.457 70.246,271.810 70.947,272.136 71.376 C 272.462 71.805,272.818 72.562,272.925 73.060 C 273.033 73.557,273.343 74.277,273.613 74.659 C 273.883 75.041,274.280 75.852,274.494 76.460 C 274.709 77.068,275.038 77.746,275.226 77.966 C 275.414 78.187,275.770 78.892,276.018 79.534 C 276.266 80.175,276.621 80.874,276.808 81.088 C 276.995 81.302,277.344 82.060,277.583 82.772 C 277.822 83.484,278.228 84.417,278.485 84.845 C 278.742 85.272,279.089 86.050,279.256 86.573 C 279.424 87.095,279.723 87.658,279.921 87.823 C 280.120 87.988,280.470 88.688,280.699 89.378 C 280.929 90.069,281.285 90.773,281.490 90.944 C 281.696 91.114,282.038 91.842,282.252 92.561 C 282.465 93.280,282.800 94.053,282.994 94.279 C 283.189 94.504,283.555 95.241,283.807 95.916 C 284.058 96.591,284.418 97.270,284.605 97.426 C 284.792 97.581,285.133 98.273,285.363 98.964 C 285.592 99.654,285.949 100.360,286.157 100.532 C 286.364 100.704,286.708 101.442,286.921 102.171 C 287.134 102.901,287.540 103.847,287.824 104.275 C 288.107 104.702,288.340 105.227,288.341 105.440 C 288.343 105.654,288.693 106.354,289.119 106.995 C 289.545 107.636,289.895 108.325,289.895 108.527 C 289.896 108.728,290.232 109.427,290.642 110.081 C 291.052 110.735,291.468 111.612,291.566 112.031 C 291.664 112.450,291.954 113.091,292.209 113.456 C 292.465 113.821,292.814 114.549,292.984 115.074 C 293.154 115.600,293.503 116.299,293.759 116.629 C 294.016 116.958,294.365 117.658,294.537 118.183 C 294.708 118.709,295.058 119.408,295.314 119.738 C 295.570 120.067,295.928 120.803,296.109 121.373 C 296.290 121.943,296.734 122.992,297.096 123.705 C 297.458 124.417,297.910 125.309,298.100 125.688 C 298.678 126.837,298.498 127.882,297.280 130.454 C 296.639 131.808,296.113 133.059,296.113 133.233 C 296.112 133.407,295.763 134.074,295.337 134.715 C 294.911 135.356,294.561 136.056,294.560 136.269 C 294.558 136.483,294.209 137.183,293.782 137.824 C 293.356 138.465,293.007 139.137,293.006 139.317 C 293.006 139.498,292.667 140.255,292.253 141.001 C 291.839 141.747,291.423 142.728,291.329 143.182 C 291.235 143.635,290.997 144.139,290.800 144.303 C 290.603 144.467,290.236 145.145,289.985 145.811 C 289.733 146.476,289.388 147.164,289.217 147.340 C 289.046 147.515,288.701 148.215,288.451 148.894 C 288.200 149.574,287.855 150.304,287.684 150.518 C 287.512 150.732,287.176 151.510,286.936 152.247 C 286.696 152.984,286.338 153.722,286.140 153.886 C 285.942 154.050,285.592 154.750,285.363 155.440 C 285.133 156.131,284.784 156.830,284.585 156.995 C 284.387 157.159,284.038 157.859,283.808 158.549 C 283.579 159.240,283.230 159.938,283.034 160.102 C 282.837 160.265,282.597 160.757,282.501 161.195 C 282.405 161.633,281.343 163.928,280.141 166.294 C 278.940 168.660,277.775 171.120,277.552 171.762 C 277.330 172.403,276.995 173.102,276.808 173.316 C 276.621 173.530,276.266 174.229,276.018 174.870 C 275.770 175.512,275.414 176.217,275.226 176.438 C 275.038 176.659,274.702 177.356,274.479 177.987 C 274.257 178.618,273.864 179.490,273.608 179.925 C 273.352 180.359,273.057 181.054,272.953 181.469 C 272.849 181.883,272.534 182.545,272.253 182.939 C 271.972 183.333,271.613 184.040,271.453 184.509 C 271.294 184.979,270.946 185.676,270.680 186.058 C 270.414 186.440,270.034 187.214,269.835 187.778 C 269.636 188.341,269.172 189.368,268.804 190.060 C 268.436 190.751,268.135 191.437,268.135 191.583 C 268.135 191.729,267.861 192.255,267.526 192.751 C 267.191 193.247,266.777 194.081,266.606 194.604 C 266.435 195.127,266.126 195.694,265.921 195.865 C 265.715 196.036,265.407 196.657,265.236 197.246 C 265.065 197.834,264.661 198.744,264.338 199.266 C 264.015 199.789,263.673 200.546,263.577 200.950 C 263.481 201.354,263.260 201.859,263.086 202.073 C 262.643 202.617,261.917 204.159,261.917 204.555 C 261.917 204.737,261.760 205.042,261.568 205.234 C 261.377 205.426,261.017 206.046,260.769 206.613 C 260.522 207.179,259.979 208.361,259.564 209.239 C 259.148 210.118,258.808 210.947,258.808 211.083 C 258.808 211.218,258.595 211.607,258.335 211.947 C 258.075 212.287,257.674 213.044,257.445 213.630 C 257.050 214.638,256.076 216.277,255.399 217.071 C 255.066 217.462,254.145 216.630,254.145 215.939 C 254.145 215.760,253.930 215.336,253.668 214.996 C 253.405 214.656,252.997 213.805,252.762 213.104 C 252.526 212.404,252.176 211.646,251.984 211.420 C 251.792 211.195,251.435 210.495,251.191 209.866 C 250.947 209.237,250.520 208.434,250.244 208.082 C 249.967 207.731,249.741 207.269,249.741 207.056 C 249.741 206.843,249.406 206.072,248.996 205.342 C 248.587 204.613,248.173 203.680,248.076 203.270 C 247.980 202.860,247.615 202.104,247.266 201.590 C 246.918 201.077,246.632 200.480,246.631 200.264 C 246.630 200.047,246.281 199.346,245.855 198.705 C 245.429 198.063,245.079 197.351,245.079 197.122 C 245.078 196.892,244.791 196.283,244.441 195.767 C 244.092 195.251,243.683 194.376,243.534 193.822 C 243.385 193.267,243.047 192.536,242.783 192.197 C 242.519 191.858,242.163 191.150,241.992 190.625 C 241.821 190.100,241.476 189.400,241.225 189.071 C 240.975 188.741,240.568 187.927,240.320 187.261 C 240.072 186.596,239.703 185.914,239.501 185.746 C 239.299 185.578,239.053 185.016,238.956 184.498 C 238.859 183.979,238.448 183.016,238.042 182.358 C 237.637 181.699,237.305 180.998,237.305 180.800 C 237.304 180.602,236.955 179.916,236.528 179.275 C 236.102 178.633,235.753 177.992,235.752 177.850 C 235.751 177.707,235.417 176.949,235.009 176.166 C 234.602 175.382,234.188 174.404,234.089 173.993 C 233.991 173.582,233.640 172.882,233.310 172.439 C 232.980 171.995,232.631 171.296,232.533 170.884 C 232.436 170.473,232.071 169.762,231.722 169.305 C 231.373 168.848,231.088 168.332,231.088 168.159 C 231.088 167.831,229.507 164.340,228.848 163.212 C 228.640 162.856,228.298 162.157,228.088 161.658 C 227.879 161.159,227.573 160.518,227.409 160.233 C 226.954 159.445,226.541 158.594,225.649 156.606 C 225.201 155.609,224.085 153.267,223.169 151.403 C 222.252 149.539,221.503 147.886,221.503 147.730 C 221.503 147.574,221.352 147.292,221.169 147.104 C 220.985 146.916,220.620 146.179,220.356 145.466 C 220.093 144.754,219.728 143.996,219.546 143.782 C 219.364 143.569,219.012 142.869,218.764 142.228 C 218.516 141.587,218.166 140.887,217.985 140.674 C 217.805 140.460,217.423 139.702,217.137 138.990 C 216.850 138.277,216.375 137.232,216.080 136.668 C 215.785 136.104,215.544 135.508,215.544 135.344 C 215.544 135.180,215.267 134.638,214.928 134.139 C 214.589 133.640,214.175 132.814,214.007 132.305 C 213.839 131.796,213.496 131.110,213.246 130.780 C 211.757 128.820,211.723 124.755,213.188 123.850 C 213.322 123.766,213.683 123.029,213.989 122.212 C 214.295 121.394,214.644 120.725,214.765 120.725 C 214.885 120.725,215.183 120.113,215.427 119.365 C 215.670 118.617,216.030 117.821,216.226 117.595 C 216.422 117.370,216.775 116.612,217.010 115.911 C 217.246 115.211,217.647 114.368,217.901 114.038 C 218.156 113.709,218.502 113.023,218.670 112.513 C 218.838 112.004,219.253 111.179,219.591 110.680 C 219.930 110.181,220.207 109.631,220.207 109.458 C 220.207 109.286,220.479 108.632,220.811 108.005 C 221.143 107.378,221.625 106.312,221.882 105.635 C 222.140 104.958,222.437 104.404,222.542 104.404 C 222.648 104.404,222.996 103.705,223.316 102.850 C 223.636 101.995,223.991 101.295,224.105 101.295 C 224.219 101.295,224.453 100.858,224.625 100.324 C 224.798 99.790,225.273 98.711,225.681 97.927 C 226.090 97.144,226.424 96.361,226.424 96.188 C 226.425 96.015,226.775 95.321,227.202 94.647 C 227.630 93.973,227.979 93.274,227.979 93.093 C 227.979 92.912,228.329 92.213,228.756 91.539 C 229.184 90.865,229.534 90.148,229.534 89.945 C 229.534 89.743,229.819 89.038,230.168 88.377 C 230.517 87.717,230.977 86.768,231.190 86.269 C 231.403 85.771,231.756 85.071,231.974 84.715 C 232.192 84.359,232.541 83.659,232.751 83.161 C 232.961 82.662,233.303 81.962,233.511 81.606 C 234.092 80.613,235.751 77.005,235.751 76.736 C 235.751 76.605,236.028 76.089,236.367 75.590 C 236.706 75.090,237.128 74.242,237.306 73.705 C 237.483 73.167,237.905 72.319,238.244 71.820 C 238.583 71.321,238.860 70.735,238.860 70.518 C 238.860 70.301,239.139 69.647,239.479 69.064 C 239.820 68.482,240.246 67.510,240.427 66.904 C 240.608 66.299,240.827 65.803,240.915 65.803 C 241.002 65.803,241.285 65.366,241.544 64.832 C 241.994 63.902,242.410 63.066,243.123 61.658 C 243.981 59.964,245.056 57.578,245.223 56.995 C 245.325 56.639,245.619 56.078,245.876 55.748 C 246.133 55.419,246.481 54.732,246.649 54.223 C 246.817 53.714,247.232 52.889,247.571 52.390 C 247.909 51.891,248.187 51.364,248.187 51.221 C 248.187 50.997,248.754 49.722,250.115 46.891 C 250.286 46.535,250.560 46.010,250.725 45.725 C 250.889 45.440,251.195 44.799,251.404 44.301 C 251.614 43.802,251.954 43.102,252.160 42.746 C 252.878 41.505,254.145 38.851,254.145 38.588 C 254.145 37.054,255.375 36.962,256.139 38.440 M144.154 38.277 C 144.391 38.812,144.698 39.424,144.837 39.637 C 144.977 39.851,145.326 40.551,145.614 41.192 C 145.902 41.833,146.251 42.532,146.391 42.746 C 146.531 42.960,146.885 43.659,147.179 44.301 C 148.447 47.071,149.034 48.306,151.115 52.591 C 152.326 55.084,153.446 57.525,153.605 58.014 C 153.763 58.504,154.063 59.092,154.271 59.322 C 154.479 59.553,154.831 60.254,155.052 60.881 C 155.273 61.508,155.623 62.207,155.829 62.435 C 156.035 62.663,156.379 63.347,156.594 63.955 C 156.808 64.562,157.219 65.359,157.507 65.725 C 157.795 66.092,158.031 66.613,158.031 66.885 C 158.031 67.311,158.396 68.121,159.296 69.689 C 159.418 69.903,159.766 70.602,160.069 71.244 C 160.371 71.885,160.716 72.584,160.835 72.798 C 161.420 73.850,162.691 76.656,162.939 77.444 C 163.093 77.934,163.389 78.522,163.597 78.753 C 163.806 78.983,164.157 79.684,164.378 80.311 C 164.599 80.938,164.949 81.637,165.155 81.865 C 165.362 82.093,165.706 82.777,165.920 83.385 C 166.135 83.993,166.531 84.803,166.802 85.186 C 167.072 85.568,167.379 86.289,167.483 86.788 C 167.588 87.286,167.934 88.044,168.252 88.472 C 168.570 88.899,168.916 89.598,169.021 90.026 C 169.125 90.453,169.475 91.153,169.798 91.580 C 170.120 92.008,170.466 92.688,170.565 93.091 C 170.665 93.495,171.018 94.256,171.350 94.782 C 171.682 95.309,172.035 96.109,172.135 96.562 C 172.234 97.015,172.543 97.674,172.821 98.028 C 173.100 98.382,173.503 99.168,173.717 99.776 C 173.931 100.384,174.261 101.062,174.448 101.282 C 174.636 101.503,174.993 102.209,175.241 102.850 C 175.488 103.491,175.836 104.190,176.013 104.404 C 176.191 104.618,176.484 105.312,176.665 105.946 C 176.847 106.580,177.275 107.510,177.617 108.014 C 177.959 108.517,178.239 109.047,178.240 109.192 C 178.241 109.337,178.433 109.806,178.667 110.233 C 180.117 112.884,180.926 114.549,181.368 115.785 C 181.644 116.559,182.040 117.381,182.249 117.611 C 182.458 117.842,182.810 118.544,183.031 119.171 C 183.252 119.798,183.602 120.498,183.808 120.725 C 184.015 120.953,184.364 121.653,184.585 122.280 C 184.807 122.907,185.143 123.601,185.333 123.821 C 186.571 125.262,186.519 129.905,185.256 130.685 C 185.122 130.768,184.875 131.272,184.707 131.804 C 184.539 132.336,184.142 133.180,183.825 133.679 C 183.508 134.177,183.117 134.970,182.955 135.439 C 182.794 135.908,182.424 136.626,182.134 137.033 C 181.844 137.441,181.606 137.942,181.606 138.148 C 181.606 138.353,180.561 140.601,179.284 143.144 C 178.007 145.686,176.892 148.089,176.805 148.482 C 176.719 148.876,176.421 149.488,176.142 149.841 C 175.864 150.195,175.467 150.966,175.259 151.555 C 175.051 152.143,174.654 152.945,174.375 153.336 C 174.097 153.727,173.784 154.390,173.681 154.809 C 173.578 155.227,173.230 155.920,172.908 156.347 C 172.587 156.775,172.242 157.563,172.143 158.098 C 172.043 158.634,171.740 159.355,171.468 159.700 C 171.196 160.046,170.798 160.826,170.583 161.434 C 170.369 162.042,170.025 162.725,169.819 162.953 C 169.612 163.181,169.268 163.865,169.054 164.473 C 168.839 165.080,168.441 165.861,168.170 166.206 C 167.898 166.552,167.595 167.263,167.496 167.787 C 167.398 168.311,167.044 169.099,166.710 169.538 C 166.376 169.977,166.017 170.687,165.912 171.114 C 165.807 171.541,165.457 172.241,165.135 172.668 C 164.812 173.096,164.462 173.795,164.357 174.223 C 164.252 174.650,163.903 175.350,163.582 175.777 C 163.260 176.205,162.916 176.993,162.816 177.528 C 162.717 178.064,162.436 178.763,162.192 179.083 C 161.948 179.402,161.543 180.188,161.293 180.829 C 161.042 181.470,160.690 182.170,160.511 182.383 C 160.331 182.597,159.981 183.297,159.733 183.938 C 159.486 184.579,159.133 185.278,158.949 185.492 C 158.765 185.706,158.483 186.289,158.322 186.788 C 158.007 187.763,154.606 194.650,154.188 195.159 C 154.049 195.328,153.741 196.137,153.504 196.956 C 153.266 197.775,152.985 198.446,152.879 198.446 C 152.640 198.446,151.813 200.146,151.813 200.638 C 151.813 200.837,151.654 201.159,151.458 201.354 C 150.984 201.829,150.259 203.252,150.259 203.709 C 150.259 203.910,150.037 204.357,149.766 204.702 C 149.495 205.047,149.145 205.805,148.988 206.387 C 148.831 206.969,148.487 207.723,148.223 208.062 C 147.960 208.401,147.604 209.109,147.432 209.634 C 147.261 210.159,146.916 210.859,146.666 211.188 C 146.416 211.518,146.008 212.332,145.760 212.998 C 145.512 213.663,145.144 214.345,144.941 214.513 C 144.739 214.681,144.504 215.186,144.419 215.635 C 144.229 216.635,143.650 217.466,143.295 217.247 C 142.821 216.954,141.573 214.920,141.096 213.661 C 140.838 212.982,140.487 212.282,140.317 212.107 C 140.146 211.931,139.801 211.243,139.549 210.577 C 139.298 209.912,138.931 209.233,138.734 209.070 C 138.537 208.906,138.297 208.402,138.202 207.948 C 138.049 207.221,137.723 206.501,136.071 203.238 C 135.854 202.811,135.533 202.170,135.358 201.813 C 135.182 201.457,134.689 200.466,134.262 199.611 C 133.834 198.756,133.406 197.720,133.309 197.309 C 133.212 196.898,132.863 196.198,132.533 195.755 C 132.203 195.311,131.853 194.612,131.756 194.200 C 131.658 193.789,131.309 193.090,130.979 192.646 C 130.649 192.202,130.299 191.503,130.202 191.092 C 130.104 190.680,129.755 189.981,129.425 189.537 C 129.096 189.094,128.754 188.349,128.667 187.883 C 128.580 187.416,128.214 186.602,127.855 186.074 C 127.496 185.545,127.202 184.936,127.201 184.720 C 127.200 184.503,126.851 183.802,126.425 183.161 C 125.999 182.519,125.649 181.818,125.649 181.602 C 125.648 181.385,125.378 180.802,125.049 180.306 C 124.720 179.810,124.301 178.880,124.117 178.238 C 123.933 177.597,123.629 176.898,123.442 176.684 C 123.254 176.470,122.898 175.771,122.650 175.130 C 122.402 174.488,122.052 173.789,121.873 173.575 C 121.693 173.361,121.343 172.662,121.096 172.021 C 120.848 171.380,120.489 170.672,120.299 170.448 C 120.108 170.225,119.717 169.358,119.430 168.523 C 119.143 167.688,118.752 166.822,118.561 166.598 C 118.371 166.375,118.012 165.667,117.765 165.026 C 117.517 164.385,117.168 163.685,116.990 163.472 C 116.812 163.258,116.510 162.675,116.319 162.176 C 116.128 161.677,115.775 160.978,115.535 160.622 C 115.294 160.266,114.952 159.524,114.773 158.974 C 114.595 158.425,113.821 156.756,113.054 155.265 C 112.286 153.775,111.658 152.451,111.658 152.323 C 111.658 152.195,111.308 151.539,110.881 150.865 C 110.453 150.191,110.104 149.387,110.104 149.079 C 110.104 148.770,109.826 148.109,109.488 147.610 C 109.149 147.111,108.734 146.286,108.566 145.777 C 108.398 145.268,108.056 144.581,107.806 144.252 C 107.555 143.922,107.148 143.108,106.900 142.443 C 106.652 141.777,106.284 141.095,106.081 140.927 C 105.879 140.759,105.637 140.196,105.545 139.676 C 105.452 139.156,105.105 138.368,104.774 137.924 C 104.443 137.480,104.093 136.781,103.995 136.370 C 103.898 135.958,103.548 135.259,103.218 134.815 C 102.888 134.372,102.539 133.672,102.441 133.261 C 102.343 132.849,101.986 132.139,101.646 131.683 C 101.306 131.226,100.953 130.469,100.861 129.999 C 100.769 129.529,100.525 128.884,100.318 128.564 C 99.751 127.687,100.480 124.545,101.584 123.106 C 101.836 122.776,102.183 122.077,102.355 121.551 C 102.526 121.026,102.876 120.326,103.132 119.997 C 103.388 119.667,103.735 118.981,103.903 118.472 C 104.071 117.963,104.472 117.158,104.794 116.683 C 105.116 116.209,105.460 115.389,105.559 114.862 C 105.658 114.334,106.006 113.544,106.333 113.104 C 106.660 112.665,107.007 111.969,107.104 111.558 C 107.202 111.147,107.551 110.447,107.881 110.003 C 108.211 109.560,108.556 108.879,108.648 108.491 C 108.740 108.103,109.096 107.371,109.441 106.863 C 109.785 106.356,110.148 105.566,110.248 105.108 C 110.348 104.650,110.642 104.005,110.900 103.676 C 111.158 103.346,111.507 102.647,111.676 102.121 C 111.845 101.596,112.134 100.991,112.318 100.777 C 112.502 100.563,112.905 99.749,113.213 98.966 C 113.520 98.184,113.881 97.477,114.013 97.395 C 114.146 97.313,114.482 96.612,114.759 95.838 C 115.037 95.064,116.260 92.451,117.477 90.032 C 118.693 87.613,119.689 85.441,119.689 85.206 C 119.689 84.971,119.849 84.646,120.044 84.484 C 120.239 84.322,120.605 83.637,120.857 82.963 C 121.108 82.288,121.464 81.561,121.646 81.347 C 121.828 81.133,122.180 80.434,122.428 79.793 C 122.676 79.152,123.036 78.442,123.228 78.217 C 123.420 77.991,123.769 77.234,124.003 76.533 C 124.238 75.832,124.629 74.968,124.873 74.611 C 125.117 74.255,125.456 73.534,125.626 73.008 C 125.797 72.483,126.141 71.784,126.391 71.454 C 126.641 71.125,127.049 70.310,127.297 69.645 C 127.545 68.979,127.913 68.297,128.116 68.129 C 128.318 67.961,128.562 67.404,128.659 66.891 C 128.755 66.378,129.166 65.434,129.572 64.794 C 129.978 64.153,130.311 63.448,130.312 63.226 C 130.313 63.005,130.662 62.299,131.088 61.658 C 131.514 61.017,131.864 60.317,131.865 60.104 C 131.867 59.890,132.216 59.190,132.642 58.549 C 133.069 57.908,133.426 57.150,133.438 56.865 C 133.449 56.580,133.681 55.997,133.954 55.570 C 134.227 55.142,134.526 54.618,134.618 54.404 C 135.054 53.391,135.762 51.904,135.975 51.554 C 136.448 50.777,138.063 47.263,138.237 46.632 C 138.335 46.276,138.690 45.579,139.026 45.082 C 139.362 44.586,139.638 44.003,139.638 43.787 C 139.639 43.571,139.988 42.869,140.415 42.228 C 140.841 41.587,141.190 40.903,141.191 40.709 C 141.192 40.197,143.081 37.337,143.429 37.320 C 143.591 37.312,143.917 37.743,144.154 38.277 " stroke="none" fill="#fcfcfc" fill-rule="evenodd"></path></g></svg>