<svg id="svg" version="1.1" xmlns="http://www.w3.org/2000/svg" xmlns:xlink="http://www.w3.org/1999/xlink" width="400" height="258.91472868217056" viewBox="0, 0, 400,258.91472868217056"><g id="svgg"><path id="path0" d="M85.917 38.004 C 85.826 38.095,85.751 38.432,85.751 38.754 C 85.751 39.075,85.443 39.704,85.067 40.151 C 84.691 40.599,84.284 41.497,84.162 42.147 C 84.039 42.808,83.701 43.538,83.397 43.802 C 83.097 44.062,82.742 44.766,82.607 45.368 C 82.472 45.969,82.122 46.669,81.829 46.922 C 81.537 47.176,81.189 47.869,81.055 48.462 C 80.922 49.056,80.573 49.735,80.280 49.973 C 79.968 50.225,79.650 50.922,79.514 51.650 C 79.386 52.336,79.003 53.227,78.663 53.632 C 78.322 54.036,77.969 54.767,77.877 55.257 C 77.785 55.746,77.479 56.356,77.196 56.612 C 76.913 56.868,76.555 57.554,76.401 58.137 C 76.246 58.720,75.905 59.430,75.643 59.715 C 75.381 60.000,75.025 60.816,74.853 61.528 C 74.681 62.241,74.327 63.060,74.066 63.349 C 73.806 63.638,73.411 64.396,73.188 65.033 C 72.966 65.670,72.631 66.308,72.444 66.451 C 72.257 66.593,71.898 67.330,71.647 68.088 C 71.395 68.847,71.036 69.526,70.849 69.598 C 70.662 69.670,70.368 70.332,70.196 71.069 C 70.024 71.806,69.680 72.642,69.430 72.927 C 69.180 73.212,68.830 73.912,68.653 74.482 C 68.475 75.052,68.126 75.751,67.876 76.036 C 67.626 76.321,67.276 77.021,67.098 77.591 C 66.921 78.161,66.567 78.860,66.312 79.145 C 66.058 79.430,65.712 80.188,65.544 80.829 C 65.376 81.470,65.040 82.228,64.797 82.513 C 64.554 82.798,64.200 83.497,64.012 84.067 C 63.823 84.637,63.462 85.337,63.209 85.622 C 62.957 85.907,62.669 86.522,62.571 86.988 C 62.472 87.455,62.120 88.159,61.787 88.554 C 61.455 88.949,61.101 89.733,61.000 90.297 C 60.899 90.860,60.550 91.679,60.224 92.116 C 59.898 92.554,59.504 93.380,59.350 93.953 C 59.196 94.527,58.848 95.196,58.577 95.441 C 58.306 95.686,57.960 96.383,57.807 96.989 C 57.654 97.595,57.295 98.304,57.008 98.563 C 56.721 98.823,56.411 99.456,56.318 99.971 C 56.120 101.065,55.523 102.332,55.205 102.332 C 55.084 102.332,54.851 102.858,54.689 103.502 C 54.527 104.146,54.169 104.898,53.895 105.173 C 53.620 105.447,53.266 106.151,53.109 106.736 C 52.951 107.321,52.591 108.031,52.308 108.313 C 52.026 108.596,51.692 109.373,51.568 110.041 C 51.439 110.728,51.115 111.437,50.819 111.676 C 50.532 111.909,50.216 112.533,50.116 113.063 C 50.017 113.593,49.670 114.342,49.346 114.728 C 49.021 115.113,48.628 115.902,48.472 116.481 C 48.316 117.061,47.953 117.747,47.666 118.008 C 47.378 118.268,47.069 118.939,46.980 119.498 C 46.890 120.057,46.556 120.825,46.236 121.205 C 45.916 121.585,45.530 122.349,45.377 122.902 C 45.224 123.455,44.839 124.184,44.522 124.522 C 43.483 125.628,43.685 129.793,44.778 129.793 C 44.891 129.793,45.184 130.431,45.430 131.211 C 45.676 131.991,46.030 132.720,46.217 132.830 C 46.404 132.941,46.761 133.651,47.010 134.410 C 47.259 135.168,47.618 135.848,47.808 135.921 C 47.998 135.993,48.279 136.641,48.433 137.359 C 48.587 138.078,48.988 138.993,49.324 139.392 C 49.660 139.792,50.013 140.535,50.109 141.044 C 50.204 141.552,50.552 142.238,50.880 142.567 C 51.209 142.895,51.562 143.612,51.665 144.160 C 51.767 144.707,52.086 145.345,52.373 145.578 C 52.669 145.817,52.994 146.525,53.122 147.213 C 53.247 147.880,53.580 148.658,53.863 148.940 C 54.145 149.223,54.506 149.933,54.663 150.518 C 54.821 151.103,55.174 151.807,55.449 152.081 C 55.724 152.356,56.081 153.108,56.243 153.751 C 56.406 154.395,56.638 154.922,56.760 154.922 C 57.094 154.922,57.772 156.365,57.772 157.076 C 57.772 157.420,58.122 158.141,58.549 158.679 C 58.977 159.217,59.326 159.916,59.326 160.233 C 59.326 160.550,59.663 161.233,60.075 161.751 C 60.486 162.269,60.899 163.101,60.993 163.600 C 61.087 164.099,61.250 164.508,61.355 164.508 C 61.703 164.508,62.374 165.915,62.558 167.034 C 62.658 167.639,62.904 168.227,63.106 168.339 C 63.307 168.452,63.690 169.165,63.958 169.923 C 64.225 170.682,64.575 171.384,64.737 171.484 C 64.899 171.584,65.238 172.253,65.491 172.972 C 65.744 173.690,66.138 174.465,66.367 174.694 C 66.596 174.923,66.930 175.727,67.110 176.480 C 67.290 177.233,67.636 177.990,67.879 178.163 C 68.121 178.335,68.475 179.034,68.663 179.717 C 68.852 180.400,69.202 181.099,69.441 181.271 C 69.679 181.443,70.029 182.143,70.218 182.826 C 70.407 183.509,70.761 184.211,71.005 184.387 C 71.249 184.563,71.595 185.321,71.775 186.071 C 71.954 186.821,72.299 187.576,72.542 187.748 C 72.785 187.920,73.138 188.620,73.327 189.302 C 73.515 189.985,73.865 190.685,74.104 190.857 C 74.343 191.029,74.692 191.728,74.881 192.411 C 75.070 193.094,75.429 193.800,75.680 193.981 C 75.936 194.165,76.213 194.825,76.312 195.489 C 76.410 196.138,76.755 196.984,77.079 197.370 C 77.404 197.756,77.797 198.545,77.953 199.124 C 78.109 199.703,78.458 200.377,78.729 200.622 C 79.000 200.868,79.346 201.564,79.499 202.170 C 79.651 202.777,80.011 203.485,80.298 203.744 C 80.584 204.004,80.895 204.637,80.987 205.152 C 81.161 206.120,81.847 207.513,82.149 207.513 C 82.244 207.513,82.449 208.016,82.603 208.631 C 82.758 209.246,83.115 209.958,83.397 210.212 C 83.678 210.467,83.984 211.042,84.077 211.491 C 84.170 211.939,84.520 212.714,84.856 213.212 C 85.191 213.711,85.578 214.624,85.715 215.240 C 85.973 216.400,86.269 216.956,86.269 216.280 C 86.269 216.068,86.667 215.335,87.153 214.651 C 87.639 213.967,88.109 213.026,88.196 212.559 C 88.284 212.092,88.529 211.567,88.740 211.391 C 88.951 211.216,89.302 210.461,89.519 209.713 C 89.737 208.966,90.141 208.149,90.419 207.898 C 90.696 207.647,90.998 207.041,91.089 206.552 C 91.181 206.063,91.522 205.347,91.846 204.961 C 92.171 204.576,92.574 203.739,92.744 203.102 C 92.913 202.464,93.254 201.710,93.502 201.425 C 93.750 201.140,94.100 200.392,94.279 199.764 C 94.459 199.135,94.811 198.436,95.062 198.209 C 95.314 197.983,95.666 197.275,95.845 196.637 C 96.024 195.998,96.387 195.324,96.650 195.139 C 96.914 194.955,97.205 194.370,97.298 193.840 C 97.390 193.309,97.735 192.468,98.065 191.969 C 98.395 191.470,98.791 190.580,98.946 189.991 C 99.100 189.402,99.394 188.781,99.599 188.611 C 99.804 188.441,100.159 187.737,100.389 187.047 C 100.618 186.356,100.968 185.657,101.166 185.492 C 101.364 185.328,101.722 184.590,101.961 183.853 C 102.201 183.116,102.602 182.280,102.854 181.995 C 103.106 181.710,103.391 181.102,103.488 180.643 C 103.585 180.185,103.933 179.414,104.262 178.930 C 104.590 178.446,104.996 177.633,105.164 177.124 C 105.332 176.615,105.685 175.924,105.948 175.590 C 106.211 175.255,106.558 174.496,106.718 173.902 C 106.878 173.307,107.186 172.644,107.402 172.427 C 107.619 172.211,107.964 171.467,108.170 170.774 C 108.376 170.082,108.767 169.313,109.039 169.067 C 109.311 168.821,109.609 168.222,109.700 167.737 C 109.791 167.252,110.135 166.531,110.465 166.135 C 110.795 165.739,111.145 164.981,111.242 164.451 C 111.340 163.920,111.690 163.163,112.020 162.767 C 112.350 162.371,112.696 161.628,112.790 161.117 C 112.884 160.605,113.237 159.927,113.575 159.610 C 113.912 159.294,114.258 158.598,114.343 158.064 C 114.428 157.531,114.778 156.831,115.120 156.510 C 115.486 156.166,115.813 155.482,115.914 154.850 C 116.009 154.258,116.357 153.419,116.688 152.985 C 117.018 152.552,117.375 151.790,117.480 151.293 C 117.585 150.795,117.941 150.097,118.271 149.741 C 118.601 149.385,118.950 148.666,119.046 148.144 C 119.142 147.621,119.496 146.935,119.833 146.619 C 120.206 146.269,120.511 145.604,120.614 144.920 C 120.711 144.268,121.033 143.546,121.379 143.200 C 121.707 142.871,122.056 142.172,122.155 141.646 C 122.254 141.120,122.603 140.421,122.932 140.092 C 123.261 139.763,123.608 139.079,123.703 138.571 C 123.798 138.063,124.160 137.317,124.507 136.913 C 124.854 136.509,125.212 135.715,125.303 135.149 C 125.393 134.582,125.691 133.895,125.964 133.622 C 126.237 133.349,126.620 132.595,126.815 131.946 C 127.010 131.298,127.399 130.519,127.678 130.215 C 128.961 128.822,128.920 125.635,127.596 123.842 C 127.237 123.355,126.943 122.751,126.943 122.501 C 126.943 121.916,126.442 120.741,125.910 120.078 C 125.682 119.793,125.340 119.093,125.152 118.523 C 124.963 117.953,124.602 117.254,124.349 116.969 C 124.097 116.684,123.813 116.086,123.719 115.641 C 123.625 115.195,123.271 114.455,122.932 113.996 C 122.594 113.537,122.235 112.678,122.136 112.086 C 122.033 111.477,121.695 110.770,121.357 110.456 C 121.028 110.150,120.676 109.451,120.575 108.901 C 120.473 108.351,120.123 107.652,119.798 107.347 C 119.472 107.042,119.125 106.342,119.027 105.792 C 118.929 105.243,118.581 104.501,118.253 104.145 C 117.925 103.789,117.573 103.031,117.470 102.461 C 117.368 101.891,117.011 101.149,116.679 100.813 C 116.347 100.476,115.997 99.777,115.902 99.259 C 115.807 98.740,115.457 98.041,115.125 97.704 C 114.792 97.368,114.445 96.668,114.353 96.150 C 114.260 95.631,113.956 94.956,113.677 94.649 C 113.397 94.342,113.055 93.584,112.916 92.965 C 112.776 92.346,112.451 91.606,112.192 91.321 C 111.934 91.036,111.577 90.337,111.399 89.767 C 111.221 89.197,110.872 88.497,110.622 88.212 C 110.372 87.927,110.022 87.228,109.845 86.658 C 109.667 86.088,109.313 85.389,109.059 85.104 C 108.804 84.819,108.461 84.061,108.297 83.420 C 108.134 82.778,107.767 81.929,107.482 81.532 C 107.198 81.135,106.794 80.324,106.584 79.731 C 106.375 79.138,106.035 78.466,105.829 78.238 C 105.623 78.010,105.273 77.311,105.052 76.684 C 104.831 76.057,104.482 75.358,104.276 75.131 C 104.071 74.904,103.753 74.140,103.571 73.433 C 103.388 72.726,102.983 71.892,102.670 71.580 C 102.357 71.268,102.020 70.570,101.919 70.027 C 101.819 69.485,101.471 68.792,101.145 68.487 C 100.819 68.182,100.469 67.482,100.368 66.932 C 100.267 66.382,99.926 65.623,99.611 65.244 C 99.296 64.866,98.962 64.082,98.869 63.504 C 98.767 62.862,98.510 62.349,98.212 62.190 C 97.919 62.033,97.597 61.403,97.409 60.622 C 97.230 59.876,96.897 59.209,96.632 59.067 C 96.370 58.927,96.035 58.264,95.861 57.540 C 95.693 56.836,95.329 56.056,95.053 55.807 C 94.777 55.557,94.480 54.903,94.392 54.353 C 94.304 53.803,93.898 52.932,93.489 52.418 C 93.080 51.904,92.746 51.224,92.746 50.907 C 92.746 50.590,92.396 49.890,91.969 49.352 C 91.541 48.814,91.192 48.108,91.192 47.782 C 91.192 47.456,90.916 46.860,90.579 46.458 C 90.242 46.055,89.774 45.060,89.539 44.246 C 89.303 43.433,88.955 42.675,88.764 42.562 C 88.573 42.450,88.220 41.759,87.980 41.028 C 87.740 40.297,87.315 39.492,87.036 39.239 C 86.757 38.986,86.528 38.630,86.528 38.447 C 86.528 38.047,86.149 37.772,85.917 38.004 M198.246 38.920 C 197.922 39.076,197.601 39.476,197.533 39.809 C 197.465 40.142,197.354 40.677,197.286 40.997 C 197.219 41.318,196.869 41.919,196.509 42.333 C 196.149 42.747,195.855 43.333,195.855 43.636 C 195.855 44.165,195.334 45.093,194.635 45.809 C 194.451 45.997,194.301 46.418,194.301 46.745 C 194.301 47.071,193.951 47.778,193.523 48.316 C 193.091 48.860,192.746 49.606,192.746 49.997 C 192.746 50.383,192.398 51.212,191.974 51.839 C 191.549 52.466,191.199 53.166,191.196 53.394 C 191.194 53.622,190.844 54.321,190.419 54.948 C 189.994 55.575,189.645 56.275,189.642 56.502 C 189.639 56.730,189.290 57.430,188.865 58.057 C 188.440 58.684,188.090 59.467,188.088 59.797 C 188.082 60.481,187.706 61.293,187.046 62.047 C 186.797 62.332,186.515 62.999,186.421 63.529 C 186.326 64.059,186.019 64.654,185.738 64.850 C 185.458 65.047,185.051 65.804,184.835 66.533 C 184.618 67.262,184.258 67.961,184.034 68.086 C 183.810 68.211,183.521 68.880,183.392 69.572 C 183.261 70.272,182.885 71.124,182.545 71.491 C 182.209 71.853,181.858 72.554,181.765 73.048 C 181.673 73.541,181.323 74.241,180.988 74.602 C 180.653 74.963,180.303 75.663,180.211 76.156 C 180.118 76.650,179.768 77.349,179.433 77.711 C 179.098 78.072,178.757 78.810,178.675 79.349 C 178.594 79.889,178.243 80.668,177.897 81.079 C 177.550 81.491,177.192 82.229,177.100 82.718 C 177.008 83.207,176.701 83.817,176.419 84.073 C 176.136 84.329,175.778 85.015,175.623 85.598 C 175.469 86.181,175.136 86.891,174.883 87.176 C 174.630 87.461,174.283 88.277,174.111 88.990 C 173.938 89.702,173.587 90.518,173.330 90.803 C 173.072 91.088,172.716 91.788,172.539 92.358 C 172.361 92.927,172.012 93.627,171.762 93.912 C 171.512 94.197,171.162 94.896,170.984 95.466 C 170.807 96.036,170.456 96.736,170.205 97.021 C 169.953 97.306,169.560 98.197,169.331 99.000 C 169.101 99.804,168.757 100.522,168.565 100.596 C 168.372 100.670,168.062 101.278,167.874 101.948 C 167.687 102.618,167.334 103.357,167.092 103.591 C 166.849 103.824,166.454 104.617,166.213 105.353 C 165.973 106.089,165.618 106.751,165.424 106.826 C 165.229 106.900,164.924 107.618,164.744 108.420 C 164.565 109.222,164.226 110.016,163.992 110.185 C 163.758 110.354,163.412 111.051,163.223 111.734 C 163.034 112.417,162.673 113.120,162.421 113.297 C 162.168 113.474,161.876 114.074,161.772 114.631 C 161.667 115.188,161.308 115.918,160.974 116.252 C 160.633 116.593,160.290 117.335,160.193 117.939 C 160.098 118.534,159.754 119.286,159.426 119.613 C 159.099 119.940,158.751 120.638,158.652 121.164 C 158.554 121.690,158.204 122.390,157.875 122.718 C 157.546 123.047,157.197 123.747,157.098 124.273 C 156.999 124.799,156.644 125.504,156.309 125.839 C 155.567 126.580,155.567 126.466,156.316 127.570 C 156.656 128.070,157.010 128.994,157.105 129.624 C 157.199 130.254,157.506 130.977,157.786 131.230 C 158.066 131.483,158.432 132.167,158.601 132.749 C 158.769 133.332,159.166 134.126,159.483 134.515 C 159.800 134.903,160.143 135.602,160.245 136.069 C 160.347 136.535,160.690 137.227,161.007 137.605 C 161.324 137.984,161.664 138.793,161.761 139.402 C 161.860 140.018,162.148 140.657,162.409 140.840 C 162.668 141.021,163.034 141.728,163.223 142.411 C 163.412 143.094,163.762 143.794,164.000 143.966 C 164.239 144.138,164.589 144.837,164.777 145.520 C 164.966 146.203,165.320 146.906,165.565 147.081 C 165.809 147.257,166.152 148.001,166.328 148.735 C 166.504 149.468,166.860 150.280,167.119 150.538 C 167.378 150.797,167.718 151.488,167.876 152.073 C 168.033 152.658,168.383 153.357,168.653 153.627 C 168.923 153.897,169.273 154.596,169.430 155.181 C 169.588 155.766,169.942 156.470,170.217 156.746 C 170.493 157.021,170.795 157.725,170.888 158.311 C 170.982 158.896,171.316 159.684,171.632 160.063 C 171.947 160.442,172.353 161.218,172.533 161.788 C 172.714 162.358,173.066 163.057,173.316 163.342 C 173.566 163.627,173.916 164.326,174.093 164.896 C 174.271 165.466,174.628 166.166,174.887 166.451 C 175.146 166.736,175.488 167.552,175.648 168.264 C 175.807 168.977,176.150 169.793,176.409 170.078 C 176.667 170.363,177.024 171.062,177.202 171.632 C 177.380 172.202,177.729 172.902,177.979 173.187 C 178.229 173.472,178.579 174.171,178.756 174.741 C 178.934 175.311,179.291 176.010,179.550 176.295 C 179.809 176.580,180.150 177.389,180.307 178.093 C 180.465 178.797,180.807 179.521,181.067 179.704 C 181.328 179.886,181.679 180.587,181.849 181.261 C 182.019 181.936,182.369 182.635,182.627 182.816 C 182.884 182.996,183.232 183.687,183.399 184.351 C 183.566 185.015,183.931 185.747,184.210 185.979 C 184.494 186.214,184.817 186.949,184.945 187.649 C 185.090 188.444,185.373 189.039,185.721 189.282 C 186.052 189.514,186.334 190.079,186.435 190.712 C 186.527 191.288,186.803 191.952,187.049 192.188 C 187.643 192.759,188.083 193.635,188.083 194.246 C 188.083 194.519,188.369 195.052,188.719 195.429 C 189.069 195.807,189.433 196.552,189.528 197.086 C 189.623 197.620,190.036 198.572,190.446 199.202 C 190.856 199.832,191.194 200.532,191.196 200.757 C 191.199 200.982,191.549 201.679,191.974 202.306 C 192.398 202.933,192.746 203.626,192.746 203.846 C 192.746 204.067,193.048 204.683,193.418 205.216 C 193.787 205.749,194.197 206.666,194.329 207.254 C 194.461 207.841,194.802 208.572,195.087 208.878 C 195.372 209.184,195.725 209.882,195.873 210.430 C 196.021 210.978,196.366 211.651,196.641 211.926 C 196.916 212.200,197.268 212.932,197.424 213.552 C 197.623 214.341,197.927 214.808,198.440 215.111 C 199.427 215.694,199.421 215.697,199.754 214.443 C 199.915 213.837,200.255 213.109,200.509 212.824 C 200.764 212.539,201.120 211.839,201.301 211.269 C 201.482 210.699,201.846 209.955,202.110 209.615 C 202.374 209.276,202.591 208.774,202.591 208.501 C 202.591 207.866,203.332 206.410,203.792 206.140 C 203.986 206.026,204.145 205.700,204.145 205.415 C 204.145 204.761,204.879 203.305,205.346 203.031 C 205.540 202.917,205.699 202.611,205.699 202.350 C 205.699 201.673,206.376 200.147,206.850 199.753 C 207.072 199.569,207.254 199.214,207.254 198.964 C 207.254 198.226,207.979 196.708,208.410 196.542 C 208.629 196.458,208.808 196.147,208.808 195.850 C 208.808 195.238,209.506 193.782,209.985 193.394 C 210.161 193.251,210.379 192.709,210.470 192.189 C 210.561 191.670,210.869 190.947,211.155 190.584 C 211.441 190.220,211.833 189.398,212.026 188.757 C 212.219 188.116,212.620 187.282,212.917 186.904 C 213.215 186.526,213.531 185.828,213.620 185.353 C 213.709 184.878,214.006 184.287,214.280 184.039 C 214.555 183.791,214.955 182.981,215.171 182.240 C 215.386 181.499,215.780 180.696,216.046 180.455 C 216.311 180.215,216.609 179.588,216.706 179.063 C 216.803 178.538,217.158 177.746,217.495 177.302 C 217.832 176.859,218.187 176.159,218.284 175.748 C 218.382 175.337,218.728 174.642,219.053 174.205 C 219.378 173.768,219.770 172.941,219.924 172.368 C 220.079 171.795,220.427 171.125,220.697 170.880 C 220.968 170.635,221.265 169.933,221.357 169.320 C 221.459 168.640,221.765 167.978,222.143 167.624 C 222.483 167.304,222.836 166.601,222.927 166.062 C 223.019 165.523,223.368 164.824,223.705 164.508 C 224.041 164.192,224.392 163.483,224.485 162.933 C 224.578 162.383,224.883 161.642,225.162 161.287 C 225.441 160.932,225.841 160.066,226.049 159.363 C 226.258 158.660,226.592 158.022,226.792 157.946 C 226.992 157.869,227.340 157.170,227.566 156.392 C 227.792 155.615,228.142 154.915,228.344 154.838 C 228.545 154.761,228.897 154.054,229.125 153.269 C 229.354 152.483,229.657 151.768,229.800 151.679 C 230.132 151.474,230.829 149.816,230.829 149.231 C 230.829 148.986,231.044 148.590,231.307 148.352 C 231.570 148.115,231.942 147.426,232.135 146.823 C 232.327 146.219,232.737 145.415,233.045 145.037 C 233.353 144.658,233.736 143.829,233.896 143.195 C 234.055 142.560,234.365 141.893,234.583 141.712 C 234.801 141.531,235.164 140.749,235.389 139.975 C 235.614 139.200,235.961 138.504,236.161 138.427 C 236.361 138.351,236.700 137.697,236.914 136.975 C 237.129 136.252,237.538 135.444,237.823 135.178 C 238.109 134.912,238.342 134.425,238.342 134.096 C 238.342 133.767,238.690 132.985,239.114 132.358 C 239.539 131.731,239.889 130.922,239.892 130.560 C 239.894 130.199,240.241 129.499,240.663 129.006 C 241.516 128.008,241.741 126.234,241.096 125.589 C 240.592 125.085,239.989 123.844,239.783 122.890 C 239.687 122.441,239.381 121.869,239.103 121.618 C 238.826 121.367,238.472 120.684,238.318 120.101 C 238.163 119.518,237.831 118.808,237.580 118.523 C 237.329 118.238,236.972 117.441,236.786 116.751 C 236.600 116.061,236.296 115.439,236.111 115.368 C 235.926 115.297,235.583 114.579,235.350 113.772 C 235.116 112.966,234.770 112.218,234.581 112.110 C 234.392 112.002,234.037 111.303,233.791 110.555 C 233.546 109.808,233.196 109.109,233.014 109.001 C 232.832 108.893,232.480 108.194,232.233 107.447 C 231.985 106.699,231.575 105.797,231.322 105.440 C 231.068 105.084,230.736 104.309,230.583 103.718 C 230.430 103.127,230.137 102.579,229.930 102.500 C 229.724 102.421,229.370 101.720,229.144 100.942 C 228.918 100.165,228.570 99.466,228.370 99.389 C 228.171 99.313,227.831 98.657,227.616 97.932 C 227.401 97.207,226.986 96.280,226.695 95.871 C 226.404 95.462,226.166 94.934,226.166 94.697 C 226.166 94.173,225.739 93.314,225.132 92.617 C 224.884 92.332,224.605 91.695,224.512 91.201 C 224.419 90.708,224.069 90.008,223.734 89.647 C 223.399 89.285,223.053 88.601,222.964 88.126 C 222.875 87.651,222.564 86.928,222.273 86.519 C 221.983 86.111,221.581 85.233,221.381 84.567 C 221.180 83.902,220.791 83.109,220.516 82.806 C 220.241 82.502,219.934 81.904,219.832 81.477 C 219.731 81.049,219.375 80.340,219.041 79.901 C 218.707 79.462,218.354 78.679,218.257 78.161 C 218.160 77.643,217.808 76.902,217.474 76.514 C 217.141 76.126,216.789 75.341,216.693 74.769 C 216.588 74.147,216.279 73.542,215.924 73.263 C 215.559 72.976,215.259 72.376,215.146 71.708 C 215.033 71.035,214.734 70.440,214.361 70.148 C 213.968 69.838,213.701 69.278,213.588 68.525 C 213.493 67.892,213.246 67.234,213.040 67.063 C 212.582 66.683,211.917 65.146,211.917 64.468 C 211.917 64.196,211.738 63.905,211.519 63.821 C 211.077 63.651,210.363 62.130,210.363 61.359 C 210.363 61.087,210.183 60.796,209.964 60.712 C 209.565 60.558,208.808 59.046,208.808 58.400 C 208.808 58.210,208.525 57.637,208.179 57.127 C 207.833 56.617,207.469 55.825,207.369 55.367 C 207.269 54.909,206.920 54.216,206.595 53.827 C 206.269 53.439,205.919 52.740,205.817 52.273 C 205.716 51.807,205.361 51.101,205.029 50.705 C 204.696 50.309,204.347 49.571,204.252 49.065 C 204.157 48.559,203.919 48.084,203.723 48.008 C 203.526 47.933,203.124 47.077,202.830 46.106 C 202.535 45.136,202.147 44.285,201.967 44.216 C 201.788 44.147,201.439 43.448,201.192 42.662 C 200.944 41.877,200.593 41.177,200.411 41.107 C 200.229 41.037,199.931 40.445,199.748 39.790 C 199.401 38.551,199.223 38.449,198.246 38.920 M309.871 38.929 C 309.475 39.133,309.129 39.658,308.918 40.377 C 308.736 40.998,308.358 41.756,308.078 42.061 C 307.798 42.367,307.488 42.998,307.389 43.465 C 307.291 43.931,306.945 44.631,306.622 45.019 C 306.298 45.408,305.948 46.186,305.845 46.750 C 305.741 47.314,305.384 48.098,305.052 48.493 C 304.720 48.887,304.365 49.592,304.263 50.059 C 304.161 50.525,303.812 51.225,303.486 51.613 C 303.160 52.001,302.813 52.701,302.714 53.167 C 302.615 53.634,302.307 54.263,302.030 54.566 C 301.752 54.869,301.368 55.710,301.177 56.436 C 300.985 57.161,300.584 58.065,300.285 58.446 C 299.986 58.826,299.741 59.337,299.741 59.581 C 299.741 59.826,299.393 60.539,298.968 61.166 C 298.544 61.793,298.194 62.492,298.191 62.720 C 298.189 62.948,297.839 63.647,297.414 64.274 C 296.989 64.901,296.639 65.604,296.637 65.836 C 296.630 66.464,295.884 68.135,295.611 68.135 C 295.480 68.135,295.186 68.781,294.956 69.572 C 294.726 70.362,294.373 71.072,294.172 71.150 C 293.970 71.227,293.624 71.916,293.401 72.681 C 293.179 73.446,292.824 74.169,292.612 74.288 C 292.400 74.406,292.068 75.115,291.874 75.863 C 291.680 76.611,291.272 77.488,290.968 77.812 C 290.664 78.136,290.415 78.605,290.415 78.855 C 290.415 79.439,289.956 80.316,289.343 80.904 C 289.077 81.159,288.860 81.602,288.860 81.888 C 288.860 82.532,288.195 83.857,287.807 83.987 C 287.649 84.039,287.414 84.643,287.286 85.329 C 287.158 86.014,286.775 86.906,286.435 87.310 C 286.094 87.715,285.741 88.446,285.649 88.936 C 285.557 89.425,285.251 90.035,284.968 90.291 C 284.685 90.546,284.326 91.230,284.170 91.809 C 284.014 92.388,283.621 93.177,283.297 93.563 C 282.973 93.948,282.624 94.705,282.523 95.245 C 282.422 95.784,282.105 96.554,281.820 96.955 C 281.535 97.355,281.185 98.103,281.044 98.617 C 280.902 99.130,280.560 99.792,280.285 100.088 C 280.009 100.383,279.661 101.081,279.511 101.638 C 279.361 102.195,279.012 102.894,278.736 103.190 C 278.282 103.678,277.725 105.138,277.722 105.854 C 277.721 106.010,277.487 106.349,277.201 106.607 C 276.915 106.866,276.555 107.554,276.401 108.137 C 276.246 108.720,275.897 109.437,275.625 109.731 C 275.353 110.025,274.954 110.858,274.739 111.583 C 274.524 112.307,274.193 112.959,274.003 113.032 C 273.812 113.105,273.461 113.864,273.221 114.718 C 272.981 115.572,272.639 116.327,272.460 116.396 C 272.281 116.464,271.981 117.118,271.794 117.848 C 271.607 118.579,271.253 119.321,271.007 119.497 C 270.762 119.674,270.407 120.377,270.218 121.060 C 270.029 121.743,269.685 122.443,269.452 122.615 C 269.220 122.787,268.820 123.605,268.564 124.432 C 268.308 125.260,267.932 126.001,267.728 126.079 C 267.209 126.278,267.266 127.274,267.839 128.009 C 268.103 128.349,268.479 129.093,268.674 129.663 C 268.868 130.233,269.218 130.956,269.451 131.270 C 269.683 131.584,270.029 132.400,270.218 133.084 C 270.406 133.767,270.756 134.467,270.995 134.639 C 271.234 134.811,271.583 135.511,271.772 136.194 C 271.961 136.876,272.311 137.576,272.549 137.748 C 272.788 137.920,273.134 138.620,273.318 139.302 C 273.502 139.985,273.873 140.790,274.142 141.090 C 274.412 141.390,274.703 142.089,274.790 142.644 C 274.878 143.202,275.279 144.034,275.687 144.504 C 276.135 145.020,276.425 145.652,276.425 146.110 C 276.425 146.526,276.578 146.959,276.764 147.073 C 277.360 147.436,277.979 148.539,277.979 149.235 C 277.979 149.617,278.256 150.170,278.616 150.508 C 279.011 150.879,279.317 151.529,279.420 152.217 C 279.522 152.897,279.829 153.555,280.213 153.915 C 280.557 154.239,280.909 154.940,280.994 155.474 C 281.079 156.007,281.429 156.707,281.771 157.028 C 282.113 157.349,282.463 158.051,282.549 158.587 C 282.635 159.123,282.927 159.762,283.198 160.008 C 283.469 160.253,283.876 161.104,284.103 161.898 C 284.329 162.692,284.720 163.575,284.972 163.860 C 285.223 164.145,285.574 164.845,285.751 165.415 C 285.929 165.984,286.279 166.684,286.528 166.969 C 286.778 167.254,287.131 167.953,287.311 168.523 C 287.492 169.093,287.858 169.839,288.124 170.181 C 288.390 170.523,288.681 171.263,288.771 171.825 C 288.861 172.387,289.135 173.040,289.380 173.276 C 289.975 173.847,290.415 174.723,290.415 175.334 C 290.415 175.607,290.702 176.141,291.053 176.520 C 291.404 176.899,291.821 177.688,291.978 178.272 C 292.135 178.857,292.492 179.580,292.770 179.878 C 293.048 180.177,293.348 180.873,293.437 181.427 C 293.525 181.980,293.798 182.625,294.043 182.861 C 294.647 183.441,295.078 184.311,295.078 184.947 C 295.078 185.236,295.295 185.681,295.561 185.936 C 296.190 186.539,296.632 187.404,296.632 188.031 C 296.632 188.306,296.879 188.844,297.180 189.227 C 297.481 189.610,297.876 190.418,298.058 191.022 C 298.240 191.627,298.693 192.569,299.065 193.117 C 299.437 193.665,299.741 194.308,299.741 194.545 C 299.741 194.783,300.032 195.372,300.389 195.855 C 300.745 196.338,301.036 196.926,301.036 197.162 C 301.036 197.397,301.384 198.103,301.809 198.730 C 302.234 199.357,302.583 200.069,302.586 200.312 C 302.592 200.889,303.100 202.068,303.623 202.720 C 303.852 203.005,304.193 203.705,304.382 204.275 C 304.571 204.845,304.921 205.544,305.159 205.829 C 305.398 206.114,305.748 206.813,305.937 207.383 C 306.127 207.953,306.441 208.603,306.637 208.827 C 306.832 209.051,307.159 209.791,307.364 210.471 C 307.569 211.151,307.940 211.933,308.190 212.209 C 308.440 212.485,308.827 213.254,309.050 213.919 C 309.459 215.135,310.775 216.004,310.995 215.202 C 311.492 213.389,311.821 212.625,312.188 212.429 C 312.429 212.300,312.698 211.742,312.786 211.188 C 312.875 210.634,313.223 209.901,313.561 209.559 C 313.898 209.217,314.259 208.472,314.361 207.902 C 314.464 207.332,314.817 206.574,315.144 206.218 C 315.472 205.861,315.820 205.120,315.918 204.570 C 316.016 204.020,316.363 203.321,316.689 203.016 C 317.015 202.711,317.364 202.011,317.466 201.461 C 317.568 200.912,317.919 200.212,318.248 199.907 C 318.586 199.593,318.924 198.885,319.027 198.277 C 319.126 197.685,319.485 196.825,319.824 196.366 C 320.162 195.907,320.519 195.167,320.616 194.722 C 320.713 194.276,321.059 193.594,321.385 193.206 C 321.710 192.817,322.060 192.118,322.162 191.651 C 322.264 191.185,322.619 190.479,322.951 190.083 C 323.283 189.687,323.632 188.929,323.727 188.399 C 323.821 187.869,324.164 187.080,324.487 186.645 C 324.811 186.211,325.188 185.453,325.324 184.961 C 325.461 184.470,325.881 183.614,326.258 183.060 C 326.635 182.505,326.945 181.864,326.948 181.635 C 326.950 181.405,327.300 180.705,327.725 180.078 C 328.150 179.451,328.497 178.686,328.497 178.379 C 328.497 178.072,328.777 177.443,329.118 176.980 C 329.459 176.518,329.865 175.634,330.021 175.016 C 330.176 174.398,330.475 173.827,330.685 173.746 C 330.895 173.666,331.251 172.963,331.477 172.186 C 331.704 171.408,332.048 170.711,332.242 170.636 C 332.437 170.562,332.780 169.867,333.005 169.092 C 333.230 168.318,333.585 167.543,333.794 167.370 C 334.002 167.197,334.353 166.436,334.572 165.680 C 334.792 164.924,335.145 164.239,335.355 164.158 C 335.566 164.077,335.871 163.484,336.033 162.841 C 336.195 162.197,336.589 161.389,336.909 161.044 C 337.228 160.699,337.564 159.956,337.654 159.392 C 337.744 158.829,338.035 158.088,338.301 157.746 C 338.567 157.404,338.933 156.658,339.113 156.088 C 339.294 155.518,339.646 154.819,339.896 154.534 C 340.146 154.249,340.496 153.549,340.674 152.979 C 340.851 152.409,341.202 151.710,341.453 151.425 C 341.705 151.140,342.094 150.266,342.318 149.482 C 342.542 148.698,342.963 147.854,343.254 147.606 C 343.544 147.358,343.782 146.913,343.782 146.618 C 343.782 145.956,344.213 145.100,344.854 144.485 C 345.119 144.230,345.337 143.785,345.337 143.496 C 345.337 142.860,345.768 141.991,346.371 141.410 C 346.616 141.174,346.892 140.513,346.984 139.941 C 347.075 139.368,347.441 138.554,347.798 138.130 C 348.154 137.707,348.446 137.081,348.446 136.740 C 348.446 136.399,348.791 135.717,349.212 135.223 C 349.640 134.723,349.984 134.016,349.989 133.623 C 349.995 133.233,350.329 132.540,350.739 132.069 C 351.190 131.549,351.532 130.805,351.616 130.159 C 351.702 129.494,352.005 128.847,352.431 128.422 C 353.294 127.559,353.315 126.450,352.487 125.466 C 352.144 125.060,351.737 124.253,351.581 123.674 C 351.425 123.095,351.076 122.421,350.805 122.175 C 350.534 121.930,350.186 121.229,350.032 120.616 C 349.878 120.004,349.573 119.354,349.355 119.173 C 349.137 118.992,348.772 118.189,348.543 117.388 C 348.315 116.588,347.903 115.687,347.628 115.386 C 347.354 115.086,347.007 114.400,346.859 113.863 C 346.710 113.325,346.364 112.643,346.088 112.348 C 345.812 112.052,345.464 111.354,345.314 110.797 C 345.164 110.240,344.823 109.549,344.556 109.263 C 344.289 108.976,343.949 108.175,343.800 107.483 C 343.652 106.791,343.302 105.996,343.022 105.717 C 342.743 105.437,342.385 104.730,342.228 104.145 C 342.070 103.560,341.717 102.857,341.442 102.582 C 341.167 102.307,340.810 101.556,340.648 100.912 C 340.486 100.268,340.253 99.741,340.131 99.741 C 339.792 99.741,339.119 98.293,339.119 97.562 C 339.119 97.204,338.902 96.703,338.636 96.448 C 337.999 95.837,337.565 94.977,337.565 94.328 C 337.565 94.039,337.324 93.579,337.030 93.305 C 336.737 93.031,336.336 92.277,336.141 91.628 C 335.946 90.980,335.563 90.227,335.290 89.954 C 335.017 89.680,334.718 88.982,334.625 88.401 C 334.532 87.821,334.165 86.999,333.808 86.576 C 333.452 86.152,333.160 85.590,333.160 85.325 C 333.159 85.061,332.928 84.495,332.645 84.067 C 331.697 82.632,331.638 82.515,331.486 81.794 C 331.402 81.398,331.115 80.856,330.848 80.589 C 330.581 80.322,330.179 79.472,329.955 78.700 C 329.730 77.928,329.311 77.024,329.022 76.691 C 328.733 76.359,328.497 75.924,328.497 75.725 C 328.497 75.272,327.770 73.847,327.298 73.375 C 327.103 73.180,326.943 72.848,326.943 72.637 C 326.943 72.173,326.228 70.750,325.759 70.282 C 325.572 70.095,325.337 69.393,325.236 68.722 C 325.115 67.913,324.856 67.346,324.466 67.040 C 324.124 66.771,323.809 66.159,323.709 65.571 C 323.616 65.017,323.264 64.306,322.927 63.990 C 322.591 63.674,322.241 62.974,322.150 62.435 C 322.059 61.896,321.706 61.194,321.366 60.874 C 320.981 60.513,320.681 59.856,320.574 59.141 C 320.472 58.462,320.156 57.744,319.803 57.392 C 319.474 57.063,319.125 56.363,319.026 55.837 C 318.927 55.311,318.577 54.611,318.249 54.283 C 317.920 53.954,317.570 53.254,317.471 52.728 C 317.373 52.202,317.034 51.514,316.719 51.198 C 316.400 50.880,316.065 50.120,315.964 49.490 C 315.859 48.831,315.526 48.098,315.172 47.744 C 314.837 47.409,314.482 46.704,314.383 46.178 C 314.284 45.651,313.931 44.949,313.599 44.616 C 313.266 44.283,312.916 43.552,312.821 42.990 C 312.726 42.429,312.478 41.873,312.268 41.756 C 311.872 41.534,311.171 39.839,311.151 39.054 C 311.138 38.523,310.735 38.484,309.871 38.929 " stroke="none" fill="#643494" fill-rule="evenodd"></path><path id="path1" d="M0.000 129.534 L 0.000 259.067 200.000 259.067 L 400.000 259.067 400.000 129.534 L 400.000 0.000 200.000 0.000 L 0.000 0.000 0.000 129.534 M86.528 38.447 C 86.528 38.630,86.757 38.986,87.036 39.239 C 87.315 39.492,87.740 40.297,87.980 41.028 C 88.220 41.759,88.573 42.450,88.764 42.562 C 88.955 42.675,89.303 43.433,89.539 44.246 C 89.774 45.060,90.242 46.055,90.579 46.458 C 90.916 46.860,91.192 47.456,91.192 47.782 C 91.192 48.108,91.541 48.814,91.969 49.352 C 92.396 49.890,92.746 50.590,92.746 50.907 C 92.746 51.224,93.080 51.904,93.489 52.418 C 93.898 52.932,94.304 53.803,94.392 54.353 C 94.480 54.903,94.777 55.557,95.053 55.807 C 95.329 56.056,95.693 56.836,95.861 57.540 C 96.035 58.264,96.370 58.927,96.632 59.067 C 96.897 59.209,97.230 59.876,97.409 60.622 C 97.597 61.403,97.919 62.033,98.212 62.190 C 98.510 62.349,98.767 62.862,98.869 63.504 C 98.962 64.082,99.296 64.866,99.611 65.244 C 99.926 65.623,100.267 66.382,100.368 66.932 C 100.469 67.482,100.819 68.182,101.145 68.487 C 101.471 68.792,101.819 69.485,101.919 70.027 C 102.020 70.570,102.357 71.268,102.670 71.580 C 102.983 71.892,103.388 72.726,103.571 73.433 C 103.753 74.140,104.071 74.904,104.276 75.131 C 104.482 75.358,104.831 76.057,105.052 76.684 C 105.273 77.311,105.623 78.010,105.829 78.238 C 106.035 78.466,106.375 79.138,106.584 79.731 C 106.794 80.324,107.198 81.135,107.482 81.532 C 107.767 81.929,108.134 82.778,108.297 83.420 C 108.461 84.061,108.804 84.819,109.059 85.104 C 109.313 85.389,109.667 86.088,109.845 86.658 C 110.022 87.228,110.372 87.927,110.622 88.212 C 110.872 88.497,111.221 89.197,111.399 89.767 C 111.577 90.337,111.934 91.036,112.192 91.321 C 112.451 91.606,112.776 92.346,112.916 92.965 C 113.055 93.584,113.397 94.342,113.677 94.649 C 113.956 94.956,114.260 95.631,114.353 96.150 C 114.445 96.668,114.792 97.368,115.125 97.704 C 115.457 98.041,115.807 98.740,115.902 99.259 C 115.997 99.777,116.347 100.476,116.679 100.813 C 117.011 101.149,117.368 101.891,117.470 102.461 C 117.573 103.031,117.925 103.789,118.253 104.145 C 118.581 104.501,118.929 105.243,119.027 105.792 C 119.125 106.342,119.472 107.042,119.798 107.347 C 120.123 107.652,120.473 108.351,120.575 108.901 C 120.676 109.451,121.028 110.150,121.357 110.456 C 121.695 110.770,122.033 111.477,122.136 112.086 C 122.235 112.678,122.594 113.537,122.932 113.996 C 123.271 114.455,123.625 115.195,123.719 115.641 C 123.813 116.086,124.097 116.684,124.349 116.969 C 124.602 117.254,124.963 117.953,125.152 118.523 C 125.340 119.093,125.682 119.793,125.910 120.078 C 126.442 120.741,126.943 121.916,126.943 122.501 C 126.943 122.751,127.237 123.355,127.596 123.842 C 128.920 125.635,128.961 128.822,127.678 130.215 C 127.399 130.519,127.010 131.298,126.815 131.946 C 126.620 132.595,126.237 133.349,125.964 133.622 C 125.691 133.895,125.393 134.582,125.303 135.149 C 125.212 135.715,124.854 136.509,124.507 136.913 C 124.160 137.317,123.798 138.063,123.703 138.571 C 123.608 139.079,123.261 139.763,122.932 140.092 C 122.603 140.421,122.254 141.120,122.155 141.646 C 122.056 142.172,121.707 142.871,121.379 143.200 C 121.033 143.546,120.711 144.268,120.614 144.920 C 120.511 145.604,120.206 146.269,119.833 146.619 C 119.496 146.935,119.142 147.621,119.046 148.144 C 118.950 148.666,118.601 149.385,118.271 149.741 C 117.941 150.097,117.585 150.795,117.480 151.293 C 117.375 151.790,117.018 152.552,116.688 152.985 C 116.357 153.419,116.009 154.258,115.914 154.850 C 115.813 155.482,115.486 156.166,115.120 156.510 C 114.778 156.831,114.428 157.531,114.343 158.064 C 114.258 158.598,113.912 159.294,113.575 159.610 C 113.237 159.927,112.884 160.605,112.790 161.117 C 112.696 161.628,112.350 162.371,112.020 162.767 C 111.690 163.163,111.340 163.920,111.242 164.451 C 111.145 164.981,110.795 165.739,110.465 166.135 C 110.135 166.531,109.791 167.252,109.700 167.737 C 109.609 168.222,109.311 168.821,109.039 169.067 C 108.767 169.313,108.376 170.082,108.170 170.774 C 107.964 171.467,107.619 172.211,107.402 172.427 C 107.186 172.644,106.878 173.307,106.718 173.902 C 106.558 174.496,106.211 175.255,105.948 175.590 C 105.685 175.924,105.332 176.615,105.164 177.124 C 104.996 177.633,104.590 178.446,104.262 178.930 C 103.933 179.414,103.585 180.185,103.488 180.643 C 103.391 181.102,103.106 181.710,102.854 181.995 C 102.602 182.280,102.201 183.116,101.961 183.853 C 101.722 184.590,101.364 185.328,101.166 185.492 C 100.968 185.657,100.618 186.356,100.389 187.047 C 100.159 187.737,99.804 188.441,99.599 188.611 C 99.394 188.781,99.100 189.402,98.946 189.991 C 98.791 190.580,98.395 191.470,98.065 191.969 C 97.735 192.468,97.390 193.309,97.298 193.840 C 97.205 194.370,96.914 194.955,96.650 195.139 C 96.387 195.324,96.024 195.998,95.845 196.637 C 95.666 197.275,95.314 197.983,95.062 198.209 C 94.811 198.436,94.459 199.135,94.279 199.764 C 94.100 200.392,93.750 201.140,93.502 201.425 C 93.254 201.710,92.913 202.464,92.744 203.102 C 92.574 203.739,92.171 204.576,91.846 204.961 C 91.522 205.347,91.181 206.063,91.089 206.552 C 90.998 207.041,90.696 207.647,90.419 207.898 C 90.141 208.149,89.737 208.966,89.519 209.713 C 89.302 210.461,88.951 211.216,88.740 211.391 C 88.529 211.567,88.284 212.092,88.196 212.559 C 88.109 213.026,87.639 213.967,87.153 214.651 C 86.667 215.335,86.269 216.068,86.269 216.280 C 86.269 216.956,85.973 216.400,85.715 215.240 C 85.578 214.624,85.191 213.711,84.856 213.212 C 84.520 212.714,84.170 211.939,84.077 211.491 C 83.984 211.042,83.678 210.467,83.397 210.212 C 83.115 209.958,82.758 209.246,82.603 208.631 C 82.449 208.016,82.244 207.513,82.149 207.513 C 81.847 207.513,81.161 206.120,80.987 205.152 C 80.895 204.637,80.584 204.004,80.298 203.744 C 80.011 203.485,79.651 202.777,79.499 202.170 C 79.346 201.564,79.000 200.868,78.729 200.622 C 78.458 200.377,78.109 199.703,77.953 199.124 C 77.797 198.545,77.404 197.756,77.079 197.370 C 76.755 196.984,76.410 196.138,76.312 195.489 C 76.213 194.825,75.936 194.165,75.680 193.981 C 75.429 193.800,75.070 193.094,74.881 192.411 C 74.692 191.728,74.343 191.029,74.104 190.857 C 73.865 190.685,73.515 189.985,73.327 189.302 C 73.138 188.620,72.785 187.920,72.542 187.748 C 72.299 187.576,71.954 186.821,71.775 186.071 C 71.595 185.321,71.249 184.563,71.005 184.387 C 70.761 184.211,70.407 183.509,70.218 182.826 C 70.029 182.143,69.679 181.443,69.441 181.271 C 69.202 181.099,68.852 180.400,68.663 179.717 C 68.475 179.034,68.121 178.335,67.879 178.163 C 67.636 177.990,67.290 177.233,67.110 176.480 C 66.930 175.727,66.596 174.923,66.367 174.694 C 66.138 174.465,65.744 173.690,65.491 172.972 C 65.238 172.253,64.899 171.584,64.737 171.484 C 64.575 171.384,64.225 170.682,63.958 169.923 C 63.690 169.165,63.307 168.452,63.106 168.339 C 62.904 168.227,62.658 167.639,62.558 167.034 C 62.374 165.915,61.703 164.508,61.355 164.508 C 61.250 164.508,61.087 164.099,60.993 163.600 C 60.899 163.101,60.486 162.269,60.075 161.751 C 59.663 161.233,59.326 160.550,59.326 160.233 C 59.326 159.916,58.977 159.217,58.549 158.679 C 58.122 158.141,57.772 157.420,57.772 157.076 C 57.772 156.365,57.094 154.922,56.760 154.922 C 56.638 154.922,56.406 154.395,56.243 153.751 C 56.081 153.108,55.724 152.356,55.449 152.081 C 55.174 151.807,54.821 151.103,54.663 150.518 C 54.506 149.933,54.145 149.223,53.863 148.940 C 53.580 148.658,53.247 147.880,53.122 147.213 C 52.994 146.525,52.669 145.817,52.373 145.578 C 52.086 145.345,51.767 144.707,51.665 144.160 C 51.562 143.612,51.209 142.895,50.880 142.567 C 50.552 142.238,50.204 141.552,50.109 141.044 C 50.013 140.535,49.660 139.792,49.324 139.392 C 48.988 138.993,48.587 138.078,48.433 137.359 C 48.279 136.641,47.998 135.993,47.808 135.921 C 47.618 135.848,47.259 135.168,47.010 134.410 C 46.761 133.651,46.404 132.941,46.217 132.830 C 46.030 132.720,45.676 131.991,45.430 131.211 C 45.184 130.431,44.891 129.793,44.778 129.793 C 43.685 129.793,43.483 125.628,44.522 124.522 C 44.839 124.184,45.224 123.455,45.377 122.902 C 45.530 122.349,45.916 121.585,46.236 121.205 C 46.556 120.825,46.890 120.057,46.980 119.498 C 47.069 118.939,47.378 118.268,47.666 118.008 C 47.953 117.747,48.316 117.061,48.472 116.481 C 48.628 115.902,49.021 115.113,49.346 114.728 C 49.670 114.342,50.017 113.593,50.116 113.063 C 50.216 112.533,50.532 111.909,50.819 111.676 C 51.115 111.437,51.439 110.728,51.568 110.041 C 51.692 109.373,52.026 108.596,52.308 108.313 C 52.591 108.031,52.951 107.321,53.109 106.736 C 53.266 106.151,53.620 105.447,53.895 105.173 C 54.169 104.898,54.527 104.146,54.689 103.502 C 54.851 102.858,55.084 102.332,55.205 102.332 C 55.523 102.332,56.120 101.065,56.318 99.971 C 56.411 99.456,56.721 98.823,57.008 98.563 C 57.295 98.304,57.654 97.595,57.807 96.989 C 57.960 96.383,58.306 95.686,58.577 95.441 C 58.848 95.196,59.196 94.527,59.350 93.953 C 59.504 93.380,59.898 92.554,60.224 92.116 C 60.550 91.679,60.899 90.860,61.000 90.297 C 61.101 89.733,61.455 88.949,61.787 88.554 C 62.120 88.159,62.472 87.455,62.571 86.988 C 62.669 86.522,62.957 85.907,63.209 85.622 C 63.462 85.337,63.823 84.637,64.012 84.067 C 64.200 83.497,64.554 82.798,64.797 82.513 C 65.040 82.228,65.376 81.470,65.544 80.829 C 65.712 80.188,66.058 79.430,66.312 79.145 C 66.567 78.860,66.921 78.161,67.098 77.591 C 67.276 77.021,67.626 76.321,67.876 76.036 C 68.126 75.751,68.475 75.052,68.653 74.482 C 68.830 73.912,69.180 73.212,69.430 72.927 C 69.680 72.642,70.024 71.806,70.196 71.069 C 70.368 70.332,70.662 69.670,70.849 69.598 C 71.036 69.526,71.395 68.847,71.647 68.088 C 71.898 67.330,72.257 66.593,72.444 66.451 C 72.631 66.308,72.966 65.670,73.188 65.033 C 73.411 64.396,73.806 63.638,74.066 63.349 C 74.327 63.060,74.681 62.241,74.853 61.528 C 75.025 60.816,75.381 60.000,75.643 59.715 C 75.905 59.430,76.246 58.720,76.401 58.137 C 76.555 57.554,76.913 56.868,77.196 56.612 C 77.479 56.356,77.785 55.746,77.877 55.257 C 77.969 54.767,78.322 54.036,78.663 53.632 C 79.003 53.227,79.386 52.336,79.514 51.650 C 79.650 50.922,79.968 50.225,80.280 49.973 C 80.573 49.735,80.922 49.056,81.055 48.462 C 81.189 47.869,81.537 47.176,81.829 46.922 C 82.122 46.669,82.472 45.969,82.607 45.368 C 82.742 44.766,83.097 44.062,83.397 43.802 C 83.701 43.538,84.039 42.808,84.162 42.147 C 84.284 41.497,84.691 40.599,85.067 40.151 C 85.443 39.704,85.751 39.075,85.751 38.754 C 85.751 38.432,85.826 38.095,85.917 38.004 C 86.149 37.772,86.528 38.047,86.528 38.447 M199.748 39.790 C 199.931 40.445,200.229 41.037,200.411 41.107 C 200.593 41.177,200.944 41.877,201.192 42.662 C 201.439 43.448,201.788 44.147,201.967 44.216 C 202.147 44.285,202.535 45.136,202.830 46.106 C 203.124 47.077,203.526 47.933,203.723 48.008 C 203.919 48.084,204.157 48.559,204.252 49.065 C 204.347 49.571,204.696 50.309,205.029 50.705 C 205.361 51.101,205.716 51.807,205.817 52.273 C 205.919 52.740,206.269 53.439,206.595 53.827 C 206.920 54.216,207.269 54.909,207.369 55.367 C 207.469 55.825,207.833 56.617,208.179 57.127 C 208.525 57.637,208.808 58.210,208.808 58.400 C 208.808 59.046,209.565 60.558,209.964 60.712 C 210.183 60.796,210.363 61.087,210.363 61.359 C 210.363 62.130,211.077 63.651,211.519 63.821 C 211.738 63.905,211.917 64.196,211.917 64.468 C 211.917 65.146,212.582 66.683,213.040 67.063 C 213.246 67.234,213.493 67.892,213.588 68.525 C 213.701 69.278,213.968 69.838,214.361 70.148 C 214.734 70.440,215.033 71.035,215.146 71.708 C 215.259 72.376,215.559 72.976,215.924 73.263 C 216.279 73.542,216.588 74.147,216.693 74.769 C 216.789 75.341,217.141 76.126,217.474 76.514 C 217.808 76.902,218.160 77.643,218.257 78.161 C 218.354 78.679,218.707 79.462,219.041 79.901 C 219.375 80.340,219.731 81.049,219.832 81.477 C 219.934 81.904,220.241 82.502,220.516 82.806 C 220.791 83.109,221.180 83.902,221.381 84.567 C 221.581 85.233,221.983 86.111,222.273 86.519 C 222.564 86.928,222.875 87.651,222.964 88.126 C 223.053 88.601,223.399 89.285,223.734 89.647 C 224.069 90.008,224.419 90.708,224.512 91.201 C 224.605 91.695,224.884 92.332,225.132 92.617 C 225.739 93.314,226.166 94.173,226.166 94.697 C 226.166 94.934,226.404 95.462,226.695 95.871 C 226.986 96.280,227.401 97.207,227.616 97.932 C 227.831 98.657,228.171 99.313,228.370 99.389 C 228.570 99.466,228.918 100.165,229.144 100.942 C 229.370 101.720,229.724 102.421,229.930 102.500 C 230.137 102.579,230.430 103.127,230.583 103.718 C 230.736 104.309,231.068 105.084,231.322 105.440 C 231.575 105.797,231.985 106.699,232.233 107.447 C 232.480 108.194,232.832 108.893,233.014 109.001 C 233.196 109.109,233.546 109.808,233.791 110.555 C 234.037 111.303,234.392 112.002,234.581 112.110 C 234.770 112.218,235.116 112.966,235.350 113.772 C 235.583 114.579,235.926 115.297,236.111 115.368 C 236.296 115.439,236.600 116.061,236.786 116.751 C 236.972 117.441,237.329 118.238,237.580 118.523 C 237.831 118.808,238.163 119.518,238.318 120.101 C 238.472 120.684,238.826 121.367,239.103 121.618 C 239.381 121.869,239.687 122.441,239.783 122.890 C 239.989 123.844,240.592 125.085,241.096 125.589 C 241.741 126.234,241.516 128.008,240.663 129.006 C 240.241 129.499,239.894 130.199,239.892 130.560 C 239.889 130.922,239.539 131.731,239.114 132.358 C 238.690 132.985,238.342 133.767,238.342 134.096 C 238.342 134.425,238.109 134.912,237.823 135.178 C 237.538 135.444,237.129 136.252,236.914 136.975 C 236.700 137.697,236.361 138.351,236.161 138.427 C 235.961 138.504,235.614 139.200,235.389 139.975 C 235.164 140.749,234.801 141.531,234.583 141.712 C 234.365 141.893,234.055 142.560,233.896 143.195 C 233.736 143.829,233.353 144.658,233.045 145.037 C 232.737 145.415,232.327 146.219,232.135 146.823 C 231.942 147.426,231.570 148.115,231.307 148.352 C 231.044 148.590,230.829 148.986,230.829 149.231 C 230.829 149.816,230.132 151.474,229.800 151.679 C 229.657 151.768,229.354 152.483,229.125 153.269 C 228.897 154.054,228.545 154.761,228.344 154.838 C 228.142 154.915,227.792 155.615,227.566 156.392 C 227.340 157.170,226.992 157.869,226.792 157.946 C 226.592 158.022,226.258 158.660,226.049 159.363 C 225.841 160.066,225.441 160.932,225.162 161.287 C 224.883 161.642,224.578 162.383,224.485 162.933 C 224.392 163.483,224.041 164.192,223.705 164.508 C 223.368 164.824,223.019 165.523,222.927 166.062 C 222.836 166.601,222.483 167.304,222.143 167.624 C 221.765 167.978,221.459 168.640,221.357 169.320 C 221.265 169.933,220.968 170.635,220.697 170.880 C 220.427 171.125,220.079 171.795,219.924 172.368 C 219.770 172.941,219.378 173.768,219.053 174.205 C 218.728 174.642,218.382 175.337,218.284 175.748 C 218.187 176.159,217.832 176.859,217.495 177.302 C 217.158 177.746,216.803 178.538,216.706 179.063 C 216.609 179.588,216.311 180.215,216.046 180.455 C 215.780 180.696,215.386 181.499,215.171 182.240 C 214.955 182.981,214.555 183.791,214.280 184.039 C 214.006 184.287,213.709 184.878,213.620 185.353 C 213.531 185.828,213.215 186.526,212.917 186.904 C 212.620 187.282,212.219 188.116,212.026 188.757 C 211.833 189.398,211.441 190.220,211.155 190.584 C 210.869 190.947,210.561 191.670,210.470 192.189 C 210.379 192.709,210.161 193.251,209.985 193.394 C 209.506 193.782,208.808 195.238,208.808 195.850 C 208.808 196.147,208.629 196.458,208.410 196.542 C 207.979 196.708,207.254 198.226,207.254 198.964 C 207.254 199.214,207.072 199.569,206.850 199.753 C 206.376 200.147,205.699 201.673,205.699 202.350 C 205.699 202.611,205.540 202.917,205.346 203.031 C 204.879 203.305,204.145 204.761,204.145 205.415 C 204.145 205.700,203.986 206.026,203.792 206.140 C 203.332 206.410,202.591 207.866,202.591 208.501 C 202.591 208.774,202.374 209.276,202.110 209.615 C 201.846 209.955,201.482 210.699,201.301 211.269 C 201.120 211.839,200.764 212.539,200.509 212.824 C 200.255 213.109,199.915 213.837,199.754 214.443 C 199.421 215.697,199.427 215.694,198.440 215.111 C 197.927 214.808,197.623 214.341,197.424 213.552 C 197.268 212.932,196.916 212.200,196.641 211.926 C 196.366 211.651,196.021 210.978,195.873 210.430 C 195.725 209.882,195.372 209.184,195.087 208.878 C 194.802 208.572,194.461 207.841,194.329 207.254 C 194.197 206.666,193.787 205.749,193.418 205.216 C 193.048 204.683,192.746 204.067,192.746 203.846 C 192.746 203.626,192.398 202.933,191.974 202.306 C 191.549 201.679,191.199 200.982,191.196 200.757 C 191.194 200.532,190.856 199.832,190.446 199.202 C 190.036 198.572,189.623 197.620,189.528 197.086 C 189.433 196.552,189.069 195.807,188.719 195.429 C 188.369 195.052,188.083 194.519,188.083 194.246 C 188.083 193.635,187.643 192.759,187.049 192.188 C 186.803 191.952,186.527 191.288,186.435 190.712 C 186.334 190.079,186.052 189.514,185.721 189.282 C 185.373 189.039,185.090 188.444,184.945 187.649 C 184.817 186.949,184.494 186.214,184.210 185.979 C 183.931 185.747,183.566 185.015,183.399 184.351 C 183.232 183.687,182.884 182.996,182.627 182.816 C 182.369 182.635,182.019 181.936,181.849 181.261 C 181.679 180.587,181.328 179.886,181.067 179.704 C 180.807 179.521,180.465 178.797,180.307 178.093 C 180.150 177.389,179.809 176.580,179.550 176.295 C 179.291 176.010,178.934 175.311,178.756 174.741 C 178.579 174.171,178.229 173.472,177.979 173.187 C 177.729 172.902,177.380 172.202,177.202 171.632 C 177.024 171.062,176.667 170.363,176.409 170.078 C 176.150 169.793,175.807 168.977,175.648 168.264 C 175.488 167.552,175.146 166.736,174.887 166.451 C 174.628 166.166,174.271 165.466,174.093 164.896 C 173.916 164.326,173.566 163.627,173.316 163.342 C 173.066 163.057,172.714 162.358,172.533 161.788 C 172.353 161.218,171.947 160.442,171.632 160.063 C 171.316 159.684,170.982 158.896,170.888 158.311 C 170.795 157.725,170.493 157.021,170.217 156.746 C 169.942 156.470,169.588 155.766,169.430 155.181 C 169.273 154.596,168.923 153.897,168.653 153.627 C 168.383 153.357,168.033 152.658,167.876 152.073 C 167.718 151.488,167.378 150.797,167.119 150.538 C 166.860 150.280,166.504 149.468,166.328 148.735 C 166.152 148.001,165.809 147.257,165.565 147.081 C 165.320 146.906,164.966 146.203,164.777 145.520 C 164.589 144.837,164.239 144.138,164.000 143.966 C 163.762 143.794,163.412 143.094,163.223 142.411 C 163.034 141.728,162.668 141.021,162.409 140.840 C 162.148 140.657,161.860 140.018,161.761 139.402 C 161.664 138.793,161.324 137.984,161.007 137.605 C 160.690 137.227,160.347 136.535,160.245 136.069 C 160.143 135.602,159.800 134.903,159.483 134.515 C 159.166 134.126,158.769 133.332,158.601 132.749 C 158.432 132.167,158.066 131.483,157.786 131.230 C 157.506 130.977,157.199 130.254,157.105 129.624 C 157.010 128.994,156.656 128.070,156.316 127.570 C 155.567 126.466,155.567 126.580,156.309 125.839 C 156.644 125.504,156.999 124.799,157.098 124.273 C 157.197 123.747,157.546 123.047,157.875 122.718 C 158.204 122.390,158.554 121.690,158.652 121.164 C 158.751 120.638,159.099 119.940,159.426 119.613 C 159.754 119.286,160.098 118.534,160.193 117.939 C 160.290 117.335,160.633 116.593,160.974 116.252 C 161.308 115.918,161.667 115.188,161.772 114.631 C 161.876 114.074,162.168 113.474,162.421 113.297 C 162.673 113.120,163.034 112.417,163.223 111.734 C 163.412 111.051,163.758 110.354,163.992 110.185 C 164.226 110.016,164.565 109.222,164.744 108.420 C 164.924 107.618,165.229 106.900,165.424 106.826 C 165.618 106.751,165.973 106.089,166.213 105.353 C 166.454 104.617,166.849 103.824,167.092 103.591 C 167.334 103.357,167.687 102.618,167.874 101.948 C 168.062 101.278,168.372 100.670,168.565 100.596 C 168.757 100.522,169.101 99.804,169.331 99.000 C 169.560 98.197,169.953 97.306,170.205 97.021 C 170.456 96.736,170.807 96.036,170.984 95.466 C 171.162 94.896,171.512 94.197,171.762 93.912 C 172.012 93.627,172.361 92.927,172.539 92.358 C 172.716 91.788,173.072 91.088,173.330 90.803 C 173.587 90.518,173.938 89.702,174.111 88.990 C 174.283 88.277,174.630 87.461,174.883 87.176 C 175.136 86.891,175.469 86.181,175.623 85.598 C 175.778 85.015,176.136 84.329,176.419 84.073 C 176.701 83.817,177.008 83.207,177.100 82.718 C 177.192 82.229,177.550 81.491,177.897 81.079 C 178.243 80.668,178.594 79.889,178.675 79.349 C 178.757 78.810,179.098 78.072,179.433 77.711 C 179.768 77.349,180.118 76.650,180.211 76.156 C 180.303 75.663,180.653 74.963,180.988 74.602 C 181.323 74.241,181.673 73.541,181.765 73.048 C 181.858 72.554,182.209 71.853,182.545 71.491 C 182.885 71.124,183.261 70.272,183.392 69.572 C 183.521 68.880,183.810 68.211,184.034 68.086 C 184.258 67.961,184.618 67.262,184.835 66.533 C 185.051 65.804,185.458 65.047,185.738 64.850 C 186.019 64.654,186.326 64.059,186.421 63.529 C 186.515 62.999,186.797 62.332,187.046 62.047 C 187.706 61.293,188.082 60.481,188.088 59.797 C 188.090 59.467,188.440 58.684,188.865 58.057 C 189.290 57.430,189.639 56.730,189.642 56.502 C 189.645 56.275,189.994 55.575,190.419 54.948 C 190.844 54.321,191.194 53.622,191.196 53.394 C 191.199 53.166,191.549 52.466,191.974 51.839 C 192.398 51.212,192.746 50.383,192.746 49.997 C 192.746 49.606,193.091 48.860,193.523 48.316 C 193.951 47.778,194.301 47.071,194.301 46.745 C 194.301 46.418,194.451 45.997,194.635 45.809 C 195.334 45.093,195.855 44.165,195.855 43.636 C 195.855 43.333,196.149 42.747,196.509 42.333 C 196.869 41.919,197.219 41.318,197.286 40.997 C 197.354 40.677,197.465 40.142,197.533 39.809 C 197.648 39.249,198.435 38.660,199.124 38.619 C 199.284 38.609,199.564 39.136,199.748 39.790 M311.151 39.054 C 311.171 39.839,311.872 41.534,312.268 41.756 C 312.478 41.873,312.726 42.429,312.821 42.990 C 312.916 43.552,313.266 44.283,313.599 44.616 C 313.931 44.949,314.284 45.651,314.383 46.178 C 314.482 46.704,314.837 47.409,315.172 47.744 C 315.526 48.098,315.859 48.831,315.964 49.490 C 316.065 50.120,316.400 50.880,316.719 51.198 C 317.034 51.514,317.373 52.202,317.471 52.728 C 317.570 53.254,317.920 53.954,318.249 54.283 C 318.577 54.611,318.927 55.311,319.026 55.837 C 319.125 56.363,319.474 57.063,319.803 57.392 C 320.156 57.744,320.472 58.462,320.574 59.141 C 320.681 59.856,320.981 60.513,321.366 60.874 C 321.706 61.194,322.059 61.896,322.150 62.435 C 322.241 62.974,322.591 63.674,322.927 63.990 C 323.264 64.306,323.616 65.017,323.709 65.571 C 323.809 66.159,324.124 66.771,324.466 67.040 C 324.856 67.346,325.115 67.913,325.236 68.722 C 325.337 69.393,325.572 70.095,325.759 70.282 C 326.228 70.750,326.943 72.173,326.943 72.637 C 326.943 72.848,327.103 73.180,327.298 73.375 C 327.770 73.847,328.497 75.272,328.497 75.725 C 328.497 75.924,328.733 76.359,329.022 76.691 C 329.311 77.024,329.730 77.928,329.955 78.700 C 330.179 79.472,330.581 80.322,330.848 80.589 C 331.115 80.856,331.402 81.398,331.486 81.794 C 331.638 82.515,331.697 82.632,332.645 84.067 C 332.928 84.495,333.159 85.061,333.160 85.325 C 333.160 85.590,333.452 86.152,333.808 86.576 C 334.165 86.999,334.532 87.821,334.625 88.401 C 334.718 88.982,335.017 89.680,335.290 89.954 C 335.563 90.227,335.946 90.980,336.141 91.628 C 336.336 92.277,336.737 93.031,337.030 93.305 C 337.324 93.579,337.565 94.039,337.565 94.328 C 337.565 94.977,337.999 95.837,338.636 96.448 C 338.902 96.703,339.119 97.204,339.119 97.562 C 339.119 98.293,339.792 99.741,340.131 99.741 C 340.253 99.741,340.486 100.268,340.648 100.912 C 340.810 101.556,341.167 102.307,341.442 102.582 C 341.717 102.857,342.070 103.560,342.228 104.145 C 342.385 104.730,342.743 105.437,343.022 105.717 C 343.302 105.996,343.652 106.791,343.800 107.483 C 343.949 108.175,344.289 108.976,344.556 109.263 C 344.823 109.549,345.164 110.240,345.314 110.797 C 345.464 111.354,345.812 112.052,346.088 112.348 C 346.364 112.643,346.710 113.325,346.859 113.863 C 347.007 114.400,347.354 115.086,347.628 115.386 C 347.903 115.687,348.315 116.588,348.543 117.388 C 348.772 118.189,349.137 118.992,349.355 119.173 C 349.573 119.354,349.878 120.004,350.032 120.616 C 350.186 121.229,350.534 121.930,350.805 122.175 C 351.076 122.421,351.425 123.095,351.581 123.674 C 351.737 124.253,352.144 125.060,352.487 125.466 C 353.315 126.450,353.294 127.559,352.431 128.422 C 352.005 128.847,351.702 129.494,351.616 130.159 C 351.532 130.805,351.190 131.549,350.739 132.069 C 350.329 132.540,349.995 133.233,349.989 133.623 C 349.984 134.016,349.640 134.723,349.212 135.223 C 348.791 135.717,348.446 136.399,348.446 136.740 C 348.446 137.081,348.154 137.707,347.798 138.130 C 347.441 138.554,347.075 139.368,346.984 139.941 C 346.892 140.513,346.616 141.174,346.371 141.410 C 345.768 141.991,345.337 142.860,345.337 143.496 C 345.337 143.785,345.119 144.230,344.854 144.485 C 344.213 145.100,343.782 145.956,343.782 146.618 C 343.782 146.913,343.544 147.358,343.254 147.606 C 342.963 147.854,342.542 148.698,342.318 149.482 C 342.094 150.266,341.705 151.140,341.453 151.425 C 341.202 151.710,340.851 152.409,340.674 152.979 C 340.496 153.549,340.146 154.249,339.896 154.534 C 339.646 154.819,339.294 155.518,339.113 156.088 C 338.933 156.658,338.567 157.404,338.301 157.746 C 338.035 158.088,337.744 158.829,337.654 159.392 C 337.564 159.956,337.228 160.699,336.909 161.044 C 336.589 161.389,336.195 162.197,336.033 162.841 C 335.871 163.484,335.566 164.077,335.355 164.158 C 335.145 164.239,334.792 164.924,334.572 165.680 C 334.353 166.436,334.002 167.197,333.794 167.370 C 333.585 167.543,333.230 168.318,333.005 169.092 C 332.780 169.867,332.437 170.562,332.242 170.636 C 332.048 170.711,331.704 171.408,331.477 172.186 C 331.251 172.963,330.895 173.666,330.685 173.746 C 330.475 173.827,330.176 174.398,330.021 175.016 C 329.865 175.634,329.459 176.518,329.118 176.980 C 328.777 177.443,328.497 178.072,328.497 178.379 C 328.497 178.686,328.150 179.451,327.725 180.078 C 327.300 180.705,326.950 181.405,326.948 181.635 C 326.945 181.864,326.635 182.505,326.258 183.060 C 325.881 183.614,325.461 184.470,325.324 184.961 C 325.188 185.453,324.811 186.211,324.487 186.645 C 324.164 187.080,323.821 187.869,323.727 188.399 C 323.632 188.929,323.283 189.687,322.951 190.083 C 322.619 190.479,322.264 191.185,322.162 191.651 C 322.060 192.118,321.710 192.817,321.385 193.206 C 321.059 193.594,320.713 194.276,320.616 194.722 C 320.519 195.167,320.162 195.907,319.824 196.366 C 319.485 196.825,319.126 197.685,319.027 198.277 C 318.924 198.885,318.586 199.593,318.248 199.907 C 317.919 200.212,317.568 200.912,317.466 201.461 C 317.364 202.011,317.015 202.711,316.689 203.016 C 316.363 203.321,316.016 204.020,315.918 204.570 C 315.820 205.120,315.472 205.861,315.144 206.218 C 314.817 206.574,314.464 207.332,314.361 207.902 C 314.259 208.472,313.898 209.217,313.561 209.559 C 313.223 209.901,312.875 210.634,312.786 211.188 C 312.698 211.742,312.429 212.300,312.188 212.429 C 311.821 212.625,311.492 213.389,310.995 215.202 C 310.775 216.004,309.459 215.135,309.050 213.919 C 308.827 213.254,308.440 212.485,308.190 212.209 C 307.940 211.933,307.569 211.151,307.364 210.471 C 307.159 209.791,306.832 209.051,306.637 208.827 C 306.441 208.603,306.127 207.953,305.937 207.383 C 305.748 206.813,305.398 206.114,305.159 205.829 C 304.921 205.544,304.571 204.845,304.382 204.275 C 304.193 203.705,303.852 203.005,303.623 202.720 C 303.100 202.068,302.592 200.889,302.586 200.312 C 302.583 200.069,302.234 199.357,301.809 198.730 C 301.384 198.103,301.036 197.397,301.036 197.162 C 301.036 196.926,300.745 196.338,300.389 195.855 C 300.032 195.372,299.741 194.783,299.741 194.545 C 299.741 194.308,299.437 193.665,299.065 193.117 C 298.693 192.569,298.240 191.627,298.058 191.022 C 297.876 190.418,297.481 189.610,297.180 189.227 C 296.879 188.844,296.632 188.306,296.632 188.031 C 296.632 187.404,296.190 186.539,295.561 185.936 C 295.295 185.681,295.078 185.236,295.078 184.947 C 295.078 184.311,294.647 183.441,294.043 182.861 C 293.798 182.625,293.525 181.980,293.437 181.427 C 293.348 180.873,293.048 180.177,292.770 179.878 C 292.492 179.580,292.135 178.857,291.978 178.272 C 291.821 177.688,291.404 176.899,291.053 176.520 C 290.702 176.141,290.415 175.607,290.415 175.334 C 290.415 174.723,289.975 173.847,289.380 173.276 C 289.135 173.040,288.861 172.387,288.771 171.825 C 288.681 171.263,288.390 170.523,288.124 170.181 C 287.858 169.839,287.492 169.093,287.311 168.523 C 287.131 167.953,286.778 167.254,286.528 166.969 C 286.279 166.684,285.929 165.984,285.751 165.415 C 285.574 164.845,285.223 164.145,284.972 163.860 C 284.720 163.575,284.329 162.692,284.103 161.898 C 283.876 161.104,283.469 160.253,283.198 160.008 C 282.927 159.762,282.635 159.123,282.549 158.587 C 282.463 158.051,282.113 157.349,281.771 157.028 C 281.429 156.707,281.079 156.007,280.994 155.474 C 280.909 154.940,280.557 154.239,280.213 153.915 C 279.829 153.555,279.522 152.897,279.420 152.217 C 279.317 151.529,279.011 150.879,278.616 150.508 C 278.256 150.170,277.979 149.617,277.979 149.235 C 277.979 148.539,277.360 147.436,276.764 147.073 C 276.578 146.959,276.425 146.526,276.425 146.110 C 276.425 145.652,276.135 145.020,275.687 144.504 C 275.279 144.034,274.878 143.202,274.790 142.644 C 274.703 142.089,274.412 141.390,274.142 141.090 C 273.873 140.790,273.502 139.985,273.318 139.302 C 273.134 138.620,272.788 137.920,272.549 137.748 C 272.311 137.576,271.961 136.876,271.772 136.194 C 271.583 135.511,271.234 134.811,270.995 134.639 C 270.756 134.467,270.406 133.767,270.218 133.084 C 270.029 132.400,269.683 131.584,269.451 131.270 C 269.218 130.956,268.868 130.233,268.674 129.663 C 268.479 129.093,268.103 128.349,267.839 128.009 C 267.266 127.274,267.209 126.278,267.728 126.079 C 267.932 126.001,268.308 125.260,268.564 124.432 C 268.820 123.605,269.220 122.787,269.452 122.615 C 269.685 122.443,270.029 121.743,270.218 121.060 C 270.407 120.377,270.762 119.674,271.007 119.497 C 271.253 119.321,271.607 118.579,271.794 117.848 C 271.981 117.118,272.281 116.464,272.460 116.396 C 272.639 116.327,272.981 115.572,273.221 114.718 C 273.461 113.864,273.812 113.105,274.003 113.032 C 274.193 112.959,274.524 112.307,274.739 111.583 C 274.954 110.858,275.353 110.025,275.625 109.731 C 275.897 109.437,276.246 108.720,276.401 108.137 C 276.555 107.554,276.915 106.866,277.201 106.607 C 277.487 106.349,277.721 106.010,277.722 105.854 C 277.725 105.138,278.282 103.678,278.736 103.190 C 279.012 102.894,279.361 102.195,279.511 101.638 C 279.661 101.081,280.009 100.383,280.285 100.088 C 280.560 99.792,280.902 99.130,281.044 98.617 C 281.185 98.103,281.535 97.355,281.820 96.955 C 282.105 96.554,282.422 95.784,282.523 95.245 C 282.624 94.705,282.973 93.948,283.297 93.563 C 283.621 93.177,284.014 92.388,284.170 91.809 C 284.326 91.230,284.685 90.546,284.968 90.291 C 285.251 90.035,285.557 89.425,285.649 88.936 C 285.741 88.446,286.094 87.715,286.435 87.310 C 286.775 86.906,287.158 86.014,287.286 85.329 C 287.414 84.643,287.649 84.039,287.807 83.987 C 288.195 83.857,288.860 82.532,288.860 81.888 C 288.860 81.602,289.077 81.159,289.343 80.904 C 289.956 80.316,290.415 79.439,290.415 78.855 C 290.415 78.605,290.664 78.136,290.968 77.812 C 291.272 77.488,291.680 76.611,291.874 75.863 C 292.068 75.115,292.400 74.406,292.612 74.288 C 292.824 74.169,293.179 73.446,293.401 72.681 C 293.624 71.916,293.970 71.227,294.172 71.150 C 294.373 71.072,294.726 70.362,294.956 69.572 C 295.186 68.781,295.480 68.135,295.611 68.135 C 295.884 68.135,296.630 66.464,296.637 65.836 C 296.639 65.604,296.989 64.901,297.414 64.274 C 297.839 63.647,298.189 62.948,298.191 62.720 C 298.194 62.492,298.544 61.793,298.968 61.166 C 299.393 60.539,299.741 59.826,299.741 59.581 C 299.741 59.337,299.986 58.826,300.285 58.446 C 300.584 58.065,300.985 57.161,301.177 56.436 C 301.368 55.710,301.752 54.869,302.030 54.566 C 302.307 54.263,302.615 53.634,302.714 53.167 C 302.813 52.701,303.160 52.001,303.486 51.613 C 303.812 51.225,304.161 50.525,304.263 50.059 C 304.365 49.592,304.720 48.887,305.052 48.493 C 305.384 48.098,305.741 47.314,305.845 46.750 C 305.948 46.186,306.298 45.408,306.622 45.019 C 306.945 44.631,307.291 43.931,307.389 43.465 C 307.488 42.998,307.798 42.367,308.078 42.061 C 308.358 41.756,308.736 40.998,308.918 40.377 C 309.341 38.935,311.122 37.880,311.151 39.054 " stroke="none" fill="#ffffff" fill-rule="evenodd"></path></g></svg>