<svg id="svg" version="1.1" xmlns="http://www.w3.org/2000/svg" xmlns:xlink="http://www.w3.org/1999/xlink" width="400" height="258.91472868217056" viewBox="0, 0, 400,258.91472868217056"><g id="svgg"><path id="path0" d="M85.803 31.658 C 85.632 31.829,85.492 32.170,85.492 32.415 C 85.492 32.661,85.212 33.195,84.870 33.601 C 84.528 34.008,84.120 34.814,83.964 35.393 C 83.809 35.972,83.454 36.652,83.176 36.903 C 82.899 37.154,82.592 37.726,82.494 38.175 C 82.396 38.623,81.982 39.618,81.573 40.386 C 81.164 41.154,80.829 41.925,80.829 42.099 C 80.829 42.273,80.552 42.823,80.213 43.322 C 79.874 43.822,79.460 44.647,79.292 45.156 C 79.124 45.665,78.781 46.351,78.531 46.681 C 78.281 47.010,77.859 47.863,77.594 48.575 C 77.329 49.288,76.900 50.220,76.640 50.648 C 76.380 51.075,76.167 51.600,76.166 51.813 C 76.165 52.027,75.815 52.727,75.389 53.368 C 74.962 54.009,74.613 54.709,74.611 54.922 C 74.610 55.136,74.260 55.835,73.834 56.477 C 73.408 57.118,73.057 57.817,73.054 58.031 C 73.052 58.245,72.885 58.711,72.683 59.067 C 72.023 60.237,71.547 61.259,71.356 61.917 C 71.253 62.273,70.910 62.915,70.593 63.342 C 70.276 63.769,69.936 64.456,69.839 64.867 C 69.741 65.278,69.392 65.978,69.062 66.421 C 68.732 66.865,68.381 67.578,68.282 68.005 C 68.184 68.433,67.819 69.217,67.471 69.748 C 67.124 70.280,66.839 70.929,66.839 71.192 C 66.839 71.454,66.493 72.127,66.069 72.687 C 65.646 73.247,65.296 73.946,65.292 74.241 C 65.288 74.537,64.938 75.236,64.515 75.796 C 64.091 76.356,63.741 77.047,63.737 77.332 C 63.732 77.617,63.491 78.240,63.200 78.717 C 62.909 79.195,62.489 80.127,62.268 80.790 C 62.046 81.453,61.664 82.228,61.418 82.513 C 61.173 82.798,60.816 83.525,60.627 84.128 C 60.437 84.732,60.067 85.420,59.804 85.658 C 59.541 85.896,59.326 86.254,59.326 86.455 C 59.326 86.655,58.874 87.773,58.321 88.940 C 57.769 90.107,57.236 91.324,57.138 91.645 C 57.040 91.966,56.865 92.228,56.750 92.228 C 56.634 92.228,56.278 92.927,55.959 93.782 C 55.639 94.637,55.291 95.337,55.185 95.337 C 55.079 95.337,54.784 95.891,54.529 96.567 C 54.273 97.244,53.849 98.076,53.587 98.416 C 53.324 98.756,53.109 99.233,53.109 99.478 C 53.109 99.722,52.351 101.410,51.425 103.228 C 50.499 105.047,49.741 106.650,49.741 106.790 C 49.741 106.930,49.504 107.377,49.214 107.784 C 48.925 108.191,48.530 109.046,48.339 109.683 C 48.147 110.321,47.760 111.172,47.480 111.575 C 47.200 111.977,46.835 112.706,46.669 113.196 C 46.502 113.685,46.196 114.274,45.988 114.504 C 45.780 114.734,45.434 115.419,45.220 116.027 C 45.005 116.635,44.608 117.446,44.338 117.828 C 44.068 118.210,43.766 118.898,43.666 119.357 C 43.567 119.815,43.217 120.586,42.889 121.070 C 42.560 121.554,42.154 122.367,41.986 122.876 C 41.818 123.385,41.433 124.116,41.131 124.501 C 40.340 125.506,40.230 127.577,40.904 128.756 C 41.190 129.255,41.607 130.071,41.832 130.570 C 42.057 131.069,42.420 131.768,42.638 132.124 C 42.855 132.481,43.205 133.180,43.414 133.679 C 43.623 134.177,44.072 135.168,44.412 135.881 C 44.751 136.593,45.209 137.584,45.431 138.083 C 45.652 138.582,45.999 139.281,46.201 139.637 C 46.403 139.994,46.753 140.693,46.978 141.192 C 47.203 141.690,47.550 142.390,47.747 142.746 C 48.484 144.073,49.714 146.794,50.002 147.733 C 50.165 148.267,50.393 148.705,50.507 148.705 C 50.621 148.705,50.976 149.404,51.295 150.259 C 51.615 151.114,51.963 151.813,52.069 151.813 C 52.175 151.813,52.466 152.367,52.716 153.044 C 52.966 153.721,53.373 154.632,53.621 155.070 C 53.869 155.507,54.270 156.459,54.511 157.184 C 54.752 157.910,55.100 158.562,55.284 158.633 C 55.468 158.703,55.772 159.309,55.960 159.979 C 56.148 160.649,56.500 161.389,56.743 161.622 C 56.986 161.856,57.333 162.513,57.514 163.083 C 57.694 163.653,58.105 164.585,58.426 165.155 C 58.747 165.725,59.148 166.629,59.318 167.163 C 59.487 167.698,59.725 168.135,59.846 168.135 C 59.967 168.135,60.310 168.787,60.608 169.583 C 60.907 170.380,61.322 171.203,61.531 171.413 C 61.741 171.622,62.093 172.418,62.315 173.181 C 62.537 173.944,62.880 174.702,63.078 174.867 C 63.276 175.031,63.517 175.536,63.613 175.989 C 63.709 176.443,64.060 177.176,64.393 177.620 C 64.726 178.064,65.078 178.763,65.176 179.174 C 65.273 179.586,65.623 180.285,65.953 180.729 C 66.283 181.172,66.632 181.872,66.729 182.283 C 66.825 182.695,67.240 183.628,67.649 184.358 C 68.059 185.088,68.394 185.846,68.395 186.042 C 68.396 186.238,68.745 186.924,69.171 187.565 C 69.597 188.206,69.946 188.908,69.947 189.124 C 69.948 189.340,70.229 189.931,70.573 190.437 C 70.917 190.943,71.325 191.829,71.481 192.406 C 71.636 192.983,71.989 193.742,72.265 194.093 C 72.540 194.443,72.847 195.071,72.945 195.487 C 73.044 195.903,73.395 196.606,73.725 197.050 C 74.055 197.494,74.407 198.193,74.508 198.604 C 74.609 199.016,74.968 199.760,75.305 200.259 C 75.642 200.758,76.037 201.605,76.183 202.143 C 76.329 202.680,76.734 203.541,77.084 204.057 C 77.434 204.573,77.722 205.182,77.725 205.412 C 77.728 205.641,78.077 206.342,78.502 206.969 C 78.927 207.596,79.277 208.296,79.279 208.523 C 79.282 208.751,79.622 209.436,80.035 210.046 C 80.448 210.655,80.863 211.610,80.957 212.168 C 81.051 212.726,81.288 213.315,81.483 213.477 C 81.678 213.639,82.041 214.316,82.289 214.982 C 82.537 215.647,82.944 216.461,83.194 216.791 C 83.445 217.120,83.787 217.820,83.956 218.345 C 84.124 218.871,84.410 219.475,84.591 219.689 C 84.772 219.903,85.136 220.531,85.401 221.085 C 85.665 221.639,85.995 222.095,86.135 222.098 C 86.507 222.107,87.954 219.959,88.317 218.858 C 88.489 218.336,88.853 217.625,89.125 217.280 C 89.396 216.935,89.730 216.158,89.865 215.555 C 90.001 214.952,90.342 214.207,90.624 213.900 C 90.905 213.593,91.217 212.960,91.315 212.494 C 91.414 212.027,91.759 211.328,92.081 210.939 C 92.403 210.551,92.752 209.883,92.856 209.456 C 92.960 209.028,93.312 208.328,93.639 207.899 C 93.965 207.470,94.316 206.712,94.420 206.215 C 94.523 205.718,94.868 204.903,95.187 204.404 C 95.506 203.905,95.899 203.113,96.060 202.644 C 96.222 202.175,96.574 201.475,96.842 201.090 C 97.110 200.704,97.460 200.005,97.619 199.535 C 97.778 199.066,98.147 198.347,98.438 197.938 C 98.730 197.529,99.045 196.805,99.138 196.330 C 99.232 195.855,99.577 195.058,99.904 194.560 C 100.232 194.061,100.640 193.245,100.810 192.746 C 100.980 192.247,101.327 191.570,101.581 191.240 C 101.835 190.911,102.181 190.225,102.349 189.715 C 102.517 189.206,102.931 188.381,103.270 187.882 C 103.609 187.383,103.886 186.715,103.886 186.398 C 103.886 186.081,104.122 185.522,104.410 185.155 C 104.698 184.789,105.109 183.992,105.323 183.385 C 105.538 182.777,105.882 182.093,106.088 181.865 C 106.294 181.637,106.634 180.966,106.844 180.372 C 107.053 179.779,107.457 178.969,107.741 178.572 C 108.026 178.175,108.393 177.329,108.558 176.693 C 108.723 176.057,109.074 175.263,109.337 174.928 C 109.600 174.594,109.955 173.890,110.127 173.365 C 110.298 172.839,110.648 172.140,110.904 171.810 C 111.160 171.481,111.510 170.781,111.681 170.256 C 111.852 169.730,112.209 169.022,112.473 168.683 C 112.737 168.343,112.953 167.842,112.953 167.569 C 112.953 167.078,113.643 165.535,113.974 165.285 C 114.069 165.214,114.354 164.600,114.609 163.920 C 114.864 163.241,115.240 162.517,115.445 162.312 C 115.651 162.107,115.993 161.444,116.206 160.840 C 116.419 160.235,116.757 159.560,116.956 159.339 C 117.154 159.118,117.404 158.588,117.511 158.161 C 117.617 157.733,118.672 155.460,119.854 153.109 C 121.036 150.758,122.185 148.315,122.407 147.681 C 122.630 147.047,122.980 146.342,123.187 146.114 C 123.393 145.886,123.737 145.202,123.951 144.595 C 124.166 143.987,124.569 143.200,124.847 142.847 C 125.125 142.493,125.434 141.830,125.532 141.374 C 125.631 140.917,125.941 140.220,126.221 139.824 C 126.501 139.428,126.849 138.670,126.995 138.140 C 127.141 137.610,127.485 136.861,127.759 136.475 C 128.033 136.090,128.387 135.390,128.547 134.921 C 128.706 134.451,129.054 133.754,129.320 133.372 C 129.586 132.990,129.974 132.195,130.181 131.606 C 130.389 131.017,130.785 130.219,131.061 129.831 C 132.191 128.245,132.146 125.298,130.968 123.705 C 130.652 123.277,130.307 122.578,130.202 122.150 C 130.097 121.723,129.748 121.023,129.425 120.596 C 129.103 120.168,128.754 119.476,128.651 119.057 C 128.547 118.638,128.234 117.974,127.954 117.580 C 127.673 117.187,127.287 116.343,127.095 115.705 C 126.903 115.067,126.499 114.198,126.197 113.774 C 125.895 113.350,125.648 112.907,125.648 112.790 C 125.648 112.590,123.122 107.342,121.471 104.112 C 121.061 103.310,120.723 102.494,120.721 102.299 C 120.718 102.103,120.368 101.430,119.943 100.803 C 119.519 100.176,119.171 99.470,119.171 99.234 C 119.171 98.998,118.892 98.427,118.551 97.965 C 118.210 97.502,117.804 96.622,117.649 96.008 C 117.495 95.393,117.191 94.744,116.974 94.564 C 116.758 94.384,116.580 94.114,116.580 93.963 C 116.580 93.813,115.753 91.991,114.741 89.915 C 113.729 87.839,112.635 85.557,112.310 84.845 C 111.361 82.766,110.888 81.780,110.509 81.088 C 110.313 80.732,110.002 80.091,109.816 79.663 C 109.630 79.236,109.336 78.711,109.162 78.497 C 108.988 78.284,108.650 77.526,108.411 76.813 C 108.173 76.101,107.829 75.343,107.648 75.130 C 107.467 74.916,107.181 74.311,107.013 73.786 C 106.844 73.260,106.497 72.561,106.241 72.231 C 105.984 71.902,105.635 71.202,105.463 70.677 C 105.292 70.151,104.942 69.452,104.686 69.122 C 104.430 68.793,104.073 68.057,103.892 67.487 C 103.712 66.917,103.355 66.101,103.099 65.674 C 102.843 65.246,102.431 64.372,102.183 63.731 C 101.936 63.089,101.586 62.390,101.406 62.176 C 101.227 61.962,100.875 61.263,100.624 60.622 C 100.374 59.981,99.956 59.178,99.696 58.838 C 99.436 58.498,99.222 58.032,99.222 57.802 C 99.222 57.572,98.814 56.574,98.315 55.585 C 97.817 54.596,97.409 53.648,97.409 53.479 C 97.409 53.310,97.241 53.032,97.034 52.861 C 96.828 52.690,96.453 52.005,96.201 51.340 C 95.949 50.674,95.485 49.747,95.170 49.279 C 94.855 48.811,94.516 48.053,94.417 47.595 C 94.317 47.137,94.013 46.446,93.741 46.061 C 93.468 45.675,93.115 44.976,92.956 44.506 C 92.797 44.037,92.447 43.337,92.179 42.952 C 91.910 42.566,91.561 41.867,91.402 41.397 C 91.243 40.928,90.893 40.229,90.625 39.844 C 90.358 39.460,89.981 38.623,89.789 37.985 C 89.597 37.347,89.193 36.478,88.891 36.054 C 88.589 35.630,88.342 35.115,88.342 34.909 C 88.342 34.574,86.399 31.347,86.197 31.347 C 86.152 31.347,85.974 31.487,85.803 31.658 M198.768 31.671 C 198.626 31.849,198.429 32.257,198.330 32.578 C 198.232 32.898,198.052 33.161,197.931 33.161 C 197.809 33.161,197.515 33.773,197.276 34.521 C 197.038 35.269,196.640 36.172,196.392 36.528 C 196.145 36.885,195.732 37.728,195.476 38.403 C 195.220 39.078,194.850 39.762,194.655 39.924 C 194.460 40.086,194.301 40.328,194.301 40.462 C 194.301 40.595,193.834 41.681,193.264 42.876 C 192.694 44.070,192.228 45.211,192.228 45.411 C 192.228 45.611,192.013 45.969,191.750 46.207 C 191.487 46.445,191.117 47.133,190.928 47.737 C 190.738 48.340,190.384 49.067,190.141 49.352 C 189.898 49.637,189.544 50.337,189.354 50.907 C 189.164 51.477,188.818 52.234,188.585 52.591 C 188.351 52.947,187.969 53.812,187.734 54.512 C 187.500 55.213,187.152 55.971,186.962 56.196 C 186.772 56.422,186.416 57.151,186.170 57.816 C 185.925 58.482,185.555 59.167,185.349 59.338 C 185.143 59.509,184.974 59.787,184.974 59.956 C 184.974 60.125,184.566 61.072,184.068 62.061 C 183.570 63.051,183.162 64.002,183.161 64.175 C 183.161 64.348,182.811 65.041,182.383 65.715 C 181.956 66.389,181.606 67.089,181.606 67.270 C 181.606 67.451,181.256 68.150,180.829 68.824 C 180.402 69.498,180.052 70.204,180.052 70.393 C 180.052 70.582,179.769 71.171,179.423 71.702 C 179.078 72.234,178.672 73.138,178.522 73.711 C 178.372 74.285,177.956 75.153,177.596 75.640 C 177.237 76.127,176.943 76.719,176.943 76.954 C 176.943 77.190,176.595 77.896,176.171 78.523 C 175.746 79.150,175.396 79.824,175.393 80.020 C 175.391 80.217,175.054 80.974,174.644 81.704 C 174.235 82.434,173.820 83.368,173.723 83.779 C 173.627 84.190,173.278 84.890,172.948 85.333 C 172.618 85.777,172.268 86.476,172.170 86.888 C 172.073 87.299,171.723 87.999,171.393 88.442 C 171.063 88.886,170.715 89.579,170.620 89.983 C 170.524 90.386,170.178 91.144,169.850 91.667 C 169.523 92.189,169.176 93.019,169.080 93.511 C 168.983 94.003,168.687 94.644,168.422 94.936 C 168.156 95.228,167.806 95.885,167.642 96.396 C 167.479 96.907,167.056 97.717,166.704 98.195 C 166.351 98.673,166.062 99.232,166.062 99.436 C 166.062 99.640,165.725 100.404,165.312 101.134 C 164.900 101.864,164.484 102.832,164.389 103.285 C 164.294 103.738,164.054 104.243,163.857 104.407 C 163.660 104.570,163.298 105.249,163.053 105.914 C 162.807 106.580,162.461 107.299,162.284 107.513 C 162.106 107.727,161.758 108.426,161.510 109.067 C 161.262 109.709,160.902 110.418,160.710 110.643 C 160.518 110.869,160.186 111.640,159.973 112.357 C 159.761 113.073,159.375 113.938,159.116 114.278 C 158.858 114.618,158.443 115.441,158.195 116.107 C 157.948 116.772,157.576 117.457,157.370 117.628 C 157.164 117.799,156.995 118.080,156.995 118.252 C 156.995 118.424,156.698 119.139,156.335 119.840 C 155.972 120.540,155.491 121.639,155.267 122.280 C 155.042 122.921,154.662 123.694,154.424 123.998 C 153.109 125.669,153.148 127.905,154.527 129.937 C 154.887 130.467,155.181 131.035,155.181 131.199 C 155.181 131.363,155.422 131.958,155.717 132.523 C 156.012 133.087,156.487 134.132,156.774 134.845 C 157.060 135.557,157.442 136.315,157.623 136.528 C 157.803 136.742,158.153 137.442,158.401 138.083 C 158.649 138.724,159.002 139.424,159.186 139.637 C 159.370 139.851,159.667 140.492,159.847 141.062 C 160.026 141.632,160.436 142.565,160.757 143.135 C 161.079 143.705,161.477 144.598,161.642 145.120 C 161.807 145.641,162.095 146.127,162.282 146.199 C 162.469 146.270,162.757 146.866,162.922 147.522 C 163.087 148.178,163.450 148.943,163.729 149.221 C 164.008 149.500,164.313 150.051,164.407 150.447 C 164.502 150.842,164.913 151.807,165.320 152.591 C 165.728 153.374,166.061 154.145,166.062 154.303 C 166.062 154.461,166.339 154.999,166.678 155.499 C 167.017 155.998,167.432 156.823,167.600 157.332 C 167.768 157.841,168.120 158.531,168.384 158.866 C 168.647 159.201,168.990 159.950,169.147 160.532 C 169.304 161.114,169.657 161.877,169.933 162.228 C 170.209 162.578,170.515 163.205,170.614 163.621 C 170.713 164.038,171.063 164.741,171.393 165.185 C 171.723 165.628,172.073 166.328,172.170 166.739 C 172.268 167.151,172.618 167.850,172.948 168.294 C 173.278 168.737,173.627 169.437,173.725 169.848 C 173.823 170.259,174.217 171.179,174.601 171.891 C 174.986 172.604,175.384 173.523,175.488 173.934 C 175.591 174.346,175.945 175.045,176.275 175.489 C 176.605 175.932,176.953 176.626,177.049 177.030 C 177.145 177.434,177.446 178.003,177.718 178.295 C 177.990 178.588,178.289 179.190,178.382 179.633 C 178.476 180.077,178.890 181.038,179.302 181.767 C 179.714 182.497,180.054 183.255,180.057 183.451 C 180.059 183.648,180.409 184.321,180.834 184.948 C 181.259 185.575,181.608 186.275,181.611 186.503 C 181.614 186.731,181.963 187.430,182.388 188.057 C 182.813 188.684,183.161 189.442,183.162 189.741 C 183.162 190.040,183.512 190.810,183.938 191.451 C 184.364 192.092,184.715 192.791,184.719 193.005 C 184.722 193.219,185.072 193.907,185.497 194.534 C 185.922 195.161,186.269 195.874,186.269 196.118 C 186.269 196.362,186.485 196.840,186.749 197.180 C 187.013 197.520,187.436 198.439,187.689 199.223 C 187.942 200.006,188.300 200.823,188.483 201.036 C 188.667 201.250,189.019 201.949,189.267 202.591 C 189.515 203.232,189.865 203.931,190.044 204.145 C 190.224 204.359,190.577 205.058,190.829 205.699 C 191.082 206.341,191.488 207.157,191.734 207.513 C 191.979 207.869,192.375 208.773,192.613 209.521 C 192.852 210.269,193.140 210.881,193.253 210.881 C 193.367 210.881,193.722 211.580,194.041 212.435 C 194.361 213.290,194.709 213.990,194.814 213.990 C 194.920 213.990,195.254 214.638,195.557 215.430 C 195.860 216.222,196.270 217.033,196.469 217.231 C 196.667 217.429,196.911 218.034,197.011 218.575 C 197.175 219.461,198.659 222.061,199.187 222.387 C 199.302 222.458,199.874 221.560,200.457 220.391 C 203.671 213.944,206.218 208.587,206.222 208.266 C 206.225 208.066,206.575 207.389,207.000 206.762 C 207.424 206.135,207.774 205.435,207.777 205.207 C 207.779 204.979,208.129 204.280,208.554 203.653 C 208.979 203.026,209.326 202.313,209.326 202.068 C 209.326 201.824,209.543 201.346,209.807 201.006 C 210.071 200.667,210.433 199.922,210.611 199.352 C 210.789 198.782,211.191 197.908,211.505 197.409 C 211.818 196.911,212.282 195.949,212.535 195.272 C 212.789 194.595,213.090 194.041,213.204 194.041 C 213.318 194.041,213.611 193.429,213.854 192.681 C 214.097 191.933,214.451 191.146,214.642 190.933 C 214.833 190.719,215.186 189.961,215.428 189.249 C 215.670 188.536,216.086 187.675,216.353 187.336 C 216.621 186.996,216.848 186.529,216.858 186.299 C 216.869 186.069,217.101 185.531,217.374 185.104 C 217.647 184.676,217.996 184.035,218.151 183.679 C 218.305 183.323,218.763 182.332,219.167 181.477 C 219.572 180.622,220.048 179.533,220.225 179.058 C 220.402 178.583,220.679 178.058,220.841 177.892 C 221.002 177.726,221.344 177.035,221.600 176.355 C 221.857 175.676,222.207 174.976,222.378 174.801 C 222.548 174.625,222.898 173.926,223.155 173.247 C 223.412 172.567,223.777 171.856,223.966 171.666 C 224.156 171.477,224.446 170.808,224.610 170.181 C 224.775 169.554,225.172 168.633,225.493 168.135 C 225.815 167.636,226.210 166.844,226.371 166.375 C 226.533 165.905,226.902 165.188,227.193 164.780 C 227.483 164.373,227.721 163.941,227.721 163.820 C 227.721 163.700,228.129 162.792,228.628 161.802 C 229.126 160.813,229.534 159.844,229.534 159.648 C 229.534 159.452,229.816 158.921,230.161 158.467 C 230.506 158.014,230.875 157.293,230.979 156.865 C 231.084 156.438,231.434 155.738,231.757 155.311 C 232.079 154.883,232.427 154.184,232.531 153.756 C 232.634 153.329,232.945 152.655,233.221 152.259 C 233.498 151.863,233.844 151.106,233.990 150.575 C 234.136 150.045,234.480 149.296,234.754 148.910 C 235.028 148.525,235.383 147.825,235.544 147.356 C 235.704 146.887,236.108 146.097,236.441 145.600 C 236.774 145.104,237.047 144.592,237.047 144.462 C 237.047 144.332,237.455 143.377,237.953 142.340 C 238.452 141.303,238.860 140.279,238.860 140.065 C 238.860 139.850,239.020 139.515,239.215 139.319 C 239.680 138.855,240.298 137.617,240.513 136.723 C 240.607 136.331,240.780 136.010,240.898 136.010 C 241.016 136.010,241.320 135.515,241.574 134.909 C 241.828 134.304,242.370 133.095,242.779 132.222 C 243.188 131.350,243.523 130.520,243.523 130.379 C 243.523 130.237,243.770 129.808,244.072 129.424 C 245.236 127.945,245.200 125.271,244.002 124.187 C 243.739 123.949,243.523 123.551,243.523 123.302 C 243.523 123.054,243.187 122.212,242.777 121.431 C 242.366 120.651,241.894 119.599,241.727 119.094 C 241.561 118.589,241.262 118.041,241.063 117.876 C 240.864 117.712,240.514 117.012,240.285 116.321 C 240.056 115.631,239.706 114.931,239.508 114.767 C 239.310 114.603,238.899 113.720,238.595 112.804 C 238.290 111.889,237.938 111.140,237.813 111.140 C 237.687 111.140,237.453 110.644,237.292 110.039 C 237.131 109.433,236.737 108.588,236.416 108.161 C 236.096 107.733,235.748 107.034,235.643 106.606 C 235.538 106.179,235.192 105.479,234.875 105.052 C 234.558 104.624,234.145 103.750,233.959 103.109 C 233.773 102.468,233.418 101.652,233.171 101.295 C 232.924 100.939,232.592 100.264,232.433 99.794 C 232.273 99.325,231.924 98.625,231.655 98.240 C 231.387 97.854,231.037 97.155,230.878 96.685 C 230.719 96.216,230.365 95.517,230.091 95.131 C 229.817 94.745,229.473 93.996,229.327 93.466 C 229.181 92.936,228.826 92.171,228.538 91.766 C 228.249 91.362,227.932 90.688,227.833 90.269 C 227.734 89.850,227.382 89.145,227.052 88.701 C 226.722 88.258,226.373 87.558,226.275 87.147 C 226.178 86.735,225.831 86.040,225.504 85.600 C 225.177 85.161,224.830 84.373,224.732 83.849 C 224.633 83.326,224.353 82.636,224.109 82.316 C 223.865 81.997,223.460 81.211,223.210 80.570 C 222.959 79.929,222.607 79.229,222.428 79.016 C 222.248 78.802,221.898 78.102,221.651 77.461 C 221.403 76.820,221.047 76.120,220.860 75.907 C 220.673 75.693,220.343 74.994,220.127 74.352 C 219.910 73.711,219.444 72.662,219.090 72.021 C 218.737 71.380,218.362 70.569,218.257 70.219 C 218.152 69.870,217.917 69.435,217.735 69.253 C 217.553 69.070,217.194 68.365,216.937 67.686 C 216.680 67.007,216.339 66.315,216.177 66.149 C 216.016 65.983,215.740 65.458,215.564 64.983 C 215.388 64.508,214.962 63.536,214.617 62.824 C 214.273 62.111,213.818 61.120,213.607 60.622 C 213.396 60.123,213.109 59.540,212.970 59.326 C 212.831 59.113,212.482 58.413,212.194 57.772 C 211.906 57.131,211.562 56.431,211.429 56.218 C 211.102 55.693,209.493 52.163,209.066 51.036 C 208.877 50.538,208.589 49.955,208.426 49.741 C 208.139 49.366,206.520 46.061,205.318 43.394 C 204.516 41.617,203.935 40.405,203.516 39.637 C 203.321 39.281,202.971 38.582,202.738 38.083 C 202.505 37.584,202.158 36.885,201.967 36.528 C 201.358 35.396,200.059 32.535,199.880 31.930 C 199.688 31.288,199.171 31.168,198.768 31.671 M308.802 32.012 C 308.663 32.377,308.549 32.771,308.549 32.886 C 308.549 33.001,308.270 33.606,307.929 34.229 C 307.587 34.853,307.222 35.654,307.117 36.010 C 307.013 36.367,306.705 36.973,306.433 37.359 C 306.162 37.745,305.807 38.444,305.646 38.913 C 305.484 39.383,305.088 40.175,304.764 40.674 C 304.441 41.172,304.093 41.930,303.990 42.358 C 303.887 42.785,303.535 43.562,303.207 44.085 C 302.879 44.607,302.530 45.365,302.430 45.769 C 302.331 46.172,301.986 46.852,301.663 47.280 C 301.341 47.707,300.991 48.399,300.887 48.817 C 300.783 49.235,300.425 49.977,300.093 50.467 C 299.761 50.956,299.377 51.765,299.239 52.263 C 299.101 52.762,298.823 53.360,298.621 53.593 C 298.419 53.825,298.057 54.619,297.817 55.356 C 297.577 56.093,297.219 56.830,297.021 56.995 C 296.823 57.159,296.473 57.859,296.244 58.549 C 296.014 59.240,295.664 59.939,295.466 60.104 C 295.268 60.268,294.908 61.006,294.665 61.743 C 294.423 62.480,294.134 63.142,294.024 63.215 C 293.914 63.287,293.572 63.987,293.265 64.769 C 292.957 65.552,292.543 66.372,292.344 66.593 C 292.145 66.814,291.802 67.508,291.580 68.135 C 291.359 68.762,291.009 69.461,290.803 69.689 C 290.597 69.917,290.246 70.622,290.023 71.256 C 289.800 71.891,289.398 72.876,289.129 73.446 C 288.860 74.016,288.459 74.890,288.237 75.389 C 288.016 75.887,287.721 76.470,287.582 76.684 C 287.443 76.898,287.093 77.597,286.806 78.238 C 286.518 78.880,286.173 79.579,286.040 79.793 C 285.617 80.473,283.938 84.155,283.938 84.404 C 283.938 84.535,283.661 85.051,283.322 85.550 C 282.983 86.050,282.568 86.875,282.400 87.384 C 282.232 87.893,281.886 88.579,281.630 88.909 C 281.374 89.238,280.966 90.111,280.723 90.848 C 280.481 91.585,280.127 92.317,279.937 92.475 C 279.747 92.633,279.467 93.254,279.315 93.855 C 279.163 94.456,278.742 95.350,278.380 95.840 C 278.017 96.331,277.720 96.926,277.720 97.162 C 277.720 97.397,277.373 98.103,276.948 98.730 C 276.523 99.357,276.173 100.031,276.171 100.228 C 276.168 100.424,275.831 101.182,275.421 101.911 C 275.012 102.641,274.597 103.575,274.501 103.986 C 274.404 104.397,274.055 105.097,273.725 105.541 C 273.395 105.984,273.045 106.684,272.948 107.095 C 272.850 107.506,272.485 108.217,272.136 108.674 C 271.788 109.131,271.503 109.669,271.503 109.869 C 271.502 110.069,271.157 110.874,270.736 111.658 C 270.314 112.442,269.964 113.258,269.957 113.472 C 269.951 113.685,269.597 114.385,269.171 115.026 C 268.745 115.667,268.396 116.356,268.395 116.558 C 268.394 116.759,268.058 117.458,267.648 118.112 C 267.238 118.766,266.825 119.631,266.731 120.034 C 266.637 120.438,266.291 121.196,265.964 121.718 C 265.636 122.241,265.285 123.005,265.183 123.416 C 265.081 123.828,264.713 124.538,264.364 124.995 C 263.464 126.175,263.512 127.579,264.503 129.041 C 264.928 129.668,265.278 130.329,265.280 130.510 C 265.283 130.691,265.635 131.494,266.062 132.295 C 266.490 133.096,266.839 133.894,266.839 134.068 C 266.839 134.241,267.117 134.792,267.455 135.291 C 267.794 135.791,268.209 136.616,268.377 137.125 C 268.545 137.634,268.887 138.320,269.137 138.650 C 269.388 138.979,269.805 139.832,270.065 140.544 C 270.325 141.256,270.687 142.014,270.870 142.228 C 271.053 142.442,271.286 142.966,271.387 143.394 C 271.488 143.821,271.841 144.534,272.170 144.978 C 272.500 145.421,272.850 146.121,272.948 146.532 C 273.045 146.943,273.395 147.643,273.725 148.086 C 274.055 148.530,274.403 149.229,274.499 149.641 C 274.594 150.052,274.935 150.855,275.255 151.425 C 275.575 151.995,275.986 152.927,276.169 153.497 C 276.351 154.067,276.710 154.803,276.966 155.133 C 277.222 155.462,277.569 156.148,277.737 156.658 C 277.905 157.167,278.320 157.992,278.659 158.491 C 278.997 158.990,279.275 159.528,279.275 159.686 C 279.275 159.845,279.620 160.615,280.042 161.399 C 280.463 162.183,280.814 162.999,280.820 163.212 C 280.826 163.426,281.180 164.126,281.606 164.767 C 282.032 165.408,282.382 166.097,282.382 166.299 C 282.383 166.500,282.719 167.199,283.129 167.853 C 283.539 168.507,283.949 169.359,284.039 169.747 C 284.129 170.135,284.493 170.880,284.848 171.402 C 285.202 171.925,285.492 172.546,285.492 172.783 C 285.492 173.021,285.842 173.766,286.269 174.440 C 286.697 175.114,287.047 175.820,287.047 176.009 C 287.047 176.198,287.338 176.782,287.694 177.307 C 288.051 177.832,288.343 178.402,288.345 178.574 C 288.347 178.745,288.686 179.552,289.099 180.366 C 289.512 181.180,289.983 182.249,290.145 182.742 C 290.308 183.234,290.604 183.772,290.802 183.937 C 291.001 184.102,291.351 184.802,291.580 185.492 C 291.810 186.183,292.159 186.882,292.358 187.047 C 292.556 187.211,292.914 187.949,293.154 188.686 C 293.394 189.423,293.750 190.210,293.946 190.436 C 294.142 190.662,294.493 191.419,294.725 192.120 C 294.958 192.821,295.351 193.627,295.599 193.912 C 295.847 194.197,296.197 194.896,296.376 195.466 C 296.554 196.036,296.919 196.711,297.185 196.966 C 297.451 197.221,297.668 197.636,297.668 197.888 C 297.668 198.140,298.076 199.155,298.574 200.144 C 299.073 201.134,299.481 202.062,299.481 202.207 C 299.482 202.352,299.767 202.890,300.116 203.404 C 300.465 203.917,300.833 204.673,300.935 205.083 C 301.036 205.493,301.381 206.179,301.701 206.606 C 302.022 207.034,302.412 207.864,302.568 208.451 C 302.724 209.038,303.066 209.795,303.329 210.135 C 303.592 210.474,303.892 211.101,303.996 211.528 C 304.100 211.956,304.449 212.655,304.772 213.083 C 305.094 213.510,305.444 214.210,305.549 214.637 C 305.654 215.065,305.999 215.764,306.317 216.192 C 306.634 216.619,307.046 217.494,307.233 218.135 C 307.419 218.776,307.776 219.592,308.026 219.948 C 308.277 220.304,308.559 220.848,308.655 221.155 C 309.127 222.677,311.082 221.463,311.543 219.362 C 311.638 218.931,312.687 216.658,313.875 214.311 C 315.062 211.965,316.105 209.723,316.191 209.329 C 316.278 208.935,316.634 208.226,316.982 207.754 C 317.331 207.281,317.617 206.701,317.617 206.465 C 317.617 206.229,317.964 205.524,318.389 204.896 C 318.814 204.269,319.164 203.570,319.166 203.342 C 319.169 203.114,319.519 202.415,319.943 201.788 C 320.368 201.161,320.718 200.456,320.721 200.221 C 320.726 199.776,324.564 191.936,324.888 191.710 C 324.990 191.639,325.256 190.964,325.479 190.211 C 325.702 189.458,326.115 188.519,326.396 188.123 C 326.678 187.727,326.993 187.061,327.096 186.642 C 327.200 186.223,327.548 185.531,327.871 185.104 C 328.193 184.676,328.543 183.977,328.648 183.549 C 328.753 183.122,329.099 182.422,329.417 181.995 C 329.735 181.567,330.079 180.810,330.181 180.311 C 330.284 179.812,330.628 179.054,330.946 178.627 C 331.264 178.199,331.610 177.500,331.715 177.073 C 331.820 176.645,332.170 175.946,332.492 175.518 C 332.815 175.091,333.164 174.391,333.269 173.964 C 333.374 173.536,333.725 172.837,334.048 172.409 C 334.372 171.982,334.716 171.207,334.812 170.687 C 334.909 170.167,335.220 169.446,335.505 169.085 C 335.789 168.723,336.197 167.930,336.411 167.322 C 336.626 166.715,336.955 166.037,337.143 165.816 C 337.331 165.595,337.687 164.890,337.935 164.249 C 338.183 163.608,338.540 162.908,338.729 162.694 C 338.918 162.481,339.266 161.635,339.503 160.816 C 339.740 159.997,340.020 159.326,340.126 159.326 C 340.365 159.326,341.192 157.626,341.192 157.134 C 341.192 156.935,341.351 156.613,341.547 156.418 C 342.029 155.936,342.746 154.518,342.746 154.047 C 342.746 153.836,342.930 153.480,343.155 153.255 C 343.380 153.030,343.798 152.177,344.084 151.358 C 344.370 150.540,344.751 149.696,344.931 149.482 C 345.110 149.268,345.459 148.569,345.707 147.927 C 345.955 147.286,346.304 146.587,346.484 146.373 C 346.664 146.159,347.014 145.460,347.261 144.819 C 347.509 144.177,347.862 143.478,348.045 143.264 C 348.229 143.051,348.575 142.273,348.815 141.535 C 349.055 140.798,349.417 140.058,349.619 139.890 C 349.821 139.723,350.062 139.181,350.155 138.686 C 350.248 138.191,350.589 137.471,350.914 137.086 C 351.238 136.700,351.632 135.908,351.789 135.325 C 351.946 134.742,352.296 133.983,352.567 133.639 C 352.837 133.294,353.187 132.537,353.344 131.955 C 353.500 131.373,353.851 130.614,354.123 130.268 C 355.590 128.403,355.601 125.892,354.154 123.536 C 353.860 123.059,353.500 122.229,353.353 121.692 C 353.206 121.154,352.800 120.293,352.450 119.777 C 352.100 119.262,351.811 118.652,351.809 118.422 C 351.806 118.193,351.456 117.492,351.032 116.865 C 350.607 116.238,350.259 115.532,350.259 115.296 C 350.259 115.060,349.982 114.492,349.643 114.032 C 349.304 113.573,348.877 112.647,348.695 111.974 C 348.512 111.302,348.167 110.560,347.928 110.327 C 347.689 110.093,347.339 109.354,347.152 108.684 C 346.964 108.014,346.660 107.408,346.476 107.337 C 346.291 107.267,345.944 106.607,345.704 105.871 C 345.463 105.136,345.064 104.339,344.816 104.101 C 344.569 103.862,344.285 103.221,344.186 102.676 C 344.086 102.130,343.735 101.276,343.404 100.777 C 343.073 100.278,342.667 99.443,342.502 98.920 C 342.337 98.397,342.039 97.834,341.840 97.669 C 341.642 97.504,341.292 96.804,341.062 96.114 C 340.833 95.423,340.483 94.724,340.285 94.560 C 340.087 94.396,339.676 93.512,339.372 92.597 C 339.067 91.682,338.715 90.933,338.590 90.933 C 338.465 90.933,338.241 90.482,338.092 89.932 C 337.944 89.382,337.550 88.528,337.216 88.036 C 336.882 87.544,336.524 86.807,336.422 86.397 C 336.319 85.988,335.996 85.317,335.703 84.906 C 335.411 84.496,335.014 83.637,334.822 83.000 C 334.630 82.362,334.251 81.525,333.980 81.140 C 333.709 80.755,333.399 80.149,333.290 79.793 C 333.182 79.437,332.871 78.830,332.599 78.444 C 332.328 78.059,331.975 77.359,331.816 76.890 C 331.657 76.420,331.298 75.707,331.017 75.305 C 330.737 74.903,330.351 74.052,330.159 73.414 C 329.967 72.776,329.591 71.939,329.323 71.555 C 329.055 71.170,328.706 70.471,328.547 70.001 C 328.387 69.532,328.038 68.833,327.769 68.447 C 327.501 68.062,327.151 67.362,326.992 66.893 C 326.833 66.423,326.472 65.716,326.191 65.320 C 325.909 64.924,325.541 64.055,325.373 63.388 C 325.205 62.722,324.981 62.176,324.876 62.176 C 324.770 62.176,324.428 61.508,324.115 60.691 C 323.803 59.875,323.396 59.029,323.213 58.813 C 323.029 58.597,322.676 57.895,322.428 57.254 C 322.180 56.613,321.824 55.913,321.637 55.699 C 321.450 55.486,321.115 54.786,320.892 54.145 C 320.669 53.504,320.132 52.293,319.699 51.453 C 319.266 50.614,318.912 49.778,318.912 49.596 C 318.912 49.415,318.816 49.227,318.699 49.180 C 318.403 49.060,316.191 44.604,315.956 43.653 C 315.849 43.225,315.600 42.695,315.401 42.474 C 315.202 42.253,314.859 41.560,314.637 40.933 C 314.416 40.306,314.066 39.606,313.860 39.378 C 313.654 39.150,313.304 38.451,313.083 37.824 C 312.862 37.197,312.517 36.503,312.318 36.282 C 312.118 36.061,311.760 35.307,311.522 34.605 C 310.621 31.950,309.303 30.694,308.802 32.012 M200.186 50.226 C 200.401 50.743,200.789 51.464,201.049 51.829 C 201.308 52.194,201.601 52.835,201.701 53.254 C 201.800 53.673,202.139 54.365,202.454 54.793 C 202.769 55.220,203.113 55.920,203.217 56.347 C 203.322 56.775,203.672 57.474,203.995 57.902 C 204.821 58.996,205.018 59.971,204.515 60.473 C 203.807 61.182,194.162 61.071,193.776 60.350 C 193.450 59.742,193.821 58.277,194.429 57.773 C 194.628 57.608,194.978 56.908,195.207 56.218 C 195.437 55.527,195.792 54.823,195.998 54.652 C 196.203 54.482,196.537 53.786,196.739 53.106 C 197.115 51.839,198.250 49.859,198.922 49.296 C 199.421 48.878,199.713 49.093,200.186 50.226 M311.786 52.324 C 311.882 52.890,312.157 53.618,312.399 53.943 C 312.640 54.268,312.966 54.825,313.122 55.181 C 313.796 56.713,314.020 57.167,314.465 57.902 C 316.090 60.580,315.583 60.881,309.436 60.881 L 304.393 60.881 304.095 60.227 C 303.846 59.681,303.882 59.457,304.312 58.867 C 304.595 58.479,305.032 57.636,305.285 56.995 C 305.537 56.354,305.889 55.654,306.067 55.440 C 306.245 55.227,306.546 54.644,306.735 54.145 C 307.334 52.561,308.907 49.360,309.186 49.154 C 309.654 48.810,311.592 51.173,311.786 52.324 M86.959 49.935 C 87.202 50.327,87.599 50.881,87.840 51.166 C 88.081 51.451,88.424 52.150,88.602 52.720 C 88.780 53.290,89.085 53.940,89.280 54.164 C 89.475 54.388,89.797 55.111,89.995 55.770 C 90.193 56.429,90.599 57.277,90.896 57.655 C 91.596 58.544,91.873 59.984,91.444 60.500 C 91.171 60.829,90.316 60.880,86.068 60.821 C 80.166 60.739,80.076 60.694,81.219 58.376 C 81.559 57.688,82.073 56.600,82.362 55.959 C 82.652 55.317,83.003 54.618,83.143 54.404 C 83.282 54.190,83.639 53.491,83.934 52.850 C 85.693 49.040,86.137 48.611,86.959 49.935 M94.797 67.130 C 95.450 67.357,95.764 67.724,96.250 68.821 C 96.591 69.592,97.049 70.402,97.269 70.622 C 97.489 70.842,97.668 71.194,97.668 71.404 C 97.668 71.814,98.400 73.360,98.696 73.575 C 98.794 73.646,99.080 74.343,99.332 75.124 C 99.584 75.905,100.008 76.850,100.275 77.224 C 100.941 78.159,101.227 80.031,100.750 80.333 C 100.143 80.718,71.832 80.633,71.591 80.246 C 71.284 79.753,71.471 78.763,72.142 77.332 C 72.476 76.619,72.939 75.628,73.171 75.130 C 73.402 74.631,73.751 73.931,73.946 73.575 C 74.140 73.219,74.486 72.519,74.713 72.021 C 74.940 71.522,75.232 70.939,75.361 70.725 C 75.489 70.512,75.803 69.834,76.057 69.220 C 76.310 68.605,76.856 67.818,77.269 67.471 L 78.019 66.839 85.992 66.839 C 91.212 66.839,94.252 66.940,94.797 67.130 M208.512 67.710 C 208.937 68.117,209.359 68.758,209.451 69.135 C 209.542 69.511,209.893 70.241,210.231 70.758 C 210.569 71.274,210.926 72.128,211.025 72.654 C 211.124 73.181,211.474 73.932,211.803 74.323 C 212.132 74.715,212.481 75.377,212.578 75.795 C 212.675 76.212,213.040 76.980,213.389 77.500 C 213.851 78.187,214.002 78.718,213.942 79.443 L 213.860 80.440 199.321 80.507 C 187.693 80.561,184.726 80.507,184.504 80.240 C 184.167 79.834,184.565 77.800,185.097 77.206 C 185.290 76.990,185.651 76.289,185.899 75.648 C 186.147 75.006,186.505 74.299,186.695 74.076 C 186.885 73.853,187.167 73.271,187.323 72.781 C 187.959 70.781,189.714 67.593,190.381 67.224 C 190.943 66.915,192.521 66.859,199.400 66.909 L 207.739 66.969 208.512 67.710 M318.135 67.067 C 318.553 67.180,319.034 67.698,319.493 68.530 C 320.695 70.709,321.232 71.873,321.238 72.310 C 321.241 72.540,321.479 73.028,321.767 73.394 C 322.055 73.760,322.457 74.529,322.659 75.103 C 322.862 75.677,323.266 76.471,323.558 76.869 C 324.372 77.976,324.677 79.998,324.078 80.319 C 323.260 80.757,295.207 80.649,294.839 80.206 C 294.480 79.773,294.705 78.646,295.335 77.720 C 295.577 77.364,295.906 76.688,296.065 76.219 C 296.224 75.750,296.576 75.050,296.848 74.665 C 297.119 74.279,297.427 73.672,297.532 73.316 C 297.637 72.960,297.992 72.176,298.321 71.574 C 298.650 70.973,298.998 70.121,299.095 69.682 C 299.191 69.243,299.708 68.424,300.243 67.862 L 301.215 66.839 309.351 66.865 C 313.826 66.879,317.778 66.970,318.135 67.067 M105.084 87.176 C 105.292 87.461,105.531 87.986,105.615 88.342 C 105.699 88.698,106.037 89.353,106.367 89.796 C 106.697 90.240,107.049 90.939,107.148 91.351 C 107.248 91.762,107.549 92.413,107.818 92.798 C 108.087 93.183,108.464 94.020,108.656 94.658 C 108.848 95.295,109.253 96.166,109.557 96.592 C 110.341 97.694,110.510 98.779,109.979 99.310 C 109.584 99.706,107.625 99.741,86.127 99.741 L 62.706 99.741 62.303 99.125 C 61.869 98.463,62.032 97.788,62.968 96.373 C 63.203 96.017,63.477 95.389,63.577 94.978 C 63.677 94.566,64.028 93.867,64.358 93.423 C 64.688 92.980,65.038 92.280,65.135 91.869 C 65.233 91.457,65.583 90.758,65.914 90.314 C 66.245 89.871,66.595 89.065,66.692 88.524 C 67.068 86.418,66.082 86.514,86.614 86.590 C 104.366 86.657,104.712 86.668,105.084 87.176 M217.262 86.793 C 218.012 87.055,220.466 91.454,220.466 92.537 C 220.466 92.756,220.702 93.235,220.990 93.601 C 221.278 93.967,221.689 94.764,221.904 95.372 C 222.118 95.980,222.450 96.658,222.642 96.878 C 223.479 97.843,223.631 98.451,223.199 99.111 L 222.786 99.741 199.223 99.741 L 175.660 99.741 175.255 99.123 C 174.844 98.497,175.345 96.373,175.903 96.373 C 176.013 96.373,176.364 95.674,176.684 94.819 C 177.004 93.964,177.358 93.264,177.472 93.264 C 177.585 93.264,177.930 92.506,178.238 91.580 C 178.547 90.654,178.901 89.896,179.027 89.896 C 179.152 89.896,179.373 89.459,179.517 88.925 C 179.867 87.632,180.447 86.848,181.155 86.711 C 182.462 86.459,216.525 86.536,217.262 86.793 M327.776 86.760 C 328.400 86.997,329.996 89.851,330.569 91.754 C 330.727 92.277,331.018 92.840,331.217 93.004 C 331.415 93.169,331.768 93.877,332.000 94.576 C 332.233 95.276,332.540 95.921,332.684 96.010 C 333.408 96.457,333.944 98.454,333.516 99.107 L 333.101 99.741 309.562 99.741 L 286.022 99.741 285.619 99.125 C 285.221 98.518,285.499 97.150,286.020 97.150 C 286.123 97.150,286.467 96.454,286.785 95.604 C 287.103 94.753,287.517 93.929,287.706 93.772 C 287.895 93.616,288.130 93.120,288.229 92.670 C 288.328 92.221,288.676 91.429,289.003 90.911 C 289.330 90.393,289.722 89.508,289.874 88.945 C 290.142 87.948,290.922 87.000,291.710 86.711 C 292.375 86.468,327.132 86.515,327.776 86.760 M113.556 105.985 C 114.089 106.228,115.285 108.079,115.285 108.661 C 115.285 108.762,115.449 109.010,115.650 109.211 C 115.851 109.412,116.226 110.132,116.482 110.811 C 116.739 111.491,117.097 112.198,117.276 112.383 C 117.456 112.567,117.781 113.315,117.998 114.045 C 118.214 114.774,118.560 115.557,118.766 115.785 C 119.537 116.637,119.873 118.655,119.311 119.066 C 118.628 119.565,53.659 119.618,53.161 119.119 C 52.664 118.623,52.798 117.431,53.497 116.117 C 53.854 115.448,54.145 114.770,54.145 114.611 C 54.145 114.451,54.422 113.913,54.761 113.413 C 55.100 112.914,55.514 112.089,55.683 111.580 C 55.851 111.071,56.203 110.380,56.466 110.046 C 56.730 109.711,57.070 108.972,57.224 108.403 C 57.539 107.231,57.880 106.739,58.801 106.126 C 59.600 105.594,112.400 105.459,113.556 105.985 M226.796 106.250 C 227.181 106.553,227.785 107.453,228.137 108.249 C 228.489 109.046,228.869 109.760,228.981 109.836 C 229.093 109.912,229.391 110.615,229.642 111.399 C 229.893 112.183,230.253 112.999,230.442 113.212 C 230.631 113.426,230.990 114.126,231.241 114.767 C 231.491 115.408,231.909 116.211,232.169 116.550 C 232.707 117.253,232.796 118.655,232.332 119.119 C 232.002 119.449,167.065 119.600,166.213 119.273 C 165.494 118.997,165.691 117.141,166.580 115.803 C 167.007 115.162,167.356 114.456,167.356 114.234 C 167.357 114.013,167.651 113.433,168.011 112.946 C 168.370 112.459,168.787 111.591,168.937 111.017 C 169.087 110.443,169.492 109.539,169.838 109.008 C 170.184 108.477,170.466 107.856,170.466 107.628 C 170.466 107.400,170.807 106.873,171.224 106.457 L 171.981 105.699 199.038 105.699 L 226.096 105.699 226.796 106.250 M337.371 106.214 C 337.731 106.496,338.103 107.041,338.199 107.424 C 338.295 107.806,338.600 108.406,338.875 108.757 C 339.151 109.107,339.506 109.873,339.663 110.459 C 339.821 111.045,340.174 111.838,340.447 112.221 C 340.720 112.605,341.109 113.389,341.312 113.963 C 341.514 114.537,341.919 115.332,342.211 115.729 C 343.030 116.842,343.213 118.782,342.534 119.146 C 342.150 119.351,332.739 119.414,309.147 119.366 L 276.295 119.301 276.217 118.231 C 276.166 117.530,276.276 117.026,276.536 116.765 C 276.754 116.547,277.176 115.717,277.475 114.920 C 277.773 114.123,278.116 113.472,278.237 113.472 C 278.358 113.472,278.596 113.034,278.765 112.500 C 278.934 111.966,279.301 111.128,279.581 110.639 C 279.861 110.150,280.267 109.218,280.484 108.567 C 280.701 107.916,281.240 107.005,281.682 106.541 L 282.485 105.699 309.601 105.699 C 336.253 105.699,336.729 105.708,337.371 106.214 M123.581 125.907 C 123.951 126.493,123.883 127.535,123.432 128.179 C 123.211 128.494,122.809 129.398,122.537 130.186 C 122.266 130.975,121.864 131.800,121.644 132.020 C 121.424 132.240,121.244 132.593,121.244 132.803 C 121.244 133.274,120.526 134.692,120.044 135.174 C 119.849 135.369,119.689 135.702,119.689 135.912 C 119.689 136.824,118.894 137.804,117.940 138.069 C 116.192 138.555,55.327 138.435,54.293 137.945 C 53.523 137.579,52.598 136.211,52.586 135.419 C 52.583 135.245,52.234 134.591,51.809 133.964 C 51.384 133.337,51.036 132.624,51.036 132.379 C 51.036 132.135,50.818 131.657,50.552 131.317 C 50.285 130.978,49.694 129.768,49.239 128.629 L 48.411 126.558 49.093 125.971 L 49.776 125.383 86.555 125.451 C 118.917 125.510,123.365 125.565,123.581 125.907 M236.277 125.821 C 236.629 126.059,236.960 126.286,237.012 126.326 C 237.144 126.427,235.502 130.357,235.129 130.829 C 234.700 131.373,234.267 132.375,234.067 133.290 C 233.974 133.718,233.725 134.258,233.515 134.492 C 233.305 134.725,232.919 135.478,232.659 136.163 C 231.754 138.549,234.813 138.358,198.797 138.280 C 163.202 138.204,166.376 138.396,165.806 136.282 C 165.667 135.764,165.326 135.096,165.048 134.798 C 164.770 134.500,164.463 133.832,164.366 133.314 C 164.268 132.796,163.855 131.879,163.446 131.277 C 163.038 130.674,162.702 130.003,162.699 129.786 C 162.696 129.568,162.510 129.127,162.285 128.806 C 161.301 127.401,161.297 126.038,162.277 125.642 C 163.452 125.168,235.566 125.341,236.277 125.821 M347.014 125.900 C 347.594 126.540,347.426 127.550,346.515 128.892 C 346.152 129.427,345.855 130.073,345.855 130.327 C 345.855 130.581,345.573 131.124,345.229 131.533 C 344.885 131.942,344.521 132.713,344.421 133.246 C 344.321 133.778,343.963 134.622,343.626 135.119 C 343.288 135.617,342.945 136.283,342.863 136.600 C 342.408 138.369,345.618 138.212,309.850 138.212 L 277.754 138.212 276.960 137.452 C 276.523 137.033,276.166 136.560,276.166 136.400 C 276.166 136.241,275.758 135.301,275.260 134.312 C 274.762 133.322,274.354 132.325,274.353 132.096 C 274.353 131.866,274.044 131.225,273.668 130.671 C 272.368 128.756,271.885 126.571,272.612 125.894 C 273.471 125.094,346.290 125.100,347.014 125.900 M114.875 144.705 C 115.307 145.136,115.028 146.185,114.106 147.594 C 113.900 147.910,113.542 148.726,113.311 149.408 C 113.081 150.090,112.680 150.946,112.422 151.311 C 112.163 151.676,111.871 152.297,111.772 152.691 C 111.415 154.111,109.650 156.399,108.776 156.574 C 107.698 156.789,65.444 156.783,63.868 156.567 C 62.664 156.402,62.621 156.364,61.883 154.818 C 61.469 153.949,60.969 152.947,60.772 152.591 C 60.576 152.234,60.225 151.535,59.992 151.036 C 59.759 150.538,59.416 149.838,59.229 149.482 C 57.132 145.489,57.019 145.158,57.565 144.611 C 58.098 144.078,114.340 144.170,114.875 144.705 M227.936 144.732 C 228.249 145.291,227.963 146.252,227.109 147.510 C 226.733 148.064,226.425 148.712,226.425 148.950 C 226.425 149.187,226.136 149.772,225.783 150.251 C 225.431 150.729,224.961 151.742,224.740 152.503 C 224.519 153.264,224.234 153.886,224.107 153.886 C 223.979 153.886,223.803 154.207,223.716 154.598 C 223.628 154.990,223.334 155.602,223.062 155.959 L 222.569 156.606 200.073 156.679 C 174.914 156.761,175.865 156.817,174.932 155.177 C 173.770 153.135,173.578 152.729,173.577 152.303 C 173.576 152.074,173.298 151.477,172.959 150.978 C 172.620 150.479,172.206 149.654,172.038 149.145 C 171.870 148.636,171.523 147.949,171.266 147.620 C 170.509 146.645,170.101 145.129,170.475 144.679 C 170.988 144.061,227.589 144.113,227.936 144.732 M338.327 144.671 C 338.712 145.135,338.169 146.878,337.190 148.320 C 336.826 148.856,336.528 149.496,336.528 149.742 C 336.528 149.988,336.282 150.502,335.981 150.885 C 335.680 151.268,335.272 152.119,335.074 152.777 C 334.590 154.384,333.233 156.449,332.549 156.618 C 331.665 156.836,286.701 156.628,286.256 156.404 C 285.880 156.215,283.979 152.493,283.379 150.772 C 283.231 150.347,283.019 150.000,282.908 150.000 C 282.797 150.000,282.444 149.301,282.124 148.446 C 281.805 147.591,281.450 146.891,281.336 146.891 C 280.909 146.891,280.502 145.083,280.837 144.679 C 281.306 144.114,337.858 144.106,338.327 144.671 M105.381 162.712 C 106.351 163.051,106.587 163.573,106.112 164.327 C 105.915 164.640,105.668 165.188,105.563 165.544 C 105.458 165.900,105.151 166.507,104.880 166.891 C 104.609 167.276,104.235 168.092,104.048 168.705 C 103.862 169.317,103.399 170.272,103.020 170.826 C 102.642 171.381,102.332 171.923,102.332 172.032 C 102.332 172.696,100.138 172.797,86.296 172.767 C 70.353 172.733,70.507 172.744,69.940 171.632 C 69.723 171.205,69.227 170.320,68.839 169.666 C 68.452 169.013,68.135 168.340,68.135 168.172 C 68.135 168.003,67.847 167.410,67.495 166.853 C 66.391 165.103,66.117 163.486,66.827 162.911 C 67.528 162.344,103.787 162.157,105.381 162.712 M218.539 162.700 C 219.363 163.013,219.322 164.090,218.424 165.754 C 218.140 166.280,217.725 167.118,217.501 167.617 C 217.277 168.115,216.925 168.815,216.717 169.171 C 216.510 169.527,216.059 170.413,215.714 171.140 C 215.156 172.319,214.981 172.479,214.086 172.627 C 212.758 172.846,184.763 172.796,183.966 172.573 C 183.414 172.418,182.480 171.099,181.648 169.301 C 181.517 169.016,181.222 168.374,180.995 167.876 C 180.767 167.377,180.467 166.794,180.327 166.580 C 178.839 164.294,178.756 163.096,180.052 162.619 C 180.797 162.345,217.810 162.423,218.539 162.700 M328.733 162.599 C 329.972 162.847,330.188 163.508,329.406 164.660 C 329.049 165.186,328.754 165.804,328.752 166.034 C 328.749 166.263,328.399 166.964,327.975 167.591 C 327.550 168.218,327.202 168.911,327.202 169.131 C 327.202 169.352,326.929 169.946,326.596 170.452 C 326.262 170.959,325.791 171.697,325.549 172.093 L 325.107 172.814 309.757 172.741 C 292.733 172.660,293.261 172.716,292.914 170.980 C 292.824 170.531,292.512 169.829,292.221 169.420 C 291.929 169.011,291.559 168.292,291.397 167.822 C 291.236 167.353,290.827 166.548,290.490 166.034 C 289.554 164.609,289.436 163.383,290.185 162.858 C 290.808 162.422,326.641 162.181,328.733 162.599 M98.440 178.906 C 98.753 179.219,97.717 182.630,97.081 183.380 C 96.881 183.616,96.565 184.216,96.379 184.715 C 96.193 185.214,95.779 186.030,95.459 186.528 C 95.139 187.027,94.718 187.780,94.524 188.201 C 94.029 189.275,93.671 189.325,86.399 189.338 C 78.781 189.351,78.374 189.270,77.536 187.565 C 77.221 186.924,76.835 186.250,76.678 186.069 C 76.521 185.887,76.166 185.079,75.888 184.273 C 75.611 183.468,75.211 182.617,75.000 182.383 C 74.314 181.625,74.000 179.207,74.536 178.814 C 75.131 178.379,98.001 178.467,98.440 178.906 M211.111 178.968 C 211.443 179.506,210.907 181.903,210.232 182.902 C 209.894 183.400,209.537 184.158,209.438 184.585 C 209.339 185.013,209.058 185.596,208.813 185.881 C 208.569 186.166,208.114 186.939,207.803 187.598 C 206.983 189.339,206.453 189.437,198.391 189.334 C 191.450 189.245,190.674 189.105,190.674 187.949 C 190.674 187.778,190.368 187.186,189.994 186.635 C 189.619 186.084,189.150 185.170,188.950 184.604 C 188.751 184.038,188.415 183.385,188.205 183.152 C 187.383 182.245,186.816 179.086,187.421 178.787 C 188.284 178.361,210.842 178.534,211.111 178.968 M321.761 178.911 C 321.954 179.104,321.965 179.396,321.795 179.818 C 321.657 180.160,321.349 181.082,321.111 181.865 C 320.873 182.649,320.524 183.465,320.335 183.679 C 320.146 183.892,319.783 184.592,319.528 185.233 C 319.104 186.302,318.484 187.384,317.527 188.731 C 317.178 189.222,316.812 189.253,310.352 189.333 C 302.188 189.435,301.679 189.329,300.793 187.358 C 300.492 186.688,300.130 185.965,299.988 185.751 C 299.847 185.538,299.557 184.955,299.345 184.456 C 299.133 183.957,298.684 183.025,298.347 182.383 C 297.527 180.821,297.309 179.103,297.887 178.758 C 298.507 178.388,321.385 178.535,321.761 178.911 M90.149 195.538 L 90.718 195.999 90.155 197.676 C 89.846 198.598,89.431 199.533,89.233 199.754 C 89.036 199.975,88.711 200.617,88.512 201.181 C 88.149 202.210,86.711 204.520,86.260 204.799 C 85.979 204.973,84.976 203.433,84.975 202.825 C 84.975 202.598,84.759 202.217,84.496 201.979 C 84.233 201.742,83.863 201.053,83.674 200.450 C 83.484 199.846,83.138 199.119,82.906 198.834 C 81.879 197.578,81.609 196.148,82.272 195.485 C 82.908 194.849,89.352 194.893,90.149 195.538 M203.234 195.682 C 203.686 196.372,203.431 197.482,202.520 198.788 C 202.240 199.190,201.853 200.041,201.661 200.679 C 201.470 201.317,201.075 202.172,200.786 202.579 C 200.496 202.985,200.259 203.420,200.259 203.545 C 200.259 204.843,198.689 205.064,198.296 203.822 C 198.195 203.501,197.853 202.889,197.536 202.461 C 197.220 202.034,196.892 201.318,196.809 200.872 C 196.725 200.425,196.360 199.622,195.997 199.087 C 195.634 198.552,195.336 197.985,195.335 197.827 C 195.334 197.668,195.171 197.228,194.973 196.847 C 194.649 196.227,194.664 196.100,195.114 195.617 C 195.929 194.741,202.653 194.796,203.234 195.682 M313.332 195.333 C 314.070 195.613,314.523 196.411,314.036 196.573 C 313.868 196.629,313.731 196.832,313.731 197.023 C 313.731 197.215,313.348 198.109,312.881 199.010 C 312.413 199.911,311.886 201.114,311.709 201.684 C 310.845 204.466,309.126 205.235,308.320 203.199 C 308.090 202.618,307.767 201.981,307.603 201.784 C 307.439 201.586,307.176 200.945,307.019 200.358 C 306.862 199.771,306.520 199.013,306.258 198.674 C 305.257 197.376,305.049 195.797,305.810 195.276 C 306.226 194.991,312.558 195.039,313.332 195.333 " stroke="none" fill="#693a97" fill-rule="evenodd"></path><path id="path1" d="M0.000 129.534 L 0.000 259.067 200.000 259.067 L 400.000 259.067 400.000 129.534 L 400.000 0.000 200.000 0.000 L 0.000 0.000 0.000 129.534 M87.311 32.942 C 87.878 33.819,88.342 34.704,88.342 34.909 C 88.342 35.115,88.589 35.630,88.891 36.054 C 89.193 36.478,89.597 37.347,89.789 37.985 C 89.981 38.623,90.358 39.460,90.625 39.844 C 90.893 40.229,91.243 40.928,91.402 41.397 C 91.561 41.867,91.910 42.566,92.179 42.952 C 92.447 43.337,92.797 44.037,92.956 44.506 C 93.115 44.976,93.468 45.675,93.741 46.061 C 94.013 46.446,94.317 47.137,94.417 47.595 C 94.516 48.053,94.855 48.811,95.170 49.279 C 95.485 49.747,95.949 50.674,96.201 51.340 C 96.453 52.005,96.828 52.690,97.034 52.861 C 97.241 53.032,97.409 53.310,97.409 53.479 C 97.409 53.648,97.817 54.596,98.315 55.585 C 98.814 56.574,99.222 57.572,99.222 57.802 C 99.222 58.032,99.436 58.498,99.696 58.838 C 99.956 59.178,100.374 59.981,100.624 60.622 C 100.875 61.263,101.227 61.962,101.406 62.176 C 101.586 62.390,101.936 63.089,102.183 63.731 C 102.431 64.372,102.843 65.246,103.099 65.674 C 103.355 66.101,103.712 66.917,103.892 67.487 C 104.073 68.057,104.430 68.793,104.686 69.122 C 104.942 69.452,105.292 70.151,105.463 70.677 C 105.635 71.202,105.984 71.902,106.241 72.231 C 106.497 72.561,106.844 73.260,107.013 73.786 C 107.181 74.311,107.467 74.916,107.648 75.130 C 107.829 75.343,108.173 76.101,108.411 76.813 C 108.650 77.526,108.988 78.284,109.162 78.497 C 109.336 78.711,109.630 79.236,109.816 79.663 C 110.002 80.091,110.313 80.732,110.509 81.088 C 110.888 81.780,111.361 82.766,112.310 84.845 C 112.635 85.557,113.729 87.839,114.741 89.915 C 115.753 91.991,116.580 93.813,116.580 93.963 C 116.580 94.114,116.758 94.384,116.974 94.564 C 117.191 94.744,117.495 95.393,117.649 96.008 C 117.804 96.622,118.210 97.502,118.551 97.965 C 118.892 98.427,119.171 98.998,119.171 99.234 C 119.171 99.470,119.519 100.176,119.943 100.803 C 120.368 101.430,120.718 102.103,120.721 102.299 C 120.723 102.494,121.061 103.310,121.471 104.112 C 123.122 107.342,125.648 112.590,125.648 112.790 C 125.648 112.907,125.895 113.350,126.197 113.774 C 126.499 114.198,126.903 115.067,127.095 115.705 C 127.287 116.343,127.673 117.187,127.954 117.580 C 128.234 117.974,128.547 118.638,128.651 119.057 C 128.754 119.476,129.103 120.168,129.425 120.596 C 129.748 121.023,130.097 121.723,130.202 122.150 C 130.307 122.578,130.652 123.277,130.968 123.705 C 132.146 125.298,132.191 128.245,131.061 129.831 C 130.785 130.219,130.389 131.017,130.181 131.606 C 129.974 132.195,129.586 132.990,129.320 133.372 C 129.054 133.754,128.706 134.451,128.547 134.921 C 128.387 135.390,128.033 136.090,127.759 136.475 C 127.485 136.861,127.141 137.610,126.995 138.140 C 126.849 138.670,126.501 139.428,126.221 139.824 C 125.941 140.220,125.631 140.917,125.532 141.374 C 125.434 141.830,125.125 142.493,124.847 142.847 C 124.569 143.200,124.166 143.987,123.951 144.595 C 123.737 145.202,123.393 145.886,123.187 146.114 C 122.980 146.342,122.630 147.047,122.407 147.681 C 122.185 148.315,121.036 150.758,119.854 153.109 C 118.672 155.460,117.617 157.733,117.511 158.161 C 117.404 158.588,117.154 159.118,116.956 159.339 C 116.757 159.560,116.419 160.235,116.206 160.840 C 115.993 161.444,115.651 162.107,115.445 162.312 C 115.240 162.517,114.864 163.241,114.609 163.920 C 114.354 164.600,114.069 165.214,113.974 165.285 C 113.643 165.535,112.953 167.078,112.953 167.569 C 112.953 167.842,112.737 168.343,112.473 168.683 C 112.209 169.022,111.852 169.730,111.681 170.256 C 111.510 170.781,111.160 171.481,110.904 171.810 C 110.648 172.140,110.298 172.839,110.127 173.365 C 109.955 173.890,109.600 174.594,109.337 174.928 C 109.074 175.263,108.723 176.057,108.558 176.693 C 108.393 177.329,108.026 178.175,107.741 178.572 C 107.457 178.969,107.053 179.779,106.844 180.372 C 106.634 180.966,106.294 181.637,106.088 181.865 C 105.882 182.093,105.538 182.777,105.323 183.385 C 105.109 183.992,104.698 184.789,104.410 185.155 C 104.122 185.522,103.886 186.081,103.886 186.398 C 103.886 186.715,103.609 187.383,103.270 187.882 C 102.931 188.381,102.517 189.206,102.349 189.715 C 102.181 190.225,101.835 190.911,101.581 191.240 C 101.327 191.570,100.980 192.247,100.810 192.746 C 100.640 193.245,100.232 194.061,99.904 194.560 C 99.577 195.058,99.232 195.855,99.138 196.330 C 99.045 196.805,98.730 197.529,98.438 197.938 C 98.147 198.347,97.778 199.066,97.619 199.535 C 97.460 200.005,97.110 200.704,96.842 201.090 C 96.574 201.475,96.222 202.175,96.060 202.644 C 95.899 203.113,95.506 203.905,95.187 204.404 C 94.868 204.903,94.523 205.718,94.420 206.215 C 94.316 206.712,93.965 207.470,93.639 207.899 C 93.312 208.328,92.960 209.028,92.856 209.456 C 92.752 209.883,92.403 210.551,92.081 210.939 C 91.759 211.328,91.414 212.027,91.315 212.494 C 91.217 212.960,90.905 213.593,90.624 213.900 C 90.342 214.207,90.001 214.952,89.865 215.555 C 89.730 216.158,89.396 216.935,89.125 217.280 C 88.853 217.625,88.489 218.336,88.317 218.858 C 87.954 219.959,86.507 222.107,86.135 222.098 C 85.995 222.095,85.665 221.639,85.401 221.085 C 85.136 220.531,84.772 219.903,84.591 219.689 C 84.410 219.475,84.124 218.871,83.956 218.345 C 83.787 217.820,83.445 217.120,83.194 216.791 C 82.944 216.461,82.537 215.647,82.289 214.982 C 82.041 214.316,81.678 213.639,81.483 213.477 C 81.288 213.315,81.051 212.726,80.957 212.168 C 80.863 211.610,80.448 210.655,80.035 210.046 C 79.622 209.436,79.282 208.751,79.279 208.523 C 79.277 208.296,78.927 207.596,78.502 206.969 C 78.077 206.342,77.728 205.641,77.725 205.412 C 77.722 205.182,77.434 204.573,77.084 204.057 C 76.734 203.541,76.329 202.680,76.183 202.143 C 76.037 201.605,75.642 200.758,75.305 200.259 C 74.968 199.760,74.609 199.016,74.508 198.604 C 74.407 198.193,74.055 197.494,73.725 197.050 C 73.395 196.606,73.044 195.903,72.945 195.487 C 72.847 195.071,72.540 194.443,72.265 194.093 C 71.989 193.742,71.636 192.983,71.481 192.406 C 71.325 191.829,70.917 190.943,70.573 190.437 C 70.229 189.931,69.948 189.340,69.947 189.124 C 69.946 188.908,69.597 188.206,69.171 187.565 C 68.745 186.924,68.396 186.238,68.395 186.042 C 68.394 185.846,68.059 185.088,67.649 184.358 C 67.240 183.628,66.825 182.695,66.729 182.283 C 66.632 181.872,66.283 181.172,65.953 180.729 C 65.623 180.285,65.273 179.586,65.176 179.174 C 65.078 178.763,64.726 178.064,64.393 177.620 C 64.060 177.176,63.709 176.443,63.613 175.989 C 63.517 175.536,63.276 175.031,63.078 174.867 C 62.880 174.702,62.537 173.944,62.315 173.181 C 62.093 172.418,61.741 171.622,61.531 171.413 C 61.322 171.203,60.907 170.380,60.608 169.583 C 60.310 168.787,59.967 168.135,59.846 168.135 C 59.725 168.135,59.487 167.698,59.318 167.163 C 59.148 166.629,58.747 165.725,58.426 165.155 C 58.105 164.585,57.694 163.653,57.514 163.083 C 57.333 162.513,56.986 161.856,56.743 161.622 C 56.500 161.389,56.148 160.649,55.960 159.979 C 55.772 159.309,55.468 158.703,55.284 158.633 C 55.100 158.562,54.752 157.910,54.511 157.184 C 54.270 156.459,53.869 155.507,53.621 155.070 C 53.373 154.632,52.966 153.721,52.716 153.044 C 52.466 152.367,52.175 151.813,52.069 151.813 C 51.963 151.813,51.615 151.114,51.295 150.259 C 50.976 149.404,50.621 148.705,50.507 148.705 C 50.393 148.705,50.165 148.267,50.002 147.733 C 49.714 146.794,48.484 144.073,47.747 142.746 C 47.550 142.390,47.203 141.690,46.978 141.192 C 46.753 140.693,46.403 139.994,46.201 139.637 C 45.999 139.281,45.652 138.582,45.431 138.083 C 45.209 137.584,44.751 136.593,44.412 135.881 C 44.072 135.168,43.623 134.177,43.414 133.679 C 43.205 133.180,42.855 132.481,42.638 132.124 C 42.420 131.768,42.057 131.069,41.832 130.570 C 41.607 130.071,41.190 129.255,40.904 128.756 C 40.230 127.577,40.340 125.506,41.131 124.501 C 41.433 124.116,41.818 123.385,41.986 122.876 C 42.154 122.367,42.560 121.554,42.889 121.070 C 43.217 120.586,43.567 119.815,43.666 119.357 C 43.766 118.898,44.068 118.210,44.338 117.828 C 44.608 117.446,45.005 116.635,45.220 116.027 C 45.434 115.419,45.780 114.734,45.988 114.504 C 46.196 114.274,46.502 113.685,46.669 113.196 C 46.835 112.706,47.200 111.977,47.480 111.575 C 47.760 111.172,48.147 110.321,48.339 109.683 C 48.530 109.046,48.925 108.191,49.214 107.784 C 49.504 107.377,49.741 106.930,49.741 106.790 C 49.741 106.650,50.499 105.047,51.425 103.228 C 52.351 101.410,53.109 99.722,53.109 99.478 C 53.109 99.233,53.324 98.756,53.587 98.416 C 53.849 98.076,54.273 97.244,54.529 96.567 C 54.784 95.891,55.079 95.337,55.185 95.337 C 55.291 95.337,55.639 94.637,55.959 93.782 C 56.278 92.927,56.634 92.228,56.750 92.228 C 56.865 92.228,57.040 91.966,57.138 91.645 C 57.236 91.324,57.769 90.107,58.321 88.940 C 58.874 87.773,59.326 86.655,59.326 86.455 C 59.326 86.254,59.541 85.896,59.804 85.658 C 60.067 85.420,60.437 84.732,60.627 84.128 C 60.816 83.525,61.173 82.798,61.418 82.513 C 61.664 82.228,62.046 81.453,62.268 80.790 C 62.489 80.127,62.909 79.195,63.200 78.717 C 63.491 78.240,63.732 77.617,63.737 77.332 C 63.741 77.047,64.091 76.356,64.515 75.796 C 64.938 75.236,65.288 74.537,65.292 74.241 C 65.296 73.946,65.646 73.247,66.069 72.687 C 66.493 72.127,66.839 71.454,66.839 71.192 C 66.839 70.929,67.124 70.280,67.471 69.748 C 67.819 69.217,68.184 68.433,68.282 68.005 C 68.381 67.578,68.732 66.865,69.062 66.421 C 69.392 65.978,69.741 65.278,69.839 64.867 C 69.936 64.456,70.276 63.769,70.593 63.342 C 70.910 62.915,71.253 62.273,71.356 61.917 C 71.547 61.259,72.023 60.237,72.683 59.067 C 72.885 58.711,73.052 58.245,73.054 58.031 C 73.057 57.817,73.408 57.118,73.834 56.477 C 74.260 55.835,74.610 55.136,74.611 54.922 C 74.613 54.709,74.962 54.009,75.389 53.368 C 75.815 52.727,76.165 52.027,76.166 51.813 C 76.167 51.600,76.380 51.075,76.640 50.648 C 76.900 50.220,77.329 49.288,77.594 48.575 C 77.859 47.863,78.281 47.010,78.531 46.681 C 78.781 46.351,79.124 45.665,79.292 45.156 C 79.460 44.647,79.874 43.822,80.213 43.322 C 80.552 42.823,80.829 42.273,80.829 42.099 C 80.829 41.925,81.164 41.154,81.573 40.386 C 81.982 39.618,82.396 38.623,82.494 38.175 C 82.592 37.726,82.899 37.154,83.176 36.903 C 83.454 36.652,83.809 35.972,83.964 35.393 C 84.120 34.814,84.528 34.008,84.870 33.601 C 85.212 33.195,85.492 32.661,85.492 32.415 C 85.492 32.031,85.944 31.347,86.197 31.347 C 86.243 31.347,86.745 32.065,87.311 32.942 M199.880 31.930 C 200.059 32.535,201.358 35.396,201.967 36.528 C 202.158 36.885,202.505 37.584,202.738 38.083 C 202.971 38.582,203.321 39.281,203.516 39.637 C 203.935 40.405,204.516 41.617,205.318 43.394 C 206.520 46.061,208.139 49.366,208.426 49.741 C 208.589 49.955,208.877 50.538,209.066 51.036 C 209.493 52.163,211.102 55.693,211.429 56.218 C 211.562 56.431,211.906 57.131,212.194 57.772 C 212.482 58.413,212.831 59.113,212.970 59.326 C 213.109 59.540,213.396 60.123,213.607 60.622 C 213.818 61.120,214.273 62.111,214.617 62.824 C 214.962 63.536,215.388 64.508,215.564 64.983 C 215.740 65.458,216.016 65.983,216.177 66.149 C 216.339 66.315,216.680 67.007,216.937 67.686 C 217.194 68.365,217.553 69.070,217.735 69.253 C 217.917 69.435,218.152 69.870,218.257 70.219 C 218.362 70.569,218.737 71.380,219.090 72.021 C 219.444 72.662,219.910 73.711,220.127 74.352 C 220.343 74.994,220.673 75.693,220.860 75.907 C 221.047 76.120,221.403 76.820,221.651 77.461 C 221.898 78.102,222.248 78.802,222.428 79.016 C 222.607 79.229,222.959 79.929,223.210 80.570 C 223.460 81.211,223.865 81.997,224.109 82.316 C 224.353 82.636,224.633 83.326,224.732 83.849 C 224.830 84.373,225.177 85.161,225.504 85.600 C 225.831 86.040,226.178 86.735,226.275 87.147 C 226.373 87.558,226.722 88.258,227.052 88.701 C 227.382 89.145,227.734 89.850,227.833 90.269 C 227.932 90.688,228.249 91.362,228.538 91.766 C 228.826 92.171,229.181 92.936,229.327 93.466 C 229.473 93.996,229.817 94.745,230.091 95.131 C 230.365 95.517,230.719 96.216,230.878 96.685 C 231.037 97.155,231.387 97.854,231.655 98.240 C 231.924 98.625,232.273 99.325,232.433 99.794 C 232.592 100.264,232.924 100.939,233.171 101.295 C 233.418 101.652,233.773 102.468,233.959 103.109 C 234.145 103.750,234.558 104.624,234.875 105.052 C 235.192 105.479,235.538 106.179,235.643 106.606 C 235.748 107.034,236.096 107.733,236.416 108.161 C 236.737 108.588,237.131 109.433,237.292 110.039 C 237.453 110.644,237.687 111.140,237.813 111.140 C 237.938 111.140,238.290 111.889,238.595 112.804 C 238.899 113.720,239.310 114.603,239.508 114.767 C 239.706 114.931,240.056 115.631,240.285 116.321 C 240.514 117.012,240.864 117.712,241.063 117.876 C 241.262 118.041,241.561 118.589,241.727 119.094 C 241.894 119.599,242.366 120.651,242.777 121.431 C 243.187 122.212,243.523 123.054,243.523 123.302 C 243.523 123.551,243.739 123.949,244.002 124.187 C 245.200 125.271,245.236 127.945,244.072 129.424 C 243.770 129.808,243.523 130.237,243.523 130.379 C 243.523 130.520,243.188 131.350,242.779 132.222 C 242.370 133.095,241.828 134.304,241.574 134.909 C 241.320 135.515,241.016 136.010,240.898 136.010 C 240.780 136.010,240.607 136.331,240.513 136.723 C 240.298 137.617,239.680 138.855,239.215 139.319 C 239.020 139.515,238.860 139.850,238.860 140.065 C 238.860 140.279,238.452 141.303,237.953 142.340 C 237.455 143.377,237.047 144.332,237.047 144.462 C 237.047 144.592,236.774 145.104,236.441 145.600 C 236.108 146.097,235.704 146.887,235.544 147.356 C 235.383 147.825,235.028 148.525,234.754 148.910 C 234.480 149.296,234.136 150.045,233.990 150.575 C 233.844 151.106,233.498 151.863,233.221 152.259 C 232.945 152.655,232.634 153.329,232.531 153.756 C 232.427 154.184,232.079 154.883,231.757 155.311 C 231.434 155.738,231.084 156.438,230.979 156.865 C 230.875 157.293,230.506 158.014,230.161 158.467 C 229.816 158.921,229.534 159.452,229.534 159.648 C 229.534 159.844,229.126 160.813,228.628 161.802 C 228.129 162.792,227.721 163.700,227.721 163.820 C 227.721 163.941,227.483 164.373,227.193 164.780 C 226.902 165.188,226.533 165.905,226.371 166.375 C 226.210 166.844,225.815 167.636,225.493 168.135 C 225.172 168.633,224.775 169.554,224.610 170.181 C 224.446 170.808,224.156 171.477,223.966 171.666 C 223.777 171.856,223.412 172.567,223.155 173.247 C 222.898 173.926,222.548 174.625,222.378 174.801 C 222.207 174.976,221.857 175.676,221.600 176.355 C 221.344 177.035,221.002 177.726,220.841 177.892 C 220.679 178.058,220.402 178.583,220.225 179.058 C 220.048 179.533,219.572 180.622,219.167 181.477 C 218.763 182.332,218.305 183.323,218.151 183.679 C 217.996 184.035,217.647 184.676,217.374 185.104 C 217.101 185.531,216.869 186.069,216.858 186.299 C 216.848 186.529,216.621 186.996,216.353 187.336 C 216.086 187.675,215.670 188.536,215.428 189.249 C 215.186 189.961,214.833 190.719,214.642 190.933 C 214.451 191.146,214.097 191.933,213.854 192.681 C 213.611 193.429,213.318 194.041,213.204 194.041 C 213.090 194.041,212.789 194.595,212.535 195.272 C 212.282 195.949,211.818 196.911,211.505 197.409 C 211.191 197.908,210.789 198.782,210.611 199.352 C 210.433 199.922,210.071 200.667,209.807 201.006 C 209.543 201.346,209.326 201.824,209.326 202.068 C 209.326 202.313,208.979 203.026,208.554 203.653 C 208.129 204.280,207.779 204.979,207.777 205.207 C 207.774 205.435,207.424 206.135,207.000 206.762 C 206.575 207.389,206.225 208.066,206.222 208.266 C 206.218 208.587,203.671 213.944,200.457 220.391 C 199.874 221.560,199.302 222.458,199.187 222.387 C 198.659 222.061,197.175 219.461,197.011 218.575 C 196.911 218.034,196.667 217.429,196.469 217.231 C 196.270 217.033,195.860 216.222,195.557 215.430 C 195.254 214.638,194.920 213.990,194.814 213.990 C 194.709 213.990,194.361 213.290,194.041 212.435 C 193.722 211.580,193.367 210.881,193.253 210.881 C 193.140 210.881,192.852 210.269,192.613 209.521 C 192.375 208.773,191.979 207.869,191.734 207.513 C 191.488 207.157,191.082 206.341,190.829 205.699 C 190.577 205.058,190.224 204.359,190.044 204.145 C 189.865 203.931,189.515 203.232,189.267 202.591 C 189.019 201.949,188.667 201.250,188.483 201.036 C 188.300 200.823,187.942 200.006,187.689 199.223 C 187.436 198.439,187.013 197.520,186.749 197.180 C 186.485 196.840,186.269 196.362,186.269 196.118 C 186.269 195.874,185.922 195.161,185.497 194.534 C 185.072 193.907,184.722 193.219,184.719 193.005 C 184.715 192.791,184.364 192.092,183.938 191.451 C 183.512 190.810,183.162 190.040,183.162 189.741 C 183.161 189.442,182.813 188.684,182.388 188.057 C 181.963 187.430,181.614 186.731,181.611 186.503 C 181.608 186.275,181.259 185.575,180.834 184.948 C 180.409 184.321,180.059 183.648,180.057 183.451 C 180.054 183.255,179.714 182.497,179.302 181.767 C 178.890 181.038,178.476 180.077,178.382 179.633 C 178.289 179.190,177.990 178.588,177.718 178.295 C 177.446 178.003,177.145 177.434,177.049 177.030 C 176.953 176.626,176.605 175.932,176.275 175.489 C 175.945 175.045,175.591 174.346,175.488 173.934 C 175.384 173.523,174.986 172.604,174.601 171.891 C 174.217 171.179,173.823 170.259,173.725 169.848 C 173.627 169.437,173.278 168.737,172.948 168.294 C 172.618 167.850,172.268 167.151,172.170 166.739 C 172.073 166.328,171.723 165.628,171.393 165.185 C 171.063 164.741,170.713 164.038,170.614 163.621 C 170.515 163.205,170.209 162.578,169.933 162.228 C 169.657 161.877,169.304 161.114,169.147 160.532 C 168.990 159.950,168.647 159.201,168.384 158.866 C 168.120 158.531,167.768 157.841,167.600 157.332 C 167.432 156.823,167.017 155.998,166.678 155.499 C 166.339 154.999,166.062 154.461,166.062 154.303 C 166.061 154.145,165.728 153.374,165.320 152.591 C 164.913 151.807,164.502 150.842,164.407 150.447 C 164.313 150.051,164.008 149.500,163.729 149.221 C 163.450 148.943,163.087 148.178,162.922 147.522 C 162.757 146.866,162.469 146.270,162.282 146.199 C 162.095 146.127,161.807 145.641,161.642 145.120 C 161.477 144.598,161.079 143.705,160.757 143.135 C 160.436 142.565,160.026 141.632,159.847 141.062 C 159.667 140.492,159.370 139.851,159.186 139.637 C 159.002 139.424,158.649 138.724,158.401 138.083 C 158.153 137.442,157.803 136.742,157.623 136.528 C 157.442 136.315,157.060 135.557,156.774 134.845 C 156.487 134.132,156.012 133.087,155.717 132.523 C 155.422 131.958,155.181 131.363,155.181 131.199 C 155.181 131.035,154.887 130.467,154.527 129.937 C 153.148 127.905,153.109 125.669,154.424 123.998 C 154.662 123.694,155.042 122.921,155.267 122.280 C 155.491 121.639,155.972 120.540,156.335 119.840 C 156.698 119.139,156.995 118.424,156.995 118.252 C 156.995 118.080,157.164 117.799,157.370 117.628 C 157.576 117.457,157.948 116.772,158.195 116.107 C 158.443 115.441,158.858 114.618,159.116 114.278 C 159.375 113.938,159.761 113.073,159.973 112.357 C 160.186 111.640,160.518 110.869,160.710 110.643 C 160.902 110.418,161.262 109.709,161.510 109.067 C 161.758 108.426,162.106 107.727,162.284 107.513 C 162.461 107.299,162.807 106.580,163.053 105.914 C 163.298 105.249,163.660 104.570,163.857 104.407 C 164.054 104.243,164.294 103.738,164.389 103.285 C 164.484 102.832,164.900 101.864,165.312 101.134 C 165.725 100.404,166.062 99.640,166.062 99.436 C 166.062 99.232,166.351 98.673,166.704 98.195 C 167.056 97.717,167.479 96.907,167.642 96.396 C 167.806 95.885,168.156 95.228,168.422 94.936 C 168.687 94.644,168.983 94.003,169.080 93.511 C 169.176 93.019,169.523 92.189,169.850 91.667 C 170.178 91.144,170.524 90.386,170.620 89.983 C 170.715 89.579,171.063 88.886,171.393 88.442 C 171.723 87.999,172.073 87.299,172.170 86.888 C 172.268 86.476,172.618 85.777,172.948 85.333 C 173.278 84.890,173.627 84.190,173.723 83.779 C 173.820 83.368,174.235 82.434,174.644 81.704 C 175.054 80.974,175.391 80.217,175.393 80.020 C 175.396 79.824,175.746 79.150,176.171 78.523 C 176.595 77.896,176.943 77.190,176.943 76.954 C 176.943 76.719,177.237 76.127,177.596 75.640 C 177.956 75.153,178.372 74.285,178.522 73.711 C 178.672 73.138,179.078 72.234,179.423 71.702 C 179.769 71.171,180.052 70.582,180.052 70.393 C 180.052 70.204,180.402 69.498,180.829 68.824 C 181.256 68.150,181.606 67.451,181.606 67.270 C 181.606 67.089,181.956 66.389,182.383 65.715 C 182.811 65.041,183.161 64.348,183.161 64.175 C 183.162 64.002,183.570 63.051,184.068 62.061 C 184.566 61.072,184.974 60.125,184.974 59.956 C 184.974 59.787,185.143 59.509,185.349 59.338 C 185.555 59.167,185.925 58.482,186.170 57.816 C 186.416 57.151,186.772 56.422,186.962 56.196 C 187.152 55.971,187.500 55.213,187.734 54.512 C 187.969 53.812,188.351 52.947,188.585 52.591 C 188.818 52.234,189.164 51.477,189.354 50.907 C 189.544 50.337,189.898 49.637,190.141 49.352 C 190.384 49.067,190.738 48.340,190.928 47.737 C 191.117 47.133,191.487 46.445,191.750 46.207 C 192.013 45.969,192.228 45.611,192.228 45.411 C 192.228 45.211,192.694 44.070,193.264 42.876 C 193.834 41.681,194.301 40.595,194.301 40.462 C 194.301 40.328,194.460 40.086,194.655 39.924 C 194.850 39.762,195.220 39.078,195.476 38.403 C 195.732 37.728,196.145 36.885,196.392 36.528 C 196.640 36.172,197.038 35.269,197.276 34.521 C 197.515 33.773,197.809 33.161,197.931 33.161 C 198.052 33.161,198.232 32.898,198.330 32.578 C 198.728 31.282,199.580 30.925,199.880 31.930 M309.715 31.545 C 310.259 31.945,311.106 33.380,311.522 34.605 C 311.760 35.307,312.118 36.061,312.318 36.282 C 312.517 36.503,312.862 37.197,313.083 37.824 C 313.304 38.451,313.654 39.150,313.860 39.378 C 314.066 39.606,314.416 40.306,314.637 40.933 C 314.859 41.560,315.202 42.253,315.401 42.474 C 315.600 42.695,315.849 43.225,315.956 43.653 C 316.191 44.604,318.403 49.060,318.699 49.180 C 318.816 49.227,318.912 49.415,318.912 49.596 C 318.912 49.778,319.266 50.614,319.699 51.453 C 320.132 52.293,320.669 53.504,320.892 54.145 C 321.115 54.786,321.450 55.486,321.637 55.699 C 321.824 55.913,322.180 56.613,322.428 57.254 C 322.676 57.895,323.029 58.597,323.213 58.813 C 323.396 59.029,323.803 59.875,324.115 60.691 C 324.428 61.508,324.770 62.176,324.876 62.176 C 324.981 62.176,325.205 62.722,325.373 63.388 C 325.541 64.055,325.909 64.924,326.191 65.320 C 326.472 65.716,326.833 66.423,326.992 66.893 C 327.151 67.362,327.501 68.062,327.769 68.447 C 328.038 68.833,328.387 69.532,328.547 70.001 C 328.706 70.471,329.055 71.170,329.323 71.555 C 329.591 71.939,329.967 72.776,330.159 73.414 C 330.351 74.052,330.737 74.903,331.017 75.305 C 331.298 75.707,331.657 76.420,331.816 76.890 C 331.975 77.359,332.328 78.059,332.599 78.444 C 332.871 78.830,333.182 79.437,333.290 79.793 C 333.399 80.149,333.709 80.755,333.980 81.140 C 334.251 81.525,334.630 82.362,334.822 83.000 C 335.014 83.637,335.411 84.496,335.703 84.906 C 335.996 85.317,336.319 85.988,336.422 86.397 C 336.524 86.807,336.882 87.544,337.216 88.036 C 337.550 88.528,337.944 89.382,338.092 89.932 C 338.241 90.482,338.465 90.933,338.590 90.933 C 338.715 90.933,339.067 91.682,339.372 92.597 C 339.676 93.512,340.087 94.396,340.285 94.560 C 340.483 94.724,340.833 95.423,341.062 96.114 C 341.292 96.804,341.642 97.504,341.840 97.669 C 342.039 97.834,342.337 98.397,342.502 98.920 C 342.667 99.443,343.073 100.278,343.404 100.777 C 343.735 101.276,344.086 102.130,344.186 102.676 C 344.285 103.221,344.569 103.862,344.816 104.101 C 345.064 104.339,345.463 105.136,345.704 105.871 C 345.944 106.607,346.291 107.267,346.476 107.337 C 346.660 107.408,346.964 108.014,347.152 108.684 C 347.339 109.354,347.689 110.093,347.928 110.327 C 348.167 110.560,348.512 111.302,348.695 111.974 C 348.877 112.647,349.304 113.573,349.643 114.032 C 349.982 114.492,350.259 115.060,350.259 115.296 C 350.259 115.532,350.607 116.238,351.032 116.865 C 351.456 117.492,351.806 118.193,351.809 118.422 C 351.811 118.652,352.100 119.262,352.450 119.777 C 352.800 120.293,353.206 121.154,353.353 121.692 C 353.500 122.229,353.860 123.059,354.154 123.536 C 355.601 125.892,355.590 128.403,354.123 130.268 C 353.851 130.614,353.500 131.373,353.344 131.955 C 353.187 132.537,352.837 133.294,352.567 133.639 C 352.296 133.983,351.946 134.742,351.789 135.325 C 351.632 135.908,351.238 136.700,350.914 137.086 C 350.589 137.471,350.248 138.191,350.155 138.686 C 350.062 139.181,349.821 139.723,349.619 139.890 C 349.417 140.058,349.055 140.798,348.815 141.535 C 348.575 142.273,348.229 143.051,348.045 143.264 C 347.862 143.478,347.509 144.177,347.261 144.819 C 347.014 145.460,346.664 146.159,346.484 146.373 C 346.304 146.587,345.955 147.286,345.707 147.927 C 345.459 148.569,345.110 149.268,344.931 149.482 C 344.751 149.696,344.370 150.540,344.084 151.358 C 343.798 152.177,343.380 153.030,343.155 153.255 C 342.930 153.480,342.746 153.836,342.746 154.047 C 342.746 154.518,342.029 155.936,341.547 156.418 C 341.351 156.613,341.192 156.935,341.192 157.134 C 341.192 157.626,340.365 159.326,340.126 159.326 C 340.020 159.326,339.740 159.997,339.503 160.816 C 339.266 161.635,338.918 162.481,338.729 162.694 C 338.540 162.908,338.183 163.608,337.935 164.249 C 337.687 164.890,337.331 165.595,337.143 165.816 C 336.955 166.037,336.626 166.715,336.411 167.322 C 336.197 167.930,335.789 168.723,335.505 169.085 C 335.220 169.446,334.909 170.167,334.812 170.687 C 334.716 171.207,334.372 171.982,334.048 172.409 C 333.725 172.837,333.374 173.536,333.269 173.964 C 333.164 174.391,332.815 175.091,332.492 175.518 C 332.170 175.946,331.820 176.645,331.715 177.073 C 331.610 177.500,331.264 178.199,330.946 178.627 C 330.628 179.054,330.284 179.812,330.181 180.311 C 330.079 180.810,329.735 181.567,329.417 181.995 C 329.099 182.422,328.753 183.122,328.648 183.549 C 328.543 183.977,328.193 184.676,327.871 185.104 C 327.548 185.531,327.200 186.223,327.096 186.642 C 326.993 187.061,326.678 187.727,326.396 188.123 C 326.115 188.519,325.702 189.458,325.479 190.211 C 325.256 190.964,324.990 191.639,324.888 191.710 C 324.564 191.936,320.726 199.776,320.721 200.221 C 320.718 200.456,320.368 201.161,319.943 201.788 C 319.519 202.415,319.169 203.114,319.166 203.342 C 319.164 203.570,318.814 204.269,318.389 204.896 C 317.964 205.524,317.617 206.229,317.617 206.465 C 317.617 206.701,317.331 207.281,316.982 207.754 C 316.634 208.226,316.278 208.935,316.191 209.329 C 316.105 209.723,315.062 211.965,313.875 214.311 C 312.687 216.658,311.638 218.931,311.543 219.362 C 311.082 221.463,309.127 222.677,308.655 221.155 C 308.559 220.848,308.277 220.304,308.026 219.948 C 307.776 219.592,307.419 218.776,307.233 218.135 C 307.046 217.494,306.634 216.619,306.317 216.192 C 305.999 215.764,305.654 215.065,305.549 214.637 C 305.444 214.210,305.094 213.510,304.772 213.083 C 304.449 212.655,304.100 211.956,303.996 211.528 C 303.892 211.101,303.592 210.474,303.329 210.135 C 303.066 209.795,302.724 209.038,302.568 208.451 C 302.412 207.864,302.022 207.034,301.701 206.606 C 301.381 206.179,301.036 205.493,300.935 205.083 C 300.833 204.673,300.465 203.917,300.116 203.404 C 299.767 202.890,299.482 202.352,299.481 202.207 C 299.481 202.062,299.073 201.134,298.574 200.144 C 298.076 199.155,297.668 198.140,297.668 197.888 C 297.668 197.636,297.451 197.221,297.185 196.966 C 296.919 196.711,296.554 196.036,296.376 195.466 C 296.197 194.896,295.847 194.197,295.599 193.912 C 295.351 193.627,294.958 192.821,294.725 192.120 C 294.493 191.419,294.142 190.662,293.946 190.436 C 293.750 190.210,293.394 189.423,293.154 188.686 C 292.914 187.949,292.556 187.211,292.358 187.047 C 292.159 186.882,291.810 186.183,291.580 185.492 C 291.351 184.802,291.001 184.102,290.802 183.937 C 290.604 183.772,290.308 183.234,290.145 182.742 C 289.983 182.249,289.512 181.180,289.099 180.366 C 288.686 179.552,288.347 178.745,288.345 178.574 C 288.343 178.402,288.051 177.832,287.694 177.307 C 287.338 176.782,287.047 176.198,287.047 176.009 C 287.047 175.820,286.697 175.114,286.269 174.440 C 285.842 173.766,285.492 173.021,285.492 172.783 C 285.492 172.546,285.202 171.925,284.848 171.402 C 284.493 170.880,284.129 170.135,284.039 169.747 C 283.949 169.359,283.539 168.507,283.129 167.853 C 282.719 167.199,282.383 166.500,282.382 166.299 C 282.382 166.097,282.032 165.408,281.606 164.767 C 281.180 164.126,280.826 163.426,280.820 163.212 C 280.814 162.999,280.463 162.183,280.042 161.399 C 279.620 160.615,279.275 159.845,279.275 159.686 C 279.275 159.528,278.997 158.990,278.659 158.491 C 278.320 157.992,277.905 157.167,277.737 156.658 C 277.569 156.148,277.222 155.462,276.966 155.133 C 276.710 154.803,276.351 154.067,276.169 153.497 C 275.986 152.927,275.575 151.995,275.255 151.425 C 274.935 150.855,274.594 150.052,274.499 149.641 C 274.403 149.229,274.055 148.530,273.725 148.086 C 273.395 147.643,273.045 146.943,272.948 146.532 C 272.850 146.121,272.500 145.421,272.170 144.978 C 271.841 144.534,271.488 143.821,271.387 143.394 C 271.286 142.966,271.053 142.442,270.870 142.228 C 270.687 142.014,270.325 141.256,270.065 140.544 C 269.805 139.832,269.388 138.979,269.137 138.650 C 268.887 138.320,268.545 137.634,268.377 137.125 C 268.209 136.616,267.794 135.791,267.455 135.291 C 267.117 134.792,266.839 134.241,266.839 134.068 C 266.839 133.894,266.490 133.096,266.062 132.295 C 265.635 131.494,265.283 130.691,265.280 130.510 C 265.278 130.329,264.928 129.668,264.503 129.041 C 263.512 127.579,263.464 126.175,264.364 124.995 C 264.713 124.538,265.081 123.828,265.183 123.416 C 265.285 123.005,265.636 122.241,265.964 121.718 C 266.291 121.196,266.637 120.438,266.731 120.034 C 266.825 119.631,267.238 118.766,267.648 118.112 C 268.058 117.458,268.394 116.759,268.395 116.558 C 268.396 116.356,268.745 115.667,269.171 115.026 C 269.597 114.385,269.951 113.685,269.957 113.472 C 269.964 113.258,270.314 112.442,270.736 111.658 C 271.157 110.874,271.502 110.069,271.503 109.869 C 271.503 109.669,271.788 109.131,272.136 108.674 C 272.485 108.217,272.850 107.506,272.948 107.095 C 273.045 106.684,273.395 105.984,273.725 105.541 C 274.055 105.097,274.404 104.397,274.501 103.986 C 274.597 103.575,275.012 102.641,275.421 101.911 C 275.831 101.182,276.168 100.424,276.171 100.228 C 276.173 100.031,276.523 99.357,276.948 98.730 C 277.373 98.103,277.720 97.397,277.720 97.162 C 277.720 96.926,278.017 96.331,278.380 95.840 C 278.742 95.350,279.163 94.456,279.315 93.855 C 279.467 93.254,279.747 92.633,279.937 92.475 C 280.127 92.317,280.481 91.585,280.723 90.848 C 280.966 90.111,281.374 89.238,281.630 88.909 C 281.886 88.579,282.232 87.893,282.400 87.384 C 282.568 86.875,282.983 86.050,283.322 85.550 C 283.661 85.051,283.938 84.535,283.938 84.404 C 283.938 84.155,285.617 80.473,286.040 79.793 C 286.173 79.579,286.518 78.880,286.806 78.238 C 287.093 77.597,287.443 76.898,287.582 76.684 C 287.721 76.470,288.016 75.887,288.237 75.389 C 288.459 74.890,288.860 74.016,289.129 73.446 C 289.398 72.876,289.800 71.891,290.023 71.256 C 290.246 70.622,290.597 69.917,290.803 69.689 C 291.009 69.461,291.359 68.762,291.580 68.135 C 291.802 67.508,292.145 66.814,292.344 66.593 C 292.543 66.372,292.957 65.552,293.265 64.769 C 293.572 63.987,293.914 63.287,294.024 63.215 C 294.134 63.142,294.423 62.480,294.665 61.743 C 294.908 61.006,295.268 60.268,295.466 60.104 C 295.664 59.939,296.014 59.240,296.244 58.549 C 296.473 57.859,296.823 57.159,297.021 56.995 C 297.219 56.830,297.577 56.093,297.817 55.356 C 298.057 54.619,298.419 53.825,298.621 53.593 C 298.823 53.360,299.101 52.762,299.239 52.263 C 299.377 51.765,299.761 50.956,300.093 50.467 C 300.425 49.977,300.783 49.235,300.887 48.817 C 300.991 48.399,301.341 47.707,301.663 47.280 C 301.986 46.852,302.331 46.172,302.430 45.769 C 302.530 45.365,302.879 44.607,303.207 44.085 C 303.535 43.562,303.887 42.785,303.990 42.358 C 304.093 41.930,304.441 41.172,304.764 40.674 C 305.088 40.175,305.484 39.383,305.646 38.913 C 305.807 38.444,306.162 37.745,306.433 37.359 C 306.705 36.973,307.013 36.367,307.117 36.010 C 307.222 35.654,307.587 34.853,307.929 34.229 C 308.270 33.606,308.549 33.001,308.549 32.886 C 308.549 31.922,309.204 31.170,309.715 31.545 M198.922 49.296 C 198.250 49.859,197.115 51.839,196.739 53.106 C 196.537 53.786,196.203 54.482,195.998 54.652 C 195.792 54.823,195.437 55.527,195.207 56.218 C 194.978 56.908,194.628 57.608,194.429 57.773 C 193.821 58.277,193.450 59.742,193.776 60.350 C 194.162 61.071,203.807 61.182,204.515 60.473 C 205.018 59.971,204.821 58.996,203.995 57.902 C 203.672 57.474,203.322 56.775,203.217 56.347 C 203.113 55.920,202.769 55.220,202.454 54.793 C 202.139 54.365,201.800 53.673,201.701 53.254 C 201.601 52.835,201.308 52.194,201.049 51.829 C 200.789 51.464,200.401 50.743,200.186 50.226 C 199.713 49.093,199.421 48.878,198.922 49.296 M309.186 49.154 C 308.907 49.360,307.334 52.561,306.735 54.145 C 306.546 54.644,306.245 55.227,306.067 55.440 C 305.889 55.654,305.537 56.354,305.285 56.995 C 305.032 57.636,304.595 58.479,304.312 58.867 C 303.882 59.457,303.846 59.681,304.095 60.227 L 304.393 60.881 309.436 60.881 C 315.583 60.881,316.090 60.580,314.465 57.902 C 314.020 57.167,313.796 56.713,313.122 55.181 C 312.966 54.825,312.640 54.268,312.399 53.943 C 312.157 53.618,311.882 52.890,311.786 52.324 C 311.592 51.173,309.654 48.810,309.186 49.154 M85.109 50.453 C 84.759 51.130,84.230 52.209,83.934 52.850 C 83.639 53.491,83.282 54.190,83.143 54.404 C 83.003 54.618,82.652 55.317,82.362 55.959 C 82.073 56.600,81.559 57.688,81.219 58.376 C 80.076 60.694,80.166 60.739,86.068 60.821 C 90.316 60.880,91.171 60.829,91.444 60.500 C 91.873 59.984,91.596 58.544,90.896 57.655 C 90.599 57.277,90.193 56.429,89.995 55.770 C 89.797 55.111,89.475 54.388,89.280 54.164 C 89.085 53.940,88.780 53.290,88.602 52.720 C 88.424 52.150,88.081 51.451,87.840 51.166 C 87.599 50.881,87.202 50.327,86.959 49.935 C 86.325 48.914,85.835 49.051,85.109 50.453 M77.269 67.471 C 76.856 67.818,76.310 68.605,76.057 69.220 C 75.803 69.834,75.489 70.512,75.361 70.725 C 75.232 70.939,74.940 71.522,74.713 72.021 C 74.486 72.519,74.140 73.219,73.946 73.575 C 73.751 73.931,73.402 74.631,73.171 75.130 C 72.939 75.628,72.476 76.619,72.142 77.332 C 71.471 78.763,71.284 79.753,71.591 80.246 C 71.832 80.633,100.143 80.718,100.750 80.333 C 101.227 80.031,100.941 78.159,100.275 77.224 C 100.008 76.850,99.584 75.905,99.332 75.124 C 99.080 74.343,98.794 73.646,98.696 73.575 C 98.400 73.360,97.668 71.814,97.668 71.404 C 97.668 71.194,97.489 70.842,97.269 70.622 C 97.049 70.402,96.591 69.592,96.250 68.821 C 95.373 66.838,95.378 66.839,85.992 66.839 L 78.019 66.839 77.269 67.471 M190.381 67.224 C 189.714 67.593,187.959 70.781,187.323 72.781 C 187.167 73.271,186.885 73.853,186.695 74.076 C 186.505 74.299,186.147 75.006,185.899 75.648 C 185.651 76.289,185.290 76.990,185.097 77.206 C 184.565 77.800,184.167 79.834,184.504 80.240 C 184.726 80.507,187.693 80.561,199.321 80.507 L 213.860 80.440 213.942 79.443 C 214.002 78.718,213.851 78.187,213.389 77.500 C 213.040 76.980,212.675 76.212,212.578 75.795 C 212.481 75.377,212.132 74.715,211.803 74.323 C 211.474 73.932,211.124 73.181,211.025 72.654 C 210.926 72.128,210.569 71.274,210.231 70.758 C 209.893 70.241,209.542 69.511,209.451 69.135 C 209.359 68.758,208.937 68.117,208.512 67.710 L 207.739 66.969 199.400 66.909 C 192.521 66.859,190.943 66.915,190.381 67.224 M300.243 67.862 C 299.708 68.424,299.191 69.243,299.095 69.682 C 298.998 70.121,298.650 70.973,298.321 71.574 C 297.992 72.176,297.637 72.960,297.532 73.316 C 297.427 73.672,297.119 74.279,296.848 74.665 C 296.576 75.050,296.224 75.750,296.065 76.219 C 295.906 76.688,295.577 77.364,295.335 77.720 C 294.705 78.646,294.480 79.773,294.839 80.206 C 295.207 80.649,323.260 80.757,324.078 80.319 C 324.677 79.998,324.372 77.976,323.558 76.869 C 323.266 76.471,322.862 75.677,322.659 75.103 C 322.457 74.529,322.055 73.760,321.767 73.394 C 321.479 73.028,321.241 72.540,321.238 72.310 C 321.232 71.873,320.695 70.709,319.493 68.530 C 318.563 66.845,318.870 66.895,309.351 66.865 L 301.215 66.839 300.243 67.862 M67.695 87.031 C 67.084 87.407,66.822 87.797,66.692 88.524 C 66.595 89.065,66.245 89.871,65.914 90.314 C 65.583 90.758,65.233 91.457,65.135 91.869 C 65.038 92.280,64.688 92.980,64.358 93.423 C 64.028 93.867,63.677 94.566,63.577 94.978 C 63.477 95.389,63.203 96.017,62.968 96.373 C 62.032 97.788,61.869 98.463,62.303 99.125 L 62.706 99.741 86.127 99.741 C 107.625 99.741,109.584 99.706,109.979 99.310 C 110.510 98.779,110.341 97.694,109.557 96.592 C 109.253 96.166,108.848 95.295,108.656 94.658 C 108.464 94.020,108.087 93.183,107.818 92.798 C 107.549 92.413,107.248 91.762,107.148 91.351 C 107.049 90.939,106.697 90.240,106.367 89.796 C 106.037 89.353,105.699 88.698,105.615 88.342 C 105.187 86.521,106.753 86.666,86.614 86.590 C 69.026 86.525,68.500 86.537,67.695 87.031 M181.155 86.711 C 180.447 86.848,179.867 87.632,179.517 88.925 C 179.373 89.459,179.152 89.896,179.027 89.896 C 178.901 89.896,178.547 90.654,178.238 91.580 C 177.930 92.506,177.585 93.264,177.472 93.264 C 177.358 93.264,177.004 93.964,176.684 94.819 C 176.364 95.674,176.013 96.373,175.903 96.373 C 175.345 96.373,174.844 98.497,175.255 99.123 L 175.660 99.741 199.223 99.741 L 222.786 99.741 223.199 99.111 C 223.631 98.451,223.479 97.843,222.642 96.878 C 222.450 96.658,222.118 95.980,221.904 95.372 C 221.689 94.764,221.278 93.967,220.990 93.601 C 220.702 93.235,220.466 92.756,220.466 92.537 C 220.466 91.454,218.012 87.055,217.262 86.793 C 216.525 86.536,182.462 86.459,181.155 86.711 M291.710 86.711 C 290.922 87.000,290.142 87.948,289.874 88.945 C 289.722 89.508,289.330 90.393,289.003 90.911 C 288.676 91.429,288.328 92.221,288.229 92.670 C 288.130 93.120,287.895 93.616,287.706 93.772 C 287.517 93.929,287.103 94.753,286.785 95.604 C 286.467 96.454,286.123 97.150,286.020 97.150 C 285.499 97.150,285.221 98.518,285.619 99.125 L 286.022 99.741 309.562 99.741 L 333.101 99.741 333.516 99.107 C 333.944 98.454,333.408 96.457,332.684 96.010 C 332.540 95.921,332.233 95.276,332.000 94.576 C 331.768 93.877,331.415 93.169,331.217 93.004 C 331.018 92.840,330.727 92.277,330.569 91.754 C 329.996 89.851,328.400 86.997,327.776 86.760 C 327.132 86.515,292.375 86.468,291.710 86.711 M58.801 106.126 C 57.880 106.739,57.539 107.231,57.224 108.403 C 57.070 108.972,56.730 109.711,56.466 110.046 C 56.203 110.380,55.851 111.071,55.683 111.580 C 55.514 112.089,55.100 112.914,54.761 113.413 C 54.422 113.913,54.145 114.451,54.145 114.611 C 54.145 114.770,53.854 115.448,53.497 116.117 C 52.798 117.431,52.664 118.623,53.161 119.119 C 53.659 119.618,118.628 119.565,119.311 119.066 C 119.873 118.655,119.537 116.637,118.766 115.785 C 118.560 115.557,118.214 114.774,117.998 114.045 C 117.781 113.315,117.456 112.567,117.276 112.383 C 117.097 112.198,116.739 111.491,116.482 110.811 C 116.226 110.132,115.851 109.412,115.650 109.211 C 115.449 109.010,115.285 108.762,115.285 108.661 C 115.285 108.079,114.089 106.228,113.556 105.985 C 112.400 105.459,59.600 105.594,58.801 106.126 M171.224 106.457 C 170.807 106.873,170.466 107.400,170.466 107.628 C 170.466 107.856,170.184 108.477,169.838 109.008 C 169.492 109.539,169.087 110.443,168.937 111.017 C 168.787 111.591,168.370 112.459,168.011 112.946 C 167.651 113.433,167.357 114.013,167.356 114.234 C 167.356 114.456,167.007 115.162,166.580 115.803 C 165.691 117.141,165.494 118.997,166.213 119.273 C 167.065 119.600,232.002 119.449,232.332 119.119 C 232.796 118.655,232.707 117.253,232.169 116.550 C 231.909 116.211,231.491 115.408,231.241 114.767 C 230.990 114.126,230.631 113.426,230.442 113.212 C 230.253 112.999,229.893 112.183,229.642 111.399 C 229.391 110.615,229.093 109.912,228.981 109.836 C 228.869 109.760,228.489 109.046,228.137 108.249 C 227.785 107.453,227.181 106.553,226.796 106.250 L 226.096 105.699 199.038 105.699 L 171.981 105.699 171.224 106.457 M281.682 106.541 C 281.240 107.005,280.701 107.916,280.484 108.567 C 280.267 109.218,279.861 110.150,279.581 110.639 C 279.301 111.128,278.934 111.966,278.765 112.500 C 278.596 113.034,278.358 113.472,278.237 113.472 C 278.116 113.472,277.773 114.123,277.475 114.920 C 277.176 115.717,276.754 116.547,276.536 116.765 C 276.276 117.026,276.166 117.530,276.217 118.231 L 276.295 119.301 309.147 119.366 C 332.739 119.414,342.150 119.351,342.534 119.146 C 343.213 118.782,343.030 116.842,342.211 115.729 C 341.919 115.332,341.514 114.537,341.312 113.963 C 341.109 113.389,340.720 112.605,340.447 112.221 C 340.174 111.838,339.821 111.045,339.663 110.459 C 339.506 109.873,339.151 109.107,338.875 108.757 C 338.600 108.406,338.295 107.806,338.199 107.424 C 337.735 105.572,339.857 105.699,309.601 105.699 L 282.485 105.699 281.682 106.541 M49.093 125.971 L 48.411 126.558 49.239 128.629 C 49.694 129.768,50.285 130.978,50.552 131.317 C 50.818 131.657,51.036 132.135,51.036 132.379 C 51.036 132.624,51.384 133.337,51.809 133.964 C 52.234 134.591,52.583 135.245,52.586 135.419 C 52.598 136.211,53.523 137.579,54.293 137.945 C 55.327 138.435,116.192 138.555,117.940 138.069 C 118.894 137.804,119.689 136.824,119.689 135.912 C 119.689 135.702,119.849 135.369,120.044 135.174 C 120.526 134.692,121.244 133.274,121.244 132.803 C 121.244 132.593,121.424 132.240,121.644 132.020 C 121.864 131.800,122.266 130.975,122.537 130.186 C 122.809 129.398,123.211 128.494,123.432 128.179 C 123.883 127.535,123.951 126.493,123.581 125.907 C 123.365 125.565,118.917 125.510,86.555 125.451 L 49.776 125.383 49.093 125.971 M162.277 125.642 C 161.297 126.038,161.301 127.401,162.285 128.806 C 162.510 129.127,162.696 129.568,162.699 129.786 C 162.702 130.003,163.038 130.674,163.446 131.277 C 163.855 131.879,164.268 132.796,164.366 133.314 C 164.463 133.832,164.770 134.500,165.048 134.798 C 165.326 135.096,165.667 135.764,165.806 136.282 C 166.376 138.396,163.202 138.204,198.797 138.280 C 234.813 138.358,231.754 138.549,232.659 136.163 C 232.919 135.478,233.305 134.725,233.515 134.492 C 233.725 134.258,233.974 133.718,234.067 133.290 C 234.267 132.375,234.700 131.373,235.129 130.829 C 235.502 130.357,237.144 126.427,237.012 126.326 C 235.732 125.344,237.531 125.388,199.230 125.405 C 179.207 125.414,162.578 125.521,162.277 125.642 M272.612 125.894 C 271.885 126.571,272.368 128.756,273.668 130.671 C 274.044 131.225,274.353 131.866,274.353 132.096 C 274.354 132.325,274.762 133.322,275.260 134.312 C 275.758 135.301,276.166 136.241,276.166 136.400 C 276.166 136.560,276.523 137.033,276.960 137.452 L 277.754 138.212 309.850 138.212 C 345.618 138.212,342.408 138.369,342.863 136.600 C 342.945 136.283,343.288 135.617,343.626 135.119 C 343.963 134.622,344.321 133.778,344.421 133.246 C 344.521 132.713,344.885 131.942,345.229 131.533 C 345.573 131.124,345.855 130.581,345.855 130.327 C 345.855 130.073,346.152 129.427,346.515 128.892 C 347.426 127.550,347.594 126.540,347.014 125.900 C 346.290 125.100,273.471 125.094,272.612 125.894 M57.565 144.611 C 57.019 145.158,57.132 145.489,59.229 149.482 C 59.416 149.838,59.759 150.538,59.992 151.036 C 60.225 151.535,60.576 152.234,60.772 152.591 C 60.969 152.947,61.469 153.949,61.883 154.818 C 62.621 156.364,62.664 156.402,63.868 156.567 C 65.444 156.783,107.698 156.789,108.776 156.574 C 109.650 156.399,111.415 154.111,111.772 152.691 C 111.871 152.297,112.163 151.676,112.422 151.311 C 112.680 150.946,113.081 150.090,113.311 149.408 C 113.542 148.726,113.900 147.910,114.106 147.594 C 115.028 146.185,115.307 145.136,114.875 144.705 C 114.340 144.170,58.098 144.078,57.565 144.611 M170.475 144.679 C 170.101 145.129,170.509 146.645,171.266 147.620 C 171.523 147.949,171.870 148.636,172.038 149.145 C 172.206 149.654,172.620 150.479,172.959 150.978 C 173.298 151.477,173.576 152.074,173.577 152.303 C 173.578 152.729,173.770 153.135,174.932 155.177 C 175.865 156.817,174.914 156.761,200.073 156.679 L 222.569 156.606 223.062 155.959 C 223.334 155.602,223.628 154.990,223.716 154.598 C 223.803 154.207,223.979 153.886,224.107 153.886 C 224.234 153.886,224.519 153.264,224.740 152.503 C 224.961 151.742,225.431 150.729,225.783 150.251 C 226.136 149.772,226.425 149.187,226.425 148.950 C 226.425 148.712,226.733 148.064,227.109 147.510 C 227.963 146.252,228.249 145.291,227.936 144.732 C 227.589 144.113,170.988 144.061,170.475 144.679 M280.837 144.679 C 280.502 145.083,280.909 146.891,281.336 146.891 C 281.450 146.891,281.805 147.591,282.124 148.446 C 282.444 149.301,282.797 150.000,282.908 150.000 C 283.019 150.000,283.231 150.347,283.379 150.772 C 283.979 152.493,285.880 156.215,286.256 156.404 C 286.701 156.628,331.665 156.836,332.549 156.618 C 333.233 156.449,334.590 154.384,335.074 152.777 C 335.272 152.119,335.680 151.268,335.981 150.885 C 336.282 150.502,336.528 149.988,336.528 149.742 C 336.528 149.496,336.826 148.856,337.190 148.320 C 338.169 146.878,338.712 145.135,338.327 144.671 C 337.858 144.106,281.306 144.114,280.837 144.679 M66.827 162.911 C 66.117 163.486,66.391 165.103,67.495 166.853 C 67.847 167.410,68.135 168.003,68.135 168.172 C 68.135 168.340,68.452 169.013,68.839 169.666 C 69.227 170.320,69.723 171.205,69.940 171.632 C 70.507 172.744,70.353 172.733,86.296 172.767 C 100.138 172.797,102.332 172.696,102.332 172.032 C 102.332 171.923,102.642 171.381,103.020 170.826 C 103.399 170.272,103.862 169.317,104.048 168.705 C 104.235 168.092,104.609 167.276,104.880 166.891 C 105.151 166.507,105.458 165.900,105.563 165.544 C 105.668 165.188,105.915 164.640,106.112 164.327 C 106.587 163.573,106.351 163.051,105.381 162.712 C 103.787 162.157,67.528 162.344,66.827 162.911 M180.052 162.619 C 178.756 163.096,178.839 164.294,180.327 166.580 C 180.467 166.794,180.767 167.377,180.995 167.876 C 181.222 168.374,181.517 169.016,181.648 169.301 C 182.480 171.099,183.414 172.418,183.966 172.573 C 184.763 172.796,212.758 172.846,214.086 172.627 C 214.981 172.479,215.156 172.319,215.714 171.140 C 216.059 170.413,216.510 169.527,216.717 169.171 C 216.925 168.815,217.277 168.115,217.501 167.617 C 217.725 167.118,218.140 166.280,218.424 165.754 C 219.322 164.090,219.363 163.013,218.539 162.700 C 217.810 162.423,180.797 162.345,180.052 162.619 M290.185 162.858 C 289.436 163.383,289.554 164.609,290.490 166.034 C 290.827 166.548,291.236 167.353,291.397 167.822 C 291.559 168.292,291.929 169.011,292.221 169.420 C 292.512 169.829,292.824 170.531,292.914 170.980 C 293.261 172.716,292.733 172.660,309.757 172.741 L 325.107 172.814 325.549 172.093 C 325.791 171.697,326.262 170.959,326.596 170.452 C 326.929 169.946,327.202 169.352,327.202 169.131 C 327.202 168.911,327.550 168.218,327.975 167.591 C 328.399 166.964,328.749 166.263,328.752 166.034 C 328.754 165.804,329.049 165.186,329.406 164.660 C 330.188 163.508,329.972 162.847,328.733 162.599 C 326.641 162.181,290.808 162.422,290.185 162.858 M74.536 178.814 C 74.000 179.207,74.314 181.625,75.000 182.383 C 75.211 182.617,75.611 183.468,75.888 184.273 C 76.166 185.079,76.521 185.887,76.678 186.069 C 76.835 186.250,77.221 186.924,77.536 187.565 C 78.374 189.270,78.781 189.351,86.399 189.338 C 93.671 189.325,94.029 189.275,94.524 188.201 C 94.718 187.780,95.139 187.027,95.459 186.528 C 95.779 186.030,96.193 185.214,96.379 184.715 C 96.565 184.216,96.881 183.616,97.081 183.380 C 97.717 182.630,98.753 179.219,98.440 178.906 C 98.001 178.467,75.131 178.379,74.536 178.814 M187.421 178.787 C 186.816 179.086,187.383 182.245,188.205 183.152 C 188.415 183.385,188.751 184.038,188.950 184.604 C 189.150 185.170,189.619 186.084,189.994 186.635 C 190.368 187.186,190.674 187.778,190.674 187.949 C 190.674 189.105,191.450 189.245,198.391 189.334 C 206.453 189.437,206.983 189.339,207.803 187.598 C 208.114 186.939,208.569 186.166,208.813 185.881 C 209.058 185.596,209.339 185.013,209.438 184.585 C 209.537 184.158,209.894 183.400,210.232 182.902 C 210.907 181.903,211.443 179.506,211.111 178.968 C 210.842 178.534,188.284 178.361,187.421 178.787 M297.887 178.758 C 297.309 179.103,297.527 180.821,298.347 182.383 C 298.684 183.025,299.133 183.957,299.345 184.456 C 299.557 184.955,299.847 185.538,299.988 185.751 C 300.130 185.965,300.492 186.688,300.793 187.358 C 301.679 189.329,302.188 189.435,310.352 189.333 C 316.812 189.253,317.178 189.222,317.527 188.731 C 318.484 187.384,319.104 186.302,319.528 185.233 C 319.783 184.592,320.146 183.892,320.335 183.679 C 320.524 183.465,320.873 182.649,321.111 181.865 C 321.349 181.082,321.657 180.160,321.795 179.818 C 321.965 179.396,321.954 179.104,321.761 178.911 C 321.385 178.535,298.507 178.388,297.887 178.758 M82.272 195.485 C 81.609 196.148,81.879 197.578,82.906 198.834 C 83.138 199.119,83.484 199.846,83.674 200.450 C 83.863 201.053,84.233 201.742,84.496 201.979 C 84.759 202.217,84.975 202.598,84.975 202.825 C 84.976 203.433,85.979 204.973,86.260 204.799 C 86.711 204.520,88.149 202.210,88.512 201.181 C 88.711 200.617,89.036 199.975,89.233 199.754 C 89.431 199.533,89.846 198.598,90.155 197.676 L 90.718 195.999 90.149 195.538 C 89.352 194.893,82.908 194.849,82.272 195.485 M195.114 195.617 C 194.664 196.100,194.649 196.227,194.973 196.847 C 195.171 197.228,195.334 197.668,195.335 197.827 C 195.336 197.985,195.634 198.552,195.997 199.087 C 196.360 199.622,196.725 200.425,196.809 200.872 C 196.892 201.318,197.220 202.034,197.536 202.461 C 197.853 202.889,198.195 203.501,198.296 203.822 C 198.689 205.064,200.259 204.843,200.259 203.545 C 200.259 203.420,200.496 202.985,200.786 202.579 C 201.075 202.172,201.470 201.317,201.661 200.679 C 201.853 200.041,202.240 199.190,202.520 198.788 C 203.431 197.482,203.686 196.372,203.234 195.682 C 202.653 194.796,195.929 194.741,195.114 195.617 M305.810 195.276 C 305.049 195.797,305.257 197.376,306.258 198.674 C 306.520 199.013,306.862 199.771,307.019 200.358 C 307.176 200.945,307.439 201.586,307.603 201.784 C 307.767 201.981,308.090 202.618,308.320 203.199 C 309.126 205.235,310.845 204.466,311.709 201.684 C 311.886 201.114,312.413 199.911,312.881 199.010 C 313.348 198.109,313.731 197.215,313.731 197.023 C 313.731 196.832,313.868 196.629,314.036 196.573 C 314.523 196.411,314.070 195.613,313.332 195.333 C 312.558 195.039,306.226 194.991,305.810 195.276 " stroke="none" fill="#ffffff" fill-rule="evenodd"></path></g></svg>