<svg id="svg" version="1.1" xmlns="http://www.w3.org/2000/svg" xmlns:xlink="http://www.w3.org/1999/xlink" width="400" height="258.91472868217056" viewBox="0, 0, 400,258.91472868217056"><g id="svgg"><path id="path0" d="M196.184 42.989 C 195.723 43.104,194.168 43.280,192.728 43.382 C 190.887 43.513,189.462 43.792,187.931 44.323 C 186.733 44.738,185.565 45.078,185.337 45.078 C 185.108 45.078,184.379 45.366,183.717 45.718 C 183.055 46.070,181.988 46.594,181.347 46.883 C 179.682 47.632,177.489 48.858,176.963 49.334 C 176.716 49.558,176.402 49.741,176.266 49.741 C 175.737 49.741,167.358 57.587,167.358 58.082 C 167.358 58.206,167.037 58.649,166.645 59.065 C 165.392 60.398,164.584 61.511,164.384 62.176 C 164.278 62.532,163.928 63.115,163.607 63.472 C 163.286 63.828,162.890 64.520,162.726 65.009 C 162.563 65.499,162.267 66.081,162.069 66.304 C 161.871 66.527,161.523 67.342,161.295 68.114 C 161.068 68.887,160.723 69.762,160.528 70.059 C 160.333 70.357,159.978 71.474,159.739 72.541 C 159.500 73.609,159.136 74.948,158.931 75.518 C 158.123 77.757,158.036 82.914,158.034 129.016 C 158.033 175.566,158.090 178.814,158.951 180.699 C 159.146 181.127,159.498 182.351,159.733 183.420 C 159.968 184.488,160.367 185.712,160.619 186.140 C 160.871 186.567,161.152 187.342,161.245 187.862 C 161.337 188.382,161.649 189.108,161.937 189.475 C 162.226 189.841,162.638 190.658,162.853 191.288 C 163.067 191.919,163.470 192.639,163.746 192.890 C 164.022 193.140,164.249 193.477,164.249 193.639 C 164.249 193.801,164.833 194.686,165.548 195.606 C 166.263 196.527,167.047 197.571,167.291 197.927 C 167.921 198.848,172.424 203.308,173.964 204.536 C 174.676 205.105,175.299 205.660,175.348 205.771 C 175.396 205.881,175.804 206.129,176.254 206.321 C 176.704 206.513,177.353 206.918,177.695 207.221 C 178.037 207.524,178.458 207.772,178.630 207.772 C 178.802 207.772,179.397 208.080,179.951 208.456 C 180.505 208.832,181.559 209.346,182.293 209.599 C 183.027 209.851,183.901 210.234,184.236 210.449 C 184.571 210.664,185.400 210.921,186.078 211.020 C 186.757 211.119,187.374 211.300,187.450 211.422 C 188.559 213.217,204.664 213.488,209.326 211.791 C 210.253 211.454,211.418 211.099,211.917 211.002 C 212.416 210.904,213.174 210.616,213.601 210.360 C 214.028 210.104,214.903 209.745,215.544 209.561 C 216.185 209.378,217.027 208.969,217.416 208.652 C 217.804 208.335,218.533 207.940,219.035 207.774 C 219.537 207.608,219.948 207.390,219.948 207.290 C 219.948 207.189,220.327 206.886,220.790 206.616 C 221.581 206.156,222.999 205.141,224.705 203.815 C 225.840 202.932,229.309 199.368,230.181 198.189 C 230.609 197.611,231.337 196.663,231.801 196.083 C 232.264 195.503,232.642 194.885,232.642 194.710 C 232.642 194.534,232.924 194.126,233.268 193.803 C 233.612 193.480,233.971 192.906,234.066 192.527 C 234.160 192.149,234.513 191.476,234.851 191.033 C 235.188 190.589,235.547 189.890,235.647 189.478 C 235.747 189.067,236.161 188.102,236.567 187.334 C 236.973 186.566,237.306 185.741,237.306 185.501 C 237.306 185.261,237.603 184.214,237.966 183.175 C 239.505 178.768,239.478 179.745,239.488 128.109 C 239.498 77.567,239.484 77.009,238.203 73.549 C 237.971 72.922,237.620 71.772,237.424 70.992 C 237.228 70.213,236.784 69.047,236.438 68.401 C 236.093 67.756,235.722 66.938,235.614 66.584 C 235.506 66.229,235.151 65.530,234.823 65.029 C 234.496 64.529,234.153 63.810,234.061 63.431 C 233.969 63.053,233.612 62.479,233.268 62.156 C 232.924 61.832,232.642 61.472,232.642 61.356 C 232.642 61.163,232.152 60.454,230.121 57.709 C 228.222 55.142,223.205 50.768,219.948 48.838 C 219.022 48.290,217.830 47.569,217.298 47.236 C 216.767 46.904,216.229 46.632,216.104 46.632 C 215.978 46.632,215.125 46.292,214.209 45.877 C 213.293 45.461,212.085 45.036,211.526 44.931 C 210.967 44.826,209.981 44.504,209.335 44.215 C 207.484 43.389,198.103 42.514,196.184 42.989 " stroke="none" fill="#643494" fill-rule="evenodd"></path><path id="path1" d="M0.000 129.534 L 0.000 259.067 200.000 259.067 L 400.000 259.067 400.000 129.534 L 400.000 0.000 200.000 0.000 L 0.000 0.000 0.000 129.534 M204.793 43.327 C 206.926 43.557,208.591 43.883,209.335 44.215 C 209.981 44.504,210.967 44.826,211.526 44.931 C 212.085 45.036,213.293 45.461,214.209 45.877 C 215.125 46.292,215.978 46.632,216.104 46.632 C 216.229 46.632,216.767 46.904,217.298 47.236 C 217.830 47.569,219.022 48.290,219.948 48.838 C 223.205 50.768,228.222 55.142,230.121 57.709 C 232.152 60.454,232.642 61.163,232.642 61.356 C 232.642 61.472,232.924 61.832,233.268 62.156 C 233.612 62.479,233.969 63.053,234.061 63.431 C 234.153 63.810,234.496 64.529,234.823 65.029 C 235.151 65.530,235.506 66.229,235.614 66.584 C 235.722 66.938,236.093 67.756,236.438 68.401 C 236.784 69.047,237.228 70.213,237.424 70.992 C 237.620 71.772,237.971 72.922,238.203 73.549 C 239.484 77.009,239.498 77.567,239.488 128.109 C 239.478 179.745,239.505 178.768,237.966 183.175 C 237.603 184.214,237.306 185.261,237.306 185.501 C 237.306 185.741,236.973 186.566,236.567 187.334 C 236.161 188.102,235.747 189.067,235.647 189.478 C 235.547 189.890,235.188 190.589,234.851 191.033 C 234.513 191.476,234.160 192.149,234.066 192.527 C 233.971 192.906,233.612 193.480,233.268 193.803 C 232.924 194.126,232.642 194.534,232.642 194.710 C 232.642 194.885,232.264 195.503,231.801 196.083 C 231.337 196.663,230.609 197.611,230.181 198.189 C 229.309 199.368,225.840 202.932,224.705 203.815 C 222.999 205.141,221.581 206.156,220.790 206.616 C 220.327 206.886,219.948 207.189,219.948 207.290 C 219.948 207.390,219.537 207.608,219.035 207.774 C 218.533 207.940,217.804 208.335,217.416 208.652 C 217.027 208.969,216.185 209.378,215.544 209.561 C 214.903 209.745,214.028 210.104,213.601 210.360 C 213.174 210.616,212.416 210.904,211.917 211.002 C 211.418 211.099,210.253 211.454,209.326 211.791 C 204.664 213.488,188.559 213.217,187.450 211.422 C 187.374 211.300,186.757 211.119,186.078 211.020 C 185.400 210.921,184.571 210.664,184.236 210.449 C 183.901 210.234,183.027 209.851,182.293 209.599 C 181.559 209.346,180.505 208.832,179.951 208.456 C 179.397 208.080,178.802 207.772,178.630 207.772 C 178.458 207.772,178.037 207.524,177.695 207.221 C 177.353 206.918,176.704 206.513,176.254 206.321 C 175.804 206.129,175.396 205.881,175.348 205.771 C 175.299 205.660,174.676 205.105,173.964 204.536 C 172.424 203.308,167.921 198.848,167.291 197.927 C 167.047 197.571,166.263 196.527,165.548 195.606 C 164.833 194.686,164.249 193.801,164.249 193.639 C 164.249 193.477,164.022 193.140,163.746 192.890 C 163.470 192.639,163.067 191.919,162.853 191.288 C 162.638 190.658,162.226 189.841,161.937 189.475 C 161.649 189.108,161.337 188.382,161.245 187.862 C 161.152 187.342,160.871 186.567,160.619 186.140 C 160.367 185.712,159.968 184.488,159.733 183.420 C 159.498 182.351,159.146 181.127,158.951 180.699 C 158.090 178.814,158.033 175.566,158.034 129.016 C 158.036 82.914,158.123 77.757,158.931 75.518 C 159.136 74.948,159.500 73.609,159.739 72.541 C 159.978 71.474,160.333 70.357,160.528 70.059 C 160.723 69.762,161.068 68.887,161.295 68.114 C 161.523 67.342,161.871 66.527,162.069 66.304 C 162.267 66.081,162.563 65.499,162.726 65.009 C 162.890 64.520,163.286 63.828,163.607 63.472 C 163.928 63.115,164.278 62.532,164.384 62.176 C 164.584 61.511,165.392 60.398,166.645 59.065 C 167.037 58.649,167.358 58.206,167.358 58.082 C 167.358 57.587,175.737 49.741,176.266 49.741 C 176.402 49.741,176.716 49.558,176.963 49.334 C 177.489 48.858,179.682 47.632,181.347 46.883 C 181.988 46.594,183.055 46.070,183.717 45.718 C 184.379 45.366,185.108 45.078,185.337 45.078 C 185.565 45.078,186.733 44.738,187.931 44.323 C 189.462 43.792,190.887 43.513,192.728 43.382 C 194.168 43.280,195.723 43.104,196.184 42.989 C 197.231 42.730,200.421 42.855,204.793 43.327 " stroke="none" fill="#fcfcfc" fill-rule="evenodd"></path></g></svg>