<svg id="svg" version="1.1" xmlns="http://www.w3.org/2000/svg" xmlns:xlink="http://www.w3.org/1999/xlink" width="400" height="258.91472868217056" viewBox="0, 0, 400,258.91472868217056"><g id="svgg"><path id="path0" d="M136.269 41.957 C 135.201 42.074,133.744 42.401,133.031 42.685 C 132.319 42.969,131.211 43.288,130.570 43.395 C 129.929 43.502,128.776 43.924,128.008 44.333 C 127.239 44.743,126.352 45.078,126.035 45.078 C 125.719 45.078,125.020 45.427,124.482 45.855 C 123.944 46.282,123.392 46.632,123.255 46.632 C 122.994 46.632,119.914 48.449,119.689 48.736 C 119.618 48.827,118.977 49.340,118.264 49.877 C 116.917 50.892,112.304 55.484,111.089 57.019 C 110.705 57.504,109.977 58.408,109.470 59.027 C 108.964 59.646,108.549 60.276,108.549 60.428 C 108.549 60.579,108.258 61.084,107.902 61.552 C 107.545 62.019,107.254 62.502,107.254 62.626 C 107.254 62.750,106.906 63.400,106.481 64.070 C 106.056 64.741,105.631 65.609,105.536 65.999 C 105.442 66.390,105.099 67.267,104.775 67.948 C 104.450 68.628,104.064 69.749,103.916 70.437 C 103.769 71.126,103.416 72.278,103.132 72.998 C 102.141 75.512,102.078 78.762,102.075 127.239 C 102.072 176.669,102.104 178.117,103.251 181.003 C 103.600 181.882,103.887 182.873,103.889 183.205 C 103.891 183.537,104.231 184.475,104.644 185.290 C 105.058 186.105,105.473 187.124,105.568 187.554 C 105.662 187.984,105.858 188.409,106.003 188.499 C 106.148 188.589,106.608 189.377,107.025 190.251 C 107.898 192.078,108.664 193.351,109.585 194.508 C 109.942 194.956,110.933 196.213,111.788 197.302 C 113.186 199.085,114.058 200.003,116.318 202.073 C 116.707 202.429,117.945 203.354,119.069 204.129 C 120.194 204.904,121.172 205.616,121.244 205.712 C 121.315 205.807,121.898 206.116,122.539 206.398 C 123.180 206.680,123.865 207.104,124.060 207.341 C 124.256 207.578,124.570 207.772,124.759 207.772 C 124.948 207.772,125.645 208.061,126.309 208.414 C 126.973 208.767,128.380 209.298,129.434 209.594 C 130.489 209.890,131.766 210.305,132.272 210.516 C 135.585 211.901,150.309 211.796,153.670 210.364 C 154.336 210.080,155.600 209.680,156.481 209.475 C 157.362 209.269,158.275 208.937,158.510 208.736 C 158.745 208.535,159.462 208.168,160.104 207.920 C 160.745 207.672,161.444 207.321,161.658 207.138 C 161.872 206.956,162.542 206.594,163.148 206.333 C 163.753 206.072,164.249 205.768,164.249 205.656 C 164.249 205.545,164.607 205.269,165.044 205.042 C 165.482 204.816,166.539 204.084,167.393 203.417 C 168.247 202.749,169.246 201.969,169.613 201.684 C 170.871 200.706,174.749 196.272,175.384 195.087 C 175.534 194.806,175.946 194.264,176.300 193.882 C 176.654 193.501,176.943 193.039,176.943 192.856 C 176.943 192.674,177.123 192.344,177.343 192.124 C 177.563 191.904,177.985 191.167,178.282 190.486 C 178.578 189.806,178.969 189.074,179.150 188.860 C 179.331 188.646,179.667 187.914,179.895 187.232 C 180.124 186.550,180.481 185.732,180.689 185.415 C 180.897 185.098,181.256 184.025,181.486 183.030 C 181.717 182.036,182.022 181.082,182.163 180.911 C 183.110 179.771,183.143 177.965,183.144 127.073 C 183.145 76.500,183.119 75.125,182.119 72.150 C 181.831 71.295,181.479 70.106,181.335 69.506 C 181.192 68.907,180.925 68.266,180.742 68.082 C 180.559 67.897,180.202 67.105,179.948 66.321 C 179.694 65.538,179.337 64.722,179.154 64.508 C 178.970 64.294,178.570 63.595,178.263 62.953 C 177.331 61.004,176.550 59.746,175.095 57.853 C 172.214 54.104,170.709 52.474,168.950 51.198 C 167.482 50.133,166.187 49.108,165.728 48.650 C 165.473 48.395,165.150 48.187,165.010 48.187 C 164.869 48.187,164.161 47.778,163.436 47.280 C 162.711 46.781,161.971 46.373,161.790 46.373 C 161.610 46.373,161.322 46.204,161.151 45.998 C 160.980 45.792,160.295 45.430,159.630 45.194 C 158.964 44.958,157.973 44.531,157.426 44.245 C 156.880 43.959,155.772 43.572,154.965 43.386 C 154.158 43.199,152.798 42.793,151.943 42.482 C 150.205 41.852,140.279 41.519,136.269 41.957 M249.991 41.968 C 248.917 42.092,247.402 42.425,246.623 42.708 C 245.844 42.991,244.609 43.344,243.879 43.493 C 243.148 43.642,241.994 44.059,241.314 44.421 C 240.634 44.782,239.880 45.078,239.638 45.078 C 239.395 45.078,238.684 45.425,238.057 45.850 C 237.430 46.275,236.827 46.625,236.717 46.627 C 236.457 46.634,234.046 48.222,232.996 49.078 C 232.549 49.443,232.076 49.741,231.945 49.741 C 231.682 49.741,224.870 56.378,224.870 56.635 C 224.870 56.724,224.550 57.182,224.158 57.652 C 222.646 59.466,221.828 60.752,220.235 63.823 C 219.802 64.657,219.332 65.480,219.190 65.651 C 219.048 65.822,218.761 66.617,218.553 67.416 C 218.344 68.216,218.001 69.142,217.790 69.474 C 217.579 69.806,217.263 70.777,217.088 71.632 C 216.914 72.487,216.524 74.003,216.222 75.000 L 215.674 76.813 215.674 126.943 C 215.674 165.653,215.746 177.309,215.990 178.109 C 216.164 178.679,216.584 180.194,216.925 181.477 C 217.265 182.759,217.735 184.158,217.968 184.585 C 218.201 185.013,218.512 185.853,218.659 186.452 C 218.806 187.051,219.101 187.717,219.315 187.931 C 219.529 188.145,219.879 188.815,220.092 189.419 C 220.305 190.024,220.638 190.699,220.831 190.920 C 221.023 191.141,221.387 191.729,221.638 192.228 C 222.160 193.263,222.612 193.883,224.617 196.319 C 225.404 197.275,226.261 198.392,226.521 198.800 C 227.079 199.674,228.156 200.648,230.677 202.556 C 231.687 203.321,232.571 204.028,232.642 204.127 C 232.766 204.300,234.563 205.487,236.528 206.693 C 237.027 206.999,237.843 207.433,238.342 207.657 C 238.841 207.881,239.832 208.335,240.544 208.666 C 247.260 211.787,261.908 212.636,267.617 210.235 C 268.400 209.906,269.449 209.561,269.948 209.470 C 270.705 209.331,273.043 208.329,274.611 207.471 C 274.825 207.354,275.583 206.951,276.295 206.575 C 277.008 206.198,277.658 205.785,277.741 205.656 C 277.824 205.528,278.367 205.164,278.949 204.848 C 280.354 204.086,285.176 199.904,286.290 198.481 C 286.778 197.859,287.418 197.102,287.712 196.797 C 288.007 196.493,288.440 195.952,288.674 195.596 C 288.908 195.240,289.570 194.267,290.144 193.435 C 290.718 192.603,291.424 191.437,291.712 190.844 C 291.999 190.252,292.394 189.475,292.588 189.119 C 293.503 187.440,294.560 185.002,294.566 184.559 C 294.569 184.289,294.861 183.368,295.215 182.513 C 296.809 178.659,296.762 180.357,296.760 126.684 C 296.758 74.450,296.732 73.343,295.480 71.429 C 295.273 71.113,294.929 70.181,294.714 69.356 C 294.372 68.042,293.144 65.117,292.460 63.990 C 292.331 63.776,292.027 63.193,291.785 62.694 C 291.376 61.852,289.675 59.195,288.472 57.517 C 287.281 55.857,286.309 54.749,284.627 53.134 C 281.755 50.377,281.366 50.041,280.854 49.878 C 280.587 49.794,280.058 49.436,279.678 49.084 C 279.298 48.732,278.665 48.278,278.270 48.074 C 277.876 47.869,277.406 47.526,277.227 47.310 C 277.048 47.094,276.474 46.777,275.951 46.606 C 275.428 46.435,274.650 46.033,274.223 45.714 C 273.795 45.395,273.042 45.049,272.549 44.944 C 272.056 44.839,271.357 44.540,270.995 44.280 C 270.633 44.019,269.637 43.633,268.782 43.422 C 267.927 43.211,266.412 42.791,265.415 42.488 C 263.351 41.861,253.718 41.536,249.991 41.968 " stroke="none" fill="#643494" fill-rule="evenodd"></path><path id="path1" d="M0.000 129.534 L 0.000 259.067 200.000 259.067 L 400.000 259.067 400.000 129.534 L 400.000 0.000 200.000 0.000 L 0.000 0.000 0.000 129.534 M151.943 42.482 C 152.798 42.793,154.158 43.199,154.965 43.386 C 155.772 43.572,156.880 43.959,157.426 44.245 C 157.973 44.531,158.964 44.958,159.630 45.194 C 160.295 45.430,160.980 45.792,161.151 45.998 C 161.322 46.204,161.610 46.373,161.790 46.373 C 161.971 46.373,162.711 46.781,163.436 47.280 C 164.161 47.778,164.869 48.187,165.010 48.187 C 165.150 48.187,165.473 48.395,165.728 48.650 C 166.187 49.108,167.482 50.133,168.950 51.198 C 171.904 53.341,176.353 58.957,178.263 62.953 C 178.570 63.595,178.970 64.294,179.154 64.508 C 179.337 64.722,179.694 65.538,179.948 66.321 C 180.202 67.105,180.559 67.897,180.742 68.082 C 180.925 68.266,181.192 68.907,181.335 69.506 C 181.479 70.106,181.831 71.295,182.119 72.150 C 183.119 75.125,183.145 76.500,183.144 127.073 C 183.143 177.965,183.110 179.771,182.163 180.911 C 182.022 181.082,181.717 182.036,181.486 183.030 C 181.256 184.025,180.897 185.098,180.689 185.415 C 180.481 185.732,180.124 186.550,179.895 187.232 C 179.667 187.914,179.331 188.646,179.150 188.860 C 178.969 189.074,178.578 189.806,178.282 190.486 C 177.985 191.167,177.563 191.904,177.343 192.124 C 177.123 192.344,176.943 192.674,176.943 192.856 C 176.943 193.039,176.654 193.501,176.300 193.882 C 175.946 194.264,175.534 194.806,175.384 195.087 C 174.749 196.272,170.871 200.706,169.613 201.684 C 169.246 201.969,168.247 202.749,167.393 203.417 C 166.539 204.084,165.482 204.816,165.044 205.042 C 164.607 205.269,164.249 205.545,164.249 205.656 C 164.249 205.768,163.753 206.072,163.148 206.333 C 162.542 206.594,161.872 206.956,161.658 207.138 C 161.444 207.321,160.745 207.672,160.104 207.920 C 159.462 208.168,158.745 208.535,158.510 208.736 C 158.275 208.937,157.362 209.269,156.481 209.475 C 155.600 209.680,154.336 210.080,153.670 210.364 C 150.309 211.796,135.585 211.901,132.272 210.516 C 131.766 210.305,130.489 209.890,129.434 209.594 C 128.380 209.298,126.973 208.767,126.309 208.414 C 125.645 208.061,124.948 207.772,124.759 207.772 C 124.570 207.772,124.256 207.578,124.060 207.341 C 123.865 207.104,123.180 206.680,122.539 206.398 C 121.898 206.116,121.315 205.807,121.244 205.712 C 121.172 205.616,120.194 204.904,119.069 204.129 C 117.945 203.354,116.707 202.429,116.318 202.073 C 114.058 200.003,113.186 199.085,111.788 197.302 C 110.933 196.213,109.942 194.956,109.585 194.508 C 108.664 193.351,107.898 192.078,107.025 190.251 C 106.608 189.377,106.148 188.589,106.003 188.499 C 105.858 188.409,105.662 187.984,105.568 187.554 C 105.473 187.124,105.058 186.105,104.644 185.290 C 104.231 184.475,103.891 183.537,103.889 183.205 C 103.887 182.873,103.600 181.882,103.251 181.003 C 102.104 178.117,102.072 176.669,102.075 127.239 C 102.078 78.762,102.141 75.512,103.132 72.998 C 103.416 72.278,103.769 71.126,103.916 70.437 C 104.064 69.749,104.450 68.628,104.775 67.948 C 105.099 67.267,105.442 66.390,105.536 65.999 C 105.631 65.609,106.056 64.741,106.481 64.070 C 106.906 63.400,107.254 62.750,107.254 62.626 C 107.254 62.502,107.545 62.019,107.902 61.552 C 108.258 61.084,108.549 60.579,108.549 60.428 C 108.549 60.276,108.964 59.646,109.470 59.027 C 109.977 58.408,110.705 57.504,111.089 57.019 C 112.304 55.484,116.917 50.892,118.264 49.877 C 118.977 49.340,119.618 48.827,119.689 48.736 C 119.914 48.449,122.994 46.632,123.255 46.632 C 123.392 46.632,123.944 46.282,124.482 45.855 C 125.020 45.427,125.719 45.078,126.035 45.078 C 126.352 45.078,127.239 44.743,128.008 44.333 C 128.776 43.924,129.929 43.502,130.570 43.395 C 131.211 43.288,132.319 42.969,133.031 42.685 C 135.903 41.541,148.964 41.401,151.943 42.482 M265.415 42.488 C 266.412 42.791,267.927 43.211,268.782 43.422 C 269.637 43.633,270.633 44.019,270.995 44.280 C 271.357 44.540,272.056 44.839,272.549 44.944 C 273.042 45.049,273.795 45.395,274.223 45.714 C 274.650 46.033,275.428 46.435,275.951 46.606 C 276.474 46.777,277.048 47.094,277.227 47.310 C 277.406 47.526,277.876 47.869,278.270 48.074 C 278.665 48.278,279.298 48.732,279.678 49.084 C 280.058 49.436,280.587 49.794,280.854 49.878 C 281.366 50.041,281.755 50.377,284.627 53.134 C 286.309 54.749,287.281 55.857,288.472 57.517 C 289.675 59.195,291.376 61.852,291.785 62.694 C 292.027 63.193,292.331 63.776,292.460 63.990 C 293.144 65.117,294.372 68.042,294.714 69.356 C 294.929 70.181,295.273 71.113,295.480 71.429 C 296.732 73.343,296.758 74.450,296.760 126.684 C 296.762 180.357,296.809 178.659,295.215 182.513 C 294.861 183.368,294.569 184.289,294.566 184.559 C 294.560 185.002,293.503 187.440,292.588 189.119 C 292.394 189.475,291.999 190.252,291.712 190.844 C 291.424 191.437,290.718 192.603,290.144 193.435 C 289.570 194.267,288.908 195.240,288.674 195.596 C 288.440 195.952,288.007 196.493,287.712 196.797 C 287.418 197.102,286.778 197.859,286.290 198.481 C 285.176 199.904,280.354 204.086,278.949 204.848 C 278.367 205.164,277.824 205.528,277.741 205.656 C 277.658 205.785,277.008 206.198,276.295 206.575 C 275.583 206.951,274.825 207.354,274.611 207.471 C 273.043 208.329,270.705 209.331,269.948 209.470 C 269.449 209.561,268.400 209.906,267.617 210.235 C 261.908 212.636,247.260 211.787,240.544 208.666 C 239.832 208.335,238.841 207.881,238.342 207.657 C 237.843 207.433,237.027 206.999,236.528 206.693 C 234.563 205.487,232.766 204.300,232.642 204.127 C 232.571 204.028,231.687 203.321,230.677 202.556 C 228.156 200.648,227.079 199.674,226.521 198.800 C 226.261 198.392,225.404 197.275,224.617 196.319 C 222.612 193.883,222.160 193.263,221.638 192.228 C 221.387 191.729,221.023 191.141,220.831 190.920 C 220.638 190.699,220.305 190.024,220.092 189.419 C 219.879 188.815,219.529 188.145,219.315 187.931 C 219.101 187.717,218.806 187.051,218.659 186.452 C 218.512 185.853,218.201 185.013,217.968 184.585 C 217.735 184.158,217.265 182.759,216.925 181.477 C 216.584 180.194,216.164 178.679,215.990 178.109 C 215.746 177.309,215.674 165.653,215.674 126.943 L 215.674 76.813 216.222 75.000 C 216.524 74.003,216.914 72.487,217.088 71.632 C 217.263 70.777,217.579 69.806,217.790 69.474 C 218.001 69.142,218.344 68.216,218.553 67.416 C 218.761 66.617,219.048 65.822,219.190 65.651 C 219.332 65.480,219.802 64.657,220.235 63.823 C 221.828 60.752,222.646 59.466,224.158 57.652 C 224.550 57.182,224.870 56.724,224.870 56.635 C 224.870 56.378,231.682 49.741,231.945 49.741 C 232.076 49.741,232.549 49.443,232.996 49.078 C 234.046 48.222,236.457 46.634,236.717 46.627 C 236.827 46.625,237.430 46.275,238.057 45.850 C 238.684 45.425,239.395 45.078,239.638 45.078 C 239.880 45.078,240.634 44.782,241.314 44.421 C 241.994 44.059,243.148 43.642,243.879 43.493 C 244.609 43.344,245.844 42.991,246.623 42.708 C 249.796 41.555,261.879 41.414,265.415 42.488 " stroke="none" fill="#fcfcfc" fill-rule="evenodd"></path></g></svg>