<svg id="svg" version="1.1" xmlns="http://www.w3.org/2000/svg" xmlns:xlink="http://www.w3.org/1999/xlink" width="400" height="258.91472868217056" viewBox="0, 0, 400,258.91472868217056"><g id="svgg"><path id="path0" d="M83.938 42.978 C 83.639 43.144,77.694 44.045,76.918 44.042 C 76.833 44.042,76.512 44.260,76.204 44.526 C 75.897 44.793,74.917 45.152,74.027 45.325 C 73.138 45.499,72.176 45.849,71.891 46.104 C 71.606 46.359,70.907 46.714,70.337 46.891 C 69.767 47.069,69.067 47.419,68.782 47.671 C 68.497 47.922,67.973 48.214,67.617 48.321 C 67.260 48.428,66.586 48.850,66.118 49.258 C 65.650 49.666,65.156 50.000,65.021 50.000 C 64.781 50.000,63.900 50.713,62.379 52.137 C 61.960 52.529,61.568 52.850,61.506 52.850 C 61.445 52.850,60.550 53.720,59.519 54.784 C 56.837 57.549,56.218 58.234,56.218 58.434 C 56.218 58.531,55.868 59.009,55.440 59.496 C 55.013 59.982,54.663 60.531,54.663 60.714 C 54.663 60.897,54.313 61.438,53.886 61.917 C 53.459 62.396,53.109 62.983,53.109 63.221 C 53.109 63.460,52.818 63.968,52.463 64.351 C 52.108 64.734,51.742 65.364,51.650 65.749 C 51.446 66.599,50.789 67.951,50.482 68.150 C 50.360 68.229,50.135 68.987,49.983 69.834 C 49.831 70.680,49.459 71.893,49.156 72.528 C 48.765 73.350,48.523 74.620,48.319 76.932 C 48.162 78.719,47.892 80.436,47.721 80.747 C 47.217 81.661,47.275 172.727,47.780 174.785 C 47.984 175.616,48.231 177.403,48.329 178.756 C 48.451 180.442,48.674 181.544,49.036 182.254 C 49.328 182.824,49.723 184.030,49.914 184.935 C 50.105 185.840,50.498 186.880,50.786 187.246 C 51.074 187.613,51.435 188.409,51.588 189.016 C 51.741 189.624,52.009 190.175,52.184 190.242 C 52.358 190.309,52.714 190.929,52.974 191.620 C 53.235 192.310,53.721 193.154,54.056 193.494 C 54.390 193.834,54.663 194.254,54.663 194.427 C 54.663 194.600,54.984 195.087,55.376 195.510 C 55.767 195.932,56.496 196.788,56.995 197.413 C 58.370 199.137,61.963 202.734,62.689 203.114 C 63.043 203.299,63.547 203.723,63.809 204.057 C 64.072 204.390,64.432 204.663,64.611 204.663 C 64.790 204.663,65.209 204.955,65.544 205.311 C 65.879 205.667,66.290 205.959,66.457 205.959 C 66.625 205.959,67.217 206.289,67.774 206.692 C 68.331 207.095,69.135 207.512,69.562 207.619 C 69.988 207.725,70.696 208.086,71.135 208.420 C 71.575 208.754,72.391 209.111,72.949 209.214 C 73.507 209.316,74.494 209.675,75.142 210.010 C 75.820 210.362,77.166 210.728,78.315 210.874 C 79.412 211.013,80.625 211.334,81.011 211.587 C 82.052 212.269,93.226 212.280,94.468 211.601 C 94.916 211.355,95.790 211.087,96.411 211.004 C 98.976 210.663,100.777 210.292,100.777 210.106 C 100.777 209.884,101.814 209.454,102.948 209.205 C 103.358 209.115,104.114 208.755,104.627 208.406 C 105.141 208.057,105.746 207.772,105.973 207.772 C 106.200 207.772,106.959 207.364,107.661 206.865 C 108.362 206.367,109.064 205.959,109.221 205.959 C 109.377 205.959,109.715 205.726,109.972 205.443 C 110.229 205.159,110.946 204.629,111.567 204.266 C 112.187 203.903,112.694 203.505,112.694 203.382 C 112.694 203.260,113.033 203.041,113.447 202.897 C 113.861 202.753,114.275 202.398,114.367 202.108 C 114.459 201.818,114.769 201.507,115.055 201.416 C 115.341 201.325,115.703 200.971,115.858 200.630 C 116.014 200.289,116.363 199.939,116.635 199.853 C 116.907 199.767,117.257 199.416,117.413 199.074 C 117.569 198.733,117.970 198.274,118.304 198.055 C 118.638 197.836,118.912 197.528,118.912 197.370 C 118.912 197.212,119.320 196.632,119.819 196.080 C 120.317 195.528,120.725 194.910,120.725 194.707 C 120.725 194.504,121.001 194.121,121.338 193.856 C 121.675 193.591,122.038 193.087,122.145 192.736 C 122.252 192.385,122.612 191.735,122.944 191.292 C 123.276 190.848,123.631 190.149,123.733 189.737 C 123.835 189.326,124.196 188.569,124.534 188.054 C 124.873 187.540,125.221 186.666,125.308 186.111 C 125.395 185.557,125.742 184.570,126.079 183.917 C 126.467 183.167,126.795 181.882,126.974 180.420 C 127.129 179.149,127.371 177.892,127.512 177.627 C 128.457 175.854,128.495 173.895,128.496 127.401 C 128.497 81.767,128.458 79.627,127.579 77.550 C 127.389 77.100,127.157 75.992,127.064 75.089 C 126.843 72.949,126.466 71.473,126.011 70.963 C 125.811 70.738,125.520 69.872,125.366 69.039 C 125.212 68.207,124.820 67.167,124.494 66.729 C 124.169 66.291,123.822 65.596,123.725 65.185 C 123.627 64.773,123.276 64.074,122.944 63.630 C 122.612 63.187,122.252 62.537,122.145 62.186 C 122.038 61.835,121.675 61.331,121.338 61.066 C 121.001 60.801,120.725 60.430,120.725 60.241 C 120.725 59.886,120.458 59.544,117.593 56.242 C 115.662 54.017,112.802 51.295,112.393 51.295 C 112.244 51.295,111.892 51.004,111.612 50.648 C 111.332 50.291,110.930 50.000,110.720 50.000 C 110.510 50.000,110.081 49.731,109.767 49.401 C 109.454 49.072,108.789 48.646,108.290 48.453 C 107.791 48.261,107.203 47.882,106.982 47.611 C 106.761 47.340,106.061 47.002,105.427 46.859 C 104.793 46.717,104.041 46.392,103.756 46.137 C 103.472 45.882,102.655 45.519,101.943 45.330 C 101.231 45.141,100.240 44.779,99.741 44.526 C 99.227 44.265,97.375 43.879,95.466 43.636 C 93.614 43.401,91.902 43.104,91.662 42.977 C 91.112 42.686,84.461 42.687,83.938 42.978 M193.912 43.132 C 193.342 43.315,191.716 43.597,190.299 43.759 C 188.882 43.921,187.541 44.213,187.320 44.409 C 187.098 44.605,186.159 44.970,185.233 45.220 C 184.307 45.471,183.365 45.833,183.139 46.025 C 182.914 46.218,182.156 46.565,181.455 46.798 C 180.755 47.030,179.948 47.426,179.663 47.679 C 179.378 47.931,178.706 48.318,178.170 48.539 C 177.634 48.760,177.126 49.120,177.041 49.341 C 176.957 49.561,176.732 49.741,176.542 49.741 C 176.353 49.741,175.636 50.212,174.951 50.788 C 174.266 51.365,173.429 52.067,173.092 52.350 C 172.755 52.632,172.270 52.975,172.014 53.112 C 171.485 53.396,169.430 55.440,169.430 55.683 C 169.430 55.771,169.109 56.205,168.718 56.648 C 168.326 57.090,167.597 58.003,167.098 58.676 C 166.600 59.349,165.917 60.196,165.582 60.559 C 165.246 60.921,164.851 61.579,164.704 62.021 C 164.557 62.462,164.223 63.060,163.963 63.349 C 163.702 63.638,163.307 64.390,163.085 65.020 C 162.863 65.650,162.507 66.358,162.295 66.592 C 162.083 66.826,161.731 67.706,161.512 68.548 C 161.293 69.389,160.942 70.340,160.732 70.661 C 160.522 70.981,160.173 72.263,159.956 73.510 C 159.738 74.757,159.362 76.069,159.120 76.425 C 158.602 77.185,158.282 174.991,158.790 177.073 C 158.929 177.642,159.226 178.750,159.450 179.534 C 159.674 180.317,159.962 181.687,160.090 182.577 C 160.224 183.505,160.546 184.478,160.846 184.859 C 161.134 185.225,161.499 186.149,161.657 186.913 C 161.816 187.677,162.099 188.429,162.286 188.585 C 162.473 188.740,162.835 189.420,163.089 190.094 C 163.344 190.769,163.825 191.651,164.159 192.054 C 164.494 192.456,164.767 192.877,164.767 192.989 C 164.767 193.100,165.174 193.703,165.671 194.329 C 166.168 194.954,166.576 195.608,166.578 195.781 C 166.579 195.954,166.789 196.207,167.044 196.344 C 167.299 196.480,167.678 196.919,167.886 197.318 C 168.325 198.162,172.896 202.850,173.279 202.850 C 173.421 202.850,173.754 203.125,174.019 203.462 C 174.284 203.799,174.847 204.253,175.269 204.472 C 175.692 204.690,176.253 205.108,176.517 205.399 C 176.781 205.691,177.335 206.004,177.749 206.094 C 178.163 206.185,178.619 206.479,178.763 206.748 C 178.906 207.016,179.518 207.378,180.121 207.553 C 180.724 207.727,181.527 208.123,181.906 208.432 C 182.285 208.741,183.066 209.069,183.643 209.161 C 184.220 209.253,185.211 209.605,185.845 209.942 C 186.492 210.286,187.920 210.690,189.099 210.862 C 190.254 211.031,191.634 211.367,192.167 211.608 C 193.635 212.274,205.145 212.265,205.882 211.597 C 206.186 211.323,207.177 211.040,208.435 210.869 C 209.573 210.715,211.013 210.323,211.658 209.991 C 212.299 209.661,213.308 209.310,213.900 209.211 C 214.491 209.112,215.351 208.753,215.810 208.415 C 216.269 208.076,216.967 207.728,217.363 207.641 C 217.758 207.555,218.290 207.253,218.545 206.971 C 218.800 206.689,219.513 206.235,220.129 205.962 C 220.746 205.690,221.319 205.286,221.404 205.065 C 221.489 204.844,221.714 204.663,221.906 204.663 C 222.097 204.663,222.580 204.373,222.979 204.018 C 223.378 203.663,224.203 202.935,224.811 202.399 C 227.189 200.306,230.829 196.396,230.829 195.935 C 230.829 195.765,231.045 195.473,231.309 195.287 C 231.572 195.101,231.998 194.540,232.254 194.041 C 232.510 193.543,232.993 192.774,233.329 192.333 C 233.664 191.892,233.938 191.347,233.938 191.121 C 233.938 190.895,234.088 190.557,234.272 190.368 C 235.001 189.622,235.492 188.714,235.492 188.113 C 235.492 187.765,235.786 186.980,236.145 186.368 C 236.503 185.755,236.908 184.667,237.044 183.949 C 237.181 183.232,237.516 182.148,237.791 181.542 C 238.796 179.322,238.860 176.075,238.860 127.301 C 238.860 78.377,238.802 75.475,237.779 73.459 C 237.494 72.896,237.148 71.730,237.010 70.868 C 236.868 69.973,236.489 68.906,236.126 68.380 C 235.778 67.873,235.492 67.195,235.492 66.873 C 235.492 66.223,235.060 65.294,234.572 64.896 C 234.397 64.754,234.116 64.200,233.947 63.667 C 233.777 63.133,233.432 62.550,233.180 62.371 C 232.927 62.193,232.476 61.493,232.178 60.816 C 231.880 60.139,231.531 59.585,231.403 59.585 C 231.276 59.585,231.040 59.296,230.878 58.943 C 230.476 58.060,226.364 53.679,225.256 52.953 C 224.913 52.728,224.561 52.322,224.475 52.049 C 224.388 51.777,224.168 51.554,223.985 51.554 C 223.802 51.554,223.297 51.234,222.863 50.842 C 221.827 49.907,220.593 49.097,219.236 48.461 C 218.630 48.178,218.135 47.835,218.135 47.698 C 218.135 47.562,217.523 47.248,216.775 47.000 C 216.027 46.752,215.123 46.338,214.767 46.079 C 214.411 45.821,213.379 45.439,212.474 45.231 C 211.570 45.023,210.637 44.679,210.402 44.468 C 209.187 43.374,196.387 42.337,193.912 43.132 M305.569 42.960 C 305.427 43.090,303.795 43.392,301.943 43.630 C 299.715 43.917,298.356 44.218,297.927 44.521 C 297.571 44.773,296.609 45.126,295.790 45.306 C 294.971 45.486,294.127 45.806,293.916 46.017 C 293.705 46.229,292.976 46.586,292.297 46.811 C 291.618 47.036,290.829 47.424,290.544 47.674 C 290.259 47.923,289.783 48.201,289.485 48.290 C 289.188 48.380,288.555 48.802,288.078 49.227 C 287.602 49.652,287.063 50.000,286.879 50.000 C 286.696 50.000,286.163 50.346,285.695 50.768 C 285.227 51.190,284.463 51.861,283.996 52.257 C 282.261 53.733,279.275 56.804,279.275 57.111 C 279.275 57.286,278.983 57.563,278.627 57.725 C 278.271 57.887,277.979 58.186,277.979 58.390 C 277.979 58.593,277.571 59.248,277.073 59.845 C 276.574 60.441,276.166 61.085,276.166 61.275 C 276.166 61.465,275.894 61.834,275.562 62.096 C 275.229 62.357,274.872 62.919,274.768 63.345 C 274.664 63.771,274.304 64.527,273.967 65.026 C 273.631 65.525,273.230 66.415,273.075 67.004 C 272.921 67.592,272.628 68.213,272.424 68.381 C 272.221 68.550,271.868 69.506,271.641 70.505 C 271.414 71.505,271.065 72.575,270.866 72.884 C 270.397 73.613,270.230 74.580,269.822 78.927 C 269.637 80.899,269.359 82.979,269.205 83.549 C 268.738 85.274,268.805 171.415,269.274 172.854 C 269.474 173.464,269.713 174.955,269.807 176.166 C 270.057 179.405,270.450 181.675,270.837 182.120 C 271.025 182.336,271.374 183.407,271.613 184.500 C 271.851 185.593,272.210 186.622,272.410 186.788 C 272.610 186.954,272.965 187.751,273.199 188.558 C 273.432 189.365,273.846 190.234,274.118 190.489 C 274.389 190.744,274.611 191.094,274.611 191.267 C 274.611 191.440,275.019 192.156,275.518 192.857 C 276.017 193.559,276.425 194.274,276.425 194.446 C 276.425 194.618,276.716 194.950,277.073 195.183 C 277.429 195.417,277.720 195.762,277.720 195.950 C 277.720 196.139,277.968 196.515,278.272 196.786 C 278.575 197.058,279.093 197.703,279.422 198.221 C 279.970 199.084,283.435 202.328,285.472 203.886 C 285.937 204.242,286.599 204.790,286.941 205.104 C 287.283 205.418,288.059 205.894,288.665 206.163 C 289.271 206.432,289.924 206.842,290.117 207.075 C 290.309 207.309,290.844 207.570,291.306 207.657 C 291.768 207.743,292.463 208.087,292.852 208.421 C 293.240 208.755,294.045 209.110,294.642 209.210 C 295.238 209.310,296.256 209.668,296.903 210.006 C 297.589 210.364,298.916 210.727,300.076 210.874 C 301.173 211.013,302.387 211.334,302.773 211.587 C 303.809 212.266,314.503 212.274,316.451 211.596 C 317.163 211.349,318.782 210.966,320.048 210.747 C 321.314 210.527,322.655 210.132,323.028 209.869 C 323.400 209.605,324.204 209.306,324.815 209.204 C 325.425 209.102,326.241 208.757,326.628 208.437 C 327.015 208.117,327.732 207.718,328.222 207.551 C 328.711 207.384,329.315 207.063,329.564 206.838 C 329.813 206.613,330.364 206.236,330.789 205.999 C 332.125 205.257,334.312 203.731,334.682 203.281 C 334.878 203.044,335.178 202.850,335.351 202.850 C 335.523 202.850,335.815 202.567,336.000 202.222 C 336.185 201.876,336.612 201.525,336.950 201.440 C 337.288 201.355,337.565 201.166,337.565 201.020 C 337.565 200.873,337.827 200.491,338.148 200.170 C 338.469 199.849,338.938 199.271,339.191 198.886 C 339.443 198.501,339.803 198.187,339.990 198.187 C 340.178 198.187,340.459 197.906,340.616 197.562 C 340.952 196.824,342.505 194.652,343.233 193.902 C 343.515 193.611,343.819 193.078,343.910 192.718 C 344.000 192.357,344.353 191.738,344.694 191.341 C 345.036 190.943,345.451 190.194,345.618 189.675 C 345.784 189.155,346.084 188.542,346.285 188.312 C 346.485 188.082,346.834 187.149,347.060 186.240 C 347.286 185.330,347.679 184.236,347.934 183.808 C 348.189 183.381,348.535 182.098,348.702 180.959 C 348.869 179.819,349.201 178.595,349.438 178.238 C 350.112 177.228,350.103 78.791,349.429 76.813 C 349.186 76.101,348.805 74.533,348.583 73.329 C 348.360 72.124,348.054 71.063,347.903 70.969 C 347.752 70.876,347.405 69.948,347.131 68.906 C 346.858 67.864,346.473 66.827,346.276 66.602 C 346.080 66.376,345.764 65.725,345.575 65.155 C 345.386 64.585,345.108 64.003,344.957 63.860 C 344.513 63.441,343.782 62.219,343.782 61.896 C 343.782 61.731,343.462 61.211,343.070 60.738 C 342.678 60.266,341.949 59.327,341.451 58.652 C 339.563 56.095,337.099 53.598,334.067 51.169 C 331.868 49.407,331.257 48.990,330.074 48.440 C 329.444 48.148,328.803 47.757,328.649 47.571 C 328.494 47.385,327.785 47.020,327.073 46.759 C 326.360 46.498,325.661 46.145,325.518 45.974 C 325.376 45.803,324.462 45.469,323.488 45.232 C 322.515 44.996,321.465 44.638,321.157 44.437 C 320.848 44.236,319.547 43.937,318.264 43.774 C 316.982 43.610,315.466 43.348,314.896 43.192 C 313.583 42.833,305.914 42.642,305.569 42.960 " stroke="none" fill="#643594" fill-rule="evenodd"></path><path id="path1" d="M0.000 129.534 L 0.000 259.067 200.000 259.067 L 400.000 259.067 400.000 129.534 L 400.000 0.000 200.000 0.000 L 0.000 0.000 0.000 129.534 M91.662 42.977 C 91.902 43.104,93.614 43.401,95.466 43.636 C 97.375 43.879,99.227 44.265,99.741 44.526 C 100.240 44.779,101.231 45.141,101.943 45.330 C 102.655 45.519,103.472 45.882,103.756 46.137 C 104.041 46.392,104.793 46.717,105.427 46.859 C 106.061 47.002,106.761 47.340,106.982 47.611 C 107.203 47.882,107.791 48.261,108.290 48.453 C 108.789 48.646,109.454 49.072,109.767 49.401 C 110.081 49.731,110.510 50.000,110.720 50.000 C 110.930 50.000,111.332 50.291,111.612 50.648 C 111.892 51.004,112.244 51.295,112.393 51.295 C 112.802 51.295,115.662 54.017,117.593 56.242 C 120.458 59.544,120.725 59.886,120.725 60.241 C 120.725 60.430,121.001 60.801,121.338 61.066 C 121.675 61.331,122.038 61.835,122.145 62.186 C 122.252 62.537,122.612 63.187,122.944 63.630 C 123.276 64.074,123.627 64.773,123.725 65.185 C 123.822 65.596,124.169 66.291,124.494 66.729 C 124.820 67.167,125.212 68.207,125.366 69.039 C 125.520 69.872,125.811 70.738,126.011 70.963 C 126.466 71.473,126.843 72.949,127.064 75.089 C 127.157 75.992,127.389 77.100,127.579 77.550 C 128.458 79.627,128.497 81.767,128.496 127.401 C 128.495 173.895,128.457 175.854,127.512 177.627 C 127.371 177.892,127.129 179.149,126.974 180.420 C 126.795 181.882,126.467 183.167,126.079 183.917 C 125.742 184.570,125.395 185.557,125.308 186.111 C 125.221 186.666,124.873 187.540,124.534 188.054 C 124.196 188.569,123.835 189.326,123.733 189.737 C 123.631 190.149,123.276 190.848,122.944 191.292 C 122.612 191.735,122.252 192.385,122.145 192.736 C 122.038 193.087,121.675 193.591,121.338 193.856 C 121.001 194.121,120.725 194.504,120.725 194.707 C 120.725 194.910,120.317 195.528,119.819 196.080 C 119.320 196.632,118.912 197.212,118.912 197.370 C 118.912 197.528,118.638 197.836,118.304 198.055 C 117.970 198.274,117.569 198.733,117.413 199.074 C 117.257 199.416,116.907 199.767,116.635 199.853 C 116.363 199.939,116.014 200.289,115.858 200.630 C 115.703 200.971,115.341 201.325,115.055 201.416 C 114.769 201.507,114.459 201.818,114.367 202.108 C 114.275 202.398,113.861 202.753,113.447 202.897 C 113.033 203.041,112.694 203.260,112.694 203.382 C 112.694 203.505,112.187 203.903,111.567 204.266 C 110.946 204.629,110.229 205.159,109.972 205.443 C 109.715 205.726,109.377 205.959,109.221 205.959 C 109.064 205.959,108.362 206.367,107.661 206.865 C 106.959 207.364,106.200 207.772,105.973 207.772 C 105.746 207.772,105.141 208.057,104.627 208.406 C 104.114 208.755,103.358 209.115,102.948 209.205 C 101.814 209.454,100.777 209.884,100.777 210.106 C 100.777 210.292,98.976 210.663,96.411 211.004 C 95.790 211.087,94.916 211.355,94.468 211.601 C 93.226 212.280,82.052 212.269,81.011 211.587 C 80.625 211.334,79.412 211.013,78.315 210.874 C 77.166 210.728,75.820 210.362,75.142 210.010 C 74.494 209.675,73.507 209.316,72.949 209.214 C 72.391 209.111,71.575 208.754,71.135 208.420 C 70.696 208.086,69.988 207.725,69.562 207.619 C 69.135 207.512,68.331 207.095,67.774 206.692 C 67.217 206.289,66.625 205.959,66.457 205.959 C 66.290 205.959,65.879 205.667,65.544 205.311 C 65.209 204.955,64.790 204.663,64.611 204.663 C 64.432 204.663,64.072 204.390,63.809 204.057 C 63.547 203.723,63.043 203.299,62.689 203.114 C 61.963 202.734,58.370 199.137,56.995 197.413 C 56.496 196.788,55.767 195.932,55.376 195.510 C 54.984 195.087,54.663 194.600,54.663 194.427 C 54.663 194.254,54.390 193.834,54.056 193.494 C 53.721 193.154,53.235 192.310,52.974 191.620 C 52.714 190.929,52.358 190.309,52.184 190.242 C 52.009 190.175,51.741 189.624,51.588 189.016 C 51.435 188.409,51.074 187.613,50.786 187.246 C 50.498 186.880,50.105 185.840,49.914 184.935 C 49.723 184.030,49.328 182.824,49.036 182.254 C 48.674 181.544,48.451 180.442,48.329 178.756 C 48.231 177.403,47.984 175.616,47.780 174.785 C 47.275 172.727,47.217 81.661,47.721 80.747 C 47.892 80.436,48.162 78.719,48.319 76.932 C 48.523 74.620,48.765 73.350,49.156 72.528 C 49.459 71.893,49.831 70.680,49.983 69.834 C 50.135 68.987,50.360 68.229,50.482 68.150 C 50.789 67.951,51.446 66.599,51.650 65.749 C 51.742 65.364,52.108 64.734,52.463 64.351 C 52.818 63.968,53.109 63.460,53.109 63.221 C 53.109 62.983,53.459 62.396,53.886 61.917 C 54.313 61.438,54.663 60.897,54.663 60.714 C 54.663 60.531,55.013 59.982,55.440 59.496 C 55.868 59.009,56.218 58.531,56.218 58.434 C 56.218 58.234,56.837 57.549,59.519 54.784 C 60.550 53.720,61.445 52.850,61.506 52.850 C 61.568 52.850,61.960 52.529,62.379 52.137 C 63.900 50.713,64.781 50.000,65.021 50.000 C 65.156 50.000,65.650 49.666,66.118 49.258 C 66.586 48.850,67.260 48.428,67.617 48.321 C 67.973 48.214,68.497 47.922,68.782 47.671 C 69.067 47.419,69.767 47.069,70.337 46.891 C 70.907 46.714,71.606 46.359,71.891 46.104 C 72.176 45.849,73.138 45.499,74.027 45.325 C 74.917 45.152,75.897 44.793,76.204 44.526 C 76.512 44.260,76.833 44.042,76.918 44.042 C 77.694 44.045,83.639 43.144,83.938 42.978 C 84.461 42.687,91.112 42.686,91.662 42.977 M206.477 43.514 C 208.469 43.838,210.158 44.248,210.402 44.468 C 210.637 44.679,211.570 45.023,212.474 45.231 C 213.379 45.439,214.411 45.821,214.767 46.079 C 215.123 46.338,216.027 46.752,216.775 47.000 C 217.523 47.248,218.135 47.562,218.135 47.698 C 218.135 47.835,218.630 48.178,219.236 48.461 C 220.593 49.097,221.827 49.907,222.863 50.842 C 223.297 51.234,223.802 51.554,223.985 51.554 C 224.168 51.554,224.388 51.777,224.475 52.049 C 224.561 52.322,224.913 52.728,225.256 52.953 C 226.364 53.679,230.476 58.060,230.878 58.943 C 231.040 59.296,231.276 59.585,231.403 59.585 C 231.531 59.585,231.880 60.139,232.178 60.816 C 232.476 61.493,232.927 62.193,233.180 62.371 C 233.432 62.550,233.777 63.133,233.947 63.667 C 234.116 64.200,234.397 64.754,234.572 64.896 C 235.060 65.294,235.492 66.223,235.492 66.873 C 235.492 67.195,235.778 67.873,236.126 68.380 C 236.489 68.906,236.868 69.973,237.010 70.868 C 237.148 71.730,237.494 72.896,237.779 73.459 C 238.802 75.475,238.860 78.377,238.860 127.301 C 238.860 176.075,238.796 179.322,237.791 181.542 C 237.516 182.148,237.181 183.232,237.044 183.949 C 236.908 184.667,236.503 185.755,236.145 186.368 C 235.786 186.980,235.492 187.765,235.492 188.113 C 235.492 188.714,235.001 189.622,234.272 190.368 C 234.088 190.557,233.938 190.895,233.938 191.121 C 233.938 191.347,233.664 191.892,233.329 192.333 C 232.993 192.774,232.510 193.543,232.254 194.041 C 231.998 194.540,231.572 195.101,231.309 195.287 C 231.045 195.473,230.829 195.765,230.829 195.935 C 230.829 196.396,227.189 200.306,224.811 202.399 C 224.203 202.935,223.378 203.663,222.979 204.018 C 222.580 204.373,222.097 204.663,221.906 204.663 C 221.714 204.663,221.489 204.844,221.404 205.065 C 221.319 205.286,220.746 205.690,220.129 205.962 C 219.513 206.235,218.800 206.689,218.545 206.971 C 218.290 207.253,217.758 207.555,217.363 207.641 C 216.967 207.728,216.269 208.076,215.810 208.415 C 215.351 208.753,214.491 209.112,213.900 209.211 C 213.308 209.310,212.299 209.661,211.658 209.991 C 211.013 210.323,209.573 210.715,208.435 210.869 C 207.177 211.040,206.186 211.323,205.882 211.597 C 205.145 212.265,193.635 212.274,192.167 211.608 C 191.634 211.367,190.254 211.031,189.099 210.862 C 187.920 210.690,186.492 210.286,185.845 209.942 C 185.211 209.605,184.220 209.253,183.643 209.161 C 183.066 209.069,182.285 208.741,181.906 208.432 C 181.527 208.123,180.724 207.727,180.121 207.553 C 179.518 207.378,178.906 207.016,178.763 206.748 C 178.619 206.479,178.163 206.185,177.749 206.094 C 177.335 206.004,176.781 205.691,176.517 205.399 C 176.253 205.108,175.692 204.690,175.269 204.472 C 174.847 204.253,174.284 203.799,174.019 203.462 C 173.754 203.125,173.421 202.850,173.279 202.850 C 172.896 202.850,168.325 198.162,167.886 197.318 C 167.678 196.919,167.299 196.480,167.044 196.344 C 166.789 196.207,166.579 195.954,166.578 195.781 C 166.576 195.608,166.168 194.954,165.671 194.329 C 165.174 193.703,164.767 193.100,164.767 192.989 C 164.767 192.877,164.494 192.456,164.159 192.054 C 163.825 191.651,163.344 190.769,163.089 190.094 C 162.835 189.420,162.473 188.740,162.286 188.585 C 162.099 188.429,161.816 187.677,161.657 186.913 C 161.499 186.149,161.134 185.225,160.846 184.859 C 160.546 184.478,160.224 183.505,160.090 182.577 C 159.962 181.687,159.674 180.317,159.450 179.534 C 159.226 178.750,158.929 177.642,158.790 177.073 C 158.282 174.991,158.602 77.185,159.120 76.425 C 159.362 76.069,159.738 74.757,159.956 73.510 C 160.173 72.263,160.522 70.981,160.732 70.661 C 160.942 70.340,161.293 69.389,161.512 68.548 C 161.731 67.706,162.083 66.826,162.295 66.592 C 162.507 66.358,162.863 65.650,163.085 65.020 C 163.307 64.390,163.702 63.638,163.963 63.349 C 164.223 63.060,164.557 62.462,164.704 62.021 C 164.851 61.579,165.246 60.921,165.582 60.559 C 165.917 60.196,166.600 59.349,167.098 58.676 C 167.597 58.003,168.326 57.090,168.718 56.648 C 169.109 56.205,169.430 55.771,169.430 55.683 C 169.430 55.440,171.485 53.396,172.014 53.112 C 172.270 52.975,172.755 52.632,173.092 52.350 C 173.429 52.067,174.266 51.365,174.951 50.788 C 175.636 50.212,176.353 49.741,176.542 49.741 C 176.732 49.741,176.957 49.561,177.041 49.341 C 177.126 49.120,177.634 48.760,178.170 48.539 C 178.706 48.318,179.378 47.931,179.663 47.679 C 179.948 47.426,180.755 47.030,181.455 46.798 C 182.156 46.565,182.914 46.218,183.139 46.025 C 183.365 45.833,184.307 45.471,185.233 45.220 C 186.159 44.970,187.098 44.605,187.320 44.409 C 187.541 44.213,188.882 43.921,190.299 43.759 C 191.716 43.597,193.342 43.315,193.912 43.132 C 195.504 42.621,202.244 42.826,206.477 43.514 M314.896 43.192 C 315.466 43.348,316.982 43.610,318.264 43.774 C 319.547 43.937,320.848 44.236,321.157 44.437 C 321.465 44.638,322.515 44.996,323.488 45.232 C 324.462 45.469,325.376 45.803,325.518 45.974 C 325.661 46.145,326.360 46.498,327.073 46.759 C 327.785 47.020,328.494 47.385,328.649 47.571 C 328.803 47.757,329.444 48.148,330.074 48.440 C 331.257 48.990,331.868 49.407,334.067 51.169 C 337.099 53.598,339.563 56.095,341.451 58.652 C 341.949 59.327,342.678 60.266,343.070 60.738 C 343.462 61.211,343.782 61.731,343.782 61.896 C 343.782 62.219,344.513 63.441,344.957 63.860 C 345.108 64.003,345.386 64.585,345.575 65.155 C 345.764 65.725,346.080 66.376,346.276 66.602 C 346.473 66.827,346.858 67.864,347.131 68.906 C 347.405 69.948,347.752 70.876,347.903 70.969 C 348.054 71.063,348.360 72.124,348.583 73.329 C 348.805 74.533,349.186 76.101,349.429 76.813 C 350.103 78.791,350.112 177.228,349.438 178.238 C 349.201 178.595,348.869 179.819,348.702 180.959 C 348.535 182.098,348.189 183.381,347.934 183.808 C 347.679 184.236,347.286 185.330,347.060 186.240 C 346.834 187.149,346.485 188.082,346.285 188.312 C 346.084 188.542,345.784 189.155,345.618 189.675 C 345.451 190.194,345.036 190.943,344.694 191.341 C 344.353 191.738,344.000 192.357,343.910 192.718 C 343.819 193.078,343.515 193.611,343.233 193.902 C 342.505 194.652,340.952 196.824,340.616 197.562 C 340.459 197.906,340.178 198.187,339.990 198.187 C 339.803 198.187,339.443 198.501,339.191 198.886 C 338.938 199.271,338.469 199.849,338.148 200.170 C 337.827 200.491,337.565 200.873,337.565 201.020 C 337.565 201.166,337.288 201.355,336.950 201.440 C 336.612 201.525,336.185 201.876,336.000 202.222 C 335.815 202.567,335.523 202.850,335.351 202.850 C 335.178 202.850,334.878 203.044,334.682 203.281 C 334.312 203.731,332.125 205.257,330.789 205.999 C 330.364 206.236,329.813 206.613,329.564 206.838 C 329.315 207.063,328.711 207.384,328.222 207.551 C 327.732 207.718,327.015 208.117,326.628 208.437 C 326.241 208.757,325.425 209.102,324.815 209.204 C 324.204 209.306,323.400 209.605,323.028 209.869 C 322.655 210.132,321.314 210.527,320.048 210.747 C 318.782 210.966,317.163 211.349,316.451 211.596 C 314.503 212.274,303.809 212.266,302.773 211.587 C 302.387 211.334,301.173 211.013,300.076 210.874 C 298.916 210.727,297.589 210.364,296.903 210.006 C 296.256 209.668,295.238 209.310,294.642 209.210 C 294.045 209.110,293.240 208.755,292.852 208.421 C 292.463 208.087,291.768 207.743,291.306 207.657 C 290.844 207.570,290.309 207.309,290.117 207.075 C 289.924 206.842,289.271 206.432,288.665 206.163 C 288.059 205.894,287.283 205.418,286.941 205.104 C 286.599 204.790,285.937 204.242,285.472 203.886 C 283.435 202.328,279.970 199.084,279.422 198.221 C 279.093 197.703,278.575 197.058,278.272 196.786 C 277.968 196.515,277.720 196.139,277.720 195.950 C 277.720 195.762,277.429 195.417,277.073 195.183 C 276.716 194.950,276.425 194.618,276.425 194.446 C 276.425 194.274,276.017 193.559,275.518 192.857 C 275.019 192.156,274.611 191.440,274.611 191.267 C 274.611 191.094,274.389 190.744,274.118 190.489 C 273.846 190.234,273.432 189.365,273.199 188.558 C 272.965 187.751,272.610 186.954,272.410 186.788 C 272.210 186.622,271.851 185.593,271.613 184.500 C 271.374 183.407,271.025 182.336,270.837 182.120 C 270.450 181.675,270.057 179.405,269.807 176.166 C 269.713 174.955,269.474 173.464,269.274 172.854 C 268.805 171.415,268.738 85.274,269.205 83.549 C 269.359 82.979,269.637 80.899,269.822 78.927 C 270.230 74.580,270.397 73.613,270.866 72.884 C 271.065 72.575,271.414 71.505,271.641 70.505 C 271.868 69.506,272.221 68.550,272.424 68.381 C 272.628 68.213,272.921 67.592,273.075 67.004 C 273.230 66.415,273.631 65.525,273.967 65.026 C 274.304 64.527,274.664 63.771,274.768 63.345 C 274.872 62.919,275.229 62.357,275.562 62.096 C 275.894 61.834,276.166 61.465,276.166 61.275 C 276.166 61.085,276.574 60.441,277.073 59.845 C 277.571 59.248,277.979 58.593,277.979 58.390 C 277.979 58.186,278.271 57.887,278.627 57.725 C 278.983 57.563,279.275 57.286,279.275 57.111 C 279.275 56.804,282.261 53.733,283.996 52.257 C 284.463 51.861,285.227 51.190,285.695 50.768 C 286.163 50.346,286.696 50.000,286.879 50.000 C 287.063 50.000,287.602 49.652,288.078 49.227 C 288.555 48.802,289.188 48.380,289.485 48.290 C 289.783 48.201,290.259 47.923,290.544 47.674 C 290.829 47.424,291.618 47.036,292.297 46.811 C 292.976 46.586,293.705 46.229,293.916 46.017 C 294.127 45.806,294.971 45.486,295.790 45.306 C 296.609 45.126,297.571 44.773,297.927 44.521 C 298.356 44.218,299.715 43.917,301.943 43.630 C 303.795 43.392,305.427 43.090,305.569 42.960 C 305.914 42.642,313.583 42.833,314.896 43.192 " stroke="none" fill="#ffffff" fill-rule="evenodd"></path></g></svg>