<svg id="svg" version="1.1" xmlns="http://www.w3.org/2000/svg" xmlns:xlink="http://www.w3.org/1999/xlink" width="400" height="258.91472868217056" viewBox="0, 0, 400,258.91472868217056"><g id="svgg"><path id="path0" d="M137.159 39.390 C 136.295 39.503,135.013 39.775,134.310 39.995 C 133.606 40.214,132.098 40.525,130.959 40.685 C 129.819 40.845,128.609 41.153,128.270 41.370 C 127.931 41.588,126.895 41.982,125.968 42.248 C 125.040 42.513,124.094 42.894,123.864 43.094 C 123.634 43.294,122.979 43.603,122.409 43.782 C 121.839 43.960,121.140 44.312,120.855 44.566 C 120.570 44.819,119.923 45.242,119.417 45.505 C 117.754 46.371,116.780 47.010,116.018 47.733 C 115.605 48.125,115.108 48.446,114.914 48.446 C 114.566 48.446,109.611 53.261,108.218 54.954 C 107.822 55.435,107.108 56.295,106.633 56.865 C 106.157 57.435,105.687 58.164,105.587 58.485 C 105.487 58.805,105.190 59.183,104.926 59.325 C 104.662 59.466,104.369 59.935,104.274 60.367 C 104.179 60.799,103.831 61.473,103.501 61.866 C 103.171 62.258,102.773 63.053,102.617 63.632 C 102.461 64.211,102.102 64.894,101.820 65.150 C 101.537 65.406,101.230 66.036,101.137 66.551 C 100.956 67.552,100.576 68.434,100.225 68.665 C 100.106 68.743,99.825 69.779,99.599 70.966 C 99.374 72.154,99.009 73.402,98.788 73.740 C 97.786 75.268,97.685 80.150,97.676 127.293 C 97.668 174.608,97.752 178.799,98.756 181.048 C 99.032 181.667,99.413 182.985,99.602 183.976 C 99.791 184.968,100.132 185.986,100.361 186.238 C 100.589 186.491,100.879 187.249,101.005 187.924 C 101.131 188.598,101.471 189.406,101.760 189.718 C 102.049 190.030,102.413 190.767,102.569 191.356 C 102.726 191.945,103.043 192.584,103.276 192.777 C 103.508 192.970,103.900 193.595,104.147 194.167 C 104.394 194.739,104.844 195.429,105.148 195.701 C 105.451 195.972,105.699 196.324,105.699 196.483 C 105.699 196.742,106.585 197.921,108.438 200.130 C 109.277 201.129,109.447 201.312,110.674 202.539 C 110.959 202.824,111.308 203.174,111.451 203.316 C 112.822 204.687,114.294 205.959,114.511 205.959 C 114.613 205.959,115.091 206.307,115.574 206.733 C 116.056 207.159,116.684 207.584,116.969 207.677 C 117.254 207.770,117.720 208.113,118.005 208.439 C 118.290 208.765,118.832 209.108,119.210 209.201 C 119.588 209.294,120.143 209.599,120.443 209.879 C 120.744 210.158,121.478 210.560,122.075 210.770 C 122.672 210.981,123.341 211.315,123.562 211.513 C 123.783 211.710,124.645 212.049,125.478 212.265 C 126.310 212.481,127.184 212.825,127.421 213.030 C 127.921 213.464,128.545 213.629,130.993 213.976 C 131.979 214.116,133.190 214.434,133.685 214.682 C 135.511 215.598,148.688 215.445,149.877 214.494 C 150.024 214.377,151.283 214.098,152.677 213.874 C 154.144 213.638,155.504 213.262,155.908 212.981 C 156.292 212.714,157.189 212.345,157.902 212.161 C 158.614 211.978,159.286 211.680,159.394 211.501 C 159.503 211.322,160.229 210.990,161.007 210.763 C 161.821 210.527,162.535 210.143,162.686 209.860 C 162.831 209.590,163.307 209.290,163.744 209.194 C 164.181 209.098,164.886 208.680,165.310 208.266 C 165.733 207.852,166.242 207.513,166.441 207.513 C 166.639 207.513,167.031 207.222,167.311 206.865 C 167.591 206.509,167.932 206.218,168.067 206.218 C 168.203 206.218,168.725 205.839,169.227 205.376 C 169.730 204.913,170.569 204.184,171.092 203.756 C 171.904 203.094,173.198 201.674,175.669 198.735 C 175.955 198.395,176.361 197.783,176.572 197.375 C 176.784 196.966,177.076 196.632,177.222 196.632 C 177.368 196.632,177.659 196.221,177.869 195.719 C 178.079 195.217,178.467 194.590,178.732 194.325 C 178.998 194.059,179.347 193.440,179.510 192.948 C 179.672 192.456,180.027 191.815,180.299 191.523 C 180.570 191.232,180.918 190.529,181.071 189.961 C 181.224 189.392,181.583 188.631,181.868 188.267 C 182.154 187.904,182.456 187.218,182.539 186.744 C 182.786 185.333,183.445 183.420,183.684 183.420 C 183.806 183.420,183.967 182.924,184.041 182.319 C 184.532 178.306,184.781 177.014,185.175 176.434 C 185.594 175.818,185.622 172.766,185.622 127.332 L 185.622 78.886 185.063 77.720 C 184.723 77.013,184.392 75.566,184.220 74.042 C 184.047 72.516,183.744 71.193,183.448 70.674 C 183.179 70.204,182.818 69.206,182.645 68.458 C 182.473 67.709,182.225 67.031,182.094 66.950 C 181.780 66.756,181.088 65.081,181.088 64.514 C 181.088 64.267,180.801 63.755,180.449 63.376 C 180.098 62.997,179.689 62.234,179.540 61.681 C 179.391 61.128,179.110 60.614,178.916 60.540 C 178.723 60.465,178.313 59.886,178.006 59.252 C 177.699 58.618,177.218 57.891,176.936 57.637 C 176.655 57.382,176.425 57.056,176.425 56.911 C 176.425 56.604,176.013 56.158,171.934 52.041 C 170.247 50.339,168.557 48.749,168.177 48.508 C 167.798 48.267,167.393 47.920,167.279 47.738 C 167.164 47.555,166.617 47.174,166.063 46.892 C 165.066 46.383,163.685 45.524,162.435 44.634 C 162.079 44.381,161.217 43.972,160.519 43.725 C 159.822 43.478,159.059 43.103,158.825 42.891 C 158.590 42.678,157.762 42.375,156.984 42.216 C 156.206 42.057,155.268 41.714,154.899 41.453 C 154.493 41.165,153.182 40.823,151.579 40.585 C 150.123 40.369,148.793 40.077,148.624 39.937 C 147.786 39.243,140.826 38.911,137.159 39.390 M251.635 39.394 C 250.753 39.509,249.800 39.726,249.517 39.877 C 249.235 40.029,247.800 40.340,246.328 40.570 C 244.857 40.799,243.303 41.194,242.876 41.447 C 242.448 41.700,241.457 42.061,240.674 42.249 C 239.890 42.438,238.979 42.795,238.650 43.043 C 238.320 43.291,237.621 43.632,237.095 43.800 C 236.570 43.969,235.961 44.263,235.742 44.453 C 235.523 44.643,234.807 45.036,234.150 45.327 C 233.494 45.617,232.890 46.030,232.808 46.243 C 232.726 46.457,232.501 46.632,232.309 46.632 C 232.117 46.632,231.501 47.040,230.941 47.539 C 230.381 48.037,229.796 48.445,229.641 48.445 C 229.397 48.446,227.074 50.471,225.518 52.042 C 223.485 54.094,222.280 55.430,222.280 55.630 C 222.280 55.760,221.872 56.342,221.373 56.925 C 220.874 57.507,220.466 58.091,220.466 58.221 C 220.466 58.352,220.181 58.727,219.832 59.055 C 219.483 59.382,219.130 59.957,219.047 60.330 C 218.963 60.704,218.549 61.405,218.126 61.887 C 217.704 62.370,217.358 62.973,217.358 63.228 C 217.358 63.482,217.064 64.039,216.706 64.465 C 216.348 64.890,215.953 65.786,215.828 66.455 C 215.703 67.124,215.367 67.988,215.082 68.373 C 214.796 68.761,214.441 69.859,214.291 70.825 C 214.141 71.788,213.774 73.081,213.474 73.699 C 212.534 75.641,212.453 79.973,212.461 127.850 C 212.469 177.449,212.503 179.167,213.528 181.367 C 213.888 182.140,214.262 183.404,214.360 184.176 C 214.457 184.948,214.808 186.056,215.139 186.637 C 215.470 187.219,215.807 188.060,215.889 188.506 C 215.970 188.953,216.334 189.756,216.697 190.291 C 217.060 190.826,217.358 191.407,217.358 191.582 C 217.358 191.756,217.588 192.192,217.869 192.549 C 218.150 192.906,218.645 193.660,218.970 194.223 C 220.247 196.441,220.627 197.012,221.438 197.937 C 221.901 198.465,222.280 199.015,222.280 199.160 C 222.280 199.304,222.571 199.613,222.927 199.847 C 223.284 200.080,223.575 200.384,223.575 200.521 C 223.575 200.659,224.479 201.636,225.583 202.693 C 226.687 203.750,227.898 204.917,228.273 205.287 C 228.649 205.656,229.066 205.959,229.200 205.959 C 229.334 205.959,229.708 206.241,230.032 206.585 C 230.356 206.930,230.988 207.363,231.438 207.547 C 231.887 207.731,232.459 208.140,232.710 208.455 C 232.961 208.770,233.515 209.104,233.941 209.198 C 234.367 209.291,234.715 209.453,234.715 209.558 C 234.715 209.830,236.647 210.881,237.147 210.881 C 237.377 210.881,237.801 211.117,238.090 211.406 C 238.379 211.695,239.341 212.113,240.227 212.335 C 241.114 212.556,241.960 212.891,242.108 213.078 C 242.256 213.266,243.305 213.560,244.439 213.731 C 245.574 213.903,247.144 214.284,247.927 214.578 C 250.394 215.502,260.399 215.569,263.722 214.684 C 265.080 214.322,267.008 213.883,268.005 213.710 C 269.003 213.536,270.061 213.236,270.357 213.043 C 270.654 212.850,271.528 212.507,272.300 212.280 C 273.073 212.052,273.889 211.703,274.115 211.502 C 274.340 211.302,275.098 210.944,275.799 210.707 C 276.499 210.470,277.218 210.072,277.397 209.822 C 277.575 209.572,278.050 209.295,278.451 209.207 C 278.853 209.119,279.560 208.701,280.021 208.280 C 280.483 207.858,281.012 207.513,281.197 207.513 C 281.382 207.513,281.753 207.222,282.020 206.865 C 282.288 206.509,282.650 206.218,282.826 206.218 C 283.001 206.218,283.403 205.869,283.718 205.443 C 284.033 205.017,284.500 204.602,284.755 204.521 C 285.432 204.306,286.794 202.916,289.260 199.922 C 290.457 198.469,291.731 196.954,292.091 196.557 C 292.451 196.159,292.746 195.680,292.746 195.491 C 292.746 195.303,293.096 194.709,293.523 194.171 C 293.951 193.633,294.301 193.074,294.301 192.927 C 294.301 192.781,294.638 192.127,295.052 191.473 C 295.465 190.820,295.888 189.877,295.992 189.378 C 296.096 188.880,296.441 188.161,296.759 187.783 C 297.100 187.376,297.408 186.553,297.511 185.774 C 297.608 185.049,297.919 184.060,298.204 183.578 C 298.532 183.022,298.811 181.862,298.967 180.405 C 299.102 179.142,299.382 177.468,299.589 176.684 C 300.431 173.491,300.521 168.744,300.522 127.202 C 300.522 85.777,300.435 81.083,299.604 78.109 C 299.404 77.396,299.161 75.835,299.062 74.639 C 298.939 73.142,298.699 72.118,298.292 71.353 C 297.967 70.741,297.584 69.607,297.441 68.833 C 297.297 68.058,296.882 66.985,296.518 66.448 C 296.153 65.911,295.855 65.254,295.855 64.988 C 295.855 64.721,295.505 64.020,295.078 63.430 C 294.650 62.840,294.301 62.090,294.301 61.763 C 294.301 61.437,294.078 61.014,293.807 60.824 C 293.536 60.633,293.046 59.927,292.719 59.255 C 292.392 58.582,292.034 58.031,291.924 58.031 C 291.814 58.031,291.545 57.686,291.327 57.264 C 290.863 56.367,290.727 56.216,286.668 52.068 C 284.963 50.326,283.127 48.622,282.587 48.281 C 282.048 47.941,281.606 47.547,281.606 47.406 C 281.606 47.265,281.449 47.150,281.256 47.150 C 281.064 47.150,280.418 46.796,279.821 46.364 C 279.224 45.931,278.332 45.385,277.839 45.150 C 277.346 44.915,276.943 44.644,276.943 44.547 C 276.943 44.450,276.389 44.165,275.712 43.913 C 275.036 43.662,274.132 43.248,273.705 42.994 C 273.277 42.740,272.246 42.355,271.414 42.139 C 270.581 41.923,269.707 41.577,269.471 41.370 C 269.235 41.162,267.992 40.846,266.710 40.667 C 265.427 40.488,264.028 40.199,263.601 40.025 C 261.581 39.201,255.556 38.883,251.635 39.394 M146.825 49.483 C 147.857 49.617,149.220 49.963,149.854 50.252 C 150.489 50.541,151.245 50.777,151.535 50.777 C 152.205 50.777,154.145 51.546,154.145 51.811 C 154.145 51.921,154.672 52.144,155.316 52.306 C 155.960 52.468,156.700 52.814,156.961 53.075 C 157.222 53.336,157.814 53.681,158.276 53.842 C 158.739 54.004,159.544 54.485,160.064 54.912 C 160.585 55.338,161.355 55.953,161.776 56.276 C 163.787 57.823,168.473 62.787,169.586 64.549 C 169.916 65.072,170.299 65.570,170.436 65.655 C 170.573 65.740,170.763 66.160,170.857 66.589 C 170.951 67.019,171.288 67.688,171.605 68.076 C 171.922 68.465,172.330 69.296,172.512 69.925 C 172.695 70.553,173.054 71.369,173.311 71.738 C 173.569 72.107,173.915 73.167,174.080 74.093 C 174.246 75.019,174.571 76.185,174.804 76.684 C 175.552 78.290,175.615 82.237,175.616 127.332 C 175.618 171.951,175.543 176.608,174.799 178.249 C 174.575 178.742,174.218 179.942,174.004 180.915 C 173.791 181.889,173.441 182.880,173.227 183.117 C 173.012 183.355,172.695 184.132,172.523 184.845 C 172.350 185.557,172.010 186.373,171.769 186.658 C 171.527 186.943,171.118 187.642,170.860 188.212 C 170.603 188.782,170.223 189.348,170.016 189.469 C 169.810 189.591,169.475 190.086,169.273 190.570 C 169.070 191.055,168.801 191.451,168.675 191.451 C 168.548 191.451,168.220 191.830,167.944 192.293 C 167.116 193.685,163.641 197.409,163.170 197.409 C 163.061 197.409,162.613 197.759,162.176 198.187 C 161.739 198.614,161.290 198.964,161.178 198.964 C 161.066 198.964,160.594 199.303,160.129 199.718 C 159.664 200.133,158.992 200.546,158.636 200.635 C 158.279 200.725,157.736 201.032,157.429 201.318 C 157.123 201.603,156.375 201.962,155.768 202.115 C 155.160 202.268,154.663 202.483,154.663 202.592 C 154.663 202.920,153.061 203.556,151.770 203.739 C 151.105 203.834,150.425 204.074,150.260 204.273 C 149.224 205.522,135.408 205.575,132.853 204.339 C 132.042 203.948,131.075 203.627,130.703 203.627 C 129.922 203.627,128.497 202.955,128.497 202.587 C 128.497 202.450,128.032 202.263,127.464 202.172 C 126.895 202.082,126.143 201.741,125.793 201.417 C 125.442 201.092,124.759 200.695,124.274 200.535 C 123.789 200.375,123.122 199.956,122.791 199.604 C 122.460 199.252,122.038 198.964,121.854 198.964 C 121.669 198.964,121.260 198.614,120.943 198.187 C 120.627 197.759,120.224 197.409,120.048 197.409 C 119.871 197.409,119.514 197.146,119.255 196.825 C 118.995 196.504,118.462 196.035,118.070 195.783 C 117.678 195.531,117.358 195.161,117.358 194.960 C 117.358 194.759,117.114 194.517,116.817 194.423 C 116.520 194.329,116.161 193.918,116.019 193.509 C 115.876 193.101,115.542 192.698,115.277 192.614 C 115.011 192.530,114.726 192.248,114.643 191.987 C 114.561 191.727,114.194 191.179,113.829 190.770 C 113.464 190.361,112.989 189.622,112.773 189.128 C 112.558 188.634,112.236 188.110,112.057 187.962 C 111.878 187.815,111.531 187.170,111.285 186.528 C 111.039 185.887,110.684 185.188,110.496 184.974 C 110.308 184.760,110.014 184.061,109.842 183.420 C 109.670 182.778,109.319 181.846,109.061 181.347 C 108.803 180.848,108.393 179.041,108.149 177.332 C 107.906 175.622,107.576 174.059,107.416 173.859 C 106.922 173.242,106.867 83.385,107.360 81.865 C 107.568 81.224,107.928 79.301,108.160 77.591 C 108.392 75.881,108.791 74.072,109.047 73.572 C 109.303 73.072,109.704 72.006,109.937 71.204 C 110.170 70.402,110.521 69.684,110.718 69.608 C 110.914 69.533,111.150 69.066,111.243 68.571 C 111.336 68.076,111.759 67.235,112.183 66.702 C 112.607 66.168,112.953 65.531,112.953 65.285 C 112.953 65.039,113.219 64.559,113.543 64.219 C 113.868 63.879,114.475 63.135,114.892 62.565 C 115.990 61.065,121.012 56.155,121.907 55.706 C 122.326 55.496,123.051 55.001,123.519 54.605 C 123.987 54.210,124.533 53.886,124.731 53.886 C 124.930 53.886,125.252 53.726,125.448 53.531 C 125.983 52.996,127.369 52.332,127.951 52.332 C 128.235 52.332,128.546 52.203,128.644 52.046 C 128.906 51.622,130.861 50.789,131.610 50.783 C 131.968 50.780,132.686 50.550,133.204 50.272 C 134.912 49.357,142.479 48.918,146.825 49.483 M261.917 49.594 C 262.986 49.788,264.210 50.133,264.637 50.361 C 265.065 50.588,265.659 50.775,265.959 50.776 C 266.654 50.778,268.149 51.278,268.653 51.677 C 268.867 51.846,269.597 52.190,270.277 52.440 C 270.956 52.691,271.671 53.055,271.865 53.249 C 272.059 53.443,272.528 53.679,272.907 53.775 C 273.286 53.870,273.933 54.284,274.343 54.694 C 274.754 55.105,275.213 55.440,275.364 55.440 C 275.946 55.440,281.927 61.261,283.237 63.102 C 283.635 63.661,284.307 64.576,284.732 65.134 C 285.157 65.692,285.575 66.449,285.661 66.818 C 285.747 67.186,286.085 67.778,286.412 68.135 C 286.739 68.491,287.084 69.249,287.180 69.819 C 287.276 70.389,287.555 71.146,287.801 71.503 C 288.410 72.386,288.554 72.824,288.855 74.711 C 288.998 75.605,289.300 76.708,289.526 77.162 C 290.301 78.715,290.399 84.255,290.404 127.073 C 290.410 171.584,290.320 176.040,289.377 178.112 C 289.093 178.736,288.860 179.526,288.860 179.867 C 288.860 180.748,288.164 182.951,287.818 183.164 C 287.658 183.263,287.414 183.845,287.276 184.458 C 287.139 185.070,286.749 185.900,286.411 186.303 C 286.072 186.705,285.719 187.383,285.625 187.808 C 285.532 188.234,285.174 188.849,284.831 189.175 C 284.487 189.500,284.204 189.902,284.201 190.066 C 284.197 190.340,283.732 190.977,281.682 193.511 C 280.064 195.512,276.648 198.624,275.647 199.008 C 275.397 199.104,274.893 199.483,274.526 199.850 C 274.158 200.218,273.696 200.518,273.498 200.518 C 273.300 200.518,272.799 200.813,272.385 201.173 C 271.971 201.534,271.137 201.955,270.531 202.111 C 269.926 202.266,269.430 202.478,269.430 202.582 C 269.430 202.842,267.684 203.554,266.587 203.742 C 266.091 203.827,265.159 204.156,264.514 204.474 C 262.242 205.594,248.687 205.412,247.380 204.244 C 247.151 204.038,246.299 203.763,245.488 203.631 C 244.548 203.477,243.730 203.152,243.230 202.732 C 242.800 202.369,242.191 202.073,241.877 202.073 C 241.330 202.073,240.407 201.559,239.684 200.853 C 239.495 200.669,239.133 200.518,238.879 200.518 C 238.625 200.518,238.103 200.226,237.718 199.870 C 237.333 199.513,236.675 199.044,236.255 198.827 C 235.836 198.610,235.492 198.268,235.492 198.068 C 235.492 197.867,235.235 197.622,234.920 197.522 C 234.354 197.342,230.829 193.954,230.829 193.589 C 230.829 193.485,230.541 193.107,230.189 192.749 C 228.348 190.878,227.494 189.589,226.022 186.464 C 225.637 185.644,225.231 184.974,225.122 184.974 C 225.012 184.974,224.785 184.362,224.617 183.614 C 224.449 182.866,224.044 181.729,223.717 181.088 C 223.362 180.391,223.062 179.223,222.971 178.184 C 222.888 177.229,222.579 175.655,222.286 174.687 C 221.538 172.219,221.569 81.903,222.318 80.311 C 222.553 79.812,222.830 78.374,222.934 77.115 C 223.069 75.475,223.296 74.497,223.736 73.671 C 224.074 73.036,224.425 72.044,224.518 71.467 C 224.610 70.890,224.947 70.107,225.267 69.727 C 225.586 69.347,225.969 68.599,226.117 68.064 C 226.264 67.529,226.686 66.734,227.053 66.298 C 227.420 65.861,227.720 65.368,227.721 65.200 C 227.721 65.033,228.071 64.488,228.497 63.990 C 228.924 63.491,229.274 63.001,229.274 62.901 C 229.277 62.018,236.718 55.421,239.206 54.097 C 239.657 53.857,240.201 53.491,240.415 53.284 C 240.628 53.077,241.377 52.714,242.079 52.478 C 242.781 52.241,243.480 51.878,243.633 51.670 C 243.787 51.462,244.767 51.114,245.811 50.897 C 246.856 50.680,247.963 50.338,248.272 50.137 C 249.567 49.294,258.348 48.945,261.917 49.594 " stroke="none" fill="#662f95" fill-rule="evenodd"></path><path id="path1" d="M0.000 129.534 L 0.000 259.067 200.000 259.067 L 400.000 259.067 400.000 129.534 L 400.000 0.000 200.000 0.000 L 0.000 0.000 0.000 129.534 M146.290 39.401 C 147.404 39.556,148.454 39.797,148.624 39.937 C 148.793 40.077,150.123 40.369,151.579 40.585 C 153.182 40.823,154.493 41.165,154.899 41.453 C 155.268 41.714,156.206 42.057,156.984 42.216 C 157.762 42.375,158.590 42.678,158.825 42.891 C 159.059 43.103,159.822 43.478,160.519 43.725 C 161.217 43.972,162.079 44.381,162.435 44.634 C 163.685 45.524,165.066 46.383,166.063 46.892 C 166.617 47.174,167.164 47.555,167.279 47.738 C 167.393 47.920,167.798 48.267,168.177 48.508 C 168.557 48.749,170.247 50.339,171.934 52.041 C 176.013 56.158,176.425 56.604,176.425 56.911 C 176.425 57.056,176.655 57.382,176.936 57.637 C 177.218 57.891,177.699 58.618,178.006 59.252 C 178.313 59.886,178.723 60.465,178.916 60.540 C 179.110 60.614,179.391 61.128,179.540 61.681 C 179.689 62.234,180.098 62.997,180.449 63.376 C 180.801 63.755,181.088 64.267,181.088 64.514 C 181.088 65.081,181.780 66.756,182.094 66.950 C 182.225 67.031,182.473 67.709,182.645 68.458 C 182.818 69.206,183.179 70.204,183.448 70.674 C 183.744 71.193,184.047 72.516,184.220 74.042 C 184.392 75.566,184.723 77.013,185.063 77.720 L 185.622 78.886 185.622 127.332 C 185.622 172.766,185.594 175.818,185.175 176.434 C 184.781 177.014,184.532 178.306,184.041 182.319 C 183.967 182.924,183.806 183.420,183.684 183.420 C 183.445 183.420,182.786 185.333,182.539 186.744 C 182.456 187.218,182.154 187.904,181.868 188.267 C 181.583 188.631,181.224 189.392,181.071 189.961 C 180.918 190.529,180.570 191.232,180.299 191.523 C 180.027 191.815,179.672 192.456,179.510 192.948 C 179.347 193.440,178.998 194.059,178.732 194.325 C 178.467 194.590,178.079 195.217,177.869 195.719 C 177.659 196.221,177.368 196.632,177.222 196.632 C 177.076 196.632,176.784 196.966,176.572 197.375 C 176.361 197.783,175.955 198.395,175.669 198.735 C 173.198 201.674,171.904 203.094,171.092 203.756 C 170.569 204.184,169.730 204.913,169.227 205.376 C 168.725 205.839,168.203 206.218,168.067 206.218 C 167.932 206.218,167.591 206.509,167.311 206.865 C 167.031 207.222,166.639 207.513,166.441 207.513 C 166.242 207.513,165.733 207.852,165.310 208.266 C 164.886 208.680,164.181 209.098,163.744 209.194 C 163.307 209.290,162.831 209.590,162.686 209.860 C 162.535 210.143,161.821 210.527,161.007 210.763 C 160.229 210.990,159.503 211.322,159.394 211.501 C 159.286 211.680,158.614 211.978,157.902 212.161 C 157.189 212.345,156.292 212.714,155.908 212.981 C 155.504 213.262,154.144 213.638,152.677 213.874 C 151.283 214.098,150.024 214.377,149.877 214.494 C 148.688 215.445,135.511 215.598,133.685 214.682 C 133.190 214.434,131.979 214.116,130.993 213.976 C 128.545 213.629,127.921 213.464,127.421 213.030 C 127.184 212.825,126.310 212.481,125.478 212.265 C 124.645 212.049,123.783 211.710,123.562 211.513 C 123.341 211.315,122.672 210.981,122.075 210.770 C 121.478 210.560,120.744 210.158,120.443 209.879 C 120.143 209.599,119.588 209.294,119.210 209.201 C 118.832 209.108,118.290 208.765,118.005 208.439 C 117.720 208.113,117.254 207.770,116.969 207.677 C 116.684 207.584,116.056 207.159,115.574 206.733 C 115.091 206.307,114.613 205.959,114.511 205.959 C 114.294 205.959,112.822 204.687,111.451 203.316 C 111.308 203.174,110.959 202.824,110.674 202.539 C 109.447 201.312,109.277 201.129,108.438 200.130 C 106.585 197.921,105.699 196.742,105.699 196.483 C 105.699 196.324,105.451 195.972,105.148 195.701 C 104.844 195.429,104.394 194.739,104.147 194.167 C 103.900 193.595,103.508 192.970,103.276 192.777 C 103.043 192.584,102.726 191.945,102.569 191.356 C 102.413 190.767,102.049 190.030,101.760 189.718 C 101.471 189.406,101.131 188.598,101.005 187.924 C 100.879 187.249,100.589 186.491,100.361 186.238 C 100.132 185.986,99.791 184.968,99.602 183.976 C 99.413 182.985,99.032 181.667,98.756 181.048 C 97.752 178.799,97.668 174.608,97.676 127.293 C 97.685 80.150,97.786 75.268,98.788 73.740 C 99.009 73.402,99.374 72.154,99.599 70.966 C 99.825 69.779,100.106 68.743,100.225 68.665 C 100.576 68.434,100.956 67.552,101.137 66.551 C 101.230 66.036,101.537 65.406,101.820 65.150 C 102.102 64.894,102.461 64.211,102.617 63.632 C 102.773 63.053,103.171 62.258,103.501 61.866 C 103.831 61.473,104.179 60.799,104.274 60.367 C 104.369 59.935,104.662 59.466,104.926 59.325 C 105.190 59.183,105.487 58.805,105.587 58.485 C 105.687 58.164,106.157 57.435,106.633 56.865 C 107.108 56.295,107.822 55.435,108.218 54.954 C 109.611 53.261,114.566 48.446,114.914 48.446 C 115.108 48.446,115.605 48.125,116.018 47.733 C 116.780 47.010,117.754 46.371,119.417 45.505 C 119.923 45.242,120.570 44.819,120.855 44.566 C 121.140 44.312,121.839 43.960,122.409 43.782 C 122.979 43.603,123.634 43.294,123.864 43.094 C 124.094 42.894,125.040 42.513,125.968 42.248 C 126.895 41.982,127.931 41.588,128.270 41.370 C 128.609 41.153,129.819 40.845,130.959 40.685 C 132.098 40.525,133.606 40.214,134.310 39.995 C 136.984 39.159,142.562 38.883,146.290 39.401 M260.941 39.413 C 261.976 39.575,263.174 39.850,263.601 40.025 C 264.028 40.199,265.427 40.488,266.710 40.667 C 267.992 40.846,269.235 41.162,269.471 41.370 C 269.707 41.577,270.581 41.923,271.414 42.139 C 272.246 42.355,273.277 42.740,273.705 42.994 C 274.132 43.248,275.036 43.662,275.712 43.913 C 276.389 44.165,276.943 44.450,276.943 44.547 C 276.943 44.644,277.346 44.915,277.839 45.150 C 278.332 45.385,279.224 45.931,279.821 46.364 C 280.418 46.796,281.064 47.150,281.256 47.150 C 281.449 47.150,281.606 47.265,281.606 47.406 C 281.606 47.547,282.048 47.941,282.587 48.281 C 283.127 48.622,284.963 50.326,286.668 52.068 C 290.727 56.216,290.863 56.367,291.327 57.264 C 291.545 57.686,291.814 58.031,291.924 58.031 C 292.034 58.031,292.392 58.582,292.719 59.255 C 293.046 59.927,293.536 60.633,293.807 60.824 C 294.078 61.014,294.301 61.437,294.301 61.763 C 294.301 62.090,294.650 62.840,295.078 63.430 C 295.505 64.020,295.855 64.721,295.855 64.988 C 295.855 65.254,296.153 65.911,296.518 66.448 C 296.882 66.985,297.297 68.058,297.441 68.833 C 297.584 69.607,297.967 70.741,298.292 71.353 C 298.699 72.118,298.939 73.142,299.062 74.639 C 299.161 75.835,299.404 77.396,299.604 78.109 C 300.435 81.083,300.522 85.777,300.522 127.202 C 300.521 168.744,300.431 173.491,299.589 176.684 C 299.382 177.468,299.102 179.142,298.967 180.405 C 298.811 181.862,298.532 183.022,298.204 183.578 C 297.919 184.060,297.608 185.049,297.511 185.774 C 297.408 186.553,297.100 187.376,296.759 187.783 C 296.441 188.161,296.096 188.880,295.992 189.378 C 295.888 189.877,295.465 190.820,295.052 191.473 C 294.638 192.127,294.301 192.781,294.301 192.927 C 294.301 193.074,293.951 193.633,293.523 194.171 C 293.096 194.709,292.746 195.303,292.746 195.491 C 292.746 195.680,292.451 196.159,292.091 196.557 C 291.731 196.954,290.457 198.469,289.260 199.922 C 286.794 202.916,285.432 204.306,284.755 204.521 C 284.500 204.602,284.033 205.017,283.718 205.443 C 283.403 205.869,283.001 206.218,282.826 206.218 C 282.650 206.218,282.288 206.509,282.020 206.865 C 281.753 207.222,281.382 207.513,281.197 207.513 C 281.012 207.513,280.483 207.858,280.021 208.280 C 279.560 208.701,278.853 209.119,278.451 209.207 C 278.050 209.295,277.575 209.572,277.397 209.822 C 277.218 210.072,276.499 210.470,275.799 210.707 C 275.098 210.944,274.340 211.302,274.115 211.502 C 273.889 211.703,273.073 212.052,272.300 212.280 C 271.528 212.507,270.654 212.850,270.357 213.043 C 270.061 213.236,269.003 213.536,268.005 213.710 C 267.008 213.883,265.080 214.322,263.722 214.684 C 260.399 215.569,250.394 215.502,247.927 214.578 C 247.144 214.284,245.574 213.903,244.439 213.731 C 243.305 213.560,242.256 213.266,242.108 213.078 C 241.960 212.891,241.114 212.556,240.227 212.335 C 239.341 212.113,238.379 211.695,238.090 211.406 C 237.801 211.117,237.377 210.881,237.147 210.881 C 236.647 210.881,234.715 209.830,234.715 209.558 C 234.715 209.453,234.367 209.291,233.941 209.198 C 233.515 209.104,232.961 208.770,232.710 208.455 C 232.459 208.140,231.887 207.731,231.438 207.547 C 230.988 207.363,230.356 206.930,230.032 206.585 C 229.708 206.241,229.334 205.959,229.200 205.959 C 229.066 205.959,228.649 205.656,228.273 205.287 C 227.898 204.917,226.687 203.750,225.583 202.693 C 224.479 201.636,223.575 200.659,223.575 200.521 C 223.575 200.384,223.284 200.080,222.927 199.847 C 222.571 199.613,222.280 199.304,222.280 199.160 C 222.280 199.015,221.901 198.465,221.438 197.937 C 220.627 197.012,220.247 196.441,218.970 194.223 C 218.645 193.660,218.150 192.906,217.869 192.549 C 217.588 192.192,217.358 191.756,217.358 191.582 C 217.358 191.407,217.060 190.826,216.697 190.291 C 216.334 189.756,215.970 188.953,215.889 188.506 C 215.807 188.060,215.470 187.219,215.139 186.637 C 214.808 186.056,214.457 184.948,214.360 184.176 C 214.262 183.404,213.888 182.140,213.528 181.367 C 212.503 179.167,212.469 177.449,212.461 127.850 C 212.453 79.973,212.534 75.641,213.474 73.699 C 213.774 73.081,214.141 71.788,214.291 70.825 C 214.441 69.859,214.796 68.761,215.082 68.373 C 215.367 67.988,215.703 67.124,215.828 66.455 C 215.953 65.786,216.348 64.890,216.706 64.465 C 217.064 64.039,217.358 63.482,217.358 63.228 C 217.358 62.973,217.704 62.370,218.126 61.887 C 218.549 61.405,218.963 60.704,219.047 60.330 C 219.130 59.957,219.483 59.382,219.832 59.055 C 220.181 58.727,220.466 58.352,220.466 58.221 C 220.466 58.091,220.874 57.507,221.373 56.925 C 221.872 56.342,222.280 55.760,222.280 55.630 C 222.280 55.430,223.485 54.094,225.518 52.042 C 227.074 50.471,229.397 48.446,229.641 48.445 C 229.796 48.445,230.381 48.037,230.941 47.539 C 231.501 47.040,232.117 46.632,232.309 46.632 C 232.501 46.632,232.726 46.457,232.808 46.243 C 232.890 46.030,233.494 45.617,234.150 45.327 C 234.807 45.036,235.523 44.643,235.742 44.453 C 235.961 44.263,236.570 43.969,237.095 43.800 C 237.621 43.632,238.320 43.291,238.650 43.043 C 238.979 42.795,239.890 42.438,240.674 42.249 C 241.457 42.061,242.448 41.700,242.876 41.447 C 243.303 41.194,244.857 40.799,246.328 40.570 C 247.800 40.340,249.235 40.029,249.517 39.877 C 250.813 39.184,257.686 38.905,260.941 39.413 M136.050 49.528 C 135.003 49.659,133.723 49.994,133.204 50.272 C 132.686 50.550,131.968 50.780,131.610 50.783 C 130.861 50.789,128.906 51.622,128.644 52.046 C 128.546 52.203,128.235 52.332,127.951 52.332 C 127.369 52.332,125.983 52.996,125.448 53.531 C 125.252 53.726,124.930 53.886,124.731 53.886 C 124.533 53.886,123.987 54.210,123.519 54.605 C 123.051 55.001,122.326 55.496,121.907 55.706 C 121.012 56.155,115.990 61.065,114.892 62.565 C 114.475 63.135,113.868 63.879,113.543 64.219 C 113.219 64.559,112.953 65.039,112.953 65.285 C 112.953 65.531,112.607 66.168,112.183 66.702 C 111.759 67.235,111.336 68.076,111.243 68.571 C 111.150 69.066,110.914 69.533,110.718 69.608 C 110.521 69.684,110.170 70.402,109.937 71.204 C 109.704 72.006,109.303 73.072,109.047 73.572 C 108.791 74.072,108.392 75.881,108.160 77.591 C 107.928 79.301,107.568 81.224,107.360 81.865 C 106.867 83.385,106.922 173.242,107.416 173.859 C 107.576 174.059,107.906 175.622,108.149 177.332 C 108.393 179.041,108.803 180.848,109.061 181.347 C 109.319 181.846,109.670 182.778,109.842 183.420 C 110.014 184.061,110.308 184.760,110.496 184.974 C 110.684 185.188,111.039 185.887,111.285 186.528 C 111.531 187.170,111.878 187.815,112.057 187.962 C 112.236 188.110,112.558 188.634,112.773 189.128 C 112.989 189.622,113.464 190.361,113.829 190.770 C 114.194 191.179,114.561 191.727,114.643 191.987 C 114.726 192.248,115.011 192.530,115.277 192.614 C 115.542 192.698,115.876 193.101,116.019 193.509 C 116.161 193.918,116.520 194.329,116.817 194.423 C 117.114 194.517,117.358 194.759,117.358 194.960 C 117.358 195.161,117.678 195.531,118.070 195.783 C 118.462 196.035,118.995 196.504,119.255 196.825 C 119.514 197.146,119.871 197.409,120.048 197.409 C 120.224 197.409,120.627 197.759,120.943 198.187 C 121.260 198.614,121.669 198.964,121.854 198.964 C 122.038 198.964,122.460 199.252,122.791 199.604 C 123.122 199.956,123.789 200.375,124.274 200.535 C 124.759 200.695,125.442 201.092,125.793 201.417 C 126.143 201.741,126.895 202.082,127.464 202.172 C 128.032 202.263,128.497 202.450,128.497 202.587 C 128.497 202.955,129.922 203.627,130.703 203.627 C 131.075 203.627,132.042 203.948,132.853 204.339 C 135.408 205.575,149.224 205.522,150.260 204.273 C 150.425 204.074,151.105 203.834,151.770 203.739 C 153.061 203.556,154.663 202.920,154.663 202.592 C 154.663 202.483,155.160 202.268,155.768 202.115 C 156.375 201.962,157.123 201.603,157.429 201.318 C 157.736 201.032,158.279 200.725,158.636 200.635 C 158.992 200.546,159.664 200.133,160.129 199.718 C 160.594 199.303,161.066 198.964,161.178 198.964 C 161.290 198.964,161.739 198.614,162.176 198.187 C 162.613 197.759,163.061 197.409,163.170 197.409 C 163.641 197.409,167.116 193.685,167.944 192.293 C 168.220 191.830,168.548 191.451,168.675 191.451 C 168.801 191.451,169.070 191.055,169.273 190.570 C 169.475 190.086,169.810 189.591,170.016 189.469 C 170.223 189.348,170.603 188.782,170.860 188.212 C 171.118 187.642,171.527 186.943,171.769 186.658 C 172.010 186.373,172.350 185.557,172.523 184.845 C 172.695 184.132,173.012 183.355,173.227 183.117 C 173.441 182.880,173.791 181.889,174.004 180.915 C 174.218 179.942,174.575 178.742,174.799 178.249 C 175.543 176.608,175.618 171.951,175.616 127.332 C 175.615 82.237,175.552 78.290,174.804 76.684 C 174.571 76.185,174.246 75.019,174.080 74.093 C 173.915 73.167,173.569 72.107,173.311 71.738 C 173.054 71.369,172.695 70.553,172.512 69.925 C 172.330 69.296,171.922 68.465,171.605 68.076 C 171.288 67.688,170.951 67.019,170.857 66.589 C 170.763 66.160,170.573 65.740,170.436 65.655 C 170.299 65.570,169.916 65.072,169.586 64.549 C 168.473 62.787,163.787 57.823,161.776 56.276 C 161.355 55.953,160.585 55.338,160.064 54.912 C 159.544 54.485,158.739 54.004,158.276 53.842 C 157.814 53.681,157.222 53.336,156.961 53.075 C 156.700 52.814,155.960 52.468,155.316 52.306 C 154.672 52.144,154.145 51.921,154.145 51.811 C 154.145 51.546,152.205 50.777,151.535 50.777 C 151.245 50.777,150.489 50.541,149.854 50.252 C 147.734 49.286,140.860 48.925,136.050 49.528 M250.777 49.531 C 249.709 49.663,248.581 49.936,248.272 50.137 C 247.963 50.338,246.856 50.680,245.811 50.897 C 244.767 51.114,243.787 51.462,243.633 51.670 C 243.480 51.878,242.781 52.241,242.079 52.478 C 241.377 52.714,240.628 53.077,240.415 53.284 C 240.201 53.491,239.657 53.857,239.206 54.097 C 236.718 55.421,229.277 62.018,229.274 62.901 C 229.274 63.001,228.924 63.491,228.497 63.990 C 228.071 64.488,227.721 65.033,227.721 65.200 C 227.720 65.368,227.420 65.861,227.053 66.298 C 226.686 66.734,226.264 67.529,226.117 68.064 C 225.969 68.599,225.586 69.347,225.267 69.727 C 224.947 70.107,224.610 70.890,224.518 71.467 C 224.425 72.044,224.074 73.036,223.736 73.671 C 223.296 74.497,223.069 75.475,222.934 77.115 C 222.830 78.374,222.553 79.812,222.318 80.311 C 221.569 81.903,221.538 172.219,222.286 174.687 C 222.579 175.655,222.888 177.229,222.971 178.184 C 223.062 179.223,223.362 180.391,223.717 181.088 C 224.044 181.729,224.449 182.866,224.617 183.614 C 224.785 184.362,225.012 184.974,225.122 184.974 C 225.231 184.974,225.637 185.644,226.022 186.464 C 227.494 189.589,228.348 190.878,230.189 192.749 C 230.541 193.107,230.829 193.485,230.829 193.589 C 230.829 193.954,234.354 197.342,234.920 197.522 C 235.235 197.622,235.492 197.867,235.492 198.068 C 235.492 198.268,235.836 198.610,236.255 198.827 C 236.675 199.044,237.333 199.513,237.718 199.870 C 238.103 200.226,238.625 200.518,238.879 200.518 C 239.133 200.518,239.495 200.669,239.684 200.853 C 240.407 201.559,241.330 202.073,241.877 202.073 C 242.191 202.073,242.800 202.369,243.230 202.732 C 243.730 203.152,244.548 203.477,245.488 203.631 C 246.299 203.763,247.151 204.038,247.380 204.244 C 248.687 205.412,262.242 205.594,264.514 204.474 C 265.159 204.156,266.091 203.827,266.587 203.742 C 267.684 203.554,269.430 202.842,269.430 202.582 C 269.430 202.478,269.926 202.266,270.531 202.111 C 271.137 201.955,271.971 201.534,272.385 201.173 C 272.799 200.813,273.300 200.518,273.498 200.518 C 273.696 200.518,274.158 200.218,274.526 199.850 C 274.893 199.483,275.397 199.104,275.647 199.008 C 276.648 198.624,280.064 195.512,281.682 193.511 C 283.732 190.977,284.197 190.340,284.201 190.066 C 284.204 189.902,284.487 189.500,284.831 189.175 C 285.174 188.849,285.532 188.234,285.625 187.808 C 285.719 187.383,286.072 186.705,286.411 186.303 C 286.749 185.900,287.139 185.070,287.276 184.458 C 287.414 183.845,287.658 183.263,287.818 183.164 C 288.164 182.951,288.860 180.748,288.860 179.867 C 288.860 179.526,289.093 178.736,289.377 178.112 C 290.320 176.040,290.410 171.584,290.404 127.073 C 290.399 84.255,290.301 78.715,289.526 77.162 C 289.300 76.708,288.998 75.605,288.855 74.711 C 288.554 72.824,288.410 72.386,287.801 71.503 C 287.555 71.146,287.276 70.389,287.180 69.819 C 287.084 69.249,286.739 68.491,286.412 68.135 C 286.085 67.778,285.747 67.186,285.661 66.818 C 285.575 66.449,285.157 65.692,284.732 65.134 C 284.307 64.576,283.635 63.661,283.237 63.102 C 281.927 61.261,275.946 55.440,275.364 55.440 C 275.213 55.440,274.754 55.105,274.343 54.694 C 273.933 54.284,273.286 53.870,272.907 53.775 C 272.528 53.679,272.059 53.443,271.865 53.249 C 271.671 53.055,270.956 52.691,270.277 52.440 C 269.597 52.190,268.867 51.846,268.653 51.677 C 268.149 51.278,266.654 50.778,265.959 50.776 C 265.659 50.775,265.065 50.588,264.637 50.361 C 262.715 49.338,255.711 48.919,250.777 49.531 " stroke="none" fill="#ffffff" fill-rule="evenodd"></path></g></svg>