<svg id="svg" version="1.1" xmlns="http://www.w3.org/2000/svg" xmlns:xlink="http://www.w3.org/1999/xlink" width="400" height="258.91472868217056" viewBox="0, 0, 400,258.91472868217056"><g id="svgg"><path id="path0" d="M75.920 39.158 C 74.716 39.283,73.471 39.556,73.153 39.765 C 72.836 39.973,71.664 40.331,70.549 40.560 C 69.435 40.789,68.339 41.142,68.113 41.344 C 67.888 41.546,67.130 41.902,66.429 42.134 C 65.729 42.367,64.922 42.760,64.637 43.008 C 64.352 43.256,63.691 43.596,63.168 43.764 C 62.645 43.931,62.086 44.227,61.925 44.421 C 61.763 44.615,61.113 45.018,60.479 45.316 C 59.845 45.614,59.326 45.955,59.326 46.074 C 59.326 46.193,59.064 46.410,58.744 46.556 C 58.423 46.702,57.636 47.258,56.995 47.790 C 56.354 48.322,55.386 49.124,54.844 49.573 C 53.001 51.099,50.397 53.904,49.860 54.942 C 49.649 55.350,49.258 55.801,48.991 55.944 C 48.724 56.087,48.435 56.484,48.349 56.827 C 48.263 57.169,47.900 57.641,47.542 57.876 C 47.184 58.110,46.891 58.529,46.891 58.805 C 46.891 59.082,46.559 59.691,46.153 60.159 C 45.747 60.627,45.330 61.360,45.227 61.788 C 45.124 62.215,44.808 62.813,44.525 63.116 C 44.243 63.418,43.851 64.275,43.654 65.020 C 43.458 65.764,43.113 66.578,42.887 66.827 C 42.661 67.077,42.314 68.027,42.115 68.938 C 41.917 69.850,41.529 71.022,41.254 71.544 C 40.918 72.180,40.697 73.296,40.581 74.938 C 40.487 76.283,40.235 77.971,40.022 78.689 C 39.511 80.409,39.570 174.546,40.083 176.295 C 40.250 176.865,40.494 178.403,40.625 179.712 C 40.776 181.215,41.061 182.470,41.398 183.118 C 41.692 183.682,42.058 184.818,42.210 185.643 C 42.363 186.468,42.713 187.384,42.989 187.678 C 43.266 187.972,43.606 188.719,43.745 189.338 C 43.884 189.957,44.232 190.715,44.518 191.022 C 44.805 191.329,45.124 191.930,45.227 192.358 C 45.330 192.785,45.747 193.518,46.153 193.986 C 46.559 194.454,46.891 195.009,46.891 195.219 C 46.891 195.429,47.241 195.967,47.668 196.414 C 48.096 196.861,48.446 197.351,48.446 197.503 C 48.446 197.654,48.738 198.074,49.095 198.436 C 49.452 198.797,51.300 200.696,53.202 202.655 C 55.103 204.615,56.790 206.218,56.951 206.218 C 57.111 206.218,57.426 206.498,57.650 206.841 C 57.875 207.183,58.366 207.541,58.743 207.635 C 59.120 207.730,59.817 208.149,60.293 208.567 C 60.769 208.985,61.292 209.326,61.456 209.326 C 61.620 209.326,61.995 209.542,62.289 209.805 C 62.583 210.068,63.348 210.486,63.990 210.734 C 64.631 210.981,65.330 211.337,65.544 211.525 C 65.758 211.713,66.535 212.044,67.270 212.260 C 68.006 212.476,68.901 212.845,69.260 213.080 C 69.618 213.315,70.875 213.675,72.052 213.881 C 73.230 214.086,74.439 214.416,74.740 214.613 C 76.472 215.748,90.899 215.787,92.617 214.661 C 92.928 214.457,94.203 214.114,95.450 213.899 C 96.697 213.684,97.910 213.337,98.146 213.128 C 98.382 212.919,99.333 212.558,100.259 212.326 C 101.185 212.093,102.072 211.732,102.229 211.523 C 102.387 211.314,103.025 210.964,103.647 210.744 C 104.269 210.525,105.014 210.130,105.304 209.868 C 105.593 209.605,106.267 209.250,106.803 209.079 C 107.338 208.907,107.895 208.544,108.041 208.272 C 108.186 208.001,108.595 207.705,108.949 207.616 C 109.304 207.527,109.813 207.176,110.080 206.836 C 110.348 206.496,110.661 206.218,110.775 206.218 C 111.442 206.218,119.171 198.145,119.171 197.449 C 119.171 197.291,119.451 196.979,119.794 196.754 C 120.137 196.529,120.484 196.080,120.565 195.755 C 120.647 195.430,121.066 194.720,121.497 194.178 C 121.927 193.636,122.283 193.005,122.287 192.775 C 122.291 192.545,122.641 191.900,123.064 191.340 C 123.488 190.780,123.834 190.029,123.834 189.670 C 123.834 189.311,124.124 188.600,124.478 188.089 C 124.832 187.578,125.236 186.554,125.377 185.812 C 125.518 185.071,125.869 184.001,126.158 183.435 C 126.489 182.787,126.791 181.414,126.972 179.738 C 127.130 178.272,127.364 176.874,127.492 176.632 C 128.274 175.151,128.342 171.272,128.350 127.202 C 128.359 83.511,128.280 78.732,127.528 77.327 C 127.374 77.039,127.171 75.815,127.077 74.607 C 126.900 72.338,126.591 71.153,125.995 70.447 C 125.805 70.223,125.577 69.465,125.487 68.763 C 125.397 68.061,125.003 66.904,124.611 66.192 C 124.220 65.479,123.819 64.554,123.720 64.135 C 123.621 63.716,123.311 63.051,123.030 62.657 C 122.750 62.263,122.389 61.556,122.229 61.087 C 122.069 60.617,121.665 59.955,121.332 59.615 C 120.998 59.275,120.725 58.838,120.725 58.643 C 120.725 58.449,120.496 58.061,120.216 57.781 C 119.936 57.501,119.408 56.830,119.043 56.291 C 117.656 54.243,117.145 53.656,114.569 51.151 C 111.553 48.218,110.584 47.403,109.391 46.791 C 108.928 46.554,108.549 46.259,108.549 46.136 C 108.549 46.013,108.025 45.665,107.383 45.364 C 106.742 45.063,106.218 44.719,106.218 44.600 C 106.218 44.482,105.576 44.114,104.793 43.782 C 104.009 43.451,103.368 43.091,103.368 42.981 C 103.368 42.872,102.712 42.592,101.910 42.359 C 101.108 42.126,100.146 41.718,99.772 41.452 C 99.399 41.187,98.403 40.832,97.558 40.664 C 96.714 40.496,95.607 40.145,95.097 39.884 C 93.264 38.943,82.041 38.518,75.920 39.158 M191.265 39.130 C 189.593 39.267,188.622 39.482,188.026 39.847 C 187.559 40.134,186.418 40.515,185.492 40.695 C 184.566 40.874,183.517 41.227,183.161 41.479 C 182.804 41.731,181.992 42.072,181.354 42.238 C 180.717 42.403,179.874 42.808,179.482 43.138 C 179.090 43.468,178.426 43.814,178.007 43.906 C 177.588 43.998,177.183 44.235,177.107 44.434 C 177.031 44.632,176.467 45.038,175.855 45.337 C 173.371 46.547,167.849 51.408,165.285 54.643 C 164.929 55.092,164.397 55.718,164.103 56.033 C 163.810 56.348,163.422 56.974,163.241 57.423 C 163.060 57.872,162.630 58.504,162.285 58.828 C 161.940 59.152,161.658 59.562,161.658 59.740 C 161.658 59.918,161.383 60.393,161.048 60.796 C 160.712 61.199,160.290 61.995,160.109 62.565 C 159.929 63.135,159.571 63.834,159.314 64.119 C 159.057 64.404,158.770 64.987,158.677 65.415 C 158.423 66.579,157.986 67.698,157.615 68.138 C 157.434 68.353,157.165 69.274,157.019 70.184 C 156.872 71.093,156.510 72.316,156.213 72.901 C 155.138 75.021,155.053 79.110,155.067 127.720 C 155.081 173.669,155.182 179.348,156.007 180.617 C 156.398 181.218,156.829 182.853,157.133 184.894 C 157.222 185.492,157.461 186.119,157.665 186.288 C 157.869 186.458,158.224 187.242,158.454 188.032 C 158.683 188.821,159.077 189.688,159.329 189.959 C 159.581 190.230,159.932 190.967,160.109 191.598 C 160.285 192.230,160.521 192.746,160.632 192.746 C 160.744 192.746,161.100 193.300,161.425 193.977 C 161.749 194.653,162.226 195.360,162.484 195.546 C 162.742 195.732,162.953 196.026,162.953 196.198 C 162.953 196.477,163.695 197.490,165.600 199.815 C 166.554 200.978,170.105 204.663,170.273 204.663 C 170.410 204.663,170.835 205.026,172.668 206.706 C 172.953 206.967,173.562 207.374,174.021 207.609 C 174.480 207.844,175.063 208.254,175.316 208.520 C 175.570 208.786,176.069 209.089,176.425 209.195 C 176.781 209.300,177.306 209.592,177.591 209.843 C 177.876 210.095,178.575 210.455,179.145 210.644 C 179.715 210.833,180.415 211.174,180.699 211.403 C 181.418 211.979,182.553 212.435,183.267 212.435 C 183.598 212.435,184.153 212.659,184.501 212.933 C 184.849 213.207,185.884 213.563,186.802 213.725 C 187.720 213.887,188.996 214.196,189.637 214.411 C 191.914 215.174,192.665 215.281,196.891 215.441 C 201.781 215.626,205.951 215.304,208.332 214.558 C 209.235 214.276,210.732 213.906,211.658 213.736 C 212.584 213.567,213.535 213.255,213.771 213.043 C 214.007 212.831,214.882 212.481,215.714 212.265 C 216.547 212.049,217.403 211.719,217.617 211.532 C 217.830 211.345,218.470 210.999,219.038 210.765 C 219.606 210.530,220.305 210.119,220.592 209.851 C 220.879 209.584,221.462 209.278,221.888 209.173 C 222.314 209.067,222.876 208.708,223.138 208.376 C 223.399 208.044,223.750 207.769,223.918 207.766 C 224.086 207.763,224.673 207.355,225.223 206.859 C 225.773 206.364,226.346 205.959,226.497 205.959 C 226.892 205.959,232.416 200.284,233.657 198.605 C 234.233 197.826,234.824 197.113,234.972 197.022 C 235.120 196.931,235.408 196.456,235.612 195.967 C 235.817 195.478,236.094 195.078,236.228 195.078 C 236.362 195.078,236.669 194.582,236.910 193.977 C 237.150 193.371,237.558 192.642,237.817 192.358 C 238.075 192.073,238.365 191.466,238.461 191.010 C 238.558 190.553,238.867 189.887,239.149 189.529 C 239.431 189.171,239.837 188.203,240.051 187.379 C 240.265 186.555,240.612 185.619,240.821 185.299 C 241.031 184.979,241.383 183.755,241.604 182.579 C 241.825 181.403,242.180 180.091,242.394 179.663 C 243.202 178.050,243.287 172.281,243.211 124.223 L 243.135 76.295 242.551 74.924 C 242.230 74.169,241.795 72.487,241.585 71.186 C 241.374 69.884,241.100 68.753,240.977 68.671 C 240.581 68.412,240.167 67.436,239.876 66.082 C 239.721 65.359,239.496 64.767,239.375 64.767 C 239.255 64.767,238.915 64.120,238.619 63.330 C 238.323 62.540,237.849 61.644,237.564 61.339 C 237.279 61.033,237.047 60.576,237.047 60.323 C 237.047 60.070,236.697 59.464,236.269 58.977 C 235.842 58.491,235.492 57.966,235.492 57.812 C 235.492 57.657,235.142 57.133,234.715 56.646 C 234.288 56.159,233.938 55.686,233.938 55.595 C 233.938 55.268,229.277 50.466,227.626 49.093 C 227.112 48.666,226.435 48.054,226.123 47.733 C 225.810 47.413,225.427 47.150,225.271 47.150 C 225.116 47.150,224.583 46.817,224.088 46.411 C 223.592 46.004,222.822 45.484,222.376 45.255 C 221.930 45.025,221.505 44.681,221.431 44.489 C 221.358 44.297,220.790 43.990,220.169 43.807 C 219.549 43.624,218.808 43.266,218.523 43.012 C 218.238 42.759,217.539 42.406,216.969 42.228 C 216.399 42.051,215.583 41.700,215.155 41.448 C 214.728 41.196,213.523 40.798,212.479 40.564 C 211.434 40.331,210.327 39.979,210.018 39.782 C 208.739 38.969,197.844 38.590,191.265 39.130 M306.606 39.144 C 305.466 39.262,304.067 39.587,303.497 39.866 C 302.927 40.145,301.735 40.514,300.846 40.686 C 299.958 40.858,299.106 41.150,298.952 41.335 C 298.799 41.520,298.010 41.874,297.199 42.120 C 296.389 42.367,295.492 42.768,295.207 43.012 C 294.922 43.255,294.135 43.660,293.459 43.912 C 292.782 44.165,292.228 44.478,292.228 44.608 C 292.228 44.738,291.840 45.007,291.365 45.206 C 290.891 45.404,290.358 45.740,290.182 45.952 C 290.006 46.165,288.936 46.957,287.806 47.712 C 286.676 48.467,285.751 49.230,285.751 49.406 C 285.751 49.583,285.402 49.908,284.974 50.130 C 284.547 50.351,284.197 50.700,284.197 50.907 C 284.197 51.113,283.847 51.463,283.420 51.684 C 282.992 51.905,282.642 52.255,282.642 52.461 C 282.642 52.668,282.293 53.017,281.865 53.238 C 281.438 53.459,281.088 53.794,281.088 53.982 C 281.088 54.170,280.840 54.546,280.536 54.817 C 280.233 55.089,279.691 55.777,279.333 56.347 C 278.974 56.917,278.523 57.477,278.330 57.591 C 278.137 57.705,277.979 57.958,277.979 58.154 C 277.979 58.349,277.704 58.839,277.369 59.242 C 277.033 59.645,276.515 60.528,276.217 61.205 C 275.920 61.881,275.562 62.435,275.422 62.435 C 275.281 62.435,274.973 63.100,274.737 63.913 C 274.501 64.725,274.155 65.512,273.969 65.662 C 273.784 65.811,273.488 66.574,273.312 67.358 C 272.902 69.187,272.529 70.207,272.272 70.207 C 272.083 70.207,271.769 71.856,271.365 74.973 C 271.274 75.671,271.102 76.429,270.981 76.657 C 270.258 78.030,270.207 81.354,270.216 127.440 C 270.226 176.603,270.190 174.721,271.201 178.886 C 271.339 179.456,271.584 180.792,271.745 181.854 C 271.906 182.917,272.197 183.966,272.391 184.186 C 272.585 184.406,272.935 185.338,273.168 186.258 C 273.401 187.178,273.770 188.128,273.989 188.370 C 274.207 188.611,274.539 189.388,274.726 190.098 C 274.913 190.807,275.313 191.635,275.616 191.937 C 275.918 192.240,276.166 192.653,276.166 192.856 C 276.166 193.059,276.459 193.573,276.817 193.998 C 277.175 194.424,277.640 195.184,277.851 195.688 C 278.061 196.192,278.391 196.697,278.583 196.812 C 278.775 196.927,279.049 197.235,279.192 197.498 C 280.264 199.468,288.423 207.513,289.350 207.513 C 289.510 207.513,290.001 207.856,290.439 208.274 C 290.877 208.693,291.563 209.108,291.964 209.196 C 292.365 209.284,292.893 209.578,293.138 209.849 C 293.384 210.120,294.143 210.527,294.827 210.754 C 295.510 210.981,296.128 211.322,296.201 211.511 C 296.274 211.701,296.954 211.997,297.713 212.170 C 298.472 212.342,299.387 212.690,299.746 212.941 C 300.592 213.534,301.038 213.665,303.313 213.984 C 304.351 214.130,305.469 214.426,305.798 214.641 C 307.520 215.769,321.065 215.786,323.279 214.663 C 323.656 214.472,325.071 214.116,326.425 213.871 C 327.778 213.626,329.071 213.261,329.296 213.059 C 329.522 212.857,330.338 212.507,331.110 212.280 C 331.882 212.054,332.746 211.657,333.031 211.399 C 333.316 211.141,334.045 210.784,334.650 210.605 C 335.256 210.427,335.751 210.195,335.751 210.091 C 335.751 209.987,336.247 209.666,336.852 209.378 C 337.458 209.091,338.211 208.612,338.525 208.314 C 338.840 208.016,339.206 207.772,339.339 207.772 C 340.273 207.772,350.000 198.186,350.000 197.266 C 350.000 197.087,350.408 196.452,350.907 195.855 C 351.405 195.258,351.813 194.607,351.813 194.408 C 351.813 194.209,352.050 193.899,352.338 193.720 C 352.627 193.540,352.987 192.927,353.138 192.358 C 353.289 191.788,353.682 191.030,354.011 190.674 C 354.341 190.317,354.688 189.542,354.785 188.950 C 354.881 188.358,355.233 187.504,355.567 187.051 C 355.911 186.585,356.254 185.645,356.357 184.888 C 356.457 184.152,356.799 183.025,357.118 182.383 C 357.561 181.490,357.771 180.369,358.013 177.591 C 358.186 175.596,358.495 173.284,358.698 172.453 C 359.243 170.223,359.254 81.885,358.708 81.014 C 358.496 80.674,358.220 78.910,358.032 76.684 C 357.789 73.791,357.579 72.630,357.120 71.632 C 356.792 70.920,356.440 69.696,356.338 68.912 C 356.222 68.017,355.933 67.225,355.562 66.784 C 355.237 66.397,354.894 65.623,354.799 65.063 C 354.705 64.504,354.352 63.788,354.016 63.472 C 353.677 63.154,353.326 62.438,353.231 61.871 C 353.135 61.306,352.897 60.783,352.701 60.708 C 352.506 60.633,352.048 59.942,351.683 59.172 C 351.319 58.402,350.902 57.772,350.756 57.772 C 350.611 57.772,350.321 57.364,350.113 56.865 C 349.904 56.367,349.628 55.959,349.500 55.959 C 349.371 55.959,349.010 55.545,348.697 55.040 C 348.385 54.535,347.053 53.045,345.737 51.729 C 343.411 49.403,342.688 48.754,340.919 47.409 C 340.451 47.053,339.802 46.510,339.476 46.203 C 339.151 45.896,338.481 45.511,337.987 45.348 C 337.492 45.185,336.933 44.863,336.744 44.634 C 336.554 44.404,335.879 43.986,335.243 43.704 C 334.607 43.422,333.933 43.037,333.745 42.849 C 333.422 42.527,331.816 41.974,331.192 41.970 C 331.036 41.970,330.658 41.752,330.352 41.487 C 330.046 41.221,329.067 40.855,328.175 40.673 C 327.284 40.491,326.198 40.130,325.763 39.870 C 324.248 38.967,312.579 38.525,306.606 39.144 M88.462 48.590 C 88.884 48.810,90.074 49.098,91.106 49.228 C 93.565 49.540,94.343 49.735,94.840 50.166 C 95.066 50.361,95.839 50.695,96.558 50.909 C 97.277 51.122,98.010 51.471,98.186 51.683 C 98.362 51.895,98.957 52.190,99.508 52.339 C 100.060 52.487,100.821 52.896,101.200 53.247 C 101.579 53.599,102.007 53.886,102.151 53.886 C 102.891 53.886,110.363 60.665,110.363 61.336 C 110.363 61.463,110.639 61.828,110.977 62.145 C 111.316 62.463,111.800 63.183,112.053 63.745 C 112.307 64.307,112.619 64.767,112.747 64.767 C 112.875 64.767,113.159 65.197,113.379 65.722 C 113.598 66.247,114.044 67.034,114.370 67.471 C 114.695 67.907,115.040 68.705,115.137 69.244 C 115.233 69.782,115.597 70.644,115.946 71.158 C 116.319 71.708,116.585 72.479,116.592 73.028 C 116.598 73.543,116.780 74.430,116.997 75.000 C 118.181 78.114,118.129 75.713,118.123 127.202 C 118.118 175.404,118.114 175.788,117.591 177.202 C 117.301 177.986,116.913 179.422,116.728 180.393 C 116.544 181.365,116.152 182.485,115.857 182.884 C 115.563 183.282,115.241 184.040,115.142 184.569 C 115.042 185.097,114.684 185.859,114.345 186.262 C 114.005 186.665,113.659 187.339,113.575 187.760 C 113.491 188.181,113.083 188.922,112.670 189.405 C 112.257 189.889,111.918 190.386,111.918 190.510 C 111.917 190.634,111.597 191.126,111.205 191.604 C 110.813 192.082,110.084 193.006,109.585 193.657 C 109.087 194.308,108.459 195.040,108.191 195.283 C 107.923 195.526,107.330 196.075,106.873 196.503 C 106.416 196.930,105.528 197.663,104.899 198.131 C 104.271 198.598,103.303 199.327,102.749 199.750 C 102.195 200.172,101.635 200.518,101.504 200.518 C 101.372 200.518,100.835 200.854,100.309 201.265 C 99.783 201.676,99.035 202.085,98.647 202.175 C 98.258 202.265,97.537 202.612,97.044 202.947 C 96.550 203.282,95.568 203.633,94.862 203.726 C 94.156 203.820,93.446 204.056,93.284 204.251 C 92.102 205.675,77.335 205.816,74.978 204.426 C 74.500 204.143,73.668 203.840,73.129 203.752 C 71.982 203.565,70.207 202.854,70.207 202.582 C 70.207 202.478,69.712 202.266,69.106 202.111 C 68.501 201.955,67.666 201.534,67.252 201.173 C 66.838 200.813,66.342 200.518,66.149 200.518 C 65.956 200.518,65.432 200.168,64.985 199.741 C 64.538 199.313,64.045 198.964,63.889 198.964 C 63.734 198.964,63.314 198.678,62.956 198.328 C 58.434 193.912,56.995 192.406,56.995 192.094 C 56.995 191.889,56.703 191.531,56.347 191.297 C 55.991 191.064,55.699 190.716,55.699 190.523 C 55.699 190.331,55.358 189.784,54.940 189.308 C 54.522 188.833,54.099 188.100,54.000 187.680 C 53.901 187.260,53.552 186.626,53.225 186.269 C 52.899 185.913,52.546 185.155,52.441 184.585 C 52.337 184.016,51.982 183.141,51.653 182.642 C 51.287 182.087,50.988 181.133,50.883 180.181 C 50.789 179.326,50.464 178.044,50.161 177.332 L 49.611 176.036 49.611 127.073 L 49.611 78.109 50.174 76.813 C 50.483 76.101,50.810 74.886,50.901 74.114 C 50.991 73.342,51.338 72.235,51.670 71.653 C 52.002 71.072,52.348 70.171,52.439 69.651 C 52.530 69.131,52.814 68.431,53.071 68.096 C 53.327 67.761,53.796 66.944,54.112 66.280 C 54.428 65.616,54.846 65.011,55.039 64.937 C 55.233 64.863,55.468 64.454,55.561 64.029 C 55.655 63.604,55.893 63.194,56.090 63.118 C 56.288 63.042,56.647 62.595,56.889 62.125 C 57.452 61.027,62.562 55.915,63.666 55.344 C 64.129 55.105,64.508 54.815,64.508 54.700 C 64.508 54.586,64.828 54.328,65.220 54.127 C 65.612 53.927,66.341 53.453,66.839 53.074 C 67.338 52.694,68.032 52.299,68.382 52.194 C 68.731 52.090,69.174 51.848,69.365 51.657 C 69.556 51.466,70.203 51.177,70.802 51.015 C 71.401 50.854,72.475 50.443,73.189 50.102 C 73.902 49.762,75.301 49.377,76.298 49.248 C 77.294 49.118,78.517 48.831,79.016 48.609 C 80.318 48.031,87.363 48.017,88.462 48.590 M203.761 48.560 C 204.253 48.766,205.601 49.073,206.756 49.241 C 207.915 49.411,209.363 49.818,209.985 50.149 C 210.606 50.479,211.521 50.825,212.019 50.919 C 212.516 51.012,213.302 51.368,213.766 51.710 C 214.229 52.052,214.732 52.332,214.882 52.332 C 215.239 52.333,218.107 54.210,218.810 54.903 C 219.110 55.199,219.469 55.440,219.609 55.440 C 219.748 55.440,220.174 55.761,220.554 56.153 C 220.935 56.545,221.467 57.081,221.737 57.345 C 222.007 57.608,222.362 57.958,222.526 58.122 C 222.690 58.286,223.022 58.618,223.264 58.860 C 223.506 59.102,223.856 59.452,224.042 59.637 C 224.227 59.823,224.577 60.198,224.819 60.472 C 225.061 60.745,225.505 61.212,225.805 61.508 C 226.105 61.804,226.545 62.426,226.783 62.889 C 227.021 63.352,227.320 63.731,227.449 63.731 C 227.718 63.731,228.497 65.198,228.497 65.704 C 228.497 65.891,228.714 66.160,228.979 66.302 C 229.244 66.443,229.613 67.118,229.800 67.800 C 229.987 68.483,230.346 69.311,230.599 69.640 C 230.851 69.969,231.192 70.884,231.356 71.673 C 231.519 72.462,231.865 73.475,232.124 73.924 C 233.382 76.105,233.446 78.951,233.344 128.109 C 233.243 176.909,233.194 178.813,231.993 180.311 C 231.822 180.525,231.547 181.394,231.383 182.243 C 231.218 183.092,230.793 184.206,230.438 184.718 C 230.083 185.230,229.793 185.831,229.793 186.053 C 229.793 186.275,229.511 186.871,229.167 187.378 C 228.823 187.885,228.344 188.717,228.102 189.227 C 227.859 189.738,227.566 190.155,227.450 190.155 C 227.334 190.155,226.976 190.680,226.656 191.321 C 226.336 191.962,225.988 192.487,225.882 192.487 C 225.776 192.487,225.438 192.895,225.130 193.394 C 224.821 193.892,224.400 194.301,224.194 194.301 C 223.987 194.301,223.741 194.505,223.646 194.754 C 223.424 195.341,222.912 195.855,222.549 195.855 C 222.392 195.855,222.186 196.059,222.092 196.308 C 221.874 196.885,221.359 197.409,221.012 197.409 C 220.864 197.409,220.619 197.641,220.468 197.925 C 220.316 198.208,219.852 198.616,219.436 198.831 C 219.021 199.046,218.378 199.502,218.009 199.844 C 217.639 200.187,217.047 200.540,216.693 200.629 C 216.339 200.718,215.821 201.018,215.542 201.297 C 215.264 201.576,214.509 201.936,213.865 202.098 C 213.221 202.260,212.694 202.493,212.694 202.615 C 212.694 202.974,211.355 203.545,210.148 203.699 C 209.532 203.778,208.832 204.016,208.594 204.229 C 206.902 205.738,191.320 205.754,189.618 204.248 C 189.393 204.050,188.693 203.785,188.063 203.660 C 186.590 203.368,185.492 202.927,185.492 202.626 C 185.492 202.496,185.071 202.310,184.557 202.214 C 184.042 202.117,183.338 201.756,182.993 201.410 C 182.648 201.065,182.087 200.713,181.748 200.628 C 181.408 200.542,180.750 200.133,180.285 199.718 C 179.821 199.303,179.290 198.964,179.106 198.964 C 178.922 198.964,178.513 198.614,178.197 198.187 C 177.881 197.759,177.489 197.409,177.326 197.409 C 177.162 197.409,176.717 197.089,176.337 196.697 C 175.956 196.305,175.469 195.810,175.253 195.596 C 174.887 195.233,174.250 194.501,172.659 192.617 C 171.105 190.776,170.539 189.972,170.198 189.119 C 169.999 188.620,169.641 188.038,169.402 187.824 C 169.163 187.610,168.764 186.881,168.516 186.205 C 168.267 185.528,167.978 184.974,167.872 184.974 C 167.766 184.974,167.482 184.187,167.241 183.225 C 166.999 182.264,166.624 181.280,166.407 181.040 C 166.164 180.772,165.830 179.307,165.540 177.241 C 165.280 175.391,164.942 173.643,164.788 173.355 C 164.313 172.468,164.401 82.288,164.878 80.810 C 165.082 80.179,165.386 78.439,165.555 76.943 C 165.750 75.216,166.037 73.933,166.343 73.428 C 166.607 72.991,166.994 71.901,167.203 71.006 C 167.412 70.111,167.746 69.186,167.946 68.951 C 168.145 68.716,168.460 68.115,168.646 67.617 C 168.831 67.118,169.175 66.535,169.410 66.321 C 169.644 66.108,169.994 65.525,170.187 65.026 C 170.380 64.527,170.740 63.937,170.988 63.715 C 171.236 63.493,171.631 62.939,171.866 62.484 C 172.101 62.030,172.391 61.658,172.511 61.658 C 172.631 61.658,173.022 61.221,173.381 60.687 C 173.941 59.851,174.801 58.946,177.607 56.239 C 177.901 55.956,178.455 55.604,178.838 55.459 C 179.220 55.313,179.534 55.078,179.534 54.935 C 179.534 54.793,179.913 54.482,180.376 54.245 C 180.839 54.007,181.547 53.538,181.950 53.202 C 182.353 52.866,182.994 52.517,183.375 52.427 C 183.756 52.337,184.301 52.056,184.585 51.802 C 184.870 51.548,185.774 51.147,186.593 50.911 C 187.413 50.675,188.083 50.378,188.083 50.251 C 188.083 49.955,189.510 49.577,191.969 49.220 C 193.038 49.065,194.145 48.836,194.430 48.711 C 195.457 48.260,195.777 48.227,199.296 48.207 C 201.861 48.192,203.118 48.292,203.761 48.560 M319.468 48.678 C 320.373 48.949,321.755 49.245,322.539 49.336 C 323.323 49.428,324.547 49.777,325.259 50.111 C 325.972 50.446,327.065 50.873,327.690 51.060 C 328.314 51.248,328.970 51.546,329.148 51.724 C 329.326 51.902,329.767 52.121,330.129 52.212 C 330.491 52.303,331.167 52.717,331.632 53.132 C 332.096 53.547,332.610 53.886,332.772 53.886 C 332.934 53.886,333.459 54.236,333.938 54.663 C 334.417 55.091,334.941 55.440,335.104 55.440 C 335.267 55.440,336.382 56.423,337.583 57.624 C 340.643 60.684,341.072 61.165,341.527 62.047 C 341.748 62.474,342.170 63.027,342.467 63.275 C 342.763 63.523,343.005 63.874,343.005 64.055 C 343.005 64.235,343.288 64.689,343.634 65.062 C 343.981 65.435,344.388 66.203,344.540 66.767 C 344.692 67.332,345.048 68.003,345.331 68.259 C 345.613 68.515,345.918 69.145,346.008 69.660 C 346.099 70.175,346.448 71.101,346.785 71.719 C 347.122 72.336,347.470 73.444,347.558 74.180 C 347.646 74.916,348.028 76.392,348.406 77.461 L 349.093 79.404 349.093 126.813 C 349.093 170.355,349.058 174.318,348.663 175.389 C 348.218 176.595,347.817 178.314,347.522 180.279 C 347.429 180.903,347.119 181.809,346.834 182.293 C 346.549 182.776,346.205 183.662,346.071 184.262 C 345.936 184.862,345.541 185.726,345.193 186.182 C 344.844 186.639,344.560 187.179,344.560 187.382 C 344.560 187.586,344.214 188.187,343.793 188.718 C 343.371 189.248,342.947 189.930,342.851 190.233 C 342.755 190.536,342.401 191.000,342.064 191.265 C 341.727 191.531,341.451 191.875,341.451 192.031 C 341.451 192.344,341.117 192.726,338.281 195.661 C 337.214 196.765,336.149 197.668,335.916 197.668 C 335.683 197.668,335.492 197.830,335.492 198.027 C 335.492 198.225,335.086 198.579,334.589 198.815 C 334.092 199.051,333.570 199.460,333.429 199.724 C 333.287 199.988,332.811 200.330,332.370 200.484 C 331.928 200.638,331.217 201.058,330.790 201.418 C 330.362 201.778,329.804 202.073,329.549 202.073 C 329.294 202.073,328.807 202.284,328.468 202.543 C 327.680 203.144,326.588 203.551,325.194 203.763 C 324.589 203.856,324.093 204.033,324.093 204.158 C 324.093 205.604,308.533 205.839,305.637 204.437 C 305.023 204.140,304.116 203.826,303.621 203.740 C 302.273 203.505,301.221 203.075,300.702 202.546 C 300.447 202.285,299.956 202.073,299.610 202.073 C 299.265 202.073,298.583 201.723,298.097 201.295 C 297.610 200.868,297.080 200.518,296.919 200.518 C 296.759 200.518,296.261 200.168,295.814 199.741 C 295.367 199.313,294.869 198.964,294.708 198.964 C 293.686 198.964,286.528 191.516,286.528 190.452 C 286.528 190.287,286.240 189.901,285.887 189.595 C 285.535 189.288,285.112 188.618,284.949 188.107 C 284.785 187.595,284.447 186.943,284.197 186.658 C 283.947 186.373,283.597 185.674,283.419 185.104 C 283.241 184.534,282.951 183.892,282.776 183.679 C 282.344 183.153,281.865 181.677,281.865 180.872 C 281.865 180.511,281.641 179.741,281.367 179.162 C 280.300 176.906,280.314 177.604,280.312 127.239 C 280.311 76.149,280.309 76.263,281.348 75.000 C 281.465 74.858,281.694 74.003,281.858 73.100 C 282.168 71.386,282.597 70.207,282.909 70.207 C 283.011 70.207,283.238 69.691,283.415 69.060 C 283.591 68.428,283.940 67.693,284.189 67.426 C 284.438 67.158,284.784 66.509,284.957 65.984 C 285.131 65.458,285.470 64.881,285.710 64.703 C 285.951 64.524,286.299 64.036,286.484 63.618 C 287.425 61.490,295.170 53.886,296.397 53.886 C 296.624 53.886,297.007 53.669,297.247 53.404 C 297.487 53.139,298.147 52.713,298.712 52.458 C 299.278 52.203,299.741 51.904,299.741 51.795 C 299.741 51.686,300.353 51.404,301.101 51.169 C 301.849 50.934,303.044 50.462,303.756 50.121 C 304.491 49.770,305.949 49.392,307.124 49.248 C 308.264 49.108,309.605 48.817,310.104 48.600 C 311.508 47.991,317.328 48.039,319.468 48.678 " stroke="none" fill="#672f95" fill-rule="evenodd"></path><path id="path1" d="M0.000 129.534 L 0.000 259.067 200.000 259.067 L 400.000 259.067 400.000 129.534 L 400.000 0.000 200.000 0.000 L 0.000 0.000 0.000 129.534 M91.655 39.134 C 93.074 39.289,94.575 39.616,95.097 39.884 C 95.607 40.145,96.714 40.496,97.558 40.664 C 98.403 40.832,99.399 41.187,99.772 41.452 C 100.146 41.718,101.108 42.126,101.910 42.359 C 102.712 42.592,103.368 42.872,103.368 42.981 C 103.368 43.091,104.009 43.451,104.793 43.782 C 105.576 44.114,106.218 44.482,106.218 44.600 C 106.218 44.719,106.742 45.063,107.383 45.364 C 108.025 45.665,108.549 46.013,108.549 46.136 C 108.549 46.259,108.928 46.554,109.391 46.791 C 110.584 47.403,111.553 48.218,114.569 51.151 C 117.145 53.656,117.656 54.243,119.043 56.291 C 119.408 56.830,119.936 57.501,120.216 57.781 C 120.496 58.061,120.725 58.449,120.725 58.643 C 120.725 58.838,120.998 59.275,121.332 59.615 C 121.665 59.955,122.069 60.617,122.229 61.087 C 122.389 61.556,122.750 62.263,123.030 62.657 C 123.311 63.051,123.621 63.716,123.720 64.135 C 123.819 64.554,124.220 65.479,124.611 66.192 C 125.003 66.904,125.397 68.061,125.487 68.763 C 125.577 69.465,125.805 70.223,125.995 70.447 C 126.591 71.153,126.900 72.338,127.077 74.607 C 127.171 75.815,127.374 77.039,127.528 77.327 C 128.280 78.732,128.359 83.511,128.350 127.202 C 128.342 171.272,128.274 175.151,127.492 176.632 C 127.364 176.874,127.130 178.272,126.972 179.738 C 126.791 181.414,126.489 182.787,126.158 183.435 C 125.869 184.001,125.518 185.071,125.377 185.812 C 125.236 186.554,124.832 187.578,124.478 188.089 C 124.124 188.600,123.834 189.311,123.834 189.670 C 123.834 190.029,123.488 190.780,123.064 191.340 C 122.641 191.900,122.291 192.545,122.287 192.775 C 122.283 193.005,121.927 193.636,121.497 194.178 C 121.066 194.720,120.647 195.430,120.565 195.755 C 120.484 196.080,120.137 196.529,119.794 196.754 C 119.451 196.979,119.171 197.291,119.171 197.449 C 119.171 198.145,111.442 206.218,110.775 206.218 C 110.661 206.218,110.348 206.496,110.080 206.836 C 109.813 207.176,109.304 207.527,108.949 207.616 C 108.595 207.705,108.186 208.001,108.041 208.272 C 107.895 208.544,107.338 208.907,106.803 209.079 C 106.267 209.250,105.593 209.605,105.304 209.868 C 105.014 210.130,104.269 210.525,103.647 210.744 C 103.025 210.964,102.387 211.314,102.229 211.523 C 102.072 211.732,101.185 212.093,100.259 212.326 C 99.333 212.558,98.382 212.919,98.146 213.128 C 97.910 213.337,96.697 213.684,95.450 213.899 C 94.203 214.114,92.928 214.457,92.617 214.661 C 90.899 215.787,76.472 215.748,74.740 214.613 C 74.439 214.416,73.230 214.086,72.052 213.881 C 70.875 213.675,69.618 213.315,69.260 213.080 C 68.901 212.845,68.006 212.476,67.270 212.260 C 66.535 212.044,65.758 211.713,65.544 211.525 C 65.330 211.337,64.631 210.981,63.990 210.734 C 63.348 210.486,62.583 210.068,62.289 209.805 C 61.995 209.542,61.620 209.326,61.456 209.326 C 61.292 209.326,60.769 208.985,60.293 208.567 C 59.817 208.149,59.120 207.730,58.743 207.635 C 58.366 207.541,57.875 207.183,57.650 206.841 C 57.426 206.498,57.111 206.218,56.951 206.218 C 56.790 206.218,55.103 204.615,53.202 202.655 C 51.300 200.696,49.452 198.797,49.095 198.436 C 48.738 198.074,48.446 197.654,48.446 197.503 C 48.446 197.351,48.096 196.861,47.668 196.414 C 47.241 195.967,46.891 195.429,46.891 195.219 C 46.891 195.009,46.559 194.454,46.153 193.986 C 45.747 193.518,45.330 192.785,45.227 192.358 C 45.124 191.930,44.805 191.329,44.518 191.022 C 44.232 190.715,43.884 189.957,43.745 189.338 C 43.606 188.719,43.266 187.972,42.989 187.678 C 42.713 187.384,42.363 186.468,42.210 185.643 C 42.058 184.818,41.692 183.682,41.398 183.118 C 41.061 182.470,40.776 181.215,40.625 179.712 C 40.494 178.403,40.250 176.865,40.083 176.295 C 39.570 174.546,39.511 80.409,40.022 78.689 C 40.235 77.971,40.487 76.283,40.581 74.938 C 40.697 73.296,40.918 72.180,41.254 71.544 C 41.529 71.022,41.917 69.850,42.115 68.938 C 42.314 68.027,42.661 67.077,42.887 66.827 C 43.113 66.578,43.458 65.764,43.654 65.020 C 43.851 64.275,44.243 63.418,44.525 63.116 C 44.808 62.813,45.124 62.215,45.227 61.788 C 45.330 61.360,45.747 60.627,46.153 60.159 C 46.559 59.691,46.891 59.082,46.891 58.805 C 46.891 58.529,47.184 58.110,47.542 57.876 C 47.900 57.641,48.263 57.169,48.349 56.827 C 48.435 56.484,48.724 56.087,48.991 55.944 C 49.258 55.801,49.649 55.350,49.860 54.942 C 50.397 53.904,53.001 51.099,54.844 49.573 C 55.386 49.124,56.354 48.322,56.995 47.790 C 57.636 47.258,58.423 46.702,58.744 46.556 C 59.064 46.410,59.326 46.193,59.326 46.074 C 59.326 45.955,59.845 45.614,60.479 45.316 C 61.113 45.018,61.763 44.615,61.925 44.421 C 62.086 44.227,62.645 43.931,63.168 43.764 C 63.691 43.596,64.352 43.256,64.637 43.008 C 64.922 42.760,65.729 42.367,66.429 42.134 C 67.130 41.902,67.888 41.546,68.113 41.344 C 68.339 41.142,69.435 40.789,70.549 40.560 C 71.664 40.331,72.836 39.973,73.153 39.765 C 74.381 38.960,86.327 38.553,91.655 39.134 M206.790 39.143 C 208.256 39.298,209.709 39.586,210.018 39.782 C 210.327 39.979,211.434 40.331,212.479 40.564 C 213.523 40.798,214.728 41.196,215.155 41.448 C 215.583 41.700,216.399 42.051,216.969 42.228 C 217.539 42.406,218.238 42.759,218.523 43.012 C 218.808 43.266,219.549 43.624,220.169 43.807 C 220.790 43.990,221.358 44.297,221.431 44.489 C 221.505 44.681,221.930 45.025,222.376 45.255 C 222.822 45.484,223.592 46.004,224.088 46.411 C 224.583 46.817,225.116 47.150,225.271 47.150 C 225.427 47.150,225.810 47.413,226.123 47.733 C 226.435 48.054,227.112 48.666,227.626 49.093 C 229.277 50.466,233.938 55.268,233.938 55.595 C 233.938 55.686,234.288 56.159,234.715 56.646 C 235.142 57.133,235.492 57.657,235.492 57.812 C 235.492 57.966,235.842 58.491,236.269 58.977 C 236.697 59.464,237.047 60.070,237.047 60.323 C 237.047 60.576,237.279 61.033,237.564 61.339 C 237.849 61.644,238.323 62.540,238.619 63.330 C 238.915 64.120,239.255 64.767,239.375 64.767 C 239.496 64.767,239.721 65.359,239.876 66.082 C 240.167 67.436,240.581 68.412,240.977 68.671 C 241.100 68.753,241.374 69.884,241.585 71.186 C 241.795 72.487,242.230 74.169,242.551 74.924 L 243.135 76.295 243.211 124.223 C 243.287 172.281,243.202 178.050,242.394 179.663 C 242.180 180.091,241.825 181.403,241.604 182.579 C 241.383 183.755,241.031 184.979,240.821 185.299 C 240.612 185.619,240.265 186.555,240.051 187.379 C 239.837 188.203,239.431 189.171,239.149 189.529 C 238.867 189.887,238.558 190.553,238.461 191.010 C 238.365 191.466,238.075 192.073,237.817 192.358 C 237.558 192.642,237.150 193.371,236.910 193.977 C 236.669 194.582,236.362 195.078,236.228 195.078 C 236.094 195.078,235.817 195.478,235.612 195.967 C 235.408 196.456,235.120 196.931,234.972 197.022 C 234.824 197.113,234.233 197.826,233.657 198.605 C 232.416 200.284,226.892 205.959,226.497 205.959 C 226.346 205.959,225.773 206.364,225.223 206.859 C 224.673 207.355,224.086 207.763,223.918 207.766 C 223.750 207.769,223.399 208.044,223.138 208.376 C 222.876 208.708,222.314 209.067,221.888 209.173 C 221.462 209.278,220.879 209.584,220.592 209.851 C 220.305 210.119,219.606 210.530,219.038 210.765 C 218.470 210.999,217.830 211.345,217.617 211.532 C 217.403 211.719,216.547 212.049,215.714 212.265 C 214.882 212.481,214.007 212.831,213.771 213.043 C 213.535 213.255,212.584 213.567,211.658 213.736 C 210.732 213.906,209.235 214.276,208.332 214.558 C 205.951 215.304,201.781 215.626,196.891 215.441 C 192.665 215.281,191.914 215.174,189.637 214.411 C 188.996 214.196,187.720 213.887,186.802 213.725 C 185.884 213.563,184.849 213.207,184.501 212.933 C 184.153 212.659,183.598 212.435,183.267 212.435 C 182.553 212.435,181.418 211.979,180.699 211.403 C 180.415 211.174,179.715 210.833,179.145 210.644 C 178.575 210.455,177.876 210.095,177.591 209.843 C 177.306 209.592,176.781 209.300,176.425 209.195 C 176.069 209.089,175.570 208.786,175.316 208.520 C 175.063 208.254,174.480 207.844,174.021 207.609 C 173.562 207.374,172.953 206.967,172.668 206.706 C 170.835 205.026,170.410 204.663,170.273 204.663 C 170.105 204.663,166.554 200.978,165.600 199.815 C 163.695 197.490,162.953 196.477,162.953 196.198 C 162.953 196.026,162.742 195.732,162.484 195.546 C 162.226 195.360,161.749 194.653,161.425 193.977 C 161.100 193.300,160.744 192.746,160.632 192.746 C 160.521 192.746,160.285 192.230,160.109 191.598 C 159.932 190.967,159.581 190.230,159.329 189.959 C 159.077 189.688,158.683 188.821,158.454 188.032 C 158.224 187.242,157.869 186.458,157.665 186.288 C 157.461 186.119,157.222 185.492,157.133 184.894 C 156.829 182.853,156.398 181.218,156.007 180.617 C 155.182 179.348,155.081 173.669,155.067 127.720 C 155.053 79.110,155.138 75.021,156.213 72.901 C 156.510 72.316,156.872 71.093,157.019 70.184 C 157.165 69.274,157.434 68.353,157.615 68.138 C 157.986 67.698,158.423 66.579,158.677 65.415 C 158.770 64.987,159.057 64.404,159.314 64.119 C 159.571 63.834,159.929 63.135,160.109 62.565 C 160.290 61.995,160.712 61.199,161.048 60.796 C 161.383 60.393,161.658 59.918,161.658 59.740 C 161.658 59.562,161.940 59.152,162.285 58.828 C 162.630 58.504,163.060 57.872,163.241 57.423 C 163.422 56.974,163.810 56.348,164.103 56.033 C 164.397 55.718,164.929 55.092,165.285 54.643 C 167.849 51.408,173.371 46.547,175.855 45.337 C 176.467 45.038,177.031 44.632,177.107 44.434 C 177.183 44.235,177.588 43.998,178.007 43.906 C 178.426 43.814,179.090 43.468,179.482 43.138 C 179.874 42.808,180.717 42.403,181.354 42.238 C 181.992 42.072,182.804 41.731,183.161 41.479 C 183.517 41.227,184.566 40.874,185.492 40.695 C 186.418 40.515,187.559 40.134,188.026 39.847 C 189.485 38.953,200.937 38.522,206.790 39.143 M322.136 39.129 C 324.016 39.308,325.238 39.557,325.763 39.870 C 326.198 40.130,327.284 40.491,328.175 40.673 C 329.067 40.855,330.046 41.221,330.352 41.487 C 330.658 41.752,331.036 41.970,331.192 41.970 C 331.816 41.974,333.422 42.527,333.745 42.849 C 333.933 43.037,334.607 43.422,335.243 43.704 C 335.879 43.986,336.554 44.404,336.744 44.634 C 336.933 44.863,337.492 45.185,337.987 45.348 C 338.481 45.511,339.151 45.896,339.476 46.203 C 339.802 46.510,340.451 47.053,340.919 47.409 C 342.688 48.754,343.411 49.403,345.737 51.729 C 347.053 53.045,348.385 54.535,348.697 55.040 C 349.010 55.545,349.371 55.959,349.500 55.959 C 349.628 55.959,349.904 56.367,350.113 56.865 C 350.321 57.364,350.611 57.772,350.756 57.772 C 350.902 57.772,351.319 58.402,351.683 59.172 C 352.048 59.942,352.506 60.633,352.701 60.708 C 352.897 60.783,353.135 61.306,353.231 61.871 C 353.326 62.438,353.677 63.154,354.016 63.472 C 354.352 63.788,354.705 64.504,354.799 65.063 C 354.894 65.623,355.237 66.397,355.562 66.784 C 355.933 67.225,356.222 68.017,356.338 68.912 C 356.440 69.696,356.792 70.920,357.120 71.632 C 357.579 72.630,357.789 73.791,358.032 76.684 C 358.220 78.910,358.496 80.674,358.708 81.014 C 359.254 81.885,359.243 170.223,358.698 172.453 C 358.495 173.284,358.186 175.596,358.013 177.591 C 357.771 180.369,357.561 181.490,357.118 182.383 C 356.799 183.025,356.457 184.152,356.357 184.888 C 356.254 185.645,355.911 186.585,355.567 187.051 C 355.233 187.504,354.881 188.358,354.785 188.950 C 354.688 189.542,354.341 190.317,354.011 190.674 C 353.682 191.030,353.289 191.788,353.138 192.358 C 352.987 192.927,352.627 193.540,352.338 193.720 C 352.050 193.899,351.813 194.209,351.813 194.408 C 351.813 194.607,351.405 195.258,350.907 195.855 C 350.408 196.452,350.000 197.087,350.000 197.266 C 350.000 198.186,340.273 207.772,339.339 207.772 C 339.206 207.772,338.840 208.016,338.525 208.314 C 338.211 208.612,337.458 209.091,336.852 209.378 C 336.247 209.666,335.751 209.987,335.751 210.091 C 335.751 210.195,335.256 210.427,334.650 210.605 C 334.045 210.784,333.316 211.141,333.031 211.399 C 332.746 211.657,331.882 212.054,331.110 212.280 C 330.338 212.507,329.522 212.857,329.296 213.059 C 329.071 213.261,327.778 213.626,326.425 213.871 C 325.071 214.116,323.656 214.472,323.279 214.663 C 321.065 215.786,307.520 215.769,305.798 214.641 C 305.469 214.426,304.351 214.130,303.313 213.984 C 301.038 213.665,300.592 213.534,299.746 212.941 C 299.387 212.690,298.472 212.342,297.713 212.170 C 296.954 211.997,296.274 211.701,296.201 211.511 C 296.128 211.322,295.510 210.981,294.827 210.754 C 294.143 210.527,293.384 210.120,293.138 209.849 C 292.893 209.578,292.365 209.284,291.964 209.196 C 291.563 209.108,290.877 208.693,290.439 208.274 C 290.001 207.856,289.510 207.513,289.350 207.513 C 288.423 207.513,280.264 199.468,279.192 197.498 C 279.049 197.235,278.775 196.927,278.583 196.812 C 278.391 196.697,278.061 196.192,277.851 195.688 C 277.640 195.184,277.175 194.424,276.817 193.998 C 276.459 193.573,276.166 193.059,276.166 192.856 C 276.166 192.653,275.918 192.240,275.616 191.937 C 275.313 191.635,274.913 190.807,274.726 190.098 C 274.539 189.388,274.207 188.611,273.989 188.370 C 273.770 188.128,273.401 187.178,273.168 186.258 C 272.935 185.338,272.585 184.406,272.391 184.186 C 272.197 183.966,271.906 182.917,271.745 181.854 C 271.584 180.792,271.339 179.456,271.201 178.886 C 270.190 174.721,270.226 176.603,270.216 127.440 C 270.207 81.354,270.258 78.030,270.981 76.657 C 271.102 76.429,271.274 75.671,271.365 74.973 C 271.769 71.856,272.083 70.207,272.272 70.207 C 272.529 70.207,272.902 69.187,273.312 67.358 C 273.488 66.574,273.784 65.811,273.969 65.662 C 274.155 65.512,274.501 64.725,274.737 63.913 C 274.973 63.100,275.281 62.435,275.422 62.435 C 275.562 62.435,275.920 61.881,276.217 61.205 C 276.515 60.528,277.033 59.645,277.369 59.242 C 277.704 58.839,277.979 58.349,277.979 58.154 C 277.979 57.958,278.137 57.705,278.330 57.591 C 278.523 57.477,278.974 56.917,279.333 56.347 C 279.691 55.777,280.233 55.089,280.536 54.817 C 280.840 54.546,281.088 54.170,281.088 53.982 C 281.088 53.794,281.438 53.459,281.865 53.238 C 282.293 53.017,282.642 52.668,282.642 52.461 C 282.642 52.255,282.992 51.905,283.420 51.684 C 283.847 51.463,284.197 51.113,284.197 50.907 C 284.197 50.700,284.547 50.351,284.974 50.130 C 285.402 49.908,285.751 49.583,285.751 49.406 C 285.751 49.230,286.676 48.467,287.806 47.712 C 288.936 46.957,290.006 46.165,290.182 45.952 C 290.358 45.740,290.891 45.404,291.365 45.206 C 291.840 45.007,292.228 44.738,292.228 44.608 C 292.228 44.478,292.782 44.165,293.459 43.912 C 294.135 43.660,294.922 43.255,295.207 43.012 C 295.492 42.768,296.389 42.367,297.199 42.120 C 298.010 41.874,298.799 41.520,298.952 41.335 C 299.106 41.150,299.958 40.858,300.846 40.686 C 301.735 40.514,302.927 40.145,303.497 39.866 C 305.382 38.944,315.824 38.531,322.136 39.129 M79.016 48.609 C 78.517 48.831,77.294 49.118,76.298 49.248 C 75.301 49.377,73.902 49.762,73.189 50.102 C 72.475 50.443,71.401 50.854,70.802 51.015 C 70.203 51.177,69.556 51.466,69.365 51.657 C 69.174 51.848,68.731 52.090,68.382 52.194 C 68.032 52.299,67.338 52.694,66.839 53.074 C 66.341 53.453,65.612 53.927,65.220 54.127 C 64.828 54.328,64.508 54.586,64.508 54.700 C 64.508 54.815,64.129 55.105,63.666 55.344 C 62.562 55.915,57.452 61.027,56.889 62.125 C 56.647 62.595,56.288 63.042,56.090 63.118 C 55.893 63.194,55.655 63.604,55.561 64.029 C 55.468 64.454,55.233 64.863,55.039 64.937 C 54.846 65.011,54.428 65.616,54.112 66.280 C 53.796 66.944,53.327 67.761,53.071 68.096 C 52.814 68.431,52.530 69.131,52.439 69.651 C 52.348 70.171,52.002 71.072,51.670 71.653 C 51.338 72.235,50.991 73.342,50.901 74.114 C 50.810 74.886,50.483 76.101,50.174 76.813 L 49.611 78.109 49.611 127.073 L 49.611 176.036 50.161 177.332 C 50.464 178.044,50.789 179.326,50.883 180.181 C 50.988 181.133,51.287 182.087,51.653 182.642 C 51.982 183.141,52.337 184.016,52.441 184.585 C 52.546 185.155,52.899 185.913,53.225 186.269 C 53.552 186.626,53.901 187.260,54.000 187.680 C 54.099 188.100,54.522 188.833,54.940 189.308 C 55.358 189.784,55.699 190.331,55.699 190.523 C 55.699 190.716,55.991 191.064,56.347 191.297 C 56.703 191.531,56.995 191.889,56.995 192.094 C 56.995 192.406,58.434 193.912,62.956 198.328 C 63.314 198.678,63.734 198.964,63.889 198.964 C 64.045 198.964,64.538 199.313,64.985 199.741 C 65.432 200.168,65.956 200.518,66.149 200.518 C 66.342 200.518,66.838 200.813,67.252 201.173 C 67.666 201.534,68.501 201.955,69.106 202.111 C 69.712 202.266,70.207 202.478,70.207 202.582 C 70.207 202.854,71.982 203.565,73.129 203.752 C 73.668 203.840,74.500 204.143,74.978 204.426 C 77.335 205.816,92.102 205.675,93.284 204.251 C 93.446 204.056,94.156 203.820,94.862 203.726 C 95.568 203.633,96.550 203.282,97.044 202.947 C 97.537 202.612,98.258 202.265,98.647 202.175 C 99.035 202.085,99.783 201.676,100.309 201.265 C 100.835 200.854,101.372 200.518,101.504 200.518 C 101.635 200.518,102.195 200.172,102.749 199.750 C 103.303 199.327,104.271 198.598,104.899 198.131 C 105.528 197.663,106.416 196.930,106.873 196.503 C 107.330 196.075,107.923 195.526,108.191 195.283 C 108.459 195.040,109.087 194.308,109.585 193.657 C 110.084 193.006,110.813 192.082,111.205 191.604 C 111.597 191.126,111.917 190.634,111.918 190.510 C 111.918 190.386,112.257 189.889,112.670 189.405 C 113.083 188.922,113.491 188.181,113.575 187.760 C 113.659 187.339,114.005 186.665,114.345 186.262 C 114.684 185.859,115.042 185.097,115.142 184.569 C 115.241 184.040,115.563 183.282,115.857 182.884 C 116.152 182.485,116.544 181.365,116.728 180.393 C 116.913 179.422,117.301 177.986,117.591 177.202 C 118.114 175.788,118.118 175.404,118.123 127.202 C 118.129 75.713,118.181 78.114,116.997 75.000 C 116.780 74.430,116.598 73.543,116.592 73.028 C 116.585 72.479,116.319 71.708,115.946 71.158 C 115.597 70.644,115.233 69.782,115.137 69.244 C 115.040 68.705,114.695 67.907,114.370 67.471 C 114.044 67.034,113.598 66.247,113.379 65.722 C 113.159 65.197,112.875 64.767,112.747 64.767 C 112.619 64.767,112.307 64.307,112.053 63.745 C 111.800 63.183,111.316 62.463,110.977 62.145 C 110.639 61.828,110.363 61.463,110.363 61.336 C 110.363 60.665,102.891 53.886,102.151 53.886 C 102.007 53.886,101.579 53.599,101.200 53.247 C 100.821 52.896,100.060 52.487,99.508 52.339 C 98.957 52.190,98.362 51.895,98.186 51.683 C 98.010 51.471,97.277 51.122,96.558 50.909 C 95.839 50.695,95.066 50.361,94.840 50.166 C 94.343 49.735,93.565 49.540,91.106 49.228 C 90.074 49.098,88.884 48.810,88.462 48.590 C 87.363 48.017,80.318 48.031,79.016 48.609 M195.337 48.355 C 195.123 48.426,194.715 48.586,194.430 48.711 C 194.145 48.836,193.038 49.065,191.969 49.220 C 189.510 49.577,188.083 49.955,188.083 50.251 C 188.083 50.378,187.413 50.675,186.593 50.911 C 185.774 51.147,184.870 51.548,184.585 51.802 C 184.301 52.056,183.756 52.337,183.375 52.427 C 182.994 52.517,182.353 52.866,181.950 53.202 C 181.547 53.538,180.839 54.007,180.376 54.245 C 179.913 54.482,179.534 54.793,179.534 54.935 C 179.534 55.078,179.220 55.313,178.838 55.459 C 178.455 55.604,177.901 55.956,177.607 56.239 C 174.801 58.946,173.941 59.851,173.381 60.687 C 173.022 61.221,172.631 61.658,172.511 61.658 C 172.391 61.658,172.101 62.030,171.866 62.484 C 171.631 62.939,171.236 63.493,170.988 63.715 C 170.740 63.937,170.380 64.527,170.187 65.026 C 169.994 65.525,169.644 66.108,169.410 66.321 C 169.175 66.535,168.831 67.118,168.646 67.617 C 168.460 68.115,168.145 68.716,167.946 68.951 C 167.746 69.186,167.412 70.111,167.203 71.006 C 166.994 71.901,166.607 72.991,166.343 73.428 C 166.037 73.933,165.750 75.216,165.555 76.943 C 165.386 78.439,165.082 80.179,164.878 80.810 C 164.401 82.288,164.313 172.468,164.788 173.355 C 164.942 173.643,165.280 175.391,165.540 177.241 C 165.830 179.307,166.164 180.772,166.407 181.040 C 166.624 181.280,166.999 182.264,167.241 183.225 C 167.482 184.187,167.766 184.974,167.872 184.974 C 167.978 184.974,168.267 185.528,168.516 186.205 C 168.764 186.881,169.163 187.610,169.402 187.824 C 169.641 188.038,169.999 188.620,170.198 189.119 C 170.539 189.972,171.105 190.776,172.659 192.617 C 174.250 194.501,174.887 195.233,175.253 195.596 C 175.469 195.810,175.956 196.305,176.337 196.697 C 176.717 197.089,177.162 197.409,177.326 197.409 C 177.489 197.409,177.881 197.759,178.197 198.187 C 178.513 198.614,178.922 198.964,179.106 198.964 C 179.290 198.964,179.821 199.303,180.285 199.718 C 180.750 200.133,181.408 200.542,181.748 200.628 C 182.087 200.713,182.648 201.065,182.993 201.410 C 183.338 201.756,184.042 202.117,184.557 202.214 C 185.071 202.310,185.492 202.496,185.492 202.626 C 185.492 202.927,186.590 203.368,188.063 203.660 C 188.693 203.785,189.393 204.050,189.618 204.248 C 191.320 205.754,206.902 205.738,208.594 204.229 C 208.832 204.016,209.532 203.778,210.148 203.699 C 211.355 203.545,212.694 202.974,212.694 202.615 C 212.694 202.493,213.221 202.260,213.865 202.098 C 214.509 201.936,215.264 201.576,215.542 201.297 C 215.821 201.018,216.339 200.718,216.693 200.629 C 217.047 200.540,217.639 200.187,218.009 199.844 C 218.378 199.502,219.021 199.046,219.436 198.831 C 219.852 198.616,220.316 198.208,220.468 197.925 C 220.619 197.641,220.864 197.409,221.012 197.409 C 221.359 197.409,221.874 196.885,222.092 196.308 C 222.186 196.059,222.392 195.855,222.549 195.855 C 222.912 195.855,223.424 195.341,223.646 194.754 C 223.741 194.505,223.987 194.301,224.194 194.301 C 224.400 194.301,224.821 193.892,225.130 193.394 C 225.438 192.895,225.776 192.487,225.882 192.487 C 225.988 192.487,226.336 191.962,226.656 191.321 C 226.976 190.680,227.334 190.155,227.450 190.155 C 227.566 190.155,227.859 189.738,228.102 189.227 C 228.344 188.717,228.823 187.885,229.167 187.378 C 229.511 186.871,229.793 186.275,229.793 186.053 C 229.793 185.831,230.083 185.230,230.438 184.718 C 230.793 184.206,231.218 183.092,231.383 182.243 C 231.547 181.394,231.822 180.525,231.993 180.311 C 233.194 178.813,233.243 176.909,233.344 128.109 C 233.446 78.951,233.382 76.105,232.124 73.924 C 231.865 73.475,231.519 72.462,231.356 71.673 C 231.192 70.884,230.851 69.969,230.599 69.640 C 230.346 69.311,229.987 68.483,229.800 67.800 C 229.613 67.118,229.244 66.443,228.979 66.302 C 228.714 66.160,228.497 65.891,228.497 65.704 C 228.497 65.198,227.718 63.731,227.449 63.731 C 227.320 63.731,227.021 63.352,226.783 62.889 C 226.545 62.426,226.105 61.804,225.805 61.508 C 225.505 61.212,225.061 60.745,224.819 60.472 C 224.577 60.198,224.227 59.823,224.042 59.637 C 223.856 59.452,223.506 59.102,223.264 58.860 C 223.022 58.618,222.690 58.286,222.526 58.122 C 222.362 57.958,222.007 57.608,221.737 57.345 C 221.467 57.081,220.935 56.545,220.554 56.153 C 220.174 55.761,219.748 55.440,219.609 55.440 C 219.469 55.440,219.110 55.199,218.810 54.903 C 218.107 54.210,215.239 52.333,214.882 52.332 C 214.732 52.332,214.229 52.052,213.766 51.710 C 213.302 51.368,212.516 51.012,212.019 50.919 C 211.521 50.825,210.606 50.479,209.985 50.149 C 209.363 49.818,207.915 49.411,206.756 49.241 C 205.601 49.073,204.253 48.766,203.761 48.560 C 202.890 48.197,196.305 48.036,195.337 48.355 M310.104 48.600 C 309.605 48.817,308.264 49.108,307.124 49.248 C 305.949 49.392,304.491 49.770,303.756 50.121 C 303.044 50.462,301.849 50.934,301.101 51.169 C 300.353 51.404,299.741 51.686,299.741 51.795 C 299.741 51.904,299.278 52.203,298.712 52.458 C 298.147 52.713,297.487 53.139,297.247 53.404 C 297.007 53.669,296.624 53.886,296.397 53.886 C 295.170 53.886,287.425 61.490,286.484 63.618 C 286.299 64.036,285.951 64.524,285.710 64.703 C 285.470 64.881,285.131 65.458,284.957 65.984 C 284.784 66.509,284.438 67.158,284.189 67.426 C 283.940 67.693,283.591 68.428,283.415 69.060 C 283.238 69.691,283.011 70.207,282.909 70.207 C 282.597 70.207,282.168 71.386,281.858 73.100 C 281.694 74.003,281.465 74.858,281.348 75.000 C 280.309 76.263,280.311 76.149,280.312 127.239 C 280.314 177.604,280.300 176.906,281.367 179.162 C 281.641 179.741,281.865 180.511,281.865 180.872 C 281.865 181.677,282.344 183.153,282.776 183.679 C 282.951 183.892,283.241 184.534,283.419 185.104 C 283.597 185.674,283.947 186.373,284.197 186.658 C 284.447 186.943,284.785 187.595,284.949 188.107 C 285.112 188.618,285.535 189.288,285.887 189.595 C 286.240 189.901,286.528 190.287,286.528 190.452 C 286.528 191.516,293.686 198.964,294.708 198.964 C 294.869 198.964,295.367 199.313,295.814 199.741 C 296.261 200.168,296.759 200.518,296.919 200.518 C 297.080 200.518,297.610 200.868,298.097 201.295 C 298.583 201.723,299.265 202.073,299.610 202.073 C 299.956 202.073,300.447 202.285,300.702 202.546 C 301.221 203.075,302.273 203.505,303.621 203.740 C 304.116 203.826,305.023 204.140,305.637 204.437 C 308.533 205.839,324.093 205.604,324.093 204.158 C 324.093 204.033,324.589 203.856,325.194 203.763 C 326.588 203.551,327.680 203.144,328.468 202.543 C 328.807 202.284,329.294 202.073,329.549 202.073 C 329.804 202.073,330.362 201.778,330.790 201.418 C 331.217 201.058,331.928 200.638,332.370 200.484 C 332.811 200.330,333.287 199.988,333.429 199.724 C 333.570 199.460,334.092 199.051,334.589 198.815 C 335.086 198.579,335.492 198.225,335.492 198.027 C 335.492 197.830,335.683 197.668,335.916 197.668 C 336.149 197.668,337.214 196.765,338.281 195.661 C 341.117 192.726,341.451 192.344,341.451 192.031 C 341.451 191.875,341.727 191.531,342.064 191.265 C 342.401 191.000,342.755 190.536,342.851 190.233 C 342.947 189.930,343.371 189.248,343.793 188.718 C 344.214 188.187,344.560 187.586,344.560 187.382 C 344.560 187.179,344.844 186.639,345.193 186.182 C 345.541 185.726,345.936 184.862,346.071 184.262 C 346.205 183.662,346.549 182.776,346.834 182.293 C 347.119 181.809,347.429 180.903,347.522 180.279 C 347.817 178.314,348.218 176.595,348.663 175.389 C 349.058 174.318,349.093 170.355,349.093 126.813 L 349.093 79.404 348.406 77.461 C 348.028 76.392,347.646 74.916,347.558 74.180 C 347.470 73.444,347.122 72.336,346.785 71.719 C 346.448 71.101,346.099 70.175,346.008 69.660 C 345.918 69.145,345.613 68.515,345.331 68.259 C 345.048 68.003,344.692 67.332,344.540 66.767 C 344.388 66.203,343.981 65.435,343.634 65.062 C 343.288 64.689,343.005 64.235,343.005 64.055 C 343.005 63.874,342.763 63.523,342.467 63.275 C 342.170 63.027,341.748 62.474,341.527 62.047 C 341.072 61.165,340.643 60.684,337.583 57.624 C 336.382 56.423,335.267 55.440,335.104 55.440 C 334.941 55.440,334.417 55.091,333.938 54.663 C 333.459 54.236,332.934 53.886,332.772 53.886 C 332.610 53.886,332.096 53.547,331.632 53.132 C 331.167 52.717,330.491 52.303,330.129 52.212 C 329.767 52.121,329.326 51.902,329.148 51.724 C 328.970 51.546,328.314 51.248,327.690 51.060 C 327.065 50.873,325.972 50.446,325.259 50.111 C 324.547 49.777,323.323 49.428,322.539 49.336 C 321.755 49.245,320.373 48.949,319.468 48.678 C 317.328 48.039,311.508 47.991,310.104 48.600 " stroke="none" fill="#ffffff" fill-rule="evenodd"></path></g></svg>