<svg id="svg" version="1.1" xmlns="http://www.w3.org/2000/svg" xmlns:xlink="http://www.w3.org/1999/xlink" width="400" height="258.91472868217056" viewBox="0, 0, 400,258.91472868217056"><g id="svgg"><path id="path0" d="M193.523 41.028 C 192.455 41.194,191.450 41.412,191.291 41.513 C 191.132 41.615,189.880 41.878,188.510 42.099 C 187.140 42.319,185.638 42.716,185.172 42.980 C 184.707 43.244,183.744 43.599,183.031 43.769 C 182.319 43.939,181.503 44.289,181.218 44.546 C 180.933 44.803,180.233 45.159,179.663 45.337 C 179.093 45.514,178.394 45.860,178.109 46.104 C 177.824 46.348,177.197 46.704,176.715 46.895 C 176.234 47.085,175.574 47.483,175.249 47.778 C 174.925 48.074,174.177 48.666,173.589 49.093 C 170.866 51.070,169.063 52.702,166.969 55.084 C 166.399 55.732,165.743 56.456,165.512 56.693 C 165.281 56.930,164.902 57.498,164.669 57.956 C 164.437 58.413,163.955 59.078,163.600 59.434 C 163.244 59.789,162.953 60.246,162.953 60.449 C 162.953 60.651,162.766 60.973,162.537 61.163 C 162.309 61.352,161.855 62.110,161.530 62.845 C 161.205 63.581,160.817 64.258,160.668 64.350 C 160.519 64.442,160.213 65.149,159.988 65.922 C 159.764 66.694,159.405 67.501,159.190 67.716 C 158.976 67.930,158.684 68.720,158.541 69.471 C 158.399 70.222,158.035 71.347,157.733 71.972 C 157.429 72.600,157.093 73.992,156.979 75.089 C 156.686 77.941,156.235 80.572,155.948 81.109 C 155.509 81.928,155.620 174.245,156.060 174.944 C 156.259 175.260,156.606 176.975,156.830 178.756 C 157.084 180.765,157.437 182.388,157.759 183.031 C 158.046 183.601,158.399 184.700,158.546 185.474 C 158.693 186.248,158.995 187.082,159.217 187.328 C 159.439 187.574,159.775 188.286,159.964 188.912 C 160.152 189.537,160.613 190.501,160.988 191.055 C 161.364 191.608,161.739 192.331,161.822 192.662 C 161.905 192.993,162.083 193.264,162.217 193.264 C 162.352 193.264,162.633 193.675,162.843 194.177 C 163.053 194.679,163.439 195.304,163.701 195.566 C 163.963 195.828,164.397 196.420,164.666 196.882 C 164.935 197.343,165.768 198.379,166.516 199.184 C 167.265 199.989,168.314 201.136,168.848 201.733 C 169.382 202.331,169.943 202.826,170.095 202.834 C 170.247 202.843,170.731 203.229,171.171 203.692 C 172.192 204.767,173.480 205.746,174.382 206.132 C 174.771 206.298,175.214 206.668,175.366 206.953 C 175.519 207.238,175.982 207.545,176.396 207.636 C 176.810 207.727,177.349 208.023,177.594 208.294 C 177.840 208.565,178.608 208.975,179.302 209.206 C 179.996 209.437,180.631 209.735,180.714 209.868 C 180.932 210.221,182.608 210.881,183.287 210.881 C 183.606 210.881,184.146 211.097,184.486 211.361 C 185.110 211.847,186.683 212.274,188.913 212.564 C 189.584 212.651,190.517 212.920,190.986 213.162 C 192.244 213.809,204.908 213.821,206.088 213.176 C 206.516 212.943,207.740 212.619,208.808 212.457 C 210.996 212.125,212.435 211.714,212.435 211.421 C 212.435 211.313,213.154 211.025,214.033 210.781 C 214.911 210.536,215.950 210.109,216.340 209.831 C 216.730 209.554,217.219 209.326,217.427 209.326 C 217.634 209.326,218.248 208.974,218.790 208.543 C 219.332 208.113,220.075 207.685,220.442 207.593 C 220.808 207.501,221.322 207.154,221.583 206.822 C 221.845 206.489,222.198 206.218,222.368 206.218 C 222.696 206.218,224.816 204.590,225.910 203.499 C 226.267 203.142,226.679 202.850,226.825 202.850 C 226.971 202.850,227.297 202.500,227.549 202.073 C 227.802 201.645,228.152 201.295,228.327 201.295 C 228.502 201.295,228.851 200.946,229.104 200.518 C 229.356 200.091,229.666 199.741,229.791 199.741 C 229.916 199.741,230.281 199.275,230.601 198.705 C 230.921 198.135,231.274 197.668,231.384 197.668 C 231.494 197.668,231.892 197.144,232.268 196.503 C 232.643 195.861,233.062 195.337,233.198 195.337 C 233.335 195.337,233.622 194.917,233.836 194.404 C 234.050 193.890,234.453 193.226,234.731 192.928 C 235.009 192.630,235.336 192.029,235.456 191.594 C 235.577 191.159,235.984 190.350,236.361 189.795 C 236.738 189.241,237.047 188.542,237.048 188.241 C 237.048 187.940,237.297 187.287,237.600 186.790 C 237.903 186.293,238.372 184.960,238.642 183.828 C 238.913 182.697,239.261 181.618,239.416 181.431 C 240.330 180.329,240.398 176.604,240.395 127.332 C 240.392 77.107,240.338 74.394,239.308 72.778 C 239.088 72.433,238.710 71.247,238.469 70.142 C 238.228 69.038,237.929 68.135,237.805 68.135 C 237.681 68.135,237.398 67.512,237.177 66.752 C 236.956 65.991,236.487 64.978,236.134 64.499 C 235.781 64.021,235.492 63.436,235.492 63.200 C 235.492 62.963,235.212 62.467,234.869 62.097 C 234.526 61.727,234.115 61.029,233.956 60.546 C 233.796 60.063,233.377 59.417,233.025 59.110 C 232.672 58.803,232.383 58.385,232.383 58.181 C 232.383 57.977,232.121 57.597,231.801 57.336 C 231.480 57.076,230.756 56.281,230.191 55.569 C 227.951 52.746,222.499 48.066,220.249 47.036 C 219.773 46.818,219.035 46.346,218.610 45.988 C 218.184 45.630,217.628 45.337,217.374 45.337 C 217.120 45.337,216.504 45.060,216.005 44.722 C 215.507 44.383,214.372 43.922,213.483 43.696 C 212.594 43.471,211.692 43.141,211.478 42.963 C 211.053 42.610,206.860 41.628,203.368 41.064 C 200.711 40.634,196.179 40.618,193.523 41.028 M206.289 48.513 C 206.671 48.763,207.787 49.138,208.769 49.344 C 209.751 49.551,211.111 50.016,211.792 50.378 C 212.473 50.740,213.188 51.036,213.381 51.036 C 213.573 51.036,213.950 51.256,214.219 51.524 C 214.487 51.793,215.123 52.150,215.632 52.318 C 216.141 52.486,216.825 52.905,217.152 53.250 C 217.479 53.595,217.885 53.879,218.056 53.882 C 218.226 53.884,219.223 54.615,220.271 55.505 C 221.320 56.396,222.454 57.308,222.792 57.532 C 223.544 58.030,223.368 58.703,222.389 59.075 C 221.947 59.243,213.367 59.310,198.039 59.266 C 170.757 59.186,172.285 59.332,174.772 57.048 C 176.552 55.412,178.510 53.886,178.827 53.886 C 178.969 53.886,179.347 53.604,179.666 53.259 C 179.986 52.915,180.657 52.520,181.157 52.381 C 181.657 52.243,182.307 51.890,182.600 51.597 C 182.893 51.304,183.635 50.930,184.248 50.767 C 184.861 50.604,185.542 50.310,185.762 50.114 C 185.982 49.919,186.971 49.571,187.962 49.341 C 188.952 49.111,189.889 48.818,190.044 48.690 C 191.111 47.804,204.978 47.653,206.289 48.513 M228.857 65.516 C 229.220 65.858,229.705 66.703,229.935 67.395 C 230.164 68.087,230.451 68.653,230.572 68.653 C 230.693 68.653,230.977 69.323,231.203 70.142 C 231.428 70.962,231.845 72.098,232.129 72.668 C 232.912 74.239,233.249 76.899,232.760 77.645 L 232.371 78.238 198.480 78.238 C 158.887 78.238,163.379 78.683,164.071 74.830 C 164.305 73.528,164.664 72.276,164.868 72.048 C 165.073 71.819,165.421 70.934,165.643 70.080 C 165.864 69.227,166.200 68.411,166.388 68.267 C 166.577 68.123,166.933 67.470,167.180 66.815 C 167.589 65.729,168.025 65.318,169.171 64.934 C 169.385 64.862,182.753 64.824,198.878 64.850 L 228.197 64.896 228.857 65.516 M233.564 84.304 C 234.742 85.482,234.405 96.763,233.170 97.492 C 232.043 98.158,163.903 98.164,163.168 97.499 C 162.478 96.874,162.440 84.908,163.126 84.150 C 163.813 83.390,232.801 83.541,233.564 84.304 M233.702 104.109 C 234.153 104.667,234.197 105.188,234.197 110.020 C 234.197 115.737,234.120 116.117,232.868 116.553 C 231.483 117.036,164.757 116.950,163.593 116.464 L 162.694 116.089 162.694 110.135 C 162.694 105.052,162.754 104.122,163.104 103.772 C 163.475 103.402,166.870 103.369,198.360 103.430 L 233.206 103.497 233.702 104.109 M233.652 122.903 C 234.556 123.721,234.489 133.829,233.572 134.895 L 232.946 135.622 198.390 135.689 C 163.867 135.757,163.834 135.756,163.264 135.226 C 162.505 134.518,162.363 123.425,163.104 122.684 C 163.802 121.986,232.875 122.200,233.652 122.903 M232.420 141.198 C 234.026 141.644,234.058 141.763,234.155 147.547 C 234.254 153.492,234.104 154.144,232.491 154.819 C 230.968 155.455,163.931 155.233,163.286 154.590 C 162.873 154.177,162.817 153.486,162.756 148.113 C 162.681 141.553,162.699 141.467,164.157 141.185 C 165.743 140.879,231.316 140.891,232.420 141.198 M232.504 160.213 C 234.103 160.881,234.254 161.545,234.155 167.479 C 234.058 173.263,234.026 173.382,232.420 173.828 C 231.255 174.152,165.953 174.175,164.282 173.852 C 162.697 173.546,162.702 173.569,162.702 167.228 C 162.702 160.794,162.802 160.332,164.256 160.073 C 166.373 159.696,231.587 159.830,232.504 160.213 M232.275 179.907 C 232.782 180.600,232.735 181.419,232.146 182.168 C 231.873 182.515,231.477 183.460,231.266 184.267 C 231.055 185.074,230.705 185.912,230.488 186.129 C 230.271 186.346,229.953 186.962,229.782 187.498 C 229.610 188.033,229.265 188.705,229.014 188.990 C 228.763 189.275,228.376 189.858,228.154 190.285 C 227.931 190.712,227.387 191.441,226.944 191.904 L 226.140 192.746 198.441 192.746 L 170.743 192.746 169.828 191.942 C 169.324 191.500,168.912 190.979,168.912 190.785 C 168.912 190.591,168.584 190.050,168.184 189.582 C 167.783 189.114,167.310 188.229,167.133 187.616 C 166.955 187.003,166.647 186.439,166.448 186.362 C 166.249 186.286,165.895 185.563,165.662 184.757 C 165.429 183.950,165.060 183.091,164.843 182.847 C 164.228 182.160,164.098 180.239,164.630 179.707 C 165.362 178.975,231.737 179.171,232.275 179.907 M219.246 198.806 L 219.969 199.296 219.396 199.907 C 219.080 200.243,218.675 200.518,218.497 200.518 C 218.318 200.518,217.970 200.722,217.724 200.972 C 217.073 201.630,215.178 202.722,212.694 203.872 C 212.338 204.037,211.639 204.387,211.140 204.650 C 210.641 204.912,209.737 205.196,209.130 205.279 C 208.524 205.363,207.766 205.599,207.446 205.804 C 205.633 206.969,192.438 207.149,190.155 206.040 C 189.514 205.729,188.523 205.400,187.953 205.310 C 186.766 205.123,184.974 204.417,184.974 204.136 C 184.974 204.033,184.479 203.822,183.873 203.669 C 183.267 203.517,182.370 203.095,181.880 202.732 C 181.389 202.369,180.830 202.073,180.637 202.073 C 180.445 202.073,180.015 201.810,179.682 201.490 C 179.350 201.169,178.626 200.656,178.075 200.351 C 176.787 199.636,176.751 198.945,177.979 198.523 C 179.711 197.927,218.342 198.193,219.246 198.806 " stroke="none" fill="#693397" fill-rule="evenodd"></path><path id="path1" d="M0.000 129.534 L 0.000 259.067 200.000 259.067 L 400.000 259.067 400.000 129.534 L 400.000 0.000 200.000 0.000 L 0.000 0.000 0.000 129.534 M203.368 41.064 C 206.860 41.628,211.053 42.610,211.478 42.963 C 211.692 43.141,212.594 43.471,213.483 43.696 C 214.372 43.922,215.507 44.383,216.005 44.722 C 216.504 45.060,217.120 45.337,217.374 45.337 C 217.628 45.337,218.184 45.630,218.610 45.988 C 219.035 46.346,219.773 46.818,220.249 47.036 C 222.499 48.066,227.951 52.746,230.191 55.569 C 230.756 56.281,231.480 57.076,231.801 57.336 C 232.121 57.597,232.383 57.977,232.383 58.181 C 232.383 58.385,232.672 58.803,233.025 59.110 C 233.377 59.417,233.796 60.063,233.956 60.546 C 234.115 61.029,234.526 61.727,234.869 62.097 C 235.212 62.467,235.492 62.963,235.492 63.200 C 235.492 63.436,235.781 64.021,236.134 64.499 C 236.487 64.978,236.956 65.991,237.177 66.752 C 237.398 67.512,237.681 68.135,237.805 68.135 C 237.929 68.135,238.228 69.038,238.469 70.142 C 238.710 71.247,239.088 72.433,239.308 72.778 C 240.911 75.293,241.015 179.505,239.416 181.431 C 239.261 181.618,238.913 182.697,238.642 183.828 C 238.372 184.960,237.903 186.293,237.600 186.790 C 237.297 187.287,237.048 187.940,237.048 188.241 C 237.047 188.542,236.738 189.241,236.361 189.795 C 235.984 190.350,235.577 191.159,235.456 191.594 C 235.336 192.029,235.009 192.630,234.731 192.928 C 234.453 193.226,234.050 193.890,233.836 194.404 C 233.622 194.917,233.335 195.337,233.198 195.337 C 233.062 195.337,232.643 195.861,232.268 196.503 C 231.892 197.144,231.494 197.668,231.384 197.668 C 231.274 197.668,230.921 198.135,230.601 198.705 C 230.281 199.275,229.916 199.741,229.791 199.741 C 229.666 199.741,229.356 200.091,229.104 200.518 C 228.851 200.946,228.502 201.295,228.327 201.295 C 228.152 201.295,227.802 201.645,227.549 202.073 C 227.297 202.500,226.971 202.850,226.825 202.850 C 226.679 202.850,226.267 203.142,225.910 203.499 C 224.816 204.590,222.696 206.218,222.368 206.218 C 222.198 206.218,221.845 206.489,221.583 206.822 C 221.322 207.154,220.808 207.501,220.442 207.593 C 220.075 207.685,219.332 208.113,218.790 208.543 C 218.248 208.974,217.634 209.326,217.427 209.326 C 217.219 209.326,216.730 209.554,216.340 209.831 C 215.950 210.109,214.911 210.536,214.033 210.781 C 213.154 211.025,212.435 211.313,212.435 211.421 C 212.435 211.714,210.996 212.125,208.808 212.457 C 207.740 212.619,206.516 212.943,206.088 213.176 C 204.908 213.821,192.244 213.809,190.986 213.162 C 190.517 212.920,189.584 212.651,188.913 212.564 C 186.683 212.274,185.110 211.847,184.486 211.361 C 184.146 211.097,183.606 210.881,183.287 210.881 C 182.608 210.881,180.932 210.221,180.714 209.868 C 180.631 209.735,179.996 209.437,179.302 209.206 C 178.608 208.975,177.840 208.565,177.594 208.294 C 177.349 208.023,176.810 207.727,176.396 207.636 C 175.982 207.545,175.519 207.238,175.366 206.953 C 175.214 206.668,174.771 206.298,174.382 206.132 C 173.480 205.746,172.192 204.767,171.171 203.692 C 170.731 203.229,170.247 202.843,170.095 202.834 C 169.943 202.826,169.382 202.331,168.848 201.733 C 168.314 201.136,167.265 199.989,166.516 199.184 C 165.768 198.379,164.935 197.343,164.666 196.882 C 164.397 196.420,163.963 195.828,163.701 195.566 C 163.439 195.304,163.053 194.679,162.843 194.177 C 162.633 193.675,162.352 193.264,162.217 193.264 C 162.083 193.264,161.905 192.993,161.822 192.662 C 161.739 192.331,161.364 191.608,160.988 191.055 C 160.613 190.501,160.152 189.537,159.964 188.912 C 159.775 188.286,159.439 187.574,159.217 187.328 C 158.995 187.082,158.693 186.248,158.546 185.474 C 158.399 184.700,158.046 183.601,157.759 183.031 C 157.437 182.388,157.084 180.765,156.830 178.756 C 156.606 176.975,156.259 175.260,156.060 174.944 C 155.620 174.245,155.509 81.928,155.948 81.109 C 156.235 80.572,156.686 77.941,156.979 75.089 C 157.093 73.992,157.429 72.600,157.733 71.972 C 158.035 71.347,158.399 70.222,158.541 69.471 C 158.684 68.720,158.976 67.930,159.190 67.716 C 159.405 67.501,159.764 66.694,159.988 65.922 C 160.213 65.149,160.519 64.442,160.668 64.350 C 160.817 64.258,161.205 63.581,161.530 62.845 C 161.855 62.110,162.309 61.352,162.537 61.163 C 162.766 60.973,162.953 60.651,162.953 60.449 C 162.953 60.246,163.244 59.789,163.600 59.434 C 163.955 59.078,164.437 58.413,164.669 57.956 C 164.902 57.498,165.281 56.930,165.512 56.693 C 165.743 56.456,166.399 55.732,166.969 55.084 C 169.063 52.702,170.866 51.070,173.589 49.093 C 174.177 48.666,174.925 48.074,175.249 47.778 C 175.574 47.483,176.234 47.085,176.715 46.895 C 177.197 46.704,177.824 46.348,178.109 46.104 C 178.394 45.860,179.093 45.514,179.663 45.337 C 180.233 45.159,180.933 44.803,181.218 44.546 C 181.503 44.289,182.319 43.939,183.031 43.769 C 183.744 43.599,184.707 43.244,185.172 42.980 C 185.638 42.716,187.140 42.319,188.510 42.099 C 189.880 41.878,191.132 41.615,191.291 41.513 C 192.477 40.757,199.789 40.485,203.368 41.064 M191.342 48.208 C 190.783 48.344,190.199 48.561,190.044 48.690 C 189.889 48.818,188.952 49.111,187.962 49.341 C 186.971 49.571,185.982 49.919,185.762 50.114 C 185.542 50.310,184.861 50.604,184.248 50.767 C 183.635 50.930,182.893 51.304,182.600 51.597 C 182.307 51.890,181.657 52.243,181.157 52.381 C 180.657 52.520,179.986 52.915,179.666 53.259 C 179.347 53.604,178.969 53.886,178.827 53.886 C 178.510 53.886,176.552 55.412,174.772 57.048 C 172.285 59.332,170.757 59.186,198.039 59.266 C 213.367 59.310,221.947 59.243,222.389 59.075 C 223.368 58.703,223.544 58.030,222.792 57.532 C 222.454 57.308,221.320 56.396,220.271 55.505 C 219.223 54.615,218.226 53.884,218.056 53.882 C 217.885 53.879,217.479 53.595,217.152 53.250 C 216.825 52.905,216.141 52.486,215.632 52.318 C 215.123 52.150,214.487 51.793,214.219 51.524 C 213.950 51.256,213.573 51.036,213.381 51.036 C 213.188 51.036,212.473 50.740,211.792 50.378 C 211.111 50.016,209.751 49.551,208.769 49.344 C 207.787 49.138,206.671 48.763,206.289 48.513 C 205.487 47.987,193.271 47.738,191.342 48.208 M169.171 64.934 C 168.025 65.318,167.589 65.729,167.180 66.815 C 166.933 67.470,166.577 68.123,166.388 68.267 C 166.200 68.411,165.864 69.227,165.643 70.080 C 165.421 70.934,165.073 71.819,164.868 72.048 C 164.664 72.276,164.305 73.528,164.071 74.830 C 163.379 78.683,158.887 78.238,198.480 78.238 L 232.371 78.238 232.760 77.645 C 233.249 76.899,232.912 74.239,232.129 72.668 C 231.845 72.098,231.428 70.962,231.203 70.142 C 230.977 69.323,230.693 68.653,230.572 68.653 C 230.451 68.653,230.164 68.087,229.935 67.395 C 229.705 66.703,229.220 65.858,228.857 65.516 L 228.197 64.896 198.878 64.850 C 182.753 64.824,169.385 64.862,169.171 64.934 M163.126 84.150 C 162.440 84.908,162.478 96.874,163.168 97.499 C 163.903 98.164,232.043 98.158,233.170 97.492 C 234.405 96.763,234.742 85.482,233.564 84.304 C 232.801 83.541,163.813 83.390,163.126 84.150 M163.104 103.772 C 162.754 104.122,162.694 105.052,162.694 110.135 L 162.694 116.089 163.593 116.464 C 164.757 116.950,231.483 117.036,232.868 116.553 C 234.120 116.117,234.197 115.737,234.197 110.020 C 234.197 105.188,234.153 104.667,233.702 104.109 L 233.206 103.497 198.360 103.430 C 166.870 103.369,163.475 103.402,163.104 103.772 M163.104 122.684 C 162.363 123.425,162.505 134.518,163.264 135.226 C 163.834 135.756,163.867 135.757,198.390 135.689 L 232.946 135.622 233.572 134.895 C 234.489 133.829,234.556 123.721,233.652 122.903 C 232.875 122.200,163.802 121.986,163.104 122.684 M164.157 141.185 C 162.699 141.467,162.681 141.553,162.756 148.113 C 162.817 153.486,162.873 154.177,163.286 154.590 C 163.931 155.233,230.968 155.455,232.491 154.819 C 234.104 154.144,234.254 153.492,234.155 147.547 C 234.058 141.763,234.026 141.644,232.420 141.198 C 231.316 140.891,165.743 140.879,164.157 141.185 M164.256 160.073 C 162.802 160.332,162.702 160.794,162.702 167.228 C 162.702 173.569,162.697 173.546,164.282 173.852 C 165.953 174.175,231.255 174.152,232.420 173.828 C 234.026 173.382,234.058 173.263,234.155 167.479 C 234.254 161.545,234.103 160.881,232.504 160.213 C 231.587 159.830,166.373 159.696,164.256 160.073 M164.630 179.707 C 164.098 180.239,164.228 182.160,164.843 182.847 C 165.060 183.091,165.429 183.950,165.662 184.757 C 165.895 185.563,166.249 186.286,166.448 186.362 C 166.647 186.439,166.955 187.003,167.133 187.616 C 167.310 188.229,167.783 189.114,168.184 189.582 C 168.584 190.050,168.912 190.591,168.912 190.785 C 168.912 190.979,169.324 191.500,169.828 191.942 L 170.743 192.746 198.441 192.746 L 226.140 192.746 226.944 191.904 C 227.387 191.441,227.931 190.712,228.154 190.285 C 228.376 189.858,228.763 189.275,229.014 188.990 C 229.265 188.705,229.610 188.033,229.782 187.498 C 229.953 186.962,230.271 186.346,230.488 186.129 C 230.705 185.912,231.055 185.074,231.266 184.267 C 231.477 183.460,231.873 182.515,232.146 182.168 C 232.735 181.419,232.782 180.600,232.275 179.907 C 231.737 179.171,165.362 178.975,164.630 179.707 M177.979 198.523 C 176.751 198.945,176.787 199.636,178.075 200.351 C 178.626 200.656,179.350 201.169,179.682 201.490 C 180.015 201.810,180.445 202.073,180.637 202.073 C 180.830 202.073,181.389 202.369,181.880 202.732 C 182.370 203.095,183.267 203.517,183.873 203.669 C 184.479 203.822,184.974 204.033,184.974 204.136 C 184.974 204.417,186.766 205.123,187.953 205.310 C 188.523 205.400,189.514 205.729,190.155 206.040 C 192.438 207.149,205.633 206.969,207.446 205.804 C 207.766 205.599,208.524 205.363,209.130 205.279 C 209.737 205.196,210.641 204.912,211.140 204.650 C 211.639 204.387,212.338 204.037,212.694 203.872 C 215.178 202.722,217.073 201.630,217.724 200.972 C 217.970 200.722,218.318 200.518,218.497 200.518 C 218.675 200.518,219.080 200.243,219.396 199.907 L 219.969 199.296 219.246 198.806 C 218.342 198.193,179.711 197.927,177.979 198.523 " stroke="none" fill="#ffffff" fill-rule="evenodd"></path></g></svg>