<svg id="svg" version="1.1" xmlns="http://www.w3.org/2000/svg" xmlns:xlink="http://www.w3.org/1999/xlink" width="400" height="258.91472868217056" viewBox="0, 0, 400,258.91472868217056"><g id="svgg"><path id="path0" d="M136.963 40.966 C 135.991 41.091,134.997 41.300,134.754 41.430 C 134.511 41.560,133.150 41.861,131.729 42.099 C 130.308 42.337,128.787 42.739,128.349 42.992 C 127.911 43.245,126.920 43.608,126.147 43.797 C 125.373 43.987,124.550 44.334,124.316 44.569 C 124.083 44.803,123.349 45.146,122.687 45.332 C 122.024 45.517,121.371 45.876,121.235 46.130 C 121.099 46.383,120.574 46.728,120.067 46.895 C 119.560 47.062,118.842 47.479,118.473 47.822 C 118.103 48.165,117.584 48.446,117.320 48.446 C 117.056 48.446,116.839 48.547,116.839 48.671 C 116.839 48.794,116.060 49.523,115.107 50.290 C 113.174 51.846,110.363 54.574,110.363 54.894 C 110.363 55.086,109.410 56.193,107.882 57.775 C 107.537 58.133,107.254 58.549,107.254 58.701 C 107.254 58.853,106.968 59.245,106.620 59.573 C 106.271 59.901,105.909 60.515,105.817 60.938 C 105.724 61.361,105.374 61.945,105.039 62.236 C 104.704 62.527,104.360 63.085,104.274 63.475 C 104.188 63.865,103.842 64.559,103.504 65.017 C 103.167 65.474,102.746 66.450,102.570 67.186 C 102.394 67.921,102.033 68.817,101.768 69.176 C 101.503 69.536,101.171 70.541,101.031 71.412 C 100.891 72.282,100.556 73.503,100.286 74.126 C 99.304 76.396,99.222 80.554,99.231 127.729 C 99.241 174.821,99.327 179.060,100.324 180.970 C 100.550 181.403,100.869 182.511,101.034 183.431 C 101.199 184.351,101.616 185.591,101.962 186.186 C 102.308 186.781,102.591 187.492,102.591 187.766 C 102.591 188.040,102.938 188.777,103.363 189.404 C 103.788 190.031,104.138 190.732,104.140 190.961 C 104.143 191.191,104.435 191.806,104.790 192.329 C 105.144 192.851,105.617 193.631,105.840 194.062 C 106.063 194.493,106.443 195.068,106.685 195.340 C 106.927 195.611,107.532 196.381,108.031 197.050 C 109.240 198.672,114.906 204.334,116.298 205.311 C 116.907 205.738,117.692 206.352,118.043 206.673 C 118.394 206.995,119.111 207.438,119.635 207.657 C 120.160 207.876,120.824 208.270,121.110 208.532 C 121.397 208.794,121.924 209.091,122.280 209.193 C 122.636 209.295,123.335 209.648,123.834 209.977 C 124.333 210.307,125.409 210.711,126.226 210.876 C 127.043 211.040,127.783 211.291,127.870 211.432 C 128.130 211.852,129.255 212.186,131.267 212.442 C 132.308 212.573,133.475 212.888,133.861 213.141 C 135.018 213.900,145.943 213.988,148.374 213.258 C 149.340 212.969,151.148 212.559,152.394 212.347 C 153.639 212.136,155.038 211.736,155.502 211.459 C 155.967 211.182,156.930 210.805,157.642 210.620 C 158.355 210.436,159.171 210.082,159.456 209.834 C 159.741 209.586,160.364 209.300,160.840 209.199 C 161.317 209.098,161.945 208.741,162.236 208.407 C 162.527 208.072,163.099 207.724,163.506 207.635 C 163.913 207.546,164.334 207.321,164.441 207.135 C 164.549 206.950,165.045 206.555,165.544 206.258 C 167.220 205.259,173.834 199.045,173.834 198.469 C 173.834 198.314,173.996 198.187,174.195 198.187 C 174.393 198.187,174.625 197.924,174.710 197.604 C 174.795 197.283,175.216 196.626,175.645 196.144 C 176.074 195.661,176.425 195.170,176.425 195.052 C 176.425 194.933,176.757 194.454,177.163 193.986 C 177.569 193.518,177.980 192.811,178.076 192.416 C 178.173 192.020,178.476 191.473,178.749 191.199 C 179.023 190.925,179.370 190.244,179.521 189.685 C 179.671 189.126,180.013 188.391,180.280 188.051 C 180.548 187.711,180.960 186.677,181.197 185.754 C 181.433 184.830,181.797 183.814,182.005 183.497 C 182.214 183.179,182.555 181.618,182.764 180.028 C 183.002 178.219,183.317 176.882,183.606 176.457 C 184.044 175.811,184.067 173.412,184.067 128.109 L 184.067 80.440 183.492 78.368 C 183.176 77.228,182.800 75.259,182.658 73.992 C 182.515 72.726,182.238 71.502,182.042 71.272 C 181.591 70.744,181.372 70.135,181.076 68.584 C 180.947 67.904,180.602 67.093,180.311 66.780 C 180.020 66.467,179.711 65.771,179.625 65.233 C 179.539 64.694,179.196 63.960,178.862 63.600 C 178.529 63.240,178.134 62.493,177.985 61.940 C 177.836 61.387,177.546 60.870,177.340 60.791 C 177.135 60.712,176.740 60.204,176.464 59.663 C 176.188 59.122,175.716 58.457,175.416 58.185 C 175.116 57.914,174.870 57.536,174.870 57.345 C 174.870 57.155,174.523 56.689,174.099 56.311 C 173.674 55.933,173.258 55.407,173.174 55.143 C 173.091 54.879,172.851 54.663,172.643 54.663 C 172.434 54.663,172.187 54.459,172.093 54.210 C 171.894 53.682,169.831 51.554,169.518 51.554 C 169.401 51.554,169.013 51.266,168.656 50.915 C 167.354 49.634,166.101 48.694,165.185 48.312 C 164.670 48.097,164.249 47.808,164.249 47.670 C 164.249 47.533,163.753 47.171,163.148 46.866 C 162.542 46.562,161.866 46.154,161.645 45.961 C 161.424 45.768,160.731 45.428,160.104 45.207 C 159.477 44.986,158.783 44.643,158.562 44.446 C 158.341 44.248,157.494 43.914,156.679 43.702 C 155.864 43.491,155.026 43.146,154.816 42.936 C 154.491 42.611,151.357 41.969,150.093 41.969 C 149.871 41.969,149.322 41.810,148.873 41.616 C 146.871 40.749,141.102 40.434,136.963 40.966 M251.777 40.943 C 250.830 41.053,249.836 41.261,249.568 41.405 C 249.299 41.548,247.917 41.860,246.496 42.096 C 245.075 42.333,243.504 42.733,243.005 42.986 C 242.506 43.238,241.457 43.604,240.674 43.799 C 239.890 43.994,239.161 44.294,239.053 44.465 C 238.946 44.636,238.305 44.980,237.628 45.229 C 236.952 45.478,236.166 45.883,235.881 46.128 C 235.596 46.373,234.867 46.822,234.262 47.126 C 233.656 47.430,233.161 47.791,233.161 47.928 C 233.161 48.065,232.864 48.251,232.502 48.342 C 232.140 48.433,231.519 48.814,231.123 49.189 C 230.727 49.564,229.961 50.220,229.422 50.648 C 228.180 51.631,225.535 54.256,224.352 55.679 C 223.854 56.279,223.125 57.129,222.733 57.568 C 222.341 58.008,222.021 58.516,222.021 58.698 C 222.021 58.881,221.736 59.254,221.388 59.528 C 221.040 59.801,220.677 60.334,220.583 60.712 C 220.488 61.090,220.131 61.661,219.790 61.982 C 219.449 62.302,219.054 62.984,218.913 63.495 C 218.771 64.007,218.424 64.693,218.141 65.018 C 217.859 65.344,217.550 66.033,217.456 66.549 C 217.361 67.065,216.950 68.116,216.543 68.884 C 216.136 69.652,215.803 70.668,215.803 71.143 C 215.803 71.618,215.510 72.668,215.153 73.476 C 214.055 75.958,213.994 78.868,214.002 127.850 C 214.009 176.075,214.075 179.548,215.016 181.143 C 215.326 181.668,215.691 182.886,215.828 183.850 C 215.983 184.946,216.261 185.800,216.571 186.131 C 216.844 186.421,217.197 187.239,217.356 187.948 C 217.515 188.657,217.930 189.611,218.279 190.068 C 218.627 190.524,218.912 191.058,218.912 191.253 C 218.912 191.448,219.247 192.068,219.656 192.630 C 220.066 193.193,220.490 193.940,220.598 194.291 C 220.706 194.641,221.071 195.145,221.408 195.411 C 221.745 195.676,222.021 196.069,222.021 196.284 C 222.021 196.822,231.080 205.839,231.873 206.090 C 232.225 206.201,232.746 206.551,233.031 206.869 C 233.316 207.186,233.873 207.522,234.268 207.616 C 234.664 207.709,235.225 208.023,235.517 208.315 C 235.808 208.606,236.528 209.014,237.116 209.221 C 237.705 209.429,238.386 209.779,238.629 209.999 C 238.872 210.219,239.730 210.571,240.535 210.782 C 241.340 210.992,242.436 211.392,242.970 211.670 C 243.504 211.948,244.838 212.290,245.934 212.429 C 247.029 212.568,248.242 212.888,248.628 213.141 C 249.792 213.904,260.718 213.988,263.141 213.252 C 264.107 212.959,265.771 212.588,266.839 212.428 C 267.908 212.268,269.307 211.873,269.948 211.551 C 270.589 211.229,271.697 210.807,272.409 210.613 C 273.122 210.419,273.912 210.068,274.165 209.832 C 274.418 209.597,275.088 209.266,275.653 209.096 C 276.218 208.927,276.967 208.502,277.318 208.151 C 277.669 207.800,278.116 207.513,278.311 207.513 C 278.506 207.513,278.937 207.225,279.268 206.873 C 279.598 206.521,280.254 206.105,280.725 205.950 C 281.196 205.795,281.651 205.447,281.737 205.179 C 281.822 204.910,282.134 204.613,282.429 204.519 C 283.740 204.103,289.621 197.569,291.160 194.819 C 291.439 194.320,291.910 193.709,292.207 193.461 C 292.503 193.213,292.746 192.816,292.746 192.579 C 292.746 192.342,293.053 191.745,293.427 191.254 C 293.802 190.763,294.217 189.878,294.350 189.287 C 294.483 188.696,294.834 187.954,295.131 187.638 C 295.441 187.308,295.763 186.481,295.887 185.695 C 296.006 184.942,296.383 183.802,296.726 183.161 C 297.167 182.336,297.402 181.359,297.530 179.819 C 297.629 178.622,297.834 177.339,297.984 176.969 C 298.688 175.236,298.776 170.519,298.886 128.627 C 299.002 84.396,298.969 82.394,298.056 78.368 C 297.863 77.513,297.626 75.939,297.530 74.870 C 297.429 73.744,297.104 72.363,296.757 71.583 C 296.427 70.844,296.026 69.604,295.864 68.827 C 295.703 68.051,295.353 67.218,295.086 66.976 C 294.819 66.735,294.463 65.964,294.295 65.264 C 294.127 64.563,293.878 63.990,293.742 63.990 C 293.606 63.990,293.212 63.351,292.867 62.571 C 292.522 61.790,292.004 60.916,291.716 60.628 C 291.428 60.339,291.192 59.947,291.192 59.755 C 291.192 59.564,290.947 59.185,290.647 58.914 C 290.347 58.643,289.936 58.099,289.733 57.706 C 289.529 57.313,288.783 56.383,288.075 55.641 C 287.367 54.898,286.788 54.210,286.788 54.112 C 286.788 53.769,284.528 51.612,283.990 51.441 C 283.691 51.346,283.376 51.048,283.290 50.777 C 283.204 50.507,282.921 50.218,282.661 50.135 C 282.401 50.053,281.853 49.686,281.444 49.321 C 281.034 48.956,280.321 48.492,279.858 48.289 C 279.394 48.086,279.016 47.801,279.016 47.656 C 279.016 47.510,278.472 47.158,277.807 46.873 C 277.142 46.588,276.472 46.197,276.317 46.004 C 276.163 45.811,275.606 45.517,275.081 45.351 C 274.556 45.184,273.856 44.839,273.527 44.583 C 273.197 44.326,272.286 43.972,271.503 43.796 C 270.719 43.619,269.777 43.264,269.410 43.007 C 269.036 42.744,267.655 42.365,266.263 42.142 C 264.899 41.925,263.567 41.634,263.303 41.497 C 261.908 40.768,255.788 40.474,251.777 40.943 M148.475 48.192 C 149.243 48.337,149.908 48.566,149.954 48.702 C 150.000 48.837,150.466 49.021,150.990 49.112 C 152.596 49.389,154.663 50.025,154.663 50.243 C 154.663 50.356,155.363 50.704,156.218 51.015 C 157.073 51.327,157.772 51.684,157.772 51.807 C 157.772 51.931,158.186 52.169,158.692 52.336 C 159.198 52.503,159.914 52.920,160.284 53.263 C 160.654 53.606,161.097 53.886,161.268 53.886 C 161.558 53.886,161.940 54.189,164.444 56.412 C 164.966 56.875,165.481 57.254,165.589 57.254 C 166.167 57.254,166.316 58.296,165.809 58.802 C 165.291 59.321,165.029 59.326,141.638 59.326 C 116.601 59.326,116.839 59.337,116.839 58.195 C 116.839 57.828,119.511 55.440,119.922 55.440 C 120.069 55.440,120.303 55.228,120.441 54.969 C 120.580 54.709,121.167 54.284,121.746 54.023 C 122.325 53.762,122.798 53.443,122.798 53.314 C 122.798 53.185,123.352 52.835,124.028 52.536 C 124.705 52.237,125.376 51.845,125.518 51.666 C 125.661 51.486,126.360 51.146,127.073 50.910 C 127.785 50.674,128.555 50.311,128.784 50.105 C 129.012 49.898,130.058 49.550,131.107 49.331 C 132.156 49.112,133.135 48.834,133.282 48.713 C 134.188 47.965,145.271 47.585,148.475 48.192 M264.048 48.504 C 264.423 48.750,265.642 49.139,266.756 49.368 C 267.871 49.597,268.963 49.947,269.184 50.145 C 269.405 50.343,270.048 50.668,270.614 50.868 C 271.180 51.067,272.094 51.537,272.645 51.911 C 273.196 52.285,273.788 52.591,273.959 52.591 C 274.130 52.591,274.551 52.829,274.894 53.121 C 275.237 53.412,276.276 54.201,277.202 54.872 C 278.128 55.544,279.224 56.413,279.636 56.803 C 280.049 57.194,280.474 57.513,280.580 57.513 C 281.043 57.513,281.033 58.345,280.564 58.814 C 280.061 59.317,279.616 59.326,256.405 59.326 C 231.322 59.326,231.606 59.340,231.606 58.180 C 231.606 57.761,234.159 55.440,234.620 55.440 C 234.805 55.440,235.080 55.208,235.232 54.925 C 235.383 54.641,235.860 54.227,236.291 54.004 C 236.722 53.782,237.295 53.379,237.565 53.109 C 237.835 52.839,238.516 52.494,239.079 52.342 C 239.642 52.191,240.161 51.915,240.232 51.729 C 240.303 51.543,240.980 51.191,241.736 50.947 C 242.492 50.703,243.302 50.329,243.538 50.117 C 243.773 49.904,244.747 49.566,245.703 49.366 C 246.659 49.166,247.705 48.830,248.027 48.619 C 249.311 47.778,262.793 47.681,264.048 48.504 M171.227 64.995 C 171.888 65.179,172.747 66.383,172.779 67.171 C 172.789 67.425,172.968 67.698,173.175 67.778 C 173.382 67.857,173.743 68.579,173.977 69.383 C 174.210 70.186,174.609 71.138,174.864 71.497 C 175.118 71.856,175.412 72.791,175.518 73.575 C 175.623 74.359,175.885 75.443,176.100 75.984 C 176.474 76.925,176.465 76.996,175.895 77.603 L 175.298 78.238 141.285 78.238 L 107.272 78.238 106.973 77.679 C 106.578 76.941,106.832 74.879,107.489 73.495 C 107.772 72.898,108.184 71.754,108.403 70.954 C 108.623 70.153,108.965 69.364,109.162 69.200 C 109.359 69.036,109.660 68.409,109.830 67.806 C 110.151 66.670,110.944 65.573,111.807 65.072 C 112.362 64.750,170.082 64.675,171.227 64.995 M286.602 65.238 C 286.828 65.426,287.085 65.907,287.173 66.307 C 287.261 66.707,287.621 67.425,287.973 67.903 C 288.326 68.380,288.684 69.210,288.770 69.746 C 288.856 70.283,289.138 70.967,289.398 71.266 C 289.834 71.769,290.174 73.006,290.548 75.453 C 290.630 75.988,290.808 76.425,290.944 76.425 C 291.369 76.425,291.216 77.013,290.628 77.639 L 290.065 78.238 256.052 78.238 L 222.039 78.238 221.742 77.683 C 221.319 76.894,221.571 74.619,222.217 73.378 C 222.519 72.799,222.845 71.903,222.942 71.387 C 223.039 70.871,223.394 70.042,223.732 69.544 C 224.070 69.047,224.419 68.322,224.508 67.934 C 224.733 66.958,225.908 65.272,226.545 65.011 C 227.497 64.620,286.124 64.842,286.602 65.238 M176.717 84.107 C 176.997 84.444,177.073 85.872,177.073 90.803 C 177.073 95.735,176.997 97.162,176.717 97.499 C 176.207 98.113,107.685 98.164,106.500 97.551 C 105.542 97.055,105.439 96.355,105.474 90.544 C 105.506 85.091,105.604 84.456,106.478 84.013 C 107.602 83.445,176.243 83.536,176.717 84.107 M291.484 84.107 C 291.764 84.444,291.839 85.872,291.839 90.803 C 291.839 95.735,291.764 97.162,291.484 97.499 C 290.887 98.218,221.923 98.140,220.984 97.418 L 220.337 96.921 220.337 90.795 C 220.337 84.670,220.337 84.669,220.948 84.174 C 221.836 83.455,290.888 83.390,291.484 84.107 M176.799 103.944 C 177.488 104.928,177.389 115.616,176.684 116.321 C 176.070 116.935,108.508 117.159,106.769 116.553 C 105.517 116.117,105.440 115.739,105.440 109.979 C 105.440 104.655,105.442 104.638,106.076 104.004 L 106.712 103.368 141.554 103.368 L 176.395 103.368 176.799 103.944 M291.566 103.944 C 292.255 104.928,292.156 115.616,291.451 116.321 C 290.837 116.935,223.275 117.159,221.536 116.553 C 220.284 116.117,220.207 115.739,220.207 109.979 C 220.207 104.655,220.209 104.638,220.843 104.004 L 221.479 103.368 256.321 103.368 L 291.162 103.368 291.566 103.944 M176.808 122.700 C 177.379 123.271,177.297 134.626,176.717 135.324 C 176.162 135.991,107.446 135.981,106.470 135.313 C 105.451 134.616,105.449 134.599,105.444 128.861 C 105.440 123.066,105.468 122.930,106.736 122.464 C 107.859 122.050,176.390 122.282,176.808 122.700 M291.495 122.709 C 292.151 123.302,292.218 133.741,291.574 134.987 L 291.178 135.751 256.587 135.751 C 219.739 135.751,220.834 135.787,220.368 134.574 C 220.280 134.343,220.207 131.724,220.207 128.754 L 220.207 123.354 220.890 122.817 L 221.572 122.280 256.297 122.280 C 288.245 122.280,291.059 122.314,291.495 122.709 M176.554 141.340 C 177.306 141.908,177.357 153.343,176.613 154.480 L 176.154 155.181 142.028 155.181 C 110.056 155.181,107.845 155.152,106.998 154.728 C 105.497 153.975,105.416 153.590,105.497 147.643 C 105.577 141.823,105.622 141.640,107.092 141.214 C 108.644 140.764,175.953 140.886,176.554 141.340 M291.228 141.427 C 292.021 142.070,292.336 152.247,291.615 153.971 C 291.069 155.279,293.426 155.203,255.900 155.124 L 221.773 155.052 221.055 154.334 L 220.337 153.616 220.260 148.764 C 220.165 142.778,220.297 141.997,221.510 141.386 C 222.974 140.649,290.314 140.688,291.228 141.427 M176.613 160.546 C 177.409 161.761,177.299 172.558,176.482 173.374 L 175.892 173.964 142.415 174.041 C 107.603 174.121,107.136 174.111,106.164 173.325 C 105.435 172.735,105.094 162.682,105.760 161.399 C 106.614 159.750,104.393 159.845,142.028 159.845 L 176.154 159.845 176.613 160.546 M291.177 160.348 C 291.921 161.092,292.035 162.176,291.932 167.559 C 291.826 173.156,291.676 173.644,289.979 173.924 C 287.271 174.372,222.428 174.102,221.510 173.639 C 220.298 173.029,220.165 172.246,220.260 166.283 C 220.342 161.094,220.452 160.679,221.891 160.089 C 223.187 159.559,290.640 159.811,291.177 160.348 M175.153 179.691 C 175.639 180.278,175.496 182.276,174.898 183.252 C 174.623 183.701,174.205 184.736,173.969 185.554 C 173.733 186.372,173.392 187.129,173.210 187.238 C 173.028 187.346,172.664 187.931,172.400 188.536 C 172.137 189.142,171.826 189.637,171.709 189.637 C 171.593 189.637,171.236 190.188,170.917 190.860 C 170.598 191.533,170.045 192.231,169.689 192.411 C 168.592 192.966,113.608 192.890,113.158 192.333 C 112.974 192.106,112.584 191.669,112.290 191.362 C 111.996 191.054,111.599 190.395,111.406 189.896 C 111.214 189.398,110.861 188.756,110.622 188.472 C 110.383 188.187,110.033 187.545,109.844 187.047 C 109.655 186.548,109.333 185.943,109.129 185.703 C 108.925 185.463,108.537 184.427,108.268 183.402 C 107.999 182.377,107.643 181.375,107.477 181.175 C 107.109 180.731,107.614 179.620,108.263 179.446 C 109.715 179.058,174.825 179.297,175.153 179.691 M289.917 179.831 C 290.336 180.615,290.066 182.474,289.412 183.306 C 289.109 183.692,288.860 184.211,288.860 184.459 C 288.860 185.085,288.124 186.788,287.854 186.788 C 287.732 186.788,287.488 187.304,287.311 187.935 C 287.134 188.566,286.717 189.339,286.384 189.651 C 286.051 189.964,285.707 190.544,285.621 190.938 C 285.223 192.748,287.548 192.609,256.333 192.685 C 231.105 192.746,228.231 192.712,227.928 192.347 C 227.742 192.123,227.270 191.593,226.878 191.169 C 226.486 190.744,226.166 190.266,226.166 190.106 C 226.166 189.946,225.863 189.419,225.493 188.934 C 225.123 188.448,224.703 187.627,224.560 187.108 C 224.416 186.590,224.032 185.810,223.706 185.375 C 223.380 184.941,223.029 184.061,222.927 183.420 C 222.825 182.778,222.590 182.079,222.405 181.865 C 221.731 181.089,221.932 179.665,222.745 179.451 C 222.988 179.387,238.134 179.321,256.403 179.305 L 289.619 179.275 289.917 179.831 M161.760 198.411 C 162.828 198.645,163.241 199.409,162.565 199.902 C 161.034 201.020,160.150 201.589,159.408 201.937 C 158.954 202.150,158.151 202.618,157.623 202.976 C 157.095 203.334,156.482 203.627,156.260 203.627 C 156.038 203.627,155.437 203.918,154.923 204.274 C 154.410 204.630,153.307 205.047,152.473 205.201 C 151.638 205.355,150.711 205.636,150.413 205.825 C 148.567 206.995,135.428 207.149,133.154 206.029 C 132.510 205.711,131.577 205.380,131.082 205.294 C 129.906 205.090,128.724 204.658,128.238 204.256 C 128.025 204.079,127.378 203.809,126.802 203.655 C 126.226 203.502,125.508 203.146,125.205 202.865 C 124.903 202.583,124.349 202.276,123.975 202.182 C 123.601 202.088,122.974 201.691,122.583 201.299 C 122.191 200.908,121.613 200.506,121.298 200.406 C 120.156 200.044,120.123 198.814,121.244 198.379 C 121.771 198.174,160.816 198.205,161.760 198.411 M277.143 198.705 C 277.939 199.230,277.784 199.689,276.587 200.352 C 276.035 200.657,275.289 201.169,274.930 201.490 C 274.571 201.810,274.141 202.073,273.976 202.073 C 273.811 202.073,273.274 202.369,272.783 202.732 C 272.293 203.095,271.396 203.517,270.790 203.669 C 270.185 203.822,269.689 204.033,269.689 204.136 C 269.689 204.435,267.859 205.137,266.580 205.329 C 265.939 205.425,265.346 205.612,265.262 205.744 C 264.401 207.097,248.934 207.156,247.403 205.812 C 247.185 205.621,246.486 205.393,245.848 205.304 C 244.583 205.129,242.746 204.438,242.746 204.136 C 242.746 204.033,242.219 203.815,241.575 203.653 C 240.931 203.491,240.187 203.140,239.921 202.875 C 239.656 202.609,239.035 202.259,238.543 202.096 C 238.050 201.933,237.396 201.512,237.089 201.159 C 236.783 200.807,236.378 200.518,236.190 200.518 C 234.823 200.518,234.585 198.959,235.872 198.430 C 236.911 198.002,276.478 198.266,277.143 198.705 " stroke="none" fill="#683296" fill-rule="evenodd"></path><path id="path1" d="M0.000 129.534 L 0.000 259.067 200.000 259.067 L 400.000 259.067 400.000 129.534 L 400.000 0.000 200.000 0.000 L 0.000 0.000 0.000 129.534 M146.174 40.968 C 147.210 41.130,148.424 41.421,148.873 41.616 C 149.322 41.810,149.871 41.969,150.093 41.969 C 151.357 41.969,154.491 42.611,154.816 42.936 C 155.026 43.146,155.864 43.491,156.679 43.702 C 157.494 43.914,158.341 44.248,158.562 44.446 C 158.783 44.643,159.477 44.986,160.104 45.207 C 160.731 45.428,161.424 45.768,161.645 45.961 C 161.866 46.154,162.542 46.562,163.148 46.866 C 163.753 47.171,164.249 47.533,164.249 47.670 C 164.249 47.808,164.670 48.097,165.185 48.312 C 166.101 48.694,167.354 49.634,168.656 50.915 C 169.013 51.266,169.401 51.554,169.518 51.554 C 169.831 51.554,171.894 53.682,172.093 54.210 C 172.187 54.459,172.434 54.663,172.643 54.663 C 172.851 54.663,173.091 54.879,173.174 55.143 C 173.258 55.407,173.674 55.933,174.099 56.311 C 174.523 56.689,174.870 57.155,174.870 57.345 C 174.870 57.536,175.116 57.914,175.416 58.185 C 175.716 58.457,176.188 59.122,176.464 59.663 C 176.740 60.204,177.135 60.712,177.340 60.791 C 177.546 60.870,177.836 61.387,177.985 61.940 C 178.134 62.493,178.529 63.240,178.862 63.600 C 179.196 63.960,179.539 64.694,179.625 65.233 C 179.711 65.771,180.020 66.467,180.311 66.780 C 180.602 67.093,180.947 67.904,181.076 68.584 C 181.372 70.135,181.591 70.744,182.042 71.272 C 182.238 71.502,182.515 72.726,182.658 73.992 C 182.800 75.259,183.176 77.228,183.492 78.368 L 184.067 80.440 184.067 128.109 C 184.067 173.412,184.044 175.811,183.606 176.457 C 183.317 176.882,183.002 178.219,182.764 180.028 C 182.555 181.618,182.214 183.179,182.005 183.497 C 181.797 183.814,181.433 184.830,181.197 185.754 C 180.960 186.677,180.548 187.711,180.280 188.051 C 180.013 188.391,179.671 189.126,179.521 189.685 C 179.370 190.244,179.023 190.925,178.749 191.199 C 178.476 191.473,178.173 192.020,178.076 192.416 C 177.980 192.811,177.569 193.518,177.163 193.986 C 176.757 194.454,176.425 194.933,176.425 195.052 C 176.425 195.170,176.074 195.661,175.645 196.144 C 175.216 196.626,174.795 197.283,174.710 197.604 C 174.625 197.924,174.393 198.187,174.195 198.187 C 173.996 198.187,173.834 198.314,173.834 198.469 C 173.834 199.045,167.220 205.259,165.544 206.258 C 165.045 206.555,164.549 206.950,164.441 207.135 C 164.334 207.321,163.913 207.546,163.506 207.635 C 163.099 207.724,162.527 208.072,162.236 208.407 C 161.945 208.741,161.317 209.098,160.840 209.199 C 160.364 209.300,159.741 209.586,159.456 209.834 C 159.171 210.082,158.355 210.436,157.642 210.620 C 156.930 210.805,155.967 211.182,155.502 211.459 C 155.038 211.736,153.639 212.136,152.394 212.347 C 151.148 212.559,149.340 212.969,148.374 213.258 C 145.943 213.988,135.018 213.900,133.861 213.141 C 133.475 212.888,132.308 212.573,131.267 212.442 C 129.255 212.186,128.130 211.852,127.870 211.432 C 127.783 211.291,127.043 211.040,126.226 210.876 C 125.409 210.711,124.333 210.307,123.834 209.977 C 123.335 209.648,122.636 209.295,122.280 209.193 C 121.924 209.091,121.397 208.794,121.110 208.532 C 120.824 208.270,120.160 207.876,119.635 207.657 C 119.111 207.438,118.394 206.995,118.043 206.673 C 117.692 206.352,116.907 205.738,116.298 205.311 C 114.906 204.334,109.240 198.672,108.031 197.050 C 107.532 196.381,106.927 195.611,106.685 195.340 C 106.443 195.068,106.063 194.493,105.840 194.062 C 105.617 193.631,105.144 192.851,104.790 192.329 C 104.435 191.806,104.143 191.191,104.140 190.961 C 104.138 190.732,103.788 190.031,103.363 189.404 C 102.938 188.777,102.591 188.040,102.591 187.766 C 102.591 187.492,102.308 186.781,101.962 186.186 C 101.616 185.591,101.199 184.351,101.034 183.431 C 100.869 182.511,100.550 181.403,100.324 180.970 C 99.327 179.060,99.241 174.821,99.231 127.729 C 99.222 80.554,99.304 76.396,100.286 74.126 C 100.556 73.503,100.891 72.282,101.031 71.412 C 101.171 70.541,101.503 69.536,101.768 69.176 C 102.033 68.817,102.394 67.921,102.570 67.186 C 102.746 66.450,103.167 65.474,103.504 65.017 C 103.842 64.559,104.188 63.865,104.274 63.475 C 104.360 63.085,104.704 62.527,105.039 62.236 C 105.374 61.945,105.724 61.361,105.817 60.938 C 105.909 60.515,106.271 59.901,106.620 59.573 C 106.968 59.245,107.254 58.853,107.254 58.701 C 107.254 58.549,107.537 58.133,107.882 57.775 C 109.410 56.193,110.363 55.086,110.363 54.894 C 110.363 54.574,113.174 51.846,115.107 50.290 C 116.060 49.523,116.839 48.794,116.839 48.671 C 116.839 48.547,117.056 48.446,117.320 48.446 C 117.584 48.446,118.103 48.165,118.473 47.822 C 118.842 47.479,119.560 47.062,120.067 46.895 C 120.574 46.728,121.099 46.383,121.235 46.130 C 121.371 45.876,122.024 45.517,122.687 45.332 C 123.349 45.146,124.083 44.803,124.316 44.569 C 124.550 44.334,125.373 43.987,126.147 43.797 C 126.920 43.608,127.911 43.245,128.349 42.992 C 128.787 42.739,130.308 42.337,131.729 42.099 C 133.150 41.861,134.511 41.560,134.754 41.430 C 136.008 40.759,143.020 40.475,146.174 40.968 M260.941 40.960 C 261.976 41.118,263.040 41.359,263.303 41.497 C 263.567 41.634,264.899 41.925,266.263 42.142 C 267.655 42.365,269.036 42.744,269.410 43.007 C 269.777 43.264,270.719 43.619,271.503 43.796 C 272.286 43.972,273.197 44.326,273.527 44.583 C 273.856 44.839,274.556 45.184,275.081 45.351 C 275.606 45.517,276.163 45.811,276.317 46.004 C 276.472 46.197,277.142 46.588,277.807 46.873 C 278.472 47.158,279.016 47.510,279.016 47.656 C 279.016 47.801,279.394 48.086,279.858 48.289 C 280.321 48.492,281.034 48.956,281.444 49.321 C 281.853 49.686,282.401 50.053,282.661 50.135 C 282.921 50.218,283.204 50.507,283.290 50.777 C 283.376 51.048,283.691 51.346,283.990 51.441 C 284.528 51.612,286.788 53.769,286.788 54.112 C 286.788 54.210,287.367 54.898,288.075 55.641 C 288.783 56.383,289.529 57.313,289.733 57.706 C 289.936 58.099,290.347 58.643,290.647 58.914 C 290.947 59.185,291.192 59.564,291.192 59.755 C 291.192 59.947,291.428 60.339,291.716 60.628 C 292.004 60.916,292.522 61.790,292.867 62.571 C 293.212 63.351,293.606 63.990,293.742 63.990 C 293.878 63.990,294.127 64.563,294.295 65.264 C 294.463 65.964,294.819 66.735,295.086 66.976 C 295.353 67.218,295.703 68.051,295.864 68.827 C 296.026 69.604,296.427 70.844,296.757 71.583 C 297.104 72.363,297.429 73.744,297.530 74.870 C 297.626 75.939,297.863 77.513,298.056 78.368 C 298.969 82.394,299.002 84.396,298.886 128.627 C 298.776 170.519,298.688 175.236,297.984 176.969 C 297.834 177.339,297.629 178.622,297.530 179.819 C 297.402 181.359,297.167 182.336,296.726 183.161 C 296.383 183.802,296.006 184.942,295.887 185.695 C 295.763 186.481,295.441 187.308,295.131 187.638 C 294.834 187.954,294.483 188.696,294.350 189.287 C 294.217 189.878,293.802 190.763,293.427 191.254 C 293.053 191.745,292.746 192.342,292.746 192.579 C 292.746 192.816,292.503 193.213,292.207 193.461 C 291.910 193.709,291.439 194.320,291.160 194.819 C 289.621 197.569,283.740 204.103,282.429 204.519 C 282.134 204.613,281.822 204.910,281.737 205.179 C 281.651 205.447,281.196 205.795,280.725 205.950 C 280.254 206.105,279.598 206.521,279.268 206.873 C 278.937 207.225,278.506 207.513,278.311 207.513 C 278.116 207.513,277.669 207.800,277.318 208.151 C 276.967 208.502,276.218 208.927,275.653 209.096 C 275.088 209.266,274.418 209.597,274.165 209.832 C 273.912 210.068,273.122 210.419,272.409 210.613 C 271.697 210.807,270.589 211.229,269.948 211.551 C 269.307 211.873,267.908 212.268,266.839 212.428 C 265.771 212.588,264.107 212.959,263.141 213.252 C 260.718 213.988,249.792 213.904,248.628 213.141 C 248.242 212.888,247.029 212.568,245.934 212.429 C 244.838 212.290,243.504 211.948,242.970 211.670 C 242.436 211.392,241.340 210.992,240.535 210.782 C 239.730 210.571,238.872 210.219,238.629 209.999 C 238.386 209.779,237.705 209.429,237.116 209.221 C 236.528 209.014,235.808 208.606,235.517 208.315 C 235.225 208.023,234.664 207.709,234.268 207.616 C 233.873 207.522,233.316 207.186,233.031 206.869 C 232.746 206.551,232.225 206.201,231.873 206.090 C 231.080 205.839,222.021 196.822,222.021 196.284 C 222.021 196.069,221.745 195.676,221.408 195.411 C 221.071 195.145,220.706 194.641,220.598 194.291 C 220.490 193.940,220.066 193.193,219.656 192.630 C 219.247 192.068,218.912 191.448,218.912 191.253 C 218.912 191.058,218.627 190.524,218.279 190.068 C 217.930 189.611,217.515 188.657,217.356 187.948 C 217.197 187.239,216.844 186.421,216.571 186.131 C 216.261 185.800,215.983 184.946,215.828 183.850 C 215.691 182.886,215.326 181.668,215.016 181.143 C 214.075 179.548,214.009 176.075,214.002 127.850 C 213.994 78.868,214.055 75.958,215.153 73.476 C 215.510 72.668,215.803 71.618,215.803 71.143 C 215.803 70.668,216.136 69.652,216.543 68.884 C 216.950 68.116,217.361 67.065,217.456 66.549 C 217.550 66.033,217.859 65.344,218.141 65.018 C 218.424 64.693,218.771 64.007,218.913 63.495 C 219.054 62.984,219.449 62.302,219.790 61.982 C 220.131 61.661,220.488 61.090,220.583 60.712 C 220.677 60.334,221.040 59.801,221.388 59.528 C 221.736 59.254,222.021 58.881,222.021 58.698 C 222.021 58.516,222.341 58.008,222.733 57.568 C 223.125 57.129,223.854 56.279,224.352 55.679 C 225.535 54.256,228.180 51.631,229.422 50.648 C 229.961 50.220,230.727 49.564,231.123 49.189 C 231.519 48.814,232.140 48.433,232.502 48.342 C 232.864 48.251,233.161 48.065,233.161 47.928 C 233.161 47.791,233.656 47.430,234.262 47.126 C 234.867 46.822,235.596 46.373,235.881 46.128 C 236.166 45.883,236.952 45.478,237.628 45.229 C 238.305 44.980,238.946 44.636,239.053 44.465 C 239.161 44.294,239.890 43.994,240.674 43.799 C 241.457 43.604,242.506 43.238,243.005 42.986 C 243.504 42.733,245.075 42.333,246.496 42.096 C 247.917 41.860,249.299 41.548,249.568 41.405 C 250.791 40.750,257.768 40.477,260.941 40.960 M134.456 48.233 C 133.957 48.376,133.429 48.592,133.282 48.713 C 133.135 48.834,132.156 49.112,131.107 49.331 C 130.058 49.550,129.012 49.898,128.784 50.105 C 128.555 50.311,127.785 50.674,127.073 50.910 C 126.360 51.146,125.661 51.486,125.518 51.666 C 125.376 51.845,124.705 52.237,124.028 52.536 C 123.352 52.835,122.798 53.185,122.798 53.314 C 122.798 53.443,122.325 53.762,121.746 54.023 C 121.167 54.284,120.580 54.709,120.441 54.969 C 120.303 55.228,120.069 55.440,119.922 55.440 C 119.511 55.440,116.839 57.828,116.839 58.195 C 116.839 59.337,116.601 59.326,141.638 59.326 C 165.029 59.326,165.291 59.321,165.809 58.802 C 166.316 58.296,166.167 57.254,165.589 57.254 C 165.481 57.254,164.966 56.875,164.444 56.412 C 161.940 54.189,161.558 53.886,161.268 53.886 C 161.097 53.886,160.654 53.606,160.284 53.263 C 159.914 52.920,159.198 52.503,158.692 52.336 C 158.186 52.169,157.772 51.931,157.772 51.807 C 157.772 51.684,157.073 51.327,156.218 51.015 C 155.363 50.704,154.663 50.356,154.663 50.243 C 154.663 50.025,152.596 49.389,150.990 49.112 C 150.466 49.021,150.000 48.837,149.954 48.702 C 149.707 47.975,136.731 47.583,134.456 48.233 M249.242 48.107 C 248.896 48.177,248.349 48.407,248.027 48.619 C 247.705 48.830,246.659 49.166,245.703 49.366 C 244.747 49.566,243.773 49.904,243.538 50.117 C 243.302 50.329,242.492 50.703,241.736 50.947 C 240.980 51.191,240.303 51.543,240.232 51.729 C 240.161 51.915,239.642 52.191,239.079 52.342 C 238.516 52.494,237.835 52.839,237.565 53.109 C 237.295 53.379,236.722 53.782,236.291 54.004 C 235.860 54.227,235.383 54.641,235.232 54.925 C 235.080 55.208,234.805 55.440,234.620 55.440 C 234.159 55.440,231.606 57.761,231.606 58.180 C 231.606 59.340,231.322 59.326,256.405 59.326 C 279.616 59.326,280.061 59.317,280.564 58.814 C 281.033 58.345,281.043 57.513,280.580 57.513 C 280.474 57.513,280.049 57.194,279.636 56.803 C 279.224 56.413,278.128 55.544,277.202 54.872 C 276.276 54.201,275.237 53.412,274.894 53.121 C 274.551 52.829,274.130 52.591,273.959 52.591 C 273.788 52.591,273.196 52.285,272.645 51.911 C 272.094 51.537,271.180 51.067,270.614 50.868 C 270.048 50.668,269.405 50.343,269.184 50.145 C 268.963 49.947,267.871 49.597,266.756 49.368 C 265.642 49.139,264.423 48.750,264.048 48.504 C 263.375 48.063,251.085 47.733,249.242 48.107 M111.807 65.072 C 110.944 65.573,110.151 66.670,109.830 67.806 C 109.660 68.409,109.359 69.036,109.162 69.200 C 108.965 69.364,108.623 70.153,108.403 70.954 C 108.184 71.754,107.772 72.898,107.489 73.495 C 106.832 74.879,106.578 76.941,106.973 77.679 L 107.272 78.238 141.285 78.238 L 175.298 78.238 175.895 77.603 C 176.465 76.996,176.474 76.925,176.100 75.984 C 175.885 75.443,175.623 74.359,175.518 73.575 C 175.412 72.791,175.118 71.856,174.864 71.497 C 174.609 71.138,174.210 70.186,173.977 69.383 C 173.743 68.579,173.382 67.857,173.175 67.778 C 172.968 67.698,172.789 67.425,172.779 67.171 C 172.747 66.383,171.888 65.179,171.227 64.995 C 170.082 64.675,112.362 64.750,111.807 65.072 M226.545 65.011 C 225.908 65.272,224.733 66.958,224.508 67.934 C 224.419 68.322,224.070 69.047,223.732 69.544 C 223.394 70.042,223.039 70.871,222.942 71.387 C 222.845 71.903,222.519 72.799,222.217 73.378 C 221.571 74.619,221.319 76.894,221.742 77.683 L 222.039 78.238 256.052 78.238 L 290.065 78.238 290.628 77.639 C 291.216 77.013,291.369 76.425,290.944 76.425 C 290.808 76.425,290.630 75.988,290.548 75.453 C 290.174 73.006,289.834 71.769,289.398 71.266 C 289.138 70.967,288.856 70.283,288.770 69.746 C 288.684 69.210,288.326 68.380,287.973 67.903 C 287.621 67.425,287.261 66.707,287.173 66.307 C 286.845 64.815,288.632 64.901,256.631 64.845 C 240.374 64.817,226.835 64.892,226.545 65.011 M106.478 84.013 C 105.604 84.456,105.506 85.091,105.474 90.544 C 105.439 96.355,105.542 97.055,106.500 97.551 C 107.685 98.164,176.207 98.113,176.717 97.499 C 176.997 97.162,177.073 95.735,177.073 90.803 C 177.073 85.872,176.997 84.444,176.717 84.107 C 176.243 83.536,107.602 83.445,106.478 84.013 M220.948 84.174 C 220.337 84.669,220.337 84.670,220.337 90.795 L 220.337 96.921 220.984 97.418 C 221.923 98.140,290.887 98.218,291.484 97.499 C 291.764 97.162,291.839 95.735,291.839 90.803 C 291.839 85.872,291.764 84.444,291.484 84.107 C 290.888 83.390,221.836 83.455,220.948 84.174 M106.076 104.004 C 105.442 104.638,105.440 104.655,105.440 109.979 C 105.440 115.739,105.517 116.117,106.769 116.553 C 108.508 117.159,176.070 116.935,176.684 116.321 C 177.389 115.616,177.488 104.928,176.799 103.944 L 176.395 103.368 141.554 103.368 L 106.712 103.368 106.076 104.004 M220.843 104.004 C 220.209 104.638,220.207 104.655,220.207 109.979 C 220.207 115.739,220.284 116.117,221.536 116.553 C 223.275 117.159,290.837 116.935,291.451 116.321 C 292.156 115.616,292.255 104.928,291.566 103.944 L 291.162 103.368 256.321 103.368 L 221.479 103.368 220.843 104.004 M106.736 122.464 C 105.468 122.930,105.440 123.066,105.444 128.861 C 105.449 134.599,105.451 134.616,106.470 135.313 C 107.446 135.981,176.162 135.991,176.717 135.324 C 177.297 134.626,177.379 123.271,176.808 122.700 C 176.390 122.282,107.859 122.050,106.736 122.464 M220.890 122.817 L 220.207 123.354 220.207 128.754 C 220.207 131.724,220.280 134.343,220.368 134.574 C 220.834 135.787,219.739 135.751,256.587 135.751 L 291.178 135.751 291.574 134.987 C 292.218 133.741,292.151 123.302,291.495 122.709 C 291.059 122.314,288.245 122.280,256.297 122.280 L 221.572 122.280 220.890 122.817 M107.092 141.214 C 105.622 141.640,105.577 141.823,105.497 147.643 C 105.416 153.590,105.497 153.975,106.998 154.728 C 107.845 155.152,110.056 155.181,142.028 155.181 L 176.154 155.181 176.613 154.480 C 177.357 153.343,177.306 141.908,176.554 141.340 C 175.953 140.886,108.644 140.764,107.092 141.214 M221.510 141.386 C 220.297 141.997,220.165 142.778,220.260 148.764 L 220.337 153.616 221.055 154.334 L 221.773 155.052 255.900 155.124 C 293.426 155.203,291.069 155.279,291.615 153.971 C 292.336 152.247,292.021 142.070,291.228 141.427 C 290.314 140.688,222.974 140.649,221.510 141.386 M106.998 160.298 C 105.495 161.052,105.416 161.431,105.497 167.445 C 105.580 173.580,105.602 173.640,107.848 173.962 C 108.447 174.047,124.003 174.083,142.415 174.041 L 175.892 173.964 176.482 173.374 C 177.299 172.558,177.409 161.761,176.613 160.546 L 176.154 159.845 142.028 159.845 C 110.056 159.845,107.845 159.874,106.998 160.298 M221.891 160.089 C 220.452 160.679,220.342 161.094,220.260 166.283 C 220.165 172.246,220.298 173.029,221.510 173.639 C 222.428 174.102,287.271 174.372,289.979 173.924 C 291.676 173.644,291.826 173.156,291.932 167.559 C 292.035 162.176,291.921 161.092,291.177 160.348 C 290.640 159.811,223.187 159.559,221.891 160.089 M108.263 179.446 C 107.614 179.620,107.109 180.731,107.477 181.175 C 107.643 181.375,107.999 182.377,108.268 183.402 C 108.537 184.427,108.925 185.463,109.129 185.703 C 109.333 185.943,109.655 186.548,109.844 187.047 C 110.033 187.545,110.383 188.187,110.622 188.472 C 110.861 188.756,111.214 189.398,111.406 189.896 C 111.599 190.395,111.996 191.054,112.290 191.362 C 112.584 191.669,112.974 192.106,113.158 192.333 C 113.608 192.890,168.592 192.966,169.689 192.411 C 170.045 192.231,170.598 191.533,170.917 190.860 C 171.236 190.188,171.593 189.637,171.709 189.637 C 171.826 189.637,172.137 189.142,172.400 188.536 C 172.664 187.931,173.028 187.346,173.210 187.238 C 173.392 187.129,173.733 186.372,173.969 185.554 C 174.205 184.736,174.623 183.701,174.898 183.252 C 175.496 182.276,175.639 180.278,175.153 179.691 C 174.825 179.297,109.715 179.058,108.263 179.446 M222.745 179.451 C 221.932 179.665,221.731 181.089,222.405 181.865 C 222.590 182.079,222.825 182.778,222.927 183.420 C 223.029 184.061,223.380 184.941,223.706 185.375 C 224.032 185.810,224.416 186.590,224.560 187.108 C 224.703 187.627,225.123 188.448,225.493 188.934 C 225.863 189.419,226.166 189.946,226.166 190.106 C 226.166 190.266,226.486 190.744,226.878 191.169 C 227.270 191.593,227.742 192.123,227.928 192.347 C 228.231 192.712,231.105 192.746,256.333 192.685 C 287.548 192.609,285.223 192.748,285.621 190.938 C 285.707 190.544,286.051 189.964,286.384 189.651 C 286.717 189.339,287.134 188.566,287.311 187.935 C 287.488 187.304,287.732 186.788,287.854 186.788 C 288.124 186.788,288.860 185.085,288.860 184.459 C 288.860 184.211,289.109 183.692,289.412 183.306 C 290.066 182.474,290.336 180.615,289.917 179.831 L 289.619 179.275 256.403 179.305 C 238.134 179.321,222.988 179.387,222.745 179.451 M121.244 198.379 C 120.123 198.814,120.156 200.044,121.298 200.406 C 121.613 200.506,122.191 200.908,122.583 201.299 C 122.974 201.691,123.601 202.088,123.975 202.182 C 124.349 202.276,124.903 202.583,125.205 202.865 C 125.508 203.146,126.226 203.502,126.802 203.655 C 127.378 203.809,128.025 204.079,128.238 204.256 C 128.724 204.658,129.906 205.090,131.082 205.294 C 131.577 205.380,132.510 205.711,133.154 206.029 C 135.428 207.149,148.567 206.995,150.413 205.825 C 150.711 205.636,151.638 205.355,152.473 205.201 C 153.307 205.047,154.410 204.630,154.923 204.274 C 155.437 203.918,156.038 203.627,156.260 203.627 C 156.482 203.627,157.095 203.334,157.623 202.976 C 158.151 202.618,158.954 202.150,159.408 201.937 C 160.150 201.589,161.034 201.020,162.565 199.902 C 163.241 199.409,162.828 198.645,161.760 198.411 C 160.816 198.205,121.771 198.174,121.244 198.379 M235.872 198.430 C 234.585 198.959,234.823 200.518,236.190 200.518 C 236.378 200.518,236.783 200.807,237.089 201.159 C 237.396 201.512,238.050 201.933,238.543 202.096 C 239.035 202.259,239.656 202.609,239.921 202.875 C 240.187 203.140,240.931 203.491,241.575 203.653 C 242.219 203.815,242.746 204.033,242.746 204.136 C 242.746 204.438,244.583 205.129,245.848 205.304 C 246.486 205.393,247.185 205.621,247.403 205.812 C 248.934 207.156,264.401 207.097,265.262 205.744 C 265.346 205.612,265.939 205.425,266.580 205.329 C 267.859 205.137,269.689 204.435,269.689 204.136 C 269.689 204.033,270.185 203.822,270.790 203.669 C 271.396 203.517,272.293 203.095,272.783 202.732 C 273.274 202.369,273.811 202.073,273.976 202.073 C 274.141 202.073,274.571 201.810,274.930 201.490 C 275.289 201.169,276.035 200.657,276.587 200.352 C 277.784 199.689,277.939 199.230,277.143 198.705 C 276.478 198.266,236.911 198.002,235.872 198.430 " stroke="none" fill="#ffffff" fill-rule="evenodd"></path></g></svg>