<svg id="svg" version="1.1" xmlns="http://www.w3.org/2000/svg" xmlns:xlink="http://www.w3.org/1999/xlink" width="400" height="258.91472868217056" viewBox="0, 0, 400,258.91472868217056"><g id="svgg"><path id="path0" d="M73.658 48.203 C 72.492 48.316,70.707 48.708,69.692 49.075 C 68.676 49.441,67.648 49.743,67.407 49.745 C 67.166 49.747,66.677 49.919,66.321 50.127 C 65.965 50.336,65.091 50.803,64.378 51.167 C 61.057 52.861,58.434 55.499,57.550 58.036 C 56.878 59.963,57.293 65.593,58.180 66.593 C 58.375 66.814,58.699 67.458,58.899 68.024 C 59.098 68.589,59.539 69.478,59.877 69.998 C 60.215 70.517,60.842 71.549,61.269 72.290 C 61.697 73.030,62.348 74.002,62.715 74.448 C 63.083 74.894,63.448 75.434,63.526 75.648 C 63.604 75.861,64.315 76.995,65.105 78.166 C 65.894 79.338,66.625 80.562,66.727 80.886 C 66.830 81.211,67.180 81.826,67.504 82.254 C 67.829 82.681,68.180 83.381,68.285 83.808 C 68.390 84.236,68.736 84.935,69.054 85.363 C 69.372 85.790,69.715 86.548,69.816 87.047 C 69.916 87.545,70.265 88.420,70.590 88.990 C 70.915 89.560,71.262 90.434,71.361 90.933 C 71.460 91.431,71.815 92.597,72.151 93.523 C 72.486 94.449,72.891 96.140,73.051 97.280 C 73.210 98.420,73.527 100.518,73.755 101.943 C 74.277 105.212,74.274 105.956,73.717 109.456 C 73.468 111.023,73.119 113.297,72.941 114.508 C 72.763 115.719,72.374 117.351,72.076 118.135 C 71.777 118.918,71.452 120.026,71.353 120.596 C 71.254 121.166,70.907 122.163,70.582 122.812 C 70.257 123.461,69.907 124.439,69.804 124.986 C 69.702 125.532,69.344 126.458,69.009 127.044 C 68.674 127.630,68.399 128.296,68.397 128.526 C 68.395 128.755,68.059 129.571,67.650 130.339 C 67.241 131.107,66.818 132.141,66.710 132.636 C 66.602 133.131,66.255 133.947,65.939 134.449 C 65.623 134.952,65.278 135.825,65.173 136.391 C 65.067 136.957,64.711 137.889,64.381 138.464 C 64.050 139.038,63.698 140.032,63.597 140.674 C 63.496 141.315,63.321 141.956,63.208 142.098 C 62.892 142.499,61.917 145.615,61.917 146.225 C 61.917 146.525,61.696 147.182,61.425 147.687 C 61.155 148.191,60.754 149.728,60.535 151.102 C 60.316 152.476,60.027 153.810,59.892 154.067 C 58.861 156.040,58.500 173.982,59.433 176.943 C 59.680 177.727,60.052 179.126,60.261 180.052 C 60.469 180.978,60.918 182.319,61.258 183.031 C 61.598 183.744,61.997 184.710,62.146 185.180 C 62.295 185.649,62.638 186.349,62.910 186.734 C 63.181 187.120,63.492 187.721,63.601 188.071 C 63.710 188.420,63.969 188.876,64.176 189.084 C 64.384 189.291,64.853 189.938,65.219 190.521 C 65.584 191.103,66.303 192.104,66.815 192.743 C 67.327 193.383,67.863 194.056,68.005 194.238 C 68.965 195.467,73.499 199.440,75.023 200.389 C 75.481 200.674,76.537 201.377,77.371 201.951 C 78.204 202.525,79.294 203.156,79.793 203.354 C 80.291 203.551,80.874 203.858,81.088 204.036 C 81.302 204.215,82.001 204.563,82.642 204.811 C 83.284 205.059,84.004 205.429,84.243 205.634 C 84.482 205.838,85.165 206.115,85.761 206.249 C 86.357 206.383,87.327 206.727,87.917 207.014 C 88.507 207.300,90.024 207.767,91.288 208.050 C 92.551 208.333,93.802 208.680,94.068 208.822 C 96.535 210.143,111.745 210.311,116.580 209.071 C 119.860 208.230,122.313 207.432,123.351 206.869 C 124.012 206.511,124.676 206.218,124.828 206.218 C 124.979 206.218,125.622 205.868,126.255 205.440 C 126.889 205.013,127.518 204.663,127.653 204.663 C 128.033 204.663,131.183 201.700,132.413 200.186 C 132.785 199.727,133.172 199.061,133.273 198.705 C 133.373 198.348,133.764 197.474,134.140 196.762 C 135.157 194.839,135.164 190.467,134.155 188.303 C 133.780 187.499,133.396 186.493,133.303 186.069 C 133.210 185.645,132.848 185.030,132.500 184.702 C 132.151 184.375,131.865 183.990,131.865 183.847 C 131.865 183.565,130.220 181.024,129.486 180.174 C 128.961 179.565,127.942 177.800,127.225 176.259 C 126.951 175.669,126.610 175.114,126.467 175.026 C 126.324 174.937,126.001 174.313,125.749 173.637 C 125.498 172.962,125.088 172.140,124.838 171.812 C 124.588 171.483,124.187 170.609,123.946 169.869 C 123.706 169.129,123.371 168.348,123.202 168.135 C 123.034 167.921,122.686 167.047,122.429 166.192 C 122.173 165.337,121.862 164.512,121.738 164.359 C 121.615 164.206,121.276 163.078,120.985 161.852 C 120.694 160.627,120.287 159.220,120.080 158.725 C 118.928 155.966,118.979 142.567,120.147 141.127 C 120.292 140.949,120.603 140.047,120.837 139.123 C 121.072 138.198,121.417 137.208,121.603 136.921 C 121.789 136.634,122.141 135.794,122.386 135.054 C 122.630 134.314,123.039 133.439,123.294 133.111 C 123.549 132.782,123.956 131.910,124.199 131.173 C 124.441 130.436,124.799 129.700,124.994 129.539 C 125.189 129.377,125.430 128.756,125.531 128.159 C 125.631 127.561,125.990 126.447,126.327 125.682 C 126.665 124.917,127.048 123.635,127.178 122.832 C 127.309 122.030,127.614 120.848,127.857 120.207 C 128.100 119.566,128.409 118.225,128.544 117.228 C 128.679 116.231,129.032 114.190,129.328 112.694 C 130.483 106.852,130.534 94.726,129.421 90.155 C 129.196 89.229,128.896 87.607,128.756 86.551 C 128.615 85.495,128.208 83.902,127.851 83.010 C 127.494 82.118,127.202 81.117,127.202 80.785 C 127.201 80.453,126.862 79.538,126.447 78.752 C 126.033 77.965,125.612 76.886,125.512 76.352 C 125.412 75.819,125.220 75.315,125.086 75.232 C 124.952 75.150,124.553 74.426,124.199 73.625 C 123.844 72.824,123.458 72.106,123.340 72.030 C 123.223 71.953,122.873 71.425,122.563 70.855 C 121.962 69.750,120.991 68.330,120.263 67.494 C 120.019 67.213,119.625 66.701,119.388 66.356 C 118.857 65.584,115.889 62.584,114.611 61.528 C 114.094 61.101,113.305 60.436,112.859 60.050 C 111.607 58.968,109.605 57.513,109.369 57.513 C 109.253 57.513,108.878 57.215,108.537 56.852 C 108.195 56.488,107.446 55.961,106.872 55.680 C 106.298 55.399,105.246 54.822,104.534 54.397 C 103.821 53.972,102.830 53.440,102.332 53.215 C 101.833 52.989,100.725 52.476,99.870 52.075 C 99.016 51.674,97.800 51.207,97.169 51.037 C 96.538 50.868,95.780 50.571,95.485 50.379 C 95.190 50.186,94.020 49.838,92.885 49.604 C 91.751 49.370,90.524 49.025,90.159 48.836 C 88.704 48.084,78.811 47.704,73.658 48.203 M176.284 48.185 C 175.061 48.292,173.509 48.639,172.527 49.024 C 171.608 49.385,170.418 49.758,169.883 49.852 C 169.349 49.946,168.912 50.120,168.912 50.237 C 168.912 50.354,168.242 50.744,167.422 51.102 C 165.484 51.951,162.004 55.179,160.861 57.188 C 159.172 60.158,159.819 65.825,162.193 68.859 C 162.449 69.187,162.731 69.784,162.819 70.187 C 162.908 70.590,163.266 71.188,163.614 71.515 C 163.963 71.843,164.249 72.221,164.249 72.355 C 164.249 72.683,166.474 76.014,166.966 76.423 C 167.181 76.601,167.358 76.879,167.358 77.040 C 167.358 77.201,167.766 77.907,168.264 78.609 C 168.763 79.310,169.171 80.020,169.171 80.187 C 169.171 80.353,169.399 80.696,169.678 80.949 C 169.958 81.201,170.372 81.968,170.599 82.653 C 170.827 83.338,171.175 84.033,171.374 84.198 C 171.573 84.363,171.870 84.925,172.035 85.448 C 172.200 85.971,172.672 87.088,173.085 87.930 C 173.497 88.772,173.834 89.680,173.834 89.948 C 173.834 90.216,174.058 90.874,174.332 91.410 C 174.605 91.947,174.970 93.137,175.143 94.055 C 175.315 94.974,175.610 96.250,175.798 96.891 C 177.100 101.339,177.229 109.810,176.048 113.342 C 175.857 113.912,175.503 115.425,175.261 116.705 C 175.019 117.984,174.612 119.441,174.358 119.943 C 174.104 120.445,173.810 121.380,173.704 122.021 C 173.599 122.662,173.245 123.718,172.917 124.367 C 172.590 125.016,172.236 126.007,172.131 126.569 C 172.026 127.131,171.669 128.001,171.338 128.502 C 171.007 129.003,170.657 129.819,170.559 130.315 C 170.462 130.811,170.125 131.629,169.810 132.131 C 169.495 132.634,169.154 133.424,169.053 133.887 C 168.951 134.350,168.595 135.221,168.262 135.823 C 167.928 136.425,167.573 137.367,167.472 137.917 C 167.372 138.467,167.024 139.400,166.701 139.990 C 166.377 140.580,166.033 141.557,165.935 142.161 C 165.838 142.766,165.491 143.815,165.165 144.493 C 164.839 145.171,164.486 146.367,164.380 147.150 C 164.275 147.934,163.919 149.294,163.591 150.173 C 163.262 151.052,162.909 152.742,162.807 153.929 C 162.704 155.117,162.462 156.542,162.267 157.097 C 161.255 159.986,161.196 171.822,162.175 175.777 C 162.457 176.917,162.764 178.433,162.857 179.145 C 162.951 179.858,163.294 180.999,163.620 181.682 C 163.946 182.364,164.293 183.297,164.392 183.754 C 164.491 184.211,164.795 184.901,165.068 185.286 C 165.340 185.672,165.693 186.371,165.851 186.841 C 166.009 187.310,166.471 188.154,166.878 188.717 C 167.284 189.279,167.617 189.891,167.617 190.077 C 167.617 190.263,167.704 190.415,167.811 190.416 C 167.918 190.417,168.297 190.851,168.653 191.380 C 169.773 193.044,172.835 196.277,174.855 197.927 C 175.466 198.426,176.206 199.097,176.501 199.417 C 176.795 199.738,177.169 200.000,177.332 200.000 C 177.494 200.000,178.019 200.350,178.497 200.777 C 178.976 201.205,179.466 201.554,179.587 201.554 C 179.707 201.554,180.367 201.941,181.053 202.412 C 181.739 202.884,182.668 203.423,183.119 203.610 C 183.569 203.796,183.938 204.043,183.938 204.158 C 183.938 204.273,184.608 204.561,185.427 204.798 C 186.247 205.034,187.102 205.393,187.327 205.594 C 187.553 205.796,188.360 206.146,189.120 206.371 C 189.881 206.597,190.918 207.005,191.426 207.277 C 191.934 207.549,192.546 207.772,192.786 207.772 C 193.438 207.772,196.461 208.572,196.778 208.828 C 197.080 209.072,199.957 209.448,204.793 209.876 C 209.652 210.306,218.097 209.731,220.596 208.800 C 221.308 208.534,222.649 208.126,223.575 207.892 C 224.501 207.658,225.376 207.370,225.519 207.252 C 225.662 207.134,226.418 206.786,227.200 206.477 C 227.982 206.169,228.681 205.825,228.754 205.713 C 228.827 205.602,229.395 205.252,230.018 204.936 C 231.209 204.332,235.751 199.948,235.751 199.402 C 235.751 199.227,236.043 198.655,236.400 198.130 C 238.854 194.518,236.861 184.526,233.057 181.369 C 232.829 181.180,232.642 180.885,232.642 180.714 C 232.642 180.543,232.296 179.945,231.872 179.386 C 231.449 178.826,231.099 178.245,231.095 178.095 C 231.091 177.945,230.753 177.362,230.344 176.800 C 229.934 176.237,229.510 175.486,229.401 175.130 C 229.292 174.773,228.993 174.212,228.736 173.883 C 228.478 173.553,228.126 172.854,227.953 172.328 C 227.780 171.803,227.415 171.071,227.143 170.702 C 226.870 170.333,226.537 169.538,226.401 168.935 C 226.266 168.333,225.912 167.511,225.614 167.108 C 225.316 166.706,224.973 165.842,224.851 165.188 C 224.729 164.534,224.407 163.502,224.135 162.894 C 223.863 162.285,223.495 160.972,223.317 159.974 C 223.140 158.977,222.815 157.461,222.596 156.606 C 221.758 153.338,221.656 146.104,222.417 143.912 C 222.615 143.342,222.954 142.013,223.170 140.958 C 223.387 139.904,223.785 138.617,224.055 138.098 C 224.325 137.580,224.630 136.752,224.732 136.259 C 224.834 135.766,225.182 134.953,225.505 134.453 C 225.828 133.952,226.180 133.253,226.288 132.898 C 226.396 132.544,226.701 131.895,226.966 131.457 C 227.415 130.714,228.310 128.370,229.184 125.648 C 229.390 125.006,229.803 123.782,230.102 122.927 C 230.401 122.073,230.796 120.440,230.981 119.301 C 231.165 118.161,231.556 116.305,231.850 115.176 C 233.084 110.440,233.249 90.443,232.072 88.243 C 231.755 87.653,231.227 85.421,230.963 83.557 C 230.862 82.849,230.500 81.716,230.157 81.040 C 229.814 80.363,229.534 79.589,229.534 79.320 C 229.534 79.050,229.184 78.174,228.756 77.373 C 228.329 76.572,227.979 75.710,227.978 75.458 C 227.978 75.206,227.628 74.475,227.202 73.834 C 226.776 73.193,226.427 72.532,226.426 72.364 C 226.425 72.197,226.132 71.712,225.774 71.287 C 225.415 70.861,224.948 70.094,224.734 69.583 C 224.520 69.071,224.255 68.653,224.146 68.653 C 224.036 68.653,223.738 68.300,223.483 67.869 C 223.053 67.142,217.597 61.644,215.722 60.049 C 214.406 58.930,212.450 57.513,212.221 57.513 C 212.105 57.513,211.619 57.163,211.140 56.736 C 210.661 56.308,210.163 55.959,210.032 55.959 C 209.902 55.959,209.432 55.696,208.989 55.376 C 208.545 55.055,207.711 54.552,207.135 54.257 C 206.010 53.681,205.419 53.380,202.933 52.112 C 202.052 51.663,201.142 51.295,200.909 51.295 C 200.676 51.295,199.860 50.999,199.094 50.637 C 198.328 50.275,197.081 49.877,196.323 49.754 C 195.564 49.630,194.186 49.273,193.262 48.960 C 190.490 48.022,182.370 47.651,176.284 48.185 M279.922 48.162 C 278.782 48.268,276.975 48.660,275.907 49.032 C 274.838 49.405,273.527 49.788,272.992 49.884 C 272.458 49.979,272.021 50.147,272.021 50.256 C 272.021 50.366,271.652 50.608,271.202 50.795 C 270.751 50.981,269.821 51.520,269.135 51.992 C 268.449 52.464,267.813 52.850,267.722 52.850 C 267.510 52.850,265.539 54.857,265.026 55.594 C 264.812 55.901,264.425 56.451,264.165 56.816 C 262.891 58.606,263.092 64.617,264.515 67.284 C 264.939 68.077,265.285 68.866,265.285 69.038 C 265.285 69.209,265.528 69.569,265.824 69.838 C 266.121 70.107,266.528 70.718,266.728 71.197 C 266.928 71.675,267.384 72.415,267.743 72.841 C 268.101 73.267,268.394 73.736,268.394 73.885 C 268.394 74.033,268.744 74.553,269.171 75.040 C 269.598 75.526,269.953 76.066,269.959 76.240 C 269.965 76.413,270.314 76.958,270.736 77.451 C 271.158 77.945,271.503 78.489,271.503 78.662 C 271.503 78.835,271.773 79.305,272.103 79.708 C 272.433 80.111,272.852 80.811,273.033 81.264 C 273.215 81.716,273.579 82.282,273.843 82.521 C 274.107 82.760,274.399 83.303,274.493 83.728 C 274.586 84.152,275.001 85.143,275.414 85.929 C 275.828 86.715,276.166 87.537,276.166 87.755 C 276.166 87.973,276.396 88.524,276.677 88.979 C 276.958 89.434,277.364 90.560,277.577 91.482 C 277.791 92.404,278.131 93.502,278.333 93.923 C 278.535 94.345,278.826 95.447,278.981 96.373 C 279.136 97.299,279.401 98.815,279.569 99.741 C 280.335 103.947,279.601 114.792,278.368 117.476 C 278.169 117.909,277.814 119.022,277.581 119.948 C 277.347 120.874,276.946 122.098,276.690 122.668 C 276.434 123.238,276.142 124.113,276.040 124.611 C 275.939 125.110,275.586 125.988,275.256 126.562 C 274.926 127.137,274.570 128.069,274.465 128.635 C 274.359 129.200,274.015 130.074,273.698 130.577 C 273.382 131.079,273.040 131.869,272.939 132.332 C 272.837 132.796,272.484 133.667,272.154 134.269 C 271.824 134.870,271.476 135.737,271.380 136.194 C 271.285 136.651,270.919 137.622,270.567 138.352 C 270.215 139.082,269.856 140.048,269.769 140.500 C 269.682 140.952,269.336 141.951,268.999 142.721 C 268.663 143.491,268.313 144.598,268.223 145.182 C 268.132 145.766,267.800 146.834,267.484 147.556 C 267.168 148.278,266.824 149.668,266.720 150.645 C 266.615 151.622,266.226 153.305,265.854 154.384 L 265.179 156.347 265.167 166.321 L 265.155 176.295 265.835 178.238 C 266.209 179.307,266.598 180.645,266.700 181.213 C 266.802 181.780,267.224 182.888,267.639 183.674 C 268.054 184.460,268.393 185.261,268.393 185.452 C 268.394 185.644,268.630 186.133,268.919 186.538 C 269.208 186.944,269.621 187.661,269.837 188.133 C 270.815 190.265,273.298 193.440,276.295 196.389 C 277.901 197.970,282.423 201.554,282.810 201.554 C 282.890 201.554,283.439 201.879,284.030 202.276 C 284.620 202.673,285.512 203.158,286.010 203.355 C 286.509 203.551,287.092 203.844,287.306 204.005 C 288.022 204.545,291.566 206.171,293.005 206.619 C 293.789 206.864,294.554 207.160,294.705 207.279 C 294.856 207.398,296.014 207.736,297.280 208.031 C 298.545 208.326,299.704 208.667,299.855 208.788 C 301.617 210.207,321.192 210.222,323.835 208.808 C 324.055 208.690,324.990 208.399,325.913 208.161 C 326.836 207.923,328.327 207.389,329.228 206.973 C 330.128 206.558,331.018 206.218,331.204 206.218 C 331.390 206.218,331.695 206.034,331.882 205.809 C 332.069 205.584,332.753 205.128,333.403 204.795 C 335.369 203.788,339.634 199.176,339.637 198.053 C 339.637 197.909,339.852 197.384,340.114 196.887 C 341.263 194.715,341.352 190.921,340.304 188.820 C 340.087 188.386,339.835 187.633,339.744 187.147 C 339.653 186.661,338.863 185.167,337.989 183.827 C 337.114 182.487,336.198 181.061,335.953 180.657 C 335.199 179.414,334.889 178.925,334.176 177.850 C 333.798 177.280,333.399 176.522,333.289 176.166 C 333.179 175.810,332.879 175.249,332.622 174.919 C 332.364 174.590,332.014 173.890,331.842 173.365 C 331.671 172.839,331.321 172.140,331.065 171.810 C 330.809 171.481,330.462 170.795,330.294 170.285 C 330.126 169.776,329.711 168.951,329.372 168.452 C 329.034 167.953,328.756 167.324,328.756 167.054 C 328.756 166.785,328.446 165.840,328.066 164.953 C 327.687 164.067,327.229 162.642,327.049 161.788 C 326.869 160.933,326.530 159.713,326.297 159.077 C 325.005 155.566,325.082 143.306,326.411 140.701 C 326.709 140.117,327.026 139.105,327.115 138.453 C 327.205 137.800,327.551 136.864,327.884 136.373 C 328.218 135.881,328.566 135.161,328.658 134.773 C 328.749 134.385,329.085 133.716,329.404 133.288 C 329.723 132.859,330.068 132.120,330.173 131.646 C 330.277 131.173,330.700 130.142,331.114 129.356 C 331.527 128.570,331.865 127.643,331.865 127.297 C 331.865 126.950,332.157 126.092,332.513 125.389 C 332.869 124.686,333.265 123.379,333.394 122.483 C 333.523 121.588,333.856 120.272,334.135 119.560 C 334.414 118.847,334.779 117.215,334.946 115.933 C 335.113 114.650,335.429 112.552,335.648 111.269 C 336.208 107.985,336.530 102.061,336.380 97.798 C 336.257 94.328,336.121 93.252,335.361 89.767 C 335.174 88.912,334.951 87.444,334.865 86.505 C 334.779 85.566,334.419 84.058,334.064 83.153 C 333.710 82.248,333.420 81.255,333.420 80.946 C 333.420 80.637,333.070 79.728,332.642 78.927 C 332.215 78.126,331.865 77.265,331.864 77.013 C 331.864 76.761,331.514 76.030,331.088 75.389 C 330.662 74.747,330.312 74.048,330.311 73.834 C 330.310 73.620,329.960 72.921,329.534 72.280 C 329.107 71.639,328.758 70.986,328.758 70.830 C 328.757 70.674,328.511 70.325,328.212 70.054 C 327.912 69.783,327.488 69.211,327.269 68.783 C 327.050 68.355,326.785 67.947,326.681 67.876 C 326.576 67.804,326.212 67.338,325.872 66.839 C 324.641 65.034,322.911 63.277,320.207 61.088 C 319.281 60.338,318.465 59.655,318.394 59.571 C 318.323 59.486,317.885 59.197,317.422 58.927 C 316.959 58.658,316.580 58.357,316.580 58.259 C 316.580 58.161,316.056 57.773,315.415 57.397 C 314.773 57.021,314.249 56.626,314.249 56.518 C 314.249 56.410,313.837 56.173,313.334 55.991 C 312.831 55.809,312.115 55.378,311.742 55.032 C 311.369 54.687,310.877 54.404,310.649 54.403 C 310.420 54.402,309.709 54.053,309.067 53.627 C 308.426 53.201,307.714 52.851,307.484 52.851 C 307.255 52.850,306.629 52.553,306.094 52.190 C 305.559 51.827,304.756 51.461,304.310 51.376 C 303.863 51.292,303.031 50.996,302.461 50.718 C 301.558 50.278,297.629 49.156,294.430 48.425 C 293.049 48.109,282.537 47.919,279.922 48.162 " stroke="none" fill="#ec1d2d" fill-rule="evenodd"></path><path id="path1" d="M0.000 129.534 L 0.000 259.067 200.000 259.067 L 400.000 259.067 400.000 129.534 L 400.000 0.000 200.000 0.000 L 0.000 0.000 0.000 129.534 M86.185 48.210 C 88.006 48.366,89.795 48.648,90.159 48.836 C 90.524 49.025,91.751 49.370,92.885 49.604 C 94.020 49.838,95.190 50.186,95.485 50.379 C 95.780 50.571,96.538 50.868,97.169 51.037 C 97.800 51.207,99.016 51.674,99.870 52.075 C 100.725 52.476,101.833 52.989,102.332 53.215 C 102.830 53.440,103.821 53.972,104.534 54.397 C 105.246 54.822,106.298 55.399,106.872 55.680 C 107.446 55.961,108.195 56.488,108.537 56.852 C 108.878 57.215,109.253 57.513,109.369 57.513 C 109.605 57.513,111.607 58.968,112.859 60.050 C 113.305 60.436,114.094 61.101,114.611 61.528 C 115.889 62.584,118.857 65.584,119.388 66.356 C 119.625 66.701,120.019 67.213,120.263 67.494 C 120.991 68.330,121.962 69.750,122.563 70.855 C 122.873 71.425,123.223 71.953,123.340 72.030 C 123.458 72.106,123.844 72.824,124.199 73.625 C 124.553 74.426,124.952 75.150,125.086 75.232 C 125.220 75.315,125.412 75.819,125.512 76.352 C 125.612 76.886,126.033 77.965,126.447 78.752 C 126.862 79.538,127.201 80.453,127.202 80.785 C 127.202 81.117,127.494 82.118,127.851 83.010 C 128.208 83.902,128.615 85.495,128.756 86.551 C 128.896 87.607,129.196 89.229,129.421 90.155 C 130.534 94.726,130.483 106.852,129.328 112.694 C 129.032 114.190,128.679 116.231,128.544 117.228 C 128.409 118.225,128.100 119.566,127.857 120.207 C 127.614 120.848,127.309 122.030,127.178 122.832 C 127.048 123.635,126.665 124.917,126.327 125.682 C 125.990 126.447,125.631 127.561,125.531 128.159 C 125.430 128.756,125.189 129.377,124.994 129.539 C 124.799 129.700,124.441 130.436,124.199 131.173 C 123.956 131.910,123.549 132.782,123.294 133.111 C 123.039 133.439,122.630 134.314,122.386 135.054 C 122.141 135.794,121.789 136.634,121.603 136.921 C 121.417 137.208,121.072 138.198,120.837 139.123 C 120.603 140.047,120.292 140.949,120.147 141.127 C 118.979 142.567,118.928 155.966,120.080 158.725 C 120.287 159.220,120.694 160.627,120.985 161.852 C 121.276 163.078,121.615 164.206,121.738 164.359 C 121.862 164.512,122.173 165.337,122.429 166.192 C 122.686 167.047,123.034 167.921,123.202 168.135 C 123.371 168.348,123.706 169.129,123.946 169.869 C 124.187 170.609,124.588 171.483,124.838 171.812 C 125.088 172.140,125.498 172.962,125.749 173.637 C 126.001 174.313,126.324 174.937,126.467 175.026 C 126.610 175.114,126.951 175.669,127.225 176.259 C 127.942 177.800,128.961 179.565,129.486 180.174 C 130.220 181.024,131.865 183.565,131.865 183.847 C 131.865 183.990,132.151 184.375,132.500 184.702 C 132.848 185.030,133.210 185.645,133.303 186.069 C 133.396 186.493,133.780 187.499,134.155 188.303 C 135.164 190.467,135.157 194.839,134.140 196.762 C 133.764 197.474,133.373 198.348,133.273 198.705 C 133.172 199.061,132.785 199.727,132.413 200.186 C 131.183 201.700,128.033 204.663,127.653 204.663 C 127.518 204.663,126.889 205.013,126.255 205.440 C 125.622 205.868,124.979 206.218,124.828 206.218 C 124.676 206.218,124.012 206.511,123.351 206.869 C 122.313 207.432,119.860 208.230,116.580 209.071 C 111.745 210.311,96.535 210.143,94.068 208.822 C 93.802 208.680,92.551 208.333,91.288 208.050 C 90.024 207.767,88.507 207.300,87.917 207.014 C 87.327 206.727,86.357 206.383,85.761 206.249 C 85.165 206.115,84.482 205.838,84.243 205.634 C 84.004 205.429,83.284 205.059,82.642 204.811 C 82.001 204.563,81.302 204.215,81.088 204.036 C 80.874 203.858,80.291 203.551,79.793 203.354 C 79.294 203.156,78.204 202.525,77.371 201.951 C 76.537 201.377,75.481 200.674,75.023 200.389 C 73.499 199.440,68.965 195.467,68.005 194.238 C 67.863 194.056,67.327 193.383,66.815 192.743 C 66.303 192.104,65.584 191.103,65.219 190.521 C 64.853 189.938,64.384 189.291,64.176 189.084 C 63.969 188.876,63.710 188.420,63.601 188.071 C 63.492 187.721,63.181 187.120,62.910 186.734 C 62.638 186.349,62.295 185.649,62.146 185.180 C 61.997 184.710,61.598 183.744,61.258 183.031 C 60.918 182.319,60.469 180.978,60.261 180.052 C 60.052 179.126,59.680 177.727,59.433 176.943 C 58.500 173.982,58.861 156.040,59.892 154.067 C 60.027 153.810,60.316 152.476,60.535 151.102 C 60.754 149.728,61.155 148.191,61.425 147.687 C 61.696 147.182,61.917 146.525,61.917 146.225 C 61.917 145.615,62.892 142.499,63.208 142.098 C 63.321 141.956,63.496 141.315,63.597 140.674 C 63.698 140.032,64.050 139.038,64.381 138.464 C 64.711 137.889,65.067 136.957,65.173 136.391 C 65.278 135.825,65.623 134.952,65.939 134.449 C 66.255 133.947,66.602 133.131,66.710 132.636 C 66.818 132.141,67.241 131.107,67.650 130.339 C 68.059 129.571,68.395 128.755,68.397 128.526 C 68.399 128.296,68.674 127.630,69.009 127.044 C 69.344 126.458,69.702 125.532,69.804 124.986 C 69.907 124.439,70.257 123.461,70.582 122.812 C 70.907 122.163,71.254 121.166,71.353 120.596 C 71.452 120.026,71.777 118.918,72.076 118.135 C 72.374 117.351,72.763 115.719,72.941 114.508 C 73.119 113.297,73.468 111.023,73.717 109.456 C 74.274 105.956,74.277 105.212,73.755 101.943 C 73.527 100.518,73.210 98.420,73.051 97.280 C 72.891 96.140,72.486 94.449,72.151 93.523 C 71.815 92.597,71.460 91.431,71.361 90.933 C 71.262 90.434,70.915 89.560,70.590 88.990 C 70.265 88.420,69.916 87.545,69.816 87.047 C 69.715 86.548,69.372 85.790,69.054 85.363 C 68.736 84.935,68.390 84.236,68.285 83.808 C 68.180 83.381,67.829 82.681,67.504 82.254 C 67.180 81.826,66.830 81.211,66.727 80.886 C 66.625 80.562,65.894 79.338,65.105 78.166 C 64.315 76.995,63.604 75.861,63.526 75.648 C 63.448 75.434,63.083 74.894,62.715 74.448 C 62.348 74.002,61.697 73.030,61.269 72.290 C 60.842 71.549,60.215 70.517,59.877 69.998 C 59.539 69.478,59.098 68.589,58.899 68.024 C 58.699 67.458,58.375 66.814,58.180 66.593 C 57.293 65.593,56.878 59.963,57.550 58.036 C 58.434 55.499,61.057 52.861,64.378 51.167 C 65.091 50.803,65.965 50.336,66.321 50.127 C 66.677 49.919,67.166 49.747,67.407 49.745 C 67.648 49.743,68.676 49.441,69.692 49.075 C 72.688 47.994,79.484 47.638,86.185 48.210 M189.119 48.169 C 190.473 48.291,192.337 48.647,193.262 48.960 C 194.186 49.273,195.564 49.630,196.323 49.754 C 197.081 49.877,198.328 50.275,199.094 50.637 C 199.860 50.999,200.676 51.295,200.909 51.295 C 201.142 51.295,202.052 51.663,202.933 52.112 C 205.419 53.380,206.010 53.681,207.135 54.257 C 207.711 54.552,208.545 55.055,208.989 55.376 C 209.432 55.696,209.902 55.959,210.032 55.959 C 210.163 55.959,210.661 56.308,211.140 56.736 C 211.619 57.163,212.105 57.513,212.221 57.513 C 213.134 57.513,222.397 66.030,223.483 67.869 C 223.738 68.300,224.036 68.653,224.146 68.653 C 224.255 68.653,224.520 69.071,224.734 69.583 C 224.948 70.094,225.415 70.861,225.774 71.287 C 226.132 71.712,226.425 72.197,226.426 72.364 C 226.427 72.532,226.776 73.193,227.202 73.834 C 227.628 74.475,227.978 75.206,227.978 75.458 C 227.979 75.710,228.329 76.572,228.756 77.373 C 229.184 78.174,229.534 79.050,229.534 79.320 C 229.534 79.589,229.814 80.363,230.157 81.040 C 230.500 81.716,230.862 82.849,230.963 83.557 C 231.227 85.421,231.755 87.653,232.072 88.243 C 233.249 90.443,233.084 110.440,231.850 115.176 C 231.556 116.305,231.165 118.161,230.981 119.301 C 230.796 120.440,230.401 122.073,230.102 122.927 C 229.803 123.782,229.390 125.006,229.184 125.648 C 228.310 128.370,227.415 130.714,226.966 131.457 C 226.701 131.895,226.396 132.544,226.288 132.898 C 226.180 133.253,225.828 133.952,225.505 134.453 C 225.182 134.953,224.834 135.766,224.732 136.259 C 224.630 136.752,224.325 137.580,224.055 138.098 C 223.785 138.617,223.387 139.904,223.170 140.958 C 222.954 142.013,222.615 143.342,222.417 143.912 C 221.656 146.104,221.758 153.338,222.596 156.606 C 222.815 157.461,223.140 158.977,223.317 159.974 C 223.495 160.972,223.863 162.285,224.135 162.894 C 224.407 163.502,224.729 164.534,224.851 165.188 C 224.973 165.842,225.316 166.706,225.614 167.108 C 225.912 167.511,226.266 168.333,226.401 168.935 C 226.537 169.538,226.870 170.333,227.143 170.702 C 227.415 171.071,227.780 171.803,227.953 172.328 C 228.126 172.854,228.478 173.553,228.736 173.883 C 228.993 174.212,229.292 174.773,229.401 175.130 C 229.510 175.486,229.934 176.237,230.344 176.800 C 230.753 177.362,231.091 177.945,231.095 178.095 C 231.099 178.245,231.449 178.826,231.872 179.386 C 232.296 179.945,232.642 180.543,232.642 180.714 C 232.642 180.885,232.829 181.180,233.057 181.369 C 236.861 184.526,238.854 194.518,236.400 198.130 C 236.043 198.655,235.751 199.227,235.751 199.402 C 235.751 199.948,231.209 204.332,230.018 204.936 C 229.395 205.252,228.827 205.602,228.754 205.713 C 228.681 205.825,227.982 206.169,227.200 206.477 C 226.418 206.786,225.662 207.134,225.519 207.252 C 225.376 207.370,224.501 207.658,223.575 207.892 C 222.649 208.126,221.308 208.534,220.596 208.800 C 218.097 209.731,209.652 210.306,204.793 209.876 C 199.957 209.448,197.080 209.072,196.778 208.828 C 196.461 208.572,193.438 207.772,192.786 207.772 C 192.546 207.772,191.934 207.549,191.426 207.277 C 190.918 207.005,189.881 206.597,189.120 206.371 C 188.360 206.146,187.553 205.796,187.327 205.594 C 187.102 205.393,186.247 205.034,185.427 204.798 C 184.608 204.561,183.938 204.273,183.938 204.158 C 183.938 204.043,183.569 203.796,183.119 203.610 C 182.668 203.423,181.739 202.884,181.053 202.412 C 180.367 201.941,179.707 201.554,179.587 201.554 C 179.466 201.554,178.976 201.205,178.497 200.777 C 178.019 200.350,177.494 200.000,177.332 200.000 C 177.169 200.000,176.795 199.738,176.501 199.417 C 176.206 199.097,175.466 198.426,174.855 197.927 C 172.835 196.277,169.773 193.044,168.653 191.380 C 168.297 190.851,167.918 190.417,167.811 190.416 C 167.704 190.415,167.617 190.263,167.617 190.077 C 167.617 189.891,167.284 189.279,166.878 188.717 C 166.471 188.154,166.009 187.310,165.851 186.841 C 165.693 186.371,165.340 185.672,165.068 185.286 C 164.795 184.901,164.491 184.211,164.392 183.754 C 164.293 183.297,163.946 182.364,163.620 181.682 C 163.294 180.999,162.951 179.858,162.857 179.145 C 162.764 178.433,162.457 176.917,162.175 175.777 C 161.196 171.822,161.255 159.986,162.267 157.097 C 162.462 156.542,162.704 155.117,162.807 153.929 C 162.909 152.742,163.262 151.052,163.591 150.173 C 163.919 149.294,164.275 147.934,164.380 147.150 C 164.486 146.367,164.839 145.171,165.165 144.493 C 165.491 143.815,165.838 142.766,165.935 142.161 C 166.033 141.557,166.377 140.580,166.701 139.990 C 167.024 139.400,167.372 138.467,167.472 137.917 C 167.573 137.367,167.928 136.425,168.262 135.823 C 168.595 135.221,168.951 134.350,169.053 133.887 C 169.154 133.424,169.495 132.634,169.810 132.131 C 170.125 131.629,170.462 130.811,170.559 130.315 C 170.657 129.819,171.007 129.003,171.338 128.502 C 171.669 128.001,172.026 127.131,172.131 126.569 C 172.236 126.007,172.590 125.016,172.917 124.367 C 173.245 123.718,173.599 122.662,173.704 122.021 C 173.810 121.380,174.104 120.445,174.358 119.943 C 174.612 119.441,175.019 117.984,175.261 116.705 C 175.503 115.425,175.857 113.912,176.048 113.342 C 177.229 109.810,177.100 101.339,175.798 96.891 C 175.610 96.250,175.315 94.974,175.143 94.055 C 174.970 93.137,174.605 91.947,174.332 91.410 C 174.058 90.874,173.834 90.216,173.834 89.948 C 173.834 89.680,173.497 88.772,173.085 87.930 C 172.672 87.088,172.200 85.971,172.035 85.448 C 171.870 84.925,171.573 84.363,171.374 84.198 C 171.175 84.033,170.827 83.338,170.599 82.653 C 170.372 81.968,169.958 81.201,169.678 80.949 C 169.399 80.696,169.171 80.353,169.171 80.187 C 169.171 80.020,168.763 79.310,168.264 78.609 C 167.766 77.907,167.358 77.201,167.358 77.040 C 167.358 76.879,167.181 76.601,166.966 76.423 C 166.474 76.014,164.249 72.683,164.249 72.355 C 164.249 72.221,163.963 71.843,163.614 71.515 C 163.266 71.188,162.908 70.590,162.819 70.187 C 162.731 69.784,162.449 69.187,162.193 68.859 C 159.819 65.825,159.172 60.158,160.861 57.188 C 162.004 55.179,165.484 51.951,167.422 51.102 C 168.242 50.744,168.912 50.354,168.912 50.237 C 168.912 50.120,169.349 49.946,169.883 49.852 C 170.418 49.758,171.608 49.385,172.527 49.024 C 175.051 48.033,183.058 47.620,189.119 48.169 M294.430 48.425 C 297.629 49.156,301.558 50.278,302.461 50.718 C 303.031 50.996,303.863 51.292,304.310 51.376 C 304.756 51.461,305.559 51.827,306.094 52.190 C 306.629 52.553,307.255 52.850,307.484 52.851 C 307.714 52.851,308.426 53.201,309.067 53.627 C 309.709 54.053,310.420 54.402,310.649 54.403 C 310.877 54.404,311.369 54.687,311.742 55.032 C 312.115 55.378,312.831 55.809,313.334 55.991 C 313.837 56.173,314.249 56.410,314.249 56.518 C 314.249 56.626,314.773 57.021,315.415 57.397 C 316.056 57.773,316.580 58.161,316.580 58.259 C 316.580 58.357,316.959 58.658,317.422 58.927 C 317.885 59.197,318.323 59.486,318.394 59.571 C 318.465 59.655,319.281 60.338,320.207 61.088 C 322.911 63.277,324.641 65.034,325.872 66.839 C 326.212 67.338,326.576 67.804,326.681 67.876 C 326.785 67.947,327.050 68.355,327.269 68.783 C 327.488 69.211,327.912 69.783,328.212 70.054 C 328.511 70.325,328.757 70.674,328.758 70.830 C 328.758 70.986,329.107 71.639,329.534 72.280 C 329.960 72.921,330.310 73.620,330.311 73.834 C 330.312 74.048,330.662 74.747,331.088 75.389 C 331.514 76.030,331.864 76.761,331.864 77.013 C 331.865 77.265,332.215 78.126,332.642 78.927 C 333.070 79.728,333.420 80.637,333.420 80.946 C 333.420 81.255,333.710 82.248,334.064 83.153 C 334.419 84.058,334.779 85.566,334.865 86.505 C 334.951 87.444,335.174 88.912,335.361 89.767 C 336.121 93.252,336.257 94.328,336.380 97.798 C 336.530 102.061,336.208 107.985,335.648 111.269 C 335.429 112.552,335.113 114.650,334.946 115.933 C 334.779 117.215,334.414 118.847,334.135 119.560 C 333.856 120.272,333.523 121.588,333.394 122.483 C 333.265 123.379,332.869 124.686,332.513 125.389 C 332.157 126.092,331.865 126.950,331.865 127.297 C 331.865 127.643,331.527 128.570,331.114 129.356 C 330.700 130.142,330.277 131.173,330.173 131.646 C 330.068 132.120,329.723 132.859,329.404 133.288 C 329.085 133.716,328.749 134.385,328.658 134.773 C 328.566 135.161,328.218 135.881,327.884 136.373 C 327.551 136.864,327.205 137.800,327.115 138.453 C 327.026 139.105,326.709 140.117,326.411 140.701 C 325.082 143.306,325.005 155.566,326.297 159.077 C 326.530 159.713,326.869 160.933,327.049 161.788 C 327.229 162.642,327.687 164.067,328.066 164.953 C 328.446 165.840,328.756 166.785,328.756 167.054 C 328.756 167.324,329.034 167.953,329.372 168.452 C 329.711 168.951,330.126 169.776,330.294 170.285 C 330.462 170.795,330.809 171.481,331.065 171.810 C 331.321 172.140,331.671 172.839,331.842 173.365 C 332.014 173.890,332.364 174.590,332.622 174.919 C 332.879 175.249,333.179 175.810,333.289 176.166 C 333.399 176.522,333.798 177.280,334.176 177.850 C 334.889 178.925,335.199 179.414,335.953 180.657 C 336.198 181.061,337.114 182.487,337.989 183.827 C 338.863 185.167,339.653 186.661,339.744 187.147 C 339.835 187.633,340.087 188.386,340.304 188.820 C 341.352 190.921,341.263 194.715,340.114 196.887 C 339.852 197.384,339.637 197.909,339.637 198.053 C 339.634 199.176,335.369 203.788,333.403 204.795 C 332.753 205.128,332.069 205.584,331.882 205.809 C 331.695 206.034,331.390 206.218,331.204 206.218 C 331.018 206.218,330.128 206.558,329.228 206.973 C 328.327 207.389,326.836 207.923,325.913 208.161 C 324.990 208.399,324.055 208.690,323.835 208.808 C 321.192 210.222,301.617 210.207,299.855 208.788 C 299.704 208.667,298.545 208.326,297.280 208.031 C 296.014 207.736,294.856 207.398,294.705 207.279 C 294.554 207.160,293.789 206.864,293.005 206.619 C 291.566 206.171,288.022 204.545,287.306 204.005 C 287.092 203.844,286.509 203.551,286.010 203.355 C 285.512 203.158,284.620 202.673,284.030 202.276 C 283.439 201.879,282.890 201.554,282.810 201.554 C 282.423 201.554,277.901 197.970,276.295 196.389 C 273.298 193.440,270.815 190.265,269.837 188.133 C 269.621 187.661,269.208 186.944,268.919 186.538 C 268.630 186.133,268.394 185.644,268.393 185.452 C 268.393 185.261,268.054 184.460,267.639 183.674 C 267.224 182.888,266.802 181.780,266.700 181.213 C 266.598 180.645,266.209 179.307,265.835 178.238 L 265.155 176.295 265.167 166.321 L 265.179 156.347 265.854 154.384 C 266.226 153.305,266.615 151.622,266.720 150.645 C 266.824 149.668,267.168 148.278,267.484 147.556 C 267.800 146.834,268.132 145.766,268.223 145.182 C 268.313 144.598,268.663 143.491,268.999 142.721 C 269.336 141.951,269.682 140.952,269.769 140.500 C 269.856 140.048,270.215 139.082,270.567 138.352 C 270.919 137.622,271.285 136.651,271.380 136.194 C 271.476 135.737,271.824 134.870,272.154 134.269 C 272.484 133.667,272.837 132.796,272.939 132.332 C 273.040 131.869,273.382 131.079,273.698 130.577 C 274.015 130.074,274.359 129.200,274.465 128.635 C 274.570 128.069,274.926 127.137,275.256 126.562 C 275.586 125.988,275.939 125.110,276.040 124.611 C 276.142 124.113,276.434 123.238,276.690 122.668 C 276.946 122.098,277.347 120.874,277.581 119.948 C 277.814 119.022,278.169 117.909,278.368 117.476 C 279.601 114.792,280.335 103.947,279.569 99.741 C 279.401 98.815,279.136 97.299,278.981 96.373 C 278.826 95.447,278.535 94.345,278.333 93.923 C 278.131 93.502,277.791 92.404,277.577 91.482 C 277.364 90.560,276.958 89.434,276.677 88.979 C 276.396 88.524,276.166 87.973,276.166 87.755 C 276.166 87.537,275.828 86.715,275.414 85.929 C 275.001 85.143,274.586 84.152,274.493 83.728 C 274.399 83.303,274.107 82.760,273.843 82.521 C 273.579 82.282,273.215 81.716,273.033 81.264 C 272.852 80.811,272.433 80.111,272.103 79.708 C 271.773 79.305,271.503 78.835,271.503 78.662 C 271.503 78.489,271.158 77.945,270.736 77.451 C 270.314 76.958,269.965 76.413,269.959 76.240 C 269.953 76.066,269.598 75.526,269.171 75.040 C 268.744 74.553,268.394 74.033,268.394 73.885 C 268.394 73.736,268.101 73.267,267.743 72.841 C 267.384 72.415,266.928 71.675,266.728 71.197 C 266.528 70.718,266.121 70.107,265.824 69.838 C 265.528 69.569,265.285 69.209,265.285 69.038 C 265.285 68.866,264.939 68.077,264.515 67.284 C 263.092 64.617,262.891 58.606,264.165 56.816 C 264.425 56.451,264.812 55.901,265.026 55.594 C 265.539 54.857,267.510 52.850,267.722 52.850 C 267.813 52.850,268.449 52.464,269.135 51.992 C 269.821 51.520,270.751 50.981,271.202 50.795 C 271.652 50.608,272.021 50.366,272.021 50.256 C 272.021 50.147,272.458 49.979,272.992 49.884 C 273.527 49.788,274.838 49.405,275.907 49.032 C 278.873 47.999,290.848 47.606,294.430 48.425 " stroke="none" fill="#fcfcfc" fill-rule="evenodd"></path></g></svg>