<svg id="svg" version="1.1" xmlns="http://www.w3.org/2000/svg" xmlns:xlink="http://www.w3.org/1999/xlink" width="400" height="258.91472868217056" viewBox="0, 0, 400,258.91472868217056"><g id="svgg"><path id="path0" d="M177.591 42.639 C 176.878 42.840,175.262 43.176,173.998 43.386 C 172.735 43.595,171.321 43.991,170.857 44.265 C 170.392 44.539,169.619 44.849,169.138 44.953 C 168.658 45.057,167.920 45.390,167.500 45.693 C 167.080 45.996,166.415 46.360,166.023 46.503 C 164.846 46.930,159.585 51.710,159.585 52.351 C 159.585 52.470,159.307 52.977,158.968 53.478 C 158.236 54.556,157.513 57.537,157.513 59.475 C 157.513 61.555,158.371 65.628,158.955 66.321 C 159.136 66.535,159.485 67.234,159.733 67.876 C 159.980 68.517,160.398 69.282,160.661 69.576 C 160.924 69.870,161.140 70.194,161.140 70.295 C 161.140 70.396,161.548 71.072,162.047 71.797 C 162.545 72.522,162.953 73.232,162.953 73.374 C 162.953 73.517,163.256 73.999,163.626 74.446 C 164.518 75.525,166.062 78.017,166.062 78.379 C 166.062 78.537,166.354 78.940,166.710 79.275 C 167.066 79.609,167.358 80.021,167.358 80.190 C 167.358 80.359,167.664 80.949,168.038 81.500 C 168.412 82.051,168.881 82.965,169.081 83.531 C 169.280 84.097,169.624 84.759,169.843 85.001 C 170.063 85.244,170.411 85.999,170.615 86.679 C 170.820 87.359,171.220 88.309,171.504 88.791 C 171.788 89.273,172.021 89.850,172.021 90.075 C 172.021 90.299,172.361 91.487,172.777 92.715 C 173.244 94.093,173.646 96.022,173.826 97.750 C 173.987 99.291,174.230 100.843,174.365 101.199 C 174.674 102.012,174.658 104.134,174.330 105.829 C 174.192 106.541,173.965 108.348,173.825 109.845 C 173.678 111.425,173.309 113.325,172.945 114.378 C 172.600 115.376,172.236 116.658,172.134 117.228 C 172.033 117.798,171.684 118.795,171.359 119.444 C 171.034 120.093,170.687 121.084,170.588 121.646 C 170.490 122.209,170.187 123.057,169.915 123.533 C 169.643 124.008,169.206 124.999,168.942 125.735 C 168.285 127.569,167.394 129.694,166.699 131.088 C 166.379 131.729,166.033 132.652,165.930 133.138 C 165.827 133.625,165.468 134.540,165.132 135.172 C 164.797 135.804,164.444 136.746,164.348 137.266 C 164.253 137.787,163.920 138.795,163.609 139.508 C 163.298 140.220,162.902 141.522,162.731 142.400 C 162.559 143.278,162.253 144.327,162.052 144.731 C 161.850 145.136,161.453 146.690,161.170 148.187 C 160.887 149.683,160.474 151.548,160.253 152.332 C 158.787 157.529,159.060 175.919,160.632 177.857 C 160.751 178.003,161.042 178.994,161.279 180.059 C 161.516 181.124,161.881 182.265,162.090 182.596 C 162.300 182.927,162.635 183.663,162.836 184.232 C 163.037 184.802,163.421 185.580,163.689 185.963 C 163.957 186.345,164.314 187.081,164.482 187.598 C 164.649 188.115,165.015 188.745,165.295 188.998 C 165.574 189.252,165.803 189.604,165.803 189.782 C 165.803 189.961,166.182 190.573,166.645 191.144 C 167.108 191.715,167.778 192.563,168.135 193.028 C 168.491 193.494,169.220 194.345,169.754 194.918 C 170.288 195.492,170.725 196.026,170.725 196.105 C 170.725 196.489,179.025 203.109,179.508 203.109 C 179.625 203.109,180.161 203.408,180.699 203.773 C 181.237 204.138,182.157 204.622,182.743 204.849 C 183.329 205.076,183.983 205.409,184.197 205.588 C 184.411 205.768,185.110 206.118,185.751 206.366 C 186.392 206.613,187.102 206.973,187.327 207.166 C 187.553 207.358,188.369 207.700,189.141 207.925 C 189.913 208.150,190.809 208.504,191.133 208.711 C 191.457 208.918,192.389 209.208,193.205 209.355 C 194.021 209.502,195.622 209.900,196.762 210.239 C 202.762 212.023,217.948 211.938,223.773 210.088 C 225.092 209.669,226.292 209.326,226.439 209.326 C 226.585 209.326,227.454 208.977,228.368 208.549 C 229.282 208.122,230.196 207.772,230.398 207.772 C 230.600 207.772,230.915 207.591,231.099 207.371 C 231.282 207.150,231.924 206.745,232.525 206.471 C 233.571 205.995,234.388 205.405,235.570 204.275 C 235.868 203.990,236.366 203.582,236.677 203.368 C 237.671 202.684,240.367 199.253,240.544 198.447 C 240.638 198.019,240.803 197.668,240.912 197.668 C 241.434 197.668,242.747 192.562,242.743 190.544 C 242.740 189.341,241.751 184.730,241.332 183.970 C 241.126 183.596,240.823 182.999,240.657 182.642 C 240.189 181.635,239.555 180.467,239.322 180.181 C 238.648 179.357,237.760 177.973,237.316 177.056 C 237.036 176.478,236.579 175.799,236.302 175.548 C 236.025 175.297,235.724 174.799,235.635 174.441 C 235.545 174.083,235.246 173.548,234.970 173.252 C 234.694 172.956,234.332 172.295,234.165 171.784 C 233.999 171.273,233.653 170.585,233.397 170.256 C 233.141 169.926,232.794 169.240,232.626 168.731 C 232.457 168.222,232.043 167.397,231.704 166.898 C 231.365 166.398,231.088 165.860,231.088 165.702 C 231.088 165.544,230.756 164.714,230.351 163.858 C 229.946 163.002,229.531 161.855,229.429 161.309 C 229.326 160.764,229.021 159.890,228.751 159.368 C 228.480 158.847,228.075 157.312,227.851 155.959 C 227.628 154.605,227.325 152.856,227.180 152.073 C 226.659 149.265,226.620 146.348,227.076 144.301 C 227.314 143.232,227.652 141.541,227.826 140.544 C 228.000 139.547,228.383 138.264,228.677 137.694 C 228.971 137.124,229.288 136.304,229.381 135.870 C 229.475 135.437,229.804 134.679,230.112 134.186 C 230.752 133.166,231.655 131.158,232.497 128.886 C 232.813 128.031,233.264 126.965,233.498 126.517 C 233.732 126.069,234.000 125.194,234.094 124.574 C 234.189 123.953,234.529 122.804,234.850 122.021 C 235.171 121.237,235.511 120.071,235.605 119.430 C 235.859 117.695,236.267 115.819,236.676 114.508 C 238.296 109.317,238.186 88.144,236.517 83.909 C 236.245 83.218,235.899 81.880,235.748 80.937 C 235.597 79.993,235.203 78.679,234.872 78.017 C 234.541 77.355,234.192 76.307,234.097 75.689 C 234.002 75.070,233.636 74.139,233.283 73.621 C 232.931 73.102,232.642 72.511,232.642 72.307 C 232.642 72.103,232.305 71.402,231.893 70.748 C 231.481 70.094,231.066 69.300,230.971 68.983 C 230.763 68.291,228.914 65.479,228.367 65.025 C 228.154 64.848,227.979 64.592,227.979 64.455 C 227.979 64.231,227.287 63.312,225.389 61.016 C 223.571 58.818,217.890 53.893,215.770 52.678 C 215.233 52.370,214.641 51.990,214.456 51.835 C 213.835 51.315,211.414 49.741,211.234 49.741 C 211.136 49.741,210.521 49.404,209.867 48.991 C 209.214 48.579,208.389 48.155,208.034 48.048 C 207.680 47.941,206.981 47.589,206.480 47.267 C 205.980 46.944,205.162 46.598,204.663 46.498 C 204.165 46.399,203.403 46.103,202.971 45.841 C 202.539 45.579,201.606 45.239,200.898 45.085 C 200.191 44.932,199.035 44.563,198.331 44.265 C 197.626 43.968,195.994 43.571,194.704 43.382 C 193.413 43.194,191.541 42.862,190.544 42.643 C 188.120 42.114,179.466 42.111,177.591 42.639 M190.508 53.729 C 191.953 54.071,193.718 54.429,194.430 54.527 C 195.142 54.624,195.967 54.858,196.262 55.048 C 196.558 55.237,197.315 55.531,197.946 55.700 C 198.577 55.870,199.793 56.337,200.648 56.738 C 201.503 57.140,202.610 57.655,203.109 57.883 C 204.443 58.494,206.002 59.377,206.917 60.039 C 207.360 60.359,207.842 60.622,207.988 60.622 C 208.134 60.622,208.407 60.770,208.595 60.951 C 208.784 61.132,209.288 61.544,209.715 61.866 C 211.423 63.152,212.015 63.631,212.736 64.313 C 213.150 64.705,213.573 65.027,213.675 65.028 C 213.992 65.032,216.747 67.706,217.252 68.502 C 217.732 69.256,218.160 69.795,219.481 71.307 C 219.865 71.746,220.317 72.437,220.484 72.841 C 220.651 73.245,220.876 73.575,220.984 73.575 C 221.092 73.575,221.440 74.187,221.758 74.935 C 222.076 75.683,222.479 76.470,222.652 76.684 C 222.826 76.898,223.116 77.597,223.296 78.238 C 223.477 78.880,223.840 79.757,224.103 80.187 C 224.366 80.618,224.694 81.668,224.832 82.519 C 224.970 83.371,225.318 84.663,225.606 85.391 C 226.601 87.908,227.616 101.397,226.978 103.627 C 226.835 104.126,226.583 106.339,226.418 108.545 C 226.251 110.764,225.963 112.852,225.773 113.220 C 225.584 113.585,225.191 115.145,224.899 116.686 C 224.607 118.227,224.256 119.623,224.119 119.788 C 223.982 119.953,223.671 120.901,223.428 121.896 C 223.185 122.891,222.784 124.054,222.536 124.482 C 222.287 124.909,221.889 125.862,221.650 126.599 C 221.411 127.336,221.047 128.079,220.841 128.250 C 220.635 128.421,220.465 128.692,220.463 128.853 C 220.461 129.014,220.122 129.811,219.709 130.625 C 219.296 131.439,218.817 132.547,218.643 133.086 C 218.470 133.626,218.119 134.537,217.863 135.111 C 217.606 135.685,217.202 137.376,216.964 138.868 C 216.727 140.360,216.404 142.222,216.248 143.005 C 215.526 146.615,216.530 158.425,217.777 160.999 C 217.981 161.420,218.325 162.526,218.541 163.457 C 218.756 164.388,219.085 165.384,219.271 165.670 C 219.457 165.957,219.816 166.833,220.067 167.617 C 220.319 168.400,220.697 169.315,220.907 169.650 C 221.117 169.985,221.513 170.909,221.787 171.704 C 222.060 172.500,222.439 173.333,222.628 173.557 C 222.817 173.781,223.132 174.372,223.329 174.870 C 223.525 175.369,223.952 176.172,224.278 176.655 C 224.604 177.138,224.874 177.663,224.878 177.821 C 224.882 177.979,225.231 178.567,225.655 179.126 C 226.078 179.686,226.425 180.241,226.425 180.360 C 226.425 180.478,227.124 181.604,227.979 182.860 C 228.834 184.117,229.534 185.246,229.534 185.369 C 229.534 185.493,229.812 185.891,230.153 186.255 C 233.084 189.389,231.145 195.083,226.434 197.175 C 225.798 197.457,225.099 197.840,224.880 198.025 C 224.661 198.210,223.782 198.572,222.927 198.828 C 222.073 199.084,221.247 199.392,221.094 199.512 C 220.940 199.632,220.008 199.850,219.021 199.997 C 218.035 200.143,216.354 200.405,215.285 200.577 C 212.850 200.971,207.483 200.965,204.922 200.565 C 203.854 200.398,202.222 200.157,201.295 200.028 C 200.369 199.900,198.716 199.491,197.623 199.120 C 196.529 198.749,195.421 198.442,195.162 198.437 C 194.902 198.433,193.993 198.083,193.141 197.660 C 192.290 197.237,191.402 196.891,191.168 196.891 C 190.935 196.891,190.465 196.679,190.126 196.420 C 189.786 196.161,189.100 195.790,188.601 195.596 C 188.102 195.401,187.365 194.972,186.962 194.642 C 186.559 194.312,186.068 194.041,185.870 194.041 C 185.672 194.041,185.112 193.692,184.625 193.264 C 184.138 192.837,183.655 192.487,183.551 192.487 C 182.100 192.487,174.508 184.008,173.624 181.400 C 173.465 180.931,173.108 180.228,172.830 179.837 C 172.552 179.447,172.238 178.669,172.133 178.108 C 172.028 177.547,171.665 176.461,171.326 175.696 C 170.845 174.608,170.679 173.673,170.566 171.414 C 170.487 169.824,170.257 168.084,170.056 167.547 C 169.590 166.306,169.592 164.837,170.062 162.270 C 170.267 161.150,170.512 158.951,170.607 157.383 C 170.712 155.662,170.986 153.918,171.299 152.979 C 171.584 152.124,171.972 150.472,172.162 149.308 C 172.352 148.144,172.738 146.739,173.020 146.186 C 173.302 145.634,173.648 144.604,173.789 143.899 C 173.930 143.194,174.345 141.917,174.711 141.062 C 175.077 140.207,175.379 139.288,175.382 139.020 C 175.386 138.752,175.611 138.169,175.882 137.725 C 176.153 137.281,176.555 136.334,176.774 135.622 C 176.993 134.909,177.466 133.744,177.826 133.031 C 178.187 132.319,178.485 131.575,178.489 131.378 C 178.494 131.181,178.716 130.656,178.984 130.212 C 179.252 129.768,179.609 128.938,179.779 128.368 C 179.948 127.798,180.375 126.739,180.726 126.014 C 181.078 125.289,181.436 124.240,181.521 123.682 C 181.606 123.125,181.945 122.085,182.275 121.373 C 182.604 120.661,183.003 119.266,183.161 118.274 C 183.318 117.282,183.557 116.339,183.690 116.178 C 184.701 114.960,185.584 103.203,184.978 99.033 C 184.838 98.069,184.612 96.203,184.475 94.888 C 184.338 93.572,184.048 92.115,183.832 91.649 C 183.616 91.184,183.263 89.942,183.047 88.889 C 182.832 87.837,182.494 86.729,182.297 86.428 C 182.100 86.127,181.738 85.181,181.493 84.326 C 181.248 83.472,180.882 82.514,180.679 82.198 C 180.477 81.883,180.130 81.093,179.910 80.442 C 179.689 79.792,179.222 78.839,178.873 78.324 C 178.524 77.810,178.238 77.277,178.238 77.141 C 178.238 77.005,177.976 76.527,177.655 76.080 C 177.335 75.632,176.869 74.856,176.621 74.356 C 176.373 73.855,175.703 72.746,175.133 71.891 C 174.563 71.036,173.955 70.045,173.781 69.689 C 173.608 69.333,173.141 68.659,172.743 68.190 C 172.346 67.722,172.021 67.226,172.021 67.087 C 172.021 66.948,171.671 66.352,171.244 65.762 C 170.816 65.172,170.466 64.552,170.466 64.385 C 170.466 64.217,170.186 63.817,169.843 63.495 C 169.501 63.173,169.146 62.482,169.056 61.960 C 168.965 61.438,168.762 60.683,168.605 60.284 C 168.394 59.747,168.396 59.479,168.615 59.260 C 168.779 59.097,168.912 58.765,168.912 58.522 C 168.912 58.060,171.229 55.959,171.738 55.959 C 171.899 55.959,172.516 55.652,173.109 55.278 C 173.768 54.862,175.152 54.398,176.666 54.085 C 178.030 53.804,179.320 53.473,179.534 53.349 C 180.438 52.826,187.759 53.080,190.508 53.729 " stroke="none" fill="#ec2027" fill-rule="evenodd"></path><path id="path1" d="M0.000 129.534 L 0.000 259.067 200.000 259.067 L 400.000 259.067 400.000 129.534 L 400.000 0.000 200.000 0.000 L 0.000 0.000 0.000 129.534 M190.544 42.643 C 191.541 42.862,193.413 43.194,194.704 43.382 C 195.994 43.571,197.626 43.968,198.331 44.265 C 199.035 44.563,200.191 44.932,200.898 45.085 C 201.606 45.239,202.539 45.579,202.971 45.841 C 203.403 46.103,204.165 46.399,204.663 46.498 C 205.162 46.598,205.980 46.944,206.480 47.267 C 206.981 47.589,207.680 47.941,208.034 48.048 C 208.389 48.155,209.214 48.579,209.867 48.991 C 210.521 49.404,211.136 49.741,211.234 49.741 C 211.414 49.741,213.835 51.315,214.456 51.835 C 214.641 51.990,215.233 52.370,215.770 52.678 C 217.890 53.893,223.571 58.818,225.389 61.016 C 227.287 63.312,227.979 64.231,227.979 64.455 C 227.979 64.592,228.154 64.848,228.367 65.025 C 228.914 65.479,230.763 68.291,230.971 68.983 C 231.066 69.300,231.481 70.094,231.893 70.748 C 232.305 71.402,232.642 72.103,232.642 72.307 C 232.642 72.511,232.931 73.102,233.283 73.621 C 233.636 74.139,234.002 75.070,234.097 75.689 C 234.192 76.307,234.541 77.355,234.872 78.017 C 235.203 78.679,235.597 79.993,235.748 80.937 C 235.899 81.880,236.245 83.218,236.517 83.909 C 238.186 88.144,238.296 109.317,236.676 114.508 C 236.267 115.819,235.859 117.695,235.605 119.430 C 235.511 120.071,235.171 121.237,234.850 122.021 C 234.529 122.804,234.189 123.953,234.094 124.574 C 234.000 125.194,233.732 126.069,233.498 126.517 C 233.264 126.965,232.813 128.031,232.497 128.886 C 231.655 131.158,230.752 133.166,230.112 134.186 C 229.804 134.679,229.475 135.437,229.381 135.870 C 229.288 136.304,228.971 137.124,228.677 137.694 C 228.383 138.264,228.000 139.547,227.826 140.544 C 227.652 141.541,227.314 143.232,227.076 144.301 C 226.620 146.348,226.659 149.265,227.180 152.073 C 227.325 152.856,227.628 154.605,227.851 155.959 C 228.075 157.312,228.480 158.847,228.751 159.368 C 229.021 159.890,229.326 160.764,229.429 161.309 C 229.531 161.855,229.946 163.002,230.351 163.858 C 230.756 164.714,231.088 165.544,231.088 165.702 C 231.088 165.860,231.365 166.398,231.704 166.898 C 232.043 167.397,232.457 168.222,232.626 168.731 C 232.794 169.240,233.141 169.926,233.397 170.256 C 233.653 170.585,233.999 171.273,234.165 171.784 C 234.332 172.295,234.694 172.956,234.970 173.252 C 235.246 173.548,235.545 174.083,235.635 174.441 C 235.724 174.799,236.025 175.297,236.302 175.548 C 236.579 175.799,237.036 176.478,237.316 177.056 C 237.760 177.973,238.648 179.357,239.322 180.181 C 239.555 180.467,240.189 181.635,240.657 182.642 C 240.823 182.999,241.126 183.596,241.332 183.970 C 241.751 184.730,242.740 189.341,242.743 190.544 C 242.747 192.562,241.434 197.668,240.912 197.668 C 240.803 197.668,240.638 198.019,240.544 198.447 C 240.367 199.253,237.671 202.684,236.677 203.368 C 236.366 203.582,235.868 203.990,235.570 204.275 C 234.388 205.405,233.571 205.995,232.525 206.471 C 231.924 206.745,231.282 207.150,231.099 207.371 C 230.915 207.591,230.600 207.772,230.398 207.772 C 230.196 207.772,229.282 208.122,228.368 208.549 C 227.454 208.977,226.585 209.326,226.439 209.326 C 226.292 209.326,225.092 209.669,223.773 210.088 C 217.948 211.938,202.762 212.023,196.762 210.239 C 195.622 209.900,194.021 209.502,193.205 209.355 C 192.389 209.208,191.457 208.918,191.133 208.711 C 190.809 208.504,189.913 208.150,189.141 207.925 C 188.369 207.700,187.553 207.358,187.327 207.166 C 187.102 206.973,186.392 206.613,185.751 206.366 C 185.110 206.118,184.411 205.768,184.197 205.588 C 183.983 205.409,183.329 205.076,182.743 204.849 C 182.157 204.622,181.237 204.138,180.699 203.773 C 180.161 203.408,179.625 203.109,179.508 203.109 C 179.025 203.109,170.725 196.489,170.725 196.105 C 170.725 196.026,170.288 195.492,169.754 194.918 C 169.220 194.345,168.491 193.494,168.135 193.028 C 167.778 192.563,167.108 191.715,166.645 191.144 C 166.182 190.573,165.803 189.961,165.803 189.782 C 165.803 189.604,165.574 189.252,165.295 188.998 C 165.015 188.745,164.649 188.115,164.482 187.598 C 164.314 187.081,163.957 186.345,163.689 185.963 C 163.421 185.580,163.037 184.802,162.836 184.232 C 162.635 183.663,162.300 182.927,162.090 182.596 C 161.881 182.265,161.516 181.124,161.279 180.059 C 161.042 178.994,160.751 178.003,160.632 177.857 C 159.060 175.919,158.787 157.529,160.253 152.332 C 160.474 151.548,160.887 149.683,161.170 148.187 C 161.453 146.690,161.850 145.136,162.052 144.731 C 162.253 144.327,162.559 143.278,162.731 142.400 C 162.902 141.522,163.298 140.220,163.609 139.508 C 163.920 138.795,164.253 137.787,164.348 137.266 C 164.444 136.746,164.797 135.804,165.132 135.172 C 165.468 134.540,165.827 133.625,165.930 133.138 C 166.033 132.652,166.379 131.729,166.699 131.088 C 167.394 129.694,168.285 127.569,168.942 125.735 C 169.206 124.999,169.643 124.008,169.915 123.533 C 170.187 123.057,170.490 122.209,170.588 121.646 C 170.687 121.084,171.034 120.093,171.359 119.444 C 171.684 118.795,172.033 117.798,172.134 117.228 C 172.236 116.658,172.600 115.376,172.945 114.378 C 173.309 113.325,173.678 111.425,173.825 109.845 C 173.965 108.348,174.192 106.541,174.330 105.829 C 174.658 104.134,174.674 102.012,174.365 101.199 C 174.230 100.843,173.987 99.291,173.826 97.750 C 173.646 96.022,173.244 94.093,172.777 92.715 C 172.361 91.487,172.021 90.299,172.021 90.075 C 172.021 89.850,171.788 89.273,171.504 88.791 C 171.220 88.309,170.820 87.359,170.615 86.679 C 170.411 85.999,170.063 85.244,169.843 85.001 C 169.624 84.759,169.280 84.097,169.081 83.531 C 168.881 82.965,168.412 82.051,168.038 81.500 C 167.664 80.949,167.358 80.359,167.358 80.190 C 167.358 80.021,167.066 79.609,166.710 79.275 C 166.354 78.940,166.062 78.537,166.062 78.379 C 166.062 78.017,164.518 75.525,163.626 74.446 C 163.256 73.999,162.953 73.517,162.953 73.374 C 162.953 73.232,162.545 72.522,162.047 71.797 C 161.548 71.072,161.140 70.396,161.140 70.295 C 161.140 70.194,160.924 69.870,160.661 69.576 C 160.398 69.282,159.980 68.517,159.733 67.876 C 159.485 67.234,159.136 66.535,158.955 66.321 C 158.371 65.628,157.513 61.555,157.513 59.475 C 157.513 57.537,158.236 54.556,158.968 53.478 C 159.307 52.977,159.585 52.470,159.585 52.351 C 159.585 51.710,164.846 46.930,166.023 46.503 C 166.415 46.360,167.080 45.996,167.500 45.693 C 167.920 45.390,168.658 45.057,169.138 44.953 C 169.619 44.849,170.392 44.539,170.857 44.265 C 171.321 43.991,172.735 43.595,173.998 43.386 C 175.262 43.176,176.878 42.840,177.591 42.639 C 179.466 42.111,188.120 42.114,190.544 42.643 M179.534 53.349 C 179.320 53.473,178.030 53.804,176.666 54.085 C 175.152 54.398,173.768 54.862,173.109 55.278 C 172.516 55.652,171.899 55.959,171.738 55.959 C 171.229 55.959,168.912 58.060,168.912 58.522 C 168.912 58.765,168.779 59.097,168.615 59.260 C 168.396 59.479,168.394 59.747,168.605 60.284 C 168.762 60.683,168.965 61.438,169.056 61.960 C 169.146 62.482,169.501 63.173,169.843 63.495 C 170.186 63.817,170.466 64.217,170.466 64.385 C 170.466 64.552,170.816 65.172,171.244 65.762 C 171.671 66.352,172.021 66.948,172.021 67.087 C 172.021 67.226,172.346 67.722,172.743 68.190 C 173.141 68.659,173.608 69.333,173.781 69.689 C 173.955 70.045,174.563 71.036,175.133 71.891 C 175.703 72.746,176.373 73.855,176.621 74.356 C 176.869 74.856,177.335 75.632,177.655 76.080 C 177.976 76.527,178.238 77.005,178.238 77.141 C 178.238 77.277,178.524 77.810,178.873 78.324 C 179.222 78.839,179.689 79.792,179.910 80.442 C 180.130 81.093,180.477 81.883,180.679 82.198 C 180.882 82.514,181.248 83.472,181.493 84.326 C 181.738 85.181,182.100 86.127,182.297 86.428 C 182.494 86.729,182.832 87.837,183.047 88.889 C 183.263 89.942,183.616 91.184,183.832 91.649 C 184.048 92.115,184.338 93.572,184.475 94.888 C 184.612 96.203,184.838 98.069,184.978 99.033 C 185.584 103.203,184.701 114.960,183.690 116.178 C 183.557 116.339,183.318 117.282,183.161 118.274 C 183.003 119.266,182.604 120.661,182.275 121.373 C 181.945 122.085,181.606 123.125,181.521 123.682 C 181.436 124.240,181.078 125.289,180.726 126.014 C 180.375 126.739,179.948 127.798,179.779 128.368 C 179.609 128.938,179.252 129.768,178.984 130.212 C 178.716 130.656,178.494 131.181,178.489 131.378 C 178.485 131.575,178.187 132.319,177.826 133.031 C 177.466 133.744,176.993 134.909,176.774 135.622 C 176.555 136.334,176.153 137.281,175.882 137.725 C 175.611 138.169,175.386 138.752,175.382 139.020 C 175.379 139.288,175.077 140.207,174.711 141.062 C 174.345 141.917,173.930 143.194,173.789 143.899 C 173.648 144.604,173.302 145.634,173.020 146.186 C 172.738 146.739,172.352 148.144,172.162 149.308 C 171.972 150.472,171.584 152.124,171.299 152.979 C 170.986 153.918,170.712 155.662,170.607 157.383 C 170.512 158.951,170.267 161.150,170.062 162.270 C 169.592 164.837,169.590 166.306,170.056 167.547 C 170.257 168.084,170.487 169.824,170.566 171.414 C 170.679 173.673,170.845 174.608,171.326 175.696 C 171.665 176.461,172.028 177.547,172.133 178.108 C 172.238 178.669,172.552 179.447,172.830 179.837 C 173.108 180.228,173.465 180.931,173.624 181.400 C 174.508 184.008,182.100 192.487,183.551 192.487 C 183.655 192.487,184.138 192.837,184.625 193.264 C 185.112 193.692,185.672 194.041,185.870 194.041 C 186.068 194.041,186.559 194.312,186.962 194.642 C 187.365 194.972,188.102 195.401,188.601 195.596 C 189.100 195.790,189.786 196.161,190.126 196.420 C 190.465 196.679,190.935 196.891,191.168 196.891 C 191.402 196.891,192.290 197.237,193.141 197.660 C 193.993 198.083,194.902 198.433,195.162 198.437 C 195.421 198.442,196.529 198.749,197.623 199.120 C 198.716 199.491,200.369 199.900,201.295 200.028 C 202.222 200.157,203.854 200.398,204.922 200.565 C 207.483 200.965,212.850 200.971,215.285 200.577 C 216.354 200.405,218.035 200.143,219.021 199.997 C 220.008 199.850,220.940 199.632,221.094 199.512 C 221.247 199.392,222.073 199.084,222.927 198.828 C 223.782 198.572,224.661 198.210,224.880 198.025 C 225.099 197.840,225.798 197.457,226.434 197.175 C 231.145 195.083,233.084 189.389,230.153 186.255 C 229.812 185.891,229.534 185.493,229.534 185.369 C 229.534 185.246,228.834 184.117,227.979 182.860 C 227.124 181.604,226.425 180.478,226.425 180.360 C 226.425 180.241,226.078 179.686,225.655 179.126 C 225.231 178.567,224.882 177.979,224.878 177.821 C 224.874 177.663,224.604 177.138,224.278 176.655 C 223.952 176.172,223.525 175.369,223.329 174.870 C 223.132 174.372,222.817 173.781,222.628 173.557 C 222.439 173.333,222.060 172.500,221.787 171.704 C 221.513 170.909,221.117 169.985,220.907 169.650 C 220.697 169.315,220.319 168.400,220.067 167.617 C 219.816 166.833,219.457 165.957,219.271 165.670 C 219.085 165.384,218.756 164.388,218.541 163.457 C 218.325 162.526,217.981 161.420,217.777 160.999 C 216.530 158.425,215.526 146.615,216.248 143.005 C 216.404 142.222,216.727 140.360,216.964 138.868 C 217.202 137.376,217.606 135.685,217.863 135.111 C 218.119 134.537,218.470 133.626,218.643 133.086 C 218.817 132.547,219.296 131.439,219.709 130.625 C 220.122 129.811,220.461 129.014,220.463 128.853 C 220.465 128.692,220.635 128.421,220.841 128.250 C 221.047 128.079,221.411 127.336,221.650 126.599 C 221.889 125.862,222.287 124.909,222.536 124.482 C 222.784 124.054,223.185 122.891,223.428 121.896 C 223.671 120.901,223.982 119.953,224.119 119.788 C 224.256 119.623,224.607 118.227,224.899 116.686 C 225.191 115.145,225.584 113.585,225.773 113.220 C 225.963 112.852,226.251 110.764,226.418 108.545 C 226.583 106.339,226.835 104.126,226.978 103.627 C 227.616 101.397,226.601 87.908,225.606 85.391 C 225.318 84.663,224.970 83.371,224.832 82.519 C 224.694 81.668,224.366 80.618,224.103 80.187 C 223.840 79.757,223.477 78.880,223.296 78.238 C 223.116 77.597,222.826 76.898,222.652 76.684 C 222.479 76.470,222.076 75.683,221.758 74.935 C 221.440 74.187,221.092 73.575,220.984 73.575 C 220.876 73.575,220.651 73.245,220.484 72.841 C 220.317 72.437,219.865 71.746,219.481 71.307 C 218.160 69.795,217.732 69.256,217.252 68.502 C 216.747 67.706,213.992 65.032,213.675 65.028 C 213.573 65.027,213.150 64.705,212.736 64.313 C 212.015 63.631,211.423 63.152,209.715 61.866 C 209.288 61.544,208.784 61.132,208.595 60.951 C 208.407 60.770,208.134 60.622,207.988 60.622 C 207.842 60.622,207.360 60.359,206.917 60.039 C 206.002 59.377,204.443 58.494,203.109 57.883 C 202.610 57.655,201.503 57.140,200.648 56.738 C 199.793 56.337,198.577 55.870,197.946 55.700 C 197.315 55.531,196.558 55.237,196.262 55.048 C 195.967 54.858,195.142 54.624,194.430 54.527 C 193.718 54.429,191.953 54.071,190.508 53.729 C 187.759 53.080,180.438 52.826,179.534 53.349 " stroke="none" fill="#fcfcfc" fill-rule="evenodd"></path></g></svg>