<svg id="svg" version="1.1" xmlns="http://www.w3.org/2000/svg" xmlns:xlink="http://www.w3.org/1999/xlink" width="400" height="258.91472868217056" viewBox="0, 0, 400,258.91472868217056"><g id="svgg"><path id="path0" d="M77.026 42.221 C 75.718 42.338,74.086 42.614,73.399 42.835 C 72.712 43.057,71.458 43.360,70.613 43.510 C 69.767 43.660,68.601 44.009,68.022 44.285 C 67.443 44.562,66.619 44.871,66.192 44.972 C 65.764 45.073,64.948 45.463,64.378 45.837 C 63.808 46.212,63.021 46.680,62.630 46.878 C 62.238 47.076,61.917 47.331,61.917 47.445 C 61.917 47.559,61.615 47.810,61.246 48.003 C 60.392 48.451,57.254 51.554,57.254 51.951 C 57.254 52.116,57.029 52.455,56.754 52.704 C 55.461 53.873,54.393 59.020,54.998 61.161 C 55.216 61.933,55.476 63.078,55.576 63.704 C 55.783 65.000,56.345 66.469,56.725 66.703 C 56.866 66.790,57.104 67.317,57.254 67.875 C 57.404 68.432,57.815 69.231,58.167 69.650 C 58.520 70.069,58.808 70.492,58.808 70.589 C 58.808 70.750,59.697 72.192,61.030 74.194 C 61.304 74.606,61.645 75.130,61.788 75.358 C 61.930 75.586,62.426 76.368,62.889 77.097 C 63.352 77.825,63.731 78.502,63.731 78.600 C 63.731 78.699,64.018 79.089,64.369 79.468 C 64.720 79.847,65.077 80.471,65.161 80.854 C 65.245 81.238,65.537 81.754,65.808 81.999 C 66.080 82.245,66.441 82.869,66.610 83.386 C 66.780 83.903,67.177 84.738,67.494 85.240 C 67.810 85.743,68.156 86.559,68.263 87.053 C 68.370 87.548,68.721 88.478,69.042 89.119 C 69.363 89.760,69.711 90.789,69.813 91.405 C 69.916 92.022,70.307 93.246,70.682 94.126 L 71.363 95.725 71.366 103.497 C 71.368 111.041,71.350 111.315,70.760 112.824 C 70.425 113.679,70.039 115.019,69.902 115.803 C 69.765 116.587,69.382 117.753,69.051 118.394 C 68.719 119.035,68.367 120.084,68.267 120.725 C 68.167 121.367,67.815 122.361,67.485 122.935 C 67.154 123.510,66.802 124.417,66.702 124.952 C 66.601 125.487,66.254 126.316,65.929 126.794 C 65.604 127.273,65.257 128.037,65.157 128.492 C 65.057 128.946,64.637 129.962,64.223 130.748 C 63.810 131.534,63.472 132.388,63.472 132.646 C 63.472 132.903,63.122 133.853,62.695 134.757 C 62.267 135.660,61.917 136.610,61.917 136.868 C 61.917 137.127,61.634 137.943,61.287 138.682 C 60.941 139.421,60.523 140.784,60.358 141.710 C 60.193 142.636,59.928 143.551,59.769 143.744 C 59.609 143.936,59.220 145.277,58.903 146.723 C 58.586 148.169,58.147 150.052,57.926 150.907 C 57.706 151.762,57.455 153.510,57.370 154.793 C 57.284 156.075,57.042 157.707,56.832 158.420 C 55.936 161.466,56.807 174.362,58.182 178.387 C 58.527 179.395,58.808 180.364,58.808 180.541 C 58.808 181.230,62.325 188.502,63.123 189.463 C 63.457 189.866,63.731 190.361,63.731 190.564 C 63.731 190.767,63.841 190.933,63.975 190.933 C 64.109 190.933,64.488 191.379,64.817 191.925 C 66.187 194.201,71.214 199.289,73.054 200.262 C 73.409 200.449,74.425 201.166,75.313 201.856 C 76.202 202.545,77.032 203.109,77.158 203.109 C 77.285 203.109,77.829 203.408,78.367 203.773 C 78.905 204.138,79.825 204.622,80.411 204.848 C 80.997 205.075,81.710 205.452,81.995 205.686 C 82.280 205.920,82.979 206.266,83.549 206.456 C 84.119 206.645,84.771 206.962,84.999 207.160 C 85.226 207.358,86.097 207.699,86.934 207.917 C 87.771 208.135,88.635 208.473,88.853 208.669 C 89.070 208.864,89.948 209.151,90.803 209.305 C 91.658 209.460,93.465 209.887,94.819 210.255 C 96.338 210.668,98.469 211.005,100.389 211.136 C 102.098 211.253,104.482 211.495,105.684 211.673 C 107.546 211.949,108.298 211.935,110.736 211.578 C 112.312 211.348,114.767 211.089,116.192 211.002 C 117.860 210.900,119.177 210.670,119.890 210.356 C 120.499 210.088,121.723 209.734,122.610 209.570 C 123.497 209.406,124.514 209.069,124.870 208.822 C 125.227 208.575,126.129 208.171,126.875 207.923 C 127.622 207.676,128.307 207.353,128.398 207.205 C 128.489 207.058,129.161 206.655,129.891 206.311 C 131.273 205.659,132.845 204.617,133.290 204.058 C 133.433 203.879,133.799 203.561,134.104 203.351 C 134.779 202.887,138.083 198.949,138.083 198.609 C 138.083 198.475,138.460 197.597,138.922 196.657 L 139.761 194.948 139.764 190.391 L 139.767 185.835 138.925 184.202 C 138.462 183.304,138.083 182.457,138.083 182.320 C 138.083 182.182,137.733 181.552,137.306 180.918 C 136.878 180.285,136.528 179.660,136.528 179.530 C 136.528 179.399,136.179 178.894,135.751 178.407 C 135.324 177.921,134.974 177.432,134.974 177.322 C 134.974 177.212,134.676 176.731,134.313 176.254 C 133.949 175.777,133.530 175.038,133.381 174.611 C 133.232 174.184,132.999 173.834,132.864 173.834 C 132.729 173.834,132.361 173.280,132.046 172.604 C 131.732 171.927,131.226 170.965,130.922 170.466 C 130.618 169.968,130.282 169.268,130.174 168.912 C 130.067 168.556,129.704 167.858,129.368 167.362 C 129.031 166.866,128.756 166.270,128.756 166.039 C 128.756 165.807,128.407 164.962,127.979 164.161 C 127.552 163.359,127.202 162.524,127.202 162.303 C 127.202 162.082,126.901 161.186,126.533 160.312 C 126.165 159.438,125.707 157.839,125.515 156.758 C 125.323 155.677,124.987 154.035,124.768 153.109 C 124.225 150.809,124.211 144.408,124.744 142.479 C 124.960 141.700,125.297 140.363,125.493 139.508 C 125.690 138.653,126.154 137.312,126.524 136.528 C 126.894 135.745,127.198 134.927,127.200 134.710 C 127.201 134.494,127.488 133.897,127.836 133.384 C 128.185 132.870,128.550 132.114,128.648 131.704 C 128.745 131.294,129.092 130.599,129.418 130.160 C 129.745 129.721,130.095 128.905,130.197 128.346 C 130.298 127.788,130.647 126.802,130.971 126.155 C 131.295 125.508,131.679 124.336,131.824 123.550 C 131.969 122.765,132.329 121.487,132.624 120.711 C 132.919 119.936,133.226 118.718,133.308 118.005 C 133.389 117.293,133.736 115.602,134.078 114.249 C 135.649 108.035,135.646 89.674,134.073 84.326 C 133.738 83.187,133.385 81.674,133.288 80.965 C 133.191 80.256,132.892 79.245,132.624 78.720 C 132.356 78.195,132.011 77.201,131.857 76.512 C 131.704 75.823,131.235 74.570,130.815 73.728 C 130.395 72.886,130.052 72.055,130.052 71.882 C 130.052 71.708,129.883 71.426,129.677 71.255 C 129.471 71.084,129.101 70.399,128.856 69.733 C 128.611 69.068,128.203 68.289,127.948 68.002 C 127.694 67.715,127.304 67.044,127.081 66.512 C 126.859 65.980,126.587 65.544,126.477 65.544 C 126.367 65.544,126.059 65.174,125.791 64.721 C 124.788 63.022,121.112 58.973,118.636 56.839 C 115.197 53.876,113.152 52.310,111.528 51.399 C 111.101 51.160,110.422 50.688,110.019 50.352 C 109.616 50.016,109.160 49.741,109.005 49.741 C 108.851 49.741,108.189 49.404,107.536 48.991 C 106.882 48.579,106.057 48.155,105.703 48.048 C 105.349 47.941,104.649 47.589,104.148 47.267 C 103.648 46.944,102.830 46.598,102.332 46.498 C 101.833 46.399,101.031 46.078,100.549 45.785 C 100.068 45.493,99.077 45.103,98.347 44.920 C 97.618 44.736,96.380 44.363,95.596 44.091 C 94.812 43.819,93.472 43.511,92.617 43.408 C 91.762 43.305,90.282 43.006,89.329 42.745 C 87.265 42.179,80.659 41.898,77.026 42.221 M181.995 42.223 C 180.712 42.335,179.197 42.599,178.627 42.809 C 178.057 43.020,176.891 43.278,176.036 43.383 C 175.181 43.488,173.899 43.841,173.187 44.169 C 172.474 44.496,171.473 44.896,170.961 45.057 C 170.450 45.218,169.641 45.638,169.162 45.991 C 168.684 46.344,168.170 46.633,168.020 46.635 C 166.944 46.645,161.140 52.532,161.140 53.612 C 161.140 53.801,160.916 54.318,160.643 54.762 C 159.455 56.694,159.436 61.698,160.607 64.324 C 160.874 64.924,161.239 65.912,161.418 66.519 C 161.597 67.127,161.900 67.754,162.092 67.914 C 162.284 68.073,162.680 68.683,162.973 69.270 C 163.999 71.330,164.708 72.523,165.382 73.324 C 165.756 73.769,166.062 74.246,166.062 74.384 C 166.062 74.521,166.354 74.948,166.710 75.332 C 167.066 75.717,167.358 76.174,167.358 76.348 C 167.358 76.523,167.692 77.049,168.100 77.517 C 168.508 77.985,168.924 78.631,169.024 78.952 C 169.125 79.274,169.474 79.856,169.801 80.248 C 170.128 80.639,170.485 81.250,170.594 81.606 C 170.704 81.962,171.014 82.567,171.283 82.949 C 171.552 83.332,171.943 84.126,172.150 84.715 C 172.358 85.304,172.749 86.098,173.020 86.481 C 173.291 86.863,173.597 87.685,173.701 88.306 C 173.805 88.928,174.163 90.036,174.496 90.768 C 174.830 91.500,175.230 92.915,175.385 93.912 C 175.540 94.909,175.867 96.250,176.111 96.891 C 176.741 98.547,176.728 108.855,176.094 110.622 C 175.863 111.263,175.546 112.604,175.389 113.601 C 175.232 114.598,174.825 116.024,174.485 116.770 C 174.145 117.515,173.785 118.677,173.683 119.351 C 173.582 120.026,173.282 120.932,173.016 121.364 C 172.750 121.797,172.408 122.617,172.256 123.187 C 172.104 123.756,171.639 124.912,171.223 125.754 C 170.807 126.596,170.466 127.460,170.466 127.674 C 170.466 127.888,170.189 128.540,169.850 129.122 C 169.511 129.705,169.150 130.589,169.047 131.088 C 168.945 131.587,168.597 132.461,168.274 133.031 C 167.951 133.601,167.603 134.534,167.500 135.104 C 167.398 135.674,167.074 136.530,166.781 137.008 C 166.487 137.485,166.090 138.623,165.899 139.538 C 165.707 140.452,165.331 141.635,165.063 142.167 C 164.795 142.699,164.493 143.718,164.391 144.430 C 164.289 145.142,163.932 146.600,163.597 147.668 C 163.263 148.737,162.862 150.661,162.706 151.943 C 162.551 153.225,162.256 155.091,162.052 156.088 C 161.053 160.966,161.097 171.419,162.127 174.101 C 162.266 174.462,162.528 175.686,162.711 176.822 C 162.893 177.957,163.299 179.469,163.612 180.181 C 163.925 180.894,164.266 181.885,164.368 182.383 C 164.471 182.882,164.818 183.698,165.139 184.197 C 165.460 184.696,165.861 185.527,166.031 186.044 C 166.202 186.561,166.563 187.185,166.834 187.431 C 167.106 187.677,167.401 188.207,167.489 188.610 C 167.577 189.013,167.825 189.488,168.039 189.665 C 168.253 189.843,168.610 190.346,168.833 190.784 C 169.528 192.148,173.725 196.700,176.604 199.210 C 177.779 200.235,179.524 201.554,179.706 201.554 C 179.798 201.554,180.291 201.875,180.803 202.267 C 181.314 202.659,182.141 203.191,182.640 203.449 C 183.140 203.708,184.249 204.319,185.104 204.808 C 185.959 205.296,187.066 205.880,187.565 206.106 C 188.063 206.331,188.938 206.736,189.508 207.005 C 190.078 207.275,191.291 207.733,192.204 208.024 C 193.117 208.316,193.995 208.662,194.154 208.794 C 194.313 208.926,195.548 209.267,196.898 209.551 C 198.248 209.835,199.777 210.247,200.296 210.466 C 200.897 210.720,202.547 210.929,204.830 211.041 C 206.804 211.138,208.872 211.375,209.424 211.567 C 210.602 211.978,213.990 212.030,215.287 211.657 C 215.784 211.514,217.824 211.274,219.819 211.124 C 222.615 210.913,223.971 210.675,225.738 210.088 C 226.998 209.669,228.200 209.326,228.409 209.326 C 229.124 209.326,234.970 206.483,235.881 205.692 C 236.166 205.444,236.749 205.064,237.176 204.847 C 238.965 203.939,242.851 199.233,243.567 197.108 C 243.727 196.633,243.945 196.127,244.053 195.984 C 245.448 194.131,245.383 187.525,243.944 184.845 C 243.714 184.417,243.526 183.825,243.525 183.529 C 243.523 183.023,242.918 181.948,241.159 179.332 C 240.750 178.722,240.415 178.131,240.415 178.018 C 240.415 177.906,240.065 177.422,239.637 176.943 C 239.210 176.464,238.860 175.959,238.860 175.820 C 238.860 175.681,238.562 175.177,238.199 174.700 C 237.835 174.223,237.406 173.456,237.245 172.996 C 237.085 172.535,236.744 171.933,236.488 171.659 C 236.232 171.384,235.889 170.754,235.726 170.259 C 235.562 169.764,235.160 168.964,234.832 168.479 C 234.503 167.995,234.153 167.227,234.053 166.773 C 233.953 166.318,233.595 165.508,233.257 164.973 C 232.919 164.438,232.642 163.818,232.642 163.595 C 232.642 163.373,232.308 162.467,231.898 161.582 C 231.489 160.698,231.069 159.393,230.966 158.682 C 230.863 157.972,230.633 157.097,230.454 156.739 C 228.975 153.771,229.068 140.810,230.582 138.977 C 230.705 138.827,230.886 138.208,230.983 137.600 C 231.080 136.993,231.410 136.124,231.715 135.670 C 232.021 135.216,232.477 134.300,232.729 133.634 C 232.982 132.969,233.354 132.287,233.556 132.119 C 233.758 131.951,234.001 131.388,234.095 130.868 C 234.188 130.348,234.599 129.281,235.008 128.497 C 235.416 127.714,235.750 126.854,235.751 126.587 C 235.751 126.320,236.043 125.445,236.400 124.644 C 236.757 123.842,237.211 122.312,237.410 121.244 C 237.608 120.175,237.959 118.799,238.189 118.186 C 238.419 117.573,238.723 115.941,238.864 114.559 C 239.005 113.177,239.226 111.755,239.355 111.399 C 240.648 107.841,240.661 89.458,239.372 87.037 C 239.256 86.818,239.043 85.591,238.900 84.310 C 238.757 83.029,238.340 81.183,237.973 80.208 C 237.606 79.233,237.306 78.176,237.306 77.857 C 237.306 77.539,237.014 76.732,236.659 76.062 C 236.303 75.393,235.875 74.297,235.709 73.627 C 235.543 72.957,235.135 72.049,234.802 71.608 C 234.469 71.167,234.197 70.660,234.197 70.481 C 234.197 70.120,232.529 67.262,231.845 66.451 C 231.604 66.166,231.219 65.559,230.988 65.101 C 230.757 64.644,230.306 63.985,229.986 63.636 C 229.666 63.288,229.113 62.626,228.756 62.165 C 227.579 60.644,221.851 55.151,220.466 54.215 C 220.110 53.975,219.662 53.624,219.470 53.437 C 219.279 53.250,218.777 52.918,218.355 52.700 C 217.934 52.482,217.391 52.125,217.149 51.906 C 216.497 51.315,213.920 49.741,213.604 49.741 C 213.454 49.741,212.925 49.409,212.429 49.004 C 211.934 48.599,211.186 48.183,210.767 48.080 C 210.348 47.977,209.707 47.681,209.342 47.421 C 208.977 47.162,208.154 46.800,207.513 46.617 C 206.872 46.434,206.172 46.148,205.959 45.982 C 205.457 45.593,204.254 45.163,203.115 44.965 C 202.620 44.879,201.729 44.573,201.136 44.286 C 200.543 43.999,199.025 43.596,197.762 43.389 C 196.499 43.183,194.650 42.848,193.653 42.645 C 191.378 42.182,185.070 41.954,181.995 42.223 M282.772 42.236 C 281.490 42.337,280.032 42.554,279.534 42.718 C 279.035 42.881,277.579 43.187,276.298 43.396 C 274.945 43.618,273.691 43.982,273.308 44.265 C 272.945 44.534,272.272 44.836,271.812 44.937 C 266.344 46.138,260.574 52.992,260.399 58.492 C 260.304 61.498,260.650 64.210,261.250 65.155 C 261.431 65.440,261.728 66.140,261.909 66.710 C 262.090 67.280,262.500 68.038,262.820 68.394 C 263.139 68.750,263.530 69.429,263.689 69.903 C 263.847 70.377,264.242 71.094,264.566 71.497 C 264.890 71.900,265.505 72.838,265.933 73.581 C 266.360 74.324,267.030 75.312,267.422 75.777 C 267.814 76.242,268.135 76.736,268.135 76.874 C 268.135 77.011,268.484 77.607,268.912 78.197 C 269.339 78.787,269.689 79.365,269.689 79.480 C 269.689 79.596,270.024 80.151,270.434 80.713 C 270.843 81.276,271.265 82.027,271.370 82.383 C 271.476 82.740,271.825 83.382,272.146 83.811 C 272.467 84.240,272.818 84.998,272.925 85.495 C 273.033 85.992,273.332 86.698,273.590 87.063 C 273.848 87.428,274.241 88.509,274.462 89.465 C 274.684 90.420,275.037 91.464,275.247 91.785 C 275.457 92.105,275.761 93.239,275.924 94.305 C 276.086 95.371,276.440 97.180,276.710 98.324 C 277.240 100.567,277.388 105.596,276.972 107.254 C 276.847 107.753,276.607 109.035,276.439 110.104 C 275.851 113.842,275.556 115.162,275.107 116.062 C 274.859 116.561,274.573 117.494,274.473 118.135 C 274.372 118.776,274.027 119.825,273.705 120.466 C 273.384 121.108,273.037 122.040,272.934 122.539 C 272.831 123.038,272.481 123.912,272.156 124.482 C 271.831 125.052,271.478 125.923,271.371 126.418 C 271.264 126.913,270.915 127.732,270.596 128.238 C 270.276 128.745,269.930 129.564,269.826 130.059 C 269.723 130.554,269.362 131.462,269.024 132.077 C 268.687 132.692,268.336 133.625,268.244 134.150 C 268.152 134.674,267.812 135.570,267.489 136.140 C 267.166 136.710,266.815 137.701,266.710 138.342 C 266.604 138.983,266.291 139.956,266.014 140.503 C 265.736 141.051,265.357 142.275,265.171 143.224 C 264.984 144.172,264.596 145.534,264.308 146.250 C 264.020 146.965,263.698 148.364,263.592 149.358 C 263.486 150.352,263.237 151.629,263.038 152.196 C 261.537 156.466,261.546 173.088,263.051 176.700 C 263.255 177.190,263.507 178.174,263.611 178.886 C 263.714 179.598,264.061 180.706,264.381 181.347 C 264.700 181.988,265.050 182.920,265.158 183.417 C 265.265 183.914,265.616 184.672,265.937 185.101 C 266.258 185.530,266.605 186.172,266.710 186.528 C 266.814 186.885,267.109 187.409,267.367 187.694 C 267.624 187.979,268.031 188.708,268.272 189.313 C 268.512 189.919,268.788 190.415,268.884 190.415 C 268.980 190.415,269.281 190.793,269.551 191.256 C 270.134 192.254,270.341 192.483,274.278 196.472 C 275.949 198.165,277.748 199.836,278.276 200.185 C 278.804 200.534,279.299 200.985,279.377 201.187 C 279.454 201.389,279.648 201.554,279.807 201.554 C 279.966 201.554,280.582 201.889,281.175 202.298 C 282.707 203.353,283.867 204.035,285.413 204.787 C 286.153 205.147,286.824 205.549,286.905 205.680 C 286.986 205.811,287.809 206.170,288.733 206.478 C 289.658 206.785,290.415 207.127,290.415 207.237 C 290.415 207.346,291.157 207.637,292.064 207.883 C 292.972 208.128,294.049 208.503,294.457 208.715 C 294.866 208.927,296.018 209.270,297.017 209.478 C 298.017 209.685,299.534 210.078,300.389 210.350 C 301.321 210.648,303.445 210.955,305.699 211.121 C 307.766 211.272,309.863 211.513,310.361 211.656 C 311.675 212.035,315.009 211.976,316.340 211.550 C 316.971 211.348,318.886 211.121,320.596 211.045 C 323.120 210.933,324.154 210.758,326.094 210.117 C 327.407 209.682,328.610 209.326,328.766 209.326 C 328.921 209.326,329.653 209.051,330.392 208.714 C 331.131 208.378,332.015 208.015,332.356 207.908 C 332.697 207.801,333.506 207.377,334.155 206.966 C 334.804 206.554,335.427 206.218,335.541 206.218 C 336.314 206.218,342.746 200.107,342.746 199.373 C 342.746 199.168,342.906 198.841,343.101 198.646 C 343.631 198.116,344.215 196.878,344.418 195.855 C 344.517 195.356,344.772 194.564,344.985 194.095 C 345.604 192.729,345.739 188.964,345.218 187.565 C 344.980 186.924,344.609 185.674,344.394 184.787 C 344.179 183.901,343.720 182.759,343.374 182.250 C 343.029 181.741,342.746 181.229,342.746 181.112 C 342.746 180.996,342.426 180.487,342.034 179.983 C 341.642 179.478,341.088 178.684,340.803 178.219 C 340.518 177.753,340.052 177.011,339.767 176.568 C 338.280 174.258,336.578 171.289,336.378 170.656 C 336.277 170.338,335.920 169.717,335.584 169.276 C 335.249 168.835,334.974 168.311,334.974 168.110 C 334.974 167.910,334.629 167.105,334.207 166.321 C 333.785 165.538,333.436 164.710,333.430 164.482 C 333.424 164.253,333.120 163.504,332.755 162.816 C 332.389 162.128,331.972 160.916,331.828 160.122 C 331.684 159.328,331.420 158.446,331.240 158.161 C 329.368 155.186,329.330 141.975,331.182 138.083 C 331.555 137.299,331.861 136.436,331.863 136.164 C 331.864 135.893,332.151 135.297,332.499 134.840 C 332.848 134.383,333.213 133.672,333.310 133.261 C 333.408 132.849,333.755 132.154,334.082 131.714 C 334.408 131.275,334.759 130.459,334.862 129.901 C 334.964 129.343,335.381 128.258,335.788 127.489 C 336.195 126.721,336.528 125.814,336.528 125.474 C 336.528 125.133,336.810 124.185,337.155 123.367 C 337.499 122.549,337.956 120.950,338.171 119.813 C 338.385 118.676,338.748 117.105,338.977 116.321 C 339.206 115.538,339.568 113.439,339.782 111.658 C 339.995 109.877,340.305 107.487,340.471 106.347 C 340.872 103.588,340.882 94.140,340.486 91.839 C 340.314 90.842,339.995 88.569,339.776 86.788 C 339.557 85.006,339.143 82.892,338.856 82.088 C 338.570 81.284,338.211 79.944,338.059 79.109 C 337.907 78.274,337.516 77.108,337.190 76.518 C 336.864 75.928,336.519 75.033,336.425 74.528 C 336.330 74.023,335.977 73.107,335.640 72.492 C 335.304 71.876,334.942 71.082,334.836 70.725 C 334.731 70.369,334.369 69.748,334.032 69.345 C 333.695 68.943,333.420 68.451,333.420 68.253 C 333.420 68.056,333.086 67.511,332.677 67.043 C 332.269 66.575,331.860 65.959,331.768 65.674 C 331.676 65.389,331.282 64.777,330.891 64.314 C 330.501 63.851,329.832 63.008,329.404 62.442 C 327.550 59.986,323.194 55.845,320.920 54.377 C 320.243 53.940,319.689 53.498,319.689 53.394 C 319.689 53.290,319.310 53.007,318.847 52.766 C 318.384 52.524,317.189 51.747,316.192 51.038 C 315.194 50.330,314.273 49.748,314.144 49.746 C 314.015 49.743,313.548 49.469,313.107 49.136 C 312.666 48.804,311.922 48.400,311.452 48.239 C 310.983 48.078,310.282 47.721,309.895 47.446 C 309.509 47.170,308.669 46.805,308.029 46.635 C 307.389 46.465,306.505 46.105,306.065 45.836 C 305.625 45.567,304.518 45.189,303.604 44.996 C 302.691 44.803,301.557 44.444,301.085 44.199 C 300.613 43.953,299.214 43.575,297.976 43.358 C 296.738 43.141,295.201 42.855,294.560 42.723 C 291.489 42.089,287.000 41.903,282.772 42.236 M87.176 53.379 C 87.917 53.713,91.101 54.404,91.895 54.404 C 92.264 54.404,93.165 54.687,93.895 55.033 C 94.626 55.378,95.570 55.735,95.993 55.825 C 96.416 55.915,97.345 56.271,98.057 56.616 C 98.769 56.960,99.877 57.478,100.518 57.766 C 102.030 58.445,103.576 59.308,104.585 60.039 C 105.028 60.359,105.510 60.622,105.656 60.622 C 105.802 60.622,106.076 60.770,106.264 60.951 C 106.452 61.132,106.956 61.542,107.383 61.862 C 110.731 64.368,117.617 71.319,117.617 72.193 C 117.617 72.285,117.903 72.737,118.254 73.196 C 118.605 73.656,119.089 74.541,119.331 75.164 C 119.572 75.786,119.935 76.490,120.138 76.727 C 120.341 76.964,120.734 77.889,121.012 78.782 C 121.290 79.675,121.639 80.552,121.788 80.731 C 121.936 80.910,122.279 82.114,122.550 83.406 C 122.820 84.699,123.171 85.999,123.329 86.294 C 124.680 88.817,124.682 107.975,123.332 112.306 C 123.066 113.161,122.651 114.997,122.410 116.385 C 122.170 117.774,121.880 118.968,121.766 119.039 C 121.653 119.109,121.357 120.013,121.109 121.047 C 120.862 122.081,120.455 123.277,120.206 123.705 C 119.957 124.132,119.554 125.094,119.312 125.842 C 119.069 126.590,118.779 127.202,118.667 127.202 C 118.556 127.202,118.258 127.756,118.007 128.433 C 117.755 129.109,117.341 130.013,117.088 130.440 C 116.834 130.868,116.426 131.917,116.180 132.772 C 115.935 133.627,115.632 134.392,115.508 134.473 C 115.383 134.553,115.100 135.544,114.879 136.675 C 114.658 137.805,114.280 139.372,114.039 140.155 C 112.878 143.934,113.813 158.377,115.423 161.536 C 115.643 161.968,116.054 163.245,116.336 164.374 C 116.618 165.503,116.946 166.490,117.065 166.568 C 117.184 166.646,117.484 167.351,117.732 168.135 C 117.980 168.918,118.390 169.854,118.642 170.214 C 118.894 170.574,119.294 171.535,119.532 172.351 C 119.769 173.167,120.068 173.834,120.197 173.834 C 120.326 173.834,120.515 174.097,120.616 174.417 C 120.718 174.738,121.102 175.466,121.469 176.036 C 121.837 176.606,122.350 177.536,122.610 178.102 C 122.870 178.668,123.178 179.192,123.294 179.267 C 123.411 179.343,123.760 179.870,124.071 180.440 C 124.658 181.515,125.931 183.593,126.790 184.880 C 127.062 185.288,127.557 186.036,127.890 186.541 C 130.186 190.028,128.381 194.994,124.101 196.964 C 123.456 197.261,122.666 197.703,122.347 197.946 C 122.027 198.188,121.328 198.469,120.793 198.570 C 120.257 198.670,119.178 199.019,118.394 199.345 C 116.355 200.193,109.633 200.901,105.833 200.669 C 101.838 200.425,96.913 199.764,96.128 199.367 C 95.764 199.184,94.825 198.886,94.041 198.707 C 93.258 198.528,92.020 198.113,91.291 197.785 C 90.562 197.457,89.497 197.063,88.925 196.909 C 88.352 196.754,87.745 196.461,87.575 196.255 C 87.404 196.050,86.720 195.676,86.055 195.424 C 85.389 195.172,84.619 194.757,84.342 194.503 C 84.066 194.249,83.712 194.041,83.555 194.041 C 83.399 194.041,82.867 193.696,82.374 193.275 C 81.880 192.853,81.393 192.503,81.290 192.498 C 80.326 192.443,72.798 185.077,72.798 184.188 C 72.798 184.072,72.522 183.648,72.186 183.245 C 71.849 182.842,71.483 182.223,71.372 181.869 C 71.261 181.514,70.897 180.813,70.565 180.310 C 70.232 179.807,69.882 178.990,69.787 178.493 C 69.692 177.997,69.354 177.066,69.037 176.425 C 67.274 172.864,67.273 157.206,69.034 151.554 C 69.367 150.486,69.719 149.038,69.816 148.338 C 69.913 147.637,70.255 146.471,70.575 145.747 C 70.895 145.023,71.238 143.925,71.336 143.308 C 71.435 142.690,71.790 141.641,72.125 140.976 C 72.460 140.311,72.818 139.359,72.921 138.860 C 73.024 138.361,73.372 137.487,73.695 136.917 C 74.018 136.347,74.367 135.418,74.469 134.853 C 74.572 134.288,74.868 133.528,75.127 133.164 C 75.387 132.799,75.792 131.836,76.029 131.022 C 76.265 130.209,76.565 129.478,76.694 129.398 C 76.823 129.318,77.160 128.503,77.443 127.587 C 77.726 126.671,78.129 125.655,78.338 125.331 C 78.547 125.006,78.899 124.036,79.119 123.175 C 79.340 122.314,79.691 121.265,79.899 120.843 C 80.107 120.422,80.507 118.970,80.788 117.617 C 81.068 116.263,81.417 114.806,81.563 114.378 C 82.771 110.838,82.688 94.992,81.448 92.344 C 81.244 91.909,80.974 90.918,80.846 90.142 C 80.719 89.366,80.422 88.206,80.185 87.565 C 79.949 86.924,79.519 85.641,79.229 84.715 C 78.940 83.789,78.555 82.856,78.374 82.642 C 78.194 82.429,77.846 81.640,77.602 80.890 C 77.358 80.140,76.983 79.352,76.770 79.138 C 76.556 78.925,76.270 78.347,76.134 77.855 C 75.998 77.362,75.600 76.618,75.249 76.201 C 74.898 75.784,74.611 75.334,74.611 75.201 C 74.611 74.957,73.603 73.307,72.244 71.331 C 71.836 70.737,71.503 70.129,71.503 69.980 C 71.503 69.830,71.153 69.309,70.725 68.822 C 70.298 68.335,69.948 67.811,69.948 67.656 C 69.948 67.502,69.614 66.993,69.206 66.525 C 68.798 66.057,68.382 65.411,68.281 65.089 C 68.181 64.768,67.831 64.185,67.503 63.794 C 67.175 63.403,66.819 62.675,66.712 62.176 C 66.605 61.677,66.346 60.934,66.136 60.523 C 65.514 59.306,67.618 55.959,69.006 55.959 C 69.199 55.959,69.789 55.666,70.315 55.309 C 70.842 54.951,71.762 54.548,72.359 54.412 C 72.957 54.277,74.028 53.969,74.741 53.729 C 77.084 52.940,85.664 52.698,87.176 53.379 M193.653 53.783 C 194.935 54.119,196.339 54.397,196.772 54.399 C 197.205 54.402,198.021 54.641,198.585 54.930 C 199.150 55.219,200.170 55.622,200.854 55.826 C 202.006 56.170,205.065 57.510,205.959 58.062 C 206.172 58.195,206.930 58.590,207.642 58.942 C 208.355 59.294,209.229 59.798,209.585 60.064 C 209.942 60.329,210.925 61.000,211.770 61.555 C 212.615 62.110,213.639 62.885,214.046 63.277 C 214.452 63.669,214.889 63.990,215.016 63.990 C 215.370 63.990,221.503 70.222,221.503 70.582 C 221.503 70.664,221.969 71.414,222.539 72.249 C 223.109 73.084,223.575 73.883,223.575 74.025 C 223.575 74.167,223.801 74.570,224.077 74.921 C 224.353 75.272,224.663 75.900,224.765 76.316 C 224.867 76.732,225.224 77.478,225.558 77.975 C 225.892 78.471,226.166 79.024,226.166 79.204 C 226.166 79.639,227.214 82.700,227.479 83.038 C 227.593 83.184,227.760 83.941,227.850 84.722 C 227.939 85.502,228.323 87.364,228.702 88.860 C 229.676 92.699,229.746 105.144,228.815 108.869 C 228.504 110.114,228.121 112.212,227.963 113.532 C 227.805 114.853,227.444 116.457,227.160 117.098 C 226.876 117.740,226.530 118.961,226.390 119.813 C 226.250 120.664,225.892 121.755,225.594 122.237 C 225.296 122.720,224.959 123.612,224.845 124.220 C 224.732 124.828,224.350 125.751,223.996 126.272 C 223.643 126.793,223.279 127.557,223.189 127.970 C 223.098 128.383,222.863 128.854,222.666 129.017 C 222.470 129.180,222.052 130.092,221.738 131.043 C 221.424 131.994,221.068 132.837,220.948 132.915 C 220.828 132.994,220.541 133.869,220.311 134.858 C 220.080 135.848,219.670 137.332,219.399 138.156 C 218.234 141.700,218.163 154.282,219.291 157.182 C 219.500 157.720,219.903 159.316,220.186 160.729 C 220.470 162.141,220.819 163.369,220.963 163.458 C 221.107 163.548,221.413 164.432,221.643 165.424 C 221.873 166.416,222.271 167.578,222.527 168.005 C 222.784 168.433,223.140 169.249,223.317 169.819 C 223.495 170.389,223.798 171.036,223.990 171.256 C 224.182 171.477,224.514 172.155,224.729 172.763 C 224.943 173.371,225.339 174.181,225.608 174.564 C 225.878 174.946,226.184 175.551,226.289 175.907 C 226.394 176.263,226.818 177.089,227.230 177.743 C 227.642 178.397,227.979 179.049,227.979 179.192 C 227.979 179.336,228.228 179.675,228.531 179.947 C 228.834 180.218,229.303 180.907,229.571 181.477 C 230.016 182.419,230.409 183.040,231.791 184.974 C 234.302 188.491,234.696 191.226,233.016 193.477 C 232.172 194.607,229.572 196.891,229.129 196.891 C 229.061 196.891,228.522 197.196,227.931 197.570 C 227.340 197.943,226.134 198.454,225.252 198.707 C 224.370 198.959,223.410 199.293,223.118 199.449 C 222.342 199.865,217.949 200.474,214.378 200.660 C 210.428 200.867,202.729 200.112,201.150 199.362 C 200.694 199.146,199.575 198.812,198.664 198.621 C 197.752 198.430,196.718 198.092,196.366 197.871 C 196.014 197.649,195.300 197.332,194.780 197.167 C 192.513 196.450,184.715 192.017,184.715 191.446 C 184.715 191.325,184.511 191.162,184.262 191.083 C 183.587 190.869,178.497 185.796,178.497 185.338 C 178.497 185.206,178.219 184.798,177.878 184.430 C 177.537 184.063,177.055 183.365,176.805 182.879 C 176.556 182.393,176.135 181.717,175.870 181.377 C 175.605 181.037,175.385 180.571,175.380 180.341 C 175.376 180.111,175.072 179.339,174.705 178.627 C 174.337 177.915,173.882 176.516,173.692 175.518 C 173.502 174.521,173.111 172.772,172.822 171.632 C 172.219 169.249,172.032 160.003,172.560 158.631 C 172.865 157.838,173.155 156.334,173.699 152.720 C 173.892 151.438,174.220 149.981,174.428 149.482 C 174.636 148.983,175.008 147.642,175.255 146.503 C 175.502 145.363,175.796 144.313,175.908 144.171 C 176.020 144.028,176.369 143.038,176.684 141.969 C 176.999 140.900,177.348 139.909,177.461 139.767 C 177.574 139.624,177.900 138.750,178.186 137.824 C 178.472 136.898,179.009 135.540,179.379 134.807 C 179.749 134.074,180.052 133.328,180.052 133.149 C 180.052 132.971,180.388 132.113,180.798 131.244 C 182.630 127.365,182.889 126.742,183.151 125.567 C 183.304 124.881,183.597 124.063,183.803 123.750 C 184.008 123.437,184.364 122.367,184.595 121.372 C 184.826 120.378,185.111 119.447,185.228 119.303 C 185.545 118.915,185.960 117.216,186.267 115.046 C 186.417 113.988,186.643 112.997,186.771 112.844 C 187.660 111.771,187.806 97.841,186.954 95.337 C 186.736 94.696,186.435 93.336,186.285 92.315 C 186.012 90.455,184.348 85.008,183.607 83.549 C 183.390 83.122,183.070 82.306,182.896 81.736 C 182.721 81.166,182.428 80.525,182.244 80.311 C 182.060 80.097,181.700 79.398,181.445 78.756 C 181.191 78.115,180.714 77.196,180.387 76.713 C 180.060 76.230,179.793 75.723,179.793 75.587 C 179.793 75.451,179.530 74.973,179.210 74.525 C 178.889 74.078,178.429 73.273,178.186 72.736 C 177.944 72.200,177.635 71.762,177.499 71.762 C 177.364 71.762,177.138 71.432,176.997 71.029 C 176.857 70.626,176.438 69.968,176.065 69.566 C 175.693 69.165,175.389 68.703,175.389 68.540 C 175.389 68.378,175.044 67.841,174.622 67.348 C 174.200 66.854,173.851 66.323,173.845 66.166 C 173.839 66.009,173.499 65.418,173.089 64.853 C 172.680 64.287,172.255 63.541,172.146 63.195 C 172.037 62.848,171.673 62.159,171.336 61.663 C 170.029 59.733,171.223 57.336,174.323 55.664 C 174.948 55.327,175.705 54.908,176.007 54.732 C 176.308 54.556,176.790 54.410,177.078 54.408 C 177.366 54.406,178.415 54.158,179.410 53.857 C 183.208 52.706,189.425 52.674,193.653 53.783 M289.896 53.112 C 291.108 53.236,292.915 53.527,293.912 53.758 C 294.909 53.990,296.345 54.283,297.102 54.410 C 297.860 54.537,299.084 54.922,299.823 55.265 C 300.561 55.608,301.547 55.960,302.014 56.048 C 302.480 56.135,303.294 56.501,303.823 56.860 C 304.351 57.219,304.960 57.513,305.177 57.514 C 305.393 57.515,306.095 57.864,306.736 58.290 C 307.377 58.716,308.024 59.066,308.174 59.066 C 308.324 59.067,308.907 59.402,309.470 59.812 C 310.032 60.221,310.755 60.637,311.075 60.736 C 311.396 60.835,311.658 61.015,311.658 61.136 C 311.658 61.257,312.095 61.625,312.630 61.952 C 313.164 62.280,313.891 62.814,314.246 63.139 C 314.601 63.464,314.963 63.731,315.050 63.731 C 315.487 63.731,320.335 68.514,321.023 69.624 C 321.310 70.087,321.631 70.466,321.737 70.466 C 321.842 70.466,322.191 70.991,322.511 71.632 C 322.831 72.273,323.187 72.798,323.302 72.798 C 323.417 72.798,323.772 73.410,324.090 74.158 C 324.408 74.906,324.821 75.693,325.008 75.907 C 325.195 76.120,325.435 76.645,325.541 77.073 C 325.647 77.500,325.998 78.348,326.322 78.957 C 326.645 79.567,327.037 80.684,327.194 81.440 C 327.351 82.196,327.694 83.214,327.956 83.703 C 328.218 84.192,328.515 85.348,328.616 86.272 C 328.717 87.197,329.081 89.622,329.425 91.661 C 330.092 95.609,330.298 102.218,329.812 104.115 C 329.573 105.048,328.917 109.654,328.615 112.515 C 328.528 113.342,328.191 114.800,327.868 115.753 C 327.544 116.707,327.196 118.043,327.094 118.723 C 326.993 119.403,326.641 120.569,326.312 121.314 C 325.983 122.059,325.627 123.076,325.520 123.575 C 325.413 124.074,325.061 124.948,324.736 125.518 C 324.412 126.088,324.065 126.829,323.965 127.164 C 323.864 127.499,323.503 128.186,323.161 128.690 C 322.819 129.194,322.539 129.798,322.539 130.033 C 322.539 130.268,322.293 130.922,321.992 131.487 C 321.474 132.457,320.593 135.073,319.813 137.953 C 318.477 142.887,318.739 157.596,320.197 159.456 C 320.308 159.598,320.591 160.589,320.825 161.658 C 321.059 162.727,321.414 163.916,321.613 164.300 C 321.813 164.685,322.171 165.676,322.410 166.502 C 322.649 167.329,323.052 168.355,323.307 168.782 C 323.562 169.210,323.969 170.172,324.212 170.920 C 324.454 171.668,324.751 172.280,324.870 172.280 C 324.990 172.280,325.279 172.856,325.513 173.560 C 325.747 174.265,326.146 175.110,326.399 175.439 C 326.653 175.767,326.992 176.424,327.154 176.898 C 327.315 177.371,327.742 178.109,328.102 178.537 C 328.462 178.964,328.760 179.451,328.764 179.618 C 328.768 179.785,329.117 180.380,329.541 180.940 C 329.964 181.500,330.311 182.067,330.311 182.200 C 330.311 182.333,330.613 182.808,330.983 183.255 C 331.883 184.342,333.420 186.827,333.420 187.194 C 333.420 187.355,333.711 188.036,334.067 188.706 C 335.076 190.602,334.325 192.969,332.100 194.906 C 331.472 195.452,330.709 196.122,330.404 196.395 C 330.099 196.668,329.736 196.891,329.598 196.891 C 329.460 196.891,328.939 197.168,328.441 197.506 C 327.943 197.844,326.674 198.384,325.620 198.705 C 324.567 199.027,323.577 199.391,323.421 199.514 C 321.443 201.073,305.007 200.888,301.295 199.266 C 300.654 198.986,299.605 198.673,298.964 198.571 C 298.323 198.469,297.074 198.050,296.190 197.639 C 295.305 197.228,294.417 196.891,294.217 196.891 C 294.016 196.891,293.553 196.656,293.187 196.368 C 292.820 196.079,292.039 195.674,291.451 195.466 C 290.862 195.259,290.081 194.853,289.715 194.565 C 289.349 194.277,288.919 194.040,288.760 194.039 C 288.602 194.038,287.947 193.634,287.306 193.141 C 286.665 192.649,285.625 191.863,284.996 191.395 C 281.405 188.723,276.735 183.099,275.898 180.440 C 275.719 179.870,275.367 179.140,275.115 178.816 C 274.864 178.493,274.576 177.625,274.474 176.886 C 274.373 176.148,274.058 175.013,273.774 174.365 C 272.610 171.700,272.559 157.809,273.702 154.641 C 273.929 154.012,274.284 152.344,274.491 150.935 C 274.699 149.525,274.971 148.243,275.097 148.085 C 275.375 147.737,276.166 145.038,276.166 144.438 C 276.166 144.202,276.458 143.370,276.814 142.590 C 277.171 141.811,277.567 140.708,277.695 140.141 C 277.822 139.573,278.105 138.836,278.324 138.502 C 278.543 138.168,278.896 137.227,279.109 136.410 C 279.323 135.594,279.669 134.733,279.879 134.497 C 280.089 134.260,280.434 133.484,280.646 132.772 C 280.858 132.060,281.335 130.952,281.705 130.311 C 282.075 129.670,282.379 128.910,282.380 128.623 C 282.382 128.336,282.609 127.680,282.885 127.165 C 283.161 126.650,283.586 125.544,283.829 124.708 C 284.072 123.871,284.417 122.953,284.597 122.668 C 284.776 122.383,285.114 121.276,285.347 120.207 C 285.581 119.139,285.947 117.885,286.162 117.422 C 286.377 116.958,286.786 114.977,287.070 113.018 C 287.354 111.059,287.698 109.048,287.833 108.549 C 288.153 107.375,288.157 99.888,287.838 98.853 C 287.704 98.415,287.478 97.241,287.337 96.244 C 286.661 91.452,286.496 90.586,286.128 89.873 C 285.910 89.451,285.610 88.439,285.463 87.623 C 285.315 86.807,284.982 85.776,284.723 85.330 C 284.464 84.885,284.055 83.836,283.813 82.999 C 283.571 82.162,283.219 81.302,283.030 81.088 C 282.841 80.874,282.483 80.175,282.235 79.534 C 281.988 78.892,281.642 78.193,281.468 77.979 C 281.294 77.766,280.901 77.066,280.595 76.425 C 279.858 74.883,278.796 73.022,278.377 72.539 C 278.191 72.325,277.790 71.684,277.484 71.114 C 277.179 70.544,276.351 69.262,275.645 68.264 C 274.939 67.267,274.359 66.325,274.357 66.172 C 274.354 66.019,274.071 65.629,273.727 65.306 C 273.382 64.982,273.028 64.428,272.939 64.074 C 272.850 63.719,272.463 62.955,272.080 62.375 C 271.520 61.530,271.382 61.017,271.382 59.797 C 271.382 55.535,280.701 52.170,289.896 53.112 " stroke="none" fill="#ec2128" fill-rule="evenodd"></path><path id="path1" d="M0.000 129.534 L 0.000 259.067 200.000 259.067 L 400.000 259.067 400.000 129.534 L 400.000 0.000 200.000 0.000 L 0.000 0.000 0.000 129.534 M89.329 42.745 C 90.282 43.006,91.762 43.305,92.617 43.408 C 93.472 43.511,94.812 43.819,95.596 44.091 C 96.380 44.363,97.618 44.736,98.347 44.920 C 99.077 45.103,100.068 45.493,100.549 45.785 C 101.031 46.078,101.833 46.399,102.332 46.498 C 102.830 46.598,103.648 46.944,104.148 47.267 C 104.649 47.589,105.349 47.941,105.703 48.048 C 106.057 48.155,106.882 48.579,107.536 48.991 C 108.189 49.404,108.851 49.741,109.005 49.741 C 109.160 49.741,109.616 50.016,110.019 50.352 C 110.422 50.688,111.101 51.160,111.528 51.399 C 113.152 52.310,115.197 53.876,118.636 56.839 C 121.112 58.973,124.788 63.022,125.791 64.721 C 126.059 65.174,126.367 65.544,126.477 65.544 C 126.587 65.544,126.859 65.980,127.081 66.512 C 127.304 67.044,127.694 67.715,127.948 68.002 C 128.203 68.289,128.611 69.068,128.856 69.733 C 129.101 70.399,129.471 71.084,129.677 71.255 C 129.883 71.426,130.052 71.708,130.052 71.882 C 130.052 72.055,130.395 72.886,130.815 73.728 C 131.235 74.570,131.704 75.823,131.857 76.512 C 132.011 77.201,132.356 78.195,132.624 78.720 C 132.892 79.245,133.191 80.256,133.288 80.965 C 133.385 81.674,133.738 83.187,134.073 84.326 C 135.646 89.674,135.649 108.035,134.078 114.249 C 133.736 115.602,133.389 117.293,133.308 118.005 C 133.226 118.718,132.919 119.936,132.624 120.711 C 132.329 121.487,131.969 122.765,131.824 123.550 C 131.679 124.336,131.295 125.508,130.971 126.155 C 130.647 126.802,130.298 127.788,130.197 128.346 C 130.095 128.905,129.745 129.721,129.418 130.160 C 129.092 130.599,128.745 131.294,128.648 131.704 C 128.550 132.114,128.185 132.870,127.836 133.384 C 127.488 133.897,127.201 134.494,127.200 134.710 C 127.198 134.927,126.894 135.745,126.524 136.528 C 126.154 137.312,125.690 138.653,125.493 139.508 C 125.297 140.363,124.960 141.700,124.744 142.479 C 124.211 144.408,124.225 150.809,124.768 153.109 C 124.987 154.035,125.323 155.677,125.515 156.758 C 125.707 157.839,126.165 159.438,126.533 160.312 C 126.901 161.186,127.202 162.082,127.202 162.303 C 127.202 162.524,127.552 163.359,127.979 164.161 C 128.407 164.962,128.756 165.807,128.756 166.039 C 128.756 166.270,129.031 166.866,129.368 167.362 C 129.704 167.858,130.067 168.556,130.174 168.912 C 130.282 169.268,130.618 169.968,130.922 170.466 C 131.226 170.965,131.732 171.927,132.046 172.604 C 132.361 173.280,132.729 173.834,132.864 173.834 C 132.999 173.834,133.232 174.184,133.381 174.611 C 133.530 175.038,133.949 175.777,134.313 176.254 C 134.676 176.731,134.974 177.212,134.974 177.322 C 134.974 177.432,135.324 177.921,135.751 178.407 C 136.179 178.894,136.528 179.399,136.528 179.530 C 136.528 179.660,136.878 180.285,137.306 180.918 C 137.733 181.552,138.083 182.182,138.083 182.320 C 138.083 182.457,138.462 183.304,138.925 184.202 L 139.767 185.835 139.764 190.391 L 139.761 194.948 138.922 196.657 C 138.460 197.597,138.083 198.475,138.083 198.609 C 138.083 198.949,134.779 202.887,134.104 203.351 C 133.799 203.561,133.433 203.879,133.290 204.058 C 132.845 204.617,131.273 205.659,129.891 206.311 C 129.161 206.655,128.489 207.058,128.398 207.205 C 128.307 207.353,127.622 207.676,126.875 207.923 C 126.129 208.171,125.227 208.575,124.870 208.822 C 124.514 209.069,123.497 209.406,122.610 209.570 C 121.723 209.734,120.499 210.088,119.890 210.356 C 119.177 210.670,117.860 210.900,116.192 211.002 C 114.767 211.089,112.312 211.348,110.736 211.578 C 108.298 211.935,107.546 211.949,105.684 211.673 C 104.482 211.495,102.098 211.253,100.389 211.136 C 98.469 211.005,96.338 210.668,94.819 210.255 C 93.465 209.887,91.658 209.460,90.803 209.305 C 89.948 209.151,89.070 208.864,88.853 208.669 C 88.635 208.473,87.771 208.135,86.934 207.917 C 86.097 207.699,85.226 207.358,84.999 207.160 C 84.771 206.962,84.119 206.645,83.549 206.456 C 82.979 206.266,82.280 205.920,81.995 205.686 C 81.710 205.452,80.997 205.075,80.411 204.848 C 79.825 204.622,78.905 204.138,78.367 203.773 C 77.829 203.408,77.285 203.109,77.158 203.109 C 77.032 203.109,76.202 202.545,75.313 201.856 C 74.425 201.166,73.409 200.449,73.054 200.262 C 71.214 199.289,66.187 194.201,64.817 191.925 C 64.488 191.379,64.109 190.933,63.975 190.933 C 63.841 190.933,63.731 190.767,63.731 190.564 C 63.731 190.361,63.457 189.866,63.123 189.463 C 62.325 188.502,58.808 181.230,58.808 180.541 C 58.808 180.364,58.527 179.395,58.182 178.387 C 56.807 174.362,55.936 161.466,56.832 158.420 C 57.042 157.707,57.284 156.075,57.370 154.793 C 57.455 153.510,57.706 151.762,57.926 150.907 C 58.147 150.052,58.586 148.169,58.903 146.723 C 59.220 145.277,59.609 143.936,59.769 143.744 C 59.928 143.551,60.193 142.636,60.358 141.710 C 60.523 140.784,60.941 139.421,61.287 138.682 C 61.634 137.943,61.917 137.127,61.917 136.868 C 61.917 136.610,62.267 135.660,62.695 134.757 C 63.122 133.853,63.472 132.903,63.472 132.646 C 63.472 132.388,63.810 131.534,64.223 130.748 C 64.637 129.962,65.057 128.946,65.157 128.492 C 65.257 128.037,65.604 127.273,65.929 126.794 C 66.254 126.316,66.601 125.487,66.702 124.952 C 66.802 124.417,67.154 123.510,67.485 122.935 C 67.815 122.361,68.167 121.367,68.267 120.725 C 68.367 120.084,68.719 119.035,69.051 118.394 C 69.382 117.753,69.765 116.587,69.902 115.803 C 70.039 115.019,70.425 113.679,70.760 112.824 C 71.350 111.315,71.368 111.041,71.366 103.497 L 71.363 95.725 70.682 94.126 C 70.307 93.246,69.916 92.022,69.813 91.405 C 69.711 90.789,69.363 89.760,69.042 89.119 C 68.721 88.478,68.370 87.548,68.263 87.053 C 68.156 86.559,67.810 85.743,67.494 85.240 C 67.177 84.738,66.780 83.903,66.610 83.386 C 66.441 82.869,66.080 82.245,65.808 81.999 C 65.537 81.754,65.245 81.238,65.161 80.854 C 65.077 80.471,64.720 79.847,64.369 79.468 C 64.018 79.089,63.731 78.699,63.731 78.600 C 63.731 78.502,63.352 77.825,62.889 77.097 C 62.426 76.368,61.930 75.586,61.788 75.358 C 61.645 75.130,61.304 74.606,61.030 74.194 C 59.697 72.192,58.808 70.750,58.808 70.589 C 58.808 70.492,58.520 70.069,58.167 69.650 C 57.815 69.231,57.404 68.432,57.254 67.875 C 57.104 67.317,56.866 66.790,56.725 66.703 C 56.345 66.469,55.783 65.000,55.576 63.704 C 55.476 63.078,55.216 61.933,54.998 61.161 C 54.393 59.020,55.461 53.873,56.754 52.704 C 57.029 52.455,57.254 52.116,57.254 51.951 C 57.254 51.554,60.392 48.451,61.246 48.003 C 61.615 47.810,61.917 47.559,61.917 47.445 C 61.917 47.331,62.238 47.076,62.630 46.878 C 63.021 46.680,63.808 46.212,64.378 45.837 C 64.948 45.463,65.764 45.073,66.192 44.972 C 66.619 44.871,67.443 44.562,68.022 44.285 C 68.601 44.009,69.767 43.660,70.613 43.510 C 71.458 43.360,72.712 43.057,73.399 42.835 C 76.351 41.885,85.993 41.830,89.329 42.745 M193.653 42.645 C 194.650 42.848,196.499 43.183,197.762 43.389 C 199.025 43.596,200.543 43.999,201.136 44.286 C 201.729 44.573,202.620 44.879,203.115 44.965 C 204.254 45.163,205.457 45.593,205.959 45.982 C 206.172 46.148,206.872 46.434,207.513 46.617 C 208.154 46.800,208.977 47.162,209.342 47.421 C 209.707 47.681,210.348 47.977,210.767 48.080 C 211.186 48.183,211.934 48.599,212.429 49.004 C 212.925 49.409,213.454 49.741,213.604 49.741 C 213.920 49.741,216.497 51.315,217.149 51.906 C 217.391 52.125,217.934 52.482,218.355 52.700 C 218.777 52.918,219.279 53.250,219.470 53.437 C 219.662 53.624,220.110 53.975,220.466 54.215 C 221.851 55.151,227.579 60.644,228.756 62.165 C 229.113 62.626,229.666 63.288,229.986 63.636 C 230.306 63.985,230.757 64.644,230.988 65.101 C 231.219 65.559,231.604 66.166,231.845 66.451 C 232.529 67.262,234.197 70.120,234.197 70.481 C 234.197 70.660,234.469 71.167,234.802 71.608 C 235.135 72.049,235.543 72.957,235.709 73.627 C 235.875 74.297,236.303 75.393,236.659 76.062 C 237.014 76.732,237.306 77.539,237.306 77.857 C 237.306 78.176,237.606 79.233,237.973 80.208 C 238.340 81.183,238.757 83.029,238.900 84.310 C 239.043 85.591,239.256 86.818,239.372 87.037 C 240.661 89.458,240.648 107.841,239.355 111.399 C 239.226 111.755,239.005 113.177,238.864 114.559 C 238.723 115.941,238.419 117.573,238.189 118.186 C 237.959 118.799,237.608 120.175,237.410 121.244 C 237.211 122.312,236.757 123.842,236.400 124.644 C 236.043 125.445,235.751 126.320,235.751 126.587 C 235.750 126.854,235.416 127.714,235.008 128.497 C 234.599 129.281,234.188 130.348,234.095 130.868 C 234.001 131.388,233.758 131.951,233.556 132.119 C 233.354 132.287,232.982 132.969,232.729 133.634 C 232.477 134.300,232.021 135.216,231.715 135.670 C 231.410 136.124,231.080 136.993,230.983 137.600 C 230.886 138.208,230.705 138.827,230.582 138.977 C 229.068 140.810,228.975 153.771,230.454 156.739 C 230.633 157.097,230.863 157.972,230.966 158.682 C 231.069 159.393,231.489 160.698,231.898 161.582 C 232.308 162.467,232.642 163.373,232.642 163.595 C 232.642 163.818,232.919 164.438,233.257 164.973 C 233.595 165.508,233.953 166.318,234.053 166.773 C 234.153 167.227,234.503 167.995,234.832 168.479 C 235.160 168.964,235.562 169.764,235.726 170.259 C 235.889 170.754,236.232 171.384,236.488 171.659 C 236.744 171.933,237.085 172.535,237.245 172.996 C 237.406 173.456,237.835 174.223,238.199 174.700 C 238.562 175.177,238.860 175.681,238.860 175.820 C 238.860 175.959,239.210 176.464,239.637 176.943 C 240.065 177.422,240.415 177.906,240.415 178.018 C 240.415 178.131,240.750 178.722,241.159 179.332 C 242.918 181.948,243.523 183.023,243.525 183.529 C 243.526 183.825,243.714 184.417,243.944 184.845 C 245.383 187.525,245.448 194.131,244.053 195.984 C 243.945 196.127,243.727 196.633,243.567 197.108 C 242.851 199.233,238.965 203.939,237.176 204.847 C 236.749 205.064,236.166 205.444,235.881 205.692 C 234.970 206.483,229.124 209.326,228.409 209.326 C 228.200 209.326,226.998 209.669,225.738 210.088 C 223.971 210.675,222.615 210.913,219.819 211.124 C 217.824 211.274,215.784 211.514,215.287 211.657 C 213.990 212.030,210.602 211.978,209.424 211.567 C 208.872 211.375,206.804 211.138,204.830 211.041 C 202.547 210.929,200.897 210.720,200.296 210.466 C 199.777 210.247,198.248 209.835,196.898 209.551 C 195.548 209.267,194.313 208.926,194.154 208.794 C 193.995 208.662,193.117 208.316,192.204 208.024 C 191.291 207.733,190.078 207.275,189.508 207.005 C 188.938 206.736,188.063 206.331,187.565 206.106 C 187.066 205.880,185.959 205.296,185.104 204.808 C 184.249 204.319,183.140 203.708,182.640 203.449 C 182.141 203.191,181.314 202.659,180.803 202.267 C 180.291 201.875,179.798 201.554,179.706 201.554 C 179.524 201.554,177.779 200.235,176.604 199.210 C 173.725 196.700,169.528 192.148,168.833 190.784 C 168.610 190.346,168.253 189.843,168.039 189.665 C 167.825 189.488,167.577 189.013,167.489 188.610 C 167.401 188.207,167.106 187.677,166.834 187.431 C 166.563 187.185,166.202 186.561,166.031 186.044 C 165.861 185.527,165.460 184.696,165.139 184.197 C 164.818 183.698,164.471 182.882,164.368 182.383 C 164.266 181.885,163.925 180.894,163.612 180.181 C 163.299 179.469,162.893 177.957,162.711 176.822 C 162.528 175.686,162.266 174.462,162.127 174.101 C 161.097 171.419,161.053 160.966,162.052 156.088 C 162.256 155.091,162.551 153.225,162.706 151.943 C 162.862 150.661,163.263 148.737,163.597 147.668 C 163.932 146.600,164.289 145.142,164.391 144.430 C 164.493 143.718,164.795 142.699,165.063 142.167 C 165.331 141.635,165.707 140.452,165.899 139.538 C 166.090 138.623,166.487 137.485,166.781 137.008 C 167.074 136.530,167.398 135.674,167.500 135.104 C 167.603 134.534,167.951 133.601,168.274 133.031 C 168.597 132.461,168.945 131.587,169.047 131.088 C 169.150 130.589,169.511 129.705,169.850 129.122 C 170.189 128.540,170.466 127.888,170.466 127.674 C 170.466 127.460,170.807 126.596,171.223 125.754 C 171.639 124.912,172.104 123.756,172.256 123.187 C 172.408 122.617,172.750 121.797,173.016 121.364 C 173.282 120.932,173.582 120.026,173.683 119.351 C 173.785 118.677,174.145 117.515,174.485 116.770 C 174.825 116.024,175.232 114.598,175.389 113.601 C 175.546 112.604,175.863 111.263,176.094 110.622 C 176.728 108.855,176.741 98.547,176.111 96.891 C 175.867 96.250,175.540 94.909,175.385 93.912 C 175.230 92.915,174.830 91.500,174.496 90.768 C 174.163 90.036,173.805 88.928,173.701 88.306 C 173.597 87.685,173.291 86.863,173.020 86.481 C 172.749 86.098,172.358 85.304,172.150 84.715 C 171.943 84.126,171.552 83.332,171.283 82.949 C 171.014 82.567,170.704 81.962,170.594 81.606 C 170.485 81.250,170.128 80.639,169.801 80.248 C 169.474 79.856,169.125 79.274,169.024 78.952 C 168.924 78.631,168.508 77.985,168.100 77.517 C 167.692 77.049,167.358 76.523,167.358 76.348 C 167.358 76.174,167.066 75.717,166.710 75.332 C 166.354 74.948,166.062 74.521,166.062 74.384 C 166.062 74.246,165.756 73.769,165.382 73.324 C 164.708 72.523,163.999 71.330,162.973 69.270 C 162.680 68.683,162.284 68.073,162.092 67.914 C 161.900 67.754,161.597 67.127,161.418 66.519 C 161.239 65.912,160.874 64.924,160.607 64.324 C 159.436 61.698,159.455 56.694,160.643 54.762 C 160.916 54.318,161.140 53.801,161.140 53.612 C 161.140 52.532,166.944 46.645,168.020 46.635 C 168.170 46.633,168.684 46.344,169.162 45.991 C 169.641 45.638,170.450 45.218,170.961 45.057 C 171.473 44.896,172.474 44.496,173.187 44.169 C 173.899 43.841,175.181 43.488,176.036 43.383 C 176.891 43.278,178.057 43.020,178.627 42.809 C 180.933 41.959,189.803 41.862,193.653 42.645 M290.674 42.239 C 292.170 42.372,293.918 42.590,294.560 42.723 C 295.201 42.855,296.738 43.141,297.976 43.358 C 299.214 43.575,300.613 43.953,301.085 44.199 C 301.557 44.444,302.691 44.803,303.604 44.996 C 304.518 45.189,305.625 45.567,306.065 45.836 C 306.505 46.105,307.389 46.465,308.029 46.635 C 308.669 46.805,309.509 47.170,309.895 47.446 C 310.282 47.721,310.983 48.078,311.452 48.239 C 311.922 48.400,312.666 48.804,313.107 49.136 C 313.548 49.469,314.015 49.743,314.144 49.746 C 314.273 49.748,315.194 50.330,316.192 51.038 C 317.189 51.747,318.384 52.524,318.847 52.766 C 319.310 53.007,319.689 53.290,319.689 53.394 C 319.689 53.498,320.243 53.940,320.920 54.377 C 323.194 55.845,327.550 59.986,329.404 62.442 C 329.832 63.008,330.501 63.851,330.891 64.314 C 331.282 64.777,331.676 65.389,331.768 65.674 C 331.860 65.959,332.269 66.575,332.677 67.043 C 333.086 67.511,333.420 68.056,333.420 68.253 C 333.420 68.451,333.695 68.943,334.032 69.345 C 334.369 69.748,334.731 70.369,334.836 70.725 C 334.942 71.082,335.304 71.876,335.640 72.492 C 335.977 73.107,336.330 74.023,336.425 74.528 C 336.519 75.033,336.864 75.928,337.190 76.518 C 337.516 77.108,337.907 78.274,338.059 79.109 C 338.211 79.944,338.570 81.284,338.856 82.088 C 339.143 82.892,339.557 85.006,339.776 86.788 C 339.995 88.569,340.314 90.842,340.486 91.839 C 340.882 94.140,340.872 103.588,340.471 106.347 C 340.305 107.487,339.995 109.877,339.782 111.658 C 339.568 113.439,339.206 115.538,338.977 116.321 C 338.748 117.105,338.385 118.676,338.171 119.813 C 337.956 120.950,337.499 122.549,337.155 123.367 C 336.810 124.185,336.528 125.133,336.528 125.474 C 336.528 125.814,336.195 126.721,335.788 127.489 C 335.381 128.258,334.964 129.343,334.862 129.901 C 334.759 130.459,334.408 131.275,334.082 131.714 C 333.755 132.154,333.408 132.849,333.310 133.261 C 333.213 133.672,332.848 134.383,332.499 134.840 C 332.151 135.297,331.864 135.893,331.863 136.164 C 331.861 136.436,331.555 137.299,331.182 138.083 C 329.330 141.975,329.368 155.186,331.240 158.161 C 331.420 158.446,331.684 159.328,331.828 160.122 C 331.972 160.916,332.389 162.128,332.755 162.816 C 333.120 163.504,333.424 164.253,333.430 164.482 C 333.436 164.710,333.785 165.538,334.207 166.321 C 334.629 167.105,334.974 167.910,334.974 168.110 C 334.974 168.311,335.249 168.835,335.584 169.276 C 335.920 169.717,336.277 170.338,336.378 170.656 C 336.578 171.289,338.280 174.258,339.767 176.568 C 340.052 177.011,340.518 177.753,340.803 178.219 C 341.088 178.684,341.642 179.478,342.034 179.983 C 342.426 180.487,342.746 180.996,342.746 181.112 C 342.746 181.229,343.029 181.741,343.374 182.250 C 343.720 182.759,344.179 183.901,344.394 184.787 C 344.609 185.674,344.980 186.924,345.218 187.565 C 345.739 188.964,345.604 192.729,344.985 194.095 C 344.772 194.564,344.517 195.356,344.418 195.855 C 344.215 196.878,343.631 198.116,343.101 198.646 C 342.906 198.841,342.746 199.168,342.746 199.373 C 342.746 200.107,336.314 206.218,335.541 206.218 C 335.427 206.218,334.804 206.554,334.155 206.966 C 333.506 207.377,332.697 207.801,332.356 207.908 C 332.015 208.015,331.131 208.378,330.392 208.714 C 329.653 209.051,328.921 209.326,328.766 209.326 C 328.610 209.326,327.407 209.682,326.094 210.117 C 324.154 210.758,323.120 210.933,320.596 211.045 C 318.886 211.121,316.971 211.348,316.340 211.550 C 315.009 211.976,311.675 212.035,310.361 211.656 C 309.863 211.513,307.766 211.272,305.699 211.121 C 303.445 210.955,301.321 210.648,300.389 210.350 C 299.534 210.078,298.017 209.685,297.017 209.478 C 296.018 209.270,294.866 208.927,294.457 208.715 C 294.049 208.503,292.972 208.128,292.064 207.883 C 291.157 207.637,290.415 207.346,290.415 207.237 C 290.415 207.127,289.658 206.785,288.733 206.478 C 287.809 206.170,286.986 205.811,286.905 205.680 C 286.824 205.549,286.153 205.147,285.413 204.787 C 283.867 204.035,282.707 203.353,281.175 202.298 C 280.582 201.889,279.966 201.554,279.807 201.554 C 279.648 201.554,279.454 201.389,279.377 201.187 C 279.299 200.985,278.804 200.534,278.276 200.185 C 277.748 199.836,275.949 198.165,274.278 196.472 C 270.341 192.483,270.134 192.254,269.551 191.256 C 269.281 190.793,268.980 190.415,268.884 190.415 C 268.788 190.415,268.512 189.919,268.272 189.313 C 268.031 188.708,267.624 187.979,267.367 187.694 C 267.109 187.409,266.814 186.885,266.710 186.528 C 266.605 186.172,266.258 185.530,265.937 185.101 C 265.616 184.672,265.265 183.914,265.158 183.417 C 265.050 182.920,264.700 181.988,264.381 181.347 C 264.061 180.706,263.714 179.598,263.611 178.886 C 263.507 178.174,263.255 177.190,263.051 176.700 C 261.546 173.088,261.537 156.466,263.038 152.196 C 263.237 151.629,263.486 150.352,263.592 149.358 C 263.698 148.364,264.020 146.965,264.308 146.250 C 264.596 145.534,264.984 144.172,265.171 143.224 C 265.357 142.275,265.736 141.051,266.014 140.503 C 266.291 139.956,266.604 138.983,266.710 138.342 C 266.815 137.701,267.166 136.710,267.489 136.140 C 267.812 135.570,268.152 134.674,268.244 134.150 C 268.336 133.625,268.687 132.692,269.024 132.077 C 269.362 131.462,269.723 130.554,269.826 130.059 C 269.930 129.564,270.276 128.745,270.596 128.238 C 270.915 127.732,271.264 126.913,271.371 126.418 C 271.478 125.923,271.831 125.052,272.156 124.482 C 272.481 123.912,272.831 123.038,272.934 122.539 C 273.037 122.040,273.384 121.108,273.705 120.466 C 274.027 119.825,274.372 118.776,274.473 118.135 C 274.573 117.494,274.859 116.561,275.107 116.062 C 275.556 115.162,275.851 113.842,276.439 110.104 C 276.607 109.035,276.847 107.753,276.972 107.254 C 277.388 105.596,277.240 100.567,276.710 98.324 C 276.440 97.180,276.086 95.371,275.924 94.305 C 275.761 93.239,275.457 92.105,275.247 91.785 C 275.037 91.464,274.684 90.420,274.462 89.465 C 274.241 88.509,273.848 87.428,273.590 87.063 C 273.332 86.698,273.033 85.992,272.925 85.495 C 272.818 84.998,272.467 84.240,272.146 83.811 C 271.825 83.382,271.476 82.740,271.370 82.383 C 271.265 82.027,270.843 81.276,270.434 80.713 C 270.024 80.151,269.689 79.596,269.689 79.480 C 269.689 79.365,269.339 78.787,268.912 78.197 C 268.484 77.607,268.135 77.011,268.135 76.874 C 268.135 76.736,267.814 76.242,267.422 75.777 C 267.030 75.312,266.360 74.324,265.933 73.581 C 265.505 72.838,264.890 71.900,264.566 71.497 C 264.242 71.094,263.847 70.377,263.689 69.903 C 263.530 69.429,263.139 68.750,262.820 68.394 C 262.500 68.038,262.090 67.280,261.909 66.710 C 261.728 66.140,261.431 65.440,261.250 65.155 C 259.935 63.084,260.050 56.380,261.448 53.712 C 262.415 51.865,265.303 48.684,267.120 47.462 C 269.021 46.185,271.014 45.113,271.812 44.937 C 272.272 44.836,272.945 44.534,273.308 44.265 C 273.691 43.982,274.945 43.618,276.298 43.396 C 277.579 43.187,279.035 42.881,279.534 42.718 C 281.390 42.108,286.675 41.881,290.674 42.239 M77.979 53.108 C 76.911 53.210,75.453 53.489,74.741 53.729 C 74.028 53.969,72.957 54.277,72.359 54.412 C 71.762 54.548,70.842 54.951,70.315 55.309 C 69.789 55.666,69.199 55.959,69.006 55.959 C 67.618 55.959,65.514 59.306,66.136 60.523 C 66.346 60.934,66.605 61.677,66.712 62.176 C 66.819 62.675,67.175 63.403,67.503 63.794 C 67.831 64.185,68.181 64.768,68.281 65.089 C 68.382 65.411,68.798 66.057,69.206 66.525 C 69.614 66.993,69.948 67.502,69.948 67.656 C 69.948 67.811,70.298 68.335,70.725 68.822 C 71.153 69.309,71.503 69.830,71.503 69.980 C 71.503 70.129,71.836 70.737,72.244 71.331 C 73.603 73.307,74.611 74.957,74.611 75.201 C 74.611 75.334,74.898 75.784,75.249 76.201 C 75.600 76.618,75.998 77.362,76.134 77.855 C 76.270 78.347,76.556 78.925,76.770 79.138 C 76.983 79.352,77.358 80.140,77.602 80.890 C 77.846 81.640,78.194 82.429,78.374 82.642 C 78.555 82.856,78.940 83.789,79.229 84.715 C 79.519 85.641,79.949 86.924,80.185 87.565 C 80.422 88.206,80.719 89.366,80.846 90.142 C 80.974 90.918,81.244 91.909,81.448 92.344 C 82.688 94.992,82.771 110.838,81.563 114.378 C 81.417 114.806,81.068 116.263,80.788 117.617 C 80.507 118.970,80.107 120.422,79.899 120.843 C 79.691 121.265,79.340 122.314,79.119 123.175 C 78.899 124.036,78.547 125.006,78.338 125.331 C 78.129 125.655,77.726 126.671,77.443 127.587 C 77.160 128.503,76.823 129.318,76.694 129.398 C 76.565 129.478,76.265 130.209,76.029 131.022 C 75.792 131.836,75.387 132.799,75.127 133.164 C 74.868 133.528,74.572 134.288,74.469 134.853 C 74.367 135.418,74.018 136.347,73.695 136.917 C 73.372 137.487,73.024 138.361,72.921 138.860 C 72.818 139.359,72.460 140.311,72.125 140.976 C 71.790 141.641,71.435 142.690,71.336 143.308 C 71.238 143.925,70.895 145.023,70.575 145.747 C 70.255 146.471,69.913 147.637,69.816 148.338 C 69.719 149.038,69.367 150.486,69.034 151.554 C 67.273 157.206,67.274 172.864,69.037 176.425 C 69.354 177.066,69.692 177.997,69.787 178.493 C 69.882 178.990,70.232 179.807,70.565 180.310 C 70.897 180.813,71.261 181.514,71.372 181.869 C 71.483 182.223,71.849 182.842,72.186 183.245 C 72.522 183.648,72.798 184.072,72.798 184.188 C 72.798 185.077,80.326 192.443,81.290 192.498 C 81.393 192.503,81.880 192.853,82.374 193.275 C 82.867 193.696,83.399 194.041,83.555 194.041 C 83.712 194.041,84.066 194.249,84.342 194.503 C 84.619 194.757,85.389 195.172,86.055 195.424 C 86.720 195.676,87.404 196.050,87.575 196.255 C 87.745 196.461,88.352 196.754,88.925 196.909 C 89.497 197.063,90.562 197.457,91.291 197.785 C 92.020 198.113,93.258 198.528,94.041 198.707 C 94.825 198.886,95.764 199.184,96.128 199.367 C 96.913 199.764,101.838 200.425,105.833 200.669 C 109.633 200.901,116.355 200.193,118.394 199.345 C 119.178 199.019,120.257 198.670,120.793 198.570 C 121.328 198.469,122.027 198.188,122.347 197.946 C 122.666 197.703,123.456 197.261,124.101 196.964 C 128.381 194.994,130.186 190.028,127.890 186.541 C 127.557 186.036,127.062 185.288,126.790 184.880 C 125.931 183.593,124.658 181.515,124.071 180.440 C 123.760 179.870,123.411 179.343,123.294 179.267 C 123.178 179.192,122.870 178.668,122.610 178.102 C 122.350 177.536,121.837 176.606,121.469 176.036 C 121.102 175.466,120.718 174.738,120.616 174.417 C 120.515 174.097,120.326 173.834,120.197 173.834 C 120.068 173.834,119.769 173.167,119.532 172.351 C 119.294 171.535,118.894 170.574,118.642 170.214 C 118.390 169.854,117.980 168.918,117.732 168.135 C 117.484 167.351,117.184 166.646,117.065 166.568 C 116.946 166.490,116.618 165.503,116.336 164.374 C 116.054 163.245,115.643 161.968,115.423 161.536 C 113.813 158.377,112.878 143.934,114.039 140.155 C 114.280 139.372,114.658 137.805,114.879 136.675 C 115.100 135.544,115.383 134.553,115.508 134.473 C 115.632 134.392,115.935 133.627,116.180 132.772 C 116.426 131.917,116.834 130.868,117.088 130.440 C 117.341 130.013,117.755 129.109,118.007 128.433 C 118.258 127.756,118.556 127.202,118.667 127.202 C 118.779 127.202,119.069 126.590,119.312 125.842 C 119.554 125.094,119.957 124.132,120.206 123.705 C 120.455 123.277,120.862 122.081,121.109 121.047 C 121.357 120.013,121.653 119.109,121.766 119.039 C 121.880 118.968,122.170 117.774,122.410 116.385 C 122.651 114.997,123.066 113.161,123.332 112.306 C 124.682 107.975,124.680 88.817,123.329 86.294 C 123.171 85.999,122.820 84.699,122.550 83.406 C 122.279 82.114,121.936 80.910,121.788 80.731 C 121.639 80.552,121.290 79.675,121.012 78.782 C 120.734 77.889,120.341 76.964,120.138 76.727 C 119.935 76.490,119.572 75.786,119.331 75.164 C 119.089 74.541,118.605 73.656,118.254 73.196 C 117.903 72.737,117.617 72.285,117.617 72.193 C 117.617 71.319,110.731 64.368,107.383 61.862 C 106.956 61.542,106.452 61.132,106.264 60.951 C 106.076 60.770,105.802 60.622,105.656 60.622 C 105.510 60.622,105.028 60.359,104.585 60.039 C 103.576 59.308,102.030 58.445,100.518 57.766 C 99.877 57.478,98.769 56.960,98.057 56.616 C 97.345 56.271,96.416 55.915,95.993 55.825 C 95.570 55.735,94.626 55.378,93.895 55.033 C 93.165 54.687,92.264 54.404,91.895 54.404 C 91.101 54.404,87.917 53.713,87.176 53.379 C 86.468 53.060,80.364 52.880,77.979 53.108 M182.902 53.108 C 181.975 53.218,180.404 53.555,179.410 53.857 C 178.415 54.158,177.366 54.406,177.078 54.408 C 176.790 54.410,176.308 54.556,176.007 54.732 C 175.705 54.908,174.948 55.327,174.323 55.664 C 171.223 57.336,170.029 59.733,171.336 61.663 C 171.673 62.159,172.037 62.848,172.146 63.195 C 172.255 63.541,172.680 64.287,173.089 64.853 C 173.499 65.418,173.839 66.009,173.845 66.166 C 173.851 66.323,174.200 66.854,174.622 67.348 C 175.044 67.841,175.389 68.378,175.389 68.540 C 175.389 68.703,175.693 69.165,176.065 69.566 C 176.438 69.968,176.857 70.626,176.997 71.029 C 177.138 71.432,177.364 71.762,177.499 71.762 C 177.635 71.762,177.944 72.200,178.186 72.736 C 178.429 73.273,178.889 74.078,179.210 74.525 C 179.530 74.973,179.793 75.451,179.793 75.587 C 179.793 75.723,180.060 76.230,180.387 76.713 C 180.714 77.196,181.191 78.115,181.445 78.756 C 181.700 79.398,182.060 80.097,182.244 80.311 C 182.428 80.525,182.721 81.166,182.896 81.736 C 183.070 82.306,183.390 83.122,183.607 83.549 C 184.348 85.008,186.012 90.455,186.285 92.315 C 186.435 93.336,186.736 94.696,186.954 95.337 C 187.806 97.841,187.660 111.771,186.771 112.844 C 186.643 112.997,186.417 113.988,186.267 115.046 C 185.960 117.216,185.545 118.915,185.228 119.303 C 185.111 119.447,184.826 120.378,184.595 121.372 C 184.364 122.367,184.008 123.437,183.803 123.750 C 183.597 124.063,183.304 124.881,183.151 125.567 C 182.889 126.742,182.630 127.365,180.798 131.244 C 180.388 132.113,180.052 132.971,180.052 133.149 C 180.052 133.328,179.749 134.074,179.379 134.807 C 179.009 135.540,178.472 136.898,178.186 137.824 C 177.900 138.750,177.574 139.624,177.461 139.767 C 177.348 139.909,176.999 140.900,176.684 141.969 C 176.369 143.038,176.020 144.028,175.908 144.171 C 175.796 144.313,175.502 145.363,175.255 146.503 C 175.008 147.642,174.636 148.983,174.428 149.482 C 174.220 149.981,173.892 151.438,173.699 152.720 C 173.155 156.334,172.865 157.838,172.560 158.631 C 172.032 160.003,172.219 169.249,172.822 171.632 C 173.111 172.772,173.502 174.521,173.692 175.518 C 173.882 176.516,174.337 177.915,174.705 178.627 C 175.072 179.339,175.376 180.111,175.380 180.341 C 175.385 180.571,175.605 181.037,175.870 181.377 C 176.135 181.717,176.556 182.393,176.805 182.879 C 177.055 183.365,177.537 184.063,177.878 184.430 C 178.219 184.798,178.497 185.206,178.497 185.338 C 178.497 185.796,183.587 190.869,184.262 191.083 C 184.511 191.162,184.715 191.325,184.715 191.446 C 184.715 192.017,192.513 196.450,194.780 197.167 C 195.300 197.332,196.014 197.649,196.366 197.871 C 196.718 198.092,197.752 198.430,198.664 198.621 C 199.575 198.812,200.694 199.146,201.150 199.362 C 202.729 200.112,210.428 200.867,214.378 200.660 C 217.949 200.474,222.342 199.865,223.118 199.449 C 223.410 199.293,224.370 198.959,225.252 198.707 C 226.134 198.454,227.340 197.943,227.931 197.570 C 228.522 197.196,229.061 196.891,229.129 196.891 C 229.572 196.891,232.172 194.607,233.016 193.477 C 234.696 191.226,234.302 188.491,231.791 184.974 C 230.409 183.040,230.016 182.419,229.571 181.477 C 229.303 180.907,228.834 180.218,228.531 179.947 C 228.228 179.675,227.979 179.336,227.979 179.192 C 227.979 179.049,227.642 178.397,227.230 177.743 C 226.818 177.089,226.394 176.263,226.289 175.907 C 226.184 175.551,225.878 174.946,225.608 174.564 C 225.339 174.181,224.943 173.371,224.729 172.763 C 224.514 172.155,224.182 171.477,223.990 171.256 C 223.798 171.036,223.495 170.389,223.317 169.819 C 223.140 169.249,222.784 168.433,222.527 168.005 C 222.271 167.578,221.873 166.416,221.643 165.424 C 221.413 164.432,221.107 163.548,220.963 163.458 C 220.819 163.369,220.470 162.141,220.186 160.729 C 219.903 159.316,219.500 157.720,219.291 157.182 C 218.163 154.282,218.234 141.700,219.399 138.156 C 219.670 137.332,220.080 135.848,220.311 134.858 C 220.541 133.869,220.828 132.994,220.948 132.915 C 221.068 132.837,221.424 131.994,221.738 131.043 C 222.052 130.092,222.470 129.180,222.666 129.017 C 222.863 128.854,223.098 128.383,223.189 127.970 C 223.279 127.557,223.643 126.793,223.996 126.272 C 224.350 125.751,224.732 124.828,224.845 124.220 C 224.959 123.612,225.296 122.720,225.594 122.237 C 225.892 121.755,226.250 120.664,226.390 119.813 C 226.530 118.961,226.876 117.740,227.160 117.098 C 227.444 116.457,227.805 114.853,227.963 113.532 C 228.121 112.212,228.504 110.114,228.815 108.869 C 229.746 105.144,229.676 92.699,228.702 88.860 C 228.323 87.364,227.939 85.502,227.850 84.722 C 227.760 83.941,227.593 83.184,227.479 83.038 C 227.214 82.700,226.166 79.639,226.166 79.204 C 226.166 79.024,225.892 78.471,225.558 77.975 C 225.224 77.478,224.867 76.732,224.765 76.316 C 224.663 75.900,224.353 75.272,224.077 74.921 C 223.801 74.570,223.575 74.167,223.575 74.025 C 223.575 73.883,223.109 73.084,222.539 72.249 C 221.969 71.414,221.503 70.664,221.503 70.582 C 221.503 70.222,215.370 63.990,215.016 63.990 C 214.889 63.990,214.452 63.669,214.046 63.277 C 213.639 62.885,212.615 62.110,211.770 61.555 C 210.925 61.000,209.942 60.329,209.585 60.064 C 209.229 59.798,208.355 59.294,207.642 58.942 C 206.930 58.590,206.172 58.195,205.959 58.062 C 205.065 57.510,202.006 56.170,200.854 55.826 C 200.170 55.622,199.150 55.219,198.585 54.930 C 198.021 54.641,197.205 54.402,196.772 54.399 C 196.339 54.397,194.935 54.119,193.653 53.783 C 191.037 53.097,185.761 52.765,182.902 53.108 M283.420 53.122 C 278.649 53.661,275.296 54.928,272.647 57.192 C 271.045 58.562,270.833 60.492,272.080 62.375 C 272.463 62.955,272.850 63.719,272.939 64.074 C 273.028 64.428,273.382 64.982,273.727 65.306 C 274.071 65.629,274.354 66.019,274.357 66.172 C 274.359 66.325,274.939 67.267,275.645 68.264 C 276.351 69.262,277.179 70.544,277.484 71.114 C 277.790 71.684,278.191 72.325,278.377 72.539 C 278.796 73.022,279.858 74.883,280.595 76.425 C 280.901 77.066,281.294 77.766,281.468 77.979 C 281.642 78.193,281.988 78.892,282.235 79.534 C 282.483 80.175,282.841 80.874,283.030 81.088 C 283.219 81.302,283.571 82.162,283.813 82.999 C 284.055 83.836,284.464 84.885,284.723 85.330 C 284.982 85.776,285.315 86.807,285.463 87.623 C 285.610 88.439,285.910 89.451,286.128 89.873 C 286.496 90.586,286.661 91.452,287.337 96.244 C 287.478 97.241,287.704 98.415,287.838 98.853 C 288.157 99.888,288.153 107.375,287.833 108.549 C 287.698 109.048,287.354 111.059,287.070 113.018 C 286.786 114.977,286.377 116.958,286.162 117.422 C 285.947 117.885,285.581 119.139,285.347 120.207 C 285.114 121.276,284.776 122.383,284.597 122.668 C 284.417 122.953,284.072 123.871,283.829 124.708 C 283.586 125.544,283.161 126.650,282.885 127.165 C 282.609 127.680,282.382 128.336,282.380 128.623 C 282.379 128.910,282.075 129.670,281.705 130.311 C 281.335 130.952,280.858 132.060,280.646 132.772 C 280.434 133.484,280.089 134.260,279.879 134.497 C 279.669 134.733,279.323 135.594,279.109 136.410 C 278.896 137.227,278.543 138.168,278.324 138.502 C 278.105 138.836,277.822 139.573,277.695 140.141 C 277.567 140.708,277.171 141.811,276.814 142.590 C 276.458 143.370,276.166 144.202,276.166 144.438 C 276.166 145.038,275.375 147.737,275.097 148.085 C 274.971 148.243,274.699 149.525,274.491 150.935 C 274.284 152.344,273.929 154.012,273.702 154.641 C 272.559 157.809,272.610 171.700,273.774 174.365 C 274.058 175.013,274.373 176.148,274.474 176.886 C 274.576 177.625,274.864 178.493,275.115 178.816 C 275.367 179.140,275.719 179.870,275.898 180.440 C 276.735 183.099,281.405 188.723,284.996 191.395 C 285.625 191.863,286.665 192.649,287.306 193.141 C 287.947 193.634,288.602 194.038,288.760 194.039 C 288.919 194.040,289.349 194.277,289.715 194.565 C 290.081 194.853,290.862 195.259,291.451 195.466 C 292.039 195.674,292.820 196.079,293.187 196.368 C 293.553 196.656,294.016 196.891,294.217 196.891 C 294.417 196.891,295.305 197.228,296.190 197.639 C 297.074 198.050,298.323 198.469,298.964 198.571 C 299.605 198.673,300.654 198.986,301.295 199.266 C 302.484 199.785,303.927 200.011,309.481 200.547 C 313.464 200.931,322.470 200.264,323.421 199.514 C 323.577 199.391,324.567 199.027,325.620 198.705 C 326.674 198.384,327.943 197.844,328.441 197.506 C 328.939 197.168,329.460 196.891,329.598 196.891 C 329.736 196.891,330.099 196.668,330.404 196.395 C 330.709 196.122,331.472 195.452,332.100 194.906 C 334.325 192.969,335.076 190.602,334.067 188.706 C 333.711 188.036,333.420 187.355,333.420 187.194 C 333.420 186.827,331.883 184.342,330.983 183.255 C 330.613 182.808,330.311 182.333,330.311 182.200 C 330.311 182.067,329.964 181.500,329.541 180.940 C 329.117 180.380,328.768 179.785,328.764 179.618 C 328.760 179.451,328.462 178.964,328.102 178.537 C 327.742 178.109,327.315 177.371,327.154 176.898 C 326.992 176.424,326.653 175.767,326.399 175.439 C 326.146 175.110,325.747 174.265,325.513 173.560 C 325.279 172.856,324.990 172.280,324.870 172.280 C 324.751 172.280,324.454 171.668,324.212 170.920 C 323.969 170.172,323.562 169.210,323.307 168.782 C 323.052 168.355,322.649 167.329,322.410 166.502 C 322.171 165.676,321.813 164.685,321.613 164.300 C 321.414 163.916,321.059 162.727,320.825 161.658 C 320.591 160.589,320.308 159.598,320.197 159.456 C 318.739 157.596,318.477 142.887,319.813 137.953 C 320.593 135.073,321.474 132.457,321.992 131.487 C 322.293 130.922,322.539 130.268,322.539 130.033 C 322.539 129.798,322.819 129.194,323.161 128.690 C 323.503 128.186,323.864 127.499,323.965 127.164 C 324.065 126.829,324.412 126.088,324.736 125.518 C 325.061 124.948,325.413 124.074,325.520 123.575 C 325.627 123.076,325.983 122.059,326.312 121.314 C 326.641 120.569,326.993 119.403,327.094 118.723 C 327.196 118.043,327.544 116.707,327.868 115.753 C 328.191 114.800,328.528 113.342,328.615 112.515 C 328.917 109.654,329.573 105.048,329.812 104.115 C 330.298 102.218,330.092 95.609,329.425 91.661 C 329.081 89.622,328.717 87.197,328.616 86.272 C 328.515 85.348,328.218 84.192,327.956 83.703 C 327.694 83.214,327.351 82.196,327.194 81.440 C 327.037 80.684,326.645 79.567,326.322 78.957 C 325.998 78.348,325.647 77.500,325.541 77.073 C 325.435 76.645,325.195 76.120,325.008 75.907 C 324.821 75.693,324.408 74.906,324.090 74.158 C 323.772 73.410,323.417 72.798,323.302 72.798 C 323.187 72.798,322.831 72.273,322.511 71.632 C 322.191 70.991,321.842 70.466,321.737 70.466 C 321.631 70.466,321.310 70.087,321.023 69.624 C 320.335 68.514,315.487 63.731,315.050 63.731 C 314.963 63.731,314.601 63.464,314.246 63.139 C 313.891 62.814,313.164 62.280,312.630 61.952 C 312.095 61.625,311.658 61.257,311.658 61.136 C 311.658 61.015,311.396 60.835,311.075 60.736 C 310.755 60.637,310.032 60.221,309.470 59.812 C 308.907 59.402,308.324 59.067,308.174 59.066 C 308.024 59.066,307.377 58.716,306.736 58.290 C 306.095 57.864,305.393 57.515,305.177 57.514 C 304.960 57.513,304.351 57.219,303.823 56.860 C 303.294 56.501,302.480 56.135,302.014 56.048 C 301.547 55.960,300.561 55.608,299.823 55.265 C 299.084 54.922,297.860 54.537,297.102 54.410 C 296.345 54.283,294.909 53.990,293.912 53.758 C 290.494 52.965,286.791 52.741,283.420 53.122 " stroke="none" fill="#fcfcfc" fill-rule="evenodd"></path></g></svg>