<svg id="svg" version="1.1" xmlns="http://www.w3.org/2000/svg" xmlns:xlink="http://www.w3.org/1999/xlink" width="400" height="258.91472868217056" viewBox="0, 0, 400,258.91472868217056"><g id="svgg"><path id="path0" d="M177.720 44.192 C 177.079 44.406,175.549 44.740,174.321 44.935 C 172.997 45.144,171.574 45.562,170.826 45.960 C 170.132 46.330,169.330 46.635,169.044 46.639 C 168.757 46.643,168.065 46.993,167.506 47.417 C 166.946 47.840,166.383 48.187,166.254 48.187 C 165.738 48.187,161.140 52.396,161.140 52.868 C 161.140 52.957,160.906 53.300,160.620 53.630 C 160.333 53.960,159.971 54.706,159.814 55.288 C 159.657 55.871,159.350 56.960,159.133 57.708 C 158.315 60.519,161.035 68.763,163.723 71.625 C 164.012 71.932,164.249 72.293,164.249 72.426 C 164.250 72.705,166.129 75.526,166.828 76.295 C 167.086 76.580,167.386 77.105,167.493 77.461 C 167.600 77.817,167.955 78.429,168.282 78.820 C 168.609 79.211,168.958 79.794,169.058 80.115 C 169.157 80.437,169.461 81.015,169.733 81.400 C 170.004 81.786,170.356 82.485,170.515 82.955 C 170.674 83.424,171.034 84.137,171.314 84.539 C 171.594 84.942,171.977 85.779,172.164 86.401 C 172.351 87.022,172.739 87.976,173.025 88.519 C 173.312 89.063,173.719 90.207,173.930 91.062 C 174.140 91.917,174.494 93.244,174.715 94.010 C 175.562 96.943,176.093 103.879,175.697 106.845 C 175.544 107.996,175.291 109.964,175.135 111.219 C 174.979 112.474,174.639 114.048,174.380 114.717 C 174.120 115.385,173.832 116.428,173.739 117.033 C 173.645 117.638,173.297 118.749,172.964 119.502 C 172.631 120.254,172.279 121.296,172.181 121.816 C 172.084 122.337,171.728 123.266,171.390 123.881 C 171.053 124.497,170.692 125.405,170.588 125.900 C 170.485 126.395,170.138 127.214,169.819 127.720 C 169.499 128.226,169.153 129.046,169.049 129.541 C 168.946 130.035,168.595 130.907,168.270 131.477 C 167.945 132.047,167.593 132.921,167.487 133.420 C 167.381 133.918,167.030 134.793,166.707 135.363 C 166.384 135.933,166.041 136.851,165.944 137.404 C 165.847 137.956,165.496 139.021,165.165 139.769 C 164.835 140.517,164.480 141.639,164.377 142.262 C 164.274 142.884,163.920 144.041,163.591 144.831 C 163.261 145.621,162.910 147.020,162.810 147.940 C 162.711 148.859,162.417 150.253,162.157 151.036 C 161.568 152.810,161.143 155.895,161.129 158.503 C 161.122 159.597,160.949 160.959,160.744 161.528 C 160.243 162.920,160.243 167.650,160.744 169.041 C 160.949 169.611,161.123 170.835,161.130 171.762 C 161.148 173.944,161.592 176.667,162.043 177.360 C 162.239 177.660,162.528 178.619,162.686 179.490 C 162.844 180.361,163.319 181.730,163.741 182.532 C 164.163 183.334,164.508 184.172,164.508 184.393 C 164.508 184.614,164.782 185.156,165.118 185.597 C 165.454 186.038,165.811 186.661,165.913 186.982 C 166.201 187.892,168.013 190.500,169.828 192.617 C 170.194 193.044,170.799 193.783,171.171 194.259 C 171.543 194.735,172.790 195.942,173.942 196.942 C 175.094 197.941,176.346 199.038,176.725 199.380 C 177.104 199.721,177.515 200.000,177.638 200.000 C 177.761 200.000,178.267 200.324,178.762 200.719 C 179.258 201.115,180.100 201.666,180.635 201.944 C 181.169 202.222,181.606 202.524,181.606 202.614 C 181.606 202.705,182.160 202.986,182.837 203.239 C 183.514 203.491,184.242 203.847,184.456 204.029 C 184.670 204.212,185.369 204.565,186.010 204.814 C 186.652 205.063,187.468 205.462,187.824 205.700 C 188.180 205.939,189.054 206.285,189.767 206.470 C 190.479 206.654,191.322 206.966,191.640 207.162 C 191.957 207.358,193.007 207.698,193.971 207.918 C 194.936 208.138,196.425 208.535,197.280 208.802 C 198.135 209.068,200.058 209.424,201.554 209.593 C 203.051 209.762,204.974 210.003,205.829 210.129 C 207.868 210.430,212.278 210.425,214.458 210.120 C 215.412 209.986,217.358 209.739,218.782 209.570 C 220.207 209.401,222.189 208.981,223.187 208.637 C 224.184 208.292,225.523 207.892,226.162 207.747 C 226.801 207.602,227.500 207.330,227.716 207.142 C 227.932 206.955,228.575 206.657,229.145 206.482 C 230.104 206.186,230.803 205.802,232.735 204.510 C 233.142 204.238,233.842 203.780,234.289 203.492 C 236.347 202.170,238.329 199.665,239.938 196.352 C 241.565 193.005,241.424 187.760,239.609 184.067 C 239.189 183.212,238.849 182.423,238.853 182.312 C 238.862 182.062,237.299 179.677,236.414 178.591 C 236.049 178.144,235.751 177.666,235.751 177.529 C 235.751 177.392,235.402 176.797,234.974 176.207 C 234.547 175.617,234.197 175.039,234.197 174.924 C 234.197 174.808,233.864 174.253,233.458 173.691 C 233.052 173.129,232.584 172.268,232.419 171.778 C 232.253 171.289,231.948 170.700,231.739 170.470 C 231.531 170.240,231.185 169.555,230.971 168.947 C 230.756 168.339,230.345 167.542,230.057 167.176 C 229.769 166.810,229.534 166.263,229.534 165.960 C 229.534 165.658,229.224 164.828,228.845 164.117 C 228.465 163.406,228.052 162.358,227.925 161.788 C 227.799 161.218,227.472 160.285,227.198 159.715 C 226.924 159.144,226.513 157.454,226.284 155.958 C 226.055 154.462,225.754 152.655,225.614 151.943 C 225.102 149.329,225.069 146.820,225.516 144.428 C 225.756 143.147,226.095 141.280,226.270 140.281 C 226.446 139.281,226.902 137.802,227.284 136.994 C 227.666 136.186,227.979 135.300,227.979 135.025 C 227.979 134.750,228.208 134.235,228.487 133.880 C 228.767 133.525,229.237 132.587,229.533 131.796 C 229.829 131.005,230.230 130.227,230.423 130.066 C 230.617 129.906,230.856 129.341,230.955 128.812 C 231.054 128.283,231.423 127.241,231.774 126.498 C 232.126 125.754,232.482 124.705,232.567 124.166 C 232.651 123.627,232.986 122.577,233.312 121.832 C 233.638 121.087,233.980 119.921,234.072 119.241 C 234.165 118.561,234.525 116.904,234.873 115.559 C 235.222 114.214,235.619 111.649,235.758 109.860 C 235.896 108.070,236.136 105.615,236.292 104.404 C 236.883 99.808,236.053 87.592,234.879 83.619 C 234.531 82.441,234.181 80.937,234.101 80.277 C 234.022 79.617,233.661 78.522,233.299 77.842 C 232.938 77.163,232.642 76.407,232.642 76.164 C 232.642 75.920,232.293 75.065,231.865 74.264 C 231.438 73.463,231.086 72.660,231.083 72.479 C 231.081 72.298,230.731 71.637,230.306 71.010 C 229.881 70.383,229.533 69.684,229.533 69.456 C 229.533 69.228,229.183 68.633,228.756 68.135 C 228.330 67.636,227.980 67.123,227.980 66.994 C 227.979 66.690,226.494 64.656,225.583 63.710 C 225.191 63.303,224.870 62.898,224.870 62.809 C 224.870 62.631,220.157 58.051,218.837 56.947 C 216.191 54.733,214.213 53.326,211.435 51.681 C 210.957 51.398,210.082 50.847,209.492 50.458 C 208.902 50.069,208.236 49.748,208.011 49.746 C 207.786 49.743,207.086 49.405,206.456 48.995 C 205.826 48.585,204.870 48.171,204.331 48.075 C 203.793 47.979,202.931 47.615,202.417 47.267 C 201.903 46.918,201.263 46.632,200.995 46.632 C 200.727 46.632,199.665 46.334,198.635 45.969 C 197.605 45.604,195.712 45.130,194.430 44.914 C 193.148 44.698,191.516 44.400,190.803 44.251 C 188.555 43.780,179.080 43.738,177.720 44.192 M190.787 52.211 C 192.506 52.572,194.378 52.975,194.948 53.106 C 196.611 53.490,200.311 54.819,201.296 55.386 C 201.794 55.673,202.580 55.987,203.041 56.083 C 203.502 56.179,204.087 56.521,204.341 56.844 C 204.595 57.167,205.075 57.577,205.408 57.755 C 207.008 58.611,205.766 58.677,186.814 58.753 C 166.338 58.835,167.273 58.907,167.949 57.300 C 168.652 55.627,172.696 53.363,176.425 52.554 C 177.778 52.261,179.061 51.919,179.275 51.795 C 180.193 51.263,187.537 51.528,190.787 52.211 M216.071 65.290 C 217.284 65.939,220.687 69.912,221.635 71.786 C 221.881 72.272,222.313 72.922,222.596 73.232 C 224.050 74.824,223.404 74.867,198.501 74.869 C 177.653 74.870,176.100 74.840,175.444 74.417 C 174.573 73.856,173.901 73.090,173.682 72.409 C 173.591 72.124,173.287 71.641,173.008 71.336 C 172.729 71.031,172.305 70.437,172.066 70.017 C 171.107 68.329,170.564 67.502,169.895 66.715 C 168.390 64.945,167.291 65.026,192.819 65.026 C 207.763 65.026,215.747 65.116,216.071 65.290 M225.712 81.181 C 225.962 81.303,226.166 81.564,226.166 81.760 C 226.166 81.957,226.508 83.198,226.925 84.518 C 227.716 87.015,228.330 91.720,228.050 93.135 C 227.758 94.607,228.793 94.542,205.382 94.551 L 183.691 94.560 183.314 93.977 C 182.738 93.085,181.707 90.165,181.508 88.860 C 181.411 88.219,181.059 87.111,180.726 86.399 C 180.393 85.687,179.939 84.521,179.716 83.808 C 178.912 81.241,178.905 81.393,179.844 81.119 C 180.915 80.806,225.068 80.865,225.712 81.181 M227.915 101.033 C 228.823 101.588,228.985 102.329,228.512 103.783 C 228.378 104.196,228.151 106.032,228.006 107.864 C 227.794 110.564,227.656 111.261,227.279 111.548 C 226.546 112.104,183.882 112.085,183.420 111.529 C 183.164 111.221,183.162 110.670,183.408 108.873 C 183.579 107.626,183.798 105.401,183.893 103.929 C 184.056 101.425,184.109 101.228,184.715 100.894 C 185.918 100.230,226.814 100.363,227.915 101.033 M225.407 118.567 C 225.721 118.882,224.586 124.142,224.069 124.769 C 223.938 124.927,223.602 125.722,223.323 126.535 C 223.043 127.349,222.451 128.473,222.007 129.033 L 221.200 130.052 200.010 130.052 C 181.404 130.052,178.780 130.004,178.494 129.660 C 178.037 129.109,178.339 127.238,179.130 125.719 C 179.484 125.038,179.909 123.841,180.073 123.057 C 180.237 122.273,180.464 121.516,180.577 121.373 C 180.690 121.231,180.987 120.589,181.236 119.948 C 181.485 119.307,181.803 118.633,181.944 118.451 C 182.300 117.991,224.944 118.105,225.407 118.567 M218.276 136.707 C 218.746 137.177,218.680 139.102,218.106 141.683 C 217.960 142.339,217.732 143.373,217.599 143.980 C 217.466 144.588,217.358 145.799,217.358 146.672 C 217.358 149.154,219.427 148.946,194.560 148.954 C 172.033 148.961,170.531 148.899,170.802 147.973 C 170.872 147.734,171.168 146.839,171.460 145.984 C 171.752 145.130,172.215 143.731,172.489 142.876 C 172.764 142.021,173.117 140.972,173.275 140.544 C 173.432 140.117,173.710 139.246,173.892 138.609 C 174.128 137.783,174.475 137.281,175.103 136.860 L 175.983 136.269 196.911 136.269 C 216.214 136.269,217.873 136.303,218.276 136.707 M217.487 155.409 C 218.243 155.570,218.276 155.641,218.682 157.985 C 218.913 159.310,219.230 160.650,219.389 160.962 C 219.547 161.273,219.912 162.403,220.199 163.472 C 220.487 164.540,220.907 165.764,221.133 166.192 C 221.453 166.796,221.484 167.127,221.271 167.681 L 220.997 168.394 195.354 168.394 L 169.710 168.394 169.037 167.681 C 168.387 166.994,168.367 166.881,168.485 164.508 C 168.716 159.808,169.131 155.931,169.441 155.557 C 169.768 155.163,215.671 155.021,217.487 155.409 M225.066 175.453 C 225.514 175.916,226.055 176.713,226.267 177.223 C 226.480 177.733,226.842 178.306,227.073 178.497 C 227.303 178.688,227.658 179.243,227.861 179.731 C 228.065 180.218,228.524 180.965,228.882 181.390 C 229.241 181.816,229.534 182.290,229.534 182.444 C 229.534 182.597,229.807 183.084,230.141 183.525 C 231.319 185.080,231.416 185.424,230.835 186.004 C 230.316 186.524,230.068 186.528,203.174 186.528 C 173.049 186.528,174.724 186.624,173.834 184.845 C 173.620 184.417,173.198 183.718,172.896 183.290 C 172.595 182.863,172.257 182.222,172.146 181.865 C 172.036 181.509,171.686 180.807,171.369 180.304 C 170.855 179.490,170.451 178.228,170.034 176.133 C 169.717 174.538,168.378 174.611,197.675 174.611 L 224.251 174.611 225.066 175.453 M232.323 193.272 C 232.545 194.425,229.322 197.659,226.992 198.621 C 226.466 198.838,225.848 199.182,225.618 199.386 C 225.388 199.590,224.415 199.982,223.456 200.256 C 222.497 200.530,221.573 200.871,221.402 201.012 C 219.633 202.480,203.305 202.562,198.964 201.125 C 198.323 200.912,196.967 200.527,195.952 200.267 C 194.937 200.008,193.830 199.618,193.491 199.402 C 193.153 199.185,192.260 198.828,191.507 198.609 C 190.754 198.389,189.821 197.989,189.434 197.719 C 189.047 197.450,188.352 197.101,187.889 196.945 C 187.427 196.788,186.658 196.362,186.181 195.998 C 185.704 195.634,185.226 195.337,185.118 195.337 C 184.668 195.337,182.620 193.055,182.951 192.922 C 183.911 192.536,232.247 192.879,232.323 193.272 " stroke="none" fill="#ec242c" fill-rule="evenodd"></path><path id="path1" d="M0.000 129.534 L 0.000 259.067 200.000 259.067 L 400.000 259.067 400.000 129.534 L 400.000 0.000 200.000 0.000 L 0.000 0.000 0.000 129.534 M190.803 44.251 C 191.516 44.400,193.148 44.698,194.430 44.914 C 195.712 45.130,197.605 45.604,198.635 45.969 C 199.665 46.334,200.727 46.632,200.995 46.632 C 201.263 46.632,201.903 46.918,202.417 47.267 C 202.931 47.615,203.793 47.979,204.331 48.075 C 204.870 48.171,205.826 48.585,206.456 48.995 C 207.086 49.405,207.786 49.743,208.011 49.746 C 208.236 49.748,208.902 50.069,209.492 50.458 C 210.082 50.847,210.957 51.398,211.435 51.681 C 214.213 53.326,216.191 54.733,218.837 56.947 C 220.157 58.051,224.870 62.631,224.870 62.809 C 224.870 62.898,225.191 63.303,225.583 63.710 C 226.494 64.656,227.979 66.690,227.980 66.994 C 227.980 67.123,228.330 67.636,228.756 68.135 C 229.183 68.633,229.533 69.228,229.533 69.456 C 229.533 69.684,229.881 70.383,230.306 71.010 C 230.731 71.637,231.081 72.298,231.083 72.479 C 231.086 72.660,231.438 73.463,231.865 74.264 C 232.293 75.065,232.642 75.920,232.642 76.164 C 232.642 76.407,232.938 77.163,233.299 77.842 C 233.661 78.522,234.022 79.617,234.101 80.277 C 234.181 80.937,234.531 82.441,234.879 83.619 C 236.053 87.592,236.883 99.808,236.292 104.404 C 236.136 105.615,235.896 108.070,235.758 109.860 C 235.619 111.649,235.222 114.214,234.873 115.559 C 234.525 116.904,234.165 118.561,234.072 119.241 C 233.980 119.921,233.638 121.087,233.312 121.832 C 232.986 122.577,232.651 123.627,232.567 124.166 C 232.482 124.705,232.126 125.754,231.774 126.498 C 231.423 127.241,231.054 128.283,230.955 128.812 C 230.856 129.341,230.617 129.906,230.423 130.066 C 230.230 130.227,229.829 131.005,229.533 131.796 C 229.237 132.587,228.767 133.525,228.487 133.880 C 228.208 134.235,227.979 134.750,227.979 135.025 C 227.979 135.300,227.666 136.186,227.284 136.994 C 226.902 137.802,226.446 139.281,226.270 140.281 C 226.095 141.280,225.756 143.147,225.516 144.428 C 225.069 146.820,225.102 149.329,225.614 151.943 C 225.754 152.655,226.055 154.462,226.284 155.958 C 226.513 157.454,226.924 159.144,227.198 159.715 C 227.472 160.285,227.799 161.218,227.925 161.788 C 228.052 162.358,228.465 163.406,228.845 164.117 C 229.224 164.828,229.534 165.658,229.534 165.960 C 229.534 166.263,229.769 166.810,230.057 167.176 C 230.345 167.542,230.756 168.339,230.971 168.947 C 231.185 169.555,231.531 170.240,231.739 170.470 C 231.948 170.700,232.253 171.289,232.419 171.778 C 232.584 172.268,233.052 173.129,233.458 173.691 C 233.864 174.253,234.197 174.808,234.197 174.924 C 234.197 175.039,234.547 175.617,234.974 176.207 C 235.402 176.797,235.751 177.392,235.751 177.529 C 235.751 177.666,236.049 178.144,236.414 178.591 C 237.299 179.677,238.862 182.062,238.853 182.312 C 238.849 182.423,239.189 183.212,239.609 184.067 C 241.424 187.760,241.565 193.005,239.938 196.352 C 238.329 199.665,236.347 202.170,234.289 203.492 C 233.842 203.780,233.142 204.238,232.735 204.510 C 230.803 205.802,230.104 206.186,229.145 206.482 C 228.575 206.657,227.932 206.955,227.716 207.142 C 227.500 207.330,226.801 207.602,226.162 207.747 C 225.523 207.892,224.184 208.292,223.187 208.637 C 222.189 208.981,220.207 209.401,218.782 209.570 C 217.358 209.739,215.412 209.986,214.458 210.120 C 212.278 210.425,207.868 210.430,205.829 210.129 C 204.974 210.003,203.051 209.762,201.554 209.593 C 200.058 209.424,198.135 209.068,197.280 208.802 C 196.425 208.535,194.936 208.138,193.971 207.918 C 193.007 207.698,191.957 207.358,191.640 207.162 C 191.322 206.966,190.479 206.654,189.767 206.470 C 189.054 206.285,188.180 205.939,187.824 205.700 C 187.468 205.462,186.652 205.063,186.010 204.814 C 185.369 204.565,184.670 204.212,184.456 204.029 C 184.242 203.847,183.514 203.491,182.837 203.239 C 182.160 202.986,181.606 202.705,181.606 202.614 C 181.606 202.524,181.169 202.222,180.635 201.944 C 180.100 201.666,179.258 201.115,178.762 200.719 C 178.267 200.324,177.761 200.000,177.638 200.000 C 177.515 200.000,177.104 199.721,176.725 199.380 C 176.346 199.038,175.094 197.941,173.942 196.942 C 172.790 195.942,171.543 194.735,171.171 194.259 C 170.799 193.783,170.194 193.044,169.828 192.617 C 168.013 190.500,166.201 187.892,165.913 186.982 C 165.811 186.661,165.454 186.038,165.118 185.597 C 164.782 185.156,164.508 184.614,164.508 184.393 C 164.508 184.172,164.163 183.334,163.741 182.532 C 163.319 181.730,162.844 180.361,162.686 179.490 C 162.528 178.619,162.239 177.660,162.043 177.360 C 161.592 176.667,161.148 173.944,161.130 171.762 C 161.123 170.835,160.949 169.611,160.744 169.041 C 160.243 167.650,160.243 162.920,160.744 161.528 C 160.949 160.959,161.122 159.597,161.129 158.503 C 161.143 155.895,161.568 152.810,162.157 151.036 C 162.417 150.253,162.711 148.859,162.810 147.940 C 162.910 147.020,163.261 145.621,163.591 144.831 C 163.920 144.041,164.274 142.884,164.377 142.262 C 164.480 141.639,164.835 140.517,165.165 139.769 C 165.496 139.021,165.847 137.956,165.944 137.404 C 166.041 136.851,166.384 135.933,166.707 135.363 C 167.030 134.793,167.381 133.918,167.487 133.420 C 167.593 132.921,167.945 132.047,168.270 131.477 C 168.595 130.907,168.946 130.035,169.049 129.541 C 169.153 129.046,169.499 128.226,169.819 127.720 C 170.138 127.214,170.485 126.395,170.588 125.900 C 170.692 125.405,171.053 124.497,171.390 123.881 C 171.728 123.266,172.084 122.337,172.181 121.816 C 172.279 121.296,172.631 120.254,172.964 119.502 C 173.297 118.749,173.645 117.638,173.739 117.033 C 173.832 116.428,174.120 115.385,174.380 114.717 C 174.639 114.048,174.979 112.474,175.135 111.219 C 175.291 109.964,175.544 107.996,175.697 106.845 C 176.093 103.879,175.562 96.943,174.715 94.010 C 174.494 93.244,174.140 91.917,173.930 91.062 C 173.719 90.207,173.312 89.063,173.025 88.519 C 172.739 87.976,172.351 87.022,172.164 86.401 C 171.977 85.779,171.594 84.942,171.314 84.539 C 171.034 84.137,170.674 83.424,170.515 82.955 C 170.356 82.485,170.004 81.786,169.733 81.400 C 169.461 81.015,169.157 80.437,169.058 80.115 C 168.958 79.794,168.609 79.211,168.282 78.820 C 167.955 78.429,167.600 77.817,167.493 77.461 C 167.386 77.105,167.086 76.580,166.828 76.295 C 166.129 75.526,164.250 72.705,164.249 72.426 C 164.249 72.293,164.012 71.932,163.723 71.625 C 161.035 68.763,158.315 60.519,159.133 57.708 C 159.350 56.960,159.657 55.871,159.814 55.288 C 159.971 54.706,160.333 53.960,160.620 53.630 C 160.906 53.300,161.140 52.957,161.140 52.868 C 161.140 52.396,165.738 48.187,166.254 48.187 C 166.383 48.187,166.946 47.840,167.506 47.417 C 168.065 46.993,168.757 46.643,169.044 46.639 C 169.330 46.635,170.132 46.330,170.826 45.960 C 171.574 45.562,172.997 45.144,174.321 44.935 C 175.549 44.740,177.079 44.406,177.720 44.192 C 179.080 43.738,188.555 43.780,190.803 44.251 M179.275 51.795 C 179.061 51.919,177.778 52.261,176.425 52.554 C 172.696 53.363,168.652 55.627,167.949 57.300 C 167.273 58.907,166.338 58.835,186.814 58.753 C 205.766 58.677,207.008 58.611,205.408 57.755 C 205.075 57.577,204.595 57.167,204.341 56.844 C 204.087 56.521,203.502 56.179,203.041 56.083 C 202.580 55.987,201.794 55.673,201.296 55.386 C 196.865 52.833,181.740 50.367,179.275 51.795 M169.627 65.458 C 169.223 65.862,169.241 65.945,169.895 66.715 C 170.564 67.502,171.107 68.329,172.066 70.017 C 172.305 70.437,172.729 71.031,173.008 71.336 C 173.287 71.641,173.591 72.124,173.682 72.409 C 173.901 73.090,174.573 73.856,175.444 74.417 C 176.100 74.840,177.653 74.870,198.501 74.869 C 223.404 74.867,224.050 74.824,222.596 73.232 C 222.313 72.922,221.881 72.272,221.635 71.786 C 220.687 69.912,217.284 65.939,216.071 65.290 C 215.115 64.778,170.144 64.941,169.627 65.458 M179.844 81.119 C 178.905 81.393,178.912 81.241,179.716 83.808 C 179.939 84.521,180.393 85.687,180.726 86.399 C 181.059 87.111,181.411 88.219,181.508 88.860 C 181.707 90.165,182.738 93.085,183.314 93.977 L 183.691 94.560 205.382 94.551 C 228.793 94.542,227.758 94.607,228.050 93.135 C 228.330 91.720,227.716 87.015,226.925 84.518 C 226.508 83.198,226.166 81.957,226.166 81.760 C 226.166 81.564,225.962 81.303,225.712 81.181 C 225.068 80.865,180.915 80.806,179.844 81.119 M184.715 100.894 C 184.109 101.228,184.056 101.425,183.893 103.929 C 183.798 105.401,183.579 107.626,183.408 108.873 C 183.162 110.670,183.164 111.221,183.420 111.529 C 183.882 112.085,226.546 112.104,227.279 111.548 C 227.656 111.261,227.794 110.564,228.006 107.864 C 228.151 106.032,228.378 104.196,228.512 103.783 C 228.985 102.329,228.823 101.588,227.915 101.033 C 226.814 100.363,185.918 100.230,184.715 100.894 M181.944 118.451 C 181.803 118.633,181.485 119.307,181.236 119.948 C 180.987 120.589,180.690 121.231,180.577 121.373 C 180.464 121.516,180.237 122.273,180.073 123.057 C 179.909 123.841,179.484 125.038,179.130 125.719 C 178.339 127.238,178.037 129.109,178.494 129.660 C 178.780 130.004,181.404 130.052,200.010 130.052 L 221.200 130.052 222.007 129.033 C 222.451 128.473,223.043 127.349,223.323 126.535 C 223.602 125.722,223.938 124.927,224.069 124.769 C 224.586 124.142,225.721 118.882,225.407 118.567 C 224.944 118.105,182.300 117.991,181.944 118.451 M175.103 136.860 C 174.475 137.281,174.128 137.783,173.892 138.609 C 173.710 139.246,173.432 140.117,173.275 140.544 C 173.117 140.972,172.764 142.021,172.489 142.876 C 172.215 143.731,171.752 145.130,171.460 145.984 C 171.168 146.839,170.872 147.734,170.802 147.973 C 170.531 148.899,172.033 148.961,194.560 148.954 C 219.427 148.946,217.358 149.154,217.358 146.672 C 217.358 145.799,217.466 144.588,217.599 143.980 C 217.732 143.373,217.960 142.339,218.106 141.683 C 218.252 141.027,218.449 139.737,218.543 138.818 C 218.830 136.013,221.008 136.269,196.911 136.269 L 175.983 136.269 175.103 136.860 M169.441 155.557 C 169.131 155.931,168.716 159.808,168.485 164.508 C 168.367 166.881,168.387 166.994,169.037 167.681 L 169.710 168.394 195.354 168.394 L 220.997 168.394 221.271 167.681 C 221.484 167.127,221.453 166.796,221.133 166.192 C 220.907 165.764,220.487 164.540,220.199 163.472 C 219.912 162.403,219.547 161.273,219.389 160.962 C 219.230 160.650,218.913 159.310,218.682 157.985 C 218.276 155.641,218.243 155.570,217.487 155.409 C 215.671 155.021,169.768 155.163,169.441 155.557 M170.499 175.032 C 170.047 175.348,169.932 175.621,170.034 176.133 C 170.451 178.228,170.855 179.490,171.369 180.304 C 171.686 180.807,172.036 181.509,172.146 181.865 C 172.257 182.222,172.595 182.863,172.896 183.290 C 173.198 183.718,173.620 184.417,173.834 184.845 C 174.724 186.624,173.049 186.528,203.174 186.528 C 234.944 186.529,232.613 186.788,230.141 183.525 C 229.807 183.084,229.534 182.597,229.534 182.444 C 229.534 182.290,229.241 181.816,228.882 181.390 C 228.524 180.965,228.065 180.218,227.861 179.731 C 227.658 179.243,227.303 178.688,227.073 178.497 C 226.842 178.306,226.480 177.733,226.267 177.223 C 226.055 176.713,225.514 175.916,225.066 175.453 L 224.251 174.611 197.675 174.611 C 173.573 174.611,171.044 174.651,170.499 175.032 M182.951 192.922 C 182.620 193.055,184.668 195.337,185.118 195.337 C 185.226 195.337,185.704 195.634,186.181 195.998 C 186.658 196.362,187.427 196.788,187.889 196.945 C 188.352 197.101,189.047 197.450,189.434 197.719 C 189.821 197.989,190.754 198.389,191.507 198.609 C 192.260 198.828,193.153 199.185,193.491 199.402 C 193.830 199.618,194.937 200.008,195.952 200.267 C 196.967 200.527,198.323 200.912,198.964 201.125 C 203.305 202.562,219.633 202.480,221.402 201.012 C 221.573 200.871,222.497 200.530,223.456 200.256 C 224.415 199.982,225.388 199.590,225.618 199.386 C 225.848 199.182,226.466 198.838,226.992 198.621 C 229.322 197.659,232.545 194.425,232.323 193.272 C 232.247 192.879,183.911 192.536,182.951 192.922 " stroke="none" fill="#fcfcfc" fill-rule="evenodd"></path></g></svg>