<svg id="svg" version="1.1" xmlns="http://www.w3.org/2000/svg" xmlns:xlink="http://www.w3.org/1999/xlink" width="400" height="258.91472868217056" viewBox="0, 0, 400,258.91472868217056"><g id="svgg"><path id="path0" d="M128.975 43.909 C 128.853 44.031,127.783 44.227,123.575 44.898 C 122.506 45.068,121.161 45.455,120.586 45.758 C 120.010 46.060,119.154 46.393,118.683 46.496 C 117.865 46.676,116.345 47.495,114.141 48.944 C 112.520 50.011,110.614 51.864,110.088 52.887 C 109.821 53.407,109.436 53.999,109.231 54.203 C 107.529 55.906,107.591 63.785,109.325 65.989 C 109.594 66.332,109.956 67.043,110.128 67.568 C 110.300 68.093,110.707 68.874,111.032 69.302 C 111.357 69.730,111.750 70.371,111.906 70.727 C 112.062 71.082,112.474 71.781,112.823 72.280 C 113.171 72.778,113.696 73.536,113.990 73.964 C 114.283 74.391,114.806 75.149,115.152 75.648 C 115.498 76.146,115.966 76.961,116.193 77.458 C 116.420 77.954,116.820 78.596,117.084 78.882 C 117.745 79.603,120.584 85.191,121.133 86.851 C 121.380 87.600,121.724 88.446,121.898 88.731 C 122.072 89.016,122.412 90.063,122.654 91.057 C 122.895 92.052,123.189 92.985,123.306 93.130 C 124.982 95.207,125.004 111.613,123.334 114.732 C 123.185 115.012,122.828 116.245,122.542 117.473 C 122.256 118.701,121.858 119.965,121.659 120.281 C 121.460 120.596,121.099 121.554,120.857 122.409 C 120.615 123.264,120.311 124.093,120.181 124.251 C 120.052 124.409,119.714 125.212,119.430 126.036 C 119.147 126.860,118.797 127.676,118.653 127.850 C 118.509 128.023,118.159 128.839,117.876 129.663 C 117.592 130.487,117.239 131.308,117.090 131.486 C 116.840 131.788,116.548 132.568,114.864 137.435 C 114.519 138.433,114.076 139.598,113.880 140.026 C 113.684 140.453,113.339 141.707,113.115 142.811 C 112.890 143.916,112.532 145.084,112.321 145.407 C 112.109 145.730,111.863 146.692,111.774 147.544 C 111.685 148.396,111.338 149.968,111.002 151.036 C 109.097 157.100,109.100 173.099,111.008 177.867 C 111.365 178.761,111.658 179.769,111.658 180.106 C 111.658 180.443,111.888 181.170,112.169 181.721 C 112.449 182.272,112.865 183.281,113.091 183.963 C 113.318 184.646,113.708 185.473,113.957 185.801 C 114.207 186.130,114.611 186.831,114.855 187.359 C 115.099 187.888,115.414 188.391,115.555 188.478 C 115.695 188.565,116.036 189.078,116.311 189.617 C 116.947 190.863,118.020 192.161,120.830 195.078 C 122.342 196.648,123.635 197.834,125.518 199.379 C 126.781 200.416,130.524 202.816,131.742 203.371 C 132.362 203.653,132.933 203.986,133.010 204.111 C 133.087 204.235,133.852 204.599,134.710 204.920 C 135.567 205.241,136.269 205.592,136.269 205.700 C 136.269 205.809,136.823 206.034,137.500 206.201 C 138.177 206.369,139.159 206.726,139.682 206.995 C 140.206 207.264,141.641 207.723,142.870 208.015 C 144.100 208.307,145.352 208.678,145.653 208.839 C 147.772 209.973,161.066 210.650,166.192 209.885 C 167.474 209.694,169.236 209.445,170.106 209.332 C 170.977 209.219,171.968 208.951,172.309 208.737 C 172.649 208.524,173.569 208.203,174.352 208.025 C 175.136 207.847,176.244 207.438,176.813 207.116 C 177.383 206.794,178.110 206.453,178.428 206.358 C 181.101 205.561,186.441 201.032,187.758 198.446 C 188.084 197.804,188.512 196.988,188.709 196.632 C 190.306 193.745,190.026 186.197,188.223 183.540 C 187.861 183.007,187.565 182.434,187.565 182.267 C 187.565 182.100,187.342 181.724,187.070 181.432 C 186.799 181.141,186.341 180.441,186.053 179.877 C 185.765 179.313,185.365 178.714,185.163 178.546 C 184.960 178.379,184.584 177.774,184.327 177.204 C 184.070 176.633,183.780 176.166,183.684 176.166 C 183.587 176.166,183.235 175.583,182.902 174.870 C 182.568 174.158,182.203 173.575,182.090 173.575 C 181.978 173.575,181.747 173.112,181.578 172.546 C 181.408 171.980,181.054 171.286,180.791 171.003 C 180.528 170.721,180.074 169.886,179.783 169.147 C 179.492 168.409,179.084 167.561,178.876 167.264 C 178.668 166.967,178.497 166.563,178.497 166.366 C 178.497 166.169,178.194 165.408,177.824 164.675 C 177.453 163.942,176.942 162.553,176.687 161.590 C 176.432 160.626,176.095 159.683,175.939 159.495 C 175.783 159.307,175.415 157.531,175.121 155.548 C 174.827 153.565,174.400 151.278,174.173 150.466 C 173.753 148.964,173.794 147.527,174.340 144.689 C 174.477 143.977,174.823 142.067,175.110 140.444 C 175.396 138.822,175.794 137.307,175.995 137.077 C 176.195 136.846,176.504 136.206,176.682 135.655 C 176.859 135.103,177.340 134.013,177.751 133.232 C 178.161 132.451,178.497 131.672,178.497 131.501 C 178.497 131.329,178.777 130.810,179.119 130.346 C 179.461 129.883,179.820 129.083,179.916 128.569 C 180.012 128.056,180.365 127.101,180.699 126.447 C 181.033 125.794,181.445 124.560,181.615 123.705 C 181.785 122.850,182.078 121.850,182.267 121.483 C 182.455 121.117,182.797 119.776,183.027 118.504 C 183.257 117.232,183.564 115.886,183.709 115.512 C 184.123 114.447,184.443 112.100,184.713 108.128 C 184.850 106.115,185.082 104.155,185.227 103.772 C 185.631 102.709,185.550 96.203,185.104 93.870 C 184.890 92.753,184.712 90.965,184.709 89.896 C 184.705 88.828,184.466 86.962,184.177 85.751 C 183.888 84.540,183.414 82.500,183.123 81.218 C 182.833 79.935,182.385 78.536,182.128 78.109 C 181.872 77.681,181.577 76.924,181.473 76.425 C 181.296 75.575,179.813 72.103,179.259 71.244 C 179.122 71.030,178.791 70.381,178.524 69.802 C 178.257 69.223,177.866 68.577,177.654 68.365 C 177.443 68.153,177.082 67.618,176.853 67.175 C 176.624 66.732,176.288 66.214,176.107 66.022 C 175.925 65.830,175.439 65.155,175.026 64.520 C 173.808 62.648,167.990 57.082,165.321 55.236 C 164.557 54.707,163.550 53.954,163.084 53.562 C 162.619 53.170,162.147 52.850,162.037 52.850 C 161.927 52.850,161.476 52.576,161.035 52.241 C 160.594 51.906,159.679 51.388,159.003 51.090 C 158.326 50.791,157.772 50.448,157.772 50.327 C 157.772 50.206,157.129 49.889,156.343 49.621 C 155.557 49.354,154.785 48.981,154.629 48.792 C 154.472 48.604,153.862 48.326,153.273 48.176 C 152.684 48.026,151.677 47.629,151.036 47.295 C 150.395 46.960,149.361 46.604,148.739 46.502 C 148.117 46.400,147.079 46.083,146.431 45.797 C 145.784 45.510,144.136 45.122,142.769 44.934 C 141.403 44.746,139.294 44.410,138.083 44.188 C 136.047 43.814,129.278 43.607,128.975 43.909 M227.850 44.182 C 226.852 44.384,225.104 44.706,223.964 44.897 C 222.824 45.089,221.239 45.558,220.441 45.939 C 219.644 46.320,218.815 46.632,218.599 46.632 C 218.384 46.632,217.778 46.924,217.253 47.280 C 216.728 47.636,216.196 47.927,216.071 47.927 C 215.945 47.927,215.308 48.335,214.655 48.834 C 214.002 49.333,213.405 49.741,213.329 49.741 C 212.823 49.741,209.326 54.190,209.326 54.834 C 209.326 54.997,209.036 55.754,208.681 56.516 C 207.557 58.930,208.295 64.055,210.170 66.851 C 210.413 67.213,210.745 67.894,210.909 68.363 C 211.072 68.832,211.483 69.514,211.821 69.879 C 212.159 70.244,212.435 70.684,212.435 70.857 C 212.435 71.030,212.756 71.585,213.148 72.090 C 213.540 72.595,214.061 73.339,214.306 73.745 C 214.551 74.150,214.901 74.712,215.083 74.993 C 215.265 75.274,215.845 76.207,216.372 77.065 C 216.899 77.924,217.513 78.885,217.737 79.200 C 218.347 80.059,219.832 82.969,220.344 84.310 C 220.593 84.960,220.886 85.492,220.996 85.492 C 221.105 85.492,221.388 86.163,221.624 86.982 C 221.860 87.801,222.233 88.821,222.454 89.249 C 222.891 90.096,223.574 92.507,223.577 93.212 C 223.578 93.455,223.752 93.986,223.965 94.394 C 225.316 96.984,225.415 108.635,224.123 112.953 C 223.845 113.880,223.387 115.570,223.103 116.710 C 222.512 119.087,221.490 122.114,220.753 123.671 C 220.475 124.259,220.103 125.236,219.927 125.842 C 219.751 126.448,219.517 126.943,219.407 126.943 C 219.298 126.943,219.015 127.613,218.780 128.433 C 218.546 129.252,218.177 130.196,217.962 130.531 C 217.747 130.866,217.349 131.785,217.077 132.575 C 216.805 133.365,216.478 134.140,216.350 134.298 C 216.221 134.456,215.876 135.369,215.582 136.326 C 215.288 137.283,214.882 138.390,214.678 138.787 C 214.475 139.183,214.102 140.440,213.851 141.580 C 213.600 142.720,213.240 143.890,213.051 144.180 C 212.863 144.469,212.590 145.544,212.444 146.568 C 212.299 147.591,211.950 149.036,211.668 149.778 C 211.386 150.519,211.089 151.835,211.008 152.701 C 210.788 155.044,210.107 160.052,209.807 161.528 C 209.511 162.985,209.655 168.296,210.050 170.466 C 210.192 171.250,210.492 173.180,210.716 174.755 C 210.961 176.473,211.386 178.213,211.779 179.102 C 212.140 179.917,212.435 180.834,212.435 181.140 C 212.435 181.658,213.548 184.287,214.387 185.751 C 214.591 186.108,215.024 186.924,215.348 187.565 C 216.882 190.593,221.482 195.895,224.877 198.549 C 227.640 200.710,228.060 201.008,229.145 201.583 C 229.715 201.886,230.356 202.286,230.570 202.473 C 231.205 203.028,237.358 206.074,238.591 206.443 C 239.217 206.631,240.144 207.006,240.651 207.278 C 241.158 207.550,241.769 207.772,242.009 207.772 C 242.682 207.772,245.689 208.576,246.021 208.844 C 247.296 209.877,261.916 210.644,266.451 209.916 C 267.448 209.756,269.184 209.500,270.308 209.348 C 271.432 209.195,272.482 208.963,272.642 208.830 C 273.062 208.481,275.167 207.780,275.807 207.776 C 276.108 207.774,276.655 207.536,277.021 207.248 C 277.387 206.960,278.134 206.567,278.680 206.374 C 279.227 206.181,280.102 205.746,280.624 205.408 C 281.146 205.070,282.058 204.501,282.651 204.145 C 284.460 203.057,288.342 198.950,288.342 198.124 C 288.342 198.010,288.632 197.458,288.985 196.898 C 290.448 194.580,290.547 187.840,289.162 184.879 C 288.753 184.005,288.341 182.970,288.246 182.578 C 288.151 182.186,287.961 181.865,287.824 181.865 C 287.687 181.865,287.344 181.411,287.060 180.856 C 286.777 180.301,286.380 179.682,286.178 179.480 C 285.977 179.278,285.566 178.632,285.267 178.045 C 284.967 177.458,284.608 176.907,284.467 176.820 C 284.327 176.734,283.968 176.172,283.670 175.572 C 283.373 174.973,282.734 173.782,282.250 172.927 C 281.766 172.073,281.092 170.824,280.752 170.153 C 280.411 169.482,280.013 168.783,279.868 168.599 C 279.722 168.415,279.393 167.623,279.138 166.839 C 278.883 166.056,278.470 165.123,278.221 164.767 C 277.972 164.411,277.691 163.653,277.596 163.083 C 277.501 162.513,277.195 161.655,276.916 161.176 C 276.637 160.698,276.172 159.065,275.882 157.549 C 275.592 156.033,275.187 154.293,274.983 153.683 C 274.438 152.055,274.469 144.420,275.028 142.347 C 275.257 141.498,275.655 139.929,275.913 138.860 C 276.170 137.791,276.682 136.344,277.050 135.643 C 277.419 134.942,277.720 134.170,277.720 133.929 C 277.720 133.687,277.956 133.190,278.244 132.824 C 278.532 132.458,278.943 131.661,279.157 131.053 C 279.372 130.445,279.715 129.762,279.921 129.535 C 280.126 129.308,280.486 128.376,280.720 127.462 C 280.954 126.549,281.310 125.550,281.512 125.242 C 281.713 124.934,282.055 123.836,282.271 122.801 C 282.487 121.766,282.816 120.613,283.004 120.239 C 283.354 119.541,283.769 117.537,284.083 115.026 C 284.181 114.242,284.374 113.310,284.512 112.953 C 285.867 109.448,285.853 88.361,284.493 85.820 C 284.336 85.527,284.132 84.605,284.040 83.771 C 283.872 82.259,281.833 75.586,281.367 75.024 C 281.232 74.861,280.927 74.148,280.689 73.439 C 280.451 72.730,280.109 71.975,279.927 71.762 C 279.746 71.548,279.348 70.848,279.043 70.207 C 278.301 68.646,277.421 67.235,276.732 66.502 C 276.420 66.170,276.166 65.801,276.166 65.681 C 276.166 64.618,269.493 57.849,266.321 55.694 C 265.823 55.355,265.321 54.926,265.207 54.741 C 265.093 54.556,264.845 54.404,264.656 54.404 C 264.467 54.404,264.157 54.217,263.968 53.989 C 263.181 53.041,254.421 48.187,253.497 48.187 C 253.324 48.187,252.553 47.854,251.785 47.448 C 251.017 47.041,249.911 46.635,249.328 46.544 C 248.745 46.454,247.733 46.143,247.078 45.854 C 246.424 45.564,244.628 45.145,243.087 44.922 C 241.546 44.699,239.644 44.400,238.860 44.256 C 236.449 43.813,229.887 43.769,227.850 44.182 M138.731 52.179 C 139.870 52.418,141.503 52.718,142.358 52.845 C 143.212 52.972,144.611 53.372,145.466 53.734 C 146.321 54.096,147.285 54.395,147.608 54.398 C 147.930 54.401,148.814 54.754,149.572 55.181 C 150.329 55.609,151.132 55.959,151.357 55.959 C 151.581 55.959,152.253 56.367,152.850 56.865 C 153.447 57.364,154.099 57.772,154.299 57.772 C 155.257 57.772,154.565 58.492,153.461 58.644 C 151.632 58.894,117.278 58.832,116.876 58.578 C 116.032 58.042,118.657 54.952,120.448 54.374 C 120.957 54.210,121.850 53.799,122.432 53.462 C 123.015 53.125,123.772 52.846,124.116 52.841 C 124.460 52.836,125.848 52.553,127.202 52.212 C 130.160 51.467,135.272 51.452,138.731 52.179 M239.896 52.302 C 243.600 52.994,248.531 54.436,250.294 55.342 C 250.955 55.681,251.690 55.959,251.928 55.959 C 252.166 55.959,252.685 56.313,253.081 56.747 C 253.477 57.180,254.140 57.626,254.556 57.737 C 255.568 58.008,255.423 58.380,254.221 58.599 C 252.300 58.950,218.018 58.840,217.528 58.482 C 216.057 57.406,221.813 52.922,224.790 52.826 C 225.190 52.813,226.509 52.536,227.720 52.209 C 230.699 51.407,235.297 51.442,239.896 52.302 M166.595 66.834 C 168.114 68.445,170.357 71.432,170.676 72.268 C 170.760 72.488,171.039 72.894,171.295 73.171 C 172.864 74.860,172.715 74.870,147.377 74.870 L 124.790 74.870 123.921 74.208 C 123.443 73.843,122.815 73.115,122.526 72.589 C 121.979 71.594,121.109 70.282,120.259 69.171 C 119.987 68.815,119.557 68.121,119.304 67.629 C 119.052 67.138,118.685 66.576,118.490 66.381 C 118.228 66.119,118.206 65.895,118.406 65.522 C 118.670 65.027,119.117 65.019,141.844 65.087 L 165.013 65.155 166.595 66.834 M265.320 65.361 C 266.215 65.851,267.754 67.408,268.209 68.283 C 268.426 68.700,268.906 69.324,269.276 69.670 C 269.646 70.015,269.948 70.434,269.948 70.601 C 269.948 70.768,270.175 71.110,270.453 71.361 C 270.731 71.613,271.184 72.274,271.459 72.831 L 271.961 73.844 271.308 74.357 C 270.044 75.351,223.834 75.089,223.834 74.088 C 223.834 73.874,221.239 69.880,220.976 69.689 C 220.878 69.618,220.589 69.152,220.335 68.653 C 220.080 68.154,219.589 67.375,219.244 66.921 C 218.730 66.245,218.668 65.999,218.903 65.561 C 219.263 64.889,264.106 64.696,265.320 65.361 M173.681 81.039 C 174.577 81.198,174.732 81.338,175.029 82.254 C 175.214 82.824,175.556 83.873,175.788 84.585 C 176.888 87.958,177.285 92.920,176.540 93.984 L 176.136 94.560 154.454 94.551 C 137.809 94.545,132.680 94.470,132.378 94.228 C 131.904 93.849,130.683 90.840,130.198 88.860 C 130.006 88.076,129.610 86.852,129.318 86.140 C 127.730 82.269,127.597 81.287,128.627 81.061 C 129.672 80.832,172.396 80.810,173.681 81.039 M274.468 81.263 C 275.464 81.738,275.659 82.152,276.280 85.104 C 276.490 86.101,276.839 87.675,277.056 88.601 C 277.528 90.617,277.575 92.991,277.160 93.900 L 276.860 94.560 255.256 94.560 C 229.599 94.560,231.958 94.974,231.069 90.307 C 230.935 89.607,230.550 88.441,230.213 87.716 C 229.875 86.992,229.518 85.945,229.418 85.390 C 229.318 84.834,229.082 84.135,228.893 83.835 C 228.348 82.972,228.151 81.635,228.506 81.207 C 229.018 80.590,273.170 80.644,274.468 81.263 M176.736 100.972 C 177.499 101.416,177.512 101.457,177.357 102.979 C 177.270 103.834,177.081 105.966,176.938 107.717 C 176.794 109.467,176.534 111.129,176.359 111.408 C 176.047 111.907,175.626 111.917,154.275 111.917 C 129.088 111.917,131.672 112.256,132.162 109.015 C 132.320 107.975,132.501 105.834,132.566 104.257 C 132.681 101.487,132.708 101.375,133.376 100.961 C 134.469 100.283,175.569 100.293,176.736 100.972 M277.246 100.947 C 278.274 101.877,277.548 110.948,276.398 111.543 C 275.783 111.860,272.452 111.917,254.449 111.917 C 230.288 111.917,232.509 112.162,232.630 109.507 C 232.670 108.624,232.777 106.386,232.867 104.534 L 233.031 101.166 233.938 100.857 C 235.545 100.308,276.636 100.394,277.246 100.947 M173.705 118.365 C 174.837 118.610,174.351 122.290,172.844 124.874 C 172.555 125.371,172.240 126.206,172.144 126.731 C 172.048 127.255,171.635 128.071,171.226 128.544 C 170.817 129.017,170.358 129.550,170.205 129.728 C 169.913 130.069,128.489 130.231,127.612 129.895 C 126.981 129.652,127.093 127.711,127.830 126.107 C 128.175 125.356,128.689 124.041,128.971 123.187 C 129.872 120.463,130.470 118.956,130.815 118.540 C 131.166 118.117,171.800 117.951,173.705 118.365 M274.214 118.485 C 274.917 118.999,274.629 122.150,273.741 123.667 C 273.389 124.266,273.021 125.190,272.921 125.719 C 272.822 126.248,272.432 127.177,272.054 127.784 C 271.677 128.390,271.240 129.119,271.083 129.404 C 270.768 129.978,229.373 130.372,227.908 129.815 L 227.277 129.575 227.762 127.617 C 228.029 126.540,228.536 125.115,228.890 124.449 C 229.244 123.783,229.534 122.918,229.534 122.527 C 229.534 121.715,230.899 118.946,231.539 118.459 C 232.190 117.963,273.535 117.988,274.214 118.485 M167.205 136.762 C 167.667 137.273,167.551 138.982,166.861 141.839 C 166.507 143.300,166.062 146.475,166.062 147.535 C 166.062 148.152,165.908 148.510,165.561 148.696 C 164.984 149.004,121.534 149.033,120.466 148.725 C 119.716 148.509,119.631 147.113,120.304 146.053 C 120.509 145.730,120.821 144.767,120.998 143.912 C 121.174 143.057,121.468 142.112,121.651 141.813 C 121.833 141.513,122.235 140.436,122.544 139.419 C 122.944 138.104,123.329 137.382,123.879 136.920 L 124.651 136.269 145.705 136.269 C 166.066 136.269,166.774 136.286,167.205 136.762 M267.824 136.580 C 268.289 137.045,268.203 138.062,267.521 140.187 C 267.079 141.563,266.861 143.001,266.743 145.322 C 266.635 147.458,266.470 148.614,266.256 148.750 C 265.597 149.169,220.824 149.006,220.474 148.584 C 220.099 148.133,220.333 146.273,220.871 145.424 C 221.067 145.115,221.420 144.066,221.657 143.092 C 221.893 142.118,222.251 141.056,222.453 140.731 C 222.654 140.407,223.052 139.389,223.336 138.470 C 223.795 136.983,223.944 136.771,224.685 136.557 C 226.014 136.173,267.439 136.195,267.824 136.580 M166.894 155.637 C 167.126 155.830,167.355 156.630,167.454 157.600 C 167.546 158.500,167.968 160.219,168.391 161.419 C 168.815 162.619,169.163 163.810,169.166 164.065 C 169.169 164.320,169.414 165.005,169.712 165.588 C 170.098 166.346,170.206 166.896,170.088 167.521 L 169.925 168.394 144.182 168.394 L 118.440 168.394 117.769 167.597 C 117.020 166.706,116.908 165.396,117.339 162.565 C 117.469 161.710,117.654 159.871,117.750 158.478 C 117.868 156.768,118.051 155.820,118.313 155.559 C 118.844 155.027,166.251 155.104,166.894 155.637 M266.807 155.553 C 267.557 155.941,267.789 156.620,268.384 160.162 C 268.521 160.978,268.829 162.024,269.068 162.488 C 269.446 163.218,269.711 164.081,270.380 166.765 C 270.772 168.338,272.109 168.257,244.496 168.333 C 216.939 168.408,217.837 168.455,217.448 166.906 C 217.265 166.175,217.507 162.327,217.885 159.974 C 218.023 159.119,218.211 157.837,218.304 157.124 C 218.396 156.412,218.658 155.687,218.886 155.513 C 219.552 155.006,265.824 155.045,266.807 155.553 M173.884 175.583 C 174.396 176.117,175.090 177.057,175.426 177.671 C 175.762 178.285,176.275 179.224,176.567 179.757 C 176.859 180.290,177.412 181.139,177.797 181.644 C 178.182 182.149,178.497 182.639,178.497 182.734 C 178.497 182.829,178.847 183.389,179.275 183.979 C 180.153 185.192,180.246 185.884,179.623 186.573 C 179.213 187.026,178.025 187.046,152.097 187.038 L 125.000 187.029 123.991 186.326 C 123.436 185.938,122.771 185.214,122.514 184.715 C 122.256 184.216,121.907 183.651,121.739 183.458 C 121.571 183.265,121.205 182.508,120.926 181.775 C 120.648 181.042,120.304 180.371,120.163 180.283 C 119.427 179.828,118.695 175.924,119.220 175.255 L 119.727 174.611 146.339 174.611 L 172.952 174.611 173.884 175.583 M274.365 175.641 C 274.714 176.207,275.094 176.673,275.209 176.677 C 275.323 176.681,275.705 177.296,276.056 178.044 C 276.408 178.792,277.013 179.881,277.402 180.464 C 279.062 182.954,279.273 183.304,279.274 183.569 C 279.274 183.722,279.566 184.121,279.922 184.456 C 280.635 185.126,280.738 185.896,280.209 186.593 C 279.885 187.020,278.273 187.047,252.805 187.047 C 222.477 187.047,224.343 187.164,223.206 185.191 C 222.932 184.716,222.625 184.268,222.523 184.197 C 222.193 183.965,219.948 179.059,219.948 178.570 C 219.948 178.308,219.789 177.865,219.594 177.584 C 219.022 176.756,218.881 176.021,219.158 175.293 L 219.417 174.611 246.574 174.611 L 273.730 174.611 274.365 175.641 M180.829 193.942 C 180.829 194.907,177.403 198.446,176.469 198.446 C 176.342 198.446,175.785 198.753,175.230 199.130 C 174.676 199.506,173.483 200.026,172.579 200.284 C 171.675 200.543,170.795 200.871,170.624 201.013 C 169.453 201.985,156.687 202.756,152.828 202.089 C 152.056 201.955,150.434 201.712,149.223 201.548 C 148.012 201.384,146.891 201.143,146.733 201.012 C 146.357 200.701,144.058 200.006,143.392 200.003 C 143.106 200.001,142.348 199.724,141.708 199.388 C 141.068 199.051,140.078 198.628,139.508 198.448 C 138.938 198.268,138.297 197.980,138.083 197.808 C 137.869 197.636,137.286 197.338,136.788 197.146 C 136.289 196.954,135.575 196.555,135.201 196.261 C 134.827 195.966,134.157 195.527,133.711 195.284 C 133.078 194.939,132.902 194.671,132.902 194.054 L 132.902 193.264 156.865 193.264 L 180.829 193.264 180.829 193.942 M280.498 193.588 C 281.271 194.587,280.825 195.344,278.149 197.573 C 277.369 198.223,274.193 200.000,273.812 200.000 C 273.667 200.000,272.651 200.338,271.554 200.750 C 266.298 202.727,250.691 202.845,246.936 200.936 C 246.555 200.742,245.486 200.394,244.560 200.162 C 243.633 199.930,242.293 199.453,241.580 199.101 C 240.868 198.750,240.141 198.458,239.965 198.454 C 239.585 198.444,236.306 196.773,235.760 196.310 C 235.551 196.133,234.968 195.771,234.464 195.506 C 233.185 194.833,233.073 194.686,233.262 193.931 L 233.430 193.264 256.838 193.264 C 275.259 193.264,280.301 193.333,280.498 193.588 " stroke="none" fill="#ec222a" fill-rule="evenodd"></path><path id="path1" d="M0.000 129.534 L 0.000 259.067 200.000 259.067 L 400.000 259.067 400.000 129.534 L 400.000 0.000 200.000 0.000 L 0.000 0.000 0.000 129.534 M138.083 44.188 C 139.294 44.410,141.403 44.746,142.769 44.934 C 144.136 45.122,145.784 45.510,146.431 45.797 C 147.079 46.083,148.117 46.400,148.739 46.502 C 149.361 46.604,150.395 46.960,151.036 47.295 C 151.677 47.629,152.684 48.026,153.273 48.176 C 153.862 48.326,154.472 48.604,154.629 48.792 C 154.785 48.981,155.557 49.354,156.343 49.621 C 157.129 49.889,157.772 50.206,157.772 50.327 C 157.772 50.448,158.326 50.791,159.003 51.090 C 159.679 51.388,160.594 51.906,161.035 52.241 C 161.476 52.576,161.927 52.850,162.037 52.850 C 162.147 52.850,162.619 53.170,163.084 53.562 C 163.550 53.954,164.557 54.707,165.321 55.236 C 167.990 57.082,173.808 62.648,175.026 64.520 C 175.439 65.155,175.925 65.830,176.107 66.022 C 176.288 66.214,176.624 66.732,176.853 67.175 C 177.082 67.618,177.443 68.153,177.654 68.365 C 177.866 68.577,178.257 69.223,178.524 69.802 C 178.791 70.381,179.122 71.030,179.259 71.244 C 179.813 72.103,181.296 75.575,181.473 76.425 C 181.577 76.924,181.872 77.681,182.128 78.109 C 182.385 78.536,182.833 79.935,183.123 81.218 C 183.414 82.500,183.888 84.540,184.177 85.751 C 184.466 86.962,184.705 88.828,184.709 89.896 C 184.712 90.965,184.890 92.753,185.104 93.870 C 185.550 96.203,185.631 102.709,185.227 103.772 C 185.082 104.155,184.850 106.115,184.713 108.128 C 184.443 112.100,184.123 114.447,183.709 115.512 C 183.564 115.886,183.257 117.232,183.027 118.504 C 182.797 119.776,182.455 121.117,182.267 121.483 C 182.078 121.850,181.785 122.850,181.615 123.705 C 181.445 124.560,181.033 125.794,180.699 126.447 C 180.365 127.101,180.012 128.056,179.916 128.569 C 179.820 129.083,179.461 129.883,179.119 130.346 C 178.777 130.810,178.497 131.329,178.497 131.501 C 178.497 131.672,178.161 132.451,177.751 133.232 C 177.340 134.013,176.859 135.103,176.682 135.655 C 176.504 136.206,176.195 136.846,175.995 137.077 C 175.794 137.307,175.396 138.822,175.110 140.444 C 174.823 142.067,174.477 143.977,174.340 144.689 C 173.794 147.527,173.753 148.964,174.173 150.466 C 174.400 151.278,174.827 153.565,175.121 155.548 C 175.415 157.531,175.783 159.307,175.939 159.495 C 176.095 159.683,176.432 160.626,176.687 161.590 C 176.942 162.553,177.453 163.942,177.824 164.675 C 178.194 165.408,178.497 166.169,178.497 166.366 C 178.497 166.563,178.668 166.967,178.876 167.264 C 179.084 167.561,179.492 168.409,179.783 169.147 C 180.074 169.886,180.528 170.721,180.791 171.003 C 181.054 171.286,181.408 171.980,181.578 172.546 C 181.747 173.112,181.978 173.575,182.090 173.575 C 182.203 173.575,182.568 174.158,182.902 174.870 C 183.235 175.583,183.587 176.166,183.684 176.166 C 183.780 176.166,184.070 176.633,184.327 177.204 C 184.584 177.774,184.960 178.379,185.163 178.546 C 185.365 178.714,185.765 179.313,186.053 179.877 C 186.341 180.441,186.799 181.141,187.070 181.432 C 187.342 181.724,187.565 182.100,187.565 182.267 C 187.565 182.434,187.861 183.007,188.223 183.540 C 190.026 186.197,190.306 193.745,188.709 196.632 C 188.512 196.988,188.084 197.804,187.758 198.446 C 186.441 201.032,181.101 205.561,178.428 206.358 C 178.110 206.453,177.383 206.794,176.813 207.116 C 176.244 207.438,175.136 207.847,174.352 208.025 C 173.569 208.203,172.649 208.524,172.309 208.737 C 171.968 208.951,170.977 209.219,170.106 209.332 C 169.236 209.445,167.474 209.694,166.192 209.885 C 161.066 210.650,147.772 209.973,145.653 208.839 C 145.352 208.678,144.100 208.307,142.870 208.015 C 141.641 207.723,140.206 207.264,139.682 206.995 C 139.159 206.726,138.177 206.369,137.500 206.201 C 136.823 206.034,136.269 205.809,136.269 205.700 C 136.269 205.592,135.567 205.241,134.710 204.920 C 133.852 204.599,133.087 204.235,133.010 204.111 C 132.933 203.986,132.362 203.653,131.742 203.371 C 130.524 202.816,126.781 200.416,125.518 199.379 C 123.635 197.834,122.342 196.648,120.830 195.078 C 118.020 192.161,116.947 190.863,116.311 189.617 C 116.036 189.078,115.695 188.565,115.555 188.478 C 115.414 188.391,115.099 187.888,114.855 187.359 C 114.611 186.831,114.207 186.130,113.957 185.801 C 113.708 185.473,113.318 184.646,113.091 183.963 C 112.865 183.281,112.449 182.272,112.169 181.721 C 111.888 181.170,111.658 180.443,111.658 180.106 C 111.658 179.769,111.365 178.761,111.008 177.867 C 109.100 173.099,109.097 157.100,111.002 151.036 C 111.338 149.968,111.685 148.396,111.774 147.544 C 111.863 146.692,112.109 145.730,112.321 145.407 C 112.532 145.084,112.890 143.916,113.115 142.811 C 113.339 141.707,113.684 140.453,113.880 140.026 C 114.076 139.598,114.519 138.433,114.864 137.435 C 116.548 132.568,116.840 131.788,117.090 131.486 C 117.239 131.308,117.592 130.487,117.876 129.663 C 118.159 128.839,118.509 128.023,118.653 127.850 C 118.797 127.676,119.147 126.860,119.430 126.036 C 119.714 125.212,120.052 124.409,120.181 124.251 C 120.311 124.093,120.615 123.264,120.857 122.409 C 121.099 121.554,121.460 120.596,121.659 120.281 C 121.858 119.965,122.256 118.701,122.542 117.473 C 122.828 116.245,123.185 115.012,123.334 114.732 C 125.004 111.613,124.982 95.207,123.306 93.130 C 123.189 92.985,122.895 92.052,122.654 91.057 C 122.412 90.063,122.072 89.016,121.898 88.731 C 121.724 88.446,121.380 87.600,121.133 86.851 C 120.584 85.191,117.745 79.603,117.084 78.882 C 116.820 78.596,116.420 77.954,116.193 77.458 C 115.966 76.961,115.498 76.146,115.152 75.648 C 114.806 75.149,114.283 74.391,113.990 73.964 C 113.696 73.536,113.171 72.778,112.823 72.280 C 112.474 71.781,112.062 71.082,111.906 70.727 C 111.750 70.371,111.357 69.730,111.032 69.302 C 110.707 68.874,110.300 68.093,110.128 67.568 C 109.956 67.043,109.594 66.332,109.325 65.989 C 107.591 63.785,107.529 55.906,109.231 54.203 C 109.436 53.999,109.821 53.407,110.088 52.887 C 110.614 51.864,112.520 50.011,114.141 48.944 C 116.345 47.495,117.865 46.676,118.683 46.496 C 119.154 46.393,120.010 46.060,120.586 45.758 C 121.161 45.455,122.506 45.068,123.575 44.898 C 127.783 44.227,128.853 44.031,128.975 43.909 C 129.278 43.607,136.047 43.814,138.083 44.188 M238.860 44.256 C 239.644 44.400,241.546 44.699,243.087 44.922 C 244.628 45.145,246.424 45.564,247.078 45.854 C 247.733 46.143,248.745 46.454,249.328 46.544 C 249.911 46.635,251.017 47.041,251.785 47.448 C 252.553 47.854,253.324 48.187,253.497 48.187 C 254.421 48.187,263.181 53.041,263.968 53.989 C 264.157 54.217,264.467 54.404,264.656 54.404 C 264.845 54.404,265.093 54.556,265.207 54.741 C 265.321 54.926,265.823 55.355,266.321 55.694 C 269.493 57.849,276.166 64.618,276.166 65.681 C 276.166 65.801,276.420 66.170,276.732 66.502 C 277.421 67.235,278.301 68.646,279.043 70.207 C 279.348 70.848,279.746 71.548,279.927 71.762 C 280.109 71.975,280.451 72.730,280.689 73.439 C 280.927 74.148,281.232 74.861,281.367 75.024 C 281.833 75.586,283.872 82.259,284.040 83.771 C 284.132 84.605,284.336 85.527,284.493 85.820 C 285.853 88.361,285.867 109.448,284.512 112.953 C 284.374 113.310,284.181 114.242,284.083 115.026 C 283.769 117.537,283.354 119.541,283.004 120.239 C 282.816 120.613,282.487 121.766,282.271 122.801 C 282.055 123.836,281.713 124.934,281.512 125.242 C 281.310 125.550,280.954 126.549,280.720 127.462 C 280.486 128.376,280.126 129.308,279.921 129.535 C 279.715 129.762,279.372 130.445,279.157 131.053 C 278.943 131.661,278.532 132.458,278.244 132.824 C 277.956 133.190,277.720 133.687,277.720 133.929 C 277.720 134.170,277.419 134.942,277.050 135.643 C 276.682 136.344,276.170 137.791,275.913 138.860 C 275.655 139.929,275.257 141.498,275.028 142.347 C 274.469 144.420,274.438 152.055,274.983 153.683 C 275.187 154.293,275.592 156.033,275.882 157.549 C 276.172 159.065,276.637 160.698,276.916 161.176 C 277.195 161.655,277.501 162.513,277.596 163.083 C 277.691 163.653,277.972 164.411,278.221 164.767 C 278.470 165.123,278.883 166.056,279.138 166.839 C 279.393 167.623,279.722 168.415,279.868 168.599 C 280.013 168.783,280.411 169.482,280.752 170.153 C 281.092 170.824,281.766 172.073,282.250 172.927 C 282.734 173.782,283.373 174.973,283.670 175.572 C 283.968 176.172,284.327 176.734,284.467 176.820 C 284.608 176.907,284.967 177.458,285.267 178.045 C 285.566 178.632,285.977 179.278,286.178 179.480 C 286.380 179.682,286.777 180.301,287.060 180.856 C 287.344 181.411,287.687 181.865,287.824 181.865 C 287.961 181.865,288.151 182.186,288.246 182.578 C 288.341 182.970,288.753 184.005,289.162 184.879 C 290.547 187.840,290.448 194.580,288.985 196.898 C 288.632 197.458,288.342 198.010,288.342 198.124 C 288.342 198.950,284.460 203.057,282.651 204.145 C 282.058 204.501,281.146 205.070,280.624 205.408 C 280.102 205.746,279.227 206.181,278.680 206.374 C 278.134 206.567,277.387 206.960,277.021 207.248 C 276.655 207.536,276.108 207.774,275.807 207.776 C 275.167 207.780,273.062 208.481,272.642 208.830 C 272.482 208.963,271.432 209.195,270.308 209.348 C 269.184 209.500,267.448 209.756,266.451 209.916 C 261.916 210.644,247.296 209.877,246.021 208.844 C 245.689 208.576,242.682 207.772,242.009 207.772 C 241.769 207.772,241.158 207.550,240.651 207.278 C 240.144 207.006,239.217 206.631,238.591 206.443 C 237.358 206.074,231.205 203.028,230.570 202.473 C 230.356 202.286,229.715 201.886,229.145 201.583 C 228.060 201.008,227.640 200.710,224.877 198.549 C 221.482 195.895,216.882 190.593,215.348 187.565 C 215.024 186.924,214.591 186.108,214.387 185.751 C 213.548 184.287,212.435 181.658,212.435 181.140 C 212.435 180.834,212.140 179.917,211.779 179.102 C 211.386 178.213,210.961 176.473,210.716 174.755 C 210.492 173.180,210.192 171.250,210.050 170.466 C 209.655 168.296,209.511 162.985,209.807 161.528 C 210.107 160.052,210.788 155.044,211.008 152.701 C 211.089 151.835,211.386 150.519,211.668 149.778 C 211.950 149.036,212.299 147.591,212.444 146.568 C 212.590 145.544,212.863 144.469,213.051 144.180 C 213.240 143.890,213.600 142.720,213.851 141.580 C 214.102 140.440,214.475 139.183,214.678 138.787 C 214.882 138.390,215.288 137.283,215.582 136.326 C 215.876 135.369,216.221 134.456,216.350 134.298 C 216.478 134.140,216.805 133.365,217.077 132.575 C 217.349 131.785,217.747 130.866,217.962 130.531 C 218.177 130.196,218.546 129.252,218.780 128.433 C 219.015 127.613,219.298 126.943,219.407 126.943 C 219.517 126.943,219.751 126.448,219.927 125.842 C 220.103 125.236,220.475 124.259,220.753 123.671 C 221.490 122.114,222.512 119.087,223.103 116.710 C 223.387 115.570,223.845 113.880,224.123 112.953 C 225.415 108.635,225.316 96.984,223.965 94.394 C 223.752 93.986,223.578 93.455,223.577 93.212 C 223.574 92.507,222.891 90.096,222.454 89.249 C 222.233 88.821,221.860 87.801,221.624 86.982 C 221.388 86.163,221.105 85.492,220.996 85.492 C 220.886 85.492,220.593 84.960,220.344 84.310 C 219.832 82.969,218.347 80.059,217.737 79.200 C 217.513 78.885,216.899 77.924,216.372 77.065 C 215.845 76.207,215.265 75.274,215.083 74.993 C 214.901 74.712,214.551 74.150,214.306 73.745 C 214.061 73.339,213.540 72.595,213.148 72.090 C 212.756 71.585,212.435 71.030,212.435 70.857 C 212.435 70.684,212.159 70.244,211.821 69.879 C 211.483 69.514,211.072 68.832,210.909 68.363 C 210.745 67.894,210.413 67.213,210.170 66.851 C 208.295 64.055,207.557 58.930,208.681 56.516 C 209.036 55.754,209.326 54.997,209.326 54.834 C 209.326 54.190,212.823 49.741,213.329 49.741 C 213.405 49.741,214.002 49.333,214.655 48.834 C 215.308 48.335,215.945 47.927,216.071 47.927 C 216.196 47.927,216.728 47.636,217.253 47.280 C 217.778 46.924,218.384 46.632,218.599 46.632 C 218.815 46.632,219.644 46.320,220.441 45.939 C 221.239 45.558,222.824 45.089,223.964 44.897 C 225.104 44.706,226.852 44.384,227.850 44.182 C 229.887 43.769,236.449 43.813,238.860 44.256 M127.202 52.212 C 125.848 52.553,124.460 52.836,124.116 52.841 C 123.772 52.846,123.015 53.125,122.432 53.462 C 121.850 53.799,120.957 54.210,120.448 54.374 C 118.657 54.952,116.032 58.042,116.876 58.578 C 117.278 58.832,151.632 58.894,153.461 58.644 C 154.565 58.492,155.257 57.772,154.299 57.772 C 154.099 57.772,153.447 57.364,152.850 56.865 C 152.253 56.367,151.581 55.959,151.357 55.959 C 151.132 55.959,150.329 55.609,149.572 55.181 C 148.814 54.754,147.930 54.401,147.608 54.398 C 147.285 54.395,146.321 54.096,145.466 53.734 C 144.611 53.372,143.212 52.972,142.358 52.845 C 141.503 52.718,139.870 52.418,138.731 52.179 C 135.272 51.452,130.160 51.467,127.202 52.212 M227.720 52.209 C 226.509 52.536,225.190 52.813,224.790 52.826 C 221.813 52.922,216.057 57.406,217.528 58.482 C 218.018 58.840,252.300 58.950,254.221 58.599 C 255.423 58.380,255.568 58.008,254.556 57.737 C 254.140 57.626,253.477 57.180,253.081 56.747 C 252.685 56.313,252.166 55.959,251.928 55.959 C 251.690 55.959,250.955 55.681,250.294 55.342 C 244.650 52.442,232.907 50.812,227.720 52.209 M118.406 65.522 C 118.206 65.895,118.228 66.119,118.490 66.381 C 118.685 66.576,119.052 67.138,119.304 67.629 C 119.557 68.121,119.987 68.815,120.259 69.171 C 121.109 70.282,121.979 71.594,122.526 72.589 C 122.815 73.115,123.443 73.843,123.921 74.208 L 124.790 74.870 147.377 74.870 C 172.715 74.870,172.864 74.860,171.295 73.171 C 171.039 72.894,170.760 72.488,170.676 72.268 C 170.357 71.432,168.114 68.445,166.595 66.834 L 165.013 65.155 141.844 65.087 C 119.117 65.019,118.670 65.027,118.406 65.522 M218.903 65.561 C 218.668 65.999,218.730 66.245,219.244 66.921 C 219.589 67.375,220.080 68.154,220.335 68.653 C 220.589 69.152,220.878 69.618,220.976 69.689 C 221.239 69.880,223.834 73.874,223.834 74.088 C 223.834 75.089,270.044 75.351,271.308 74.357 L 271.961 73.844 271.459 72.831 C 271.184 72.274,270.731 71.613,270.453 71.361 C 270.175 71.110,269.948 70.768,269.948 70.601 C 269.948 70.434,269.646 70.015,269.276 69.670 C 268.906 69.324,268.426 68.700,268.209 68.283 C 267.754 67.408,266.215 65.851,265.320 65.361 C 264.106 64.696,219.263 64.889,218.903 65.561 M128.627 81.061 C 127.597 81.287,127.730 82.269,129.318 86.140 C 129.610 86.852,130.006 88.076,130.198 88.860 C 130.683 90.840,131.904 93.849,132.378 94.228 C 132.680 94.470,137.809 94.545,154.454 94.551 L 176.136 94.560 176.540 93.984 C 177.285 92.920,176.888 87.958,175.788 84.585 C 175.556 83.873,175.214 82.824,175.029 82.254 C 174.732 81.338,174.577 81.198,173.681 81.039 C 172.396 80.810,129.672 80.832,128.627 81.061 M228.506 81.207 C 228.151 81.635,228.348 82.972,228.893 83.835 C 229.082 84.135,229.318 84.834,229.418 85.390 C 229.518 85.945,229.875 86.992,230.213 87.716 C 230.550 88.441,230.935 89.607,231.069 90.307 C 231.958 94.974,229.599 94.560,255.256 94.560 L 276.860 94.560 277.160 93.900 C 277.575 92.991,277.528 90.617,277.056 88.601 C 276.839 87.675,276.490 86.101,276.280 85.104 C 275.659 82.152,275.464 81.738,274.468 81.263 C 273.170 80.644,229.018 80.590,228.506 81.207 M133.376 100.961 C 132.708 101.375,132.681 101.487,132.566 104.257 C 132.501 105.834,132.320 107.975,132.162 109.015 C 131.672 112.256,129.088 111.917,154.275 111.917 C 175.626 111.917,176.047 111.907,176.359 111.408 C 176.534 111.129,176.794 109.467,176.938 107.717 C 177.081 105.966,177.270 103.834,177.357 102.979 C 177.627 100.321,179.412 100.517,155.012 100.525 C 135.979 100.531,134.004 100.571,133.376 100.961 M233.938 100.857 L 233.031 101.166 232.867 104.534 C 232.777 106.386,232.670 108.624,232.630 109.507 C 232.509 112.162,230.288 111.917,254.449 111.917 C 272.452 111.917,275.783 111.860,276.398 111.543 C 277.548 110.948,278.274 101.877,277.246 100.947 C 276.636 100.394,235.545 100.308,233.938 100.857 M130.815 118.540 C 130.470 118.956,129.872 120.463,128.971 123.187 C 128.689 124.041,128.175 125.356,127.830 126.107 C 127.093 127.711,126.981 129.652,127.612 129.895 C 128.489 130.231,169.913 130.069,170.205 129.728 C 170.358 129.550,170.817 129.017,171.226 128.544 C 171.635 128.071,172.048 127.255,172.144 126.731 C 172.240 126.206,172.555 125.371,172.844 124.874 C 174.351 122.290,174.837 118.610,173.705 118.365 C 171.800 117.951,131.166 118.117,130.815 118.540 M231.539 118.459 C 230.899 118.946,229.534 121.715,229.534 122.527 C 229.534 122.918,229.244 123.783,228.890 124.449 C 228.536 125.115,228.029 126.540,227.762 127.617 L 227.277 129.575 227.908 129.815 C 229.373 130.372,270.768 129.978,271.083 129.404 C 271.240 129.119,271.677 128.390,272.054 127.784 C 272.432 127.177,272.822 126.248,272.921 125.719 C 273.021 125.190,273.389 124.266,273.741 123.667 C 274.629 122.150,274.917 118.999,274.214 118.485 C 273.535 117.988,232.190 117.963,231.539 118.459 M123.879 136.920 C 123.329 137.382,122.944 138.104,122.544 139.419 C 122.235 140.436,121.833 141.513,121.651 141.813 C 121.468 142.112,121.174 143.057,120.998 143.912 C 120.821 144.767,120.509 145.730,120.304 146.053 C 119.631 147.113,119.716 148.509,120.466 148.725 C 121.534 149.033,164.984 149.004,165.561 148.696 C 165.908 148.510,166.062 148.152,166.062 147.535 C 166.062 146.475,166.507 143.300,166.861 141.839 C 168.363 135.626,170.805 136.269,145.705 136.269 L 124.651 136.269 123.879 136.920 M224.685 136.557 C 223.944 136.771,223.795 136.983,223.336 138.470 C 223.052 139.389,222.654 140.407,222.453 140.731 C 222.251 141.056,221.893 142.118,221.657 143.092 C 221.420 144.066,221.067 145.115,220.871 145.424 C 220.333 146.273,220.099 148.133,220.474 148.584 C 220.824 149.006,265.597 149.169,266.256 148.750 C 266.470 148.614,266.635 147.458,266.743 145.322 C 266.861 143.001,267.079 141.563,267.521 140.187 C 268.203 138.062,268.289 137.045,267.824 136.580 C 267.439 136.195,226.014 136.173,224.685 136.557 M118.313 155.559 C 118.051 155.820,117.868 156.768,117.750 158.478 C 117.654 159.871,117.469 161.710,117.339 162.565 C 116.908 165.396,117.020 166.706,117.769 167.597 L 118.440 168.394 144.182 168.394 L 169.925 168.394 170.088 167.521 C 170.206 166.896,170.098 166.346,169.712 165.588 C 169.414 165.005,169.169 164.320,169.166 164.065 C 169.163 163.810,168.815 162.619,168.391 161.419 C 167.968 160.219,167.546 158.500,167.454 157.600 C 167.355 156.630,167.126 155.830,166.894 155.637 C 166.251 155.104,118.844 155.027,118.313 155.559 M218.886 155.513 C 218.658 155.687,218.396 156.412,218.304 157.124 C 218.211 157.837,218.023 159.119,217.885 159.974 C 217.507 162.327,217.265 166.175,217.448 166.906 C 217.837 168.455,216.939 168.408,244.496 168.333 C 272.109 168.257,270.772 168.338,270.380 166.765 C 269.711 164.081,269.446 163.218,269.068 162.488 C 268.829 162.024,268.521 160.978,268.384 160.162 C 267.789 156.620,267.557 155.941,266.807 155.553 C 265.824 155.045,219.552 155.006,218.886 155.513 M119.220 175.255 C 118.695 175.924,119.427 179.828,120.163 180.283 C 120.304 180.371,120.648 181.042,120.926 181.775 C 121.205 182.508,121.571 183.265,121.739 183.458 C 121.907 183.651,122.256 184.216,122.514 184.715 C 122.771 185.214,123.436 185.938,123.991 186.326 L 125.000 187.029 152.097 187.038 C 178.025 187.046,179.213 187.026,179.623 186.573 C 180.246 185.884,180.153 185.192,179.275 183.979 C 178.847 183.389,178.497 182.829,178.497 182.734 C 178.497 182.639,178.182 182.149,177.797 181.644 C 177.412 181.139,176.859 180.290,176.567 179.757 C 176.275 179.224,175.762 178.285,175.426 177.671 C 175.090 177.057,174.396 176.117,173.884 175.583 L 172.952 174.611 146.339 174.611 L 119.727 174.611 119.220 175.255 M219.158 175.293 C 218.881 176.021,219.022 176.756,219.594 177.584 C 219.789 177.865,219.948 178.308,219.948 178.570 C 219.948 179.059,222.193 183.965,222.523 184.197 C 222.625 184.268,222.932 184.716,223.206 185.191 C 224.343 187.164,222.477 187.047,252.805 187.047 C 278.273 187.047,279.885 187.020,280.209 186.593 C 280.738 185.896,280.635 185.126,279.922 184.456 C 279.566 184.121,279.274 183.722,279.274 183.569 C 279.273 183.304,279.062 182.954,277.402 180.464 C 277.013 179.881,276.408 178.792,276.056 178.044 C 275.705 177.296,275.323 176.681,275.209 176.677 C 275.094 176.673,274.714 176.207,274.365 175.641 L 273.730 174.611 246.574 174.611 L 219.417 174.611 219.158 175.293 M132.902 194.054 C 132.902 194.671,133.078 194.939,133.711 195.284 C 134.157 195.527,134.827 195.966,135.201 196.261 C 135.575 196.555,136.289 196.954,136.788 197.146 C 137.286 197.338,137.869 197.636,138.083 197.808 C 138.297 197.980,138.938 198.268,139.508 198.448 C 140.078 198.628,141.068 199.051,141.708 199.388 C 142.348 199.724,143.106 200.001,143.392 200.003 C 144.058 200.006,146.357 200.701,146.733 201.012 C 146.891 201.143,148.012 201.384,149.223 201.548 C 150.434 201.712,152.056 201.955,152.828 202.089 C 156.687 202.756,169.453 201.985,170.624 201.013 C 170.795 200.871,171.675 200.543,172.579 200.284 C 173.483 200.026,174.676 199.506,175.230 199.130 C 175.785 198.753,176.342 198.446,176.469 198.446 C 177.403 198.446,180.829 194.907,180.829 193.942 L 180.829 193.264 156.865 193.264 L 132.902 193.264 132.902 194.054 M233.262 193.931 C 233.073 194.686,233.185 194.833,234.464 195.506 C 234.968 195.771,235.551 196.133,235.760 196.310 C 236.306 196.773,239.585 198.444,239.965 198.454 C 240.141 198.458,240.868 198.750,241.580 199.101 C 242.293 199.453,243.633 199.930,244.560 200.162 C 245.486 200.394,246.555 200.742,246.936 200.936 C 250.691 202.845,266.298 202.727,271.554 200.750 C 272.651 200.338,273.667 200.000,273.812 200.000 C 274.193 200.000,277.369 198.223,278.149 197.573 C 279.990 196.040,281.062 194.791,280.908 194.360 C 280.504 193.224,281.391 193.264,256.838 193.264 L 233.430 193.264 233.262 193.931 " stroke="none" fill="#fcfcfc" fill-rule="evenodd"></path></g></svg>