<svg id="svg" version="1.1" xmlns="http://www.w3.org/2000/svg" xmlns:xlink="http://www.w3.org/1999/xlink" width="400" height="258.91472868217056" viewBox="0, 0, 400,258.91472868217056"><g id="svgg"><path id="path0" d="M197.345 39.443 C 197.161 39.764,196.810 40.376,196.565 40.803 C 196.321 41.231,195.881 42.105,195.588 42.746 C 195.295 43.387,194.940 44.087,194.801 44.301 C 194.661 44.514,194.306 45.214,194.013 45.855 C 192.863 48.366,192.209 49.742,190.564 53.109 C 189.624 55.032,188.856 56.738,188.857 56.898 C 188.859 57.059,188.686 57.335,188.472 57.512 C 188.259 57.689,187.910 58.422,187.696 59.141 C 187.483 59.861,187.136 60.639,186.925 60.872 C 186.714 61.105,186.361 61.808,186.140 62.435 C 185.919 63.062,185.569 63.762,185.363 63.990 C 185.156 64.218,184.812 64.901,184.598 65.509 C 184.383 66.117,183.972 66.914,183.684 67.280 C 183.396 67.646,183.161 68.168,183.161 68.439 C 183.161 68.865,182.795 69.675,181.896 71.244 C 181.773 71.457,181.426 72.157,181.123 72.798 C 180.820 73.439,180.475 74.139,180.357 74.352 C 179.870 75.228,178.521 78.169,178.218 79.016 C 178.040 79.514,177.748 80.097,177.570 80.311 C 177.391 80.525,177.041 81.224,176.790 81.865 C 176.540 82.506,176.122 83.309,175.862 83.649 C 175.602 83.989,175.389 84.371,175.389 84.499 C 175.389 84.627,174.981 85.573,174.482 86.601 C 173.983 87.629,173.575 88.634,173.575 88.835 C 173.575 89.036,173.302 89.561,172.969 90.001 C 172.635 90.442,172.276 91.153,172.171 91.580 C 172.066 92.008,171.716 92.707,171.394 93.135 C 171.071 93.562,170.724 94.262,170.621 94.689 C 170.519 95.117,170.165 95.879,169.836 96.383 C 169.506 96.887,169.155 97.669,169.056 98.119 C 168.957 98.570,168.648 99.229,168.370 99.582 C 168.092 99.936,167.689 100.723,167.475 101.330 C 167.260 101.938,166.916 102.622,166.710 102.850 C 166.504 103.078,166.154 103.777,165.933 104.404 C 165.711 105.031,165.348 105.746,165.125 105.992 C 164.902 106.238,164.607 106.941,164.470 107.554 C 164.332 108.167,163.934 109.042,163.586 109.498 C 163.238 109.955,162.953 110.482,162.952 110.669 C 162.951 110.857,162.757 111.360,162.520 111.788 C 161.149 114.267,160.259 116.097,159.820 117.339 C 159.546 118.113,159.151 118.935,158.943 119.166 C 158.734 119.397,158.382 120.098,158.161 120.725 C 157.939 121.352,157.590 122.052,157.383 122.280 C 157.177 122.508,156.827 123.207,156.606 123.834 C 156.385 124.461,156.044 125.155,155.847 125.376 C 155.651 125.597,155.316 126.373,155.102 127.101 C 154.888 127.830,154.565 128.661,154.385 128.950 C 154.117 129.379,154.129 129.631,154.451 130.346 C 154.668 130.825,154.998 131.626,155.185 132.124 C 155.372 132.623,155.672 133.206,155.851 133.420 C 156.030 133.633,156.429 134.449,156.737 135.233 C 157.045 136.016,157.402 136.784,157.531 136.939 C 157.660 137.094,157.939 137.714,158.152 138.317 C 158.364 138.919,158.756 139.725,159.022 140.108 C 159.288 140.490,159.636 141.187,159.795 141.657 C 159.955 142.126,160.304 142.825,160.573 143.211 C 160.841 143.596,161.197 144.312,161.363 144.802 C 161.529 145.291,161.827 145.874,162.026 146.097 C 162.224 146.320,162.527 147.026,162.697 147.666 C 162.867 148.306,163.232 149.146,163.508 149.533 C 163.783 149.920,164.140 150.620,164.300 151.090 C 164.461 151.559,164.865 152.349,165.198 152.845 C 165.531 153.341,165.803 153.847,165.803 153.968 C 165.803 154.090,166.211 155.018,166.710 156.030 C 167.209 157.042,167.617 158.031,167.617 158.227 C 167.617 158.423,167.899 158.955,168.244 159.408 C 168.589 159.862,168.957 160.583,169.062 161.010 C 169.167 161.438,169.517 162.137,169.840 162.565 C 170.162 162.992,170.510 163.692,170.613 164.119 C 170.717 164.547,171.031 165.225,171.312 165.628 C 171.594 166.030,171.985 166.896,172.183 167.552 C 172.380 168.208,172.713 168.934,172.922 169.165 C 173.131 169.396,173.478 170.083,173.692 170.690 C 173.907 171.298,174.318 172.095,174.606 172.461 C 174.894 172.827,175.130 173.245,175.130 173.389 C 175.130 173.692,176.131 175.836,179.149 181.995 C 180.336 184.417,181.439 186.827,181.599 187.350 C 181.760 187.873,182.054 188.435,182.253 188.600 C 182.452 188.765,182.802 189.465,183.031 190.155 C 183.260 190.846,183.610 191.545,183.808 191.710 C 184.006 191.874,184.359 192.583,184.592 193.284 C 184.825 193.986,185.113 194.560,185.233 194.560 C 185.352 194.560,185.699 195.309,186.004 196.224 C 186.308 197.139,186.718 198.022,186.915 198.185 C 187.112 198.348,187.347 198.819,187.437 199.232 C 187.528 199.645,187.874 200.383,188.205 200.871 C 188.537 201.360,188.890 202.034,188.990 202.370 C 189.090 202.705,189.509 203.590,189.922 204.335 C 190.336 205.081,190.674 205.909,190.674 206.175 C 190.674 206.440,191.021 207.171,191.446 207.798 C 191.871 208.425,192.221 209.126,192.223 209.355 C 192.226 209.585,192.534 210.223,192.908 210.774 C 193.282 211.326,193.734 212.189,193.912 212.694 C 194.090 213.198,194.483 214.017,194.785 214.513 C 195.087 215.009,195.335 215.602,195.336 215.832 C 195.336 216.061,195.617 216.661,195.959 217.165 C 196.300 217.669,196.664 218.356,196.766 218.691 C 197.172 220.020,198.446 220.526,198.446 219.358 C 198.446 219.211,198.727 218.722,199.071 218.271 C 199.414 217.820,199.834 216.936,200.004 216.306 C 200.174 215.676,200.538 214.844,200.813 214.457 C 201.089 214.070,201.444 213.369,201.604 212.900 C 201.763 212.431,202.112 211.731,202.381 211.346 C 202.649 210.960,203.000 210.261,203.161 209.791 C 203.322 209.322,203.710 208.588,204.024 208.161 C 204.337 207.733,204.665 207.002,204.753 206.535 C 204.840 206.069,205.206 205.255,205.565 204.727 C 205.924 204.198,206.218 203.589,206.219 203.373 C 206.219 203.156,206.569 202.455,206.995 201.813 C 207.421 201.172,207.770 200.483,207.771 200.282 C 207.772 200.080,208.108 199.381,208.519 198.727 C 208.930 198.074,209.342 197.113,209.433 196.593 C 209.524 196.073,209.765 195.510,209.967 195.342 C 210.170 195.174,210.538 194.492,210.786 193.827 C 211.034 193.161,211.441 192.348,211.690 192.019 C 211.940 191.690,212.336 190.845,212.570 190.141 C 212.804 189.436,213.093 188.860,213.212 188.860 C 213.332 188.860,213.678 188.111,213.983 187.196 C 214.288 186.280,214.698 185.398,214.894 185.235 C 215.091 185.072,215.326 184.600,215.417 184.188 C 215.507 183.775,215.853 183.037,216.184 182.548 C 216.516 182.060,216.870 181.385,216.970 181.050 C 217.070 180.715,217.416 179.974,217.738 179.404 C 218.060 178.834,218.473 177.902,218.656 177.332 C 218.838 176.762,219.197 176.026,219.453 175.696 C 219.709 175.367,220.059 174.667,220.230 174.142 C 220.402 173.616,220.751 172.917,221.007 172.587 C 221.264 172.258,221.613 171.558,221.785 171.033 C 221.956 170.508,222.306 169.807,222.563 169.476 C 222.821 169.146,223.210 168.258,223.430 167.503 C 223.649 166.748,223.998 165.990,224.204 165.819 C 224.410 165.648,224.657 165.137,224.753 164.684 C 224.849 164.231,225.183 163.510,225.497 163.083 C 225.810 162.655,226.269 161.761,226.518 161.096 C 226.767 160.430,227.136 159.748,227.338 159.580 C 227.541 159.412,227.784 158.849,227.879 158.329 C 227.974 157.809,228.272 157.068,228.543 156.682 C 228.813 156.297,229.165 155.597,229.324 155.128 C 229.483 154.659,229.833 153.959,230.101 153.574 C 230.369 153.188,230.719 152.489,230.878 152.019 C 231.037 151.550,231.397 150.837,231.677 150.435 C 231.957 150.032,232.343 149.181,232.535 148.544 C 232.727 147.906,233.104 147.069,233.372 146.684 C 233.639 146.299,233.989 145.600,234.148 145.131 C 234.307 144.662,234.657 143.962,234.925 143.577 C 235.193 143.191,235.543 142.492,235.702 142.022 C 235.861 141.553,236.217 140.852,236.492 140.465 C 236.768 140.079,237.133 139.243,237.304 138.608 C 237.475 137.973,237.830 137.180,238.093 136.845 C 238.356 136.511,238.712 135.807,238.883 135.282 C 239.054 134.756,239.404 134.058,239.659 133.729 C 239.915 133.400,240.314 132.556,240.548 131.854 C 240.781 131.151,241.080 130.510,241.212 130.428 C 241.615 130.179,241.478 129.073,240.934 128.180 C 240.649 127.713,240.416 127.183,240.415 127.002 C 240.415 126.821,240.132 126.238,239.786 125.707 C 239.441 125.176,239.032 124.261,238.879 123.674 C 238.725 123.087,238.357 122.298,238.060 121.921 C 237.763 121.544,237.402 120.806,237.257 120.281 C 237.112 119.755,236.729 118.970,236.406 118.536 C 236.084 118.102,235.739 117.406,235.640 116.989 C 235.541 116.573,235.235 115.946,234.959 115.595 C 234.683 115.245,234.330 114.482,234.173 113.900 C 234.016 113.318,233.673 112.568,233.409 112.234 C 233.146 111.899,232.791 111.196,232.620 110.670 C 232.448 110.145,232.098 109.445,231.842 109.116 C 231.586 108.786,231.236 108.087,231.063 107.562 C 230.891 107.036,230.495 106.198,230.184 105.699 C 229.872 105.201,229.542 104.408,229.450 103.939 C 229.358 103.469,229.005 102.711,228.665 102.255 C 228.325 101.798,227.967 101.088,227.870 100.677 C 227.772 100.266,227.407 99.555,227.059 99.098 C 226.710 98.641,226.425 98.117,226.425 97.935 C 226.425 97.752,226.087 97.005,225.675 96.275 C 225.263 95.545,224.847 94.577,224.752 94.124 C 224.656 93.671,224.426 93.174,224.240 93.019 C 224.054 92.865,223.694 92.187,223.439 91.512 C 223.185 90.837,222.761 90.007,222.499 89.667 C 222.236 89.327,222.021 88.934,222.021 88.792 C 222.021 88.651,221.655 87.763,221.207 86.819 C 220.760 85.876,219.868 83.996,219.226 82.642 C 218.583 81.289,217.914 80.006,217.738 79.793 C 217.563 79.579,217.335 79.113,217.232 78.756 C 217.024 78.034,215.402 74.439,215.011 73.834 C 214.873 73.620,214.529 72.921,214.246 72.280 C 213.963 71.639,213.614 70.939,213.470 70.725 C 213.326 70.512,213.077 70.045,212.916 69.689 C 212.755 69.333,212.232 68.203,211.752 67.179 C 211.273 66.155,210.881 65.209,210.881 65.078 C 210.881 64.947,210.604 64.431,210.265 63.931 C 209.926 63.432,209.511 62.607,209.343 62.098 C 209.175 61.589,208.827 60.903,208.570 60.573 C 208.313 60.244,208.019 59.683,207.917 59.326 C 207.739 58.706,206.600 56.171,205.763 54.534 C 205.545 54.106,205.208 53.436,205.015 53.044 C 204.589 52.181,204.011 51.025,203.526 50.065 C 202.457 47.950,201.554 45.950,201.554 45.697 C 201.554 45.539,201.275 44.997,200.933 44.493 C 200.591 43.989,200.230 43.302,200.130 42.967 C 199.947 42.348,197.946 38.860,197.774 38.860 C 197.723 38.860,197.530 39.122,197.345 39.443 " stroke="none" fill="#ec1d2d" fill-rule="evenodd"></path><path id="path1" d="M0.000 129.534 L 0.000 259.067 200.000 259.067 L 400.000 259.067 400.000 129.534 L 400.000 0.000 200.000 0.000 L 0.000 0.000 0.000 129.534 M198.909 40.609 C 199.481 41.571,200.031 42.632,200.130 42.967 C 200.230 43.302,200.591 43.989,200.933 44.493 C 201.275 44.997,201.554 45.539,201.554 45.697 C 201.554 45.950,202.457 47.950,203.526 50.065 C 204.011 51.025,204.589 52.181,205.015 53.044 C 205.208 53.436,205.545 54.106,205.763 54.534 C 206.600 56.171,207.739 58.706,207.917 59.326 C 208.019 59.683,208.313 60.244,208.570 60.573 C 208.827 60.903,209.175 61.589,209.343 62.098 C 209.511 62.607,209.926 63.432,210.265 63.931 C 210.604 64.431,210.881 64.947,210.881 65.078 C 210.881 65.209,211.273 66.155,211.752 67.179 C 212.232 68.203,212.755 69.333,212.916 69.689 C 213.077 70.045,213.326 70.512,213.470 70.725 C 213.614 70.939,213.963 71.639,214.246 72.280 C 214.529 72.921,214.873 73.620,215.011 73.834 C 215.402 74.439,217.024 78.034,217.232 78.756 C 217.335 79.113,217.563 79.579,217.738 79.793 C 217.914 80.006,218.583 81.289,219.226 82.642 C 219.868 83.996,220.760 85.876,221.207 86.819 C 221.655 87.763,222.021 88.651,222.021 88.792 C 222.021 88.934,222.236 89.327,222.499 89.667 C 222.761 90.007,223.185 90.837,223.439 91.512 C 223.694 92.187,224.054 92.865,224.240 93.019 C 224.426 93.174,224.656 93.671,224.752 94.124 C 224.847 94.577,225.263 95.545,225.675 96.275 C 226.087 97.005,226.425 97.752,226.425 97.935 C 226.425 98.117,226.710 98.641,227.059 99.098 C 227.407 99.555,227.772 100.266,227.870 100.677 C 227.967 101.088,228.325 101.798,228.665 102.255 C 229.005 102.711,229.358 103.469,229.450 103.939 C 229.542 104.408,229.872 105.201,230.184 105.699 C 230.495 106.198,230.891 107.036,231.063 107.562 C 231.236 108.087,231.586 108.786,231.842 109.116 C 232.098 109.445,232.448 110.145,232.620 110.670 C 232.791 111.196,233.146 111.899,233.409 112.234 C 233.673 112.568,234.016 113.318,234.173 113.900 C 234.330 114.482,234.683 115.245,234.959 115.595 C 235.235 115.946,235.541 116.573,235.640 116.989 C 235.739 117.406,236.084 118.102,236.406 118.536 C 236.729 118.970,237.112 119.755,237.257 120.281 C 237.402 120.806,237.763 121.544,238.060 121.921 C 238.357 122.298,238.725 123.087,238.879 123.674 C 239.032 124.261,239.441 125.176,239.786 125.707 C 240.132 126.238,240.415 126.821,240.415 127.002 C 240.416 127.183,240.649 127.713,240.934 128.180 C 241.478 129.073,241.615 130.179,241.212 130.428 C 241.080 130.510,240.781 131.151,240.548 131.854 C 240.314 132.556,239.915 133.400,239.659 133.729 C 239.404 134.058,239.054 134.756,238.883 135.282 C 238.712 135.807,238.356 136.511,238.093 136.845 C 237.830 137.180,237.475 137.973,237.304 138.608 C 237.133 139.243,236.768 140.079,236.492 140.465 C 236.217 140.852,235.861 141.553,235.702 142.022 C 235.543 142.492,235.193 143.191,234.925 143.577 C 234.657 143.962,234.307 144.662,234.148 145.131 C 233.989 145.600,233.639 146.299,233.372 146.684 C 233.104 147.069,232.727 147.906,232.535 148.544 C 232.343 149.181,231.957 150.032,231.677 150.435 C 231.397 150.837,231.037 151.550,230.878 152.019 C 230.719 152.489,230.369 153.188,230.101 153.574 C 229.833 153.959,229.483 154.659,229.324 155.128 C 229.165 155.597,228.813 156.297,228.543 156.682 C 228.272 157.068,227.974 157.809,227.879 158.329 C 227.784 158.849,227.541 159.412,227.338 159.580 C 227.136 159.748,226.767 160.430,226.518 161.096 C 226.269 161.761,225.810 162.655,225.497 163.083 C 225.183 163.510,224.849 164.231,224.753 164.684 C 224.657 165.137,224.410 165.648,224.204 165.819 C 223.998 165.990,223.649 166.748,223.430 167.503 C 223.210 168.258,222.821 169.146,222.563 169.476 C 222.306 169.807,221.956 170.508,221.785 171.033 C 221.613 171.558,221.264 172.258,221.007 172.587 C 220.751 172.917,220.402 173.616,220.230 174.142 C 220.059 174.667,219.709 175.367,219.453 175.696 C 219.197 176.026,218.838 176.762,218.656 177.332 C 218.473 177.902,218.060 178.834,217.738 179.404 C 217.416 179.974,217.070 180.715,216.970 181.050 C 216.870 181.385,216.516 182.060,216.184 182.548 C 215.853 183.037,215.507 183.775,215.417 184.188 C 215.326 184.600,215.091 185.072,214.894 185.235 C 214.698 185.398,214.288 186.280,213.983 187.196 C 213.678 188.111,213.332 188.860,213.212 188.860 C 213.093 188.860,212.804 189.436,212.570 190.141 C 212.336 190.845,211.940 191.690,211.690 192.019 C 211.441 192.348,211.034 193.161,210.786 193.827 C 210.538 194.492,210.170 195.174,209.967 195.342 C 209.765 195.510,209.524 196.073,209.433 196.593 C 209.342 197.113,208.930 198.074,208.519 198.727 C 208.108 199.381,207.772 200.080,207.771 200.282 C 207.770 200.483,207.421 201.172,206.995 201.813 C 206.569 202.455,206.219 203.156,206.219 203.373 C 206.218 203.589,205.924 204.198,205.565 204.727 C 205.206 205.255,204.840 206.069,204.753 206.535 C 204.665 207.002,204.337 207.733,204.024 208.161 C 203.710 208.588,203.322 209.322,203.161 209.791 C 203.000 210.261,202.649 210.960,202.381 211.346 C 202.112 211.731,201.763 212.431,201.604 212.900 C 201.444 213.369,201.089 214.070,200.813 214.457 C 200.538 214.844,200.174 215.676,200.004 216.306 C 199.834 216.936,199.414 217.820,199.071 218.271 C 198.727 218.722,198.446 219.211,198.446 219.358 C 198.446 220.526,197.172 220.020,196.766 218.691 C 196.664 218.356,196.300 217.669,195.959 217.165 C 195.617 216.661,195.336 216.061,195.336 215.832 C 195.335 215.602,195.087 215.009,194.785 214.513 C 194.483 214.017,194.090 213.198,193.912 212.694 C 193.734 212.189,193.282 211.326,192.908 210.774 C 192.534 210.223,192.226 209.585,192.223 209.355 C 192.221 209.126,191.871 208.425,191.446 207.798 C 191.021 207.171,190.674 206.440,190.674 206.175 C 190.674 205.909,190.336 205.081,189.922 204.335 C 189.509 203.590,189.090 202.705,188.990 202.370 C 188.890 202.034,188.537 201.360,188.205 200.871 C 187.874 200.383,187.528 199.645,187.437 199.232 C 187.347 198.819,187.112 198.348,186.915 198.185 C 186.718 198.022,186.308 197.139,186.004 196.224 C 185.699 195.309,185.352 194.560,185.233 194.560 C 185.113 194.560,184.825 193.986,184.592 193.284 C 184.359 192.583,184.006 191.874,183.808 191.710 C 183.610 191.545,183.260 190.846,183.031 190.155 C 182.802 189.465,182.452 188.765,182.253 188.600 C 182.054 188.435,181.760 187.873,181.599 187.350 C 181.439 186.827,180.336 184.417,179.149 181.995 C 176.131 175.836,175.130 173.692,175.130 173.389 C 175.130 173.245,174.894 172.827,174.606 172.461 C 174.318 172.095,173.907 171.298,173.692 170.690 C 173.478 170.083,173.131 169.396,172.922 169.165 C 172.713 168.934,172.380 168.208,172.183 167.552 C 171.985 166.896,171.594 166.030,171.312 165.628 C 171.031 165.225,170.717 164.547,170.613 164.119 C 170.510 163.692,170.162 162.992,169.840 162.565 C 169.517 162.137,169.167 161.438,169.062 161.010 C 168.957 160.583,168.589 159.862,168.244 159.408 C 167.899 158.955,167.617 158.423,167.617 158.227 C 167.617 158.031,167.209 157.042,166.710 156.030 C 166.211 155.018,165.803 154.090,165.803 153.968 C 165.803 153.847,165.531 153.341,165.198 152.845 C 164.865 152.349,164.461 151.559,164.300 151.090 C 164.140 150.620,163.783 149.920,163.508 149.533 C 163.232 149.146,162.867 148.306,162.697 147.666 C 162.527 147.026,162.224 146.320,162.026 146.097 C 161.827 145.874,161.529 145.291,161.363 144.802 C 161.197 144.312,160.841 143.596,160.573 143.211 C 160.304 142.825,159.955 142.126,159.795 141.657 C 159.636 141.187,159.288 140.490,159.022 140.108 C 158.756 139.725,158.364 138.919,158.152 138.317 C 157.939 137.714,157.660 137.094,157.531 136.939 C 157.402 136.784,157.045 136.016,156.737 135.233 C 156.429 134.449,156.030 133.633,155.851 133.420 C 155.672 133.206,155.372 132.623,155.185 132.124 C 154.998 131.626,154.668 130.825,154.451 130.346 C 154.129 129.631,154.117 129.379,154.385 128.950 C 154.565 128.661,154.888 127.830,155.102 127.101 C 155.316 126.373,155.651 125.597,155.847 125.376 C 156.044 125.155,156.385 124.461,156.606 123.834 C 156.827 123.207,157.177 122.508,157.383 122.280 C 157.590 122.052,157.939 121.352,158.161 120.725 C 158.382 120.098,158.734 119.397,158.943 119.166 C 159.151 118.935,159.546 118.113,159.820 117.339 C 160.259 116.097,161.149 114.267,162.520 111.788 C 162.757 111.360,162.951 110.857,162.952 110.669 C 162.953 110.482,163.238 109.955,163.586 109.498 C 163.934 109.042,164.332 108.167,164.470 107.554 C 164.607 106.941,164.902 106.238,165.125 105.992 C 165.348 105.746,165.711 105.031,165.933 104.404 C 166.154 103.777,166.504 103.078,166.710 102.850 C 166.916 102.622,167.260 101.938,167.475 101.330 C 167.689 100.723,168.092 99.936,168.370 99.582 C 168.648 99.229,168.957 98.570,169.056 98.119 C 169.155 97.669,169.506 96.887,169.836 96.383 C 170.165 95.879,170.519 95.117,170.621 94.689 C 170.724 94.262,171.071 93.562,171.394 93.135 C 171.716 92.707,172.066 92.008,172.171 91.580 C 172.276 91.153,172.635 90.442,172.969 90.001 C 173.302 89.561,173.575 89.036,173.575 88.835 C 173.575 88.634,173.983 87.629,174.482 86.601 C 174.981 85.573,175.389 84.627,175.389 84.499 C 175.389 84.371,175.602 83.989,175.862 83.649 C 176.122 83.309,176.540 82.506,176.790 81.865 C 177.041 81.224,177.391 80.525,177.570 80.311 C 177.748 80.097,178.040 79.514,178.218 79.016 C 178.521 78.169,179.870 75.228,180.357 74.352 C 180.475 74.139,180.820 73.439,181.123 72.798 C 181.426 72.157,181.773 71.457,181.896 71.244 C 182.795 69.675,183.161 68.865,183.161 68.439 C 183.161 68.168,183.396 67.646,183.684 67.280 C 183.972 66.914,184.383 66.117,184.598 65.509 C 184.812 64.901,185.156 64.218,185.363 63.990 C 185.569 63.762,185.919 63.062,186.140 62.435 C 186.361 61.808,186.714 61.105,186.925 60.872 C 187.136 60.639,187.483 59.861,187.696 59.141 C 187.910 58.422,188.259 57.689,188.472 57.512 C 188.686 57.335,188.859 57.059,188.857 56.898 C 188.856 56.738,189.624 55.032,190.564 53.109 C 192.209 49.742,192.863 48.366,194.013 45.855 C 194.306 45.214,194.661 44.514,194.801 44.301 C 194.940 44.087,195.295 43.387,195.588 42.746 C 195.881 42.105,196.321 41.231,196.565 40.803 C 197.926 38.425,197.624 38.450,198.909 40.609 " stroke="none" fill="#fcfcfc" fill-rule="evenodd"></path></g></svg>