<svg id="svg" version="1.1" xmlns="http://www.w3.org/2000/svg" xmlns:xlink="http://www.w3.org/1999/xlink" width="400" height="258.91472868217056" viewBox="0, 0, 400,258.91472868217056"><g id="svgg"><path id="path0" d="M254.203 37.427 C 253.714 37.838,253.232 38.623,252.961 39.451 C 252.717 40.195,252.297 41.119,252.027 41.504 C 251.756 41.890,251.404 42.589,251.244 43.058 C 251.083 43.528,250.679 44.318,250.346 44.814 C 250.013 45.310,249.741 45.906,249.741 46.138 C 249.741 46.370,249.455 46.982,249.105 47.497 C 248.755 48.013,248.346 48.888,248.197 49.443 C 248.048 49.997,247.715 50.728,247.457 51.067 C 247.199 51.406,246.785 52.229,246.537 52.894 C 246.290 53.560,245.918 54.244,245.712 54.415 C 245.506 54.587,245.337 54.865,245.337 55.034 C 245.337 55.204,244.929 56.170,244.430 57.183 C 243.931 58.195,243.523 59.148,243.523 59.300 C 243.523 59.453,243.174 60.146,242.746 60.841 C 242.319 61.536,241.969 62.239,241.969 62.404 C 241.969 62.569,241.691 63.145,241.351 63.684 C 241.011 64.222,240.472 65.269,240.153 66.010 C 239.834 66.751,239.482 67.358,239.369 67.358 C 239.257 67.358,239.086 67.822,238.990 68.390 C 238.894 68.958,238.549 69.817,238.222 70.298 C 237.895 70.779,237.483 71.613,237.306 72.150 C 237.128 72.688,236.714 73.524,236.386 74.008 C 236.057 74.492,235.714 75.225,235.624 75.638 C 235.533 76.051,235.298 76.523,235.101 76.686 C 234.904 76.849,234.546 77.586,234.304 78.323 C 234.063 79.060,233.644 79.979,233.374 80.364 C 233.104 80.750,232.752 81.449,232.593 81.919 C 232.434 82.388,232.085 83.087,231.816 83.473 C 231.548 83.859,231.198 84.558,231.039 85.027 C 230.880 85.497,230.531 86.196,230.263 86.580 C 229.995 86.965,229.619 87.802,229.427 88.440 C 229.235 89.078,228.830 89.947,228.528 90.371 C 228.226 90.795,227.979 91.305,227.979 91.505 C 227.979 91.704,227.649 92.389,227.245 93.026 C 226.841 93.663,226.426 94.521,226.322 94.934 C 226.218 95.347,225.914 95.964,225.645 96.306 C 225.376 96.648,224.972 97.561,224.747 98.334 C 224.522 99.108,224.239 99.741,224.118 99.741 C 223.996 99.741,223.636 100.440,223.316 101.295 C 222.996 102.150,222.647 102.850,222.539 102.850 C 222.431 102.850,222.081 103.549,221.762 104.404 C 221.442 105.259,221.082 105.959,220.963 105.959 C 220.843 105.959,220.624 106.411,220.475 106.963 C 220.326 107.515,219.223 109.907,218.024 112.277 C 216.824 114.647,215.650 117.168,215.414 117.879 C 215.177 118.589,214.885 119.171,214.765 119.171 C 214.644 119.171,214.301 119.823,214.003 120.620 C 213.705 121.416,213.292 122.238,213.084 122.445 C 212.877 122.652,212.588 123.267,212.441 123.812 C 212.294 124.357,211.942 125.099,211.657 125.460 C 210.936 126.378,210.977 127.991,211.754 129.222 C 212.092 129.757,212.449 130.563,212.548 131.012 C 212.647 131.462,212.889 131.963,213.086 132.127 C 213.283 132.290,213.645 132.969,213.890 133.634 C 214.136 134.300,214.498 135.035,214.695 135.269 C 214.892 135.502,215.291 136.318,215.581 137.082 C 215.871 137.846,216.237 138.628,216.395 138.818 C 216.553 139.009,216.889 139.755,217.143 140.475 C 217.397 141.196,217.766 141.972,217.964 142.201 C 218.161 142.430,218.529 143.169,218.781 143.843 C 219.033 144.518,219.398 145.203,219.593 145.365 C 219.789 145.527,219.948 145.769,219.948 145.902 C 219.948 146.170,221.308 149.119,223.449 153.497 C 224.216 155.065,225.208 157.163,225.653 158.161 C 226.535 160.135,226.949 160.990,227.409 161.788 C 227.573 162.073,227.879 162.714,228.088 163.212 C 228.298 163.711,228.640 164.411,228.848 164.767 C 229.507 165.895,231.088 169.385,231.088 169.713 C 231.088 169.887,231.373 170.403,231.722 170.860 C 232.071 171.317,232.436 172.027,232.533 172.439 C 232.631 172.850,232.976 173.544,233.302 173.982 C 233.627 174.419,234.020 175.249,234.175 175.826 C 234.331 176.403,234.683 177.162,234.959 177.513 C 235.235 177.863,235.545 178.490,235.649 178.906 C 235.753 179.323,236.168 180.201,236.572 180.858 C 236.976 181.515,237.306 182.201,237.306 182.383 C 237.306 182.566,237.636 183.252,238.039 183.909 C 238.443 184.566,238.860 185.453,238.966 185.881 C 239.073 186.308,239.309 186.833,239.493 187.047 C 239.676 187.260,240.038 188.018,240.298 188.731 C 240.558 189.443,240.975 190.295,241.225 190.625 C 241.476 190.954,241.818 191.641,241.986 192.150 C 242.154 192.659,242.569 193.484,242.907 193.983 C 243.246 194.483,243.523 195.009,243.523 195.152 C 243.523 195.442,244.695 197.983,246.206 200.972 C 246.441 201.435,246.807 202.163,247.021 202.591 C 247.234 203.018,247.570 203.688,247.766 204.080 C 247.962 204.472,248.486 205.507,248.932 206.380 C 249.377 207.253,249.741 208.199,249.741 208.482 C 249.741 208.766,249.967 209.285,250.244 209.637 C 250.520 209.989,250.947 210.791,251.191 211.421 C 251.435 212.050,251.783 212.740,251.963 212.953 C 252.144 213.167,252.504 213.885,252.765 214.548 C 253.025 215.212,253.660 216.224,254.175 216.798 C 255.222 217.963,255.187 217.982,255.975 215.803 C 256.155 215.304,256.449 214.722,256.627 214.508 C 256.805 214.294,257.154 213.595,257.402 212.953 C 257.650 212.312,257.999 211.613,258.179 211.399 C 258.359 211.185,258.708 210.486,258.956 209.845 C 259.204 209.203,259.564 208.494,259.756 208.268 C 259.949 208.043,260.283 207.261,260.500 206.532 C 260.716 205.802,261.076 205.024,261.298 204.802 C 261.520 204.579,261.810 204.005,261.943 203.525 C 262.075 203.045,262.455 202.252,262.788 201.762 C 263.120 201.273,263.477 200.530,263.581 200.112 C 263.686 199.694,264.036 199.003,264.359 198.575 C 264.683 198.148,265.027 197.373,265.123 196.853 C 265.220 196.333,265.533 195.610,265.819 195.246 C 266.105 194.882,266.470 194.200,266.629 193.730 C 266.788 193.260,267.138 192.560,267.407 192.175 C 267.675 191.789,268.025 191.090,268.184 190.620 C 268.343 190.151,268.692 189.452,268.960 189.067 C 269.228 188.682,269.604 187.846,269.796 187.208 C 269.988 186.570,270.375 185.719,270.655 185.317 C 270.935 184.915,271.294 184.201,271.453 183.732 C 271.613 183.263,271.962 182.563,272.231 182.178 C 272.499 181.792,272.849 181.093,273.008 180.623 C 273.167 180.154,273.525 179.450,273.802 179.060 C 274.080 178.670,274.389 177.916,274.489 177.385 C 274.588 176.855,274.892 176.138,275.164 175.792 C 275.436 175.446,275.834 174.666,276.049 174.058 C 276.263 173.450,276.607 172.767,276.813 172.539 C 277.020 172.311,277.364 171.627,277.578 171.020 C 277.793 170.412,278.201 169.619,278.485 169.257 C 278.769 168.896,279.078 168.175,279.170 167.655 C 279.263 167.135,279.543 166.477,279.794 166.192 C 280.044 165.907,280.403 165.207,280.592 164.637 C 280.781 164.067,281.130 163.368,281.369 163.083 C 281.608 162.798,281.958 162.098,282.146 161.528 C 282.335 160.959,282.689 160.259,282.932 159.974 C 283.176 159.689,283.565 158.795,283.798 157.988 C 284.031 157.181,284.384 156.385,284.583 156.219 C 284.783 156.054,285.133 155.354,285.363 154.663 C 285.592 153.973,285.942 153.273,286.140 153.109 C 286.338 152.944,286.688 152.245,286.917 151.554 C 287.146 150.864,287.495 150.165,287.692 150.002 C 287.889 149.839,288.130 149.340,288.228 148.893 C 288.326 148.447,289.422 146.092,290.663 143.660 C 291.904 141.229,293.003 138.906,293.105 138.498 C 293.207 138.091,293.576 137.337,293.925 136.824 C 294.274 136.310,294.560 135.713,294.561 135.497 C 294.561 135.281,294.911 134.579,295.337 133.938 C 295.763 133.297,296.112 132.595,296.113 132.379 C 296.113 132.163,296.424 131.529,296.803 130.971 C 298.362 128.677,298.357 125.772,296.790 123.463 C 296.418 122.915,296.112 122.279,296.109 122.049 C 296.107 121.820,295.757 121.119,295.332 120.492 C 294.907 119.865,294.560 119.159,294.560 118.923 C 294.560 118.687,294.274 118.108,293.925 117.635 C 293.577 117.162,293.215 116.411,293.121 115.965 C 293.027 115.520,292.613 114.600,292.201 113.921 C 291.788 113.242,291.450 112.543,291.450 112.367 C 291.449 112.191,291.100 111.522,290.674 110.881 C 290.247 110.240,289.898 109.561,289.897 109.373 C 289.897 109.184,289.618 108.543,289.277 107.948 C 288.937 107.352,288.514 106.399,288.338 105.829 C 288.162 105.259,287.867 104.618,287.683 104.404 C 287.500 104.190,287.146 103.491,286.899 102.850 C 286.651 102.209,286.301 101.509,286.121 101.295 C 285.942 101.082,285.592 100.382,285.344 99.741 C 285.096 99.100,284.738 98.392,284.547 98.168 C 284.356 97.944,284.032 97.204,283.828 96.524 C 283.623 95.844,283.276 95.089,283.056 94.846 C 282.836 94.603,282.475 93.891,282.254 93.264 C 282.033 92.637,281.683 91.938,281.477 91.710 C 281.270 91.482,280.919 90.779,280.696 90.147 C 280.474 89.515,280.121 88.738,279.912 88.420 C 279.704 88.102,279.347 87.284,279.118 86.602 C 278.889 85.921,278.550 85.188,278.363 84.974 C 278.176 84.760,277.820 84.061,277.572 83.420 C 277.324 82.778,276.975 82.079,276.795 81.865 C 276.615 81.652,276.266 80.952,276.018 80.311 C 275.770 79.670,275.411 78.962,275.220 78.738 C 275.029 78.514,274.712 77.793,274.514 77.137 C 274.317 76.481,273.926 75.615,273.646 75.213 C 273.366 74.811,273.006 74.098,272.847 73.628 C 272.688 73.159,272.336 72.460,272.064 72.074 C 271.793 71.688,271.484 71.082,271.378 70.725 C 271.271 70.369,270.961 69.709,270.689 69.258 C 270.416 68.807,270.021 67.859,269.810 67.152 C 269.600 66.444,269.260 65.725,269.054 65.554 C 268.848 65.383,268.541 64.816,268.371 64.293 C 268.202 63.770,267.842 63.027,267.571 62.641 C 267.301 62.255,266.949 61.556,266.790 61.087 C 266.631 60.617,266.282 59.918,266.014 59.533 C 265.746 59.149,265.370 58.312,265.178 57.674 C 264.986 57.036,264.582 56.167,264.280 55.743 C 263.978 55.319,263.730 54.873,263.729 54.753 C 263.729 54.632,263.263 53.613,262.693 52.488 C 262.124 51.363,261.658 50.295,261.658 50.114 C 261.658 49.932,261.543 49.745,261.402 49.698 C 261.261 49.650,260.900 48.912,260.600 48.057 C 260.299 47.202,259.965 46.444,259.856 46.373 C 259.552 46.174,258.808 44.633,258.808 44.202 C 258.808 43.992,258.649 43.660,258.453 43.464 C 257.989 43.000,257.370 41.762,257.156 40.868 C 257.062 40.476,256.880 40.155,256.752 40.155 C 256.623 40.155,256.320 39.543,256.078 38.795 C 255.433 36.801,255.172 36.611,254.203 37.427 M142.228 37.637 C 141.849 37.830,141.448 38.371,141.261 38.940 C 141.085 39.474,140.648 40.343,140.289 40.871 C 139.931 41.398,139.637 42.007,139.636 42.223 C 139.636 42.440,139.286 43.141,138.860 43.782 C 138.434 44.424,138.085 45.098,138.084 45.280 C 138.083 45.463,137.675 46.453,137.176 47.481 C 136.677 48.509,136.269 49.482,136.269 49.644 C 136.269 49.805,136.101 50.077,135.894 50.248 C 135.688 50.419,135.313 51.104,135.061 51.769 C 134.809 52.435,134.345 53.362,134.030 53.830 C 133.715 54.298,133.375 55.055,133.274 55.514 C 133.173 55.972,132.815 56.753,132.478 57.249 C 132.141 57.745,131.865 58.328,131.864 58.545 C 131.864 58.761,131.514 59.462,131.088 60.104 C 130.662 60.745,130.312 61.444,130.311 61.658 C 130.310 61.872,129.960 62.571,129.534 63.212 C 129.107 63.854,128.758 64.534,128.758 64.724 C 128.757 64.914,128.348 65.898,127.850 66.911 C 127.351 67.923,126.943 68.890,126.943 69.059 C 126.943 69.228,126.774 69.507,126.568 69.678 C 126.362 69.849,125.992 70.534,125.747 71.199 C 125.502 71.865,125.147 72.592,124.958 72.816 C 124.770 73.040,124.380 73.908,124.091 74.746 C 123.803 75.584,123.462 76.335,123.333 76.414 C 123.204 76.494,122.847 77.199,122.539 77.982 C 122.232 78.764,121.832 79.579,121.652 79.793 C 121.471 80.006,121.121 80.706,120.873 81.347 C 120.626 81.988,120.270 82.688,120.083 82.902 C 119.896 83.115,119.563 83.815,119.344 84.456 C 119.124 85.097,117.949 87.604,116.732 90.026 C 115.515 92.448,114.516 94.618,114.513 94.848 C 114.510 95.079,114.295 95.545,114.035 95.885 C 113.774 96.225,113.356 97.027,113.106 97.668 C 112.856 98.310,112.500 99.009,112.317 99.223 C 112.133 99.437,111.845 100.041,111.676 100.567 C 111.507 101.092,111.156 101.793,110.895 102.125 C 110.634 102.457,110.301 103.160,110.155 103.688 C 110.010 104.216,109.655 104.979,109.367 105.384 C 109.078 105.789,108.761 106.462,108.662 106.881 C 108.563 107.300,108.211 108.005,107.881 108.449 C 107.551 108.893,107.202 109.592,107.104 110.003 C 107.007 110.415,106.651 111.122,106.313 111.576 C 105.976 112.030,105.699 112.561,105.699 112.757 C 105.699 112.953,105.291 113.942,104.793 114.955 C 104.294 115.967,103.886 116.905,103.886 117.040 C 103.886 117.175,103.620 117.680,103.295 118.163 C 102.969 118.646,102.497 119.586,102.245 120.252 C 101.993 120.917,101.625 121.596,101.428 121.759 C 101.231 121.923,100.991 122.427,100.896 122.881 C 100.800 123.334,100.385 124.302,99.973 125.032 C 99.029 126.702,99.027 127.720,99.965 129.383 C 100.374 130.107,100.797 131.106,100.906 131.604 C 101.015 132.101,101.365 132.859,101.684 133.288 C 102.003 133.716,102.343 134.404,102.441 134.815 C 102.539 135.227,102.888 135.926,103.218 136.370 C 103.548 136.813,103.898 137.513,103.995 137.924 C 104.093 138.335,104.443 139.035,104.774 139.478 C 105.105 139.922,105.452 140.710,105.545 141.230 C 105.637 141.750,105.879 142.313,106.081 142.481 C 106.284 142.649,106.652 143.332,106.900 143.997 C 107.148 144.663,107.555 145.477,107.806 145.806 C 108.056 146.136,108.401 146.835,108.572 147.361 C 108.743 147.886,109.099 148.594,109.363 148.933 C 109.627 149.272,109.968 150.030,110.122 150.617 C 110.276 151.204,110.684 152.119,111.030 152.650 C 111.375 153.181,111.658 153.726,111.658 153.861 C 111.658 153.996,112.347 155.485,113.190 157.170 C 116.912 164.614,119.689 170.432,119.689 170.788 C 119.689 171.000,119.902 171.452,120.162 171.791 C 120.423 172.131,120.840 172.934,121.091 173.575 C 121.341 174.216,121.695 174.916,121.877 175.130 C 122.060 175.343,122.416 176.072,122.668 176.749 C 122.921 177.426,123.219 177.979,123.330 177.979 C 123.442 177.979,123.782 178.728,124.087 179.644 C 124.391 180.559,124.801 181.441,124.998 181.605 C 125.194 181.768,125.433 182.272,125.528 182.725 C 125.622 183.178,126.038 184.084,126.451 184.738 C 126.864 185.391,127.202 186.093,127.202 186.297 C 127.202 186.501,127.483 187.081,127.827 187.587 C 128.171 188.093,128.579 188.979,128.735 189.556 C 128.890 190.134,129.243 190.893,129.518 191.243 C 129.794 191.594,130.101 192.221,130.199 192.637 C 130.298 193.053,130.649 193.757,130.979 194.200 C 131.309 194.644,131.658 195.343,131.756 195.755 C 131.853 196.166,132.203 196.866,132.533 197.309 C 132.863 197.753,133.211 198.452,133.306 198.864 C 133.401 199.275,133.816 200.222,134.227 200.968 C 134.638 201.713,134.974 202.440,134.974 202.583 C 134.974 202.725,135.324 203.410,135.751 204.105 C 136.179 204.800,136.528 205.499,136.528 205.659 C 136.528 205.820,136.866 206.506,137.278 207.185 C 137.691 207.864,138.113 208.821,138.217 209.312 C 138.320 209.802,138.555 210.354,138.739 210.538 C 138.923 210.721,139.283 211.427,139.539 212.107 C 139.796 212.786,140.146 213.486,140.317 213.661 C 140.487 213.837,140.837 214.536,141.093 215.215 C 141.913 217.390,143.492 217.876,144.054 216.127 C 144.371 215.142,145.960 211.592,146.403 210.881 C 146.536 210.667,146.880 209.968,147.168 209.326 C 147.456 208.685,147.804 207.986,147.941 207.772 C 148.078 207.558,148.378 206.975,148.607 206.477 C 148.837 205.978,149.295 204.987,149.627 204.275 C 149.958 203.562,150.370 202.590,150.544 202.115 C 150.717 201.640,150.990 201.115,151.151 200.949 C 151.313 200.783,151.655 200.092,151.911 199.412 C 152.168 198.733,152.518 198.033,152.688 197.858 C 152.859 197.682,153.217 196.956,153.483 196.244 C 153.749 195.531,154.182 194.670,154.444 194.330 C 154.707 193.991,154.922 193.566,154.922 193.386 C 154.922 193.206,155.959 190.978,157.227 188.434 C 158.494 185.890,159.666 183.380,159.831 182.858 C 159.995 182.335,160.293 181.772,160.491 181.607 C 160.690 181.442,161.040 180.742,161.269 180.052 C 161.499 179.361,161.849 178.661,162.048 178.497 C 162.246 178.332,162.540 177.769,162.700 177.246 C 163.006 176.251,164.295 173.390,164.938 172.280 C 165.144 171.924,165.485 171.224,165.695 170.725 C 165.904 170.227,166.254 169.527,166.472 169.171 C 166.690 168.815,167.036 168.115,167.243 167.617 C 167.449 167.118,167.859 166.265,168.153 165.721 C 168.447 165.178,168.852 164.267,169.053 163.697 C 169.255 163.127,169.637 162.347,169.903 161.965 C 170.169 161.582,170.517 160.885,170.676 160.416 C 170.835 159.947,171.195 159.240,171.476 158.846 C 171.757 158.452,172.069 157.786,172.171 157.368 C 172.272 156.949,172.582 156.282,172.859 155.886 C 173.135 155.490,173.481 154.733,173.627 154.202 C 173.774 153.672,174.115 152.925,174.387 152.543 C 174.659 152.161,175.057 151.350,175.271 150.742 C 175.486 150.135,175.830 149.451,176.036 149.223 C 176.242 148.995,176.591 148.300,176.810 147.678 C 177.030 147.056,177.314 146.420,177.443 146.265 C 177.572 146.110,177.929 145.342,178.237 144.559 C 178.545 143.776,178.945 142.960,179.125 142.746 C 179.306 142.532,179.656 141.833,179.904 141.192 C 180.152 140.551,180.503 139.851,180.686 139.637 C 180.868 139.424,181.232 138.666,181.495 137.953 C 181.758 137.241,182.170 136.308,182.411 135.881 C 182.651 135.453,182.934 134.812,183.038 134.456 C 183.143 134.100,183.451 133.493,183.722 133.107 C 183.994 132.722,184.350 132.022,184.513 131.553 C 184.676 131.084,185.138 130.181,185.540 129.548 C 186.519 128.001,186.372 125.186,185.276 124.508 C 185.152 124.432,184.843 123.812,184.588 123.130 C 184.334 122.449,183.967 121.707,183.772 121.481 C 183.577 121.256,183.227 120.498,182.994 119.797 C 182.761 119.097,182.407 118.333,182.206 118.101 C 182.005 117.868,181.728 117.270,181.590 116.771 C 181.452 116.273,181.050 115.437,180.696 114.916 C 180.342 114.394,180.052 113.820,180.052 113.640 C 180.052 113.461,179.702 112.762,179.275 112.088 C 178.847 111.414,178.497 110.714,178.497 110.533 C 178.497 110.352,178.090 109.394,177.591 108.405 C 177.093 107.416,176.685 106.476,176.685 106.317 C 176.684 106.158,176.448 105.729,176.160 105.363 C 175.872 104.997,175.461 104.200,175.247 103.592 C 175.032 102.984,174.677 102.288,174.457 102.045 C 174.237 101.802,173.894 101.062,173.695 100.400 C 173.496 99.739,173.114 98.882,172.846 98.498 C 172.578 98.113,172.229 97.414,172.070 96.945 C 171.911 96.475,171.561 95.776,171.293 95.390 C 171.024 95.005,170.674 94.305,170.515 93.836 C 170.356 93.366,170.001 92.666,169.725 92.279 C 169.450 91.892,169.085 91.052,168.915 90.412 C 168.744 89.772,168.444 89.068,168.247 88.847 C 168.050 88.626,167.708 87.933,167.487 87.306 C 167.266 86.679,166.916 85.979,166.710 85.751 C 166.504 85.523,166.159 84.840,165.945 84.232 C 165.731 83.624,165.323 82.831,165.038 82.470 C 164.754 82.108,164.442 81.387,164.346 80.868 C 164.249 80.348,163.906 79.573,163.582 79.145 C 163.258 78.718,162.908 78.026,162.804 77.608 C 162.700 77.190,162.338 76.441,162.000 75.943 C 161.662 75.445,161.313 74.738,161.223 74.371 C 161.134 74.005,160.845 73.426,160.582 73.086 C 160.318 72.746,159.928 71.881,159.716 71.165 C 159.503 70.448,159.156 69.672,158.946 69.439 C 158.735 69.206,158.382 68.503,158.161 67.876 C 157.939 67.249,157.590 66.549,157.383 66.321 C 157.177 66.093,156.827 65.394,156.606 64.767 C 156.385 64.140,156.044 63.446,155.849 63.225 C 155.654 63.004,155.311 62.299,155.087 61.658 C 154.863 61.017,153.685 58.518,152.469 56.104 C 151.254 53.691,150.259 51.527,150.259 51.297 C 150.259 51.066,149.968 50.483,149.611 50.000 C 149.255 49.517,148.955 48.941,148.945 48.719 C 148.934 48.497,148.702 47.966,148.429 47.539 C 147.962 46.806,147.744 46.374,147.060 44.819 C 146.903 44.462,146.568 43.893,146.315 43.553 C 146.062 43.213,145.854 42.689,145.854 42.387 C 145.853 42.086,145.596 41.431,145.282 40.933 C 144.968 40.434,144.473 39.445,144.181 38.734 C 143.608 37.337,143.231 37.125,142.228 37.637 " stroke="none" fill="#ec1c2c" fill-rule="evenodd"></path><path id="path1" d="M0.000 129.534 L 0.000 259.067 200.000 259.067 L 400.000 259.067 400.000 129.534 L 400.000 0.000 200.000 0.000 L 0.000 0.000 0.000 129.534 M256.078 38.795 C 256.320 39.543,256.623 40.155,256.752 40.155 C 256.880 40.155,257.062 40.476,257.156 40.868 C 257.370 41.762,257.989 43.000,258.453 43.464 C 258.649 43.660,258.808 43.992,258.808 44.202 C 258.808 44.633,259.552 46.174,259.856 46.373 C 259.965 46.444,260.299 47.202,260.600 48.057 C 260.900 48.912,261.261 49.650,261.402 49.698 C 261.543 49.745,261.658 49.932,261.658 50.114 C 261.658 50.295,262.124 51.363,262.693 52.488 C 263.263 53.613,263.729 54.632,263.729 54.753 C 263.730 54.873,263.978 55.319,264.280 55.743 C 264.582 56.167,264.986 57.036,265.178 57.674 C 265.370 58.312,265.746 59.149,266.014 59.533 C 266.282 59.918,266.631 60.617,266.790 61.087 C 266.949 61.556,267.301 62.255,267.571 62.641 C 267.842 63.027,268.202 63.770,268.371 64.293 C 268.541 64.816,268.848 65.383,269.054 65.554 C 269.260 65.725,269.600 66.444,269.810 67.152 C 270.021 67.859,270.416 68.807,270.689 69.258 C 270.961 69.709,271.271 70.369,271.378 70.725 C 271.484 71.082,271.793 71.688,272.064 72.074 C 272.336 72.460,272.688 73.159,272.847 73.628 C 273.006 74.098,273.366 74.811,273.646 75.213 C 273.926 75.615,274.317 76.481,274.514 77.137 C 274.712 77.793,275.029 78.514,275.220 78.738 C 275.411 78.962,275.770 79.670,276.018 80.311 C 276.266 80.952,276.615 81.652,276.795 81.865 C 276.975 82.079,277.324 82.778,277.572 83.420 C 277.820 84.061,278.176 84.760,278.363 84.974 C 278.550 85.188,278.889 85.921,279.118 86.602 C 279.347 87.284,279.704 88.102,279.912 88.420 C 280.121 88.738,280.474 89.515,280.696 90.147 C 280.919 90.779,281.270 91.482,281.477 91.710 C 281.683 91.938,282.033 92.637,282.254 93.264 C 282.475 93.891,282.836 94.603,283.056 94.846 C 283.276 95.089,283.623 95.844,283.828 96.524 C 284.032 97.204,284.356 97.944,284.547 98.168 C 284.738 98.392,285.096 99.100,285.344 99.741 C 285.592 100.382,285.942 101.082,286.121 101.295 C 286.301 101.509,286.651 102.209,286.899 102.850 C 287.146 103.491,287.500 104.190,287.683 104.404 C 287.867 104.618,288.162 105.259,288.338 105.829 C 288.514 106.399,288.937 107.352,289.277 107.948 C 289.618 108.543,289.897 109.184,289.897 109.373 C 289.898 109.561,290.247 110.240,290.674 110.881 C 291.100 111.522,291.449 112.191,291.450 112.367 C 291.450 112.543,291.788 113.242,292.201 113.921 C 292.613 114.600,293.027 115.520,293.121 115.965 C 293.215 116.411,293.577 117.162,293.925 117.635 C 294.274 118.108,294.560 118.687,294.560 118.923 C 294.560 119.159,294.907 119.865,295.332 120.492 C 295.757 121.119,296.107 121.820,296.109 122.049 C 296.112 122.279,296.418 122.915,296.790 123.463 C 298.357 125.772,298.362 128.677,296.803 130.971 C 296.424 131.529,296.113 132.163,296.113 132.379 C 296.112 132.595,295.763 133.297,295.337 133.938 C 294.911 134.579,294.561 135.281,294.561 135.497 C 294.560 135.713,294.274 136.310,293.925 136.824 C 293.576 137.337,293.207 138.091,293.105 138.498 C 293.003 138.906,291.904 141.229,290.663 143.660 C 289.422 146.092,288.326 148.447,288.228 148.893 C 288.130 149.340,287.889 149.839,287.692 150.002 C 287.495 150.165,287.146 150.864,286.917 151.554 C 286.688 152.245,286.338 152.944,286.140 153.109 C 285.942 153.273,285.592 153.973,285.363 154.663 C 285.133 155.354,284.783 156.054,284.583 156.219 C 284.384 156.385,284.031 157.181,283.798 157.988 C 283.565 158.795,283.176 159.689,282.932 159.974 C 282.689 160.259,282.335 160.959,282.146 161.528 C 281.958 162.098,281.608 162.798,281.369 163.083 C 281.130 163.368,280.781 164.067,280.592 164.637 C 280.403 165.207,280.044 165.907,279.794 166.192 C 279.543 166.477,279.263 167.135,279.170 167.655 C 279.078 168.175,278.769 168.896,278.485 169.257 C 278.201 169.619,277.793 170.412,277.578 171.020 C 277.364 171.627,277.020 172.311,276.813 172.539 C 276.607 172.767,276.263 173.450,276.049 174.058 C 275.834 174.666,275.436 175.446,275.164 175.792 C 274.892 176.138,274.588 176.855,274.489 177.385 C 274.389 177.916,274.080 178.670,273.802 179.060 C 273.525 179.450,273.167 180.154,273.008 180.623 C 272.849 181.093,272.499 181.792,272.231 182.178 C 271.962 182.563,271.613 183.263,271.453 183.732 C 271.294 184.201,270.935 184.915,270.655 185.317 C 270.375 185.719,269.988 186.570,269.796 187.208 C 269.604 187.846,269.228 188.682,268.960 189.067 C 268.692 189.452,268.343 190.151,268.184 190.620 C 268.025 191.090,267.675 191.789,267.407 192.175 C 267.138 192.560,266.788 193.260,266.629 193.730 C 266.470 194.200,266.105 194.882,265.819 195.246 C 265.533 195.610,265.220 196.333,265.123 196.853 C 265.027 197.373,264.683 198.148,264.359 198.575 C 264.036 199.003,263.686 199.694,263.581 200.112 C 263.477 200.530,263.120 201.273,262.788 201.762 C 262.455 202.252,262.075 203.045,261.943 203.525 C 261.810 204.005,261.520 204.579,261.298 204.802 C 261.076 205.024,260.716 205.802,260.500 206.532 C 260.283 207.261,259.949 208.043,259.756 208.268 C 259.564 208.494,259.204 209.203,258.956 209.845 C 258.708 210.486,258.359 211.185,258.179 211.399 C 257.999 211.613,257.650 212.312,257.402 212.953 C 257.154 213.595,256.805 214.294,256.627 214.508 C 256.449 214.722,256.155 215.304,255.975 215.803 C 255.187 217.982,255.222 217.963,254.175 216.798 C 253.660 216.224,253.025 215.212,252.765 214.548 C 252.504 213.885,252.144 213.167,251.963 212.953 C 251.783 212.740,251.435 212.050,251.191 211.421 C 250.947 210.791,250.520 209.989,250.244 209.637 C 249.967 209.285,249.741 208.766,249.741 208.482 C 249.741 208.199,249.377 207.253,248.932 206.380 C 248.486 205.507,247.962 204.472,247.766 204.080 C 247.570 203.688,247.234 203.018,247.021 202.591 C 246.807 202.163,246.441 201.435,246.206 200.972 C 244.695 197.983,243.523 195.442,243.523 195.152 C 243.523 195.009,243.246 194.483,242.907 193.983 C 242.569 193.484,242.154 192.659,241.986 192.150 C 241.818 191.641,241.476 190.954,241.225 190.625 C 240.975 190.295,240.558 189.443,240.298 188.731 C 240.038 188.018,239.676 187.260,239.493 187.047 C 239.309 186.833,239.073 186.308,238.966 185.881 C 238.860 185.453,238.443 184.566,238.039 183.909 C 237.636 183.252,237.306 182.566,237.306 182.383 C 237.306 182.201,236.976 181.515,236.572 180.858 C 236.168 180.201,235.753 179.323,235.649 178.906 C 235.545 178.490,235.235 177.863,234.959 177.513 C 234.683 177.162,234.331 176.403,234.175 175.826 C 234.020 175.249,233.627 174.419,233.302 173.982 C 232.976 173.544,232.631 172.850,232.533 172.439 C 232.436 172.027,232.071 171.317,231.722 170.860 C 231.373 170.403,231.088 169.887,231.088 169.713 C 231.088 169.385,229.507 165.895,228.848 164.767 C 228.640 164.411,228.298 163.711,228.088 163.212 C 227.879 162.714,227.573 162.073,227.409 161.788 C 226.949 160.990,226.535 160.135,225.653 158.161 C 225.208 157.163,224.216 155.065,223.449 153.497 C 221.308 149.119,219.948 146.170,219.948 145.902 C 219.948 145.769,219.789 145.527,219.593 145.365 C 219.398 145.203,219.033 144.518,218.781 143.843 C 218.529 143.169,218.161 142.430,217.964 142.201 C 217.766 141.972,217.397 141.196,217.143 140.475 C 216.889 139.755,216.553 139.009,216.395 138.818 C 216.237 138.628,215.871 137.846,215.581 137.082 C 215.291 136.318,214.892 135.502,214.695 135.269 C 214.498 135.035,214.136 134.300,213.890 133.634 C 213.645 132.969,213.283 132.290,213.086 132.127 C 212.889 131.963,212.647 131.462,212.548 131.012 C 212.449 130.563,212.092 129.757,211.754 129.222 C 210.977 127.991,210.936 126.378,211.657 125.460 C 211.942 125.099,212.294 124.357,212.441 123.812 C 212.588 123.267,212.877 122.652,213.084 122.445 C 213.292 122.238,213.705 121.416,214.003 120.620 C 214.301 119.823,214.644 119.171,214.765 119.171 C 214.885 119.171,215.177 118.589,215.414 117.879 C 215.650 117.168,216.824 114.647,218.024 112.277 C 219.223 109.907,220.326 107.515,220.475 106.963 C 220.624 106.411,220.843 105.959,220.963 105.959 C 221.082 105.959,221.442 105.259,221.762 104.404 C 222.081 103.549,222.431 102.850,222.539 102.850 C 222.647 102.850,222.996 102.150,223.316 101.295 C 223.636 100.440,223.996 99.741,224.118 99.741 C 224.239 99.741,224.522 99.108,224.747 98.334 C 224.972 97.561,225.376 96.648,225.645 96.306 C 225.914 95.964,226.218 95.347,226.322 94.934 C 226.426 94.521,226.841 93.663,227.245 93.026 C 227.649 92.389,227.979 91.704,227.979 91.505 C 227.979 91.305,228.226 90.795,228.528 90.371 C 228.830 89.947,229.235 89.078,229.427 88.440 C 229.619 87.802,229.995 86.965,230.263 86.580 C 230.531 86.196,230.880 85.497,231.039 85.027 C 231.198 84.558,231.548 83.859,231.816 83.473 C 232.085 83.087,232.434 82.388,232.593 81.919 C 232.752 81.449,233.104 80.750,233.374 80.364 C 233.644 79.979,234.063 79.060,234.304 78.323 C 234.546 77.586,234.904 76.849,235.101 76.686 C 235.298 76.523,235.533 76.051,235.624 75.638 C 235.714 75.225,236.057 74.492,236.386 74.008 C 236.714 73.524,237.128 72.688,237.306 72.150 C 237.483 71.613,237.895 70.779,238.222 70.298 C 238.549 69.817,238.894 68.958,238.990 68.390 C 239.086 67.822,239.257 67.358,239.369 67.358 C 239.482 67.358,239.834 66.751,240.153 66.010 C 240.472 65.269,241.011 64.222,241.351 63.684 C 241.691 63.145,241.969 62.569,241.969 62.404 C 241.969 62.239,242.319 61.536,242.746 60.841 C 243.174 60.146,243.523 59.453,243.523 59.300 C 243.523 59.148,243.931 58.195,244.430 57.183 C 244.929 56.170,245.337 55.204,245.337 55.034 C 245.337 54.865,245.506 54.587,245.712 54.415 C 245.918 54.244,246.290 53.560,246.537 52.894 C 246.785 52.229,247.199 51.406,247.457 51.067 C 247.715 50.728,248.048 49.997,248.197 49.443 C 248.346 48.888,248.755 48.013,249.105 47.497 C 249.455 46.982,249.741 46.370,249.741 46.138 C 249.741 45.906,250.013 45.310,250.346 44.814 C 250.679 44.318,251.083 43.528,251.244 43.058 C 251.404 42.589,251.756 41.890,252.027 41.504 C 252.297 41.119,252.717 40.195,252.961 39.451 C 253.912 36.548,255.260 36.265,256.078 38.795 M144.181 38.734 C 144.473 39.445,144.968 40.434,145.282 40.933 C 145.596 41.431,145.853 42.086,145.854 42.387 C 145.854 42.689,146.062 43.213,146.315 43.553 C 146.568 43.893,146.903 44.462,147.060 44.819 C 147.744 46.374,147.962 46.806,148.429 47.539 C 148.702 47.966,148.934 48.497,148.945 48.719 C 148.955 48.941,149.255 49.517,149.611 50.000 C 149.968 50.483,150.259 51.066,150.259 51.297 C 150.259 51.527,151.254 53.691,152.469 56.104 C 153.685 58.518,154.863 61.017,155.087 61.658 C 155.311 62.299,155.654 63.004,155.849 63.225 C 156.044 63.446,156.385 64.140,156.606 64.767 C 156.827 65.394,157.177 66.093,157.383 66.321 C 157.590 66.549,157.939 67.249,158.161 67.876 C 158.382 68.503,158.735 69.206,158.946 69.439 C 159.156 69.672,159.503 70.448,159.716 71.165 C 159.928 71.881,160.318 72.746,160.582 73.086 C 160.845 73.426,161.134 74.005,161.223 74.371 C 161.313 74.738,161.662 75.445,162.000 75.943 C 162.338 76.441,162.700 77.190,162.804 77.608 C 162.908 78.026,163.258 78.718,163.582 79.145 C 163.906 79.573,164.249 80.348,164.346 80.868 C 164.442 81.387,164.754 82.108,165.038 82.470 C 165.323 82.831,165.731 83.624,165.945 84.232 C 166.159 84.840,166.504 85.523,166.710 85.751 C 166.916 85.979,167.266 86.679,167.487 87.306 C 167.708 87.933,168.050 88.626,168.247 88.847 C 168.444 89.068,168.744 89.772,168.915 90.412 C 169.085 91.052,169.450 91.892,169.725 92.279 C 170.001 92.666,170.356 93.366,170.515 93.836 C 170.674 94.305,171.024 95.005,171.293 95.390 C 171.561 95.776,171.911 96.475,172.070 96.945 C 172.229 97.414,172.578 98.113,172.846 98.498 C 173.114 98.882,173.496 99.739,173.695 100.400 C 173.894 101.062,174.237 101.802,174.457 102.045 C 174.677 102.288,175.032 102.984,175.247 103.592 C 175.461 104.200,175.872 104.997,176.160 105.363 C 176.448 105.729,176.684 106.158,176.685 106.317 C 176.685 106.476,177.093 107.416,177.591 108.405 C 178.090 109.394,178.497 110.352,178.497 110.533 C 178.497 110.714,178.847 111.414,179.275 112.088 C 179.702 112.762,180.052 113.461,180.052 113.640 C 180.052 113.820,180.342 114.394,180.696 114.916 C 181.050 115.437,181.452 116.273,181.590 116.771 C 181.728 117.270,182.005 117.868,182.206 118.101 C 182.407 118.333,182.761 119.097,182.994 119.797 C 183.227 120.498,183.577 121.256,183.772 121.481 C 183.967 121.707,184.334 122.449,184.588 123.130 C 184.843 123.812,185.152 124.432,185.276 124.508 C 186.372 125.186,186.519 128.001,185.540 129.548 C 185.138 130.181,184.676 131.084,184.513 131.553 C 184.350 132.022,183.994 132.722,183.722 133.107 C 183.451 133.493,183.143 134.100,183.038 134.456 C 182.934 134.812,182.651 135.453,182.411 135.881 C 182.170 136.308,181.758 137.241,181.495 137.953 C 181.232 138.666,180.868 139.424,180.686 139.637 C 180.503 139.851,180.152 140.551,179.904 141.192 C 179.656 141.833,179.306 142.532,179.125 142.746 C 178.945 142.960,178.545 143.776,178.237 144.559 C 177.929 145.342,177.572 146.110,177.443 146.265 C 177.314 146.420,177.030 147.056,176.810 147.678 C 176.591 148.300,176.242 148.995,176.036 149.223 C 175.830 149.451,175.486 150.135,175.271 150.742 C 175.057 151.350,174.659 152.161,174.387 152.543 C 174.115 152.925,173.774 153.672,173.627 154.202 C 173.481 154.733,173.135 155.490,172.859 155.886 C 172.582 156.282,172.272 156.949,172.171 157.368 C 172.069 157.786,171.757 158.452,171.476 158.846 C 171.195 159.240,170.835 159.947,170.676 160.416 C 170.517 160.885,170.169 161.582,169.903 161.965 C 169.637 162.347,169.255 163.127,169.053 163.697 C 168.852 164.267,168.447 165.178,168.153 165.721 C 167.859 166.265,167.449 167.118,167.243 167.617 C 167.036 168.115,166.690 168.815,166.472 169.171 C 166.254 169.527,165.904 170.227,165.695 170.725 C 165.485 171.224,165.144 171.924,164.938 172.280 C 164.295 173.390,163.006 176.251,162.700 177.246 C 162.540 177.769,162.246 178.332,162.048 178.497 C 161.849 178.661,161.499 179.361,161.269 180.052 C 161.040 180.742,160.690 181.442,160.491 181.607 C 160.293 181.772,159.995 182.335,159.831 182.858 C 159.666 183.380,158.494 185.890,157.227 188.434 C 155.959 190.978,154.922 193.206,154.922 193.386 C 154.922 193.566,154.707 193.991,154.444 194.330 C 154.182 194.670,153.749 195.531,153.483 196.244 C 153.217 196.956,152.859 197.682,152.688 197.858 C 152.518 198.033,152.168 198.733,151.911 199.412 C 151.655 200.092,151.313 200.783,151.151 200.949 C 150.990 201.115,150.717 201.640,150.544 202.115 C 150.370 202.590,149.958 203.562,149.627 204.275 C 149.295 204.987,148.837 205.978,148.607 206.477 C 148.378 206.975,148.078 207.558,147.941 207.772 C 147.804 207.986,147.456 208.685,147.168 209.326 C 146.880 209.968,146.536 210.667,146.403 210.881 C 145.960 211.592,144.371 215.142,144.054 216.127 C 143.492 217.876,141.913 217.390,141.093 215.215 C 140.837 214.536,140.487 213.837,140.317 213.661 C 140.146 213.486,139.796 212.786,139.539 212.107 C 139.283 211.427,138.923 210.721,138.739 210.538 C 138.555 210.354,138.320 209.802,138.217 209.312 C 138.113 208.821,137.691 207.864,137.278 207.185 C 136.866 206.506,136.528 205.820,136.528 205.659 C 136.528 205.499,136.179 204.800,135.751 204.105 C 135.324 203.410,134.974 202.725,134.974 202.583 C 134.974 202.440,134.638 201.713,134.227 200.968 C 133.816 200.222,133.401 199.275,133.306 198.864 C 133.211 198.452,132.863 197.753,132.533 197.309 C 132.203 196.866,131.853 196.166,131.756 195.755 C 131.658 195.343,131.309 194.644,130.979 194.200 C 130.649 193.757,130.298 193.053,130.199 192.637 C 130.101 192.221,129.794 191.594,129.518 191.243 C 129.243 190.893,128.890 190.134,128.735 189.556 C 128.579 188.979,128.171 188.093,127.827 187.587 C 127.483 187.081,127.202 186.501,127.202 186.297 C 127.202 186.093,126.864 185.391,126.451 184.738 C 126.038 184.084,125.622 183.178,125.528 182.725 C 125.433 182.272,125.194 181.768,124.998 181.605 C 124.801 181.441,124.391 180.559,124.087 179.644 C 123.782 178.728,123.442 177.979,123.330 177.979 C 123.219 177.979,122.921 177.426,122.668 176.749 C 122.416 176.072,122.060 175.343,121.877 175.130 C 121.695 174.916,121.341 174.216,121.091 173.575 C 120.840 172.934,120.423 172.131,120.162 171.791 C 119.902 171.452,119.689 171.000,119.689 170.788 C 119.689 170.432,116.912 164.614,113.190 157.170 C 112.347 155.485,111.658 153.996,111.658 153.861 C 111.658 153.726,111.375 153.181,111.030 152.650 C 110.684 152.119,110.276 151.204,110.122 150.617 C 109.968 150.030,109.627 149.272,109.363 148.933 C 109.099 148.594,108.743 147.886,108.572 147.361 C 108.401 146.835,108.056 146.136,107.806 145.806 C 107.555 145.477,107.148 144.663,106.900 143.997 C 106.652 143.332,106.284 142.649,106.081 142.481 C 105.879 142.313,105.637 141.750,105.545 141.230 C 105.452 140.710,105.105 139.922,104.774 139.478 C 104.443 139.035,104.093 138.335,103.995 137.924 C 103.898 137.513,103.548 136.813,103.218 136.370 C 102.888 135.926,102.539 135.227,102.441 134.815 C 102.343 134.404,102.003 133.716,101.684 133.288 C 101.365 132.859,101.015 132.101,100.906 131.604 C 100.797 131.106,100.374 130.107,99.965 129.383 C 99.027 127.720,99.029 126.702,99.973 125.032 C 100.385 124.302,100.800 123.334,100.896 122.881 C 100.991 122.427,101.231 121.923,101.428 121.759 C 101.625 121.596,101.993 120.917,102.245 120.252 C 102.497 119.586,102.969 118.646,103.295 118.163 C 103.620 117.680,103.886 117.175,103.886 117.040 C 103.886 116.905,104.294 115.967,104.793 114.955 C 105.291 113.942,105.699 112.953,105.699 112.757 C 105.699 112.561,105.976 112.030,106.313 111.576 C 106.651 111.122,107.007 110.415,107.104 110.003 C 107.202 109.592,107.551 108.893,107.881 108.449 C 108.211 108.005,108.563 107.300,108.662 106.881 C 108.761 106.462,109.078 105.789,109.367 105.384 C 109.655 104.979,110.010 104.216,110.155 103.688 C 110.301 103.160,110.634 102.457,110.895 102.125 C 111.156 101.793,111.507 101.092,111.676 100.567 C 111.845 100.041,112.133 99.437,112.317 99.223 C 112.500 99.009,112.856 98.310,113.106 97.668 C 113.356 97.027,113.774 96.225,114.035 95.885 C 114.295 95.545,114.510 95.079,114.513 94.848 C 114.516 94.618,115.515 92.448,116.732 90.026 C 117.949 87.604,119.124 85.097,119.344 84.456 C 119.563 83.815,119.896 83.115,120.083 82.902 C 120.270 82.688,120.626 81.988,120.873 81.347 C 121.121 80.706,121.471 80.006,121.652 79.793 C 121.832 79.579,122.232 78.764,122.539 77.982 C 122.847 77.199,123.204 76.494,123.333 76.414 C 123.462 76.335,123.803 75.584,124.091 74.746 C 124.380 73.908,124.770 73.040,124.958 72.816 C 125.147 72.592,125.502 71.865,125.747 71.199 C 125.992 70.534,126.362 69.849,126.568 69.678 C 126.774 69.507,126.943 69.228,126.943 69.059 C 126.943 68.890,127.351 67.923,127.850 66.911 C 128.348 65.898,128.757 64.914,128.758 64.724 C 128.758 64.534,129.107 63.854,129.534 63.212 C 129.960 62.571,130.310 61.872,130.311 61.658 C 130.312 61.444,130.662 60.745,131.088 60.104 C 131.514 59.462,131.864 58.761,131.864 58.545 C 131.865 58.328,132.141 57.745,132.478 57.249 C 132.815 56.753,133.173 55.972,133.274 55.514 C 133.375 55.055,133.715 54.298,134.030 53.830 C 134.345 53.362,134.809 52.435,135.061 51.769 C 135.313 51.104,135.688 50.419,135.894 50.248 C 136.101 50.077,136.269 49.805,136.269 49.644 C 136.269 49.482,136.677 48.509,137.176 47.481 C 137.675 46.453,138.083 45.463,138.084 45.280 C 138.085 45.098,138.434 44.424,138.860 43.782 C 139.286 43.141,139.636 42.440,139.636 42.223 C 139.637 42.007,139.931 41.398,140.289 40.871 C 140.648 40.343,141.085 39.474,141.261 38.940 C 141.909 36.968,143.413 36.862,144.181 38.734 " stroke="none" fill="#fcfcfc" fill-rule="evenodd"></path></g></svg>