<svg id="svg" version="1.1" xmlns="http://www.w3.org/2000/svg" xmlns:xlink="http://www.w3.org/1999/xlink" width="400" height="258.91472868217056" viewBox="0, 0, 400,258.91472868217056"><g id="svgg"><path id="path0" d="M142.487 29.275 C 142.153 29.987,141.784 30.570,141.666 30.570 C 141.547 30.570,141.451 30.728,141.451 30.922 C 141.451 31.116,141.115 31.961,140.706 32.800 C 140.296 33.640,139.144 36.017,138.146 38.083 C 137.148 40.149,135.968 42.587,135.523 43.500 C 135.079 44.413,134.715 45.325,134.715 45.525 C 134.715 45.725,134.439 46.261,134.101 46.714 C 133.764 47.168,133.408 47.875,133.310 48.287 C 133.213 48.698,132.863 49.397,132.533 49.841 C 132.203 50.285,131.852 50.990,131.753 51.409 C 131.653 51.828,131.336 52.502,131.048 52.906 C 130.760 53.311,130.411 54.051,130.273 54.552 C 130.135 55.053,129.737 55.882,129.389 56.394 C 129.041 56.907,128.754 57.514,128.752 57.743 C 128.749 57.973,128.399 58.674,127.975 59.301 C 127.550 59.928,127.202 60.634,127.202 60.869 C 127.202 61.105,126.917 61.685,126.568 62.158 C 126.219 62.630,125.860 63.353,125.770 63.763 C 125.680 64.173,124.677 66.344,123.542 68.588 C 122.406 70.832,121.251 73.302,120.975 74.076 C 120.698 74.851,120.363 75.551,120.231 75.633 C 120.098 75.715,119.738 76.421,119.430 77.202 C 119.122 77.983,118.772 78.683,118.653 78.756 C 118.533 78.830,118.184 79.531,117.876 80.313 C 117.568 81.096,117.165 81.911,116.979 82.124 C 116.793 82.338,116.557 82.804,116.454 83.161 C 116.351 83.517,115.230 85.914,113.962 88.489 C 112.695 91.063,111.658 93.338,111.658 93.545 C 111.658 93.752,111.386 94.327,111.053 94.823 C 110.720 95.319,110.316 96.109,110.155 96.579 C 109.995 97.048,109.644 97.748,109.376 98.133 C 109.107 98.519,108.757 99.218,108.598 99.688 C 108.439 100.157,108.084 100.858,107.808 101.244 C 107.533 101.631,107.178 102.427,107.021 103.013 C 106.863 103.598,106.518 104.355,106.254 104.694 C 105.991 105.033,105.635 105.741,105.463 106.266 C 105.292 106.792,104.947 107.491,104.697 107.821 C 104.447 108.150,104.039 108.964,103.791 109.630 C 103.543 110.295,103.179 110.974,102.982 111.137 C 102.785 111.301,102.547 111.806,102.453 112.259 C 102.359 112.712,101.944 113.693,101.530 114.439 C 101.116 115.185,100.777 115.943,100.776 116.123 C 100.775 116.303,100.426 116.975,100.000 117.617 C 99.574 118.258,99.224 118.957,99.223 119.171 C 99.222 119.385,98.872 120.084,98.446 120.725 C 98.019 121.367,97.668 122.124,97.666 122.409 C 97.663 122.694,97.491 123.219,97.283 123.575 C 95.557 126.532,95.424 128.676,96.869 130.228 C 97.144 130.523,97.512 131.242,97.687 131.826 C 97.862 132.410,98.223 133.121,98.490 133.408 C 98.757 133.694,99.049 134.309,99.140 134.775 C 99.231 135.241,99.695 136.360,100.171 137.262 C 100.647 138.165,101.036 139.054,101.036 139.238 C 101.036 139.423,101.205 139.714,101.411 139.885 C 101.617 140.056,101.989 140.741,102.237 141.406 C 102.485 142.072,102.898 142.894,103.156 143.233 C 103.414 143.572,103.754 144.329,103.912 144.915 C 104.070 145.501,104.424 146.296,104.699 146.683 C 104.975 147.070,105.332 147.770,105.492 148.240 C 105.653 148.709,106.056 149.499,106.389 149.995 C 106.722 150.492,106.995 151.004,106.995 151.135 C 106.995 151.266,107.332 152.084,107.745 152.953 C 108.157 153.822,108.677 154.942,108.900 155.440 C 109.123 155.939,109.470 156.639,109.672 156.995 C 109.875 157.351,110.224 158.051,110.450 158.549 C 110.675 159.048,111.023 159.747,111.224 160.104 C 111.908 161.319,113.168 164.117,113.470 165.091 C 113.635 165.625,113.864 166.062,113.978 166.062 C 114.092 166.062,114.447 166.762,114.767 167.617 C 115.087 168.472,115.443 169.171,115.558 169.171 C 115.674 169.171,115.847 169.433,115.943 169.754 C 116.039 170.074,116.446 171.036,116.848 171.891 C 117.250 172.746,117.817 173.970,118.109 174.611 C 118.401 175.253,118.754 175.952,118.894 176.166 C 119.034 176.380,119.383 177.079,119.671 177.720 C 119.959 178.361,120.304 179.061,120.437 179.275 C 120.857 179.946,122.481 183.519,122.674 184.197 C 122.776 184.553,123.011 185.019,123.195 185.233 C 123.380 185.447,123.736 186.146,123.985 186.788 C 124.234 187.429,124.652 188.263,124.913 188.641 C 125.175 189.019,125.389 189.427,125.389 189.548 C 125.390 189.668,125.798 190.576,126.296 191.565 C 126.794 192.555,127.202 193.535,127.202 193.743 C 127.202 193.952,127.487 194.496,127.836 194.953 C 128.185 195.410,128.550 196.121,128.647 196.532 C 128.745 196.943,129.094 197.643,129.424 198.086 C 129.754 198.530,130.106 199.229,130.205 199.641 C 130.305 200.052,130.617 200.718,130.898 201.120 C 131.179 201.522,131.566 202.373,131.758 203.011 C 131.950 203.649,132.326 204.485,132.594 204.870 C 132.862 205.255,133.212 205.954,133.371 206.423 C 133.530 206.893,133.876 207.592,134.141 207.978 C 134.406 208.363,134.824 209.223,135.071 209.889 C 135.318 210.555,135.688 211.239,135.894 211.410 C 136.101 211.581,136.269 211.919,136.269 212.160 C 136.269 212.401,136.736 213.516,137.306 214.637 C 137.876 215.758,138.342 216.815,138.342 216.985 C 138.342 217.155,138.511 217.434,138.717 217.605 C 138.923 217.776,139.293 218.461,139.538 219.127 C 139.783 219.792,140.127 220.512,140.302 220.725 C 140.477 220.939,140.814 221.694,141.052 222.403 C 141.290 223.112,141.602 223.834,141.747 224.008 C 141.891 224.182,142.263 224.821,142.572 225.427 C 143.288 226.828,143.644 226.926,144.189 225.871 C 144.430 225.406,144.778 224.874,144.963 224.689 C 145.148 224.504,145.534 223.726,145.821 222.959 C 146.107 222.193,146.582 221.173,146.875 220.692 C 147.168 220.212,147.410 219.644,147.413 219.430 C 147.416 219.216,147.766 218.528,148.191 217.901 C 148.616 217.274,148.964 216.568,148.964 216.333 C 148.964 216.097,149.241 215.528,149.580 215.069 C 149.919 214.609,150.344 213.683,150.525 213.011 C 150.706 212.338,151.046 211.554,151.281 211.269 C 151.516 210.984,151.862 210.285,152.051 209.715 C 152.239 209.145,152.592 208.446,152.835 208.161 C 153.078 207.876,153.432 207.149,153.622 206.545 C 153.811 205.942,154.182 205.253,154.444 205.015 C 154.707 204.778,154.922 204.419,154.922 204.219 C 154.922 204.019,155.389 202.878,155.959 201.684 C 156.528 200.490,156.995 199.403,156.995 199.270 C 156.995 199.136,157.154 198.895,157.350 198.733 C 157.545 198.571,157.914 197.886,158.170 197.211 C 158.427 196.537,158.839 195.693,159.087 195.337 C 159.334 194.981,159.732 194.077,159.971 193.329 C 160.209 192.581,160.512 191.969,160.643 191.969 C 160.774 191.969,160.881 191.813,160.881 191.622 C 160.881 191.322,162.444 187.917,163.279 186.399 C 164.120 184.868,166.062 180.674,166.062 180.387 C 166.062 180.269,166.337 179.766,166.673 179.270 C 167.009 178.774,167.374 178.076,167.484 177.720 C 167.595 177.364,167.906 176.758,168.177 176.373 C 168.448 175.988,168.827 175.151,169.019 174.513 C 169.211 173.876,169.597 173.025,169.878 172.622 C 170.158 172.220,170.517 171.507,170.676 171.038 C 170.835 170.568,171.185 169.869,171.453 169.483 C 171.722 169.098,172.072 168.398,172.231 167.929 C 172.390 167.460,172.747 166.756,173.025 166.366 C 173.303 165.975,173.612 165.222,173.712 164.691 C 173.811 164.160,174.092 163.465,174.337 163.145 C 174.581 162.826,174.986 162.040,175.236 161.399 C 175.486 160.758,175.838 160.058,176.018 159.845 C 176.197 159.631,176.547 158.931,176.795 158.290 C 177.043 157.649,177.400 156.949,177.589 156.736 C 177.778 156.522,178.126 155.677,178.363 154.858 C 178.600 154.038,178.880 153.368,178.986 153.368 C 179.225 153.368,180.052 151.668,180.052 151.176 C 180.052 150.977,180.212 150.654,180.407 150.459 C 180.879 149.987,181.606 148.562,181.606 148.109 C 181.606 147.910,181.842 147.475,182.131 147.143 C 182.419 146.810,182.833 145.928,183.050 145.182 C 183.266 144.436,183.607 143.690,183.806 143.525 C 184.005 143.360,184.356 142.659,184.585 141.969 C 184.815 141.278,185.165 140.579,185.363 140.415 C 185.561 140.250,185.911 139.551,186.140 138.860 C 186.369 138.170,186.718 137.471,186.915 137.308 C 187.111 137.144,187.351 136.651,187.448 136.212 C 187.544 135.773,188.425 133.828,189.406 131.891 C 191.620 127.514,191.676 126.234,189.777 123.437 C 189.415 122.903,189.119 122.293,189.119 122.081 C 189.119 121.869,188.082 119.583,186.815 117.001 C 185.548 114.418,184.427 112.014,184.323 111.658 C 184.220 111.302,183.978 110.830,183.784 110.609 C 183.591 110.388,183.252 109.694,183.031 109.067 C 182.810 108.440,182.460 107.741,182.254 107.513 C 182.048 107.285,181.698 106.586,181.477 105.959 C 181.255 105.332,180.911 104.638,180.711 104.417 C 180.512 104.196,180.153 103.433,179.914 102.720 C 179.675 102.008,179.311 101.235,179.106 101.002 C 178.900 100.770,178.619 100.171,178.481 99.673 C 178.344 99.174,177.941 98.339,177.587 97.817 C 177.233 97.295,176.943 96.751,176.943 96.608 C 176.943 96.239,176.166 94.782,175.744 94.359 C 175.548 94.164,175.389 93.802,175.389 93.555 C 175.389 93.307,174.981 92.296,174.483 91.306 C 173.984 90.317,173.576 89.322,173.576 89.095 C 173.575 88.867,173.341 88.469,173.055 88.210 C 172.769 87.951,172.397 87.263,172.228 86.681 C 172.060 86.098,171.663 85.304,171.346 84.916 C 171.029 84.527,170.690 83.828,170.592 83.361 C 170.495 82.895,170.150 82.047,169.826 81.477 C 169.502 80.907,169.149 80.149,169.041 79.793 C 168.932 79.437,168.622 78.830,168.350 78.444 C 168.079 78.059,167.725 77.359,167.563 76.890 C 167.401 76.420,167.006 75.628,166.685 75.130 C 166.364 74.631,165.975 73.741,165.821 73.152 C 165.666 72.563,165.373 71.942,165.168 71.772 C 164.963 71.602,164.608 70.898,164.378 70.207 C 164.149 69.517,163.799 68.817,163.601 68.653 C 163.403 68.488,163.053 67.789,162.824 67.098 C 162.594 66.408,162.239 65.703,162.033 65.533 C 161.828 65.362,161.497 64.683,161.298 64.023 C 161.100 63.364,160.634 62.299,160.264 61.658 C 159.894 61.017,159.590 60.352,159.589 60.180 C 159.587 60.008,159.291 59.434,158.931 58.904 C 158.571 58.373,158.204 57.639,158.115 57.273 C 158.025 56.906,157.736 56.328,157.473 55.988 C 157.209 55.647,156.820 54.783,156.607 54.066 C 156.394 53.350,156.063 52.579,155.870 52.353 C 155.678 52.128,155.318 51.418,155.070 50.777 C 154.822 50.136,154.473 49.437,154.293 49.223 C 154.113 49.009,153.764 48.310,153.516 47.668 C 153.268 47.027,152.919 46.328,152.741 46.114 C 152.563 45.900,152.267 45.317,152.085 44.819 C 151.902 44.320,150.790 41.930,149.613 39.508 C 148.436 37.085,147.321 34.696,147.135 34.197 C 146.949 33.698,146.585 33.012,146.326 32.672 C 146.067 32.333,145.855 31.860,145.855 31.623 C 145.855 31.012,143.837 27.979,143.431 27.979 C 143.245 27.979,142.821 28.562,142.487 29.275 M252.987 28.907 C 252.769 29.429,252.591 29.943,252.591 30.049 C 252.591 30.154,252.376 30.519,252.113 30.859 C 251.850 31.199,251.419 32.060,251.154 32.772 C 250.889 33.484,250.463 34.417,250.208 34.845 C 249.952 35.272,249.742 35.797,249.741 36.010 C 249.740 36.224,249.390 36.924,248.964 37.565 C 248.537 38.206,248.188 38.905,248.187 39.119 C 248.185 39.333,247.836 40.032,247.409 40.674 C 246.983 41.315,246.634 42.027,246.633 42.257 C 246.633 42.486,246.346 43.096,245.996 43.611 C 245.646 44.127,245.240 44.992,245.095 45.533 C 244.949 46.074,244.536 46.915,244.177 47.402 C 243.817 47.889,243.523 48.481,243.523 48.719 C 243.523 48.956,243.226 49.589,242.862 50.125 C 242.498 50.662,242.017 51.640,241.793 52.299 C 241.569 52.958,241.168 53.775,240.900 54.115 C 240.633 54.455,240.417 54.863,240.419 55.022 C 240.424 55.266,239.061 58.129,236.398 63.472 C 236.079 64.113,235.738 64.974,235.641 65.385 C 235.544 65.796,235.195 66.496,234.865 66.940 C 234.535 67.383,234.185 68.083,234.088 68.494 C 233.990 68.905,233.625 69.616,233.276 70.073 C 232.928 70.530,232.642 71.046,232.642 71.219 C 232.642 71.525,231.030 75.120,230.540 75.907 C 230.407 76.120,230.063 76.820,229.775 77.461 C 229.487 78.102,229.137 78.802,228.998 79.016 C 228.745 79.402,228.358 80.213,226.895 83.420 C 226.071 85.226,225.649 86.095,225.194 86.917 C 225.036 87.202,224.506 88.310,224.016 89.378 C 223.526 90.447,222.760 92.093,222.314 93.037 C 221.868 93.981,221.503 94.870,221.503 95.013 C 221.503 95.156,221.343 95.406,221.148 95.568 C 220.953 95.730,220.587 96.414,220.335 97.089 C 220.083 97.764,219.728 98.491,219.545 98.705 C 219.362 98.918,218.960 99.733,218.653 100.516 C 218.345 101.298,217.988 102.003,217.859 102.083 C 217.730 102.163,217.389 102.913,217.100 103.751 C 216.812 104.589,216.418 105.458,216.225 105.681 C 216.032 105.905,215.668 106.640,215.416 107.315 C 215.164 107.990,214.799 108.674,214.604 108.836 C 214.408 108.998,214.249 109.242,214.249 109.378 C 214.249 109.515,213.841 110.474,213.342 111.511 C 212.843 112.548,212.435 113.559,212.434 113.758 C 212.434 113.957,212.084 114.644,211.658 115.285 C 211.232 115.926,210.882 116.626,210.881 116.839 C 210.880 117.053,210.530 117.753,210.104 118.394 C 209.677 119.035,209.328 119.737,209.328 119.953 C 209.327 120.169,209.051 120.752,208.714 121.248 C 208.376 121.744,208.018 122.525,207.918 122.984 C 207.817 123.442,207.433 124.258,207.065 124.797 C 206.019 126.327,205.973 127.914,206.930 129.468 C 207.356 130.161,207.795 131.013,207.906 131.361 C 208.016 131.710,208.366 132.406,208.683 132.908 C 209.000 133.411,209.349 134.226,209.457 134.719 C 209.565 135.213,209.915 135.967,210.233 136.396 C 210.552 136.825,210.893 137.513,210.990 137.924 C 211.088 138.335,211.437 139.035,211.767 139.478 C 212.097 139.922,212.450 140.635,212.551 141.062 C 212.652 141.490,212.903 142.026,213.109 142.255 C 213.315 142.484,213.691 143.260,213.945 143.981 C 214.199 144.701,214.536 145.447,214.695 145.638 C 214.853 145.829,215.235 146.627,215.543 147.410 C 215.851 148.193,216.251 149.009,216.431 149.223 C 216.611 149.437,216.962 150.136,217.210 150.777 C 217.457 151.418,217.810 152.118,217.994 152.332 C 218.178 152.545,218.474 153.173,218.651 153.726 C 218.829 154.279,219.893 156.549,221.015 158.772 C 222.137 160.994,223.187 163.223,223.348 163.725 C 223.509 164.227,223.798 164.818,223.990 165.039 C 224.182 165.260,224.514 165.938,224.729 166.546 C 224.943 167.153,225.336 167.964,225.603 168.346 C 225.869 168.729,226.217 169.425,226.376 169.895 C 226.535 170.364,226.890 171.065,227.166 171.452 C 227.441 171.839,227.796 172.634,227.953 173.220 C 228.111 173.806,228.466 174.571,228.741 174.922 C 229.017 175.272,229.323 175.900,229.422 176.316 C 229.521 176.732,229.872 177.435,230.202 177.879 C 230.531 178.323,230.881 179.022,230.979 179.434 C 231.076 179.845,231.429 180.548,231.762 180.996 C 232.096 181.445,232.480 182.308,232.617 182.916 C 232.753 183.523,233.088 184.322,233.360 184.691 C 233.633 185.061,233.998 185.793,234.171 186.318 C 234.344 186.843,234.695 187.543,234.951 187.872 C 235.207 188.202,235.557 188.901,235.728 189.427 C 235.900 189.952,236.251 190.652,236.509 190.981 C 236.768 191.311,237.065 191.988,237.170 192.487 C 237.276 192.986,237.699 193.909,238.111 194.539 C 238.523 195.169,238.862 195.869,238.865 196.094 C 238.867 196.319,239.217 197.016,239.642 197.643 C 240.067 198.270,240.415 198.976,240.415 199.211 C 240.415 199.447,240.700 200.027,241.049 200.500 C 241.397 200.972,241.751 201.670,241.835 202.051 C 241.988 202.751,245.346 209.617,245.812 210.185 C 245.951 210.354,246.270 211.133,246.521 211.917 C 246.772 212.701,247.185 213.612,247.438 213.941 C 247.691 214.271,248.038 214.970,248.209 215.495 C 248.381 216.021,248.731 216.720,248.987 217.050 C 249.243 217.379,249.590 218.079,249.759 218.604 C 249.928 219.130,250.226 219.744,250.423 219.970 C 250.619 220.196,250.957 220.977,251.173 221.707 C 251.390 222.436,251.749 223.215,251.971 223.437 C 252.193 223.659,252.481 224.224,252.610 224.691 C 253.263 227.056,254.956 226.513,255.971 223.614 C 256.238 222.852,256.576 222.084,256.722 221.908 C 256.868 221.731,257.167 221.079,257.387 220.457 C 257.606 219.835,257.954 219.140,258.161 218.912 C 258.367 218.684,258.717 217.985,258.938 217.358 C 259.159 216.730,259.509 216.031,259.715 215.803 C 259.921 215.575,260.265 214.893,260.479 214.287 C 260.910 213.065,262.320 209.933,262.712 209.326 C 262.851 209.113,263.137 208.530,263.349 208.031 C 263.561 207.532,263.907 206.833,264.117 206.477 C 264.327 206.120,264.676 205.421,264.892 204.922 C 265.109 204.424,265.527 203.571,265.821 203.027 C 266.115 202.484,266.521 201.572,266.722 201.002 C 266.923 200.432,267.305 199.653,267.572 199.270 C 267.838 198.888,268.186 198.191,268.345 197.722 C 268.504 197.252,268.864 196.546,269.144 196.151 C 269.425 195.757,269.739 195.092,269.843 194.673 C 269.946 194.255,270.285 193.504,270.596 193.005 C 270.906 192.506,271.247 191.749,271.352 191.321 C 271.457 190.894,271.807 190.194,272.129 189.767 C 272.452 189.339,272.802 188.640,272.907 188.212 C 273.011 187.785,273.380 187.064,273.725 186.611 C 274.070 186.157,274.352 185.642,274.352 185.465 C 274.352 185.289,274.716 184.378,275.161 183.440 C 277.476 178.563,278.104 177.298,278.390 176.943 C 278.562 176.729,278.879 176.030,279.095 175.389 C 279.310 174.747,279.787 173.698,280.155 173.057 C 280.522 172.416,280.824 171.696,280.826 171.456 C 280.828 171.217,280.989 170.862,281.184 170.666 C 281.666 170.185,282.383 168.766,282.383 168.296 C 282.383 168.085,282.543 167.753,282.738 167.558 C 283.215 167.081,283.823 165.848,284.051 164.896 C 284.154 164.469,284.385 163.944,284.565 163.731 C 284.746 163.517,285.096 162.817,285.344 162.176 C 285.592 161.535,285.941 160.835,286.120 160.622 C 286.299 160.408,286.711 159.563,287.035 158.744 C 287.360 157.924,287.707 157.254,287.807 157.254 C 287.907 157.254,288.197 156.584,288.452 155.764 C 288.707 154.945,289.068 154.100,289.255 153.886 C 289.441 153.672,289.797 152.973,290.044 152.332 C 290.292 151.690,290.642 150.991,290.822 150.777 C 291.001 150.563,291.353 149.864,291.603 149.223 C 291.854 148.582,292.272 147.779,292.532 147.439 C 292.792 147.099,293.005 146.642,293.005 146.424 C 293.005 146.205,293.355 145.407,293.782 144.649 C 294.210 143.892,294.560 143.113,294.560 142.919 C 294.560 142.724,294.907 142.052,295.332 141.425 C 295.757 140.798,296.107 140.099,296.109 139.871 C 296.112 139.643,296.462 138.943,296.886 138.316 C 297.311 137.689,297.661 136.952,297.664 136.679 C 297.666 136.406,298.018 135.562,298.446 134.805 C 298.873 134.047,299.223 133.280,299.224 133.100 C 299.225 132.920,299.574 132.247,300.000 131.606 C 300.426 130.965,300.775 130.252,300.776 130.022 C 300.777 129.792,301.010 129.307,301.295 128.945 C 301.909 128.165,301.995 126.380,301.442 125.921 C 301.237 125.751,300.991 125.254,300.895 124.817 C 300.799 124.379,300.383 123.490,299.972 122.841 C 299.560 122.192,299.223 121.479,299.224 121.258 C 299.226 120.927,296.060 114.428,294.887 112.354 C 294.711 112.042,294.563 111.554,294.559 111.269 C 294.554 110.984,294.203 110.238,293.778 109.611 C 293.353 108.984,293.003 108.285,293.000 108.057 C 292.998 107.829,292.648 107.129,292.223 106.502 C 291.798 105.875,291.451 105.169,291.451 104.934 C 291.451 104.698,291.165 104.118,290.817 103.645 C 290.468 103.173,290.112 102.466,290.026 102.074 C 289.874 101.382,288.122 97.719,287.637 97.080 C 287.504 96.905,287.190 96.206,286.938 95.526 C 286.687 94.847,286.336 94.145,286.157 93.966 C 285.978 93.787,285.624 93.003,285.370 92.222 C 285.116 91.442,284.757 90.628,284.574 90.415 C 284.390 90.201,284.038 89.501,283.790 88.860 C 283.542 88.219,283.192 87.519,283.013 87.306 C 282.833 87.092,282.483 86.392,282.235 85.751 C 281.988 85.110,281.628 84.401,281.435 84.175 C 281.243 83.950,280.913 83.182,280.701 82.469 C 280.489 81.757,280.082 80.903,279.795 80.573 C 279.509 80.243,279.275 79.810,279.275 79.611 C 279.275 79.158,278.548 77.733,278.075 77.261 C 277.880 77.066,277.720 76.734,277.720 76.523 C 277.720 76.052,277.003 74.634,276.521 74.152 C 276.326 73.957,276.166 73.587,276.166 73.329 C 276.166 72.741,275.478 71.070,275.153 70.870 C 275.020 70.787,274.720 70.147,274.487 69.447 C 274.255 68.747,273.903 68.040,273.705 67.876 C 273.507 67.711,273.157 67.012,272.927 66.321 C 272.698 65.631,272.343 64.927,272.138 64.757 C 271.933 64.587,271.639 63.966,271.485 63.377 C 271.331 62.788,270.942 61.898,270.621 61.399 C 270.299 60.900,269.904 60.108,269.743 59.639 C 269.581 59.169,269.229 58.470,268.961 58.084 C 268.693 57.699,268.343 56.999,268.184 56.530 C 268.025 56.061,267.672 55.361,267.399 54.976 C 267.127 54.590,266.817 53.867,266.710 53.368 C 266.603 52.869,266.293 52.146,266.020 51.760 C 265.748 51.375,265.397 50.675,265.240 50.206 C 265.083 49.736,264.697 49.003,264.384 48.575 C 264.070 48.148,263.731 47.468,263.632 47.065 C 263.532 46.661,263.167 45.901,262.819 45.376 C 262.472 44.851,262.111 44.015,262.017 43.519 C 261.924 43.023,261.644 42.383,261.395 42.098 C 261.146 41.813,260.788 41.114,260.600 40.544 C 260.411 39.974,260.061 39.275,259.823 38.990 C 259.584 38.705,259.234 38.005,259.045 37.435 C 258.857 36.865,258.503 36.166,258.259 35.881 C 258.016 35.596,257.626 34.702,257.394 33.895 C 257.161 33.087,256.808 32.292,256.608 32.126 C 256.409 31.961,256.062 31.271,255.837 30.594 C 255.474 29.502,254.931 28.880,253.700 28.147 C 253.493 28.024,253.246 28.287,252.987 28.907 M143.978 53.433 C 144.121 53.611,144.321 54.031,144.424 54.366 C 144.527 54.701,144.891 55.388,145.233 55.892 C 145.575 56.396,145.857 56.996,145.860 57.225 C 145.862 57.455,146.212 58.155,146.637 58.783 C 147.062 59.410,147.409 60.115,147.409 60.351 C 147.409 60.587,147.706 61.182,148.069 61.672 C 148.431 62.163,148.852 63.057,149.004 63.658 C 149.156 64.259,149.441 64.885,149.638 65.048 C 149.835 65.212,150.114 65.782,150.258 66.316 C 150.401 66.850,150.792 67.689,151.126 68.181 C 151.460 68.673,151.807 69.368,151.896 69.725 C 151.986 70.082,152.354 70.808,152.714 71.339 C 153.073 71.869,153.368 72.450,153.368 72.630 C 153.368 72.810,153.776 73.767,154.274 74.756 C 154.772 75.745,155.180 76.684,155.181 76.843 C 155.181 77.002,155.417 77.432,155.705 77.798 C 155.993 78.164,156.404 78.961,156.619 79.569 C 156.833 80.176,157.179 80.863,157.388 81.093 C 157.597 81.324,158.004 82.198,158.292 83.036 C 158.580 83.874,158.908 84.624,159.020 84.702 C 159.132 84.780,159.432 85.400,159.687 86.080 C 159.942 86.759,160.290 87.459,160.461 87.634 C 160.631 87.810,160.981 88.509,161.238 89.189 C 161.494 89.868,161.861 90.580,162.052 90.772 C 162.243 90.963,162.588 91.767,162.818 92.559 C 163.048 93.350,163.400 94.133,163.599 94.299 C 163.798 94.464,164.149 95.164,164.378 95.855 C 164.608 96.545,164.957 97.245,165.155 97.409 C 165.354 97.574,165.703 98.273,165.933 98.964 C 166.162 99.654,166.518 100.359,166.723 100.529 C 166.929 100.700,167.267 101.412,167.475 102.112 C 167.683 102.813,168.074 103.702,168.345 104.089 C 168.615 104.476,168.921 105.142,169.024 105.570 C 169.127 105.997,169.475 106.697,169.798 107.124 C 170.120 107.552,170.470 108.251,170.575 108.679 C 170.680 109.106,171.048 109.827,171.393 110.281 C 171.738 110.734,172.021 111.272,172.021 111.475 C 172.021 111.678,172.355 112.473,172.763 113.241 C 173.171 114.009,173.594 114.929,173.703 115.285 C 173.813 115.641,174.101 116.224,174.343 116.580 C 174.586 116.937,174.989 117.753,175.238 118.394 C 175.487 119.035,175.840 119.734,176.023 119.948 C 176.205 120.162,176.568 120.920,176.829 121.632 C 177.091 122.345,177.386 122.986,177.485 123.057 C 178.957 124.116,179.220 127.664,178.013 130.172 C 175.487 135.419,175.130 136.194,175.130 136.423 C 175.130 136.557,174.855 137.073,174.518 137.569 C 174.182 138.066,173.819 138.763,173.712 139.119 C 173.604 139.475,173.267 140.175,172.964 140.674 C 172.422 141.563,171.707 143.146,170.681 145.725 C 170.398 146.438,169.955 147.254,169.697 147.539 C 169.438 147.824,169.146 148.439,169.047 148.905 C 168.949 149.372,168.602 150.071,168.276 150.460 C 167.950 150.848,167.595 151.571,167.487 152.066 C 167.379 152.561,167.019 153.396,166.687 153.922 C 166.355 154.449,166.001 155.210,165.902 155.613 C 165.802 156.017,165.457 156.697,165.135 157.124 C 164.812 157.552,164.462 158.251,164.357 158.679 C 164.252 159.106,163.904 159.806,163.584 160.233 C 163.263 160.661,162.863 161.535,162.694 162.176 C 162.525 162.817,162.226 163.523,162.029 163.743 C 161.833 163.964,161.491 164.658,161.269 165.285 C 161.048 165.912,160.698 166.611,160.492 166.839 C 160.286 167.067,159.936 167.767,159.715 168.394 C 159.494 169.021,159.142 169.722,158.934 169.952 C 158.726 170.182,158.426 170.771,158.268 171.260 C 158.110 171.750,156.925 174.307,155.636 176.943 C 151.962 184.451,151.813 184.769,151.813 185.105 C 151.813 185.280,151.578 185.722,151.290 186.088 C 151.002 186.454,150.596 187.235,150.389 187.824 C 150.181 188.412,149.775 189.193,149.487 189.560 C 149.199 189.926,148.964 190.398,148.964 190.610 C 148.964 190.949,147.022 195.084,146.380 196.114 C 146.246 196.328,145.894 197.027,145.597 197.668 C 143.871 201.390,143.449 201.800,142.838 200.340 C 142.619 199.814,142.158 198.971,141.815 198.466 C 141.472 197.961,141.191 197.371,141.191 197.155 C 141.190 196.939,140.841 196.237,140.415 195.596 C 139.988 194.955,139.639 194.242,139.638 194.013 C 139.638 193.783,139.347 193.168,138.993 192.646 C 138.638 192.124,138.270 191.379,138.175 190.991 C 138.080 190.603,137.612 189.547,137.135 188.644 C 136.659 187.742,136.269 186.853,136.269 186.668 C 136.269 186.484,136.101 186.193,135.894 186.022 C 135.688 185.851,135.313 185.166,135.061 184.500 C 134.809 183.835,134.336 182.895,134.011 182.412 C 133.686 181.929,133.420 181.301,133.420 181.016 C 133.420 180.731,133.085 179.954,132.676 179.289 C 132.267 178.624,131.842 177.795,131.731 177.447 C 131.621 177.099,131.256 176.379,130.921 175.847 C 130.585 175.316,130.311 174.791,130.310 174.681 C 130.310 174.572,129.976 173.841,129.569 173.057 C 129.161 172.273,128.747 171.296,128.649 170.884 C 128.550 170.473,128.200 169.773,127.870 169.330 C 127.540 168.886,127.190 168.187,127.093 167.775 C 126.995 167.364,126.645 166.665,126.316 166.221 C 125.986 165.777,125.634 165.072,125.535 164.653 C 125.435 164.234,125.146 163.593,124.892 163.228 C 124.638 162.863,124.238 161.992,124.003 161.291 C 123.769 160.590,123.418 159.833,123.223 159.607 C 123.028 159.381,122.663 158.645,122.411 157.970 C 122.159 157.295,121.793 156.611,121.598 156.449 C 121.403 156.287,121.244 156.037,121.244 155.894 C 121.244 155.591,120.487 153.964,117.361 147.539 C 116.113 144.974,114.941 142.468,114.757 141.969 C 114.573 141.470,114.277 140.887,114.098 140.674 C 113.920 140.460,113.570 139.760,113.321 139.119 C 113.071 138.478,112.654 137.644,112.392 137.266 C 112.131 136.887,111.917 136.479,111.916 136.359 C 111.916 136.238,111.508 135.331,111.010 134.341 C 110.511 133.352,110.104 132.372,110.104 132.164 C 110.104 131.955,109.810 131.400,109.452 130.930 C 109.093 130.460,108.729 129.718,108.641 129.281 C 108.554 128.844,108.381 128.424,108.257 128.347 C 107.668 127.983,108.430 124.932,109.506 123.347 C 109.835 122.863,110.104 122.272,110.104 122.035 C 110.104 121.798,110.453 121.053,110.881 120.379 C 111.308 119.704,111.658 119.032,111.658 118.885 C 111.658 118.737,112.005 117.954,112.428 117.145 C 113.376 115.334,114.903 111.992,115.143 111.205 C 115.240 110.884,115.414 110.622,115.530 110.622 C 115.645 110.622,116.002 109.922,116.321 109.067 C 116.641 108.212,116.989 107.513,117.095 107.513 C 117.201 107.513,117.493 106.959,117.745 106.282 C 117.996 105.606,118.406 104.702,118.655 104.275 C 118.904 103.847,119.256 103.031,119.436 102.461 C 119.617 101.891,119.974 101.155,120.230 100.826 C 120.486 100.496,120.833 99.810,121.001 99.301 C 121.169 98.792,121.579 97.974,121.912 97.484 C 122.244 96.994,122.588 96.339,122.676 96.030 C 122.763 95.720,123.183 94.709,123.609 93.782 C 124.348 92.174,124.552 91.763,125.123 90.738 C 125.262 90.489,125.547 89.877,125.757 89.378 C 125.966 88.880,126.308 88.180,126.516 87.824 C 127.126 86.781,128.756 83.217,128.756 82.927 C 128.756 82.780,129.106 82.109,129.534 81.435 C 129.961 80.761,130.311 80.074,130.311 79.908 C 130.311 79.742,130.601 79.179,130.955 78.656 C 131.310 78.134,131.675 77.389,131.767 77.001 C 131.858 76.613,132.209 75.771,132.545 75.130 C 132.881 74.488,133.325 73.556,133.533 73.057 C 133.740 72.558,134.088 71.859,134.305 71.503 C 134.523 71.146,134.873 70.447,135.083 69.948 C 135.292 69.449,135.632 68.750,135.837 68.394 C 136.484 67.272,138.051 63.888,138.236 63.212 C 138.333 62.856,138.624 62.295,138.881 61.966 C 139.138 61.636,139.487 60.937,139.655 60.411 C 139.824 59.886,140.128 59.265,140.332 59.031 C 140.535 58.798,140.910 58.098,141.164 57.477 C 142.801 53.477,143.365 52.666,143.978 53.433 M254.968 54.534 C 255.218 54.819,255.608 55.597,255.834 56.262 C 256.061 56.928,256.408 57.608,256.606 57.772 C 256.804 57.936,257.154 58.636,257.383 59.326 C 257.613 60.017,257.963 60.717,258.162 60.882 C 258.360 61.046,258.660 61.609,258.827 62.132 C 258.995 62.655,259.394 63.608,259.715 64.249 C 260.811 66.441,264.666 74.514,265.406 76.166 C 265.630 76.665,265.984 77.364,266.194 77.720 C 266.404 78.076,266.754 78.776,266.971 79.275 C 267.189 79.773,267.530 80.473,267.729 80.829 C 268.351 81.943,269.646 84.815,269.831 85.492 C 269.929 85.848,270.268 86.490,270.585 86.917 C 270.902 87.345,271.247 88.044,271.352 88.472 C 271.457 88.899,271.825 89.620,272.170 90.073 C 272.516 90.527,272.798 91.052,272.799 91.239 C 272.799 91.427,273.207 92.390,273.705 93.379 C 274.204 94.368,274.611 95.352,274.611 95.564 C 274.611 95.777,274.827 96.192,275.090 96.486 C 275.353 96.780,275.771 97.545,276.019 98.187 C 276.266 98.828,276.615 99.527,276.795 99.741 C 276.975 99.955,277.324 100.654,277.572 101.295 C 277.820 101.937,278.168 102.636,278.345 102.850 C 278.522 103.063,278.817 103.763,279.000 104.404 C 279.183 105.045,279.557 105.885,279.831 106.271 C 280.106 106.656,280.460 107.356,280.619 107.825 C 280.778 108.295,281.128 108.994,281.396 109.380 C 281.665 109.765,282.014 110.465,282.173 110.934 C 282.333 111.404,282.662 112.079,282.905 112.435 C 283.148 112.791,283.544 113.686,283.786 114.423 C 284.028 115.160,284.387 115.898,284.585 116.062 C 284.784 116.227,285.133 116.926,285.363 117.617 C 285.592 118.307,285.942 119.007,286.141 119.172 C 286.339 119.337,286.637 119.899,286.803 120.422 C 286.969 120.945,287.366 121.839,287.686 122.409 C 288.007 122.979,288.351 123.788,288.452 124.207 C 288.553 124.626,288.861 125.285,289.136 125.672 C 289.733 126.509,289.806 128.294,289.262 128.745 C 289.056 128.916,288.687 129.601,288.441 130.267 C 288.196 130.932,287.840 131.661,287.649 131.887 C 287.459 132.112,287.113 132.870,286.880 133.571 C 286.647 134.271,286.301 135.025,286.111 135.246 C 285.921 135.467,285.589 136.145,285.375 136.753 C 285.160 137.361,284.767 138.171,284.501 138.553 C 284.235 138.936,283.887 139.633,283.728 140.102 C 283.569 140.572,283.217 141.271,282.947 141.657 C 282.677 142.042,282.312 142.799,282.137 143.338 C 281.962 143.877,280.951 146.034,279.890 148.130 C 278.828 150.227,277.777 152.468,277.554 153.109 C 277.331 153.750,276.988 154.455,276.793 154.676 C 276.598 154.897,276.258 155.591,276.036 156.218 C 275.815 156.845,275.465 157.544,275.259 157.772 C 275.053 158.000,274.709 158.684,274.494 159.292 C 274.280 159.900,273.879 160.714,273.603 161.101 C 273.327 161.488,273.019 162.247,272.917 162.786 C 272.816 163.326,272.471 164.080,272.151 164.462 C 271.831 164.843,271.486 165.537,271.385 166.004 C 271.283 166.470,270.933 167.170,270.607 167.558 C 270.282 167.946,269.932 168.646,269.830 169.112 C 269.728 169.579,269.380 170.278,269.057 170.667 C 268.733 171.055,268.385 171.830,268.282 172.388 C 268.179 172.946,267.822 173.762,267.487 174.201 C 267.153 174.641,266.794 175.350,266.689 175.777 C 266.584 176.205,266.241 176.904,265.927 177.332 C 265.613 177.759,265.228 178.493,265.071 178.962 C 264.914 179.432,264.563 180.131,264.290 180.517 C 264.018 180.902,263.708 181.626,263.601 182.124 C 263.494 182.623,263.186 183.344,262.916 183.726 C 262.645 184.109,262.249 184.919,262.034 185.527 C 261.820 186.135,261.476 186.819,261.269 187.047 C 261.063 187.275,260.713 187.974,260.492 188.601 C 260.271 189.228,259.937 189.922,259.751 190.143 C 259.564 190.363,259.263 190.952,259.081 191.451 C 258.638 192.666,256.964 196.146,256.589 196.632 C 256.424 196.846,256.084 197.568,255.835 198.237 C 255.361 199.506,253.728 201.254,253.375 200.870 C 253.263 200.748,253.025 200.181,252.845 199.611 C 252.666 199.041,252.298 198.260,252.027 197.874 C 251.757 197.489,251.404 196.789,251.244 196.320 C 251.083 195.850,250.679 195.060,250.346 194.564 C 250.013 194.068,249.741 193.500,249.741 193.302 C 249.741 193.104,249.404 192.285,248.993 191.484 C 248.581 190.682,248.053 189.618,247.818 189.119 C 247.584 188.620,247.233 187.921,247.039 187.565 C 246.844 187.209,246.494 186.509,246.262 186.010 C 246.029 185.512,245.682 184.812,245.490 184.456 C 244.647 182.886,243.523 180.357,243.522 180.026 C 243.522 179.826,243.176 179.142,242.753 178.506 C 242.331 177.869,241.917 177.040,241.835 176.662 C 241.752 176.285,241.473 175.750,241.215 175.474 C 240.958 175.197,240.598 174.511,240.416 173.949 C 240.234 173.387,239.809 172.404,239.472 171.764 C 239.136 171.124,238.860 170.470,238.860 170.310 C 238.860 170.151,238.583 169.612,238.244 169.113 C 237.905 168.614,237.483 167.765,237.306 167.228 C 237.128 166.691,236.706 165.842,236.367 165.343 C 236.028 164.844,235.751 164.306,235.751 164.148 C 235.750 163.990,235.415 163.219,235.006 162.435 C 234.596 161.652,234.173 160.719,234.066 160.363 C 233.958 160.006,233.648 159.400,233.376 159.014 C 233.105 158.629,232.752 157.929,232.593 157.460 C 232.434 156.990,232.079 156.282,231.803 155.886 C 231.527 155.490,231.188 154.757,231.050 154.256 C 230.912 153.756,230.514 152.927,230.166 152.414 C 229.818 151.902,229.534 151.288,229.534 151.051 C 229.534 150.814,229.184 150.068,228.756 149.394 C 228.329 148.720,227.979 148.021,227.979 147.840 C 227.979 147.659,227.630 146.959,227.202 146.285 C 226.775 145.611,226.425 144.944,226.425 144.802 C 226.425 144.661,226.091 143.878,225.683 143.063 C 225.275 142.247,224.800 141.143,224.627 140.609 C 224.454 140.074,224.219 139.637,224.105 139.637 C 223.991 139.637,223.636 138.938,223.316 138.083 C 222.996 137.228,222.640 136.528,222.525 136.528 C 222.409 136.528,222.236 136.266,222.139 135.946 C 221.898 135.142,219.820 130.657,219.016 129.203 C 218.201 127.729,218.268 126.916,219.403 124.539 C 219.988 123.313,220.466 122.143,220.466 121.938 C 220.466 121.734,220.635 121.426,220.841 121.255 C 221.048 121.084,221.417 120.399,221.662 119.733 C 221.908 119.068,222.270 118.332,222.467 118.099 C 222.664 117.866,223.062 117.050,223.351 116.286 C 223.641 115.522,224.030 114.722,224.216 114.508 C 224.402 114.294,224.638 113.711,224.740 113.212 C 224.843 112.714,225.200 111.943,225.533 111.499 C 225.866 111.056,226.218 110.356,226.316 109.945 C 226.413 109.533,226.763 108.834,227.093 108.390 C 227.423 107.947,227.772 107.247,227.870 106.836 C 227.967 106.425,228.308 105.737,228.627 105.308 C 228.945 104.879,229.294 104.130,229.401 103.643 C 229.508 103.156,229.931 102.212,230.342 101.545 C 230.752 100.877,231.088 100.200,231.088 100.040 C 231.088 99.880,231.438 99.180,231.865 98.486 C 232.293 97.791,232.642 97.079,232.642 96.903 C 232.642 96.727,232.879 96.250,233.169 95.843 C 233.459 95.436,233.853 94.581,234.045 93.943 C 234.237 93.306,234.623 92.455,234.903 92.052 C 235.184 91.650,235.543 90.937,235.702 90.468 C 235.861 89.998,236.213 89.299,236.483 88.913 C 236.753 88.528,237.122 87.759,237.301 87.206 C 237.481 86.652,237.905 85.791,238.244 85.291 C 238.583 84.792,238.860 84.131,238.860 83.822 C 238.860 83.514,239.149 82.870,239.501 82.392 C 239.854 81.914,240.277 81.118,240.440 80.622 C 240.603 80.127,241.014 79.314,241.353 78.815 C 241.692 78.315,241.969 77.778,241.969 77.619 C 241.970 77.461,242.303 76.690,242.711 75.907 C 243.118 75.123,243.532 74.147,243.630 73.738 C 243.728 73.329,243.967 72.836,244.161 72.642 C 244.354 72.448,244.723 71.733,244.980 71.054 C 245.237 70.375,245.586 69.675,245.757 69.500 C 245.928 69.324,246.276 68.625,246.531 67.945 C 246.786 67.266,247.071 66.652,247.166 66.580 C 247.471 66.349,248.119 64.918,248.302 64.072 C 248.399 63.619,248.640 63.114,248.837 62.951 C 249.034 62.787,249.396 62.109,249.642 61.443 C 249.887 60.778,250.233 60.058,250.411 59.845 C 250.588 59.631,250.939 58.931,251.189 58.290 C 251.439 57.649,251.857 56.846,252.117 56.507 C 252.378 56.167,252.591 55.763,252.591 55.608 C 252.591 55.454,252.782 54.826,253.017 54.212 C 253.481 52.996,253.643 53.022,254.968 54.534 " stroke="none" fill="#ec222a" fill-rule="evenodd"></path><path id="path1" d="M0.000 129.534 L 0.000 259.067 200.000 259.067 L 400.000 259.067 400.000 129.534 L 400.000 0.000 200.000 0.000 L 0.000 0.000 0.000 129.534 M144.811 29.585 C 145.385 30.468,145.855 31.385,145.855 31.623 C 145.855 31.860,146.067 32.333,146.326 32.672 C 146.585 33.012,146.949 33.698,147.135 34.197 C 147.321 34.696,148.436 37.085,149.613 39.508 C 150.790 41.930,151.902 44.320,152.085 44.819 C 152.267 45.317,152.563 45.900,152.741 46.114 C 152.919 46.328,153.268 47.027,153.516 47.668 C 153.764 48.310,154.113 49.009,154.293 49.223 C 154.473 49.437,154.822 50.136,155.070 50.777 C 155.318 51.418,155.678 52.128,155.870 52.353 C 156.063 52.579,156.394 53.350,156.607 54.066 C 156.820 54.783,157.209 55.647,157.473 55.988 C 157.736 56.328,158.025 56.906,158.115 57.273 C 158.204 57.639,158.571 58.373,158.931 58.904 C 159.291 59.434,159.587 60.008,159.589 60.180 C 159.590 60.352,159.894 61.017,160.264 61.658 C 160.634 62.299,161.100 63.364,161.298 64.023 C 161.497 64.683,161.828 65.362,162.033 65.533 C 162.239 65.703,162.594 66.408,162.824 67.098 C 163.053 67.789,163.403 68.488,163.601 68.653 C 163.799 68.817,164.149 69.517,164.378 70.207 C 164.608 70.898,164.963 71.602,165.168 71.772 C 165.373 71.942,165.666 72.563,165.821 73.152 C 165.975 73.741,166.364 74.631,166.685 75.130 C 167.006 75.628,167.401 76.420,167.563 76.890 C 167.725 77.359,168.079 78.059,168.350 78.444 C 168.622 78.830,168.932 79.437,169.041 79.793 C 169.149 80.149,169.502 80.907,169.826 81.477 C 170.150 82.047,170.495 82.895,170.592 83.361 C 170.690 83.828,171.029 84.527,171.346 84.916 C 171.663 85.304,172.060 86.098,172.228 86.681 C 172.397 87.263,172.769 87.951,173.055 88.210 C 173.341 88.469,173.575 88.867,173.576 89.095 C 173.576 89.322,173.984 90.317,174.483 91.306 C 174.981 92.296,175.389 93.307,175.389 93.555 C 175.389 93.802,175.548 94.164,175.744 94.359 C 176.166 94.782,176.943 96.239,176.943 96.608 C 176.943 96.751,177.233 97.295,177.587 97.817 C 177.941 98.339,178.344 99.174,178.481 99.673 C 178.619 100.171,178.900 100.770,179.106 101.002 C 179.311 101.235,179.675 102.008,179.914 102.720 C 180.153 103.433,180.512 104.196,180.711 104.417 C 180.911 104.638,181.255 105.332,181.477 105.959 C 181.698 106.586,182.048 107.285,182.254 107.513 C 182.460 107.741,182.810 108.440,183.031 109.067 C 183.252 109.694,183.591 110.388,183.784 110.609 C 183.978 110.830,184.220 111.302,184.323 111.658 C 184.427 112.014,185.548 114.418,186.815 117.001 C 188.082 119.583,189.119 121.869,189.119 122.081 C 189.119 122.293,189.415 122.903,189.777 123.437 C 191.676 126.234,191.620 127.514,189.406 131.891 C 188.425 133.828,187.544 135.773,187.448 136.212 C 187.351 136.651,187.111 137.144,186.915 137.308 C 186.718 137.471,186.369 138.170,186.140 138.860 C 185.911 139.551,185.561 140.250,185.363 140.415 C 185.165 140.579,184.815 141.278,184.585 141.969 C 184.356 142.659,184.005 143.360,183.806 143.525 C 183.607 143.690,183.266 144.436,183.050 145.182 C 182.833 145.928,182.419 146.810,182.131 147.143 C 181.842 147.475,181.606 147.910,181.606 148.109 C 181.606 148.562,180.879 149.987,180.407 150.459 C 180.212 150.654,180.052 150.977,180.052 151.176 C 180.052 151.668,179.225 153.368,178.986 153.368 C 178.880 153.368,178.600 154.038,178.363 154.858 C 178.126 155.677,177.778 156.522,177.589 156.736 C 177.400 156.949,177.043 157.649,176.795 158.290 C 176.547 158.931,176.197 159.631,176.018 159.845 C 175.838 160.058,175.486 160.758,175.236 161.399 C 174.986 162.040,174.581 162.826,174.337 163.145 C 174.092 163.465,173.811 164.160,173.712 164.691 C 173.612 165.222,173.303 165.975,173.025 166.366 C 172.747 166.756,172.390 167.460,172.231 167.929 C 172.072 168.398,171.722 169.098,171.453 169.483 C 171.185 169.869,170.835 170.568,170.676 171.038 C 170.517 171.507,170.158 172.220,169.878 172.622 C 169.597 173.025,169.211 173.876,169.019 174.513 C 168.827 175.151,168.448 175.988,168.177 176.373 C 167.906 176.758,167.595 177.364,167.484 177.720 C 167.374 178.076,167.009 178.774,166.673 179.270 C 166.337 179.766,166.062 180.269,166.062 180.387 C 166.062 180.674,164.120 184.868,163.279 186.399 C 162.444 187.917,160.881 191.322,160.881 191.622 C 160.881 191.813,160.774 191.969,160.643 191.969 C 160.512 191.969,160.209 192.581,159.971 193.329 C 159.732 194.077,159.334 194.981,159.087 195.337 C 158.839 195.693,158.427 196.537,158.170 197.211 C 157.914 197.886,157.545 198.571,157.350 198.733 C 157.154 198.895,156.995 199.136,156.995 199.270 C 156.995 199.403,156.528 200.490,155.959 201.684 C 155.389 202.878,154.922 204.019,154.922 204.219 C 154.922 204.419,154.707 204.778,154.444 205.015 C 154.182 205.253,153.811 205.942,153.622 206.545 C 153.432 207.149,153.078 207.876,152.835 208.161 C 152.592 208.446,152.239 209.145,152.051 209.715 C 151.862 210.285,151.516 210.984,151.281 211.269 C 151.046 211.554,150.706 212.338,150.525 213.011 C 150.344 213.683,149.919 214.609,149.580 215.069 C 149.241 215.528,148.964 216.097,148.964 216.333 C 148.964 216.568,148.616 217.274,148.191 217.901 C 147.766 218.528,147.416 219.216,147.413 219.430 C 147.410 219.644,147.168 220.212,146.875 220.692 C 146.582 221.173,146.107 222.193,145.821 222.959 C 145.534 223.726,145.148 224.504,144.963 224.689 C 144.778 224.874,144.430 225.406,144.189 225.871 C 143.644 226.926,143.288 226.828,142.572 225.427 C 142.263 224.821,141.891 224.182,141.747 224.008 C 141.602 223.834,141.290 223.112,141.052 222.403 C 140.814 221.694,140.477 220.939,140.302 220.725 C 140.127 220.512,139.783 219.792,139.538 219.127 C 139.293 218.461,138.923 217.776,138.717 217.605 C 138.511 217.434,138.342 217.155,138.342 216.985 C 138.342 216.815,137.876 215.758,137.306 214.637 C 136.736 213.516,136.269 212.401,136.269 212.160 C 136.269 211.919,136.101 211.581,135.894 211.410 C 135.688 211.239,135.318 210.555,135.071 209.889 C 134.824 209.223,134.406 208.363,134.141 207.978 C 133.876 207.592,133.530 206.893,133.371 206.423 C 133.212 205.954,132.862 205.255,132.594 204.870 C 132.326 204.485,131.950 203.649,131.758 203.011 C 131.566 202.373,131.179 201.522,130.898 201.120 C 130.617 200.718,130.305 200.052,130.205 199.641 C 130.106 199.229,129.754 198.530,129.424 198.086 C 129.094 197.643,128.745 196.943,128.647 196.532 C 128.550 196.121,128.185 195.410,127.836 194.953 C 127.487 194.496,127.202 193.952,127.202 193.743 C 127.202 193.535,126.794 192.555,126.296 191.565 C 125.798 190.576,125.390 189.668,125.389 189.548 C 125.389 189.427,125.175 189.019,124.913 188.641 C 124.652 188.263,124.234 187.429,123.985 186.788 C 123.736 186.146,123.380 185.447,123.195 185.233 C 123.011 185.019,122.776 184.553,122.674 184.197 C 122.481 183.519,120.857 179.946,120.437 179.275 C 120.304 179.061,119.959 178.361,119.671 177.720 C 119.383 177.079,119.034 176.380,118.894 176.166 C 118.754 175.952,118.401 175.253,118.109 174.611 C 117.817 173.970,117.250 172.746,116.848 171.891 C 116.446 171.036,116.039 170.074,115.943 169.754 C 115.847 169.433,115.674 169.171,115.558 169.171 C 115.443 169.171,115.087 168.472,114.767 167.617 C 114.447 166.762,114.092 166.062,113.978 166.062 C 113.864 166.062,113.635 165.625,113.470 165.091 C 113.168 164.117,111.908 161.319,111.224 160.104 C 111.023 159.747,110.675 159.048,110.450 158.549 C 110.224 158.051,109.875 157.351,109.672 156.995 C 109.470 156.639,109.123 155.939,108.900 155.440 C 108.677 154.942,108.157 153.822,107.745 152.953 C 107.332 152.084,106.995 151.266,106.995 151.135 C 106.995 151.004,106.722 150.492,106.389 149.995 C 106.056 149.499,105.653 148.709,105.492 148.240 C 105.332 147.770,104.975 147.070,104.699 146.683 C 104.424 146.296,104.070 145.501,103.912 144.915 C 103.754 144.329,103.414 143.572,103.156 143.233 C 102.898 142.894,102.485 142.072,102.237 141.406 C 101.989 140.741,101.617 140.056,101.411 139.885 C 101.205 139.714,101.036 139.423,101.036 139.238 C 101.036 139.054,100.647 138.165,100.171 137.262 C 99.695 136.360,99.231 135.241,99.140 134.775 C 99.049 134.309,98.757 133.694,98.490 133.408 C 98.223 133.121,97.862 132.410,97.687 131.826 C 97.512 131.242,97.144 130.523,96.869 130.228 C 95.424 128.676,95.557 126.532,97.283 123.575 C 97.491 123.219,97.663 122.694,97.666 122.409 C 97.668 122.124,98.019 121.367,98.446 120.725 C 98.872 120.084,99.222 119.385,99.223 119.171 C 99.224 118.957,99.574 118.258,100.000 117.617 C 100.426 116.975,100.775 116.303,100.776 116.123 C 100.777 115.943,101.116 115.185,101.530 114.439 C 101.944 113.693,102.359 112.712,102.453 112.259 C 102.547 111.806,102.785 111.301,102.982 111.137 C 103.179 110.974,103.543 110.295,103.791 109.630 C 104.039 108.964,104.447 108.150,104.697 107.821 C 104.947 107.491,105.292 106.792,105.463 106.266 C 105.635 105.741,105.991 105.033,106.254 104.694 C 106.518 104.355,106.863 103.598,107.021 103.013 C 107.178 102.427,107.533 101.631,107.808 101.244 C 108.084 100.858,108.439 100.157,108.598 99.688 C 108.757 99.218,109.107 98.519,109.376 98.133 C 109.644 97.748,109.995 97.048,110.155 96.579 C 110.316 96.109,110.720 95.319,111.053 94.823 C 111.386 94.327,111.658 93.752,111.658 93.545 C 111.658 93.338,112.695 91.063,113.962 88.489 C 115.230 85.914,116.351 83.517,116.454 83.161 C 116.557 82.804,116.793 82.338,116.979 82.124 C 117.165 81.911,117.568 81.096,117.876 80.313 C 118.184 79.531,118.533 78.830,118.653 78.756 C 118.772 78.683,119.122 77.983,119.430 77.202 C 119.738 76.421,120.098 75.715,120.231 75.633 C 120.363 75.551,120.698 74.851,120.975 74.076 C 121.251 73.302,122.406 70.832,123.542 68.588 C 124.677 66.344,125.680 64.173,125.770 63.763 C 125.860 63.353,126.219 62.630,126.568 62.158 C 126.917 61.685,127.202 61.105,127.202 60.869 C 127.202 60.634,127.550 59.928,127.975 59.301 C 128.399 58.674,128.749 57.973,128.752 57.743 C 128.754 57.514,129.041 56.907,129.389 56.394 C 129.737 55.882,130.135 55.053,130.273 54.552 C 130.411 54.051,130.760 53.311,131.048 52.906 C 131.336 52.502,131.653 51.828,131.753 51.409 C 131.852 50.990,132.203 50.285,132.533 49.841 C 132.863 49.397,133.213 48.698,133.310 48.287 C 133.408 47.875,133.764 47.168,134.101 46.714 C 134.439 46.261,134.715 45.725,134.715 45.525 C 134.715 45.325,135.079 44.413,135.523 43.500 C 135.968 42.587,137.148 40.149,138.146 38.083 C 139.144 36.017,140.296 33.640,140.706 32.800 C 141.115 31.961,141.451 31.116,141.451 30.922 C 141.451 30.728,141.547 30.570,141.666 30.570 C 141.784 30.570,142.153 29.987,142.487 29.275 C 143.269 27.605,143.549 27.642,144.811 29.585 M254.722 28.849 C 255.134 29.149,255.598 29.875,255.837 30.594 C 256.062 31.271,256.409 31.961,256.608 32.126 C 256.808 32.292,257.161 33.087,257.394 33.895 C 257.626 34.702,258.016 35.596,258.259 35.881 C 258.503 36.166,258.857 36.865,259.045 37.435 C 259.234 38.005,259.584 38.705,259.823 38.990 C 260.061 39.275,260.411 39.974,260.600 40.544 C 260.788 41.114,261.146 41.813,261.395 42.098 C 261.644 42.383,261.924 43.023,262.017 43.519 C 262.111 44.015,262.472 44.851,262.819 45.376 C 263.167 45.901,263.532 46.661,263.632 47.065 C 263.731 47.468,264.070 48.148,264.384 48.575 C 264.697 49.003,265.083 49.736,265.240 50.206 C 265.397 50.675,265.748 51.375,266.020 51.760 C 266.293 52.146,266.603 52.869,266.710 53.368 C 266.817 53.867,267.127 54.590,267.399 54.976 C 267.672 55.361,268.025 56.061,268.184 56.530 C 268.343 56.999,268.693 57.699,268.961 58.084 C 269.229 58.470,269.581 59.169,269.743 59.639 C 269.904 60.108,270.299 60.900,270.621 61.399 C 270.942 61.898,271.331 62.788,271.485 63.377 C 271.639 63.966,271.933 64.587,272.138 64.757 C 272.343 64.927,272.698 65.631,272.927 66.321 C 273.157 67.012,273.507 67.711,273.705 67.876 C 273.903 68.040,274.255 68.747,274.487 69.447 C 274.720 70.147,275.020 70.787,275.153 70.870 C 275.478 71.070,276.166 72.741,276.166 73.329 C 276.166 73.587,276.326 73.957,276.521 74.152 C 277.003 74.634,277.720 76.052,277.720 76.523 C 277.720 76.734,277.880 77.066,278.075 77.261 C 278.548 77.733,279.275 79.158,279.275 79.611 C 279.275 79.810,279.509 80.243,279.795 80.573 C 280.082 80.903,280.489 81.757,280.701 82.469 C 280.913 83.182,281.243 83.950,281.435 84.175 C 281.628 84.401,281.988 85.110,282.235 85.751 C 282.483 86.392,282.833 87.092,283.013 87.306 C 283.192 87.519,283.542 88.219,283.790 88.860 C 284.038 89.501,284.390 90.201,284.574 90.415 C 284.757 90.628,285.116 91.442,285.370 92.222 C 285.624 93.003,285.978 93.787,286.157 93.966 C 286.336 94.145,286.687 94.847,286.938 95.526 C 287.190 96.206,287.504 96.905,287.637 97.080 C 288.122 97.719,289.874 101.382,290.026 102.074 C 290.112 102.466,290.468 103.173,290.817 103.645 C 291.165 104.118,291.451 104.698,291.451 104.934 C 291.451 105.169,291.798 105.875,292.223 106.502 C 292.648 107.129,292.998 107.829,293.000 108.057 C 293.003 108.285,293.353 108.984,293.778 109.611 C 294.203 110.238,294.554 110.984,294.559 111.269 C 294.563 111.554,294.711 112.042,294.887 112.354 C 296.060 114.428,299.226 120.927,299.224 121.258 C 299.223 121.479,299.560 122.192,299.972 122.841 C 300.383 123.490,300.799 124.379,300.895 124.817 C 300.991 125.254,301.237 125.751,301.442 125.921 C 301.995 126.380,301.909 128.165,301.295 128.945 C 301.010 129.307,300.777 129.792,300.776 130.022 C 300.775 130.252,300.426 130.965,300.000 131.606 C 299.574 132.247,299.225 132.920,299.224 133.100 C 299.223 133.280,298.873 134.047,298.446 134.805 C 298.018 135.562,297.666 136.406,297.664 136.679 C 297.661 136.952,297.311 137.689,296.886 138.316 C 296.462 138.943,296.112 139.643,296.109 139.871 C 296.107 140.099,295.757 140.798,295.332 141.425 C 294.907 142.052,294.560 142.724,294.560 142.919 C 294.560 143.113,294.210 143.892,293.782 144.649 C 293.355 145.407,293.005 146.205,293.005 146.424 C 293.005 146.642,292.792 147.099,292.532 147.439 C 292.272 147.779,291.854 148.582,291.603 149.223 C 291.353 149.864,291.001 150.563,290.822 150.777 C 290.642 150.991,290.292 151.690,290.044 152.332 C 289.797 152.973,289.441 153.672,289.255 153.886 C 289.068 154.100,288.707 154.945,288.452 155.764 C 288.197 156.584,287.907 157.254,287.807 157.254 C 287.707 157.254,287.360 157.924,287.035 158.744 C 286.711 159.563,286.299 160.408,286.120 160.622 C 285.941 160.835,285.592 161.535,285.344 162.176 C 285.096 162.817,284.746 163.517,284.565 163.731 C 284.385 163.944,284.154 164.469,284.051 164.896 C 283.823 165.848,283.215 167.081,282.738 167.558 C 282.543 167.753,282.383 168.085,282.383 168.296 C 282.383 168.766,281.666 170.185,281.184 170.666 C 280.989 170.862,280.828 171.217,280.826 171.456 C 280.824 171.696,280.522 172.416,280.155 173.057 C 279.787 173.698,279.310 174.747,279.095 175.389 C 278.879 176.030,278.562 176.729,278.390 176.943 C 278.104 177.298,277.476 178.563,275.161 183.440 C 274.716 184.378,274.352 185.289,274.352 185.465 C 274.352 185.642,274.070 186.157,273.725 186.611 C 273.380 187.064,273.011 187.785,272.907 188.212 C 272.802 188.640,272.452 189.339,272.129 189.767 C 271.807 190.194,271.457 190.894,271.352 191.321 C 271.247 191.749,270.906 192.506,270.596 193.005 C 270.285 193.504,269.946 194.255,269.843 194.673 C 269.739 195.092,269.425 195.757,269.144 196.151 C 268.864 196.546,268.504 197.252,268.345 197.722 C 268.186 198.191,267.838 198.888,267.572 199.270 C 267.305 199.653,266.923 200.432,266.722 201.002 C 266.521 201.572,266.115 202.484,265.821 203.027 C 265.527 203.571,265.109 204.424,264.892 204.922 C 264.676 205.421,264.327 206.120,264.117 206.477 C 263.907 206.833,263.561 207.532,263.349 208.031 C 263.137 208.530,262.851 209.113,262.712 209.326 C 262.320 209.933,260.910 213.065,260.479 214.287 C 260.265 214.893,259.921 215.575,259.715 215.803 C 259.509 216.031,259.159 216.730,258.938 217.358 C 258.717 217.985,258.367 218.684,258.161 218.912 C 257.954 219.140,257.606 219.835,257.387 220.457 C 257.167 221.079,256.868 221.731,256.722 221.908 C 256.576 222.084,256.238 222.852,255.971 223.614 C 254.956 226.513,253.263 227.056,252.610 224.691 C 252.481 224.224,252.193 223.659,251.971 223.437 C 251.749 223.215,251.390 222.436,251.173 221.707 C 250.957 220.977,250.619 220.196,250.423 219.970 C 250.226 219.744,249.928 219.130,249.759 218.604 C 249.590 218.079,249.243 217.379,248.987 217.050 C 248.731 216.720,248.381 216.021,248.209 215.495 C 248.038 214.970,247.691 214.271,247.438 213.941 C 247.185 213.612,246.772 212.701,246.521 211.917 C 246.270 211.133,245.951 210.354,245.812 210.185 C 245.346 209.617,241.988 202.751,241.835 202.051 C 241.751 201.670,241.397 200.972,241.049 200.500 C 240.700 200.027,240.415 199.447,240.415 199.211 C 240.415 198.976,240.067 198.270,239.642 197.643 C 239.217 197.016,238.867 196.319,238.865 196.094 C 238.862 195.869,238.523 195.169,238.111 194.539 C 237.699 193.909,237.276 192.986,237.170 192.487 C 237.065 191.988,236.768 191.311,236.509 190.981 C 236.251 190.652,235.900 189.952,235.728 189.427 C 235.557 188.901,235.207 188.202,234.951 187.872 C 234.695 187.543,234.344 186.843,234.171 186.318 C 233.998 185.793,233.633 185.061,233.360 184.691 C 233.088 184.322,232.753 183.523,232.617 182.916 C 232.480 182.308,232.096 181.445,231.762 180.996 C 231.429 180.548,231.076 179.845,230.979 179.434 C 230.881 179.022,230.531 178.323,230.202 177.879 C 229.872 177.435,229.521 176.732,229.422 176.316 C 229.323 175.900,229.017 175.272,228.741 174.922 C 228.466 174.571,228.111 173.806,227.953 173.220 C 227.796 172.634,227.441 171.839,227.166 171.452 C 226.890 171.065,226.535 170.364,226.376 169.895 C 226.217 169.425,225.869 168.729,225.603 168.346 C 225.336 167.964,224.943 167.153,224.729 166.546 C 224.514 165.938,224.182 165.260,223.990 165.039 C 223.798 164.818,223.509 164.227,223.348 163.725 C 223.187 163.223,222.137 160.994,221.015 158.772 C 219.893 156.549,218.829 154.279,218.651 153.726 C 218.474 153.173,218.178 152.545,217.994 152.332 C 217.810 152.118,217.457 151.418,217.210 150.777 C 216.962 150.136,216.611 149.437,216.431 149.223 C 216.251 149.009,215.851 148.193,215.543 147.410 C 215.235 146.627,214.853 145.829,214.695 145.638 C 214.536 145.447,214.199 144.701,213.945 143.981 C 213.691 143.260,213.315 142.484,213.109 142.255 C 212.903 142.026,212.652 141.490,212.551 141.062 C 212.450 140.635,212.097 139.922,211.767 139.478 C 211.437 139.035,211.088 138.335,210.990 137.924 C 210.893 137.513,210.552 136.825,210.233 136.396 C 209.915 135.967,209.565 135.213,209.457 134.719 C 209.349 134.226,209.000 133.411,208.683 132.908 C 208.366 132.406,208.016 131.710,207.906 131.361 C 207.795 131.013,207.356 130.161,206.930 129.468 C 205.973 127.914,206.019 126.327,207.065 124.797 C 207.433 124.258,207.817 123.442,207.918 122.984 C 208.018 122.525,208.376 121.744,208.714 121.248 C 209.051 120.752,209.327 120.169,209.328 119.953 C 209.328 119.737,209.677 119.035,210.104 118.394 C 210.530 117.753,210.880 117.053,210.881 116.839 C 210.882 116.626,211.232 115.926,211.658 115.285 C 212.084 114.644,212.434 113.957,212.434 113.758 C 212.435 113.559,212.843 112.548,213.342 111.511 C 213.841 110.474,214.249 109.515,214.249 109.378 C 214.249 109.242,214.408 108.998,214.604 108.836 C 214.799 108.674,215.164 107.990,215.416 107.315 C 215.668 106.640,216.032 105.905,216.225 105.681 C 216.418 105.458,216.812 104.589,217.100 103.751 C 217.389 102.913,217.730 102.163,217.859 102.083 C 217.988 102.003,218.345 101.298,218.653 100.516 C 218.960 99.733,219.362 98.918,219.545 98.705 C 219.728 98.491,220.083 97.764,220.335 97.089 C 220.587 96.414,220.953 95.730,221.148 95.568 C 221.343 95.406,221.503 95.156,221.503 95.013 C 221.503 94.870,221.868 93.981,222.314 93.037 C 222.760 92.093,223.526 90.447,224.016 89.378 C 224.506 88.310,225.036 87.202,225.194 86.917 C 225.649 86.095,226.071 85.226,226.895 83.420 C 228.358 80.213,228.745 79.402,228.998 79.016 C 229.137 78.802,229.487 78.102,229.775 77.461 C 230.063 76.820,230.407 76.120,230.540 75.907 C 231.030 75.120,232.642 71.525,232.642 71.219 C 232.642 71.046,232.928 70.530,233.276 70.073 C 233.625 69.616,233.990 68.905,234.088 68.494 C 234.185 68.083,234.535 67.383,234.865 66.940 C 235.195 66.496,235.544 65.796,235.641 65.385 C 235.738 64.974,236.079 64.113,236.398 63.472 C 239.061 58.129,240.424 55.266,240.419 55.022 C 240.417 54.863,240.633 54.455,240.900 54.115 C 241.168 53.775,241.569 52.958,241.793 52.299 C 242.017 51.640,242.498 50.662,242.862 50.125 C 243.226 49.589,243.523 48.956,243.523 48.719 C 243.523 48.481,243.817 47.889,244.177 47.402 C 244.536 46.915,244.949 46.074,245.095 45.533 C 245.240 44.992,245.646 44.127,245.996 43.611 C 246.346 43.096,246.633 42.486,246.633 42.257 C 246.634 42.027,246.983 41.315,247.409 40.674 C 247.836 40.032,248.185 39.333,248.187 39.119 C 248.188 38.905,248.537 38.206,248.964 37.565 C 249.390 36.924,249.740 36.224,249.741 36.010 C 249.742 35.797,249.952 35.272,250.208 34.845 C 250.463 34.417,250.889 33.484,251.154 32.772 C 251.419 32.060,251.850 31.199,252.113 30.859 C 252.376 30.519,252.591 30.154,252.591 30.049 C 252.591 29.943,252.769 29.429,252.987 28.907 C 253.403 27.912,253.434 27.911,254.722 28.849 M142.377 54.728 C 141.964 55.619,141.418 56.856,141.164 57.477 C 140.910 58.098,140.535 58.798,140.332 59.031 C 140.128 59.265,139.824 59.886,139.655 60.411 C 139.487 60.937,139.138 61.636,138.881 61.966 C 138.624 62.295,138.333 62.856,138.236 63.212 C 138.051 63.888,136.484 67.272,135.837 68.394 C 135.632 68.750,135.292 69.449,135.083 69.948 C 134.873 70.447,134.523 71.146,134.305 71.503 C 134.088 71.859,133.740 72.558,133.533 73.057 C 133.325 73.556,132.881 74.488,132.545 75.130 C 132.209 75.771,131.858 76.613,131.767 77.001 C 131.675 77.389,131.310 78.134,130.955 78.656 C 130.601 79.179,130.311 79.742,130.311 79.908 C 130.311 80.074,129.961 80.761,129.534 81.435 C 129.106 82.109,128.756 82.780,128.756 82.927 C 128.756 83.217,127.126 86.781,126.516 87.824 C 126.308 88.180,125.966 88.880,125.757 89.378 C 125.547 89.877,125.262 90.489,125.123 90.738 C 124.552 91.763,124.348 92.174,123.609 93.782 C 123.183 94.709,122.763 95.720,122.676 96.030 C 122.588 96.339,122.244 96.994,121.912 97.484 C 121.579 97.974,121.169 98.792,121.001 99.301 C 120.833 99.810,120.486 100.496,120.230 100.826 C 119.974 101.155,119.617 101.891,119.436 102.461 C 119.256 103.031,118.904 103.847,118.655 104.275 C 118.406 104.702,117.996 105.606,117.745 106.282 C 117.493 106.959,117.201 107.513,117.095 107.513 C 116.989 107.513,116.641 108.212,116.321 109.067 C 116.002 109.922,115.645 110.622,115.530 110.622 C 115.414 110.622,115.240 110.884,115.143 111.205 C 114.903 111.992,113.376 115.334,112.428 117.145 C 112.005 117.954,111.658 118.737,111.658 118.885 C 111.658 119.032,111.308 119.704,110.881 120.379 C 110.453 121.053,110.104 121.798,110.104 122.035 C 110.104 122.272,109.835 122.863,109.506 123.347 C 108.430 124.932,107.668 127.983,108.257 128.347 C 108.381 128.424,108.554 128.844,108.641 129.281 C 108.729 129.718,109.093 130.460,109.452 130.930 C 109.810 131.400,110.104 131.955,110.104 132.164 C 110.104 132.372,110.511 133.352,111.010 134.341 C 111.508 135.331,111.916 136.238,111.916 136.359 C 111.917 136.479,112.131 136.887,112.392 137.266 C 112.654 137.644,113.071 138.478,113.321 139.119 C 113.570 139.760,113.920 140.460,114.098 140.674 C 114.277 140.887,114.573 141.470,114.757 141.969 C 114.941 142.468,116.113 144.974,117.361 147.539 C 120.487 153.964,121.244 155.591,121.244 155.894 C 121.244 156.037,121.403 156.287,121.598 156.449 C 121.793 156.611,122.159 157.295,122.411 157.970 C 122.663 158.645,123.028 159.381,123.223 159.607 C 123.418 159.833,123.769 160.590,124.003 161.291 C 124.238 161.992,124.638 162.863,124.892 163.228 C 125.146 163.593,125.435 164.234,125.535 164.653 C 125.634 165.072,125.986 165.777,126.316 166.221 C 126.645 166.665,126.995 167.364,127.093 167.775 C 127.190 168.187,127.540 168.886,127.870 169.330 C 128.200 169.773,128.550 170.473,128.649 170.884 C 128.747 171.296,129.161 172.273,129.569 173.057 C 129.976 173.841,130.310 174.572,130.310 174.681 C 130.311 174.791,130.585 175.316,130.921 175.847 C 131.256 176.379,131.621 177.099,131.731 177.447 C 131.842 177.795,132.267 178.624,132.676 179.289 C 133.085 179.954,133.420 180.731,133.420 181.016 C 133.420 181.301,133.686 181.929,134.011 182.412 C 134.336 182.895,134.809 183.835,135.061 184.500 C 135.313 185.166,135.688 185.851,135.894 186.022 C 136.101 186.193,136.269 186.484,136.269 186.668 C 136.269 186.853,136.659 187.742,137.135 188.644 C 137.612 189.547,138.080 190.603,138.175 190.991 C 138.270 191.379,138.638 192.124,138.993 192.646 C 139.347 193.168,139.638 193.783,139.638 194.013 C 139.639 194.242,139.988 194.955,140.415 195.596 C 140.841 196.237,141.190 196.939,141.191 197.155 C 141.191 197.371,141.472 197.961,141.815 198.466 C 142.158 198.971,142.619 199.814,142.838 200.340 C 143.449 201.800,143.871 201.390,145.597 197.668 C 145.894 197.027,146.246 196.328,146.380 196.114 C 147.022 195.084,148.964 190.949,148.964 190.610 C 148.964 190.398,149.199 189.926,149.487 189.560 C 149.775 189.193,150.181 188.412,150.389 187.824 C 150.596 187.235,151.002 186.454,151.290 186.088 C 151.578 185.722,151.813 185.280,151.813 185.105 C 151.813 184.769,151.962 184.451,155.636 176.943 C 156.925 174.307,158.110 171.750,158.268 171.260 C 158.426 170.771,158.726 170.182,158.934 169.952 C 159.142 169.722,159.494 169.021,159.715 168.394 C 159.936 167.767,160.286 167.067,160.492 166.839 C 160.698 166.611,161.048 165.912,161.269 165.285 C 161.491 164.658,161.833 163.964,162.029 163.743 C 162.226 163.523,162.525 162.817,162.694 162.176 C 162.863 161.535,163.263 160.661,163.584 160.233 C 163.904 159.806,164.252 159.106,164.357 158.679 C 164.462 158.251,164.812 157.552,165.135 157.124 C 165.457 156.697,165.802 156.017,165.902 155.613 C 166.001 155.210,166.355 154.449,166.687 153.922 C 167.019 153.396,167.379 152.561,167.487 152.066 C 167.595 151.571,167.950 150.848,168.276 150.460 C 168.602 150.071,168.949 149.372,169.047 148.905 C 169.146 148.439,169.438 147.824,169.697 147.539 C 169.955 147.254,170.398 146.438,170.681 145.725 C 171.707 143.146,172.422 141.563,172.964 140.674 C 173.267 140.175,173.604 139.475,173.712 139.119 C 173.819 138.763,174.182 138.066,174.518 137.569 C 174.855 137.073,175.130 136.557,175.130 136.423 C 175.130 136.194,175.487 135.419,178.013 130.172 C 179.220 127.664,178.957 124.116,177.485 123.057 C 177.386 122.986,177.091 122.345,176.829 121.632 C 176.568 120.920,176.205 120.162,176.023 119.948 C 175.840 119.734,175.487 119.035,175.238 118.394 C 174.989 117.753,174.586 116.937,174.343 116.580 C 174.101 116.224,173.813 115.641,173.703 115.285 C 173.594 114.929,173.171 114.009,172.763 113.241 C 172.355 112.473,172.021 111.678,172.021 111.475 C 172.021 111.272,171.738 110.734,171.393 110.281 C 171.048 109.827,170.680 109.106,170.575 108.679 C 170.470 108.251,170.120 107.552,169.798 107.124 C 169.475 106.697,169.127 105.997,169.024 105.570 C 168.921 105.142,168.615 104.476,168.345 104.089 C 168.074 103.702,167.683 102.813,167.475 102.112 C 167.267 101.412,166.929 100.700,166.723 100.529 C 166.518 100.359,166.162 99.654,165.933 98.964 C 165.703 98.273,165.354 97.574,165.155 97.409 C 164.957 97.245,164.608 96.545,164.378 95.855 C 164.149 95.164,163.798 94.464,163.599 94.299 C 163.400 94.133,163.048 93.350,162.818 92.559 C 162.588 91.767,162.243 90.963,162.052 90.772 C 161.861 90.580,161.494 89.868,161.238 89.189 C 160.981 88.509,160.631 87.810,160.461 87.634 C 160.290 87.459,159.942 86.759,159.687 86.080 C 159.432 85.400,159.132 84.780,159.020 84.702 C 158.908 84.624,158.580 83.874,158.292 83.036 C 158.004 82.198,157.597 81.324,157.388 81.093 C 157.179 80.863,156.833 80.176,156.619 79.569 C 156.404 78.961,155.993 78.164,155.705 77.798 C 155.417 77.432,155.181 77.002,155.181 76.843 C 155.180 76.684,154.772 75.745,154.274 74.756 C 153.776 73.767,153.368 72.810,153.368 72.630 C 153.368 72.450,153.073 71.869,152.714 71.339 C 152.354 70.808,151.986 70.082,151.896 69.725 C 151.807 69.368,151.460 68.673,151.126 68.181 C 150.792 67.689,150.401 66.850,150.258 66.316 C 150.114 65.782,149.835 65.212,149.638 65.048 C 149.441 64.885,149.156 64.259,149.004 63.658 C 148.852 63.057,148.431 62.163,148.069 61.672 C 147.706 61.182,147.409 60.587,147.409 60.351 C 147.409 60.115,147.062 59.410,146.637 58.783 C 146.212 58.155,145.862 57.455,145.860 57.225 C 145.857 56.996,145.575 56.396,145.233 55.892 C 144.891 55.388,144.527 54.701,144.424 54.366 C 143.892 52.633,143.300 52.737,142.377 54.728 M253.017 54.212 C 252.782 54.826,252.591 55.454,252.591 55.608 C 252.591 55.763,252.378 56.167,252.117 56.507 C 251.857 56.846,251.439 57.649,251.189 58.290 C 250.939 58.931,250.588 59.631,250.411 59.845 C 250.233 60.058,249.887 60.778,249.642 61.443 C 249.396 62.109,249.034 62.787,248.837 62.951 C 248.640 63.114,248.399 63.619,248.302 64.072 C 248.119 64.918,247.471 66.349,247.166 66.580 C 247.071 66.652,246.786 67.266,246.531 67.945 C 246.276 68.625,245.928 69.324,245.757 69.500 C 245.586 69.675,245.237 70.375,244.980 71.054 C 244.723 71.733,244.354 72.448,244.161 72.642 C 243.967 72.836,243.728 73.329,243.630 73.738 C 243.532 74.147,243.118 75.123,242.711 75.907 C 242.303 76.690,241.970 77.461,241.969 77.619 C 241.969 77.778,241.692 78.315,241.353 78.815 C 241.014 79.314,240.603 80.127,240.440 80.622 C 240.277 81.118,239.854 81.914,239.501 82.392 C 239.149 82.870,238.860 83.514,238.860 83.822 C 238.860 84.131,238.583 84.792,238.244 85.291 C 237.905 85.791,237.481 86.652,237.301 87.206 C 237.122 87.759,236.753 88.528,236.483 88.913 C 236.213 89.299,235.861 89.998,235.702 90.468 C 235.543 90.937,235.184 91.650,234.903 92.052 C 234.623 92.455,234.237 93.306,234.045 93.943 C 233.853 94.581,233.459 95.436,233.169 95.843 C 232.879 96.250,232.642 96.727,232.642 96.903 C 232.642 97.079,232.293 97.791,231.865 98.486 C 231.438 99.180,231.088 99.880,231.088 100.040 C 231.088 100.200,230.752 100.877,230.342 101.545 C 229.931 102.212,229.508 103.156,229.401 103.643 C 229.294 104.130,228.945 104.879,228.627 105.308 C 228.308 105.737,227.967 106.425,227.870 106.836 C 227.772 107.247,227.423 107.947,227.093 108.390 C 226.763 108.834,226.413 109.533,226.316 109.945 C 226.218 110.356,225.866 111.056,225.533 111.499 C 225.200 111.943,224.843 112.714,224.740 113.212 C 224.638 113.711,224.402 114.294,224.216 114.508 C 224.030 114.722,223.641 115.522,223.351 116.286 C 223.062 117.050,222.664 117.866,222.467 118.099 C 222.270 118.332,221.908 119.068,221.662 119.733 C 221.417 120.399,221.048 121.084,220.841 121.255 C 220.635 121.426,220.466 121.734,220.466 121.938 C 220.466 122.143,219.988 123.313,219.403 124.539 C 218.268 126.916,218.201 127.729,219.016 129.203 C 219.820 130.657,221.898 135.142,222.139 135.946 C 222.236 136.266,222.409 136.528,222.525 136.528 C 222.640 136.528,222.996 137.228,223.316 138.083 C 223.636 138.938,223.991 139.637,224.105 139.637 C 224.219 139.637,224.454 140.074,224.627 140.609 C 224.800 141.143,225.275 142.247,225.683 143.063 C 226.091 143.878,226.425 144.661,226.425 144.802 C 226.425 144.944,226.775 145.611,227.202 146.285 C 227.630 146.959,227.979 147.659,227.979 147.840 C 227.979 148.021,228.329 148.720,228.756 149.394 C 229.184 150.068,229.534 150.814,229.534 151.051 C 229.534 151.288,229.818 151.902,230.166 152.414 C 230.514 152.927,230.912 153.756,231.050 154.256 C 231.188 154.757,231.527 155.490,231.803 155.886 C 232.079 156.282,232.434 156.990,232.593 157.460 C 232.752 157.929,233.105 158.629,233.376 159.014 C 233.648 159.400,233.958 160.006,234.066 160.363 C 234.173 160.719,234.596 161.652,235.006 162.435 C 235.415 163.219,235.750 163.990,235.751 164.148 C 235.751 164.306,236.028 164.844,236.367 165.343 C 236.706 165.842,237.128 166.691,237.306 167.228 C 237.483 167.765,237.905 168.614,238.244 169.113 C 238.583 169.612,238.860 170.151,238.860 170.310 C 238.860 170.470,239.136 171.124,239.472 171.764 C 239.809 172.404,240.234 173.387,240.416 173.949 C 240.598 174.511,240.958 175.197,241.215 175.474 C 241.473 175.750,241.752 176.285,241.835 176.662 C 241.917 177.040,242.331 177.869,242.753 178.506 C 243.176 179.142,243.522 179.826,243.522 180.026 C 243.523 180.357,244.647 182.886,245.490 184.456 C 245.682 184.812,246.029 185.512,246.262 186.010 C 246.494 186.509,246.844 187.209,247.039 187.565 C 247.233 187.921,247.584 188.620,247.818 189.119 C 248.053 189.618,248.581 190.682,248.993 191.484 C 249.404 192.285,249.741 193.104,249.741 193.302 C 249.741 193.500,250.013 194.068,250.346 194.564 C 250.679 195.060,251.083 195.850,251.244 196.320 C 251.404 196.789,251.757 197.489,252.027 197.874 C 252.298 198.260,252.666 199.041,252.845 199.611 C 253.025 200.181,253.263 200.748,253.375 200.870 C 253.728 201.254,255.361 199.506,255.835 198.237 C 256.084 197.568,256.424 196.846,256.589 196.632 C 256.964 196.146,258.638 192.666,259.081 191.451 C 259.263 190.952,259.564 190.363,259.751 190.143 C 259.937 189.922,260.271 189.228,260.492 188.601 C 260.713 187.974,261.063 187.275,261.269 187.047 C 261.476 186.819,261.820 186.135,262.034 185.527 C 262.249 184.919,262.645 184.109,262.916 183.726 C 263.186 183.344,263.494 182.623,263.601 182.124 C 263.708 181.626,264.018 180.902,264.290 180.517 C 264.563 180.131,264.914 179.432,265.071 178.962 C 265.228 178.493,265.613 177.759,265.927 177.332 C 266.241 176.904,266.584 176.205,266.689 175.777 C 266.794 175.350,267.153 174.641,267.487 174.201 C 267.822 173.762,268.179 172.946,268.282 172.388 C 268.385 171.830,268.733 171.055,269.057 170.667 C 269.380 170.278,269.728 169.579,269.830 169.112 C 269.932 168.646,270.282 167.946,270.607 167.558 C 270.933 167.170,271.283 166.470,271.385 166.004 C 271.486 165.537,271.831 164.843,272.151 164.462 C 272.471 164.080,272.816 163.326,272.917 162.786 C 273.019 162.247,273.327 161.488,273.603 161.101 C 273.879 160.714,274.280 159.900,274.494 159.292 C 274.709 158.684,275.053 158.000,275.259 157.772 C 275.465 157.544,275.815 156.845,276.036 156.218 C 276.258 155.591,276.598 154.897,276.793 154.676 C 276.988 154.455,277.331 153.750,277.554 153.109 C 277.777 152.468,278.828 150.227,279.890 148.130 C 280.951 146.034,281.962 143.877,282.137 143.338 C 282.312 142.799,282.677 142.042,282.947 141.657 C 283.217 141.271,283.569 140.572,283.728 140.102 C 283.887 139.633,284.235 138.936,284.501 138.553 C 284.767 138.171,285.160 137.361,285.375 136.753 C 285.589 136.145,285.921 135.467,286.111 135.246 C 286.301 135.025,286.647 134.271,286.880 133.571 C 287.113 132.870,287.459 132.112,287.649 131.887 C 287.840 131.661,288.196 130.932,288.441 130.267 C 288.687 129.601,289.056 128.916,289.262 128.745 C 289.806 128.294,289.733 126.509,289.136 125.672 C 288.861 125.285,288.553 124.626,288.452 124.207 C 288.351 123.788,288.007 122.979,287.686 122.409 C 287.366 121.839,286.969 120.945,286.803 120.422 C 286.637 119.899,286.339 119.337,286.141 119.172 C 285.942 119.007,285.592 118.307,285.363 117.617 C 285.133 116.926,284.784 116.227,284.585 116.062 C 284.387 115.898,284.028 115.160,283.786 114.423 C 283.544 113.686,283.148 112.791,282.905 112.435 C 282.662 112.079,282.333 111.404,282.173 110.934 C 282.014 110.465,281.665 109.765,281.396 109.380 C 281.128 108.994,280.778 108.295,280.619 107.825 C 280.460 107.356,280.106 106.656,279.831 106.271 C 279.557 105.885,279.183 105.045,279.000 104.404 C 278.817 103.763,278.522 103.063,278.345 102.850 C 278.168 102.636,277.820 101.937,277.572 101.295 C 277.324 100.654,276.975 99.955,276.795 99.741 C 276.615 99.527,276.266 98.828,276.019 98.187 C 275.771 97.545,275.353 96.780,275.090 96.486 C 274.827 96.192,274.611 95.777,274.611 95.564 C 274.611 95.352,274.204 94.368,273.705 93.379 C 273.207 92.390,272.799 91.427,272.799 91.239 C 272.798 91.052,272.516 90.527,272.170 90.073 C 271.825 89.620,271.457 88.899,271.352 88.472 C 271.247 88.044,270.902 87.345,270.585 86.917 C 270.268 86.490,269.929 85.848,269.831 85.492 C 269.646 84.815,268.351 81.943,267.729 80.829 C 267.530 80.473,267.189 79.773,266.971 79.275 C 266.754 78.776,266.404 78.076,266.194 77.720 C 265.984 77.364,265.630 76.665,265.406 76.166 C 264.666 74.514,260.811 66.441,259.715 64.249 C 259.394 63.608,258.995 62.655,258.827 62.132 C 258.660 61.609,258.360 61.046,258.162 60.882 C 257.963 60.717,257.613 60.017,257.383 59.326 C 257.154 58.636,256.804 57.936,256.606 57.772 C 256.408 57.608,256.061 56.928,255.834 56.262 C 254.974 53.733,253.586 52.722,253.017 54.212 " stroke="none" fill="#fcfcfc" fill-rule="evenodd"></path></g></svg>