<svg id="svg" version="1.1" xmlns="http://www.w3.org/2000/svg" xmlns:xlink="http://www.w3.org/1999/xlink" width="400" height="258.91472868217056" viewBox="0, 0, 400,258.91472868217056"><g id="svgg"><path id="path0" d="M198.021 32.077 C 197.581 32.479,197.073 33.256,196.892 33.805 C 196.711 34.353,196.358 35.162,196.108 35.601 C 195.858 36.040,195.507 36.859,195.329 37.421 C 195.150 37.983,194.805 38.656,194.562 38.917 C 194.318 39.179,193.976 39.870,193.801 40.454 C 193.626 41.038,193.269 41.746,193.007 42.027 C 192.745 42.308,192.454 42.847,192.362 43.225 C 192.203 43.872,191.031 46.495,190.261 47.927 C 190.070 48.284,189.723 48.983,189.490 49.482 C 189.257 49.981,188.907 50.680,188.712 51.036 C 188.355 51.691,187.997 52.443,186.924 54.793 C 186.599 55.505,185.502 57.787,184.488 59.863 C 183.473 61.939,182.642 63.767,182.642 63.925 C 182.642 64.083,182.492 64.366,182.309 64.554 C 182.125 64.742,181.760 65.479,181.496 66.192 C 181.233 66.904,180.868 67.662,180.686 67.876 C 180.503 68.089,180.152 68.789,179.904 69.430 C 179.656 70.071,179.306 70.771,179.125 70.984 C 178.945 71.198,178.545 72.014,178.237 72.797 C 177.929 73.581,177.572 74.348,177.443 74.504 C 177.314 74.659,177.035 75.279,176.822 75.881 C 176.610 76.484,176.218 77.290,175.952 77.673 C 175.686 78.055,175.338 78.752,175.179 79.221 C 175.020 79.691,174.664 80.391,174.389 80.778 C 174.113 81.165,173.756 81.971,173.595 82.569 C 173.434 83.167,173.196 83.722,173.067 83.802 C 172.937 83.882,172.582 84.616,172.277 85.432 C 171.972 86.249,171.559 87.098,171.360 87.319 C 171.161 87.539,170.823 88.217,170.608 88.825 C 170.394 89.433,169.991 90.219,169.713 90.573 C 169.434 90.927,169.126 91.589,169.027 92.046 C 168.928 92.502,168.626 93.189,168.356 93.571 C 168.086 93.953,167.695 94.748,167.487 95.337 C 167.279 95.926,166.892 96.720,166.625 97.103 C 166.359 97.485,166.011 98.182,165.852 98.651 C 165.693 99.121,165.333 99.827,165.053 100.222 C 164.772 100.616,164.458 101.281,164.354 101.700 C 164.251 102.119,163.908 102.872,163.593 103.375 C 163.278 103.877,162.939 104.659,162.839 105.111 C 162.740 105.564,162.431 106.224,162.153 106.577 C 161.875 106.931,161.477 107.702,161.269 108.290 C 161.062 108.879,160.656 109.660,160.368 110.026 C 160.080 110.392,159.845 110.809,159.845 110.953 C 159.845 111.097,159.427 112.102,158.916 113.185 C 157.957 115.219,154.941 121.457,154.143 123.057 C 153.894 123.556,153.553 124.392,153.386 124.915 C 153.219 125.437,152.927 125.994,152.738 126.151 C 152.323 126.495,153.072 128.467,155.131 132.453 C 155.849 133.845,156.513 135.326,156.605 135.744 C 156.696 136.162,156.999 136.794,157.277 137.147 C 157.556 137.501,157.959 138.287,158.173 138.895 C 158.387 139.503,158.732 140.187,158.938 140.415 C 159.144 140.642,159.494 141.342,159.715 141.969 C 159.936 142.596,160.275 143.290,160.468 143.510 C 160.662 143.731,160.898 144.203,160.995 144.560 C 161.296 145.673,161.986 147.150,162.206 147.150 C 162.321 147.150,162.547 147.646,162.708 148.251 C 162.869 148.857,163.263 149.702,163.584 150.130 C 163.904 150.557,164.248 151.237,164.348 151.641 C 164.447 152.044,164.800 152.805,165.132 153.331 C 165.465 153.858,165.825 154.693,165.933 155.188 C 166.041 155.683,166.396 156.406,166.721 156.794 C 167.047 157.183,167.394 157.882,167.493 158.349 C 167.592 158.815,167.884 159.430,168.142 159.715 C 168.400 160.000,168.843 160.816,169.127 161.528 C 170.152 164.108,170.868 165.691,171.409 166.580 C 171.713 167.079,172.050 167.778,172.157 168.135 C 172.265 168.491,172.628 169.188,172.964 169.684 C 173.300 170.181,173.575 170.683,173.575 170.802 C 173.575 171.161,177.162 178.697,177.608 179.275 C 177.773 179.488,178.119 180.246,178.376 180.959 C 178.634 181.671,178.999 182.438,179.189 182.663 C 179.379 182.888,179.534 183.166,179.534 183.281 C 179.534 183.397,180.397 185.253,181.452 187.406 C 183.213 190.999,183.642 191.910,184.820 194.560 C 185.041 195.058,185.342 195.641,185.487 195.855 C 185.633 196.069,185.983 196.768,186.266 197.409 C 186.549 198.051,186.888 198.750,187.020 198.964 C 187.502 199.748,189.087 203.280,189.252 203.936 C 189.345 204.308,189.636 204.842,189.898 205.123 C 190.160 205.405,190.517 206.112,190.692 206.696 C 190.867 207.280,191.209 207.971,191.452 208.231 C 191.694 208.492,192.091 209.302,192.334 210.032 C 192.576 210.762,192.930 211.488,193.120 211.646 C 193.310 211.804,193.590 212.425,193.742 213.026 C 193.894 213.627,194.315 214.521,194.677 215.011 C 195.040 215.502,195.337 216.097,195.337 216.333 C 195.337 216.568,195.684 217.274,196.109 217.901 C 196.534 218.528,196.884 219.183,196.886 219.356 C 196.897 220.083,197.765 221.418,198.568 221.945 L 199.431 222.510 199.698 221.812 C 199.845 221.428,200.047 220.823,200.148 220.466 C 200.248 220.110,200.541 219.549,200.798 219.220 C 201.055 218.890,201.406 218.191,201.577 217.665 C 201.749 217.140,202.098 216.440,202.355 216.111 C 202.611 215.781,202.960 215.082,203.132 214.556 C 203.303 214.031,203.659 213.324,203.923 212.984 C 204.187 212.645,204.531 211.888,204.689 211.303 C 204.847 210.717,205.201 209.921,205.477 209.535 C 205.752 209.148,206.108 208.447,206.267 207.978 C 206.426 207.508,206.776 206.809,207.044 206.423 C 207.312 206.038,207.662 205.338,207.821 204.869 C 207.980 204.400,208.340 203.686,208.621 203.283 C 208.902 202.880,209.237 202.081,209.366 201.507 C 209.495 200.934,209.873 200.098,210.207 199.649 C 210.540 199.201,210.893 198.498,210.990 198.086 C 211.088 197.675,211.437 196.976,211.767 196.532 C 212.097 196.088,212.450 195.376,212.551 194.948 C 212.652 194.521,212.900 193.988,213.101 193.764 C 213.302 193.541,213.702 192.674,213.990 191.839 C 214.277 191.004,214.668 190.138,214.858 189.914 C 215.049 189.691,215.407 188.983,215.655 188.342 C 215.903 187.701,216.253 187.001,216.432 186.788 C 216.612 186.574,216.962 185.874,217.210 185.233 C 217.457 184.592,217.810 183.892,217.994 183.679 C 218.178 183.465,218.473 182.839,218.651 182.287 C 218.828 181.735,219.309 180.645,219.720 179.864 C 220.130 179.083,220.466 178.296,220.466 178.114 C 220.466 177.932,220.635 177.644,220.841 177.472 C 221.048 177.301,221.419 176.617,221.667 175.951 C 221.915 175.286,222.331 174.460,222.592 174.117 C 222.853 173.774,223.247 172.871,223.469 172.109 C 223.690 171.348,223.970 170.725,224.091 170.725 C 224.212 170.725,224.502 170.149,224.736 169.445 C 224.970 168.740,225.366 167.895,225.615 167.566 C 225.865 167.238,226.272 166.424,226.520 165.759 C 226.767 165.093,227.136 164.411,227.338 164.243 C 227.541 164.075,227.785 163.518,227.881 163.005 C 227.978 162.492,228.389 161.548,228.795 160.908 C 229.201 160.267,229.534 159.595,229.534 159.414 C 229.534 159.233,229.883 158.534,230.311 157.860 C 230.738 157.186,231.088 156.471,231.088 156.272 C 231.088 156.072,231.335 155.562,231.637 155.138 C 231.939 154.714,232.343 153.845,232.535 153.207 C 232.727 152.569,233.104 151.732,233.372 151.347 C 233.639 150.963,233.989 150.264,234.148 149.794 C 234.307 149.325,234.657 148.625,234.925 148.240 C 235.193 147.854,235.543 147.155,235.702 146.685 C 235.861 146.216,236.217 145.515,236.492 145.129 C 236.768 144.742,237.133 143.906,237.304 143.271 C 237.475 142.636,237.830 141.843,238.093 141.508 C 238.356 141.174,238.712 140.470,238.883 139.945 C 239.054 139.420,239.404 138.720,239.660 138.391 C 239.916 138.061,240.264 137.362,240.433 136.836 C 240.601 136.311,240.889 135.706,241.072 135.492 C 241.254 135.278,241.612 134.462,241.867 133.679 C 242.121 132.895,242.530 132.038,242.775 131.775 C 243.020 131.511,243.296 130.987,243.388 130.609 C 243.480 130.231,243.820 129.514,244.144 129.016 C 245.142 127.479,245.175 126.598,244.297 124.951 C 243.871 124.154,243.523 123.345,243.523 123.154 C 243.523 122.962,243.174 122.237,242.746 121.543 C 242.319 120.848,241.969 120.148,241.969 119.988 C 241.969 119.828,241.619 119.129,241.192 118.434 C 240.764 117.739,240.415 117.040,240.415 116.879 C 240.415 116.719,240.065 116.020,239.637 115.325 C 239.210 114.630,238.860 113.829,238.860 113.544 C 238.860 113.259,238.583 112.617,238.244 112.118 C 237.905 111.619,237.480 110.757,237.300 110.204 C 237.119 109.650,236.762 108.927,236.506 108.598 C 236.249 108.268,235.900 107.569,235.728 107.043 C 235.557 106.518,235.201 105.811,234.937 105.471 C 234.674 105.132,234.329 104.375,234.171 103.790 C 234.013 103.204,233.659 102.408,233.383 102.022 C 233.108 101.635,232.752 100.934,232.593 100.465 C 232.434 99.995,232.085 99.296,231.816 98.910 C 231.548 98.525,231.198 97.825,231.039 97.356 C 230.880 96.887,230.531 96.188,230.263 95.803 C 229.995 95.418,229.619 94.581,229.427 93.943 C 229.235 93.306,228.830 92.437,228.528 92.012 C 228.226 91.588,227.979 91.078,227.979 90.879 C 227.979 90.679,227.630 89.964,227.202 89.290 C 226.775 88.616,226.425 87.937,226.425 87.782 C 226.425 87.626,226.087 86.901,225.675 86.171 C 225.263 85.442,224.847 84.471,224.750 84.015 C 224.654 83.558,224.369 82.917,224.116 82.590 C 223.863 82.263,223.447 81.441,223.192 80.764 C 222.936 80.087,222.641 79.534,222.535 79.534 C 222.429 79.534,222.081 78.834,221.762 77.979 C 221.442 77.124,221.087 76.425,220.974 76.425 C 220.860 76.425,220.518 75.676,220.214 74.761 C 219.909 73.845,219.499 72.963,219.303 72.800 C 219.106 72.637,218.871 72.165,218.780 71.752 C 218.690 71.339,218.347 70.606,218.018 70.122 C 217.690 69.638,217.283 68.825,217.115 68.316 C 216.947 67.806,216.607 67.120,216.360 66.791 C 216.112 66.461,215.705 65.521,215.455 64.702 C 215.204 63.883,214.903 63.212,214.785 63.212 C 214.667 63.212,214.309 62.513,213.990 61.658 C 213.670 60.803,213.315 60.104,213.202 60.104 C 213.088 60.104,212.804 59.527,212.570 58.823 C 212.336 58.119,211.926 57.264,211.658 56.924 C 211.391 56.584,211.092 55.966,210.994 55.550 C 210.896 55.133,210.480 54.196,210.071 53.466 C 209.661 52.736,209.326 52.012,209.326 51.856 C 209.326 51.700,208.977 51.021,208.549 50.347 C 208.122 49.673,207.772 48.958,207.772 48.759 C 207.772 48.559,207.525 48.049,207.223 47.625 C 206.921 47.201,206.519 46.341,206.331 45.715 C 206.142 45.088,205.690 44.137,205.326 43.601 C 204.961 43.065,204.663 42.449,204.662 42.233 C 204.661 42.016,204.312 41.315,203.886 40.674 C 203.460 40.032,203.111 39.331,203.110 39.115 C 203.109 38.898,202.815 38.289,202.456 37.760 C 202.097 37.232,201.731 36.418,201.644 35.952 C 201.556 35.485,201.221 34.748,200.898 34.313 C 200.575 33.878,200.164 33.032,199.985 32.434 C 199.596 31.136,199.142 31.053,198.021 32.077 M199.926 50.594 C 200.098 51.112,200.523 51.978,200.870 52.517 C 201.216 53.056,201.573 53.923,201.663 54.443 C 201.753 54.963,201.993 55.526,202.195 55.694 C 202.398 55.862,202.768 56.544,203.017 57.210 C 203.267 57.875,203.704 58.742,203.989 59.136 C 204.981 60.508,204.325 60.738,199.139 60.837 C 193.162 60.951,192.311 60.218,194.684 57.002 C 195.043 56.515,195.337 55.945,195.337 55.735 C 195.337 55.525,195.669 54.760,196.074 54.036 C 196.480 53.313,196.895 52.381,196.996 51.967 C 197.213 51.081,198.812 49.389,199.284 49.544 C 199.464 49.603,199.753 50.075,199.926 50.594 M207.499 67.422 C 208.755 68.955,209.120 69.505,209.376 70.253 C 209.539 70.726,209.925 71.522,210.234 72.021 C 210.544 72.519,210.868 73.293,210.956 73.740 C 211.043 74.186,211.412 74.989,211.775 75.524 C 212.138 76.059,212.435 76.628,212.435 76.789 C 212.435 76.949,212.658 77.495,212.929 78.002 C 213.824 79.671,213.751 80.140,212.565 80.354 C 210.934 80.647,185.631 80.610,184.849 80.313 C 183.914 79.957,184.184 78.402,185.613 75.907 C 186.151 74.968,187.483 72.000,187.706 71.244 C 187.811 70.887,188.172 70.190,188.508 69.694 C 188.844 69.198,189.119 68.698,189.119 68.584 C 189.119 68.469,189.307 68.088,189.538 67.737 L 189.956 67.098 198.595 67.098 C 205.191 67.098,207.296 67.175,207.499 67.422 M217.551 87.759 C 217.966 88.293,218.510 89.255,218.760 89.896 C 219.010 90.538,219.366 91.237,219.551 91.451 C 219.736 91.665,219.971 92.131,220.074 92.487 C 220.363 93.491,222.289 97.488,222.717 97.971 C 223.013 98.306,223.034 98.523,222.809 98.942 L 222.521 99.482 198.986 99.482 C 172.589 99.482,174.482 99.629,175.142 97.629 C 175.335 97.047,175.685 96.322,175.921 96.019 C 176.158 95.715,176.509 95.000,176.702 94.430 C 176.896 93.860,177.245 93.102,177.478 92.746 C 177.711 92.390,178.118 91.516,178.381 90.803 C 178.644 90.091,178.937 89.449,179.031 89.378 C 179.125 89.307,179.408 88.841,179.659 88.342 C 179.911 87.843,180.233 87.290,180.375 87.111 C 180.577 86.858,184.560 86.788,198.715 86.788 L 216.796 86.788 217.551 87.759 M225.777 105.898 C 226.394 106.351,227.653 108.257,228.071 109.371 C 228.320 110.036,228.686 110.715,228.883 110.878 C 229.080 111.042,229.321 111.547,229.418 112.000 C 229.516 112.453,229.952 113.523,230.389 114.378 C 230.825 115.233,231.336 116.243,231.525 116.622 C 231.871 117.318,231.747 118.105,231.237 118.455 C 230.871 118.705,166.800 118.703,166.407 118.452 C 165.580 117.926,165.738 116.945,167.023 114.637 C 167.798 113.246,169.171 110.148,169.171 109.792 C 169.171 109.571,169.335 109.254,169.534 109.088 C 169.734 108.922,170.195 108.158,170.559 107.390 C 171.134 106.176,171.332 105.979,172.074 105.888 C 173.638 105.695,225.514 105.704,225.777 105.898 M235.559 125.665 C 236.290 126.600,235.965 128.672,234.851 130.171 C 234.528 130.604,234.185 131.295,234.088 131.706 C 233.990 132.118,233.638 132.817,233.305 133.261 C 232.972 133.704,232.614 134.470,232.509 134.963 C 232.404 135.456,231.954 136.355,231.509 136.962 L 230.699 138.064 198.603 138.009 C 170.373 137.960,166.483 137.907,166.307 137.565 C 165.521 136.036,164.249 133.204,164.249 132.982 C 164.249 132.834,164.013 132.413,163.725 132.047 C 163.437 131.680,163.026 130.884,162.811 130.276 C 162.597 129.668,162.260 128.990,162.062 128.769 C 161.564 128.214,161.295 126.565,161.610 126.002 C 162.224 124.904,161.995 124.911,199.269 124.890 L 234.937 124.870 235.559 125.665 M227.347 144.676 C 227.817 145.027,227.823 145.100,227.442 145.777 C 226.800 146.922,226.518 147.473,226.079 148.446 C 225.853 148.944,225.501 149.644,225.296 150.000 C 225.091 150.356,224.416 151.728,223.796 153.049 C 222.302 156.229,224.692 155.955,198.381 155.957 L 175.907 155.959 174.911 154.963 C 174.332 154.384,173.842 153.599,173.740 153.089 C 173.643 152.606,173.295 151.801,172.966 151.300 C 172.637 150.799,172.236 150.005,172.074 149.535 C 171.913 149.066,171.551 148.359,171.270 147.965 C 170.990 147.571,170.678 146.906,170.577 146.487 C 170.477 146.068,170.293 145.595,170.168 145.436 C 169.934 145.137,170.266 144.751,170.984 144.485 C 171.994 144.111,226.840 144.297,227.347 144.676 M218.411 162.869 C 218.727 163.700,218.525 164.784,217.903 165.597 C 217.652 165.924,217.242 166.716,216.992 167.358 C 216.742 167.999,216.388 168.698,216.205 168.912 C 216.023 169.126,215.670 169.847,215.421 170.515 C 214.634 172.624,215.348 172.539,198.489 172.539 L 183.713 172.539 182.785 171.405 C 182.274 170.782,181.675 169.740,181.453 169.090 C 181.232 168.440,180.890 167.775,180.695 167.613 C 180.499 167.450,180.140 166.715,179.897 165.977 C 179.653 165.240,179.292 164.387,179.093 164.082 C 178.875 163.745,178.800 163.260,178.902 162.851 L 179.072 162.176 198.610 162.176 L 218.148 162.176 218.411 162.869 M210.532 179.080 C 210.847 179.590,210.617 180.886,210.076 181.646 C 209.804 182.027,209.507 182.729,209.415 183.204 C 209.324 183.679,209.005 184.413,208.705 184.836 C 208.406 185.259,207.983 186.075,207.765 186.650 C 207.070 188.485,206.643 188.574,198.543 188.589 L 191.517 188.601 190.464 187.459 C 189.872 186.817,189.285 185.849,189.124 185.251 C 188.966 184.666,188.551 183.764,188.201 183.249 C 187.851 182.733,187.562 182.123,187.559 181.894 C 187.556 181.664,187.323 180.969,187.042 180.349 C 186.761 179.729,186.595 179.117,186.674 178.989 C 186.914 178.601,210.291 178.690,210.532 179.080 M202.841 195.320 C 203.256 196.095,203.171 196.524,202.332 197.887 C 201.904 198.582,201.554 199.286,201.554 199.451 C 201.554 199.616,201.267 200.207,200.915 200.764 C 200.563 201.321,200.141 202.312,199.976 202.965 C 199.812 203.619,199.556 204.229,199.408 204.320 C 198.988 204.580,197.538 202.818,197.012 201.407 C 196.750 200.704,196.331 199.860,196.080 199.530 C 195.830 199.201,195.487 198.501,195.319 197.976 C 195.150 197.451,194.846 196.830,194.644 196.598 C 194.409 196.329,194.337 195.928,194.446 195.497 L 194.616 194.819 198.594 194.819 C 202.262 194.819,202.593 194.858,202.841 195.320 " stroke="none" fill="#ec2229" fill-rule="evenodd"></path><path id="path1" d="M0.000 129.534 L 0.000 259.067 200.000 259.067 L 400.000 259.067 400.000 129.534 L 400.000 0.000 200.000 0.000 L 0.000 0.000 0.000 129.534 M199.985 32.434 C 200.164 33.032,200.575 33.878,200.898 34.313 C 201.221 34.748,201.556 35.485,201.644 35.952 C 201.731 36.418,202.097 37.232,202.456 37.760 C 202.815 38.289,203.109 38.898,203.110 39.115 C 203.111 39.331,203.460 40.032,203.886 40.674 C 204.312 41.315,204.661 42.016,204.662 42.233 C 204.663 42.449,204.961 43.065,205.326 43.601 C 205.690 44.137,206.142 45.088,206.331 45.715 C 206.519 46.341,206.921 47.201,207.223 47.625 C 207.525 48.049,207.772 48.559,207.772 48.759 C 207.772 48.958,208.122 49.673,208.549 50.347 C 208.977 51.021,209.326 51.700,209.326 51.856 C 209.326 52.012,209.661 52.736,210.071 53.466 C 210.480 54.196,210.896 55.133,210.994 55.550 C 211.092 55.966,211.391 56.584,211.658 56.924 C 211.926 57.264,212.336 58.119,212.570 58.823 C 212.804 59.527,213.088 60.104,213.202 60.104 C 213.315 60.104,213.670 60.803,213.990 61.658 C 214.309 62.513,214.667 63.212,214.785 63.212 C 214.903 63.212,215.204 63.883,215.455 64.702 C 215.705 65.521,216.112 66.461,216.360 66.791 C 216.607 67.120,216.947 67.806,217.115 68.316 C 217.283 68.825,217.690 69.638,218.018 70.122 C 218.347 70.606,218.690 71.339,218.780 71.752 C 218.871 72.165,219.106 72.637,219.303 72.800 C 219.499 72.963,219.909 73.845,220.214 74.761 C 220.518 75.676,220.860 76.425,220.974 76.425 C 221.087 76.425,221.442 77.124,221.762 77.979 C 222.081 78.834,222.429 79.534,222.535 79.534 C 222.641 79.534,222.936 80.087,223.192 80.764 C 223.447 81.441,223.863 82.263,224.116 82.590 C 224.369 82.917,224.654 83.558,224.750 84.015 C 224.847 84.471,225.263 85.442,225.675 86.171 C 226.087 86.901,226.425 87.626,226.425 87.782 C 226.425 87.937,226.775 88.616,227.202 89.290 C 227.630 89.964,227.979 90.679,227.979 90.879 C 227.979 91.078,228.226 91.588,228.528 92.012 C 228.830 92.437,229.235 93.306,229.427 93.943 C 229.619 94.581,229.995 95.418,230.263 95.803 C 230.531 96.188,230.880 96.887,231.039 97.356 C 231.198 97.825,231.548 98.525,231.816 98.910 C 232.085 99.296,232.434 99.995,232.593 100.465 C 232.752 100.934,233.108 101.635,233.383 102.022 C 233.659 102.408,234.013 103.204,234.171 103.790 C 234.329 104.375,234.674 105.132,234.937 105.471 C 235.201 105.811,235.557 106.518,235.728 107.043 C 235.900 107.569,236.249 108.268,236.506 108.598 C 236.762 108.927,237.119 109.650,237.300 110.204 C 237.480 110.757,237.905 111.619,238.244 112.118 C 238.583 112.617,238.860 113.259,238.860 113.544 C 238.860 113.829,239.210 114.630,239.637 115.325 C 240.065 116.020,240.415 116.719,240.415 116.879 C 240.415 117.040,240.764 117.739,241.192 118.434 C 241.619 119.129,241.969 119.828,241.969 119.988 C 241.969 120.148,242.319 120.848,242.746 121.543 C 243.174 122.237,243.523 122.962,243.523 123.154 C 243.523 123.345,243.871 124.154,244.297 124.951 C 245.175 126.598,245.142 127.479,244.144 129.016 C 243.820 129.514,243.480 130.231,243.388 130.609 C 243.296 130.987,243.020 131.511,242.775 131.775 C 242.530 132.038,242.121 132.895,241.867 133.679 C 241.612 134.462,241.254 135.278,241.072 135.492 C 240.889 135.706,240.601 136.311,240.433 136.836 C 240.264 137.362,239.916 138.061,239.660 138.391 C 239.404 138.720,239.054 139.420,238.883 139.945 C 238.712 140.470,238.356 141.174,238.093 141.508 C 237.830 141.843,237.475 142.636,237.304 143.271 C 237.133 143.906,236.768 144.742,236.492 145.129 C 236.217 145.515,235.861 146.216,235.702 146.685 C 235.543 147.155,235.193 147.854,234.925 148.240 C 234.657 148.625,234.307 149.325,234.148 149.794 C 233.989 150.264,233.639 150.963,233.372 151.347 C 233.104 151.732,232.727 152.569,232.535 153.207 C 232.343 153.845,231.939 154.714,231.637 155.138 C 231.335 155.562,231.088 156.072,231.088 156.272 C 231.088 156.471,230.738 157.186,230.311 157.860 C 229.883 158.534,229.534 159.233,229.534 159.414 C 229.534 159.595,229.201 160.267,228.795 160.908 C 228.389 161.548,227.978 162.492,227.881 163.005 C 227.785 163.518,227.541 164.075,227.338 164.243 C 227.136 164.411,226.767 165.093,226.520 165.759 C 226.272 166.424,225.865 167.238,225.615 167.566 C 225.366 167.895,224.970 168.740,224.736 169.445 C 224.502 170.149,224.212 170.725,224.091 170.725 C 223.970 170.725,223.690 171.348,223.469 172.109 C 223.247 172.871,222.853 173.774,222.592 174.117 C 222.331 174.460,221.915 175.286,221.667 175.951 C 221.419 176.617,221.048 177.301,220.841 177.472 C 220.635 177.644,220.466 177.932,220.466 178.114 C 220.466 178.296,220.130 179.083,219.720 179.864 C 219.309 180.645,218.828 181.735,218.651 182.287 C 218.473 182.839,218.178 183.465,217.994 183.679 C 217.810 183.892,217.457 184.592,217.210 185.233 C 216.962 185.874,216.612 186.574,216.432 186.788 C 216.253 187.001,215.903 187.701,215.655 188.342 C 215.407 188.983,215.049 189.691,214.858 189.914 C 214.668 190.138,214.277 191.004,213.990 191.839 C 213.702 192.674,213.302 193.541,213.101 193.764 C 212.900 193.988,212.652 194.521,212.551 194.948 C 212.450 195.376,212.097 196.088,211.767 196.532 C 211.437 196.976,211.088 197.675,210.990 198.086 C 210.893 198.498,210.540 199.201,210.207 199.649 C 209.873 200.098,209.495 200.934,209.366 201.507 C 209.237 202.081,208.902 202.880,208.621 203.283 C 208.340 203.686,207.980 204.400,207.821 204.869 C 207.662 205.338,207.312 206.038,207.044 206.423 C 206.776 206.809,206.426 207.508,206.267 207.978 C 206.108 208.447,205.752 209.148,205.477 209.535 C 205.201 209.921,204.847 210.717,204.689 211.303 C 204.531 211.888,204.187 212.645,203.923 212.984 C 203.659 213.324,203.303 214.031,203.132 214.556 C 202.960 215.082,202.611 215.781,202.355 216.111 C 202.098 216.440,201.749 217.140,201.577 217.665 C 201.406 218.191,201.055 218.890,200.798 219.220 C 200.541 219.549,200.248 220.110,200.148 220.466 C 200.047 220.823,199.845 221.428,199.698 221.812 L 199.431 222.510 198.568 221.945 C 197.765 221.418,196.897 220.083,196.886 219.356 C 196.884 219.183,196.534 218.528,196.109 217.901 C 195.684 217.274,195.337 216.568,195.337 216.333 C 195.337 216.097,195.040 215.502,194.677 215.011 C 194.315 214.521,193.894 213.627,193.742 213.026 C 193.590 212.425,193.310 211.804,193.120 211.646 C 192.930 211.488,192.576 210.762,192.334 210.032 C 192.091 209.302,191.694 208.492,191.452 208.231 C 191.209 207.971,190.867 207.280,190.692 206.696 C 190.517 206.112,190.160 205.405,189.898 205.123 C 189.636 204.842,189.345 204.308,189.252 203.936 C 189.087 203.280,187.502 199.748,187.020 198.964 C 186.888 198.750,186.549 198.051,186.266 197.409 C 185.983 196.768,185.633 196.069,185.487 195.855 C 185.342 195.641,185.041 195.058,184.820 194.560 C 183.642 191.910,183.213 190.999,181.452 187.406 C 180.397 185.253,179.534 183.397,179.534 183.281 C 179.534 183.166,179.379 182.888,179.189 182.663 C 178.999 182.438,178.634 181.671,178.376 180.959 C 178.119 180.246,177.773 179.488,177.608 179.275 C 177.162 178.697,173.575 171.161,173.575 170.802 C 173.575 170.683,173.300 170.181,172.964 169.684 C 172.628 169.188,172.265 168.491,172.157 168.135 C 172.050 167.778,171.713 167.079,171.409 166.580 C 170.868 165.691,170.152 164.108,169.127 161.528 C 168.843 160.816,168.400 160.000,168.142 159.715 C 167.884 159.430,167.592 158.815,167.493 158.349 C 167.394 157.882,167.047 157.183,166.721 156.794 C 166.396 156.406,166.041 155.683,165.933 155.188 C 165.825 154.693,165.465 153.858,165.132 153.331 C 164.800 152.805,164.447 152.044,164.348 151.641 C 164.248 151.237,163.904 150.557,163.584 150.130 C 163.263 149.702,162.869 148.857,162.708 148.251 C 162.547 147.646,162.321 147.150,162.206 147.150 C 161.986 147.150,161.296 145.673,160.995 144.560 C 160.898 144.203,160.662 143.731,160.468 143.510 C 160.275 143.290,159.936 142.596,159.715 141.969 C 159.494 141.342,159.144 140.642,158.938 140.415 C 158.732 140.187,158.387 139.503,158.173 138.895 C 157.959 138.287,157.556 137.501,157.277 137.147 C 156.999 136.794,156.696 136.162,156.605 135.744 C 156.513 135.326,155.849 133.845,155.131 132.453 C 153.072 128.467,152.323 126.495,152.738 126.151 C 152.927 125.994,153.219 125.437,153.386 124.915 C 153.553 124.392,153.894 123.556,154.143 123.057 C 154.941 121.457,157.957 115.219,158.916 113.185 C 159.427 112.102,159.845 111.097,159.845 110.953 C 159.845 110.809,160.080 110.392,160.368 110.026 C 160.656 109.660,161.062 108.879,161.269 108.290 C 161.477 107.702,161.875 106.931,162.153 106.577 C 162.431 106.224,162.740 105.564,162.839 105.111 C 162.939 104.659,163.278 103.877,163.593 103.375 C 163.908 102.872,164.251 102.119,164.354 101.700 C 164.458 101.281,164.772 100.616,165.053 100.222 C 165.333 99.827,165.693 99.121,165.852 98.651 C 166.011 98.182,166.359 97.485,166.625 97.103 C 166.892 96.720,167.279 95.926,167.487 95.337 C 167.695 94.748,168.086 93.953,168.356 93.571 C 168.626 93.189,168.928 92.502,169.027 92.046 C 169.126 91.589,169.434 90.927,169.713 90.573 C 169.991 90.219,170.394 89.433,170.608 88.825 C 170.823 88.217,171.161 87.539,171.360 87.319 C 171.559 87.098,171.972 86.249,172.277 85.432 C 172.582 84.616,172.937 83.882,173.067 83.802 C 173.196 83.722,173.434 83.167,173.595 82.569 C 173.756 81.971,174.113 81.165,174.389 80.778 C 174.664 80.391,175.020 79.691,175.179 79.221 C 175.338 78.752,175.686 78.055,175.952 77.673 C 176.218 77.290,176.610 76.484,176.822 75.881 C 177.035 75.279,177.314 74.659,177.443 74.504 C 177.572 74.348,177.929 73.581,178.237 72.797 C 178.545 72.014,178.945 71.198,179.125 70.984 C 179.306 70.771,179.656 70.071,179.904 69.430 C 180.152 68.789,180.503 68.089,180.686 67.876 C 180.868 67.662,181.233 66.904,181.496 66.192 C 181.760 65.479,182.125 64.742,182.309 64.554 C 182.492 64.366,182.642 64.083,182.642 63.925 C 182.642 63.767,183.473 61.939,184.488 59.863 C 185.502 57.787,186.599 55.505,186.924 54.793 C 187.997 52.443,188.355 51.691,188.712 51.036 C 188.907 50.680,189.257 49.981,189.490 49.482 C 189.723 48.983,190.070 48.284,190.261 47.927 C 191.031 46.495,192.203 43.872,192.362 43.225 C 192.454 42.847,192.745 42.308,193.007 42.027 C 193.269 41.746,193.626 41.038,193.801 40.454 C 193.976 39.870,194.318 39.179,194.562 38.917 C 194.805 38.656,195.150 37.983,195.329 37.421 C 195.507 36.859,195.858 36.040,196.108 35.601 C 196.358 35.162,196.711 34.353,196.892 33.805 C 197.640 31.538,199.473 30.726,199.985 32.434 M198.069 50.325 C 197.581 50.813,197.098 51.552,196.996 51.967 C 196.895 52.381,196.480 53.313,196.074 54.036 C 195.669 54.760,195.337 55.525,195.337 55.735 C 195.337 55.945,195.043 56.515,194.684 57.002 C 192.311 60.218,193.162 60.951,199.139 60.837 C 204.325 60.738,204.981 60.508,203.989 59.136 C 203.704 58.742,203.267 57.875,203.017 57.210 C 202.768 56.544,202.398 55.862,202.195 55.694 C 201.993 55.526,201.753 54.963,201.663 54.443 C 201.573 53.923,201.216 53.056,200.870 52.517 C 200.523 51.978,200.098 51.112,199.926 50.594 C 199.503 49.327,199.122 49.271,198.069 50.325 M189.538 67.737 C 189.307 68.088,189.119 68.469,189.119 68.584 C 189.119 68.698,188.844 69.198,188.508 69.694 C 188.172 70.190,187.811 70.887,187.706 71.244 C 187.483 72.000,186.151 74.968,185.613 75.907 C 184.184 78.402,183.914 79.957,184.849 80.313 C 185.631 80.610,210.934 80.647,212.565 80.354 C 213.751 80.140,213.824 79.671,212.929 78.002 C 212.658 77.495,212.435 76.949,212.435 76.789 C 212.435 76.628,212.138 76.059,211.775 75.524 C 211.412 74.989,211.043 74.186,210.956 73.740 C 210.868 73.293,210.544 72.519,210.234 72.021 C 209.925 71.522,209.539 70.726,209.376 70.253 C 209.120 69.505,208.755 68.955,207.499 67.422 C 207.296 67.175,205.191 67.098,198.595 67.098 L 189.956 67.098 189.538 67.737 M180.375 87.111 C 180.233 87.290,179.911 87.843,179.659 88.342 C 179.408 88.841,179.125 89.307,179.031 89.378 C 178.937 89.449,178.644 90.091,178.381 90.803 C 178.118 91.516,177.711 92.390,177.478 92.746 C 177.245 93.102,176.896 93.860,176.702 94.430 C 176.509 95.000,176.158 95.715,175.921 96.019 C 175.685 96.322,175.335 97.047,175.142 97.629 C 174.482 99.629,172.589 99.482,198.986 99.482 L 222.521 99.482 222.809 98.942 C 223.034 98.523,223.013 98.306,222.717 97.971 C 222.289 97.488,220.363 93.491,220.074 92.487 C 219.971 92.131,219.736 91.665,219.551 91.451 C 219.366 91.237,219.010 90.538,218.760 89.896 C 218.510 89.255,217.966 88.293,217.551 87.759 L 216.796 86.788 198.715 86.788 C 184.560 86.788,180.577 86.858,180.375 87.111 M172.074 105.888 C 171.332 105.979,171.134 106.176,170.559 107.390 C 170.195 108.158,169.734 108.922,169.534 109.088 C 169.335 109.254,169.171 109.571,169.171 109.792 C 169.171 110.148,167.798 113.246,167.023 114.637 C 165.738 116.945,165.580 117.926,166.407 118.452 C 166.800 118.703,230.871 118.705,231.237 118.455 C 231.747 118.105,231.871 117.318,231.525 116.622 C 231.336 116.243,230.825 115.233,230.389 114.378 C 229.952 113.523,229.516 112.453,229.418 112.000 C 229.321 111.547,229.080 111.042,228.883 110.878 C 228.686 110.715,228.320 110.036,228.071 109.371 C 227.653 108.257,226.394 106.351,225.777 105.898 C 225.514 105.704,173.638 105.695,172.074 105.888 M162.736 125.223 C 161.341 125.728,160.990 127.574,162.062 128.769 C 162.260 128.990,162.597 129.668,162.811 130.276 C 163.026 130.884,163.437 131.680,163.725 132.047 C 164.013 132.413,164.249 132.834,164.249 132.982 C 164.249 133.204,165.521 136.036,166.307 137.565 C 166.483 137.907,170.373 137.960,198.603 138.009 L 230.699 138.064 231.509 136.962 C 231.954 136.355,232.404 135.456,232.509 134.963 C 232.614 134.470,232.972 133.704,233.305 133.261 C 233.638 132.817,233.990 132.118,234.088 131.706 C 234.185 131.295,234.528 130.604,234.851 130.171 C 235.965 128.672,236.290 126.600,235.559 125.665 L 234.937 124.870 199.269 124.890 C 172.066 124.905,163.396 124.984,162.736 125.223 M170.984 144.485 C 170.266 144.751,169.934 145.137,170.168 145.436 C 170.293 145.595,170.477 146.068,170.577 146.487 C 170.678 146.906,170.990 147.571,171.270 147.965 C 171.551 148.359,171.913 149.066,172.074 149.535 C 172.236 150.005,172.637 150.799,172.966 151.300 C 173.295 151.801,173.643 152.606,173.740 153.089 C 173.842 153.599,174.332 154.384,174.911 154.963 L 175.907 155.959 198.381 155.957 C 224.692 155.955,222.302 156.229,223.796 153.049 C 224.416 151.728,225.091 150.356,225.296 150.000 C 225.501 149.644,225.853 148.944,226.079 148.446 C 226.518 147.473,226.800 146.922,227.442 145.777 C 228.311 144.230,229.635 144.298,199.109 144.321 C 183.854 144.332,171.198 144.406,170.984 144.485 M178.902 162.851 C 178.800 163.260,178.875 163.745,179.093 164.082 C 179.292 164.387,179.653 165.240,179.897 165.977 C 180.140 166.715,180.499 167.450,180.695 167.613 C 180.890 167.775,181.232 168.440,181.453 169.090 C 181.675 169.740,182.274 170.782,182.785 171.405 L 183.713 172.539 198.489 172.539 C 215.348 172.539,214.634 172.624,215.421 170.515 C 215.670 169.847,216.023 169.126,216.205 168.912 C 216.388 168.698,216.742 167.999,216.992 167.358 C 217.242 166.716,217.652 165.924,217.903 165.597 C 218.525 164.784,218.727 163.700,218.411 162.869 L 218.148 162.176 198.610 162.176 L 179.072 162.176 178.902 162.851 M186.674 178.989 C 186.595 179.117,186.761 179.729,187.042 180.349 C 187.323 180.969,187.556 181.664,187.559 181.894 C 187.562 182.123,187.851 182.733,188.201 183.249 C 188.551 183.764,188.966 184.666,189.124 185.251 C 189.285 185.849,189.872 186.817,190.464 187.459 L 191.517 188.601 198.543 188.589 C 206.643 188.574,207.070 188.485,207.765 186.650 C 207.983 186.075,208.406 185.259,208.705 184.836 C 209.005 184.413,209.324 183.679,209.415 183.204 C 209.507 182.729,209.804 182.027,210.076 181.646 C 210.617 180.886,210.847 179.590,210.532 179.080 C 210.291 178.690,186.914 178.601,186.674 178.989 M194.446 195.497 C 194.337 195.928,194.409 196.329,194.644 196.598 C 194.846 196.830,195.150 197.451,195.319 197.976 C 195.487 198.501,195.830 199.201,196.080 199.530 C 196.331 199.860,196.750 200.704,197.012 201.407 C 197.538 202.818,198.988 204.580,199.408 204.320 C 199.556 204.229,199.812 203.619,199.976 202.965 C 200.141 202.312,200.563 201.321,200.915 200.764 C 201.267 200.207,201.554 199.616,201.554 199.451 C 201.554 199.286,201.904 198.582,202.332 197.887 C 203.997 195.181,203.556 194.819,198.594 194.819 L 194.616 194.819 194.446 195.497 " stroke="none" fill="#fcfcfc" fill-rule="evenodd"></path></g></svg>