<svg id="svg" version="1.1" xmlns="http://www.w3.org/2000/svg" xmlns:xlink="http://www.w3.org/1999/xlink" width="400" height="258.91472868217056" viewBox="0, 0, 400,258.91472868217056"><g id="svgg"><path id="path0" d="M197.136 40.771 C 197.057 40.852,195.891 41.037,194.546 41.183 C 190.269 41.646,187.441 42.156,186.124 42.701 C 185.420 42.991,184.189 43.411,183.389 43.633 C 182.588 43.855,181.793 44.205,181.622 44.411 C 181.451 44.617,180.974 44.860,180.561 44.950 C 180.148 45.041,179.427 45.374,178.959 45.691 C 178.492 46.008,177.555 46.534,176.878 46.861 C 176.201 47.188,175.648 47.552,175.648 47.670 C 175.648 47.788,175.369 47.981,175.028 48.100 C 173.701 48.563,167.496 54.482,165.704 56.995 C 163.904 59.518,162.739 61.328,162.579 61.852 C 162.481 62.173,162.306 62.435,162.191 62.435 C 162.075 62.435,161.721 63.047,161.402 63.795 C 161.084 64.543,160.680 65.330,160.503 65.544 C 160.327 65.758,159.978 66.685,159.727 67.604 C 159.476 68.523,159.116 69.513,158.928 69.806 C 158.740 70.098,158.409 71.269,158.193 72.409 C 157.978 73.549,157.617 75.268,157.393 76.229 C 156.717 79.121,156.660 174.263,157.333 176.684 C 157.591 177.610,157.978 179.294,158.195 180.426 C 158.411 181.559,158.759 182.816,158.969 183.220 C 159.178 183.624,159.581 184.709,159.866 185.630 C 160.151 186.552,160.477 187.306,160.591 187.306 C 160.705 187.306,160.930 187.745,161.091 188.281 C 161.252 188.817,161.678 189.656,162.039 190.145 C 162.399 190.633,162.694 191.181,162.694 191.363 C 162.694 191.544,163.044 192.090,163.472 192.577 C 163.899 193.064,164.249 193.581,164.249 193.727 C 164.249 193.971,164.907 194.855,166.770 197.111 C 167.676 198.208,170.976 201.498,171.939 202.264 C 173.150 203.227,175.295 204.761,176.202 205.311 C 176.671 205.596,177.526 206.109,178.100 206.450 C 178.675 206.792,179.203 207.154,179.275 207.254 C 179.346 207.355,180.045 207.644,180.829 207.897 C 181.613 208.150,182.446 208.524,182.682 208.729 C 182.917 208.934,183.830 209.269,184.711 209.475 C 185.591 209.680,186.856 210.080,187.521 210.362 C 191.261 211.950,204.197 211.793,209.109 210.100 C 210.343 209.674,211.532 209.326,211.751 209.326 C 211.970 209.326,212.699 209.034,213.372 208.676 C 214.045 208.318,215.042 207.892,215.588 207.728 C 216.134 207.565,216.580 207.327,216.580 207.200 C 216.580 207.073,217.017 206.766,217.552 206.518 C 222.591 204.178,229.614 197.386,232.663 191.904 C 233.119 191.085,233.583 190.415,233.694 190.415 C 233.806 190.415,233.977 190.036,234.075 189.573 C 234.173 189.109,234.523 188.371,234.853 187.932 C 235.183 187.493,235.536 186.677,235.638 186.118 C 235.740 185.560,236.065 184.759,236.360 184.339 C 236.662 183.909,237.094 182.547,237.346 181.230 C 237.592 179.941,238.031 177.895,238.321 176.684 C 238.841 174.511,238.848 173.854,238.849 126.554 C 238.851 76.913,238.840 76.379,237.844 73.757 C 237.695 73.365,237.448 72.263,237.296 71.310 C 237.143 70.356,236.774 69.180,236.476 68.697 C 236.177 68.214,235.836 67.303,235.719 66.672 C 235.601 66.041,235.210 65.140,234.851 64.668 C 234.491 64.197,234.192 63.647,234.186 63.447 C 234.180 63.247,233.652 62.267,233.012 61.269 C 232.373 60.272,231.649 59.119,231.404 58.708 C 230.270 56.804,226.063 51.961,225.069 51.416 C 224.680 51.202,224.026 50.709,223.617 50.320 C 222.121 48.896,220.172 47.490,218.394 46.551 C 217.753 46.213,216.878 45.749,216.451 45.522 C 214.362 44.409,212.481 43.569,211.696 43.399 C 211.218 43.296,210.285 42.970,209.623 42.675 C 208.507 42.177,206.410 41.794,201.554 41.199 C 200.486 41.068,199.087 40.885,198.446 40.792 C 197.804 40.700,197.215 40.690,197.136 40.771 " stroke="none" fill="#ec1c2c" fill-rule="evenodd"></path><path id="path1" d="M0.000 129.534 L 0.000 259.067 200.000 259.067 L 400.000 259.067 400.000 129.534 L 400.000 0.000 200.000 0.000 L 0.000 0.000 0.000 129.534 M201.554 41.199 C 206.410 41.794,208.507 42.177,209.623 42.675 C 210.285 42.970,211.218 43.296,211.696 43.399 C 212.481 43.569,214.362 44.409,216.451 45.522 C 216.878 45.749,217.753 46.213,218.394 46.551 C 220.172 47.490,222.121 48.896,223.617 50.320 C 224.026 50.709,224.680 51.202,225.069 51.416 C 226.063 51.961,230.270 56.804,231.404 58.708 C 231.649 59.119,232.373 60.272,233.012 61.269 C 233.652 62.267,234.180 63.247,234.186 63.447 C 234.192 63.647,234.491 64.197,234.851 64.668 C 235.210 65.140,235.601 66.041,235.719 66.672 C 235.836 67.303,236.177 68.214,236.476 68.697 C 236.774 69.180,237.143 70.356,237.296 71.310 C 237.448 72.263,237.695 73.365,237.844 73.757 C 238.840 76.379,238.851 76.913,238.849 126.554 C 238.848 173.854,238.841 174.511,238.321 176.684 C 238.031 177.895,237.592 179.941,237.346 181.230 C 237.094 182.547,236.662 183.909,236.360 184.339 C 236.065 184.759,235.740 185.560,235.638 186.118 C 235.536 186.677,235.183 187.493,234.853 187.932 C 234.523 188.371,234.173 189.109,234.075 189.573 C 233.977 190.036,233.806 190.415,233.694 190.415 C 233.583 190.415,233.119 191.085,232.663 191.904 C 230.454 195.877,226.313 200.432,221.710 203.953 C 220.672 204.747,218.559 206.051,217.552 206.518 C 217.017 206.766,216.580 207.073,216.580 207.200 C 216.580 207.327,216.134 207.565,215.588 207.728 C 215.042 207.892,214.045 208.318,213.372 208.676 C 212.699 209.034,211.970 209.326,211.751 209.326 C 211.532 209.326,210.343 209.674,209.109 210.100 C 204.197 211.793,191.261 211.950,187.521 210.362 C 186.856 210.080,185.591 209.680,184.711 209.475 C 183.830 209.269,182.917 208.934,182.682 208.729 C 182.446 208.524,181.613 208.150,180.829 207.897 C 180.045 207.644,179.346 207.355,179.275 207.254 C 179.203 207.154,178.675 206.792,178.100 206.450 C 177.526 206.109,176.671 205.596,176.202 205.311 C 175.295 204.761,173.150 203.227,171.939 202.264 C 170.976 201.498,167.676 198.208,166.770 197.111 C 164.907 194.855,164.249 193.971,164.249 193.727 C 164.249 193.581,163.899 193.064,163.472 192.577 C 163.044 192.090,162.694 191.544,162.694 191.363 C 162.694 191.181,162.399 190.633,162.039 190.145 C 161.678 189.656,161.252 188.817,161.091 188.281 C 160.930 187.745,160.705 187.306,160.591 187.306 C 160.477 187.306,160.151 186.552,159.866 185.630 C 159.581 184.709,159.178 183.624,158.969 183.220 C 158.759 182.816,158.411 181.559,158.195 180.426 C 157.978 179.294,157.591 177.610,157.333 176.684 C 156.660 174.263,156.717 79.121,157.393 76.229 C 157.617 75.268,157.978 73.549,158.193 72.409 C 158.409 71.269,158.740 70.098,158.928 69.806 C 159.116 69.513,159.476 68.523,159.727 67.604 C 159.978 66.685,160.327 65.758,160.503 65.544 C 160.680 65.330,161.084 64.543,161.402 63.795 C 161.721 63.047,162.075 62.435,162.191 62.435 C 162.306 62.435,162.481 62.173,162.579 61.852 C 162.739 61.328,163.904 59.518,165.704 56.995 C 167.496 54.482,173.701 48.563,175.028 48.100 C 175.369 47.981,175.648 47.788,175.648 47.670 C 175.648 47.552,176.201 47.188,176.878 46.861 C 177.555 46.534,178.492 46.008,178.959 45.691 C 179.427 45.374,180.148 45.041,180.561 44.950 C 180.974 44.860,181.451 44.617,181.622 44.411 C 181.793 44.205,182.588 43.855,183.389 43.633 C 184.189 43.411,185.420 42.991,186.124 42.701 C 187.441 42.156,190.269 41.646,194.546 41.183 C 195.891 41.037,197.057 40.852,197.136 40.771 C 197.215 40.690,197.804 40.700,198.446 40.792 C 199.087 40.885,200.486 41.068,201.554 41.199 " stroke="none" fill="#fcfcfc" fill-rule="evenodd"></path></g></svg>