<svg id="svg" version="1.1" xmlns="http://www.w3.org/2000/svg" xmlns:xlink="http://www.w3.org/1999/xlink" width="400" height="258.91472868217056" viewBox="0, 0, 400,258.91472868217056"><g id="svgg"><path id="path0" d="M80.052 41.959 C 78.983 42.076,77.190 42.476,76.068 42.848 C 74.946 43.219,73.835 43.523,73.600 43.523 C 73.365 43.523,72.477 43.869,71.626 44.292 C 70.774 44.715,69.936 45.065,69.763 45.070 C 69.590 45.074,68.897 45.427,68.223 45.855 C 67.548 46.282,66.808 46.632,66.576 46.632 C 66.345 46.632,65.764 46.982,65.285 47.409 C 64.806 47.837,64.279 48.187,64.113 48.187 C 63.947 48.187,63.589 48.432,63.318 48.731 C 63.047 49.031,62.520 49.434,62.147 49.627 C 60.643 50.404,56.068 54.917,54.379 57.289 C 54.069 57.724,53.540 58.378,53.203 58.741 C 52.866 59.105,52.591 59.546,52.591 59.721 C 52.591 59.897,52.421 60.181,52.213 60.354 C 51.782 60.711,50.001 63.929,49.484 65.285 C 49.293 65.784,48.980 66.378,48.788 66.605 C 48.596 66.832,48.266 67.680,48.055 68.490 C 47.844 69.299,47.499 70.225,47.288 70.546 C 47.078 70.868,46.788 71.956,46.645 72.965 C 46.502 73.974,46.149 75.810,45.861 77.047 C 45.280 79.537,45.012 173.900,45.580 175.759 C 45.714 176.196,46.010 177.545,46.239 178.756 C 46.923 182.385,48.158 186.293,49.026 187.576 C 49.271 187.939,49.609 188.638,49.777 189.131 C 49.945 189.623,50.297 190.304,50.560 190.644 C 50.822 190.984,51.036 191.392,51.037 191.550 C 51.037 191.709,51.565 192.597,52.211 193.523 C 52.856 194.449,53.576 195.499,53.809 195.855 C 54.301 196.605,54.706 197.051,57.447 199.870 C 60.545 203.056,64.765 206.371,66.372 206.881 C 66.629 206.963,66.839 207.125,66.839 207.242 C 66.839 207.358,67.451 207.652,68.199 207.895 C 68.948 208.138,69.744 208.502,69.970 208.703 C 70.196 208.905,71.012 209.249,71.783 209.468 C 72.555 209.687,73.595 210.084,74.093 210.350 C 74.592 210.616,75.699 210.913,76.554 211.010 C 77.409 211.107,78.692 211.343,79.404 211.534 C 83.448 212.621,87.337 212.742,91.361 211.904 C 92.764 211.612,94.845 211.216,95.984 211.024 C 97.124 210.832,98.756 210.374,99.611 210.007 C 100.466 209.639,101.344 209.336,101.562 209.333 C 101.779 209.329,102.197 209.158,102.491 208.953 C 102.785 208.747,103.539 208.373,104.168 208.122 C 104.797 207.871,105.777 207.354,106.347 206.974 C 106.917 206.594,107.646 206.202,107.966 206.103 C 108.287 206.004,108.549 205.824,108.549 205.703 C 108.549 205.582,108.986 205.219,109.521 204.896 C 110.937 204.040,113.482 201.934,114.951 200.400 C 117.240 198.011,117.683 197.506,118.084 196.828 C 118.316 196.435,118.595 196.114,118.703 196.114 C 118.812 196.114,119.139 195.648,119.430 195.078 C 119.721 194.508,120.055 194.041,120.173 194.041 C 120.291 194.041,120.596 193.579,120.851 193.013 C 121.107 192.447,121.532 191.788,121.798 191.548 C 122.063 191.308,122.280 190.971,122.280 190.799 C 122.280 190.628,122.623 189.801,123.043 188.961 C 124.269 186.508,125.159 184.188,125.556 182.413 C 125.759 181.504,126.152 180.084,126.431 179.258 C 127.357 176.508,127.460 171.246,127.453 126.813 C 127.447 81.638,127.364 77.710,126.331 74.093 C 125.985 72.882,125.621 71.429,125.523 70.864 C 125.425 70.299,125.166 69.493,124.949 69.073 C 124.732 68.653,124.333 67.666,124.063 66.880 C 123.792 66.094,123.413 65.268,123.220 65.044 C 123.027 64.820,122.662 64.084,122.410 63.407 C 122.157 62.730,121.864 62.176,121.758 62.176 C 121.652 62.176,121.419 61.823,121.241 61.392 C 121.062 60.961,120.524 60.116,120.046 59.514 C 119.567 58.912,119.175 58.300,119.173 58.153 C 119.172 58.007,118.967 57.698,118.718 57.467 C 118.468 57.236,117.798 56.500,117.228 55.830 C 115.303 53.569,112.740 51.136,110.492 49.434 C 110.065 49.110,109.561 48.697,109.373 48.516 C 109.184 48.335,108.868 48.187,108.669 48.187 C 108.471 48.187,107.925 47.853,107.457 47.444 C 106.989 47.036,106.332 46.616,105.997 46.512 C 105.661 46.407,104.975 46.041,104.471 45.699 C 103.967 45.357,103.355 45.078,103.111 45.078 C 102.867 45.078,102.097 44.771,101.399 44.397 C 100.701 44.023,99.488 43.566,98.705 43.382 C 97.921 43.197,96.580 42.791,95.725 42.479 C 93.989 41.845,84.083 41.516,80.052 41.959 M190.674 41.983 C 189.605 42.093,187.888 42.485,186.857 42.853 C 185.827 43.222,184.706 43.523,184.367 43.523 C 184.028 43.523,183.339 43.803,182.836 44.144 C 182.333 44.486,181.530 44.846,181.051 44.945 C 180.573 45.044,179.773 45.387,179.275 45.708 C 178.776 46.028,177.931 46.497,177.396 46.750 C 176.862 47.003,176.425 47.311,176.425 47.435 C 176.425 47.560,176.006 47.836,175.495 48.050 C 174.984 48.264,174.197 48.727,173.746 49.081 C 173.296 49.434,172.519 50.046,172.021 50.441 C 170.743 51.454,166.086 56.251,165.155 57.513 C 164.728 58.092,164.101 58.917,163.763 59.346 C 162.736 60.648,159.585 66.745,159.585 67.431 C 159.585 67.637,159.367 68.084,159.099 68.424 C 158.832 68.764,158.409 69.974,158.158 71.114 C 157.908 72.254,157.553 73.484,157.369 73.847 C 156.544 75.479,156.477 79.507,156.478 127.386 C 156.479 176.652,156.523 178.986,157.474 180.135 C 157.613 180.303,157.859 181.198,158.022 182.124 C 158.184 183.051,158.587 184.391,158.916 185.104 C 159.246 185.816,159.664 186.865,159.846 187.435 C 160.028 188.005,160.394 188.750,160.659 189.089 C 160.923 189.429,161.140 189.820,161.140 189.957 C 161.140 190.322,162.954 193.283,163.651 194.056 C 163.980 194.420,164.249 194.850,164.249 195.013 C 164.249 195.760,168.839 200.782,171.291 202.716 C 172.191 203.427,172.986 204.076,173.057 204.160 C 173.128 204.244,173.682 204.588,174.288 204.925 C 174.893 205.261,175.389 205.629,175.389 205.744 C 175.389 205.858,175.767 206.113,176.231 206.311 C 176.694 206.508,177.353 206.918,177.695 207.221 C 178.037 207.524,178.494 207.772,178.710 207.772 C 178.926 207.772,179.723 208.122,180.480 208.549 C 181.238 208.977,181.986 209.326,182.142 209.326 C 182.299 209.326,183.274 209.666,184.309 210.080 C 185.344 210.495,186.879 210.913,187.720 211.009 C 188.561 211.106,189.657 211.294,190.155 211.428 C 192.619 212.091,195.209 212.435,197.729 212.435 C 200.383 212.435,201.041 212.352,204.016 211.643 C 204.728 211.473,206.127 211.196,207.124 211.027 C 208.122 210.858,209.288 210.536,209.715 210.311 C 210.142 210.087,211.221 209.700,212.111 209.451 C 213.002 209.203,213.731 208.914,213.731 208.809 C 213.731 208.705,214.284 208.413,214.961 208.160 C 216.626 207.539,219.966 205.491,222.111 203.777 C 223.786 202.438,227.979 198.392,227.979 198.115 C 227.979 197.972,228.271 197.551,228.627 197.179 C 229.957 195.792,232.642 192.051,232.642 191.586 C 232.642 191.467,232.928 190.996,233.276 190.539 C 233.625 190.082,233.992 189.372,234.092 188.960 C 234.192 188.549,234.607 187.584,235.013 186.816 C 235.419 186.048,235.751 185.199,235.751 184.929 C 235.751 184.659,236.035 183.879,236.381 183.196 C 236.739 182.490,237.085 181.234,237.181 180.290 C 237.275 179.375,237.505 177.927,237.693 177.073 C 238.638 172.766,238.637 172.793,238.543 125.777 C 238.473 90.753,238.376 79.414,238.138 78.627 C 237.966 78.057,237.646 76.340,237.427 74.811 C 237.187 73.140,236.775 71.488,236.392 70.666 C 236.042 69.915,235.755 69.067,235.754 68.782 C 235.752 68.320,234.873 66.293,233.732 64.119 C 233.508 63.692,233.061 62.813,232.740 62.166 C 232.419 61.519,231.916 60.773,231.622 60.507 C 231.329 60.241,231.088 59.878,231.088 59.699 C 231.088 59.521,230.709 58.901,230.246 58.321 C 229.783 57.741,229.054 56.798,228.627 56.226 C 227.090 54.169,223.317 50.643,221.438 49.508 C 220.903 49.186,220.466 48.829,220.466 48.715 C 220.466 48.601,220.125 48.367,219.708 48.194 C 219.291 48.021,218.752 47.662,218.511 47.395 C 218.269 47.129,217.649 46.774,217.132 46.606 C 216.615 46.438,215.900 46.099,215.544 45.852 C 214.927 45.424,212.264 44.243,210.881 43.783 C 204.894 41.793,198.250 41.201,190.674 41.983 M301.813 41.970 C 300.745 42.070,298.952 42.460,297.830 42.837 C 296.707 43.215,295.597 43.523,295.362 43.523 C 295.127 43.523,294.238 43.869,293.387 44.292 C 292.536 44.715,291.662 45.065,291.446 45.070 C 291.230 45.074,290.640 45.358,290.135 45.701 C 289.630 46.044,288.816 46.512,288.326 46.740 C 287.398 47.172,285.938 48.130,285.182 48.803 C 284.940 49.019,284.357 49.394,283.887 49.637 C 283.416 49.880,282.740 50.363,282.383 50.711 C 277.440 55.533,277.111 55.890,275.408 58.290 C 274.852 59.074,274.150 60.030,273.848 60.414 C 273.545 60.799,273.170 61.499,273.013 61.969 C 272.856 62.439,272.464 63.115,272.142 63.472 C 271.821 63.828,271.476 64.527,271.377 65.026 C 271.277 65.525,270.935 66.341,270.616 66.839 C 270.297 67.338,269.894 68.316,269.720 69.012 C 269.547 69.707,269.194 70.698,268.935 71.214 C 268.677 71.729,268.385 72.791,268.288 73.575 C 268.191 74.359,267.825 76.564,267.475 78.475 L 266.839 81.950 266.839 127.224 C 266.839 158.934,266.924 172.913,267.122 173.879 C 267.278 174.638,267.564 176.017,267.759 176.943 C 267.953 177.869,268.186 179.268,268.276 180.052 C 268.366 180.835,268.703 182.065,269.025 182.783 C 269.348 183.502,269.696 184.540,269.799 185.091 C 269.903 185.642,270.328 186.732,270.745 187.513 C 271.162 188.294,271.503 189.083,271.503 189.265 C 271.503 189.448,271.786 189.935,272.133 190.347 C 272.480 190.760,272.841 191.401,272.934 191.773 C 273.027 192.145,273.340 192.662,273.628 192.921 C 273.917 193.181,274.253 193.655,274.375 193.974 C 274.839 195.187,279.332 200.219,282.150 202.680 C 282.777 203.228,283.523 203.882,283.808 204.133 C 284.093 204.384,284.568 204.666,284.864 204.759 C 285.159 204.852,285.627 205.131,285.904 205.379 C 286.786 206.168,289.225 207.711,289.896 207.904 C 290.253 208.007,290.953 208.316,291.452 208.591 C 293.646 209.800,297.311 210.851,302.073 211.635 C 302.856 211.764,303.826 211.997,304.227 212.152 C 305.469 212.634,310.723 212.489,313.472 211.897 C 314.825 211.605,316.690 211.248,317.617 211.105 C 318.543 210.961,320.127 210.515,321.137 210.114 C 322.147 209.714,323.334 209.307,323.774 209.210 C 324.215 209.113,324.709 208.873,324.873 208.676 C 325.036 208.480,325.742 208.128,326.442 207.896 C 327.142 207.664,327.782 207.364,327.864 207.230 C 327.947 207.097,328.476 206.752,329.041 206.464 C 329.606 206.176,330.268 205.773,330.513 205.570 C 331.257 204.951,332.978 203.667,333.938 203.013 C 335.646 201.849,338.136 199.219,340.223 196.373 C 340.902 195.447,341.748 194.343,342.102 193.921 C 342.456 193.498,342.746 193.019,342.746 192.855 C 342.746 192.691,342.980 192.259,343.267 191.895 C 343.927 191.056,345.855 187.301,345.855 186.855 C 345.855 186.670,346.146 185.963,346.501 185.283 C 346.857 184.603,347.274 183.365,347.428 182.533 C 347.581 181.700,347.829 180.714,347.979 180.341 C 349.069 177.616,349.044 178.674,349.152 129.663 C 349.257 81.927,349.173 76.634,348.277 74.253 C 348.056 73.666,347.707 72.429,347.501 71.503 C 347.295 70.576,346.905 69.352,346.634 68.782 C 346.363 68.212,345.948 67.163,345.712 66.451 C 345.476 65.738,345.134 64.981,344.953 64.767 C 344.772 64.553,344.376 63.854,344.074 63.212 C 343.771 62.571,343.174 61.522,342.746 60.881 C 342.317 60.240,341.763 59.381,341.515 58.972 C 339.132 55.059,330.687 47.430,327.714 46.505 C 327.361 46.395,326.760 46.085,326.377 45.815 C 325.995 45.546,325.226 45.165,324.668 44.968 C 324.110 44.771,323.199 44.382,322.643 44.103 C 322.087 43.824,321.155 43.523,320.572 43.434 C 319.989 43.344,318.976 43.034,318.321 42.744 C 316.250 41.829,307.641 41.425,301.813 41.970 " stroke="none" fill="#ec1d2d" fill-rule="evenodd"></path><path id="path1" d="M0.000 129.534 L 0.000 259.067 200.000 259.067 L 400.000 259.067 400.000 129.534 L 400.000 0.000 200.000 0.000 L 0.000 0.000 0.000 129.534 M95.725 42.479 C 96.580 42.791,97.921 43.197,98.705 43.382 C 99.488 43.566,100.701 44.023,101.399 44.397 C 102.097 44.771,102.867 45.078,103.111 45.078 C 103.355 45.078,103.967 45.357,104.471 45.699 C 104.975 46.041,105.661 46.407,105.997 46.512 C 106.332 46.616,106.989 47.036,107.457 47.444 C 107.925 47.853,108.471 48.187,108.669 48.187 C 108.868 48.187,109.184 48.335,109.373 48.516 C 109.561 48.697,110.065 49.110,110.492 49.434 C 112.740 51.136,115.303 53.569,117.228 55.830 C 117.798 56.500,118.468 57.236,118.718 57.467 C 118.967 57.698,119.172 58.007,119.173 58.153 C 119.175 58.300,119.567 58.912,120.046 59.514 C 120.524 60.116,121.062 60.961,121.241 61.392 C 121.419 61.823,121.652 62.176,121.758 62.176 C 121.864 62.176,122.157 62.730,122.410 63.407 C 122.662 64.084,123.027 64.820,123.220 65.044 C 123.413 65.268,123.792 66.094,124.063 66.880 C 124.333 67.666,124.732 68.653,124.949 69.073 C 125.166 69.493,125.425 70.299,125.523 70.864 C 125.621 71.429,125.985 72.882,126.331 74.093 C 127.364 77.710,127.447 81.638,127.453 126.813 C 127.460 171.246,127.357 176.508,126.431 179.258 C 126.152 180.084,125.759 181.504,125.556 182.413 C 125.159 184.188,124.269 186.508,123.043 188.961 C 122.623 189.801,122.280 190.628,122.280 190.799 C 122.280 190.971,122.063 191.308,121.798 191.548 C 121.532 191.788,121.107 192.447,120.851 193.013 C 120.596 193.579,120.291 194.041,120.173 194.041 C 120.055 194.041,119.721 194.508,119.430 195.078 C 119.139 195.648,118.812 196.114,118.703 196.114 C 118.595 196.114,118.316 196.435,118.084 196.828 C 117.683 197.506,117.240 198.011,114.951 200.400 C 113.482 201.934,110.937 204.040,109.521 204.896 C 108.986 205.219,108.549 205.582,108.549 205.703 C 108.549 205.824,108.287 206.004,107.966 206.103 C 107.646 206.202,106.917 206.594,106.347 206.974 C 105.777 207.354,104.797 207.871,104.168 208.122 C 103.539 208.373,102.785 208.747,102.491 208.953 C 102.197 209.158,101.779 209.329,101.562 209.333 C 101.344 209.336,100.466 209.639,99.611 210.007 C 98.756 210.374,97.124 210.832,95.984 211.024 C 94.845 211.216,92.764 211.612,91.361 211.904 C 87.337 212.742,83.448 212.621,79.404 211.534 C 78.692 211.343,77.409 211.107,76.554 211.010 C 75.699 210.913,74.592 210.616,74.093 210.350 C 73.595 210.084,72.555 209.687,71.783 209.468 C 71.012 209.249,70.196 208.905,69.970 208.703 C 69.744 208.502,68.948 208.138,68.199 207.895 C 67.451 207.652,66.839 207.358,66.839 207.242 C 66.839 207.125,66.629 206.963,66.372 206.881 C 64.765 206.371,60.545 203.056,57.447 199.870 C 54.706 197.051,54.301 196.605,53.809 195.855 C 53.576 195.499,52.856 194.449,52.211 193.523 C 51.565 192.597,51.037 191.709,51.037 191.550 C 51.036 191.392,50.822 190.984,50.560 190.644 C 50.297 190.304,49.945 189.623,49.777 189.131 C 49.609 188.638,49.271 187.939,49.026 187.576 C 48.158 186.293,46.923 182.385,46.239 178.756 C 46.010 177.545,45.714 176.196,45.580 175.759 C 45.012 173.900,45.280 79.537,45.861 77.047 C 46.149 75.810,46.502 73.974,46.645 72.965 C 46.788 71.956,47.078 70.868,47.288 70.546 C 47.499 70.225,47.844 69.299,48.055 68.490 C 48.266 67.680,48.596 66.832,48.788 66.605 C 48.980 66.378,49.293 65.784,49.484 65.285 C 50.001 63.929,51.782 60.711,52.213 60.354 C 52.421 60.181,52.591 59.897,52.591 59.721 C 52.591 59.546,52.866 59.105,53.203 58.741 C 53.540 58.378,54.069 57.724,54.379 57.289 C 56.068 54.917,60.643 50.404,62.147 49.627 C 62.520 49.434,63.047 49.031,63.318 48.731 C 63.589 48.432,63.947 48.187,64.113 48.187 C 64.279 48.187,64.806 47.837,65.285 47.409 C 65.764 46.982,66.345 46.632,66.576 46.632 C 66.808 46.632,67.548 46.282,68.223 45.855 C 68.897 45.427,69.590 45.074,69.763 45.070 C 69.936 45.065,70.774 44.715,71.626 44.292 C 72.477 43.869,73.365 43.523,73.600 43.523 C 73.835 43.523,74.946 43.219,76.068 42.848 C 80.002 41.546,92.527 41.311,95.725 42.479 M203.388 41.942 C 205.264 42.106,207.462 42.646,210.881 43.783 C 212.264 44.243,214.927 45.424,215.544 45.852 C 215.900 46.099,216.615 46.438,217.132 46.606 C 217.649 46.774,218.269 47.129,218.511 47.395 C 218.752 47.662,219.291 48.021,219.708 48.194 C 220.125 48.367,220.466 48.601,220.466 48.715 C 220.466 48.829,220.903 49.186,221.438 49.508 C 223.317 50.643,227.090 54.169,228.627 56.226 C 229.054 56.798,229.783 57.741,230.246 58.321 C 230.709 58.901,231.088 59.521,231.088 59.699 C 231.088 59.878,231.329 60.241,231.622 60.507 C 231.916 60.773,232.419 61.519,232.740 62.166 C 233.061 62.813,233.508 63.692,233.732 64.119 C 234.873 66.293,235.752 68.320,235.754 68.782 C 235.755 69.067,236.042 69.915,236.392 70.666 C 236.775 71.488,237.187 73.140,237.427 74.811 C 237.646 76.340,237.966 78.057,238.138 78.627 C 238.376 79.414,238.473 90.753,238.543 125.777 C 238.637 172.793,238.638 172.766,237.693 177.073 C 237.505 177.927,237.275 179.375,237.181 180.290 C 237.085 181.234,236.739 182.490,236.381 183.196 C 236.035 183.879,235.751 184.659,235.751 184.929 C 235.751 185.199,235.419 186.048,235.013 186.816 C 234.607 187.584,234.192 188.549,234.092 188.960 C 233.992 189.372,233.625 190.082,233.276 190.539 C 232.928 190.996,232.642 191.467,232.642 191.586 C 232.642 192.051,229.957 195.792,228.627 197.179 C 228.271 197.551,227.979 197.972,227.979 198.115 C 227.979 198.392,223.786 202.438,222.111 203.777 C 219.966 205.491,216.626 207.539,214.961 208.160 C 214.284 208.413,213.731 208.705,213.731 208.809 C 213.731 208.914,213.002 209.203,212.111 209.451 C 211.221 209.700,210.142 210.087,209.715 210.311 C 209.288 210.536,208.122 210.858,207.124 211.027 C 206.127 211.196,204.728 211.473,204.016 211.643 C 201.041 212.352,200.383 212.435,197.729 212.435 C 195.209 212.435,192.619 212.091,190.155 211.428 C 189.657 211.294,188.561 211.106,187.720 211.009 C 186.879 210.913,185.344 210.495,184.309 210.080 C 183.274 209.666,182.299 209.326,182.142 209.326 C 181.986 209.326,181.238 208.977,180.480 208.549 C 179.723 208.122,178.926 207.772,178.710 207.772 C 178.494 207.772,178.037 207.524,177.695 207.221 C 177.353 206.918,176.694 206.508,176.231 206.311 C 175.767 206.113,175.389 205.858,175.389 205.744 C 175.389 205.629,174.893 205.261,174.288 204.925 C 173.682 204.588,173.128 204.244,173.057 204.160 C 172.986 204.076,172.191 203.427,171.291 202.716 C 168.839 200.782,164.249 195.760,164.249 195.013 C 164.249 194.850,163.980 194.420,163.651 194.056 C 162.954 193.283,161.140 190.322,161.140 189.957 C 161.140 189.820,160.923 189.429,160.659 189.089 C 160.394 188.750,160.028 188.005,159.846 187.435 C 159.664 186.865,159.246 185.816,158.916 185.104 C 158.587 184.391,158.184 183.051,158.022 182.124 C 157.859 181.198,157.613 180.303,157.474 180.135 C 156.523 178.986,156.479 176.652,156.478 127.386 C 156.477 79.507,156.544 75.479,157.369 73.847 C 157.553 73.484,157.908 72.254,158.158 71.114 C 158.409 69.974,158.832 68.764,159.099 68.424 C 159.367 68.084,159.585 67.637,159.585 67.431 C 159.585 66.745,162.736 60.648,163.763 59.346 C 164.101 58.917,164.728 58.092,165.155 57.513 C 166.086 56.251,170.743 51.454,172.021 50.441 C 172.519 50.046,173.296 49.434,173.746 49.081 C 174.197 48.727,174.984 48.264,175.495 48.050 C 176.006 47.836,176.425 47.560,176.425 47.435 C 176.425 47.311,176.862 47.003,177.396 46.750 C 177.931 46.497,178.776 46.028,179.275 45.708 C 179.773 45.387,180.573 45.044,181.051 44.945 C 181.530 44.846,182.333 44.486,182.836 44.144 C 183.339 43.803,184.028 43.523,184.367 43.523 C 184.706 43.523,185.827 43.222,186.857 42.853 C 189.735 41.824,197.298 41.407,203.388 41.942 M314.588 41.970 C 316.083 42.116,317.620 42.435,318.321 42.744 C 318.976 43.034,319.989 43.344,320.572 43.434 C 321.155 43.523,322.087 43.824,322.643 44.103 C 323.199 44.382,324.110 44.771,324.668 44.968 C 325.226 45.165,325.995 45.546,326.377 45.815 C 326.760 46.085,327.361 46.395,327.714 46.505 C 330.687 47.430,339.132 55.059,341.515 58.972 C 341.763 59.381,342.317 60.240,342.746 60.881 C 343.174 61.522,343.771 62.571,344.074 63.212 C 344.376 63.854,344.772 64.553,344.953 64.767 C 345.134 64.981,345.476 65.738,345.712 66.451 C 345.948 67.163,346.363 68.212,346.634 68.782 C 346.905 69.352,347.295 70.576,347.501 71.503 C 347.707 72.429,348.056 73.666,348.277 74.253 C 349.173 76.634,349.257 81.927,349.152 129.663 C 349.044 178.674,349.069 177.616,347.979 180.341 C 347.829 180.714,347.581 181.700,347.428 182.533 C 347.274 183.365,346.857 184.603,346.501 185.283 C 346.146 185.963,345.855 186.670,345.855 186.855 C 345.855 187.301,343.927 191.056,343.267 191.895 C 342.980 192.259,342.746 192.691,342.746 192.855 C 342.746 193.019,342.456 193.498,342.102 193.921 C 341.748 194.343,340.902 195.447,340.223 196.373 C 338.136 199.219,335.646 201.849,333.938 203.013 C 332.978 203.667,331.257 204.951,330.513 205.570 C 330.268 205.773,329.606 206.176,329.041 206.464 C 328.476 206.752,327.947 207.097,327.864 207.230 C 327.782 207.364,327.142 207.664,326.442 207.896 C 325.742 208.128,325.036 208.480,324.873 208.676 C 324.709 208.873,324.215 209.113,323.774 209.210 C 323.334 209.307,322.147 209.714,321.137 210.114 C 320.127 210.515,318.543 210.961,317.617 211.105 C 316.690 211.248,314.825 211.605,313.472 211.897 C 310.723 212.489,305.469 212.634,304.227 212.152 C 303.826 211.997,302.856 211.764,302.073 211.635 C 297.311 210.851,293.646 209.800,291.452 208.591 C 290.953 208.316,290.253 208.007,289.896 207.904 C 289.225 207.711,286.786 206.168,285.904 205.379 C 285.627 205.131,285.159 204.852,284.864 204.759 C 284.568 204.666,284.093 204.384,283.808 204.133 C 283.523 203.882,282.777 203.228,282.150 202.680 C 279.332 200.219,274.839 195.187,274.375 193.974 C 274.253 193.655,273.917 193.181,273.628 192.921 C 273.340 192.662,273.027 192.145,272.934 191.773 C 272.841 191.401,272.480 190.760,272.133 190.347 C 271.786 189.935,271.503 189.448,271.503 189.265 C 271.503 189.083,271.162 188.294,270.745 187.513 C 270.328 186.732,269.903 185.642,269.799 185.091 C 269.696 184.540,269.348 183.502,269.025 182.783 C 268.703 182.065,268.366 180.835,268.276 180.052 C 268.186 179.268,267.953 177.869,267.759 176.943 C 267.564 176.017,267.278 174.638,267.122 173.879 C 266.924 172.913,266.839 158.934,266.839 127.224 L 266.839 81.950 267.475 78.475 C 267.825 76.564,268.191 74.359,268.288 73.575 C 268.385 72.791,268.677 71.729,268.935 71.214 C 269.194 70.698,269.547 69.707,269.720 69.012 C 269.894 68.316,270.297 67.338,270.616 66.839 C 270.935 66.341,271.277 65.525,271.377 65.026 C 271.476 64.527,271.821 63.828,272.142 63.472 C 272.464 63.115,272.856 62.439,273.013 61.969 C 273.170 61.499,273.545 60.799,273.848 60.414 C 274.150 60.030,274.852 59.074,275.408 58.290 C 277.111 55.890,277.440 55.533,282.383 50.711 C 282.740 50.363,283.416 49.880,283.887 49.637 C 284.357 49.394,284.940 49.019,285.182 48.803 C 285.938 48.130,287.398 47.172,288.326 46.740 C 288.816 46.512,289.630 46.044,290.135 45.701 C 290.640 45.358,291.230 45.074,291.446 45.070 C 291.662 45.065,292.536 44.715,293.387 44.292 C 294.238 43.869,295.127 43.523,295.362 43.523 C 295.597 43.523,296.707 43.215,297.830 42.837 C 300.943 41.791,308.647 41.393,314.588 41.970 " stroke="none" fill="#fcfcfc" fill-rule="evenodd"></path></g></svg>