<svg id="svg" version="1.1" xmlns="http://www.w3.org/2000/svg" xmlns:xlink="http://www.w3.org/1999/xlink" width="400" height="258.91472868217056" viewBox="0, 0, 400,258.91472868217056"><g id="svgg"><path id="path0" d="M134.845 39.230 C 133.346 39.563,130.645 40.194,128.756 40.652 C 127.681 40.913,125.607 41.738,123.419 42.774 C 122.550 43.186,121.714 43.523,121.561 43.523 C 121.408 43.523,120.954 43.788,120.551 44.112 C 120.148 44.436,119.411 44.904,118.912 45.153 C 115.485 46.861,109.891 51.882,106.401 56.382 C 105.944 56.971,105.369 57.787,105.124 58.195 C 104.879 58.604,104.155 59.754,103.516 60.751 C 102.877 61.749,102.348 62.740,102.342 62.953 C 102.335 63.167,101.981 63.867,101.554 64.508 C 101.128 65.149,100.779 65.860,100.778 66.088 C 100.778 66.316,100.475 67.071,100.107 67.764 C 99.738 68.458,99.315 69.729,99.167 70.588 C 99.019 71.447,98.792 72.285,98.661 72.449 C 97.119 74.391,97.030 77.416,97.050 127.720 C 97.069 176.403,97.116 178.385,98.325 181.619 C 98.562 182.253,98.904 183.413,99.084 184.197 C 99.264 184.981,99.719 186.256,100.094 187.030 C 100.470 187.805,100.778 188.621,100.778 188.844 C 100.779 189.067,101.128 189.773,101.554 190.415 C 101.981 191.056,102.330 191.769,102.330 191.999 C 102.331 192.229,102.562 192.710,102.843 193.067 C 103.124 193.425,103.620 194.178,103.944 194.741 C 105.207 196.934,105.625 197.535,107.219 199.447 C 109.168 201.786,112.942 205.490,114.313 206.411 C 114.848 206.770,115.285 207.143,115.285 207.240 C 115.285 207.337,115.722 207.625,116.256 207.879 C 116.791 208.133,117.403 208.509,117.617 208.716 C 118.120 209.201,120.836 210.799,121.534 211.020 C 121.831 211.115,122.466 211.458,122.945 211.783 C 123.425 212.108,124.258 212.455,124.797 212.554 C 125.336 212.652,126.245 213.004,126.817 213.336 C 127.389 213.668,128.438 214.020,129.148 214.118 C 129.859 214.216,131.315 214.584,132.383 214.935 C 136.151 216.174,147.326 216.088,151.095 214.791 C 151.863 214.527,153.125 214.228,153.901 214.127 C 154.676 214.026,155.719 213.681,156.218 213.359 C 156.716 213.038,157.587 212.688,158.152 212.583 C 158.717 212.477,159.499 212.163,159.889 211.885 C 160.279 211.607,160.983 211.249,161.452 211.089 C 161.922 210.929,162.623 210.535,163.012 210.214 C 163.400 209.893,164.128 209.494,164.631 209.329 C 165.133 209.163,165.544 208.923,165.544 208.795 C 165.544 208.667,165.923 208.368,166.386 208.130 C 166.849 207.892,167.478 207.452,167.784 207.152 C 168.089 206.852,168.905 206.198,169.597 205.699 C 171.036 204.662,174.009 201.726,175.054 200.310 C 175.750 199.367,176.899 197.910,177.547 197.150 C 177.729 196.937,178.383 195.887,179.001 194.819 C 179.619 193.750,180.321 192.584,180.563 192.228 C 180.804 191.872,181.220 190.997,181.488 190.285 C 181.756 189.573,182.108 188.853,182.269 188.687 C 182.431 188.520,182.709 187.821,182.886 187.132 C 183.064 186.444,183.480 185.240,183.811 184.456 C 184.142 183.672,184.546 182.098,184.708 180.959 C 184.871 179.819,185.162 178.361,185.356 177.720 C 186.234 174.824,186.313 169.818,186.188 125.259 C 186.067 81.869,186.013 79.236,185.166 75.777 C 184.957 74.922,184.640 73.407,184.462 72.409 C 184.284 71.412,183.994 70.363,183.816 70.078 C 183.639 69.793,183.292 68.860,183.045 68.005 C 182.798 67.150,182.451 66.276,182.275 66.062 C 182.098 65.848,181.743 65.091,181.486 64.378 C 181.229 63.666,180.823 62.850,180.583 62.565 C 180.344 62.280,179.934 61.551,179.672 60.946 C 179.410 60.340,179.120 59.845,179.028 59.845 C 178.935 59.845,178.605 59.320,178.293 58.679 C 177.982 58.038,177.617 57.513,177.482 57.513 C 177.347 57.513,177.170 57.309,177.088 57.060 C 176.730 55.974,170.995 50.123,167.617 47.396 C 166.596 46.572,164.285 45.078,164.032 45.078 C 163.905 45.078,163.362 44.728,162.824 44.301 C 162.286 43.873,161.703 43.523,161.529 43.523 C 161.355 43.523,160.584 43.189,159.816 42.780 C 159.048 42.371,158.012 41.948,157.513 41.841 C 157.014 41.734,156.080 41.381,155.436 41.056 C 154.792 40.732,153.568 40.380,152.716 40.274 C 151.863 40.168,150.525 39.847,149.741 39.561 C 147.899 38.888,137.430 38.655,134.845 39.230 M249.482 39.217 C 248.698 39.407,247.362 39.755,246.513 39.989 C 245.664 40.223,244.692 40.415,244.354 40.415 C 244.016 40.415,242.943 40.764,241.969 41.192 C 240.995 41.619,239.985 41.977,239.723 41.988 C 239.462 41.998,238.899 42.230,238.472 42.503 C 238.044 42.776,237.519 43.075,237.306 43.167 C 235.313 44.025,233.284 45.141,232.550 45.785 C 232.245 46.052,231.179 46.811,230.181 47.470 C 228.710 48.443,225.964 50.740,225.077 51.738 C 224.978 51.851,224.240 52.638,223.438 53.488 C 222.636 54.338,221.853 55.269,221.699 55.558 C 221.545 55.846,220.844 56.821,220.143 57.725 C 219.442 58.629,218.705 59.759,218.505 60.236 C 218.306 60.714,218.025 61.177,217.880 61.266 C 217.736 61.356,217.370 62.005,217.067 62.709 C 216.764 63.413,216.419 63.990,216.300 63.990 C 216.181 63.990,215.850 64.744,215.565 65.666 C 215.280 66.589,214.881 67.609,214.677 67.933 C 214.474 68.258,214.168 69.165,213.999 69.948 C 213.829 70.732,213.464 71.926,213.186 72.602 C 212.896 73.309,212.572 75.014,212.423 76.617 C 212.281 78.150,212.046 80.045,211.900 80.829 C 211.723 81.778,211.663 97.662,211.719 128.368 C 211.810 178.154,211.839 179.220,213.196 182.228 C 213.459 182.812,213.816 183.990,213.988 184.845 C 214.160 185.699,214.508 186.749,214.762 187.176 C 215.015 187.604,215.369 188.411,215.547 188.970 C 215.918 190.128,218.691 195.226,219.367 195.991 C 219.496 196.137,219.823 196.604,220.095 197.027 C 222.072 200.111,228.844 206.821,231.183 208.013 C 231.655 208.254,232.205 208.589,232.406 208.759 C 233.307 209.518,235.614 210.901,236.234 211.054 C 236.610 211.146,237.267 211.482,237.694 211.800 C 238.122 212.118,238.880 212.461,239.378 212.562 C 239.877 212.663,240.774 213.014,241.372 213.341 C 241.969 213.669,243.077 214.020,243.833 214.121 C 244.589 214.223,246.082 214.606,247.150 214.972 C 250.007 215.952,261.668 216.014,264.767 215.065 C 265.835 214.738,267.559 214.310,268.596 214.113 C 269.633 213.916,270.799 213.532,271.187 213.260 C 271.574 212.988,272.354 212.682,272.919 212.578 C 273.484 212.475,274.266 212.163,274.656 211.885 C 275.046 211.607,275.750 211.249,276.219 211.089 C 276.688 210.929,277.390 210.535,277.778 210.214 C 278.167 209.893,278.895 209.494,279.398 209.329 C 279.900 209.163,280.311 208.931,280.311 208.814 C 280.311 208.696,280.690 208.375,281.153 208.100 C 282.014 207.588,282.878 206.896,284.229 205.635 C 284.648 205.243,285.097 204.922,285.225 204.922 C 285.701 204.922,289.114 201.226,291.234 198.416 C 291.756 197.725,292.368 196.974,292.594 196.747 C 292.820 196.521,293.005 196.227,293.005 196.093 C 293.005 195.960,293.355 195.368,293.782 194.778 C 294.210 194.187,294.560 193.556,294.560 193.375 C 294.560 193.193,294.834 192.715,295.170 192.313 C 295.505 191.910,295.926 191.114,296.105 190.544 C 296.284 189.974,296.692 189.041,297.012 188.472 C 297.332 187.902,297.666 187.057,297.754 186.595 C 297.842 186.133,298.155 185.258,298.449 184.652 C 298.743 184.045,299.098 182.733,299.238 181.736 C 299.378 180.738,299.748 178.990,300.059 177.850 L 300.625 175.777 300.706 129.793 C 300.799 77.031,300.782 76.591,298.443 70.207 C 298.051 69.139,297.655 67.839,297.563 67.319 C 297.471 66.799,297.230 66.236,297.028 66.068 C 296.825 65.900,296.453 65.218,296.201 64.552 C 295.949 63.887,295.476 62.947,295.151 62.464 C 294.826 61.981,294.560 61.448,294.560 61.279 C 294.560 61.111,294.213 60.515,293.790 59.955 C 293.366 59.396,293.016 58.793,293.012 58.616 C 293.008 58.439,292.655 57.983,292.228 57.602 C 291.801 57.221,291.451 56.798,291.451 56.662 C 291.451 56.073,285.306 49.696,283.186 48.085 C 280.747 46.231,279.422 45.318,278.804 45.064 C 278.473 44.929,277.832 44.542,277.379 44.205 C 276.925 43.867,276.237 43.516,275.849 43.425 C 275.461 43.333,274.736 42.981,274.238 42.644 C 273.741 42.306,272.899 41.948,272.368 41.849 C 271.836 41.749,270.871 41.401,270.222 41.075 C 269.573 40.749,268.361 40.399,267.530 40.297 C 266.699 40.196,265.359 39.877,264.551 39.588 C 262.641 38.905,251.854 38.639,249.482 39.217 M148.667 50.484 C 149.572 50.801,150.905 51.172,151.628 51.309 C 152.351 51.446,153.144 51.741,153.390 51.963 C 153.636 52.186,154.382 52.531,155.047 52.732 C 155.712 52.932,156.607 53.390,157.034 53.750 C 157.462 54.110,157.954 54.404,158.129 54.404 C 159.029 54.404,167.617 61.977,167.617 62.771 C 167.617 62.909,167.873 63.245,168.187 63.517 C 168.854 64.096,169.683 65.397,170.578 67.269 C 170.929 68.004,171.336 68.679,171.482 68.770 C 171.628 68.860,171.912 69.483,172.112 70.154 C 172.312 70.824,172.711 71.781,172.998 72.280 C 173.285 72.778,173.598 73.769,173.694 74.482 C 173.790 75.194,174.123 76.593,174.434 77.591 L 175.000 79.404 175.000 127.202 L 175.000 175.000 174.288 177.755 C 173.896 179.271,173.575 180.718,173.575 180.971 C 173.575 181.224,173.298 181.908,172.959 182.490 C 172.620 183.073,172.260 183.930,172.160 184.396 C 171.972 185.266,170.658 187.681,169.707 188.901 C 169.412 189.280,169.171 189.713,169.171 189.864 C 169.171 190.015,168.828 190.521,168.410 190.989 C 167.042 192.517,165.803 194.086,165.803 194.291 C 165.803 194.401,165.031 195.119,164.088 195.886 C 163.145 196.652,162.182 197.456,161.948 197.672 C 161.713 197.888,161.115 198.350,160.618 198.699 C 160.121 199.048,159.598 199.465,159.456 199.627 C 159.313 199.788,158.789 200.074,158.290 200.262 C 157.791 200.450,157.209 200.749,156.995 200.928 C 156.781 201.106,156.082 201.455,155.440 201.702 C 154.799 201.950,154.091 202.309,153.867 202.500 C 153.642 202.691,152.548 203.081,151.434 203.366 C 150.320 203.651,149.232 204.030,149.017 204.209 C 148.473 204.660,134.708 204.677,134.166 204.227 C 133.963 204.058,132.808 203.665,131.600 203.353 C 130.392 203.041,129.346 202.700,129.275 202.595 C 129.083 202.312,127.693 201.652,126.878 201.456 C 126.486 201.362,126.166 201.189,126.166 201.071 C 126.166 200.953,125.670 200.636,125.065 200.367 C 122.540 199.246,114.767 192.341,114.767 191.219 C 114.767 191.102,114.360 190.494,113.863 189.868 C 113.365 189.242,112.957 188.603,112.956 188.447 C 112.954 188.291,112.727 187.958,112.450 187.708 C 112.173 187.457,111.871 186.885,111.779 186.437 C 111.686 185.989,111.332 185.190,110.991 184.662 C 110.649 184.134,110.267 183.259,110.140 182.719 C 110.013 182.178,109.656 181.106,109.347 180.336 C 107.905 176.746,107.902 176.631,107.902 127.720 C 107.902 78.787,107.920 78.136,109.367 74.536 C 109.665 73.794,110.017 72.720,110.149 72.150 C 110.280 71.580,110.659 70.702,110.990 70.197 C 111.322 69.693,111.673 68.914,111.772 68.467 C 111.870 68.019,112.136 67.499,112.363 67.311 C 112.591 67.123,112.962 66.560,113.189 66.059 C 115.249 61.516,122.852 54.801,128.368 52.655 C 128.938 52.433,129.579 52.108,129.793 51.933 C 130.151 51.640,134.215 50.490,136.658 49.990 C 138.903 49.531,146.880 49.860,148.667 50.484 M261.269 50.004 C 265.709 51.036,268.120 51.869,270.725 53.271 C 271.082 53.463,271.956 53.899,272.668 54.241 C 273.381 54.582,274.186 55.109,274.457 55.410 C 274.729 55.712,275.084 55.959,275.246 55.959 C 276.054 55.959,282.137 62.250,283.728 64.732 C 283.968 65.107,284.287 65.554,284.437 65.724 C 284.586 65.894,284.962 66.535,285.273 67.149 C 285.583 67.762,285.981 68.439,286.158 68.653 C 286.334 68.867,286.664 69.673,286.891 70.446 C 287.118 71.218,287.480 72.118,287.695 72.446 C 287.909 72.774,288.328 74.299,288.624 75.834 C 288.920 77.370,289.299 78.790,289.465 78.990 C 289.849 79.454,290.043 168.614,289.668 172.798 C 289.534 174.294,289.185 176.451,288.892 177.591 C 288.599 178.731,288.356 179.956,288.351 180.315 C 288.346 180.673,288.105 181.408,287.816 181.947 C 287.527 182.486,287.105 183.476,286.877 184.145 C 286.650 184.815,286.245 185.641,285.978 185.981 C 285.711 186.320,285.492 186.732,285.492 186.896 C 285.492 187.403,282.795 191.483,281.539 192.876 C 281.282 193.161,280.698 193.849,280.242 194.404 C 279.785 194.960,278.477 196.149,277.335 197.046 C 276.193 197.943,274.909 198.953,274.482 199.290 C 274.054 199.627,273.272 200.103,272.744 200.347 C 272.216 200.591,271.724 200.887,271.652 201.005 C 271.579 201.122,270.962 201.427,270.280 201.681 C 269.599 201.935,268.851 202.308,268.619 202.509 C 268.387 202.710,267.337 203.092,266.287 203.358 C 265.237 203.624,263.856 204.035,263.217 204.272 C 261.310 204.979,249.890 204.719,247.969 203.924 C 247.209 203.610,246.021 203.231,245.331 203.083 C 244.640 202.935,243.936 202.646,243.765 202.441 C 243.595 202.235,242.830 201.885,242.065 201.663 C 241.300 201.441,240.674 201.144,240.674 201.005 C 240.674 200.865,240.236 200.568,239.702 200.345 C 239.168 200.122,238.306 199.604,237.787 199.193 C 237.267 198.782,236.752 198.446,236.642 198.446 C 236.358 198.446,232.278 194.531,230.297 192.358 C 229.630 191.625,227.722 188.775,227.721 188.509 C 227.720 188.387,227.429 187.941,227.073 187.518 C 226.716 187.094,226.425 186.563,226.425 186.337 C 226.425 186.111,226.089 185.391,225.677 184.738 C 225.266 184.084,224.848 183.083,224.747 182.513 C 224.647 181.943,224.352 181.010,224.093 180.440 C 223.834 179.870,223.485 178.413,223.318 177.202 C 223.152 175.991,222.908 174.511,222.777 173.914 C 222.464 172.487,222.460 83.214,222.773 81.330 C 222.901 80.556,223.149 78.873,223.323 77.591 C 223.498 76.308,223.849 74.846,224.104 74.340 C 224.359 73.835,224.648 72.961,224.747 72.397 C 224.845 71.834,225.188 70.963,225.509 70.463 C 225.829 69.962,226.179 69.263,226.286 68.909 C 226.582 67.927,229.576 63.168,230.550 62.130 C 232.340 60.223,235.147 57.516,235.946 56.925 C 238.748 54.855,239.402 54.404,239.603 54.404 C 239.725 54.404,240.233 54.127,240.732 53.788 C 241.231 53.449,242.056 53.035,242.565 52.867 C 243.074 52.699,243.773 52.339,244.118 52.068 C 244.464 51.796,245.647 51.388,246.749 51.160 C 247.850 50.933,249.062 50.619,249.441 50.462 C 251.054 49.797,259.046 49.488,261.269 50.004 " stroke="none" fill="#ec1f27" fill-rule="evenodd"></path><path id="path1" d="M0.000 129.534 L 0.000 259.067 200.000 259.067 L 400.000 259.067 400.000 129.534 L 400.000 0.000 200.000 0.000 L 0.000 0.000 0.000 129.534 M149.741 39.561 C 150.525 39.847,151.863 40.168,152.716 40.274 C 153.568 40.380,154.792 40.732,155.436 41.056 C 156.080 41.381,157.014 41.734,157.513 41.841 C 158.012 41.948,159.048 42.371,159.816 42.780 C 160.584 43.189,161.355 43.523,161.529 43.523 C 161.703 43.523,162.286 43.873,162.824 44.301 C 163.362 44.728,163.905 45.078,164.032 45.078 C 165.534 45.078,176.436 55.083,177.088 57.060 C 177.170 57.309,177.347 57.513,177.482 57.513 C 177.617 57.513,177.982 58.038,178.293 58.679 C 178.605 59.320,178.935 59.845,179.028 59.845 C 179.120 59.845,179.410 60.340,179.672 60.946 C 179.934 61.551,180.344 62.280,180.583 62.565 C 180.823 62.850,181.229 63.666,181.486 64.378 C 181.743 65.091,182.098 65.848,182.275 66.062 C 182.451 66.276,182.798 67.150,183.045 68.005 C 183.292 68.860,183.639 69.793,183.816 70.078 C 183.994 70.363,184.284 71.412,184.462 72.409 C 184.640 73.407,184.957 74.922,185.166 75.777 C 186.013 79.236,186.067 81.869,186.188 125.259 C 186.313 169.818,186.234 174.824,185.356 177.720 C 185.162 178.361,184.871 179.819,184.708 180.959 C 184.546 182.098,184.142 183.672,183.811 184.456 C 183.480 185.240,183.064 186.444,182.886 187.132 C 182.709 187.821,182.431 188.520,182.269 188.687 C 182.108 188.853,181.756 189.573,181.488 190.285 C 181.220 190.997,180.804 191.872,180.563 192.228 C 180.321 192.584,179.619 193.750,179.001 194.819 C 178.383 195.887,177.729 196.937,177.547 197.150 C 176.899 197.910,175.750 199.367,175.054 200.310 C 174.009 201.726,171.036 204.662,169.597 205.699 C 168.905 206.198,168.089 206.852,167.784 207.152 C 167.478 207.452,166.849 207.892,166.386 208.130 C 165.923 208.368,165.544 208.667,165.544 208.795 C 165.544 208.923,165.133 209.163,164.631 209.329 C 164.128 209.494,163.400 209.893,163.012 210.214 C 162.623 210.535,161.922 210.929,161.452 211.089 C 160.983 211.249,160.279 211.607,159.889 211.885 C 159.499 212.163,158.717 212.477,158.152 212.583 C 157.587 212.688,156.716 213.038,156.218 213.359 C 155.719 213.681,154.676 214.026,153.901 214.127 C 153.125 214.228,151.863 214.527,151.095 214.791 C 147.326 216.088,136.151 216.174,132.383 214.935 C 131.315 214.584,129.859 214.216,129.148 214.118 C 128.438 214.020,127.389 213.668,126.817 213.336 C 126.245 213.004,125.336 212.652,124.797 212.554 C 124.258 212.455,123.425 212.108,122.945 211.783 C 122.466 211.458,121.831 211.115,121.534 211.020 C 120.836 210.799,118.120 209.201,117.617 208.716 C 117.403 208.509,116.791 208.133,116.256 207.879 C 115.722 207.625,115.285 207.337,115.285 207.240 C 115.285 207.143,114.848 206.770,114.313 206.411 C 112.942 205.490,109.168 201.786,107.219 199.447 C 105.625 197.535,105.207 196.934,103.944 194.741 C 103.620 194.178,103.124 193.425,102.843 193.067 C 102.562 192.710,102.331 192.229,102.330 191.999 C 102.330 191.769,101.981 191.056,101.554 190.415 C 101.128 189.773,100.779 189.067,100.778 188.844 C 100.778 188.621,100.470 187.805,100.094 187.030 C 99.719 186.256,99.264 184.981,99.084 184.197 C 98.904 183.413,98.562 182.253,98.325 181.619 C 97.116 178.385,97.069 176.403,97.050 127.720 C 97.030 77.416,97.119 74.391,98.661 72.449 C 98.792 72.285,99.019 71.447,99.167 70.588 C 99.315 69.729,99.738 68.458,100.107 67.764 C 100.475 67.071,100.778 66.316,100.778 66.088 C 100.779 65.860,101.128 65.149,101.554 64.508 C 101.981 63.867,102.335 63.167,102.342 62.953 C 102.348 62.740,102.877 61.749,103.516 60.751 C 104.155 59.754,104.879 58.604,105.124 58.195 C 107.610 54.055,114.913 47.147,118.912 45.153 C 119.411 44.904,120.148 44.436,120.551 44.112 C 120.954 43.788,121.408 43.523,121.561 43.523 C 121.714 43.523,122.550 43.186,123.419 42.774 C 125.607 41.738,127.681 40.913,128.756 40.652 C 130.645 40.194,133.346 39.563,134.845 39.230 C 137.430 38.655,147.899 38.888,149.741 39.561 M264.551 39.588 C 265.359 39.877,266.699 40.196,267.530 40.297 C 268.361 40.399,269.573 40.749,270.222 41.075 C 270.871 41.401,271.836 41.749,272.368 41.849 C 272.899 41.948,273.741 42.306,274.238 42.644 C 274.736 42.981,275.461 43.333,275.849 43.425 C 276.237 43.516,276.925 43.867,277.379 44.205 C 277.832 44.542,278.473 44.929,278.804 45.064 C 279.422 45.318,280.747 46.231,283.186 48.085 C 285.306 49.696,291.451 56.073,291.451 56.662 C 291.451 56.798,291.801 57.221,292.228 57.602 C 292.655 57.983,293.008 58.439,293.012 58.616 C 293.016 58.793,293.366 59.396,293.790 59.955 C 294.213 60.515,294.560 61.111,294.560 61.279 C 294.560 61.448,294.826 61.981,295.151 62.464 C 295.476 62.947,295.949 63.887,296.201 64.552 C 296.453 65.218,296.825 65.900,297.028 66.068 C 297.230 66.236,297.471 66.799,297.563 67.319 C 297.655 67.839,298.051 69.139,298.443 70.207 C 300.782 76.591,300.799 77.031,300.706 129.793 L 300.625 175.777 300.059 177.850 C 299.748 178.990,299.378 180.738,299.238 181.736 C 299.098 182.733,298.743 184.045,298.449 184.652 C 298.155 185.258,297.842 186.133,297.754 186.595 C 297.666 187.057,297.332 187.902,297.012 188.472 C 296.692 189.041,296.284 189.974,296.105 190.544 C 295.926 191.114,295.505 191.910,295.170 192.313 C 294.834 192.715,294.560 193.193,294.560 193.375 C 294.560 193.556,294.210 194.187,293.782 194.778 C 293.355 195.368,293.005 195.960,293.005 196.093 C 293.005 196.227,292.820 196.521,292.594 196.747 C 292.368 196.974,291.756 197.725,291.234 198.416 C 289.114 201.226,285.701 204.922,285.225 204.922 C 285.097 204.922,284.648 205.243,284.229 205.635 C 282.878 206.896,282.014 207.588,281.153 208.100 C 280.690 208.375,280.311 208.696,280.311 208.814 C 280.311 208.931,279.900 209.163,279.398 209.329 C 278.895 209.494,278.167 209.893,277.778 210.214 C 277.390 210.535,276.688 210.929,276.219 211.089 C 275.750 211.249,275.046 211.607,274.656 211.885 C 274.266 212.163,273.484 212.475,272.919 212.578 C 272.354 212.682,271.574 212.988,271.187 213.260 C 270.799 213.532,269.633 213.916,268.596 214.113 C 267.559 214.310,265.835 214.738,264.767 215.065 C 261.668 216.014,250.007 215.952,247.150 214.972 C 246.082 214.606,244.589 214.223,243.833 214.121 C 243.077 214.020,241.969 213.669,241.372 213.341 C 240.774 213.014,239.877 212.663,239.378 212.562 C 238.880 212.461,238.122 212.118,237.694 211.800 C 237.267 211.482,236.610 211.146,236.234 211.054 C 235.614 210.901,233.307 209.518,232.406 208.759 C 232.205 208.589,231.655 208.254,231.183 208.013 C 228.844 206.821,222.072 200.111,220.095 197.027 C 219.823 196.604,219.496 196.137,219.367 195.991 C 218.691 195.226,215.918 190.128,215.547 188.970 C 215.369 188.411,215.015 187.604,214.762 187.176 C 214.508 186.749,214.160 185.699,213.988 184.845 C 213.816 183.990,213.459 182.812,213.196 182.228 C 211.839 179.220,211.810 178.154,211.719 128.368 C 211.663 97.662,211.723 81.778,211.900 80.829 C 212.046 80.045,212.281 78.150,212.423 76.617 C 212.572 75.014,212.896 73.309,213.186 72.602 C 213.464 71.926,213.829 70.732,213.999 69.948 C 214.168 69.165,214.474 68.258,214.677 67.933 C 214.881 67.609,215.280 66.589,215.565 65.666 C 215.850 64.744,216.181 63.990,216.300 63.990 C 216.419 63.990,216.764 63.413,217.067 62.709 C 217.370 62.005,217.736 61.356,217.880 61.266 C 218.025 61.177,218.306 60.714,218.505 60.236 C 218.705 59.759,219.442 58.629,220.143 57.725 C 220.844 56.821,221.545 55.846,221.699 55.558 C 221.853 55.269,222.636 54.338,223.438 53.488 C 224.240 52.638,224.978 51.851,225.077 51.738 C 225.964 50.740,228.710 48.443,230.181 47.470 C 231.179 46.811,232.245 46.052,232.550 45.785 C 233.284 45.141,235.313 44.025,237.306 43.167 C 237.519 43.075,238.044 42.776,238.472 42.503 C 238.899 42.230,239.462 41.998,239.723 41.988 C 239.985 41.977,240.995 41.619,241.969 41.192 C 242.943 40.764,244.016 40.415,244.354 40.415 C 244.692 40.415,245.664 40.223,246.513 39.989 C 250.479 38.896,250.769 38.868,256.995 38.966 C 262.297 39.050,263.272 39.130,264.551 39.588 M136.658 49.990 C 134.215 50.490,130.151 51.640,129.793 51.933 C 129.579 52.108,128.938 52.433,128.368 52.655 C 122.852 54.801,115.249 61.516,113.189 66.059 C 112.962 66.560,112.591 67.123,112.363 67.311 C 112.136 67.499,111.870 68.019,111.772 68.467 C 111.673 68.914,111.322 69.693,110.990 70.197 C 110.659 70.702,110.280 71.580,110.149 72.150 C 110.017 72.720,109.665 73.794,109.367 74.536 C 107.920 78.136,107.902 78.787,107.902 127.720 C 107.902 176.631,107.905 176.746,109.347 180.336 C 109.656 181.106,110.013 182.178,110.140 182.719 C 110.267 183.259,110.649 184.134,110.991 184.662 C 111.332 185.190,111.686 185.989,111.779 186.437 C 111.871 186.885,112.173 187.457,112.450 187.708 C 112.727 187.958,112.954 188.291,112.956 188.447 C 112.957 188.603,113.365 189.242,113.863 189.868 C 114.360 190.494,114.767 191.102,114.767 191.219 C 114.767 192.341,122.540 199.246,125.065 200.367 C 125.670 200.636,126.166 200.953,126.166 201.071 C 126.166 201.189,126.486 201.362,126.878 201.456 C 127.693 201.652,129.083 202.312,129.275 202.595 C 129.346 202.700,130.392 203.041,131.600 203.353 C 132.808 203.665,133.963 204.058,134.166 204.227 C 134.708 204.677,148.473 204.660,149.017 204.209 C 149.232 204.030,150.320 203.651,151.434 203.366 C 152.548 203.081,153.642 202.691,153.867 202.500 C 154.091 202.309,154.799 201.950,155.440 201.702 C 156.082 201.455,156.781 201.106,156.995 200.928 C 157.209 200.749,157.791 200.450,158.290 200.262 C 158.789 200.074,159.313 199.788,159.456 199.627 C 159.598 199.465,160.121 199.048,160.618 198.699 C 161.115 198.350,161.713 197.888,161.948 197.672 C 162.182 197.456,163.145 196.652,164.088 195.886 C 165.031 195.119,165.803 194.401,165.803 194.291 C 165.803 194.086,167.042 192.517,168.410 190.989 C 168.828 190.521,169.171 190.015,169.171 189.864 C 169.171 189.713,169.412 189.280,169.707 188.901 C 170.658 187.681,171.972 185.266,172.160 184.396 C 172.260 183.930,172.620 183.073,172.959 182.490 C 173.298 181.908,173.575 181.224,173.575 180.971 C 173.575 180.718,173.896 179.271,174.288 177.755 L 175.000 175.000 175.000 127.202 L 175.000 79.404 174.434 77.591 C 174.123 76.593,173.790 75.194,173.694 74.482 C 173.598 73.769,173.285 72.778,172.998 72.280 C 172.711 71.781,172.312 70.824,172.112 70.154 C 171.912 69.483,171.628 68.860,171.482 68.770 C 171.336 68.679,170.929 68.004,170.578 67.269 C 169.683 65.397,168.854 64.096,168.187 63.517 C 167.873 63.245,167.617 62.909,167.617 62.771 C 167.617 61.977,159.029 54.404,158.129 54.404 C 157.954 54.404,157.462 54.110,157.034 53.750 C 156.607 53.390,155.712 52.932,155.047 52.732 C 154.382 52.531,153.636 52.186,153.390 51.963 C 153.144 51.741,152.351 51.446,151.628 51.309 C 150.905 51.172,149.572 50.801,148.667 50.484 C 146.880 49.860,138.903 49.531,136.658 49.990 M251.295 49.994 C 250.654 50.095,249.819 50.306,249.441 50.462 C 249.062 50.619,247.850 50.933,246.749 51.160 C 245.647 51.388,244.464 51.796,244.118 52.068 C 243.773 52.339,243.074 52.699,242.565 52.867 C 242.056 53.035,241.231 53.449,240.732 53.788 C 240.233 54.127,239.725 54.404,239.603 54.404 C 239.402 54.404,238.748 54.855,235.946 56.925 C 235.147 57.516,232.340 60.223,230.550 62.130 C 229.576 63.168,226.582 67.927,226.286 68.909 C 226.179 69.263,225.829 69.962,225.509 70.463 C 225.188 70.963,224.845 71.834,224.747 72.397 C 224.648 72.961,224.359 73.835,224.104 74.340 C 223.849 74.846,223.498 76.308,223.323 77.591 C 223.149 78.873,222.901 80.556,222.773 81.330 C 222.460 83.214,222.464 172.487,222.777 173.914 C 222.908 174.511,223.152 175.991,223.318 177.202 C 223.485 178.413,223.834 179.870,224.093 180.440 C 224.352 181.010,224.647 181.943,224.747 182.513 C 224.848 183.083,225.266 184.084,225.677 184.738 C 226.089 185.391,226.425 186.111,226.425 186.337 C 226.425 186.563,226.716 187.094,227.073 187.518 C 227.429 187.941,227.720 188.387,227.721 188.509 C 227.722 188.775,229.630 191.625,230.297 192.358 C 232.278 194.531,236.358 198.446,236.642 198.446 C 236.752 198.446,237.267 198.782,237.787 199.193 C 238.306 199.604,239.168 200.122,239.702 200.345 C 240.236 200.568,240.674 200.865,240.674 201.005 C 240.674 201.144,241.300 201.441,242.065 201.663 C 242.830 201.885,243.595 202.235,243.765 202.441 C 243.936 202.646,244.640 202.935,245.331 203.083 C 246.021 203.231,247.209 203.610,247.969 203.924 C 249.890 204.719,261.310 204.979,263.217 204.272 C 263.856 204.035,265.237 203.624,266.287 203.358 C 267.337 203.092,268.387 202.710,268.619 202.509 C 268.851 202.308,269.599 201.935,270.280 201.681 C 270.962 201.427,271.579 201.122,271.652 201.005 C 271.724 200.887,272.216 200.591,272.744 200.347 C 273.272 200.103,274.054 199.627,274.482 199.290 C 274.909 198.953,276.193 197.943,277.335 197.046 C 278.477 196.149,279.785 194.960,280.242 194.404 C 280.698 193.849,281.282 193.161,281.539 192.876 C 282.795 191.483,285.492 187.403,285.492 186.896 C 285.492 186.732,285.711 186.320,285.978 185.981 C 286.245 185.641,286.650 184.815,286.877 184.145 C 287.105 183.476,287.527 182.486,287.816 181.947 C 288.105 181.408,288.346 180.673,288.351 180.315 C 288.356 179.956,288.599 178.731,288.892 177.591 C 289.185 176.451,289.534 174.294,289.668 172.798 C 290.043 168.614,289.849 79.454,289.465 78.990 C 289.299 78.790,288.920 77.370,288.624 75.834 C 288.328 74.299,287.909 72.774,287.695 72.446 C 287.480 72.118,287.118 71.218,286.891 70.446 C 286.664 69.673,286.334 68.867,286.158 68.653 C 285.981 68.439,285.583 67.762,285.273 67.149 C 284.962 66.535,284.586 65.894,284.437 65.724 C 284.287 65.554,283.968 65.107,283.728 64.732 C 282.137 62.250,276.054 55.959,275.246 55.959 C 275.084 55.959,274.729 55.712,274.457 55.410 C 274.186 55.109,273.381 54.582,272.668 54.241 C 271.956 53.899,271.082 53.463,270.725 53.271 C 268.120 51.869,265.709 51.036,261.269 50.004 C 260.078 49.727,253.031 49.720,251.295 49.994 " stroke="none" fill="#fcfcfc" fill-rule="evenodd"></path></g></svg>