<svg id="svg" version="1.1" xmlns="http://www.w3.org/2000/svg" xmlns:xlink="http://www.w3.org/1999/xlink" width="400" height="258.91472868217056" viewBox="0, 0, 400,258.91472868217056"><g id="svgg"><path id="path0" d="M191.924 40.693 C 191.116 40.812,190.065 41.072,189.588 41.271 C 189.112 41.470,188.141 41.714,187.431 41.812 C 185.808 42.038,182.027 43.443,180.181 44.507 C 179.896 44.671,179.255 44.983,178.756 45.201 C 177.380 45.801,175.726 46.779,174.867 47.502 C 174.443 47.859,173.862 48.225,173.577 48.316 C 173.291 48.406,173.057 48.574,173.057 48.688 C 173.057 48.802,172.612 49.190,172.067 49.550 C 170.187 50.794,165.676 55.515,164.172 57.812 C 163.720 58.502,163.261 59.067,163.152 59.067 C 163.043 59.067,162.953 59.233,162.953 59.436 C 162.953 59.639,162.664 60.148,162.311 60.568 C 161.957 60.988,161.428 61.843,161.134 62.467 C 160.839 63.091,160.382 64.009,160.118 64.508 C 159.053 66.516,158.085 68.838,157.915 69.792 C 157.816 70.347,157.577 71.046,157.385 71.346 C 157.193 71.646,156.913 72.591,156.764 73.446 C 156.083 77.346,155.975 77.920,155.712 79.016 C 155.514 79.836,155.453 94.350,155.505 127.979 L 155.578 175.777 156.302 179.404 C 156.699 181.399,157.191 183.286,157.394 183.598 C 157.597 183.909,157.887 184.725,158.039 185.411 C 158.294 186.556,159.351 189.095,160.232 190.674 C 160.430 191.030,160.910 191.933,161.297 192.681 C 161.684 193.429,162.085 194.041,162.187 194.041 C 162.289 194.041,162.526 194.420,162.713 194.883 C 162.900 195.347,163.133 195.784,163.230 195.855 C 163.327 195.926,163.720 196.451,164.103 197.021 C 164.486 197.591,165.405 198.717,166.144 199.524 C 166.882 200.331,167.615 201.147,167.771 201.338 C 168.038 201.662,170.182 203.586,172.314 205.412 C 172.832 205.855,173.345 206.218,173.455 206.218 C 173.566 206.218,174.070 206.538,174.576 206.930 C 176.300 208.264,181.652 211.140,182.411 211.140 C 182.605 211.140,183.349 211.423,184.063 211.770 C 189.106 214.215,201.735 215.073,207.563 213.365 C 208.801 213.002,210.312 212.626,210.919 212.529 C 211.526 212.432,212.652 212.021,213.421 211.617 C 214.190 211.212,214.981 210.881,215.178 210.881 C 215.573 210.881,218.160 209.551,219.878 208.465 C 220.481 208.084,221.034 207.772,221.107 207.772 C 221.228 207.772,221.825 207.351,224.680 205.251 C 226.791 203.699,231.949 198.244,232.709 196.761 C 232.928 196.333,233.353 195.761,233.652 195.490 C 233.952 195.219,234.197 194.858,234.197 194.687 C 234.197 194.516,234.473 194.078,234.811 193.713 C 235.149 193.348,235.553 192.685,235.709 192.239 C 235.864 191.793,236.221 191.105,236.502 190.711 C 236.783 190.317,237.096 189.652,237.197 189.233 C 237.299 188.814,237.666 187.924,238.012 187.254 C 238.358 186.584,238.798 185.419,238.989 184.663 C 239.179 183.908,239.522 182.787,239.750 182.172 C 241.034 178.711,241.029 178.878,241.131 128.238 C 241.215 85.912,241.182 80.646,240.810 77.979 C 240.264 74.071,239.896 72.221,239.587 71.839 C 239.449 71.668,239.110 70.626,238.835 69.523 C 238.559 68.421,238.155 67.322,237.937 67.080 C 237.719 66.839,237.422 66.215,237.278 65.693 C 237.134 65.172,236.732 64.326,236.384 63.813 C 236.036 63.300,235.751 62.745,235.751 62.580 C 235.751 62.414,235.416 61.818,235.007 61.256 C 234.597 60.693,234.181 59.971,234.083 59.650 C 233.984 59.330,233.804 59.067,233.682 59.067 C 233.561 59.067,233.198 58.630,232.875 58.096 C 232.148 56.894,229.554 53.869,227.986 52.396 C 227.341 51.790,226.464 50.965,226.036 50.563 C 225.609 50.161,224.698 49.432,224.012 48.944 C 223.327 48.456,222.434 47.793,222.028 47.471 C 221.622 47.148,220.891 46.718,220.404 46.514 C 219.917 46.310,219.373 45.968,219.194 45.754 C 219.016 45.539,218.456 45.226,217.949 45.059 C 217.443 44.892,216.620 44.478,216.120 44.139 C 215.621 43.800,214.986 43.523,214.709 43.523 C 214.433 43.523,213.429 43.187,212.479 42.776 C 211.529 42.365,210.170 41.946,209.459 41.844 C 208.749 41.743,207.870 41.506,207.506 41.317 C 205.921 40.498,195.971 40.100,191.924 40.693 M205.065 48.774 C 205.496 48.997,206.772 49.370,207.901 49.603 C 209.030 49.836,210.075 50.128,210.224 50.251 C 210.372 50.374,211.105 50.716,211.853 51.011 C 212.600 51.305,213.649 51.833,214.184 52.182 C 214.718 52.532,215.476 52.896,215.868 52.992 C 216.260 53.087,216.580 53.259,216.580 53.375 C 216.580 53.490,217.017 53.848,217.552 54.169 C 218.086 54.491,219.223 55.357,220.078 56.093 C 220.933 56.830,221.894 57.572,222.215 57.741 C 224.522 58.961,222.609 59.067,198.389 59.067 C 176.613 59.067,174.352 58.994,174.352 58.289 C 174.352 57.961,176.788 55.853,178.409 54.777 C 179.215 54.242,180.090 53.589,180.352 53.327 C 180.614 53.064,181.053 52.850,181.327 52.850 C 181.601 52.850,182.177 52.554,182.606 52.193 C 183.035 51.832,183.986 51.358,184.718 51.141 C 185.451 50.923,186.420 50.520,186.872 50.244 C 187.324 49.968,187.927 49.742,188.212 49.740 C 188.497 49.738,189.488 49.491,190.415 49.190 C 193.725 48.114,203.265 47.843,205.065 48.774 M228.478 65.956 C 228.916 66.325,229.275 66.769,229.275 66.943 C 229.275 67.117,229.683 68.087,230.181 69.100 C 230.680 70.112,231.089 71.154,231.091 71.416 C 231.092 71.677,231.375 72.498,231.721 73.239 C 232.625 75.181,232.829 76.826,232.245 77.471 C 231.519 78.274,165.369 78.270,164.643 77.468 C 164.052 76.814,164.258 74.932,165.140 72.938 C 165.475 72.180,165.835 71.172,165.938 70.699 C 166.042 70.226,166.397 69.426,166.727 68.922 C 167.056 68.418,167.404 67.684,167.500 67.292 C 167.595 66.900,168.019 66.288,168.442 65.932 L 169.211 65.285 198.446 65.285 L 227.680 65.285 228.478 65.956 M232.241 84.238 C 233.730 84.916,234.029 96.275,232.582 97.193 C 232.215 97.426,164.953 97.487,164.089 97.255 C 163.211 97.019,162.953 95.555,162.953 90.803 C 162.953 85.679,163.177 84.628,164.346 84.251 C 165.573 83.856,231.375 83.843,232.241 84.238 M232.578 104.142 L 233.420 104.656 233.420 110.085 C 233.420 115.402,233.408 115.523,232.844 115.918 C 231.966 116.533,164.407 116.533,163.529 115.918 C 162.796 115.404,162.612 105.010,163.325 104.418 C 164.164 103.722,166.496 103.671,198.446 103.650 C 231.196 103.629,231.749 103.637,232.578 104.142 M232.655 122.934 L 233.420 123.329 233.420 128.744 L 233.420 134.159 232.732 134.700 L 232.045 135.241 197.899 135.172 C 164.097 135.104,163.749 135.098,163.361 134.585 C 162.837 133.891,162.761 123.536,163.277 123.117 C 163.897 122.613,164.833 122.599,198.264 122.569 C 227.939 122.542,231.981 122.585,232.655 122.934 M232.373 141.704 C 233.218 142.157,233.420 143.434,233.420 148.332 L 233.420 153.063 232.623 153.733 L 231.826 154.404 198.620 154.403 C 163.750 154.401,163.790 154.403,163.254 153.225 C 162.365 151.275,163.013 142.138,164.071 141.712 C 164.874 141.388,231.769 141.381,232.373 141.704 M232.623 161.292 L 233.420 161.963 233.420 166.694 C 233.420 171.592,233.218 172.869,232.373 173.322 C 231.737 173.662,165.047 173.669,164.152 173.328 C 163.188 172.962,162.956 171.697,162.955 166.787 C 162.953 161.960,163.120 161.259,164.357 160.900 C 164.807 160.770,179.719 160.658,198.490 160.645 L 231.826 160.622 232.623 161.292 M231.749 180.342 C 232.136 180.730,232.129 180.841,231.660 181.767 C 231.380 182.320,231.064 183.177,230.957 183.672 C 230.850 184.167,230.486 185.010,230.148 185.545 C 229.810 186.080,229.534 186.679,229.534 186.876 C 229.534 187.072,229.244 187.661,228.889 188.183 C 228.534 188.706,228.078 189.451,227.874 189.839 C 227.670 190.227,227.099 190.981,226.605 191.516 L 225.707 192.487 198.484 192.487 L 171.262 192.487 170.307 191.649 C 169.782 191.188,169.202 190.450,169.018 190.009 C 168.834 189.568,168.507 189.062,168.292 188.884 C 168.078 188.705,167.761 188.132,167.589 187.609 C 167.417 187.086,167.012 186.250,166.689 185.751 C 166.365 185.253,165.965 184.320,165.799 183.679 C 165.633 183.038,165.261 182.128,164.973 181.658 C 164.471 180.838,164.469 180.784,164.910 180.295 C 165.564 179.573,231.026 179.619,231.749 180.342 M218.618 199.063 L 219.231 199.403 218.287 199.986 C 217.768 200.306,217.201 200.708,217.027 200.878 C 216.852 201.047,216.201 201.449,215.579 201.770 C 214.957 202.092,214.278 202.524,214.071 202.732 C 213.863 202.939,213.514 203.109,213.294 203.109 C 213.074 203.109,212.354 203.402,211.693 203.760 C 210.620 204.342,207.853 205.229,204.728 205.991 C 202.862 206.446,191.752 206.182,190.800 205.660 C 190.371 205.424,189.263 205.091,188.339 204.920 C 187.414 204.749,186.358 204.399,185.991 204.143 C 185.624 203.887,184.793 203.498,184.145 203.278 C 183.496 203.058,182.527 202.580,181.991 202.216 C 181.455 201.852,180.916 201.554,180.795 201.554 C 180.674 201.554,180.056 201.158,179.421 200.674 C 178.787 200.190,178.116 199.731,177.929 199.654 C 177.678 199.550,177.720 199.411,178.094 199.110 C 178.787 198.551,217.614 198.506,218.618 199.063 " stroke="none" fill="#ed242b" fill-rule="evenodd"></path><path id="path1" d="M0.000 129.534 L 0.000 259.067 200.000 259.067 L 400.000 259.067 400.000 129.534 L 400.000 0.000 200.000 0.000 L 0.000 0.000 0.000 129.534 M204.828 40.695 C 205.937 40.849,207.142 41.129,207.506 41.317 C 207.870 41.506,208.749 41.743,209.459 41.844 C 210.170 41.946,211.529 42.365,212.479 42.776 C 213.429 43.187,214.433 43.523,214.709 43.523 C 214.986 43.523,215.621 43.800,216.120 44.139 C 216.620 44.478,217.443 44.892,217.949 45.059 C 218.456 45.226,219.016 45.539,219.194 45.754 C 219.373 45.968,219.917 46.310,220.404 46.514 C 220.891 46.718,221.622 47.148,222.028 47.471 C 222.434 47.793,223.327 48.456,224.012 48.944 C 224.698 49.432,225.609 50.161,226.036 50.563 C 226.464 50.965,227.341 51.790,227.986 52.396 C 229.554 53.869,232.148 56.894,232.875 58.096 C 233.198 58.630,233.561 59.067,233.682 59.067 C 233.804 59.067,233.984 59.330,234.083 59.650 C 234.181 59.971,234.597 60.693,235.007 61.256 C 235.416 61.818,235.751 62.414,235.751 62.580 C 235.751 62.745,236.036 63.300,236.384 63.813 C 236.732 64.326,237.134 65.172,237.278 65.693 C 237.422 66.215,237.719 66.839,237.937 67.080 C 238.155 67.322,238.559 68.421,238.835 69.523 C 239.110 70.626,239.449 71.668,239.587 71.839 C 239.896 72.221,240.264 74.071,240.810 77.979 C 241.182 80.646,241.215 85.912,241.131 128.238 C 241.029 178.878,241.034 178.711,239.750 182.172 C 239.522 182.787,239.179 183.908,238.989 184.663 C 238.798 185.419,238.358 186.584,238.012 187.254 C 237.666 187.924,237.299 188.814,237.197 189.233 C 237.096 189.652,236.783 190.317,236.502 190.711 C 236.221 191.105,235.864 191.793,235.709 192.239 C 235.553 192.685,235.149 193.348,234.811 193.713 C 234.473 194.078,234.197 194.516,234.197 194.687 C 234.197 194.858,233.952 195.219,233.652 195.490 C 233.353 195.761,232.928 196.333,232.709 196.761 C 231.949 198.244,226.791 203.699,224.680 205.251 C 221.825 207.351,221.228 207.772,221.107 207.772 C 221.034 207.772,220.481 208.084,219.878 208.465 C 218.160 209.551,215.573 210.881,215.178 210.881 C 214.981 210.881,214.190 211.212,213.421 211.617 C 212.652 212.021,211.526 212.432,210.919 212.529 C 210.312 212.626,208.801 213.002,207.563 213.365 C 201.735 215.073,189.106 214.215,184.063 211.770 C 183.349 211.423,182.605 211.140,182.411 211.140 C 181.652 211.140,176.300 208.264,174.576 206.930 C 174.070 206.538,173.566 206.218,173.455 206.218 C 173.345 206.218,172.832 205.855,172.314 205.412 C 170.182 203.586,168.038 201.662,167.771 201.338 C 167.615 201.147,166.882 200.331,166.144 199.524 C 165.405 198.717,164.486 197.591,164.103 197.021 C 163.720 196.451,163.327 195.926,163.230 195.855 C 163.133 195.784,162.900 195.347,162.713 194.883 C 162.526 194.420,162.289 194.041,162.187 194.041 C 162.085 194.041,161.684 193.429,161.297 192.681 C 160.910 191.933,160.430 191.030,160.232 190.674 C 159.351 189.095,158.294 186.556,158.039 185.411 C 157.887 184.725,157.597 183.909,157.394 183.598 C 157.191 183.286,156.699 181.399,156.302 179.404 L 155.578 175.777 155.505 127.979 C 155.453 94.350,155.514 79.836,155.712 79.016 C 155.975 77.920,156.083 77.346,156.764 73.446 C 156.913 72.591,157.193 71.646,157.385 71.346 C 157.577 71.046,157.816 70.347,157.915 69.792 C 158.085 68.838,159.053 66.516,160.118 64.508 C 160.382 64.009,160.839 63.091,161.134 62.467 C 161.428 61.843,161.957 60.988,162.311 60.568 C 162.664 60.148,162.953 59.639,162.953 59.436 C 162.953 59.233,163.043 59.067,163.152 59.067 C 163.261 59.067,163.720 58.502,164.172 57.812 C 165.676 55.515,170.187 50.794,172.067 49.550 C 172.612 49.190,173.057 48.802,173.057 48.688 C 173.057 48.574,173.291 48.406,173.577 48.316 C 173.862 48.225,174.443 47.859,174.867 47.502 C 175.726 46.779,177.380 45.801,178.756 45.201 C 179.255 44.983,179.896 44.671,180.181 44.507 C 182.027 43.443,185.808 42.038,187.431 41.812 C 188.141 41.714,189.112 41.470,189.588 41.271 C 191.539 40.456,200.637 40.112,204.828 40.695 M193.394 48.434 C 192.681 48.548,191.341 48.889,190.415 49.190 C 189.488 49.491,188.497 49.738,188.212 49.740 C 187.927 49.742,187.324 49.968,186.872 50.244 C 186.420 50.520,185.451 50.923,184.718 51.141 C 183.986 51.358,183.035 51.832,182.606 52.193 C 182.177 52.554,181.601 52.850,181.327 52.850 C 181.053 52.850,180.614 53.064,180.352 53.327 C 180.090 53.589,179.215 54.242,178.409 54.777 C 176.788 55.853,174.352 57.961,174.352 58.289 C 174.352 58.994,176.613 59.067,198.389 59.067 C 222.609 59.067,224.522 58.961,222.215 57.741 C 221.894 57.572,220.933 56.830,220.078 56.093 C 219.223 55.357,218.086 54.491,217.552 54.169 C 217.017 53.848,216.580 53.490,216.580 53.375 C 216.580 53.259,216.260 53.087,215.868 52.992 C 215.476 52.896,214.718 52.532,214.184 52.182 C 213.649 51.833,212.600 51.305,211.853 51.011 C 211.105 50.716,210.372 50.374,210.224 50.251 C 210.075 50.128,209.030 49.836,207.901 49.603 C 206.772 49.370,205.496 48.997,205.065 48.774 C 204.167 48.310,195.694 48.063,193.394 48.434 M168.442 65.932 C 168.019 66.288,167.595 66.900,167.500 67.292 C 167.404 67.684,167.056 68.418,166.727 68.922 C 166.397 69.426,166.042 70.226,165.938 70.699 C 165.835 71.172,165.475 72.180,165.140 72.938 C 164.258 74.932,164.052 76.814,164.643 77.468 C 165.369 78.270,231.519 78.274,232.245 77.471 C 232.829 76.826,232.625 75.181,231.721 73.239 C 231.375 72.498,231.092 71.677,231.091 71.416 C 231.089 71.154,230.680 70.112,230.181 69.100 C 229.683 68.087,229.275 67.117,229.275 66.943 C 229.275 66.769,228.916 66.325,228.478 65.956 L 227.680 65.285 198.446 65.285 L 169.211 65.285 168.442 65.932 M164.346 84.251 C 162.474 84.855,162.238 96.758,164.089 97.255 C 164.953 97.487,232.215 97.426,232.582 97.193 C 233.209 96.795,233.420 95.188,233.418 90.805 C 233.417 85.830,233.210 84.680,232.241 84.238 C 231.375 83.843,165.573 83.856,164.346 84.251 M164.426 103.890 C 162.940 104.337,162.953 104.279,162.953 110.121 C 162.953 115.401,162.966 115.523,163.529 115.918 C 164.043 116.278,167.759 116.321,198.187 116.321 C 228.614 116.321,232.330 116.278,232.844 115.918 C 233.408 115.523,233.420 115.402,233.420 110.085 L 233.420 104.656 232.578 104.142 C 231.675 103.592,166.227 103.350,164.426 103.890 M164.119 122.726 C 162.978 123.007,162.953 123.136,162.962 128.723 C 162.968 133.081,163.042 134.163,163.361 134.585 C 163.749 135.098,164.097 135.104,197.899 135.172 L 232.045 135.241 232.732 134.700 L 233.420 134.159 233.420 128.744 L 233.420 123.329 232.655 122.934 C 231.909 122.548,165.662 122.347,164.119 122.726 M164.071 141.712 C 163.013 142.138,162.365 151.275,163.254 153.225 C 163.790 154.403,163.750 154.401,198.620 154.403 L 231.826 154.404 232.623 153.733 L 233.420 153.063 233.420 148.332 C 233.420 143.434,233.218 142.157,232.373 141.704 C 231.769 141.381,164.874 141.388,164.071 141.712 M164.357 160.900 C 163.120 161.259,162.953 161.960,162.955 166.787 C 162.956 171.697,163.188 172.962,164.152 173.328 C 165.047 173.669,231.737 173.662,232.373 173.322 C 233.218 172.869,233.420 171.592,233.420 166.694 L 233.420 161.963 232.623 161.292 L 231.826 160.622 198.490 160.645 C 179.719 160.658,164.807 160.770,164.357 160.900 M164.910 180.295 C 164.469 180.784,164.471 180.838,164.973 181.658 C 165.261 182.128,165.633 183.038,165.799 183.679 C 165.965 184.320,166.365 185.253,166.689 185.751 C 167.012 186.250,167.417 187.086,167.589 187.609 C 167.761 188.132,168.078 188.705,168.292 188.884 C 168.507 189.062,168.834 189.568,169.018 190.009 C 169.202 190.450,169.782 191.188,170.307 191.649 L 171.262 192.487 198.484 192.487 L 225.707 192.487 226.605 191.516 C 227.099 190.981,227.670 190.227,227.874 189.839 C 228.078 189.451,228.534 188.706,228.889 188.183 C 229.244 187.661,229.534 187.072,229.534 186.876 C 229.534 186.679,229.810 186.080,230.148 185.545 C 230.486 185.010,230.850 184.167,230.957 183.672 C 231.064 183.177,231.380 182.320,231.660 181.767 C 232.670 179.773,235.419 179.931,198.350 179.855 C 165.862 179.788,165.364 179.795,164.910 180.295 M178.094 199.110 C 177.720 199.411,177.678 199.550,177.929 199.654 C 178.116 199.731,178.787 200.190,179.421 200.674 C 180.056 201.158,180.674 201.554,180.795 201.554 C 180.916 201.554,181.455 201.852,181.991 202.216 C 182.527 202.580,183.496 203.058,184.145 203.278 C 184.793 203.498,185.624 203.887,185.991 204.143 C 186.358 204.399,187.414 204.749,188.339 204.920 C 189.263 205.091,190.371 205.424,190.800 205.660 C 191.752 206.182,202.862 206.446,204.728 205.991 C 207.853 205.229,210.620 204.342,211.693 203.760 C 212.354 203.402,213.074 203.109,213.294 203.109 C 213.514 203.109,213.863 202.939,214.071 202.732 C 214.278 202.524,214.957 202.092,215.579 201.770 C 216.201 201.449,216.852 201.047,217.027 200.878 C 217.201 200.708,217.768 200.306,218.287 199.986 L 219.231 199.403 218.618 199.063 C 217.614 198.506,178.787 198.551,178.094 199.110 " stroke="none" fill="#fcfcfc" fill-rule="evenodd"></path></g></svg>