<svg id="svg" version="1.1" xmlns="http://www.w3.org/2000/svg" xmlns:xlink="http://www.w3.org/1999/xlink" width="400" height="258.91472868217056" viewBox="0, 0, 400,258.91472868217056"><g id="svgg"><path id="path0" d="M134.197 40.942 C 132.986 41.229,131.186 41.637,130.197 41.850 C 129.208 42.062,128.027 42.454,127.573 42.722 C 127.119 42.990,126.355 43.295,125.874 43.400 C 125.393 43.505,124.372 43.925,123.603 44.334 C 122.835 44.743,122.069 45.078,121.900 45.078 C 121.731 45.078,121.325 45.363,120.997 45.712 C 120.669 46.061,120.092 46.414,119.714 46.497 C 119.336 46.580,118.622 46.994,118.127 47.417 C 117.633 47.839,117.111 48.188,116.969 48.192 C 116.826 48.195,116.010 48.847,115.155 49.640 C 114.301 50.432,113.310 51.237,112.953 51.428 C 112.255 51.802,110.104 54.006,110.104 54.348 C 110.104 54.462,109.725 54.962,109.262 55.458 C 108.799 55.955,108.128 56.751,107.772 57.227 C 107.416 57.702,106.824 58.457,106.456 58.903 C 106.089 59.350,105.525 60.269,105.203 60.946 C 104.881 61.622,104.523 62.176,104.409 62.176 C 104.295 62.176,104.124 62.484,104.030 62.859 C 103.936 63.235,103.573 63.916,103.225 64.373 C 102.876 64.830,102.591 65.368,102.590 65.568 C 102.590 65.769,102.246 66.660,101.825 67.549 C 101.405 68.438,100.979 69.604,100.879 70.140 C 100.779 70.676,100.412 71.930,100.063 72.927 C 98.588 77.147,98.574 77.677,98.591 127.720 C 98.608 177.231,98.628 177.987,100.001 181.736 C 100.314 182.591,100.684 183.873,100.822 184.585 C 100.961 185.298,101.343 186.347,101.672 186.917 C 102.000 187.487,102.349 188.324,102.446 188.777 C 102.544 189.231,102.785 189.735,102.982 189.899 C 103.179 190.062,103.541 190.741,103.786 191.406 C 104.031 192.072,104.432 192.850,104.676 193.135 C 104.921 193.420,105.297 194.003,105.513 194.431 C 105.729 194.858,106.151 195.430,106.450 195.701 C 106.750 195.972,106.995 196.331,106.995 196.498 C 106.995 196.664,107.297 197.084,107.667 197.429 C 108.037 197.774,108.497 198.348,108.689 198.705 C 109.647 200.478,116.515 206.504,119.445 208.141 C 119.935 208.415,120.395 208.710,120.466 208.795 C 120.686 209.060,125.021 211.140,125.352 211.140 C 125.524 211.140,126.218 211.420,126.895 211.763 C 127.571 212.106,128.704 212.472,129.412 212.577 C 130.120 212.682,131.341 212.994,132.124 213.271 C 135.593 214.493,146.071 214.617,150.130 213.482 C 151.269 213.164,152.910 212.762,153.776 212.589 C 154.642 212.416,155.749 212.032,156.237 211.735 C 156.725 211.438,157.532 211.110,158.031 211.006 C 158.530 210.902,159.229 210.618,159.585 210.376 C 159.942 210.133,160.641 209.779,161.140 209.589 C 161.639 209.398,162.280 209.041,162.565 208.796 C 162.850 208.550,163.549 208.115,164.119 207.829 C 164.689 207.543,165.378 207.063,165.649 206.763 C 165.920 206.463,166.254 206.218,166.391 206.218 C 167.509 206.218,175.510 197.859,176.822 195.320 C 177.075 194.831,177.431 194.313,177.613 194.171 C 178.813 193.232,182.166 185.372,182.918 181.736 C 183.184 180.453,183.527 178.938,183.680 178.368 C 184.636 174.824,184.698 171.718,184.707 127.344 C 184.715 85.040,184.639 80.342,183.895 77.332 C 183.754 76.762,183.527 75.712,183.389 75.000 C 183.252 74.288,183.026 73.121,182.887 72.408 C 182.748 71.694,182.449 70.762,182.224 70.335 C 181.999 69.909,181.649 68.934,181.447 68.170 C 181.245 67.406,180.848 66.487,180.566 66.127 C 180.283 65.768,180.052 65.319,180.052 65.129 C 180.052 64.668,179.225 62.953,179.003 62.953 C 178.906 62.953,178.632 62.443,178.394 61.819 C 178.156 61.196,177.732 60.478,177.452 60.225 C 177.172 59.971,176.943 59.653,176.943 59.516 C 176.943 59.380,176.448 58.610,175.842 57.806 C 173.216 54.319,167.662 48.912,165.916 48.143 C 165.498 47.959,165.097 47.737,165.026 47.649 C 164.620 47.148,161.411 45.130,160.772 44.973 C 160.356 44.870,159.728 44.561,159.378 44.285 C 159.027 44.010,158.260 43.662,157.673 43.512 C 157.086 43.362,156.082 42.967,155.440 42.634 C 154.799 42.301,153.595 41.947,152.764 41.848 C 151.933 41.748,150.592 41.430,149.784 41.139 C 147.514 40.322,137.357 40.194,134.197 40.942 M249.890 40.673 C 249.188 40.799,248.081 41.075,247.429 41.286 C 246.777 41.496,245.550 41.795,244.702 41.949 C 243.855 42.103,242.728 42.455,242.199 42.731 C 241.670 43.007,240.815 43.311,240.299 43.408 C 239.783 43.505,238.972 43.848,238.498 44.170 C 238.023 44.492,237.225 44.890,236.725 45.056 C 236.224 45.221,235.607 45.585,235.354 45.865 C 235.101 46.144,234.754 46.373,234.584 46.373 C 234.414 46.373,233.762 46.751,233.135 47.212 C 232.508 47.674,231.806 48.169,231.574 48.313 C 230.417 49.034,226.098 52.710,225.409 53.562 C 224.085 55.197,221.663 58.245,221.087 59.000 C 220.787 59.393,220.333 60.123,220.079 60.622 C 219.825 61.120,219.539 61.587,219.444 61.658 C 219.115 61.905,217.438 65.160,217.108 66.192 C 216.926 66.762,216.571 67.578,216.319 68.005 C 216.068 68.433,215.672 69.555,215.440 70.500 C 215.208 71.444,214.858 72.552,214.662 72.961 C 214.467 73.370,214.174 74.870,214.012 76.295 C 213.850 77.720,213.597 79.644,213.449 80.570 C 213.269 81.701,213.211 97.426,213.272 128.497 C 213.369 177.645,213.404 179.056,214.605 181.653 C 214.824 182.126,215.184 183.313,215.406 184.291 C 215.628 185.268,216.018 186.376,216.273 186.752 C 216.528 187.128,216.940 188.102,217.187 188.916 C 217.435 189.730,217.746 190.464,217.879 190.546 C 218.012 190.628,218.324 191.128,218.573 191.656 C 218.822 192.184,219.350 193.100,219.746 193.690 C 220.142 194.281,220.466 194.889,220.466 195.041 C 220.466 195.194,220.699 195.443,220.984 195.596 C 221.269 195.748,221.503 196.027,221.503 196.215 C 221.503 196.403,221.778 196.854,222.115 197.217 C 222.452 197.581,222.969 198.217,223.263 198.630 C 224.532 200.413,230.212 205.725,231.671 206.493 C 232.205 206.775,232.642 207.112,232.642 207.242 C 232.642 207.372,232.905 207.558,233.225 207.655 C 233.546 207.752,234.158 208.085,234.585 208.395 C 235.531 209.080,239.684 211.140,240.119 211.140 C 240.291 211.140,240.989 211.422,241.670 211.767 C 242.351 212.112,243.659 212.531,244.576 212.697 C 245.493 212.863,246.943 213.248,247.798 213.552 C 250.246 214.421,261.861 214.386,264.896 213.499 C 266.036 213.166,267.686 212.749,268.562 212.572 C 269.437 212.394,270.487 212.016,270.893 211.730 C 271.300 211.445,272.095 211.127,272.660 211.024 C 273.225 210.921,274.007 210.609,274.397 210.331 C 274.787 210.053,275.491 209.695,275.960 209.535 C 276.429 209.375,277.163 208.964,277.591 208.622 C 278.767 207.682,281.043 206.218,281.328 206.218 C 281.467 206.218,281.674 206.068,281.788 205.884 C 281.902 205.701,282.345 205.286,282.772 204.962 C 285.005 203.268,289.107 198.870,290.667 196.495 C 291.226 195.644,291.941 194.616,292.256 194.210 C 292.969 193.290,293.658 192.015,295.287 188.601 C 295.729 187.675,296.165 186.509,296.257 186.010 C 296.348 185.512,296.638 184.730,296.900 184.274 C 297.163 183.817,297.562 182.360,297.788 181.035 C 298.014 179.711,298.400 178.044,298.646 177.332 C 299.063 176.123,299.093 172.804,299.093 127.591 L 299.093 79.145 298.402 76.295 C 298.022 74.728,297.644 72.963,297.562 72.374 C 297.480 71.784,297.122 70.677,296.766 69.913 C 296.410 69.148,296.118 68.345,296.117 68.127 C 296.114 67.796,294.802 65.077,293.073 61.822 C 291.036 57.989,285.478 51.488,282.578 49.545 C 282.043 49.188,281.606 48.803,281.606 48.690 C 281.606 48.578,281.215 48.357,280.738 48.199 C 280.260 48.041,279.598 47.624,279.268 47.272 C 278.937 46.920,278.535 46.632,278.374 46.632 C 278.213 46.632,277.621 46.297,277.059 45.888 C 276.496 45.478,275.762 45.058,275.427 44.955 C 275.091 44.851,274.428 44.503,273.954 44.181 C 273.479 43.859,272.633 43.522,272.075 43.433 C 271.517 43.343,270.548 42.989,269.921 42.644 C 269.295 42.300,268.148 41.935,267.372 41.833 C 266.596 41.731,265.314 41.414,264.522 41.129 C 262.902 40.546,252.415 40.219,249.890 40.673 M149.214 49.070 C 150.277 49.439,151.361 49.741,151.621 49.741 C 151.881 49.741,152.842 50.091,153.756 50.518 C 154.671 50.946,155.583 51.295,155.783 51.295 C 155.984 51.295,156.443 51.527,156.804 51.811 C 157.164 52.095,157.967 52.563,158.587 52.852 C 159.713 53.375,160.006 53.573,162.694 55.625 C 167.438 59.246,169.418 58.924,141.864 59.009 C 114.944 59.092,116.022 59.206,119.207 56.606 C 120.080 55.894,120.930 55.180,121.096 55.021 C 121.262 54.861,121.761 54.543,122.203 54.314 C 122.646 54.085,123.165 53.745,123.356 53.558 C 123.548 53.370,124.171 52.980,124.741 52.690 C 125.311 52.401,126.127 51.984,126.554 51.765 C 128.934 50.545,130.320 49.982,131.490 49.761 C 132.210 49.626,133.317 49.319,133.951 49.080 C 136.955 47.947,145.956 47.941,149.214 49.070 M262.824 48.755 C 263.251 48.980,264.534 49.369,265.674 49.620 C 266.813 49.872,267.979 50.221,268.264 50.396 C 268.549 50.571,269.365 50.927,270.078 51.186 C 270.790 51.445,271.431 51.724,271.503 51.806 C 271.807 52.156,272.982 52.781,273.640 52.943 C 274.032 53.040,274.352 53.230,274.352 53.366 C 274.352 53.502,274.731 53.808,275.194 54.045 C 275.657 54.282,276.398 54.780,276.841 55.153 C 277.283 55.525,278.245 56.293,278.978 56.860 C 280.471 58.015,280.618 58.445,279.646 58.815 C 278.707 59.172,233.553 59.157,232.885 58.799 C 231.849 58.245,232.884 57.089,237.047 54.153 C 238.972 52.795,245.194 49.741,246.035 49.741 C 246.319 49.741,247.240 49.496,248.081 49.197 C 251.104 48.124,261.052 47.825,262.824 48.755 M171.334 65.574 C 171.729 65.754,172.027 66.160,172.126 66.653 C 172.213 67.088,172.559 67.804,172.895 68.245 C 173.232 68.686,173.592 69.436,173.697 69.912 C 173.801 70.388,174.161 71.378,174.495 72.112 C 175.535 74.393,175.811 76.945,175.078 77.509 C 174.204 78.182,108.051 78.239,107.493 77.567 C 107.035 77.015,107.152 75.698,107.765 74.495 C 108.041 73.954,108.403 72.856,108.569 72.054 C 108.736 71.253,109.084 70.327,109.343 69.997 C 109.603 69.668,109.955 68.968,110.126 68.442 C 110.298 67.917,110.776 66.992,111.190 66.386 L 111.942 65.285 141.321 65.285 C 162.360 65.285,170.881 65.367,171.334 65.574 M285.828 65.524 C 286.224 65.674,286.621 66.178,286.903 66.884 C 287.148 67.501,287.503 68.180,287.692 68.394 C 287.880 68.608,288.173 69.307,288.342 69.948 C 288.510 70.589,288.871 71.477,289.143 71.921 C 290.073 73.441,290.494 76.922,289.817 77.488 C 288.877 78.273,222.750 78.239,222.200 77.453 C 221.775 76.846,221.981 75.240,222.648 73.964 C 222.871 73.536,223.056 73.012,223.059 72.798 C 223.067 72.243,223.668 70.591,224.014 70.173 C 224.175 69.978,224.534 69.220,224.811 68.489 C 225.089 67.758,225.637 66.738,226.031 66.222 L 226.745 65.285 255.972 65.285 C 273.184 65.285,285.458 65.383,285.828 65.524 M176.383 84.598 C 176.772 85.450,176.800 96.190,176.416 96.908 C 176.136 97.432,107.892 97.725,107.076 97.206 C 106.234 96.670,105.775 87.356,106.490 85.305 C 106.972 83.924,105.643 83.974,141.992 83.955 L 176.083 83.938 176.383 84.598 M291.047 84.514 C 291.533 85.207,291.651 96.032,291.183 96.908 C 290.902 97.432,222.659 97.725,221.843 97.206 C 221.000 96.670,220.542 87.356,221.257 85.305 C 221.739 83.924,220.416 83.974,256.656 83.955 L 290.644 83.938 291.047 84.514 M176.421 104.137 C 176.595 104.463,176.669 106.734,176.624 110.420 L 176.554 116.192 141.636 116.192 C 110.879 116.192,106.688 116.145,106.471 115.803 C 106.336 115.589,106.224 112.994,106.222 110.035 L 106.218 104.656 107.060 104.142 C 108.381 103.336,175.990 103.332,176.421 104.137 M291.048 104.039 C 291.405 104.395,291.451 105.239,291.391 110.321 L 291.321 116.192 256.402 116.192 C 225.645 116.192,221.454 116.145,221.238 115.803 C 221.103 115.589,220.991 113.005,220.988 110.060 L 220.984 104.706 221.697 104.175 C 222.684 103.438,290.315 103.306,291.048 104.039 M176.373 122.850 C 176.596 123.073,176.684 124.778,176.684 128.886 C 176.684 132.994,176.596 134.699,176.373 134.922 C 175.848 135.447,108.001 135.365,106.982 134.838 L 106.218 134.443 106.218 128.888 L 106.218 123.333 106.930 122.946 C 107.887 122.427,175.856 122.333,176.373 122.850 M291.140 122.850 C 291.363 123.073,291.451 124.778,291.451 128.886 C 291.451 132.994,291.363 134.699,291.140 134.922 C 290.674 135.388,222.684 135.364,221.762 134.898 L 221.114 134.571 221.044 128.954 L 220.974 123.338 221.692 122.949 C 222.654 122.427,290.620 122.330,291.140 122.850 M176.416 141.952 C 176.760 142.596,176.774 152.839,176.431 153.740 L 176.179 154.404 141.995 154.404 L 107.812 154.404 106.996 153.718 L 106.180 153.031 106.264 147.736 C 106.346 142.530,106.358 142.432,106.959 141.946 C 107.925 141.164,175.997 141.170,176.416 141.952 M291.197 141.978 C 291.665 142.853,291.427 153.839,290.933 154.151 C 290.693 154.302,277.447 154.398,256.447 154.400 L 222.350 154.404 221.649 153.703 L 220.948 153.001 221.031 147.721 C 221.113 142.531,221.124 142.432,221.726 141.946 C 222.720 141.141,290.766 141.173,291.197 141.978 M176.446 161.324 C 176.940 162.623,176.642 172.434,176.092 172.984 C 175.340 173.735,107.887 173.832,106.962 173.083 C 106.357 172.593,106.346 172.504,106.264 167.290 L 106.180 161.995 106.996 161.308 L 107.812 160.622 141.995 160.622 L 176.179 160.622 176.446 161.324 M290.933 160.876 C 291.571 161.280,291.504 172.338,290.859 172.983 C 290.107 173.735,222.655 173.832,221.729 173.083 C 221.124 172.593,221.113 172.504,221.031 167.305 L 220.948 162.025 221.649 161.323 L 222.350 160.622 256.447 160.626 C 277.518 160.628,290.693 160.724,290.933 160.876 M174.868 180.306 C 175.188 180.904,174.991 181.935,174.347 183.031 C 174.096 183.459,173.805 184.208,173.702 184.696 C 173.598 185.185,173.178 186.130,172.767 186.797 C 172.357 187.465,172.021 188.068,172.021 188.138 C 172.021 188.536,169.590 191.876,169.103 192.147 C 168.267 192.611,114.305 192.619,113.725 192.155 C 113.182 191.721,111.660 189.597,111.651 189.262 C 111.647 189.112,111.297 188.532,110.874 187.972 C 110.450 187.412,110.103 186.771,110.103 186.547 C 110.102 186.323,109.852 185.732,109.546 185.233 C 108.572 183.643,107.930 180.574,108.484 180.154 C 109.351 179.496,174.514 179.644,174.868 180.306 M289.489 180.200 C 290.007 180.717,290.029 180.569,289.119 182.642 C 288.692 183.616,288.342 184.571,288.342 184.763 C 288.342 184.955,288.051 185.542,287.694 186.066 C 287.338 186.590,287.047 187.184,287.047 187.385 C 287.047 187.587,286.779 188.147,286.451 188.630 C 286.124 189.113,285.588 189.985,285.261 190.567 C 284.095 192.645,286.496 192.487,256.013 192.487 L 228.816 192.487 227.902 191.546 C 227.399 191.029,226.774 190.183,226.512 189.668 C 226.250 189.152,225.774 188.370,225.453 187.929 C 225.133 187.488,224.870 186.952,224.870 186.737 C 224.870 186.522,224.587 185.814,224.241 185.164 C 223.895 184.513,223.382 183.212,223.100 182.273 L 222.588 180.565 223.139 180.179 C 224.000 179.576,288.886 179.596,289.489 180.200 M162.171 199.114 C 162.468 199.411,160.888 200.576,158.563 201.774 C 157.914 202.108,157.345 202.487,157.297 202.616 C 157.250 202.744,157.054 202.850,156.863 202.850 C 156.671 202.850,155.761 203.242,154.840 203.722 C 153.920 204.202,152.724 204.678,152.182 204.779 C 151.641 204.881,150.290 205.257,149.181 205.614 C 146.905 206.349,135.010 206.483,134.169 205.784 C 133.968 205.617,133.011 205.297,132.041 205.072 C 131.072 204.847,129.674 204.381,128.935 204.037 C 128.196 203.692,127.183 203.223,126.684 202.994 C 123.163 201.375,120.515 199.499,121.122 199.055 C 121.758 198.590,161.705 198.648,162.171 199.114 M276.962 199.138 C 277.194 199.370,276.952 199.600,275.938 200.114 C 275.208 200.483,274.611 200.895,274.611 201.029 C 274.611 201.162,274.062 201.514,273.390 201.811 C 272.718 202.109,272.106 202.441,272.030 202.549 C 271.954 202.658,271.308 202.962,270.596 203.225 C 269.883 203.489,269.009 203.900,268.653 204.140 C 268.297 204.380,267.189 204.762,266.192 204.989 C 265.194 205.216,263.856 205.594,263.217 205.829 C 261.689 206.392,249.752 206.316,248.735 205.737 C 248.396 205.544,247.177 205.161,246.026 204.886 C 244.874 204.611,243.753 204.234,243.534 204.049 C 243.314 203.864,242.727 203.551,242.228 203.355 C 240.696 202.751,238.040 201.305,237.266 200.654 C 236.862 200.314,236.298 199.962,236.012 199.871 C 235.372 199.668,235.347 199.334,235.946 198.982 C 236.627 198.581,276.557 198.733,276.962 199.138 " stroke="none" fill="#ec222a" fill-rule="evenodd"></path><path id="path1" d="M0.000 129.534 L 0.000 259.067 200.000 259.067 L 400.000 259.067 400.000 129.534 L 400.000 0.000 200.000 0.000 L 0.000 0.000 0.000 129.534 M149.784 41.139 C 150.592 41.430,151.933 41.748,152.764 41.848 C 153.595 41.947,154.799 42.301,155.440 42.634 C 156.082 42.967,157.086 43.362,157.673 43.512 C 158.260 43.662,159.027 44.010,159.378 44.285 C 159.728 44.561,160.356 44.870,160.772 44.973 C 161.411 45.130,164.620 47.148,165.026 47.649 C 165.097 47.737,165.498 47.959,165.916 48.143 C 167.662 48.912,173.216 54.319,175.842 57.806 C 176.448 58.610,176.943 59.380,176.943 59.516 C 176.943 59.653,177.172 59.971,177.452 60.225 C 177.732 60.478,178.156 61.196,178.394 61.819 C 178.632 62.443,178.906 62.953,179.003 62.953 C 179.225 62.953,180.052 64.668,180.052 65.129 C 180.052 65.319,180.283 65.768,180.566 66.127 C 180.848 66.487,181.245 67.406,181.447 68.170 C 181.649 68.934,181.999 69.909,182.224 70.335 C 182.449 70.762,182.748 71.694,182.887 72.408 C 183.026 73.121,183.252 74.288,183.389 75.000 C 183.527 75.712,183.754 76.762,183.895 77.332 C 184.639 80.342,184.715 85.040,184.707 127.344 C 184.698 171.718,184.636 174.824,183.680 178.368 C 183.527 178.938,183.184 180.453,182.918 181.736 C 182.166 185.372,178.813 193.232,177.613 194.171 C 177.431 194.313,177.075 194.831,176.822 195.320 C 175.510 197.859,167.509 206.218,166.391 206.218 C 166.254 206.218,165.920 206.463,165.649 206.763 C 165.378 207.063,164.689 207.543,164.119 207.829 C 163.549 208.115,162.850 208.550,162.565 208.796 C 162.280 209.041,161.639 209.398,161.140 209.589 C 160.641 209.779,159.942 210.133,159.585 210.376 C 159.229 210.618,158.530 210.902,158.031 211.006 C 157.532 211.110,156.725 211.438,156.237 211.735 C 155.749 212.032,154.642 212.416,153.776 212.589 C 152.910 212.762,151.269 213.164,150.130 213.482 C 146.071 214.617,135.593 214.493,132.124 213.271 C 131.341 212.994,130.120 212.682,129.412 212.577 C 128.704 212.472,127.571 212.106,126.895 211.763 C 126.218 211.420,125.524 211.140,125.352 211.140 C 125.021 211.140,120.686 209.060,120.466 208.795 C 120.395 208.710,119.935 208.415,119.445 208.141 C 116.515 206.504,109.647 200.478,108.689 198.705 C 108.497 198.348,108.037 197.774,107.667 197.429 C 107.297 197.084,106.995 196.664,106.995 196.498 C 106.995 196.331,106.750 195.972,106.450 195.701 C 106.151 195.430,105.729 194.858,105.513 194.431 C 105.297 194.003,104.921 193.420,104.676 193.135 C 104.432 192.850,104.031 192.072,103.786 191.406 C 103.541 190.741,103.179 190.062,102.982 189.899 C 102.785 189.735,102.544 189.231,102.446 188.777 C 102.349 188.324,102.000 187.487,101.672 186.917 C 101.343 186.347,100.961 185.298,100.822 184.585 C 100.684 183.873,100.314 182.591,100.001 181.736 C 98.628 177.987,98.608 177.231,98.591 127.720 C 98.574 77.677,98.588 77.147,100.063 72.927 C 100.412 71.930,100.779 70.676,100.879 70.140 C 100.979 69.604,101.405 68.438,101.825 67.549 C 102.246 66.660,102.590 65.769,102.590 65.568 C 102.591 65.368,102.876 64.830,103.225 64.373 C 103.573 63.916,103.936 63.235,104.030 62.859 C 104.124 62.484,104.295 62.176,104.409 62.176 C 104.523 62.176,104.881 61.622,105.203 60.946 C 105.525 60.269,106.089 59.350,106.456 58.903 C 106.824 58.457,107.416 57.702,107.772 57.227 C 108.128 56.751,108.799 55.955,109.262 55.458 C 109.725 54.962,110.104 54.462,110.104 54.348 C 110.104 54.006,112.255 51.802,112.953 51.428 C 113.310 51.237,114.301 50.432,115.155 49.640 C 116.010 48.847,116.826 48.195,116.969 48.192 C 117.111 48.188,117.633 47.839,118.127 47.417 C 118.622 46.994,119.336 46.580,119.714 46.497 C 120.092 46.414,120.669 46.061,120.997 45.712 C 121.325 45.363,121.731 45.078,121.900 45.078 C 122.069 45.078,122.835 44.743,123.603 44.334 C 124.372 43.925,125.393 43.505,125.874 43.400 C 126.355 43.295,127.119 42.990,127.573 42.722 C 128.027 42.454,129.208 42.062,130.197 41.850 C 131.186 41.637,132.986 41.229,134.197 40.942 C 137.357 40.194,147.514 40.322,149.784 41.139 M264.522 41.129 C 265.314 41.414,266.596 41.731,267.372 41.833 C 268.148 41.935,269.295 42.300,269.921 42.644 C 270.548 42.989,271.517 43.343,272.075 43.433 C 272.633 43.522,273.479 43.859,273.954 44.181 C 274.428 44.503,275.091 44.851,275.427 44.955 C 275.762 45.058,276.496 45.478,277.059 45.888 C 277.621 46.297,278.213 46.632,278.374 46.632 C 278.535 46.632,278.937 46.920,279.268 47.272 C 279.598 47.624,280.260 48.041,280.738 48.199 C 281.215 48.357,281.606 48.578,281.606 48.690 C 281.606 48.803,282.043 49.188,282.578 49.545 C 285.478 51.488,291.036 57.989,293.073 61.822 C 294.802 65.077,296.114 67.796,296.117 68.127 C 296.118 68.345,296.410 69.148,296.766 69.913 C 297.122 70.677,297.480 71.784,297.562 72.374 C 297.644 72.963,298.022 74.728,298.402 76.295 L 299.093 79.145 299.093 127.591 C 299.093 172.804,299.063 176.123,298.646 177.332 C 298.400 178.044,298.014 179.711,297.788 181.035 C 297.562 182.360,297.163 183.817,296.900 184.274 C 296.638 184.730,296.348 185.512,296.257 186.010 C 296.165 186.509,295.729 187.675,295.287 188.601 C 293.658 192.015,292.969 193.290,292.256 194.210 C 291.941 194.616,291.226 195.644,290.667 196.495 C 289.107 198.870,285.005 203.268,282.772 204.962 C 282.345 205.286,281.902 205.701,281.788 205.884 C 281.674 206.068,281.467 206.218,281.328 206.218 C 281.043 206.218,278.767 207.682,277.591 208.622 C 277.163 208.964,276.429 209.375,275.960 209.535 C 275.491 209.695,274.787 210.053,274.397 210.331 C 274.007 210.609,273.225 210.921,272.660 211.024 C 272.095 211.127,271.300 211.445,270.893 211.730 C 270.487 212.016,269.437 212.394,268.562 212.572 C 267.686 212.749,266.036 213.166,264.896 213.499 C 261.861 214.386,250.246 214.421,247.798 213.552 C 246.943 213.248,245.493 212.863,244.576 212.697 C 243.659 212.531,242.351 212.112,241.670 211.767 C 240.989 211.422,240.291 211.140,240.119 211.140 C 239.684 211.140,235.531 209.080,234.585 208.395 C 234.158 208.085,233.546 207.752,233.225 207.655 C 232.905 207.558,232.642 207.372,232.642 207.242 C 232.642 207.112,232.205 206.775,231.671 206.493 C 230.212 205.725,224.532 200.413,223.263 198.630 C 222.969 198.217,222.452 197.581,222.115 197.217 C 221.778 196.854,221.503 196.403,221.503 196.215 C 221.503 196.027,221.269 195.748,220.984 195.596 C 220.699 195.443,220.466 195.194,220.466 195.041 C 220.466 194.889,220.142 194.281,219.746 193.690 C 219.350 193.100,218.822 192.184,218.573 191.656 C 218.324 191.128,218.012 190.628,217.879 190.546 C 217.746 190.464,217.435 189.730,217.187 188.916 C 216.940 188.102,216.528 187.128,216.273 186.752 C 216.018 186.376,215.628 185.268,215.406 184.291 C 215.184 183.313,214.824 182.126,214.605 181.653 C 213.404 179.056,213.369 177.645,213.272 128.497 C 213.211 97.426,213.269 81.701,213.449 80.570 C 213.597 79.644,213.850 77.720,214.012 76.295 C 214.174 74.870,214.467 73.370,214.662 72.961 C 214.858 72.552,215.208 71.444,215.440 70.500 C 215.672 69.555,216.068 68.433,216.319 68.005 C 216.571 67.578,216.926 66.762,217.108 66.192 C 217.438 65.160,219.115 61.905,219.444 61.658 C 219.539 61.587,219.825 61.120,220.079 60.622 C 220.333 60.123,220.787 59.393,221.087 59.000 C 221.663 58.245,224.085 55.197,225.409 53.562 C 226.098 52.710,230.417 49.034,231.574 48.313 C 231.806 48.169,232.508 47.674,233.135 47.212 C 233.762 46.751,234.414 46.373,234.584 46.373 C 234.754 46.373,235.101 46.144,235.354 45.865 C 235.607 45.585,236.224 45.221,236.725 45.056 C 237.225 44.890,238.023 44.492,238.498 44.170 C 238.972 43.848,239.783 43.505,240.299 43.408 C 240.815 43.311,241.670 43.007,242.199 42.731 C 242.728 42.455,243.855 42.103,244.702 41.949 C 245.550 41.795,246.777 41.496,247.429 41.286 C 250.643 40.247,261.789 40.145,264.522 41.129 M136.399 48.437 C 135.687 48.552,134.585 48.841,133.951 49.080 C 133.317 49.319,132.210 49.626,131.490 49.761 C 130.320 49.982,128.934 50.545,126.554 51.765 C 126.127 51.984,125.311 52.401,124.741 52.690 C 124.171 52.980,123.548 53.370,123.356 53.558 C 123.165 53.745,122.646 54.085,122.203 54.314 C 121.761 54.543,121.262 54.861,121.096 55.021 C 120.930 55.180,120.080 55.894,119.207 56.606 C 116.022 59.206,114.944 59.092,141.864 59.009 C 169.418 58.924,167.438 59.246,162.694 55.625 C 160.006 53.573,159.713 53.375,158.587 52.852 C 157.967 52.563,157.164 52.095,156.804 51.811 C 156.443 51.527,155.984 51.295,155.783 51.295 C 155.583 51.295,154.671 50.946,153.756 50.518 C 152.842 50.091,151.881 49.741,151.621 49.741 C 151.361 49.741,150.277 49.439,149.214 49.070 C 147.120 48.345,139.365 47.962,136.399 48.437 M251.036 48.439 C 250.253 48.557,248.923 48.898,248.081 49.197 C 247.240 49.496,246.319 49.741,246.035 49.741 C 245.194 49.741,238.972 52.795,237.047 54.153 C 232.884 57.089,231.849 58.245,232.885 58.799 C 233.553 59.157,278.707 59.172,279.646 58.815 C 280.618 58.445,280.471 58.015,278.978 56.860 C 278.245 56.293,277.283 55.525,276.841 55.153 C 276.398 54.780,275.657 54.282,275.194 54.045 C 274.731 53.808,274.352 53.502,274.352 53.366 C 274.352 53.230,274.032 53.040,273.640 52.943 C 272.982 52.781,271.807 52.156,271.503 51.806 C 271.431 51.724,270.790 51.445,270.078 51.186 C 269.365 50.927,268.549 50.571,268.264 50.396 C 267.979 50.221,266.813 49.872,265.674 49.620 C 264.534 49.369,263.251 48.980,262.824 48.755 C 261.928 48.285,253.551 48.060,251.036 48.439 M111.190 66.386 C 110.776 66.992,110.298 67.917,110.126 68.442 C 109.955 68.968,109.603 69.668,109.343 69.997 C 109.084 70.327,108.736 71.253,108.569 72.054 C 108.403 72.856,108.041 73.954,107.765 74.495 C 107.152 75.698,107.035 77.015,107.493 77.567 C 108.051 78.239,174.204 78.182,175.078 77.509 C 175.811 76.945,175.535 74.393,174.495 72.112 C 174.161 71.378,173.801 70.388,173.697 69.912 C 173.592 69.436,173.232 68.686,172.895 68.245 C 172.559 67.804,172.213 67.088,172.126 66.653 C 171.843 65.238,172.902 65.285,141.321 65.285 L 111.942 65.285 111.190 66.386 M226.031 66.222 C 225.637 66.738,225.089 67.758,224.811 68.489 C 224.534 69.220,224.175 69.978,224.014 70.173 C 223.668 70.591,223.067 72.243,223.059 72.798 C 223.056 73.012,222.871 73.536,222.648 73.964 C 221.981 75.240,221.775 76.846,222.200 77.453 C 222.750 78.239,288.877 78.273,289.817 77.488 C 290.494 76.922,290.073 73.441,289.143 71.921 C 288.871 71.477,288.510 70.589,288.342 69.948 C 288.173 69.307,287.880 68.608,287.692 68.394 C 287.503 68.180,287.148 67.501,286.903 66.884 C 286.236 65.209,287.700 65.285,255.972 65.285 L 226.745 65.285 226.031 66.222 M107.332 84.248 C 105.867 84.956,105.642 96.294,107.076 97.206 C 107.892 97.725,176.136 97.432,176.416 96.908 C 176.800 96.190,176.772 85.450,176.383 84.598 L 176.083 83.938 141.992 83.955 C 118.511 83.967,107.724 84.058,107.332 84.248 M222.099 84.248 C 220.633 84.956,220.409 96.294,221.843 97.206 C 222.659 97.725,290.902 97.432,291.183 96.908 C 291.651 96.032,291.533 85.207,291.047 84.514 L 290.644 83.938 256.656 83.955 C 233.248 83.967,222.491 84.058,222.099 84.248 M107.060 104.142 L 106.218 104.656 106.222 110.035 C 106.224 112.994,106.336 115.589,106.471 115.803 C 106.688 116.145,110.879 116.192,141.636 116.192 L 176.554 116.192 176.624 110.420 C 176.669 106.734,176.595 104.463,176.421 104.137 C 175.990 103.332,108.381 103.336,107.060 104.142 M221.697 104.175 L 220.984 104.706 220.988 110.060 C 220.991 113.005,221.103 115.589,221.238 115.803 C 221.454 116.145,225.645 116.192,256.402 116.192 L 291.321 116.192 291.391 110.321 C 291.451 105.239,291.405 104.395,291.048 104.039 C 290.315 103.306,222.684 103.438,221.697 104.175 M106.930 122.946 L 106.218 123.333 106.218 128.888 L 106.218 134.443 106.982 134.838 C 108.001 135.365,175.848 135.447,176.373 134.922 C 176.596 134.699,176.684 132.994,176.684 128.886 C 176.684 124.778,176.596 123.073,176.373 122.850 C 175.856 122.333,107.887 122.427,106.930 122.946 M221.692 122.949 L 220.974 123.338 221.044 128.954 L 221.114 134.571 221.762 134.898 C 222.684 135.364,290.674 135.388,291.140 134.922 C 291.363 134.699,291.451 132.994,291.451 128.886 C 291.451 124.778,291.363 123.073,291.140 122.850 C 290.620 122.330,222.654 122.427,221.692 122.949 M106.959 141.946 C 106.358 142.432,106.346 142.530,106.264 147.736 L 106.180 153.031 106.996 153.718 L 107.812 154.404 141.995 154.404 L 176.179 154.404 176.431 153.740 C 176.774 152.839,176.760 142.596,176.416 141.952 C 175.997 141.170,107.925 141.164,106.959 141.946 M221.726 141.946 C 221.124 142.432,221.113 142.531,221.031 147.721 L 220.948 153.001 221.649 153.703 L 222.350 154.404 256.447 154.400 C 277.447 154.398,290.693 154.302,290.933 154.151 C 291.427 153.839,291.665 142.853,291.197 141.978 C 290.766 141.173,222.720 141.141,221.726 141.946 M106.996 161.308 L 106.180 161.995 106.264 167.290 C 106.346 172.504,106.357 172.593,106.962 173.083 C 107.887 173.832,175.340 173.735,176.092 172.984 C 176.642 172.434,176.940 162.623,176.446 161.324 L 176.179 160.622 141.995 160.622 L 107.812 160.622 106.996 161.308 M221.649 161.323 L 220.948 162.025 221.031 167.305 C 221.113 172.504,221.124 172.593,221.729 173.083 C 222.655 173.832,290.107 173.735,290.859 172.983 C 291.504 172.338,291.571 161.280,290.933 160.876 C 290.693 160.724,277.518 160.628,256.447 160.626 L 222.350 160.622 221.649 161.323 M108.484 180.154 C 107.930 180.574,108.572 183.643,109.546 185.233 C 109.852 185.732,110.102 186.323,110.103 186.547 C 110.103 186.771,110.450 187.412,110.874 187.972 C 111.297 188.532,111.647 189.112,111.651 189.262 C 111.660 189.597,113.182 191.721,113.725 192.155 C 114.305 192.619,168.267 192.611,169.103 192.147 C 169.590 191.876,172.021 188.536,172.021 188.138 C 172.021 188.068,172.357 187.465,172.767 186.797 C 173.178 186.130,173.598 185.185,173.702 184.696 C 173.805 184.208,174.096 183.459,174.347 183.031 C 174.991 181.935,175.188 180.904,174.868 180.306 C 174.514 179.644,109.351 179.496,108.484 180.154 M223.139 180.179 L 222.588 180.565 223.100 182.273 C 223.382 183.212,223.895 184.513,224.241 185.164 C 224.587 185.814,224.870 186.522,224.870 186.737 C 224.870 186.952,225.133 187.488,225.453 187.929 C 225.774 188.370,226.250 189.152,226.512 189.668 C 226.774 190.183,227.399 191.029,227.902 191.546 L 228.816 192.487 256.013 192.487 C 286.496 192.487,284.095 192.645,285.261 190.567 C 285.588 189.985,286.124 189.113,286.451 188.630 C 286.779 188.147,287.047 187.587,287.047 187.385 C 287.047 187.184,287.338 186.590,287.694 186.066 C 288.051 185.542,288.342 184.955,288.342 184.763 C 288.342 184.571,288.692 183.616,289.119 182.642 C 290.029 180.569,290.007 180.717,289.489 180.200 C 288.886 179.596,224.000 179.576,223.139 180.179 M121.122 199.055 C 120.515 199.499,123.163 201.375,126.684 202.994 C 127.183 203.223,128.196 203.692,128.935 204.037 C 129.674 204.381,131.072 204.847,132.041 205.072 C 133.011 205.297,133.968 205.617,134.169 205.784 C 135.010 206.483,146.905 206.349,149.181 205.614 C 150.290 205.257,151.641 204.881,152.182 204.779 C 152.724 204.678,153.920 204.202,154.840 203.722 C 155.761 203.242,156.671 202.850,156.863 202.850 C 157.054 202.850,157.250 202.744,157.297 202.616 C 157.345 202.487,157.914 202.108,158.563 201.774 C 160.888 200.576,162.468 199.411,162.171 199.114 C 161.705 198.648,121.758 198.590,121.122 199.055 M235.946 198.982 C 235.347 199.334,235.372 199.668,236.012 199.871 C 236.298 199.962,236.862 200.314,237.266 200.654 C 238.040 201.305,240.696 202.751,242.228 203.355 C 242.727 203.551,243.314 203.864,243.534 204.049 C 243.753 204.234,244.874 204.611,246.026 204.886 C 247.177 205.161,248.396 205.544,248.735 205.737 C 249.752 206.316,261.689 206.392,263.217 205.829 C 263.856 205.594,265.194 205.216,266.192 204.989 C 267.189 204.762,268.297 204.380,268.653 204.140 C 269.009 203.900,269.883 203.489,270.596 203.225 C 271.308 202.962,271.954 202.658,272.030 202.549 C 272.106 202.441,272.718 202.109,273.390 201.811 C 274.062 201.514,274.611 201.162,274.611 201.029 C 274.611 200.895,275.208 200.483,275.938 200.114 C 276.952 199.600,277.194 199.370,276.962 199.138 C 276.557 198.733,236.627 198.581,235.946 198.982 " stroke="none" fill="#fcfcfc" fill-rule="evenodd"></path></g></svg>