<svg id="svg" version="1.1" xmlns="http://www.w3.org/2000/svg" xmlns:xlink="http://www.w3.org/1999/xlink" width="400" height="258.91472868217056" viewBox="0, 0, 400,258.91472868217056"><g id="svgg"><path id="path0" d="M77.138 40.685 C 76.319 40.811,75.411 41.041,75.120 41.197 C 74.830 41.352,73.693 41.651,72.595 41.862 C 71.496 42.072,70.131 42.467,69.560 42.739 C 68.990 43.011,68.174 43.316,67.746 43.416 C 67.319 43.517,66.653 43.819,66.268 44.089 C 65.882 44.358,65.183 44.707,64.714 44.864 C 64.244 45.021,63.510 45.408,63.083 45.724 C 62.655 46.040,62.023 46.388,61.678 46.497 C 61.333 46.606,60.808 46.924,60.512 47.204 C 60.216 47.484,59.624 47.894,59.197 48.115 C 57.786 48.847,52.082 54.159,50.602 56.119 C 48.556 58.829,48.187 59.354,48.187 59.550 C 48.187 59.670,47.879 60.100,47.504 60.506 C 47.128 60.911,46.722 61.598,46.600 62.033 C 46.479 62.468,46.087 63.163,45.729 63.577 C 45.371 63.991,45.078 64.463,45.078 64.627 C 45.078 64.790,44.791 65.501,44.441 66.206 C 43.862 67.371,43.591 68.109,42.399 71.762 C 42.190 72.403,41.820 74.093,41.577 75.518 C 41.333 76.943,41.031 78.377,40.904 78.704 C 40.772 79.044,40.674 100.026,40.674 127.592 L 40.674 175.886 41.298 178.422 C 41.642 179.817,42.000 181.520,42.094 182.205 C 42.188 182.891,42.483 183.824,42.750 184.278 C 43.017 184.732,43.358 185.651,43.507 186.319 C 43.656 186.988,44.070 187.966,44.428 188.493 C 44.785 189.020,45.078 189.652,45.078 189.898 C 45.078 190.143,45.310 190.640,45.594 191.000 C 45.877 191.361,46.345 192.164,46.634 192.784 C 46.922 193.404,47.444 194.320,47.794 194.819 C 48.144 195.317,48.696 196.113,49.021 196.588 C 50.514 198.768,53.658 202.219,55.267 203.446 C 55.764 203.826,56.593 204.534,57.109 205.021 C 57.626 205.508,58.747 206.355,59.600 206.904 C 60.454 207.453,61.574 208.171,62.089 208.501 C 62.603 208.830,63.504 209.288,64.090 209.517 C 64.676 209.747,65.423 210.139,65.751 210.390 C 66.078 210.640,66.719 210.926,67.175 211.024 C 67.632 211.123,68.533 211.470,69.179 211.795 C 69.825 212.120,70.932 212.471,71.640 212.575 C 72.348 212.679,73.462 212.972,74.116 213.227 C 77.476 214.536,88.627 214.636,92.617 213.392 C 93.756 213.036,95.149 212.666,95.711 212.569 C 96.273 212.472,97.289 212.111,97.969 211.766 C 98.649 211.422,99.341 211.140,99.507 211.140 C 100.451 211.140,108.215 206.752,109.590 205.440 C 109.814 205.227,110.509 204.644,111.133 204.145 C 112.298 203.214,114.157 201.385,115.258 200.085 C 116.869 198.184,119.223 194.987,119.612 194.171 C 119.850 193.672,120.121 193.264,120.216 193.264 C 120.310 193.264,120.604 192.769,120.869 192.163 C 121.133 191.558,121.552 190.793,121.799 190.465 C 122.046 190.136,122.448 189.262,122.692 188.522 C 122.937 187.782,123.289 186.942,123.475 186.655 C 123.661 186.368,124.000 185.329,124.228 184.345 C 124.456 183.361,124.805 182.241,125.004 181.857 C 125.203 181.472,125.570 179.772,125.818 178.079 C 126.462 173.697,126.686 82.946,126.062 79.145 C 125.852 77.863,125.616 76.082,125.537 75.188 C 125.459 74.294,125.226 73.235,125.019 72.835 C 124.812 72.434,124.458 71.310,124.232 70.335 C 124.006 69.360,123.602 68.204,123.334 67.766 C 123.067 67.328,122.698 66.444,122.515 65.803 C 122.331 65.162,121.912 64.308,121.583 63.905 C 121.254 63.502,120.984 63.032,120.984 62.860 C 120.984 62.302,117.433 56.995,117.059 56.995 C 116.957 56.995,116.793 56.739,116.694 56.426 C 116.456 55.676,111.590 50.680,110.104 49.659 C 109.462 49.219,108.784 48.708,108.595 48.523 C 108.407 48.338,108.154 48.187,108.032 48.187 C 107.911 48.187,107.446 47.879,107.000 47.503 C 106.165 46.801,105.981 46.693,102.461 44.840 C 99.533 43.298,96.921 42.354,92.617 41.282 C 89.520 40.511,80.529 40.164,77.138 40.685 M193.523 40.593 C 193.167 40.653,192.176 40.924,191.321 41.196 C 190.466 41.469,189.126 41.770,188.342 41.866 C 187.558 41.962,186.392 42.302,185.751 42.621 C 185.110 42.939,184.177 43.286,183.679 43.390 C 183.180 43.495,182.409 43.853,181.965 44.186 C 181.522 44.519,180.822 44.872,180.411 44.971 C 180.000 45.070,179.203 45.484,178.641 45.891 C 178.078 46.299,177.522 46.632,177.404 46.632 C 177.141 46.632,174.802 48.179,173.592 49.154 C 172.278 50.212,166.062 56.429,166.062 56.685 C 166.062 56.806,165.761 57.187,165.392 57.533 C 165.023 57.878,164.571 58.510,164.386 58.938 C 164.202 59.365,163.825 59.950,163.548 60.237 C 163.272 60.524,162.915 61.136,162.755 61.597 C 162.594 62.057,162.165 62.824,161.801 63.301 C 161.438 63.778,161.140 64.345,161.140 64.562 C 161.140 64.779,160.917 65.240,160.644 65.586 C 160.372 65.933,159.950 66.910,159.706 67.758 C 159.463 68.607,159.160 69.431,159.032 69.591 C 158.728 69.972,158.129 72.107,157.917 73.562 C 157.825 74.196,157.632 74.857,157.488 75.030 C 156.723 75.952,156.652 79.828,156.552 126.036 C 156.448 173.625,156.505 177.244,157.391 179.490 C 157.597 180.013,157.940 181.361,158.152 182.486 C 158.365 183.610,158.696 184.776,158.888 185.076 C 159.080 185.376,159.443 186.263,159.694 187.047 C 159.945 187.830,160.312 188.652,160.509 188.873 C 160.706 189.094,161.043 189.772,161.257 190.379 C 161.471 190.987,161.883 191.784,162.171 192.150 C 162.459 192.516,162.694 192.955,162.694 193.124 C 162.694 193.293,163.102 194.006,163.601 194.707 C 164.100 195.409,164.508 196.062,164.508 196.158 C 164.508 196.254,164.828 196.676,165.220 197.095 C 165.612 197.514,166.282 198.280,166.710 198.799 C 167.937 200.287,170.768 203.153,171.991 204.145 C 172.606 204.644,173.359 205.292,173.666 205.586 C 174.172 206.072,175.830 207.198,178.238 208.691 C 178.737 209.000,179.553 209.406,180.052 209.594 C 180.551 209.782,181.250 210.133,181.606 210.376 C 181.962 210.618,182.636 210.899,183.103 211.000 C 183.570 211.101,184.444 211.456,185.046 211.789 C 185.648 212.122,186.723 212.479,187.435 212.583 C 188.148 212.687,189.547 213.072,190.544 213.440 C 193.328 214.465,205.918 214.452,208.549 213.421 C 209.475 213.058,210.794 212.679,211.479 212.580 C 212.164 212.480,213.446 212.057,214.329 211.640 C 215.211 211.223,216.090 210.881,216.281 210.881 C 216.473 210.881,216.961 210.645,217.365 210.357 C 217.770 210.069,218.598 209.658,219.206 209.444 C 219.814 209.229,220.492 208.896,220.713 208.703 C 220.933 208.510,221.498 208.158,221.968 207.920 C 222.438 207.682,223.021 207.325,223.263 207.127 C 225.228 205.526,226.178 204.758,227.063 204.054 C 228.956 202.551,234.197 196.805,234.197 196.233 C 234.197 196.134,234.547 195.655,234.974 195.168 C 235.402 194.681,235.751 194.128,235.751 193.939 C 235.751 193.749,236.101 193.154,236.528 192.617 C 236.956 192.079,237.306 191.451,237.307 191.221 C 237.307 190.991,237.657 190.278,238.083 189.637 C 238.509 188.996,238.858 188.260,238.859 188.002 C 238.860 187.744,239.151 186.918,239.506 186.167 C 239.862 185.415,240.272 184.169,240.419 183.398 C 240.565 182.626,240.923 181.358,241.214 180.579 C 242.200 177.944,242.253 174.822,242.160 125.000 C 242.065 74.393,242.105 76.065,240.926 73.268 C 240.645 72.600,240.415 71.650,240.415 71.157 C 240.415 70.661,240.067 69.599,239.637 68.782 C 239.210 67.970,238.860 67.162,238.860 66.986 C 238.860 66.568,236.893 62.745,235.604 60.658 C 235.044 59.752,234.469 58.818,234.326 58.583 C 233.266 56.834,227.474 50.699,225.630 49.372 C 221.726 46.562,217.861 44.325,215.544 43.535 C 214.760 43.268,213.653 42.821,213.083 42.542 C 212.513 42.263,211.489 41.954,210.807 41.855 C 210.125 41.756,208.449 41.392,207.082 41.045 C 204.703 40.441,196.138 40.156,193.523 40.593 M308.290 40.593 C 307.934 40.653,306.943 40.924,306.088 41.196 C 305.233 41.469,303.892 41.768,303.109 41.862 C 302.325 41.955,301.146 42.297,300.488 42.620 C 299.831 42.943,298.901 43.294,298.423 43.399 C 297.944 43.504,297.141 43.849,296.639 44.166 C 296.137 44.484,295.434 44.832,295.078 44.940 C 294.722 45.049,294.080 45.394,293.653 45.707 C 293.225 46.019,292.509 46.423,292.061 46.603 C 291.613 46.784,291.019 47.143,290.741 47.402 C 290.463 47.661,289.845 48.075,289.366 48.322 C 287.733 49.167,279.942 57.252,279.021 59.058 C 278.754 59.581,278.352 60.161,278.128 60.347 C 277.904 60.533,277.720 60.806,277.720 60.953 C 277.720 61.100,277.424 61.609,277.063 62.083 C 276.701 62.557,276.237 63.421,276.032 64.002 C 275.827 64.584,275.433 65.347,275.157 65.698 C 274.880 66.049,274.572 66.829,274.472 67.430 C 274.372 68.031,274.023 69.053,273.696 69.700 C 273.370 70.346,272.976 71.571,272.819 72.420 C 272.663 73.269,272.274 74.722,271.954 75.648 L 271.373 77.332 271.373 127.332 L 271.373 177.332 272.058 179.663 C 272.434 180.946,272.823 182.455,272.921 183.017 C 273.019 183.579,273.365 184.570,273.689 185.219 C 274.013 185.868,274.361 186.740,274.461 187.158 C 274.653 187.952,275.996 191.041,276.441 191.710 C 276.583 191.924,276.899 192.434,277.145 192.844 C 277.390 193.254,277.948 194.128,278.385 194.787 C 278.823 195.446,279.256 196.188,279.349 196.438 C 279.442 196.687,279.622 196.891,279.750 196.891 C 279.878 196.891,280.277 197.328,280.636 197.863 C 281.949 199.818,287.329 205.000,289.731 206.623 C 292.451 208.462,297.439 211.140,298.143 211.140 C 298.356 211.140,299.016 211.425,299.610 211.773 C 300.204 212.121,301.321 212.488,302.094 212.589 C 302.866 212.690,304.255 213.071,305.181 213.437 C 307.645 214.408,320.738 214.464,323.028 213.512 C 323.796 213.193,325.021 212.811,325.749 212.664 C 326.477 212.516,327.910 212.054,328.933 211.638 C 329.956 211.222,330.929 210.881,331.095 210.881 C 331.261 210.881,331.730 210.643,332.138 210.353 C 332.545 210.063,333.263 209.697,333.732 209.540 C 334.201 209.383,334.820 209.043,335.107 208.785 C 335.394 208.526,336.056 208.136,336.579 207.918 C 337.102 207.699,337.605 207.398,337.698 207.247 C 337.791 207.097,338.295 206.696,338.817 206.357 C 339.339 206.017,340.194 205.337,340.717 204.846 C 341.239 204.354,342.051 203.678,342.522 203.343 C 343.553 202.609,345.250 200.891,345.824 200.000 C 346.053 199.644,346.504 199.140,346.825 198.880 C 347.146 198.620,347.409 198.285,347.409 198.134 C 347.409 197.898,348.344 196.706,349.615 195.322 C 349.818 195.101,350.223 194.381,350.513 193.724 C 350.804 193.066,351.128 192.490,351.234 192.443 C 351.532 192.310,353.277 188.623,353.751 187.128 C 353.984 186.389,354.279 185.748,354.405 185.703 C 354.532 185.658,354.826 184.693,355.060 183.559 C 355.293 182.424,355.648 181.179,355.848 180.793 C 357.608 177.388,357.617 77.539,355.857 73.957 C 355.649 73.533,355.308 72.370,355.100 71.373 C 354.891 70.376,354.417 68.918,354.047 68.135 C 353.676 67.351,353.372 66.553,353.370 66.361 C 353.369 66.170,353.136 65.687,352.853 65.290 C 352.570 64.892,352.097 64.058,351.802 63.436 C 350.999 61.746,349.728 59.480,349.498 59.329 C 349.386 59.256,349.101 58.818,348.864 58.355 C 348.626 57.892,348.322 57.513,348.187 57.513 C 348.051 57.513,347.772 57.186,347.565 56.787 C 346.868 55.439,339.399 48.187,338.708 48.187 C 338.616 48.187,337.985 47.778,337.306 47.280 C 336.626 46.781,335.955 46.373,335.813 46.373 C 335.672 46.373,335.416 46.204,335.244 45.998 C 335.073 45.792,334.389 45.417,333.723 45.165 C 333.058 44.912,332.118 44.440,331.635 44.115 C 331.152 43.789,330.569 43.522,330.339 43.521 C 330.110 43.519,329.281 43.212,328.497 42.839 C 327.714 42.465,326.256 42.008,325.259 41.823 C 324.262 41.639,322.513 41.247,321.373 40.953 C 319.397 40.443,310.629 40.202,308.290 40.593 M91.266 49.070 C 92.376 49.439,93.555 49.741,93.885 49.741 C 94.216 49.741,95.115 50.073,95.883 50.479 C 96.651 50.886,97.616 51.300,98.028 51.400 C 98.439 51.500,99.149 51.867,99.606 52.216 C 100.064 52.565,100.528 52.850,100.639 52.850 C 100.873 52.850,103.466 54.564,104.372 55.317 C 107.303 57.756,107.678 58.304,106.753 58.799 C 105.296 59.579,59.585 59.075,59.585 58.279 C 59.585 57.989,61.327 56.334,62.306 55.694 C 62.733 55.414,63.608 54.779,64.249 54.283 C 64.890 53.787,66.027 53.068,66.775 52.685 C 67.523 52.302,68.135 51.900,68.135 51.792 C 68.135 51.684,68.514 51.514,68.977 51.415 C 69.440 51.316,70.285 51.001,70.855 50.715 C 71.737 50.273,74.700 49.363,78.238 48.448 C 80.279 47.921,89.072 48.341,91.266 49.070 M207.124 49.067 C 208.264 49.438,209.419 49.741,209.690 49.741 C 209.961 49.741,210.923 50.091,211.828 50.518 C 212.733 50.946,213.627 51.295,213.815 51.295 C 214.003 51.295,214.614 51.642,215.174 52.065 C 215.734 52.489,216.291 52.839,216.412 52.843 C 216.778 52.855,219.730 54.746,220.465 55.440 C 220.843 55.796,221.634 56.496,222.223 56.995 C 224.761 59.142,225.417 59.085,199.272 59.007 C 173.227 58.929,174.569 59.042,176.519 57.092 C 177.142 56.468,177.766 55.959,177.905 55.959 C 178.044 55.959,178.380 55.713,178.652 55.413 C 178.923 55.113,179.553 54.659,180.052 54.404 C 180.551 54.149,181.181 53.696,181.452 53.395 C 181.724 53.095,182.073 52.849,182.229 52.849 C 182.385 52.848,183.038 52.499,183.679 52.073 C 184.320 51.646,185.032 51.297,185.262 51.296 C 185.491 51.296,186.365 50.960,187.205 50.551 C 188.044 50.142,189.780 49.551,191.062 49.239 C 192.345 48.927,193.802 48.569,194.301 48.444 C 196.370 47.925,204.884 48.338,207.124 49.067 M321.891 49.067 C 323.031 49.438,324.198 49.741,324.484 49.741 C 324.770 49.741,325.528 50.016,326.168 50.353 C 326.808 50.690,327.798 51.116,328.368 51.299 C 328.938 51.483,329.765 51.907,330.206 52.241 C 330.647 52.576,331.098 52.850,331.209 52.850 C 331.906 52.850,338.035 57.615,338.067 58.182 C 338.116 59.049,337.183 59.081,313.965 59.009 C 287.293 58.926,289.102 59.130,291.880 56.524 C 292.855 55.610,294.024 54.702,294.477 54.507 C 294.931 54.312,295.618 53.860,296.005 53.501 C 296.391 53.143,296.806 52.850,296.925 52.850 C 297.045 52.850,297.711 52.500,298.406 52.073 C 299.100 51.645,299.816 51.295,299.997 51.295 C 300.177 51.295,301.039 50.962,301.911 50.554 C 302.784 50.146,304.547 49.555,305.829 49.242 C 307.111 48.928,308.569 48.569,309.067 48.444 C 311.137 47.925,319.651 48.338,321.891 49.067 M113.527 65.997 C 114.247 66.763,116.169 70.615,116.467 71.891 C 116.567 72.319,116.854 73.135,117.104 73.705 C 117.860 75.426,118.003 76.891,117.472 77.477 C 116.780 78.242,50.602 78.269,49.910 77.505 C 49.335 76.869,49.594 74.157,50.384 72.539 C 50.698 71.898,51.103 70.825,51.284 70.155 C 51.466 69.486,51.834 68.739,52.103 68.496 C 52.371 68.253,52.591 67.886,52.591 67.681 C 52.591 67.087,53.407 65.867,53.995 65.581 C 54.347 65.411,64.642 65.314,83.695 65.303 L 112.856 65.285 113.527 65.997 M229.891 66.571 C 230.399 67.278,230.895 68.181,230.993 68.578 C 231.091 68.976,231.436 69.723,231.759 70.239 C 232.083 70.755,232.460 71.746,232.597 72.441 C 232.734 73.136,233.120 74.430,233.455 75.316 C 234.515 78.123,238.167 77.839,199.985 77.918 C 163.384 77.994,165.066 78.065,165.359 76.469 C 165.861 73.732,166.185 72.584,166.854 71.171 C 167.273 70.285,167.618 69.385,167.621 69.171 C 167.624 68.957,167.974 68.269,168.398 67.642 C 168.823 67.015,169.171 66.368,169.171 66.205 C 169.171 65.286,169.189 65.285,199.380 65.285 L 228.967 65.285 229.891 66.571 M344.811 66.891 C 345.385 67.774,345.855 68.653,345.855 68.845 C 345.855 69.036,346.189 69.916,346.597 70.801 C 347.005 71.686,347.416 72.913,347.510 73.529 C 347.604 74.144,347.843 74.902,348.042 75.213 C 348.766 76.344,348.655 77.033,347.668 77.526 C 346.281 78.219,282.145 78.228,280.693 77.535 C 279.953 77.183,279.793 76.982,279.916 76.564 C 280.001 76.274,280.343 75.045,280.676 73.834 C 281.374 71.296,282.496 68.540,283.195 67.646 C 283.461 67.307,283.679 66.895,283.679 66.733 C 283.679 66.570,283.860 66.177,284.082 65.861 L 284.485 65.285 314.127 65.285 L 343.768 65.285 344.811 66.891 M117.462 84.233 C 118.467 84.691,118.653 85.715,118.653 90.803 C 118.653 95.857,118.443 97.066,117.526 97.289 C 116.591 97.515,49.022 97.295,48.791 97.064 C 48.540 96.814,48.341 86.529,48.564 85.334 C 48.680 84.712,48.906 84.467,49.552 84.259 C 50.790 83.862,116.591 83.836,117.462 84.233 M233.833 84.483 C 234.477 85.195,234.599 96.224,233.971 96.981 C 233.610 97.416,166.036 97.681,164.918 97.252 C 164.373 97.043,164.293 84.937,164.832 84.325 C 165.108 84.011,170.133 83.956,199.247 83.948 L 233.339 83.938 233.833 84.483 M348.600 84.483 C 349.244 85.196,349.366 96.224,348.737 96.982 C 348.408 97.378,345.736 97.406,313.892 97.346 L 279.404 97.280 279.335 90.965 C 279.286 86.524,279.353 84.544,279.561 84.294 C 279.809 83.995,285.352 83.938,313.981 83.938 L 348.106 83.938 348.600 84.483 M117.900 104.163 L 118.653 104.698 118.649 110.057 C 118.647 113.003,118.534 115.589,118.399 115.803 C 118.090 116.292,49.852 116.538,48.947 116.053 C 48.458 115.792,48.439 115.526,48.505 110.027 L 48.575 104.275 49.482 103.965 C 51.363 103.324,116.988 103.513,117.900 104.163 M233.938 104.145 C 234.577 104.784,234.747 115.049,234.132 115.885 C 233.830 116.296,231.509 116.321,199.223 116.258 L 164.637 116.192 164.568 110.266 C 164.519 106.112,164.586 104.233,164.794 103.983 C 165.352 103.310,233.262 103.469,233.938 104.145 M348.656 104.155 C 349.410 104.858,349.550 115.180,348.815 115.915 C 348.447 116.283,345.015 116.317,313.905 116.257 L 279.404 116.192 279.334 110.266 C 279.286 106.112,279.353 104.233,279.560 103.983 C 280.126 103.301,347.920 103.470,348.656 104.155 M117.894 122.937 L 118.663 123.335 118.593 128.953 L 118.523 134.571 117.876 134.898 C 116.926 135.378,50.172 135.378,49.223 134.898 L 48.575 134.571 48.505 128.837 L 48.436 123.103 49.153 122.842 C 50.471 122.360,116.957 122.452,117.894 122.937 M233.982 122.968 C 234.668 123.588,234.708 134.007,234.027 134.759 C 233.487 135.356,165.413 135.516,164.819 134.922 C 164.596 134.699,164.508 132.994,164.508 128.886 C 164.508 124.778,164.596 123.073,164.819 122.850 C 165.374 122.295,233.367 122.411,233.982 122.968 M348.749 122.968 C 349.435 123.588,349.475 134.007,348.794 134.759 C 348.160 135.460,280.003 135.504,279.230 134.804 C 278.544 134.184,278.504 123.765,279.185 123.013 C 279.819 122.312,347.976 122.268,348.749 122.968 M117.912 141.946 C 118.513 142.432,118.525 142.531,118.607 147.721 L 118.690 153.001 117.985 153.706 L 117.281 154.410 83.409 154.342 C 50.514 154.277,49.520 154.260,48.991 153.781 C 48.327 153.180,48.132 142.982,48.769 142.178 C 49.318 141.486,48.991 141.492,83.585 141.471 C 116.401 141.451,117.316 141.464,117.912 141.946 M233.971 141.879 C 234.765 142.835,234.611 153.176,233.789 153.997 C 233.085 154.702,165.154 154.609,164.776 153.903 C 164.378 153.160,164.417 142.163,164.819 141.762 C 165.373 141.207,233.509 141.322,233.971 141.879 M348.658 141.885 C 349.422 142.648,349.464 152.732,348.708 153.694 L 348.149 154.404 313.988 154.404 L 279.828 154.404 279.273 153.624 C 278.562 152.627,278.562 143.106,279.272 142.034 L 279.658 141.451 313.941 141.451 C 345.677 141.451,348.256 141.483,348.658 141.885 M117.988 161.323 L 118.690 162.025 118.607 167.305 C 118.525 172.504,118.514 172.593,117.908 173.083 C 116.939 173.867,49.389 173.730,48.813 172.943 C 48.524 172.547,48.446 171.301,48.446 167.089 C 48.446 161.419,48.476 161.271,49.741 160.806 C 49.955 160.727,65.240 160.653,83.708 160.642 L 117.287 160.622 117.988 161.323 M233.789 161.028 C 234.611 161.850,234.765 172.191,233.971 173.147 C 233.509 173.703,165.373 173.819,164.819 173.264 C 164.417 172.863,164.378 161.866,164.776 161.123 C 165.154 160.417,233.085 160.324,233.789 161.028 M348.708 161.332 C 349.464 162.294,349.422 172.378,348.658 173.141 C 348.084 173.714,280.050 173.823,279.603 173.251 C 278.594 171.962,278.352 162.695,279.292 161.374 L 279.828 160.622 313.988 160.622 L 348.149 160.622 348.708 161.332 M116.456 180.101 C 116.885 180.297,117.087 180.558,117.008 180.814 C 116.939 181.036,116.651 182.020,116.368 183.000 C 116.085 183.980,115.726 184.861,115.570 184.958 C 115.414 185.054,115.111 185.725,114.896 186.447 C 114.682 187.170,114.330 187.908,114.115 188.086 C 113.900 188.264,113.507 188.890,113.241 189.477 C 112.975 190.064,112.348 190.981,111.849 191.516 L 110.940 192.487 83.773 192.486 C 53.140 192.485,55.591 192.652,54.404 190.489 C 54.108 189.950,53.578 189.112,53.228 188.627 C 52.877 188.143,52.591 187.546,52.591 187.299 C 52.591 187.053,52.422 186.711,52.217 186.541 C 52.011 186.370,51.586 185.452,51.271 184.501 C 50.957 183.550,50.620 182.714,50.522 182.642 C 50.093 182.331,49.756 180.767,50.014 180.285 C 50.341 179.674,115.124 179.495,116.456 180.101 M232.503 180.209 C 232.732 180.437,232.863 180.816,232.795 181.051 C 232.726 181.285,232.589 181.943,232.489 182.513 C 232.390 183.083,232.092 183.827,231.829 184.166 C 231.565 184.505,231.220 185.262,231.062 185.848 C 230.904 186.433,230.533 187.253,230.236 187.670 C 229.939 188.087,229.456 188.859,229.162 189.387 C 228.050 191.381,227.569 191.969,226.840 192.224 C 225.652 192.640,172.599 192.574,171.762 192.156 C 171.405 191.978,170.919 191.442,170.680 190.966 C 170.441 190.490,170.015 189.850,169.733 189.545 C 169.451 189.239,169.037 188.582,168.812 188.083 C 168.587 187.584,168.168 186.770,167.880 186.273 C 167.593 185.777,167.358 185.163,167.358 184.908 C 167.358 184.654,167.084 184.011,166.749 183.479 C 165.905 182.137,165.671 180.739,166.203 180.207 C 166.839 179.571,231.867 179.572,232.503 180.209 M347.238 180.264 C 347.758 180.840,347.245 183.277,346.369 184.391 C 346.086 184.750,345.855 185.203,345.855 185.397 C 345.855 186.493,342.443 191.900,341.533 192.246 C 340.635 192.588,287.611 192.567,286.630 192.224 C 286.135 192.052,285.665 191.563,285.260 190.800 C 284.920 190.160,284.555 189.637,284.448 189.637 C 284.341 189.637,284.056 189.142,283.815 188.536 C 283.574 187.931,283.212 187.252,283.011 187.029 C 282.811 186.805,282.423 185.971,282.149 185.176 C 281.876 184.381,281.481 183.456,281.272 183.122 C 280.738 182.265,280.526 180.877,280.840 180.290 C 281.246 179.531,346.552 179.506,347.238 180.264 M103.873 199.075 L 104.508 199.426 103.614 199.954 C 103.122 200.244,102.545 200.649,102.332 200.854 C 102.118 201.059,101.418 201.456,100.777 201.737 C 100.136 202.018,99.451 202.441,99.256 202.678 C 99.060 202.915,98.732 203.109,98.527 203.109 C 98.322 203.109,97.546 203.397,96.802 203.749 C 95.323 204.448,91.800 205.575,89.784 205.993 C 87.674 206.431,76.728 206.181,75.777 205.673 C 75.350 205.445,74.184 205.057,73.187 204.812 C 72.189 204.567,71.198 204.215,70.984 204.030 C 70.771 203.845,69.961 203.487,69.184 203.234 C 68.408 202.981,67.650 202.666,67.500 202.533 C 67.351 202.401,66.807 202.039,66.291 201.729 C 64.565 200.691,62.694 199.439,62.694 199.322 C 62.694 198.623,102.624 198.383,103.873 199.075 M219.953 199.100 C 220.134 199.317,220.235 199.525,220.179 199.563 C 218.218 200.895,216.312 202.073,216.118 202.073 C 215.980 202.073,215.731 202.235,215.566 202.434 C 215.401 202.634,214.658 202.994,213.915 203.235 C 213.173 203.476,212.390 203.825,212.176 204.011 C 211.962 204.196,210.799 204.601,209.592 204.911 C 208.384 205.221,207.229 205.612,207.026 205.781 C 206.367 206.329,193.671 206.365,192.228 205.822 C 191.587 205.581,190.260 205.165,189.279 204.897 C 188.298 204.629,187.352 204.291,187.178 204.147 C 187.003 204.002,186.204 203.657,185.401 203.381 C 184.598 203.105,183.551 202.581,183.073 202.217 C 182.596 201.852,182.091 201.554,181.952 201.554 C 181.812 201.554,181.241 201.208,180.681 200.784 C 180.121 200.361,179.532 200.011,179.371 200.007 C 178.658 199.990,178.422 199.234,179.051 198.983 C 180.203 198.521,219.567 198.634,219.953 199.100 M334.584 199.060 C 335.039 199.393,334.997 199.460,333.921 200.135 C 333.289 200.531,332.714 200.938,332.642 201.040 C 332.571 201.142,331.996 201.488,331.363 201.809 C 330.731 202.129,330.052 202.553,329.855 202.750 C 329.658 202.947,329.320 203.109,329.104 203.109 C 328.889 203.109,327.993 203.448,327.115 203.862 C 325.627 204.564,323.102 205.384,320.549 205.993 C 318.558 206.469,307.276 206.171,306.259 205.616 C 305.783 205.356,304.560 204.970,303.541 204.757 C 302.522 204.545,301.512 204.222,301.297 204.039 C 301.083 203.857,300.400 203.511,299.780 203.270 C 299.160 203.030,298.229 202.545,297.712 202.194 C 297.194 201.842,296.652 201.550,296.507 201.544 C 296.362 201.538,295.840 201.188,295.347 200.767 C 294.853 200.345,294.314 200.000,294.148 200.000 C 293.431 200.000,293.184 199.237,293.818 198.983 C 294.883 198.556,333.996 198.630,334.584 199.060 " stroke="none" fill="#ec222a" fill-rule="evenodd"></path><path id="path1" d="M0.000 129.534 L 0.000 259.067 200.000 259.067 L 400.000 259.067 400.000 129.534 L 400.000 0.000 200.000 0.000 L 0.000 0.000 0.000 129.534 M92.617 41.282 C 96.921 42.354,99.533 43.298,102.461 44.840 C 105.981 46.693,106.165 46.801,107.000 47.503 C 107.446 47.879,107.911 48.187,108.032 48.187 C 108.154 48.187,108.407 48.338,108.595 48.523 C 108.784 48.708,109.462 49.219,110.104 49.659 C 111.590 50.680,116.456 55.676,116.694 56.426 C 116.793 56.739,116.957 56.995,117.059 56.995 C 117.433 56.995,120.984 62.302,120.984 62.860 C 120.984 63.032,121.254 63.502,121.583 63.905 C 121.912 64.308,122.331 65.162,122.515 65.803 C 122.698 66.444,123.067 67.328,123.334 67.766 C 123.602 68.204,124.006 69.360,124.232 70.335 C 124.458 71.310,124.812 72.434,125.019 72.835 C 125.226 73.235,125.459 74.294,125.537 75.188 C 125.616 76.082,125.852 77.863,126.062 79.145 C 126.686 82.946,126.462 173.697,125.818 178.079 C 125.570 179.772,125.203 181.472,125.004 181.857 C 124.805 182.241,124.456 183.361,124.228 184.345 C 124.000 185.329,123.661 186.368,123.475 186.655 C 123.289 186.942,122.937 187.782,122.692 188.522 C 122.448 189.262,122.046 190.136,121.799 190.465 C 121.552 190.793,121.133 191.558,120.869 192.163 C 120.604 192.769,120.310 193.264,120.216 193.264 C 120.121 193.264,119.850 193.672,119.612 194.171 C 119.223 194.987,116.869 198.184,115.258 200.085 C 114.157 201.385,112.298 203.214,111.133 204.145 C 110.509 204.644,109.814 205.227,109.590 205.440 C 108.215 206.752,100.451 211.140,99.507 211.140 C 99.341 211.140,98.649 211.422,97.969 211.766 C 97.289 212.111,96.273 212.472,95.711 212.569 C 95.149 212.666,93.756 213.036,92.617 213.392 C 88.627 214.636,77.476 214.536,74.116 213.227 C 73.462 212.972,72.348 212.679,71.640 212.575 C 70.932 212.471,69.825 212.120,69.179 211.795 C 68.533 211.470,67.632 211.123,67.175 211.024 C 66.719 210.926,66.078 210.640,65.751 210.390 C 65.423 210.139,64.676 209.747,64.090 209.517 C 63.504 209.288,62.603 208.830,62.089 208.501 C 61.574 208.171,60.454 207.453,59.600 206.904 C 58.747 206.355,57.626 205.508,57.109 205.021 C 56.593 204.534,55.764 203.826,55.267 203.446 C 53.658 202.219,50.514 198.768,49.021 196.588 C 48.696 196.113,48.144 195.317,47.794 194.819 C 47.444 194.320,46.922 193.404,46.634 192.784 C 46.345 192.164,45.877 191.361,45.594 191.000 C 45.310 190.640,45.078 190.143,45.078 189.898 C 45.078 189.652,44.785 189.020,44.428 188.493 C 44.070 187.966,43.656 186.988,43.507 186.319 C 43.358 185.651,43.017 184.732,42.750 184.278 C 42.483 183.824,42.188 182.891,42.094 182.205 C 42.000 181.520,41.642 179.817,41.298 178.422 L 40.674 175.886 40.674 127.592 C 40.674 100.026,40.772 79.044,40.904 78.704 C 41.031 78.377,41.333 76.943,41.577 75.518 C 41.820 74.093,42.190 72.403,42.399 71.762 C 43.591 68.109,43.862 67.371,44.441 66.206 C 44.791 65.501,45.078 64.790,45.078 64.627 C 45.078 64.463,45.371 63.991,45.729 63.577 C 46.087 63.163,46.479 62.468,46.600 62.033 C 46.722 61.598,47.128 60.911,47.504 60.506 C 47.879 60.100,48.187 59.670,48.187 59.550 C 48.187 59.354,48.556 58.829,50.602 56.119 C 52.082 54.159,57.786 48.847,59.197 48.115 C 59.624 47.894,60.216 47.484,60.512 47.204 C 60.808 46.924,61.333 46.606,61.678 46.497 C 62.023 46.388,62.655 46.040,63.083 45.724 C 63.510 45.408,64.244 45.021,64.714 44.864 C 65.183 44.707,65.882 44.358,66.268 44.089 C 66.653 43.819,67.319 43.517,67.746 43.416 C 68.174 43.316,68.990 43.011,69.560 42.739 C 70.131 42.467,71.496 42.072,72.595 41.862 C 73.693 41.651,74.830 41.352,75.120 41.197 C 77.070 40.153,88.303 40.208,92.617 41.282 M207.082 41.045 C 208.449 41.392,210.125 41.756,210.807 41.855 C 211.489 41.954,212.513 42.263,213.083 42.542 C 213.653 42.821,214.760 43.268,215.544 43.535 C 217.861 44.325,221.726 46.562,225.630 49.372 C 227.474 50.699,233.266 56.834,234.326 58.583 C 234.469 58.818,235.044 59.752,235.604 60.658 C 236.893 62.745,238.860 66.568,238.860 66.986 C 238.860 67.162,239.210 67.970,239.637 68.782 C 240.067 69.599,240.415 70.661,240.415 71.157 C 240.415 71.650,240.645 72.600,240.926 73.268 C 242.105 76.065,242.065 74.393,242.160 125.000 C 242.253 174.822,242.200 177.944,241.214 180.579 C 240.923 181.358,240.565 182.626,240.419 183.398 C 240.272 184.169,239.862 185.415,239.506 186.167 C 239.151 186.918,238.860 187.744,238.859 188.002 C 238.858 188.260,238.509 188.996,238.083 189.637 C 237.657 190.278,237.307 190.991,237.307 191.221 C 237.306 191.451,236.956 192.079,236.528 192.617 C 236.101 193.154,235.751 193.749,235.751 193.939 C 235.751 194.128,235.402 194.681,234.974 195.168 C 234.547 195.655,234.197 196.134,234.197 196.233 C 234.197 196.805,228.956 202.551,227.063 204.054 C 226.178 204.758,225.228 205.526,223.263 207.127 C 223.021 207.325,222.438 207.682,221.968 207.920 C 221.498 208.158,220.933 208.510,220.713 208.703 C 220.492 208.896,219.814 209.229,219.206 209.444 C 218.598 209.658,217.770 210.069,217.365 210.357 C 216.961 210.645,216.473 210.881,216.281 210.881 C 216.090 210.881,215.211 211.223,214.329 211.640 C 213.446 212.057,212.164 212.480,211.479 212.580 C 210.794 212.679,209.475 213.058,208.549 213.421 C 205.918 214.452,193.328 214.465,190.544 213.440 C 189.547 213.072,188.148 212.687,187.435 212.583 C 186.723 212.479,185.648 212.122,185.046 211.789 C 184.444 211.456,183.570 211.101,183.103 211.000 C 182.636 210.899,181.962 210.618,181.606 210.376 C 181.250 210.133,180.551 209.782,180.052 209.594 C 179.553 209.406,178.737 209.000,178.238 208.691 C 175.830 207.198,174.172 206.072,173.666 205.586 C 173.359 205.292,172.606 204.644,171.991 204.145 C 170.768 203.153,167.937 200.287,166.710 198.799 C 166.282 198.280,165.612 197.514,165.220 197.095 C 164.828 196.676,164.508 196.254,164.508 196.158 C 164.508 196.062,164.100 195.409,163.601 194.707 C 163.102 194.006,162.694 193.293,162.694 193.124 C 162.694 192.955,162.459 192.516,162.171 192.150 C 161.883 191.784,161.471 190.987,161.257 190.379 C 161.043 189.772,160.706 189.094,160.509 188.873 C 160.312 188.652,159.945 187.830,159.694 187.047 C 159.443 186.263,159.080 185.376,158.888 185.076 C 158.696 184.776,158.365 183.610,158.152 182.486 C 157.940 181.361,157.597 180.013,157.391 179.490 C 156.505 177.244,156.448 173.625,156.552 126.036 C 156.652 79.828,156.723 75.952,157.488 75.030 C 157.632 74.857,157.825 74.196,157.917 73.562 C 158.129 72.107,158.728 69.972,159.032 69.591 C 159.160 69.431,159.463 68.607,159.706 67.758 C 159.950 66.910,160.372 65.933,160.644 65.586 C 160.917 65.240,161.140 64.779,161.140 64.562 C 161.140 64.345,161.438 63.778,161.801 63.301 C 162.165 62.824,162.594 62.057,162.755 61.597 C 162.915 61.136,163.272 60.524,163.548 60.237 C 163.825 59.950,164.202 59.365,164.386 58.938 C 164.571 58.510,165.023 57.878,165.392 57.533 C 165.761 57.187,166.062 56.806,166.062 56.685 C 166.062 56.429,172.278 50.212,173.592 49.154 C 174.802 48.179,177.141 46.632,177.404 46.632 C 177.522 46.632,178.078 46.299,178.641 45.891 C 179.203 45.484,180.000 45.070,180.411 44.971 C 180.822 44.872,181.522 44.519,181.965 44.186 C 182.409 43.853,183.180 43.495,183.679 43.390 C 184.177 43.286,185.110 42.939,185.751 42.621 C 186.392 42.302,187.558 41.962,188.342 41.866 C 189.126 41.770,190.466 41.469,191.321 41.196 C 194.605 40.151,203.232 40.068,207.082 41.045 M321.373 40.953 C 322.513 41.247,324.262 41.639,325.259 41.823 C 326.256 42.008,327.714 42.465,328.497 42.839 C 329.281 43.212,330.110 43.519,330.339 43.521 C 330.569 43.522,331.152 43.789,331.635 44.115 C 332.118 44.440,333.058 44.912,333.723 45.165 C 334.389 45.417,335.073 45.792,335.244 45.998 C 335.416 46.204,335.672 46.373,335.813 46.373 C 335.955 46.373,336.626 46.781,337.306 47.280 C 337.985 47.778,338.616 48.187,338.708 48.187 C 339.399 48.187,346.868 55.439,347.565 56.787 C 347.772 57.186,348.051 57.513,348.187 57.513 C 348.322 57.513,348.626 57.892,348.864 58.355 C 349.101 58.818,349.386 59.256,349.498 59.329 C 349.728 59.480,350.999 61.746,351.802 63.436 C 352.097 64.058,352.570 64.892,352.853 65.290 C 353.136 65.687,353.369 66.170,353.370 66.361 C 353.372 66.553,353.676 67.351,354.047 68.135 C 354.417 68.918,354.891 70.376,355.100 71.373 C 355.308 72.370,355.649 73.533,355.857 73.957 C 357.617 77.539,357.608 177.388,355.848 180.793 C 355.648 181.179,355.293 182.424,355.060 183.559 C 354.826 184.693,354.532 185.658,354.405 185.703 C 354.279 185.748,353.984 186.389,353.751 187.128 C 353.277 188.623,351.532 192.310,351.234 192.443 C 351.128 192.490,350.804 193.066,350.513 193.724 C 350.223 194.381,349.818 195.101,349.615 195.322 C 348.344 196.706,347.409 197.898,347.409 198.134 C 347.409 198.285,347.146 198.620,346.825 198.880 C 346.504 199.140,346.053 199.644,345.824 200.000 C 345.250 200.891,343.553 202.609,342.522 203.343 C 342.051 203.678,341.239 204.354,340.717 204.846 C 340.194 205.337,339.339 206.017,338.817 206.357 C 338.295 206.696,337.791 207.097,337.698 207.247 C 337.605 207.398,337.102 207.699,336.579 207.918 C 336.056 208.136,335.394 208.526,335.107 208.785 C 334.820 209.043,334.201 209.383,333.732 209.540 C 333.263 209.697,332.545 210.063,332.138 210.353 C 331.730 210.643,331.261 210.881,331.095 210.881 C 330.929 210.881,329.956 211.222,328.933 211.638 C 327.910 212.054,326.477 212.516,325.749 212.664 C 325.021 212.811,323.796 213.193,323.028 213.512 C 320.738 214.464,307.645 214.408,305.181 213.437 C 304.255 213.071,302.866 212.690,302.094 212.589 C 301.321 212.488,300.204 212.121,299.610 211.773 C 299.016 211.425,298.356 211.140,298.143 211.140 C 297.439 211.140,292.451 208.462,289.731 206.623 C 287.329 205.000,281.949 199.818,280.636 197.863 C 280.277 197.328,279.878 196.891,279.750 196.891 C 279.622 196.891,279.442 196.687,279.349 196.438 C 279.256 196.188,278.823 195.446,278.385 194.787 C 277.948 194.128,277.390 193.254,277.145 192.844 C 276.899 192.434,276.583 191.924,276.441 191.710 C 275.996 191.041,274.653 187.952,274.461 187.158 C 274.361 186.740,274.013 185.868,273.689 185.219 C 273.365 184.570,273.019 183.579,272.921 183.017 C 272.823 182.455,272.434 180.946,272.058 179.663 L 271.373 177.332 271.373 127.332 L 271.373 77.332 271.954 75.648 C 272.274 74.722,272.663 73.269,272.819 72.420 C 272.976 71.571,273.370 70.346,273.696 69.700 C 274.023 69.053,274.372 68.031,274.472 67.430 C 274.572 66.829,274.880 66.049,275.157 65.698 C 275.433 65.347,275.827 64.584,276.032 64.002 C 276.237 63.421,276.701 62.557,277.063 62.083 C 277.424 61.609,277.720 61.100,277.720 60.953 C 277.720 60.806,277.904 60.533,278.128 60.347 C 278.352 60.161,278.754 59.581,279.021 59.058 C 279.942 57.252,287.733 49.167,289.366 48.322 C 289.845 48.075,290.463 47.661,290.741 47.402 C 291.019 47.143,291.613 46.784,292.061 46.603 C 292.509 46.423,293.225 46.019,293.653 45.707 C 294.080 45.394,294.722 45.049,295.078 44.940 C 295.434 44.832,296.137 44.484,296.639 44.166 C 297.141 43.849,297.944 43.504,298.423 43.399 C 298.901 43.294,299.831 42.943,300.488 42.620 C 301.146 42.297,302.325 41.955,303.109 41.862 C 303.892 41.768,305.233 41.469,306.088 41.196 C 309.181 40.212,317.958 40.072,321.373 40.953 M78.238 48.448 C 74.700 49.363,71.737 50.273,70.855 50.715 C 70.285 51.001,69.440 51.316,68.977 51.415 C 68.514 51.514,68.135 51.684,68.135 51.792 C 68.135 51.900,67.523 52.302,66.775 52.685 C 66.027 53.068,64.890 53.787,64.249 54.283 C 63.608 54.779,62.733 55.414,62.306 55.694 C 61.327 56.334,59.585 57.989,59.585 58.279 C 59.585 59.075,105.296 59.579,106.753 58.799 C 107.678 58.304,107.303 57.756,104.372 55.317 C 103.466 54.564,100.873 52.850,100.639 52.850 C 100.528 52.850,100.064 52.565,99.606 52.216 C 99.149 51.867,98.439 51.500,98.028 51.400 C 97.616 51.300,96.651 50.886,95.883 50.479 C 95.115 50.073,94.216 49.741,93.885 49.741 C 93.555 49.741,92.376 49.439,91.266 49.070 C 89.072 48.341,80.279 47.921,78.238 48.448 M194.301 48.444 C 193.802 48.569,192.345 48.927,191.062 49.239 C 189.780 49.551,188.044 50.142,187.205 50.551 C 186.365 50.960,185.491 51.296,185.262 51.296 C 185.032 51.297,184.320 51.646,183.679 52.073 C 183.038 52.499,182.385 52.848,182.229 52.849 C 182.073 52.849,181.724 53.095,181.452 53.395 C 181.181 53.696,180.551 54.149,180.052 54.404 C 179.553 54.659,178.923 55.113,178.652 55.413 C 178.380 55.713,178.044 55.959,177.905 55.959 C 177.766 55.959,177.142 56.468,176.519 57.092 C 174.569 59.042,173.227 58.929,199.272 59.007 C 225.417 59.085,224.761 59.142,222.223 56.995 C 221.634 56.496,220.843 55.796,220.465 55.440 C 219.730 54.746,216.778 52.855,216.412 52.843 C 216.291 52.839,215.734 52.489,215.174 52.065 C 214.614 51.642,214.003 51.295,213.815 51.295 C 213.627 51.295,212.733 50.946,211.828 50.518 C 210.923 50.091,209.961 49.741,209.690 49.741 C 209.419 49.741,208.264 49.438,207.124 49.067 C 204.884 48.338,196.370 47.925,194.301 48.444 M309.067 48.444 C 308.569 48.569,307.111 48.928,305.829 49.242 C 304.547 49.555,302.784 50.146,301.911 50.554 C 301.039 50.962,300.177 51.295,299.997 51.295 C 299.816 51.295,299.100 51.645,298.406 52.073 C 297.711 52.500,297.045 52.850,296.925 52.850 C 296.806 52.850,296.391 53.143,296.005 53.501 C 295.618 53.860,294.931 54.312,294.477 54.507 C 294.024 54.702,292.855 55.610,291.880 56.524 C 289.102 59.130,287.293 58.926,313.965 59.009 C 337.183 59.081,338.116 59.049,338.067 58.182 C 338.035 57.615,331.906 52.850,331.209 52.850 C 331.098 52.850,330.647 52.576,330.206 52.241 C 329.765 51.907,328.938 51.483,328.368 51.299 C 327.798 51.116,326.808 50.690,326.168 50.353 C 325.528 50.016,324.770 49.741,324.484 49.741 C 324.198 49.741,323.031 49.438,321.891 49.067 C 319.651 48.338,311.137 47.925,309.067 48.444 M53.995 65.581 C 53.407 65.867,52.591 67.087,52.591 67.681 C 52.591 67.886,52.371 68.253,52.103 68.496 C 51.834 68.739,51.466 69.486,51.284 70.155 C 51.103 70.825,50.698 71.898,50.384 72.539 C 49.594 74.157,49.335 76.869,49.910 77.505 C 50.602 78.269,116.780 78.242,117.472 77.477 C 118.003 76.891,117.860 75.426,117.104 73.705 C 116.854 73.135,116.567 72.319,116.467 71.891 C 116.169 70.615,114.247 66.763,113.527 65.997 L 112.856 65.285 83.695 65.303 C 64.642 65.314,54.347 65.411,53.995 65.581 M169.482 65.596 C 169.311 65.767,169.171 66.041,169.171 66.205 C 169.171 66.368,168.823 67.015,168.398 67.642 C 167.974 68.269,167.624 68.957,167.621 69.171 C 167.618 69.385,167.273 70.285,166.854 71.171 C 166.185 72.584,165.861 73.732,165.359 76.469 C 165.066 78.065,163.384 77.994,199.985 77.918 C 238.167 77.839,234.515 78.123,233.455 75.316 C 233.120 74.430,232.734 73.136,232.597 72.441 C 232.460 71.746,232.083 70.755,231.759 70.239 C 231.436 69.723,231.091 68.976,230.993 68.578 C 230.895 68.181,230.399 67.278,229.891 66.571 L 228.967 65.285 199.380 65.285 C 176.713 65.285,169.720 65.358,169.482 65.596 M284.082 65.861 C 283.860 66.177,283.679 66.570,283.679 66.733 C 283.679 66.895,283.461 67.307,283.195 67.646 C 282.496 68.540,281.374 71.296,280.676 73.834 C 280.343 75.045,280.001 76.274,279.916 76.564 C 279.793 76.982,279.953 77.183,280.693 77.535 C 282.145 78.228,346.281 78.219,347.668 77.526 C 348.655 77.033,348.766 76.344,348.042 75.213 C 347.843 74.902,347.604 74.144,347.510 73.529 C 347.416 72.913,347.005 71.686,346.597 70.801 C 346.189 69.916,345.855 69.036,345.855 68.845 C 345.855 68.653,345.385 67.774,344.811 66.891 L 343.768 65.285 314.127 65.285 L 284.485 65.285 284.082 65.861 M49.552 84.259 C 48.906 84.467,48.680 84.712,48.564 85.334 C 48.341 86.529,48.540 96.814,48.791 97.064 C 49.022 97.295,116.591 97.515,117.526 97.289 C 118.443 97.066,118.653 95.857,118.653 90.803 C 118.653 85.715,118.467 84.691,117.462 84.233 C 116.591 83.836,50.790 83.862,49.552 84.259 M164.832 84.325 C 164.293 84.937,164.373 97.043,164.918 97.252 C 166.036 97.681,233.610 97.416,233.971 96.981 C 234.599 96.224,234.477 85.195,233.833 84.483 L 233.339 83.938 199.247 83.948 C 170.133 83.956,165.108 84.011,164.832 84.325 M279.561 84.294 C 279.353 84.544,279.286 86.524,279.335 90.965 L 279.404 97.280 313.892 97.346 C 345.736 97.406,348.408 97.378,348.737 96.982 C 349.366 96.224,349.244 85.196,348.600 84.483 L 348.106 83.938 313.981 83.938 C 285.352 83.938,279.809 83.995,279.561 84.294 M49.482 103.965 L 48.575 104.275 48.505 110.027 C 48.439 115.526,48.458 115.792,48.947 116.053 C 49.852 116.538,118.090 116.292,118.399 115.803 C 118.534 115.589,118.647 113.003,118.649 110.057 L 118.653 104.698 117.900 104.163 C 116.988 103.513,51.363 103.324,49.482 103.965 M164.794 103.983 C 164.586 104.233,164.519 106.112,164.568 110.266 L 164.637 116.192 199.223 116.258 C 231.509 116.321,233.830 116.296,234.132 115.885 C 234.747 115.049,234.577 104.784,233.938 104.145 C 233.262 103.469,165.352 103.310,164.794 103.983 M279.560 103.983 C 279.353 104.233,279.286 106.112,279.334 110.266 L 279.404 116.192 313.905 116.257 C 345.015 116.317,348.447 116.283,348.815 115.915 C 349.550 115.180,349.410 104.858,348.656 104.155 C 347.920 103.470,280.126 103.301,279.560 103.983 M49.153 122.842 L 48.436 123.103 48.505 128.837 L 48.575 134.571 49.223 134.898 C 50.172 135.378,116.926 135.378,117.876 134.898 L 118.523 134.571 118.593 128.953 L 118.663 123.335 117.894 122.937 C 116.957 122.452,50.471 122.360,49.153 122.842 M164.819 122.850 C 164.596 123.073,164.508 124.778,164.508 128.886 C 164.508 132.994,164.596 134.699,164.819 134.922 C 165.413 135.516,233.487 135.356,234.027 134.759 C 234.708 134.007,234.668 123.588,233.982 122.968 C 233.367 122.411,165.374 122.295,164.819 122.850 M279.185 123.013 C 278.504 123.765,278.544 134.184,279.230 134.804 C 280.003 135.504,348.160 135.460,348.794 134.759 C 349.475 134.007,349.435 123.588,348.749 122.968 C 347.976 122.268,279.819 122.312,279.185 123.013 M49.482 141.631 C 48.529 141.971,48.446 142.478,48.446 147.937 C 48.446 153.047,48.470 153.310,48.991 153.781 C 49.520 154.260,50.514 154.277,83.409 154.342 L 117.281 154.410 117.985 153.706 L 118.690 153.001 118.607 147.721 C 118.525 142.531,118.513 142.432,117.912 141.946 C 117.316 141.464,50.805 141.158,49.482 141.631 M164.819 141.762 C 164.417 142.163,164.378 153.160,164.776 153.903 C 165.154 154.609,233.085 154.702,233.789 153.997 C 234.611 153.176,234.765 142.835,233.971 141.879 C 233.509 141.322,165.373 141.207,164.819 141.762 M279.272 142.034 C 278.562 143.106,278.562 152.627,279.273 153.624 L 279.828 154.404 313.988 154.404 L 348.149 154.404 348.708 153.694 C 349.464 152.732,349.422 142.648,348.658 141.885 C 348.256 141.483,345.677 141.451,313.941 141.451 L 279.658 141.451 279.272 142.034 M49.741 160.806 C 48.476 161.271,48.446 161.419,48.446 167.089 C 48.446 171.301,48.524 172.547,48.813 172.943 C 49.389 173.730,116.939 173.867,117.908 173.083 C 118.514 172.593,118.525 172.504,118.607 167.305 L 118.690 162.025 117.988 161.323 L 117.287 160.622 83.708 160.642 C 65.240 160.653,49.955 160.727,49.741 160.806 M164.776 161.123 C 164.378 161.866,164.417 172.863,164.819 173.264 C 165.373 173.819,233.509 173.703,233.971 173.147 C 234.765 172.191,234.611 161.850,233.789 161.028 C 233.085 160.324,165.154 160.417,164.776 161.123 M279.292 161.374 C 278.352 162.695,278.594 171.962,279.603 173.251 C 280.050 173.823,348.084 173.714,348.658 173.141 C 349.422 172.378,349.464 162.294,348.708 161.332 L 348.149 160.622 313.988 160.622 L 279.828 160.622 279.292 161.374 M50.014 180.285 C 49.756 180.767,50.093 182.331,50.522 182.642 C 50.620 182.714,50.957 183.550,51.271 184.501 C 51.586 185.452,52.011 186.370,52.217 186.541 C 52.422 186.711,52.591 187.053,52.591 187.299 C 52.591 187.546,52.877 188.143,53.228 188.627 C 53.578 189.112,54.108 189.950,54.404 190.489 C 55.591 192.652,53.140 192.485,83.773 192.486 L 110.940 192.487 111.849 191.516 C 112.348 190.981,112.975 190.064,113.241 189.477 C 113.507 188.890,113.900 188.264,114.115 188.086 C 114.330 187.908,114.682 187.170,114.896 186.447 C 115.111 185.725,115.414 185.054,115.570 184.958 C 115.726 184.861,116.085 183.980,116.368 183.000 C 116.651 182.020,116.939 181.036,117.008 180.814 C 117.321 179.804,116.952 179.793,83.028 179.793 C 51.109 179.793,50.271 179.805,50.014 180.285 M166.203 180.207 C 165.671 180.739,165.905 182.137,166.749 183.479 C 167.084 184.011,167.358 184.654,167.358 184.908 C 167.358 185.163,167.593 185.777,167.880 186.273 C 168.168 186.770,168.587 187.584,168.812 188.083 C 169.037 188.582,169.451 189.239,169.733 189.545 C 170.015 189.850,170.441 190.490,170.680 190.966 C 170.919 191.442,171.405 191.978,171.762 192.156 C 172.599 192.574,225.652 192.640,226.840 192.224 C 227.569 191.969,228.050 191.381,229.162 189.387 C 229.456 188.859,229.939 188.087,230.236 187.670 C 230.533 187.253,230.904 186.433,231.062 185.848 C 231.220 185.262,231.565 184.505,231.829 184.166 C 232.092 183.827,232.390 183.083,232.489 182.513 C 232.589 181.943,232.726 181.285,232.795 181.051 C 232.863 180.816,232.732 180.437,232.503 180.209 C 231.867 179.572,166.839 179.571,166.203 180.207 M280.840 180.290 C 280.526 180.877,280.738 182.265,281.272 183.122 C 281.481 183.456,281.876 184.381,282.149 185.176 C 282.423 185.971,282.811 186.805,283.011 187.029 C 283.212 187.252,283.574 187.931,283.815 188.536 C 284.056 189.142,284.341 189.637,284.448 189.637 C 284.555 189.637,284.920 190.160,285.260 190.800 C 285.665 191.563,286.135 192.052,286.630 192.224 C 287.611 192.567,340.635 192.588,341.533 192.246 C 342.443 191.900,345.855 186.493,345.855 185.397 C 345.855 185.203,346.086 184.750,346.369 184.391 C 347.245 183.277,347.758 180.840,347.238 180.264 C 346.552 179.506,281.246 179.531,280.840 180.290 M63.277 198.972 C 62.423 199.315,62.701 199.569,66.291 201.729 C 66.807 202.039,67.351 202.401,67.500 202.533 C 67.650 202.666,68.408 202.981,69.184 203.234 C 69.961 203.487,70.771 203.845,70.984 204.030 C 71.198 204.215,72.189 204.567,73.187 204.812 C 74.184 205.057,75.350 205.445,75.777 205.673 C 76.728 206.181,87.674 206.431,89.784 205.993 C 91.800 205.575,95.323 204.448,96.802 203.749 C 97.546 203.397,98.322 203.109,98.527 203.109 C 98.732 203.109,99.060 202.915,99.256 202.678 C 99.451 202.441,100.136 202.018,100.777 201.737 C 101.418 201.456,102.118 201.059,102.332 200.854 C 102.545 200.649,103.122 200.244,103.614 199.954 L 104.508 199.426 103.873 199.075 C 103.121 198.658,64.302 198.560,63.277 198.972 M179.051 198.983 C 178.422 199.234,178.658 199.990,179.371 200.007 C 179.532 200.011,180.121 200.361,180.681 200.784 C 181.241 201.208,181.812 201.554,181.952 201.554 C 182.091 201.554,182.596 201.852,183.073 202.217 C 183.551 202.581,184.598 203.105,185.401 203.381 C 186.204 203.657,187.003 204.002,187.178 204.147 C 187.352 204.291,188.298 204.629,189.279 204.897 C 190.260 205.165,191.587 205.581,192.228 205.822 C 193.671 206.365,206.367 206.329,207.026 205.781 C 207.229 205.612,208.384 205.221,209.592 204.911 C 210.799 204.601,211.962 204.196,212.176 204.011 C 212.390 203.825,213.173 203.476,213.915 203.235 C 214.658 202.994,215.401 202.634,215.566 202.434 C 215.731 202.235,215.980 202.073,216.118 202.073 C 216.312 202.073,218.218 200.895,220.179 199.563 C 221.401 198.734,181.093 198.165,179.051 198.983 M293.818 198.983 C 293.184 199.237,293.431 200.000,294.148 200.000 C 294.314 200.000,294.853 200.345,295.347 200.767 C 295.840 201.188,296.362 201.538,296.507 201.544 C 296.652 201.550,297.194 201.842,297.712 202.194 C 298.229 202.545,299.160 203.030,299.780 203.270 C 300.400 203.511,301.083 203.857,301.297 204.039 C 301.512 204.222,302.522 204.545,303.541 204.757 C 304.560 204.970,305.783 205.356,306.259 205.616 C 307.276 206.171,318.558 206.469,320.549 205.993 C 323.102 205.384,325.627 204.564,327.115 203.862 C 327.993 203.448,328.889 203.109,329.104 203.109 C 329.320 203.109,329.658 202.947,329.855 202.750 C 330.052 202.553,330.731 202.129,331.363 201.809 C 331.996 201.488,332.571 201.142,332.642 201.040 C 332.714 200.938,333.289 200.531,333.921 200.135 C 336.210 198.700,336.247 198.703,314.264 198.721 C 302.433 198.731,294.183 198.836,293.818 198.983 " stroke="none" fill="#fcfcfc" fill-rule="evenodd"></path></g></svg>