<svg id="svg" version="1.1" xmlns="http://www.w3.org/2000/svg" xmlns:xlink="http://www.w3.org/1999/xlink" width="400" height="258.91472868217056" viewBox="0, 0, 400,258.91472868217056"><g id="svgg"><path id="path0" d="M128.497 43.759 C 127.714 43.871,126.431 44.145,125.648 44.368 C 124.864 44.591,123.698 44.856,123.057 44.958 C 122.416 45.059,121.180 45.478,120.312 45.887 C 119.443 46.297,118.607 46.632,118.453 46.632 C 118.300 46.632,117.845 46.907,117.442 47.243 C 117.039 47.580,116.356 48.036,115.923 48.258 C 114.780 48.843,112.174 51.535,111.728 52.591 C 111.518 53.089,111.124 53.986,110.854 54.584 C 109.929 56.631,110.733 61.508,112.405 63.980 C 112.649 64.342,112.999 64.987,113.182 65.415 C 113.541 66.252,115.341 69.061,118.048 73.008 C 118.641 73.873,119.203 74.822,119.296 75.116 C 119.389 75.410,119.729 75.970,120.051 76.362 C 120.372 76.753,120.840 77.597,121.091 78.238 C 121.341 78.880,121.693 79.579,121.873 79.793 C 122.052 80.006,122.402 80.706,122.650 81.347 C 122.898 81.988,123.248 82.688,123.428 82.902 C 123.608 83.115,123.908 83.873,124.095 84.585 C 124.281 85.298,124.639 86.294,124.890 86.800 C 125.140 87.305,125.427 88.179,125.527 88.743 C 125.777 90.147,126.314 92.200,126.675 93.130 C 127.730 95.842,127.469 107.689,126.278 111.191 C 125.931 112.210,125.648 113.318,125.648 113.653 C 125.648 113.988,125.406 114.929,125.110 115.745 C 124.815 116.561,124.346 118.023,124.068 118.995 C 123.790 119.967,123.404 121.016,123.210 121.326 C 123.016 121.637,122.651 122.532,122.399 123.316 C 122.147 124.100,121.797 124.974,121.622 125.259 C 121.446 125.544,121.105 126.388,120.864 127.134 C 120.624 127.881,120.323 128.556,120.195 128.634 C 120.068 128.713,119.724 129.584,119.430 130.570 C 119.136 131.556,118.787 132.430,118.653 132.513 C 118.519 132.596,118.161 133.504,117.856 134.531 C 117.552 135.558,117.209 136.516,117.095 136.658 C 116.980 136.801,116.690 137.675,116.450 138.601 C 116.211 139.527,115.807 140.751,115.553 141.321 C 115.299 141.891,114.888 143.407,114.640 144.689 C 114.392 145.972,114.079 147.230,113.944 147.486 C 113.666 148.016,113.328 149.908,112.940 153.109 C 112.793 154.320,112.545 156.010,112.388 156.865 C 112.026 158.840,112.017 167.033,112.374 168.912 C 112.523 169.696,112.834 171.491,113.064 172.901 C 113.295 174.311,113.645 175.827,113.843 176.269 C 114.041 176.711,114.400 177.691,114.640 178.447 C 114.880 179.202,115.414 180.485,115.825 181.296 C 116.237 182.108,116.575 182.903,116.577 183.064 C 116.579 183.225,116.764 183.508,116.988 183.694 C 117.212 183.880,117.635 184.507,117.928 185.086 C 118.221 185.666,118.621 186.233,118.816 186.347 C 119.011 186.461,119.171 186.703,119.171 186.885 C 119.171 187.067,119.470 187.496,119.835 187.839 C 120.200 188.182,120.727 188.832,121.005 189.283 C 121.640 190.310,124.580 193.324,125.560 193.953 C 126.500 194.556,128.219 195.850,128.887 196.456 C 129.580 197.085,131.677 198.435,131.970 198.441 C 132.099 198.443,132.583 198.734,133.046 199.087 C 133.508 199.440,134.510 199.974,135.272 200.274 C 136.034 200.575,136.786 200.928,136.945 201.059 C 137.103 201.191,137.907 201.530,138.731 201.813 C 139.554 202.097,140.377 202.452,140.559 202.603 C 140.741 202.754,141.854 203.108,143.031 203.389 C 144.208 203.671,145.320 204.024,145.501 204.174 C 145.682 204.324,147.322 204.682,149.146 204.969 C 150.969 205.257,153.044 205.604,153.756 205.742 C 156.237 206.221,161.376 206.275,164.249 205.853 C 169.637 205.061,172.885 204.409,173.933 203.908 C 174.520 203.628,175.350 203.313,175.777 203.210 C 176.771 202.969,179.939 201.380,180.983 200.599 C 181.424 200.270,181.875 200.000,181.985 200.000 C 182.379 200.000,185.692 196.485,186.137 195.596 C 186.387 195.097,186.759 194.497,186.964 194.263 C 188.055 193.016,188.644 187.867,187.956 185.598 C 187.744 184.899,187.569 184.119,187.568 183.865 C 187.563 183.170,185.794 179.641,185.272 179.286 C 185.158 179.208,184.790 178.650,184.454 178.044 C 184.117 177.438,183.753 176.943,183.643 176.943 C 183.534 176.943,183.204 176.448,182.910 175.842 C 182.616 175.236,181.974 174.100,181.483 173.316 C 180.991 172.532,180.307 171.294,179.961 170.564 C 179.615 169.834,179.211 169.162,179.063 169.071 C 178.915 168.980,178.654 168.469,178.483 167.937 C 178.312 167.404,177.850 166.269,177.455 165.415 C 175.820 161.872,175.446 160.949,175.152 159.741 C 174.982 159.042,174.664 158.124,174.444 157.700 C 174.225 157.275,173.873 155.807,173.663 154.436 C 173.453 153.065,173.178 151.360,173.053 150.648 C 172.928 149.935,172.704 148.653,172.554 147.798 C 172.202 145.784,172.207 144.001,172.566 143.087 C 172.724 142.686,172.952 141.716,173.074 140.933 C 173.195 140.149,173.416 138.750,173.565 137.824 C 173.878 135.878,174.896 133.183,176.843 129.145 C 177.599 127.578,178.295 125.946,178.391 125.518 C 178.486 125.091,178.772 124.391,179.027 123.964 C 179.282 123.536,179.681 122.429,179.914 121.503 C 180.147 120.576,180.498 119.469,180.693 119.041 C 180.889 118.614,181.239 117.215,181.471 115.933 C 181.703 114.650,182.046 113.193,182.234 112.694 C 182.700 111.455,182.915 109.821,183.145 105.785 C 183.259 103.786,183.470 102.195,183.650 101.977 C 184.026 101.525,183.897 93.177,183.468 90.155 C 183.317 89.087,183.062 86.940,182.902 85.385 C 182.742 83.829,182.458 82.256,182.271 81.887 C 182.083 81.519,181.732 80.227,181.491 79.016 C 181.250 77.804,180.905 76.580,180.723 76.295 C 180.542 76.010,180.138 74.932,179.827 73.899 C 179.515 72.866,179.174 72.021,179.069 72.021 C 178.964 72.021,178.678 71.459,178.434 70.772 C 178.190 70.085,177.755 69.251,177.467 68.919 C 177.179 68.586,176.943 68.166,176.943 67.985 C 176.943 67.804,176.674 67.327,176.344 66.924 C 176.015 66.521,175.427 65.638,175.038 64.961 C 174.649 64.284,174.227 63.731,174.100 63.731 C 173.973 63.731,173.799 63.511,173.714 63.242 C 173.428 62.341,168.239 57.193,165.661 55.254 C 163.199 53.401,162.408 52.850,162.214 52.850 C 162.095 52.850,161.775 52.603,161.504 52.301 C 161.232 52.000,160.427 51.494,159.715 51.177 C 159.003 50.861,158.260 50.408,158.064 50.171 C 157.869 49.935,157.507 49.741,157.261 49.741 C 157.015 49.741,156.301 49.393,155.674 48.968 C 155.047 48.544,154.381 48.194,154.194 48.191 C 154.007 48.189,153.210 47.882,152.423 47.510 C 151.636 47.137,150.448 46.681,149.784 46.495 C 149.119 46.309,147.984 45.932,147.262 45.657 C 146.540 45.382,145.343 45.077,144.601 44.978 C 143.859 44.880,142.351 44.566,141.250 44.280 C 139.024 43.703,131.136 43.380,128.497 43.759 M230.570 43.776 C 229.644 43.898,228.361 44.133,227.720 44.299 C 227.079 44.464,225.855 44.751,225.000 44.937 C 223.190 45.329,222.135 45.719,221.913 46.078 C 221.827 46.218,221.383 46.415,220.928 46.515 C 219.201 46.894,214.953 50.467,213.535 52.733 C 212.248 54.790,212.066 59.117,213.168 61.440 C 213.462 62.058,213.948 63.089,214.247 63.731 C 214.547 64.372,215.107 65.423,215.492 66.068 C 215.877 66.712,216.425 67.630,216.710 68.108 C 216.995 68.586,217.490 69.300,217.811 69.694 C 218.131 70.089,218.394 70.484,218.394 70.571 C 218.394 70.659,218.860 71.414,219.430 72.249 C 220.000 73.084,220.466 73.885,220.466 74.028 C 220.466 74.172,220.650 74.442,220.875 74.628 C 221.100 74.815,221.567 75.499,221.914 76.150 C 222.260 76.800,222.659 77.506,222.801 77.720 C 222.942 77.934,223.289 78.633,223.572 79.275 C 223.855 79.916,224.193 80.615,224.324 80.829 C 224.875 81.731,226.141 84.645,226.295 85.363 C 226.386 85.790,226.743 86.839,227.088 87.694 C 227.434 88.549,227.820 89.948,227.948 90.803 C 228.075 91.658,228.416 93.240,228.705 94.319 C 229.715 98.092,229.684 104.696,228.636 109.067 C 228.413 109.994,228.116 111.409,227.975 112.213 C 227.833 113.017,227.427 114.448,227.071 115.393 C 226.716 116.337,226.425 117.371,226.425 117.689 C 226.425 118.008,226.124 118.834,225.755 119.526 C 225.387 120.217,224.922 121.414,224.721 122.186 C 224.520 122.957,224.189 123.848,223.986 124.165 C 223.783 124.482,223.480 125.261,223.312 125.898 C 223.144 126.534,222.785 127.336,222.514 127.681 C 222.243 128.026,222.021 128.472,222.021 128.673 C 222.021 128.873,221.683 129.761,221.271 130.646 C 220.858 131.530,220.345 132.851,220.129 133.581 C 219.913 134.311,219.567 135.243,219.359 135.653 C 219.151 136.063,218.833 137.040,218.652 137.824 C 218.471 138.608,218.115 139.663,217.861 140.170 C 217.607 140.676,217.262 141.842,217.096 142.760 C 216.929 143.679,216.588 144.896,216.337 145.466 C 216.086 146.036,215.742 147.552,215.574 148.834 C 215.405 150.117,215.097 151.704,214.889 152.361 C 213.926 155.411,213.709 168.669,214.582 171.114 C 214.786 171.684,215.154 173.258,215.400 174.611 C 215.646 175.965,216.058 177.422,216.314 177.850 C 216.571 178.277,216.972 179.297,217.206 180.117 C 217.440 180.936,217.729 181.606,217.848 181.606 C 217.967 181.606,218.271 182.160,218.523 182.837 C 218.775 183.514,219.180 184.301,219.424 184.585 C 219.668 184.870,220.439 185.969,221.138 187.027 C 222.384 188.912,226.861 193.680,228.338 194.694 C 228.749 194.976,229.565 195.558,230.152 195.987 C 232.052 197.377,232.673 197.784,234.160 198.615 C 236.765 200.071,239.734 201.554,240.042 201.554 C 240.207 201.554,241.028 201.890,241.868 202.300 C 242.707 202.711,244.035 203.193,244.819 203.371 C 245.602 203.549,246.540 203.845,246.902 204.029 C 247.264 204.212,248.722 204.551,250.140 204.781 C 251.559 205.012,254.175 205.444,255.954 205.741 C 259.421 206.320,264.528 206.319,267.228 205.738 C 269.652 205.217,272.925 204.663,273.579 204.663 C 273.937 204.663,274.652 204.437,275.167 204.161 C 275.682 203.885,276.769 203.485,277.584 203.273 C 278.398 203.060,279.257 202.722,279.493 202.522 C 279.729 202.322,280.330 202.003,280.829 201.814 C 281.328 201.625,281.969 201.271,282.254 201.026 C 282.539 200.782,283.238 200.291,283.808 199.936 C 284.378 199.581,285.441 198.691,286.170 197.959 C 287.319 196.804,287.978 195.819,289.587 192.851 C 291.004 190.236,289.582 181.575,287.444 179.800 C 287.226 179.619,287.047 179.369,287.047 179.245 C 287.047 179.040,285.231 176.223,284.319 175.012 C 284.109 174.734,283.938 174.401,283.938 174.272 C 283.938 174.144,283.588 173.521,283.161 172.887 C 282.733 172.254,282.383 171.641,282.383 171.526 C 282.383 171.410,282.077 170.865,281.703 170.314 C 281.329 169.763,280.866 168.864,280.673 168.318 C 280.480 167.771,280.086 167.024,279.798 166.658 C 279.510 166.292,279.275 165.795,279.275 165.553 C 279.275 165.311,278.981 164.540,278.623 163.839 C 278.264 163.138,277.789 161.865,277.567 161.010 C 277.346 160.155,277.002 159.204,276.804 158.897 C 276.606 158.590,276.201 157.143,275.903 155.681 C 275.605 154.220,275.231 152.781,275.071 152.484 C 274.466 151.360,274.470 141.149,275.076 139.311 C 275.369 138.422,275.747 136.995,275.916 136.140 C 276.085 135.285,276.560 133.862,276.972 132.977 C 277.383 132.093,277.720 131.252,277.720 131.110 C 277.720 130.968,278.015 130.418,278.374 129.888 C 278.734 129.358,279.103 128.630,279.193 128.270 C 279.283 127.911,279.688 126.987,280.093 126.217 C 280.498 125.448,280.829 124.624,280.829 124.387 C 280.829 124.150,281.048 123.547,281.317 123.046 C 281.585 122.546,282.008 121.207,282.257 120.071 C 282.506 118.935,282.799 117.889,282.910 117.746 C 283.217 117.349,283.634 115.618,283.936 113.489 C 284.086 112.430,284.366 111.089,284.559 110.510 C 285.587 107.420,285.824 89.303,284.889 85.233 C 284.676 84.307,284.248 82.325,283.938 80.829 C 283.627 79.333,283.222 77.870,283.036 77.578 C 282.851 77.287,282.508 76.301,282.274 75.387 C 282.040 74.474,281.677 73.537,281.467 73.306 C 281.257 73.074,280.913 72.301,280.701 71.588 C 280.489 70.876,280.082 70.022,279.795 69.692 C 279.509 69.362,279.275 68.958,279.275 68.794 C 279.275 68.456,277.296 65.290,276.838 64.896 C 276.672 64.754,276.288 64.210,275.984 63.687 C 275.325 62.554,275.191 62.395,272.584 59.650 C 271.468 58.475,270.469 57.513,270.364 57.513 C 270.260 57.513,269.861 57.222,269.478 56.866 C 268.373 55.838,266.549 54.404,266.346 54.404 C 266.243 54.404,265.880 54.143,265.538 53.825 C 264.965 53.291,263.348 52.206,260.560 50.484 C 259.953 50.110,259.165 49.714,258.808 49.606 C 258.452 49.497,257.755 49.134,257.259 48.798 C 256.762 48.462,256.179 48.187,255.963 48.187 C 255.747 48.187,254.870 47.853,254.016 47.446 C 251.631 46.309,248.534 45.308,246.244 44.932 C 245.104 44.746,243.530 44.409,242.746 44.184 C 241.055 43.699,233.163 43.435,230.570 43.776 " stroke="none" fill="#05ac55" fill-rule="evenodd"></path><path id="path1" d="M0.000 129.534 L 0.000 259.067 200.000 259.067 L 400.000 259.067 400.000 129.534 L 400.000 0.000 200.000 0.000 L 0.000 0.000 0.000 129.534 M141.250 44.280 C 142.351 44.566,143.859 44.880,144.601 44.978 C 145.343 45.077,146.540 45.382,147.262 45.657 C 147.984 45.932,149.119 46.309,149.784 46.495 C 150.448 46.681,151.636 47.137,152.423 47.510 C 153.210 47.882,154.007 48.189,154.194 48.191 C 154.381 48.194,155.047 48.544,155.674 48.968 C 156.301 49.393,157.015 49.741,157.261 49.741 C 157.507 49.741,157.869 49.935,158.064 50.171 C 158.260 50.408,159.003 50.861,159.715 51.177 C 160.427 51.494,161.232 52.000,161.504 52.301 C 161.775 52.603,162.095 52.850,162.214 52.850 C 162.408 52.850,163.199 53.401,165.661 55.254 C 168.239 57.193,173.428 62.341,173.714 63.242 C 173.799 63.511,173.973 63.731,174.100 63.731 C 174.227 63.731,174.649 64.284,175.038 64.961 C 175.427 65.638,176.015 66.521,176.344 66.924 C 176.674 67.327,176.943 67.804,176.943 67.985 C 176.943 68.166,177.179 68.586,177.467 68.919 C 177.755 69.251,178.190 70.085,178.434 70.772 C 178.678 71.459,178.964 72.021,179.069 72.021 C 179.174 72.021,179.515 72.866,179.827 73.899 C 180.138 74.932,180.542 76.010,180.723 76.295 C 180.905 76.580,181.250 77.804,181.491 79.016 C 181.732 80.227,182.083 81.519,182.271 81.887 C 182.458 82.256,182.742 83.829,182.902 85.385 C 183.062 86.940,183.317 89.087,183.468 90.155 C 183.897 93.177,184.026 101.525,183.650 101.977 C 183.470 102.195,183.259 103.786,183.145 105.785 C 182.915 109.821,182.700 111.455,182.234 112.694 C 182.046 113.193,181.703 114.650,181.471 115.933 C 181.239 117.215,180.889 118.614,180.693 119.041 C 180.498 119.469,180.147 120.576,179.914 121.503 C 179.681 122.429,179.282 123.536,179.027 123.964 C 178.772 124.391,178.486 125.091,178.391 125.518 C 178.295 125.946,177.599 127.578,176.843 129.145 C 174.896 133.183,173.878 135.878,173.565 137.824 C 173.416 138.750,173.195 140.149,173.074 140.933 C 172.952 141.716,172.724 142.686,172.566 143.087 C 172.207 144.001,172.202 145.784,172.554 147.798 C 172.704 148.653,172.928 149.935,173.053 150.648 C 173.178 151.360,173.453 153.065,173.663 154.436 C 173.873 155.807,174.225 157.275,174.444 157.700 C 174.664 158.124,174.982 159.042,175.152 159.741 C 175.446 160.949,175.820 161.872,177.455 165.415 C 177.850 166.269,178.312 167.404,178.483 167.937 C 178.654 168.469,178.915 168.980,179.063 169.071 C 179.211 169.162,179.615 169.834,179.961 170.564 C 180.307 171.294,180.991 172.532,181.483 173.316 C 181.974 174.100,182.616 175.236,182.910 175.842 C 183.204 176.448,183.534 176.943,183.643 176.943 C 183.753 176.943,184.117 177.438,184.454 178.044 C 184.790 178.650,185.158 179.208,185.272 179.286 C 185.794 179.641,187.563 183.170,187.568 183.865 C 187.569 184.119,187.744 184.899,187.956 185.598 C 188.644 187.867,188.055 193.016,186.964 194.263 C 186.759 194.497,186.387 195.097,186.137 195.596 C 185.692 196.485,182.379 200.000,181.985 200.000 C 181.875 200.000,181.424 200.270,180.983 200.599 C 179.939 201.380,176.771 202.969,175.777 203.210 C 175.350 203.313,174.520 203.628,173.933 203.908 C 172.885 204.409,169.637 205.061,164.249 205.853 C 161.376 206.275,156.237 206.221,153.756 205.742 C 153.044 205.604,150.969 205.257,149.146 204.969 C 147.322 204.682,145.682 204.324,145.501 204.174 C 145.320 204.024,144.208 203.671,143.031 203.389 C 141.854 203.108,140.741 202.754,140.559 202.603 C 140.377 202.452,139.554 202.097,138.731 201.813 C 137.907 201.530,137.103 201.191,136.945 201.059 C 136.786 200.928,136.034 200.575,135.272 200.274 C 134.510 199.974,133.508 199.440,133.046 199.087 C 132.583 198.734,132.099 198.443,131.970 198.441 C 131.677 198.435,129.580 197.085,128.887 196.456 C 128.219 195.850,126.500 194.556,125.560 193.953 C 124.580 193.324,121.640 190.310,121.005 189.283 C 120.727 188.832,120.200 188.182,119.835 187.839 C 119.470 187.496,119.171 187.067,119.171 186.885 C 119.171 186.703,119.011 186.461,118.816 186.347 C 118.621 186.233,118.221 185.666,117.928 185.086 C 117.635 184.507,117.212 183.880,116.988 183.694 C 116.764 183.508,116.579 183.225,116.577 183.064 C 116.575 182.903,116.237 182.108,115.825 181.296 C 115.414 180.485,114.880 179.202,114.640 178.447 C 114.400 177.691,114.041 176.711,113.843 176.269 C 113.645 175.827,113.295 174.311,113.064 172.901 C 112.834 171.491,112.523 169.696,112.374 168.912 C 112.017 167.033,112.026 158.840,112.388 156.865 C 112.545 156.010,112.793 154.320,112.940 153.109 C 113.328 149.908,113.666 148.016,113.944 147.486 C 114.079 147.230,114.392 145.972,114.640 144.689 C 114.888 143.407,115.299 141.891,115.553 141.321 C 115.807 140.751,116.211 139.527,116.450 138.601 C 116.690 137.675,116.980 136.801,117.095 136.658 C 117.209 136.516,117.552 135.558,117.856 134.531 C 118.161 133.504,118.519 132.596,118.653 132.513 C 118.787 132.430,119.136 131.556,119.430 130.570 C 119.724 129.584,120.068 128.713,120.195 128.634 C 120.323 128.556,120.624 127.881,120.864 127.134 C 121.105 126.388,121.446 125.544,121.622 125.259 C 121.797 124.974,122.147 124.100,122.399 123.316 C 122.651 122.532,123.016 121.637,123.210 121.326 C 123.404 121.016,123.790 119.967,124.068 118.995 C 124.346 118.023,124.815 116.561,125.110 115.745 C 125.406 114.929,125.648 113.988,125.648 113.653 C 125.648 113.318,125.931 112.210,126.278 111.191 C 127.469 107.689,127.730 95.842,126.675 93.130 C 126.314 92.200,125.777 90.147,125.527 88.743 C 125.427 88.179,125.140 87.305,124.890 86.800 C 124.639 86.294,124.281 85.298,124.095 84.585 C 123.908 83.873,123.608 83.115,123.428 82.902 C 123.248 82.688,122.898 81.988,122.650 81.347 C 122.402 80.706,122.052 80.006,121.873 79.793 C 121.693 79.579,121.341 78.880,121.091 78.238 C 120.840 77.597,120.372 76.753,120.051 76.362 C 119.729 75.970,119.389 75.410,119.296 75.116 C 119.203 74.822,118.641 73.873,118.048 73.008 C 115.341 69.061,113.541 66.252,113.182 65.415 C 112.999 64.987,112.649 64.342,112.405 63.980 C 110.733 61.508,109.929 56.631,110.854 54.584 C 111.124 53.986,111.518 53.089,111.728 52.591 C 112.174 51.535,114.780 48.843,115.923 48.258 C 116.356 48.036,117.039 47.580,117.442 47.243 C 117.845 46.907,118.300 46.632,118.453 46.632 C 118.607 46.632,119.443 46.297,120.312 45.887 C 121.180 45.478,122.416 45.059,123.057 44.958 C 123.698 44.856,124.864 44.591,125.648 44.368 C 129.147 43.374,137.572 43.326,141.250 44.280 M242.746 44.184 C 243.530 44.409,245.104 44.746,246.244 44.932 C 248.534 45.308,251.631 46.309,254.016 47.446 C 254.870 47.853,255.747 48.187,255.963 48.187 C 256.179 48.187,256.762 48.462,257.259 48.798 C 257.755 49.134,258.452 49.497,258.808 49.606 C 259.165 49.714,259.953 50.110,260.560 50.484 C 263.348 52.206,264.965 53.291,265.538 53.825 C 265.880 54.143,266.243 54.404,266.346 54.404 C 266.549 54.404,268.373 55.838,269.478 56.866 C 269.861 57.222,270.260 57.513,270.364 57.513 C 270.469 57.513,271.468 58.475,272.584 59.650 C 275.191 62.395,275.325 62.554,275.984 63.687 C 276.288 64.210,276.672 64.754,276.838 64.896 C 277.296 65.290,279.275 68.456,279.275 68.794 C 279.275 68.958,279.509 69.362,279.795 69.692 C 280.082 70.022,280.489 70.876,280.701 71.588 C 280.913 72.301,281.257 73.074,281.467 73.306 C 281.677 73.537,282.040 74.474,282.274 75.387 C 282.508 76.301,282.851 77.287,283.036 77.578 C 283.222 77.870,283.627 79.333,283.938 80.829 C 284.248 82.325,284.676 84.307,284.889 85.233 C 285.824 89.303,285.587 107.420,284.559 110.510 C 284.366 111.089,284.086 112.430,283.936 113.489 C 283.634 115.618,283.217 117.349,282.910 117.746 C 282.799 117.889,282.506 118.935,282.257 120.071 C 282.008 121.207,281.585 122.546,281.317 123.046 C 281.048 123.547,280.829 124.150,280.829 124.387 C 280.829 124.624,280.498 125.448,280.093 126.217 C 279.688 126.987,279.283 127.911,279.193 128.270 C 279.103 128.630,278.734 129.358,278.374 129.888 C 278.015 130.418,277.720 130.968,277.720 131.110 C 277.720 131.252,277.383 132.093,276.972 132.977 C 276.560 133.862,276.085 135.285,275.916 136.140 C 275.747 136.995,275.369 138.422,275.076 139.311 C 274.470 141.149,274.466 151.360,275.071 152.484 C 275.231 152.781,275.605 154.220,275.903 155.681 C 276.201 157.143,276.606 158.590,276.804 158.897 C 277.002 159.204,277.346 160.155,277.567 161.010 C 277.789 161.865,278.264 163.138,278.623 163.839 C 278.981 164.540,279.275 165.311,279.275 165.553 C 279.275 165.795,279.510 166.292,279.798 166.658 C 280.086 167.024,280.480 167.771,280.673 168.318 C 280.866 168.864,281.329 169.763,281.703 170.314 C 282.077 170.865,282.383 171.410,282.383 171.526 C 282.383 171.641,282.733 172.254,283.161 172.887 C 283.588 173.521,283.938 174.144,283.938 174.272 C 283.938 174.401,284.109 174.734,284.319 175.012 C 285.231 176.223,287.047 179.040,287.047 179.245 C 287.047 179.369,287.226 179.619,287.444 179.800 C 289.582 181.575,291.004 190.236,289.587 192.851 C 287.978 195.819,287.319 196.804,286.170 197.959 C 285.441 198.691,284.378 199.581,283.808 199.936 C 283.238 200.291,282.539 200.782,282.254 201.026 C 281.969 201.271,281.328 201.625,280.829 201.814 C 280.330 202.003,279.729 202.322,279.493 202.522 C 279.257 202.722,278.398 203.060,277.584 203.273 C 276.769 203.485,275.682 203.885,275.167 204.161 C 274.652 204.437,273.937 204.663,273.579 204.663 C 272.925 204.663,269.652 205.217,267.228 205.738 C 264.528 206.319,259.421 206.320,255.954 205.741 C 254.175 205.444,251.559 205.012,250.140 204.781 C 248.722 204.551,247.264 204.212,246.902 204.029 C 246.540 203.845,245.602 203.549,244.819 203.371 C 244.035 203.193,242.707 202.711,241.868 202.300 C 241.028 201.890,240.207 201.554,240.042 201.554 C 239.734 201.554,236.765 200.071,234.160 198.615 C 232.673 197.784,232.052 197.377,230.152 195.987 C 229.565 195.558,228.749 194.976,228.338 194.694 C 226.861 193.680,222.384 188.912,221.138 187.027 C 220.439 185.969,219.668 184.870,219.424 184.585 C 219.180 184.301,218.775 183.514,218.523 182.837 C 218.271 182.160,217.967 181.606,217.848 181.606 C 217.729 181.606,217.440 180.936,217.206 180.117 C 216.972 179.297,216.571 178.277,216.314 177.850 C 216.058 177.422,215.646 175.965,215.400 174.611 C 215.154 173.258,214.786 171.684,214.582 171.114 C 213.709 168.669,213.926 155.411,214.889 152.361 C 215.097 151.704,215.405 150.117,215.574 148.834 C 215.742 147.552,216.086 146.036,216.337 145.466 C 216.588 144.896,216.929 143.679,217.096 142.760 C 217.262 141.842,217.607 140.676,217.861 140.170 C 218.115 139.663,218.471 138.608,218.652 137.824 C 218.833 137.040,219.151 136.063,219.359 135.653 C 219.567 135.243,219.913 134.311,220.129 133.581 C 220.345 132.851,220.858 131.530,221.271 130.646 C 221.683 129.761,222.021 128.873,222.021 128.673 C 222.021 128.472,222.243 128.026,222.514 127.681 C 222.785 127.336,223.144 126.534,223.312 125.898 C 223.480 125.261,223.783 124.482,223.986 124.165 C 224.189 123.848,224.520 122.957,224.721 122.186 C 224.922 121.414,225.387 120.217,225.755 119.526 C 226.124 118.834,226.425 118.008,226.425 117.689 C 226.425 117.371,226.716 116.337,227.071 115.393 C 227.427 114.448,227.833 113.017,227.975 112.213 C 228.116 111.409,228.413 109.994,228.636 109.067 C 229.684 104.696,229.715 98.092,228.705 94.319 C 228.416 93.240,228.075 91.658,227.948 90.803 C 227.820 89.948,227.434 88.549,227.088 87.694 C 226.743 86.839,226.386 85.790,226.295 85.363 C 226.141 84.645,224.875 81.731,224.324 80.829 C 224.193 80.615,223.855 79.916,223.572 79.275 C 223.289 78.633,222.942 77.934,222.801 77.720 C 222.659 77.506,222.260 76.800,221.914 76.150 C 221.567 75.499,221.100 74.815,220.875 74.628 C 220.650 74.442,220.466 74.172,220.466 74.028 C 220.466 73.885,220.000 73.084,219.430 72.249 C 218.860 71.414,218.394 70.659,218.394 70.571 C 218.394 70.484,218.131 70.089,217.811 69.694 C 217.490 69.300,216.995 68.586,216.710 68.108 C 216.425 67.630,215.877 66.712,215.492 66.068 C 215.107 65.423,214.547 64.372,214.247 63.731 C 213.948 63.089,213.462 62.058,213.168 61.440 C 212.066 59.117,212.248 54.790,213.535 52.733 C 214.953 50.467,219.201 46.894,220.928 46.515 C 221.383 46.415,221.827 46.218,221.913 46.078 C 222.135 45.719,223.190 45.329,225.000 44.937 C 225.855 44.751,227.079 44.464,227.720 44.299 C 231.014 43.448,239.942 43.380,242.746 44.184 " stroke="none" fill="#fcfcfc" fill-rule="evenodd"></path></g></svg>