<svg id="svg" version="1.1" xmlns="http://www.w3.org/2000/svg" xmlns:xlink="http://www.w3.org/1999/xlink" width="400" height="258.91472868217056" viewBox="0, 0, 400,258.91472868217056"><g id="svgg"><path id="path0" d="M73.460 49.498 C 70.875 49.942,68.262 50.774,66.580 51.690 C 66.224 51.884,65.408 52.285,64.767 52.582 C 63.623 53.112,60.051 56.481,59.264 57.772 C 57.791 60.188,58.022 66.141,59.685 68.648 C 60.017 69.150,60.433 69.930,60.609 70.383 C 60.784 70.836,61.151 71.407,61.423 71.654 C 61.695 71.900,61.917 72.209,61.917 72.341 C 61.917 72.473,62.325 73.195,62.824 73.947 C 63.323 74.698,63.731 75.393,63.731 75.491 C 63.731 75.589,63.973 75.927,64.269 76.241 C 64.565 76.556,64.963 77.182,65.153 77.633 C 65.343 78.083,65.691 78.666,65.927 78.928 C 66.699 79.787,67.604 81.195,68.236 82.523 C 68.578 83.241,69.032 83.974,69.246 84.152 C 69.460 84.329,69.713 84.893,69.809 85.404 C 69.905 85.916,70.257 86.757,70.590 87.273 C 70.923 87.790,71.279 88.620,71.381 89.119 C 71.482 89.618,71.832 90.492,72.157 91.062 C 72.482 91.632,72.823 92.623,72.915 93.264 C 73.007 93.905,73.366 95.246,73.713 96.244 C 74.268 97.839,74.944 103.624,74.893 106.347 C 74.814 110.622,74.307 115.295,73.732 117.055 C 73.375 118.148,72.966 119.707,72.822 120.520 C 72.678 121.334,72.337 122.441,72.063 122.981 C 71.790 123.522,71.479 124.372,71.373 124.870 C 71.267 125.369,70.917 126.302,70.596 126.943 C 70.275 127.584,69.927 128.500,69.824 128.979 C 69.720 129.457,69.370 130.240,69.045 130.719 C 68.720 131.197,68.375 132.016,68.277 132.538 C 68.179 133.060,67.830 133.912,67.502 134.432 C 67.174 134.951,66.818 135.781,66.711 136.276 C 66.604 136.771,66.254 137.701,65.933 138.342 C 65.612 138.983,65.261 139.916,65.153 140.415 C 65.046 140.913,64.696 141.904,64.376 142.617 C 64.057 143.329,63.717 144.378,63.622 144.948 C 63.527 145.518,63.222 146.567,62.944 147.280 C 62.465 148.506,62.184 149.698,60.922 155.829 C 59.713 161.706,59.286 169.292,59.960 172.893 C 60.182 174.074,60.364 175.556,60.367 176.186 C 60.371 177.579,60.957 180.160,61.509 181.218 C 61.732 181.645,61.915 182.297,61.916 182.666 C 61.916 183.035,62.255 184.026,62.668 184.868 C 63.082 185.710,63.503 186.690,63.605 187.047 C 63.707 187.403,64.043 188.044,64.352 188.472 C 64.661 188.899,65.058 189.540,65.235 189.896 C 65.758 190.953,66.604 192.120,68.565 194.490 C 69.300 195.377,69.941 196.195,69.990 196.307 C 70.138 196.650,74.340 200.259,74.591 200.259 C 74.721 200.259,75.099 200.488,75.431 200.769 C 76.724 201.858,78.411 203.016,79.339 203.453 C 79.874 203.705,80.311 204.006,80.311 204.122 C 80.311 204.238,80.826 204.531,81.456 204.771 C 82.086 205.012,82.735 205.370,82.899 205.567 C 83.063 205.764,83.567 206.003,84.020 206.098 C 84.474 206.193,85.486 206.589,86.269 206.979 C 87.053 207.368,88.266 207.829,88.964 208.002 C 89.662 208.176,90.549 208.480,90.934 208.679 C 91.318 208.878,92.787 209.288,94.197 209.590 C 95.608 209.892,97.578 210.323,98.575 210.548 C 99.978 210.865,101.972 210.960,107.383 210.968 L 114.378 210.978 117.482 210.152 C 119.189 209.698,120.744 209.326,120.936 209.326 C 121.350 209.326,124.717 207.922,125.648 207.361 C 126.004 207.146,126.763 206.759,127.334 206.500 C 128.517 205.965,129.157 205.465,131.647 203.131 C 132.622 202.217,133.420 201.334,133.420 201.168 C 133.420 201.003,133.709 200.595,134.063 200.263 C 134.417 199.930,134.784 199.247,134.879 198.744 C 134.973 198.241,135.324 197.155,135.660 196.329 C 136.312 194.724,136.434 193.212,136.002 192.077 C 135.855 191.690,135.491 190.432,135.192 189.279 C 134.893 188.127,134.372 186.822,134.034 186.379 C 133.696 185.935,133.420 185.456,133.420 185.314 C 133.420 185.171,133.194 184.850,132.918 184.601 C 132.643 184.351,132.189 183.663,131.911 183.071 C 131.632 182.479,131.158 181.773,130.857 181.501 C 130.557 181.230,130.311 180.868,130.311 180.698 C 130.311 180.528,129.976 179.926,129.566 179.360 C 129.156 178.795,128.732 178.049,128.622 177.702 C 128.512 177.356,128.148 176.712,127.812 176.271 C 127.477 175.830,127.202 175.364,127.201 175.235 C 127.200 175.106,126.851 174.475,126.425 173.834 C 125.999 173.193,125.649 172.482,125.649 172.254 C 125.648 172.025,125.375 171.326,125.042 170.699 C 124.709 170.072,124.225 168.918,123.966 168.135 C 123.707 167.351,123.353 166.477,123.180 166.192 C 123.006 165.907,122.666 164.860,122.424 163.865 C 122.183 162.870,121.878 161.928,121.748 161.771 C 121.532 161.511,121.229 159.829,120.481 154.743 C 120.142 152.437,120.127 148.897,120.450 147.235 C 120.583 146.547,120.828 145.052,120.994 143.912 C 121.159 142.772,121.499 141.373,121.749 140.803 C 121.999 140.233,122.355 139.184,122.540 138.472 C 122.725 137.759,123.024 137.001,123.204 136.788 C 123.384 136.574,123.736 135.874,123.985 135.233 C 124.234 134.592,124.653 133.757,124.916 133.377 C 125.178 132.997,125.464 132.297,125.552 131.822 C 125.639 131.347,125.978 130.489,126.304 129.914 C 126.631 129.340,126.983 128.407,127.087 127.842 C 127.191 127.276,127.550 126.188,127.886 125.423 C 128.221 124.658,128.607 123.376,128.742 122.573 C 128.877 121.771,129.171 120.473,129.395 119.689 C 129.872 118.018,130.130 116.422,130.694 111.658 C 130.921 109.734,131.230 107.403,131.379 106.477 C 132.007 102.577,130.825 89.951,129.414 85.492 C 129.076 84.424,128.722 83.089,128.627 82.527 C 128.532 81.965,128.190 80.974,127.866 80.325 C 127.541 79.676,127.197 78.815,127.099 78.411 C 127.002 78.007,126.636 77.223,126.285 76.668 C 125.934 76.112,125.647 75.510,125.646 75.329 C 125.645 75.148,125.407 74.650,125.117 74.223 C 124.827 73.795,124.436 73.091,124.248 72.658 C 124.060 72.225,123.740 71.700,123.537 71.492 C 123.333 71.284,122.884 70.648,122.537 70.078 C 122.191 69.508,121.700 68.815,121.446 68.539 C 121.192 68.263,120.984 67.952,120.984 67.849 C 120.984 67.643,115.605 62.176,115.404 62.176 C 115.335 62.176,114.436 61.495,113.404 60.662 C 111.289 58.954,106.948 55.959,106.585 55.957 C 106.454 55.957,105.823 55.608,105.181 55.181 C 104.540 54.755,103.839 54.406,103.622 54.405 C 103.406 54.405,102.789 54.105,102.250 53.739 C 101.712 53.373,100.674 52.896,99.943 52.679 C 99.213 52.462,98.373 52.128,98.077 51.937 C 97.781 51.746,96.747 51.407,95.780 51.184 C 94.812 50.962,93.682 50.605,93.267 50.390 C 90.867 49.149,78.690 48.601,73.460 49.498 M178.713 49.094 C 178.642 49.165,177.335 49.399,175.809 49.613 C 174.284 49.827,172.778 50.163,172.463 50.360 C 172.149 50.557,171.250 50.924,170.466 51.176 C 169.683 51.428,168.681 51.908,168.240 52.242 C 167.799 52.576,167.308 52.850,167.149 52.850 C 166.587 52.850,162.820 56.449,162.576 57.220 C 162.479 57.523,162.301 57.772,162.180 57.772 C 160.848 57.772,160.811 64.945,162.129 67.648 C 162.582 68.580,162.953 69.438,162.953 69.556 C 162.953 69.673,163.245 70.152,163.601 70.619 C 163.957 71.086,164.249 71.588,164.249 71.735 C 164.249 71.882,164.598 72.401,165.026 72.888 C 165.453 73.375,165.803 73.874,165.804 73.998 C 165.804 74.259,167.693 77.087,168.376 77.850 C 168.631 78.135,168.973 78.765,169.136 79.251 C 169.299 79.736,169.651 80.287,169.919 80.475 C 170.188 80.663,170.486 81.133,170.583 81.520 C 170.680 81.906,170.990 82.545,171.270 82.939 C 171.551 83.333,171.913 84.040,172.074 84.509 C 172.236 84.979,172.632 85.771,172.956 86.269 C 173.279 86.768,173.625 87.526,173.726 87.953 C 173.826 88.381,174.171 89.197,174.493 89.767 C 174.815 90.337,175.206 91.421,175.363 92.176 C 175.520 92.931,175.821 93.884,176.033 94.294 C 176.245 94.704,176.596 96.126,176.813 97.455 C 177.030 98.783,177.391 100.803,177.615 101.943 C 178.062 104.222,178.007 109.351,177.508 111.917 C 177.355 112.701,177.052 114.479,176.834 115.868 C 176.616 117.258,176.201 118.913,175.913 119.546 C 175.625 120.179,175.389 120.918,175.389 121.189 C 175.389 121.460,175.166 122.311,174.894 123.082 C 174.623 123.852,174.202 125.065,173.960 125.777 C 173.717 126.490,173.240 127.626,172.899 128.303 C 172.559 128.980,172.280 129.687,172.280 129.873 C 172.280 130.060,171.872 131.041,171.373 132.053 C 170.874 133.065,170.466 134.018,170.466 134.169 C 170.466 134.321,170.188 135.059,169.848 135.810 C 168.921 137.857,167.684 141.202,167.475 142.228 C 167.374 142.727,167.032 143.721,166.716 144.438 C 166.400 145.154,166.057 146.203,165.954 146.769 C 165.852 147.335,165.499 148.556,165.171 149.482 C 164.843 150.408,164.494 151.865,164.394 152.720 C 164.294 153.575,163.986 155.052,163.708 156.002 C 162.282 160.879,162.290 174.363,163.721 178.886 C 163.992 179.741,164.292 180.951,164.389 181.575 C 164.486 182.199,164.784 183.082,165.053 183.537 C 165.322 183.992,165.703 184.901,165.900 185.557 C 166.098 186.213,166.506 187.097,166.808 187.521 C 167.110 187.945,167.358 188.368,167.358 188.461 C 167.358 188.708,169.218 191.750,169.958 192.714 C 170.914 193.958,176.409 199.505,177.562 200.392 C 179.430 201.826,181.734 203.367,182.011 203.368 C 182.162 203.368,182.534 203.599,182.838 203.882 C 183.141 204.165,183.892 204.591,184.506 204.829 C 185.120 205.067,185.805 205.418,186.028 205.608 C 186.252 205.798,187.121 206.190,187.959 206.478 C 188.796 206.767,189.546 207.091,189.624 207.199 C 189.864 207.528,195.595 209.297,197.798 209.721 C 198.938 209.940,200.512 210.315,201.295 210.554 C 203.460 211.213,216.958 211.214,218.653 210.555 C 219.294 210.305,220.955 209.871,222.345 209.590 C 223.734 209.309,225.133 208.912,225.454 208.707 C 225.774 208.502,226.561 208.186,227.202 208.005 C 227.843 207.824,228.834 207.363,229.404 206.982 C 229.974 206.601,230.703 206.206,231.023 206.106 C 231.344 206.006,231.606 205.822,231.606 205.697 C 231.606 205.572,232.055 205.201,232.603 204.872 C 233.633 204.254,235.492 202.709,235.492 202.471 C 235.492 202.397,235.900 201.802,236.399 201.148 C 236.898 200.495,237.306 199.845,237.306 199.705 C 237.306 199.565,237.626 198.787,238.018 197.976 C 238.674 196.620,238.731 196.255,238.731 193.394 C 238.731 190.489,238.684 190.200,238.018 188.992 C 237.626 188.280,237.306 187.480,237.306 187.213 C 237.306 186.704,235.262 183.463,234.588 182.904 C 234.373 182.725,234.197 182.447,234.197 182.286 C 234.197 182.125,233.789 181.419,233.290 180.718 C 232.791 180.016,232.383 179.306,232.383 179.140 C 232.383 178.973,232.153 178.628,231.872 178.374 C 231.591 178.119,231.287 177.664,231.196 177.362 C 231.106 177.060,230.708 176.289,230.311 175.648 C 229.914 175.006,229.502 174.190,229.395 173.834 C 229.288 173.478,228.925 172.826,228.590 172.385 C 228.254 171.944,227.979 171.348,227.979 171.061 C 227.979 170.774,227.645 169.911,227.236 169.143 C 226.827 168.375,226.404 167.338,226.297 166.839 C 226.190 166.341,225.839 165.408,225.517 164.767 C 225.196 164.126,224.850 162.886,224.750 162.011 C 224.649 161.137,224.411 160.120,224.219 159.751 C 222.923 157.252,222.836 145.444,224.093 142.617 C 224.347 142.047,224.639 141.056,224.742 140.415 C 224.846 139.773,225.267 138.608,225.677 137.824 C 226.088 137.040,226.424 136.235,226.424 136.035 C 226.425 135.835,226.706 135.302,227.050 134.851 C 227.394 134.400,227.800 133.573,227.953 133.013 C 228.107 132.453,228.453 131.635,228.723 131.196 C 228.993 130.757,229.299 129.999,229.402 129.512 C 229.505 129.025,229.864 128.071,230.201 127.392 C 230.537 126.712,230.891 125.546,230.986 124.801 C 231.082 124.055,231.445 122.647,231.793 121.671 C 232.141 120.695,232.482 119.238,232.550 118.433 C 232.669 117.039,232.947 115.520,233.721 112.047 C 234.372 109.126,234.178 93.341,233.462 90.933 C 233.144 89.864,232.769 88.095,232.628 87.002 C 232.488 85.909,232.144 84.500,231.866 83.870 C 231.587 83.240,231.226 82.103,231.063 81.343 C 230.900 80.584,230.546 79.603,230.277 79.165 C 230.007 78.727,229.666 77.928,229.519 77.391 C 229.372 76.854,228.965 75.992,228.616 75.477 C 228.266 74.961,227.979 74.428,227.979 74.291 C 227.979 74.155,227.310 73.035,226.493 71.802 C 225.675 70.568,224.880 69.326,224.726 69.041 C 224.450 68.530,223.009 66.859,221.244 65.002 C 219.253 62.909,212.538 57.513,211.924 57.513 C 211.788 57.513,211.293 57.181,210.825 56.775 C 210.357 56.369,209.651 55.958,209.255 55.861 C 208.860 55.765,208.335 55.485,208.089 55.239 C 207.519 54.670,203.811 52.853,203.190 52.839 C 202.931 52.834,202.079 52.484,201.295 52.062 C 200.512 51.641,199.579 51.293,199.223 51.289 C 198.867 51.286,197.876 50.990,197.021 50.633 C 196.166 50.275,194.528 49.871,193.381 49.735 C 192.233 49.599,190.673 49.370,189.913 49.226 C 188.526 48.963,178.957 48.850,178.713 49.094 M280.052 49.388 C 278.698 49.593,277.066 49.944,276.425 50.168 C 275.784 50.393,274.560 50.820,273.705 51.119 C 272.850 51.417,271.993 51.815,271.802 52.003 C 271.610 52.190,271.089 52.532,270.644 52.762 C 269.815 53.191,268.000 54.788,266.308 56.578 C 264.537 58.452,263.653 62.794,264.588 65.026 C 264.797 65.525,265.048 66.418,265.145 67.011 C 265.243 67.603,265.543 68.288,265.812 68.532 C 266.081 68.775,266.437 69.398,266.603 69.915 C 266.768 70.432,267.159 71.205,267.470 71.632 C 267.782 72.060,268.190 72.788,268.376 73.251 C 268.563 73.714,268.816 74.093,268.938 74.093 C 269.060 74.093,269.387 74.538,269.665 75.082 C 269.942 75.626,270.354 76.224,270.580 76.412 C 270.806 76.599,271.203 77.232,271.464 77.819 C 271.724 78.406,272.130 79.046,272.367 79.242 C 272.604 79.437,272.798 79.740,272.798 79.915 C 272.798 80.090,273.133 80.696,273.543 81.261 C 273.952 81.827,274.374 82.573,274.479 82.919 C 274.585 83.266,274.877 83.782,275.128 84.067 C 275.380 84.352,275.740 85.052,275.929 85.622 C 276.117 86.192,276.464 86.891,276.698 87.176 C 276.932 87.461,277.329 88.446,277.580 89.365 C 277.830 90.284,278.185 91.275,278.367 91.567 C 278.550 91.859,278.842 92.740,279.016 93.523 C 279.190 94.307,279.512 95.464,279.731 96.095 C 281.176 100.252,281.249 115.215,279.832 116.921 C 279.683 117.101,279.439 118.010,279.291 118.942 C 279.019 120.642,278.582 122.186,278.237 122.668 C 278.135 122.811,277.800 123.767,277.494 124.793 C 277.187 125.818,276.829 126.724,276.697 126.805 C 276.566 126.886,276.266 127.621,276.030 128.437 C 275.795 129.254,275.392 130.272,275.135 130.699 C 274.878 131.127,274.586 131.863,274.486 132.335 C 274.386 132.806,274.025 133.681,273.684 134.278 C 273.342 134.874,273.062 135.538,273.060 135.751 C 273.058 135.965,272.712 136.867,272.292 137.756 C 271.871 138.646,271.446 139.811,271.348 140.347 C 271.249 140.883,270.905 141.904,270.582 142.617 C 270.259 143.329,269.908 144.373,269.803 144.937 C 269.697 145.501,269.348 146.550,269.025 147.269 C 268.703 147.987,268.361 149.216,268.265 150.000 C 268.170 150.784,267.818 152.307,267.484 153.386 C 267.142 154.493,266.797 156.467,266.691 157.919 C 266.589 159.334,266.347 160.944,266.154 161.496 C 265.580 163.139,265.685 171.701,266.324 175.355 C 266.607 176.975,266.839 178.586,266.839 178.933 C 266.839 179.281,267.118 180.171,267.459 180.910 C 267.800 181.649,268.159 182.720,268.256 183.290 C 268.353 183.860,268.700 184.793,269.028 185.363 C 269.355 185.933,269.703 186.659,269.801 186.977 C 270.018 187.679,271.598 190.394,272.103 190.933 C 272.303 191.146,272.611 191.597,272.788 191.935 C 273.967 194.193,277.483 197.904,280.550 200.130 C 281.729 200.984,283.061 201.983,283.510 202.349 C 283.959 202.715,284.734 203.173,285.233 203.366 C 285.732 203.559,286.330 203.910,286.562 204.146 C 286.794 204.382,287.377 204.732,287.857 204.925 C 288.338 205.118,289.009 205.488,289.348 205.747 C 289.688 206.006,290.155 206.219,290.385 206.221 C 290.615 206.223,291.459 206.557,292.260 206.963 C 293.061 207.370,294.168 207.787,294.721 207.890 C 295.273 207.994,296.366 208.345,297.150 208.670 C 297.934 208.995,299.041 209.341,299.611 209.439 C 300.181 209.538,301.872 209.923,303.368 210.296 C 305.959 210.942,306.427 210.975,313.212 210.992 L 320.337 211.010 324.223 210.009 C 326.360 209.458,328.225 208.922,328.368 208.817 C 328.510 208.712,329.268 208.406,330.052 208.137 C 330.835 207.868,331.995 207.326,332.628 206.933 C 333.262 206.539,333.873 206.218,333.986 206.218 C 335.199 206.218,340.747 200.344,341.083 198.705 C 341.156 198.348,341.395 197.415,341.614 196.631 C 342.355 193.979,341.744 189.260,340.369 187.018 C 339.967 186.361,339.637 185.707,339.637 185.564 C 339.637 185.421,339.303 184.884,338.895 184.370 C 338.487 183.856,338.006 183.083,337.827 182.651 C 337.648 182.219,337.394 181.865,337.261 181.865 C 337.129 181.865,336.847 181.450,336.634 180.942 C 336.422 180.434,335.904 179.542,335.482 178.960 C 335.060 178.378,334.715 177.762,334.715 177.592 C 334.715 177.422,334.486 177.075,334.207 176.822 C 333.927 176.569,333.560 175.939,333.391 175.422 C 333.222 174.905,332.809 174.076,332.474 173.580 C 332.139 173.084,331.865 172.546,331.865 172.386 C 331.865 172.225,331.531 171.465,331.122 170.697 C 330.713 169.929,330.295 168.919,330.193 168.452 C 330.091 167.985,329.740 167.110,329.413 166.509 C 329.085 165.907,328.747 164.937,328.661 164.354 C 328.575 163.771,328.253 162.726,327.946 162.033 C 326.137 157.941,326.137 144.127,327.946 140.338 C 328.233 139.739,328.548 138.899,328.648 138.472 C 328.747 138.044,329.161 137.053,329.569 136.269 C 329.976 135.486,330.310 134.681,330.310 134.480 C 330.311 134.280,330.592 133.748,330.936 133.297 C 331.280 132.846,331.686 132.019,331.839 131.459 C 331.993 130.899,332.345 130.071,332.622 129.620 C 332.899 129.169,333.246 128.154,333.392 127.364 C 333.538 126.575,333.899 125.455,334.194 124.877 C 334.489 124.298,334.831 123.040,334.954 122.081 C 335.077 121.122,335.417 119.637,335.709 118.782 C 336.331 116.958,337.691 104.710,337.607 101.684 C 337.556 99.835,337.053 93.484,336.943 93.307 C 336.870 93.189,336.678 91.763,336.515 90.138 C 336.353 88.514,336.070 86.891,335.886 86.533 C 335.703 86.174,335.356 85.006,335.117 83.938 C 334.877 82.869,334.397 81.380,334.050 80.629 C 333.703 79.878,333.420 79.107,333.420 78.917 C 333.420 78.726,333.070 77.915,332.642 77.114 C 332.215 76.313,331.865 75.509,331.865 75.328 C 331.865 75.147,331.457 74.424,330.959 73.723 C 330.460 73.022,330.052 72.314,330.052 72.150 C 330.052 71.986,329.760 71.578,329.404 71.244 C 329.048 70.909,328.756 70.489,328.756 70.310 C 328.756 70.131,328.588 69.817,328.383 69.611 C 328.177 69.406,327.737 68.837,327.405 68.347 C 326.711 67.325,326.183 66.733,323.802 64.311 C 321.962 62.439,321.190 61.784,319.560 60.713 C 318.990 60.339,318.348 59.876,318.135 59.686 C 316.957 58.637,315.810 57.790,314.832 57.249 C 314.226 56.914,313.731 56.545,313.731 56.429 C 313.731 56.313,313.579 56.218,313.395 56.218 C 313.210 56.218,312.423 55.813,311.646 55.318 C 310.869 54.822,310.056 54.414,309.840 54.411 C 309.624 54.407,309.006 54.105,308.468 53.739 C 307.929 53.373,306.891 52.896,306.161 52.679 C 305.430 52.462,304.591 52.128,304.295 51.937 C 303.999 51.746,302.965 51.407,301.998 51.184 C 301.030 50.962,299.899 50.605,299.485 50.390 C 297.262 49.241,285.154 48.617,280.052 49.388 " stroke="none" fill="#05ac55" fill-rule="evenodd"></path><path id="path1" d="M0.000 129.534 L 0.000 259.067 200.000 259.067 L 400.000 259.067 400.000 129.534 L 400.000 0.000 200.000 0.000 L 0.000 0.000 0.000 129.534 M89.586 49.564 C 91.196 49.804,92.853 50.176,93.267 50.390 C 93.682 50.605,94.812 50.962,95.780 51.184 C 96.747 51.407,97.781 51.746,98.077 51.937 C 98.373 52.128,99.213 52.462,99.943 52.679 C 100.674 52.896,101.712 53.373,102.250 53.739 C 102.789 54.105,103.406 54.405,103.622 54.405 C 103.839 54.406,104.540 54.755,105.181 55.181 C 105.823 55.608,106.454 55.957,106.585 55.957 C 106.948 55.959,111.289 58.954,113.404 60.662 C 114.436 61.495,115.335 62.176,115.404 62.176 C 115.605 62.176,120.984 67.643,120.984 67.849 C 120.984 67.952,121.192 68.263,121.446 68.539 C 121.700 68.815,122.191 69.508,122.537 70.078 C 122.884 70.648,123.333 71.284,123.537 71.492 C 123.740 71.700,124.060 72.225,124.248 72.658 C 124.436 73.091,124.827 73.795,125.117 74.223 C 125.407 74.650,125.645 75.148,125.646 75.329 C 125.647 75.510,125.934 76.112,126.285 76.668 C 126.636 77.223,127.002 78.007,127.099 78.411 C 127.197 78.815,127.541 79.676,127.866 80.325 C 128.190 80.974,128.532 81.965,128.627 82.527 C 128.722 83.089,129.076 84.424,129.414 85.492 C 130.825 89.951,132.007 102.577,131.379 106.477 C 131.230 107.403,130.921 109.734,130.694 111.658 C 130.130 116.422,129.872 118.018,129.395 119.689 C 129.171 120.473,128.877 121.771,128.742 122.573 C 128.607 123.376,128.221 124.658,127.886 125.423 C 127.550 126.188,127.191 127.276,127.087 127.842 C 126.983 128.407,126.631 129.340,126.304 129.914 C 125.978 130.489,125.639 131.347,125.552 131.822 C 125.464 132.297,125.178 132.997,124.916 133.377 C 124.653 133.757,124.234 134.592,123.985 135.233 C 123.736 135.874,123.384 136.574,123.204 136.788 C 123.024 137.001,122.725 137.759,122.540 138.472 C 122.355 139.184,121.999 140.233,121.749 140.803 C 121.499 141.373,121.159 142.772,120.994 143.912 C 120.828 145.052,120.583 146.547,120.450 147.235 C 120.127 148.897,120.142 152.437,120.481 154.743 C 121.229 159.829,121.532 161.511,121.748 161.771 C 121.878 161.928,122.183 162.870,122.424 163.865 C 122.666 164.860,123.006 165.907,123.180 166.192 C 123.353 166.477,123.707 167.351,123.966 168.135 C 124.225 168.918,124.709 170.072,125.042 170.699 C 125.375 171.326,125.648 172.025,125.649 172.254 C 125.649 172.482,125.999 173.193,126.425 173.834 C 126.851 174.475,127.200 175.106,127.201 175.235 C 127.202 175.364,127.477 175.830,127.812 176.271 C 128.148 176.712,128.512 177.356,128.622 177.702 C 128.732 178.049,129.156 178.795,129.566 179.360 C 129.976 179.926,130.311 180.528,130.311 180.698 C 130.311 180.868,130.557 181.230,130.857 181.501 C 131.158 181.773,131.632 182.479,131.911 183.071 C 132.189 183.663,132.643 184.351,132.918 184.601 C 133.194 184.850,133.420 185.171,133.420 185.314 C 133.420 185.456,133.696 185.935,134.034 186.379 C 134.372 186.822,134.893 188.127,135.192 189.279 C 135.491 190.432,135.855 191.690,136.002 192.077 C 136.434 193.212,136.312 194.724,135.660 196.329 C 135.324 197.155,134.973 198.241,134.879 198.744 C 134.784 199.247,134.417 199.930,134.063 200.263 C 133.709 200.595,133.420 201.003,133.420 201.168 C 133.420 201.334,132.622 202.217,131.647 203.131 C 129.157 205.465,128.517 205.965,127.334 206.500 C 126.763 206.759,126.004 207.146,125.648 207.361 C 124.717 207.922,121.350 209.326,120.936 209.326 C 120.744 209.326,119.189 209.698,117.482 210.152 L 114.378 210.978 107.383 210.968 C 101.972 210.960,99.978 210.865,98.575 210.548 C 97.578 210.323,95.608 209.892,94.197 209.590 C 92.787 209.288,91.318 208.878,90.934 208.679 C 90.549 208.480,89.662 208.176,88.964 208.002 C 88.266 207.829,87.053 207.368,86.269 206.979 C 85.486 206.589,84.474 206.193,84.020 206.098 C 83.567 206.003,83.063 205.764,82.899 205.567 C 82.735 205.370,82.086 205.012,81.456 204.771 C 80.826 204.531,80.311 204.238,80.311 204.122 C 80.311 204.006,79.874 203.705,79.339 203.453 C 78.411 203.016,76.724 201.858,75.431 200.769 C 75.099 200.488,74.721 200.259,74.591 200.259 C 74.340 200.259,70.138 196.650,69.990 196.307 C 69.941 196.195,69.300 195.377,68.565 194.490 C 66.604 192.120,65.758 190.953,65.235 189.896 C 65.058 189.540,64.661 188.899,64.352 188.472 C 64.043 188.044,63.707 187.403,63.605 187.047 C 63.503 186.690,63.082 185.710,62.668 184.868 C 62.255 184.026,61.916 183.035,61.916 182.666 C 61.915 182.297,61.732 181.645,61.509 181.218 C 60.957 180.160,60.371 177.579,60.367 176.186 C 60.364 175.556,60.182 174.074,59.960 172.893 C 59.286 169.292,59.713 161.706,60.922 155.829 C 62.184 149.698,62.465 148.506,62.944 147.280 C 63.222 146.567,63.527 145.518,63.622 144.948 C 63.717 144.378,64.057 143.329,64.376 142.617 C 64.696 141.904,65.046 140.913,65.153 140.415 C 65.261 139.916,65.612 138.983,65.933 138.342 C 66.254 137.701,66.604 136.771,66.711 136.276 C 66.818 135.781,67.174 134.951,67.502 134.432 C 67.830 133.912,68.179 133.060,68.277 132.538 C 68.375 132.016,68.720 131.197,69.045 130.719 C 69.370 130.240,69.720 129.457,69.824 128.979 C 69.927 128.500,70.275 127.584,70.596 126.943 C 70.917 126.302,71.267 125.369,71.373 124.870 C 71.479 124.372,71.790 123.522,72.063 122.981 C 72.337 122.441,72.678 121.334,72.822 120.520 C 72.966 119.707,73.375 118.148,73.732 117.055 C 74.307 115.295,74.814 110.622,74.893 106.347 C 74.944 103.624,74.268 97.839,73.713 96.244 C 73.366 95.246,73.007 93.905,72.915 93.264 C 72.823 92.623,72.482 91.632,72.157 91.062 C 71.832 90.492,71.482 89.618,71.381 89.119 C 71.279 88.620,70.923 87.790,70.590 87.273 C 70.257 86.757,69.905 85.916,69.809 85.404 C 69.713 84.893,69.460 84.329,69.246 84.152 C 69.032 83.974,68.578 83.241,68.236 82.523 C 67.604 81.195,66.699 79.787,65.927 78.928 C 65.691 78.666,65.343 78.083,65.153 77.633 C 64.963 77.182,64.565 76.556,64.269 76.241 C 63.973 75.927,63.731 75.589,63.731 75.491 C 63.731 75.393,63.323 74.698,62.824 73.947 C 62.325 73.195,61.917 72.473,61.917 72.341 C 61.917 72.209,61.695 71.900,61.423 71.654 C 61.151 71.407,60.784 70.836,60.609 70.383 C 60.433 69.930,60.017 69.150,59.685 68.648 C 58.022 66.141,57.791 60.188,59.264 57.772 C 60.051 56.481,63.623 53.112,64.767 52.582 C 65.408 52.285,66.224 51.884,66.580 51.690 C 71.190 49.180,80.955 48.278,89.586 49.564 M189.913 49.226 C 190.673 49.370,192.233 49.599,193.381 49.735 C 194.528 49.871,196.166 50.275,197.021 50.633 C 197.876 50.990,198.867 51.286,199.223 51.289 C 199.579 51.293,200.512 51.641,201.295 52.062 C 202.079 52.484,202.931 52.834,203.190 52.839 C 203.811 52.853,207.519 54.670,208.089 55.239 C 208.335 55.485,208.860 55.765,209.255 55.861 C 209.651 55.958,210.357 56.369,210.825 56.775 C 211.293 57.181,211.788 57.513,211.924 57.513 C 212.538 57.513,219.253 62.909,221.244 65.002 C 223.009 66.859,224.450 68.530,224.726 69.041 C 224.880 69.326,225.675 70.568,226.493 71.802 C 227.310 73.035,227.979 74.155,227.979 74.291 C 227.979 74.428,228.266 74.961,228.616 75.477 C 228.965 75.992,229.372 76.854,229.519 77.391 C 229.666 77.928,230.007 78.727,230.277 79.165 C 230.546 79.603,230.900 80.584,231.063 81.343 C 231.226 82.103,231.587 83.240,231.866 83.870 C 232.144 84.500,232.488 85.909,232.628 87.002 C 232.769 88.095,233.144 89.864,233.462 90.933 C 234.178 93.341,234.372 109.126,233.721 112.047 C 232.947 115.520,232.669 117.039,232.550 118.433 C 232.482 119.238,232.141 120.695,231.793 121.671 C 231.445 122.647,231.082 124.055,230.986 124.801 C 230.891 125.546,230.537 126.712,230.201 127.392 C 229.864 128.071,229.505 129.025,229.402 129.512 C 229.299 129.999,228.993 130.757,228.723 131.196 C 228.453 131.635,228.107 132.453,227.953 133.013 C 227.800 133.573,227.394 134.400,227.050 134.851 C 226.706 135.302,226.425 135.835,226.424 136.035 C 226.424 136.235,226.088 137.040,225.677 137.824 C 225.267 138.608,224.846 139.773,224.742 140.415 C 224.639 141.056,224.347 142.047,224.093 142.617 C 222.836 145.444,222.923 157.252,224.219 159.751 C 224.411 160.120,224.649 161.137,224.750 162.011 C 224.850 162.886,225.196 164.126,225.517 164.767 C 225.839 165.408,226.190 166.341,226.297 166.839 C 226.404 167.338,226.827 168.375,227.236 169.143 C 227.645 169.911,227.979 170.774,227.979 171.061 C 227.979 171.348,228.254 171.944,228.590 172.385 C 228.925 172.826,229.288 173.478,229.395 173.834 C 229.502 174.190,229.914 175.006,230.311 175.648 C 230.708 176.289,231.106 177.060,231.196 177.362 C 231.287 177.664,231.591 178.119,231.872 178.374 C 232.153 178.628,232.383 178.973,232.383 179.140 C 232.383 179.306,232.791 180.016,233.290 180.718 C 233.789 181.419,234.197 182.125,234.197 182.286 C 234.197 182.447,234.373 182.725,234.588 182.904 C 235.262 183.463,237.306 186.704,237.306 187.213 C 237.306 187.480,237.626 188.280,238.018 188.992 C 238.684 190.200,238.731 190.489,238.731 193.394 C 238.731 196.255,238.674 196.620,238.018 197.976 C 237.626 198.787,237.306 199.565,237.306 199.705 C 237.306 199.845,236.898 200.495,236.399 201.148 C 235.900 201.802,235.492 202.397,235.492 202.471 C 235.492 202.709,233.633 204.254,232.603 204.872 C 232.055 205.201,231.606 205.572,231.606 205.697 C 231.606 205.822,231.344 206.006,231.023 206.106 C 230.703 206.206,229.974 206.601,229.404 206.982 C 228.834 207.363,227.843 207.824,227.202 208.005 C 226.561 208.186,225.774 208.502,225.454 208.707 C 225.133 208.912,223.734 209.309,222.345 209.590 C 220.955 209.871,219.294 210.305,218.653 210.555 C 216.958 211.214,203.460 211.213,201.295 210.554 C 200.512 210.315,198.938 209.940,197.798 209.721 C 195.595 209.297,189.864 207.528,189.624 207.199 C 189.546 207.091,188.796 206.767,187.959 206.478 C 187.121 206.190,186.252 205.798,186.028 205.608 C 185.805 205.418,185.120 205.067,184.506 204.829 C 183.892 204.591,183.141 204.165,182.838 203.882 C 182.534 203.599,182.162 203.368,182.011 203.368 C 181.734 203.367,179.430 201.826,177.562 200.392 C 176.409 199.505,170.914 193.958,169.958 192.714 C 169.218 191.750,167.358 188.708,167.358 188.461 C 167.358 188.368,167.110 187.945,166.808 187.521 C 166.506 187.097,166.098 186.213,165.900 185.557 C 165.703 184.901,165.322 183.992,165.053 183.537 C 164.784 183.082,164.486 182.199,164.389 181.575 C 164.292 180.951,163.992 179.741,163.721 178.886 C 162.290 174.363,162.282 160.879,163.708 156.002 C 163.986 155.052,164.294 153.575,164.394 152.720 C 164.494 151.865,164.843 150.408,165.171 149.482 C 165.499 148.556,165.852 147.335,165.954 146.769 C 166.057 146.203,166.400 145.154,166.716 144.438 C 167.032 143.721,167.374 142.727,167.475 142.228 C 167.684 141.202,168.921 137.857,169.848 135.810 C 170.188 135.059,170.466 134.321,170.466 134.169 C 170.466 134.018,170.874 133.065,171.373 132.053 C 171.872 131.041,172.280 130.060,172.280 129.873 C 172.280 129.687,172.559 128.980,172.899 128.303 C 173.240 127.626,173.717 126.490,173.960 125.777 C 174.202 125.065,174.623 123.852,174.894 123.082 C 175.166 122.311,175.389 121.460,175.389 121.189 C 175.389 120.918,175.625 120.179,175.913 119.546 C 176.201 118.913,176.616 117.258,176.834 115.868 C 177.052 114.479,177.355 112.701,177.508 111.917 C 178.007 109.351,178.062 104.222,177.615 101.943 C 177.391 100.803,177.030 98.783,176.813 97.455 C 176.596 96.126,176.245 94.704,176.033 94.294 C 175.821 93.884,175.520 92.931,175.363 92.176 C 175.206 91.421,174.815 90.337,174.493 89.767 C 174.171 89.197,173.826 88.381,173.726 87.953 C 173.625 87.526,173.279 86.768,172.956 86.269 C 172.632 85.771,172.236 84.979,172.074 84.509 C 171.913 84.040,171.551 83.333,171.270 82.939 C 170.990 82.545,170.680 81.906,170.583 81.520 C 170.486 81.133,170.188 80.663,169.919 80.475 C 169.651 80.287,169.299 79.736,169.136 79.251 C 168.973 78.765,168.631 78.135,168.376 77.850 C 167.693 77.087,165.804 74.259,165.804 73.998 C 165.803 73.874,165.453 73.375,165.026 72.888 C 164.598 72.401,164.249 71.882,164.249 71.735 C 164.249 71.588,163.957 71.086,163.601 70.619 C 163.245 70.152,162.953 69.673,162.953 69.556 C 162.953 69.438,162.582 68.580,162.129 67.648 C 160.811 64.945,160.848 57.772,162.180 57.772 C 162.301 57.772,162.479 57.523,162.576 57.220 C 162.820 56.449,166.587 52.850,167.149 52.850 C 167.308 52.850,167.799 52.576,168.240 52.242 C 168.681 51.908,169.683 51.428,170.466 51.176 C 171.250 50.924,172.149 50.557,172.463 50.360 C 172.778 50.163,174.284 49.827,175.809 49.613 C 177.335 49.399,178.642 49.165,178.713 49.094 C 178.957 48.850,188.526 48.963,189.913 49.226 M295.804 49.564 C 297.414 49.804,299.071 50.176,299.485 50.390 C 299.899 50.605,301.030 50.962,301.998 51.184 C 302.965 51.407,303.999 51.746,304.295 51.937 C 304.591 52.128,305.430 52.462,306.161 52.679 C 306.891 52.896,307.929 53.373,308.468 53.739 C 309.006 54.105,309.624 54.407,309.840 54.411 C 310.056 54.414,310.869 54.822,311.646 55.318 C 312.423 55.813,313.210 56.218,313.395 56.218 C 313.579 56.218,313.731 56.313,313.731 56.429 C 313.731 56.545,314.226 56.914,314.832 57.249 C 315.810 57.790,316.957 58.637,318.135 59.686 C 318.348 59.876,318.990 60.339,319.560 60.713 C 321.190 61.784,321.962 62.439,323.802 64.311 C 326.183 66.733,326.711 67.325,327.405 68.347 C 327.737 68.837,328.177 69.406,328.383 69.611 C 328.588 69.817,328.756 70.131,328.756 70.310 C 328.756 70.489,329.048 70.909,329.404 71.244 C 329.760 71.578,330.052 71.986,330.052 72.150 C 330.052 72.314,330.460 73.022,330.959 73.723 C 331.457 74.424,331.865 75.147,331.865 75.328 C 331.865 75.509,332.215 76.313,332.642 77.114 C 333.070 77.915,333.420 78.726,333.420 78.917 C 333.420 79.107,333.703 79.878,334.050 80.629 C 334.397 81.380,334.877 82.869,335.117 83.938 C 335.356 85.006,335.703 86.174,335.886 86.533 C 336.070 86.891,336.353 88.514,336.515 90.138 C 336.678 91.763,336.870 93.189,336.943 93.307 C 337.053 93.484,337.556 99.835,337.607 101.684 C 337.691 104.710,336.331 116.958,335.709 118.782 C 335.417 119.637,335.077 121.122,334.954 122.081 C 334.831 123.040,334.489 124.298,334.194 124.877 C 333.899 125.455,333.538 126.575,333.392 127.364 C 333.246 128.154,332.899 129.169,332.622 129.620 C 332.345 130.071,331.993 130.899,331.839 131.459 C 331.686 132.019,331.280 132.846,330.936 133.297 C 330.592 133.748,330.311 134.280,330.310 134.480 C 330.310 134.681,329.976 135.486,329.569 136.269 C 329.161 137.053,328.747 138.044,328.648 138.472 C 328.548 138.899,328.233 139.739,327.946 140.338 C 326.137 144.127,326.137 157.941,327.946 162.033 C 328.253 162.726,328.575 163.771,328.661 164.354 C 328.747 164.937,329.085 165.907,329.413 166.509 C 329.740 167.110,330.091 167.985,330.193 168.452 C 330.295 168.919,330.713 169.929,331.122 170.697 C 331.531 171.465,331.865 172.225,331.865 172.386 C 331.865 172.546,332.139 173.084,332.474 173.580 C 332.809 174.076,333.222 174.905,333.391 175.422 C 333.560 175.939,333.927 176.569,334.207 176.822 C 334.486 177.075,334.715 177.422,334.715 177.592 C 334.715 177.762,335.060 178.378,335.482 178.960 C 335.904 179.542,336.422 180.434,336.634 180.942 C 336.847 181.450,337.129 181.865,337.261 181.865 C 337.394 181.865,337.648 182.219,337.827 182.651 C 338.006 183.083,338.487 183.856,338.895 184.370 C 339.303 184.884,339.637 185.421,339.637 185.564 C 339.637 185.707,339.967 186.361,340.369 187.018 C 341.744 189.260,342.355 193.979,341.614 196.631 C 341.395 197.415,341.156 198.348,341.083 198.705 C 340.747 200.344,335.199 206.218,333.986 206.218 C 333.873 206.218,333.262 206.539,332.628 206.933 C 331.995 207.326,330.835 207.868,330.052 208.137 C 329.268 208.406,328.510 208.712,328.368 208.817 C 328.225 208.922,326.360 209.458,324.223 210.009 L 320.337 211.010 313.212 210.992 C 306.427 210.975,305.959 210.942,303.368 210.296 C 301.872 209.923,300.181 209.538,299.611 209.439 C 299.041 209.341,297.934 208.995,297.150 208.670 C 296.366 208.345,295.273 207.994,294.721 207.890 C 294.168 207.787,293.061 207.370,292.260 206.963 C 291.459 206.557,290.615 206.223,290.385 206.221 C 290.155 206.219,289.688 206.006,289.348 205.747 C 289.009 205.488,288.338 205.118,287.857 204.925 C 287.377 204.732,286.794 204.382,286.562 204.146 C 286.330 203.910,285.732 203.559,285.233 203.366 C 284.734 203.173,283.959 202.715,283.510 202.349 C 283.061 201.983,281.729 200.984,280.550 200.130 C 277.483 197.904,273.967 194.193,272.788 191.935 C 272.611 191.597,272.303 191.146,272.103 190.933 C 271.598 190.394,270.018 187.679,269.801 186.977 C 269.703 186.659,269.355 185.933,269.028 185.363 C 268.700 184.793,268.353 183.860,268.256 183.290 C 268.159 182.720,267.800 181.649,267.459 180.910 C 267.118 180.171,266.839 179.281,266.839 178.933 C 266.839 178.586,266.607 176.975,266.324 175.355 C 265.685 171.701,265.580 163.139,266.154 161.496 C 266.347 160.944,266.589 159.334,266.691 157.919 C 266.797 156.467,267.142 154.493,267.484 153.386 C 267.818 152.307,268.170 150.784,268.265 150.000 C 268.361 149.216,268.703 147.987,269.025 147.269 C 269.348 146.550,269.697 145.501,269.803 144.937 C 269.908 144.373,270.259 143.329,270.582 142.617 C 270.905 141.904,271.249 140.883,271.348 140.347 C 271.446 139.811,271.871 138.646,272.292 137.756 C 272.712 136.867,273.058 135.965,273.060 135.751 C 273.062 135.538,273.342 134.874,273.684 134.278 C 274.025 133.681,274.386 132.806,274.486 132.335 C 274.586 131.863,274.878 131.127,275.135 130.699 C 275.392 130.272,275.795 129.254,276.030 128.437 C 276.266 127.621,276.566 126.886,276.697 126.805 C 276.829 126.724,277.187 125.818,277.494 124.793 C 277.800 123.767,278.135 122.811,278.237 122.668 C 278.582 122.186,279.019 120.642,279.291 118.942 C 279.439 118.010,279.683 117.101,279.832 116.921 C 281.249 115.215,281.176 100.252,279.731 96.095 C 279.512 95.464,279.190 94.307,279.016 93.523 C 278.842 92.740,278.550 91.859,278.367 91.567 C 278.185 91.275,277.830 90.284,277.580 89.365 C 277.329 88.446,276.932 87.461,276.698 87.176 C 276.464 86.891,276.117 86.192,275.929 85.622 C 275.740 85.052,275.380 84.352,275.128 84.067 C 274.877 83.782,274.585 83.266,274.479 82.919 C 274.374 82.573,273.952 81.827,273.543 81.261 C 273.133 80.696,272.798 80.090,272.798 79.915 C 272.798 79.740,272.604 79.437,272.367 79.242 C 272.130 79.046,271.724 78.406,271.464 77.819 C 271.203 77.232,270.806 76.599,270.580 76.412 C 270.354 76.224,269.942 75.626,269.665 75.082 C 269.387 74.538,269.060 74.093,268.938 74.093 C 268.816 74.093,268.563 73.714,268.376 73.251 C 268.190 72.788,267.782 72.060,267.470 71.632 C 267.159 71.205,266.768 70.432,266.603 69.915 C 266.437 69.398,266.081 68.775,265.812 68.532 C 265.543 68.288,265.243 67.603,265.145 67.011 C 265.048 66.418,264.797 65.525,264.588 65.026 C 263.653 62.794,264.537 58.452,266.308 56.578 C 268.000 54.788,269.815 53.191,270.644 52.762 C 271.089 52.532,271.610 52.190,271.802 52.003 C 271.993 51.815,272.850 51.417,273.705 51.119 C 274.560 50.820,275.784 50.393,276.425 50.168 C 279.853 48.970,289.744 48.661,295.804 49.564 " stroke="none" fill="#fcfcfc" fill-rule="evenodd"></path></g></svg>