<svg id="svg" version="1.1" xmlns="http://www.w3.org/2000/svg" xmlns:xlink="http://www.w3.org/1999/xlink" width="400" height="258.91472868217056" viewBox="0, 0, 400,258.91472868217056"><g id="svgg"><path id="path0" d="M80.829 42.380 C 80.615 42.437,79.449 42.589,78.238 42.720 C 74.598 43.113,69.585 44.057,69.171 44.427 C 68.957 44.619,68.025 44.967,67.098 45.201 C 66.172 45.436,65.296 45.780,65.152 45.966 C 65.008 46.152,64.337 46.556,63.662 46.863 C 62.987 47.171,62.435 47.516,62.435 47.631 C 62.435 47.746,62.126 48.005,61.747 48.208 C 60.914 48.653,57.772 51.680,57.772 52.037 C 57.772 52.177,57.490 52.627,57.145 53.037 C 56.469 53.840,55.817 56.002,55.558 58.290 C 55.391 59.775,56.263 65.504,56.700 65.788 C 57.007 65.987,57.664 67.340,57.868 68.190 C 57.961 68.577,58.327 69.184,58.681 69.539 C 59.036 69.893,59.326 70.343,59.326 70.537 C 59.326 70.732,59.666 71.271,60.081 71.736 C 60.496 72.201,60.912 72.885,61.005 73.256 C 61.098 73.628,61.347 74.058,61.559 74.213 C 61.960 74.506,62.717 75.686,63.851 77.785 C 64.217 78.462,64.615 79.016,64.736 79.016 C 64.857 79.016,65.164 79.569,65.420 80.246 C 65.675 80.923,66.023 81.560,66.193 81.662 C 66.364 81.764,66.714 82.406,66.971 83.087 C 67.228 83.769,67.637 84.583,67.879 84.897 C 68.121 85.211,68.471 86.027,68.655 86.711 C 68.840 87.394,69.156 88.147,69.359 88.384 C 69.562 88.620,69.904 89.669,70.119 90.715 C 70.334 91.761,70.690 92.817,70.910 93.062 C 72.297 94.609,72.279 112.142,70.888 114.301 C 70.677 114.629,70.330 115.752,70.116 116.798 C 69.902 117.844,69.557 118.893,69.349 119.129 C 69.141 119.366,68.792 120.356,68.574 121.330 C 68.355 122.303,68.002 123.294,67.789 123.532 C 67.577 123.769,67.226 124.645,67.010 125.478 C 66.794 126.310,66.426 127.202,66.193 127.459 C 65.961 127.717,65.610 128.534,65.415 129.275 C 65.219 130.016,64.896 130.814,64.697 131.049 C 64.246 131.580,63.818 132.737,63.614 133.978 C 63.528 134.498,63.292 134.987,63.090 135.065 C 62.888 135.143,62.648 135.649,62.558 136.191 C 62.317 137.624,61.664 139.591,61.398 139.686 C 61.271 139.730,61.039 140.583,60.883 141.580 C 60.726 142.578,60.358 143.892,60.066 144.500 C 59.773 145.109,59.443 146.333,59.331 147.221 C 59.093 149.113,58.602 151.039,58.248 151.472 C 57.063 152.918,57.170 175.345,58.370 177.240 C 58.583 177.575,58.951 178.724,59.189 179.792 C 59.426 180.860,59.773 181.909,59.958 182.123 C 60.144 182.338,60.503 183.154,60.755 183.938 C 61.008 184.722,61.363 185.451,61.545 185.558 C 61.728 185.666,62.074 186.366,62.316 187.113 C 62.558 187.860,62.961 188.646,63.213 188.860 C 63.464 189.074,63.816 189.540,63.995 189.896 C 64.174 190.253,64.482 190.719,64.679 190.933 C 64.876 191.146,65.589 192.079,66.263 193.005 C 67.979 195.365,72.069 199.232,73.769 200.101 C 74.233 200.338,74.611 200.651,74.611 200.797 C 74.611 200.944,74.964 201.186,75.394 201.336 C 75.825 201.486,76.290 201.820,76.428 202.079 C 76.567 202.338,77.118 202.689,77.653 202.860 C 78.189 203.031,78.918 203.436,79.275 203.760 C 79.631 204.084,80.304 204.430,80.770 204.528 C 81.237 204.627,81.936 204.971,82.325 205.293 C 82.713 205.616,83.381 205.963,83.808 206.065 C 84.236 206.167,84.994 206.522,85.492 206.854 C 85.991 207.185,86.865 207.534,87.435 207.628 C 88.005 207.722,89.058 208.081,89.774 208.424 C 90.491 208.768,91.773 209.124,92.624 209.215 C 93.475 209.306,95.087 209.662,96.208 210.006 C 100.899 211.447,116.615 211.346,119.539 209.855 C 120.056 209.591,121.202 209.292,122.087 209.189 C 123.122 209.069,123.973 208.795,124.477 208.419 C 124.907 208.099,125.693 207.759,126.223 207.664 C 126.753 207.570,127.528 207.206,127.944 206.855 C 128.361 206.504,128.868 206.218,129.072 206.218 C 129.276 206.218,130.016 205.810,130.718 205.311 C 131.419 204.812,132.127 204.404,132.290 204.404 C 132.453 204.404,132.655 204.227,132.738 204.010 C 132.821 203.794,133.300 203.374,133.802 203.078 C 134.304 202.782,134.715 202.383,134.715 202.191 C 134.715 202.000,134.919 201.690,135.168 201.503 C 136.014 200.871,137.376 198.910,137.866 197.621 C 138.134 196.915,138.548 196.041,138.786 195.678 C 139.630 194.389,139.552 185.703,138.688 184.839 C 138.476 184.627,138.098 183.873,137.848 183.164 C 137.599 182.455,137.212 181.668,136.988 181.416 C 136.765 181.165,136.366 180.538,136.102 180.023 C 135.465 178.782,134.296 177.042,133.696 176.442 C 133.431 176.177,133.133 175.592,133.034 175.144 C 132.936 174.695,132.632 174.189,132.360 174.019 C 132.088 173.849,131.865 173.609,131.865 173.487 C 131.865 173.098,130.993 171.383,130.658 171.114 C 130.481 170.972,130.142 170.275,129.905 169.566 C 129.668 168.857,129.306 168.155,129.100 168.005 C 128.895 167.855,128.614 167.229,128.476 166.614 C 128.338 166.000,127.937 165.073,127.584 164.554 C 127.232 164.035,126.942 163.317,126.940 162.958 C 126.938 162.599,126.644 161.793,126.286 161.167 C 125.923 160.533,125.526 159.271,125.389 158.317 C 125.254 157.376,124.880 155.907,124.559 155.052 C 123.655 152.647,123.665 143.119,124.574 140.803 C 124.909 139.948,125.283 138.680,125.405 137.985 C 125.527 137.290,125.796 136.533,126.003 136.301 C 126.209 136.070,126.569 135.221,126.802 134.414 C 127.035 133.608,127.390 132.885,127.591 132.808 C 127.793 132.730,128.145 132.022,128.374 131.235 C 128.603 130.447,128.901 129.734,129.036 129.650 C 129.378 129.439,130.052 127.768,130.052 127.131 C 130.052 126.841,130.384 125.894,130.791 125.025 C 131.198 124.156,131.602 122.820,131.689 122.056 C 131.776 121.291,132.091 120.163,132.388 119.549 C 132.712 118.882,133.027 117.489,133.172 116.089 C 133.305 114.799,133.669 112.896,133.981 111.859 C 135.125 108.058,134.969 88.064,133.777 85.707 C 133.585 85.326,133.322 84.076,133.194 82.928 C 133.062 81.752,132.730 80.399,132.431 79.826 C 132.140 79.267,131.776 78.127,131.623 77.294 C 131.469 76.460,131.121 75.474,130.848 75.103 C 130.575 74.731,130.214 73.919,130.046 73.296 C 129.879 72.674,129.476 71.849,129.152 71.463 C 128.827 71.078,128.486 70.358,128.393 69.863 C 128.301 69.369,128.044 68.814,127.823 68.630 C 127.602 68.447,127.147 67.758,126.813 67.098 C 126.479 66.439,126.022 65.747,125.797 65.561 C 125.573 65.374,125.389 65.110,125.389 64.973 C 125.389 64.461,120.516 59.153,118.205 57.149 C 116.884 56.003,115.803 54.975,115.803 54.864 C 115.803 54.754,115.627 54.663,115.412 54.663 C 115.197 54.663,114.818 54.421,114.570 54.124 C 114.322 53.827,113.711 53.374,113.212 53.115 C 112.714 52.857,112.084 52.400,111.812 52.100 C 111.541 51.800,111.171 51.554,110.990 51.554 C 110.809 51.554,110.312 51.260,109.884 50.900 C 109.456 50.540,108.719 50.116,108.245 49.958 C 107.771 49.800,107.092 49.410,106.736 49.092 C 106.380 48.774,105.686 48.438,105.194 48.346 C 104.702 48.254,104.061 47.965,103.769 47.703 C 103.477 47.442,102.655 47.080,101.943 46.900 C 101.231 46.719,100.331 46.351,99.943 46.082 C 99.556 45.812,98.417 45.419,97.412 45.208 C 96.407 44.996,95.325 44.659,95.008 44.457 C 94.690 44.255,93.053 43.905,91.371 43.678 C 89.689 43.452,88.115 43.165,87.874 43.041 C 87.632 42.918,86.273 42.738,84.853 42.643 C 83.433 42.547,82.034 42.426,81.744 42.373 C 81.455 42.321,81.043 42.324,80.829 42.380 M184.067 42.542 C 182.642 42.665,181.104 42.883,180.649 43.027 C 180.193 43.170,178.620 43.465,177.151 43.682 C 175.683 43.899,174.216 44.248,173.892 44.458 C 173.567 44.668,172.547 45.073,171.625 45.358 C 170.703 45.643,169.948 45.978,169.948 46.103 C 169.948 46.228,169.424 46.531,168.782 46.775 C 168.141 47.020,167.617 47.306,167.617 47.410 C 167.617 47.514,167.134 47.919,166.543 48.310 C 164.973 49.349,161.658 52.956,161.658 53.626 C 161.658 53.786,161.337 54.581,160.946 55.392 C 159.927 57.498,159.914 61.000,160.916 63.472 C 161.291 64.398,161.673 65.581,161.764 66.101 C 161.856 66.621,162.109 67.195,162.328 67.376 C 162.546 67.557,162.898 68.121,163.110 68.629 C 163.323 69.137,163.705 69.787,163.960 70.074 C 164.215 70.361,164.583 71.004,164.777 71.503 C 164.971 72.001,165.339 72.562,165.596 72.748 C 165.852 72.934,166.062 73.238,166.062 73.422 C 166.062 73.607,166.366 74.087,166.738 74.487 C 167.109 74.888,167.630 75.721,167.894 76.339 C 168.159 76.956,168.478 77.461,168.604 77.461 C 168.730 77.461,169.042 77.924,169.297 78.490 C 169.552 79.055,169.978 79.715,170.243 79.955 C 170.508 80.195,170.725 80.532,170.725 80.703 C 170.725 80.875,171.034 81.469,171.410 82.023 C 171.787 82.578,172.273 83.556,172.490 84.197 C 172.708 84.838,173.088 85.654,173.336 86.010 C 173.583 86.367,173.932 87.299,174.110 88.083 C 174.288 88.867,174.638 89.799,174.888 90.155 C 175.138 90.512,175.419 91.386,175.513 92.098 C 175.607 92.811,175.996 94.326,176.378 95.466 C 177.056 97.492,177.072 97.680,177.057 103.756 C 177.041 109.924,176.951 110.730,176.043 112.824 C 175.858 113.251,175.623 114.299,175.521 115.152 C 175.419 116.006,175.125 117.001,174.866 117.363 C 174.608 117.726,174.221 118.874,174.005 119.915 C 173.790 120.956,173.435 122.005,173.217 122.246 C 172.999 122.487,172.643 123.369,172.425 124.206 C 172.207 125.043,171.863 125.914,171.661 126.141 C 171.459 126.369,171.108 127.186,170.881 127.958 C 170.654 128.729,170.303 129.545,170.101 129.771 C 169.900 129.997,169.557 130.863,169.341 131.695 C 169.125 132.528,168.780 133.402,168.573 133.638 C 168.367 133.874,168.013 134.812,167.786 135.722 C 167.560 136.631,167.206 137.564,166.999 137.794 C 166.793 138.024,166.433 139.143,166.199 140.281 C 165.965 141.419,165.624 142.526,165.442 142.742 C 165.122 143.120,164.734 144.703,164.360 147.145 C 164.263 147.783,164.035 148.540,163.855 148.829 C 163.459 149.460,162.953 152.317,162.953 153.923 C 162.953 154.562,162.700 156.009,162.391 157.140 C 161.649 159.855,161.537 170.478,162.234 172.021 C 162.459 172.519,162.721 173.627,162.815 174.482 C 163.094 177.005,163.502 178.859,163.869 179.276 C 164.059 179.490,164.404 180.502,164.636 181.525 C 164.869 182.547,165.226 183.522,165.429 183.691 C 165.633 183.860,165.920 184.446,166.067 184.992 C 166.214 185.539,166.623 186.330,166.976 186.748 C 167.328 187.167,167.617 187.616,167.617 187.745 C 167.617 187.874,168.083 188.698,168.653 189.575 C 169.223 190.452,169.689 191.229,169.689 191.301 C 169.689 191.481,170.334 192.192,173.195 195.165 C 174.544 196.566,175.648 197.811,175.648 197.932 C 175.648 198.053,175.879 198.225,176.162 198.315 C 176.445 198.405,177.016 198.791,177.432 199.174 C 178.709 200.352,180.351 201.554,180.682 201.554 C 180.856 201.554,181.266 201.840,181.594 202.189 C 181.921 202.537,182.510 202.893,182.902 202.979 C 183.293 203.065,183.876 203.415,184.197 203.756 C 184.518 204.098,185.118 204.451,185.531 204.542 C 185.944 204.633,186.624 204.995,187.043 205.348 C 187.461 205.700,188.246 206.059,188.785 206.145 C 189.325 206.231,190.175 206.567,190.674 206.890 C 191.172 207.214,192.047 207.557,192.617 207.654 C 193.187 207.751,194.119 208.096,194.689 208.421 C 195.330 208.787,196.417 209.085,197.539 209.201 C 198.536 209.305,199.797 209.602,200.341 209.861 C 203.536 211.384,221.560 211.376,224.611 209.851 C 225.110 209.602,226.125 209.320,226.866 209.225 C 227.607 209.130,228.872 208.706,229.677 208.283 C 230.482 207.859,231.391 207.511,231.697 207.508 C 232.003 207.506,232.516 207.228,232.836 206.890 C 233.156 206.552,233.833 206.198,234.339 206.103 C 234.846 206.008,235.327 205.757,235.408 205.545 C 235.490 205.333,235.979 204.942,236.496 204.677 C 237.482 204.170,241.710 200.000,241.710 199.533 C 241.710 199.384,241.982 198.933,242.314 198.530 C 242.646 198.127,243.073 197.215,243.264 196.503 C 243.455 195.790,243.824 194.801,244.085 194.304 C 244.726 193.084,244.768 188.095,244.146 186.917 C 243.921 186.490,243.512 185.269,243.237 184.205 C 242.963 183.141,242.585 182.185,242.398 182.080 C 242.212 181.975,241.846 181.418,241.586 180.841 C 241.326 180.265,241.008 179.793,240.879 179.793 C 240.750 179.793,240.412 179.268,240.129 178.627 C 239.845 177.986,239.520 177.461,239.407 177.461 C 239.294 177.461,238.978 177.024,238.707 176.490 C 238.435 175.955,237.950 175.189,237.630 174.786 C 237.309 174.383,237.047 173.846,237.047 173.593 C 237.047 173.340,236.766 172.830,236.423 172.460 C 236.081 172.090,235.658 171.345,235.485 170.803 C 235.311 170.262,234.951 169.578,234.684 169.284 C 234.416 168.990,234.022 168.159,233.808 167.437 C 233.593 166.715,233.243 165.979,233.028 165.801 C 232.813 165.622,232.565 165.018,232.475 164.458 C 232.385 163.897,232.029 163.022,231.684 162.513 C 231.320 161.977,230.992 161.029,230.905 160.262 C 230.823 159.534,230.468 158.363,230.116 157.660 C 228.526 154.481,228.554 141.146,230.157 138.342 C 230.523 137.701,230.824 136.865,230.826 136.484 C 230.828 136.103,231.107 135.460,231.447 135.056 C 231.787 134.652,232.191 133.869,232.343 133.316 C 232.496 132.763,232.846 132.064,233.122 131.764 C 233.397 131.463,233.748 130.616,233.902 129.880 C 234.056 129.145,234.477 128.108,234.837 127.577 C 235.197 127.046,235.492 126.260,235.492 125.831 C 235.492 125.402,235.825 124.339,236.233 123.471 C 236.682 122.512,237.028 121.260,237.113 120.286 C 237.191 119.403,237.449 118.295,237.687 117.825 C 237.944 117.316,238.310 115.313,238.588 112.888 C 238.867 110.459,239.201 108.633,239.412 108.379 C 239.904 107.786,239.937 90.699,239.447 90.109 C 239.271 89.897,238.902 87.966,238.626 85.818 C 238.348 83.650,237.954 81.641,237.741 81.305 C 237.529 80.972,237.220 79.865,237.053 78.845 C 236.858 77.658,236.523 76.685,236.121 76.140 C 235.775 75.671,235.492 75.025,235.492 74.703 C 235.492 74.003,235.038 72.899,234.402 72.051 C 234.146 71.711,233.938 71.231,233.938 70.985 C 233.938 70.739,233.588 70.097,233.161 69.560 C 232.733 69.022,232.383 68.383,232.383 68.139 C 232.383 67.896,232.138 67.475,231.838 67.203 C 231.538 66.932,231.055 66.244,230.765 65.674 C 230.476 65.104,229.993 64.379,229.692 64.064 C 229.391 63.749,228.854 63.119,228.497 62.665 C 228.141 62.211,227.063 61.035,226.101 60.052 C 225.139 59.070,224.352 58.173,224.352 58.060 C 224.352 57.947,224.071 57.727,223.727 57.570 C 223.383 57.414,223.029 57.057,222.941 56.777 C 222.852 56.498,222.492 56.197,222.141 56.109 C 221.790 56.021,221.503 55.838,221.503 55.703 C 221.503 55.482,220.051 54.427,217.773 52.991 C 217.331 52.712,216.817 52.275,216.630 52.019 C 216.444 51.764,216.092 51.554,215.847 51.554 C 215.603 51.554,214.987 51.212,214.479 50.793 C 213.970 50.374,213.241 49.952,212.859 49.856 C 212.476 49.760,212.056 49.482,211.926 49.239 C 211.795 48.995,211.186 48.647,210.572 48.466 C 209.958 48.285,209.106 47.929,208.679 47.675 C 208.251 47.421,207.435 47.068,206.865 46.891 C 206.295 46.714,205.479 46.368,205.052 46.122 C 204.624 45.877,203.575 45.530,202.720 45.352 C 201.865 45.174,200.699 44.806,200.130 44.533 C 199.088 44.035,193.999 43.159,189.896 42.772 C 188.685 42.657,187.461 42.508,187.176 42.441 C 186.891 42.373,185.492 42.419,184.067 42.542 M283.161 42.660 C 282.234 42.716,281.109 42.934,280.660 43.143 C 280.211 43.352,279.454 43.523,278.976 43.524 C 277.594 43.524,274.515 44.183,273.821 44.627 C 273.472 44.850,272.662 45.179,272.021 45.358 C 271.380 45.537,270.622 45.873,270.337 46.104 C 270.052 46.335,269.411 46.726,268.912 46.973 C 267.193 47.823,265.939 48.855,263.434 51.483 C 263.057 51.879,262.558 52.668,262.324 53.238 C 262.091 53.808,261.700 54.425,261.455 54.610 C 260.680 55.194,260.798 63.603,261.596 64.618 C 261.919 65.028,262.257 65.829,262.348 66.400 C 262.439 66.970,262.719 67.641,262.970 67.892 C 263.220 68.143,263.632 68.795,263.885 69.342 C 264.138 69.889,264.615 70.666,264.945 71.069 C 265.274 71.472,265.544 71.949,265.544 72.130 C 265.544 72.311,265.786 72.678,266.082 72.946 C 266.378 73.214,266.848 73.931,267.125 74.540 C 267.403 75.149,267.738 75.648,267.870 75.648 C 268.002 75.648,268.343 76.172,268.626 76.813 C 268.910 77.455,269.249 77.979,269.381 77.979 C 269.512 77.979,269.862 78.562,270.158 79.275 C 270.454 79.987,270.804 80.570,270.935 80.570 C 271.066 80.570,271.382 81.124,271.637 81.801 C 271.892 82.477,272.253 83.122,272.438 83.232 C 272.624 83.343,272.977 84.100,273.223 84.916 C 273.469 85.732,273.825 86.529,274.013 86.688 C 274.201 86.847,274.489 87.663,274.652 88.501 C 274.816 89.340,275.215 90.492,275.540 91.062 C 275.894 91.682,276.200 92.776,276.303 93.782 C 276.397 94.709,276.768 96.341,277.128 97.409 C 277.995 99.985,277.922 108.230,277.013 110.492 C 276.726 111.205,276.409 112.604,276.307 113.601 C 276.192 114.733,275.900 115.804,275.531 116.451 C 275.205 117.021,274.809 118.232,274.652 119.144 C 274.494 120.055,274.197 120.987,273.993 121.216 C 273.788 121.445,273.443 122.313,273.227 123.146 C 273.011 123.979,272.665 124.853,272.458 125.089 C 272.251 125.325,271.883 126.212,271.640 127.060 C 271.397 127.909,271.041 128.725,270.848 128.874 C 270.656 129.023,270.310 129.888,270.079 130.795 C 269.848 131.703,269.434 132.752,269.158 133.127 C 268.883 133.502,268.554 134.366,268.428 135.048 C 268.301 135.730,268.029 136.488,267.823 136.732 C 267.427 137.200,266.839 139.002,266.839 139.748 C 266.839 139.990,266.555 140.792,266.207 141.532 C 265.859 142.271,265.493 143.517,265.394 144.301 C 265.295 145.084,265.011 146.133,264.763 146.632 C 264.345 147.472,263.987 149.266,263.601 152.461 C 263.515 153.174,263.246 154.339,263.004 155.052 C 262.346 156.991,262.346 172.912,263.004 174.517 C 263.246 175.106,263.622 176.610,263.840 177.857 C 264.058 179.105,264.403 180.313,264.608 180.542 C 264.813 180.771,265.158 181.640,265.374 182.472 C 265.590 183.305,265.947 184.185,266.167 184.428 C 266.387 184.671,266.748 185.389,266.969 186.023 C 267.190 186.657,267.531 187.297,267.726 187.444 C 267.921 187.592,268.265 188.152,268.490 188.691 C 269.378 190.817,272.376 194.234,277.671 199.158 C 278.169 199.621,278.688 200.000,278.824 200.000 C 278.959 200.000,279.300 200.291,279.580 200.648 C 279.860 201.004,280.238 201.295,280.420 201.295 C 280.602 201.295,281.234 201.645,281.824 202.073 C 282.414 202.500,282.999 202.850,283.123 202.850 C 283.247 202.850,283.792 203.202,284.334 203.633 C 284.876 204.063,285.620 204.489,285.989 204.579 C 286.357 204.669,286.970 205.001,287.352 205.318 C 287.734 205.635,288.477 205.975,289.004 206.074 C 289.530 206.172,290.384 206.526,290.900 206.860 C 291.417 207.194,292.364 207.547,293.005 207.644 C 293.646 207.742,294.644 208.094,295.222 208.426 C 295.850 208.787,296.944 209.102,297.942 209.208 C 298.860 209.306,300.125 209.607,300.753 209.878 C 304.173 211.351,321.834 211.386,324.698 209.924 C 325.102 209.718,326.139 209.436,327.004 209.297 C 327.868 209.157,329.053 208.766,329.637 208.427 C 330.222 208.088,331.146 207.729,331.691 207.629 C 332.237 207.529,332.884 207.232,333.129 206.969 C 333.374 206.706,334.084 206.311,334.706 206.091 C 335.328 205.872,335.999 205.461,336.198 205.178 C 336.396 204.895,336.698 204.663,336.870 204.663 C 337.358 204.663,342.228 199.784,342.228 199.295 C 342.228 199.162,342.579 198.523,343.008 197.875 C 343.457 197.198,343.907 196.051,344.069 195.175 C 344.223 194.338,344.513 193.260,344.714 192.779 C 345.132 191.777,345.205 188.573,344.819 188.187 C 344.676 188.044,344.334 186.896,344.059 185.635 C 343.783 184.374,343.450 183.272,343.318 183.187 C 343.008 182.986,342.228 181.466,342.228 181.063 C 342.228 180.893,341.986 180.509,341.689 180.209 C 340.930 179.440,339.989 178.038,339.367 176.749 C 339.075 176.143,338.728 175.648,338.595 175.648 C 338.349 175.648,337.306 173.563,337.306 173.071 C 337.306 172.921,337.185 172.798,337.037 172.798 C 336.890 172.798,336.539 172.261,336.258 171.605 C 335.977 170.949,335.515 170.118,335.231 169.757 C 334.947 169.396,334.715 168.900,334.715 168.654 C 334.715 168.408,334.423 167.776,334.065 167.249 C 333.708 166.723,333.295 165.756,333.149 165.102 C 333.002 164.448,332.633 163.563,332.329 163.136 C 332.025 162.709,331.688 161.805,331.581 161.127 C 331.474 160.450,331.086 159.261,330.719 158.485 C 330.321 157.643,330.052 156.620,330.052 155.949 C 330.052 154.582,329.635 152.110,329.129 150.483 C 328.710 149.133,328.634 146.568,328.994 145.896 C 329.222 145.469,329.882 141.749,330.142 139.423 C 330.211 138.806,330.440 138.107,330.652 137.868 C 330.864 137.630,331.210 136.849,331.421 136.132 C 331.631 135.415,332.109 134.379,332.482 133.829 C 332.855 133.279,333.161 132.669,333.161 132.473 C 333.161 132.277,333.510 131.497,333.938 130.739 C 334.365 129.982,334.715 129.074,334.715 128.721 C 334.715 128.368,334.996 127.699,335.339 127.234 C 335.716 126.724,336.082 125.700,336.262 124.657 C 336.427 123.706,336.730 122.666,336.938 122.347 C 337.145 122.028,337.534 120.480,337.802 118.908 C 338.070 117.335,338.428 115.882,338.598 115.678 C 338.768 115.473,339.067 113.420,339.267 111.086 C 339.466 108.765,339.765 106.166,339.932 105.311 C 340.344 103.194,340.377 93.892,339.976 92.876 C 339.807 92.448,339.502 90.164,339.297 87.799 C 339.052 84.969,338.791 83.287,338.533 82.877 C 338.317 82.534,337.953 81.214,337.723 79.943 C 337.494 78.672,337.138 77.446,336.932 77.218 C 336.726 76.991,336.431 76.224,336.275 75.514 C 336.120 74.804,335.772 73.919,335.503 73.548 C 335.234 73.177,334.878 72.361,334.712 71.735 C 334.546 71.108,334.196 70.363,333.935 70.078 C 333.675 69.793,333.264 69.064,333.024 68.459 C 332.783 67.853,332.477 67.358,332.343 67.358 C 332.209 67.358,331.959 67.037,331.788 66.645 C 331.046 64.948,323.424 56.218,322.683 56.218 C 322.578 56.218,322.015 55.810,321.432 55.311 C 320.850 54.812,320.265 54.404,320.133 54.404 C 320.001 54.404,319.664 54.113,319.384 53.756 C 319.104 53.400,318.715 53.109,318.521 53.109 C 318.326 53.109,317.784 52.759,317.316 52.332 C 316.848 51.904,316.320 51.554,316.143 51.554 C 315.966 51.554,315.423 51.205,314.936 50.777 C 314.449 50.350,313.880 50.000,313.670 50.000 C 313.461 50.000,312.826 49.664,312.259 49.253 C 311.692 48.842,310.866 48.427,310.425 48.330 C 309.983 48.233,309.481 47.985,309.310 47.779 C 309.139 47.573,308.344 47.221,307.544 46.997 C 306.743 46.772,305.797 46.389,305.440 46.144 C 305.084 45.900,303.871 45.503,302.745 45.263 C 301.618 45.023,300.511 44.661,300.284 44.460 C 299.835 44.062,296.822 43.524,295.028 43.522 C 294.414 43.521,293.600 43.358,293.219 43.159 C 292.482 42.774,286.304 42.468,283.161 42.660 M87.824 52.897 C 88.608 53.045,89.377 53.268,89.533 53.395 C 89.689 53.521,90.776 53.792,91.948 53.997 C 93.119 54.201,94.371 54.560,94.728 54.795 C 95.086 55.029,96.036 55.392,96.840 55.601 C 97.643 55.810,98.489 56.152,98.719 56.360 C 98.949 56.568,99.725 56.913,100.444 57.126 C 101.163 57.340,101.909 57.705,102.103 57.938 C 102.296 58.171,102.922 58.583,103.494 58.855 C 105.794 59.948,107.032 60.799,108.796 62.500 C 109.202 62.892,109.672 63.212,109.840 63.212 C 110.234 63.212,116.580 69.504,116.580 69.895 C 116.580 70.057,116.930 70.547,117.358 70.984 C 117.785 71.422,118.135 71.930,118.135 72.114 C 118.135 72.298,118.427 72.724,118.785 73.060 C 119.143 73.396,119.562 74.145,119.715 74.724 C 119.869 75.303,120.231 76.033,120.520 76.345 C 120.809 76.657,121.146 77.452,121.270 78.112 C 121.393 78.772,121.735 79.651,122.030 80.065 C 122.325 80.479,122.682 81.549,122.824 82.442 C 122.966 83.336,123.325 84.573,123.621 85.190 C 125.123 88.317,125.126 110.433,123.624 113.375 C 123.301 114.009,123.012 115.238,122.903 116.447 C 122.784 117.763,122.514 118.850,122.128 119.577 C 121.802 120.190,121.414 121.348,121.265 122.150 C 121.117 122.952,120.775 123.922,120.504 124.304 C 120.234 124.687,119.927 125.408,119.822 125.907 C 119.718 126.405,119.364 127.171,119.036 127.608 C 118.708 128.046,118.312 128.876,118.156 129.453 C 118.001 130.030,117.639 130.801,117.352 131.165 C 117.065 131.530,116.733 132.349,116.615 132.984 C 116.496 133.620,116.152 134.539,115.850 135.028 C 115.502 135.590,115.203 136.716,115.032 138.100 C 114.884 139.302,114.630 140.810,114.468 141.451 C 113.970 143.416,113.881 152.515,114.349 153.614 C 114.564 154.120,114.852 155.758,114.988 157.254 C 115.170 159.258,115.404 160.315,115.875 161.269 C 116.227 161.982,116.586 163.125,116.674 163.809 C 116.761 164.493,117.126 165.552,117.484 166.163 C 117.842 166.774,118.135 167.564,118.135 167.919 C 118.135 168.274,118.472 169.079,118.884 169.709 C 119.296 170.339,119.720 171.262,119.825 171.759 C 119.930 172.256,120.293 173.025,120.630 173.467 C 120.967 173.910,121.244 174.389,121.244 174.532 C 121.244 174.675,121.591 175.306,122.016 175.933 C 122.441 176.560,122.791 177.256,122.793 177.479 C 122.796 177.703,123.141 178.271,123.561 178.741 C 123.981 179.211,124.398 179.931,124.488 180.341 C 124.578 180.750,124.802 181.173,124.987 181.281 C 125.171 181.389,125.574 181.977,125.884 182.588 C 126.193 183.200,126.675 183.929,126.954 184.208 C 127.233 184.487,127.461 184.874,127.461 185.068 C 127.461 185.263,127.756 185.717,128.117 186.077 C 129.031 186.992,129.582 189.692,129.259 191.670 C 129.127 192.475,129.018 193.177,129.017 193.230 C 129.012 193.567,124.744 197.385,124.227 197.515 C 123.876 197.603,123.185 197.949,122.692 198.284 C 122.198 198.618,121.295 198.972,120.684 199.070 C 120.073 199.168,119.395 199.402,119.178 199.591 C 118.541 200.144,117.136 200.465,114.541 200.649 C 113.205 200.744,111.573 200.985,110.914 201.185 C 109.483 201.619,106.027 201.669,105.004 201.270 C 104.603 201.114,102.543 200.825,100.427 200.629 C 97.347 200.343,96.304 200.141,95.197 199.618 C 94.437 199.258,93.603 198.963,93.345 198.962 C 92.541 198.960,90.968 198.443,90.578 198.054 C 90.374 197.850,89.721 197.573,89.128 197.440 C 88.535 197.307,87.620 196.909,87.095 196.556 C 86.570 196.203,85.816 195.840,85.421 195.749 C 85.025 195.657,84.474 195.355,84.196 195.077 C 83.918 194.799,83.280 194.400,82.778 194.190 C 82.276 193.980,81.865 193.687,81.865 193.539 C 81.865 193.390,81.471 193.063,80.989 192.813 C 79.857 192.225,77.202 190.202,77.202 189.928 C 77.202 189.812,76.974 189.611,76.695 189.483 C 76.163 189.238,72.539 185.073,72.539 184.707 C 72.539 184.591,72.269 184.166,71.939 183.763 C 71.608 183.361,71.182 182.623,70.992 182.124 C 70.801 181.626,70.483 181.084,70.285 180.922 C 70.087 180.759,69.737 179.943,69.507 179.108 C 69.277 178.274,68.925 177.398,68.724 177.162 C 68.523 176.927,68.156 175.470,67.908 173.924 C 67.659 172.379,67.318 170.859,67.148 170.548 C 66.667 169.666,66.728 160.009,67.224 158.531 C 67.436 157.900,67.772 155.955,67.972 154.209 C 68.172 152.463,68.506 150.772,68.714 150.452 C 68.922 150.132,69.236 149.054,69.411 148.057 C 69.586 147.060,69.948 145.777,70.217 145.207 C 70.485 144.637,70.888 143.360,71.112 142.368 C 71.337 141.377,71.682 140.386,71.881 140.166 C 72.079 139.947,72.384 139.184,72.558 138.472 C 72.732 137.759,73.149 136.652,73.484 136.012 C 73.819 135.372,74.169 134.440,74.261 133.940 C 74.354 133.440,74.703 132.625,75.038 132.129 C 75.373 131.633,75.648 130.957,75.648 130.626 C 75.648 129.933,76.332 128.497,76.662 128.497 C 76.785 128.497,76.961 128.060,77.054 127.526 C 77.269 126.290,77.709 125.115,78.152 124.590 C 78.343 124.365,78.624 123.490,78.777 122.647 C 78.930 121.804,79.284 120.720,79.564 120.239 C 79.844 119.758,80.185 118.483,80.321 117.404 C 80.458 116.326,80.871 114.478,81.239 113.297 L 81.908 111.150 81.803 102.660 C 81.703 94.597,81.670 94.119,81.144 93.135 C 80.832 92.549,80.483 91.209,80.342 90.054 C 80.205 88.929,79.970 87.934,79.821 87.841 C 79.510 87.649,78.756 85.640,78.756 85.004 C 78.756 84.772,78.446 83.999,78.067 83.288 C 77.688 82.577,77.279 81.557,77.159 81.022 C 77.038 80.486,76.709 79.818,76.428 79.537 C 76.147 79.256,75.786 78.507,75.626 77.872 C 75.467 77.238,75.177 76.658,74.982 76.583 C 74.787 76.509,74.444 76.007,74.219 75.468 C 73.994 74.930,73.601 74.254,73.346 73.967 C 73.091 73.680,72.732 73.067,72.549 72.604 C 72.367 72.141,72.116 71.762,71.994 71.762 C 71.871 71.762,71.462 71.150,71.086 70.402 C 70.709 69.653,70.241 68.948,70.045 68.834 C 69.849 68.720,69.689 68.462,69.689 68.260 C 69.689 68.059,69.355 67.511,68.947 67.043 C 68.539 66.575,68.123 65.929,68.022 65.607 C 67.922 65.286,67.579 64.703,67.261 64.312 C 66.942 63.921,66.521 63.076,66.326 62.435 C 66.130 61.794,65.801 61.069,65.595 60.825 C 64.506 59.533,66.266 56.604,68.755 55.564 C 69.310 55.333,69.928 54.980,70.127 54.780 C 70.327 54.581,70.980 54.296,71.579 54.148 C 72.178 53.999,73.307 53.624,74.087 53.314 C 76.378 52.406,83.977 52.175,87.824 52.897 M189.637 52.606 C 192.077 52.781,193.595 53.007,193.967 53.251 C 194.282 53.457,195.390 53.745,196.428 53.891 C 197.466 54.037,198.899 54.434,199.611 54.775 C 200.324 55.115,201.458 55.535,202.132 55.708 C 202.806 55.881,203.486 56.177,203.642 56.365 C 203.798 56.553,204.498 56.898,205.198 57.130 C 205.898 57.362,206.541 57.666,206.627 57.806 C 206.713 57.945,207.414 58.338,208.184 58.678 C 208.955 59.019,209.585 59.413,209.585 59.554 C 209.585 59.695,209.848 59.888,210.168 59.983 C 210.489 60.078,211.159 60.468,211.658 60.850 C 212.157 61.231,212.859 61.730,213.219 61.958 C 213.936 62.411,214.914 63.212,216.094 64.313 C 216.514 64.705,216.951 65.026,217.066 65.026 C 217.180 65.026,217.403 65.307,217.559 65.651 C 217.716 65.995,218.078 66.351,218.365 66.442 C 218.651 66.532,218.960 66.841,219.051 67.127 C 219.142 67.414,219.495 67.775,219.836 67.931 C 220.177 68.086,220.533 68.454,220.626 68.747 C 220.719 69.041,221.071 69.498,221.408 69.763 C 221.745 70.028,222.021 70.391,222.021 70.569 C 222.021 70.748,222.309 71.165,222.661 71.496 C 223.013 71.826,223.434 72.517,223.596 73.030 C 223.759 73.544,224.057 74.096,224.260 74.258 C 224.463 74.420,224.833 75.131,225.083 75.840 C 225.332 76.548,225.725 77.317,225.957 77.548 C 226.188 77.780,226.460 78.467,226.561 79.075 C 226.752 80.227,227.117 81.111,227.508 81.367 C 227.634 81.450,227.948 82.756,228.206 84.271 C 228.464 85.785,228.803 87.180,228.961 87.369 C 229.993 88.613,230.089 107.707,229.078 110.751 C 228.794 111.606,228.425 113.355,228.257 114.637 C 228.089 115.920,227.744 117.377,227.490 117.876 C 227.236 118.374,226.883 119.540,226.706 120.466 C 226.529 121.392,226.192 122.442,225.956 122.798 C 225.721 123.154,225.381 124.004,225.202 124.686 C 225.023 125.368,224.583 126.357,224.226 126.883 C 223.868 127.410,223.575 128.020,223.575 128.238 C 223.575 128.457,223.299 129.042,222.962 129.538 C 222.625 130.034,222.264 130.848,222.160 131.347 C 222.055 131.846,221.691 132.739,221.350 133.332 C 221.006 133.931,220.618 135.198,220.478 136.182 C 220.339 137.156,219.959 138.653,219.634 139.508 C 218.741 141.850,218.731 154.697,219.620 156.379 C 219.957 157.017,220.299 158.365,220.467 159.722 C 220.652 161.211,220.958 162.362,221.354 163.058 C 221.687 163.641,222.029 164.675,222.115 165.354 C 222.201 166.034,222.514 166.919,222.812 167.321 C 223.109 167.723,223.460 168.531,223.592 169.116 C 223.723 169.700,224.123 170.609,224.480 171.136 C 224.837 171.662,225.132 172.281,225.134 172.510 C 225.137 172.740,225.487 173.440,225.911 174.067 C 226.336 174.694,226.684 175.400,226.684 175.636 C 226.684 175.872,226.965 176.445,227.307 176.910 C 227.650 177.375,228.081 178.126,228.264 178.580 C 228.447 179.033,228.749 179.497,228.935 179.611 C 229.121 179.725,229.512 180.342,229.804 180.983 C 230.096 181.624,230.562 182.376,230.841 182.654 C 231.119 182.933,231.347 183.315,231.347 183.504 C 231.347 183.693,231.636 184.119,231.988 184.450 C 232.341 184.781,232.823 185.559,233.060 186.179 C 233.296 186.799,233.579 187.306,233.689 187.306 C 234.338 187.306,234.725 191.227,234.210 192.583 C 233.617 194.141,230.724 196.872,229.080 197.425 C 228.617 197.581,228.238 197.813,228.238 197.941 C 228.238 198.266,226.822 198.964,226.163 198.964 C 225.862 198.964,224.969 199.270,224.178 199.644 C 223.033 200.186,222.099 200.376,219.595 200.578 C 217.866 200.718,216.083 200.994,215.634 201.193 C 214.529 201.683,210.216 201.678,209.274 201.186 C 208.889 200.985,207.373 200.746,205.906 200.655 C 202.819 200.463,200.820 200.084,200.240 199.580 C 200.016 199.385,199.258 199.148,198.556 199.052 C 197.324 198.885,196.443 198.564,195.078 197.786 C 194.722 197.583,194.218 197.415,193.960 197.413 C 193.358 197.408,192.485 196.954,191.894 196.338 C 191.639 196.072,191.196 195.855,190.910 195.855 C 190.256 195.855,188.860 195.148,188.860 194.817 C 188.860 194.681,188.569 194.496,188.214 194.407 C 187.858 194.318,187.071 193.851,186.465 193.369 C 185.859 192.886,185.263 192.491,185.141 192.490 C 185.019 192.488,184.690 192.196,184.410 191.839 C 184.129 191.483,183.753 191.192,183.573 191.192 C 183.393 191.192,182.951 190.871,182.591 190.479 C 182.231 190.087,181.716 189.574,181.447 189.339 C 180.563 188.564,179.275 187.065,179.275 186.812 C 179.275 186.675,179.054 186.493,178.784 186.408 C 178.515 186.322,178.151 185.906,177.976 185.484 C 177.801 185.061,177.557 184.715,177.435 184.715 C 177.313 184.715,176.978 184.255,176.692 183.694 C 176.405 183.132,175.892 182.262,175.551 181.760 C 175.210 181.257,174.850 180.411,174.750 179.879 C 174.650 179.347,174.394 178.784,174.180 178.628 C 173.965 178.471,173.620 177.424,173.407 176.283 C 173.195 175.150,172.848 173.954,172.635 173.626 C 171.643 172.091,171.644 157.183,172.636 155.231 C 173.019 154.478,173.575 151.596,173.575 150.364 C 173.575 149.946,173.792 149.197,174.058 148.701 C 174.323 148.204,174.740 146.807,174.985 145.596 C 175.229 144.385,175.591 143.214,175.788 142.995 C 175.986 142.775,176.283 141.959,176.448 141.181 C 176.613 140.403,177.025 139.243,177.364 138.603 C 177.702 137.963,177.979 137.134,177.979 136.761 C 177.979 136.388,178.259 135.671,178.601 135.167 C 178.942 134.663,179.419 133.569,179.660 132.735 C 179.901 131.900,180.263 131.033,180.465 130.807 C 180.666 130.582,181.009 129.800,181.225 129.071 C 181.442 128.341,181.793 127.571,182.005 127.358 C 182.218 127.146,182.498 126.412,182.629 125.727 C 182.926 124.165,183.144 123.557,183.597 123.027 C 183.794 122.797,184.073 121.864,184.217 120.954 C 184.360 120.045,184.711 118.834,184.995 118.264 C 185.280 117.694,185.626 116.295,185.765 115.155 C 185.903 114.016,186.195 112.325,186.414 111.399 C 187.221 107.976,187.361 106.322,187.230 101.778 C 187.128 98.256,187.005 97.069,186.695 96.596 C 186.474 96.258,186.123 94.682,185.915 93.094 C 185.707 91.505,185.356 89.929,185.135 89.592 C 184.914 89.254,184.555 88.132,184.337 87.098 C 184.120 86.063,183.709 84.900,183.424 84.513 C 183.139 84.125,182.805 83.262,182.681 82.594 C 182.557 81.925,182.149 81.014,181.772 80.566 C 181.396 80.119,181.088 79.489,181.088 79.165 C 181.088 78.842,180.795 78.239,180.436 77.825 C 180.078 77.411,179.663 76.629,179.516 76.088 C 179.368 75.546,179.084 75.040,178.885 74.964 C 178.686 74.887,178.326 74.310,178.086 73.682 C 177.846 73.053,177.559 72.539,177.449 72.539 C 177.339 72.539,177.002 72.030,176.701 71.407 C 176.399 70.785,175.939 70.082,175.677 69.845 C 175.415 69.608,174.993 68.952,174.737 68.386 C 174.482 67.820,174.180 67.358,174.066 67.358 C 173.952 67.358,173.626 66.833,173.343 66.192 C 173.059 65.551,172.713 65.026,172.574 65.026 C 172.435 65.026,172.128 64.444,171.892 63.732 C 171.655 63.020,171.284 62.339,171.066 62.217 C 169.198 61.171,170.786 57.004,173.605 55.558 C 174.087 55.311,174.752 54.897,175.083 54.640 C 175.414 54.382,176.230 54.093,176.896 53.997 C 177.563 53.901,178.631 53.589,179.268 53.303 C 179.998 52.976,181.342 52.714,182.895 52.595 C 184.252 52.492,185.479 52.391,185.622 52.372 C 185.764 52.353,187.571 52.458,189.637 52.606 M289.845 52.602 C 292.251 52.775,293.977 53.034,294.767 53.341 C 295.437 53.601,296.626 53.893,297.409 53.990 C 298.193 54.087,299.417 54.442,300.130 54.780 C 300.842 55.117,301.989 55.539,302.679 55.716 C 303.369 55.894,303.990 56.188,304.060 56.370 C 304.130 56.552,304.830 56.903,305.616 57.150 C 306.401 57.397,307.103 57.754,307.176 57.942 C 307.248 58.130,307.768 58.409,308.330 58.560 C 308.893 58.712,309.555 59.037,309.801 59.283 C 310.047 59.529,310.607 59.960,311.045 60.241 C 313.815 62.015,314.508 62.500,314.508 62.661 C 314.508 62.760,314.864 63.052,315.299 63.309 C 316.183 63.831,321.244 68.700,321.244 69.028 C 321.244 69.143,321.652 69.689,322.150 70.241 C 322.649 70.793,323.057 71.399,323.057 71.588 C 323.057 71.776,323.348 72.204,323.705 72.539 C 324.061 72.874,324.352 73.344,324.352 73.585 C 324.352 73.826,324.581 74.314,324.860 74.669 C 325.140 75.024,325.614 75.973,325.915 76.777 C 326.216 77.581,326.553 78.238,326.664 78.238 C 326.775 78.238,327.067 79.025,327.312 79.987 C 327.557 80.949,327.975 82.202,328.240 82.772 C 328.505 83.342,328.907 85.140,329.133 86.767 C 329.359 88.394,329.651 89.855,329.782 90.013 C 330.811 91.252,330.735 105.488,329.682 108.803 C 329.477 109.447,329.169 111.256,328.996 112.824 C 328.816 114.455,328.482 116.073,328.215 116.607 C 327.959 117.120,327.611 118.344,327.442 119.327 C 327.274 120.310,326.872 121.580,326.550 122.150 C 326.228 122.720,325.884 123.653,325.785 124.223 C 325.686 124.793,325.402 125.492,325.153 125.777 C 324.903 126.062,324.564 126.772,324.399 127.354 C 324.233 127.937,323.869 128.620,323.589 128.874 C 323.309 129.127,323.003 129.850,322.908 130.479 C 322.814 131.109,322.449 132.048,322.098 132.565 C 321.742 133.090,321.350 134.187,321.212 135.048 C 321.075 135.897,320.733 137.041,320.453 137.592 C 319.134 140.176,319.164 154.382,320.496 158.267 C 320.907 159.465,321.247 160.864,321.252 161.376 C 321.256 161.887,321.606 163.002,322.029 163.854 C 322.452 164.705,322.798 165.760,322.798 166.199 C 322.798 166.638,323.130 167.521,323.537 168.162 C 323.943 168.802,324.354 169.746,324.450 170.259 C 324.546 170.772,324.782 171.321,324.973 171.480 C 325.164 171.639,325.527 172.321,325.779 172.996 C 326.031 173.671,326.386 174.398,326.568 174.611 C 326.750 174.825,327.102 175.525,327.349 176.166 C 327.597 176.807,328.012 177.570,328.273 177.861 C 328.533 178.152,328.876 178.764,329.036 179.221 C 329.195 179.678,329.432 180.052,329.562 180.052 C 329.693 180.052,330.060 180.606,330.379 181.282 C 330.698 181.959,331.163 182.665,331.412 182.851 C 331.661 183.038,331.865 183.332,331.865 183.505 C 331.865 183.678,332.193 184.225,332.593 184.721 C 332.993 185.216,333.527 186.176,333.780 186.852 C 334.033 187.529,334.337 188.083,334.457 188.083 C 335.163 188.083,335.194 191.809,334.494 192.615 C 334.246 192.901,333.878 193.466,333.675 193.871 C 333.472 194.276,332.925 194.917,332.458 195.296 C 331.992 195.675,331.234 196.305,330.773 196.697 C 330.313 197.089,329.810 197.409,329.656 197.409 C 329.502 197.409,328.989 197.695,328.516 198.043 C 328.043 198.392,327.292 198.748,326.846 198.835 C 326.401 198.922,325.450 199.278,324.735 199.627 C 323.761 200.102,322.684 200.331,320.460 200.536 C 318.825 200.686,316.874 200.988,316.124 201.207 C 314.542 201.668,309.945 201.615,309.641 201.132 C 309.533 200.961,308.216 200.763,306.477 200.655 C 303.080 200.446,301.349 200.129,300.778 199.612 C 300.560 199.415,299.684 199.140,298.831 199.001 C 297.014 198.705,295.855 198.298,295.855 197.957 C 295.855 197.823,295.390 197.635,294.822 197.539 C 294.254 197.443,293.377 197.085,292.872 196.743 C 292.368 196.400,291.676 196.050,291.335 195.965 C 290.994 195.879,290.097 195.411,289.343 194.925 C 288.588 194.439,287.866 194.041,287.737 194.041 C 287.508 194.041,286.130 192.981,285.104 192.016 C 284.819 191.747,284.294 191.381,283.938 191.202 C 283.095 190.778,279.096 186.659,278.605 185.709 C 278.396 185.305,278.131 184.974,278.016 184.974 C 277.902 184.974,277.645 184.653,277.447 184.262 C 277.248 183.870,276.820 183.220,276.496 182.817 C 276.172 182.414,275.832 181.773,275.740 181.392 C 275.649 181.011,275.312 180.233,274.992 179.663 C 274.672 179.093,274.268 177.986,274.093 177.202 C 273.919 176.418,273.598 175.495,273.381 175.150 C 272.128 173.157,272.085 156.444,273.326 153.756 C 273.589 153.187,273.982 151.511,274.199 150.033 C 274.416 148.555,274.780 147.061,275.008 146.713 C 275.236 146.365,275.538 145.359,275.680 144.478 C 275.821 143.597,276.221 142.389,276.569 141.793 C 276.917 141.198,277.202 140.431,277.202 140.088 C 277.202 139.746,277.496 138.893,277.856 138.192 C 278.216 137.491,278.626 136.411,278.769 135.793 C 278.911 135.175,279.317 134.244,279.669 133.725 C 280.022 133.206,280.311 132.509,280.311 132.177 C 280.311 131.454,280.721 130.611,281.382 129.977 C 281.648 129.722,281.865 129.244,281.865 128.915 C 281.865 128.152,282.359 126.671,282.782 126.166 C 282.961 125.952,283.290 125.056,283.513 124.175 C 283.736 123.294,284.156 122.130,284.446 121.589 C 284.737 121.047,284.975 120.310,284.977 119.952 C 284.981 119.084,285.643 116.635,285.984 116.224 C 286.133 116.044,286.433 114.273,286.651 112.288 C 286.869 110.303,287.173 108.096,287.327 107.383 C 287.645 105.914,287.504 100.431,287.088 98.057 C 286.938 97.202,286.695 95.279,286.547 93.784 C 286.399 92.289,286.160 91.026,286.016 90.978 C 285.709 90.875,285.086 88.744,284.849 86.982 C 284.758 86.305,284.575 85.751,284.444 85.751 C 284.166 85.751,283.420 84.077,283.419 83.453 C 283.419 83.221,283.084 82.390,282.674 81.606 C 282.265 80.823,281.843 79.899,281.736 79.554 C 281.630 79.208,281.330 78.697,281.069 78.418 C 280.809 78.138,280.525 77.587,280.438 77.193 C 280.352 76.800,279.941 76.028,279.526 75.480 C 279.111 74.931,278.768 74.298,278.764 74.074 C 278.760 73.849,278.468 73.395,278.116 73.064 C 277.764 72.733,277.338 72.045,277.170 71.536 C 277.002 71.026,276.591 70.393,276.256 70.130 C 275.921 69.867,275.648 69.502,275.648 69.320 C 275.648 69.137,275.365 68.683,275.020 68.310 C 274.674 67.937,274.243 67.221,274.061 66.718 C 273.879 66.215,273.632 65.803,273.511 65.803 C 273.391 65.803,273.014 65.203,272.674 64.469 C 272.334 63.736,271.925 63.055,271.766 62.956 C 271.207 62.611,270.684 59.923,270.970 58.864 C 271.477 56.978,275.704 53.886,277.773 53.886 C 278.045 53.886,278.794 53.646,279.438 53.352 C 280.184 53.013,281.522 52.743,283.116 52.611 C 284.494 52.497,285.738 52.389,285.881 52.370 C 286.023 52.352,287.807 52.456,289.845 52.602 " stroke="none" fill="#19a657" fill-rule="evenodd"></path><path id="path1" d="M0.000 129.534 L 0.000 259.067 200.000 259.067 L 400.000 259.067 400.000 129.534 L 400.000 0.000 200.000 0.000 L 0.000 0.000 0.000 129.534 M84.853 42.643 C 86.273 42.738,87.632 42.918,87.874 43.041 C 88.115 43.165,89.689 43.452,91.371 43.678 C 93.053 43.905,94.690 44.255,95.008 44.457 C 95.325 44.659,96.407 44.996,97.412 45.208 C 98.417 45.419,99.556 45.812,99.943 46.082 C 100.331 46.351,101.231 46.719,101.943 46.900 C 102.655 47.080,103.477 47.442,103.769 47.703 C 104.061 47.965,104.702 48.254,105.194 48.346 C 105.686 48.438,106.380 48.774,106.736 49.092 C 107.092 49.410,107.771 49.800,108.245 49.958 C 108.719 50.116,109.456 50.540,109.884 50.900 C 110.312 51.260,110.809 51.554,110.990 51.554 C 111.171 51.554,111.541 51.800,111.812 52.100 C 112.084 52.400,112.714 52.857,113.212 53.115 C 113.711 53.374,114.322 53.827,114.570 54.124 C 114.818 54.421,115.197 54.663,115.412 54.663 C 115.627 54.663,115.803 54.754,115.803 54.864 C 115.803 54.975,116.884 56.003,118.205 57.149 C 120.516 59.153,125.389 64.461,125.389 64.973 C 125.389 65.110,125.573 65.374,125.797 65.561 C 126.022 65.747,126.479 66.439,126.813 67.098 C 127.147 67.758,127.602 68.447,127.823 68.630 C 128.044 68.814,128.301 69.369,128.393 69.863 C 128.486 70.358,128.827 71.078,129.152 71.463 C 129.476 71.849,129.879 72.674,130.046 73.296 C 130.214 73.919,130.575 74.731,130.848 75.103 C 131.121 75.474,131.469 76.460,131.623 77.294 C 131.776 78.127,132.140 79.267,132.431 79.826 C 132.730 80.399,133.062 81.752,133.194 82.928 C 133.322 84.076,133.585 85.326,133.777 85.707 C 134.969 88.064,135.125 108.058,133.981 111.859 C 133.669 112.896,133.305 114.799,133.172 116.089 C 133.027 117.489,132.712 118.882,132.388 119.549 C 132.091 120.163,131.776 121.291,131.689 122.056 C 131.602 122.820,131.198 124.156,130.791 125.025 C 130.384 125.894,130.052 126.841,130.052 127.131 C 130.052 127.768,129.378 129.439,129.036 129.650 C 128.901 129.734,128.603 130.447,128.374 131.235 C 128.145 132.022,127.793 132.730,127.591 132.808 C 127.390 132.885,127.035 133.608,126.802 134.414 C 126.569 135.221,126.209 136.070,126.003 136.301 C 125.796 136.533,125.527 137.290,125.405 137.985 C 125.283 138.680,124.909 139.948,124.574 140.803 C 123.665 143.119,123.655 152.647,124.559 155.052 C 124.880 155.907,125.254 157.376,125.389 158.317 C 125.526 159.271,125.923 160.533,126.286 161.167 C 126.644 161.793,126.938 162.599,126.940 162.958 C 126.942 163.317,127.232 164.035,127.584 164.554 C 127.937 165.073,128.338 166.000,128.476 166.614 C 128.614 167.229,128.895 167.855,129.100 168.005 C 129.306 168.155,129.668 168.857,129.905 169.566 C 130.142 170.275,130.481 170.972,130.658 171.114 C 130.993 171.383,131.865 173.098,131.865 173.487 C 131.865 173.609,132.088 173.849,132.360 174.019 C 132.632 174.189,132.936 174.695,133.034 175.144 C 133.133 175.592,133.431 176.177,133.696 176.442 C 134.296 177.042,135.465 178.782,136.102 180.023 C 136.366 180.538,136.765 181.165,136.988 181.416 C 137.212 181.668,137.599 182.455,137.848 183.164 C 138.098 183.873,138.476 184.627,138.688 184.839 C 139.552 185.703,139.630 194.389,138.786 195.678 C 138.548 196.041,138.134 196.915,137.866 197.621 C 137.376 198.910,136.014 200.871,135.168 201.503 C 134.919 201.690,134.715 202.000,134.715 202.191 C 134.715 202.383,134.304 202.782,133.802 203.078 C 133.300 203.374,132.821 203.794,132.738 204.010 C 132.655 204.227,132.453 204.404,132.290 204.404 C 132.127 204.404,131.419 204.812,130.718 205.311 C 130.016 205.810,129.276 206.218,129.072 206.218 C 128.868 206.218,128.361 206.504,127.944 206.855 C 127.528 207.206,126.753 207.570,126.223 207.664 C 125.693 207.759,124.907 208.099,124.477 208.419 C 123.973 208.795,123.122 209.069,122.087 209.189 C 121.202 209.292,120.056 209.591,119.539 209.855 C 116.615 211.346,100.899 211.447,96.208 210.006 C 95.087 209.662,93.475 209.306,92.624 209.215 C 91.773 209.124,90.491 208.768,89.774 208.424 C 89.058 208.081,88.005 207.722,87.435 207.628 C 86.865 207.534,85.991 207.185,85.492 206.854 C 84.994 206.522,84.236 206.167,83.808 206.065 C 83.381 205.963,82.713 205.616,82.325 205.293 C 81.936 204.971,81.237 204.627,80.770 204.528 C 80.304 204.430,79.631 204.084,79.275 203.760 C 78.918 203.436,78.189 203.031,77.653 202.860 C 77.118 202.689,76.567 202.338,76.428 202.079 C 76.290 201.820,75.825 201.486,75.394 201.336 C 74.964 201.186,74.611 200.944,74.611 200.797 C 74.611 200.651,74.233 200.338,73.769 200.101 C 72.069 199.232,67.979 195.365,66.263 193.005 C 65.589 192.079,64.876 191.146,64.679 190.933 C 64.482 190.719,64.174 190.253,63.995 189.896 C 63.816 189.540,63.464 189.074,63.213 188.860 C 62.961 188.646,62.558 187.860,62.316 187.113 C 62.074 186.366,61.728 185.666,61.545 185.558 C 61.363 185.451,61.008 184.722,60.755 183.938 C 60.503 183.154,60.144 182.338,59.958 182.123 C 59.773 181.909,59.426 180.860,59.189 179.792 C 58.951 178.724,58.583 177.575,58.370 177.240 C 57.170 175.345,57.063 152.918,58.248 151.472 C 58.602 151.039,59.093 149.113,59.331 147.221 C 59.443 146.333,59.773 145.109,60.066 144.500 C 60.358 143.892,60.726 142.578,60.883 141.580 C 61.039 140.583,61.271 139.730,61.398 139.686 C 61.664 139.591,62.317 137.624,62.558 136.191 C 62.648 135.649,62.888 135.143,63.090 135.065 C 63.292 134.987,63.528 134.498,63.614 133.978 C 63.818 132.737,64.246 131.580,64.697 131.049 C 64.896 130.814,65.219 130.016,65.415 129.275 C 65.610 128.534,65.961 127.717,66.193 127.459 C 66.426 127.202,66.794 126.310,67.010 125.478 C 67.226 124.645,67.577 123.769,67.789 123.532 C 68.002 123.294,68.355 122.303,68.574 121.330 C 68.792 120.356,69.141 119.366,69.349 119.129 C 69.557 118.893,69.902 117.844,70.116 116.798 C 70.330 115.752,70.677 114.629,70.888 114.301 C 72.279 112.142,72.297 94.609,70.910 93.062 C 70.690 92.817,70.334 91.761,70.119 90.715 C 69.904 89.669,69.562 88.620,69.359 88.384 C 69.156 88.147,68.840 87.394,68.655 86.711 C 68.471 86.027,68.121 85.211,67.879 84.897 C 67.637 84.583,67.228 83.769,66.971 83.087 C 66.714 82.406,66.364 81.764,66.193 81.662 C 66.023 81.560,65.675 80.923,65.420 80.246 C 65.164 79.569,64.857 79.016,64.736 79.016 C 64.615 79.016,64.217 78.462,63.851 77.785 C 62.717 75.686,61.960 74.506,61.559 74.213 C 61.347 74.058,61.098 73.628,61.005 73.256 C 60.912 72.885,60.496 72.201,60.081 71.736 C 59.666 71.271,59.326 70.732,59.326 70.537 C 59.326 70.343,59.036 69.893,58.681 69.539 C 58.327 69.184,57.961 68.577,57.868 68.190 C 57.664 67.340,57.007 65.987,56.700 65.788 C 56.263 65.504,55.391 59.775,55.558 58.290 C 55.817 56.002,56.469 53.840,57.145 53.037 C 57.490 52.627,57.772 52.177,57.772 52.037 C 57.772 51.680,60.914 48.653,61.747 48.208 C 62.126 48.005,62.435 47.746,62.435 47.631 C 62.435 47.516,62.987 47.171,63.662 46.863 C 64.337 46.556,65.008 46.152,65.152 45.966 C 65.296 45.780,66.172 45.436,67.098 45.201 C 68.025 44.967,68.957 44.619,69.171 44.427 C 69.585 44.057,74.598 43.113,78.238 42.720 C 79.449 42.589,80.615 42.437,80.829 42.380 C 81.043 42.324,81.455 42.321,81.744 42.373 C 82.034 42.426,83.433 42.547,84.853 42.643 M189.896 42.772 C 193.999 43.159,199.088 44.035,200.130 44.533 C 200.699 44.806,201.865 45.174,202.720 45.352 C 203.575 45.530,204.624 45.877,205.052 46.122 C 205.479 46.368,206.295 46.714,206.865 46.891 C 207.435 47.068,208.251 47.421,208.679 47.675 C 209.106 47.929,209.958 48.285,210.572 48.466 C 211.186 48.647,211.795 48.995,211.926 49.239 C 212.056 49.482,212.476 49.760,212.859 49.856 C 213.241 49.952,213.970 50.374,214.479 50.793 C 214.987 51.212,215.603 51.554,215.847 51.554 C 216.092 51.554,216.444 51.764,216.630 52.019 C 216.817 52.275,217.331 52.712,217.773 52.991 C 220.051 54.427,221.503 55.482,221.503 55.703 C 221.503 55.838,221.790 56.021,222.141 56.109 C 222.492 56.197,222.852 56.498,222.941 56.777 C 223.029 57.057,223.383 57.414,223.727 57.570 C 224.071 57.727,224.352 57.947,224.352 58.060 C 224.352 58.173,225.139 59.070,226.101 60.052 C 227.063 61.035,228.141 62.211,228.497 62.665 C 228.854 63.119,229.391 63.749,229.692 64.064 C 229.993 64.379,230.476 65.104,230.765 65.674 C 231.055 66.244,231.538 66.932,231.838 67.203 C 232.138 67.475,232.383 67.896,232.383 68.139 C 232.383 68.383,232.733 69.022,233.161 69.560 C 233.588 70.097,233.938 70.739,233.938 70.985 C 233.938 71.231,234.146 71.711,234.402 72.051 C 235.038 72.899,235.492 74.003,235.492 74.703 C 235.492 75.025,235.775 75.671,236.121 76.140 C 236.523 76.685,236.858 77.658,237.053 78.845 C 237.220 79.865,237.529 80.972,237.741 81.305 C 237.954 81.641,238.348 83.650,238.626 85.818 C 238.902 87.966,239.271 89.897,239.447 90.109 C 239.937 90.699,239.904 107.786,239.412 108.379 C 239.201 108.633,238.867 110.459,238.588 112.888 C 238.310 115.313,237.944 117.316,237.687 117.825 C 237.449 118.295,237.191 119.403,237.113 120.286 C 237.028 121.260,236.682 122.512,236.233 123.471 C 235.825 124.339,235.492 125.402,235.492 125.831 C 235.492 126.260,235.197 127.046,234.837 127.577 C 234.477 128.108,234.056 129.145,233.902 129.880 C 233.748 130.616,233.397 131.463,233.122 131.764 C 232.846 132.064,232.496 132.763,232.343 133.316 C 232.191 133.869,231.787 134.652,231.447 135.056 C 231.107 135.460,230.828 136.103,230.826 136.484 C 230.824 136.865,230.523 137.701,230.157 138.342 C 228.554 141.146,228.526 154.481,230.116 157.660 C 230.468 158.363,230.823 159.534,230.905 160.262 C 230.992 161.029,231.320 161.977,231.684 162.513 C 232.029 163.022,232.385 163.897,232.475 164.458 C 232.565 165.018,232.813 165.622,233.028 165.801 C 233.243 165.979,233.593 166.715,233.808 167.437 C 234.022 168.159,234.416 168.990,234.684 169.284 C 234.951 169.578,235.311 170.262,235.485 170.803 C 235.658 171.345,236.081 172.090,236.423 172.460 C 236.766 172.830,237.047 173.340,237.047 173.593 C 237.047 173.846,237.309 174.383,237.630 174.786 C 237.950 175.189,238.435 175.955,238.707 176.490 C 238.978 177.024,239.294 177.461,239.407 177.461 C 239.520 177.461,239.845 177.986,240.129 178.627 C 240.412 179.268,240.750 179.793,240.879 179.793 C 241.008 179.793,241.326 180.265,241.586 180.841 C 241.846 181.418,242.212 181.975,242.398 182.080 C 242.585 182.185,242.963 183.141,243.237 184.205 C 243.512 185.269,243.921 186.490,244.146 186.917 C 244.768 188.095,244.726 193.084,244.085 194.304 C 243.824 194.801,243.455 195.790,243.264 196.503 C 243.073 197.215,242.646 198.127,242.314 198.530 C 241.982 198.933,241.710 199.384,241.710 199.533 C 241.710 200.000,237.482 204.170,236.496 204.677 C 235.979 204.942,235.490 205.333,235.408 205.545 C 235.327 205.757,234.846 206.008,234.339 206.103 C 233.833 206.198,233.156 206.552,232.836 206.890 C 232.516 207.228,232.003 207.506,231.697 207.508 C 231.391 207.511,230.482 207.859,229.677 208.283 C 228.872 208.706,227.607 209.130,226.866 209.225 C 226.125 209.320,225.110 209.602,224.611 209.851 C 221.560 211.376,203.536 211.384,200.341 209.861 C 199.797 209.602,198.536 209.305,197.539 209.201 C 196.417 209.085,195.330 208.787,194.689 208.421 C 194.119 208.096,193.187 207.751,192.617 207.654 C 192.047 207.557,191.172 207.214,190.674 206.890 C 190.175 206.567,189.325 206.231,188.785 206.145 C 188.246 206.059,187.461 205.700,187.043 205.348 C 186.624 204.995,185.944 204.633,185.531 204.542 C 185.118 204.451,184.518 204.098,184.197 203.756 C 183.876 203.415,183.293 203.065,182.902 202.979 C 182.510 202.893,181.921 202.537,181.594 202.189 C 181.266 201.840,180.856 201.554,180.682 201.554 C 180.351 201.554,178.709 200.352,177.432 199.174 C 177.016 198.791,176.445 198.405,176.162 198.315 C 175.879 198.225,175.648 198.053,175.648 197.932 C 175.648 197.811,174.544 196.566,173.195 195.165 C 170.334 192.192,169.689 191.481,169.689 191.301 C 169.689 191.229,169.223 190.452,168.653 189.575 C 168.083 188.698,167.617 187.874,167.617 187.745 C 167.617 187.616,167.328 187.167,166.976 186.748 C 166.623 186.330,166.214 185.539,166.067 184.992 C 165.920 184.446,165.633 183.860,165.429 183.691 C 165.226 183.522,164.869 182.547,164.636 181.525 C 164.404 180.502,164.059 179.490,163.869 179.276 C 163.502 178.859,163.094 177.005,162.815 174.482 C 162.721 173.627,162.459 172.519,162.234 172.021 C 161.537 170.478,161.649 159.855,162.391 157.140 C 162.700 156.009,162.953 154.562,162.953 153.923 C 162.953 152.317,163.459 149.460,163.855 148.829 C 164.035 148.540,164.263 147.783,164.360 147.145 C 164.734 144.703,165.122 143.120,165.442 142.742 C 165.624 142.526,165.965 141.419,166.199 140.281 C 166.433 139.143,166.793 138.024,166.999 137.794 C 167.206 137.564,167.560 136.631,167.786 135.722 C 168.013 134.812,168.367 133.874,168.573 133.638 C 168.780 133.402,169.125 132.528,169.341 131.695 C 169.557 130.863,169.900 129.997,170.101 129.771 C 170.303 129.545,170.654 128.729,170.881 127.958 C 171.108 127.186,171.459 126.369,171.661 126.141 C 171.863 125.914,172.207 125.043,172.425 124.206 C 172.643 123.369,172.999 122.487,173.217 122.246 C 173.435 122.005,173.790 120.956,174.005 119.915 C 174.221 118.874,174.608 117.726,174.866 117.363 C 175.125 117.001,175.419 116.006,175.521 115.152 C 175.623 114.299,175.858 113.251,176.043 112.824 C 176.951 110.730,177.041 109.924,177.057 103.756 C 177.072 97.680,177.056 97.492,176.378 95.466 C 175.996 94.326,175.607 92.811,175.513 92.098 C 175.419 91.386,175.138 90.512,174.888 90.155 C 174.638 89.799,174.288 88.867,174.110 88.083 C 173.932 87.299,173.583 86.367,173.336 86.010 C 173.088 85.654,172.708 84.838,172.490 84.197 C 172.273 83.556,171.787 82.578,171.410 82.023 C 171.034 81.469,170.725 80.875,170.725 80.703 C 170.725 80.532,170.508 80.195,170.243 79.955 C 169.978 79.715,169.552 79.055,169.297 78.490 C 169.042 77.924,168.730 77.461,168.604 77.461 C 168.478 77.461,168.159 76.956,167.894 76.339 C 167.630 75.721,167.109 74.888,166.738 74.487 C 166.366 74.087,166.062 73.607,166.062 73.422 C 166.062 73.238,165.852 72.934,165.596 72.748 C 165.339 72.562,164.971 72.001,164.777 71.503 C 164.583 71.004,164.215 70.361,163.960 70.074 C 163.705 69.787,163.323 69.137,163.110 68.629 C 162.898 68.121,162.546 67.557,162.328 67.376 C 162.109 67.195,161.856 66.621,161.764 66.101 C 161.673 65.581,161.291 64.398,160.916 63.472 C 159.914 61.000,159.927 57.498,160.946 55.392 C 161.337 54.581,161.658 53.786,161.658 53.626 C 161.658 52.956,164.973 49.349,166.543 48.310 C 167.134 47.919,167.617 47.514,167.617 47.410 C 167.617 47.306,168.141 47.020,168.782 46.775 C 169.424 46.531,169.948 46.228,169.948 46.103 C 169.948 45.978,170.703 45.643,171.625 45.358 C 172.547 45.073,173.567 44.668,173.892 44.458 C 174.216 44.248,175.683 43.899,177.151 43.682 C 178.620 43.465,180.193 43.170,180.649 43.027 C 181.673 42.704,186.470 42.274,187.176 42.441 C 187.461 42.508,188.685 42.657,189.896 42.772 M293.219 43.159 C 293.600 43.358,294.414 43.521,295.028 43.522 C 296.822 43.524,299.835 44.062,300.284 44.460 C 300.511 44.661,301.618 45.023,302.745 45.263 C 303.871 45.503,305.084 45.900,305.440 46.144 C 305.797 46.389,306.743 46.772,307.544 46.997 C 308.344 47.221,309.139 47.573,309.310 47.779 C 309.481 47.985,309.983 48.233,310.425 48.330 C 310.866 48.427,311.692 48.842,312.259 49.253 C 312.826 49.664,313.461 50.000,313.670 50.000 C 313.880 50.000,314.449 50.350,314.936 50.777 C 315.423 51.205,315.966 51.554,316.143 51.554 C 316.320 51.554,316.848 51.904,317.316 52.332 C 317.784 52.759,318.326 53.109,318.521 53.109 C 318.715 53.109,319.104 53.400,319.384 53.756 C 319.664 54.113,320.001 54.404,320.133 54.404 C 320.265 54.404,320.850 54.812,321.432 55.311 C 322.015 55.810,322.578 56.218,322.683 56.218 C 323.424 56.218,331.046 64.948,331.788 66.645 C 331.959 67.037,332.209 67.358,332.343 67.358 C 332.477 67.358,332.783 67.853,333.024 68.459 C 333.264 69.064,333.675 69.793,333.935 70.078 C 334.196 70.363,334.546 71.108,334.712 71.735 C 334.878 72.361,335.234 73.177,335.503 73.548 C 335.772 73.919,336.120 74.804,336.275 75.514 C 336.431 76.224,336.726 76.991,336.932 77.218 C 337.138 77.446,337.494 78.672,337.723 79.943 C 337.953 81.214,338.317 82.534,338.533 82.877 C 338.791 83.287,339.052 84.969,339.297 87.799 C 339.502 90.164,339.807 92.448,339.976 92.876 C 340.377 93.892,340.344 103.194,339.932 105.311 C 339.765 106.166,339.466 108.765,339.267 111.086 C 339.067 113.420,338.768 115.473,338.598 115.678 C 338.428 115.882,338.070 117.335,337.802 118.908 C 337.534 120.480,337.145 122.028,336.938 122.347 C 336.730 122.666,336.427 123.706,336.262 124.657 C 336.082 125.700,335.716 126.724,335.339 127.234 C 334.996 127.699,334.715 128.368,334.715 128.721 C 334.715 129.074,334.365 129.982,333.938 130.739 C 333.510 131.497,333.161 132.277,333.161 132.473 C 333.161 132.669,332.855 133.279,332.482 133.829 C 332.109 134.379,331.631 135.415,331.421 136.132 C 331.210 136.849,330.864 137.630,330.652 137.868 C 330.440 138.107,330.211 138.806,330.142 139.423 C 329.882 141.749,329.222 145.469,328.994 145.896 C 328.634 146.568,328.710 149.133,329.129 150.483 C 329.635 152.110,330.052 154.582,330.052 155.949 C 330.052 156.620,330.321 157.643,330.719 158.485 C 331.086 159.261,331.474 160.450,331.581 161.127 C 331.688 161.805,332.025 162.709,332.329 163.136 C 332.633 163.563,333.002 164.448,333.149 165.102 C 333.295 165.756,333.708 166.723,334.065 167.249 C 334.423 167.776,334.715 168.408,334.715 168.654 C 334.715 168.900,334.947 169.396,335.231 169.757 C 335.515 170.118,335.977 170.949,336.258 171.605 C 336.539 172.261,336.890 172.798,337.037 172.798 C 337.185 172.798,337.306 172.921,337.306 173.071 C 337.306 173.563,338.349 175.648,338.595 175.648 C 338.728 175.648,339.075 176.143,339.367 176.749 C 339.989 178.038,340.930 179.440,341.689 180.209 C 341.986 180.509,342.228 180.893,342.228 181.063 C 342.228 181.466,343.008 182.986,343.318 183.187 C 343.450 183.272,343.783 184.374,344.059 185.635 C 344.334 186.896,344.676 188.044,344.819 188.187 C 345.205 188.573,345.132 191.777,344.714 192.779 C 344.513 193.260,344.223 194.338,344.069 195.175 C 343.907 196.051,343.457 197.198,343.008 197.875 C 342.579 198.523,342.228 199.162,342.228 199.295 C 342.228 199.784,337.358 204.663,336.870 204.663 C 336.698 204.663,336.396 204.895,336.198 205.178 C 335.999 205.461,335.328 205.872,334.706 206.091 C 334.084 206.311,333.374 206.706,333.129 206.969 C 332.884 207.232,332.237 207.529,331.691 207.629 C 331.146 207.729,330.222 208.088,329.637 208.427 C 329.053 208.766,327.868 209.157,327.004 209.297 C 326.139 209.436,325.102 209.718,324.698 209.924 C 321.834 211.386,304.173 211.351,300.753 209.878 C 300.125 209.607,298.860 209.306,297.942 209.208 C 296.944 209.102,295.850 208.787,295.222 208.426 C 294.644 208.094,293.646 207.742,293.005 207.644 C 292.364 207.547,291.417 207.194,290.900 206.860 C 290.384 206.526,289.530 206.172,289.004 206.074 C 288.477 205.975,287.734 205.635,287.352 205.318 C 286.970 205.001,286.357 204.669,285.989 204.579 C 285.620 204.489,284.876 204.063,284.334 203.633 C 283.792 203.202,283.247 202.850,283.123 202.850 C 282.999 202.850,282.414 202.500,281.824 202.073 C 281.234 201.645,280.602 201.295,280.420 201.295 C 280.238 201.295,279.860 201.004,279.580 200.648 C 279.300 200.291,278.959 200.000,278.824 200.000 C 278.085 200.000,272.131 193.903,269.488 190.441 C 269.164 190.016,268.715 189.229,268.490 188.691 C 268.265 188.152,267.921 187.592,267.726 187.444 C 267.531 187.297,267.190 186.657,266.969 186.023 C 266.748 185.389,266.387 184.671,266.167 184.428 C 265.947 184.185,265.590 183.305,265.374 182.472 C 265.158 181.640,264.813 180.771,264.608 180.542 C 264.403 180.313,264.058 179.105,263.840 177.857 C 263.622 176.610,263.246 175.106,263.004 174.517 C 262.346 172.912,262.346 156.991,263.004 155.052 C 263.246 154.339,263.515 153.174,263.601 152.461 C 263.987 149.266,264.345 147.472,264.763 146.632 C 265.011 146.133,265.295 145.084,265.394 144.301 C 265.493 143.517,265.859 142.271,266.207 141.532 C 266.555 140.792,266.839 139.990,266.839 139.748 C 266.839 139.002,267.427 137.200,267.823 136.732 C 268.029 136.488,268.301 135.730,268.428 135.048 C 268.554 134.366,268.883 133.502,269.158 133.127 C 269.434 132.752,269.848 131.703,270.079 130.795 C 270.310 129.888,270.656 129.023,270.848 128.874 C 271.041 128.725,271.397 127.909,271.640 127.060 C 271.883 126.212,272.251 125.325,272.458 125.089 C 272.665 124.853,273.011 123.979,273.227 123.146 C 273.443 122.313,273.788 121.445,273.993 121.216 C 274.197 120.987,274.494 120.055,274.652 119.144 C 274.809 118.232,275.205 117.021,275.531 116.451 C 275.900 115.804,276.192 114.733,276.307 113.601 C 276.409 112.604,276.726 111.205,277.013 110.492 C 277.922 108.230,277.995 99.985,277.128 97.409 C 276.768 96.341,276.397 94.709,276.303 93.782 C 276.200 92.776,275.894 91.682,275.540 91.062 C 275.215 90.492,274.816 89.340,274.652 88.501 C 274.489 87.663,274.201 86.847,274.013 86.688 C 273.825 86.529,273.469 85.732,273.223 84.916 C 272.977 84.100,272.624 83.343,272.438 83.232 C 272.253 83.122,271.892 82.477,271.637 81.801 C 271.382 81.124,271.066 80.570,270.935 80.570 C 270.804 80.570,270.454 79.987,270.158 79.275 C 269.862 78.562,269.512 77.979,269.381 77.979 C 269.249 77.979,268.910 77.455,268.626 76.813 C 268.343 76.172,268.002 75.648,267.870 75.648 C 267.738 75.648,267.403 75.149,267.125 74.540 C 266.848 73.931,266.378 73.214,266.082 72.946 C 265.786 72.678,265.544 72.311,265.544 72.130 C 265.544 71.949,265.274 71.472,264.945 71.069 C 264.615 70.666,264.138 69.889,263.885 69.342 C 263.632 68.795,263.220 68.143,262.970 67.892 C 262.719 67.641,262.439 66.970,262.348 66.400 C 262.257 65.829,261.919 65.028,261.596 64.618 C 260.798 63.603,260.680 55.194,261.455 54.610 C 261.700 54.425,262.091 53.808,262.324 53.238 C 262.558 52.668,263.057 51.879,263.434 51.483 C 265.939 48.855,267.193 47.823,268.912 46.973 C 269.411 46.726,270.052 46.335,270.337 46.104 C 270.622 45.873,271.380 45.537,272.021 45.358 C 272.662 45.179,273.472 44.850,273.821 44.627 C 274.515 44.183,277.594 43.524,278.976 43.524 C 279.454 43.523,280.211 43.352,280.660 43.143 C 282.202 42.425,291.836 42.437,293.219 43.159 M77.973 52.583 C 76.396 52.691,74.995 52.954,74.087 53.314 C 73.307 53.624,72.178 53.999,71.579 54.148 C 70.980 54.296,70.327 54.581,70.127 54.780 C 69.928 54.980,69.310 55.333,68.755 55.564 C 66.266 56.604,64.506 59.533,65.595 60.825 C 65.801 61.069,66.130 61.794,66.326 62.435 C 66.521 63.076,66.942 63.921,67.261 64.312 C 67.579 64.703,67.922 65.286,68.022 65.607 C 68.123 65.929,68.539 66.575,68.947 67.043 C 69.355 67.511,69.689 68.059,69.689 68.260 C 69.689 68.462,69.849 68.720,70.045 68.834 C 70.241 68.948,70.709 69.653,71.086 70.402 C 71.462 71.150,71.871 71.762,71.994 71.762 C 72.116 71.762,72.367 72.141,72.549 72.604 C 72.732 73.067,73.091 73.680,73.346 73.967 C 73.601 74.254,73.994 74.930,74.219 75.468 C 74.444 76.007,74.787 76.509,74.982 76.583 C 75.177 76.658,75.467 77.238,75.626 77.872 C 75.786 78.507,76.147 79.256,76.428 79.537 C 76.709 79.818,77.038 80.486,77.159 81.022 C 77.279 81.557,77.688 82.577,78.067 83.288 C 78.446 83.999,78.756 84.772,78.756 85.004 C 78.756 85.640,79.510 87.649,79.821 87.841 C 79.970 87.934,80.205 88.929,80.342 90.054 C 80.483 91.209,80.832 92.549,81.144 93.135 C 81.670 94.119,81.703 94.597,81.803 102.660 L 81.908 111.150 81.239 113.297 C 80.871 114.478,80.458 116.326,80.321 117.404 C 80.185 118.483,79.844 119.758,79.564 120.239 C 79.284 120.720,78.930 121.804,78.777 122.647 C 78.624 123.490,78.343 124.365,78.152 124.590 C 77.709 125.115,77.269 126.290,77.054 127.526 C 76.961 128.060,76.785 128.497,76.662 128.497 C 76.332 128.497,75.648 129.933,75.648 130.626 C 75.648 130.957,75.373 131.633,75.038 132.129 C 74.703 132.625,74.354 133.440,74.261 133.940 C 74.169 134.440,73.819 135.372,73.484 136.012 C 73.149 136.652,72.732 137.759,72.558 138.472 C 72.384 139.184,72.079 139.947,71.881 140.166 C 71.682 140.386,71.337 141.377,71.112 142.368 C 70.888 143.360,70.485 144.637,70.217 145.207 C 69.948 145.777,69.586 147.060,69.411 148.057 C 69.236 149.054,68.922 150.132,68.714 150.452 C 68.506 150.772,68.172 152.463,67.972 154.209 C 67.772 155.955,67.436 157.900,67.224 158.531 C 66.728 160.009,66.667 169.666,67.148 170.548 C 67.318 170.859,67.659 172.379,67.908 173.924 C 68.156 175.470,68.523 176.927,68.724 177.162 C 68.925 177.398,69.277 178.274,69.507 179.108 C 69.737 179.943,70.087 180.759,70.285 180.922 C 70.483 181.084,70.801 181.626,70.992 182.124 C 71.182 182.623,71.608 183.361,71.939 183.763 C 72.269 184.166,72.539 184.591,72.539 184.707 C 72.539 185.073,76.163 189.238,76.695 189.483 C 76.974 189.611,77.202 189.812,77.202 189.928 C 77.202 190.202,79.857 192.225,80.989 192.813 C 81.471 193.063,81.865 193.390,81.865 193.539 C 81.865 193.687,82.276 193.980,82.778 194.190 C 83.280 194.400,83.918 194.799,84.196 195.077 C 84.474 195.355,85.025 195.657,85.421 195.749 C 85.816 195.840,86.570 196.203,87.095 196.556 C 87.620 196.909,88.535 197.307,89.128 197.440 C 89.721 197.573,90.374 197.850,90.578 198.054 C 90.968 198.443,92.541 198.960,93.345 198.962 C 93.603 198.963,94.437 199.258,95.197 199.618 C 96.304 200.141,97.347 200.343,100.427 200.629 C 102.543 200.825,104.603 201.114,105.004 201.270 C 106.027 201.669,109.483 201.619,110.914 201.185 C 111.573 200.985,113.205 200.744,114.541 200.649 C 117.136 200.465,118.541 200.144,119.178 199.591 C 119.395 199.402,120.073 199.168,120.684 199.070 C 121.295 198.972,122.198 198.618,122.692 198.284 C 123.185 197.949,123.876 197.603,124.227 197.515 C 124.744 197.385,129.012 193.567,129.017 193.230 C 129.018 193.177,129.127 192.475,129.259 191.670 C 129.582 189.692,129.031 186.992,128.117 186.077 C 127.756 185.717,127.461 185.263,127.461 185.068 C 127.461 184.874,127.233 184.487,126.954 184.208 C 126.675 183.929,126.193 183.200,125.884 182.588 C 125.574 181.977,125.171 181.389,124.987 181.281 C 124.802 181.173,124.578 180.750,124.488 180.341 C 124.398 179.931,123.981 179.211,123.561 178.741 C 123.141 178.271,122.796 177.703,122.793 177.479 C 122.791 177.256,122.441 176.560,122.016 175.933 C 121.591 175.306,121.244 174.675,121.244 174.532 C 121.244 174.389,120.967 173.910,120.630 173.467 C 120.293 173.025,119.930 172.256,119.825 171.759 C 119.720 171.262,119.296 170.339,118.884 169.709 C 118.472 169.079,118.135 168.274,118.135 167.919 C 118.135 167.564,117.842 166.774,117.484 166.163 C 117.126 165.552,116.761 164.493,116.674 163.809 C 116.586 163.125,116.227 161.982,115.875 161.269 C 115.404 160.315,115.170 159.258,114.988 157.254 C 114.852 155.758,114.564 154.120,114.349 153.614 C 113.881 152.515,113.970 143.416,114.468 141.451 C 114.630 140.810,114.884 139.302,115.032 138.100 C 115.203 136.716,115.502 135.590,115.850 135.028 C 116.152 134.539,116.496 133.620,116.615 132.984 C 116.733 132.349,117.065 131.530,117.352 131.165 C 117.639 130.801,118.001 130.030,118.156 129.453 C 118.312 128.876,118.708 128.046,119.036 127.608 C 119.364 127.171,119.718 126.405,119.822 125.907 C 119.927 125.408,120.234 124.687,120.504 124.304 C 120.775 123.922,121.117 122.952,121.265 122.150 C 121.414 121.348,121.802 120.190,122.128 119.577 C 122.514 118.850,122.784 117.763,122.903 116.447 C 123.012 115.238,123.301 114.009,123.624 113.375 C 125.126 110.433,125.123 88.317,123.621 85.190 C 123.325 84.573,122.966 83.336,122.824 82.442 C 122.682 81.549,122.325 80.479,122.030 80.065 C 121.735 79.651,121.393 78.772,121.270 78.112 C 121.146 77.452,120.809 76.657,120.520 76.345 C 120.231 76.033,119.869 75.303,119.715 74.724 C 119.562 74.145,119.143 73.396,118.785 73.060 C 118.427 72.724,118.135 72.298,118.135 72.114 C 118.135 71.930,117.785 71.422,117.358 70.984 C 116.930 70.547,116.580 70.057,116.580 69.895 C 116.580 69.504,110.234 63.212,109.840 63.212 C 109.672 63.212,109.202 62.892,108.796 62.500 C 107.032 60.799,105.794 59.948,103.494 58.855 C 102.922 58.583,102.296 58.171,102.103 57.938 C 101.909 57.705,101.163 57.340,100.444 57.126 C 99.725 56.913,98.949 56.568,98.719 56.360 C 98.489 56.152,97.643 55.810,96.840 55.601 C 96.036 55.392,95.086 55.029,94.728 54.795 C 94.371 54.560,93.119 54.201,91.948 53.997 C 90.776 53.792,89.689 53.521,89.533 53.395 C 88.692 52.715,82.452 52.276,77.973 52.583 M182.895 52.595 C 181.342 52.714,179.998 52.976,179.268 53.303 C 178.631 53.589,177.563 53.901,176.896 53.997 C 176.230 54.093,175.414 54.382,175.083 54.640 C 174.752 54.897,174.087 55.311,173.605 55.558 C 170.786 57.004,169.198 61.171,171.066 62.217 C 171.284 62.339,171.655 63.020,171.892 63.732 C 172.128 64.444,172.435 65.026,172.574 65.026 C 172.713 65.026,173.059 65.551,173.343 66.192 C 173.626 66.833,173.952 67.358,174.066 67.358 C 174.180 67.358,174.482 67.820,174.737 68.386 C 174.993 68.952,175.415 69.608,175.677 69.845 C 175.939 70.082,176.399 70.785,176.701 71.407 C 177.002 72.030,177.339 72.539,177.449 72.539 C 177.559 72.539,177.846 73.053,178.086 73.682 C 178.326 74.310,178.686 74.887,178.885 74.964 C 179.084 75.040,179.368 75.546,179.516 76.088 C 179.663 76.629,180.078 77.411,180.436 77.825 C 180.795 78.239,181.088 78.842,181.088 79.165 C 181.088 79.489,181.396 80.119,181.772 80.566 C 182.149 81.014,182.557 81.925,182.681 82.594 C 182.805 83.262,183.139 84.125,183.424 84.513 C 183.709 84.900,184.120 86.063,184.337 87.098 C 184.555 88.132,184.914 89.254,185.135 89.592 C 185.356 89.929,185.707 91.505,185.915 93.094 C 186.123 94.682,186.474 96.258,186.695 96.596 C 187.005 97.069,187.128 98.256,187.230 101.778 C 187.361 106.322,187.221 107.976,186.414 111.399 C 186.195 112.325,185.903 114.016,185.765 115.155 C 185.626 116.295,185.280 117.694,184.995 118.264 C 184.711 118.834,184.360 120.045,184.217 120.954 C 184.073 121.864,183.794 122.797,183.597 123.027 C 183.144 123.557,182.926 124.165,182.629 125.727 C 182.498 126.412,182.218 127.146,182.005 127.358 C 181.793 127.571,181.442 128.341,181.225 129.071 C 181.009 129.800,180.666 130.582,180.465 130.807 C 180.263 131.033,179.901 131.900,179.660 132.735 C 179.419 133.569,178.942 134.663,178.601 135.167 C 178.259 135.671,177.979 136.388,177.979 136.761 C 177.979 137.134,177.702 137.963,177.364 138.603 C 177.025 139.243,176.613 140.403,176.448 141.181 C 176.283 141.959,175.986 142.775,175.788 142.995 C 175.591 143.214,175.229 144.385,174.985 145.596 C 174.740 146.807,174.323 148.204,174.058 148.701 C 173.792 149.197,173.575 149.946,173.575 150.364 C 173.575 151.596,173.019 154.478,172.636 155.231 C 171.644 157.183,171.643 172.091,172.635 173.626 C 172.848 173.954,173.195 175.150,173.407 176.283 C 173.620 177.424,173.965 178.471,174.180 178.628 C 174.394 178.784,174.650 179.347,174.750 179.879 C 174.850 180.411,175.210 181.257,175.551 181.760 C 175.892 182.262,176.405 183.132,176.692 183.694 C 176.978 184.255,177.313 184.715,177.435 184.715 C 177.557 184.715,177.801 185.061,177.976 185.484 C 178.151 185.906,178.515 186.322,178.784 186.408 C 179.054 186.493,179.275 186.675,179.275 186.812 C 179.275 187.065,180.563 188.564,181.447 189.339 C 181.716 189.574,182.231 190.087,182.591 190.479 C 182.951 190.871,183.393 191.192,183.573 191.192 C 183.753 191.192,184.129 191.483,184.410 191.839 C 184.690 192.196,185.019 192.488,185.141 192.490 C 185.263 192.491,185.859 192.886,186.465 193.369 C 187.071 193.851,187.858 194.318,188.214 194.407 C 188.569 194.496,188.860 194.681,188.860 194.817 C 188.860 195.148,190.256 195.855,190.910 195.855 C 191.196 195.855,191.639 196.072,191.894 196.338 C 192.485 196.954,193.358 197.408,193.960 197.413 C 194.218 197.415,194.722 197.583,195.078 197.786 C 196.443 198.564,197.324 198.885,198.556 199.052 C 199.258 199.148,200.016 199.385,200.240 199.580 C 200.820 200.084,202.819 200.463,205.906 200.655 C 207.373 200.746,208.889 200.985,209.274 201.186 C 210.216 201.678,214.529 201.683,215.634 201.193 C 216.083 200.994,217.866 200.718,219.595 200.578 C 222.099 200.376,223.033 200.186,224.178 199.644 C 224.969 199.270,225.862 198.964,226.163 198.964 C 226.822 198.964,228.238 198.266,228.238 197.941 C 228.238 197.813,228.617 197.581,229.080 197.425 C 230.724 196.872,233.617 194.141,234.210 192.583 C 234.725 191.227,234.338 187.306,233.689 187.306 C 233.579 187.306,233.296 186.799,233.060 186.179 C 232.823 185.559,232.341 184.781,231.988 184.450 C 231.636 184.119,231.347 183.693,231.347 183.504 C 231.347 183.315,231.119 182.933,230.841 182.654 C 230.562 182.376,230.096 181.624,229.804 180.983 C 229.512 180.342,229.121 179.725,228.935 179.611 C 228.749 179.497,228.447 179.033,228.264 178.580 C 228.081 178.126,227.650 177.375,227.307 176.910 C 226.965 176.445,226.684 175.872,226.684 175.636 C 226.684 175.400,226.336 174.694,225.911 174.067 C 225.487 173.440,225.137 172.740,225.134 172.510 C 225.132 172.281,224.837 171.662,224.480 171.136 C 224.123 170.609,223.723 169.700,223.592 169.116 C 223.460 168.531,223.109 167.723,222.812 167.321 C 222.514 166.919,222.201 166.034,222.115 165.354 C 222.029 164.675,221.687 163.641,221.354 163.058 C 220.958 162.362,220.652 161.211,220.467 159.722 C 220.299 158.365,219.957 157.017,219.620 156.379 C 218.731 154.697,218.741 141.850,219.634 139.508 C 219.959 138.653,220.339 137.156,220.478 136.182 C 220.618 135.198,221.006 133.931,221.350 133.332 C 221.691 132.739,222.055 131.846,222.160 131.347 C 222.264 130.848,222.625 130.034,222.962 129.538 C 223.299 129.042,223.575 128.457,223.575 128.238 C 223.575 128.020,223.868 127.410,224.226 126.883 C 224.583 126.357,225.023 125.368,225.202 124.686 C 225.381 124.004,225.721 123.154,225.956 122.798 C 226.192 122.442,226.529 121.392,226.706 120.466 C 226.883 119.540,227.236 118.374,227.490 117.876 C 227.744 117.377,228.089 115.920,228.257 114.637 C 228.425 113.355,228.794 111.606,229.078 110.751 C 230.089 107.707,229.993 88.613,228.961 87.369 C 228.803 87.180,228.464 85.785,228.206 84.271 C 227.948 82.756,227.634 81.450,227.508 81.367 C 227.117 81.111,226.752 80.227,226.561 79.075 C 226.460 78.467,226.188 77.780,225.957 77.548 C 225.725 77.317,225.332 76.548,225.083 75.840 C 224.833 75.131,224.463 74.420,224.260 74.258 C 224.057 74.096,223.759 73.544,223.596 73.030 C 223.434 72.517,223.013 71.826,222.661 71.496 C 222.309 71.165,222.021 70.748,222.021 70.569 C 222.021 70.391,221.745 70.028,221.408 69.763 C 221.071 69.498,220.719 69.041,220.626 68.747 C 220.533 68.454,220.177 68.086,219.836 67.931 C 219.495 67.775,219.142 67.414,219.051 67.127 C 218.960 66.841,218.651 66.532,218.365 66.442 C 218.078 66.351,217.716 65.995,217.559 65.651 C 217.403 65.307,217.180 65.026,217.066 65.026 C 216.951 65.026,216.514 64.705,216.094 64.313 C 214.914 63.212,213.936 62.411,213.219 61.958 C 212.859 61.730,212.157 61.231,211.658 60.850 C 211.159 60.468,210.489 60.078,210.168 59.983 C 209.848 59.888,209.585 59.695,209.585 59.554 C 209.585 59.413,208.955 59.019,208.184 58.678 C 207.414 58.338,206.713 57.945,206.627 57.806 C 206.541 57.666,205.898 57.362,205.198 57.130 C 204.498 56.898,203.798 56.553,203.642 56.365 C 203.486 56.177,202.806 55.881,202.132 55.708 C 201.458 55.535,200.324 55.115,199.611 54.775 C 198.899 54.434,197.466 54.037,196.428 53.891 C 195.390 53.745,194.282 53.457,193.967 53.251 C 193.489 52.937,186.714 52.224,185.622 52.372 C 185.479 52.391,184.252 52.492,182.895 52.595 M283.116 52.611 C 281.522 52.743,280.184 53.013,279.438 53.352 C 278.794 53.646,278.045 53.886,277.773 53.886 C 275.704 53.886,271.477 56.978,270.970 58.864 C 270.684 59.923,271.207 62.611,271.766 62.956 C 271.925 63.055,272.334 63.736,272.674 64.469 C 273.014 65.203,273.391 65.803,273.511 65.803 C 273.632 65.803,273.879 66.215,274.061 66.718 C 274.243 67.221,274.674 67.937,275.020 68.310 C 275.365 68.683,275.648 69.137,275.648 69.320 C 275.648 69.502,275.921 69.867,276.256 70.130 C 276.591 70.393,277.002 71.026,277.170 71.536 C 277.338 72.045,277.764 72.733,278.116 73.064 C 278.468 73.395,278.760 73.849,278.764 74.074 C 278.768 74.298,279.111 74.931,279.526 75.480 C 279.941 76.028,280.352 76.800,280.438 77.193 C 280.525 77.587,280.809 78.138,281.069 78.418 C 281.330 78.697,281.630 79.208,281.736 79.554 C 281.843 79.899,282.265 80.823,282.674 81.606 C 283.084 82.390,283.419 83.221,283.419 83.453 C 283.420 84.077,284.166 85.751,284.444 85.751 C 284.575 85.751,284.758 86.305,284.849 86.982 C 285.086 88.744,285.709 90.875,286.016 90.978 C 286.160 91.026,286.399 92.289,286.547 93.784 C 286.695 95.279,286.938 97.202,287.088 98.057 C 287.504 100.431,287.645 105.914,287.327 107.383 C 287.173 108.096,286.869 110.303,286.651 112.288 C 286.433 114.273,286.133 116.044,285.984 116.224 C 285.643 116.635,284.981 119.084,284.977 119.952 C 284.975 120.310,284.737 121.047,284.446 121.589 C 284.156 122.130,283.736 123.294,283.513 124.175 C 283.290 125.056,282.961 125.952,282.782 126.166 C 282.359 126.671,281.865 128.152,281.865 128.915 C 281.865 129.244,281.648 129.722,281.382 129.977 C 280.721 130.611,280.311 131.454,280.311 132.177 C 280.311 132.509,280.022 133.206,279.669 133.725 C 279.317 134.244,278.911 135.175,278.769 135.793 C 278.626 136.411,278.216 137.491,277.856 138.192 C 277.496 138.893,277.202 139.746,277.202 140.088 C 277.202 140.431,276.917 141.198,276.569 141.793 C 276.221 142.389,275.821 143.597,275.680 144.478 C 275.538 145.359,275.236 146.365,275.008 146.713 C 274.780 147.061,274.416 148.555,274.199 150.033 C 273.982 151.511,273.589 153.187,273.326 153.756 C 272.085 156.444,272.128 173.157,273.381 175.150 C 273.598 175.495,273.919 176.418,274.093 177.202 C 274.268 177.986,274.672 179.093,274.992 179.663 C 275.312 180.233,275.649 181.011,275.740 181.392 C 275.832 181.773,276.172 182.414,276.496 182.817 C 276.820 183.220,277.248 183.870,277.447 184.262 C 277.645 184.653,277.902 184.974,278.016 184.974 C 278.131 184.974,278.396 185.305,278.605 185.709 C 279.096 186.659,283.095 190.778,283.938 191.202 C 284.294 191.381,284.819 191.747,285.104 192.016 C 286.130 192.981,287.508 194.041,287.737 194.041 C 287.866 194.041,288.588 194.439,289.343 194.925 C 290.097 195.411,290.994 195.879,291.335 195.965 C 291.676 196.050,292.368 196.400,292.872 196.743 C 293.377 197.085,294.254 197.443,294.822 197.539 C 295.390 197.635,295.855 197.823,295.855 197.957 C 295.855 198.298,297.014 198.705,298.831 199.001 C 299.684 199.140,300.560 199.415,300.778 199.612 C 301.349 200.129,303.080 200.446,306.477 200.655 C 308.216 200.763,309.533 200.961,309.641 201.132 C 309.945 201.615,314.542 201.668,316.124 201.207 C 316.874 200.988,318.825 200.686,320.460 200.536 C 322.684 200.331,323.761 200.102,324.735 199.627 C 325.450 199.278,326.401 198.922,326.846 198.835 C 327.292 198.748,328.043 198.392,328.516 198.043 C 328.989 197.695,329.502 197.409,329.656 197.409 C 329.810 197.409,330.313 197.089,330.773 196.697 C 331.234 196.305,331.992 195.675,332.458 195.296 C 332.925 194.917,333.472 194.276,333.675 193.871 C 333.878 193.466,334.246 192.901,334.494 192.615 C 335.194 191.809,335.163 188.083,334.457 188.083 C 334.337 188.083,334.033 187.529,333.780 186.852 C 333.527 186.176,332.993 185.216,332.593 184.721 C 332.193 184.225,331.865 183.678,331.865 183.505 C 331.865 183.332,331.661 183.038,331.412 182.851 C 331.163 182.665,330.698 181.959,330.379 181.282 C 330.060 180.606,329.693 180.052,329.562 180.052 C 329.432 180.052,329.195 179.678,329.036 179.221 C 328.876 178.764,328.533 178.152,328.273 177.861 C 328.012 177.570,327.597 176.807,327.349 176.166 C 327.102 175.525,326.750 174.825,326.568 174.611 C 326.386 174.398,326.031 173.671,325.779 172.996 C 325.527 172.321,325.164 171.639,324.973 171.480 C 324.782 171.321,324.546 170.772,324.450 170.259 C 324.354 169.746,323.943 168.802,323.537 168.162 C 323.130 167.521,322.798 166.638,322.798 166.199 C 322.798 165.760,322.452 164.705,322.029 163.854 C 321.606 163.002,321.256 161.887,321.252 161.376 C 321.247 160.864,320.907 159.465,320.496 158.267 C 319.164 154.382,319.134 140.176,320.453 137.592 C 320.733 137.041,321.075 135.897,321.212 135.048 C 321.350 134.187,321.742 133.090,322.098 132.565 C 322.449 132.048,322.814 131.109,322.908 130.479 C 323.003 129.850,323.309 129.127,323.589 128.874 C 323.869 128.620,324.233 127.937,324.399 127.354 C 324.564 126.772,324.903 126.062,325.153 125.777 C 325.402 125.492,325.686 124.793,325.785 124.223 C 325.884 123.653,326.228 122.720,326.550 122.150 C 326.872 121.580,327.274 120.310,327.442 119.327 C 327.611 118.344,327.959 117.120,328.215 116.607 C 328.482 116.073,328.816 114.455,328.996 112.824 C 329.169 111.256,329.477 109.447,329.682 108.803 C 330.735 105.488,330.811 91.252,329.782 90.013 C 329.651 89.855,329.359 88.394,329.133 86.767 C 328.907 85.140,328.505 83.342,328.240 82.772 C 327.975 82.202,327.557 80.949,327.312 79.987 C 327.067 79.025,326.775 78.238,326.664 78.238 C 326.553 78.238,326.216 77.581,325.915 76.777 C 325.614 75.973,325.140 75.024,324.860 74.669 C 324.581 74.314,324.352 73.826,324.352 73.585 C 324.352 73.344,324.061 72.874,323.705 72.539 C 323.348 72.204,323.057 71.776,323.057 71.588 C 323.057 71.399,322.649 70.793,322.150 70.241 C 321.652 69.689,321.244 69.143,321.244 69.028 C 321.244 68.700,316.183 63.831,315.299 63.309 C 314.864 63.052,314.508 62.760,314.508 62.661 C 314.508 62.500,313.815 62.015,311.045 60.241 C 310.607 59.960,310.047 59.529,309.801 59.283 C 309.555 59.037,308.893 58.712,308.330 58.560 C 307.768 58.409,307.248 58.130,307.176 57.942 C 307.103 57.754,306.401 57.397,305.616 57.150 C 304.830 56.903,304.130 56.552,304.060 56.370 C 303.990 56.188,303.369 55.894,302.679 55.716 C 301.989 55.539,300.842 55.117,300.130 54.780 C 299.417 54.442,298.193 54.087,297.409 53.990 C 296.626 53.893,295.437 53.601,294.767 53.341 C 293.755 52.948,287.063 52.217,285.881 52.370 C 285.738 52.389,284.494 52.497,283.116 52.611 " stroke="none" fill="#ffffff" fill-rule="evenodd"></path></g></svg>