<svg id="svg" version="1.1" xmlns="http://www.w3.org/2000/svg" xmlns:xlink="http://www.w3.org/1999/xlink" width="400" height="258.91472868217056" viewBox="0, 0, 400,258.91472868217056"><g id="svgg"><path id="path0" d="M177.970 44.415 C 177.467 44.601,176.068 44.885,174.862 45.047 C 173.624 45.214,172.104 45.614,171.373 45.967 C 170.661 46.311,169.729 46.669,169.302 46.763 C 166.003 47.486,160.414 53.154,159.712 56.489 C 158.899 60.357,160.336 67.372,162.207 68.658 C 162.314 68.732,162.645 69.315,162.941 69.953 C 163.462 71.077,164.026 71.960,165.404 73.811 C 165.766 74.297,166.062 74.833,166.062 75.002 C 166.062 75.170,166.308 75.530,166.608 75.802 C 166.909 76.073,167.440 76.820,167.790 77.461 C 169.190 80.030,169.748 80.976,170.079 81.347 C 170.270 81.561,170.509 82.085,170.610 82.513 C 170.711 82.940,171.063 83.653,171.393 84.097 C 171.723 84.540,172.074 85.240,172.172 85.651 C 172.270 86.062,172.684 87.123,173.092 88.007 C 173.500 88.892,173.834 89.829,173.834 90.090 C 173.834 90.350,174.174 91.550,174.590 92.756 C 175.114 94.276,175.403 95.738,175.532 97.525 C 175.634 98.943,175.876 100.484,176.071 100.950 C 176.479 101.927,176.507 103.964,176.137 105.829 C 175.996 106.541,175.724 108.465,175.534 110.104 C 175.343 111.742,174.883 114.014,174.511 115.152 C 174.139 116.290,173.834 117.437,173.834 117.700 C 173.834 117.962,173.484 118.974,173.057 119.948 C 172.630 120.922,172.276 121.933,172.272 122.194 C 172.267 122.455,171.917 123.365,171.494 124.216 C 171.071 125.067,170.725 125.955,170.725 126.188 C 170.725 126.420,170.391 127.239,169.982 128.008 C 169.573 128.776,169.153 129.796,169.048 130.274 C 168.944 130.752,168.579 131.556,168.238 132.059 C 167.896 132.562,167.617 133.221,167.617 133.523 C 167.617 133.825,167.325 134.619,166.969 135.289 C 166.612 135.958,166.190 137.123,166.030 137.877 C 165.870 138.632,165.516 139.691,165.242 140.231 C 164.969 140.771,164.628 141.847,164.485 142.622 C 164.342 143.396,163.996 144.548,163.716 145.180 C 163.436 145.813,163.079 147.302,162.921 148.489 C 162.764 149.676,162.473 151.043,162.275 151.525 C 160.684 155.392,160.611 173.884,162.174 176.971 C 162.435 177.485,162.731 178.568,162.832 179.377 C 162.939 180.236,163.267 181.219,163.621 181.740 C 163.954 182.231,164.348 183.085,164.497 183.640 C 164.646 184.194,164.985 184.925,165.250 185.264 C 165.515 185.603,165.822 186.170,165.933 186.522 C 166.156 187.232,167.480 189.318,168.508 190.580 C 168.873 191.027,169.171 191.460,169.171 191.543 C 169.171 191.889,173.729 196.593,175.232 197.798 C 175.765 198.225,176.560 198.896,176.999 199.288 C 177.438 199.679,177.934 200.000,178.101 200.000 C 178.268 200.000,178.796 200.350,179.275 200.777 C 179.753 201.205,180.259 201.554,180.398 201.554 C 180.537 201.554,181.048 201.857,181.533 202.227 C 182.018 202.597,182.824 203.013,183.323 203.151 C 183.822 203.289,184.450 203.621,184.718 203.889 C 184.986 204.157,185.663 204.500,186.222 204.650 C 186.781 204.801,187.529 205.153,187.884 205.432 C 188.240 205.712,189.100 206.068,189.796 206.223 C 190.492 206.378,191.438 206.726,191.898 206.997 C 192.357 207.267,193.454 207.618,194.334 207.778 C 195.215 207.938,196.529 208.290,197.255 208.561 C 201.385 210.102,219.305 210.206,222.234 208.706 C 222.615 208.510,223.802 208.143,224.870 207.890 C 225.939 207.637,227.106 207.227,227.464 206.980 C 227.821 206.733,228.603 206.399,229.201 206.238 C 229.798 206.077,230.446 205.787,230.639 205.593 C 230.833 205.400,231.450 205.007,232.011 204.721 C 232.572 204.434,233.253 203.955,233.525 203.655 C 233.796 203.354,234.165 203.109,234.345 203.109 C 235.134 203.109,237.634 200.232,238.622 198.187 C 238.932 197.545,239.310 196.942,239.461 196.845 C 240.798 195.994,241.027 187.011,239.771 184.729 C 239.570 184.365,239.104 183.430,238.734 182.651 C 238.364 181.872,237.966 181.173,237.848 181.097 C 237.731 181.021,237.381 180.492,237.071 179.922 C 236.493 178.859,235.643 177.569,234.766 176.425 C 234.493 176.069,234.182 175.486,234.075 175.130 C 233.967 174.773,233.617 174.190,233.296 173.834 C 232.975 173.478,232.585 172.802,232.428 172.333 C 232.271 171.864,231.924 171.164,231.655 170.779 C 231.387 170.393,231.037 169.694,230.878 169.224 C 230.719 168.755,230.366 168.055,230.094 167.670 C 229.821 167.284,229.515 166.561,229.413 166.062 C 229.311 165.563,228.965 164.747,228.643 164.249 C 228.322 163.750,227.978 162.905,227.878 162.371 C 227.779 161.837,227.418 160.798,227.077 160.062 C 226.736 159.326,226.382 157.956,226.290 157.017 C 226.197 156.079,226.002 154.903,225.856 154.404 C 224.846 150.956,224.668 146.727,225.400 143.523 C 225.709 142.169,226.075 140.363,226.215 139.508 C 226.354 138.653,226.736 137.487,227.063 136.917 C 227.390 136.347,227.745 135.473,227.853 134.974 C 227.961 134.475,228.325 133.661,228.662 133.165 C 228.999 132.669,229.275 132.144,229.275 131.999 C 229.276 131.854,229.684 130.926,230.182 129.937 C 230.680 128.948,231.088 127.924,231.088 127.662 C 231.088 127.399,231.365 126.635,231.704 125.963 C 232.043 125.291,232.407 124.216,232.513 123.575 C 232.618 122.934,232.935 121.955,233.217 121.399 C 233.498 120.844,233.883 119.387,234.071 118.161 C 234.259 116.935,234.608 115.233,234.845 114.378 C 236.484 108.482,236.484 90.565,234.845 84.715 C 234.506 83.504,234.147 81.872,234.047 81.088 C 233.948 80.304,233.600 79.132,233.275 78.483 C 232.951 77.834,232.601 76.843,232.498 76.281 C 232.396 75.719,232.092 74.946,231.824 74.564 C 231.556 74.181,231.166 73.387,230.959 72.798 C 230.751 72.210,230.353 71.439,230.075 71.085 C 229.797 70.731,229.497 70.112,229.409 69.709 C 229.320 69.307,228.962 68.709,228.614 68.381 C 228.265 68.053,227.979 67.635,227.979 67.451 C 227.979 67.267,227.647 66.734,227.240 66.265 C 226.833 65.797,226.363 65.152,226.195 64.832 C 225.795 64.071,225.375 63.612,222.072 60.326 C 218.393 56.667,217.965 56.281,217.383 56.096 C 217.110 56.010,216.824 55.774,216.747 55.574 C 216.670 55.373,216.222 55.011,215.752 54.770 C 215.281 54.529,214.513 53.999,214.045 53.591 C 213.577 53.183,213.071 52.850,212.921 52.850 C 212.770 52.850,212.337 52.608,211.958 52.313 C 210.954 51.531,208.468 50.113,207.527 49.785 C 207.079 49.629,206.397 49.281,206.012 49.013 C 205.626 48.744,204.728 48.381,204.016 48.206 C 203.303 48.032,202.545 47.737,202.332 47.551 C 202.118 47.366,201.535 47.089,201.036 46.935 C 200.538 46.782,199.547 46.469,198.834 46.240 C 197.232 45.724,194.780 45.197,192.228 44.819 C 191.159 44.660,189.927 44.421,189.489 44.286 C 188.259 43.908,179.068 44.011,177.970 44.415 M190.285 51.795 C 190.712 51.969,192.273 52.335,193.752 52.608 C 195.232 52.880,196.573 53.209,196.732 53.338 C 196.891 53.467,197.778 53.812,198.705 54.104 C 199.631 54.396,200.962 54.933,201.663 55.297 C 202.364 55.661,203.147 55.959,203.403 55.959 C 203.659 55.959,204.197 56.279,204.600 56.671 C 205.002 57.063,205.618 57.577,205.969 57.814 L 206.606 58.245 205.643 58.656 C 204.095 59.317,168.403 59.277,167.808 58.614 C 166.839 57.535,168.595 55.443,171.625 54.068 C 172.191 53.811,172.720 53.493,172.801 53.362 C 172.883 53.231,174.168 52.822,175.658 52.453 C 177.149 52.084,178.718 51.677,179.145 51.550 C 180.285 51.210,189.340 51.409,190.285 51.795 M217.855 66.580 C 219.678 68.472,221.199 70.422,221.879 71.737 C 222.130 72.223,222.547 72.848,222.807 73.126 C 223.189 73.537,223.225 73.750,222.997 74.252 L 222.715 74.870 199.070 74.870 L 175.425 74.870 174.500 73.998 C 173.991 73.518,173.575 72.891,173.575 72.605 C 173.575 72.318,173.399 71.938,173.184 71.759 C 172.720 71.375,170.466 68.029,170.466 67.725 C 170.466 67.610,170.155 67.191,169.775 66.794 C 169.168 66.160,169.120 65.991,169.383 65.414 L 169.683 64.756 192.958 64.826 L 216.233 64.896 217.855 66.580 M226.863 83.420 C 228.130 87.045,228.790 93.194,228.012 94.131 C 227.448 94.811,183.700 94.787,183.102 94.106 C 182.612 93.549,181.461 90.185,181.217 88.601 C 181.119 87.960,180.857 87.150,180.636 86.802 C 180.414 86.454,180.028 85.521,179.777 84.729 C 179.526 83.938,179.172 82.921,178.990 82.469 C 178.283 80.716,176.734 80.819,202.671 80.892 L 226.002 80.959 226.863 83.420 M228.449 101.046 C 229.064 101.620,229.153 102.397,228.769 103.856 C 228.634 104.371,228.376 106.245,228.197 108.021 C 227.721 112.721,230.722 112.176,205.317 112.176 L 183.691 112.176 183.310 111.593 C 182.996 111.114,182.971 110.573,183.167 108.549 C 183.298 107.196,183.409 105.076,183.413 103.840 C 183.424 100.154,180.908 100.518,206.333 100.518 C 227.661 100.518,227.887 100.524,228.449 101.046 M224.926 118.146 C 226.231 118.508,226.248 118.580,225.514 120.739 C 225.160 121.779,224.870 122.873,224.870 123.171 C 224.870 123.469,224.623 124.173,224.322 124.736 C 224.020 125.300,223.612 126.303,223.415 126.966 C 223.218 127.629,222.635 128.652,222.119 129.241 L 221.181 130.311 200.034 130.303 C 182.127 130.296,178.811 130.238,178.398 129.925 C 177.745 129.431,177.927 127.781,178.849 125.832 C 179.224 125.039,179.695 123.712,179.897 122.882 C 180.242 121.460,181.344 118.914,181.925 118.199 C 182.267 117.778,223.417 117.727,224.926 118.146 M218.438 136.439 C 218.982 136.931,219.036 137.910,218.632 139.926 C 218.092 142.617,217.829 144.447,217.706 146.373 C 217.506 149.512,219.958 149.211,194.560 149.216 C 168.105 149.221,169.775 149.478,171.335 145.640 C 171.670 144.814,172.028 143.680,172.131 143.119 C 172.233 142.558,172.587 141.516,172.917 140.803 C 173.247 140.091,173.598 139.019,173.696 138.422 C 173.874 137.343,174.157 136.961,175.222 136.370 C 176.212 135.820,217.828 135.887,218.438 136.439 M217.413 155.192 C 218.435 155.476,218.892 156.376,218.922 158.161 C 218.929 158.588,219.110 159.404,219.324 159.974 C 220.014 161.810,220.461 163.329,220.467 163.860 C 220.471 164.145,220.642 164.670,220.848 165.026 C 221.650 166.416,221.735 166.784,221.476 167.724 L 221.219 168.653 195.428 168.653 L 169.637 168.653 168.756 167.772 C 167.727 166.743,167.606 165.460,168.241 162.306 C 168.442 161.308,168.686 159.443,168.784 158.161 C 169.061 154.526,166.085 154.922,193.110 154.924 C 208.343 154.925,216.785 155.018,217.413 155.192 M225.190 175.277 C 225.714 175.786,226.222 176.454,226.320 176.761 C 226.417 177.068,226.860 177.861,227.303 178.523 C 227.746 179.185,228.342 180.117,228.627 180.594 C 228.912 181.070,229.378 181.821,229.663 182.261 C 232.779 187.074,236.146 186.548,202.699 186.467 L 174.655 186.399 174.115 185.776 C 173.818 185.434,173.572 185.026,173.568 184.870 C 173.564 184.713,173.214 184.128,172.791 183.568 C 172.367 183.008,172.021 182.365,172.021 182.138 C 172.021 181.912,171.735 181.306,171.386 180.793 C 171.037 180.279,170.677 179.524,170.585 179.114 C 170.492 178.703,170.226 177.843,169.993 177.202 C 169.505 175.863,169.549 175.137,170.146 174.676 C 170.475 174.422,176.329 174.352,197.402 174.352 L 224.238 174.352 225.190 175.277 M232.342 192.826 C 232.956 193.566,231.418 196.130,229.728 197.185 C 229.194 197.518,228.756 197.865,228.756 197.957 C 228.756 198.048,228.144 198.383,227.396 198.701 C 226.648 199.019,225.861 199.431,225.648 199.617 C 225.434 199.802,224.560 200.155,223.705 200.402 C 222.850 200.649,221.916 201.004,221.630 201.192 C 218.873 202.995,201.956 202.963,198.057 201.147 C 197.630 200.948,196.353 200.549,195.221 200.260 C 194.089 199.972,193.098 199.638,193.019 199.518 C 192.940 199.398,192.098 199.043,191.147 198.729 C 190.196 198.414,189.287 198.000,189.128 197.809 C 188.969 197.617,188.523 197.382,188.137 197.287 C 187.438 197.115,185.053 195.638,184.067 194.767 C 183.782 194.515,183.199 194.024,182.772 193.675 L 181.995 193.042 182.642 192.781 C 183.708 192.352,231.985 192.396,232.342 192.826 " stroke="none" fill="#1ca759" fill-rule="evenodd"></path><path id="path1" d="M0.000 129.534 L 0.000 259.067 200.000 259.067 L 400.000 259.067 400.000 129.534 L 400.000 0.000 200.000 0.000 L 0.000 0.000 0.000 129.534 M189.489 44.286 C 189.927 44.421,191.159 44.660,192.228 44.819 C 194.780 45.197,197.232 45.724,198.834 46.240 C 199.547 46.469,200.538 46.782,201.036 46.935 C 201.535 47.089,202.118 47.366,202.332 47.551 C 202.545 47.737,203.303 48.032,204.016 48.206 C 204.728 48.381,205.626 48.744,206.012 49.013 C 206.397 49.281,207.079 49.629,207.527 49.785 C 208.468 50.113,210.954 51.531,211.958 52.313 C 212.337 52.608,212.770 52.850,212.921 52.850 C 213.071 52.850,213.577 53.183,214.045 53.591 C 214.513 53.999,215.281 54.529,215.752 54.770 C 216.222 55.011,216.670 55.373,216.747 55.574 C 216.824 55.774,217.110 56.010,217.383 56.096 C 217.965 56.281,218.393 56.667,222.072 60.326 C 225.375 63.612,225.795 64.071,226.195 64.832 C 226.363 65.152,226.833 65.797,227.240 66.265 C 227.647 66.734,227.979 67.267,227.979 67.451 C 227.979 67.635,228.265 68.053,228.614 68.381 C 228.962 68.709,229.320 69.307,229.409 69.709 C 229.497 70.112,229.797 70.731,230.075 71.085 C 230.353 71.439,230.751 72.210,230.959 72.798 C 231.166 73.387,231.556 74.181,231.824 74.564 C 232.092 74.946,232.396 75.719,232.498 76.281 C 232.601 76.843,232.951 77.834,233.275 78.483 C 233.600 79.132,233.948 80.304,234.047 81.088 C 234.147 81.872,234.506 83.504,234.845 84.715 C 236.484 90.565,236.484 108.482,234.845 114.378 C 234.608 115.233,234.259 116.935,234.071 118.161 C 233.883 119.387,233.498 120.844,233.217 121.399 C 232.935 121.955,232.618 122.934,232.513 123.575 C 232.407 124.216,232.043 125.291,231.704 125.963 C 231.365 126.635,231.088 127.399,231.088 127.662 C 231.088 127.924,230.680 128.948,230.182 129.937 C 229.684 130.926,229.276 131.854,229.275 131.999 C 229.275 132.144,228.999 132.669,228.662 133.165 C 228.325 133.661,227.961 134.475,227.853 134.974 C 227.745 135.473,227.390 136.347,227.063 136.917 C 226.736 137.487,226.354 138.653,226.215 139.508 C 226.075 140.363,225.709 142.169,225.400 143.523 C 224.668 146.727,224.846 150.956,225.856 154.404 C 226.002 154.903,226.197 156.079,226.290 157.017 C 226.382 157.956,226.736 159.326,227.077 160.062 C 227.418 160.798,227.779 161.837,227.878 162.371 C 227.978 162.905,228.322 163.750,228.643 164.249 C 228.965 164.747,229.311 165.563,229.413 166.062 C 229.515 166.561,229.821 167.284,230.094 167.670 C 230.366 168.055,230.719 168.755,230.878 169.224 C 231.037 169.694,231.387 170.393,231.655 170.779 C 231.924 171.164,232.271 171.864,232.428 172.333 C 232.585 172.802,232.975 173.478,233.296 173.834 C 233.617 174.190,233.967 174.773,234.075 175.130 C 234.182 175.486,234.493 176.069,234.766 176.425 C 235.643 177.569,236.493 178.859,237.071 179.922 C 237.381 180.492,237.731 181.021,237.848 181.097 C 237.966 181.173,238.364 181.872,238.734 182.651 C 239.104 183.430,239.570 184.365,239.771 184.729 C 241.027 187.011,240.798 195.994,239.461 196.845 C 239.310 196.942,238.932 197.545,238.622 198.187 C 237.634 200.232,235.134 203.109,234.345 203.109 C 234.165 203.109,233.796 203.354,233.525 203.655 C 233.253 203.955,232.572 204.434,232.011 204.721 C 231.450 205.007,230.833 205.400,230.639 205.593 C 230.446 205.787,229.798 206.077,229.201 206.238 C 228.603 206.399,227.821 206.733,227.464 206.980 C 227.106 207.227,225.939 207.637,224.870 207.890 C 223.802 208.143,222.615 208.510,222.234 208.706 C 219.305 210.206,201.385 210.102,197.255 208.561 C 196.529 208.290,195.215 207.938,194.334 207.778 C 193.454 207.618,192.357 207.267,191.898 206.997 C 191.438 206.726,190.492 206.378,189.796 206.223 C 189.100 206.068,188.240 205.712,187.884 205.432 C 187.529 205.153,186.781 204.801,186.222 204.650 C 185.663 204.500,184.986 204.157,184.718 203.889 C 184.450 203.621,183.822 203.289,183.323 203.151 C 182.824 203.013,182.018 202.597,181.533 202.227 C 181.048 201.857,180.537 201.554,180.398 201.554 C 180.259 201.554,179.753 201.205,179.275 200.777 C 178.796 200.350,178.268 200.000,178.101 200.000 C 177.934 200.000,177.438 199.679,176.999 199.288 C 176.560 198.896,175.765 198.225,175.232 197.798 C 173.729 196.593,169.171 191.889,169.171 191.543 C 169.171 191.460,168.873 191.027,168.508 190.580 C 167.480 189.318,166.156 187.232,165.933 186.522 C 165.822 186.170,165.515 185.603,165.250 185.264 C 164.985 184.925,164.646 184.194,164.497 183.640 C 164.348 183.085,163.954 182.231,163.621 181.740 C 163.267 181.219,162.939 180.236,162.832 179.377 C 162.731 178.568,162.435 177.485,162.174 176.971 C 160.611 173.884,160.684 155.392,162.275 151.525 C 162.473 151.043,162.764 149.676,162.921 148.489 C 163.079 147.302,163.436 145.813,163.716 145.180 C 163.996 144.548,164.342 143.396,164.485 142.622 C 164.628 141.847,164.969 140.771,165.242 140.231 C 165.516 139.691,165.870 138.632,166.030 137.877 C 166.190 137.123,166.612 135.958,166.969 135.289 C 167.325 134.619,167.617 133.825,167.617 133.523 C 167.617 133.221,167.896 132.562,168.238 132.059 C 168.579 131.556,168.944 130.752,169.048 130.274 C 169.153 129.796,169.573 128.776,169.982 128.008 C 170.391 127.239,170.725 126.420,170.725 126.188 C 170.725 125.955,171.071 125.067,171.494 124.216 C 171.917 123.365,172.267 122.455,172.272 122.194 C 172.276 121.933,172.630 120.922,173.057 119.948 C 173.484 118.974,173.834 117.962,173.834 117.700 C 173.834 117.437,174.139 116.290,174.511 115.152 C 174.883 114.014,175.343 111.742,175.534 110.104 C 175.724 108.465,175.996 106.541,176.137 105.829 C 176.507 103.964,176.479 101.927,176.071 100.950 C 175.876 100.484,175.634 98.943,175.532 97.525 C 175.403 95.738,175.114 94.276,174.590 92.756 C 174.174 91.550,173.834 90.350,173.834 90.090 C 173.834 89.829,173.500 88.892,173.092 88.007 C 172.684 87.123,172.270 86.062,172.172 85.651 C 172.074 85.240,171.723 84.540,171.393 84.097 C 171.063 83.653,170.711 82.940,170.610 82.513 C 170.509 82.085,170.270 81.561,170.079 81.347 C 169.748 80.976,169.190 80.030,167.790 77.461 C 167.440 76.820,166.909 76.073,166.608 75.802 C 166.308 75.530,166.062 75.170,166.062 75.002 C 166.062 74.833,165.766 74.297,165.404 73.811 C 164.026 71.960,163.462 71.077,162.941 69.953 C 162.645 69.315,162.314 68.732,162.207 68.658 C 160.336 67.372,158.899 60.357,159.712 56.489 C 160.414 53.154,166.003 47.486,169.302 46.763 C 169.729 46.669,170.661 46.311,171.373 45.967 C 172.104 45.614,173.624 45.214,174.862 45.047 C 176.068 44.885,177.467 44.601,177.970 44.415 C 179.068 44.011,188.259 43.908,189.489 44.286 M179.145 51.550 C 178.718 51.677,177.149 52.084,175.658 52.453 C 174.168 52.822,172.883 53.231,172.801 53.362 C 172.720 53.493,172.191 53.811,171.625 54.068 C 168.595 55.443,166.839 57.535,167.808 58.614 C 168.403 59.277,204.095 59.317,205.643 58.656 L 206.606 58.245 205.969 57.814 C 205.618 57.577,205.002 57.063,204.600 56.671 C 204.197 56.279,203.659 55.959,203.403 55.959 C 203.147 55.959,202.364 55.661,201.663 55.297 C 200.962 54.933,199.631 54.396,198.705 54.104 C 197.778 53.812,196.891 53.467,196.732 53.338 C 196.573 53.209,195.232 52.880,193.752 52.608 C 192.273 52.335,190.712 51.969,190.285 51.795 C 189.340 51.409,180.285 51.210,179.145 51.550 M169.383 65.414 C 169.120 65.991,169.168 66.160,169.775 66.794 C 170.155 67.191,170.466 67.610,170.466 67.725 C 170.466 68.029,172.720 71.375,173.184 71.759 C 173.399 71.938,173.575 72.318,173.575 72.605 C 173.575 72.891,173.991 73.518,174.500 73.998 L 175.425 74.870 199.070 74.870 L 222.715 74.870 222.997 74.252 C 223.225 73.750,223.189 73.537,222.807 73.126 C 222.547 72.848,222.130 72.223,221.879 71.737 C 221.199 70.422,219.678 68.472,217.855 66.580 L 216.233 64.896 192.958 64.826 L 169.683 64.756 169.383 65.414 M178.999 81.237 C 178.721 81.573,178.719 81.797,178.990 82.469 C 179.172 82.921,179.526 83.938,179.777 84.729 C 180.028 85.521,180.414 86.454,180.636 86.802 C 180.857 87.150,181.119 87.960,181.217 88.601 C 181.461 90.185,182.612 93.549,183.102 94.106 C 183.700 94.787,227.448 94.811,228.012 94.131 C 228.790 93.194,228.130 87.045,226.863 83.420 L 226.002 80.959 202.671 80.892 C 181.638 80.833,179.307 80.867,178.999 81.237 M184.102 101.055 C 183.460 101.560,183.419 101.724,183.413 103.840 C 183.409 105.076,183.298 107.196,183.167 108.549 C 182.971 110.573,182.996 111.114,183.310 111.593 L 183.691 112.176 205.317 112.176 C 230.722 112.176,227.721 112.721,228.197 108.021 C 228.376 106.245,228.634 104.371,228.769 103.856 C 229.153 102.397,229.064 101.620,228.449 101.046 C 227.548 100.207,185.169 100.216,184.102 101.055 M181.925 118.199 C 181.344 118.914,180.242 121.460,179.897 122.882 C 179.695 123.712,179.224 125.039,178.849 125.832 C 177.927 127.781,177.745 129.431,178.398 129.925 C 178.811 130.238,182.127 130.296,200.034 130.303 L 221.181 130.311 222.119 129.241 C 222.635 128.652,223.218 127.629,223.415 126.966 C 223.612 126.303,224.020 125.300,224.322 124.736 C 224.623 124.173,224.870 123.469,224.870 123.171 C 224.870 122.873,225.160 121.779,225.514 120.739 C 226.248 118.580,226.231 118.508,224.926 118.146 C 223.417 117.727,182.267 117.778,181.925 118.199 M175.222 136.370 C 174.157 136.961,173.874 137.343,173.696 138.422 C 173.598 139.019,173.247 140.091,172.917 140.803 C 172.587 141.516,172.233 142.558,172.131 143.119 C 172.028 143.680,171.670 144.814,171.335 145.640 C 169.775 149.478,168.105 149.221,194.560 149.216 C 219.958 149.211,217.506 149.512,217.706 146.373 C 217.829 144.447,218.092 142.617,218.632 139.926 C 219.036 137.910,218.982 136.931,218.438 136.439 C 217.828 135.887,176.212 135.820,175.222 136.370 M169.366 155.376 C 169.100 155.674,168.901 156.627,168.784 158.161 C 168.686 159.443,168.442 161.308,168.241 162.306 C 167.606 165.460,167.727 166.743,168.756 167.772 L 169.637 168.653 195.428 168.653 L 221.219 168.653 221.476 167.724 C 221.735 166.784,221.650 166.416,220.848 165.026 C 220.642 164.670,220.471 164.145,220.467 163.860 C 220.461 163.329,220.014 161.810,219.324 159.974 C 219.110 159.404,218.929 158.588,218.922 158.161 C 218.892 156.376,218.435 155.476,217.413 155.192 C 215.506 154.663,169.845 154.837,169.366 155.376 M170.146 174.676 C 169.549 175.137,169.505 175.863,169.993 177.202 C 170.226 177.843,170.492 178.703,170.585 179.114 C 170.677 179.524,171.037 180.279,171.386 180.793 C 171.735 181.306,172.021 181.912,172.021 182.138 C 172.021 182.365,172.367 183.008,172.791 183.568 C 173.214 184.128,173.564 184.713,173.568 184.870 C 173.572 185.026,173.818 185.434,174.115 185.776 L 174.655 186.399 202.699 186.467 C 236.146 186.548,232.779 187.074,229.663 182.261 C 229.378 181.821,228.912 181.070,228.627 180.594 C 228.342 180.117,227.746 179.185,227.303 178.523 C 226.860 177.861,226.417 177.068,226.320 176.761 C 226.222 176.454,225.714 175.786,225.190 175.277 L 224.238 174.352 197.402 174.352 C 176.329 174.352,170.475 174.422,170.146 174.676 M182.642 192.781 L 181.995 193.042 182.772 193.675 C 183.199 194.024,183.782 194.515,184.067 194.767 C 185.053 195.638,187.438 197.115,188.137 197.287 C 188.523 197.382,188.969 197.617,189.128 197.809 C 189.287 198.000,190.196 198.414,191.147 198.729 C 192.098 199.043,192.940 199.398,193.019 199.518 C 193.098 199.638,194.089 199.972,195.221 200.260 C 196.353 200.549,197.630 200.948,198.057 201.147 C 201.956 202.963,218.873 202.995,221.630 201.192 C 221.916 201.004,222.850 200.649,223.705 200.402 C 224.560 200.155,225.434 199.802,225.648 199.617 C 225.861 199.431,226.648 199.019,227.396 198.701 C 228.144 198.383,228.756 198.048,228.756 197.957 C 228.756 197.865,229.194 197.518,229.728 197.185 C 231.418 196.130,232.956 193.566,232.342 192.826 C 231.985 192.396,183.708 192.352,182.642 192.781 " stroke="none" fill="#ffffff" fill-rule="evenodd"></path></g></svg>