<svg id="svg" version="1.1" xmlns="http://www.w3.org/2000/svg" xmlns:xlink="http://www.w3.org/1999/xlink" width="400" height="258.91472868217056" viewBox="0, 0, 400,258.91472868217056"><g id="svgg"><path id="path0" d="M128.756 44.689 C 128.400 44.893,127.632 45.063,127.049 45.069 C 124.814 45.088,121.636 45.652,121.205 46.105 C 120.970 46.352,120.069 46.694,119.203 46.864 C 118.338 47.034,117.531 47.350,117.410 47.565 C 117.290 47.781,116.791 48.096,116.302 48.266 C 114.754 48.805,110.363 52.653,110.363 53.471 C 110.363 53.658,110.076 54.119,109.727 54.497 C 108.625 55.685,108.205 62.635,109.127 64.419 C 109.336 64.824,109.700 65.534,109.935 65.997 C 110.170 66.460,110.559 67.218,110.799 67.681 C 111.039 68.144,111.498 69.052,111.819 69.699 C 112.140 70.346,112.643 71.093,112.937 71.358 C 113.231 71.624,113.472 71.992,113.472 72.174 C 113.472 72.357,113.817 72.885,114.238 73.346 C 114.660 73.808,115.075 74.505,115.161 74.895 C 115.247 75.285,115.490 75.671,115.703 75.752 C 115.915 75.834,116.312 76.405,116.584 77.021 C 116.857 77.637,117.307 78.346,117.584 78.597 C 117.861 78.848,118.160 79.340,118.248 79.689 C 118.335 80.038,118.635 80.552,118.914 80.831 C 119.192 81.109,119.553 81.864,119.715 82.508 C 119.877 83.152,120.109 83.679,120.231 83.679 C 120.534 83.679,121.135 84.920,121.330 85.948 C 121.418 86.412,121.726 87.112,122.013 87.502 C 122.301 87.893,122.662 88.900,122.817 89.741 C 122.971 90.582,123.321 91.687,123.595 92.197 C 124.123 93.183,124.155 93.333,124.627 97.138 C 124.794 98.484,125.092 100.044,125.289 100.603 C 125.757 101.930,125.760 106.008,125.294 107.085 C 124.874 108.057,124.352 111.215,124.352 112.790 C 124.352 114.021,123.947 115.456,123.428 116.062 C 123.246 116.276,123.013 117.187,122.912 118.086 C 122.792 119.146,122.509 120.042,122.107 120.635 C 121.765 121.138,121.415 122.073,121.327 122.712 C 121.239 123.351,120.892 124.279,120.556 124.775 C 120.220 125.271,119.837 126.155,119.705 126.739 C 119.574 127.324,119.234 128.118,118.949 128.503 C 118.664 128.889,118.349 129.657,118.250 130.211 C 118.151 130.765,117.797 131.584,117.462 132.033 C 117.128 132.481,116.780 133.355,116.688 133.976 C 116.597 134.596,116.246 135.535,115.909 136.062 C 115.572 136.589,115.216 137.521,115.119 138.134 C 114.920 139.387,114.377 140.822,114.019 141.044 C 113.888 141.125,113.701 141.920,113.603 142.810 C 113.505 143.701,113.136 145.052,112.782 145.813 C 112.384 146.669,112.056 148.001,111.919 149.310 C 111.798 150.473,111.575 151.748,111.424 152.142 C 109.879 156.172,109.691 173.102,111.155 176.376 C 111.453 177.044,111.811 178.279,111.949 179.119 C 112.087 179.960,112.486 181.136,112.836 181.733 C 113.185 182.329,113.472 183.107,113.472 183.461 C 113.472 183.815,113.818 184.563,114.241 185.122 C 114.665 185.682,115.015 186.328,115.019 186.558 C 115.023 186.787,115.378 187.419,115.809 187.961 C 116.240 188.503,116.659 189.212,116.740 189.537 C 116.822 189.862,117.169 190.312,117.512 190.536 C 117.854 190.761,118.135 191.102,118.135 191.294 C 118.135 191.692,123.796 197.468,124.836 198.131 C 125.211 198.370,125.663 198.761,125.840 199.000 C 126.017 199.238,126.687 199.688,127.329 199.999 C 127.972 200.310,128.497 200.670,128.497 200.799 C 128.497 200.928,129.022 201.280,129.663 201.582 C 130.304 201.883,130.829 202.224,130.829 202.340 C 130.829 202.456,131.266 202.690,131.801 202.861 C 132.335 203.032,133.063 203.435,133.420 203.756 C 133.776 204.078,134.484 204.415,134.993 204.505 C 135.502 204.596,136.292 204.945,136.748 205.282 C 137.205 205.619,138.071 205.973,138.673 206.069 C 139.275 206.166,140.233 206.516,140.803 206.848 C 141.414 207.204,142.530 207.531,143.523 207.645 C 144.449 207.751,145.789 208.102,146.502 208.425 C 149.903 209.967,168.972 209.894,171.625 208.329 C 172.090 208.054,173.098 207.746,173.865 207.644 C 174.649 207.539,175.599 207.206,176.036 206.883 C 176.464 206.567,177.367 206.156,178.044 205.970 C 178.721 205.784,179.275 205.525,179.275 205.394 C 179.275 205.262,179.712 204.972,180.246 204.749 C 180.780 204.526,181.601 204.007,182.069 203.597 C 182.537 203.186,183.093 202.850,183.305 202.850 C 183.517 202.850,183.822 202.561,183.983 202.207 C 184.144 201.854,184.492 201.496,184.757 201.411 C 185.022 201.327,185.412 200.924,185.623 200.516 C 185.834 200.107,186.218 199.620,186.475 199.433 C 186.733 199.246,187.102 198.685,187.296 198.187 C 187.490 197.688,187.870 197.032,188.140 196.729 C 189.544 195.155,189.432 186.481,187.980 184.341 C 187.609 183.795,187.306 183.101,187.306 182.800 C 187.306 182.499,186.956 181.922,186.528 181.519 C 186.101 181.115,185.751 180.624,185.751 180.427 C 185.751 180.231,185.402 179.672,184.974 179.185 C 184.547 178.698,184.197 178.132,184.197 177.927 C 184.197 177.722,183.853 177.170,183.433 176.699 C 183.013 176.229,182.598 175.518,182.511 175.120 C 182.423 174.722,182.197 174.336,182.008 174.264 C 181.819 174.191,181.454 173.569,181.198 172.882 C 180.941 172.195,180.474 171.366,180.160 171.041 C 179.846 170.716,179.515 170.058,179.425 169.578 C 179.335 169.098,179.088 168.561,178.877 168.386 C 178.665 168.210,178.307 167.429,178.080 166.649 C 177.853 165.869,177.388 164.818,177.046 164.315 C 176.704 163.811,176.423 163.037,176.421 162.593 C 176.419 162.150,176.249 161.496,176.044 161.140 C 175.276 159.809,175.084 159.138,174.825 156.865 C 174.678 155.583,174.370 154.242,174.140 153.886 C 173.510 152.909,173.507 143.235,174.137 142.087 C 174.375 141.653,174.689 140.437,174.835 139.386 C 174.997 138.213,175.304 137.197,175.628 136.759 C 175.918 136.367,176.266 135.553,176.401 134.951 C 176.537 134.348,176.870 133.553,177.143 133.184 C 177.415 132.815,177.788 132.047,177.970 131.477 C 178.153 130.907,178.520 130.201,178.785 129.909 C 179.051 129.616,179.388 128.742,179.534 127.966 C 179.679 127.190,180.041 126.225,180.336 125.822 C 180.634 125.416,180.972 124.397,181.094 123.534 C 181.215 122.679,181.558 121.493,181.857 120.899 C 182.156 120.305,182.519 118.886,182.666 117.746 C 182.991 115.209,183.344 113.578,183.723 112.871 C 184.748 110.955,184.771 87.207,183.748 85.961 C 183.379 85.511,182.973 83.944,182.670 81.803 C 182.534 80.842,182.136 79.443,181.784 78.694 C 181.433 77.945,181.066 76.845,180.968 76.251 C 180.870 75.656,180.644 75.114,180.464 75.045 C 180.285 74.976,179.925 74.243,179.665 73.415 C 179.405 72.587,178.980 71.683,178.721 71.405 C 178.462 71.127,178.120 70.505,177.961 70.023 C 177.802 69.540,177.391 68.842,177.048 68.473 C 176.705 68.103,176.425 67.663,176.425 67.496 C 176.425 67.329,176.077 66.802,175.652 66.326 C 175.227 65.850,174.814 65.255,174.734 65.005 C 174.498 64.262,170.510 60.057,168.612 58.549 C 168.164 58.193,167.494 57.600,167.124 57.232 C 166.754 56.864,166.159 56.410,165.803 56.222 C 165.119 55.862,163.987 55.001,162.649 53.821 C 162.204 53.429,161.706 53.109,161.541 53.109 C 161.377 53.109,160.778 52.768,160.211 52.351 C 159.644 51.934,158.872 51.515,158.495 51.421 C 158.118 51.326,157.608 51.026,157.361 50.753 C 157.115 50.480,156.437 50.129,155.855 49.972 C 155.273 49.816,154.470 49.454,154.070 49.169 C 153.669 48.884,152.753 48.496,152.034 48.306 C 151.314 48.116,150.533 47.797,150.298 47.597 C 150.063 47.396,148.962 47.039,147.853 46.802 C 146.743 46.566,145.562 46.193,145.228 45.975 C 144.836 45.718,143.220 45.443,140.652 45.197 C 138.468 44.988,136.566 44.700,136.424 44.558 C 136.004 44.139,129.527 44.249,128.756 44.689 M229.650 44.537 C 229.515 44.667,227.772 44.968,225.777 45.206 C 223.744 45.448,221.980 45.788,221.762 45.980 C 221.548 46.168,220.540 46.568,219.521 46.868 C 218.503 47.169,217.607 47.578,217.531 47.777 C 217.455 47.975,217.047 48.214,216.625 48.306 C 216.202 48.399,215.641 48.713,215.377 49.005 C 215.113 49.296,214.557 49.711,214.141 49.926 C 213.324 50.349,211.140 52.452,211.140 52.816 C 211.140 52.938,210.806 53.458,210.397 53.972 C 209.988 54.486,209.577 55.392,209.482 55.984 C 209.387 56.576,209.139 57.305,208.930 57.603 C 208.439 58.303,208.444 60.034,208.940 61.496 C 209.155 62.129,209.448 63.269,209.591 64.031 C 209.734 64.792,210.089 65.739,210.381 66.137 C 210.672 66.534,211.082 67.344,211.291 67.937 C 211.500 68.530,211.902 69.230,212.183 69.492 C 212.464 69.754,212.694 70.130,212.694 70.327 C 212.694 70.524,212.987 71.034,213.346 71.460 C 213.704 71.885,214.172 72.652,214.385 73.163 C 214.599 73.675,214.895 74.093,215.043 74.093 C 215.190 74.093,215.470 74.472,215.664 74.935 C 215.858 75.398,216.311 76.119,216.671 76.536 C 217.031 76.954,217.399 77.590,217.489 77.950 C 217.579 78.309,217.869 78.755,218.133 78.940 C 218.397 79.125,218.756 79.713,218.930 80.247 C 219.104 80.781,219.511 81.535,219.834 81.924 C 220.158 82.312,220.506 83.012,220.607 83.478 C 220.709 83.945,221.052 84.636,221.370 85.015 C 221.687 85.393,222.020 86.163,222.110 86.725 C 222.200 87.288,222.554 88.260,222.896 88.887 C 223.239 89.513,223.598 90.609,223.694 91.321 C 223.791 92.034,224.088 93.083,224.356 93.653 C 225.266 95.593,225.897 103.938,225.398 107.443 C 225.261 108.408,225.036 110.273,224.898 111.588 C 224.760 112.903,224.468 114.302,224.250 114.697 C 224.032 115.092,223.737 116.226,223.594 117.217 C 223.446 118.240,223.115 119.316,222.829 119.703 C 222.551 120.079,222.242 120.933,222.141 121.601 C 222.041 122.270,221.687 123.217,221.355 123.706 C 221.024 124.195,220.673 125.036,220.577 125.575 C 220.481 126.114,220.140 126.906,219.820 127.336 C 219.499 127.766,219.154 128.609,219.052 129.211 C 218.951 129.812,218.580 130.728,218.228 131.246 C 217.877 131.764,217.491 132.711,217.372 133.350 C 217.253 133.988,216.907 134.846,216.604 135.256 C 216.301 135.666,215.980 136.537,215.890 137.191 C 215.801 137.846,215.459 138.777,215.131 139.259 C 214.760 139.807,214.468 140.736,214.355 141.729 C 214.256 142.605,213.895 143.862,213.553 144.523 C 213.149 145.303,212.848 146.486,212.696 147.888 C 212.567 149.077,212.285 150.320,212.068 150.651 C 211.571 151.410,211.227 153.681,211.011 157.642 C 210.918 159.352,210.675 161.326,210.472 162.029 C 209.980 163.735,209.987 167.858,210.485 168.968 C 210.707 169.464,210.963 171.297,211.099 173.367 C 211.291 176.297,211.432 177.086,211.907 177.890 C 212.223 178.426,212.590 179.538,212.722 180.361 C 212.855 181.184,213.239 182.263,213.576 182.759 C 213.912 183.255,214.270 184.098,214.370 184.633 C 214.470 185.167,214.772 185.758,215.041 185.946 C 215.309 186.134,215.666 186.746,215.834 187.306 C 216.001 187.866,216.413 188.581,216.748 188.896 C 217.083 189.211,217.358 189.573,217.358 189.700 C 217.358 190.334,224.011 197.467,225.518 198.449 C 225.946 198.727,226.820 199.366,227.461 199.868 C 228.102 200.370,229.093 200.998,229.663 201.263 C 230.233 201.529,230.916 201.988,231.180 202.283 C 231.444 202.579,232.027 202.900,232.475 202.998 C 232.923 203.096,233.608 203.442,233.996 203.768 C 234.385 204.094,235.084 204.441,235.551 204.540 C 236.017 204.639,236.751 204.984,237.180 205.306 C 237.610 205.629,238.485 205.977,239.123 206.080 C 239.762 206.183,240.752 206.536,241.322 206.864 C 241.892 207.191,243.058 207.542,243.913 207.643 C 244.767 207.744,246.108 208.100,246.891 208.434 C 250.478 209.962,268.261 209.964,271.648 208.437 C 272.369 208.112,273.535 207.762,274.239 207.661 C 274.942 207.559,275.931 207.208,276.435 206.879 C 276.939 206.551,277.716 206.203,278.162 206.105 C 278.607 206.007,279.294 205.650,279.688 205.311 C 280.082 204.973,280.697 204.623,281.054 204.533 C 282.617 204.141,288.083 198.621,288.083 197.435 C 288.083 197.307,288.433 196.538,288.860 195.725 C 289.952 193.649,290.048 187.664,289.017 185.904 C 288.676 185.321,288.265 184.354,288.103 183.755 C 287.942 183.156,287.522 182.323,287.169 181.904 C 286.817 181.486,286.528 181.031,286.528 180.894 C 286.528 180.757,286.222 180.315,285.847 179.910 C 285.472 179.505,285.004 178.789,284.807 178.318 C 284.610 177.847,284.347 177.461,284.222 177.461 C 284.096 177.461,283.808 176.996,283.581 176.428 C 283.354 175.860,282.939 175.167,282.660 174.888 C 282.380 174.608,282.028 173.919,281.876 173.356 C 281.725 172.794,281.440 172.271,281.244 172.196 C 281.047 172.121,280.673 171.497,280.413 170.809 C 280.152 170.122,279.673 169.164,279.348 168.681 C 279.023 168.198,278.756 167.551,278.756 167.242 C 278.756 166.934,278.470 166.293,278.120 165.818 C 277.770 165.343,277.349 164.308,277.185 163.517 C 277.020 162.725,276.657 161.768,276.377 161.390 C 276.067 160.971,275.777 159.977,275.636 158.850 C 275.508 157.832,275.227 156.729,275.011 156.400 C 273.949 154.779,273.919 141.639,274.974 140.030 C 275.195 139.693,275.477 138.770,275.601 137.980 C 275.725 137.190,276.123 136.103,276.486 135.564 C 276.849 135.026,277.222 134.149,277.315 133.615 C 277.408 133.081,277.771 132.335,278.120 131.958 C 278.470 131.580,278.756 131.013,278.756 130.698 C 278.756 130.382,279.054 129.686,279.418 129.149 C 279.782 128.613,280.175 127.694,280.292 127.106 C 280.507 126.023,280.806 125.268,281.484 124.093 C 281.690 123.737,281.859 123.026,281.861 122.513 C 281.866 121.469,282.224 120.180,282.812 119.094 C 283.028 118.695,283.321 117.122,283.463 115.597 C 283.639 113.717,283.903 112.448,284.284 111.658 C 285.164 109.829,285.158 88.857,284.277 87.047 C 283.927 86.326,283.609 84.953,283.445 83.450 C 283.289 82.026,283.023 80.846,282.801 80.601 C 282.593 80.370,282.235 79.370,282.006 78.379 C 281.776 77.387,281.428 76.396,281.232 76.176 C 281.036 75.957,280.676 75.087,280.432 74.243 C 280.189 73.399,279.769 72.473,279.501 72.185 C 279.232 71.896,278.912 71.298,278.790 70.855 C 278.667 70.413,278.260 69.719,277.885 69.314 C 277.509 68.909,277.202 68.360,277.202 68.095 C 277.202 67.830,276.919 67.367,276.573 67.066 C 276.227 66.766,275.805 66.184,275.635 65.773 C 275.465 65.362,275.233 65.026,275.119 65.026 C 275.006 65.026,274.646 64.589,274.320 64.054 C 273.994 63.520,273.430 62.774,273.068 62.396 C 272.706 62.018,272.275 61.570,272.111 61.399 C 271.948 61.228,271.563 60.837,271.256 60.531 C 270.950 60.225,270.618 59.887,270.518 59.781 C 270.418 59.675,269.582 58.975,268.659 58.227 C 267.737 57.478,266.775 56.661,266.522 56.412 C 266.269 56.163,265.933 55.959,265.776 55.959 C 265.618 55.959,265.260 55.667,264.980 55.311 C 264.699 54.955,264.324 54.663,264.146 54.663 C 263.967 54.663,263.556 54.381,263.232 54.036 C 262.908 53.692,262.276 53.259,261.827 53.075 C 261.378 52.891,260.731 52.483,260.389 52.169 C 260.047 51.855,259.395 51.528,258.940 51.442 C 258.486 51.357,257.852 51.009,257.532 50.668 C 257.213 50.328,256.529 49.970,256.013 49.873 C 255.497 49.777,254.760 49.432,254.375 49.109 C 253.990 48.785,253.215 48.446,252.654 48.356 C 252.092 48.266,251.352 47.975,251.010 47.709 C 250.668 47.444,249.573 47.074,248.575 46.889 C 247.578 46.704,246.354 46.346,245.855 46.093 C 244.945 45.631,241.296 45.081,239.119 45.077 C 238.478 45.076,237.619 44.900,237.211 44.688 C 236.368 44.248,230.082 44.123,229.650 44.537 M139.767 51.748 C 140.479 52.028,141.809 52.333,142.722 52.424 C 143.634 52.516,144.975 52.870,145.701 53.210 C 146.427 53.550,147.513 53.909,148.114 54.008 C 148.716 54.107,149.487 54.408,149.828 54.676 C 150.169 54.944,151.017 55.354,151.714 55.586 C 152.410 55.819,153.271 56.268,153.627 56.584 C 153.983 56.901,154.609 57.367,155.018 57.622 L 155.762 58.084 155.205 58.640 L 154.649 59.197 135.749 59.267 C 114.797 59.344,115.562 59.404,115.998 57.726 C 116.186 57.002,118.569 54.654,119.600 54.177 C 120.005 53.989,120.867 53.562,121.516 53.227 C 122.165 52.892,123.429 52.500,124.327 52.356 C 125.224 52.211,126.120 51.959,126.316 51.796 C 127.408 50.890,137.495 50.854,139.767 51.748 M240.155 51.747 C 241.082 52.039,242.705 52.410,243.763 52.571 C 244.821 52.732,246.059 53.094,246.514 53.375 C 246.969 53.656,247.569 53.886,247.847 53.886 C 248.547 53.886,250.777 54.667,250.777 54.912 C 250.777 55.022,251.477 55.367,252.332 55.679 C 253.187 55.990,253.886 56.353,253.886 56.485 C 253.886 56.617,254.352 56.963,254.922 57.254 C 256.036 57.822,256.210 58.277,255.530 58.841 C 254.774 59.469,217.331 59.358,216.633 58.726 L 216.112 58.255 216.670 57.277 C 217.360 56.068,219.478 54.205,220.416 53.982 C 220.800 53.891,221.295 53.660,221.515 53.469 C 222.083 52.979,224.018 52.332,224.916 52.332 C 225.333 52.332,226.035 52.145,226.477 51.916 C 228.487 50.877,237.061 50.771,240.155 51.747 M164.693 64.746 C 165.485 64.973,167.004 66.358,168.394 68.120 C 168.750 68.572,169.346 69.313,169.719 69.769 C 170.092 70.224,170.648 71.091,170.955 71.697 C 171.262 72.302,171.625 72.798,171.762 72.798 C 172.166 72.798,172.348 74.000,172.034 74.587 L 171.743 75.130 148.035 75.130 C 121.863 75.130,123.269 75.220,122.444 73.483 C 122.211 72.992,122.021 72.508,122.021 72.407 C 122.021 72.307,121.729 71.996,121.373 71.715 C 121.017 71.435,120.725 71.044,120.725 70.845 C 120.725 70.647,120.391 70.101,119.983 69.633 C 119.575 69.165,119.151 68.491,119.041 68.135 C 118.932 67.778,118.566 67.209,118.229 66.869 C 117.510 66.143,117.476 65.860,118.020 65.084 L 118.423 64.508 141.143 64.508 C 154.163 64.508,164.218 64.609,164.693 64.746 M265.377 64.864 C 266.554 65.356,268.576 67.552,270.237 70.142 C 270.534 70.606,270.874 70.984,270.993 70.984 C 271.111 70.984,271.288 71.247,271.386 71.567 C 271.483 71.888,271.845 72.527,272.190 72.987 C 272.787 73.785,272.796 73.855,272.389 74.477 L 271.961 75.130 248.351 75.126 C 222.477 75.122,223.783 75.184,223.192 73.939 C 222.962 73.454,222.488 72.749,222.138 72.372 C 221.789 71.995,221.503 71.535,221.503 71.351 C 221.503 71.167,221.153 70.634,220.725 70.166 C 220.298 69.697,219.948 69.170,219.948 68.993 C 219.948 68.816,219.587 68.259,219.145 67.756 C 218.274 66.765,218.033 65.155,218.692 64.737 C 219.333 64.331,264.393 64.453,265.377 64.864 M174.960 80.956 C 175.173 81.168,175.427 81.722,175.526 82.186 C 175.625 82.651,175.976 83.614,176.305 84.326 C 177.191 86.244,177.758 93.161,177.110 94.150 L 176.670 94.822 154.203 94.755 L 131.736 94.689 131.047 93.354 C 130.669 92.619,130.239 91.245,130.092 90.301 C 129.945 89.357,129.584 88.195,129.290 87.719 C 128.996 87.244,128.638 86.228,128.494 85.461 C 128.350 84.695,128.019 83.776,127.759 83.420 C 127.096 82.513,126.927 81.400,127.383 80.944 C 127.956 80.371,174.387 80.382,174.960 80.956 M275.321 80.966 C 275.889 81.364,276.421 82.773,276.423 83.887 C 276.424 84.216,276.675 85.032,276.980 85.701 C 277.965 87.860,278.264 93.463,277.446 94.448 C 277.184 94.764,273.858 94.819,254.775 94.819 L 232.412 94.819 231.761 94.236 C 231.232 93.762,231.059 93.266,230.837 91.580 C 230.660 90.243,230.374 89.250,230.031 88.782 C 229.738 88.383,229.405 87.508,229.291 86.839 C 229.086 85.631,228.820 84.923,228.102 83.679 C 227.646 82.890,227.606 81.306,228.031 80.881 C 228.556 80.356,274.569 80.439,275.321 80.966 M177.830 100.907 C 178.330 101.567,178.340 102.921,177.860 104.837 C 177.652 105.667,177.376 107.547,177.248 109.013 C 177.061 111.146,176.917 111.752,176.526 112.048 C 175.728 112.652,132.600 112.615,131.994 112.009 C 131.214 111.229,131.696 101.621,132.555 100.838 L 133.199 100.251 155.319 100.320 C 177.095 100.388,177.445 100.397,177.830 100.907 M277.836 100.762 C 278.526 101.525,277.964 110.996,277.182 111.788 C 276.446 112.532,233.224 112.748,232.613 112.011 C 232.094 111.385,232.257 101.692,232.800 100.842 L 233.173 100.259 255.277 100.259 C 276.827 100.259,277.392 100.272,277.836 100.762 M174.862 118.256 C 175.475 118.811,175.431 120.063,174.761 121.114 C 174.579 121.399,174.286 122.273,174.108 123.057 C 173.931 123.841,173.568 124.791,173.303 125.169 C 173.037 125.547,172.669 126.440,172.485 127.155 C 172.269 127.991,171.801 128.830,171.168 129.512 L 170.186 130.570 148.889 130.566 C 126.772 130.562,126.198 130.535,126.352 129.519 C 126.551 128.197,127.320 125.455,127.581 125.130 C 128.000 124.609,128.421 123.414,128.629 122.150 C 128.723 121.580,128.947 120.939,129.127 120.725 C 129.306 120.512,129.657 119.813,129.906 119.172 C 130.154 118.531,130.493 117.919,130.658 117.812 C 131.456 117.293,174.274 117.724,174.862 118.256 M274.223 117.837 C 275.712 118.321,275.816 118.509,275.339 119.866 C 275.098 120.552,274.821 121.719,274.725 122.459 C 274.628 123.199,274.353 124.015,274.113 124.272 C 273.874 124.530,273.522 125.324,273.332 126.036 C 273.016 127.219,271.481 129.909,270.855 130.374 C 270.712 130.480,260.836 130.539,248.908 130.504 C 223.820 130.430,225.902 130.675,227.017 127.933 C 227.383 127.032,227.751 125.893,227.835 125.401 C 227.919 124.909,228.211 124.268,228.485 123.976 C 228.776 123.666,229.093 122.766,229.247 121.812 C 229.525 120.083,230.249 118.648,231.167 118.005 C 231.747 117.599,272.995 117.437,274.223 117.837 M167.740 136.399 C 168.028 136.767,168.100 137.217,167.990 137.953 C 167.905 138.523,167.679 140.272,167.488 141.839 C 167.297 143.407,167.018 145.155,166.867 145.725 C 166.716 146.295,166.590 147.176,166.586 147.681 C 166.583 148.187,166.440 148.741,166.269 148.912 C 165.767 149.414,120.045 149.357,119.541 148.853 C 118.985 148.297,119.094 147.114,119.828 145.733 C 120.189 145.053,120.553 143.958,120.636 143.298 C 120.719 142.638,121.055 141.629,121.381 141.054 C 121.708 140.480,122.060 139.547,122.162 138.982 C 122.440 137.453,122.931 136.655,123.886 136.182 C 125.350 135.456,167.165 135.663,167.740 136.399 M267.772 135.950 C 268.717 136.580,268.730 140.030,267.793 141.481 C 267.525 141.897,267.335 143.113,267.213 145.207 C 267.114 146.917,266.926 148.520,266.797 148.769 C 266.457 149.426,220.759 149.478,220.103 148.822 C 219.482 148.202,219.970 145.150,220.866 144.041 C 221.039 143.828,221.262 143.070,221.362 142.358 C 221.461 141.645,221.811 140.596,222.139 140.026 C 222.467 139.456,222.819 138.582,222.921 138.083 C 223.192 136.765,223.724 136.061,224.541 135.937 C 225.832 135.742,267.479 135.754,267.772 135.950 M167.296 155.246 C 167.440 155.424,167.702 156.442,167.880 157.509 C 168.057 158.575,168.355 159.682,168.543 159.970 C 168.730 160.257,169.074 161.418,169.307 162.550 C 169.540 163.683,169.955 164.893,170.228 165.241 C 170.839 166.017,170.888 167.787,170.322 168.595 L 169.919 169.171 144.152 169.171 L 118.386 169.171 117.438 168.302 C 115.983 166.968,115.971 164.903,117.382 158.370 C 117.511 157.772,117.617 156.892,117.617 156.414 C 117.617 155.935,117.756 155.404,117.927 155.233 C 118.390 154.771,166.923 154.783,167.296 155.246 M267.758 155.558 C 268.191 155.991,268.394 156.484,268.394 157.100 C 268.394 158.436,268.881 160.607,269.445 161.788 C 269.717 162.358,270.065 163.485,270.217 164.294 C 270.370 165.102,270.663 165.903,270.869 166.074 C 271.386 166.503,271.351 168.242,270.815 168.686 C 270.458 168.982,266.040 169.041,244.369 169.041 L 218.351 169.041 217.557 168.152 L 216.762 167.263 216.932 163.135 C 217.042 160.466,217.232 158.720,217.470 158.195 C 217.672 157.749,217.917 156.975,218.016 156.477 C 218.114 155.978,218.312 155.424,218.455 155.246 C 218.661 154.991,223.869 154.922,242.919 154.922 L 267.122 154.922 267.758 155.558 M174.236 175.056 C 174.880 175.728,175.476 176.573,175.561 176.934 C 175.645 177.295,175.975 177.882,176.293 178.238 C 176.612 178.595,176.993 179.247,177.140 179.689 C 177.287 180.131,177.711 180.796,178.082 181.167 C 178.453 181.538,178.756 182.002,178.756 182.197 C 178.756 182.392,179.042 182.820,179.391 183.148 C 180.043 183.761,180.829 185.676,180.829 186.652 C 180.829 187.820,180.722 187.824,151.971 187.824 L 124.834 187.824 123.557 186.747 C 122.854 186.155,122.280 185.523,122.280 185.342 C 122.280 185.162,121.987 184.666,121.629 184.240 C 121.271 183.815,120.807 182.982,120.598 182.390 C 120.389 181.798,119.996 181.031,119.725 180.686 C 119.453 180.340,119.149 179.503,119.048 178.824 C 118.948 178.146,118.704 177.410,118.506 177.188 C 117.785 176.381,117.919 174.422,118.718 174.101 C 119.051 173.967,130.802 173.860,146.183 173.851 L 173.066 173.834 174.236 175.056 M274.536 174.870 C 274.861 175.369,275.313 176.010,275.540 176.295 C 275.766 176.580,276.058 177.084,276.188 177.414 C 276.319 177.744,276.708 178.386,277.053 178.839 C 277.398 179.292,277.761 179.987,277.859 180.382 C 277.958 180.778,278.262 181.221,278.535 181.367 C 278.807 181.513,279.216 182.096,279.442 182.662 C 279.669 183.229,280.090 183.858,280.378 184.060 C 280.744 184.316,280.939 184.810,281.025 185.701 C 281.246 188.007,283.691 187.824,252.764 187.824 L 225.591 187.824 224.324 187.003 C 223.627 186.552,223.057 186.034,223.057 185.853 C 223.057 185.672,222.712 185.146,222.290 184.685 C 221.868 184.223,221.453 183.526,221.368 183.136 C 221.282 182.745,220.985 182.165,220.708 181.846 C 220.432 181.527,220.084 180.788,219.935 180.205 C 219.786 179.622,219.365 178.579,218.999 177.888 C 218.490 176.928,218.365 176.390,218.469 175.611 C 218.730 173.672,216.225 173.825,246.590 173.898 L 273.943 173.964 274.536 174.870 M181.055 192.836 C 181.824 193.762,181.659 194.651,180.497 195.855 C 178.778 197.635,177.140 198.964,176.665 198.964 C 176.430 198.964,175.797 199.313,175.259 199.741 C 174.721 200.168,173.976 200.518,173.602 200.518 C 173.229 200.518,172.358 200.819,171.667 201.187 C 170.732 201.685,169.738 201.926,167.783 202.129 C 166.338 202.279,164.925 202.561,164.644 202.755 C 163.887 203.279,153.964 203.264,153.212 202.737 C 152.909 202.525,151.692 202.293,150.369 202.195 C 147.719 201.998,146.156 201.659,145.593 201.157 C 145.377 200.965,144.480 200.692,143.599 200.550 C 141.919 200.280,140.933 199.886,140.933 199.484 C 140.933 199.353,140.495 199.164,139.961 199.064 C 138.693 198.827,137.306 198.242,137.306 197.945 C 137.306 197.815,136.961 197.634,136.541 197.542 C 136.120 197.449,135.457 197.119,135.067 196.809 C 134.677 196.498,133.891 196.004,133.320 195.712 C 132.647 195.367,132.083 194.806,131.719 194.117 L 131.157 193.054 131.705 192.788 C 132.618 192.346,180.687 192.392,181.055 192.836 M281.201 192.740 C 282.474 193.224,281.973 194.852,279.996 196.659 C 277.753 198.708,277.437 198.964,277.147 198.964 C 276.979 198.964,276.399 199.270,275.859 199.644 C 275.319 200.018,274.329 200.427,273.658 200.553 C 272.987 200.678,272.373 200.879,272.294 200.999 C 271.946 201.528,270.781 201.867,268.520 202.099 C 267.184 202.235,265.764 202.518,265.364 202.726 C 264.326 203.268,254.789 203.276,253.497 202.737 C 253.007 202.532,251.757 202.292,250.720 202.203 C 248.233 201.990,246.342 201.574,245.826 201.125 C 245.596 200.925,244.724 200.650,243.887 200.514 C 243.050 200.378,242.055 200.037,241.675 199.756 C 241.295 199.475,240.652 199.174,240.246 199.086 C 239.221 198.864,237.565 198.146,237.565 197.923 C 237.565 197.822,237.041 197.539,236.400 197.294 C 235.760 197.049,235.147 196.713,235.040 196.546 C 234.932 196.380,234.418 196.046,233.896 195.805 C 233.355 195.555,232.597 194.858,232.133 194.183 L 231.318 192.999 231.916 192.760 C 232.742 192.428,280.330 192.409,281.201 192.740 " stroke="none" fill="#1bad51" fill-rule="evenodd"></path><path id="path1" d="M0.000 129.534 L 0.000 259.067 200.000 259.067 L 400.000 259.067 400.000 129.534 L 400.000 0.000 200.000 0.000 L 0.000 0.000 0.000 129.534 M136.424 44.558 C 136.566 44.700,138.468 44.988,140.652 45.197 C 143.220 45.443,144.836 45.718,145.228 45.975 C 145.562 46.193,146.743 46.566,147.853 46.802 C 148.962 47.039,150.063 47.396,150.298 47.597 C 150.533 47.797,151.314 48.116,152.034 48.306 C 152.753 48.496,153.669 48.884,154.070 49.169 C 154.470 49.454,155.273 49.816,155.855 49.972 C 156.437 50.129,157.115 50.480,157.361 50.753 C 157.608 51.026,158.118 51.326,158.495 51.421 C 158.872 51.515,159.644 51.934,160.211 52.351 C 160.778 52.768,161.377 53.109,161.541 53.109 C 161.706 53.109,162.204 53.429,162.649 53.821 C 163.987 55.001,165.119 55.862,165.803 56.222 C 166.159 56.410,166.754 56.864,167.124 57.232 C 167.494 57.600,168.164 58.193,168.612 58.549 C 170.510 60.057,174.498 64.262,174.734 65.005 C 174.814 65.255,175.227 65.850,175.652 66.326 C 176.077 66.802,176.425 67.329,176.425 67.496 C 176.425 67.663,176.705 68.103,177.048 68.473 C 177.391 68.842,177.802 69.540,177.961 70.023 C 178.120 70.505,178.462 71.127,178.721 71.405 C 178.980 71.683,179.405 72.587,179.665 73.415 C 179.925 74.243,180.285 74.976,180.464 75.045 C 180.644 75.114,180.870 75.656,180.968 76.251 C 181.066 76.845,181.433 77.945,181.784 78.694 C 182.136 79.443,182.534 80.842,182.670 81.803 C 182.973 83.944,183.379 85.511,183.748 85.961 C 184.771 87.207,184.748 110.955,183.723 112.871 C 183.344 113.578,182.991 115.209,182.666 117.746 C 182.519 118.886,182.156 120.305,181.857 120.899 C 181.558 121.493,181.215 122.679,181.094 123.534 C 180.972 124.397,180.634 125.416,180.336 125.822 C 180.041 126.225,179.679 127.190,179.534 127.966 C 179.388 128.742,179.051 129.616,178.785 129.909 C 178.520 130.201,178.153 130.907,177.970 131.477 C 177.788 132.047,177.415 132.815,177.143 133.184 C 176.870 133.553,176.537 134.348,176.401 134.951 C 176.266 135.553,175.918 136.367,175.628 136.759 C 175.304 137.197,174.997 138.213,174.835 139.386 C 174.689 140.437,174.375 141.653,174.137 142.087 C 173.507 143.235,173.510 152.909,174.140 153.886 C 174.370 154.242,174.678 155.583,174.825 156.865 C 175.084 159.138,175.276 159.809,176.044 161.140 C 176.249 161.496,176.419 162.150,176.421 162.593 C 176.423 163.037,176.704 163.811,177.046 164.315 C 177.388 164.818,177.853 165.869,178.080 166.649 C 178.307 167.429,178.665 168.210,178.877 168.386 C 179.088 168.561,179.335 169.098,179.425 169.578 C 179.515 170.058,179.846 170.716,180.160 171.041 C 180.474 171.366,180.941 172.195,181.198 172.882 C 181.454 173.569,181.819 174.191,182.008 174.264 C 182.197 174.336,182.423 174.722,182.511 175.120 C 182.598 175.518,183.013 176.229,183.433 176.699 C 183.853 177.170,184.197 177.722,184.197 177.927 C 184.197 178.132,184.547 178.698,184.974 179.185 C 185.402 179.672,185.751 180.231,185.751 180.427 C 185.751 180.624,186.101 181.115,186.528 181.519 C 186.956 181.922,187.306 182.499,187.306 182.800 C 187.306 183.101,187.609 183.795,187.980 184.341 C 189.432 186.481,189.544 195.155,188.140 196.729 C 187.870 197.032,187.490 197.688,187.296 198.187 C 187.102 198.685,186.733 199.246,186.475 199.433 C 186.218 199.620,185.834 200.107,185.623 200.516 C 185.412 200.924,185.022 201.327,184.757 201.411 C 184.492 201.496,184.144 201.854,183.983 202.207 C 183.822 202.561,183.517 202.850,183.305 202.850 C 183.093 202.850,182.537 203.186,182.069 203.597 C 181.601 204.007,180.780 204.526,180.246 204.749 C 179.712 204.972,179.275 205.262,179.275 205.394 C 179.275 205.525,178.721 205.784,178.044 205.970 C 177.367 206.156,176.464 206.567,176.036 206.883 C 175.599 207.206,174.649 207.539,173.865 207.644 C 173.098 207.746,172.090 208.054,171.625 208.329 C 168.972 209.894,149.903 209.967,146.502 208.425 C 145.789 208.102,144.449 207.751,143.523 207.645 C 142.530 207.531,141.414 207.204,140.803 206.848 C 140.233 206.516,139.275 206.166,138.673 206.069 C 138.071 205.973,137.205 205.619,136.748 205.282 C 136.292 204.945,135.502 204.596,134.993 204.505 C 134.484 204.415,133.776 204.078,133.420 203.756 C 133.063 203.435,132.335 203.032,131.801 202.861 C 131.266 202.690,130.829 202.456,130.829 202.340 C 130.829 202.224,130.304 201.883,129.663 201.582 C 129.022 201.280,128.497 200.928,128.497 200.799 C 128.497 200.670,127.972 200.310,127.329 199.999 C 126.687 199.688,126.017 199.238,125.840 199.000 C 125.663 198.761,125.211 198.370,124.836 198.131 C 123.796 197.468,118.135 191.692,118.135 191.294 C 118.135 191.102,117.854 190.761,117.512 190.536 C 117.169 190.312,116.822 189.862,116.740 189.537 C 116.659 189.212,116.240 188.503,115.809 187.961 C 115.378 187.419,115.023 186.787,115.019 186.558 C 115.015 186.328,114.665 185.682,114.241 185.122 C 113.818 184.563,113.472 183.815,113.472 183.461 C 113.472 183.107,113.185 182.329,112.836 181.733 C 112.486 181.136,112.087 179.960,111.949 179.119 C 111.811 178.279,111.453 177.044,111.155 176.376 C 109.691 173.102,109.879 156.172,111.424 152.142 C 111.575 151.748,111.798 150.473,111.919 149.310 C 112.056 148.001,112.384 146.669,112.782 145.813 C 113.136 145.052,113.505 143.701,113.603 142.810 C 113.701 141.920,113.888 141.125,114.019 141.044 C 114.377 140.822,114.920 139.387,115.119 138.134 C 115.216 137.521,115.572 136.589,115.909 136.062 C 116.246 135.535,116.597 134.596,116.688 133.976 C 116.780 133.355,117.128 132.481,117.462 132.033 C 117.797 131.584,118.151 130.765,118.250 130.211 C 118.349 129.657,118.664 128.889,118.949 128.503 C 119.234 128.118,119.574 127.324,119.705 126.739 C 119.837 126.155,120.220 125.271,120.556 124.775 C 120.892 124.279,121.239 123.351,121.327 122.712 C 121.415 122.073,121.765 121.138,122.107 120.635 C 122.509 120.042,122.792 119.146,122.912 118.086 C 123.013 117.187,123.246 116.276,123.428 116.062 C 123.947 115.456,124.352 114.021,124.352 112.790 C 124.352 111.215,124.874 108.057,125.294 107.085 C 125.760 106.008,125.757 101.930,125.289 100.603 C 125.092 100.044,124.794 98.484,124.627 97.138 C 124.155 93.333,124.123 93.183,123.595 92.197 C 123.321 91.687,122.971 90.582,122.817 89.741 C 122.662 88.900,122.301 87.893,122.013 87.502 C 121.726 87.112,121.418 86.412,121.330 85.948 C 121.135 84.920,120.534 83.679,120.231 83.679 C 120.109 83.679,119.877 83.152,119.715 82.508 C 119.553 81.864,119.192 81.109,118.914 80.831 C 118.635 80.552,118.335 80.038,118.248 79.689 C 118.160 79.340,117.861 78.848,117.584 78.597 C 117.307 78.346,116.857 77.637,116.584 77.021 C 116.312 76.405,115.915 75.834,115.703 75.752 C 115.490 75.671,115.247 75.285,115.161 74.895 C 115.075 74.505,114.660 73.808,114.238 73.346 C 113.817 72.885,113.472 72.357,113.472 72.174 C 113.472 71.992,113.231 71.624,112.937 71.358 C 112.643 71.093,112.140 70.346,111.819 69.699 C 111.498 69.052,111.039 68.144,110.799 67.681 C 110.559 67.218,110.170 66.460,109.935 65.997 C 109.700 65.534,109.336 64.824,109.127 64.419 C 108.205 62.635,108.625 55.685,109.727 54.497 C 110.076 54.119,110.363 53.658,110.363 53.471 C 110.363 52.653,114.754 48.805,116.302 48.266 C 116.791 48.096,117.290 47.781,117.410 47.565 C 117.531 47.350,118.338 47.034,119.203 46.864 C 120.069 46.694,120.970 46.352,121.205 46.105 C 121.636 45.652,124.814 45.088,127.049 45.069 C 127.632 45.063,128.400 44.893,128.756 44.689 C 129.527 44.249,136.004 44.139,136.424 44.558 M237.211 44.688 C 237.619 44.900,238.478 45.076,239.119 45.077 C 241.296 45.081,244.945 45.631,245.855 46.093 C 246.354 46.346,247.578 46.704,248.575 46.889 C 249.573 47.074,250.668 47.444,251.010 47.709 C 251.352 47.975,252.092 48.266,252.654 48.356 C 253.215 48.446,253.990 48.785,254.375 49.109 C 254.760 49.432,255.497 49.777,256.013 49.873 C 256.529 49.970,257.213 50.328,257.532 50.668 C 257.852 51.009,258.486 51.357,258.940 51.442 C 259.395 51.528,260.047 51.855,260.389 52.169 C 260.731 52.483,261.378 52.891,261.827 53.075 C 262.276 53.259,262.908 53.692,263.232 54.036 C 263.556 54.381,263.967 54.663,264.146 54.663 C 264.324 54.663,264.699 54.955,264.980 55.311 C 265.260 55.667,265.618 55.959,265.776 55.959 C 265.933 55.959,266.269 56.163,266.522 56.412 C 266.775 56.661,267.737 57.478,268.659 58.227 C 269.582 58.975,270.418 59.675,270.518 59.781 C 270.618 59.887,270.950 60.225,271.256 60.531 C 271.563 60.837,271.948 61.228,272.111 61.399 C 272.275 61.570,272.706 62.018,273.068 62.396 C 273.430 62.774,273.994 63.520,274.320 64.054 C 274.646 64.589,275.006 65.026,275.119 65.026 C 275.233 65.026,275.465 65.362,275.635 65.773 C 275.805 66.184,276.227 66.766,276.573 67.066 C 276.919 67.367,277.202 67.830,277.202 68.095 C 277.202 68.360,277.509 68.909,277.885 69.314 C 278.260 69.719,278.667 70.413,278.790 70.855 C 278.912 71.298,279.232 71.896,279.501 72.185 C 279.769 72.473,280.189 73.399,280.432 74.243 C 280.676 75.087,281.036 75.957,281.232 76.176 C 281.428 76.396,281.776 77.387,282.006 78.379 C 282.235 79.370,282.593 80.370,282.801 80.601 C 283.023 80.846,283.289 82.026,283.445 83.450 C 283.609 84.953,283.927 86.326,284.277 87.047 C 285.158 88.857,285.164 109.829,284.284 111.658 C 283.903 112.448,283.639 113.717,283.463 115.597 C 283.321 117.122,283.028 118.695,282.812 119.094 C 282.224 120.180,281.866 121.469,281.861 122.513 C 281.859 123.026,281.690 123.737,281.484 124.093 C 280.806 125.268,280.507 126.023,280.292 127.106 C 280.175 127.694,279.782 128.613,279.418 129.149 C 279.054 129.686,278.756 130.382,278.756 130.698 C 278.756 131.013,278.470 131.580,278.120 131.958 C 277.771 132.335,277.408 133.081,277.315 133.615 C 277.222 134.149,276.849 135.026,276.486 135.564 C 276.123 136.103,275.725 137.190,275.601 137.980 C 275.477 138.770,275.195 139.693,274.974 140.030 C 273.919 141.639,273.949 154.779,275.011 156.400 C 275.227 156.729,275.508 157.832,275.636 158.850 C 275.777 159.977,276.067 160.971,276.377 161.390 C 276.657 161.768,277.020 162.725,277.185 163.517 C 277.349 164.308,277.770 165.343,278.120 165.818 C 278.470 166.293,278.756 166.934,278.756 167.242 C 278.756 167.551,279.023 168.198,279.348 168.681 C 279.673 169.164,280.152 170.122,280.413 170.809 C 280.673 171.497,281.047 172.121,281.244 172.196 C 281.440 172.271,281.725 172.794,281.876 173.356 C 282.028 173.919,282.380 174.608,282.660 174.888 C 282.939 175.167,283.354 175.860,283.581 176.428 C 283.808 176.996,284.096 177.461,284.222 177.461 C 284.347 177.461,284.610 177.847,284.807 178.318 C 285.004 178.789,285.472 179.505,285.847 179.910 C 286.222 180.315,286.528 180.757,286.528 180.894 C 286.528 181.031,286.817 181.486,287.169 181.904 C 287.522 182.323,287.942 183.156,288.103 183.755 C 288.265 184.354,288.676 185.321,289.017 185.904 C 290.048 187.664,289.952 193.649,288.860 195.725 C 288.433 196.538,288.083 197.307,288.083 197.435 C 288.083 198.621,282.617 204.141,281.054 204.533 C 280.697 204.623,280.082 204.973,279.688 205.311 C 279.294 205.650,278.607 206.007,278.162 206.105 C 277.716 206.203,276.939 206.551,276.435 206.879 C 275.931 207.208,274.942 207.559,274.239 207.661 C 273.535 207.762,272.369 208.112,271.648 208.437 C 268.261 209.964,250.478 209.962,246.891 208.434 C 246.108 208.100,244.767 207.744,243.913 207.643 C 243.058 207.542,241.892 207.191,241.322 206.864 C 240.752 206.536,239.762 206.183,239.123 206.080 C 238.485 205.977,237.610 205.629,237.180 205.306 C 236.751 204.984,236.017 204.639,235.551 204.540 C 235.084 204.441,234.385 204.094,233.996 203.768 C 233.608 203.442,232.923 203.096,232.475 202.998 C 232.027 202.900,231.444 202.579,231.180 202.283 C 230.916 201.988,230.233 201.529,229.663 201.263 C 229.093 200.998,228.102 200.370,227.461 199.868 C 226.820 199.366,225.946 198.727,225.518 198.449 C 224.011 197.467,217.358 190.334,217.358 189.700 C 217.358 189.573,217.083 189.211,216.748 188.896 C 216.413 188.581,216.001 187.866,215.834 187.306 C 215.666 186.746,215.309 186.134,215.041 185.946 C 214.772 185.758,214.470 185.167,214.370 184.633 C 214.270 184.098,213.912 183.255,213.576 182.759 C 213.239 182.263,212.855 181.184,212.722 180.361 C 212.590 179.538,212.223 178.426,211.907 177.890 C 211.432 177.086,211.291 176.297,211.099 173.367 C 210.963 171.297,210.707 169.464,210.485 168.968 C 209.987 167.858,209.980 163.735,210.472 162.029 C 210.675 161.326,210.918 159.352,211.011 157.642 C 211.227 153.681,211.571 151.410,212.068 150.651 C 212.285 150.320,212.567 149.077,212.696 147.888 C 212.848 146.486,213.149 145.303,213.553 144.523 C 213.895 143.862,214.256 142.605,214.355 141.729 C 214.468 140.736,214.760 139.807,215.131 139.259 C 215.459 138.777,215.801 137.846,215.890 137.191 C 215.980 136.537,216.301 135.666,216.604 135.256 C 216.907 134.846,217.253 133.988,217.372 133.350 C 217.491 132.711,217.877 131.764,218.228 131.246 C 218.580 130.728,218.951 129.812,219.052 129.211 C 219.154 128.609,219.499 127.766,219.820 127.336 C 220.140 126.906,220.481 126.114,220.577 125.575 C 220.673 125.036,221.024 124.195,221.355 123.706 C 221.687 123.217,222.041 122.270,222.141 121.601 C 222.242 120.933,222.551 120.079,222.829 119.703 C 223.115 119.316,223.446 118.240,223.594 117.217 C 223.737 116.226,224.032 115.092,224.250 114.697 C 224.468 114.302,224.760 112.903,224.898 111.588 C 225.036 110.273,225.261 108.408,225.398 107.443 C 225.897 103.938,225.266 95.593,224.356 93.653 C 224.088 93.083,223.791 92.034,223.694 91.321 C 223.598 90.609,223.239 89.513,222.896 88.887 C 222.554 88.260,222.200 87.288,222.110 86.725 C 222.020 86.163,221.687 85.393,221.370 85.015 C 221.052 84.636,220.709 83.945,220.607 83.478 C 220.506 83.012,220.158 82.312,219.834 81.924 C 219.511 81.535,219.104 80.781,218.930 80.247 C 218.756 79.713,218.397 79.125,218.133 78.940 C 217.869 78.755,217.579 78.309,217.489 77.950 C 217.399 77.590,217.031 76.954,216.671 76.536 C 216.311 76.119,215.858 75.398,215.664 74.935 C 215.470 74.472,215.190 74.093,215.043 74.093 C 214.895 74.093,214.599 73.675,214.385 73.163 C 214.172 72.652,213.704 71.885,213.346 71.460 C 212.987 71.034,212.694 70.524,212.694 70.327 C 212.694 70.130,212.464 69.754,212.183 69.492 C 211.902 69.230,211.500 68.530,211.291 67.937 C 211.082 67.344,210.672 66.534,210.381 66.137 C 210.089 65.739,209.734 64.792,209.591 64.031 C 209.448 63.269,209.155 62.129,208.940 61.496 C 208.444 60.034,208.439 58.303,208.930 57.603 C 209.139 57.305,209.387 56.576,209.482 55.984 C 209.577 55.392,209.988 54.486,210.397 53.972 C 210.806 53.458,211.140 52.938,211.140 52.816 C 211.140 52.452,213.324 50.349,214.141 49.926 C 214.557 49.711,215.113 49.296,215.377 49.005 C 215.641 48.713,216.202 48.399,216.625 48.306 C 217.047 48.214,217.455 47.975,217.531 47.777 C 217.607 47.578,218.503 47.169,219.521 46.868 C 220.540 46.568,221.548 46.168,221.762 45.980 C 221.980 45.788,223.744 45.448,225.777 45.206 C 227.772 44.968,229.515 44.667,229.650 44.537 C 230.082 44.123,236.368 44.248,237.211 44.688 M128.039 51.282 C 127.288 51.401,126.513 51.633,126.316 51.796 C 126.120 51.959,125.224 52.211,124.327 52.356 C 123.429 52.500,122.165 52.892,121.516 53.227 C 120.867 53.562,120.005 53.989,119.600 54.177 C 118.569 54.654,116.186 57.002,115.998 57.726 C 115.562 59.404,114.797 59.344,135.749 59.267 L 154.649 59.197 155.205 58.640 L 155.762 58.084 155.018 57.622 C 154.609 57.367,153.983 56.901,153.627 56.584 C 153.271 56.268,152.410 55.819,151.714 55.586 C 151.017 55.354,150.169 54.944,149.828 54.676 C 149.487 54.408,148.716 54.107,148.114 54.008 C 147.513 53.909,146.427 53.550,145.701 53.210 C 144.975 52.870,143.634 52.516,142.722 52.424 C 141.809 52.333,140.479 52.028,139.767 51.748 C 138.308 51.173,130.641 50.869,128.039 51.282 M228.472 51.282 C 227.817 51.402,226.920 51.687,226.477 51.916 C 226.035 52.145,225.333 52.332,224.916 52.332 C 224.018 52.332,222.083 52.979,221.515 53.469 C 221.295 53.660,220.800 53.891,220.416 53.982 C 219.478 54.205,217.360 56.068,216.670 57.277 L 216.112 58.255 216.633 58.726 C 217.331 59.358,254.774 59.469,255.530 58.841 C 256.210 58.277,256.036 57.822,254.922 57.254 C 254.352 56.963,253.886 56.617,253.886 56.485 C 253.886 56.353,253.187 55.990,252.332 55.679 C 251.477 55.367,250.777 55.022,250.777 54.912 C 250.777 54.667,248.547 53.886,247.847 53.886 C 247.569 53.886,246.969 53.656,246.514 53.375 C 246.059 53.094,244.821 52.732,243.763 52.571 C 242.705 52.410,241.082 52.039,240.155 51.747 C 238.286 51.157,230.781 50.858,228.472 51.282 M118.020 65.084 C 117.476 65.860,117.510 66.143,118.229 66.869 C 118.566 67.209,118.932 67.778,119.041 68.135 C 119.151 68.491,119.575 69.165,119.983 69.633 C 120.391 70.101,120.725 70.647,120.725 70.845 C 120.725 71.044,121.017 71.435,121.373 71.715 C 121.729 71.996,122.021 72.307,122.021 72.407 C 122.021 72.508,122.211 72.992,122.444 73.483 C 123.269 75.220,121.863 75.130,148.035 75.130 L 171.743 75.130 172.034 74.587 C 172.348 74.000,172.166 72.798,171.762 72.798 C 171.625 72.798,171.262 72.302,170.955 71.697 C 170.648 71.091,170.092 70.224,169.719 69.769 C 169.346 69.313,168.750 68.572,168.394 68.120 C 167.004 66.358,165.485 64.973,164.693 64.746 C 164.218 64.609,154.163 64.508,141.143 64.508 L 118.423 64.508 118.020 65.084 M218.692 64.737 C 218.033 65.155,218.274 66.765,219.145 67.756 C 219.587 68.259,219.948 68.816,219.948 68.993 C 219.948 69.170,220.298 69.697,220.725 70.166 C 221.153 70.634,221.503 71.167,221.503 71.351 C 221.503 71.535,221.789 71.995,222.138 72.372 C 222.488 72.749,222.962 73.454,223.192 73.939 C 223.783 75.184,222.477 75.122,248.351 75.126 L 271.961 75.130 272.389 74.477 C 272.796 73.855,272.787 73.785,272.190 72.987 C 271.845 72.527,271.483 71.888,271.386 71.567 C 271.288 71.247,271.111 70.984,270.993 70.984 C 270.874 70.984,270.534 70.606,270.237 70.142 C 268.576 67.552,266.554 65.356,265.377 64.864 C 264.393 64.453,219.333 64.331,218.692 64.737 M127.383 80.944 C 126.927 81.400,127.096 82.513,127.759 83.420 C 128.019 83.776,128.350 84.695,128.494 85.461 C 128.638 86.228,128.996 87.244,129.290 87.719 C 129.584 88.195,129.945 89.357,130.092 90.301 C 130.239 91.245,130.669 92.619,131.047 93.354 L 131.736 94.689 154.203 94.755 L 176.670 94.822 177.110 94.150 C 177.758 93.161,177.191 86.244,176.305 84.326 C 175.976 83.614,175.625 82.651,175.526 82.186 C 175.156 80.451,176.954 80.570,151.166 80.570 C 131.110 80.570,127.704 80.624,127.383 80.944 M228.031 80.881 C 227.606 81.306,227.646 82.890,228.102 83.679 C 228.820 84.923,229.086 85.631,229.291 86.839 C 229.405 87.508,229.738 88.383,230.031 88.782 C 230.374 89.250,230.660 90.243,230.837 91.580 C 231.059 93.266,231.232 93.762,231.761 94.236 L 232.412 94.819 254.775 94.819 C 273.858 94.819,277.184 94.764,277.446 94.448 C 278.264 93.463,277.965 87.860,276.980 85.701 C 276.675 85.032,276.424 84.216,276.423 83.887 C 276.421 82.773,275.889 81.364,275.321 80.966 C 274.569 80.439,228.556 80.356,228.031 80.881 M132.555 100.838 C 131.696 101.621,131.214 111.229,131.994 112.009 C 132.600 112.615,175.728 112.652,176.526 112.048 C 176.917 111.752,177.061 111.146,177.248 109.013 C 177.376 107.547,177.652 105.667,177.860 104.837 C 178.340 102.921,178.330 101.567,177.830 100.907 C 177.445 100.397,177.095 100.388,155.319 100.320 L 133.199 100.251 132.555 100.838 M232.800 100.842 C 232.257 101.692,232.094 111.385,232.613 112.011 C 233.224 112.748,276.446 112.532,277.182 111.788 C 277.964 110.996,278.526 101.525,277.836 100.762 C 277.392 100.272,276.827 100.259,255.277 100.259 L 233.173 100.259 232.800 100.842 M130.658 117.812 C 130.493 117.919,130.154 118.531,129.906 119.172 C 129.657 119.813,129.306 120.512,129.127 120.725 C 128.947 120.939,128.723 121.580,128.629 122.150 C 128.421 123.414,128.000 124.609,127.581 125.130 C 127.320 125.455,126.551 128.197,126.352 129.519 C 126.198 130.535,126.772 130.562,148.889 130.566 L 170.186 130.570 171.168 129.512 C 171.801 128.830,172.269 127.991,172.485 127.155 C 172.669 126.440,173.037 125.547,173.303 125.169 C 173.568 124.791,173.931 123.841,174.108 123.057 C 174.286 122.273,174.579 121.399,174.761 121.114 C 175.431 120.063,175.475 118.811,174.862 118.256 C 174.274 117.724,131.456 117.293,130.658 117.812 M231.167 118.005 C 230.249 118.648,229.525 120.083,229.247 121.812 C 229.093 122.766,228.776 123.666,228.485 123.976 C 228.211 124.268,227.919 124.909,227.835 125.401 C 227.751 125.893,227.383 127.032,227.017 127.933 C 225.902 130.675,223.820 130.430,248.908 130.504 C 260.836 130.539,270.712 130.480,270.855 130.374 C 271.481 129.909,273.016 127.219,273.332 126.036 C 273.522 125.324,273.874 124.530,274.113 124.272 C 274.353 124.015,274.628 123.199,274.725 122.459 C 274.821 121.719,275.098 120.552,275.339 119.866 C 275.816 118.509,275.712 118.321,274.223 117.837 C 272.995 117.437,231.747 117.599,231.167 118.005 M123.886 136.182 C 122.931 136.655,122.440 137.453,122.162 138.982 C 122.060 139.547,121.708 140.480,121.381 141.054 C 121.055 141.629,120.719 142.638,120.636 143.298 C 120.553 143.958,120.189 145.053,119.828 145.733 C 119.094 147.114,118.985 148.297,119.541 148.853 C 120.045 149.357,165.767 149.414,166.269 148.912 C 166.440 148.741,166.583 148.187,166.586 147.681 C 166.590 147.176,166.716 146.295,166.867 145.725 C 167.018 145.155,167.297 143.407,167.488 141.839 C 167.679 140.272,167.905 138.523,167.990 137.953 C 168.326 135.707,170.195 135.889,146.038 135.820 C 126.761 135.764,124.660 135.798,123.886 136.182 M224.541 135.937 C 223.724 136.061,223.192 136.765,222.921 138.083 C 222.819 138.582,222.467 139.456,222.139 140.026 C 221.811 140.596,221.461 141.645,221.362 142.358 C 221.262 143.070,221.039 143.828,220.866 144.041 C 219.970 145.150,219.482 148.202,220.103 148.822 C 220.759 149.478,266.457 149.426,266.797 148.769 C 266.926 148.520,267.114 146.917,267.213 145.207 C 267.335 143.113,267.525 141.897,267.793 141.481 C 268.730 140.030,268.717 136.580,267.772 135.950 C 267.479 135.754,225.832 135.742,224.541 135.937 M117.927 155.233 C 117.756 155.404,117.617 155.935,117.617 156.414 C 117.617 156.892,117.511 157.772,117.382 158.370 C 115.971 164.903,115.983 166.968,117.438 168.302 L 118.386 169.171 144.152 169.171 L 169.919 169.171 170.322 168.595 C 170.888 167.787,170.839 166.017,170.228 165.241 C 169.955 164.893,169.540 163.683,169.307 162.550 C 169.074 161.418,168.730 160.257,168.543 159.970 C 168.355 159.682,168.057 158.575,167.880 157.509 C 167.702 156.442,167.440 155.424,167.296 155.246 C 166.923 154.783,118.390 154.771,117.927 155.233 M218.455 155.246 C 218.312 155.424,218.114 155.978,218.016 156.477 C 217.917 156.975,217.672 157.749,217.470 158.195 C 217.232 158.720,217.042 160.466,216.932 163.135 L 216.762 167.263 217.557 168.152 L 218.351 169.041 244.369 169.041 C 266.040 169.041,270.458 168.982,270.815 168.686 C 271.351 168.242,271.386 166.503,270.869 166.074 C 270.663 165.903,270.370 165.102,270.217 164.294 C 270.065 163.485,269.717 162.358,269.445 161.788 C 268.881 160.607,268.394 158.436,268.394 157.100 C 268.394 156.484,268.191 155.991,267.758 155.558 L 267.122 154.922 242.919 154.922 C 223.869 154.922,218.661 154.991,218.455 155.246 M118.718 174.101 C 117.919 174.422,117.785 176.381,118.506 177.188 C 118.704 177.410,118.948 178.146,119.048 178.824 C 119.149 179.503,119.453 180.340,119.725 180.686 C 119.996 181.031,120.389 181.798,120.598 182.390 C 120.807 182.982,121.271 183.815,121.629 184.240 C 121.987 184.666,122.280 185.162,122.280 185.342 C 122.280 185.523,122.854 186.155,123.557 186.747 L 124.834 187.824 151.971 187.824 C 180.722 187.824,180.829 187.820,180.829 186.652 C 180.829 185.676,180.043 183.761,179.391 183.148 C 179.042 182.820,178.756 182.392,178.756 182.197 C 178.756 182.002,178.453 181.538,178.082 181.167 C 177.711 180.796,177.287 180.131,177.140 179.689 C 176.993 179.247,176.612 178.595,176.293 178.238 C 175.975 177.882,175.645 177.295,175.561 176.934 C 175.476 176.573,174.880 175.728,174.236 175.056 L 173.066 173.834 146.183 173.851 C 130.802 173.860,119.051 173.967,118.718 174.101 M218.921 174.211 C 218.261 175.007,218.294 176.558,218.999 177.888 C 219.365 178.579,219.786 179.622,219.935 180.205 C 220.084 180.788,220.432 181.527,220.708 181.846 C 220.985 182.165,221.282 182.745,221.368 183.136 C 221.453 183.526,221.868 184.223,222.290 184.685 C 222.712 185.146,223.057 185.672,223.057 185.853 C 223.057 186.034,223.627 186.552,224.324 187.003 L 225.591 187.824 252.764 187.824 C 283.691 187.824,281.246 188.007,281.025 185.701 C 280.939 184.810,280.744 184.316,280.378 184.060 C 280.090 183.858,279.669 183.229,279.442 182.662 C 279.216 182.096,278.807 181.513,278.535 181.367 C 278.262 181.221,277.958 180.778,277.859 180.382 C 277.761 179.987,277.398 179.292,277.053 178.839 C 276.708 178.386,276.319 177.744,276.188 177.414 C 276.058 177.084,275.766 176.580,275.540 176.295 C 275.313 176.010,274.861 175.369,274.536 174.870 L 273.943 173.964 246.590 173.898 C 222.824 173.840,219.195 173.882,218.921 174.211 M131.705 192.788 L 131.157 193.054 131.719 194.117 C 132.083 194.806,132.647 195.367,133.320 195.712 C 133.891 196.004,134.677 196.498,135.067 196.809 C 135.457 197.119,136.120 197.449,136.541 197.542 C 136.961 197.634,137.306 197.815,137.306 197.945 C 137.306 198.242,138.693 198.827,139.961 199.064 C 140.495 199.164,140.933 199.353,140.933 199.484 C 140.933 199.886,141.919 200.280,143.599 200.550 C 144.480 200.692,145.377 200.965,145.593 201.157 C 146.156 201.659,147.719 201.998,150.369 202.195 C 151.692 202.293,152.909 202.525,153.212 202.737 C 153.964 203.264,163.887 203.279,164.644 202.755 C 164.925 202.561,166.338 202.279,167.783 202.129 C 169.738 201.926,170.732 201.685,171.667 201.187 C 172.358 200.819,173.229 200.518,173.602 200.518 C 173.976 200.518,174.721 200.168,175.259 199.741 C 175.797 199.313,176.430 198.964,176.665 198.964 C 177.140 198.964,178.778 197.635,180.497 195.855 C 181.659 194.651,181.824 193.762,181.055 192.836 C 180.687 192.392,132.618 192.346,131.705 192.788 M231.916 192.760 L 231.318 192.999 232.133 194.183 C 232.597 194.858,233.355 195.555,233.896 195.805 C 234.418 196.046,234.932 196.380,235.040 196.546 C 235.147 196.713,235.760 197.049,236.400 197.294 C 237.041 197.539,237.565 197.822,237.565 197.923 C 237.565 198.146,239.221 198.864,240.246 199.086 C 240.652 199.174,241.295 199.475,241.675 199.756 C 242.055 200.037,243.050 200.378,243.887 200.514 C 244.724 200.650,245.596 200.925,245.826 201.125 C 246.342 201.574,248.233 201.990,250.720 202.203 C 251.757 202.292,253.007 202.532,253.497 202.737 C 254.789 203.276,264.326 203.268,265.364 202.726 C 265.764 202.518,267.184 202.235,268.520 202.099 C 270.781 201.867,271.946 201.528,272.294 200.999 C 272.373 200.879,272.987 200.678,273.658 200.553 C 274.329 200.427,275.319 200.018,275.859 199.644 C 276.399 199.270,276.979 198.964,277.147 198.964 C 277.437 198.964,277.753 198.708,279.996 196.659 C 281.973 194.852,282.474 193.224,281.201 192.740 C 280.330 192.409,232.742 192.428,231.916 192.760 " stroke="none" fill="#ffffff" fill-rule="evenodd"></path></g></svg>