<svg id="svg" version="1.1" xmlns="http://www.w3.org/2000/svg" xmlns:xlink="http://www.w3.org/1999/xlink" width="400" height="258.91472868217056" viewBox="0, 0, 400,258.91472868217056"><g id="svgg"><path id="path0" d="M254.544 37.616 C 254.137 38.582,251.328 44.457,248.933 49.352 C 248.514 50.207,248.175 51.035,248.179 51.192 C 248.183 51.348,247.839 51.989,247.414 52.616 C 246.989 53.243,246.639 53.943,246.637 54.171 C 246.634 54.399,246.285 55.098,245.860 55.725 C 245.435 56.352,245.085 57.053,245.082 57.282 C 245.080 57.511,244.728 58.354,244.301 59.156 C 243.873 59.957,243.523 60.727,243.523 60.867 C 243.523 61.007,243.174 61.673,242.746 62.347 C 242.319 63.021,241.969 63.743,241.969 63.951 C 241.969 64.159,241.695 64.690,241.361 65.131 C 241.026 65.572,240.603 66.399,240.421 66.969 C 240.240 67.539,239.825 68.530,239.501 69.171 C 239.176 69.812,238.757 70.687,238.568 71.114 C 238.380 71.541,238.019 72.169,237.766 72.509 C 237.513 72.849,237.306 73.321,237.306 73.559 C 237.306 73.797,236.969 74.523,236.557 75.172 C 236.145 75.822,235.722 76.748,235.616 77.231 C 235.511 77.714,235.213 78.378,234.955 78.708 C 234.697 79.037,234.345 79.737,234.174 80.262 C 234.003 80.788,233.653 81.487,233.397 81.817 C 233.141 82.146,232.794 82.832,232.626 83.342 C 232.457 83.851,232.046 84.671,231.711 85.165 C 231.376 85.659,231.028 86.455,230.938 86.934 C 230.848 87.413,230.617 87.937,230.423 88.097 C 230.230 88.258,229.828 89.038,229.532 89.832 C 229.235 90.625,228.782 91.577,228.525 91.946 C 228.269 92.315,227.928 93.001,227.769 93.470 C 227.610 93.939,227.260 94.639,226.990 95.024 C 226.721 95.410,226.418 96.075,226.317 96.503 C 226.217 96.930,225.865 97.692,225.535 98.196 C 225.205 98.701,224.855 99.479,224.757 99.927 C 224.659 100.375,224.426 100.868,224.240 101.022 C 224.054 101.176,223.696 101.855,223.444 102.530 C 223.192 103.204,222.824 103.944,222.626 104.173 C 222.429 104.402,222.026 105.276,221.733 106.116 C 221.439 106.955,221.052 107.817,220.873 108.031 C 220.693 108.245,220.344 108.944,220.096 109.585 C 219.848 110.227,219.499 110.926,219.319 111.140 C 219.139 111.354,218.790 112.053,218.542 112.694 C 218.294 113.335,217.941 114.035,217.757 114.249 C 217.573 114.462,217.278 115.089,217.101 115.641 C 216.923 116.193,216.442 117.283,216.032 118.063 C 215.621 118.844,215.285 119.631,215.285 119.813 C 215.285 119.995,215.116 120.284,214.910 120.455 C 214.704 120.626,214.329 121.311,214.076 121.976 C 213.824 122.642,213.374 123.549,213.076 123.992 C 211.771 125.931,211.785 128.981,213.105 130.570 C 213.283 130.784,213.633 131.483,213.883 132.124 C 214.134 132.766,214.551 133.568,214.812 133.908 C 215.072 134.248,215.285 134.634,215.285 134.765 C 215.285 135.061,216.931 138.598,218.758 142.228 C 219.511 143.724,220.271 145.385,220.446 145.920 C 220.622 146.454,220.865 146.891,220.987 146.891 C 221.109 146.891,221.283 147.153,221.373 147.474 C 221.463 147.795,222.302 149.631,223.238 151.554 C 224.992 155.161,225.764 156.795,226.667 158.808 C 226.954 159.449,227.303 160.149,227.443 160.363 C 227.583 160.576,227.933 161.276,228.220 161.917 C 228.508 162.558,228.852 163.258,228.985 163.472 C 229.476 164.259,231.088 167.854,231.088 168.159 C 231.088 168.332,231.373 168.848,231.722 169.305 C 232.071 169.762,232.436 170.473,232.533 170.884 C 232.631 171.296,232.980 171.995,233.310 172.439 C 233.640 172.882,233.990 173.582,234.088 173.993 C 234.185 174.404,234.540 175.266,234.876 175.907 C 235.212 176.548,235.657 177.481,235.864 177.979 C 236.072 178.478,236.411 179.177,236.619 179.534 C 236.973 180.141,237.887 182.052,239.715 186.010 C 240.142 186.937,240.646 187.986,240.834 188.342 C 241.021 188.698,241.366 189.398,241.598 189.896 C 241.831 190.395,242.181 191.095,242.376 191.451 C 242.570 191.807,242.919 192.506,243.151 193.005 C 243.384 193.504,243.803 194.357,244.084 194.900 C 244.365 195.444,244.759 196.355,244.960 196.925 C 245.161 197.495,245.544 198.275,245.810 198.657 C 246.076 199.039,246.424 199.736,246.583 200.206 C 246.742 200.675,247.094 201.375,247.366 201.760 C 247.637 202.146,247.945 202.753,248.050 203.109 C 248.243 203.768,249.520 206.596,250.155 207.772 C 250.348 208.128,250.741 208.944,251.029 209.585 C 251.318 210.227,251.673 210.926,251.818 211.140 C 251.964 211.354,252.256 211.937,252.467 212.435 C 252.835 213.305,253.537 214.820,254.542 216.912 L 255.013 217.892 255.985 216.943 C 256.581 216.361,257.124 215.480,257.387 214.668 C 257.624 213.939,258.020 213.109,258.267 212.824 C 258.515 212.539,258.873 211.812,259.062 211.208 C 259.252 210.605,259.622 209.916,259.885 209.679 C 260.148 209.441,260.363 209.092,260.363 208.903 C 260.363 208.714,260.829 207.578,261.399 206.378 C 261.969 205.178,262.435 204.116,262.435 204.017 C 262.435 203.918,262.661 203.520,262.936 203.133 C 263.212 202.746,263.522 202.087,263.625 201.668 C 263.728 201.249,264.072 200.557,264.389 200.130 C 264.706 199.702,265.050 199.061,265.153 198.705 C 265.369 197.957,266.712 194.995,267.268 194.041 C 267.475 193.685,267.816 192.986,268.026 192.487 C 268.236 191.988,268.586 191.289,268.803 190.933 C 269.021 190.576,269.368 189.877,269.574 189.378 C 269.781 188.880,270.190 188.027,270.484 187.483 C 270.779 186.940,271.184 186.028,271.385 185.458 C 271.586 184.888,271.969 184.109,272.235 183.726 C 272.501 183.344,272.849 182.647,273.008 182.178 C 273.167 181.708,273.527 181.002,273.807 180.607 C 274.088 180.213,274.402 179.548,274.505 179.129 C 274.607 178.711,275.011 177.785,275.402 177.073 C 275.794 176.360,276.199 175.491,276.303 175.142 C 276.408 174.792,276.642 174.357,276.824 174.175 C 277.007 173.993,277.366 173.288,277.622 172.608 C 277.879 171.929,278.229 171.229,278.400 171.054 C 278.570 170.878,278.915 170.179,279.166 169.500 C 279.417 168.820,279.710 168.147,279.816 168.005 C 279.922 167.862,280.261 167.104,280.569 166.321 C 280.877 165.537,281.277 164.722,281.457 164.508 C 281.637 164.294,281.988 163.595,282.235 162.953 C 282.483 162.312,282.835 161.613,283.017 161.399 C 283.200 161.185,283.565 160.427,283.829 159.715 C 284.093 159.003,284.574 157.953,284.898 157.383 C 285.221 156.813,285.487 156.161,285.489 155.933 C 285.491 155.706,285.712 155.266,285.982 154.955 C 286.251 154.645,286.608 154.015,286.776 153.556 C 286.943 153.096,287.244 152.429,287.444 152.073 C 287.644 151.716,287.937 151.133,288.094 150.777 C 288.251 150.421,288.721 149.467,289.138 148.658 C 289.555 147.849,289.896 147.021,289.896 146.819 C 289.896 146.617,290.244 145.938,290.669 145.311 C 291.094 144.684,291.443 143.985,291.446 143.757 C 291.449 143.529,291.798 142.829,292.223 142.202 C 292.648 141.575,292.996 140.887,292.997 140.674 C 292.997 140.460,294.055 138.128,295.347 135.492 C 296.639 132.856,297.981 130.115,298.330 129.400 C 299.034 127.957,299.155 126.294,298.602 125.668 C 298.403 125.443,298.060 124.720,297.839 124.061 C 297.618 123.401,297.140 122.423,296.776 121.887 C 296.412 121.351,296.112 120.724,296.109 120.495 C 296.107 120.265,295.757 119.565,295.332 118.938 C 294.907 118.311,294.560 117.598,294.560 117.353 C 294.560 117.109,294.348 116.631,294.089 116.291 C 293.830 115.952,293.464 115.266,293.277 114.767 C 293.089 114.268,291.902 111.759,290.639 109.191 C 289.375 106.622,288.342 104.336,288.342 104.109 C 288.342 103.882,288.106 103.397,287.818 103.031 C 287.530 102.665,287.119 101.868,286.905 101.260 C 286.690 100.653,286.346 99.969,286.140 99.741 C 285.934 99.513,285.584 98.814,285.363 98.187 C 285.141 97.559,284.804 96.866,284.612 96.645 C 284.420 96.424,284.068 95.643,283.829 94.909 C 283.590 94.175,283.167 93.312,282.889 92.991 C 282.611 92.670,282.383 92.255,282.383 92.068 C 282.383 91.604,281.554 89.896,281.329 89.896 C 281.229 89.896,280.949 89.284,280.706 88.536 C 280.463 87.788,280.108 87.001,279.918 86.788 C 279.727 86.574,279.376 85.816,279.137 85.104 C 278.898 84.391,278.550 83.633,278.363 83.420 C 278.176 83.206,277.820 82.506,277.572 81.865 C 277.324 81.224,276.975 80.525,276.795 80.311 C 276.615 80.097,276.266 79.398,276.018 78.756 C 275.770 78.115,275.400 77.395,275.196 77.156 C 274.991 76.917,274.713 76.229,274.578 75.627 C 274.443 75.026,274.099 74.207,273.815 73.807 C 273.530 73.407,273.167 72.696,273.008 72.226 C 272.849 71.757,272.499 71.058,272.231 70.672 C 271.962 70.287,271.613 69.587,271.453 69.118 C 271.294 68.648,270.939 67.940,270.663 67.544 C 270.387 67.148,270.042 66.391,269.896 65.860 C 269.750 65.330,269.406 64.581,269.132 64.195 C 268.858 63.810,268.504 63.110,268.345 62.641 C 268.186 62.172,267.836 61.472,267.567 61.087 C 267.299 60.701,266.948 60.002,266.787 59.532 C 266.625 59.063,266.240 58.271,265.931 57.772 C 265.621 57.273,265.284 56.516,265.181 56.088 C 265.078 55.661,264.710 54.876,264.362 54.345 C 264.015 53.814,263.731 53.277,263.731 53.153 C 263.731 53.029,263.323 52.159,262.824 51.219 C 262.325 50.279,261.917 49.345,261.917 49.143 C 261.917 48.940,261.698 48.497,261.431 48.157 C 261.164 47.817,260.747 46.956,260.506 46.244 C 260.264 45.531,259.918 44.773,259.736 44.560 C 259.555 44.346,259.204 43.646,258.956 43.005 C 258.708 42.364,258.357 41.665,258.174 41.451 C 257.992 41.237,257.644 40.538,257.401 39.896 C 257.157 39.255,256.521 38.229,255.986 37.616 L 255.014 36.501 254.544 37.616 M143.060 37.095 C 142.887 37.268,142.746 37.532,142.745 37.681 C 142.744 37.831,142.395 38.478,141.969 39.119 C 141.543 39.760,141.193 40.460,141.192 40.674 C 141.190 40.887,140.841 41.587,140.415 42.228 C 139.988 42.869,139.639 43.571,139.638 43.787 C 139.638 44.003,139.356 44.594,139.012 45.100 C 138.669 45.606,138.263 46.478,138.111 47.038 C 137.959 47.599,137.541 48.488,137.182 49.015 C 136.822 49.542,136.528 50.131,136.528 50.324 C 136.528 50.518,136.179 51.227,135.751 51.901 C 135.324 52.575,134.974 53.254,134.974 53.410 C 134.974 53.566,134.637 54.290,134.224 55.020 C 133.812 55.750,133.396 56.718,133.301 57.171 C 133.205 57.624,132.966 58.129,132.769 58.293 C 132.572 58.456,132.208 59.135,131.960 59.800 C 131.712 60.466,131.305 61.280,131.054 61.609 C 130.804 61.939,130.458 62.638,130.286 63.164 C 130.113 63.689,129.714 64.530,129.398 65.033 C 129.082 65.535,128.734 66.350,128.626 66.844 C 128.518 67.337,128.168 68.092,127.850 68.521 C 127.531 68.950,127.190 69.637,127.093 70.048 C 126.995 70.460,126.645 71.159,126.316 71.603 C 125.986 72.046,125.634 72.752,125.535 73.171 C 125.435 73.589,125.145 74.231,124.890 74.596 C 124.634 74.961,124.225 75.871,123.979 76.619 C 123.734 77.367,123.442 77.979,123.330 77.979 C 123.219 77.979,122.921 78.533,122.668 79.210 C 122.416 79.887,122.060 80.615,121.877 80.829 C 121.695 81.043,121.341 81.742,121.091 82.383 C 120.840 83.025,120.423 83.827,120.162 84.167 C 119.902 84.507,119.687 84.973,119.684 85.203 C 119.681 85.433,118.682 87.604,117.465 90.026 C 116.248 92.448,115.073 94.955,114.853 95.596 C 114.633 96.237,114.301 96.937,114.114 97.150 C 113.927 97.364,113.570 98.063,113.321 98.705 C 113.071 99.346,112.670 100.162,112.428 100.518 C 112.187 100.874,111.850 101.596,111.679 102.121 C 111.509 102.647,111.154 103.350,110.891 103.685 C 110.628 104.019,110.284 104.769,110.128 105.351 C 109.971 105.933,109.632 106.687,109.374 107.026 C 109.116 107.365,108.702 108.187,108.454 108.853 C 108.207 109.518,107.835 110.203,107.629 110.374 C 107.423 110.545,107.254 110.824,107.254 110.993 C 107.254 111.162,106.846 112.129,106.347 113.141 C 105.848 114.153,105.440 115.137,105.439 115.328 C 105.439 115.518,105.089 116.198,104.663 116.839 C 104.237 117.481,103.887 118.180,103.886 118.394 C 103.885 118.608,103.535 119.307,103.109 119.948 C 102.683 120.589,102.333 121.275,102.333 121.472 C 102.332 121.669,102.071 122.252,101.752 122.767 C 100.398 124.957,99.733 127.663,100.326 128.568 C 100.537 128.890,100.798 129.558,100.907 130.053 C 101.016 130.548,101.365 131.304,101.684 131.733 C 102.003 132.162,102.343 132.849,102.441 133.261 C 102.539 133.672,102.888 134.372,103.218 134.815 C 103.548 135.259,103.898 135.958,103.995 136.370 C 104.093 136.781,104.442 137.480,104.772 137.924 C 105.101 138.368,105.444 139.119,105.533 139.594 C 105.622 140.069,105.934 140.793,106.225 141.202 C 106.516 141.611,106.885 142.330,107.044 142.799 C 107.203 143.269,107.553 143.968,107.821 144.354 C 108.090 144.739,108.440 145.439,108.601 145.908 C 108.761 146.378,109.165 147.168,109.498 147.664 C 109.831 148.160,110.104 148.807,110.104 149.103 C 110.104 149.398,110.453 150.191,110.881 150.865 C 111.308 151.539,111.658 152.200,111.658 152.335 C 111.658 152.469,112.291 153.808,113.064 155.309 C 113.837 156.810,114.611 158.474,114.784 159.006 C 114.957 159.539,115.294 160.266,115.535 160.622 C 115.775 160.978,116.128 161.677,116.319 162.176 C 116.510 162.675,116.812 163.258,116.990 163.472 C 117.168 163.685,117.517 164.385,117.765 165.026 C 118.012 165.667,118.371 166.375,118.561 166.598 C 118.752 166.822,119.143 167.688,119.430 168.523 C 119.717 169.358,120.112 170.225,120.306 170.448 C 120.501 170.672,120.798 171.285,120.966 171.810 C 121.135 172.336,121.483 173.035,121.739 173.365 C 121.995 173.694,122.345 174.394,122.516 174.919 C 122.687 175.444,123.038 176.144,123.296 176.473 C 123.553 176.803,123.953 177.728,124.185 178.528 C 124.417 179.329,124.775 180.124,124.981 180.295 C 125.187 180.466,125.429 180.944,125.520 181.356 C 125.611 181.769,125.943 182.490,126.258 182.958 C 126.573 183.426,127.037 184.353,127.289 185.018 C 127.541 185.684,127.913 186.366,128.116 186.534 C 128.318 186.702,128.560 187.265,128.652 187.785 C 128.745 188.305,129.092 189.094,129.422 189.537 C 129.753 189.981,130.104 190.680,130.202 191.092 C 130.299 191.503,130.649 192.202,130.979 192.646 C 131.309 193.090,131.660 193.789,131.760 194.200 C 131.859 194.612,132.171 195.277,132.452 195.679 C 132.733 196.082,133.121 196.932,133.313 197.570 C 133.505 198.208,133.881 199.045,134.149 199.430 C 134.417 199.815,134.766 200.514,134.925 200.983 C 135.084 201.452,135.452 202.170,135.742 202.577 C 136.032 202.985,136.269 203.428,136.269 203.563 C 136.269 203.698,136.663 204.554,137.145 205.466 C 137.627 206.378,138.100 207.495,138.198 207.948 C 138.295 208.402,138.537 208.906,138.734 209.070 C 138.931 209.233,139.295 209.912,139.543 210.577 C 139.790 211.243,140.198 212.057,140.448 212.387 C 140.698 212.716,141.041 213.416,141.210 213.941 C 141.378 214.466,141.663 215.071,141.842 215.285 C 142.021 215.499,142.417 216.169,142.721 216.775 C 143.026 217.380,143.360 217.873,143.464 217.870 C 143.823 217.860,145.544 214.892,145.849 213.756 C 146.017 213.129,146.310 212.461,146.500 212.271 C 146.690 212.082,147.055 211.371,147.312 210.691 C 147.568 210.012,147.918 209.312,148.089 209.137 C 148.259 208.961,148.609 208.262,148.866 207.582 C 149.123 206.903,149.473 206.203,149.644 206.027 C 149.816 205.851,150.156 205.093,150.400 204.343 C 150.644 203.593,150.994 202.804,151.177 202.591 C 151.361 202.377,151.714 201.677,151.961 201.036 C 152.209 200.395,152.559 199.696,152.739 199.482 C 152.918 199.268,153.268 198.569,153.516 197.927 C 153.764 197.286,154.103 196.587,154.270 196.373 C 154.438 196.159,154.834 195.287,155.151 194.435 C 155.468 193.583,155.881 192.708,156.067 192.492 C 156.254 192.275,156.478 191.798,156.565 191.432 C 156.652 191.065,156.999 190.358,157.337 189.860 C 157.675 189.362,158.024 188.663,158.114 188.306 C 158.204 187.949,158.546 187.257,158.875 186.769 C 159.203 186.280,159.626 185.356,159.813 184.715 C 160.001 184.074,160.308 183.374,160.496 183.161 C 160.684 182.947,161.040 182.247,161.288 181.606 C 161.536 180.965,161.892 180.260,162.080 180.039 C 162.268 179.818,162.597 179.140,162.811 178.532 C 163.026 177.925,163.424 177.145,163.696 176.799 C 163.968 176.453,164.271 175.742,164.369 175.218 C 164.467 174.694,164.821 173.906,165.155 173.467 C 165.489 173.028,165.849 172.319,165.954 171.891 C 166.058 171.464,166.408 170.764,166.731 170.337 C 167.053 169.909,167.403 169.210,167.508 168.782 C 167.613 168.355,167.959 167.655,168.277 167.228 C 168.595 166.801,168.941 166.043,169.045 165.544 C 169.150 165.045,169.458 164.322,169.731 163.936 C 170.003 163.551,170.356 162.851,170.515 162.382 C 170.674 161.913,171.024 161.213,171.293 160.828 C 171.561 160.442,171.912 159.743,172.074 159.273 C 172.235 158.804,172.638 157.985,172.971 157.453 C 173.303 156.922,173.575 156.327,173.575 156.132 C 173.575 155.937,173.968 155.031,174.449 154.119 C 174.930 153.207,175.411 152.175,175.519 151.826 C 175.628 151.476,175.865 151.041,176.047 150.859 C 176.229 150.677,176.588 149.972,176.845 149.292 C 177.102 148.613,177.461 147.904,177.643 147.717 C 177.825 147.530,178.156 146.753,178.377 145.990 C 178.599 145.227,178.944 144.468,179.143 144.302 C 179.342 144.137,179.693 143.437,179.922 142.746 C 180.152 142.056,180.501 141.356,180.699 141.192 C 180.898 141.027,181.247 140.328,181.477 139.637 C 181.706 138.947,182.048 138.254,182.236 138.098 C 182.424 137.942,182.732 137.262,182.921 136.588 C 183.110 135.914,183.535 134.963,183.867 134.475 C 184.198 133.987,184.540 133.287,184.627 132.920 C 184.714 132.554,184.929 132.079,185.105 131.865 C 186.507 130.168,187.608 126.739,186.931 126.178 C 186.725 126.007,186.369 125.302,186.140 124.611 C 185.911 123.921,185.561 123.221,185.363 123.057 C 185.165 122.893,184.815 122.193,184.585 121.503 C 184.356 120.812,184.007 120.113,183.809 119.949 C 183.611 119.784,183.200 118.901,182.895 117.986 C 182.590 117.070,182.253 116.321,182.144 116.321 C 182.036 116.321,181.813 115.872,181.648 115.322 C 181.483 114.773,181.075 113.920,180.740 113.427 C 180.406 112.934,180.058 112.238,179.969 111.881 C 179.879 111.524,179.511 110.798,179.152 110.267 C 178.792 109.737,178.497 109.156,178.497 108.976 C 178.497 108.796,178.090 107.840,177.591 106.850 C 177.093 105.861,176.685 104.922,176.685 104.763 C 176.684 104.604,176.448 104.174,176.160 103.808 C 175.872 103.442,175.467 102.661,175.259 102.073 C 175.051 101.484,174.654 100.713,174.376 100.360 C 174.098 100.006,173.792 99.343,173.697 98.887 C 173.602 98.430,173.259 97.591,172.935 97.021 C 172.611 96.451,172.257 95.693,172.149 95.337 C 172.041 94.981,171.731 94.374,171.459 93.988 C 171.188 93.603,170.835 92.903,170.676 92.434 C 170.517 91.964,170.158 91.251,169.878 90.849 C 169.597 90.447,169.206 89.581,169.009 88.925 C 168.812 88.269,168.479 87.543,168.270 87.312 C 168.060 87.080,167.708 86.378,167.487 85.751 C 167.266 85.124,166.916 84.425,166.710 84.197 C 166.504 83.969,166.159 83.285,165.945 82.678 C 165.731 82.070,165.328 81.283,165.049 80.930 C 164.771 80.576,164.462 79.916,164.363 79.464 C 164.263 79.011,163.924 78.230,163.609 77.727 C 163.294 77.225,162.952 76.471,162.848 76.052 C 162.745 75.633,162.430 74.968,162.149 74.574 C 161.869 74.180,161.509 73.473,161.350 73.004 C 161.191 72.534,160.831 71.821,160.551 71.419 C 160.271 71.017,159.880 70.151,159.683 69.495 C 159.485 68.839,159.167 68.119,158.977 67.894 C 158.786 67.670,158.427 66.962,158.179 66.321 C 157.931 65.680,157.582 64.981,157.402 64.767 C 157.222 64.553,156.872 63.854,156.625 63.212 C 156.377 62.571,156.021 61.872,155.834 61.658 C 155.647 61.444,155.313 60.745,155.090 60.104 C 154.868 59.462,153.690 56.976,152.473 54.579 C 151.255 52.181,150.259 50.018,150.259 49.772 C 150.259 49.525,149.968 48.928,149.611 48.446 C 149.255 47.963,148.964 47.375,148.964 47.139 C 148.964 46.903,148.616 46.197,148.191 45.570 C 147.766 44.943,147.417 44.244,147.414 44.016 C 147.411 43.788,147.062 43.088,146.637 42.461 C 146.212 41.834,145.862 41.172,145.860 40.989 C 145.850 40.296,144.082 37.008,143.643 36.867 C 143.495 36.820,143.233 36.922,143.060 37.095 " stroke="none" fill="#04ac54" fill-rule="evenodd"></path><path id="path1" d="M0.000 129.534 L 0.000 259.067 200.000 259.067 L 400.000 259.067 400.000 129.534 L 400.000 0.000 200.000 0.000 L 0.000 0.000 0.000 129.534 M257.401 39.896 C 257.644 40.538,257.992 41.237,258.174 41.451 C 258.357 41.665,258.708 42.364,258.956 43.005 C 259.204 43.646,259.555 44.346,259.736 44.560 C 259.918 44.773,260.264 45.531,260.506 46.244 C 260.747 46.956,261.164 47.817,261.431 48.157 C 261.698 48.497,261.917 48.940,261.917 49.143 C 261.917 49.345,262.325 50.279,262.824 51.219 C 263.323 52.159,263.731 53.029,263.731 53.153 C 263.731 53.277,264.015 53.814,264.362 54.345 C 264.710 54.876,265.078 55.661,265.181 56.088 C 265.284 56.516,265.621 57.273,265.931 57.772 C 266.240 58.271,266.625 59.063,266.787 59.532 C 266.948 60.002,267.299 60.701,267.567 61.087 C 267.836 61.472,268.186 62.172,268.345 62.641 C 268.504 63.110,268.858 63.810,269.132 64.195 C 269.406 64.581,269.750 65.330,269.896 65.860 C 270.042 66.391,270.387 67.148,270.663 67.544 C 270.939 67.940,271.294 68.648,271.453 69.118 C 271.613 69.587,271.962 70.287,272.231 70.672 C 272.499 71.058,272.849 71.757,273.008 72.226 C 273.167 72.696,273.530 73.407,273.815 73.807 C 274.099 74.207,274.443 75.026,274.578 75.627 C 274.713 76.229,274.991 76.917,275.196 77.156 C 275.400 77.395,275.770 78.115,276.018 78.756 C 276.266 79.398,276.615 80.097,276.795 80.311 C 276.975 80.525,277.324 81.224,277.572 81.865 C 277.820 82.506,278.176 83.206,278.363 83.420 C 278.550 83.633,278.898 84.391,279.137 85.104 C 279.376 85.816,279.727 86.574,279.918 86.788 C 280.108 87.001,280.463 87.788,280.706 88.536 C 280.949 89.284,281.229 89.896,281.329 89.896 C 281.554 89.896,282.383 91.604,282.383 92.068 C 282.383 92.255,282.611 92.670,282.889 92.991 C 283.167 93.312,283.590 94.175,283.829 94.909 C 284.068 95.643,284.420 96.424,284.612 96.645 C 284.804 96.866,285.141 97.559,285.363 98.187 C 285.584 98.814,285.934 99.513,286.140 99.741 C 286.346 99.969,286.690 100.653,286.905 101.260 C 287.119 101.868,287.530 102.665,287.818 103.031 C 288.106 103.397,288.342 103.882,288.342 104.109 C 288.342 104.336,289.375 106.622,290.639 109.191 C 291.902 111.759,293.089 114.268,293.277 114.767 C 293.464 115.266,293.830 115.952,294.089 116.291 C 294.348 116.631,294.560 117.109,294.560 117.353 C 294.560 117.598,294.907 118.311,295.332 118.938 C 295.757 119.565,296.107 120.265,296.109 120.495 C 296.112 120.724,296.412 121.351,296.776 121.887 C 297.140 122.423,297.618 123.401,297.839 124.061 C 298.060 124.720,298.403 125.443,298.602 125.668 C 299.155 126.294,299.034 127.957,298.330 129.400 C 297.981 130.115,296.639 132.856,295.347 135.492 C 294.055 138.128,292.997 140.460,292.997 140.674 C 292.996 140.887,292.648 141.575,292.223 142.202 C 291.798 142.829,291.449 143.529,291.446 143.757 C 291.443 143.985,291.094 144.684,290.669 145.311 C 290.244 145.938,289.896 146.617,289.896 146.819 C 289.896 147.021,289.555 147.849,289.138 148.658 C 288.721 149.467,288.251 150.421,288.094 150.777 C 287.937 151.133,287.644 151.716,287.444 152.073 C 287.244 152.429,286.943 153.096,286.776 153.556 C 286.608 154.015,286.251 154.645,285.982 154.955 C 285.712 155.266,285.491 155.706,285.489 155.933 C 285.487 156.161,285.221 156.813,284.898 157.383 C 284.574 157.953,284.093 159.003,283.829 159.715 C 283.565 160.427,283.200 161.185,283.017 161.399 C 282.835 161.613,282.483 162.312,282.235 162.953 C 281.988 163.595,281.637 164.294,281.457 164.508 C 281.277 164.722,280.877 165.537,280.569 166.321 C 280.261 167.104,279.922 167.862,279.816 168.005 C 279.710 168.147,279.417 168.820,279.166 169.500 C 278.915 170.179,278.570 170.878,278.400 171.054 C 278.229 171.229,277.879 171.929,277.622 172.608 C 277.366 173.288,277.007 173.993,276.824 174.175 C 276.642 174.357,276.408 174.792,276.303 175.142 C 276.199 175.491,275.794 176.360,275.402 177.073 C 275.011 177.785,274.607 178.711,274.505 179.129 C 274.402 179.548,274.088 180.213,273.807 180.607 C 273.527 181.002,273.167 181.708,273.008 182.178 C 272.849 182.647,272.501 183.344,272.235 183.726 C 271.969 184.109,271.586 184.888,271.385 185.458 C 271.184 186.028,270.779 186.940,270.484 187.483 C 270.190 188.027,269.781 188.880,269.574 189.378 C 269.368 189.877,269.021 190.576,268.803 190.933 C 268.586 191.289,268.236 191.988,268.026 192.487 C 267.816 192.986,267.475 193.685,267.268 194.041 C 266.712 194.995,265.369 197.957,265.153 198.705 C 265.050 199.061,264.706 199.702,264.389 200.130 C 264.072 200.557,263.728 201.249,263.625 201.668 C 263.522 202.087,263.212 202.746,262.936 203.133 C 262.661 203.520,262.435 203.918,262.435 204.017 C 262.435 204.116,261.969 205.178,261.399 206.378 C 260.829 207.578,260.363 208.714,260.363 208.903 C 260.363 209.092,260.148 209.441,259.885 209.679 C 259.622 209.916,259.252 210.605,259.062 211.208 C 258.873 211.812,258.515 212.539,258.267 212.824 C 258.020 213.109,257.624 213.939,257.387 214.668 C 257.124 215.480,256.581 216.361,255.985 216.943 L 255.013 217.892 254.542 216.912 C 253.537 214.820,252.835 213.305,252.467 212.435 C 252.256 211.937,251.964 211.354,251.818 211.140 C 251.673 210.926,251.318 210.227,251.029 209.585 C 250.741 208.944,250.348 208.128,250.155 207.772 C 249.520 206.596,248.243 203.768,248.050 203.109 C 247.945 202.753,247.637 202.146,247.366 201.760 C 247.094 201.375,246.742 200.675,246.583 200.206 C 246.424 199.736,246.076 199.039,245.810 198.657 C 245.544 198.275,245.161 197.495,244.960 196.925 C 244.759 196.355,244.365 195.444,244.084 194.900 C 243.803 194.357,243.384 193.504,243.151 193.005 C 242.919 192.506,242.570 191.807,242.376 191.451 C 242.181 191.095,241.831 190.395,241.598 189.896 C 241.366 189.398,241.021 188.698,240.834 188.342 C 240.646 187.986,240.142 186.937,239.715 186.010 C 237.887 182.052,236.973 180.141,236.619 179.534 C 236.411 179.177,236.072 178.478,235.864 177.979 C 235.657 177.481,235.212 176.548,234.876 175.907 C 234.540 175.266,234.185 174.404,234.088 173.993 C 233.990 173.582,233.640 172.882,233.310 172.439 C 232.980 171.995,232.631 171.296,232.533 170.884 C 232.436 170.473,232.071 169.762,231.722 169.305 C 231.373 168.848,231.088 168.332,231.088 168.159 C 231.088 167.854,229.476 164.259,228.985 163.472 C 228.852 163.258,228.508 162.558,228.220 161.917 C 227.933 161.276,227.583 160.576,227.443 160.363 C 227.303 160.149,226.954 159.449,226.667 158.808 C 225.764 156.795,224.992 155.161,223.238 151.554 C 222.302 149.631,221.463 147.795,221.373 147.474 C 221.283 147.153,221.109 146.891,220.987 146.891 C 220.865 146.891,220.622 146.454,220.446 145.920 C 220.271 145.385,219.511 143.724,218.758 142.228 C 216.931 138.598,215.285 135.061,215.285 134.765 C 215.285 134.634,215.072 134.248,214.812 133.908 C 214.551 133.568,214.134 132.766,213.883 132.124 C 213.633 131.483,213.283 130.784,213.105 130.570 C 211.785 128.981,211.771 125.931,213.076 123.992 C 213.374 123.549,213.824 122.642,214.076 121.976 C 214.329 121.311,214.704 120.626,214.910 120.455 C 215.116 120.284,215.285 119.995,215.285 119.813 C 215.285 119.631,215.621 118.844,216.032 118.063 C 216.442 117.283,216.923 116.193,217.101 115.641 C 217.278 115.089,217.573 114.462,217.757 114.249 C 217.941 114.035,218.294 113.335,218.542 112.694 C 218.790 112.053,219.139 111.354,219.319 111.140 C 219.499 110.926,219.848 110.227,220.096 109.585 C 220.344 108.944,220.693 108.245,220.873 108.031 C 221.052 107.817,221.439 106.955,221.733 106.116 C 222.026 105.276,222.429 104.402,222.626 104.173 C 222.824 103.944,223.192 103.204,223.444 102.530 C 223.696 101.855,224.054 101.176,224.240 101.022 C 224.426 100.868,224.659 100.375,224.757 99.927 C 224.855 99.479,225.205 98.701,225.535 98.196 C 225.865 97.692,226.217 96.930,226.317 96.503 C 226.418 96.075,226.721 95.410,226.990 95.024 C 227.260 94.639,227.610 93.939,227.769 93.470 C 227.928 93.001,228.269 92.315,228.525 91.946 C 228.782 91.577,229.235 90.625,229.532 89.832 C 229.828 89.038,230.230 88.258,230.423 88.097 C 230.617 87.937,230.848 87.413,230.938 86.934 C 231.028 86.455,231.376 85.659,231.711 85.165 C 232.046 84.671,232.457 83.851,232.626 83.342 C 232.794 82.832,233.141 82.146,233.397 81.817 C 233.653 81.487,234.003 80.788,234.174 80.262 C 234.345 79.737,234.697 79.037,234.955 78.708 C 235.213 78.378,235.511 77.714,235.616 77.231 C 235.722 76.748,236.145 75.822,236.557 75.172 C 236.969 74.523,237.306 73.797,237.306 73.559 C 237.306 73.321,237.513 72.849,237.766 72.509 C 238.019 72.169,238.380 71.541,238.568 71.114 C 238.757 70.687,239.176 69.812,239.501 69.171 C 239.825 68.530,240.240 67.539,240.421 66.969 C 240.603 66.399,241.026 65.572,241.361 65.131 C 241.695 64.690,241.969 64.159,241.969 63.951 C 241.969 63.743,242.319 63.021,242.746 62.347 C 243.174 61.673,243.523 61.007,243.523 60.867 C 243.523 60.727,243.873 59.957,244.301 59.156 C 244.728 58.354,245.080 57.511,245.082 57.282 C 245.085 57.053,245.435 56.352,245.860 55.725 C 246.285 55.098,246.634 54.399,246.637 54.171 C 246.639 53.943,246.989 53.243,247.414 52.616 C 247.839 51.989,248.183 51.348,248.179 51.192 C 248.175 51.035,248.514 50.207,248.933 49.352 C 251.328 44.457,254.137 38.582,254.544 37.616 L 255.014 36.501 255.986 37.616 C 256.521 38.229,257.157 39.255,257.401 39.896 M144.493 37.972 C 145.316 39.413,145.854 40.602,145.860 40.989 C 145.862 41.172,146.212 41.834,146.637 42.461 C 147.062 43.088,147.411 43.788,147.414 44.016 C 147.417 44.244,147.766 44.943,148.191 45.570 C 148.616 46.197,148.964 46.903,148.964 47.139 C 148.964 47.375,149.255 47.963,149.611 48.446 C 149.968 48.928,150.259 49.525,150.259 49.772 C 150.259 50.018,151.255 52.181,152.473 54.579 C 153.690 56.976,154.868 59.462,155.090 60.104 C 155.313 60.745,155.647 61.444,155.834 61.658 C 156.021 61.872,156.377 62.571,156.625 63.212 C 156.872 63.854,157.222 64.553,157.402 64.767 C 157.582 64.981,157.931 65.680,158.179 66.321 C 158.427 66.962,158.786 67.670,158.977 67.894 C 159.167 68.119,159.485 68.839,159.683 69.495 C 159.880 70.151,160.271 71.017,160.551 71.419 C 160.831 71.821,161.191 72.534,161.350 73.004 C 161.509 73.473,161.869 74.180,162.149 74.574 C 162.430 74.968,162.745 75.633,162.848 76.052 C 162.952 76.471,163.294 77.225,163.609 77.727 C 163.924 78.230,164.263 79.011,164.363 79.464 C 164.462 79.916,164.771 80.576,165.049 80.930 C 165.328 81.283,165.731 82.070,165.945 82.678 C 166.159 83.285,166.504 83.969,166.710 84.197 C 166.916 84.425,167.266 85.124,167.487 85.751 C 167.708 86.378,168.060 87.080,168.270 87.312 C 168.479 87.543,168.812 88.269,169.009 88.925 C 169.206 89.581,169.597 90.447,169.878 90.849 C 170.158 91.251,170.517 91.964,170.676 92.434 C 170.835 92.903,171.188 93.603,171.459 93.988 C 171.731 94.374,172.041 94.981,172.149 95.337 C 172.257 95.693,172.611 96.451,172.935 97.021 C 173.259 97.591,173.602 98.430,173.697 98.887 C 173.792 99.343,174.098 100.006,174.376 100.360 C 174.654 100.713,175.051 101.484,175.259 102.073 C 175.467 102.661,175.872 103.442,176.160 103.808 C 176.448 104.174,176.684 104.604,176.685 104.763 C 176.685 104.922,177.093 105.861,177.591 106.850 C 178.090 107.840,178.497 108.796,178.497 108.976 C 178.497 109.156,178.792 109.737,179.152 110.267 C 179.511 110.798,179.879 111.524,179.969 111.881 C 180.058 112.238,180.406 112.934,180.740 113.427 C 181.075 113.920,181.483 114.773,181.648 115.322 C 181.813 115.872,182.036 116.321,182.144 116.321 C 182.253 116.321,182.590 117.070,182.895 117.986 C 183.200 118.901,183.611 119.784,183.809 119.949 C 184.007 120.113,184.356 120.812,184.585 121.503 C 184.815 122.193,185.165 122.893,185.363 123.057 C 185.561 123.221,185.911 123.921,186.140 124.611 C 186.369 125.302,186.725 126.007,186.931 126.178 C 187.608 126.739,186.507 130.168,185.105 131.865 C 184.929 132.079,184.714 132.554,184.627 132.920 C 184.540 133.287,184.198 133.987,183.867 134.475 C 183.535 134.963,183.110 135.914,182.921 136.588 C 182.732 137.262,182.424 137.942,182.236 138.098 C 182.048 138.254,181.706 138.947,181.477 139.637 C 181.247 140.328,180.898 141.027,180.699 141.192 C 180.501 141.356,180.152 142.056,179.922 142.746 C 179.693 143.437,179.342 144.137,179.143 144.302 C 178.944 144.468,178.599 145.227,178.377 145.990 C 178.156 146.753,177.825 147.530,177.643 147.717 C 177.461 147.904,177.102 148.613,176.845 149.292 C 176.588 149.972,176.229 150.677,176.047 150.859 C 175.865 151.041,175.628 151.476,175.519 151.826 C 175.411 152.175,174.930 153.207,174.449 154.119 C 173.968 155.031,173.575 155.937,173.575 156.132 C 173.575 156.327,173.303 156.922,172.971 157.453 C 172.638 157.985,172.235 158.804,172.074 159.273 C 171.912 159.743,171.561 160.442,171.293 160.828 C 171.024 161.213,170.674 161.913,170.515 162.382 C 170.356 162.851,170.003 163.551,169.731 163.936 C 169.458 164.322,169.150 165.045,169.045 165.544 C 168.941 166.043,168.595 166.801,168.277 167.228 C 167.959 167.655,167.613 168.355,167.508 168.782 C 167.403 169.210,167.053 169.909,166.731 170.337 C 166.408 170.764,166.058 171.464,165.954 171.891 C 165.849 172.319,165.489 173.028,165.155 173.467 C 164.821 173.906,164.467 174.694,164.369 175.218 C 164.271 175.742,163.968 176.453,163.696 176.799 C 163.424 177.145,163.026 177.925,162.811 178.532 C 162.597 179.140,162.268 179.818,162.080 180.039 C 161.892 180.260,161.536 180.965,161.288 181.606 C 161.040 182.247,160.684 182.947,160.496 183.161 C 160.308 183.374,160.001 184.074,159.813 184.715 C 159.626 185.356,159.203 186.280,158.875 186.769 C 158.546 187.257,158.204 187.949,158.114 188.306 C 158.024 188.663,157.675 189.362,157.337 189.860 C 156.999 190.358,156.652 191.065,156.565 191.432 C 156.478 191.798,156.254 192.275,156.067 192.492 C 155.881 192.708,155.468 193.583,155.151 194.435 C 154.834 195.287,154.438 196.159,154.270 196.373 C 154.103 196.587,153.764 197.286,153.516 197.927 C 153.268 198.569,152.918 199.268,152.739 199.482 C 152.559 199.696,152.209 200.395,151.961 201.036 C 151.714 201.677,151.361 202.377,151.177 202.591 C 150.994 202.804,150.644 203.593,150.400 204.343 C 150.156 205.093,149.816 205.851,149.644 206.027 C 149.473 206.203,149.123 206.903,148.866 207.582 C 148.609 208.262,148.259 208.961,148.089 209.137 C 147.918 209.312,147.568 210.012,147.312 210.691 C 147.055 211.371,146.690 212.082,146.500 212.271 C 146.310 212.461,146.017 213.129,145.849 213.756 C 145.544 214.892,143.823 217.860,143.464 217.870 C 143.360 217.873,143.026 217.380,142.721 216.775 C 142.417 216.169,142.021 215.499,141.842 215.285 C 141.663 215.071,141.378 214.466,141.210 213.941 C 141.041 213.416,140.698 212.716,140.448 212.387 C 140.198 212.057,139.790 211.243,139.543 210.577 C 139.295 209.912,138.931 209.233,138.734 209.070 C 138.537 208.906,138.295 208.402,138.198 207.948 C 138.100 207.495,137.627 206.378,137.145 205.466 C 136.663 204.554,136.269 203.698,136.269 203.563 C 136.269 203.428,136.032 202.985,135.742 202.577 C 135.452 202.170,135.084 201.452,134.925 200.983 C 134.766 200.514,134.417 199.815,134.149 199.430 C 133.881 199.045,133.505 198.208,133.313 197.570 C 133.121 196.932,132.733 196.082,132.452 195.679 C 132.171 195.277,131.859 194.612,131.760 194.200 C 131.660 193.789,131.309 193.090,130.979 192.646 C 130.649 192.202,130.299 191.503,130.202 191.092 C 130.104 190.680,129.753 189.981,129.422 189.537 C 129.092 189.094,128.745 188.305,128.652 187.785 C 128.560 187.265,128.318 186.702,128.116 186.534 C 127.913 186.366,127.541 185.684,127.289 185.018 C 127.037 184.353,126.573 183.426,126.258 182.958 C 125.943 182.490,125.611 181.769,125.520 181.356 C 125.429 180.944,125.187 180.466,124.981 180.295 C 124.775 180.124,124.417 179.329,124.185 178.528 C 123.953 177.728,123.553 176.803,123.296 176.473 C 123.038 176.144,122.687 175.444,122.516 174.919 C 122.345 174.394,121.995 173.694,121.739 173.365 C 121.483 173.035,121.135 172.336,120.966 171.810 C 120.798 171.285,120.501 170.672,120.306 170.448 C 120.112 170.225,119.717 169.358,119.430 168.523 C 119.143 167.688,118.752 166.822,118.561 166.598 C 118.371 166.375,118.012 165.667,117.765 165.026 C 117.517 164.385,117.168 163.685,116.990 163.472 C 116.812 163.258,116.510 162.675,116.319 162.176 C 116.128 161.677,115.775 160.978,115.535 160.622 C 115.294 160.266,114.957 159.539,114.784 159.006 C 114.611 158.474,113.837 156.810,113.064 155.309 C 112.291 153.808,111.658 152.469,111.658 152.335 C 111.658 152.200,111.308 151.539,110.881 150.865 C 110.453 150.191,110.104 149.398,110.104 149.103 C 110.104 148.807,109.831 148.160,109.498 147.664 C 109.165 147.168,108.761 146.378,108.601 145.908 C 108.440 145.439,108.090 144.739,107.821 144.354 C 107.553 143.968,107.203 143.269,107.044 142.799 C 106.885 142.330,106.516 141.611,106.225 141.202 C 105.934 140.793,105.622 140.069,105.533 139.594 C 105.444 139.119,105.101 138.368,104.772 137.924 C 104.442 137.480,104.093 136.781,103.995 136.370 C 103.898 135.958,103.548 135.259,103.218 134.815 C 102.888 134.372,102.539 133.672,102.441 133.261 C 102.343 132.849,102.003 132.162,101.684 131.733 C 101.365 131.304,101.016 130.548,100.907 130.053 C 100.798 129.558,100.537 128.890,100.326 128.568 C 99.733 127.663,100.398 124.957,101.752 122.767 C 102.071 122.252,102.332 121.669,102.333 121.472 C 102.333 121.275,102.683 120.589,103.109 119.948 C 103.535 119.307,103.885 118.608,103.886 118.394 C 103.887 118.180,104.237 117.481,104.663 116.839 C 105.089 116.198,105.439 115.518,105.439 115.328 C 105.440 115.137,105.848 114.153,106.347 113.141 C 106.846 112.129,107.254 111.162,107.254 110.993 C 107.254 110.824,107.423 110.545,107.629 110.374 C 107.835 110.203,108.207 109.518,108.454 108.853 C 108.702 108.187,109.116 107.365,109.374 107.026 C 109.632 106.687,109.971 105.933,110.128 105.351 C 110.284 104.769,110.628 104.019,110.891 103.685 C 111.154 103.350,111.509 102.647,111.679 102.121 C 111.850 101.596,112.187 100.874,112.428 100.518 C 112.670 100.162,113.071 99.346,113.321 98.705 C 113.570 98.063,113.927 97.364,114.114 97.150 C 114.301 96.937,114.633 96.237,114.853 95.596 C 115.073 94.955,116.248 92.448,117.465 90.026 C 118.682 87.604,119.681 85.433,119.684 85.203 C 119.687 84.973,119.902 84.507,120.162 84.167 C 120.423 83.827,120.840 83.025,121.091 82.383 C 121.341 81.742,121.695 81.043,121.877 80.829 C 122.060 80.615,122.416 79.887,122.668 79.210 C 122.921 78.533,123.219 77.979,123.330 77.979 C 123.442 77.979,123.734 77.367,123.979 76.619 C 124.225 75.871,124.634 74.961,124.890 74.596 C 125.145 74.231,125.435 73.589,125.535 73.171 C 125.634 72.752,125.986 72.046,126.316 71.603 C 126.645 71.159,126.995 70.460,127.093 70.048 C 127.190 69.637,127.531 68.950,127.850 68.521 C 128.168 68.092,128.518 67.337,128.626 66.844 C 128.734 66.350,129.082 65.535,129.398 65.033 C 129.714 64.530,130.113 63.689,130.286 63.164 C 130.458 62.638,130.804 61.939,131.054 61.609 C 131.305 61.280,131.712 60.466,131.960 59.800 C 132.208 59.135,132.572 58.456,132.769 58.293 C 132.966 58.129,133.205 57.624,133.301 57.171 C 133.396 56.718,133.812 55.750,134.224 55.020 C 134.637 54.290,134.974 53.566,134.974 53.410 C 134.974 53.254,135.324 52.575,135.751 51.901 C 136.179 51.227,136.528 50.518,136.528 50.324 C 136.528 50.131,136.822 49.542,137.182 49.015 C 137.541 48.488,137.959 47.599,138.111 47.038 C 138.263 46.478,138.669 45.606,139.012 45.100 C 139.356 44.594,139.638 44.003,139.638 43.787 C 139.639 43.571,139.988 42.869,140.415 42.228 C 140.841 41.587,141.190 40.887,141.192 40.674 C 141.193 40.460,141.543 39.760,141.969 39.119 C 142.395 38.478,142.744 37.831,142.745 37.681 C 142.750 36.513,143.756 36.680,144.493 37.972 " stroke="none" fill="#fcfcfc" fill-rule="evenodd"></path></g></svg>