<svg id="svg" version="1.1" xmlns="http://www.w3.org/2000/svg" xmlns:xlink="http://www.w3.org/1999/xlink" width="400" height="258.91472868217056" viewBox="0, 0, 400,258.91472868217056"><g id="svgg"><path id="path0" d="M85.175 37.759 C 84.658 38.293,84.033 39.255,83.787 39.896 C 83.541 40.538,83.191 41.237,83.010 41.451 C 82.828 41.665,82.485 42.422,82.246 43.135 C 82.007 43.847,81.657 44.605,81.468 44.819 C 81.280 45.032,80.930 45.790,80.691 46.503 C 80.452 47.215,80.118 47.973,79.948 48.187 C 79.779 48.400,79.221 49.449,78.710 50.518 C 78.199 51.587,77.359 53.344,76.844 54.423 C 76.328 55.503,75.907 56.496,75.907 56.630 C 75.907 56.765,75.634 57.280,75.301 57.777 C 74.968 58.273,74.564 59.063,74.404 59.532 C 74.244 60.002,73.887 60.702,73.611 61.089 C 73.336 61.476,72.982 62.271,72.824 62.857 C 72.666 63.443,72.323 64.200,72.061 64.539 C 71.800 64.878,71.455 65.539,71.294 66.009 C 71.134 66.478,70.784 67.178,70.515 67.563 C 70.247 67.949,69.897 68.648,69.738 69.118 C 69.579 69.587,69.216 70.298,68.931 70.698 C 68.647 71.098,68.303 71.917,68.168 72.519 C 68.033 73.120,67.740 73.814,67.517 74.060 C 67.294 74.306,66.931 75.021,66.710 75.648 C 66.489 76.275,66.139 76.974,65.933 77.202 C 65.726 77.430,65.376 78.132,65.154 78.762 C 64.931 79.392,64.533 80.144,64.268 80.433 C 64.003 80.722,63.701 81.367,63.597 81.865 C 63.492 82.364,63.200 83.066,62.946 83.425 C 62.692 83.784,62.285 84.688,62.042 85.433 C 61.798 86.178,61.517 86.788,61.417 86.788 C 61.192 86.788,60.363 88.495,60.363 88.959 C 60.363 89.146,60.135 89.561,59.857 89.882 C 59.579 90.203,59.156 91.066,58.917 91.800 C 58.678 92.534,58.341 93.310,58.168 93.523 C 57.994 93.737,57.650 94.437,57.402 95.078 C 57.154 95.719,56.789 96.424,56.591 96.645 C 56.393 96.866,56.050 97.559,55.829 98.187 C 55.608 98.814,55.258 99.513,55.052 99.741 C 54.846 99.969,54.494 100.674,54.271 101.308 C 54.048 101.942,52.987 104.210,51.913 106.347 C 50.840 108.484,49.781 110.758,49.560 111.399 C 49.339 112.040,48.940 112.843,48.672 113.183 C 48.405 113.522,48.187 114.000,48.187 114.245 C 48.187 114.489,47.839 115.202,47.414 115.829 C 46.989 116.456,46.639 117.157,46.637 117.386 C 46.634 117.616,46.334 118.242,45.970 118.778 C 45.607 119.315,45.128 120.293,44.907 120.952 C 44.686 121.611,44.357 122.325,44.175 122.539 C 43.993 122.753,43.759 123.219,43.657 123.575 C 43.554 123.931,43.190 124.710,42.849 125.305 C 42.044 126.708,42.053 127.957,42.876 129.170 C 43.232 129.695,43.525 130.312,43.528 130.541 C 43.531 130.771,43.880 131.472,44.305 132.099 C 44.730 132.726,45.078 133.411,45.078 133.622 C 45.078 133.833,46.185 136.227,47.539 138.941 C 48.892 141.655,50.000 144.015,50.000 144.186 C 50.000 144.356,50.163 144.631,50.362 144.797 C 50.561 144.962,50.921 145.705,51.163 146.447 C 51.404 147.190,51.756 147.973,51.945 148.187 C 52.134 148.400,52.493 149.100,52.743 149.741 C 52.994 150.382,53.412 151.185,53.672 151.525 C 53.932 151.864,54.145 152.285,54.145 152.460 C 54.145 152.634,54.481 153.464,54.892 154.303 C 55.303 155.142,55.845 156.324,56.097 156.930 C 56.349 157.536,56.652 158.031,56.770 158.031 C 56.888 158.031,57.062 158.352,57.156 158.744 C 57.370 159.638,57.989 160.875,58.453 161.340 C 58.649 161.535,58.810 161.891,58.811 162.130 C 58.813 162.369,59.079 163.031,59.403 163.601 C 59.727 164.171,60.207 165.220,60.472 165.933 C 60.736 166.645,61.101 167.403,61.283 167.617 C 61.465 167.830,61.817 168.530,62.065 169.171 C 62.313 169.812,62.663 170.512,62.842 170.725 C 63.022 170.939,63.401 171.697,63.685 172.409 C 64.863 175.365,65.516 176.778,66.022 177.462 C 66.317 177.861,66.639 178.519,66.739 178.925 C 66.840 179.331,67.185 180.013,67.508 180.440 C 67.830 180.868,68.180 181.567,68.286 181.995 C 68.391 182.422,68.731 183.180,69.041 183.679 C 69.352 184.177,69.691 184.928,69.794 185.347 C 69.898 185.766,70.212 186.431,70.493 186.825 C 70.774 187.219,71.134 187.926,71.293 188.395 C 71.452 188.865,71.800 189.562,72.066 189.944 C 72.332 190.326,72.708 191.084,72.902 191.628 C 73.096 192.172,73.559 193.188,73.933 193.886 C 74.306 194.584,74.611 195.297,74.611 195.470 C 74.611 195.643,74.824 196.063,75.085 196.403 C 75.345 196.743,75.763 197.545,76.013 198.187 C 76.263 198.828,76.614 199.527,76.793 199.741 C 76.971 199.955,77.271 200.538,77.460 201.036 C 77.648 201.535,78.066 202.526,78.388 203.238 C 78.709 203.951,79.155 204.942,79.378 205.440 C 79.600 205.939,79.901 206.522,80.047 206.736 C 80.192 206.949,80.547 207.649,80.836 208.290 C 81.124 208.931,81.527 209.747,81.731 210.104 C 82.402 211.274,83.938 214.719,83.946 215.070 C 83.950 215.260,84.415 215.939,84.980 216.580 L 86.006 217.746 86.513 217.098 C 86.792 216.742,87.092 216.169,87.179 215.824 C 87.266 215.479,87.564 214.909,87.840 214.558 C 88.116 214.207,88.342 213.746,88.342 213.534 C 88.342 213.322,88.679 212.493,89.090 211.691 C 89.502 210.889,90.030 209.825,90.264 209.326 C 90.499 208.828,90.849 208.128,91.044 207.772 C 91.239 207.416,91.588 206.716,91.821 206.218 C 92.054 205.719,92.401 205.019,92.593 204.663 C 93.236 203.467,94.505 200.654,94.697 200.000 C 94.801 199.644,95.109 199.037,95.380 198.651 C 95.652 198.266,96.004 197.566,96.163 197.097 C 96.322 196.628,96.662 195.943,96.917 195.575 C 97.173 195.207,97.626 194.287,97.924 193.531 C 98.222 192.775,98.636 191.914,98.844 191.617 C 99.053 191.319,99.223 190.892,99.223 190.667 C 99.223 190.441,99.553 189.736,99.957 189.099 C 100.361 188.462,100.775 187.607,100.878 187.199 C 100.980 186.791,101.334 186.095,101.664 185.651 C 101.994 185.208,102.342 184.514,102.437 184.111 C 102.533 183.707,102.879 182.949,103.207 182.427 C 103.535 181.904,103.888 181.134,103.991 180.715 C 104.095 180.297,104.409 179.631,104.690 179.237 C 104.971 178.843,105.332 178.136,105.492 177.667 C 105.653 177.198,106.056 176.408,106.389 175.911 C 106.722 175.415,106.995 174.878,106.995 174.717 C 106.995 174.557,107.327 173.797,107.733 173.029 C 108.139 172.261,108.554 171.296,108.654 170.884 C 108.754 170.473,109.106 169.773,109.436 169.330 C 109.766 168.886,110.115 168.187,110.213 167.775 C 110.311 167.364,110.676 166.654,111.024 166.197 C 111.373 165.740,111.658 165.228,111.658 165.059 C 111.658 164.745,113.295 161.063,113.746 160.363 C 113.884 160.149,114.228 159.449,114.511 158.808 C 114.794 158.167,115.143 157.468,115.288 157.254 C 115.432 157.040,115.785 156.341,116.072 155.699 C 116.359 155.058,116.853 153.957,117.170 153.253 C 117.487 152.549,118.461 150.551,119.336 148.813 C 120.210 147.075,121.064 145.232,121.234 144.718 C 121.404 144.203,121.641 143.782,121.762 143.782 C 121.882 143.782,122.123 143.351,122.297 142.824 C 122.471 142.296,123.221 140.635,123.964 139.132 C 126.063 134.883,127.202 132.438,127.202 132.176 C 127.202 132.045,127.468 131.542,127.793 131.059 C 129.559 128.437,129.612 126.438,127.984 123.789 C 127.693 123.315,127.328 122.465,127.174 121.900 C 127.019 121.335,126.678 120.599,126.415 120.265 C 126.152 119.930,125.798 119.227,125.630 118.701 C 125.461 118.176,125.173 117.571,124.989 117.358 C 124.805 117.144,124.452 116.444,124.204 115.803 C 123.957 115.162,123.617 114.462,123.450 114.249 C 123.283 114.035,122.886 113.163,122.569 112.310 C 122.252 111.458,121.842 110.584,121.658 110.367 C 121.474 110.151,121.121 109.449,120.873 108.808 C 120.626 108.167,120.277 107.468,120.099 107.254 C 119.920 107.040,119.621 106.457,119.433 105.959 C 119.244 105.460,118.890 104.702,118.644 104.275 C 118.398 103.847,118.052 103.031,117.874 102.461 C 117.697 101.891,117.401 101.250,117.217 101.036 C 117.033 100.823,116.680 100.123,116.432 99.482 C 116.185 98.841,115.834 98.141,115.654 97.927 C 115.473 97.714,115.074 96.899,114.767 96.116 C 114.459 95.334,114.111 94.635,113.994 94.562 C 113.876 94.489,113.539 93.743,113.244 92.903 C 112.949 92.064,112.544 91.189,112.345 90.960 C 112.146 90.731,111.845 90.114,111.676 89.589 C 111.507 89.063,111.160 88.364,110.904 88.034 C 110.648 87.705,110.298 87.005,110.127 86.480 C 109.955 85.954,109.604 85.255,109.345 84.926 C 109.087 84.596,108.790 83.931,108.684 83.449 C 108.579 82.966,108.155 82.039,107.744 81.390 C 107.332 80.741,106.995 80.061,106.995 79.881 C 106.995 79.700,106.645 79.000,106.218 78.326 C 105.790 77.652,105.440 76.946,105.440 76.758 C 105.440 76.569,105.164 75.977,104.826 75.441 C 104.488 74.906,104.130 74.096,104.030 73.642 C 103.930 73.187,103.591 72.432,103.276 71.965 C 102.961 71.497,102.497 70.569,102.245 69.904 C 101.993 69.238,101.617 68.554,101.411 68.382 C 101.205 68.211,101.036 67.933,101.036 67.764 C 101.036 67.595,100.629 66.648,100.130 65.659 C 99.632 64.669,99.222 63.685,99.219 63.472 C 99.216 63.258,98.866 62.570,98.441 61.943 C 98.016 61.316,97.666 60.616,97.664 60.388 C 97.661 60.161,97.311 59.461,96.886 58.834 C 96.462 58.207,96.117 57.566,96.121 57.409 C 96.125 57.253,95.784 56.425,95.364 55.570 C 90.819 46.336,89.888 44.376,89.888 44.041 C 89.887 43.828,89.539 43.140,89.114 42.513 C 88.690 41.886,88.342 41.173,88.342 40.929 C 88.342 40.684,88.126 40.206,87.861 39.867 C 87.596 39.527,87.137 38.695,86.839 38.018 C 86.192 36.545,86.330 36.566,85.175 37.759 M308.904 37.241 C 308.823 37.490,308.432 38.394,308.034 39.249 C 307.636 40.104,307.068 41.328,306.771 41.969 C 306.474 42.610,306.116 43.310,305.977 43.523 C 305.837 43.737,305.487 44.437,305.199 45.078 C 304.912 45.719,304.567 46.418,304.434 46.632 C 303.926 47.448,302.332 51.020,302.330 51.344 C 302.330 51.531,301.981 52.209,301.554 52.850 C 301.128 53.491,300.779 54.178,300.778 54.375 C 300.778 54.573,300.427 55.304,300.000 55.999 C 299.573 56.693,299.223 57.394,299.223 57.555 C 299.223 57.831,298.029 60.479,297.256 61.917 C 297.064 62.273,296.717 62.973,296.484 63.472 C 296.252 63.970,295.902 64.670,295.707 65.026 C 295.513 65.382,295.162 66.082,294.928 66.580 C 294.693 67.079,294.165 68.143,293.754 68.945 C 293.342 69.747,293.005 70.563,293.004 70.758 C 293.003 70.954,292.654 71.639,292.228 72.280 C 291.802 72.921,291.452 73.610,291.452 73.812 C 291.451 74.013,291.115 74.712,290.705 75.366 C 290.295 76.020,289.878 76.904,289.778 77.332 C 289.679 77.759,289.447 78.284,289.264 78.497 C 289.081 78.711,288.715 79.469,288.451 80.181 C 288.187 80.894,287.790 81.673,287.570 81.913 C 287.350 82.152,287.015 82.872,286.826 83.512 C 286.637 84.152,286.260 84.878,285.988 85.124 C 285.715 85.371,285.492 85.744,285.492 85.954 C 285.492 86.164,285.149 87.049,284.729 87.922 C 284.309 88.794,283.782 89.916,283.559 90.415 C 283.335 90.913,282.980 91.613,282.770 91.969 C 282.559 92.325,282.210 93.025,281.992 93.523 C 281.775 94.022,281.431 94.722,281.229 95.078 C 280.791 95.848,279.497 98.723,279.014 100.000 C 278.825 100.499,278.525 101.082,278.347 101.295 C 278.169 101.509,277.818 102.209,277.568 102.850 C 277.317 103.491,276.899 104.294,276.639 104.633 C 276.379 104.973,276.166 105.364,276.166 105.502 C 276.166 105.641,275.862 106.354,275.490 107.087 C 275.118 107.820,274.654 108.865,274.459 109.408 C 274.264 109.952,273.886 110.710,273.620 111.092 C 273.354 111.475,273.006 112.172,272.847 112.641 C 272.688 113.110,272.328 113.817,272.047 114.211 C 271.767 114.605,271.452 115.271,271.349 115.689 C 271.245 116.108,270.906 116.859,270.596 117.358 C 270.285 117.856,269.945 118.614,269.840 119.041 C 269.735 119.469,269.385 120.168,269.062 120.596 C 268.740 121.023,268.390 121.723,268.285 122.150 C 268.180 122.578,267.829 123.277,267.506 123.705 C 265.789 125.971,266.181 128.858,268.824 133.420 C 269.030 133.776,269.371 134.475,269.581 134.974 C 269.790 135.473,270.140 136.172,270.358 136.528 C 270.576 136.885,270.925 137.584,271.134 138.083 C 271.344 138.582,271.803 139.573,272.156 140.285 C 272.508 140.997,272.966 141.988,273.172 142.487 C 273.378 142.986,273.715 143.685,273.922 144.041 C 274.783 145.531,276.166 148.458,276.166 148.792 C 276.166 148.991,276.382 149.431,276.646 149.771 C 276.910 150.111,277.324 150.992,277.567 151.729 C 277.809 152.466,278.170 153.203,278.368 153.368 C 278.566 153.532,278.916 154.232,279.145 154.922 C 279.374 155.613,279.724 156.312,279.922 156.477 C 280.120 156.641,280.479 157.379,280.719 158.116 C 280.958 158.853,281.296 159.631,281.470 159.845 C 281.643 160.058,281.988 160.758,282.235 161.399 C 282.483 162.040,282.833 162.740,283.013 162.953 C 283.192 163.167,283.542 163.867,283.790 164.508 C 284.038 165.149,284.393 165.848,284.580 166.062 C 284.767 166.276,285.099 166.983,285.317 167.634 C 285.535 168.285,285.943 169.218,286.224 169.707 C 286.505 170.196,286.821 170.887,286.927 171.244 C 287.033 171.600,287.395 172.297,287.731 172.793 C 288.067 173.289,288.342 173.874,288.342 174.093 C 288.342 174.312,288.632 174.918,288.986 175.440 C 289.341 175.961,289.819 176.950,290.050 177.637 C 290.280 178.324,290.617 179.061,290.797 179.275 C 290.978 179.488,291.264 180.093,291.433 180.619 C 291.601 181.144,291.949 181.843,292.205 182.173 C 292.461 182.502,292.811 183.202,292.982 183.727 C 293.154 184.253,293.503 184.952,293.759 185.282 C 294.016 185.611,294.373 186.347,294.554 186.917 C 294.735 187.487,295.180 188.536,295.542 189.249 C 295.904 189.961,296.344 190.835,296.521 191.192 C 296.698 191.548,297.018 192.189,297.233 192.617 C 297.448 193.044,297.835 193.831,298.093 194.365 C 298.352 194.900,298.644 195.337,298.743 195.337 C 298.842 195.337,299.003 195.705,299.102 196.154 C 299.201 196.604,299.676 197.796,300.159 198.802 C 300.641 199.809,301.036 200.768,301.036 200.932 C 301.036 201.097,301.205 201.372,301.411 201.543 C 301.617 201.714,301.989 202.399,302.237 203.064 C 302.485 203.730,302.898 204.552,303.156 204.891 C 303.414 205.231,303.753 205.984,303.910 206.566 C 304.067 207.148,304.410 207.898,304.673 208.232 C 304.937 208.567,305.291 209.271,305.462 209.796 C 305.632 210.321,305.993 211.067,306.263 211.452 C 306.533 211.838,306.886 212.537,307.046 213.007 C 307.207 213.476,307.611 214.266,307.944 214.762 C 308.277 215.258,308.549 215.758,308.549 215.872 C 308.549 215.986,308.722 216.493,308.933 216.998 L 309.317 217.918 310.334 216.743 C 310.893 216.097,311.493 215.126,311.667 214.585 C 311.840 214.044,312.133 213.426,312.317 213.212 C 312.500 212.999,312.854 212.299,313.101 211.658 C 313.349 211.017,313.711 210.305,313.906 210.077 C 314.101 209.848,314.468 209.071,314.722 208.351 C 314.976 207.630,315.313 206.884,315.472 206.693 C 315.630 206.502,316.012 205.705,316.320 204.922 C 316.628 204.138,317.028 203.323,317.208 203.109 C 317.389 202.895,317.739 202.196,317.987 201.554 C 318.235 200.913,318.588 200.214,318.771 200.000 C 318.955 199.786,319.247 199.170,319.421 198.630 C 319.594 198.091,320.073 196.983,320.486 196.169 C 320.899 195.355,321.238 194.558,321.240 194.397 C 321.242 194.236,321.412 193.965,321.618 193.794 C 321.825 193.623,322.196 192.938,322.444 192.272 C 322.692 191.607,323.099 190.793,323.349 190.465 C 323.598 190.136,323.999 189.262,324.240 188.522 C 324.481 187.782,324.823 187.001,325.001 186.788 C 325.178 186.574,325.461 185.969,325.630 185.444 C 325.798 184.918,326.141 184.219,326.391 183.889 C 326.641 183.560,327.049 182.746,327.297 182.080 C 327.545 181.414,327.909 180.736,328.106 180.572 C 328.303 180.409,328.542 179.904,328.638 179.451 C 328.733 178.998,329.163 177.927,329.593 177.073 C 330.335 175.598,330.560 175.150,331.477 173.316 C 331.690 172.889,332.040 172.189,332.254 171.762 C 333.312 169.646,333.733 168.758,335.205 165.544 C 335.498 164.903,335.847 164.203,335.979 163.990 C 336.112 163.776,336.652 162.668,337.180 161.528 C 337.708 160.389,338.477 158.794,338.889 157.985 C 339.300 157.175,339.639 156.359,339.642 156.171 C 339.645 155.983,339.994 155.316,340.419 154.689 C 340.844 154.062,341.194 153.363,341.196 153.135 C 341.199 152.907,341.549 152.207,341.974 151.580 C 342.398 150.953,342.746 150.263,342.746 150.047 C 342.746 149.831,343.784 147.586,345.052 145.059 C 346.320 142.532,347.435 140.111,347.529 139.680 C 347.624 139.249,347.863 138.762,348.060 138.599 C 348.257 138.435,348.619 137.757,348.864 137.091 C 349.110 136.425,349.456 135.706,349.634 135.492 C 349.811 135.278,350.159 134.579,350.407 133.938 C 350.655 133.297,351.006 132.597,351.187 132.383 C 351.369 132.170,351.715 131.412,351.956 130.699 C 352.198 129.987,352.615 129.126,352.882 128.786 C 353.580 127.899,353.509 126.396,352.714 125.225 C 352.354 124.695,351.986 123.969,351.896 123.611 C 351.807 123.254,351.457 122.555,351.119 122.057 C 350.781 121.559,350.433 120.852,350.344 120.485 C 350.256 120.119,349.979 119.526,349.730 119.169 C 349.480 118.811,349.147 118.039,348.990 117.454 C 348.832 116.868,348.487 116.111,348.223 115.772 C 347.960 115.433,347.604 114.726,347.432 114.200 C 347.261 113.675,346.916 112.975,346.666 112.646 C 346.416 112.316,346.008 111.502,345.760 110.836 C 345.512 110.171,345.148 109.492,344.951 109.329 C 344.754 109.165,344.513 108.661,344.416 108.207 C 344.233 107.362,343.585 105.930,343.280 105.699 C 343.185 105.628,342.900 105.014,342.645 104.335 C 342.390 103.655,342.042 102.956,341.871 102.780 C 341.700 102.605,341.351 101.905,341.094 101.226 C 340.837 100.546,340.466 99.829,340.269 99.632 C 340.072 99.435,339.801 98.789,339.668 98.196 C 339.535 97.603,339.124 96.681,338.754 96.148 C 338.385 95.615,338.083 95.004,338.083 94.791 C 338.083 94.577,337.733 93.850,337.306 93.176 C 336.878 92.502,336.528 91.803,336.528 91.622 C 336.528 91.441,336.199 90.773,335.796 90.138 C 335.393 89.503,334.986 88.596,334.891 88.123 C 334.797 87.649,334.481 86.927,334.190 86.518 C 333.898 86.109,333.530 85.390,333.371 84.921 C 333.212 84.451,332.862 83.752,332.593 83.366 C 332.325 82.981,331.974 82.281,331.814 81.812 C 331.654 81.343,331.309 80.681,331.047 80.342 C 330.786 80.003,330.446 79.258,330.292 78.686 C 330.138 78.115,329.730 77.200,329.384 76.653 C 329.039 76.106,328.756 75.523,328.756 75.358 C 328.756 75.192,328.407 74.489,327.979 73.794 C 327.552 73.099,327.202 72.408,327.202 72.257 C 327.202 72.107,326.909 71.484,326.551 70.873 C 326.194 70.262,325.723 69.163,325.505 68.431 C 325.287 67.698,325.012 67.098,324.892 67.098 C 324.772 67.098,324.413 66.399,324.093 65.544 C 323.774 64.689,323.416 63.990,323.298 63.990 C 323.181 63.990,322.830 63.290,322.518 62.435 C 322.206 61.580,321.860 60.881,321.748 60.881 C 321.636 60.881,321.296 60.132,320.991 59.216 C 320.686 58.301,320.276 57.419,320.080 57.256 C 319.883 57.092,319.648 56.621,319.558 56.208 C 319.467 55.795,319.124 55.062,318.795 54.578 C 318.467 54.093,318.061 53.281,317.893 52.772 C 317.725 52.262,317.383 51.576,317.133 51.247 C 316.883 50.917,316.528 50.123,316.345 49.482 C 316.161 48.841,315.857 48.141,315.670 47.927 C 315.482 47.714,315.126 47.014,314.878 46.373 C 314.630 45.732,314.280 45.032,314.101 44.819 C 313.921 44.605,313.570 43.905,313.321 43.264 C 313.071 42.623,312.666 41.806,312.419 41.448 C 312.172 41.091,311.832 40.282,311.662 39.651 C 311.171 37.828,309.256 36.155,308.904 37.241 M197.313 37.630 C 197.111 37.950,196.858 38.502,196.752 38.855 C 196.646 39.209,196.334 39.802,196.059 40.174 C 195.784 40.546,195.448 41.347,195.311 41.953 C 195.175 42.560,194.902 43.218,194.705 43.415 C 194.508 43.612,194.138 44.329,193.884 45.008 C 193.629 45.688,193.347 46.302,193.257 46.373 C 192.935 46.630,190.673 51.341,190.669 51.766 C 190.666 52.006,190.317 52.715,189.892 53.342 C 189.467 53.969,189.117 54.669,189.114 54.896 C 189.112 55.124,188.762 55.824,188.337 56.451 C 187.912 57.078,187.565 57.784,187.565 58.020 C 187.565 58.256,187.273 58.844,186.917 59.326 C 186.561 59.809,186.269 60.363,186.269 60.557 C 186.269 60.885,184.423 64.851,183.586 66.321 C 182.792 67.716,181.668 70.128,181.353 71.114 C 181.171 71.684,180.872 72.325,180.688 72.539 C 180.505 72.753,180.152 73.452,179.904 74.093 C 179.656 74.734,179.306 75.434,179.127 75.648 C 178.947 75.861,178.597 76.561,178.349 77.202 C 178.102 77.843,177.734 78.561,177.533 78.797 C 177.331 79.033,176.999 79.782,176.794 80.462 C 176.589 81.142,176.251 81.887,176.042 82.118 C 175.832 82.350,175.486 83.036,175.271 83.644 C 175.057 84.252,174.654 85.069,174.375 85.460 C 174.097 85.851,173.784 86.514,173.681 86.933 C 173.578 87.352,173.233 88.044,172.915 88.472 C 172.597 88.899,172.255 89.657,172.154 90.155 C 172.054 90.654,171.704 91.470,171.377 91.969 C 171.049 92.468,170.646 93.303,170.481 93.826 C 170.316 94.349,170.018 94.912,169.820 95.077 C 169.621 95.242,169.271 95.942,169.041 96.632 C 168.812 97.323,168.456 98.027,168.251 98.198 C 168.045 98.368,167.707 99.081,167.499 99.781 C 167.291 100.481,166.901 101.371,166.631 101.758 C 166.362 102.145,166.011 102.845,165.852 103.315 C 165.693 103.784,165.343 104.483,165.075 104.869 C 164.807 105.255,164.457 105.954,164.298 106.423 C 164.139 106.893,163.778 107.600,163.496 107.996 C 163.215 108.392,162.848 109.257,162.681 109.920 C 162.514 110.582,162.222 111.253,162.032 111.411 C 161.842 111.569,161.499 112.263,161.269 112.953 C 161.040 113.644,160.690 114.343,160.492 114.508 C 160.294 114.672,159.944 115.372,159.715 116.062 C 159.486 116.753,159.136 117.452,158.938 117.617 C 158.740 117.781,158.381 118.519,158.142 119.256 C 157.902 119.993,157.564 120.771,157.390 120.984 C 157.217 121.198,156.894 121.839,156.671 122.409 C 156.449 122.979,155.966 123.970,155.598 124.611 C 154.751 126.087,154.678 128.186,155.427 129.534 C 155.704 130.032,156.113 130.848,156.335 131.347 C 156.558 131.846,156.912 132.545,157.122 132.902 C 157.332 133.258,157.681 133.957,157.898 134.456 C 158.338 135.470,158.784 136.405,161.245 141.471 C 162.184 143.406,162.953 145.079,162.953 145.188 C 162.953 145.297,163.190 145.719,163.480 146.126 C 163.770 146.533,164.164 147.388,164.356 148.025 C 164.548 148.663,164.934 149.514,165.214 149.916 C 165.495 150.319,165.854 151.032,166.013 151.501 C 166.172 151.970,166.524 152.670,166.796 153.055 C 167.067 153.441,167.378 154.048,167.486 154.404 C 167.594 154.760,167.945 155.518,168.267 156.088 C 168.588 156.658,168.932 157.474,169.031 157.902 C 169.130 158.329,169.475 159.028,169.798 159.456 C 170.120 159.883,170.470 160.583,170.575 161.010 C 170.680 161.438,171.030 162.137,171.352 162.565 C 171.675 162.992,172.023 163.685,172.126 164.103 C 172.230 164.522,172.543 165.187,172.824 165.580 C 173.104 165.974,173.496 166.837,173.695 167.499 C 173.894 168.160,174.224 168.895,174.428 169.131 C 174.633 169.367,175.006 170.112,175.257 170.786 C 175.509 171.461,175.875 172.146,176.070 172.308 C 176.265 172.470,176.425 172.712,176.425 172.845 C 176.425 172.979,176.891 174.065,177.461 175.259 C 178.031 176.453,178.497 177.549,178.497 177.693 C 178.497 177.838,178.792 178.390,179.152 178.920 C 179.511 179.451,179.879 180.177,179.969 180.534 C 180.058 180.891,180.408 181.590,180.746 182.088 C 181.084 182.586,181.431 183.293,181.518 183.660 C 181.605 184.026,181.834 184.509,182.027 184.733 C 182.221 184.957,182.614 185.823,182.902 186.658 C 183.189 187.493,183.580 188.359,183.770 188.583 C 183.961 188.807,184.319 189.514,184.567 190.155 C 184.815 190.797,185.165 191.496,185.344 191.710 C 185.524 191.924,185.874 192.623,186.123 193.264 C 186.371 193.905,186.672 194.548,186.791 194.692 C 186.910 194.836,187.258 195.623,187.564 196.441 C 187.870 197.259,188.262 198.073,188.435 198.251 C 188.608 198.429,188.960 199.131,189.217 199.810 C 189.474 200.490,189.823 201.189,189.994 201.365 C 190.165 201.540,190.522 202.267,190.789 202.979 C 191.055 203.692,191.487 204.553,191.750 204.892 C 192.013 205.232,192.228 205.770,192.228 206.087 C 192.228 206.404,192.505 207.072,192.844 207.571 C 193.183 208.070,193.594 208.884,193.757 209.379 C 193.920 209.874,194.343 210.670,194.695 211.148 C 195.048 211.627,195.338 212.199,195.340 212.421 C 195.342 212.642,195.608 213.290,195.931 213.860 C 196.255 214.430,196.730 215.450,196.986 216.127 C 197.649 217.877,199.310 217.303,200.010 215.082 C 200.177 214.553,200.576 213.710,200.897 213.209 C 201.218 212.708,201.570 212.009,201.680 211.655 C 201.790 211.300,202.142 210.544,202.464 209.974 C 202.785 209.404,203.126 208.601,203.222 208.190 C 203.317 207.779,203.665 207.079,203.995 206.636 C 204.325 206.192,204.675 205.492,204.773 205.081 C 204.870 204.670,205.220 203.970,205.550 203.527 C 205.880 203.083,206.230 202.380,206.329 201.963 C 206.428 201.547,206.734 200.920,207.010 200.570 C 207.286 200.219,207.640 199.453,207.798 198.868 C 207.956 198.282,208.310 197.486,208.585 197.099 C 208.861 196.712,209.218 196.017,209.380 195.554 C 209.541 195.091,209.945 194.312,210.277 193.823 C 210.609 193.333,210.881 192.791,210.881 192.617 C 210.881 192.443,211.215 191.672,211.625 190.904 C 212.034 190.136,212.449 189.137,212.548 188.684 C 212.647 188.230,212.889 187.726,213.086 187.562 C 213.283 187.399,213.647 186.720,213.895 186.055 C 214.143 185.389,214.550 184.575,214.801 184.245 C 215.051 183.916,215.393 183.216,215.562 182.691 C 215.731 182.166,216.019 181.561,216.202 181.347 C 216.385 181.133,216.776 180.272,217.069 179.432 C 217.363 178.592,217.763 177.718,217.958 177.489 C 218.154 177.260,218.516 176.548,218.764 175.907 C 219.012 175.266,219.360 174.566,219.539 174.352 C 219.717 174.139,220.017 173.556,220.205 173.057 C 220.393 172.558,220.748 171.801,220.993 171.373 C 221.239 170.946,221.587 170.130,221.768 169.560 C 221.948 168.990,222.306 168.254,222.562 167.924 C 222.818 167.595,223.165 166.909,223.333 166.399 C 223.501 165.890,223.916 165.065,224.255 164.566 C 224.593 164.067,224.870 163.500,224.870 163.306 C 224.870 163.112,225.163 162.400,225.521 161.723 C 225.878 161.046,226.338 160.084,226.543 159.585 C 226.747 159.087,227.093 158.387,227.311 158.031 C 227.528 157.675,227.878 156.975,228.088 156.477 C 228.298 155.978,228.641 155.278,228.850 154.922 C 229.383 154.017,231.088 150.253,231.088 149.982 C 231.088 149.859,231.438 149.207,231.865 148.533 C 232.293 147.859,232.642 147.138,232.642 146.930 C 232.642 146.722,232.924 146.183,233.268 145.732 C 233.611 145.281,234.020 144.440,234.175 143.863 C 234.331 143.286,234.683 142.527,234.959 142.177 C 235.235 141.826,235.544 141.199,235.647 140.783 C 235.750 140.366,236.107 139.591,236.440 139.060 C 236.774 138.528,237.047 138.012,237.047 137.913 C 237.047 137.743,238.510 134.632,239.770 132.124 C 240.092 131.483,240.443 130.667,240.550 130.311 C 240.657 129.955,240.962 129.385,241.227 129.045 C 241.937 128.136,241.865 126.293,241.069 125.000 C 240.718 124.430,240.427 123.776,240.423 123.547 C 240.418 123.317,240.137 122.721,239.799 122.222 C 239.460 121.722,239.045 120.897,238.877 120.388 C 238.709 119.879,238.361 119.193,238.104 118.863 C 237.847 118.534,237.553 117.973,237.451 117.617 C 237.267 116.975,236.069 114.319,235.289 112.824 C 235.066 112.396,234.661 111.580,234.389 111.010 C 234.118 110.440,233.724 109.683,233.514 109.326 C 233.304 108.970,232.959 108.271,232.747 107.772 C 232.535 107.273,232.084 106.282,231.746 105.570 C 231.407 104.858,231.047 103.983,230.944 103.627 C 230.842 103.271,230.547 102.710,230.290 102.380 C 230.033 102.051,229.685 101.364,229.517 100.855 C 229.349 100.346,228.934 99.521,228.595 99.022 C 228.256 98.523,227.979 98.007,227.979 97.875 C 227.979 97.650,226.445 94.256,225.837 93.135 C 225.135 91.842,224.846 91.259,224.488 90.415 C 224.277 89.916,223.991 89.333,223.854 89.119 C 223.717 88.905,223.236 87.915,222.784 86.917 C 222.333 85.920,221.229 83.588,220.330 81.736 C 218.158 77.259,216.939 74.609,216.723 73.899 C 216.625 73.578,216.451 73.316,216.335 73.316 C 216.220 73.316,215.864 72.617,215.544 71.762 C 215.224 70.907,214.876 70.207,214.770 70.207 C 214.665 70.207,214.368 69.653,214.110 68.977 C 213.853 68.300,213.371 67.233,213.039 66.606 C 212.707 65.980,212.435 65.291,212.435 65.077 C 212.435 64.862,212.150 64.312,211.801 63.855 C 211.453 63.398,211.088 62.688,210.990 62.276 C 210.893 61.865,210.543 61.166,210.213 60.722 C 209.883 60.278,209.533 59.579,209.434 59.168 C 209.335 58.756,208.921 57.778,208.514 56.995 C 208.107 56.211,207.773 55.440,207.773 55.282 C 207.772 55.124,207.495 54.586,207.156 54.087 C 206.817 53.588,206.403 52.763,206.235 52.253 C 206.067 51.744,205.721 51.058,205.467 50.729 C 205.213 50.399,204.874 49.745,204.714 49.276 C 204.554 48.807,204.200 48.107,203.928 47.722 C 203.655 47.336,203.347 46.626,203.242 46.143 C 203.137 45.660,202.715 44.734,202.303 44.084 C 201.891 43.435,201.554 42.756,201.554 42.575 C 201.554 42.394,201.205 41.694,200.777 41.020 C 200.350 40.346,200.000 39.569,200.000 39.293 C 200.000 38.800,198.373 37.047,197.915 37.047 C 197.786 37.047,197.515 37.309,197.313 37.630 " stroke="none" fill="#04ac54" fill-rule="evenodd"></path><path id="path1" d="M0.000 129.534 L 0.000 259.067 200.000 259.067 L 400.000 259.067 400.000 129.534 L 400.000 0.000 200.000 0.000 L 0.000 0.000 0.000 129.534 M86.839 38.018 C 87.137 38.695,87.596 39.527,87.861 39.867 C 88.126 40.206,88.342 40.684,88.342 40.929 C 88.342 41.173,88.690 41.886,89.114 42.513 C 89.539 43.140,89.887 43.828,89.888 44.041 C 89.888 44.376,90.819 46.336,95.364 55.570 C 95.784 56.425,96.125 57.253,96.121 57.409 C 96.117 57.566,96.462 58.207,96.886 58.834 C 97.311 59.461,97.661 60.161,97.664 60.388 C 97.666 60.616,98.016 61.316,98.441 61.943 C 98.866 62.570,99.216 63.258,99.219 63.472 C 99.222 63.685,99.632 64.669,100.130 65.659 C 100.629 66.648,101.036 67.595,101.036 67.764 C 101.036 67.933,101.205 68.211,101.411 68.382 C 101.617 68.554,101.993 69.238,102.245 69.904 C 102.497 70.569,102.961 71.497,103.276 71.965 C 103.591 72.432,103.930 73.187,104.030 73.642 C 104.130 74.096,104.488 74.906,104.826 75.441 C 105.164 75.977,105.440 76.569,105.440 76.758 C 105.440 76.946,105.790 77.652,106.218 78.326 C 106.645 79.000,106.995 79.700,106.995 79.881 C 106.995 80.061,107.332 80.741,107.744 81.390 C 108.155 82.039,108.579 82.966,108.684 83.449 C 108.790 83.931,109.087 84.596,109.345 84.926 C 109.604 85.255,109.955 85.954,110.127 86.480 C 110.298 87.005,110.648 87.705,110.904 88.034 C 111.160 88.364,111.507 89.063,111.676 89.589 C 111.845 90.114,112.146 90.731,112.345 90.960 C 112.544 91.189,112.949 92.064,113.244 92.903 C 113.539 93.743,113.876 94.489,113.994 94.562 C 114.111 94.635,114.459 95.334,114.767 96.116 C 115.074 96.899,115.473 97.714,115.654 97.927 C 115.834 98.141,116.185 98.841,116.432 99.482 C 116.680 100.123,117.033 100.823,117.217 101.036 C 117.401 101.250,117.697 101.891,117.874 102.461 C 118.052 103.031,118.398 103.847,118.644 104.275 C 118.890 104.702,119.244 105.460,119.433 105.959 C 119.621 106.457,119.920 107.040,120.099 107.254 C 120.277 107.468,120.626 108.167,120.873 108.808 C 121.121 109.449,121.474 110.151,121.658 110.367 C 121.842 110.584,122.252 111.458,122.569 112.310 C 122.886 113.163,123.283 114.035,123.450 114.249 C 123.617 114.462,123.957 115.162,124.204 115.803 C 124.452 116.444,124.805 117.144,124.989 117.358 C 125.173 117.571,125.461 118.176,125.630 118.701 C 125.798 119.227,126.152 119.930,126.415 120.265 C 126.678 120.599,127.019 121.335,127.174 121.900 C 127.328 122.465,127.693 123.315,127.984 123.789 C 129.612 126.438,129.559 128.437,127.793 131.059 C 127.468 131.542,127.202 132.045,127.202 132.176 C 127.202 132.438,126.063 134.883,123.964 139.132 C 123.221 140.635,122.471 142.296,122.297 142.824 C 122.123 143.351,121.882 143.782,121.762 143.782 C 121.641 143.782,121.404 144.203,121.234 144.718 C 121.064 145.232,120.210 147.075,119.336 148.813 C 118.461 150.551,117.487 152.549,117.170 153.253 C 116.853 153.957,116.359 155.058,116.072 155.699 C 115.785 156.341,115.432 157.040,115.288 157.254 C 115.143 157.468,114.794 158.167,114.511 158.808 C 114.228 159.449,113.884 160.149,113.746 160.363 C 113.295 161.063,111.658 164.745,111.658 165.059 C 111.658 165.228,111.373 165.740,111.024 166.197 C 110.676 166.654,110.311 167.364,110.213 167.775 C 110.115 168.187,109.766 168.886,109.436 169.330 C 109.106 169.773,108.754 170.473,108.654 170.884 C 108.554 171.296,108.139 172.261,107.733 173.029 C 107.327 173.797,106.995 174.557,106.995 174.717 C 106.995 174.878,106.722 175.415,106.389 175.911 C 106.056 176.408,105.653 177.198,105.492 177.667 C 105.332 178.136,104.971 178.843,104.690 179.237 C 104.409 179.631,104.095 180.297,103.991 180.715 C 103.888 181.134,103.535 181.904,103.207 182.427 C 102.879 182.949,102.533 183.707,102.437 184.111 C 102.342 184.514,101.994 185.208,101.664 185.651 C 101.334 186.095,100.980 186.791,100.878 187.199 C 100.775 187.607,100.361 188.462,99.957 189.099 C 99.553 189.736,99.223 190.441,99.223 190.667 C 99.223 190.892,99.053 191.319,98.844 191.617 C 98.636 191.914,98.222 192.775,97.924 193.531 C 97.626 194.287,97.173 195.207,96.917 195.575 C 96.662 195.943,96.322 196.628,96.163 197.097 C 96.004 197.566,95.652 198.266,95.380 198.651 C 95.109 199.037,94.801 199.644,94.697 200.000 C 94.505 200.654,93.236 203.467,92.593 204.663 C 92.401 205.019,92.054 205.719,91.821 206.218 C 91.588 206.716,91.239 207.416,91.044 207.772 C 90.849 208.128,90.499 208.828,90.264 209.326 C 90.030 209.825,89.502 210.889,89.090 211.691 C 88.679 212.493,88.342 213.322,88.342 213.534 C 88.342 213.746,88.116 214.207,87.840 214.558 C 87.564 214.909,87.266 215.479,87.179 215.824 C 87.092 216.169,86.792 216.742,86.513 217.098 L 86.006 217.746 84.980 216.580 C 84.415 215.939,83.950 215.260,83.946 215.070 C 83.938 214.719,82.402 211.274,81.731 210.104 C 81.527 209.747,81.124 208.931,80.836 208.290 C 80.547 207.649,80.192 206.949,80.047 206.736 C 79.901 206.522,79.600 205.939,79.378 205.440 C 79.155 204.942,78.709 203.951,78.388 203.238 C 78.066 202.526,77.648 201.535,77.460 201.036 C 77.271 200.538,76.971 199.955,76.793 199.741 C 76.614 199.527,76.263 198.828,76.013 198.187 C 75.763 197.545,75.345 196.743,75.085 196.403 C 74.824 196.063,74.611 195.643,74.611 195.470 C 74.611 195.297,74.306 194.584,73.933 193.886 C 73.559 193.188,73.096 192.172,72.902 191.628 C 72.708 191.084,72.332 190.326,72.066 189.944 C 71.800 189.562,71.452 188.865,71.293 188.395 C 71.134 187.926,70.774 187.219,70.493 186.825 C 70.212 186.431,69.898 185.766,69.794 185.347 C 69.691 184.928,69.352 184.177,69.041 183.679 C 68.731 183.180,68.391 182.422,68.286 181.995 C 68.180 181.567,67.830 180.868,67.508 180.440 C 67.185 180.013,66.840 179.331,66.739 178.925 C 66.639 178.519,66.317 177.861,66.022 177.462 C 65.516 176.778,64.863 175.365,63.685 172.409 C 63.401 171.697,63.022 170.939,62.842 170.725 C 62.663 170.512,62.313 169.812,62.065 169.171 C 61.817 168.530,61.465 167.830,61.283 167.617 C 61.101 167.403,60.736 166.645,60.472 165.933 C 60.207 165.220,59.727 164.171,59.403 163.601 C 59.079 163.031,58.813 162.369,58.811 162.130 C 58.810 161.891,58.649 161.535,58.453 161.340 C 57.989 160.875,57.370 159.638,57.156 158.744 C 57.062 158.352,56.888 158.031,56.770 158.031 C 56.652 158.031,56.349 157.536,56.097 156.930 C 55.845 156.324,55.303 155.142,54.892 154.303 C 54.481 153.464,54.145 152.634,54.145 152.460 C 54.145 152.285,53.932 151.864,53.672 151.525 C 53.412 151.185,52.994 150.382,52.743 149.741 C 52.493 149.100,52.134 148.400,51.945 148.187 C 51.756 147.973,51.404 147.190,51.163 146.447 C 50.921 145.705,50.561 144.962,50.362 144.797 C 50.163 144.631,50.000 144.356,50.000 144.186 C 50.000 144.015,48.892 141.655,47.539 138.941 C 46.185 136.227,45.078 133.833,45.078 133.622 C 45.078 133.411,44.730 132.726,44.305 132.099 C 43.880 131.472,43.531 130.771,43.528 130.541 C 43.525 130.312,43.232 129.695,42.876 129.170 C 42.053 127.957,42.044 126.708,42.849 125.305 C 43.190 124.710,43.554 123.931,43.657 123.575 C 43.759 123.219,43.993 122.753,44.175 122.539 C 44.357 122.325,44.686 121.611,44.907 120.952 C 45.128 120.293,45.607 119.315,45.970 118.778 C 46.334 118.242,46.634 117.616,46.637 117.386 C 46.639 117.157,46.989 116.456,47.414 115.829 C 47.839 115.202,48.187 114.489,48.187 114.245 C 48.187 114.000,48.405 113.522,48.672 113.183 C 48.940 112.843,49.339 112.040,49.560 111.399 C 49.781 110.758,50.840 108.484,51.913 106.347 C 52.987 104.210,54.048 101.942,54.271 101.308 C 54.494 100.674,54.846 99.969,55.052 99.741 C 55.258 99.513,55.608 98.814,55.829 98.187 C 56.050 97.559,56.393 96.866,56.591 96.645 C 56.789 96.424,57.154 95.719,57.402 95.078 C 57.650 94.437,57.994 93.737,58.168 93.523 C 58.341 93.310,58.678 92.534,58.917 91.800 C 59.156 91.066,59.579 90.203,59.857 89.882 C 60.135 89.561,60.363 89.146,60.363 88.959 C 60.363 88.495,61.192 86.788,61.417 86.788 C 61.517 86.788,61.798 86.178,62.042 85.433 C 62.285 84.688,62.692 83.784,62.946 83.425 C 63.200 83.066,63.492 82.364,63.597 81.865 C 63.701 81.367,64.003 80.722,64.268 80.433 C 64.533 80.144,64.931 79.392,65.154 78.762 C 65.376 78.132,65.726 77.430,65.933 77.202 C 66.139 76.974,66.489 76.275,66.710 75.648 C 66.931 75.021,67.294 74.306,67.517 74.060 C 67.740 73.814,68.033 73.120,68.168 72.519 C 68.303 71.917,68.647 71.098,68.931 70.698 C 69.216 70.298,69.579 69.587,69.738 69.118 C 69.897 68.648,70.247 67.949,70.515 67.563 C 70.784 67.178,71.134 66.478,71.294 66.009 C 71.455 65.539,71.800 64.878,72.061 64.539 C 72.323 64.200,72.666 63.443,72.824 62.857 C 72.982 62.271,73.336 61.476,73.611 61.089 C 73.887 60.702,74.244 60.002,74.404 59.532 C 74.564 59.063,74.968 58.273,75.301 57.777 C 75.634 57.280,75.907 56.765,75.907 56.630 C 75.907 56.496,76.328 55.503,76.844 54.423 C 77.359 53.344,78.199 51.587,78.710 50.518 C 79.221 49.449,79.779 48.400,79.948 48.187 C 80.118 47.973,80.452 47.215,80.691 46.503 C 80.930 45.790,81.280 45.032,81.468 44.819 C 81.657 44.605,82.007 43.847,82.246 43.135 C 82.485 42.422,82.828 41.665,83.010 41.451 C 83.191 41.237,83.541 40.538,83.787 39.896 C 84.150 38.952,85.835 36.788,86.207 36.788 C 86.257 36.788,86.542 37.341,86.839 38.018 M310.495 37.645 C 310.985 38.135,311.485 38.994,311.662 39.651 C 311.832 40.282,312.172 41.091,312.419 41.448 C 312.666 41.806,313.071 42.623,313.321 43.264 C 313.570 43.905,313.921 44.605,314.101 44.819 C 314.280 45.032,314.630 45.732,314.878 46.373 C 315.126 47.014,315.482 47.714,315.670 47.927 C 315.857 48.141,316.161 48.841,316.345 49.482 C 316.528 50.123,316.883 50.917,317.133 51.247 C 317.383 51.576,317.725 52.262,317.893 52.772 C 318.061 53.281,318.467 54.093,318.795 54.578 C 319.124 55.062,319.467 55.795,319.558 56.208 C 319.648 56.621,319.883 57.092,320.080 57.256 C 320.276 57.419,320.686 58.301,320.991 59.216 C 321.296 60.132,321.636 60.881,321.748 60.881 C 321.860 60.881,322.206 61.580,322.518 62.435 C 322.830 63.290,323.181 63.990,323.298 63.990 C 323.416 63.990,323.774 64.689,324.093 65.544 C 324.413 66.399,324.772 67.098,324.892 67.098 C 325.012 67.098,325.287 67.698,325.505 68.431 C 325.723 69.163,326.194 70.262,326.551 70.873 C 326.909 71.484,327.202 72.107,327.202 72.257 C 327.202 72.408,327.552 73.099,327.979 73.794 C 328.407 74.489,328.756 75.192,328.756 75.358 C 328.756 75.523,329.039 76.106,329.384 76.653 C 329.730 77.200,330.138 78.115,330.292 78.686 C 330.446 79.258,330.786 80.003,331.047 80.342 C 331.309 80.681,331.654 81.343,331.814 81.812 C 331.974 82.281,332.325 82.981,332.593 83.366 C 332.862 83.752,333.212 84.451,333.371 84.921 C 333.530 85.390,333.898 86.109,334.190 86.518 C 334.481 86.927,334.797 87.649,334.891 88.123 C 334.986 88.596,335.393 89.503,335.796 90.138 C 336.199 90.773,336.528 91.441,336.528 91.622 C 336.528 91.803,336.878 92.502,337.306 93.176 C 337.733 93.850,338.083 94.577,338.083 94.791 C 338.083 95.004,338.385 95.615,338.754 96.148 C 339.124 96.681,339.535 97.603,339.668 98.196 C 339.801 98.789,340.072 99.435,340.269 99.632 C 340.466 99.829,340.837 100.546,341.094 101.226 C 341.351 101.905,341.700 102.605,341.871 102.780 C 342.042 102.956,342.390 103.655,342.645 104.335 C 342.900 105.014,343.185 105.628,343.280 105.699 C 343.585 105.930,344.233 107.362,344.416 108.207 C 344.513 108.661,344.754 109.165,344.951 109.329 C 345.148 109.492,345.512 110.171,345.760 110.836 C 346.008 111.502,346.416 112.316,346.666 112.646 C 346.916 112.975,347.261 113.675,347.432 114.200 C 347.604 114.726,347.960 115.433,348.223 115.772 C 348.487 116.111,348.832 116.868,348.990 117.454 C 349.147 118.039,349.480 118.811,349.730 119.169 C 349.979 119.526,350.256 120.119,350.344 120.485 C 350.433 120.852,350.781 121.559,351.119 122.057 C 351.457 122.555,351.807 123.254,351.896 123.611 C 351.986 123.969,352.354 124.695,352.714 125.225 C 353.509 126.396,353.580 127.899,352.882 128.786 C 352.615 129.126,352.198 129.987,351.956 130.699 C 351.715 131.412,351.369 132.170,351.187 132.383 C 351.006 132.597,350.655 133.297,350.407 133.938 C 350.159 134.579,349.811 135.278,349.634 135.492 C 349.456 135.706,349.110 136.425,348.864 137.091 C 348.619 137.757,348.257 138.435,348.060 138.599 C 347.863 138.762,347.624 139.249,347.529 139.680 C 347.435 140.111,346.320 142.532,345.052 145.059 C 343.784 147.586,342.746 149.831,342.746 150.047 C 342.746 150.263,342.398 150.953,341.974 151.580 C 341.549 152.207,341.199 152.907,341.196 153.135 C 341.194 153.363,340.844 154.062,340.419 154.689 C 339.994 155.316,339.645 155.983,339.642 156.171 C 339.639 156.359,339.300 157.175,338.889 157.985 C 338.477 158.794,337.708 160.389,337.180 161.528 C 336.652 162.668,336.112 163.776,335.979 163.990 C 335.847 164.203,335.498 164.903,335.205 165.544 C 333.733 168.758,333.312 169.646,332.254 171.762 C 332.040 172.189,331.690 172.889,331.477 173.316 C 330.560 175.150,330.335 175.598,329.593 177.073 C 329.163 177.927,328.733 178.998,328.638 179.451 C 328.542 179.904,328.303 180.409,328.106 180.572 C 327.909 180.736,327.545 181.414,327.297 182.080 C 327.049 182.746,326.641 183.560,326.391 183.889 C 326.141 184.219,325.798 184.918,325.630 185.444 C 325.461 185.969,325.178 186.574,325.001 186.788 C 324.823 187.001,324.481 187.782,324.240 188.522 C 323.999 189.262,323.598 190.136,323.349 190.465 C 323.099 190.793,322.692 191.607,322.444 192.272 C 322.196 192.938,321.825 193.623,321.618 193.794 C 321.412 193.965,321.242 194.236,321.240 194.397 C 321.238 194.558,320.899 195.355,320.486 196.169 C 320.073 196.983,319.594 198.091,319.421 198.630 C 319.247 199.170,318.955 199.786,318.771 200.000 C 318.588 200.214,318.235 200.913,317.987 201.554 C 317.739 202.196,317.389 202.895,317.208 203.109 C 317.028 203.323,316.628 204.138,316.320 204.922 C 316.012 205.705,315.630 206.502,315.472 206.693 C 315.313 206.884,314.976 207.630,314.722 208.351 C 314.468 209.071,314.101 209.848,313.906 210.077 C 313.711 210.305,313.349 211.017,313.101 211.658 C 312.854 212.299,312.500 212.999,312.317 213.212 C 312.133 213.426,311.840 214.044,311.667 214.585 C 311.493 215.126,310.893 216.097,310.334 216.743 L 309.317 217.918 308.933 216.998 C 308.722 216.493,308.549 215.986,308.549 215.872 C 308.549 215.758,308.277 215.258,307.944 214.762 C 307.611 214.266,307.207 213.476,307.046 213.007 C 306.886 212.537,306.533 211.838,306.263 211.452 C 305.993 211.067,305.632 210.321,305.462 209.796 C 305.291 209.271,304.937 208.567,304.673 208.232 C 304.410 207.898,304.067 207.148,303.910 206.566 C 303.753 205.984,303.414 205.231,303.156 204.891 C 302.898 204.552,302.485 203.730,302.237 203.064 C 301.989 202.399,301.617 201.714,301.411 201.543 C 301.205 201.372,301.036 201.097,301.036 200.932 C 301.036 200.768,300.641 199.809,300.159 198.802 C 299.676 197.796,299.201 196.604,299.102 196.154 C 299.003 195.705,298.842 195.337,298.743 195.337 C 298.644 195.337,298.352 194.900,298.093 194.365 C 297.835 193.831,297.448 193.044,297.233 192.617 C 297.018 192.189,296.698 191.548,296.521 191.192 C 296.344 190.835,295.904 189.961,295.542 189.249 C 295.180 188.536,294.735 187.487,294.554 186.917 C 294.373 186.347,294.016 185.611,293.759 185.282 C 293.503 184.952,293.154 184.253,292.982 183.727 C 292.811 183.202,292.461 182.502,292.205 182.173 C 291.949 181.843,291.601 181.144,291.433 180.619 C 291.264 180.093,290.978 179.488,290.797 179.275 C 290.617 179.061,290.280 178.324,290.050 177.637 C 289.819 176.950,289.341 175.961,288.986 175.440 C 288.632 174.918,288.342 174.312,288.342 174.093 C 288.342 173.874,288.067 173.289,287.731 172.793 C 287.395 172.297,287.033 171.600,286.927 171.244 C 286.821 170.887,286.505 170.196,286.224 169.707 C 285.943 169.218,285.535 168.285,285.317 167.634 C 285.099 166.983,284.767 166.276,284.580 166.062 C 284.393 165.848,284.038 165.149,283.790 164.508 C 283.542 163.867,283.192 163.167,283.013 162.953 C 282.833 162.740,282.483 162.040,282.235 161.399 C 281.988 160.758,281.643 160.058,281.470 159.845 C 281.296 159.631,280.958 158.853,280.719 158.116 C 280.479 157.379,280.120 156.641,279.922 156.477 C 279.724 156.312,279.374 155.613,279.145 154.922 C 278.916 154.232,278.566 153.532,278.368 153.368 C 278.170 153.203,277.809 152.466,277.567 151.729 C 277.324 150.992,276.910 150.111,276.646 149.771 C 276.382 149.431,276.166 148.991,276.166 148.792 C 276.166 148.458,274.783 145.531,273.922 144.041 C 273.715 143.685,273.378 142.986,273.172 142.487 C 272.966 141.988,272.508 140.997,272.156 140.285 C 271.803 139.573,271.344 138.582,271.134 138.083 C 270.925 137.584,270.576 136.885,270.358 136.528 C 270.140 136.172,269.790 135.473,269.581 134.974 C 269.371 134.475,269.030 133.776,268.824 133.420 C 266.181 128.858,265.789 125.971,267.506 123.705 C 267.829 123.277,268.180 122.578,268.285 122.150 C 268.390 121.723,268.740 121.023,269.062 120.596 C 269.385 120.168,269.735 119.469,269.840 119.041 C 269.945 118.614,270.285 117.856,270.596 117.358 C 270.906 116.859,271.245 116.108,271.349 115.689 C 271.452 115.271,271.767 114.605,272.047 114.211 C 272.328 113.817,272.688 113.110,272.847 112.641 C 273.006 112.172,273.354 111.475,273.620 111.092 C 273.886 110.710,274.264 109.952,274.459 109.408 C 274.654 108.865,275.118 107.820,275.490 107.087 C 275.862 106.354,276.166 105.641,276.166 105.502 C 276.166 105.364,276.379 104.973,276.639 104.633 C 276.899 104.294,277.317 103.491,277.568 102.850 C 277.818 102.209,278.169 101.509,278.347 101.295 C 278.525 101.082,278.825 100.499,279.014 100.000 C 279.497 98.723,280.791 95.848,281.229 95.078 C 281.431 94.722,281.775 94.022,281.992 93.523 C 282.210 93.025,282.559 92.325,282.770 91.969 C 282.980 91.613,283.335 90.913,283.559 90.415 C 283.782 89.916,284.309 88.794,284.729 87.922 C 285.149 87.049,285.492 86.164,285.492 85.954 C 285.492 85.744,285.715 85.371,285.988 85.124 C 286.260 84.878,286.637 84.152,286.826 83.512 C 287.015 82.872,287.350 82.152,287.570 81.913 C 287.790 81.673,288.187 80.894,288.451 80.181 C 288.715 79.469,289.081 78.711,289.264 78.497 C 289.447 78.284,289.679 77.759,289.778 77.332 C 289.878 76.904,290.295 76.020,290.705 75.366 C 291.115 74.712,291.451 74.013,291.452 73.812 C 291.452 73.610,291.802 72.921,292.228 72.280 C 292.654 71.639,293.003 70.954,293.004 70.758 C 293.005 70.563,293.342 69.747,293.754 68.945 C 294.165 68.143,294.693 67.079,294.928 66.580 C 295.162 66.082,295.513 65.382,295.707 65.026 C 295.902 64.670,296.252 63.970,296.484 63.472 C 296.717 62.973,297.064 62.273,297.256 61.917 C 298.029 60.479,299.223 57.831,299.223 57.555 C 299.223 57.394,299.573 56.693,300.000 55.999 C 300.427 55.304,300.778 54.573,300.778 54.375 C 300.779 54.178,301.128 53.491,301.554 52.850 C 301.981 52.209,302.330 51.531,302.330 51.344 C 302.332 51.020,303.926 47.448,304.434 46.632 C 304.567 46.418,304.912 45.719,305.199 45.078 C 305.487 44.437,305.837 43.737,305.977 43.523 C 306.116 43.310,306.474 42.610,306.771 41.969 C 307.068 41.328,307.636 40.104,308.034 39.249 C 308.432 38.394,308.823 37.490,308.904 37.241 C 309.119 36.577,309.531 36.682,310.495 37.645 M199.075 37.919 C 199.584 38.399,200.000 39.017,200.000 39.293 C 200.000 39.569,200.350 40.346,200.777 41.020 C 201.205 41.694,201.554 42.394,201.554 42.575 C 201.554 42.756,201.891 43.435,202.303 44.084 C 202.715 44.734,203.137 45.660,203.242 46.143 C 203.347 46.626,203.655 47.336,203.928 47.722 C 204.200 48.107,204.554 48.807,204.714 49.276 C 204.874 49.745,205.213 50.399,205.467 50.729 C 205.721 51.058,206.067 51.744,206.235 52.253 C 206.403 52.763,206.817 53.588,207.156 54.087 C 207.495 54.586,207.772 55.124,207.773 55.282 C 207.773 55.440,208.107 56.211,208.514 56.995 C 208.921 57.778,209.335 58.756,209.434 59.168 C 209.533 59.579,209.883 60.278,210.213 60.722 C 210.543 61.166,210.893 61.865,210.990 62.276 C 211.088 62.688,211.453 63.398,211.801 63.855 C 212.150 64.312,212.435 64.862,212.435 65.077 C 212.435 65.291,212.707 65.980,213.039 66.606 C 213.371 67.233,213.853 68.300,214.110 68.977 C 214.368 69.653,214.665 70.207,214.770 70.207 C 214.876 70.207,215.224 70.907,215.544 71.762 C 215.864 72.617,216.220 73.316,216.335 73.316 C 216.451 73.316,216.625 73.578,216.723 73.899 C 216.939 74.609,218.158 77.259,220.330 81.736 C 221.229 83.588,222.333 85.920,222.784 86.917 C 223.236 87.915,223.717 88.905,223.854 89.119 C 223.991 89.333,224.277 89.916,224.488 90.415 C 224.846 91.259,225.135 91.842,225.837 93.135 C 226.445 94.256,227.979 97.650,227.979 97.875 C 227.979 98.007,228.256 98.523,228.595 99.022 C 228.934 99.521,229.349 100.346,229.517 100.855 C 229.685 101.364,230.033 102.051,230.290 102.380 C 230.547 102.710,230.842 103.271,230.944 103.627 C 231.047 103.983,231.407 104.858,231.746 105.570 C 232.084 106.282,232.535 107.273,232.747 107.772 C 232.959 108.271,233.304 108.970,233.514 109.326 C 233.724 109.683,234.118 110.440,234.389 111.010 C 234.661 111.580,235.066 112.396,235.289 112.824 C 236.069 114.319,237.267 116.975,237.451 117.617 C 237.553 117.973,237.847 118.534,238.104 118.863 C 238.361 119.193,238.709 119.879,238.877 120.388 C 239.045 120.897,239.460 121.722,239.799 122.222 C 240.137 122.721,240.418 123.317,240.423 123.547 C 240.427 123.776,240.718 124.430,241.069 125.000 C 241.865 126.293,241.937 128.136,241.227 129.045 C 240.962 129.385,240.657 129.955,240.550 130.311 C 240.443 130.667,240.092 131.483,239.770 132.124 C 238.510 134.632,237.047 137.743,237.047 137.913 C 237.047 138.012,236.774 138.528,236.440 139.060 C 236.107 139.591,235.750 140.366,235.647 140.783 C 235.544 141.199,235.235 141.826,234.959 142.177 C 234.683 142.527,234.331 143.286,234.175 143.863 C 234.020 144.440,233.611 145.281,233.268 145.732 C 232.924 146.183,232.642 146.722,232.642 146.930 C 232.642 147.138,232.293 147.859,231.865 148.533 C 231.438 149.207,231.088 149.859,231.088 149.982 C 231.088 150.253,229.383 154.017,228.850 154.922 C 228.641 155.278,228.298 155.978,228.088 156.477 C 227.878 156.975,227.528 157.675,227.311 158.031 C 227.093 158.387,226.747 159.087,226.543 159.585 C 226.338 160.084,225.878 161.046,225.521 161.723 C 225.163 162.400,224.870 163.112,224.870 163.306 C 224.870 163.500,224.593 164.067,224.255 164.566 C 223.916 165.065,223.501 165.890,223.333 166.399 C 223.165 166.909,222.818 167.595,222.562 167.924 C 222.306 168.254,221.948 168.990,221.768 169.560 C 221.587 170.130,221.239 170.946,220.993 171.373 C 220.748 171.801,220.393 172.558,220.205 173.057 C 220.017 173.556,219.717 174.139,219.539 174.352 C 219.360 174.566,219.012 175.266,218.764 175.907 C 218.516 176.548,218.154 177.260,217.958 177.489 C 217.763 177.718,217.363 178.592,217.069 179.432 C 216.776 180.272,216.385 181.133,216.202 181.347 C 216.019 181.561,215.731 182.166,215.562 182.691 C 215.393 183.216,215.051 183.916,214.801 184.245 C 214.550 184.575,214.143 185.389,213.895 186.055 C 213.647 186.720,213.283 187.399,213.086 187.562 C 212.889 187.726,212.647 188.230,212.548 188.684 C 212.449 189.137,212.034 190.136,211.625 190.904 C 211.215 191.672,210.881 192.443,210.881 192.617 C 210.881 192.791,210.609 193.333,210.277 193.823 C 209.945 194.312,209.541 195.091,209.380 195.554 C 209.218 196.017,208.861 196.712,208.585 197.099 C 208.310 197.486,207.956 198.282,207.798 198.868 C 207.640 199.453,207.286 200.219,207.010 200.570 C 206.734 200.920,206.428 201.547,206.329 201.963 C 206.230 202.380,205.880 203.083,205.550 203.527 C 205.220 203.970,204.870 204.670,204.773 205.081 C 204.675 205.492,204.325 206.192,203.995 206.636 C 203.665 207.079,203.317 207.779,203.222 208.190 C 203.126 208.601,202.785 209.404,202.464 209.974 C 202.142 210.544,201.790 211.300,201.680 211.655 C 201.570 212.009,201.218 212.708,200.897 213.209 C 200.576 213.710,200.177 214.553,200.010 215.082 C 199.310 217.303,197.649 217.877,196.986 216.127 C 196.730 215.450,196.255 214.430,195.931 213.860 C 195.608 213.290,195.342 212.642,195.340 212.421 C 195.338 212.199,195.048 211.627,194.695 211.148 C 194.343 210.670,193.920 209.874,193.757 209.379 C 193.594 208.884,193.183 208.070,192.844 207.571 C 192.505 207.072,192.228 206.404,192.228 206.087 C 192.228 205.770,192.013 205.232,191.750 204.892 C 191.487 204.553,191.055 203.692,190.789 202.979 C 190.522 202.267,190.165 201.540,189.994 201.365 C 189.823 201.189,189.474 200.490,189.217 199.810 C 188.960 199.131,188.608 198.429,188.435 198.251 C 188.262 198.073,187.870 197.259,187.564 196.441 C 187.258 195.623,186.910 194.836,186.791 194.692 C 186.672 194.548,186.371 193.905,186.123 193.264 C 185.874 192.623,185.524 191.924,185.344 191.710 C 185.165 191.496,184.815 190.797,184.567 190.155 C 184.319 189.514,183.961 188.807,183.770 188.583 C 183.580 188.359,183.189 187.493,182.902 186.658 C 182.614 185.823,182.221 184.957,182.027 184.733 C 181.834 184.509,181.605 184.026,181.518 183.660 C 181.431 183.293,181.084 182.586,180.746 182.088 C 180.408 181.590,180.058 180.891,179.969 180.534 C 179.879 180.177,179.511 179.451,179.152 178.920 C 178.792 178.390,178.497 177.838,178.497 177.693 C 178.497 177.549,178.031 176.453,177.461 175.259 C 176.891 174.065,176.425 172.979,176.425 172.845 C 176.425 172.712,176.265 172.470,176.070 172.308 C 175.875 172.146,175.509 171.461,175.257 170.786 C 175.006 170.112,174.633 169.367,174.428 169.131 C 174.224 168.895,173.894 168.160,173.695 167.499 C 173.496 166.837,173.104 165.974,172.824 165.580 C 172.543 165.187,172.230 164.522,172.126 164.103 C 172.023 163.685,171.675 162.992,171.352 162.565 C 171.030 162.137,170.680 161.438,170.575 161.010 C 170.470 160.583,170.120 159.883,169.798 159.456 C 169.475 159.028,169.130 158.329,169.031 157.902 C 168.932 157.474,168.588 156.658,168.267 156.088 C 167.945 155.518,167.594 154.760,167.486 154.404 C 167.378 154.048,167.067 153.441,166.796 153.055 C 166.524 152.670,166.172 151.970,166.013 151.501 C 165.854 151.032,165.495 150.319,165.214 149.916 C 164.934 149.514,164.548 148.663,164.356 148.025 C 164.164 147.388,163.770 146.533,163.480 146.126 C 163.190 145.719,162.953 145.297,162.953 145.188 C 162.953 145.079,162.184 143.406,161.245 141.471 C 158.784 136.405,158.338 135.470,157.898 134.456 C 157.681 133.957,157.332 133.258,157.122 132.902 C 156.912 132.545,156.558 131.846,156.335 131.347 C 156.113 130.848,155.704 130.032,155.427 129.534 C 154.678 128.186,154.751 126.087,155.598 124.611 C 155.966 123.970,156.449 122.979,156.671 122.409 C 156.894 121.839,157.217 121.198,157.390 120.984 C 157.564 120.771,157.902 119.993,158.142 119.256 C 158.381 118.519,158.740 117.781,158.938 117.617 C 159.136 117.452,159.486 116.753,159.715 116.062 C 159.944 115.372,160.294 114.672,160.492 114.508 C 160.690 114.343,161.040 113.644,161.269 112.953 C 161.499 112.263,161.842 111.569,162.032 111.411 C 162.222 111.253,162.514 110.582,162.681 109.920 C 162.848 109.257,163.215 108.392,163.496 107.996 C 163.778 107.600,164.139 106.893,164.298 106.423 C 164.457 105.954,164.807 105.255,165.075 104.869 C 165.343 104.483,165.693 103.784,165.852 103.315 C 166.011 102.845,166.362 102.145,166.631 101.758 C 166.901 101.371,167.291 100.481,167.499 99.781 C 167.707 99.081,168.045 98.368,168.251 98.198 C 168.456 98.027,168.812 97.323,169.041 96.632 C 169.271 95.942,169.621 95.242,169.820 95.077 C 170.018 94.912,170.316 94.349,170.481 93.826 C 170.646 93.303,171.049 92.468,171.377 91.969 C 171.704 91.470,172.054 90.654,172.154 90.155 C 172.255 89.657,172.597 88.899,172.915 88.472 C 173.233 88.044,173.578 87.352,173.681 86.933 C 173.784 86.514,174.097 85.851,174.375 85.460 C 174.654 85.069,175.057 84.252,175.271 83.644 C 175.486 83.036,175.832 82.350,176.042 82.118 C 176.251 81.887,176.589 81.142,176.794 80.462 C 176.999 79.782,177.331 79.033,177.533 78.797 C 177.734 78.561,178.102 77.843,178.349 77.202 C 178.597 76.561,178.947 75.861,179.127 75.648 C 179.306 75.434,179.656 74.734,179.904 74.093 C 180.152 73.452,180.505 72.753,180.688 72.539 C 180.872 72.325,181.171 71.684,181.353 71.114 C 181.668 70.128,182.792 67.716,183.586 66.321 C 184.423 64.851,186.269 60.885,186.269 60.557 C 186.269 60.363,186.561 59.809,186.917 59.326 C 187.273 58.844,187.565 58.256,187.565 58.020 C 187.565 57.784,187.912 57.078,188.337 56.451 C 188.762 55.824,189.112 55.124,189.114 54.896 C 189.117 54.669,189.467 53.969,189.892 53.342 C 190.317 52.715,190.666 52.006,190.669 51.766 C 190.673 51.341,192.935 46.630,193.257 46.373 C 193.347 46.302,193.629 45.688,193.884 45.008 C 194.138 44.329,194.508 43.612,194.705 43.415 C 194.902 43.218,195.175 42.560,195.311 41.953 C 195.448 41.347,195.784 40.546,196.059 40.174 C 196.334 39.802,196.646 39.209,196.752 38.855 C 197.331 36.928,197.816 36.732,199.075 37.919 " stroke="none" fill="#fcfcfc" fill-rule="evenodd"></path></g></svg>