<svg id="svg" version="1.1" xmlns="http://www.w3.org/2000/svg" xmlns:xlink="http://www.w3.org/1999/xlink" width="400" height="258.91472868217056" viewBox="0, 0, 400,258.91472868217056"><g id="svgg"><path id="path0" d="M143.005 29.094 C 143.005 29.422,142.669 30.151,142.259 30.713 C 141.848 31.276,141.432 32.109,141.334 32.566 C 141.236 33.022,140.917 33.699,140.625 34.071 C 140.332 34.442,139.985 35.227,139.853 35.814 C 139.721 36.401,139.342 37.153,139.010 37.485 C 138.679 37.817,138.332 38.558,138.240 39.132 C 138.149 39.706,137.907 40.239,137.703 40.317 C 137.499 40.396,137.137 41.062,136.898 41.797 C 136.659 42.533,136.262 43.368,136.017 43.653 C 135.771 43.938,135.417 44.738,135.230 45.430 C 135.043 46.123,134.702 46.881,134.471 47.114 C 134.240 47.348,133.895 48.005,133.703 48.575 C 133.512 49.145,133.176 49.817,132.955 50.069 C 132.734 50.321,132.343 51.125,132.086 51.856 C 131.829 52.586,131.457 53.371,131.259 53.600 C 131.062 53.828,130.710 54.589,130.477 55.289 C 130.244 55.990,129.897 56.748,129.704 56.973 C 129.512 57.199,129.152 57.908,128.904 58.549 C 128.657 59.190,128.308 59.890,128.130 60.104 C 127.951 60.317,127.652 60.900,127.464 61.399 C 127.276 61.898,126.921 62.655,126.675 63.083 C 126.430 63.510,126.084 64.326,125.906 64.896 C 125.729 65.466,125.375 66.166,125.121 66.451 C 124.866 66.736,124.531 67.446,124.377 68.029 C 124.222 68.612,123.874 69.289,123.603 69.534 C 123.332 69.780,122.985 70.478,122.832 71.086 C 122.679 71.694,122.339 72.473,122.077 72.818 C 121.815 73.163,121.455 73.948,121.278 74.561 C 121.100 75.175,120.755 75.877,120.510 76.122 C 120.265 76.367,119.916 77.066,119.733 77.677 C 119.550 78.287,119.186 79.001,118.923 79.263 C 118.661 79.525,118.368 80.098,118.272 80.535 C 118.176 80.972,117.820 81.738,117.482 82.237 C 117.143 82.736,116.787 83.565,116.691 84.078 C 116.594 84.591,116.250 85.327,115.926 85.712 C 115.601 86.098,115.208 86.887,115.053 87.466 C 114.897 88.045,114.542 88.724,114.264 88.975 C 113.987 89.226,113.683 89.799,113.588 90.247 C 113.494 90.695,113.092 91.645,112.694 92.358 C 112.297 93.070,111.894 94.024,111.798 94.477 C 111.703 94.930,111.463 95.435,111.266 95.598 C 111.069 95.762,110.705 96.440,110.456 97.106 C 110.207 97.771,109.750 98.666,109.440 99.093 C 109.130 99.521,108.797 100.207,108.699 100.618 C 108.601 101.030,108.236 101.740,107.888 102.197 C 107.539 102.654,107.252 103.309,107.249 103.651 C 107.247 103.994,106.897 104.788,106.472 105.415 C 106.047 106.042,105.697 106.741,105.695 106.969 C 105.692 107.197,105.342 107.896,104.918 108.523 C 104.493 109.150,104.143 109.850,104.140 110.078 C 104.138 110.306,103.788 111.005,103.363 111.632 C 102.938 112.259,102.589 113.017,102.586 113.316 C 102.583 113.615,102.234 114.373,101.809 115.000 C 101.384 115.627,101.036 116.333,101.036 116.569 C 101.036 116.805,100.745 117.393,100.389 117.876 C 100.032 118.358,99.741 118.912,99.741 119.105 C 99.741 119.533,99.015 120.970,98.577 121.408 C 98.402 121.583,98.187 122.174,98.099 122.722 C 98.012 123.269,97.652 124.107,97.300 124.584 C 96.177 126.105,96.107 128.589,97.151 129.794 C 97.423 130.107,97.849 130.906,98.097 131.568 C 98.345 132.230,98.626 132.830,98.720 132.902 C 99.087 133.179,99.741 134.721,99.741 135.310 C 99.741 135.651,99.978 136.144,100.267 136.406 C 100.557 136.668,100.919 137.379,101.071 137.985 C 101.224 138.591,101.570 139.288,101.841 139.533 C 102.112 139.778,102.461 140.452,102.617 141.031 C 102.773 141.611,103.181 142.417,103.523 142.824 C 103.865 143.230,104.145 143.828,104.145 144.152 C 104.145 144.476,104.493 145.254,104.918 145.881 C 105.342 146.508,105.692 147.267,105.695 147.568 C 105.697 147.869,106.049 148.555,106.477 149.093 C 106.904 149.631,107.254 150.338,107.254 150.663 C 107.254 150.989,107.541 151.597,107.891 152.013 C 108.242 152.430,108.639 153.262,108.774 153.863 C 108.909 154.464,109.322 155.391,109.691 155.924 C 110.061 156.457,110.363 157.073,110.363 157.294 C 110.363 157.514,110.710 158.207,111.135 158.834 C 111.560 159.461,111.910 160.155,111.912 160.377 C 111.915 160.598,112.249 161.304,112.656 161.944 C 113.062 162.585,113.473 163.528,113.569 164.041 C 113.666 164.554,113.910 165.111,114.112 165.279 C 114.315 165.447,114.683 166.129,114.931 166.795 C 115.179 167.461,115.587 168.275,115.837 168.604 C 116.087 168.934,116.433 169.633,116.606 170.159 C 116.779 170.684,117.183 171.522,117.504 172.021 C 117.825 172.519,118.171 173.335,118.274 173.834 C 118.377 174.333,118.723 175.053,119.043 175.435 C 119.363 175.817,119.700 176.529,119.791 177.018 C 119.883 177.508,120.190 178.118,120.472 178.373 C 120.755 178.629,121.114 179.313,121.270 179.892 C 121.426 180.471,121.834 181.277,122.176 181.684 C 122.518 182.090,122.798 182.743,122.798 183.134 C 122.798 183.525,123.144 184.303,123.568 184.863 C 123.991 185.423,124.343 186.114,124.350 186.399 C 124.356 186.684,124.709 187.430,125.134 188.057 C 125.559 188.684,125.907 189.390,125.907 189.626 C 125.907 189.862,126.186 190.433,126.527 190.895 C 126.868 191.358,127.276 192.246,127.432 192.869 C 127.589 193.492,127.891 194.175,128.102 194.387 C 128.314 194.598,128.731 195.423,129.029 196.220 C 129.327 197.017,129.663 197.668,129.777 197.668 C 129.890 197.668,130.237 198.368,130.549 199.223 C 130.861 200.078,131.215 200.777,131.337 200.777 C 131.459 200.777,131.762 201.448,132.012 202.267 C 132.261 203.086,132.666 203.990,132.911 204.275 C 133.156 204.560,133.501 205.259,133.679 205.829 C 133.856 206.399,134.206 207.098,134.456 207.383 C 134.706 207.668,135.058 208.368,135.239 208.938 C 135.420 209.508,135.767 210.231,136.011 210.545 C 136.255 210.859,136.607 211.675,136.794 212.358 C 136.981 213.042,137.406 213.931,137.738 214.333 C 138.070 214.736,138.342 215.332,138.342 215.658 C 138.342 215.984,138.692 216.690,139.119 217.228 C 139.547 217.766,139.896 218.472,139.896 218.798 C 139.896 219.124,140.183 219.731,140.534 220.148 C 140.884 220.565,141.283 221.401,141.419 222.006 C 141.555 222.611,141.907 223.363,142.202 223.677 C 142.497 223.991,142.813 224.623,142.905 225.083 C 143.139 226.250,143.430 226.321,143.938 225.332 C 144.177 224.865,144.585 224.211,144.842 223.881 C 145.100 223.550,145.495 222.646,145.720 221.873 C 145.944 221.099,146.240 220.466,146.375 220.466 C 146.511 220.466,146.699 220.146,146.793 219.754 C 147.008 218.859,147.626 217.622,148.091 217.157 C 148.286 216.962,148.446 216.630,148.446 216.419 C 148.446 215.962,149.197 214.442,149.530 214.226 C 149.660 214.142,149.928 213.457,150.127 212.704 C 150.326 211.951,150.713 211.087,150.987 210.784 C 151.262 210.481,151.569 209.883,151.670 209.456 C 151.771 209.028,152.118 208.329,152.440 207.902 C 152.763 207.474,153.113 206.775,153.217 206.347 C 153.322 205.920,153.675 205.219,154.001 204.790 C 154.328 204.361,154.679 203.603,154.783 203.106 C 154.886 202.609,155.244 201.794,155.578 201.295 C 155.912 200.797,156.268 200.039,156.370 199.611 C 156.472 199.184,156.819 198.516,157.142 198.128 C 157.464 197.740,157.811 197.040,157.913 196.574 C 158.015 196.107,158.360 195.413,158.680 195.031 C 159.000 194.650,159.344 193.892,159.445 193.348 C 159.546 192.803,159.901 192.000,160.232 191.562 C 160.564 191.125,160.962 190.299,161.116 189.725 C 161.271 189.152,161.624 188.478,161.901 188.227 C 162.179 187.976,162.483 187.403,162.578 186.955 C 162.673 186.507,163.087 185.624,163.499 184.994 C 163.912 184.364,164.249 183.519,164.249 183.116 C 164.249 182.713,164.498 182.134,164.803 181.829 C 165.108 181.524,165.517 180.745,165.712 180.098 C 165.906 179.451,166.293 178.710,166.570 178.451 C 166.848 178.193,167.149 177.583,167.241 177.096 C 167.332 176.609,167.622 175.980,167.885 175.697 C 168.148 175.415,168.553 174.532,168.785 173.735 C 169.016 172.938,169.356 172.197,169.540 172.089 C 169.723 171.980,170.074 171.280,170.320 170.533 C 170.565 169.785,170.915 169.086,171.097 168.978 C 171.279 168.870,171.632 168.162,171.881 167.404 C 172.130 166.646,172.487 165.966,172.674 165.895 C 172.861 165.823,173.155 165.161,173.327 164.423 C 173.499 163.686,173.844 162.850,174.093 162.565 C 174.343 162.280,174.685 161.617,174.853 161.091 C 175.021 160.566,175.369 159.866,175.625 159.537 C 175.881 159.207,176.231 158.508,176.402 157.983 C 176.573 157.457,176.936 156.745,177.207 156.399 C 177.479 156.054,177.812 155.281,177.946 154.683 C 178.081 154.084,178.493 153.158,178.862 152.625 C 179.231 152.092,179.534 151.476,179.534 151.256 C 179.534 151.035,179.881 150.342,180.306 149.715 C 180.731 149.088,181.081 148.389,181.083 148.161 C 181.086 147.933,181.436 147.233,181.861 146.606 C 182.285 145.979,182.635 145.222,182.638 144.922 C 182.640 144.623,182.990 143.865,183.415 143.238 C 183.840 142.611,184.190 141.912,184.192 141.684 C 184.195 141.456,184.545 140.757,184.969 140.130 C 185.394 139.503,185.744 138.802,185.747 138.572 C 185.749 138.343,186.061 137.702,186.441 137.148 C 186.820 136.593,187.227 135.629,187.346 135.005 C 187.465 134.381,187.839 133.593,188.178 133.254 C 188.517 132.915,188.868 132.201,188.957 131.668 C 189.046 131.135,189.402 130.432,189.749 130.106 C 190.938 128.987,190.879 125.346,189.653 124.237 C 189.376 123.986,189.071 123.414,188.977 122.965 C 188.883 122.517,188.468 121.553,188.055 120.823 C 187.643 120.094,187.306 119.253,187.306 118.955 C 187.306 118.658,187.088 118.205,186.823 117.951 C 186.186 117.339,185.751 116.480,185.751 115.830 C 185.751 115.541,185.534 115.097,185.268 114.842 C 184.626 114.226,184.302 113.545,184.090 112.370 C 183.993 111.836,183.825 111.399,183.715 111.399 C 183.486 111.399,182.645 109.724,182.638 109.253 C 182.635 109.080,182.285 108.425,181.861 107.798 C 181.436 107.171,181.088 106.465,181.088 106.229 C 181.088 105.993,180.794 105.402,180.435 104.915 C 180.075 104.428,179.656 103.564,179.503 102.995 C 179.350 102.427,179.003 101.680,178.732 101.335 C 178.462 100.991,178.117 100.252,177.966 99.693 C 177.816 99.135,177.468 98.453,177.193 98.178 C 176.919 97.903,176.561 97.152,176.399 96.508 C 176.237 95.864,176.005 95.337,175.883 95.337 C 175.560 95.337,174.943 94.044,174.734 92.928 C 174.634 92.396,174.408 91.876,174.231 91.771 C 174.054 91.666,173.711 90.977,173.469 90.240 C 173.227 89.503,172.867 88.765,172.668 88.601 C 172.470 88.437,172.121 87.737,171.891 87.047 C 171.662 86.356,171.312 85.657,171.114 85.492 C 170.916 85.328,170.558 84.590,170.318 83.853 C 170.078 83.116,169.721 82.328,169.525 82.103 C 169.329 81.877,168.986 81.156,168.763 80.500 C 168.539 79.844,168.196 79.174,168.000 79.012 C 167.805 78.849,167.457 78.152,167.228 77.461 C 166.999 76.771,166.649 76.071,166.451 75.907 C 166.253 75.742,165.893 75.005,165.651 74.268 C 165.410 73.531,164.995 72.618,164.730 72.240 C 164.465 71.862,164.249 71.384,164.249 71.179 C 164.249 70.663,163.542 69.293,163.078 68.907 C 162.867 68.733,162.694 68.365,162.694 68.090 C 162.694 67.479,162.088 66.268,161.566 65.834 C 161.354 65.658,161.104 65.062,161.011 64.510 C 160.917 63.958,160.568 63.188,160.234 62.800 C 159.901 62.411,159.551 61.685,159.457 61.185 C 159.363 60.685,159.013 59.917,158.679 59.477 C 158.345 59.038,157.986 58.329,157.881 57.902 C 157.776 57.474,157.427 56.775,157.105 56.347 C 156.783 55.920,156.440 55.137,156.342 54.607 C 156.244 54.077,155.891 53.327,155.557 52.939 C 155.224 52.551,154.878 51.802,154.789 51.275 C 154.700 50.747,154.352 50.057,154.016 49.741 C 153.679 49.425,153.329 48.725,153.238 48.187 C 153.147 47.648,152.798 46.948,152.461 46.632 C 152.125 46.316,151.774 45.611,151.682 45.066 C 151.590 44.521,151.289 43.815,151.014 43.498 C 150.739 43.180,150.376 42.444,150.208 41.862 C 150.039 41.280,149.642 40.485,149.325 40.097 C 149.008 39.708,148.665 39.009,148.564 38.542 C 148.462 38.076,148.112 37.376,147.786 36.988 C 147.461 36.600,147.112 35.900,147.011 35.434 C 146.911 34.967,146.564 34.119,146.241 33.549 C 145.918 32.979,145.515 32.076,145.345 31.541 C 145.176 31.007,144.938 30.570,144.817 30.570 C 144.696 30.570,144.391 30.104,144.140 29.534 C 143.639 28.398,143.005 28.152,143.005 29.094 M253.238 29.534 C 253.147 29.952,252.803 30.689,252.476 31.171 C 252.148 31.654,251.675 32.678,251.425 33.447 C 251.175 34.216,250.804 35.035,250.602 35.267 C 250.400 35.500,250.110 36.140,249.958 36.690 C 249.806 37.239,249.418 38.003,249.096 38.386 C 248.774 38.769,248.435 39.482,248.343 39.972 C 248.252 40.461,247.945 41.071,247.662 41.327 C 247.379 41.583,247.023 42.256,246.871 42.822 C 246.718 43.389,246.321 44.274,245.989 44.789 C 245.656 45.304,245.309 46.092,245.216 46.540 C 245.124 46.989,244.821 47.561,244.544 47.812 C 244.266 48.063,243.913 48.746,243.758 49.329 C 243.603 49.912,243.244 50.640,242.960 50.947 C 242.676 51.254,242.332 52.000,242.196 52.605 C 242.060 53.211,241.662 54.047,241.311 54.463 C 240.960 54.880,240.674 55.453,240.674 55.736 C 240.674 56.365,240.282 57.127,239.618 57.792 C 239.344 58.066,239.119 58.531,239.119 58.825 C 239.119 59.461,238.736 60.228,238.103 60.861 C 237.850 61.114,237.569 61.787,237.478 62.357 C 237.387 62.927,237.103 63.673,236.848 64.015 C 236.593 64.357,236.228 65.104,236.037 65.674 C 235.846 66.244,235.494 66.943,235.255 67.228 C 235.016 67.513,234.667 68.212,234.478 68.782 C 234.289 69.352,233.935 70.052,233.692 70.337 C 233.448 70.622,233.050 71.491,232.808 72.268 C 232.567 73.044,232.215 73.860,232.028 74.081 C 231.840 74.301,231.484 75.006,231.236 75.648 C 230.988 76.289,230.639 76.988,230.459 77.202 C 230.279 77.416,229.929 78.115,229.682 78.756 C 229.434 79.398,229.082 80.097,228.900 80.311 C 228.718 80.525,228.378 81.273,228.146 81.973 C 227.913 82.674,227.562 83.432,227.365 83.657 C 227.169 83.883,226.863 84.534,226.685 85.104 C 226.507 85.674,226.157 86.373,225.907 86.658 C 225.657 86.943,225.307 87.642,225.130 88.212 C 224.952 88.782,224.590 89.487,224.324 89.779 C 224.059 90.071,223.766 90.712,223.674 91.204 C 223.581 91.696,223.253 92.448,222.943 92.876 C 222.634 93.303,222.237 94.148,222.061 94.753 C 221.885 95.359,221.524 96.058,221.258 96.308 C 220.993 96.557,220.643 97.257,220.482 97.862 C 220.320 98.467,219.970 99.166,219.705 99.416 C 219.439 99.666,219.093 100.351,218.936 100.938 C 218.779 101.525,218.428 102.289,218.155 102.635 C 217.882 102.982,217.577 103.705,217.476 104.242 C 217.375 104.779,217.027 105.534,216.703 105.919 C 216.379 106.305,215.986 107.094,215.830 107.673 C 215.674 108.252,215.325 108.927,215.054 109.172 C 214.783 109.417,214.436 110.115,214.283 110.723 C 214.130 111.331,213.779 112.115,213.504 112.465 C 213.229 112.815,212.867 113.606,212.701 114.223 C 212.535 114.841,212.172 115.589,211.894 115.887 C 211.617 116.185,211.267 116.884,211.117 117.441 C 210.967 117.999,210.614 118.702,210.333 119.004 C 210.051 119.306,209.696 120.050,209.543 120.657 C 209.390 121.265,209.184 121.762,209.085 121.762 C 208.830 121.762,208.031 123.499,208.031 124.052 C 208.031 124.304,207.740 124.906,207.383 125.389 C 206.504 126.581,206.504 128.098,207.384 129.121 C 207.740 129.535,208.031 130.131,208.031 130.445 C 208.031 130.760,208.381 131.457,208.808 131.995 C 209.236 132.533,209.585 133.210,209.585 133.499 C 209.585 133.789,209.935 134.645,210.363 135.403 C 210.790 136.160,211.140 136.936,211.140 137.128 C 211.140 137.319,211.477 137.991,211.889 138.621 C 212.301 139.251,212.716 140.134,212.811 140.582 C 212.905 141.030,213.205 141.598,213.477 141.844 C 213.749 142.090,214.149 142.903,214.367 143.651 C 214.584 144.398,214.932 145.152,215.141 145.325 C 215.349 145.498,215.703 146.271,215.928 147.042 C 216.152 147.814,216.443 148.446,216.574 148.446 C 216.704 148.446,217.067 149.145,217.378 150.000 C 217.690 150.855,218.033 151.554,218.141 151.554 C 218.373 151.554,219.171 153.466,219.171 154.021 C 219.171 154.232,219.402 154.635,219.684 154.917 C 219.966 155.200,220.328 155.950,220.488 156.585 C 220.648 157.220,221.000 157.941,221.271 158.186 C 221.542 158.431,221.890 159.108,222.045 159.691 C 222.200 160.274,222.559 161.003,222.843 161.310 C 223.127 161.617,223.466 162.339,223.595 162.914 C 223.725 163.490,224.123 164.392,224.480 164.918 C 224.837 165.445,225.132 166.063,225.134 166.293 C 225.137 166.522,225.487 167.223,225.911 167.850 C 226.336 168.477,226.684 169.183,226.684 169.419 C 226.684 169.655,226.963 170.226,227.304 170.688 C 227.645 171.151,228.050 172.028,228.203 172.637 C 228.357 173.247,228.702 174.028,228.970 174.373 C 229.239 174.718,229.598 175.430,229.770 175.955 C 229.941 176.481,230.291 177.180,230.547 177.510 C 230.803 177.839,231.153 178.539,231.324 179.064 C 231.496 179.590,231.849 180.291,232.111 180.623 C 232.372 180.955,232.735 181.750,232.918 182.388 C 233.101 183.027,233.395 183.724,233.572 183.938 C 233.749 184.152,234.097 184.851,234.345 185.492 C 234.593 186.133,234.942 186.833,235.122 187.047 C 235.302 187.260,235.654 187.960,235.904 188.601 C 236.154 189.242,236.574 190.047,236.836 190.389 C 237.098 190.731,237.386 191.470,237.475 192.032 C 237.565 192.594,237.902 193.366,238.224 193.749 C 238.546 194.131,238.937 194.918,239.093 195.497 C 239.248 196.076,239.598 196.750,239.869 196.996 C 240.139 197.241,240.486 197.937,240.639 198.543 C 240.791 199.150,241.155 199.862,241.446 200.126 C 241.738 200.390,242.050 201.063,242.139 201.622 C 242.229 202.181,242.577 202.966,242.914 203.366 C 243.251 203.766,243.599 204.484,243.688 204.961 C 243.778 205.439,244.125 206.125,244.460 206.486 C 244.795 206.847,245.144 207.547,245.237 208.040 C 245.329 208.534,245.672 209.229,245.998 209.585 C 246.325 209.942,246.673 210.674,246.772 211.213 C 246.871 211.753,247.228 212.601,247.566 213.098 C 247.904 213.596,248.255 214.321,248.347 214.709 C 248.439 215.097,248.778 215.770,249.101 216.204 C 249.424 216.639,249.799 217.397,249.936 217.888 C 250.072 218.380,250.478 219.216,250.839 219.745 C 251.199 220.275,251.572 221.126,251.668 221.638 C 251.764 222.149,252.067 222.792,252.341 223.066 C 252.615 223.341,252.971 224.087,253.132 224.726 L 253.424 225.886 254.408 225.095 C 255.084 224.552,255.445 224.018,255.563 223.389 C 255.658 222.886,256.008 222.051,256.341 221.535 C 256.675 221.018,257.020 220.242,257.109 219.810 C 257.198 219.378,257.546 218.704,257.883 218.312 C 258.219 217.920,258.567 217.216,258.655 216.747 C 258.743 216.278,259.059 215.631,259.358 215.310 C 259.657 214.989,260.047 214.182,260.223 213.516 C 260.400 212.850,260.853 211.852,261.231 211.298 C 261.608 210.744,261.919 210.103,261.922 209.873 C 261.924 209.644,262.274 208.943,262.699 208.316 C 263.124 207.689,263.474 206.989,263.476 206.762 C 263.479 206.534,263.829 205.834,264.253 205.207 C 264.678 204.580,265.026 203.809,265.026 203.493 C 265.026 203.178,265.272 202.606,265.573 202.224 C 265.875 201.841,266.284 200.986,266.483 200.324 C 266.682 199.662,267.067 198.881,267.337 198.589 C 267.608 198.296,267.956 197.580,268.110 196.997 C 268.265 196.414,268.614 195.736,268.885 195.491 C 269.157 195.245,269.452 194.655,269.541 194.180 C 269.630 193.705,269.916 193.043,270.176 192.708 C 270.436 192.373,270.847 191.495,271.090 190.758 C 271.333 190.021,271.693 189.284,271.891 189.119 C 272.089 188.955,272.439 188.255,272.668 187.565 C 272.898 186.874,273.254 186.170,273.459 185.999 C 273.664 185.829,274.007 185.101,274.221 184.382 C 274.434 183.663,274.769 182.890,274.966 182.664 C 275.162 182.439,275.524 181.634,275.771 180.875 C 276.018 180.117,276.369 179.439,276.552 179.369 C 276.735 179.299,277.027 178.732,277.202 178.110 C 277.376 177.488,277.735 176.747,277.999 176.463 C 278.263 176.180,278.613 175.420,278.775 174.774 C 278.938 174.129,279.350 173.223,279.691 172.761 C 280.032 172.298,280.311 171.727,280.311 171.491 C 280.311 171.255,280.659 170.549,281.083 169.922 C 281.508 169.295,281.858 168.598,281.861 168.373 C 281.863 168.149,282.201 167.449,282.611 166.819 C 283.021 166.189,283.429 165.266,283.518 164.767 C 283.606 164.268,283.970 163.521,284.326 163.107 C 284.683 162.693,284.977 162.110,284.981 161.812 C 284.985 161.514,285.335 160.811,285.759 160.252 C 286.182 159.692,286.528 159.014,286.528 158.744 C 286.528 158.475,286.863 157.767,287.273 157.171 C 287.682 156.575,288.098 155.603,288.198 155.010 C 288.298 154.417,288.608 153.725,288.887 153.473 C 289.166 153.220,289.520 152.518,289.672 151.911 C 289.825 151.305,290.171 150.609,290.442 150.363 C 290.713 150.118,291.062 149.444,291.218 148.865 C 291.374 148.286,291.767 147.497,292.092 147.111 C 292.416 146.726,292.764 145.965,292.864 145.420 C 292.965 144.876,293.257 144.197,293.512 143.912 C 293.768 143.627,294.123 142.927,294.301 142.358 C 294.478 141.788,294.828 141.088,295.078 140.803 C 295.328 140.518,295.677 139.819,295.855 139.249 C 296.033 138.679,296.383 137.979,296.635 137.694 C 296.886 137.409,297.278 136.521,297.507 135.720 C 297.735 134.920,298.097 134.119,298.312 133.942 C 298.526 133.764,298.829 133.137,298.985 132.548 C 299.141 131.959,299.474 131.244,299.725 130.959 C 301.346 129.114,301.279 124.700,299.608 123.314 C 299.404 123.144,299.164 122.579,299.076 122.059 C 298.988 121.539,298.686 120.789,298.406 120.392 C 298.127 119.995,297.726 119.184,297.517 118.591 C 297.308 117.998,296.968 117.326,296.762 117.098 C 296.555 116.871,296.223 116.221,296.024 115.655 C 295.824 115.089,295.355 114.175,294.981 113.624 C 294.607 113.073,294.301 112.297,294.301 111.901 C 294.301 111.504,294.021 110.847,293.678 110.440 C 293.336 110.034,292.929 109.227,292.773 108.648 C 292.617 108.069,292.268 107.395,291.997 107.150 C 291.726 106.904,291.379 106.208,291.227 105.602 C 291.074 104.995,290.711 104.283,290.419 104.019 C 290.127 103.756,289.815 103.082,289.726 102.523 C 289.637 101.964,289.288 101.179,288.951 100.779 C 288.615 100.379,288.264 99.661,288.171 99.184 C 288.078 98.707,287.732 97.990,287.402 97.592 C 287.072 97.194,286.681 96.420,286.533 95.873 C 286.386 95.326,286.091 94.734,285.876 94.556 C 285.662 94.378,285.301 93.595,285.075 92.814 C 284.848 92.034,284.383 90.984,284.041 90.481 C 283.699 89.977,283.418 89.377,283.415 89.148 C 283.412 88.918,283.063 88.218,282.638 87.591 C 282.213 86.964,281.863 86.264,281.861 86.036 C 281.858 85.808,281.522 85.129,281.113 84.526 C 280.705 83.924,280.292 83.014,280.197 82.504 C 280.101 81.994,279.802 81.357,279.533 81.087 C 279.263 80.818,278.914 80.119,278.756 79.534 C 278.599 78.949,278.245 78.245,277.971 77.971 C 277.696 77.696,277.338 76.944,277.176 76.300 C 277.014 75.656,276.782 75.130,276.660 75.130 C 276.322 75.130,275.648 73.683,275.648 72.960 C 275.648 72.608,275.371 71.990,275.034 71.587 C 274.696 71.184,274.336 70.473,274.234 70.007 C 274.133 69.540,273.783 68.841,273.457 68.452 C 273.131 68.064,272.782 67.364,272.680 66.898 C 272.578 66.431,272.228 65.732,271.903 65.344 C 271.577 64.955,271.226 64.229,271.123 63.731 C 271.020 63.232,270.668 62.416,270.340 61.917 C 270.013 61.418,269.610 60.583,269.445 60.060 C 269.280 59.537,268.982 58.974,268.783 58.809 C 268.585 58.644,268.235 57.944,268.005 57.254 C 267.776 56.563,267.422 55.861,267.220 55.693 C 267.017 55.524,266.655 54.689,266.416 53.835 C 266.176 52.982,265.832 52.227,265.650 52.157 C 265.469 52.088,265.118 51.388,264.871 50.602 C 264.623 49.816,264.267 49.114,264.079 49.042 C 263.890 48.970,263.618 48.472,263.474 47.936 C 263.330 47.401,262.932 46.551,262.591 46.048 C 262.250 45.545,261.890 44.742,261.791 44.264 C 261.692 43.785,261.350 42.986,261.031 42.487 C 260.712 41.988,260.319 41.196,260.157 40.727 C 259.996 40.257,259.644 39.558,259.376 39.172 C 259.107 38.787,258.757 38.087,258.598 37.618 C 258.439 37.149,258.060 36.415,257.755 35.987 C 257.451 35.559,257.140 34.755,257.066 34.200 C 256.986 33.602,256.678 32.953,256.310 32.608 C 255.969 32.287,255.620 31.587,255.534 31.052 C 255.413 30.297,255.158 29.934,254.392 29.427 L 253.405 28.774 253.238 29.534 M144.578 53.547 C 144.718 53.913,145.054 54.525,145.326 54.907 C 145.598 55.289,145.902 55.944,146.001 56.363 C 146.101 56.782,146.452 57.487,146.782 57.931 C 147.112 58.375,147.461 59.074,147.559 59.485 C 147.657 59.897,148.006 60.596,148.336 61.040 C 148.666 61.483,149.015 62.183,149.112 62.594 C 149.209 63.005,149.608 63.925,150.000 64.637 C 150.392 65.350,150.788 66.256,150.881 66.652 C 150.974 67.047,151.277 67.599,151.556 67.877 C 151.835 68.156,152.195 68.911,152.357 69.555 C 152.520 70.199,152.752 70.725,152.874 70.725 C 153.180 70.725,153.778 71.971,153.979 73.029 C 154.072 73.512,154.311 74.037,154.513 74.195 C 154.714 74.353,155.057 75.021,155.275 75.680 C 155.493 76.340,155.969 77.318,156.333 77.854 C 156.697 78.390,156.995 79.023,156.995 79.260 C 156.995 79.497,157.329 80.151,157.737 80.713 C 158.146 81.276,158.559 82.173,158.656 82.707 C 158.753 83.242,158.921 83.679,159.031 83.679 C 159.260 83.679,160.101 85.354,160.108 85.825 C 160.111 85.998,160.461 86.653,160.886 87.280 C 161.310 87.907,161.658 88.620,161.658 88.864 C 161.658 89.108,161.896 89.611,162.186 89.980 C 162.477 90.349,162.933 91.286,163.200 92.062 C 163.467 92.837,163.856 93.746,164.066 94.081 C 164.275 94.415,164.518 95.001,164.606 95.382 C 164.695 95.762,165.058 96.420,165.414 96.844 C 165.771 97.267,166.062 97.783,166.062 97.990 C 166.062 98.507,166.768 99.877,167.233 100.264 C 167.444 100.438,167.617 100.786,167.617 101.036 C 167.617 101.614,168.308 103.284,168.629 103.483 C 168.763 103.565,169.073 104.244,169.318 104.990 C 169.563 105.736,169.913 106.435,170.095 106.543 C 170.277 106.651,170.626 107.350,170.872 108.097 C 171.117 108.845,171.467 109.544,171.649 109.652 C 171.831 109.759,172.179 110.459,172.422 111.206 C 172.666 111.953,173.025 112.749,173.221 112.975 C 173.417 113.201,173.751 113.969,173.962 114.681 C 174.174 115.394,174.570 116.179,174.842 116.425 C 175.115 116.672,175.416 117.303,175.513 117.828 C 175.609 118.353,175.958 119.074,176.288 119.430 C 176.618 119.786,176.974 120.485,177.079 120.982 C 177.185 121.479,177.537 122.237,177.862 122.666 C 178.188 123.095,178.533 123.875,178.631 124.400 C 178.728 124.925,179.029 125.555,179.300 125.800 C 179.964 126.401,179.953 127.974,179.280 128.750 C 178.998 129.075,178.694 129.731,178.605 130.207 C 178.516 130.683,178.180 131.338,177.859 131.663 C 177.539 131.988,177.200 132.670,177.107 133.179 C 177.013 133.688,176.658 134.482,176.318 134.943 C 175.978 135.404,175.628 136.162,175.541 136.628 C 175.454 137.093,175.168 137.704,174.905 137.986 C 174.643 138.268,174.227 139.103,173.981 139.843 C 173.736 140.583,173.386 141.277,173.204 141.385 C 173.022 141.492,172.666 142.222,172.413 143.005 C 172.161 143.789,171.812 144.605,171.639 144.819 C 171.466 145.032,171.121 145.732,170.873 146.373 C 170.626 147.014,170.274 147.714,170.091 147.927 C 169.909 148.141,169.552 148.874,169.298 149.555 C 169.043 150.237,168.734 150.857,168.610 150.933 C 168.316 151.115,167.618 152.795,167.612 153.335 C 167.609 153.567,167.260 154.269,166.835 154.896 C 166.410 155.524,166.060 156.223,166.057 156.451 C 166.055 156.679,165.705 157.378,165.280 158.005 C 164.855 158.632,164.506 159.332,164.503 159.560 C 164.500 159.788,164.151 160.487,163.726 161.114 C 163.301 161.741,162.953 162.505,162.953 162.812 C 162.953 163.120,162.662 163.766,162.306 164.249 C 161.949 164.732,161.658 165.320,161.658 165.555 C 161.658 165.791,161.310 166.497,160.886 167.124 C 160.461 167.751,160.111 168.448,160.108 168.673 C 160.106 168.898,159.768 169.598,159.358 170.228 C 158.948 170.858,158.537 171.796,158.445 172.313 C 158.354 172.830,157.990 173.565,157.637 173.946 C 157.284 174.326,156.995 174.873,156.995 175.160 C 156.995 175.795,156.606 176.555,155.939 177.222 C 155.665 177.496,155.440 177.961,155.440 178.255 C 155.440 178.891,155.057 179.658,154.424 180.291 C 154.171 180.544,153.890 181.217,153.799 181.787 C 153.708 182.357,153.416 183.103,153.150 183.445 C 152.884 183.788,152.526 184.497,152.355 185.023 C 152.183 185.548,151.833 186.248,151.577 186.577 C 151.321 186.907,150.971 187.606,150.800 188.131 C 150.629 188.657,150.278 189.356,150.020 189.686 C 149.763 190.015,149.363 190.940,149.131 191.741 C 148.899 192.541,148.540 193.338,148.332 193.510 C 148.124 193.683,147.815 194.252,147.646 194.775 C 147.476 195.298,147.116 196.041,146.846 196.426 C 146.575 196.812,146.225 197.511,146.066 197.981 C 145.908 198.450,145.446 199.294,145.039 199.857 C 144.633 200.419,144.301 201.003,144.301 201.155 C 144.301 201.306,144.067 201.576,143.781 201.754 C 143.258 202.081,142.232 200.976,142.229 200.083 C 142.228 199.915,142.068 199.618,141.873 199.423 C 141.391 198.941,140.674 197.523,140.674 197.052 C 140.674 196.841,140.514 196.509,140.319 196.314 C 139.851 195.847,139.119 194.419,139.119 193.975 C 139.119 193.782,138.829 193.231,138.475 192.750 C 138.120 192.270,137.753 191.460,137.660 190.951 C 137.566 190.442,137.230 189.714,136.912 189.332 C 136.594 188.950,136.259 188.238,136.167 187.748 C 136.075 187.259,135.769 186.649,135.486 186.393 C 135.203 186.137,134.844 185.454,134.688 184.875 C 134.532 184.296,134.125 183.490,133.783 183.083 C 133.441 182.676,133.161 182.050,133.161 181.691 C 133.161 181.017,132.418 179.534,132.080 179.534 C 131.975 179.534,131.812 179.125,131.718 178.626 C 131.625 178.127,131.212 177.295,130.800 176.777 C 130.389 176.259,130.052 175.569,130.052 175.243 C 130.052 174.918,129.765 174.310,129.414 173.894 C 129.064 173.477,128.666 172.644,128.531 172.044 C 128.396 171.443,127.984 170.516,127.615 169.983 C 127.245 169.450,126.943 168.833,126.943 168.613 C 126.943 168.393,126.595 167.700,126.171 167.073 C 125.746 166.446,125.396 165.768,125.393 165.567 C 125.391 165.366,125.089 164.691,124.724 164.067 C 124.358 163.443,123.887 162.354,123.678 161.648 C 123.468 160.941,123.190 160.363,123.061 160.363 C 122.932 160.363,122.571 159.663,122.259 158.808 C 121.947 157.953,121.600 157.254,121.486 157.254 C 121.373 157.254,121.039 156.608,120.743 155.818 C 120.448 155.028,119.984 154.066,119.713 153.680 C 119.441 153.295,119.148 152.558,119.061 152.043 C 118.973 151.529,118.667 150.895,118.380 150.636 C 118.094 150.376,117.734 149.668,117.582 149.062 C 117.429 148.455,117.082 147.759,116.812 147.514 C 116.541 147.269,116.191 146.594,116.036 146.015 C 115.880 145.436,115.472 144.630,115.130 144.223 C 114.788 143.816,114.508 143.164,114.508 142.772 C 114.508 142.381,114.161 141.603,113.738 141.044 C 113.314 140.484,112.962 139.793,112.956 139.508 C 112.949 139.223,112.596 138.477,112.171 137.850 C 111.747 137.223,111.399 136.517,111.399 136.281 C 111.399 136.045,111.120 135.474,110.779 135.011 C 110.438 134.549,110.033 133.672,109.879 133.062 C 109.726 132.453,109.386 131.672,109.123 131.327 C 108.861 130.982,108.440 130.147,108.189 129.472 C 107.937 128.796,107.624 128.177,107.493 128.096 C 107.126 127.870,107.209 126.525,107.610 126.193 C 107.806 126.030,108.114 125.369,108.295 124.724 C 108.476 124.079,108.823 123.294,109.067 122.980 C 109.311 122.666,109.658 121.943,109.839 121.373 C 110.020 120.803,110.372 120.104,110.622 119.819 C 110.872 119.534,111.221 118.834,111.399 118.264 C 111.577 117.694,111.939 116.989,112.204 116.697 C 112.469 116.406,112.763 115.764,112.856 115.273 C 113.049 114.259,113.414 113.463,113.860 113.083 C 114.027 112.940,114.306 112.322,114.480 111.708 C 114.654 111.094,114.997 110.392,115.241 110.147 C 115.486 109.903,115.836 109.203,116.018 108.593 C 116.201 107.983,116.556 107.278,116.807 107.027 C 117.059 106.776,117.418 106.019,117.607 105.345 C 117.796 104.672,118.151 103.864,118.397 103.550 C 118.643 103.236,118.928 102.598,119.030 102.131 C 119.132 101.665,119.481 100.965,119.807 100.577 C 120.133 100.188,120.483 99.489,120.584 99.022 C 120.686 98.556,121.046 97.845,121.385 97.443 C 121.723 97.040,122.113 96.208,122.251 95.594 C 122.389 94.980,122.727 94.173,123.002 93.801 C 123.277 93.429,123.590 92.835,123.697 92.482 C 123.804 92.129,124.216 91.256,124.611 90.544 C 125.007 89.832,125.418 88.957,125.525 88.601 C 125.632 88.245,125.936 87.676,126.201 87.337 C 126.465 86.997,126.804 86.266,126.954 85.712 C 127.103 85.158,127.511 84.282,127.861 83.767 C 128.211 83.251,128.500 82.642,128.502 82.412 C 128.505 82.183,128.854 81.482,129.279 80.855 C 129.704 80.228,130.052 79.522,130.052 79.286 C 130.052 79.050,130.346 78.459,130.705 77.972 C 131.064 77.485,131.484 76.621,131.637 76.052 C 131.790 75.484,132.137 74.737,132.408 74.392 C 132.678 74.048,133.016 73.334,133.159 72.805 C 133.301 72.276,133.652 71.573,133.938 71.244 C 134.224 70.914,134.574 70.214,134.715 69.689 C 134.856 69.164,135.206 68.465,135.492 68.135 C 135.778 67.805,136.139 67.058,136.295 66.475 C 136.450 65.892,136.741 65.230,136.942 65.004 C 137.143 64.779,137.483 64.006,137.696 63.287 C 137.910 62.567,138.253 61.840,138.458 61.669 C 138.664 61.499,139.019 60.794,139.249 60.104 C 139.478 59.413,139.828 58.714,140.026 58.549 C 140.224 58.385,140.585 57.647,140.827 56.910 C 141.070 56.173,141.484 55.292,141.748 54.952 C 142.012 54.612,142.228 54.191,142.228 54.016 C 142.228 52.496,144.041 52.135,144.578 53.547 M254.781 53.392 C 255.365 53.905,255.824 54.631,256.054 55.408 C 256.253 56.075,256.720 57.072,257.093 57.622 C 257.467 58.172,257.772 58.816,257.772 59.053 C 257.772 59.291,258.069 59.886,258.431 60.377 C 258.794 60.868,259.216 61.765,259.369 62.370 C 259.522 62.976,259.728 63.472,259.827 63.472 C 260.086 63.472,260.881 65.213,260.881 65.780 C 260.881 66.043,261.063 66.409,261.287 66.594 C 261.824 67.040,262.435 68.246,262.435 68.859 C 262.435 69.129,262.672 69.564,262.962 69.826 C 263.251 70.088,263.613 70.800,263.766 71.408 C 263.919 72.015,264.324 72.891,264.665 73.353 C 265.006 73.816,265.285 74.445,265.285 74.752 C 265.285 75.059,265.633 75.824,266.057 76.451 C 266.482 77.078,266.832 77.777,266.835 78.005 C 266.837 78.233,267.187 78.932,267.612 79.559 C 268.037 80.186,268.386 80.887,268.389 81.117 C 268.392 81.346,268.699 81.984,269.072 82.534 C 269.446 83.084,269.924 84.120,270.136 84.837 C 270.347 85.554,270.674 86.228,270.862 86.336 C 271.049 86.443,271.404 87.143,271.649 87.890 C 271.895 88.637,272.244 89.337,272.426 89.445 C 272.608 89.552,272.958 90.252,273.204 90.999 C 273.450 91.746,273.854 92.619,274.102 92.938 C 274.350 93.258,274.634 93.952,274.733 94.481 C 274.833 95.010,275.186 95.766,275.518 96.161 C 275.850 96.556,276.202 97.260,276.301 97.727 C 276.399 98.193,276.746 98.867,277.073 99.223 C 277.399 99.579,277.748 100.278,277.850 100.777 C 277.951 101.276,278.299 101.975,278.623 102.332 C 278.947 102.688,279.294 103.440,279.394 104.004 C 279.495 104.568,279.849 105.352,280.181 105.746 C 280.513 106.141,280.868 106.846,280.970 107.312 C 281.072 107.779,281.422 108.478,281.747 108.867 C 282.073 109.255,282.423 109.955,282.525 110.421 C 282.626 110.888,282.969 111.579,283.287 111.958 C 283.604 112.336,283.939 113.114,284.030 113.686 C 284.122 114.259,284.473 115.056,284.811 115.459 C 285.149 115.862,285.508 116.573,285.610 117.040 C 285.712 117.506,286.062 118.206,286.387 118.594 C 286.713 118.983,287.061 119.674,287.161 120.130 C 287.260 120.587,287.556 121.233,287.819 121.567 C 288.082 121.901,288.490 122.840,288.726 123.652 C 288.963 124.465,289.246 125.130,289.355 125.130 C 290.174 125.130,290.400 128.117,289.653 129.067 C 289.376 129.419,288.948 130.221,288.701 130.851 C 288.454 131.480,288.052 132.256,287.808 132.575 C 287.564 132.895,287.283 133.594,287.184 134.130 C 287.084 134.665,286.732 135.461,286.400 135.899 C 286.068 136.336,285.670 137.163,285.516 137.736 C 285.362 138.309,285.004 138.987,284.721 139.243 C 284.438 139.499,284.132 140.109,284.040 140.598 C 283.948 141.087,283.590 141.825,283.243 142.237 C 282.897 142.648,282.546 143.427,282.465 143.967 C 282.383 144.507,282.052 145.240,281.729 145.596 C 281.407 145.952,281.062 146.625,280.964 147.092 C 280.866 147.558,280.519 148.258,280.193 148.646 C 279.867 149.035,279.521 149.717,279.424 150.162 C 279.327 150.608,278.970 151.348,278.632 151.807 C 278.293 152.266,277.941 153.089,277.848 153.637 C 277.755 154.185,277.414 154.902,277.089 155.231 C 276.765 155.560,276.421 156.253,276.326 156.771 C 276.231 157.290,275.881 157.989,275.549 158.326 C 275.217 158.662,274.864 159.375,274.766 159.908 C 274.668 160.442,274.317 161.172,273.985 161.530 C 273.653 161.888,273.310 162.629,273.222 163.176 C 273.135 163.723,272.849 164.451,272.587 164.793 C 272.325 165.135,271.906 165.939,271.655 166.580 C 271.405 167.222,271.053 167.921,270.873 168.135 C 270.694 168.348,270.344 169.048,270.096 169.689 C 269.848 170.330,269.491 171.030,269.302 171.244 C 269.113 171.457,268.765 172.302,268.528 173.122 C 268.292 173.941,268.011 174.611,267.905 174.611 C 267.664 174.611,266.839 176.314,266.839 176.812 C 266.839 177.016,266.619 177.390,266.350 177.645 C 266.080 177.900,265.667 178.683,265.431 179.385 C 265.195 180.086,264.841 180.786,264.645 180.939 C 264.449 181.092,264.110 181.834,263.891 182.588 C 263.672 183.341,263.255 184.260,262.964 184.630 C 262.673 185.000,262.435 185.503,262.435 185.747 C 262.435 185.992,262.088 186.704,261.663 187.331 C 261.238 187.958,260.888 188.656,260.886 188.880 C 260.883 189.105,260.545 189.805,260.135 190.435 C 259.725 191.065,259.314 192.003,259.223 192.520 C 259.131 193.037,258.767 193.772,258.414 194.153 C 258.061 194.534,257.772 195.115,257.772 195.444 C 257.772 195.773,257.422 196.483,256.995 197.021 C 256.567 197.559,256.218 198.283,256.218 198.630 C 256.218 199.032,255.756 199.746,254.944 200.597 C 253.486 202.125,252.826 201.981,252.465 200.059 C 252.368 199.541,252.016 198.793,251.684 198.399 C 251.352 198.004,250.999 197.299,250.901 196.833 C 250.802 196.366,250.512 195.751,250.257 195.466 C 250.002 195.181,249.598 194.365,249.360 193.653 C 249.121 192.940,248.775 192.183,248.590 191.969 C 248.405 191.755,248.057 190.977,247.817 190.240 C 247.577 189.503,247.219 188.765,247.021 188.601 C 246.823 188.437,246.473 187.737,246.244 187.047 C 246.014 186.356,245.667 185.658,245.471 185.496 C 245.275 185.334,244.933 184.664,244.709 184.008 C 244.485 183.352,244.139 182.630,243.938 182.405 C 243.738 182.179,243.393 181.380,243.172 180.628 C 242.951 179.877,242.600 179.092,242.393 178.884 C 242.185 178.677,241.805 177.951,241.549 177.272 C 241.292 176.592,240.942 175.893,240.771 175.717 C 240.601 175.542,240.251 174.842,239.994 174.163 C 239.737 173.483,239.395 172.791,239.233 172.625 C 239.072 172.458,238.785 171.759,238.597 171.070 C 238.408 170.382,237.997 169.506,237.683 169.125 C 237.368 168.743,237.036 168.030,236.944 167.541 C 236.853 167.052,236.551 166.446,236.273 166.195 C 235.996 165.945,235.591 165.125,235.373 164.374 C 235.154 163.624,234.803 162.943,234.591 162.862 C 234.379 162.781,234.130 162.240,234.038 161.660 C 233.945 161.081,233.535 160.186,233.126 159.672 C 232.718 159.158,232.383 158.478,232.383 158.161 C 232.383 157.844,232.034 157.144,231.606 156.606 C 231.179 156.068,230.829 155.370,230.829 155.055 C 230.829 154.740,230.481 153.969,230.057 153.342 C 229.632 152.715,229.282 151.957,229.279 151.658 C 229.277 151.359,228.927 150.601,228.502 149.974 C 228.077 149.347,227.728 148.648,227.725 148.420 C 227.722 148.192,227.373 147.492,226.948 146.865 C 226.523 146.238,226.173 145.538,226.171 145.308 C 226.168 145.079,225.879 144.469,225.530 143.953 C 225.180 143.438,224.760 142.522,224.598 141.919 C 224.435 141.315,224.087 140.548,223.824 140.213 C 223.561 139.879,223.208 139.188,223.040 138.679 C 222.872 138.170,222.457 137.345,222.119 136.846 C 221.780 136.347,221.502 135.809,221.502 135.650 C 221.502 135.492,221.168 134.722,220.761 133.938 C 220.353 133.154,219.938 132.171,219.838 131.753 C 219.737 131.335,219.379 130.664,219.040 130.262 C 217.877 128.880,217.873 125.731,219.034 124.210 C 219.372 123.766,219.731 122.967,219.831 122.434 C 219.931 121.901,220.275 121.153,220.595 120.772 C 220.915 120.390,221.260 119.696,221.361 119.230 C 221.463 118.763,221.813 118.064,222.139 117.675 C 222.464 117.287,222.813 116.594,222.913 116.136 C 223.013 115.677,223.372 114.893,223.712 114.392 C 224.052 113.892,224.462 112.988,224.625 112.385 C 224.787 111.781,225.136 111.014,225.399 110.679 C 225.662 110.345,226.017 109.641,226.189 109.116 C 226.360 108.591,226.710 107.891,226.966 107.562 C 227.222 107.232,227.570 106.533,227.738 106.007 C 227.907 105.482,228.194 104.877,228.377 104.663 C 228.560 104.449,228.915 103.643,229.166 102.870 C 229.417 102.098,229.829 101.259,230.082 101.006 C 230.336 100.753,230.671 100.067,230.829 99.482 C 230.987 98.897,231.339 98.194,231.613 97.920 C 231.887 97.647,232.186 97.099,232.278 96.703 C 232.370 96.308,232.707 95.518,233.027 94.948 C 233.347 94.378,233.757 93.446,233.937 92.876 C 234.118 92.306,234.465 91.648,234.708 91.415 C 234.951 91.181,235.303 90.442,235.491 89.772 C 235.678 89.102,235.983 88.496,236.167 88.425 C 236.351 88.355,236.698 87.695,236.937 86.959 C 237.176 86.224,237.533 85.437,237.729 85.211 C 237.925 84.986,238.262 84.204,238.479 83.475 C 238.696 82.745,239.051 81.970,239.269 81.752 C 239.487 81.534,239.843 80.836,240.059 80.202 C 240.275 79.567,240.612 78.915,240.808 78.753 C 241.003 78.590,241.360 77.854,241.599 77.117 C 241.839 76.380,242.196 75.593,242.392 75.367 C 242.588 75.142,242.941 74.384,243.176 73.683 C 243.412 72.983,243.813 72.140,244.067 71.810 C 244.322 71.481,244.668 70.795,244.836 70.285 C 245.004 69.776,245.410 68.964,245.738 68.479 C 246.067 67.995,246.410 67.262,246.501 66.849 C 246.591 66.436,246.834 65.958,247.040 65.787 C 247.246 65.616,247.597 64.850,247.819 64.085 C 248.041 63.321,248.387 62.530,248.588 62.330 C 248.789 62.129,249.197 61.313,249.495 60.516 C 249.793 59.719,250.146 59.067,250.279 59.067 C 250.411 59.067,250.660 58.545,250.831 57.906 C 251.001 57.268,251.397 56.448,251.709 56.084 C 252.022 55.721,252.358 54.990,252.456 54.460 C 252.810 52.554,253.477 52.248,254.781 53.392 " stroke="none" fill="#1aa758" fill-rule="evenodd"></path><path id="path1" d="M0.000 129.534 L 0.000 259.067 200.000 259.067 L 400.000 259.067 400.000 129.534 L 400.000 0.000 200.000 0.000 L 0.000 0.000 0.000 129.534 M144.140 29.534 C 144.391 30.104,144.696 30.570,144.817 30.570 C 144.938 30.570,145.176 31.007,145.345 31.541 C 145.515 32.076,145.918 32.979,146.241 33.549 C 146.564 34.119,146.911 34.967,147.011 35.434 C 147.112 35.900,147.461 36.600,147.786 36.988 C 148.112 37.376,148.462 38.076,148.564 38.542 C 148.665 39.009,149.008 39.708,149.325 40.097 C 149.642 40.485,150.039 41.280,150.208 41.862 C 150.376 42.444,150.739 43.180,151.014 43.498 C 151.289 43.815,151.590 44.521,151.682 45.066 C 151.774 45.611,152.125 46.316,152.461 46.632 C 152.798 46.948,153.147 47.648,153.238 48.187 C 153.329 48.725,153.679 49.425,154.016 49.741 C 154.352 50.057,154.700 50.747,154.789 51.275 C 154.878 51.802,155.224 52.551,155.557 52.939 C 155.891 53.327,156.244 54.077,156.342 54.607 C 156.440 55.137,156.783 55.920,157.105 56.347 C 157.427 56.775,157.776 57.474,157.881 57.902 C 157.986 58.329,158.345 59.038,158.679 59.477 C 159.013 59.917,159.363 60.685,159.457 61.185 C 159.551 61.685,159.901 62.411,160.234 62.800 C 160.568 63.188,160.917 63.958,161.011 64.510 C 161.104 65.062,161.354 65.658,161.566 65.834 C 162.088 66.268,162.694 67.479,162.694 68.090 C 162.694 68.365,162.867 68.733,163.078 68.907 C 163.542 69.293,164.249 70.663,164.249 71.179 C 164.249 71.384,164.465 71.862,164.730 72.240 C 164.995 72.618,165.410 73.531,165.651 74.268 C 165.893 75.005,166.253 75.742,166.451 75.907 C 166.649 76.071,166.999 76.771,167.228 77.461 C 167.457 78.152,167.805 78.849,168.000 79.012 C 168.196 79.174,168.539 79.844,168.763 80.500 C 168.986 81.156,169.329 81.877,169.525 82.103 C 169.721 82.328,170.078 83.116,170.318 83.853 C 170.558 84.590,170.916 85.328,171.114 85.492 C 171.312 85.657,171.662 86.356,171.891 87.047 C 172.121 87.737,172.470 88.437,172.668 88.601 C 172.867 88.765,173.227 89.503,173.469 90.240 C 173.711 90.977,174.054 91.666,174.231 91.771 C 174.408 91.876,174.634 92.396,174.734 92.928 C 174.943 94.044,175.560 95.337,175.883 95.337 C 176.005 95.337,176.237 95.864,176.399 96.508 C 176.561 97.152,176.919 97.903,177.193 98.178 C 177.468 98.453,177.816 99.135,177.966 99.693 C 178.117 100.252,178.462 100.991,178.732 101.335 C 179.003 101.680,179.350 102.427,179.503 102.995 C 179.656 103.564,180.075 104.428,180.435 104.915 C 180.794 105.402,181.088 105.993,181.088 106.229 C 181.088 106.465,181.436 107.171,181.861 107.798 C 182.285 108.425,182.635 109.080,182.638 109.253 C 182.645 109.724,183.486 111.399,183.715 111.399 C 183.825 111.399,183.993 111.836,184.090 112.370 C 184.302 113.545,184.626 114.226,185.268 114.842 C 185.534 115.097,185.751 115.541,185.751 115.830 C 185.751 116.480,186.186 117.339,186.823 117.951 C 187.088 118.205,187.306 118.658,187.306 118.955 C 187.306 119.253,187.643 120.094,188.055 120.823 C 188.468 121.553,188.883 122.517,188.977 122.965 C 189.071 123.414,189.376 123.986,189.653 124.237 C 190.879 125.346,190.938 128.987,189.749 130.106 C 189.402 130.432,189.046 131.135,188.957 131.668 C 188.868 132.201,188.517 132.915,188.178 133.254 C 187.839 133.593,187.465 134.381,187.346 135.005 C 187.227 135.629,186.820 136.593,186.441 137.148 C 186.061 137.702,185.749 138.343,185.747 138.572 C 185.744 138.802,185.394 139.503,184.969 140.130 C 184.545 140.757,184.195 141.456,184.192 141.684 C 184.190 141.912,183.840 142.611,183.415 143.238 C 182.990 143.865,182.640 144.623,182.638 144.922 C 182.635 145.222,182.285 145.979,181.861 146.606 C 181.436 147.233,181.086 147.933,181.083 148.161 C 181.081 148.389,180.731 149.088,180.306 149.715 C 179.881 150.342,179.534 151.035,179.534 151.256 C 179.534 151.476,179.231 152.092,178.862 152.625 C 178.493 153.158,178.081 154.084,177.946 154.683 C 177.812 155.281,177.479 156.054,177.207 156.399 C 176.936 156.745,176.573 157.457,176.402 157.983 C 176.231 158.508,175.881 159.207,175.625 159.537 C 175.369 159.866,175.021 160.566,174.853 161.091 C 174.685 161.617,174.343 162.280,174.093 162.565 C 173.844 162.850,173.499 163.686,173.327 164.423 C 173.155 165.161,172.861 165.823,172.674 165.895 C 172.487 165.966,172.130 166.646,171.881 167.404 C 171.632 168.162,171.279 168.870,171.097 168.978 C 170.915 169.086,170.565 169.785,170.320 170.533 C 170.074 171.280,169.723 171.980,169.540 172.089 C 169.356 172.197,169.016 172.938,168.785 173.735 C 168.553 174.532,168.148 175.415,167.885 175.697 C 167.622 175.980,167.332 176.609,167.241 177.096 C 167.149 177.583,166.848 178.193,166.570 178.451 C 166.293 178.710,165.906 179.451,165.712 180.098 C 165.517 180.745,165.108 181.524,164.803 181.829 C 164.498 182.134,164.249 182.713,164.249 183.116 C 164.249 183.519,163.912 184.364,163.499 184.994 C 163.087 185.624,162.673 186.507,162.578 186.955 C 162.483 187.403,162.179 187.976,161.901 188.227 C 161.624 188.478,161.271 189.152,161.116 189.725 C 160.962 190.299,160.564 191.125,160.232 191.562 C 159.901 192.000,159.546 192.803,159.445 193.348 C 159.344 193.892,159.000 194.650,158.680 195.031 C 158.360 195.413,158.015 196.107,157.913 196.574 C 157.811 197.040,157.464 197.740,157.142 198.128 C 156.819 198.516,156.472 199.184,156.370 199.611 C 156.268 200.039,155.912 200.797,155.578 201.295 C 155.244 201.794,154.886 202.609,154.783 203.106 C 154.679 203.603,154.328 204.361,154.001 204.790 C 153.675 205.219,153.322 205.920,153.217 206.347 C 153.113 206.775,152.763 207.474,152.440 207.902 C 152.118 208.329,151.771 209.028,151.670 209.456 C 151.569 209.883,151.262 210.481,150.987 210.784 C 150.713 211.087,150.326 211.951,150.127 212.704 C 149.928 213.457,149.660 214.142,149.530 214.226 C 149.197 214.442,148.446 215.962,148.446 216.419 C 148.446 216.630,148.286 216.962,148.091 217.157 C 147.626 217.622,147.008 218.859,146.793 219.754 C 146.699 220.146,146.511 220.466,146.375 220.466 C 146.240 220.466,145.944 221.099,145.720 221.873 C 145.495 222.646,145.100 223.550,144.842 223.881 C 144.585 224.211,144.177 224.865,143.938 225.332 C 143.430 226.321,143.139 226.250,142.905 225.083 C 142.813 224.623,142.497 223.991,142.202 223.677 C 141.907 223.363,141.555 222.611,141.419 222.006 C 141.283 221.401,140.884 220.565,140.534 220.148 C 140.183 219.731,139.896 219.124,139.896 218.798 C 139.896 218.472,139.547 217.766,139.119 217.228 C 138.692 216.690,138.342 215.984,138.342 215.658 C 138.342 215.332,138.070 214.736,137.738 214.333 C 137.406 213.931,136.981 213.042,136.794 212.358 C 136.607 211.675,136.255 210.859,136.011 210.545 C 135.767 210.231,135.420 209.508,135.239 208.938 C 135.058 208.368,134.706 207.668,134.456 207.383 C 134.206 207.098,133.856 206.399,133.679 205.829 C 133.501 205.259,133.156 204.560,132.911 204.275 C 132.666 203.990,132.261 203.086,132.012 202.267 C 131.762 201.448,131.459 200.777,131.337 200.777 C 131.215 200.777,130.861 200.078,130.549 199.223 C 130.237 198.368,129.890 197.668,129.777 197.668 C 129.663 197.668,129.327 197.017,129.029 196.220 C 128.731 195.423,128.314 194.598,128.102 194.387 C 127.891 194.175,127.589 193.492,127.432 192.869 C 127.276 192.246,126.868 191.358,126.527 190.895 C 126.186 190.433,125.907 189.862,125.907 189.626 C 125.907 189.390,125.559 188.684,125.134 188.057 C 124.709 187.430,124.356 186.684,124.350 186.399 C 124.343 186.114,123.991 185.423,123.568 184.863 C 123.144 184.303,122.798 183.525,122.798 183.134 C 122.798 182.743,122.518 182.090,122.176 181.684 C 121.834 181.277,121.426 180.471,121.270 179.892 C 121.114 179.313,120.755 178.629,120.472 178.373 C 120.190 178.118,119.883 177.508,119.791 177.018 C 119.700 176.529,119.363 175.817,119.043 175.435 C 118.723 175.053,118.377 174.333,118.274 173.834 C 118.171 173.335,117.825 172.519,117.504 172.021 C 117.183 171.522,116.779 170.684,116.606 170.159 C 116.433 169.633,116.087 168.934,115.837 168.604 C 115.587 168.275,115.179 167.461,114.931 166.795 C 114.683 166.129,114.315 165.447,114.112 165.279 C 113.910 165.111,113.666 164.554,113.569 164.041 C 113.473 163.528,113.062 162.585,112.656 161.944 C 112.249 161.304,111.915 160.598,111.912 160.377 C 111.910 160.155,111.560 159.461,111.135 158.834 C 110.710 158.207,110.363 157.514,110.363 157.294 C 110.363 157.073,110.061 156.457,109.691 155.924 C 109.322 155.391,108.909 154.464,108.774 153.863 C 108.639 153.262,108.242 152.430,107.891 152.013 C 107.541 151.597,107.254 150.989,107.254 150.663 C 107.254 150.338,106.904 149.631,106.477 149.093 C 106.049 148.555,105.697 147.869,105.695 147.568 C 105.692 147.267,105.342 146.508,104.918 145.881 C 104.493 145.254,104.145 144.476,104.145 144.152 C 104.145 143.828,103.865 143.230,103.523 142.824 C 103.181 142.417,102.773 141.611,102.617 141.031 C 102.461 140.452,102.112 139.778,101.841 139.533 C 101.570 139.288,101.224 138.591,101.071 137.985 C 100.919 137.379,100.557 136.668,100.267 136.406 C 99.978 136.144,99.741 135.651,99.741 135.310 C 99.741 134.721,99.087 133.179,98.720 132.902 C 98.626 132.830,98.345 132.230,98.097 131.568 C 97.849 130.906,97.423 130.107,97.151 129.794 C 96.107 128.589,96.177 126.105,97.300 124.584 C 97.652 124.107,98.012 123.269,98.099 122.722 C 98.187 122.174,98.402 121.583,98.577 121.408 C 99.015 120.970,99.741 119.533,99.741 119.105 C 99.741 118.912,100.032 118.358,100.389 117.876 C 100.745 117.393,101.036 116.805,101.036 116.569 C 101.036 116.333,101.384 115.627,101.809 115.000 C 102.234 114.373,102.583 113.615,102.586 113.316 C 102.589 113.017,102.938 112.259,103.363 111.632 C 103.788 111.005,104.138 110.306,104.140 110.078 C 104.143 109.850,104.493 109.150,104.918 108.523 C 105.342 107.896,105.692 107.197,105.695 106.969 C 105.697 106.741,106.047 106.042,106.472 105.415 C 106.897 104.788,107.247 103.994,107.249 103.651 C 107.252 103.309,107.539 102.654,107.888 102.197 C 108.236 101.740,108.601 101.030,108.699 100.618 C 108.797 100.207,109.130 99.521,109.440 99.093 C 109.750 98.666,110.207 97.771,110.456 97.106 C 110.705 96.440,111.069 95.762,111.266 95.598 C 111.463 95.435,111.703 94.930,111.798 94.477 C 111.894 94.024,112.297 93.070,112.694 92.358 C 113.092 91.645,113.494 90.695,113.588 90.247 C 113.683 89.799,113.987 89.226,114.264 88.975 C 114.542 88.724,114.897 88.045,115.053 87.466 C 115.208 86.887,115.601 86.098,115.926 85.712 C 116.250 85.327,116.594 84.591,116.691 84.078 C 116.787 83.565,117.143 82.736,117.482 82.237 C 117.820 81.738,118.176 80.972,118.272 80.535 C 118.368 80.098,118.661 79.525,118.923 79.263 C 119.186 79.001,119.550 78.287,119.733 77.677 C 119.916 77.066,120.265 76.367,120.510 76.122 C 120.755 75.877,121.100 75.175,121.278 74.561 C 121.455 73.948,121.815 73.163,122.077 72.818 C 122.339 72.473,122.679 71.694,122.832 71.086 C 122.985 70.478,123.332 69.780,123.603 69.534 C 123.874 69.289,124.222 68.612,124.377 68.029 C 124.531 67.446,124.866 66.736,125.121 66.451 C 125.375 66.166,125.729 65.466,125.906 64.896 C 126.084 64.326,126.430 63.510,126.675 63.083 C 126.921 62.655,127.276 61.898,127.464 61.399 C 127.652 60.900,127.951 60.317,128.130 60.104 C 128.308 59.890,128.657 59.190,128.904 58.549 C 129.152 57.908,129.512 57.199,129.704 56.973 C 129.897 56.748,130.244 55.990,130.477 55.289 C 130.710 54.589,131.062 53.828,131.259 53.600 C 131.457 53.371,131.829 52.586,132.086 51.856 C 132.343 51.125,132.734 50.321,132.955 50.069 C 133.176 49.817,133.512 49.145,133.703 48.575 C 133.895 48.005,134.240 47.348,134.471 47.114 C 134.702 46.881,135.043 46.123,135.230 45.430 C 135.417 44.738,135.771 43.938,136.017 43.653 C 136.262 43.368,136.659 42.533,136.898 41.797 C 137.137 41.062,137.499 40.396,137.703 40.317 C 137.907 40.239,138.149 39.706,138.240 39.132 C 138.332 38.558,138.679 37.817,139.010 37.485 C 139.342 37.153,139.721 36.401,139.853 35.814 C 139.985 35.227,140.332 34.442,140.625 34.071 C 140.917 33.699,141.236 33.022,141.334 32.566 C 141.432 32.109,141.848 31.276,142.259 30.713 C 142.669 30.151,143.005 29.422,143.005 29.094 C 143.005 28.152,143.639 28.398,144.140 29.534 M255.534 31.052 C 255.620 31.587,255.969 32.287,256.310 32.608 C 256.678 32.953,256.986 33.602,257.066 34.200 C 257.140 34.755,257.451 35.559,257.755 35.987 C 258.060 36.415,258.439 37.149,258.598 37.618 C 258.757 38.087,259.107 38.787,259.376 39.172 C 259.644 39.558,259.996 40.257,260.157 40.727 C 260.319 41.196,260.712 41.988,261.031 42.487 C 261.350 42.986,261.692 43.785,261.791 44.264 C 261.890 44.742,262.250 45.545,262.591 46.048 C 262.932 46.551,263.330 47.401,263.474 47.936 C 263.618 48.472,263.890 48.970,264.079 49.042 C 264.267 49.114,264.623 49.816,264.871 50.602 C 265.118 51.388,265.469 52.088,265.650 52.157 C 265.832 52.227,266.176 52.982,266.416 53.835 C 266.655 54.689,267.017 55.524,267.220 55.693 C 267.422 55.861,267.776 56.563,268.005 57.254 C 268.235 57.944,268.585 58.644,268.783 58.809 C 268.982 58.974,269.280 59.537,269.445 60.060 C 269.610 60.583,270.013 61.418,270.340 61.917 C 270.668 62.416,271.020 63.232,271.123 63.731 C 271.226 64.229,271.577 64.955,271.903 65.344 C 272.228 65.732,272.578 66.431,272.680 66.898 C 272.782 67.364,273.131 68.064,273.457 68.452 C 273.783 68.841,274.133 69.540,274.234 70.007 C 274.336 70.473,274.696 71.184,275.034 71.587 C 275.371 71.990,275.648 72.608,275.648 72.960 C 275.648 73.683,276.322 75.130,276.660 75.130 C 276.782 75.130,277.014 75.656,277.176 76.300 C 277.338 76.944,277.696 77.696,277.971 77.971 C 278.245 78.245,278.599 78.949,278.756 79.534 C 278.914 80.119,279.263 80.818,279.533 81.087 C 279.802 81.357,280.101 81.994,280.197 82.504 C 280.292 83.014,280.705 83.924,281.113 84.526 C 281.522 85.129,281.858 85.808,281.861 86.036 C 281.863 86.264,282.213 86.964,282.638 87.591 C 283.063 88.218,283.412 88.918,283.415 89.148 C 283.418 89.377,283.699 89.977,284.041 90.481 C 284.383 90.984,284.848 92.034,285.075 92.814 C 285.301 93.595,285.662 94.378,285.876 94.556 C 286.091 94.734,286.386 95.326,286.533 95.873 C 286.681 96.420,287.072 97.194,287.402 97.592 C 287.732 97.990,288.078 98.707,288.171 99.184 C 288.264 99.661,288.615 100.379,288.951 100.779 C 289.288 101.179,289.637 101.964,289.726 102.523 C 289.815 103.082,290.127 103.756,290.419 104.019 C 290.711 104.283,291.074 104.995,291.227 105.602 C 291.379 106.208,291.726 106.904,291.997 107.150 C 292.268 107.395,292.617 108.069,292.773 108.648 C 292.929 109.227,293.336 110.034,293.678 110.440 C 294.021 110.847,294.301 111.504,294.301 111.901 C 294.301 112.297,294.607 113.073,294.981 113.624 C 295.355 114.175,295.824 115.089,296.024 115.655 C 296.223 116.221,296.555 116.871,296.762 117.098 C 296.968 117.326,297.308 117.998,297.517 118.591 C 297.726 119.184,298.127 119.995,298.406 120.392 C 298.686 120.789,298.988 121.539,299.076 122.059 C 299.164 122.579,299.404 123.144,299.608 123.314 C 301.279 124.700,301.346 129.114,299.725 130.959 C 299.474 131.244,299.141 131.959,298.985 132.548 C 298.829 133.137,298.526 133.764,298.312 133.942 C 298.097 134.119,297.735 134.920,297.507 135.720 C 297.278 136.521,296.886 137.409,296.635 137.694 C 296.383 137.979,296.033 138.679,295.855 139.249 C 295.677 139.819,295.328 140.518,295.078 140.803 C 294.828 141.088,294.478 141.788,294.301 142.358 C 294.123 142.927,293.768 143.627,293.512 143.912 C 293.257 144.197,292.965 144.876,292.864 145.420 C 292.764 145.965,292.416 146.726,292.092 147.111 C 291.767 147.497,291.374 148.286,291.218 148.865 C 291.062 149.444,290.713 150.118,290.442 150.363 C 290.171 150.609,289.825 151.305,289.672 151.911 C 289.520 152.518,289.166 153.220,288.887 153.473 C 288.608 153.725,288.298 154.417,288.198 155.010 C 288.098 155.603,287.682 156.575,287.273 157.171 C 286.863 157.767,286.528 158.475,286.528 158.744 C 286.528 159.014,286.182 159.692,285.759 160.252 C 285.335 160.811,284.985 161.514,284.981 161.812 C 284.977 162.110,284.683 162.693,284.326 163.107 C 283.970 163.521,283.606 164.268,283.518 164.767 C 283.429 165.266,283.021 166.189,282.611 166.819 C 282.201 167.449,281.863 168.149,281.861 168.373 C 281.858 168.598,281.508 169.295,281.083 169.922 C 280.659 170.549,280.311 171.255,280.311 171.491 C 280.311 171.727,280.032 172.298,279.691 172.761 C 279.350 173.223,278.938 174.129,278.775 174.774 C 278.613 175.420,278.263 176.180,277.999 176.463 C 277.735 176.747,277.376 177.488,277.202 178.110 C 277.027 178.732,276.735 179.299,276.552 179.369 C 276.369 179.439,276.018 180.117,275.771 180.875 C 275.524 181.634,275.162 182.439,274.966 182.664 C 274.769 182.890,274.434 183.663,274.221 184.382 C 274.007 185.101,273.664 185.829,273.459 185.999 C 273.254 186.170,272.898 186.874,272.668 187.565 C 272.439 188.255,272.089 188.955,271.891 189.119 C 271.693 189.284,271.333 190.021,271.090 190.758 C 270.847 191.495,270.436 192.373,270.176 192.708 C 269.916 193.043,269.630 193.705,269.541 194.180 C 269.452 194.655,269.157 195.245,268.885 195.491 C 268.614 195.736,268.265 196.414,268.110 196.997 C 267.956 197.580,267.608 198.296,267.337 198.589 C 267.067 198.881,266.682 199.662,266.483 200.324 C 266.284 200.986,265.875 201.841,265.573 202.224 C 265.272 202.606,265.026 203.178,265.026 203.493 C 265.026 203.809,264.678 204.580,264.253 205.207 C 263.829 205.834,263.479 206.534,263.476 206.762 C 263.474 206.989,263.124 207.689,262.699 208.316 C 262.274 208.943,261.924 209.644,261.922 209.873 C 261.919 210.103,261.608 210.744,261.231 211.298 C 260.853 211.852,260.400 212.850,260.223 213.516 C 260.047 214.182,259.657 214.989,259.358 215.310 C 259.059 215.631,258.743 216.278,258.655 216.747 C 258.567 217.216,258.219 217.920,257.883 218.312 C 257.546 218.704,257.198 219.378,257.109 219.810 C 257.020 220.242,256.675 221.018,256.341 221.535 C 256.008 222.051,255.658 222.886,255.563 223.389 C 255.445 224.018,255.084 224.552,254.408 225.095 L 253.424 225.886 253.132 224.726 C 252.971 224.087,252.615 223.341,252.341 223.066 C 252.067 222.792,251.764 222.149,251.668 221.638 C 251.572 221.126,251.199 220.275,250.839 219.745 C 250.478 219.216,250.072 218.380,249.936 217.888 C 249.799 217.397,249.424 216.639,249.101 216.204 C 248.778 215.770,248.439 215.097,248.347 214.709 C 248.255 214.321,247.904 213.596,247.566 213.098 C 247.228 212.601,246.871 211.753,246.772 211.213 C 246.673 210.674,246.325 209.942,245.998 209.585 C 245.672 209.229,245.329 208.534,245.237 208.040 C 245.144 207.547,244.795 206.847,244.460 206.486 C 244.125 206.125,243.778 205.439,243.688 204.961 C 243.599 204.484,243.251 203.766,242.914 203.366 C 242.577 202.966,242.229 202.181,242.139 201.622 C 242.050 201.063,241.738 200.390,241.446 200.126 C 241.155 199.862,240.791 199.150,240.639 198.543 C 240.486 197.937,240.139 197.241,239.869 196.996 C 239.598 196.750,239.248 196.076,239.093 195.497 C 238.937 194.918,238.546 194.131,238.224 193.749 C 237.902 193.366,237.565 192.594,237.475 192.032 C 237.386 191.470,237.098 190.731,236.836 190.389 C 236.574 190.047,236.154 189.242,235.904 188.601 C 235.654 187.960,235.302 187.260,235.122 187.047 C 234.942 186.833,234.593 186.133,234.345 185.492 C 234.097 184.851,233.749 184.152,233.572 183.938 C 233.395 183.724,233.101 183.027,232.918 182.388 C 232.735 181.750,232.372 180.955,232.111 180.623 C 231.849 180.291,231.496 179.590,231.324 179.064 C 231.153 178.539,230.803 177.839,230.547 177.510 C 230.291 177.180,229.941 176.481,229.770 175.955 C 229.598 175.430,229.239 174.718,228.970 174.373 C 228.702 174.028,228.357 173.247,228.203 172.637 C 228.050 172.028,227.645 171.151,227.304 170.688 C 226.963 170.226,226.684 169.655,226.684 169.419 C 226.684 169.183,226.336 168.477,225.911 167.850 C 225.487 167.223,225.137 166.522,225.134 166.293 C 225.132 166.063,224.837 165.445,224.480 164.918 C 224.123 164.392,223.725 163.490,223.595 162.914 C 223.466 162.339,223.127 161.617,222.843 161.310 C 222.559 161.003,222.200 160.274,222.045 159.691 C 221.890 159.108,221.542 158.431,221.271 158.186 C 221.000 157.941,220.648 157.220,220.488 156.585 C 220.328 155.950,219.966 155.200,219.684 154.917 C 219.402 154.635,219.171 154.232,219.171 154.021 C 219.171 153.466,218.373 151.554,218.141 151.554 C 218.033 151.554,217.690 150.855,217.378 150.000 C 217.067 149.145,216.704 148.446,216.574 148.446 C 216.443 148.446,216.152 147.814,215.928 147.042 C 215.703 146.271,215.349 145.498,215.141 145.325 C 214.932 145.152,214.584 144.398,214.367 143.651 C 214.149 142.903,213.749 142.090,213.477 141.844 C 213.205 141.598,212.905 141.030,212.811 140.582 C 212.716 140.134,212.301 139.251,211.889 138.621 C 211.477 137.991,211.140 137.319,211.140 137.128 C 211.140 136.936,210.790 136.160,210.363 135.403 C 209.935 134.645,209.585 133.789,209.585 133.499 C 209.585 133.210,209.236 132.533,208.808 131.995 C 208.381 131.457,208.031 130.760,208.031 130.445 C 208.031 130.131,207.740 129.535,207.384 129.121 C 206.504 128.098,206.504 126.581,207.383 125.389 C 207.740 124.906,208.031 124.304,208.031 124.052 C 208.031 123.499,208.830 121.762,209.085 121.762 C 209.184 121.762,209.390 121.265,209.543 120.657 C 209.696 120.050,210.051 119.306,210.333 119.004 C 210.614 118.702,210.967 117.999,211.117 117.441 C 211.267 116.884,211.617 116.185,211.894 115.887 C 212.172 115.589,212.535 114.841,212.701 114.223 C 212.867 113.606,213.229 112.815,213.504 112.465 C 213.779 112.115,214.130 111.331,214.283 110.723 C 214.436 110.115,214.783 109.417,215.054 109.172 C 215.325 108.927,215.674 108.252,215.830 107.673 C 215.986 107.094,216.379 106.305,216.703 105.919 C 217.027 105.534,217.375 104.779,217.476 104.242 C 217.577 103.705,217.882 102.982,218.155 102.635 C 218.428 102.289,218.779 101.525,218.936 100.938 C 219.093 100.351,219.439 99.666,219.705 99.416 C 219.970 99.166,220.320 98.467,220.482 97.862 C 220.643 97.257,220.993 96.557,221.258 96.308 C 221.524 96.058,221.885 95.359,222.061 94.753 C 222.237 94.148,222.634 93.303,222.943 92.876 C 223.253 92.448,223.581 91.696,223.674 91.204 C 223.766 90.712,224.059 90.071,224.324 89.779 C 224.590 89.487,224.952 88.782,225.130 88.212 C 225.307 87.642,225.657 86.943,225.907 86.658 C 226.157 86.373,226.507 85.674,226.685 85.104 C 226.863 84.534,227.169 83.883,227.365 83.657 C 227.562 83.432,227.913 82.674,228.146 81.973 C 228.378 81.273,228.718 80.525,228.900 80.311 C 229.082 80.097,229.434 79.398,229.682 78.756 C 229.929 78.115,230.279 77.416,230.459 77.202 C 230.639 76.988,230.988 76.289,231.236 75.648 C 231.484 75.006,231.840 74.301,232.028 74.081 C 232.215 73.860,232.567 73.044,232.808 72.268 C 233.050 71.491,233.448 70.622,233.692 70.337 C 233.935 70.052,234.289 69.352,234.478 68.782 C 234.667 68.212,235.016 67.513,235.255 67.228 C 235.494 66.943,235.846 66.244,236.037 65.674 C 236.228 65.104,236.593 64.357,236.848 64.015 C 237.103 63.673,237.387 62.927,237.478 62.357 C 237.569 61.787,237.850 61.114,238.103 60.861 C 238.736 60.228,239.119 59.461,239.119 58.825 C 239.119 58.531,239.344 58.066,239.618 57.792 C 240.282 57.127,240.674 56.365,240.674 55.736 C 240.674 55.453,240.960 54.880,241.311 54.463 C 241.662 54.047,242.060 53.211,242.196 52.605 C 242.332 52.000,242.676 51.254,242.960 50.947 C 243.244 50.640,243.603 49.912,243.758 49.329 C 243.913 48.746,244.266 48.063,244.544 47.812 C 244.821 47.561,245.124 46.989,245.216 46.540 C 245.309 46.092,245.656 45.304,245.989 44.789 C 246.321 44.274,246.718 43.389,246.871 42.822 C 247.023 42.256,247.379 41.583,247.662 41.327 C 247.945 41.071,248.252 40.461,248.343 39.972 C 248.435 39.482,248.774 38.769,249.096 38.386 C 249.418 38.003,249.806 37.239,249.958 36.690 C 250.110 36.140,250.400 35.500,250.602 35.267 C 250.804 35.035,251.175 34.216,251.425 33.447 C 251.675 32.678,252.148 31.654,252.476 31.171 C 252.803 30.689,253.147 29.952,253.238 29.534 L 253.405 28.774 254.392 29.427 C 255.158 29.934,255.413 30.297,255.534 31.052 M142.764 53.015 C 142.469 53.390,142.228 53.840,142.228 54.016 C 142.228 54.191,142.012 54.612,141.748 54.952 C 141.484 55.292,141.070 56.173,140.827 56.910 C 140.585 57.647,140.224 58.385,140.026 58.549 C 139.828 58.714,139.478 59.413,139.249 60.104 C 139.019 60.794,138.664 61.499,138.458 61.669 C 138.253 61.840,137.910 62.567,137.696 63.287 C 137.483 64.006,137.143 64.779,136.942 65.004 C 136.741 65.230,136.450 65.892,136.295 66.475 C 136.139 67.058,135.778 67.805,135.492 68.135 C 135.206 68.465,134.856 69.164,134.715 69.689 C 134.574 70.214,134.224 70.914,133.938 71.244 C 133.652 71.573,133.301 72.276,133.159 72.805 C 133.016 73.334,132.678 74.048,132.408 74.392 C 132.137 74.737,131.790 75.484,131.637 76.052 C 131.484 76.621,131.064 77.485,130.705 77.972 C 130.346 78.459,130.052 79.050,130.052 79.286 C 130.052 79.522,129.704 80.228,129.279 80.855 C 128.854 81.482,128.505 82.183,128.502 82.412 C 128.500 82.642,128.211 83.251,127.861 83.767 C 127.511 84.282,127.103 85.158,126.954 85.712 C 126.804 86.266,126.465 86.997,126.201 87.337 C 125.936 87.676,125.632 88.245,125.525 88.601 C 125.418 88.957,125.007 89.832,124.611 90.544 C 124.216 91.256,123.804 92.129,123.697 92.482 C 123.590 92.835,123.277 93.429,123.002 93.801 C 122.727 94.173,122.389 94.980,122.251 95.594 C 122.113 96.208,121.723 97.040,121.385 97.443 C 121.046 97.845,120.686 98.556,120.584 99.022 C 120.483 99.489,120.133 100.188,119.807 100.577 C 119.481 100.965,119.132 101.665,119.030 102.131 C 118.928 102.598,118.643 103.236,118.397 103.550 C 118.151 103.864,117.796 104.672,117.607 105.345 C 117.418 106.019,117.059 106.776,116.807 107.027 C 116.556 107.278,116.201 107.983,116.018 108.593 C 115.836 109.203,115.486 109.903,115.241 110.147 C 114.997 110.392,114.654 111.094,114.480 111.708 C 114.306 112.322,114.027 112.940,113.860 113.083 C 113.414 113.463,113.049 114.259,112.856 115.273 C 112.763 115.764,112.469 116.406,112.204 116.697 C 111.939 116.989,111.577 117.694,111.399 118.264 C 111.221 118.834,110.872 119.534,110.622 119.819 C 110.372 120.104,110.020 120.803,109.839 121.373 C 109.658 121.943,109.311 122.666,109.067 122.980 C 108.823 123.294,108.476 124.079,108.295 124.724 C 108.114 125.369,107.806 126.030,107.610 126.193 C 107.209 126.525,107.126 127.870,107.493 128.096 C 107.624 128.177,107.937 128.796,108.189 129.472 C 108.440 130.147,108.861 130.982,109.123 131.327 C 109.386 131.672,109.726 132.453,109.879 133.062 C 110.033 133.672,110.438 134.549,110.779 135.011 C 111.120 135.474,111.399 136.045,111.399 136.281 C 111.399 136.517,111.747 137.223,112.171 137.850 C 112.596 138.477,112.949 139.223,112.956 139.508 C 112.962 139.793,113.314 140.484,113.738 141.044 C 114.161 141.603,114.508 142.381,114.508 142.772 C 114.508 143.164,114.788 143.816,115.130 144.223 C 115.472 144.630,115.880 145.436,116.036 146.015 C 116.191 146.594,116.541 147.269,116.812 147.514 C 117.082 147.759,117.429 148.455,117.582 149.062 C 117.734 149.668,118.094 150.376,118.380 150.636 C 118.667 150.895,118.973 151.529,119.061 152.043 C 119.148 152.558,119.441 153.295,119.713 153.680 C 119.984 154.066,120.448 155.028,120.743 155.818 C 121.039 156.608,121.373 157.254,121.486 157.254 C 121.600 157.254,121.947 157.953,122.259 158.808 C 122.571 159.663,122.932 160.363,123.061 160.363 C 123.190 160.363,123.468 160.941,123.678 161.648 C 123.887 162.354,124.358 163.443,124.724 164.067 C 125.089 164.691,125.391 165.366,125.393 165.567 C 125.396 165.768,125.746 166.446,126.171 167.073 C 126.595 167.700,126.943 168.393,126.943 168.613 C 126.943 168.833,127.245 169.450,127.615 169.983 C 127.984 170.516,128.396 171.443,128.531 172.044 C 128.666 172.644,129.064 173.477,129.414 173.894 C 129.765 174.310,130.052 174.918,130.052 175.243 C 130.052 175.569,130.389 176.259,130.800 176.777 C 131.212 177.295,131.625 178.127,131.718 178.626 C 131.812 179.125,131.975 179.534,132.080 179.534 C 132.418 179.534,133.161 181.017,133.161 181.691 C 133.161 182.050,133.441 182.676,133.783 183.083 C 134.125 183.490,134.532 184.296,134.688 184.875 C 134.844 185.454,135.203 186.137,135.486 186.393 C 135.769 186.649,136.075 187.259,136.167 187.748 C 136.259 188.238,136.594 188.950,136.912 189.332 C 137.230 189.714,137.566 190.442,137.660 190.951 C 137.753 191.460,138.120 192.270,138.475 192.750 C 138.829 193.231,139.119 193.782,139.119 193.975 C 139.119 194.419,139.851 195.847,140.319 196.314 C 140.514 196.509,140.674 196.841,140.674 197.052 C 140.674 197.523,141.391 198.941,141.873 199.423 C 142.068 199.618,142.228 199.915,142.229 200.083 C 142.232 200.976,143.258 202.081,143.781 201.754 C 144.067 201.576,144.301 201.306,144.301 201.155 C 144.301 201.003,144.633 200.419,145.039 199.857 C 145.446 199.294,145.908 198.450,146.066 197.981 C 146.225 197.511,146.575 196.812,146.846 196.426 C 147.116 196.041,147.476 195.298,147.646 194.775 C 147.815 194.252,148.124 193.683,148.332 193.510 C 148.540 193.338,148.899 192.541,149.131 191.741 C 149.363 190.940,149.763 190.015,150.020 189.686 C 150.278 189.356,150.629 188.657,150.800 188.131 C 150.971 187.606,151.321 186.907,151.577 186.577 C 151.833 186.248,152.183 185.548,152.355 185.023 C 152.526 184.497,152.884 183.788,153.150 183.445 C 153.416 183.103,153.708 182.357,153.799 181.787 C 153.890 181.217,154.171 180.544,154.424 180.291 C 155.057 179.658,155.440 178.891,155.440 178.255 C 155.440 177.961,155.665 177.496,155.939 177.222 C 156.606 176.555,156.995 175.795,156.995 175.160 C 156.995 174.873,157.284 174.326,157.637 173.946 C 157.990 173.565,158.354 172.830,158.445 172.313 C 158.537 171.796,158.948 170.858,159.358 170.228 C 159.768 169.598,160.106 168.898,160.108 168.673 C 160.111 168.448,160.461 167.751,160.886 167.124 C 161.310 166.497,161.658 165.791,161.658 165.555 C 161.658 165.320,161.949 164.732,162.306 164.249 C 162.662 163.766,162.953 163.120,162.953 162.812 C 162.953 162.505,163.301 161.741,163.726 161.114 C 164.151 160.487,164.500 159.788,164.503 159.560 C 164.506 159.332,164.855 158.632,165.280 158.005 C 165.705 157.378,166.055 156.679,166.057 156.451 C 166.060 156.223,166.410 155.524,166.835 154.896 C 167.260 154.269,167.609 153.567,167.612 153.335 C 167.618 152.795,168.316 151.115,168.610 150.933 C 168.734 150.857,169.043 150.237,169.298 149.555 C 169.552 148.874,169.909 148.141,170.091 147.927 C 170.274 147.714,170.626 147.014,170.873 146.373 C 171.121 145.732,171.466 145.032,171.639 144.819 C 171.812 144.605,172.161 143.789,172.413 143.005 C 172.666 142.222,173.022 141.492,173.204 141.385 C 173.386 141.277,173.736 140.583,173.981 139.843 C 174.227 139.103,174.643 138.268,174.905 137.986 C 175.168 137.704,175.454 137.093,175.541 136.628 C 175.628 136.162,175.978 135.404,176.318 134.943 C 176.658 134.482,177.013 133.688,177.107 133.179 C 177.200 132.670,177.539 131.988,177.859 131.663 C 178.180 131.338,178.516 130.683,178.605 130.207 C 178.694 129.731,178.998 129.075,179.280 128.750 C 179.953 127.974,179.964 126.401,179.300 125.800 C 179.029 125.555,178.728 124.925,178.631 124.400 C 178.533 123.875,178.188 123.095,177.862 122.666 C 177.537 122.237,177.185 121.479,177.079 120.982 C 176.974 120.485,176.618 119.786,176.288 119.430 C 175.958 119.074,175.609 118.353,175.513 117.828 C 175.416 117.303,175.115 116.672,174.842 116.425 C 174.570 116.179,174.174 115.394,173.962 114.681 C 173.751 113.969,173.417 113.201,173.221 112.975 C 173.025 112.749,172.666 111.953,172.422 111.206 C 172.179 110.459,171.831 109.759,171.649 109.652 C 171.467 109.544,171.117 108.845,170.872 108.097 C 170.626 107.350,170.277 106.651,170.095 106.543 C 169.913 106.435,169.563 105.736,169.318 104.990 C 169.073 104.244,168.763 103.565,168.629 103.483 C 168.308 103.284,167.617 101.614,167.617 101.036 C 167.617 100.786,167.444 100.438,167.233 100.264 C 166.768 99.877,166.062 98.507,166.062 97.990 C 166.062 97.783,165.771 97.267,165.414 96.844 C 165.058 96.420,164.695 95.762,164.606 95.382 C 164.518 95.001,164.275 94.415,164.066 94.081 C 163.856 93.746,163.467 92.837,163.200 92.062 C 162.933 91.286,162.477 90.349,162.186 89.980 C 161.896 89.611,161.658 89.108,161.658 88.864 C 161.658 88.620,161.310 87.907,160.886 87.280 C 160.461 86.653,160.111 85.998,160.108 85.825 C 160.101 85.354,159.260 83.679,159.031 83.679 C 158.921 83.679,158.753 83.242,158.656 82.707 C 158.559 82.173,158.146 81.276,157.737 80.713 C 157.329 80.151,156.995 79.497,156.995 79.260 C 156.995 79.023,156.697 78.390,156.333 77.854 C 155.969 77.318,155.493 76.340,155.275 75.680 C 155.057 75.021,154.714 74.353,154.513 74.195 C 154.311 74.037,154.072 73.512,153.979 73.029 C 153.778 71.971,153.180 70.725,152.874 70.725 C 152.752 70.725,152.520 70.199,152.357 69.555 C 152.195 68.911,151.835 68.156,151.556 67.877 C 151.277 67.599,150.974 67.047,150.881 66.652 C 150.788 66.256,150.392 65.350,150.000 64.637 C 149.608 63.925,149.209 63.005,149.112 62.594 C 149.015 62.183,148.666 61.483,148.336 61.040 C 148.006 60.596,147.657 59.897,147.559 59.485 C 147.461 59.074,147.112 58.375,146.782 57.931 C 146.452 57.487,146.101 56.782,146.001 56.363 C 145.902 55.944,145.598 55.289,145.326 54.907 C 145.054 54.525,144.718 53.913,144.578 53.547 C 144.154 52.432,143.398 52.210,142.764 53.015 M253.041 53.044 C 252.818 53.293,252.554 53.931,252.456 54.460 C 252.358 54.990,252.022 55.721,251.709 56.084 C 251.397 56.448,251.001 57.268,250.831 57.906 C 250.660 58.545,250.411 59.067,250.279 59.067 C 250.146 59.067,249.793 59.719,249.495 60.516 C 249.197 61.313,248.789 62.129,248.588 62.330 C 248.387 62.530,248.041 63.321,247.819 64.085 C 247.597 64.850,247.246 65.616,247.040 65.787 C 246.834 65.958,246.591 66.436,246.501 66.849 C 246.410 67.262,246.067 67.995,245.738 68.479 C 245.410 68.964,245.004 69.776,244.836 70.285 C 244.668 70.795,244.322 71.481,244.067 71.810 C 243.813 72.140,243.412 72.983,243.176 73.683 C 242.941 74.384,242.588 75.142,242.392 75.367 C 242.196 75.593,241.839 76.380,241.599 77.117 C 241.360 77.854,241.003 78.590,240.808 78.753 C 240.612 78.915,240.275 79.567,240.059 80.202 C 239.843 80.836,239.487 81.534,239.269 81.752 C 239.051 81.970,238.696 82.745,238.479 83.475 C 238.262 84.204,237.925 84.986,237.729 85.211 C 237.533 85.437,237.176 86.224,236.937 86.959 C 236.698 87.695,236.351 88.355,236.167 88.425 C 235.983 88.496,235.678 89.102,235.491 89.772 C 235.303 90.442,234.951 91.181,234.708 91.415 C 234.465 91.648,234.118 92.306,233.937 92.876 C 233.757 93.446,233.347 94.378,233.027 94.948 C 232.707 95.518,232.370 96.308,232.278 96.703 C 232.186 97.099,231.887 97.647,231.613 97.920 C 231.339 98.194,230.987 98.897,230.829 99.482 C 230.671 100.067,230.336 100.753,230.082 101.006 C 229.829 101.259,229.417 102.098,229.166 102.870 C 228.915 103.643,228.560 104.449,228.377 104.663 C 228.194 104.877,227.907 105.482,227.738 106.007 C 227.570 106.533,227.222 107.232,226.966 107.562 C 226.710 107.891,226.360 108.591,226.189 109.116 C 226.017 109.641,225.662 110.345,225.399 110.679 C 225.136 111.014,224.787 111.781,224.625 112.385 C 224.462 112.988,224.052 113.892,223.712 114.392 C 223.372 114.893,223.013 115.677,222.913 116.136 C 222.813 116.594,222.464 117.287,222.139 117.675 C 221.813 118.064,221.463 118.763,221.361 119.230 C 221.260 119.696,220.915 120.390,220.595 120.772 C 220.275 121.153,219.931 121.901,219.831 122.434 C 219.731 122.967,219.372 123.766,219.034 124.210 C 217.873 125.731,217.877 128.880,219.040 130.262 C 219.379 130.664,219.737 131.335,219.838 131.753 C 219.938 132.171,220.353 133.154,220.761 133.938 C 221.168 134.722,221.502 135.492,221.502 135.650 C 221.502 135.809,221.780 136.347,222.119 136.846 C 222.457 137.345,222.872 138.170,223.040 138.679 C 223.208 139.188,223.561 139.879,223.824 140.213 C 224.087 140.548,224.435 141.315,224.598 141.919 C 224.760 142.522,225.180 143.438,225.530 143.953 C 225.879 144.469,226.168 145.079,226.171 145.308 C 226.173 145.538,226.523 146.238,226.948 146.865 C 227.373 147.492,227.722 148.192,227.725 148.420 C 227.728 148.648,228.077 149.347,228.502 149.974 C 228.927 150.601,229.277 151.359,229.279 151.658 C 229.282 151.957,229.632 152.715,230.057 153.342 C 230.481 153.969,230.829 154.740,230.829 155.055 C 230.829 155.370,231.179 156.068,231.606 156.606 C 232.034 157.144,232.383 157.844,232.383 158.161 C 232.383 158.478,232.718 159.158,233.126 159.672 C 233.535 160.186,233.945 161.081,234.038 161.660 C 234.130 162.240,234.379 162.781,234.591 162.862 C 234.803 162.943,235.154 163.624,235.373 164.374 C 235.591 165.125,235.996 165.945,236.273 166.195 C 236.551 166.446,236.853 167.052,236.944 167.541 C 237.036 168.030,237.368 168.743,237.683 169.125 C 237.997 169.506,238.408 170.382,238.597 171.070 C 238.785 171.759,239.072 172.458,239.233 172.625 C 239.395 172.791,239.737 173.483,239.994 174.163 C 240.251 174.842,240.601 175.542,240.771 175.717 C 240.942 175.893,241.292 176.592,241.549 177.272 C 241.805 177.951,242.185 178.677,242.393 178.884 C 242.600 179.092,242.951 179.877,243.172 180.628 C 243.393 181.380,243.738 182.179,243.938 182.405 C 244.139 182.630,244.485 183.352,244.709 184.008 C 244.933 184.664,245.275 185.334,245.471 185.496 C 245.667 185.658,246.014 186.356,246.244 187.047 C 246.473 187.737,246.823 188.437,247.021 188.601 C 247.219 188.765,247.577 189.503,247.817 190.240 C 248.057 190.977,248.405 191.755,248.590 191.969 C 248.775 192.183,249.121 192.940,249.360 193.653 C 249.598 194.365,250.002 195.181,250.257 195.466 C 250.512 195.751,250.802 196.366,250.901 196.833 C 250.999 197.299,251.352 198.004,251.684 198.399 C 252.016 198.793,252.368 199.541,252.465 200.059 C 252.826 201.981,253.486 202.125,254.944 200.597 C 255.756 199.746,256.218 199.032,256.218 198.630 C 256.218 198.283,256.567 197.559,256.995 197.021 C 257.422 196.483,257.772 195.773,257.772 195.444 C 257.772 195.115,258.061 194.534,258.414 194.153 C 258.767 193.772,259.131 193.037,259.223 192.520 C 259.314 192.003,259.725 191.065,260.135 190.435 C 260.545 189.805,260.883 189.105,260.886 188.880 C 260.888 188.656,261.238 187.958,261.663 187.331 C 262.088 186.704,262.435 185.992,262.435 185.747 C 262.435 185.503,262.673 185.000,262.964 184.630 C 263.255 184.260,263.672 183.341,263.891 182.588 C 264.110 181.834,264.449 181.092,264.645 180.939 C 264.841 180.786,265.195 180.086,265.431 179.385 C 265.667 178.683,266.080 177.900,266.350 177.645 C 266.619 177.390,266.839 177.016,266.839 176.812 C 266.839 176.314,267.664 174.611,267.905 174.611 C 268.011 174.611,268.292 173.941,268.528 173.122 C 268.765 172.302,269.113 171.457,269.302 171.244 C 269.491 171.030,269.848 170.330,270.096 169.689 C 270.344 169.048,270.694 168.348,270.873 168.135 C 271.053 167.921,271.405 167.222,271.655 166.580 C 271.906 165.939,272.325 165.135,272.587 164.793 C 272.849 164.451,273.135 163.723,273.222 163.176 C 273.310 162.629,273.653 161.888,273.985 161.530 C 274.317 161.172,274.668 160.442,274.766 159.908 C 274.864 159.375,275.217 158.662,275.549 158.326 C 275.881 157.989,276.231 157.290,276.326 156.771 C 276.421 156.253,276.765 155.560,277.089 155.231 C 277.414 154.902,277.755 154.185,277.848 153.637 C 277.941 153.089,278.293 152.266,278.632 151.807 C 278.970 151.348,279.327 150.608,279.424 150.162 C 279.521 149.717,279.867 149.035,280.193 148.646 C 280.519 148.258,280.866 147.558,280.964 147.092 C 281.062 146.625,281.407 145.952,281.729 145.596 C 282.052 145.240,282.383 144.507,282.465 143.967 C 282.546 143.427,282.897 142.648,283.243 142.237 C 283.590 141.825,283.948 141.087,284.040 140.598 C 284.132 140.109,284.438 139.499,284.721 139.243 C 285.004 138.987,285.362 138.309,285.516 137.736 C 285.670 137.163,286.068 136.336,286.400 135.899 C 286.732 135.461,287.084 134.665,287.184 134.130 C 287.283 133.594,287.564 132.895,287.808 132.575 C 288.052 132.256,288.454 131.480,288.701 130.851 C 288.948 130.221,289.376 129.419,289.653 129.067 C 290.400 128.117,290.174 125.130,289.355 125.130 C 289.246 125.130,288.963 124.465,288.726 123.652 C 288.490 122.840,288.082 121.901,287.819 121.567 C 287.556 121.233,287.260 120.587,287.161 120.130 C 287.061 119.674,286.713 118.983,286.387 118.594 C 286.062 118.206,285.712 117.506,285.610 117.040 C 285.508 116.573,285.149 115.862,284.811 115.459 C 284.473 115.056,284.122 114.259,284.030 113.686 C 283.939 113.114,283.604 112.336,283.287 111.958 C 282.969 111.579,282.626 110.888,282.525 110.421 C 282.423 109.955,282.073 109.255,281.747 108.867 C 281.422 108.478,281.072 107.779,280.970 107.312 C 280.868 106.846,280.513 106.141,280.181 105.746 C 279.849 105.352,279.495 104.568,279.394 104.004 C 279.294 103.440,278.947 102.688,278.623 102.332 C 278.299 101.975,277.951 101.276,277.850 100.777 C 277.748 100.278,277.399 99.579,277.073 99.223 C 276.746 98.867,276.399 98.193,276.301 97.727 C 276.202 97.260,275.850 96.556,275.518 96.161 C 275.186 95.766,274.833 95.010,274.733 94.481 C 274.634 93.952,274.350 93.258,274.102 92.938 C 273.854 92.619,273.450 91.746,273.204 90.999 C 272.958 90.252,272.608 89.552,272.426 89.445 C 272.244 89.337,271.895 88.637,271.649 87.890 C 271.404 87.143,271.049 86.443,270.862 86.336 C 270.674 86.228,270.347 85.554,270.136 84.837 C 269.924 84.120,269.446 83.084,269.072 82.534 C 268.699 81.984,268.392 81.346,268.389 81.117 C 268.386 80.887,268.037 80.186,267.612 79.559 C 267.187 78.932,266.837 78.233,266.835 78.005 C 266.832 77.777,266.482 77.078,266.057 76.451 C 265.633 75.824,265.285 75.059,265.285 74.752 C 265.285 74.445,265.006 73.816,264.665 73.353 C 264.324 72.891,263.919 72.015,263.766 71.408 C 263.613 70.800,263.251 70.088,262.962 69.826 C 262.672 69.564,262.435 69.129,262.435 68.859 C 262.435 68.246,261.824 67.040,261.287 66.594 C 261.063 66.409,260.881 66.043,260.881 65.780 C 260.881 65.213,260.086 63.472,259.827 63.472 C 259.728 63.472,259.522 62.976,259.369 62.370 C 259.216 61.765,258.794 60.868,258.431 60.377 C 258.069 59.886,257.772 59.291,257.772 59.053 C 257.772 58.816,257.467 58.172,257.093 57.622 C 256.720 57.072,256.253 56.075,256.054 55.408 C 255.482 53.481,253.820 52.177,253.041 53.044 " stroke="none" fill="#f7f7f7" fill-rule="evenodd"></path></g></svg>