<svg id="svg" version="1.1" xmlns="http://www.w3.org/2000/svg" xmlns:xlink="http://www.w3.org/1999/xlink" width="400" height="258.91472868217056" viewBox="0, 0, 400,258.91472868217056"><g id="svgg"><path id="path0" d="M142.988 32.837 C 142.814 33.371,142.412 34.071,142.095 34.393 C 141.772 34.720,141.456 35.443,141.376 36.037 C 141.298 36.620,141.006 37.348,140.727 37.655 C 140.448 37.962,140.074 38.679,139.896 39.249 C 139.719 39.819,139.369 40.518,139.119 40.803 C 138.869 41.088,138.520 41.788,138.342 42.358 C 138.164 42.927,137.816 43.627,137.569 43.912 C 137.321 44.197,136.977 45.013,136.805 45.725 C 136.633 46.438,136.284 47.254,136.031 47.539 C 135.778 47.824,135.369 48.582,135.121 49.223 C 134.874 49.864,134.525 50.563,134.345 50.777 C 134.165 50.991,133.815 51.690,133.568 52.332 C 133.320 52.973,132.963 53.672,132.774 53.886 C 132.586 54.100,132.294 54.799,132.125 55.440 C 131.957 56.082,131.611 56.839,131.356 57.124 C 131.101 57.409,130.748 58.109,130.570 58.679 C 130.392 59.249,130.043 59.948,129.793 60.233 C 129.543 60.518,129.193 61.218,129.015 61.788 C 128.837 62.358,128.532 63.007,128.337 63.230 C 128.143 63.454,127.750 64.315,127.465 65.143 C 127.180 65.972,126.790 66.780,126.599 66.939 C 126.407 67.098,126.110 67.723,125.939 68.328 C 125.768 68.934,125.420 69.633,125.166 69.883 C 124.913 70.133,124.561 70.839,124.385 71.453 C 124.208 72.066,123.839 72.793,123.564 73.068 C 123.289 73.343,122.988 74.047,122.894 74.632 C 122.801 75.217,122.464 76.006,122.147 76.384 C 121.829 76.763,121.486 77.454,121.385 77.921 C 121.283 78.387,120.930 79.090,120.599 79.482 C 120.269 79.874,119.872 80.669,119.716 81.248 C 119.560 81.827,119.207 82.505,118.932 82.754 C 118.657 83.003,118.355 83.661,118.261 84.217 C 118.167 84.772,117.823 85.620,117.497 86.101 C 117.170 86.582,116.765 87.393,116.597 87.902 C 116.429 88.411,116.082 89.097,115.826 89.427 C 115.570 89.756,115.220 90.456,115.049 90.981 C 114.878 91.507,114.522 92.210,114.259 92.545 C 113.996 92.879,113.648 93.647,113.485 94.250 C 113.323 94.854,112.903 95.769,112.553 96.285 C 112.203 96.801,111.915 97.410,111.912 97.640 C 111.910 97.869,111.560 98.570,111.135 99.197 C 110.710 99.824,110.361 100.524,110.358 100.751 C 110.355 100.979,110.006 101.679,109.581 102.306 C 109.156 102.933,108.808 103.669,108.808 103.942 C 108.808 104.498,108.382 105.386,107.867 105.900 C 107.680 106.088,107.407 106.684,107.262 107.225 C 107.116 107.766,106.763 108.478,106.477 108.808 C 106.191 109.138,105.841 109.838,105.699 110.363 C 105.558 110.888,105.222 111.572,104.953 111.882 C 104.683 112.193,104.332 112.965,104.173 113.597 C 104.014 114.230,103.593 115.176,103.237 115.700 C 102.882 116.224,102.589 116.840,102.586 117.070 C 102.583 117.299,102.234 118.000,101.809 118.627 C 101.384 119.254,101.036 119.967,101.036 120.211 C 101.036 120.456,100.798 120.958,100.507 121.328 C 100.216 121.698,99.808 122.572,99.601 123.271 C 99.394 123.969,98.961 124.874,98.640 125.282 C 97.832 126.309,97.839 128.159,98.655 129.263 C 98.984 129.707,99.424 130.556,99.633 131.150 C 99.842 131.743,100.170 132.409,100.361 132.630 C 100.552 132.850,100.914 133.701,101.167 134.521 C 101.419 135.340,101.716 136.010,101.828 136.010 C 101.939 136.010,102.301 136.710,102.633 137.565 C 102.964 138.420,103.310 139.119,103.401 139.119 C 103.492 139.119,103.836 139.790,104.164 140.609 C 104.493 141.428,104.962 142.390,105.207 142.746 C 105.451 143.102,105.723 143.815,105.810 144.330 C 105.897 144.844,106.203 145.478,106.490 145.737 C 106.777 145.997,107.136 146.705,107.289 147.311 C 107.442 147.918,107.788 148.614,108.059 148.859 C 108.330 149.105,108.678 149.782,108.833 150.365 C 108.987 150.948,109.329 151.658,109.593 151.943 C 109.856 152.228,110.183 152.953,110.318 153.555 C 110.453 154.156,110.868 155.011,111.240 155.453 C 111.613 155.895,111.917 156.517,111.917 156.834 C 111.917 157.151,112.250 157.871,112.657 158.433 C 113.064 158.996,113.471 159.846,113.562 160.324 C 113.653 160.801,114.020 161.539,114.377 161.963 C 114.734 162.387,115.026 162.999,115.026 163.323 C 115.026 163.647,115.374 164.425,115.798 165.052 C 116.223 165.679,116.573 166.378,116.576 166.606 C 116.578 166.834,116.928 167.533,117.353 168.160 C 117.778 168.788,118.127 169.461,118.130 169.658 C 118.133 169.854,118.472 170.612,118.885 171.342 C 119.297 172.071,119.712 173.039,119.808 173.492 C 119.903 173.946,120.143 174.450,120.340 174.614 C 120.537 174.777,120.902 175.456,121.150 176.121 C 121.399 176.787,121.856 177.681,122.166 178.109 C 122.476 178.536,122.813 179.236,122.914 179.663 C 123.015 180.091,123.253 180.615,123.442 180.829 C 123.632 181.043,123.990 181.859,124.237 182.642 C 124.485 183.426,124.889 184.301,125.136 184.585 C 125.382 184.870,125.729 185.570,125.907 186.140 C 126.084 186.710,126.434 187.409,126.684 187.694 C 126.934 187.979,127.284 188.679,127.462 189.249 C 127.640 189.819,127.954 190.478,128.160 190.714 C 128.365 190.950,128.702 191.701,128.907 192.384 C 129.113 193.067,129.498 193.865,129.764 194.158 C 130.030 194.450,130.392 195.155,130.570 195.725 C 130.748 196.295,131.097 196.995,131.347 197.280 C 131.596 197.565,131.999 198.410,132.242 199.158 C 132.485 199.906,132.783 200.518,132.904 200.518 C 133.025 200.518,133.308 201.152,133.533 201.927 C 133.759 202.702,134.114 203.507,134.324 203.717 C 134.533 203.926,134.948 204.749,135.247 205.546 C 135.545 206.343,135.887 206.995,136.008 206.995 C 136.129 206.995,136.419 207.571,136.653 208.275 C 136.887 208.980,137.295 209.831,137.559 210.168 C 137.824 210.504,138.123 211.218,138.223 211.755 C 138.324 212.292,138.672 213.047,138.996 213.432 C 139.321 213.818,139.714 214.607,139.870 215.186 C 140.026 215.765,140.380 216.444,140.658 216.696 C 140.935 216.947,141.238 217.519,141.330 217.967 C 141.423 218.416,141.770 219.204,142.103 219.719 C 142.435 220.234,142.837 221.138,142.996 221.727 C 143.359 223.077,143.392 223.070,144.066 221.503 C 144.373 220.790,144.715 220.207,144.826 220.207 C 144.938 220.207,145.235 219.555,145.485 218.758 C 145.736 217.960,146.086 217.253,146.263 217.185 C 146.440 217.117,146.781 216.458,147.021 215.720 C 147.262 214.982,147.680 214.170,147.952 213.915 C 148.223 213.660,148.446 213.272,148.446 213.053 C 148.446 212.833,148.854 211.805,149.352 210.769 C 149.851 209.732,150.259 208.710,150.259 208.497 C 150.259 208.285,150.493 207.899,150.779 207.640 C 151.066 207.381,151.437 206.693,151.606 206.111 C 151.774 205.528,152.176 204.728,152.500 204.332 C 152.823 203.936,153.168 203.184,153.267 202.661 C 153.365 202.138,153.777 201.186,154.184 200.545 C 154.590 199.905,154.924 199.199,154.927 198.978 C 154.930 198.756,155.279 198.062,155.704 197.435 C 156.129 196.808,156.477 196.088,156.477 195.836 C 156.477 195.583,156.769 195.029,157.126 194.605 C 157.483 194.181,157.852 193.443,157.946 192.966 C 158.040 192.489,158.386 191.689,158.716 191.187 C 159.045 190.686,159.387 189.916,159.475 189.475 C 159.564 189.035,159.913 188.351,160.253 187.956 C 160.592 187.561,160.942 186.855,161.030 186.387 C 161.117 185.920,161.417 185.292,161.696 184.993 C 161.975 184.694,162.364 183.915,162.560 183.262 C 162.757 182.609,163.085 181.882,163.291 181.646 C 163.496 181.411,163.860 180.615,164.100 179.877 C 164.340 179.140,164.698 178.403,164.896 178.238 C 165.094 178.074,165.447 177.366,165.680 176.665 C 165.912 175.965,166.252 175.303,166.434 175.196 C 166.616 175.088,166.971 174.359,167.224 173.575 C 167.477 172.791,167.829 171.975,168.007 171.762 C 168.185 171.548,168.485 170.907,168.674 170.337 C 168.863 169.767,169.213 169.067,169.452 168.782 C 169.691 168.497,170.041 167.798,170.229 167.228 C 170.418 166.658,170.771 165.959,171.013 165.674 C 171.256 165.389,171.626 164.569,171.836 163.852 C 172.046 163.136,172.523 162.099,172.897 161.549 C 173.270 160.999,173.575 160.355,173.575 160.118 C 173.575 159.880,173.867 159.291,174.223 158.808 C 174.579 158.325,174.870 157.736,174.870 157.499 C 174.870 157.261,175.175 156.619,175.547 156.071 C 175.919 155.523,176.372 154.580,176.553 153.976 C 176.735 153.371,177.131 152.563,177.432 152.181 C 177.733 151.798,177.983 151.238,177.986 150.937 C 177.990 150.635,178.340 149.931,178.764 149.371 C 179.187 148.811,179.534 148.131,179.534 147.859 C 179.534 147.587,179.872 146.879,180.285 146.286 C 180.699 145.693,181.110 144.784,181.198 144.267 C 181.286 143.750,181.648 143.016,182.001 142.635 C 182.354 142.254,182.642 141.707,182.642 141.420 C 182.642 140.785,183.032 140.025,183.698 139.359 C 183.973 139.084,184.197 138.619,184.197 138.325 C 184.197 137.690,184.580 136.923,185.213 136.289 C 185.466 136.037,185.747 135.364,185.838 134.793 C 185.929 134.223,186.222 133.477,186.488 133.135 C 186.754 132.793,187.119 132.047,187.300 131.477 C 187.481 130.907,187.871 130.174,188.168 129.849 C 189.062 128.868,189.111 126.169,188.256 124.929 C 187.891 124.398,187.487 123.497,187.359 122.927 C 187.231 122.358,186.817 121.438,186.439 120.884 C 186.061 120.329,185.749 119.688,185.747 119.459 C 185.744 119.229,185.394 118.528,184.969 117.901 C 184.545 117.274,184.195 116.575,184.192 116.347 C 184.190 116.119,183.840 115.420,183.415 114.793 C 182.990 114.166,182.640 113.408,182.638 113.109 C 182.635 112.810,182.285 112.052,181.861 111.425 C 181.436 110.798,181.088 110.025,181.088 109.708 C 181.088 109.390,180.906 108.979,180.682 108.794 C 180.145 108.348,179.534 107.143,179.534 106.530 C 179.534 106.260,179.298 105.825,179.010 105.565 C 178.721 105.304,178.301 104.457,178.076 103.684 C 177.852 102.910,177.388 101.865,177.046 101.361 C 176.704 100.858,176.423 100.258,176.420 100.029 C 176.418 99.799,176.068 99.098,175.643 98.471 C 175.218 97.844,174.870 97.131,174.870 96.887 C 174.870 96.643,174.636 96.145,174.349 95.780 C 174.062 95.416,173.631 94.496,173.391 93.737 C 173.151 92.978,172.811 92.269,172.637 92.162 C 172.463 92.054,172.120 91.355,171.874 90.607 C 171.629 89.860,171.279 89.161,171.097 89.053 C 170.915 88.945,170.563 88.246,170.316 87.498 C 170.068 86.751,169.706 86.023,169.511 85.879 C 169.317 85.736,168.993 84.996,168.792 84.234 C 168.591 83.473,168.248 82.651,168.029 82.409 C 167.809 82.167,167.448 81.454,167.226 80.824 C 167.004 80.193,166.605 79.441,166.340 79.152 C 166.076 78.863,165.778 78.245,165.680 77.779 C 165.581 77.312,165.234 76.613,164.908 76.224 C 164.582 75.836,164.231 75.110,164.128 74.611 C 164.025 74.113,163.668 73.297,163.334 72.798 C 163.000 72.299,162.644 71.541,162.542 71.114 C 162.440 70.687,162.093 70.019,161.770 69.631 C 161.448 69.242,161.103 68.543,161.004 68.076 C 160.906 67.610,160.598 66.980,160.320 66.677 C 160.042 66.374,159.653 65.515,159.456 64.767 C 159.259 64.019,158.870 63.159,158.592 62.856 C 158.314 62.554,158.006 61.924,157.908 61.458 C 157.809 60.991,157.462 60.292,157.136 59.903 C 156.810 59.515,156.461 58.815,156.359 58.349 C 156.257 57.882,155.902 57.178,155.570 56.783 C 155.238 56.388,154.880 55.604,154.775 55.040 C 154.671 54.477,154.320 53.666,153.997 53.238 C 153.673 52.811,153.322 52.111,153.217 51.684 C 153.113 51.256,152.770 50.557,152.456 50.130 C 152.142 49.702,151.757 48.968,151.600 48.499 C 151.443 48.030,151.070 47.302,150.771 46.882 C 150.472 46.462,150.158 45.681,150.074 45.145 C 149.990 44.609,149.657 43.853,149.335 43.465 C 149.012 43.076,148.665 42.377,148.564 41.910 C 148.462 41.444,148.107 40.738,147.775 40.342 C 147.443 39.946,147.096 39.225,147.005 38.740 C 146.914 38.255,146.617 37.656,146.345 37.410 C 146.073 37.163,145.690 36.424,145.495 35.766 C 145.299 35.108,144.834 34.120,144.461 33.570 C 144.088 33.020,143.782 32.412,143.782 32.218 C 143.782 31.511,143.296 31.890,142.988 32.837 M253.118 33.386 C 252.969 33.937,252.626 34.670,252.356 35.014 C 252.085 35.358,251.738 36.105,251.585 36.674 C 251.432 37.243,251.024 38.091,250.679 38.558 C 250.334 39.026,249.980 39.794,249.891 40.264 C 249.803 40.735,249.499 41.330,249.217 41.586 C 248.934 41.842,248.577 42.528,248.425 43.111 C 248.272 43.694,247.878 44.579,247.550 45.078 C 247.221 45.576,246.880 46.379,246.792 46.862 C 246.703 47.345,246.340 48.010,245.984 48.339 C 245.628 48.669,245.337 49.185,245.337 49.487 C 245.337 50.146,244.956 50.899,244.281 51.574 C 244.007 51.848,243.782 52.348,243.782 52.684 C 243.782 53.020,243.496 53.717,243.146 54.233 C 242.796 54.749,242.378 55.669,242.216 56.277 C 242.055 56.886,241.714 57.617,241.460 57.902 C 241.205 58.187,240.851 58.886,240.674 59.456 C 240.496 60.026,240.146 60.725,239.896 61.010 C 239.646 61.295,239.295 61.995,239.115 62.565 C 238.935 63.135,238.567 63.916,238.297 64.301 C 238.028 64.686,237.644 65.542,237.445 66.203 C 237.246 66.865,236.918 67.600,236.716 67.835 C 236.515 68.071,236.147 68.789,235.899 69.430 C 235.651 70.071,235.302 70.771,235.122 70.984 C 234.942 71.198,234.593 71.898,234.345 72.539 C 234.097 73.180,233.749 73.880,233.572 74.093 C 233.395 74.307,233.102 75.006,232.922 75.648 C 232.741 76.289,232.386 77.047,232.132 77.332 C 231.878 77.617,231.525 78.316,231.347 78.886 C 231.170 79.456,230.821 80.155,230.573 80.440 C 230.325 80.725,229.932 81.532,229.699 82.232 C 229.467 82.933,229.121 83.691,228.932 83.916 C 228.742 84.142,228.446 84.822,228.273 85.427 C 228.100 86.032,227.751 86.732,227.498 86.981 C 227.244 87.231,226.895 87.930,226.721 88.536 C 226.547 89.141,226.197 89.840,225.944 90.090 C 225.690 90.340,225.338 91.046,225.162 91.660 C 224.985 92.274,224.618 92.968,224.346 93.201 C 224.073 93.434,223.774 94.134,223.681 94.758 C 223.587 95.381,223.245 96.207,222.921 96.593 C 222.596 96.978,222.203 97.768,222.047 98.347 C 221.891 98.926,221.542 99.600,221.271 99.845 C 221.000 100.090,220.654 100.787,220.501 101.393 C 220.349 101.999,219.995 102.702,219.716 102.955 C 219.437 103.207,219.132 103.867,219.039 104.420 C 218.945 104.974,218.531 105.925,218.118 106.535 C 217.705 107.144,217.365 107.829,217.362 108.057 C 217.360 108.285,217.010 108.984,216.585 109.611 C 216.160 110.238,215.810 110.938,215.808 111.166 C 215.805 111.394,215.455 112.093,215.031 112.720 C 214.606 113.347,214.253 114.152,214.246 114.508 C 214.240 114.864,213.888 115.613,213.464 116.173 C 213.041 116.733,212.694 117.441,212.694 117.746 C 212.694 118.052,212.348 118.759,211.924 119.319 C 211.501 119.879,211.149 120.570,211.142 120.855 C 211.136 121.140,210.783 121.886,210.358 122.513 C 209.933 123.140,209.585 123.904,209.585 124.211 C 209.585 124.519,209.294 125.165,208.938 125.648 C 208.146 126.721,208.092 127.979,208.809 128.628 C 209.095 128.886,209.456 129.572,209.612 130.151 C 209.768 130.730,210.176 131.536,210.518 131.943 C 210.860 132.350,211.140 132.948,211.140 133.274 C 211.140 133.599,211.449 134.319,211.827 134.873 C 212.205 135.427,212.612 136.311,212.732 136.837 C 212.851 137.362,213.227 138.092,213.566 138.458 C 213.906 138.825,214.258 139.589,214.349 140.158 C 214.440 140.727,214.626 141.192,214.763 141.192 C 215.105 141.192,215.698 142.420,215.903 143.553 C 215.996 144.067,216.307 144.701,216.594 144.960 C 216.880 145.220,217.240 145.928,217.393 146.534 C 217.545 147.140,217.892 147.837,218.163 148.082 C 218.433 148.327,218.782 149.001,218.938 149.579 C 219.094 150.157,219.437 150.904,219.701 151.240 C 219.965 151.576,220.365 152.483,220.590 153.257 C 220.815 154.030,221.106 154.663,221.237 154.663 C 221.368 154.663,221.730 155.363,222.042 156.218 C 222.353 157.073,222.701 157.772,222.814 157.772 C 222.927 157.772,223.270 158.442,223.576 159.262 C 223.882 160.081,224.287 160.926,224.476 161.140 C 224.665 161.354,224.967 162.053,225.148 162.694 C 225.329 163.335,225.676 164.093,225.919 164.378 C 226.162 164.663,226.506 165.363,226.684 165.933 C 226.862 166.503,227.211 167.202,227.461 167.487 C 227.711 167.772,228.061 168.472,228.238 169.041 C 228.416 169.611,228.767 170.311,229.019 170.596 C 229.272 170.881,229.561 171.522,229.663 172.021 C 229.765 172.519,230.186 173.443,230.598 174.073 C 231.010 174.703,231.349 175.402,231.352 175.627 C 231.354 175.852,231.704 176.549,232.129 177.176 C 232.554 177.803,232.902 178.509,232.902 178.745 C 232.902 178.981,233.181 179.552,233.522 180.015 C 233.863 180.477,234.268 181.354,234.421 181.964 C 234.575 182.573,234.915 183.354,235.177 183.699 C 235.440 184.044,235.857 184.871,236.105 185.537 C 236.353 186.202,236.717 186.881,236.914 187.044 C 237.111 187.208,237.351 187.712,237.447 188.166 C 237.543 188.619,237.885 189.341,238.207 189.769 C 238.528 190.198,238.878 190.956,238.983 191.453 C 239.089 191.951,239.512 192.873,239.924 193.503 C 240.336 194.133,240.674 194.853,240.674 195.102 C 240.674 195.352,240.954 195.889,241.296 196.295 C 241.638 196.702,242.046 197.512,242.203 198.095 C 242.360 198.678,242.717 199.446,242.997 199.801 C 243.276 200.156,243.616 200.940,243.751 201.543 C 243.887 202.146,244.230 202.891,244.514 203.198 C 244.799 203.505,245.158 204.233,245.313 204.816 C 245.467 205.399,245.815 206.077,246.086 206.322 C 246.357 206.567,246.704 207.264,246.856 207.870 C 247.009 208.476,247.372 209.188,247.664 209.452 C 247.956 209.716,248.268 210.389,248.357 210.949 C 248.446 211.508,248.781 212.276,249.101 212.656 C 249.421 213.036,249.795 213.754,249.933 214.251 C 250.071 214.749,250.492 215.609,250.869 216.163 C 251.246 216.717,251.554 217.365,251.554 217.602 C 251.554 217.840,251.840 218.421,252.189 218.894 C 252.537 219.366,252.896 220.118,252.985 220.563 C 253.348 222.374,253.315 222.347,254.291 221.602 C 254.896 221.140,255.293 220.540,255.538 219.716 C 255.735 219.052,256.202 218.058,256.575 217.508 C 256.949 216.958,257.256 216.320,257.259 216.091 C 257.261 215.861,257.611 215.161,258.036 214.534 C 258.461 213.907,258.808 213.205,258.808 212.975 C 258.808 212.744,259.084 212.150,259.421 211.653 C 259.758 211.157,260.121 210.343,260.227 209.845 C 260.333 209.346,260.692 208.575,261.025 208.131 C 261.358 207.688,261.710 206.988,261.808 206.577 C 261.905 206.166,262.249 205.474,262.572 205.039 C 262.895 204.605,263.282 203.804,263.433 203.260 C 263.583 202.716,263.871 202.080,264.073 201.848 C 264.276 201.615,264.637 200.822,264.877 200.085 C 265.117 199.348,265.475 198.610,265.674 198.446 C 265.872 198.281,266.221 197.582,266.451 196.891 C 266.680 196.201,267.028 195.503,267.223 195.341 C 267.419 195.178,267.762 194.509,267.985 193.853 C 268.209 193.196,268.556 192.475,268.756 192.249 C 268.957 192.024,269.305 191.212,269.530 190.446 C 269.756 189.680,270.107 188.922,270.311 188.762 C 270.515 188.602,270.872 187.897,271.104 187.196 C 271.337 186.494,271.687 185.795,271.882 185.641 C 272.076 185.488,272.429 184.780,272.665 184.067 C 272.901 183.355,273.249 182.597,273.437 182.383 C 273.626 182.170,273.971 181.425,274.205 180.729 C 274.438 180.033,274.858 179.172,275.138 178.816 C 275.418 178.460,275.648 177.969,275.648 177.724 C 275.648 177.480,275.995 176.767,276.420 176.140 C 276.845 175.513,277.195 174.812,277.197 174.583 C 277.200 174.353,277.499 173.728,277.862 173.193 C 278.225 172.658,278.589 171.855,278.671 171.408 C 278.822 170.581,279.356 169.574,279.970 168.958 C 280.157 168.770,280.311 168.359,280.311 168.044 C 280.311 167.496,280.824 166.573,281.531 165.849 C 281.715 165.661,281.865 165.286,281.865 165.016 C 281.865 164.439,282.657 162.694,282.919 162.694 C 283.018 162.694,283.232 162.167,283.394 161.524 C 283.556 160.880,283.913 160.128,284.188 159.853 C 284.463 159.579,284.817 158.875,284.974 158.290 C 285.132 157.705,285.485 157.003,285.758 156.729 C 286.032 156.455,286.334 155.907,286.429 155.512 C 286.524 155.116,286.993 153.977,287.472 152.980 C 287.950 151.983,288.342 151.036,288.342 150.875 C 288.342 150.713,288.511 150.442,288.717 150.270 C 288.923 150.099,289.295 149.415,289.543 148.749 C 289.790 148.083,290.207 147.258,290.468 146.915 C 290.728 146.572,291.120 145.678,291.338 144.929 C 291.556 144.180,291.903 143.427,292.109 143.256 C 292.315 143.085,292.612 142.466,292.770 141.881 C 292.927 141.296,293.322 140.502,293.646 140.116 C 293.970 139.731,294.311 139.015,294.403 138.526 C 294.495 138.036,294.801 137.427,295.084 137.171 C 295.367 136.915,295.726 136.229,295.883 135.648 C 296.039 135.066,296.399 134.265,296.682 133.868 C 296.965 133.471,297.316 132.713,297.462 132.184 C 297.608 131.655,297.998 130.900,298.330 130.506 C 299.482 129.137,299.482 125.270,298.331 123.896 C 298.003 123.506,297.649 122.778,297.544 122.280 C 297.439 121.781,297.080 121.010,296.747 120.566 C 296.414 120.123,296.062 119.423,295.964 119.012 C 295.867 118.601,295.517 117.901,295.187 117.458 C 294.857 117.014,294.507 116.315,294.410 115.903 C 294.312 115.492,293.965 114.796,293.639 114.357 C 293.312 113.918,292.963 113.122,292.863 112.590 C 292.763 112.057,292.416 111.306,292.092 110.920 C 291.767 110.534,291.374 109.745,291.218 109.166 C 291.062 108.587,290.713 107.913,290.442 107.668 C 290.171 107.423,289.825 106.725,289.671 106.117 C 289.518 105.509,289.161 104.716,288.877 104.355 C 288.593 103.994,288.258 103.245,288.132 102.691 C 288.006 102.137,287.594 101.230,287.216 100.676 C 286.838 100.122,286.528 99.473,286.528 99.233 C 286.528 98.993,286.182 98.339,285.759 97.779 C 285.335 97.220,284.983 96.528,284.977 96.244 C 284.970 95.959,284.617 95.212,284.192 94.585 C 283.767 93.958,283.418 93.201,283.415 92.901 C 283.412 92.602,283.063 91.845,282.638 91.217 C 282.213 90.590,281.863 89.891,281.861 89.663 C 281.858 89.435,281.508 88.736,281.083 88.109 C 280.659 87.482,280.311 86.776,280.311 86.540 C 280.311 86.304,280.021 85.718,279.666 85.237 C 279.312 84.757,278.949 83.947,278.861 83.438 C 278.773 82.929,278.425 82.104,278.089 81.605 C 277.753 81.105,277.337 80.291,277.164 79.795 C 276.991 79.300,276.655 78.685,276.417 78.430 C 276.179 78.174,275.840 77.483,275.664 76.895 C 275.487 76.306,275.187 75.668,274.996 75.477 C 274.804 75.286,274.454 74.459,274.217 73.640 C 273.979 72.821,273.631 72.062,273.441 71.954 C 273.252 71.847,272.897 71.147,272.651 70.400 C 272.406 69.653,272.056 68.953,271.874 68.846 C 271.692 68.738,271.346 68.038,271.105 67.291 C 270.864 66.544,270.498 65.798,270.290 65.632 C 270.083 65.467,269.750 64.710,269.549 63.950 C 269.349 63.190,269.005 62.436,268.785 62.276 C 268.565 62.115,268.206 61.380,267.987 60.641 C 267.768 59.903,267.425 59.237,267.226 59.160 C 267.026 59.084,266.681 58.395,266.458 57.630 C 266.236 56.865,265.873 56.137,265.652 56.014 C 265.431 55.890,265.137 55.273,264.999 54.643 C 264.861 54.013,264.513 53.172,264.225 52.775 C 263.937 52.378,263.535 51.584,263.333 51.010 C 263.130 50.436,262.737 49.677,262.459 49.323 C 262.181 48.970,261.874 48.307,261.778 47.851 C 261.681 47.394,261.372 46.770,261.090 46.462 C 260.808 46.155,260.464 45.400,260.326 44.784 C 260.188 44.167,259.808 43.311,259.482 42.881 C 259.157 42.451,258.805 41.749,258.700 41.321 C 258.595 40.894,258.245 40.194,257.922 39.767 C 257.600 39.339,257.252 38.647,257.148 38.228 C 257.045 37.809,256.730 37.143,256.448 36.747 C 256.166 36.352,255.763 35.447,255.553 34.737 C 255.299 33.882,254.917 33.267,254.423 32.915 C 253.442 32.217,253.432 32.220,253.118 33.386 M144.452 49.945 C 144.614 50.271,144.989 50.795,145.285 51.111 C 145.581 51.426,145.929 52.150,146.059 52.720 C 146.188 53.290,146.603 54.210,146.981 54.764 C 147.359 55.318,147.668 56.033,147.668 56.352 C 147.668 56.670,147.851 57.083,148.074 57.268 C 149.312 58.296,149.664 61.061,148.647 61.773 C 147.779 62.381,139.243 62.364,138.370 61.752 C 137.585 61.202,137.679 58.893,138.526 57.964 C 138.817 57.645,139.201 56.917,139.378 56.347 C 139.556 55.777,139.905 55.078,140.153 54.793 C 140.402 54.508,140.683 53.925,140.778 53.497 C 141.033 52.346,141.485 51.295,141.724 51.295 C 141.839 51.295,142.014 51.033,142.112 50.712 C 142.566 49.221,143.879 48.791,144.452 49.945 M255.017 50.080 C 255.614 50.643,256.031 51.352,256.230 52.145 C 256.397 52.809,256.690 53.481,256.880 53.639 C 257.070 53.797,257.424 54.529,257.666 55.266 C 257.908 56.003,258.255 56.694,258.437 56.802 C 258.795 57.014,259.456 58.867,259.731 60.429 C 259.895 61.358,259.862 61.418,258.975 61.789 C 257.863 62.253,249.514 62.350,248.688 61.908 C 248.044 61.564,247.983 59.567,248.597 58.953 C 248.823 58.727,249.116 58.150,249.248 57.670 C 249.381 57.190,249.773 56.379,250.120 55.868 C 250.467 55.357,250.827 54.533,250.919 54.039 C 251.012 53.544,251.368 52.760,251.710 52.296 C 252.052 51.833,252.332 51.348,252.332 51.219 C 252.332 49.443,253.718 48.855,255.017 50.080 M152.776 67.563 C 153.241 67.895,153.710 68.523,153.839 68.988 C 153.966 69.445,154.364 70.252,154.725 70.781 C 155.085 71.311,155.458 72.163,155.554 72.674 C 155.650 73.186,155.953 73.828,156.227 74.103 C 156.501 74.377,156.858 75.128,157.021 75.772 C 157.183 76.416,157.415 76.943,157.537 76.943 C 158.434 76.943,159.046 80.115,158.256 80.669 C 157.292 81.344,129.597 81.303,128.760 80.625 C 128.087 80.080,128.336 78.543,129.275 77.461 C 129.561 77.131,129.910 76.432,130.052 75.907 C 130.193 75.382,130.544 74.681,130.832 74.349 C 131.120 74.017,131.426 73.302,131.513 72.761 C 131.599 72.219,131.950 71.397,132.292 70.933 C 132.633 70.470,133.025 69.680,133.163 69.178 C 133.341 68.526,133.729 68.060,134.517 67.550 L 135.622 66.836 143.782 66.902 C 151.824 66.968,151.955 66.978,152.776 67.563 M263.300 67.663 C 264.219 68.801,265.197 70.528,265.549 71.632 C 265.730 72.202,266.082 72.930,266.330 73.249 C 266.578 73.568,266.855 74.223,266.945 74.703 C 267.035 75.183,267.340 75.786,267.623 76.042 C 267.906 76.298,268.263 76.984,268.418 77.567 C 268.573 78.150,268.937 78.883,269.227 79.197 C 269.925 79.950,269.679 80.477,268.473 80.811 C 266.669 81.312,239.884 81.180,239.151 80.667 C 238.444 80.171,238.528 79.131,239.361 78.072 C 239.639 77.718,240.007 76.999,240.178 76.473 C 240.350 75.948,240.700 75.248,240.957 74.917 C 241.214 74.586,241.609 73.683,241.834 72.909 C 242.058 72.136,242.346 71.503,242.473 71.503 C 242.601 71.503,242.896 70.926,243.130 70.222 C 243.387 69.447,243.975 68.522,244.616 67.880 L 245.677 66.820 254.208 66.894 L 262.740 66.969 263.300 67.663 M161.704 86.796 C 162.539 87.028,162.710 87.218,163.079 88.329 C 163.310 89.027,163.670 89.738,163.877 89.910 C 164.084 90.082,164.433 90.839,164.652 91.593 C 164.871 92.346,165.214 93.097,165.413 93.263 C 165.613 93.429,165.912 93.993,166.077 94.516 C 166.242 95.038,166.673 95.906,167.035 96.443 C 167.915 97.747,168.156 99.932,167.474 100.430 C 166.866 100.875,120.499 100.951,119.672 100.509 C 118.941 100.118,118.990 98.268,119.762 97.122 C 120.088 96.639,120.560 95.699,120.812 95.033 C 121.064 94.368,121.430 93.691,121.626 93.529 C 121.821 93.367,122.059 92.771,122.154 92.204 C 122.250 91.637,122.597 90.854,122.926 90.463 C 123.255 90.072,123.652 89.279,123.808 88.700 C 124.129 87.508,124.703 86.889,125.648 86.717 C 127.050 86.462,160.767 86.536,161.704 86.796 M272.392 86.781 C 272.758 86.920,273.057 87.195,273.057 87.393 C 273.057 87.590,273.362 88.201,273.736 88.751 C 274.109 89.301,274.575 90.295,274.773 90.959 C 274.970 91.623,275.305 92.310,275.518 92.487 C 275.731 92.664,276.073 93.374,276.279 94.066 C 276.484 94.758,276.874 95.563,277.145 95.853 C 277.600 96.341,278.497 98.989,278.497 99.841 C 278.497 100.043,278.130 100.336,277.682 100.493 C 276.463 100.918,230.270 100.892,229.845 100.466 C 229.349 99.971,229.459 98.076,230.012 97.575 C 230.275 97.337,230.637 96.648,230.816 96.045 C 230.995 95.442,231.357 94.745,231.621 94.496 C 231.885 94.247,232.178 93.606,232.274 93.071 C 232.369 92.536,232.782 91.583,233.192 90.953 C 233.602 90.323,233.938 89.630,233.938 89.413 C 233.938 88.829,235.262 87.022,235.871 86.775 C 236.637 86.465,271.575 86.470,272.392 86.781 M171.313 106.356 C 171.845 106.718,172.280 107.166,172.280 107.353 C 172.280 107.840,173.000 109.216,173.451 109.590 C 173.662 109.765,173.834 110.089,173.834 110.311 C 173.834 110.976,174.451 112.531,174.922 113.053 C 175.165 113.322,175.442 113.903,175.539 114.346 C 175.637 114.788,175.978 115.501,176.297 115.930 C 177.128 117.044,177.358 118.569,176.790 119.197 C 176.357 119.676,175.437 119.689,143.502 119.689 C 108.540 119.689,109.841 119.732,109.846 118.570 C 109.849 117.833,110.403 116.361,110.724 116.238 C 110.917 116.164,111.151 115.698,111.244 115.202 C 111.337 114.706,111.695 113.885,112.040 113.376 C 112.385 112.867,112.747 112.031,112.843 111.518 C 112.939 111.005,113.277 110.272,113.594 109.891 C 113.911 109.509,114.251 108.864,114.351 108.457 C 114.569 107.565,115.251 106.477,115.592 106.477 C 115.729 106.477,116.015 106.302,116.229 106.088 C 116.569 105.748,119.948 105.699,143.482 105.699 L 170.346 105.699 171.313 106.356 M281.885 106.457 C 282.302 106.873,282.642 107.378,282.642 107.577 C 282.642 107.777,282.923 108.204,283.265 108.526 C 283.608 108.848,283.967 109.529,284.063 110.039 C 284.158 110.550,284.506 111.327,284.836 111.766 C 285.166 112.205,285.519 112.973,285.621 113.472 C 285.724 113.970,286.040 114.632,286.326 114.943 C 287.145 115.836,287.865 118.815,287.361 119.232 C 286.824 119.678,221.511 119.850,220.684 119.408 C 220.066 119.077,220.146 117.624,220.824 116.872 C 221.032 116.640,221.286 116.101,221.387 115.674 C 221.488 115.246,221.843 114.530,222.177 114.081 C 222.510 113.633,222.893 112.777,223.028 112.178 C 223.162 111.580,223.505 110.839,223.789 110.532 C 224.073 110.225,224.439 109.473,224.602 108.860 C 224.792 108.143,225.274 107.380,225.952 106.722 L 227.005 105.699 254.067 105.699 L 281.128 105.699 281.885 106.457 M180.321 125.453 C 181.787 126.193,182.049 127.480,181.010 128.842 C 180.663 129.297,180.300 130.030,180.203 130.473 C 180.106 130.915,179.792 131.529,179.505 131.836 C 179.218 132.144,178.816 132.962,178.610 133.654 C 178.405 134.346,178.060 135.059,177.844 135.238 C 177.627 135.418,177.324 136.066,177.170 136.678 C 176.602 138.934,179.914 138.721,144.079 138.802 C 108.022 138.882,110.758 139.041,109.938 136.816 C 109.696 136.159,109.334 135.429,109.135 135.193 C 108.936 134.957,108.618 134.252,108.430 133.627 C 108.242 133.002,107.784 132.042,107.412 131.494 C 107.040 130.946,106.736 130.303,106.736 130.066 C 106.736 129.829,106.444 129.239,106.088 128.756 C 104.987 127.264,105.433 125.888,107.254 125.162 C 107.673 124.995,120.503 124.898,143.533 124.887 L 179.165 124.870 180.321 125.453 M291.037 125.478 C 291.973 126.091,291.966 128.886,291.027 129.760 C 290.736 130.031,290.344 130.801,290.157 131.471 C 289.969 132.141,289.659 132.750,289.467 132.824 C 289.274 132.897,288.937 133.578,288.717 134.336 C 288.496 135.094,288.089 136.004,287.811 136.357 C 287.533 136.710,287.306 137.110,287.306 137.247 C 287.306 137.383,287.064 137.802,286.769 138.177 L 286.232 138.860 254.246 138.860 L 222.260 138.860 221.220 137.889 C 220.487 137.204,220.105 136.581,219.925 135.780 C 219.785 135.155,219.448 134.361,219.176 134.015 C 218.905 133.670,218.544 132.957,218.376 132.432 C 218.207 131.907,217.903 131.286,217.700 131.052 C 216.185 129.314,215.993 126.238,217.335 125.200 C 218.113 124.599,290.110 124.870,291.037 125.478 M172.092 144.560 C 172.901 145.196,172.601 147.079,171.417 148.806 C 171.036 149.360,170.723 150.001,170.721 150.230 C 170.718 150.460,170.368 151.161,169.943 151.788 C 169.519 152.415,169.169 153.114,169.166 153.342 C 169.162 153.761,167.994 155.705,167.245 156.541 C 166.636 157.222,120.397 157.246,119.645 156.566 C 119.384 156.330,119.171 156.003,119.171 155.839 C 119.171 155.675,118.882 155.150,118.530 154.672 C 118.177 154.193,117.707 153.180,117.486 152.419 C 117.265 151.659,116.977 151.036,116.846 151.036 C 116.715 151.036,116.353 150.337,116.041 149.482 C 115.730 148.627,115.388 147.927,115.282 147.927 C 114.884 147.927,114.370 146.004,114.479 144.923 C 114.561 144.114,115.818 144.076,143.553 144.059 C 171.060 144.042,171.442 144.048,172.092 144.560 M282.163 144.307 C 283.089 144.564,283.624 145.180,283.167 145.463 C 283.040 145.541,282.806 146.234,282.646 147.004 C 282.479 147.810,282.103 148.659,281.759 149.007 C 281.431 149.339,281.084 150.036,280.989 150.554 C 280.894 151.072,280.542 151.772,280.207 152.108 C 279.855 152.462,279.516 153.212,279.403 153.885 C 279.261 154.733,278.943 155.315,278.235 156.023 L 277.263 156.995 254.297 156.995 C 228.361 156.995,229.887 157.112,229.192 155.072 C 228.967 154.412,228.544 153.568,228.252 153.197 C 227.959 152.825,227.720 152.261,227.720 151.944 C 227.720 151.626,227.370 150.926,226.943 150.389 C 226.516 149.851,226.166 149.144,226.166 148.818 C 226.166 148.493,225.892 147.897,225.558 147.494 C 224.299 145.977,224.525 144.434,226.036 144.226 C 227.843 143.978,281.255 144.055,282.163 144.307 M163.472 162.510 C 164.257 162.906,164.445 163.862,163.863 164.505 C 163.628 164.764,163.277 165.505,163.083 166.149 C 162.889 166.794,162.489 167.563,162.194 167.858 C 161.899 168.153,161.658 168.621,161.658 168.900 C 161.658 169.549,161.125 170.725,160.830 170.725 C 160.705 170.725,160.390 171.223,160.130 171.830 C 159.271 173.833,160.395 173.696,144.109 173.782 C 127.669 173.868,127.624 173.863,126.971 171.988 C 126.820 171.557,126.403 170.855,126.043 170.427 C 125.683 169.999,125.389 169.390,125.389 169.073 C 125.389 168.755,125.054 168.036,124.646 167.473 C 124.238 166.911,123.827 166.025,123.732 165.505 C 123.638 164.985,123.390 164.417,123.180 164.243 C 122.646 163.800,122.704 163.321,123.365 162.704 C 124.071 162.047,162.186 161.862,163.472 162.510 M274.217 162.688 C 274.697 163.218,274.644 164.936,274.139 165.264 C 273.808 165.478,273.057 167.000,273.057 167.456 C 273.057 167.666,272.897 167.998,272.702 168.194 C 272.220 168.675,271.503 170.094,271.503 170.564 C 271.503 170.775,271.355 171.101,271.175 171.290 C 270.995 171.478,270.458 172.130,269.983 172.739 L 269.118 173.846 254.183 173.776 L 239.249 173.705 238.298 172.977 C 237.666 172.494,237.192 171.820,236.887 170.969 C 236.633 170.265,236.346 169.689,236.248 169.689 C 236.151 169.689,235.800 169.019,235.470 168.199 C 235.139 167.380,234.721 166.559,234.540 166.374 C 234.359 166.190,234.079 165.549,233.918 164.949 C 233.758 164.350,233.581 163.786,233.527 163.696 C 233.472 163.606,233.667 163.227,233.960 162.854 L 234.494 162.176 254.124 162.176 C 273.350 162.176,273.763 162.187,274.217 162.688 M155.326 178.762 C 155.974 179.009,156.011 179.104,155.854 180.122 C 155.615 181.670,154.922 183.761,154.546 184.067 C 154.371 184.210,154.022 184.947,153.771 185.705 C 153.520 186.463,153.162 187.142,152.976 187.213 C 152.790 187.285,152.560 187.655,152.464 188.037 C 152.057 189.671,152.240 189.637,143.670 189.637 C 135.103 189.637,134.920 189.606,134.588 188.095 C 134.496 187.674,134.193 187.041,133.914 186.687 C 133.636 186.333,133.233 185.547,133.019 184.939 C 132.804 184.331,132.471 183.653,132.278 183.433 C 131.368 182.392,130.986 179.376,131.701 178.875 C 132.365 178.410,154.127 178.306,155.326 178.762 M266.269 178.808 C 266.746 179.285,266.639 180.769,266.071 181.552 C 265.791 181.938,265.449 182.769,265.312 183.400 C 265.174 184.030,264.882 184.646,264.662 184.768 C 264.443 184.891,264.094 185.562,263.887 186.258 C 263.681 186.955,263.327 187.738,263.103 187.998 C 261.539 189.810,262.471 189.637,254.266 189.637 C 245.660 189.637,245.390 189.584,244.826 187.794 C 244.630 187.169,244.266 186.425,244.019 186.140 C 243.771 185.855,243.363 184.981,243.112 184.197 C 242.862 183.413,242.577 182.714,242.481 182.642 C 241.679 182.050,241.438 179.583,242.117 178.905 C 242.651 178.370,265.739 178.278,266.269 178.808 M148.288 195.683 L 149.013 196.158 148.459 196.747 C 148.155 197.071,147.783 197.790,147.633 198.344 C 147.483 198.899,147.128 199.604,146.844 199.911 C 146.561 200.218,146.218 200.964,146.082 201.569 C 145.946 202.174,145.556 203.001,145.215 203.406 C 144.874 203.811,144.525 204.365,144.438 204.638 C 144.073 205.789,142.978 205.555,142.344 204.190 C 142.102 203.667,141.754 203.063,141.571 202.850 C 141.389 202.636,141.112 201.981,140.956 201.394 C 140.800 200.807,140.455 200.049,140.190 199.710 C 139.925 199.371,139.622 198.802,139.517 198.446 C 139.411 198.089,139.113 197.429,138.855 196.977 C 138.355 196.105,138.546 195.684,139.637 195.250 C 140.630 194.854,147.554 195.201,148.288 195.683 M258.772 195.692 C 259.312 196.181,258.968 197.668,258.314 197.668 C 258.192 197.668,257.960 198.195,257.798 198.839 C 257.636 199.483,257.275 200.238,256.996 200.517 C 256.718 200.795,256.420 201.347,256.335 201.742 C 255.582 205.239,252.992 206.460,252.456 203.571 C 252.358 203.041,252.005 202.291,251.671 201.903 C 251.338 201.515,250.991 200.760,250.901 200.225 C 250.811 199.690,250.564 199.109,250.353 198.935 C 249.276 198.041,248.965 196.070,249.806 195.463 C 250.710 194.810,258.003 194.996,258.772 195.692 " stroke="none" fill="#1aa658" fill-rule="evenodd"></path><path id="path1" d="M0.000 129.534 L 0.000 259.067 200.000 259.067 L 400.000 259.067 400.000 129.534 L 400.000 0.000 200.000 0.000 L 0.000 0.000 0.000 129.534 M143.782 32.218 C 143.782 32.412,144.088 33.020,144.461 33.570 C 144.834 34.120,145.299 35.108,145.495 35.766 C 145.690 36.424,146.073 37.163,146.345 37.410 C 146.617 37.656,146.914 38.255,147.005 38.740 C 147.096 39.225,147.443 39.946,147.775 40.342 C 148.107 40.738,148.462 41.444,148.564 41.910 C 148.665 42.377,149.012 43.076,149.335 43.465 C 149.657 43.853,149.990 44.609,150.074 45.145 C 150.158 45.681,150.472 46.462,150.771 46.882 C 151.070 47.302,151.443 48.030,151.600 48.499 C 151.757 48.968,152.142 49.702,152.456 50.130 C 152.770 50.557,153.113 51.256,153.217 51.684 C 153.322 52.111,153.673 52.811,153.997 53.238 C 154.320 53.666,154.671 54.477,154.775 55.040 C 154.880 55.604,155.238 56.388,155.570 56.783 C 155.902 57.178,156.257 57.882,156.359 58.349 C 156.461 58.815,156.810 59.515,157.136 59.903 C 157.462 60.292,157.809 60.991,157.908 61.458 C 158.006 61.924,158.314 62.554,158.592 62.856 C 158.870 63.159,159.259 64.019,159.456 64.767 C 159.653 65.515,160.042 66.374,160.320 66.677 C 160.598 66.980,160.906 67.610,161.004 68.076 C 161.103 68.543,161.448 69.242,161.770 69.631 C 162.093 70.019,162.440 70.687,162.542 71.114 C 162.644 71.541,163.000 72.299,163.334 72.798 C 163.668 73.297,164.025 74.113,164.128 74.611 C 164.231 75.110,164.582 75.836,164.908 76.224 C 165.234 76.613,165.581 77.312,165.680 77.779 C 165.778 78.245,166.076 78.863,166.340 79.152 C 166.605 79.441,167.004 80.193,167.226 80.824 C 167.448 81.454,167.809 82.167,168.029 82.409 C 168.248 82.651,168.591 83.473,168.792 84.234 C 168.993 84.996,169.317 85.736,169.511 85.879 C 169.706 86.023,170.068 86.751,170.316 87.498 C 170.563 88.246,170.915 88.945,171.097 89.053 C 171.279 89.161,171.629 89.860,171.874 90.607 C 172.120 91.355,172.463 92.054,172.637 92.162 C 172.811 92.269,173.151 92.978,173.391 93.737 C 173.631 94.496,174.062 95.416,174.349 95.780 C 174.636 96.145,174.870 96.643,174.870 96.887 C 174.870 97.131,175.218 97.844,175.643 98.471 C 176.068 99.098,176.418 99.799,176.420 100.029 C 176.423 100.258,176.704 100.858,177.046 101.361 C 177.388 101.865,177.852 102.910,178.076 103.684 C 178.301 104.457,178.721 105.304,179.010 105.565 C 179.298 105.825,179.534 106.260,179.534 106.530 C 179.534 107.143,180.145 108.348,180.682 108.794 C 180.906 108.979,181.088 109.390,181.088 109.708 C 181.088 110.025,181.436 110.798,181.861 111.425 C 182.285 112.052,182.635 112.810,182.638 113.109 C 182.640 113.408,182.990 114.166,183.415 114.793 C 183.840 115.420,184.190 116.119,184.192 116.347 C 184.195 116.575,184.545 117.274,184.969 117.901 C 185.394 118.528,185.744 119.229,185.747 119.459 C 185.749 119.688,186.061 120.329,186.439 120.884 C 186.817 121.438,187.231 122.358,187.359 122.927 C 187.487 123.497,187.891 124.398,188.256 124.929 C 189.111 126.169,189.062 128.868,188.168 129.849 C 187.871 130.174,187.481 130.907,187.300 131.477 C 187.119 132.047,186.754 132.793,186.488 133.135 C 186.222 133.477,185.929 134.223,185.838 134.793 C 185.747 135.364,185.466 136.037,185.213 136.289 C 184.580 136.923,184.197 137.690,184.197 138.325 C 184.197 138.619,183.973 139.084,183.698 139.359 C 183.032 140.025,182.642 140.785,182.642 141.420 C 182.642 141.707,182.354 142.254,182.001 142.635 C 181.648 143.016,181.286 143.750,181.198 144.267 C 181.110 144.784,180.699 145.693,180.285 146.286 C 179.872 146.879,179.534 147.587,179.534 147.859 C 179.534 148.131,179.187 148.811,178.764 149.371 C 178.340 149.931,177.990 150.635,177.986 150.937 C 177.983 151.238,177.733 151.798,177.432 152.181 C 177.131 152.563,176.735 153.371,176.553 153.976 C 176.372 154.580,175.919 155.523,175.547 156.071 C 175.175 156.619,174.870 157.261,174.870 157.499 C 174.870 157.736,174.579 158.325,174.223 158.808 C 173.867 159.291,173.575 159.880,173.575 160.118 C 173.575 160.355,173.270 160.999,172.897 161.549 C 172.523 162.099,172.046 163.136,171.836 163.852 C 171.626 164.569,171.256 165.389,171.013 165.674 C 170.771 165.959,170.418 166.658,170.229 167.228 C 170.041 167.798,169.691 168.497,169.452 168.782 C 169.213 169.067,168.863 169.767,168.674 170.337 C 168.485 170.907,168.185 171.548,168.007 171.762 C 167.829 171.975,167.477 172.791,167.224 173.575 C 166.971 174.359,166.616 175.088,166.434 175.196 C 166.252 175.303,165.912 175.965,165.680 176.665 C 165.447 177.366,165.094 178.074,164.896 178.238 C 164.698 178.403,164.340 179.140,164.100 179.877 C 163.860 180.615,163.496 181.411,163.291 181.646 C 163.085 181.882,162.757 182.609,162.560 183.262 C 162.364 183.915,161.975 184.694,161.696 184.993 C 161.417 185.292,161.117 185.920,161.030 186.387 C 160.942 186.855,160.592 187.561,160.253 187.956 C 159.913 188.351,159.564 189.035,159.475 189.475 C 159.387 189.916,159.045 190.686,158.716 191.187 C 158.386 191.689,158.040 192.489,157.946 192.966 C 157.852 193.443,157.483 194.181,157.126 194.605 C 156.769 195.029,156.477 195.583,156.477 195.836 C 156.477 196.088,156.129 196.808,155.704 197.435 C 155.279 198.062,154.930 198.756,154.927 198.978 C 154.924 199.199,154.590 199.905,154.184 200.545 C 153.777 201.186,153.365 202.138,153.267 202.661 C 153.168 203.184,152.823 203.936,152.500 204.332 C 152.176 204.728,151.774 205.528,151.606 206.111 C 151.437 206.693,151.066 207.381,150.779 207.640 C 150.493 207.899,150.259 208.285,150.259 208.497 C 150.259 208.710,149.851 209.732,149.352 210.769 C 148.854 211.805,148.446 212.833,148.446 213.053 C 148.446 213.272,148.223 213.660,147.952 213.915 C 147.680 214.170,147.262 214.982,147.021 215.720 C 146.781 216.458,146.440 217.117,146.263 217.185 C 146.086 217.253,145.736 217.960,145.485 218.758 C 145.235 219.555,144.938 220.207,144.826 220.207 C 144.715 220.207,144.373 220.790,144.066 221.503 C 143.392 223.070,143.359 223.077,142.996 221.727 C 142.837 221.138,142.435 220.234,142.103 219.719 C 141.770 219.204,141.423 218.416,141.330 217.967 C 141.238 217.519,140.935 216.947,140.658 216.696 C 140.380 216.444,140.026 215.765,139.870 215.186 C 139.714 214.607,139.321 213.818,138.996 213.432 C 138.672 213.047,138.324 212.292,138.223 211.755 C 138.123 211.218,137.824 210.504,137.559 210.168 C 137.295 209.831,136.887 208.980,136.653 208.275 C 136.419 207.571,136.129 206.995,136.008 206.995 C 135.887 206.995,135.545 206.343,135.247 205.546 C 134.948 204.749,134.533 203.926,134.324 203.717 C 134.114 203.507,133.759 202.702,133.533 201.927 C 133.308 201.152,133.025 200.518,132.904 200.518 C 132.783 200.518,132.485 199.906,132.242 199.158 C 131.999 198.410,131.596 197.565,131.347 197.280 C 131.097 196.995,130.748 196.295,130.570 195.725 C 130.392 195.155,130.030 194.450,129.764 194.158 C 129.498 193.865,129.113 193.067,128.907 192.384 C 128.702 191.701,128.365 190.950,128.160 190.714 C 127.954 190.478,127.640 189.819,127.462 189.249 C 127.284 188.679,126.934 187.979,126.684 187.694 C 126.434 187.409,126.084 186.710,125.907 186.140 C 125.729 185.570,125.382 184.870,125.136 184.585 C 124.889 184.301,124.485 183.426,124.237 182.642 C 123.990 181.859,123.632 181.043,123.442 180.829 C 123.253 180.615,123.015 180.091,122.914 179.663 C 122.813 179.236,122.476 178.536,122.166 178.109 C 121.856 177.681,121.399 176.787,121.150 176.121 C 120.902 175.456,120.537 174.777,120.340 174.614 C 120.143 174.450,119.903 173.946,119.808 173.492 C 119.712 173.039,119.297 172.071,118.885 171.342 C 118.472 170.612,118.133 169.854,118.130 169.658 C 118.127 169.461,117.778 168.788,117.353 168.160 C 116.928 167.533,116.578 166.834,116.576 166.606 C 116.573 166.378,116.223 165.679,115.798 165.052 C 115.374 164.425,115.026 163.647,115.026 163.323 C 115.026 162.999,114.734 162.387,114.377 161.963 C 114.020 161.539,113.653 160.801,113.562 160.324 C 113.471 159.846,113.064 158.996,112.657 158.433 C 112.250 157.871,111.917 157.151,111.917 156.834 C 111.917 156.517,111.613 155.895,111.240 155.453 C 110.868 155.011,110.453 154.156,110.318 153.555 C 110.183 152.953,109.856 152.228,109.593 151.943 C 109.329 151.658,108.987 150.948,108.833 150.365 C 108.678 149.782,108.330 149.105,108.059 148.859 C 107.788 148.614,107.442 147.918,107.289 147.311 C 107.136 146.705,106.777 145.997,106.490 145.737 C 106.203 145.478,105.897 144.844,105.810 144.330 C 105.723 143.815,105.451 143.102,105.207 142.746 C 104.962 142.390,104.493 141.428,104.164 140.609 C 103.836 139.790,103.492 139.119,103.401 139.119 C 103.310 139.119,102.964 138.420,102.633 137.565 C 102.301 136.710,101.939 136.010,101.828 136.010 C 101.716 136.010,101.419 135.340,101.167 134.521 C 100.914 133.701,100.552 132.850,100.361 132.630 C 100.170 132.409,99.842 131.743,99.633 131.150 C 99.424 130.556,98.984 129.707,98.655 129.263 C 97.839 128.159,97.832 126.309,98.640 125.282 C 98.961 124.874,99.394 123.969,99.601 123.271 C 99.808 122.572,100.216 121.698,100.507 121.328 C 100.798 120.958,101.036 120.456,101.036 120.211 C 101.036 119.967,101.384 119.254,101.809 118.627 C 102.234 118.000,102.583 117.299,102.586 117.070 C 102.589 116.840,102.882 116.224,103.237 115.700 C 103.593 115.176,104.014 114.230,104.173 113.597 C 104.332 112.965,104.683 112.193,104.953 111.882 C 105.222 111.572,105.558 110.888,105.699 110.363 C 105.841 109.838,106.191 109.138,106.477 108.808 C 106.763 108.478,107.116 107.766,107.262 107.225 C 107.407 106.684,107.680 106.088,107.867 105.900 C 108.382 105.386,108.808 104.498,108.808 103.942 C 108.808 103.669,109.156 102.933,109.581 102.306 C 110.006 101.679,110.355 100.979,110.358 100.751 C 110.361 100.524,110.710 99.824,111.135 99.197 C 111.560 98.570,111.910 97.869,111.912 97.640 C 111.915 97.410,112.203 96.801,112.553 96.285 C 112.903 95.769,113.323 94.854,113.485 94.250 C 113.648 93.647,113.996 92.879,114.259 92.545 C 114.522 92.210,114.878 91.507,115.049 90.981 C 115.220 90.456,115.570 89.756,115.826 89.427 C 116.082 89.097,116.429 88.411,116.597 87.902 C 116.765 87.393,117.170 86.582,117.497 86.101 C 117.823 85.620,118.167 84.772,118.261 84.217 C 118.355 83.661,118.657 83.003,118.932 82.754 C 119.207 82.505,119.560 81.827,119.716 81.248 C 119.872 80.669,120.269 79.874,120.599 79.482 C 120.930 79.090,121.283 78.387,121.385 77.921 C 121.486 77.454,121.829 76.763,122.147 76.384 C 122.464 76.006,122.801 75.217,122.894 74.632 C 122.988 74.047,123.289 73.343,123.564 73.068 C 123.839 72.793,124.208 72.066,124.385 71.453 C 124.561 70.839,124.913 70.133,125.166 69.883 C 125.420 69.633,125.768 68.934,125.939 68.328 C 126.110 67.723,126.407 67.098,126.599 66.939 C 126.790 66.780,127.180 65.972,127.465 65.143 C 127.750 64.315,128.143 63.454,128.337 63.230 C 128.532 63.007,128.837 62.358,129.015 61.788 C 129.193 61.218,129.543 60.518,129.793 60.233 C 130.043 59.948,130.392 59.249,130.570 58.679 C 130.748 58.109,131.101 57.409,131.356 57.124 C 131.611 56.839,131.957 56.082,132.125 55.440 C 132.294 54.799,132.586 54.100,132.774 53.886 C 132.963 53.672,133.320 52.973,133.568 52.332 C 133.815 51.690,134.165 50.991,134.345 50.777 C 134.525 50.563,134.874 49.864,135.121 49.223 C 135.369 48.582,135.778 47.824,136.031 47.539 C 136.284 47.254,136.633 46.438,136.805 45.725 C 136.977 45.013,137.321 44.197,137.569 43.912 C 137.816 43.627,138.164 42.927,138.342 42.358 C 138.520 41.788,138.869 41.088,139.119 40.803 C 139.369 40.518,139.719 39.819,139.896 39.249 C 140.074 38.679,140.448 37.962,140.727 37.655 C 141.006 37.348,141.298 36.620,141.376 36.037 C 141.456 35.443,141.772 34.720,142.095 34.393 C 142.412 34.071,142.814 33.371,142.988 32.837 C 143.296 31.890,143.782 31.511,143.782 32.218 M254.423 32.915 C 254.917 33.267,255.299 33.882,255.553 34.737 C 255.763 35.447,256.166 36.352,256.448 36.747 C 256.730 37.143,257.045 37.809,257.148 38.228 C 257.252 38.647,257.600 39.339,257.922 39.767 C 258.245 40.194,258.595 40.894,258.700 41.321 C 258.805 41.749,259.157 42.451,259.482 42.881 C 259.808 43.311,260.188 44.167,260.326 44.784 C 260.464 45.400,260.808 46.155,261.090 46.462 C 261.372 46.770,261.681 47.394,261.778 47.851 C 261.874 48.307,262.181 48.970,262.459 49.323 C 262.737 49.677,263.130 50.436,263.333 51.010 C 263.535 51.584,263.937 52.378,264.225 52.775 C 264.513 53.172,264.861 54.013,264.999 54.643 C 265.137 55.273,265.431 55.890,265.652 56.014 C 265.873 56.137,266.236 56.865,266.458 57.630 C 266.681 58.395,267.026 59.084,267.226 59.160 C 267.425 59.237,267.768 59.903,267.987 60.641 C 268.206 61.380,268.565 62.115,268.785 62.276 C 269.005 62.436,269.349 63.190,269.549 63.950 C 269.750 64.710,270.083 65.467,270.290 65.632 C 270.498 65.798,270.864 66.544,271.105 67.291 C 271.346 68.038,271.692 68.738,271.874 68.846 C 272.056 68.953,272.406 69.653,272.651 70.400 C 272.897 71.147,273.252 71.847,273.441 71.954 C 273.631 72.062,273.979 72.821,274.217 73.640 C 274.454 74.459,274.804 75.286,274.996 75.477 C 275.187 75.668,275.487 76.306,275.664 76.895 C 275.840 77.483,276.179 78.174,276.417 78.430 C 276.655 78.685,276.991 79.300,277.164 79.795 C 277.337 80.291,277.753 81.105,278.089 81.605 C 278.425 82.104,278.773 82.929,278.861 83.438 C 278.949 83.947,279.312 84.757,279.666 85.237 C 280.021 85.718,280.311 86.304,280.311 86.540 C 280.311 86.776,280.659 87.482,281.083 88.109 C 281.508 88.736,281.858 89.435,281.861 89.663 C 281.863 89.891,282.213 90.590,282.638 91.217 C 283.063 91.845,283.412 92.602,283.415 92.901 C 283.418 93.201,283.767 93.958,284.192 94.585 C 284.617 95.212,284.970 95.959,284.977 96.244 C 284.983 96.528,285.335 97.220,285.759 97.779 C 286.182 98.339,286.528 98.993,286.528 99.233 C 286.528 99.473,286.838 100.122,287.216 100.676 C 287.594 101.230,288.006 102.137,288.132 102.691 C 288.258 103.245,288.593 103.994,288.877 104.355 C 289.161 104.716,289.518 105.509,289.671 106.117 C 289.825 106.725,290.171 107.423,290.442 107.668 C 290.713 107.913,291.062 108.587,291.218 109.166 C 291.374 109.745,291.767 110.534,292.092 110.920 C 292.416 111.306,292.763 112.057,292.863 112.590 C 292.963 113.122,293.312 113.918,293.639 114.357 C 293.965 114.796,294.312 115.492,294.410 115.903 C 294.507 116.315,294.857 117.014,295.187 117.458 C 295.517 117.901,295.867 118.601,295.964 119.012 C 296.062 119.423,296.414 120.123,296.747 120.566 C 297.080 121.010,297.439 121.781,297.544 122.280 C 297.649 122.778,298.003 123.506,298.331 123.896 C 299.482 125.270,299.482 129.137,298.330 130.506 C 297.998 130.900,297.608 131.655,297.462 132.184 C 297.316 132.713,296.965 133.471,296.682 133.868 C 296.399 134.265,296.039 135.066,295.883 135.648 C 295.726 136.229,295.367 136.915,295.084 137.171 C 294.801 137.427,294.495 138.036,294.403 138.526 C 294.311 139.015,293.970 139.731,293.646 140.116 C 293.322 140.502,292.927 141.296,292.770 141.881 C 292.612 142.466,292.315 143.085,292.109 143.256 C 291.903 143.427,291.556 144.180,291.338 144.929 C 291.120 145.678,290.728 146.572,290.468 146.915 C 290.207 147.258,289.790 148.083,289.543 148.749 C 289.295 149.415,288.923 150.099,288.717 150.270 C 288.511 150.442,288.342 150.713,288.342 150.875 C 288.342 151.036,287.950 151.983,287.472 152.980 C 286.993 153.977,286.524 155.116,286.429 155.512 C 286.334 155.907,286.032 156.455,285.758 156.729 C 285.485 157.003,285.132 157.705,284.974 158.290 C 284.817 158.875,284.463 159.579,284.188 159.853 C 283.913 160.128,283.556 160.880,283.394 161.524 C 283.232 162.167,283.018 162.694,282.919 162.694 C 282.657 162.694,281.865 164.439,281.865 165.016 C 281.865 165.286,281.715 165.661,281.531 165.849 C 280.824 166.573,280.311 167.496,280.311 168.044 C 280.311 168.359,280.157 168.770,279.970 168.958 C 279.356 169.574,278.822 170.581,278.671 171.408 C 278.589 171.855,278.225 172.658,277.862 173.193 C 277.499 173.728,277.200 174.353,277.197 174.583 C 277.195 174.812,276.845 175.513,276.420 176.140 C 275.995 176.767,275.648 177.480,275.648 177.724 C 275.648 177.969,275.418 178.460,275.138 178.816 C 274.858 179.172,274.438 180.033,274.205 180.729 C 273.971 181.425,273.626 182.170,273.437 182.383 C 273.249 182.597,272.901 183.355,272.665 184.067 C 272.429 184.780,272.076 185.488,271.882 185.641 C 271.687 185.795,271.337 186.494,271.104 187.196 C 270.872 187.897,270.515 188.602,270.311 188.762 C 270.107 188.922,269.756 189.680,269.530 190.446 C 269.305 191.212,268.957 192.024,268.756 192.249 C 268.556 192.475,268.209 193.196,267.985 193.853 C 267.762 194.509,267.419 195.178,267.223 195.341 C 267.028 195.503,266.680 196.201,266.451 196.891 C 266.221 197.582,265.872 198.281,265.674 198.446 C 265.475 198.610,265.117 199.348,264.877 200.085 C 264.637 200.822,264.276 201.615,264.073 201.848 C 263.871 202.080,263.583 202.716,263.433 203.260 C 263.282 203.804,262.895 204.605,262.572 205.039 C 262.249 205.474,261.905 206.166,261.808 206.577 C 261.710 206.988,261.358 207.688,261.025 208.131 C 260.692 208.575,260.333 209.346,260.227 209.845 C 260.121 210.343,259.758 211.157,259.421 211.653 C 259.084 212.150,258.808 212.744,258.808 212.975 C 258.808 213.205,258.461 213.907,258.036 214.534 C 257.611 215.161,257.261 215.861,257.259 216.091 C 257.256 216.320,256.949 216.958,256.575 217.508 C 256.202 218.058,255.735 219.052,255.538 219.716 C 255.293 220.540,254.896 221.140,254.291 221.602 C 253.315 222.347,253.348 222.374,252.985 220.563 C 252.896 220.118,252.537 219.366,252.189 218.894 C 251.840 218.421,251.554 217.840,251.554 217.602 C 251.554 217.365,251.246 216.717,250.869 216.163 C 250.492 215.609,250.071 214.749,249.933 214.251 C 249.795 213.754,249.421 213.036,249.101 212.656 C 248.781 212.276,248.446 211.508,248.357 210.949 C 248.268 210.389,247.956 209.716,247.664 209.452 C 247.372 209.188,247.009 208.476,246.856 207.870 C 246.704 207.264,246.357 206.567,246.086 206.322 C 245.815 206.077,245.467 205.399,245.313 204.816 C 245.158 204.233,244.799 203.505,244.514 203.198 C 244.230 202.891,243.887 202.146,243.751 201.543 C 243.616 200.940,243.276 200.156,242.997 199.801 C 242.717 199.446,242.360 198.678,242.203 198.095 C 242.046 197.512,241.638 196.702,241.296 196.295 C 240.954 195.889,240.674 195.352,240.674 195.102 C 240.674 194.853,240.336 194.133,239.924 193.503 C 239.512 192.873,239.089 191.951,238.983 191.453 C 238.878 190.956,238.528 190.198,238.207 189.769 C 237.885 189.341,237.543 188.619,237.447 188.166 C 237.351 187.712,237.111 187.208,236.914 187.044 C 236.717 186.881,236.353 186.202,236.105 185.537 C 235.857 184.871,235.440 184.044,235.177 183.699 C 234.915 183.354,234.575 182.573,234.421 181.964 C 234.268 181.354,233.863 180.477,233.522 180.015 C 233.181 179.552,232.902 178.981,232.902 178.745 C 232.902 178.509,232.554 177.803,232.129 177.176 C 231.704 176.549,231.354 175.852,231.352 175.627 C 231.349 175.402,231.010 174.703,230.598 174.073 C 230.186 173.443,229.765 172.519,229.663 172.021 C 229.561 171.522,229.272 170.881,229.019 170.596 C 228.767 170.311,228.416 169.611,228.238 169.041 C 228.061 168.472,227.711 167.772,227.461 167.487 C 227.211 167.202,226.862 166.503,226.684 165.933 C 226.506 165.363,226.162 164.663,225.919 164.378 C 225.676 164.093,225.329 163.335,225.148 162.694 C 224.967 162.053,224.665 161.354,224.476 161.140 C 224.287 160.926,223.882 160.081,223.576 159.262 C 223.270 158.442,222.927 157.772,222.814 157.772 C 222.701 157.772,222.353 157.073,222.042 156.218 C 221.730 155.363,221.368 154.663,221.237 154.663 C 221.106 154.663,220.815 154.030,220.590 153.257 C 220.365 152.483,219.965 151.576,219.701 151.240 C 219.437 150.904,219.094 150.157,218.938 149.579 C 218.782 149.001,218.433 148.327,218.163 148.082 C 217.892 147.837,217.545 147.140,217.393 146.534 C 217.240 145.928,216.880 145.220,216.594 144.960 C 216.307 144.701,215.996 144.067,215.903 143.553 C 215.698 142.420,215.105 141.192,214.763 141.192 C 214.626 141.192,214.440 140.727,214.349 140.158 C 214.258 139.589,213.906 138.825,213.566 138.458 C 213.227 138.092,212.851 137.362,212.732 136.837 C 212.612 136.311,212.205 135.427,211.827 134.873 C 211.449 134.319,211.140 133.599,211.140 133.274 C 211.140 132.948,210.860 132.350,210.518 131.943 C 210.176 131.536,209.768 130.730,209.612 130.151 C 209.456 129.572,209.095 128.886,208.809 128.628 C 208.092 127.979,208.146 126.721,208.938 125.648 C 209.294 125.165,209.585 124.519,209.585 124.211 C 209.585 123.904,209.933 123.140,210.358 122.513 C 210.783 121.886,211.136 121.140,211.142 120.855 C 211.149 120.570,211.501 119.879,211.924 119.319 C 212.348 118.759,212.694 118.052,212.694 117.746 C 212.694 117.441,213.041 116.733,213.464 116.173 C 213.888 115.613,214.240 114.864,214.246 114.508 C 214.253 114.152,214.606 113.347,215.031 112.720 C 215.455 112.093,215.805 111.394,215.808 111.166 C 215.810 110.938,216.160 110.238,216.585 109.611 C 217.010 108.984,217.360 108.285,217.362 108.057 C 217.365 107.829,217.705 107.144,218.118 106.535 C 218.531 105.925,218.945 104.974,219.039 104.420 C 219.132 103.867,219.437 103.207,219.716 102.955 C 219.995 102.702,220.349 101.999,220.501 101.393 C 220.654 100.787,221.000 100.090,221.271 99.845 C 221.542 99.600,221.891 98.926,222.047 98.347 C 222.203 97.768,222.596 96.978,222.921 96.593 C 223.245 96.207,223.587 95.381,223.681 94.758 C 223.774 94.134,224.073 93.434,224.346 93.201 C 224.618 92.968,224.985 92.274,225.162 91.660 C 225.338 91.046,225.690 90.340,225.944 90.090 C 226.197 89.840,226.547 89.141,226.721 88.536 C 226.895 87.930,227.244 87.231,227.498 86.981 C 227.751 86.732,228.100 86.032,228.273 85.427 C 228.446 84.822,228.742 84.142,228.932 83.916 C 229.121 83.691,229.467 82.933,229.699 82.232 C 229.932 81.532,230.325 80.725,230.573 80.440 C 230.821 80.155,231.170 79.456,231.347 78.886 C 231.525 78.316,231.878 77.617,232.132 77.332 C 232.386 77.047,232.741 76.289,232.922 75.648 C 233.102 75.006,233.395 74.307,233.572 74.093 C 233.749 73.880,234.097 73.180,234.345 72.539 C 234.593 71.898,234.942 71.198,235.122 70.984 C 235.302 70.771,235.651 70.071,235.899 69.430 C 236.147 68.789,236.515 68.071,236.716 67.835 C 236.918 67.600,237.246 66.865,237.445 66.203 C 237.644 65.542,238.028 64.686,238.297 64.301 C 238.567 63.916,238.935 63.135,239.115 62.565 C 239.295 61.995,239.646 61.295,239.896 61.010 C 240.146 60.725,240.496 60.026,240.674 59.456 C 240.851 58.886,241.205 58.187,241.460 57.902 C 241.714 57.617,242.055 56.886,242.216 56.277 C 242.378 55.669,242.796 54.749,243.146 54.233 C 243.496 53.717,243.782 53.020,243.782 52.684 C 243.782 52.348,244.007 51.848,244.281 51.574 C 244.956 50.899,245.337 50.146,245.337 49.487 C 245.337 49.185,245.628 48.669,245.984 48.339 C 246.340 48.010,246.703 47.345,246.792 46.862 C 246.880 46.379,247.221 45.576,247.550 45.078 C 247.878 44.579,248.272 43.694,248.425 43.111 C 248.577 42.528,248.934 41.842,249.217 41.586 C 249.499 41.330,249.803 40.735,249.891 40.264 C 249.980 39.794,250.334 39.026,250.679 38.558 C 251.024 38.091,251.432 37.243,251.585 36.674 C 251.738 36.105,252.085 35.358,252.356 35.014 C 252.626 34.670,252.969 33.937,253.118 33.386 C 253.432 32.220,253.442 32.217,254.423 32.915 M142.698 49.665 C 142.473 49.920,142.209 50.392,142.112 50.712 C 142.014 51.033,141.839 51.295,141.724 51.295 C 141.485 51.295,141.033 52.346,140.778 53.497 C 140.683 53.925,140.402 54.508,140.153 54.793 C 139.905 55.078,139.556 55.777,139.378 56.347 C 139.201 56.917,138.817 57.645,138.526 57.964 C 137.679 58.893,137.585 61.202,138.370 61.752 C 139.243 62.364,147.779 62.381,148.647 61.773 C 149.664 61.061,149.312 58.296,148.074 57.268 C 147.851 57.083,147.668 56.670,147.668 56.352 C 147.668 56.033,147.359 55.318,146.981 54.764 C 146.603 54.210,146.188 53.290,146.059 52.720 C 145.929 52.150,145.581 51.426,145.285 51.111 C 144.989 50.795,144.614 50.271,144.452 49.945 C 144.080 49.196,143.229 49.060,142.698 49.665 M252.750 50.104 C 252.520 50.589,252.332 51.090,252.332 51.219 C 252.332 51.348,252.052 51.833,251.710 52.296 C 251.368 52.760,251.012 53.544,250.919 54.039 C 250.827 54.533,250.467 55.357,250.120 55.868 C 249.773 56.379,249.381 57.190,249.248 57.670 C 249.116 58.150,248.823 58.727,248.597 58.953 C 247.983 59.567,248.044 61.564,248.688 61.908 C 249.514 62.350,257.863 62.253,258.975 61.789 C 259.862 61.418,259.895 61.358,259.731 60.429 C 259.456 58.867,258.795 57.014,258.437 56.802 C 258.255 56.694,257.908 56.003,257.666 55.266 C 257.424 54.529,257.070 53.797,256.880 53.639 C 256.690 53.481,256.397 52.809,256.230 52.145 C 255.625 49.740,253.511 48.500,252.750 50.104 M134.517 67.550 C 133.729 68.060,133.341 68.526,133.163 69.178 C 133.025 69.680,132.633 70.470,132.292 70.933 C 131.950 71.397,131.599 72.219,131.513 72.761 C 131.426 73.302,131.120 74.017,130.832 74.349 C 130.544 74.681,130.193 75.382,130.052 75.907 C 129.910 76.432,129.561 77.131,129.275 77.461 C 128.336 78.543,128.087 80.080,128.760 80.625 C 129.597 81.303,157.292 81.344,158.256 80.669 C 159.046 80.115,158.434 76.943,157.537 76.943 C 157.415 76.943,157.183 76.416,157.021 75.772 C 156.858 75.128,156.501 74.377,156.227 74.103 C 155.953 73.828,155.650 73.186,155.554 72.674 C 155.458 72.163,155.085 71.311,154.725 70.781 C 154.364 70.252,153.966 69.445,153.839 68.988 C 153.303 67.053,152.934 66.977,143.782 66.902 L 135.622 66.836 134.517 67.550 M244.616 67.880 C 243.975 68.522,243.387 69.447,243.130 70.222 C 242.896 70.926,242.601 71.503,242.473 71.503 C 242.346 71.503,242.058 72.136,241.834 72.909 C 241.609 73.683,241.214 74.586,240.957 74.917 C 240.700 75.248,240.350 75.948,240.178 76.473 C 240.007 76.999,239.639 77.718,239.361 78.072 C 238.528 79.131,238.444 80.171,239.151 80.667 C 239.884 81.180,266.669 81.312,268.473 80.811 C 269.679 80.477,269.925 79.950,269.227 79.197 C 268.937 78.883,268.573 78.150,268.418 77.567 C 268.263 76.984,267.906 76.298,267.623 76.042 C 267.340 75.786,267.035 75.183,266.945 74.703 C 266.855 74.223,266.578 73.568,266.330 73.249 C 266.082 72.930,265.730 72.202,265.549 71.632 C 265.197 70.528,264.219 68.801,263.300 67.663 L 262.740 66.969 254.208 66.894 L 245.677 66.820 244.616 67.880 M125.648 86.717 C 124.703 86.889,124.129 87.508,123.808 88.700 C 123.652 89.279,123.255 90.072,122.926 90.463 C 122.597 90.854,122.250 91.637,122.154 92.204 C 122.059 92.771,121.821 93.367,121.626 93.529 C 121.430 93.691,121.064 94.368,120.812 95.033 C 120.560 95.699,120.088 96.639,119.762 97.122 C 118.990 98.268,118.941 100.118,119.672 100.509 C 120.499 100.951,166.866 100.875,167.474 100.430 C 168.156 99.932,167.915 97.747,167.035 96.443 C 166.673 95.906,166.242 95.038,166.077 94.516 C 165.912 93.993,165.613 93.429,165.413 93.263 C 165.214 93.097,164.871 92.346,164.652 91.593 C 164.433 90.839,164.084 90.082,163.877 89.910 C 163.670 89.738,163.310 89.027,163.079 88.329 C 162.710 87.218,162.539 87.028,161.704 86.796 C 160.767 86.536,127.050 86.462,125.648 86.717 M235.871 86.775 C 235.262 87.022,233.938 88.829,233.938 89.413 C 233.938 89.630,233.602 90.323,233.192 90.953 C 232.782 91.583,232.369 92.536,232.274 93.071 C 232.178 93.606,231.885 94.247,231.621 94.496 C 231.357 94.745,230.995 95.442,230.816 96.045 C 230.637 96.648,230.275 97.337,230.012 97.575 C 229.459 98.076,229.349 99.971,229.845 100.466 C 230.270 100.892,276.463 100.918,277.682 100.493 C 278.130 100.336,278.497 100.043,278.497 99.841 C 278.497 98.989,277.600 96.341,277.145 95.853 C 276.874 95.563,276.484 94.758,276.279 94.066 C 276.073 93.374,275.731 92.664,275.518 92.487 C 275.305 92.310,274.970 91.623,274.773 90.959 C 274.575 90.295,274.109 89.301,273.736 88.751 C 273.362 88.201,273.057 87.590,273.057 87.393 C 273.057 87.195,272.758 86.920,272.392 86.781 C 271.575 86.470,236.637 86.465,235.871 86.775 M116.229 106.088 C 116.015 106.302,115.729 106.477,115.592 106.477 C 115.251 106.477,114.569 107.565,114.351 108.457 C 114.251 108.864,113.911 109.509,113.594 109.891 C 113.277 110.272,112.939 111.005,112.843 111.518 C 112.747 112.031,112.385 112.867,112.040 113.376 C 111.695 113.885,111.337 114.706,111.244 115.202 C 111.151 115.698,110.917 116.164,110.724 116.238 C 110.403 116.361,109.849 117.833,109.846 118.570 C 109.841 119.732,108.540 119.689,143.502 119.689 C 175.437 119.689,176.357 119.676,176.790 119.197 C 177.358 118.569,177.128 117.044,176.297 115.930 C 175.978 115.501,175.637 114.788,175.539 114.346 C 175.442 113.903,175.165 113.322,174.922 113.053 C 174.451 112.531,173.834 110.976,173.834 110.311 C 173.834 110.089,173.662 109.765,173.451 109.590 C 173.000 109.216,172.280 107.840,172.280 107.353 C 172.280 107.166,171.845 106.718,171.313 106.356 L 170.346 105.699 143.482 105.699 C 119.948 105.699,116.569 105.748,116.229 106.088 M225.952 106.722 C 225.274 107.380,224.792 108.143,224.602 108.860 C 224.439 109.473,224.073 110.225,223.789 110.532 C 223.505 110.839,223.162 111.580,223.028 112.178 C 222.893 112.777,222.510 113.633,222.177 114.081 C 221.843 114.530,221.488 115.246,221.387 115.674 C 221.286 116.101,221.032 116.640,220.824 116.872 C 220.146 117.624,220.066 119.077,220.684 119.408 C 221.511 119.850,286.824 119.678,287.361 119.232 C 287.865 118.815,287.145 115.836,286.326 114.943 C 286.040 114.632,285.724 113.970,285.621 113.472 C 285.519 112.973,285.166 112.205,284.836 111.766 C 284.506 111.327,284.158 110.550,284.063 110.039 C 283.967 109.529,283.608 108.848,283.265 108.526 C 282.923 108.204,282.642 107.777,282.642 107.577 C 282.642 107.378,282.302 106.873,281.885 106.457 L 281.128 105.699 254.067 105.699 L 227.005 105.699 225.952 106.722 M107.254 125.162 C 105.433 125.888,104.987 127.264,106.088 128.756 C 106.444 129.239,106.736 129.829,106.736 130.066 C 106.736 130.303,107.040 130.946,107.412 131.494 C 107.784 132.042,108.242 133.002,108.430 133.627 C 108.618 134.252,108.936 134.957,109.135 135.193 C 109.334 135.429,109.696 136.159,109.938 136.816 C 110.758 139.041,108.022 138.882,144.079 138.802 C 179.914 138.721,176.602 138.934,177.170 136.678 C 177.324 136.066,177.627 135.418,177.844 135.238 C 178.060 135.059,178.405 134.346,178.610 133.654 C 178.816 132.962,179.218 132.144,179.505 131.836 C 179.792 131.529,180.106 130.915,180.203 130.473 C 180.300 130.030,180.663 129.297,181.010 128.842 C 182.049 127.480,181.787 126.193,180.321 125.453 L 179.165 124.870 143.533 124.887 C 120.503 124.898,107.673 124.995,107.254 125.162 M217.335 125.200 C 215.993 126.238,216.185 129.314,217.700 131.052 C 217.903 131.286,218.207 131.907,218.376 132.432 C 218.544 132.957,218.905 133.670,219.176 134.015 C 219.448 134.361,219.785 135.155,219.925 135.780 C 220.105 136.581,220.487 137.204,221.220 137.889 L 222.260 138.860 254.246 138.860 L 286.232 138.860 286.769 138.177 C 287.064 137.802,287.306 137.383,287.306 137.247 C 287.306 137.110,287.533 136.710,287.811 136.357 C 288.089 136.004,288.496 135.094,288.717 134.336 C 288.937 133.578,289.274 132.897,289.467 132.824 C 289.659 132.750,289.969 132.141,290.157 131.471 C 290.344 130.801,290.736 130.031,291.027 129.760 C 291.966 128.886,291.973 126.091,291.037 125.478 C 290.110 124.870,218.113 124.599,217.335 125.200 M115.091 144.358 C 114.770 144.512,114.495 144.767,114.479 144.923 C 114.370 146.004,114.884 147.927,115.282 147.927 C 115.388 147.927,115.730 148.627,116.041 149.482 C 116.353 150.337,116.715 151.036,116.846 151.036 C 116.977 151.036,117.265 151.659,117.486 152.419 C 117.707 153.180,118.177 154.193,118.530 154.672 C 118.882 155.150,119.171 155.675,119.171 155.839 C 119.171 156.003,119.384 156.330,119.645 156.566 C 120.397 157.246,166.636 157.222,167.245 156.541 C 167.994 155.705,169.162 153.761,169.166 153.342 C 169.169 153.114,169.519 152.415,169.943 151.788 C 170.368 151.161,170.718 150.460,170.721 150.230 C 170.723 150.001,171.036 149.360,171.417 148.806 C 172.601 147.079,172.901 145.196,172.092 144.560 C 171.318 143.951,116.339 143.756,115.091 144.358 M226.036 144.226 C 224.525 144.434,224.299 145.977,225.558 147.494 C 225.892 147.897,226.166 148.493,226.166 148.818 C 226.166 149.144,226.516 149.851,226.943 150.389 C 227.370 150.926,227.720 151.626,227.720 151.944 C 227.720 152.261,227.959 152.825,228.252 153.197 C 228.544 153.568,228.967 154.412,229.192 155.072 C 229.887 157.112,228.361 156.995,254.297 156.995 L 277.263 156.995 278.235 156.023 C 278.943 155.315,279.261 154.733,279.403 153.885 C 279.516 153.212,279.855 152.462,280.207 152.108 C 280.542 151.772,280.894 151.072,280.989 150.554 C 281.084 150.036,281.431 149.339,281.759 149.007 C 282.103 148.659,282.479 147.810,282.646 147.004 C 282.806 146.234,283.040 145.541,283.167 145.463 C 283.624 145.180,283.089 144.564,282.163 144.307 C 281.255 144.055,227.843 143.978,226.036 144.226 M123.365 162.704 C 122.704 163.321,122.646 163.800,123.180 164.243 C 123.390 164.417,123.638 164.985,123.732 165.505 C 123.827 166.025,124.238 166.911,124.646 167.473 C 125.054 168.036,125.389 168.755,125.389 169.073 C 125.389 169.390,125.683 169.999,126.043 170.427 C 126.403 170.855,126.820 171.557,126.971 171.988 C 127.624 173.863,127.669 173.868,144.109 173.782 C 160.395 173.696,159.271 173.833,160.130 171.830 C 160.390 171.223,160.705 170.725,160.830 170.725 C 161.125 170.725,161.658 169.549,161.658 168.900 C 161.658 168.621,161.899 168.153,162.194 167.858 C 162.489 167.563,162.889 166.794,163.083 166.149 C 163.277 165.505,163.628 164.764,163.863 164.505 C 164.445 163.862,164.257 162.906,163.472 162.510 C 162.186 161.862,124.071 162.047,123.365 162.704 M233.960 162.854 C 233.667 163.227,233.472 163.606,233.527 163.696 C 233.581 163.786,233.758 164.350,233.918 164.949 C 234.079 165.549,234.359 166.190,234.540 166.374 C 234.721 166.559,235.139 167.380,235.470 168.199 C 235.800 169.019,236.151 169.689,236.248 169.689 C 236.346 169.689,236.633 170.265,236.887 170.969 C 237.192 171.820,237.666 172.494,238.298 172.977 L 239.249 173.705 254.183 173.776 L 269.118 173.846 269.983 172.739 C 270.458 172.130,270.995 171.478,271.175 171.290 C 271.355 171.101,271.503 170.775,271.503 170.564 C 271.503 170.094,272.220 168.675,272.702 168.194 C 272.897 167.998,273.057 167.666,273.057 167.456 C 273.057 167.000,273.808 165.478,274.139 165.264 C 274.644 164.936,274.697 163.218,274.217 162.688 C 273.763 162.187,273.350 162.176,254.124 162.176 L 234.494 162.176 233.960 162.854 M131.701 178.875 C 130.986 179.376,131.368 182.392,132.278 183.433 C 132.471 183.653,132.804 184.331,133.019 184.939 C 133.233 185.547,133.636 186.333,133.914 186.687 C 134.193 187.041,134.496 187.674,134.588 188.095 C 134.920 189.606,135.103 189.637,143.670 189.637 C 152.240 189.637,152.057 189.671,152.464 188.037 C 152.560 187.655,152.790 187.285,152.976 187.213 C 153.162 187.142,153.520 186.463,153.771 185.705 C 154.022 184.947,154.371 184.210,154.546 184.067 C 154.922 183.761,155.615 181.670,155.854 180.122 C 156.011 179.104,155.974 179.009,155.326 178.762 C 154.127 178.306,132.365 178.410,131.701 178.875 M242.117 178.905 C 241.438 179.583,241.679 182.050,242.481 182.642 C 242.577 182.714,242.862 183.413,243.112 184.197 C 243.363 184.981,243.771 185.855,244.019 186.140 C 244.266 186.425,244.630 187.169,244.826 187.794 C 245.390 189.584,245.660 189.637,254.266 189.637 C 262.471 189.637,261.539 189.810,263.103 187.998 C 263.327 187.738,263.681 186.955,263.887 186.258 C 264.094 185.562,264.443 184.891,264.662 184.768 C 264.882 184.646,265.174 184.030,265.312 183.400 C 265.449 182.769,265.791 181.938,266.071 181.552 C 266.639 180.769,266.746 179.285,266.269 178.808 C 265.739 178.278,242.651 178.370,242.117 178.905 M139.637 195.250 C 138.546 195.684,138.355 196.105,138.855 196.977 C 139.113 197.429,139.411 198.089,139.517 198.446 C 139.622 198.802,139.925 199.371,140.190 199.710 C 140.455 200.049,140.800 200.807,140.956 201.394 C 141.112 201.981,141.389 202.636,141.571 202.850 C 141.754 203.063,142.102 203.667,142.344 204.190 C 142.978 205.555,144.073 205.789,144.438 204.638 C 144.525 204.365,144.874 203.811,145.215 203.406 C 145.556 203.001,145.946 202.174,146.082 201.569 C 146.218 200.964,146.561 200.218,146.844 199.911 C 147.128 199.604,147.483 198.899,147.633 198.344 C 147.783 197.790,148.155 197.071,148.459 196.747 L 149.013 196.158 148.288 195.683 C 147.554 195.201,140.630 194.854,139.637 195.250 M249.806 195.463 C 248.965 196.070,249.276 198.041,250.353 198.935 C 250.564 199.109,250.811 199.690,250.901 200.225 C 250.991 200.760,251.338 201.515,251.671 201.903 C 252.005 202.291,252.358 203.041,252.456 203.571 C 252.992 206.460,255.582 205.239,256.335 201.742 C 256.420 201.347,256.718 200.795,256.996 200.517 C 257.275 200.238,257.636 199.483,257.798 198.839 C 257.960 198.195,258.192 197.668,258.314 197.668 C 258.968 197.668,259.312 196.181,258.772 195.692 C 258.003 194.996,250.710 194.810,249.806 195.463 " stroke="none" fill="#ffffff" fill-rule="evenodd"></path></g></svg>