<svg id="svg" version="1.1" xmlns="http://www.w3.org/2000/svg" xmlns:xlink="http://www.w3.org/1999/xlink" width="400" height="258.91472868217056" viewBox="0, 0, 400,258.91472868217056"><g id="svgg"><path id="path0" d="M200.188 40.828 C 200.077 40.941,199.028 41.115,197.856 41.216 C 193.977 41.550,190.566 42.176,188.930 42.854 C 188.042 43.222,187.108 43.523,186.853 43.523 C 186.598 43.523,185.984 43.796,185.488 44.129 C 184.991 44.462,184.201 44.866,183.732 45.026 C 183.263 45.187,182.563 45.540,182.178 45.811 C 181.792 46.083,181.227 46.382,180.923 46.477 C 180.618 46.571,180.081 46.915,179.729 47.241 C 179.378 47.567,178.735 47.981,178.302 48.160 C 177.062 48.674,169.171 56.097,169.171 56.751 C 169.171 56.858,168.763 57.434,168.264 58.031 C 167.766 58.628,167.358 59.260,167.358 59.435 C 167.358 59.611,167.076 60.019,166.732 60.342 C 166.388 60.665,166.032 61.226,165.941 61.588 C 165.850 61.951,165.502 62.610,165.167 63.054 C 164.832 63.497,164.441 64.294,164.297 64.824 C 164.153 65.354,163.802 66.116,163.517 66.517 C 163.231 66.918,162.915 67.708,162.813 68.273 C 162.712 68.838,162.393 69.825,162.104 70.466 C 161.815 71.108,161.362 73.031,161.098 74.741 C 160.833 76.451,160.504 78.549,160.365 79.404 C 160.210 80.366,160.113 98.391,160.110 126.684 L 160.106 172.409 160.894 176.942 C 161.327 179.435,161.852 181.734,162.060 182.051 C 162.268 182.368,162.568 183.243,162.726 183.995 C 162.885 184.747,163.351 186.004,163.761 186.788 C 164.171 187.571,164.507 188.359,164.507 188.539 C 164.508 188.718,164.858 189.347,165.285 189.937 C 165.712 190.528,166.062 191.114,166.062 191.241 C 166.062 191.539,169.195 196.099,169.990 196.958 C 171.843 198.962,174.439 201.539,175.402 202.332 C 177.635 204.168,177.866 204.339,178.667 204.750 C 179.117 204.981,179.650 205.335,179.852 205.537 C 180.054 205.739,180.745 206.144,181.388 206.436 C 182.032 206.729,182.708 207.150,182.891 207.371 C 183.074 207.591,183.390 207.772,183.592 207.772 C 183.794 207.772,184.683 208.104,185.568 208.510 C 186.452 208.915,187.934 209.453,188.860 209.705 C 189.786 209.957,190.850 210.319,191.224 210.511 C 191.598 210.703,193.171 210.941,194.721 211.039 C 196.271 211.137,197.991 211.375,198.543 211.567 C 199.820 212.012,201.129 212.008,203.886 211.549 C 205.097 211.347,207.053 211.106,208.233 211.013 C 209.413 210.920,211.181 210.563,212.162 210.221 C 213.142 209.878,214.507 209.472,215.194 209.318 C 215.880 209.164,216.625 208.873,216.848 208.671 C 217.071 208.469,217.717 208.140,218.283 207.941 C 218.849 207.741,219.763 207.272,220.314 206.898 C 220.865 206.524,221.454 206.218,221.622 206.218 C 221.791 206.218,222.386 205.871,222.946 205.448 C 223.506 205.024,224.104 204.674,224.275 204.670 C 224.446 204.666,224.679 204.503,224.793 204.307 C 224.907 204.111,225.816 203.332,226.813 202.575 C 228.730 201.121,230.705 199.207,231.995 197.552 C 232.834 196.476,234.234 194.745,234.938 193.912 C 235.179 193.627,235.529 193.023,235.717 192.571 C 235.904 192.118,236.276 191.550,236.542 191.309 C 236.809 191.067,237.163 190.447,237.329 189.930 C 237.495 189.413,237.778 188.815,237.959 188.601 C 238.140 188.387,238.466 187.688,238.684 187.047 C 238.901 186.405,239.364 185.240,239.711 184.456 C 240.059 183.672,240.429 182.450,240.533 181.739 C 240.638 181.029,240.870 180.154,241.048 179.796 C 242.105 177.676,242.098 177.985,242.098 126.425 C 242.098 75.034,242.096 74.892,241.061 72.798 C 240.885 72.442,240.610 71.393,240.450 70.468 C 240.290 69.542,239.940 68.488,239.672 68.126 C 239.404 67.763,239.097 67.063,238.990 66.570 C 238.685 65.166,235.610 59.488,234.716 58.679 C 234.430 58.421,234.194 58.082,234.191 57.926 C 234.188 57.770,233.789 57.176,233.305 56.606 C 232.820 56.036,232.095 55.177,231.691 54.697 C 230.213 52.935,227.476 50.379,226.036 49.416 C 225.466 49.035,224.534 48.377,223.964 47.953 C 221.620 46.211,216.695 43.662,215.120 43.376 C 214.569 43.276,213.653 42.957,213.083 42.667 C 212.129 42.182,210.732 41.924,205.052 41.181 C 201.261 40.685,200.390 40.622,200.188 40.828 " stroke="none" fill="#04ac54" fill-rule="evenodd"></path><path id="path1" d="M0.000 129.534 L 0.000 259.067 200.000 259.067 L 400.000 259.067 400.000 129.534 L 400.000 0.000 200.000 0.000 L 0.000 0.000 0.000 129.534 M205.052 41.181 C 210.732 41.924,212.129 42.182,213.083 42.667 C 213.653 42.957,214.569 43.276,215.120 43.376 C 215.975 43.531,217.883 44.360,219.819 45.416 C 221.610 46.394,223.061 47.282,223.964 47.953 C 224.534 48.377,225.466 49.035,226.036 49.416 C 227.476 50.379,230.213 52.935,231.691 54.697 C 232.095 55.177,232.820 56.036,233.305 56.606 C 233.789 57.176,234.188 57.770,234.191 57.926 C 234.194 58.082,234.430 58.421,234.716 58.679 C 235.610 59.488,238.685 65.166,238.990 66.570 C 239.097 67.063,239.404 67.763,239.672 68.126 C 239.940 68.488,240.290 69.542,240.450 70.468 C 240.610 71.393,240.885 72.442,241.061 72.798 C 242.096 74.892,242.098 75.034,242.098 126.425 C 242.098 177.985,242.105 177.676,241.048 179.796 C 240.870 180.154,240.638 181.029,240.533 181.739 C 240.429 182.450,240.059 183.672,239.711 184.456 C 239.364 185.240,238.901 186.405,238.684 187.047 C 238.466 187.688,238.140 188.387,237.959 188.601 C 237.778 188.815,237.495 189.413,237.329 189.930 C 237.163 190.447,236.809 191.067,236.542 191.309 C 236.276 191.550,235.904 192.118,235.717 192.571 C 235.529 193.023,235.179 193.627,234.938 193.912 C 234.234 194.745,232.834 196.476,231.995 197.552 C 230.705 199.207,228.730 201.121,226.813 202.575 C 225.816 203.332,224.907 204.111,224.793 204.307 C 224.679 204.503,224.446 204.666,224.275 204.670 C 224.104 204.674,223.506 205.024,222.946 205.448 C 222.386 205.871,221.791 206.218,221.622 206.218 C 221.454 206.218,220.865 206.524,220.314 206.898 C 219.763 207.272,218.849 207.741,218.283 207.941 C 217.717 208.140,217.071 208.469,216.848 208.671 C 216.625 208.873,215.880 209.164,215.194 209.318 C 214.507 209.472,213.142 209.878,212.162 210.221 C 211.181 210.563,209.413 210.920,208.233 211.013 C 207.053 211.106,205.097 211.347,203.886 211.549 C 201.129 212.008,199.820 212.012,198.543 211.567 C 197.991 211.375,196.271 211.137,194.721 211.039 C 193.171 210.941,191.598 210.703,191.224 210.511 C 190.850 210.319,189.786 209.957,188.860 209.705 C 187.934 209.453,186.452 208.915,185.568 208.510 C 184.683 208.104,183.794 207.772,183.592 207.772 C 183.390 207.772,183.074 207.591,182.891 207.371 C 182.708 207.150,182.032 206.729,181.388 206.436 C 180.745 206.144,180.054 205.739,179.852 205.537 C 179.650 205.335,179.117 204.981,178.667 204.750 C 177.866 204.339,177.635 204.168,175.402 202.332 C 174.439 201.539,171.843 198.962,169.990 196.958 C 169.195 196.099,166.062 191.539,166.062 191.241 C 166.062 191.114,165.712 190.528,165.285 189.937 C 164.858 189.347,164.508 188.718,164.507 188.539 C 164.507 188.359,164.171 187.571,163.761 186.788 C 163.351 186.004,162.885 184.747,162.726 183.995 C 162.568 183.243,162.268 182.368,162.060 182.051 C 161.852 181.734,161.327 179.435,160.894 176.942 L 160.106 172.409 160.110 126.684 C 160.113 98.391,160.210 80.366,160.365 79.404 C 160.504 78.549,160.833 76.451,161.098 74.741 C 161.362 73.031,161.815 71.108,162.104 70.466 C 162.393 69.825,162.712 68.838,162.813 68.273 C 162.915 67.708,163.231 66.918,163.517 66.517 C 163.802 66.116,164.153 65.354,164.297 64.824 C 164.441 64.294,164.832 63.497,165.167 63.054 C 165.502 62.610,165.850 61.951,165.941 61.588 C 166.032 61.226,166.388 60.665,166.732 60.342 C 167.076 60.019,167.358 59.611,167.358 59.435 C 167.358 59.260,167.766 58.628,168.264 58.031 C 168.763 57.434,169.171 56.858,169.171 56.751 C 169.171 56.097,177.062 48.674,178.302 48.160 C 178.735 47.981,179.378 47.567,179.729 47.241 C 180.081 46.915,180.618 46.571,180.923 46.477 C 181.227 46.382,181.792 46.083,182.178 45.811 C 182.563 45.540,183.263 45.187,183.732 45.026 C 184.201 44.866,184.991 44.462,185.488 44.129 C 185.984 43.796,186.598 43.523,186.853 43.523 C 187.108 43.523,188.042 43.222,188.930 42.854 C 190.566 42.176,193.977 41.550,197.856 41.216 C 199.028 41.115,200.077 40.941,200.188 40.828 C 200.390 40.622,201.261 40.685,205.052 41.181 " stroke="none" fill="#fcfcfc" fill-rule="evenodd"></path></g></svg>