<svg id="svg" version="1.1" xmlns="http://www.w3.org/2000/svg" xmlns:xlink="http://www.w3.org/1999/xlink" width="400" height="258.91472868217056" viewBox="0, 0, 400,258.91472868217056"><g id="svgg"><path id="path0" d="M137.824 46.258 C 137.468 46.460,136.747 46.626,136.223 46.628 C 134.262 46.636,131.238 47.198,130.644 47.666 C 130.313 47.926,129.456 48.220,128.741 48.318 C 127.949 48.427,127.150 48.741,126.701 49.119 C 126.294 49.461,125.803 49.743,125.610 49.747 C 125.082 49.755,123.580 50.544,119.949 52.720 C 119.473 53.005,118.737 53.559,118.312 53.951 C 117.887 54.343,117.401 54.663,117.231 54.663 C 117.061 54.663,116.790 54.955,116.627 55.311 C 116.465 55.667,116.218 55.959,116.078 55.959 C 115.625 55.959,110.734 61.129,110.313 62.052 C 110.152 62.405,109.925 62.694,109.808 62.694 C 109.692 62.694,109.348 63.190,109.044 63.795 C 108.741 64.401,108.229 65.188,107.906 65.544 C 107.584 65.900,107.238 66.541,107.137 66.969 C 107.036 67.396,106.733 67.951,106.465 68.201 C 106.197 68.450,105.846 69.146,105.684 69.746 C 105.523 70.346,105.174 71.111,104.910 71.447 C 104.646 71.783,104.354 72.603,104.261 73.270 C 104.168 73.936,103.800 75.112,103.444 75.883 C 102.946 76.960,102.718 78.096,102.459 80.805 C 102.273 82.742,101.994 84.734,101.838 85.231 C 101.437 86.510,101.437 176.087,101.837 177.120 C 101.993 177.522,102.277 179.402,102.469 181.299 C 102.723 183.809,102.960 184.988,103.337 185.628 C 103.622 186.111,103.980 187.182,104.132 188.007 C 104.283 188.833,104.631 189.811,104.904 190.182 C 105.177 190.554,105.536 191.370,105.702 191.996 C 105.869 192.622,106.214 193.368,106.469 193.653 C 106.724 193.938,107.173 194.725,107.467 195.402 C 107.761 196.078,108.117 196.632,108.258 196.632 C 108.399 196.632,108.596 196.894,108.696 197.215 C 108.795 197.536,109.240 198.233,109.685 198.764 C 111.397 200.811,111.895 201.482,112.199 202.149 C 112.372 202.529,112.712 202.903,112.953 202.979 C 113.195 203.056,113.525 203.408,113.686 203.761 C 113.847 204.115,114.148 204.404,114.355 204.404 C 114.562 204.404,114.981 204.754,115.285 205.181 C 115.589 205.609,116.000 205.959,116.196 205.959 C 116.393 205.959,116.648 206.113,116.762 206.302 C 116.876 206.490,117.377 206.927,117.876 207.273 C 118.374 207.619,119.165 208.222,119.633 208.614 C 120.101 209.006,120.641 209.326,120.832 209.326 C 121.024 209.326,121.330 209.507,121.513 209.728 C 121.696 209.949,122.381 210.370,123.035 210.664 C 123.688 210.957,124.398 211.349,124.611 211.534 C 124.825 211.719,125.641 212.073,126.425 212.321 C 127.209 212.569,128.035 212.930,128.261 213.123 C 128.487 213.317,129.653 213.697,130.851 213.968 C 132.050 214.239,133.556 214.658,134.197 214.898 C 136.797 215.875,149.280 215.679,151.309 214.630 C 151.697 214.429,152.932 214.077,154.052 213.846 C 155.172 213.616,156.273 213.262,156.498 213.060 C 156.724 212.858,157.497 212.517,158.216 212.304 C 158.935 212.090,159.668 211.742,159.844 211.530 C 160.020 211.317,160.601 211.026,161.135 210.882 C 161.669 210.738,162.546 210.271,163.084 209.844 C 163.621 209.417,164.203 209.067,164.376 209.067 C 164.549 209.067,165.029 208.769,165.441 208.404 C 165.854 208.040,166.716 207.334,167.358 206.835 C 168.995 205.562,173.575 201.005,173.575 200.648 C 173.575 200.486,173.867 200.099,174.223 199.789 C 174.579 199.480,174.870 199.059,174.870 198.855 C 174.870 198.650,175.155 198.259,175.503 197.985 C 175.851 197.712,176.211 197.188,176.303 196.822 C 176.395 196.456,176.810 195.776,177.225 195.311 C 177.640 194.847,177.979 194.272,177.979 194.034 C 177.979 193.796,178.327 193.088,178.752 192.461 C 179.177 191.834,179.526 191.092,179.529 190.812 C 179.535 190.120,180.330 188.083,180.593 188.083 C 180.710 188.083,180.872 187.646,180.954 187.111 C 181.329 184.662,181.689 183.239,182.084 182.642 C 182.790 181.576,182.739 80.394,182.031 78.917 C 181.766 78.364,181.376 76.907,181.164 75.679 C 180.953 74.450,180.691 73.387,180.584 73.316 C 180.232 73.083,179.815 72.108,179.537 70.872 C 179.388 70.204,179.040 69.416,178.765 69.120 C 178.489 68.825,178.192 68.255,178.104 67.854 C 178.016 67.453,177.602 66.695,177.184 66.170 C 176.767 65.644,176.425 65.054,176.425 64.858 C 176.425 64.663,176.183 64.300,175.886 64.052 C 175.590 63.804,175.174 63.271,174.963 62.869 C 173.643 60.360,170.049 56.682,166.059 53.756 C 165.476 53.329,164.610 52.659,164.136 52.267 C 163.662 51.875,163.094 51.554,162.874 51.554 C 162.655 51.554,162.118 51.254,161.682 50.887 C 161.245 50.520,160.450 50.099,159.913 49.951 C 159.377 49.803,158.612 49.451,158.214 49.168 C 157.816 48.885,156.771 48.486,155.892 48.281 C 155.013 48.075,154.114 47.746,153.895 47.548 C 153.677 47.350,152.448 47.055,151.166 46.893 C 149.883 46.731,148.193 46.472,147.409 46.318 C 145.090 45.862,138.596 45.822,137.824 46.258 M251.762 46.120 C 251.520 46.265,249.895 46.561,248.150 46.777 C 246.102 47.030,244.698 47.340,244.186 47.650 C 243.750 47.915,242.871 48.217,242.232 48.322 C 241.593 48.426,240.719 48.778,240.289 49.104 C 239.859 49.431,239.080 49.777,238.558 49.873 C 238.036 49.970,237.347 50.328,237.027 50.668 C 236.707 51.009,236.050 51.362,235.566 51.452 C 235.058 51.548,234.518 51.874,234.289 52.224 C 234.070 52.557,233.640 52.908,233.332 53.005 C 232.717 53.197,231.592 54.043,230.092 55.440 C 229.557 55.939,228.601 56.830,227.966 57.421 C 227.332 58.012,226.182 59.204,225.410 60.071 C 224.090 61.554,223.678 62.128,222.409 64.252 C 222.124 64.729,221.644 65.361,221.342 65.656 C 221.040 65.951,220.710 66.573,220.608 67.040 C 220.506 67.506,220.151 68.211,219.818 68.606 C 219.486 69.001,219.133 69.760,219.033 70.292 C 218.933 70.825,218.588 71.648,218.267 72.122 C 217.946 72.595,217.545 73.786,217.377 74.768 C 217.208 75.751,216.834 77.013,216.546 77.574 C 215.646 79.320,215.558 84.151,215.562 131.347 C 215.567 178.996,215.634 182.585,216.559 184.359 C 216.866 184.946,217.236 186.169,217.382 187.076 C 217.528 187.982,217.791 188.900,217.967 189.116 C 218.403 189.651,218.837 190.647,219.041 191.580 C 219.135 192.008,219.494 192.729,219.839 193.182 C 220.184 193.636,220.466 194.173,220.466 194.377 C 220.466 194.581,220.819 195.191,221.249 195.733 C 221.680 196.275,222.099 196.984,222.181 197.309 C 222.262 197.634,222.609 198.084,222.952 198.308 C 223.295 198.533,223.575 198.838,223.575 198.987 C 223.575 199.247,224.188 200.059,226.177 202.438 C 226.997 203.418,228.551 204.851,230.998 206.884 C 231.448 207.257,232.185 207.901,232.638 208.315 C 233.090 208.729,233.612 209.067,233.799 209.067 C 233.986 209.067,234.732 209.475,235.457 209.974 C 236.182 210.473,236.948 210.881,237.160 210.881 C 237.371 210.881,237.753 211.094,238.008 211.354 C 238.481 211.837,239.477 212.274,240.720 212.544 C 241.102 212.627,241.581 212.862,241.785 213.065 C 241.988 213.269,243.075 213.625,244.199 213.856 C 245.324 214.088,246.503 214.446,246.819 214.653 C 248.636 215.838,263.136 215.815,264.953 214.624 C 265.274 214.414,266.407 214.075,267.470 213.872 C 268.532 213.668,269.680 213.320,270.019 213.097 C 270.359 212.875,271.235 212.515,271.965 212.298 C 272.696 212.081,273.368 211.784,273.458 211.637 C 273.549 211.491,274.224 211.105,274.959 210.779 C 275.694 210.454,276.449 210.001,276.637 209.774 C 276.825 209.546,277.312 209.287,277.719 209.197 C 278.126 209.108,278.645 208.750,278.873 208.403 C 279.100 208.056,279.415 207.772,279.573 207.772 C 280.242 207.772,285.781 202.499,287.306 200.410 C 287.804 199.727,288.487 198.871,288.822 198.509 C 289.158 198.146,289.553 197.488,289.700 197.047 C 289.847 196.605,290.229 195.952,290.550 195.596 C 290.871 195.240,291.222 194.657,291.329 194.301 C 291.437 193.944,291.800 193.292,292.136 192.851 C 292.471 192.410,292.746 191.815,292.746 191.528 C 292.746 191.240,293.079 190.377,293.486 189.609 C 293.893 188.841,294.304 187.608,294.399 186.869 C 294.495 186.130,294.891 184.848,295.279 184.019 L 295.984 182.513 296.060 133.161 C 296.138 82.475,296.080 78.917,295.141 77.055 C 294.859 76.495,294.501 75.304,294.346 74.408 C 294.191 73.513,293.830 72.451,293.544 72.049 C 293.258 71.647,292.946 70.836,292.852 70.247 C 292.758 69.658,292.402 68.854,292.060 68.461 C 291.719 68.068,291.306 67.302,291.141 66.759 C 290.976 66.217,290.637 65.663,290.386 65.529 C 290.136 65.395,289.850 65.023,289.749 64.702 C 289.649 64.382,289.233 63.736,288.825 63.268 C 288.417 62.800,288.083 62.268,288.083 62.086 C 288.083 61.904,287.733 61.420,287.306 61.010 C 286.878 60.601,286.528 60.172,286.528 60.058 C 286.528 59.849,283.243 56.594,281.926 55.498 C 280.044 53.932,278.946 53.109,278.741 53.109 C 278.617 53.109,278.132 52.775,277.664 52.367 C 277.196 51.958,276.531 51.536,276.185 51.428 C 275.839 51.320,275.270 50.966,274.920 50.641 C 274.569 50.316,273.939 49.982,273.519 49.898 C 273.098 49.814,272.436 49.519,272.047 49.242 C 271.659 48.965,270.537 48.552,269.554 48.324 C 268.571 48.096,267.572 47.733,267.333 47.517 C 267.068 47.277,265.953 47.021,264.473 46.861 C 263.138 46.717,261.522 46.471,260.881 46.314 C 259.309 45.931,252.327 45.782,251.762 46.120 " stroke="none" fill="#04ac54" fill-rule="evenodd"></path><path id="path1" d="M0.000 129.534 L 0.000 259.067 200.000 259.067 L 400.000 259.067 400.000 129.534 L 400.000 0.000 200.000 0.000 L 0.000 0.000 0.000 129.534 M147.409 46.318 C 148.193 46.472,149.883 46.731,151.166 46.893 C 152.448 47.055,153.677 47.350,153.895 47.548 C 154.114 47.746,155.013 48.075,155.892 48.281 C 156.771 48.486,157.816 48.885,158.214 49.168 C 158.612 49.451,159.377 49.803,159.913 49.951 C 160.450 50.099,161.245 50.520,161.682 50.887 C 162.118 51.254,162.655 51.554,162.874 51.554 C 163.094 51.554,163.662 51.875,164.136 52.267 C 164.610 52.659,165.476 53.329,166.059 53.756 C 170.049 56.682,173.643 60.360,174.963 62.869 C 175.174 63.271,175.590 63.804,175.886 64.052 C 176.183 64.300,176.425 64.663,176.425 64.858 C 176.425 65.054,176.767 65.644,177.184 66.170 C 177.602 66.695,178.016 67.453,178.104 67.854 C 178.192 68.255,178.489 68.825,178.765 69.120 C 179.040 69.416,179.388 70.204,179.537 70.872 C 179.815 72.108,180.232 73.083,180.584 73.316 C 180.691 73.387,180.953 74.450,181.164 75.679 C 181.376 76.907,181.766 78.364,182.031 78.917 C 182.739 80.394,182.790 181.576,182.084 182.642 C 181.689 183.239,181.329 184.662,180.954 187.111 C 180.872 187.646,180.710 188.083,180.593 188.083 C 180.330 188.083,179.535 190.120,179.529 190.812 C 179.526 191.092,179.177 191.834,178.752 192.461 C 178.327 193.088,177.979 193.796,177.979 194.034 C 177.979 194.272,177.640 194.847,177.225 195.311 C 176.810 195.776,176.395 196.456,176.303 196.822 C 176.211 197.188,175.851 197.712,175.503 197.985 C 175.155 198.259,174.870 198.650,174.870 198.855 C 174.870 199.059,174.579 199.480,174.223 199.789 C 173.867 200.099,173.575 200.486,173.575 200.648 C 173.575 201.005,168.995 205.562,167.358 206.835 C 166.716 207.334,165.854 208.040,165.441 208.404 C 165.029 208.769,164.549 209.067,164.376 209.067 C 164.203 209.067,163.621 209.417,163.084 209.844 C 162.546 210.271,161.669 210.738,161.135 210.882 C 160.601 211.026,160.020 211.317,159.844 211.530 C 159.668 211.742,158.935 212.090,158.216 212.304 C 157.497 212.517,156.724 212.858,156.498 213.060 C 156.273 213.262,155.172 213.616,154.052 213.846 C 152.932 214.077,151.697 214.429,151.309 214.630 C 149.280 215.679,136.797 215.875,134.197 214.898 C 133.556 214.658,132.050 214.239,130.851 213.968 C 129.653 213.697,128.487 213.317,128.261 213.123 C 128.035 212.930,127.209 212.569,126.425 212.321 C 125.641 212.073,124.825 211.719,124.611 211.534 C 124.398 211.349,123.688 210.957,123.035 210.664 C 122.381 210.370,121.696 209.949,121.513 209.728 C 121.330 209.507,121.024 209.326,120.832 209.326 C 120.641 209.326,120.101 209.006,119.633 208.614 C 119.165 208.222,118.374 207.619,117.876 207.273 C 117.377 206.927,116.876 206.490,116.762 206.302 C 116.648 206.113,116.393 205.959,116.196 205.959 C 116.000 205.959,115.589 205.609,115.285 205.181 C 114.981 204.754,114.562 204.404,114.355 204.404 C 114.148 204.404,113.847 204.115,113.686 203.761 C 113.525 203.408,113.195 203.056,112.953 202.979 C 112.712 202.903,112.372 202.529,112.199 202.149 C 111.895 201.482,111.397 200.811,109.685 198.764 C 109.240 198.233,108.795 197.536,108.696 197.215 C 108.596 196.894,108.399 196.632,108.258 196.632 C 108.117 196.632,107.761 196.078,107.467 195.402 C 107.173 194.725,106.724 193.938,106.469 193.653 C 106.214 193.368,105.869 192.622,105.702 191.996 C 105.536 191.370,105.177 190.554,104.904 190.182 C 104.631 189.811,104.283 188.833,104.132 188.007 C 103.980 187.182,103.622 186.111,103.337 185.628 C 102.960 184.988,102.723 183.809,102.469 181.299 C 102.277 179.402,101.993 177.522,101.837 177.120 C 101.437 176.087,101.437 86.510,101.838 85.231 C 101.994 84.734,102.273 82.742,102.459 80.805 C 102.718 78.096,102.946 76.960,103.444 75.883 C 103.800 75.112,104.168 73.936,104.261 73.270 C 104.354 72.603,104.646 71.783,104.910 71.447 C 105.174 71.111,105.523 70.346,105.684 69.746 C 105.846 69.146,106.197 68.450,106.465 68.201 C 106.733 67.951,107.036 67.396,107.137 66.969 C 107.238 66.541,107.584 65.900,107.906 65.544 C 108.229 65.188,108.741 64.401,109.044 63.795 C 109.348 63.190,109.692 62.694,109.808 62.694 C 109.925 62.694,110.152 62.405,110.313 62.052 C 110.734 61.129,115.625 55.959,116.078 55.959 C 116.218 55.959,116.465 55.667,116.627 55.311 C 116.790 54.955,117.061 54.663,117.231 54.663 C 117.401 54.663,117.887 54.343,118.312 53.951 C 118.737 53.559,119.473 53.005,119.949 52.720 C 123.580 50.544,125.082 49.755,125.610 49.747 C 125.803 49.743,126.294 49.461,126.701 49.119 C 127.150 48.741,127.949 48.427,128.741 48.318 C 129.456 48.220,130.313 47.926,130.644 47.666 C 131.238 47.198,134.262 46.636,136.223 46.628 C 136.747 46.626,137.468 46.460,137.824 46.258 C 138.596 45.822,145.090 45.862,147.409 46.318 M260.881 46.314 C 261.522 46.471,263.138 46.717,264.473 46.861 C 265.953 47.021,267.068 47.277,267.333 47.517 C 267.572 47.733,268.571 48.096,269.554 48.324 C 270.537 48.552,271.659 48.965,272.047 49.242 C 272.436 49.519,273.098 49.814,273.519 49.898 C 273.939 49.982,274.569 50.316,274.920 50.641 C 275.270 50.966,275.839 51.320,276.185 51.428 C 276.531 51.536,277.196 51.958,277.664 52.367 C 278.132 52.775,278.617 53.109,278.741 53.109 C 278.946 53.109,280.044 53.932,281.926 55.498 C 283.243 56.594,286.528 59.849,286.528 60.058 C 286.528 60.172,286.878 60.601,287.306 61.010 C 287.733 61.420,288.083 61.904,288.083 62.086 C 288.083 62.268,288.417 62.800,288.825 63.268 C 289.233 63.736,289.649 64.382,289.749 64.702 C 289.850 65.023,290.136 65.395,290.386 65.529 C 290.637 65.663,290.976 66.217,291.141 66.759 C 291.306 67.302,291.719 68.068,292.060 68.461 C 292.402 68.854,292.758 69.658,292.852 70.247 C 292.946 70.836,293.258 71.647,293.544 72.049 C 293.830 72.451,294.191 73.513,294.346 74.408 C 294.501 75.304,294.859 76.495,295.141 77.055 C 296.080 78.917,296.138 82.475,296.060 133.161 L 295.984 182.513 295.279 184.019 C 294.891 184.848,294.495 186.130,294.399 186.869 C 294.304 187.608,293.893 188.841,293.486 189.609 C 293.079 190.377,292.746 191.240,292.746 191.528 C 292.746 191.815,292.471 192.410,292.136 192.851 C 291.800 193.292,291.437 193.944,291.329 194.301 C 291.222 194.657,290.871 195.240,290.550 195.596 C 290.229 195.952,289.847 196.605,289.700 197.047 C 289.553 197.488,289.158 198.146,288.822 198.509 C 288.487 198.871,287.804 199.727,287.306 200.410 C 285.781 202.499,280.242 207.772,279.573 207.772 C 279.415 207.772,279.100 208.056,278.873 208.403 C 278.645 208.750,278.126 209.108,277.719 209.197 C 277.312 209.287,276.825 209.546,276.637 209.774 C 276.449 210.001,275.694 210.454,274.959 210.779 C 274.224 211.105,273.549 211.491,273.458 211.637 C 273.368 211.784,272.696 212.081,271.965 212.298 C 271.235 212.515,270.359 212.875,270.019 213.097 C 269.680 213.320,268.532 213.668,267.470 213.872 C 266.407 214.075,265.274 214.414,264.953 214.624 C 263.136 215.815,248.636 215.838,246.819 214.653 C 246.503 214.446,245.324 214.088,244.199 213.856 C 243.075 213.625,241.988 213.269,241.785 213.065 C 241.581 212.862,241.102 212.627,240.720 212.544 C 239.477 212.274,238.481 211.837,238.008 211.354 C 237.753 211.094,237.371 210.881,237.160 210.881 C 236.948 210.881,236.182 210.473,235.457 209.974 C 234.732 209.475,233.986 209.067,233.799 209.067 C 233.612 209.067,233.090 208.729,232.638 208.315 C 232.185 207.901,231.448 207.257,230.998 206.884 C 228.551 204.851,226.997 203.418,226.177 202.438 C 224.188 200.059,223.575 199.247,223.575 198.987 C 223.575 198.838,223.295 198.533,222.952 198.308 C 222.609 198.084,222.262 197.634,222.181 197.309 C 222.099 196.984,221.680 196.275,221.249 195.733 C 220.819 195.191,220.466 194.581,220.466 194.377 C 220.466 194.173,220.184 193.636,219.839 193.182 C 219.494 192.729,219.135 192.008,219.041 191.580 C 218.837 190.647,218.403 189.651,217.967 189.116 C 217.791 188.900,217.528 187.982,217.382 187.076 C 217.236 186.169,216.866 184.946,216.559 184.359 C 215.634 182.585,215.567 178.996,215.562 131.347 C 215.558 84.151,215.646 79.320,216.546 77.574 C 216.834 77.013,217.208 75.751,217.377 74.768 C 217.545 73.786,217.946 72.595,218.267 72.122 C 218.588 71.648,218.933 70.825,219.033 70.292 C 219.133 69.760,219.486 69.001,219.818 68.606 C 220.151 68.211,220.506 67.506,220.608 67.040 C 220.710 66.573,221.040 65.951,221.342 65.656 C 221.644 65.361,222.124 64.729,222.409 64.252 C 223.678 62.128,224.090 61.554,225.410 60.071 C 226.182 59.204,227.332 58.012,227.966 57.421 C 228.601 56.830,229.557 55.939,230.092 55.440 C 231.592 54.043,232.717 53.197,233.332 53.005 C 233.640 52.908,234.070 52.557,234.289 52.224 C 234.518 51.874,235.058 51.548,235.566 51.452 C 236.050 51.362,236.707 51.009,237.027 50.668 C 237.347 50.328,238.036 49.970,238.558 49.873 C 239.080 49.777,239.859 49.431,240.289 49.104 C 240.719 48.778,241.593 48.426,242.232 48.322 C 242.871 48.217,243.750 47.915,244.186 47.650 C 244.698 47.340,246.102 47.030,248.150 46.777 C 249.895 46.561,251.520 46.265,251.762 46.120 C 252.327 45.782,259.309 45.931,260.881 46.314 " stroke="none" fill="#ffffff" fill-rule="evenodd"></path></g></svg>