<svg id="svg" version="1.1" xmlns="http://www.w3.org/2000/svg" xmlns:xlink="http://www.w3.org/1999/xlink" width="400" height="258.91472868217056" viewBox="0, 0, 400,258.91472868217056"><g id="svgg"><path id="path0" d="M84.067 41.728 C 80.916 42.129,78.904 42.534,78.356 42.876 C 78.064 43.058,77.131 43.385,76.282 43.603 C 71.862 44.735,65.512 48.796,61.013 53.368 C 57.853 56.579,57.772 56.668,57.772 56.903 C 57.772 57.028,57.493 57.430,57.153 57.798 C 56.812 58.165,56.344 58.831,56.114 59.277 C 55.883 59.723,55.482 60.296,55.224 60.549 C 54.965 60.803,54.597 61.418,54.406 61.917 C 54.216 62.416,53.904 63.008,53.713 63.234 C 53.522 63.459,53.175 64.217,52.943 64.918 C 52.710 65.618,52.355 66.381,52.156 66.613 C 51.956 66.844,51.551 67.893,51.256 68.944 C 50.961 69.995,50.603 70.998,50.462 71.174 C 50.320 71.349,50.044 72.515,49.848 73.764 C 49.652 75.014,49.344 76.969,49.163 78.109 C 48.702 81.015,48.695 172.670,49.155 175.000 C 49.324 175.855,49.584 177.487,49.733 178.627 C 49.882 179.767,50.291 181.457,50.642 182.383 C 50.994 183.310,51.406 184.563,51.557 185.168 C 51.709 185.774,51.936 186.269,52.061 186.269 C 52.187 186.269,52.542 187.027,52.850 187.953 C 53.158 188.880,53.499 189.637,53.609 189.637 C 53.718 189.637,54.027 190.133,54.296 190.738 C 54.565 191.344,55.137 192.326,55.566 192.921 C 55.996 193.516,56.639 194.433,56.995 194.960 C 57.826 196.187,59.006 197.512,61.269 199.759 C 62.267 200.749,63.433 201.908,63.860 202.334 C 64.288 202.760,64.765 203.109,64.921 203.109 C 65.077 203.109,65.426 203.354,65.698 203.653 C 65.969 203.953,66.541 204.377,66.968 204.597 C 67.396 204.816,68.076 205.270,68.478 205.606 C 68.881 205.943,69.426 206.218,69.689 206.218 C 69.952 206.218,70.500 206.498,70.907 206.840 C 71.314 207.182,72.123 207.590,72.706 207.747 C 73.289 207.904,74.064 208.267,74.428 208.553 C 74.791 208.839,75.658 209.181,76.353 209.313 C 77.049 209.445,78.253 209.809,79.029 210.123 C 83.228 211.818,95.263 211.724,100.837 209.951 C 102.366 209.465,103.780 209.067,103.979 209.067 C 104.178 209.067,104.473 208.908,104.635 208.713 C 104.796 208.518,105.596 208.149,106.412 207.892 C 107.229 207.636,108.056 207.266,108.251 207.071 C 108.447 206.875,109.155 206.438,109.825 206.098 C 110.495 205.759,111.196 205.297,111.382 205.072 C 111.569 204.847,111.864 204.663,112.039 204.663 C 112.213 204.663,112.596 204.459,112.889 204.210 C 113.182 203.960,114.094 203.232,114.914 202.591 C 117.092 200.889,119.602 198.309,121.361 195.967 C 122.210 194.837,123.113 193.703,123.369 193.448 C 123.625 193.194,123.834 192.838,123.834 192.658 C 123.834 192.477,124.169 191.870,124.579 191.308 C 124.988 190.745,125.413 189.994,125.522 189.637 C 125.631 189.281,125.996 188.584,126.332 188.088 C 126.668 187.591,126.943 187.028,126.943 186.836 C 126.943 186.643,127.281 185.708,127.693 184.758 C 128.106 183.808,128.527 182.506,128.629 181.865 C 128.731 181.224,129.122 179.825,129.498 178.756 L 130.181 176.813 130.181 126.554 L 130.181 76.295 129.487 74.223 C 129.104 73.083,128.711 71.626,128.613 70.984 C 128.515 70.343,128.172 69.294,127.850 68.653 C 127.529 68.012,127.182 67.079,127.080 66.580 C 126.978 66.082,126.625 65.266,126.297 64.767 C 125.968 64.268,125.614 63.569,125.509 63.212 C 125.404 62.856,125.000 62.098,124.611 61.528 C 124.223 60.959,123.823 60.230,123.723 59.909 C 123.622 59.589,123.457 59.326,123.354 59.326 C 123.252 59.326,122.590 58.502,121.882 57.494 C 120.716 55.833,115.143 50.000,114.722 50.000 C 114.626 50.000,114.169 49.679,113.707 49.288 C 112.796 48.516,111.679 47.798,109.828 46.795 C 109.178 46.443,108.500 45.978,108.321 45.762 C 108.142 45.547,107.624 45.290,107.171 45.193 C 106.718 45.095,105.881 44.744,105.311 44.413 C 104.741 44.082,103.692 43.683,102.979 43.526 C 102.267 43.368,101.185 43.000,100.575 42.707 C 98.654 41.784,88.399 41.175,84.067 41.728 M196.054 41.597 C 195.973 41.678,194.793 41.849,193.430 41.978 C 191.802 42.132,190.420 42.437,189.396 42.868 C 188.540 43.228,187.574 43.525,187.249 43.526 C 186.924 43.528,186.192 43.794,185.622 44.118 C 185.052 44.442,184.003 44.923,183.290 45.188 C 182.578 45.454,181.786 45.887,181.531 46.151 C 181.276 46.416,180.944 46.632,180.792 46.632 C 180.640 46.632,179.997 46.982,179.364 47.409 C 178.731 47.837,178.102 48.187,177.966 48.187 C 177.831 48.187,177.512 48.391,177.258 48.640 C 177.004 48.889,176.392 49.402,175.898 49.780 C 173.677 51.477,167.617 57.843,167.617 58.479 C 167.617 58.616,167.394 58.929,167.122 59.175 C 166.850 59.422,166.479 59.993,166.298 60.446 C 166.117 60.899,165.640 61.652,165.238 62.120 C 164.836 62.588,164.508 63.165,164.508 63.402 C 164.508 63.639,164.216 64.254,163.859 64.769 C 163.502 65.284,163.030 66.394,162.811 67.236 C 162.592 68.077,162.304 68.833,162.173 68.914 C 162.041 68.996,161.754 69.932,161.536 70.995 C 161.318 72.058,160.971 73.394,160.764 73.964 C 159.775 76.700,159.753 77.645,159.649 123.446 C 159.541 170.275,159.634 175.533,160.614 178.466 C 160.882 179.267,161.281 180.738,161.500 181.736 C 161.720 182.733,162.137 184.011,162.427 184.576 C 162.716 185.140,162.953 185.851,162.953 186.156 C 162.953 186.460,163.301 187.223,163.726 187.850 C 164.151 188.477,164.500 189.234,164.503 189.532 C 164.506 189.831,164.756 190.297,165.059 190.569 C 165.363 190.840,165.831 191.528,166.100 192.098 C 167.211 194.456,172.885 200.805,175.907 203.073 C 176.405 203.447,176.907 203.900,177.021 204.079 C 177.135 204.258,177.376 204.404,177.558 204.404 C 177.740 204.404,178.462 204.812,179.163 205.311 C 179.865 205.810,180.556 206.220,180.699 206.222 C 180.842 206.225,181.472 206.575,182.099 207.000 C 182.726 207.424,183.438 207.772,183.682 207.772 C 183.925 207.772,184.562 208.069,185.097 208.432 C 185.632 208.795,186.610 209.197,187.271 209.325 C 187.931 209.453,189.171 209.806,190.026 210.109 C 194.706 211.769,206.170 211.752,211.192 210.078 C 212.431 209.665,213.655 209.326,213.912 209.327 C 214.168 209.327,215.078 208.989,215.933 208.576 C 216.788 208.163,217.778 207.694,218.135 207.534 C 218.753 207.256,220.685 206.163,222.520 205.052 C 222.991 204.767,223.840 204.155,224.407 203.692 C 224.974 203.229,225.528 202.850,225.638 202.850 C 225.748 202.850,227.210 201.481,228.887 199.809 C 231.744 196.960,232.490 196.065,233.825 193.885 C 234.120 193.404,234.602 192.747,234.897 192.425 C 235.191 192.103,235.520 191.548,235.626 191.192 C 235.732 190.835,236.040 190.231,236.309 189.849 C 236.578 189.466,236.974 188.656,237.188 188.048 C 237.403 187.440,237.741 186.762,237.941 186.541 C 238.140 186.321,238.446 185.557,238.620 184.845 C 238.794 184.132,239.138 183.141,239.385 182.642 C 239.631 182.144,239.972 180.861,240.143 179.793 C 240.314 178.724,240.649 176.975,240.887 175.907 C 241.447 173.399,241.568 78.097,241.012 77.427 C 240.841 77.221,240.573 76.009,240.415 74.731 C 240.064 71.888,239.927 71.263,239.505 70.584 C 239.324 70.292,238.985 69.306,238.751 68.393 C 238.517 67.479,238.154 66.542,237.944 66.311 C 237.734 66.079,237.389 65.306,237.178 64.593 C 236.966 63.881,236.569 63.095,236.295 62.847 C 236.022 62.600,235.725 62.105,235.635 61.747 C 235.468 61.081,234.160 58.987,233.105 57.695 C 231.139 55.289,225.684 49.741,225.284 49.741 C 225.125 49.741,224.848 49.506,224.669 49.219 C 224.490 48.932,223.879 48.511,223.311 48.284 C 222.744 48.057,222.280 47.761,222.280 47.626 C 222.280 47.491,221.730 47.137,221.059 46.840 C 220.388 46.543,219.690 46.152,219.509 45.971 C 219.328 45.790,218.625 45.437,217.945 45.187 C 217.266 44.936,216.530 44.580,216.310 44.395 C 216.090 44.210,215.158 43.869,214.238 43.638 C 213.318 43.406,212.332 43.072,212.047 42.894 C 210.572 41.973,196.795 40.856,196.054 41.597 M305.959 41.723 C 301.862 42.288,300.727 42.521,299.810 42.985 C 299.274 43.257,298.350 43.556,297.758 43.649 C 297.167 43.743,296.299 44.103,295.830 44.449 C 295.361 44.795,294.784 45.078,294.549 45.078 C 293.600 45.078,286.920 49.300,285.356 50.888 C 284.925 51.326,284.050 52.162,283.413 52.746 C 281.725 54.291,279.275 56.991,279.275 57.304 C 279.275 57.453,278.954 57.951,278.562 58.412 C 278.170 58.873,277.649 59.588,277.404 60.001 C 277.159 60.413,276.850 60.926,276.719 61.140 C 275.503 63.117,274.611 64.777,274.611 65.065 C 274.611 65.257,274.266 66.056,273.844 66.839 C 273.423 67.623,273.073 68.479,273.067 68.741 C 273.062 69.003,272.716 70.227,272.300 71.461 C 270.595 76.517,270.595 76.536,270.607 126.943 C 270.620 176.537,270.680 178.596,272.216 181.542 C 272.499 182.085,272.863 183.148,273.025 183.903 C 273.187 184.659,273.611 185.773,273.966 186.379 C 274.321 186.985,274.611 187.710,274.611 187.991 C 274.611 188.271,274.911 188.902,275.277 189.393 C 275.643 189.883,276.112 190.635,276.319 191.062 C 278.124 194.795,283.899 201.232,287.821 203.886 C 288.558 204.385,289.472 205.039,289.852 205.340 C 290.233 205.641,290.835 205.977,291.192 206.085 C 291.548 206.194,292.300 206.618,292.862 207.028 C 293.424 207.437,294.096 207.772,294.355 207.772 C 294.822 207.772,295.626 208.148,296.373 208.715 C 296.587 208.877,297.170 209.090,297.668 209.188 C 298.167 209.287,299.624 209.699,300.907 210.106 C 306.144 211.765,316.956 211.750,322.140 210.076 C 323.416 209.664,324.619 209.326,324.811 209.326 C 325.109 209.326,326.521 208.713,329.534 207.274 C 330.141 206.984,331.415 206.255,333.416 205.052 C 333.890 204.767,334.489 204.334,334.747 204.089 C 335.005 203.845,335.657 203.364,336.196 203.020 C 337.441 202.227,342.039 197.748,342.488 196.891 C 342.674 196.535,343.034 196.010,343.287 195.725 C 344.518 194.337,345.337 193.308,345.337 193.147 C 345.337 193.049,345.693 192.451,346.129 191.818 C 346.564 191.185,347.050 190.290,347.209 189.829 C 347.368 189.367,347.762 188.582,348.085 188.083 C 348.409 187.584,348.758 186.826,348.862 186.399 C 348.965 185.972,349.322 185.109,349.655 184.482 C 349.987 183.855,350.259 183.021,350.259 182.629 C 350.259 182.236,350.552 181.059,350.909 180.012 C 352.019 176.764,352.065 174.610,352.060 126.166 C 352.055 78.427,352.011 76.349,350.938 72.745 C 350.587 71.563,350.220 70.188,350.124 69.689 C 350.028 69.190,349.776 68.510,349.565 68.177 C 349.354 67.844,349.006 66.970,348.792 66.234 C 348.577 65.498,348.212 64.605,347.980 64.249 C 347.748 63.892,347.368 63.251,347.135 62.824 C 344.917 58.750,343.947 57.476,339.767 53.145 C 338.342 51.669,336.768 50.179,336.269 49.834 C 334.257 48.444,333.532 47.921,333.183 47.608 C 332.786 47.253,330.879 46.216,329.016 45.342 C 328.374 45.041,327.675 44.684,327.461 44.547 C 326.733 44.083,325.779 43.745,324.508 43.504 C 323.809 43.371,323.092 43.142,322.913 42.994 C 321.617 41.917,310.558 41.088,305.959 41.723 " stroke="none" fill="#05ac54" fill-rule="evenodd"></path><path id="path1" d="M0.000 129.534 L 0.000 259.067 200.000 259.067 L 400.000 259.067 400.000 129.534 L 400.000 0.000 200.000 0.000 L 0.000 0.000 0.000 129.534 M97.078 41.918 C 98.473 42.067,99.927 42.396,100.575 42.707 C 101.185 43.000,102.267 43.368,102.979 43.526 C 103.692 43.683,104.741 44.082,105.311 44.413 C 105.881 44.744,106.718 45.095,107.171 45.193 C 107.624 45.290,108.142 45.547,108.321 45.762 C 108.500 45.978,109.178 46.443,109.828 46.795 C 111.679 47.798,112.796 48.516,113.707 49.288 C 114.169 49.679,114.626 50.000,114.722 50.000 C 115.143 50.000,120.716 55.833,121.882 57.494 C 122.590 58.502,123.252 59.326,123.354 59.326 C 123.457 59.326,123.622 59.589,123.723 59.909 C 123.823 60.230,124.223 60.959,124.611 61.528 C 125.000 62.098,125.404 62.856,125.509 63.212 C 125.614 63.569,125.968 64.268,126.297 64.767 C 126.625 65.266,126.978 66.082,127.080 66.580 C 127.182 67.079,127.529 68.012,127.850 68.653 C 128.172 69.294,128.515 70.343,128.613 70.984 C 128.711 71.626,129.104 73.083,129.487 74.223 L 130.181 76.295 130.181 126.554 L 130.181 176.813 129.498 178.756 C 129.122 179.825,128.731 181.224,128.629 181.865 C 128.527 182.506,128.106 183.808,127.693 184.758 C 127.281 185.708,126.943 186.643,126.943 186.836 C 126.943 187.028,126.668 187.591,126.332 188.088 C 125.996 188.584,125.631 189.281,125.522 189.637 C 125.413 189.994,124.988 190.745,124.579 191.308 C 124.169 191.870,123.834 192.477,123.834 192.658 C 123.834 192.838,123.625 193.194,123.369 193.448 C 123.113 193.703,122.210 194.837,121.361 195.967 C 119.602 198.309,117.092 200.889,114.914 202.591 C 114.094 203.232,113.182 203.960,112.889 204.210 C 112.596 204.459,112.213 204.663,112.039 204.663 C 111.864 204.663,111.569 204.847,111.382 205.072 C 111.196 205.297,110.495 205.759,109.825 206.098 C 109.155 206.438,108.447 206.875,108.251 207.071 C 108.056 207.266,107.229 207.636,106.412 207.892 C 105.596 208.149,104.796 208.518,104.635 208.713 C 104.473 208.908,104.178 209.067,103.979 209.067 C 103.780 209.067,102.366 209.465,100.837 209.951 C 95.263 211.724,83.228 211.818,79.029 210.123 C 78.253 209.809,77.049 209.445,76.353 209.313 C 75.658 209.181,74.791 208.839,74.428 208.553 C 74.064 208.267,73.289 207.904,72.706 207.747 C 72.123 207.590,71.314 207.182,70.907 206.840 C 70.500 206.498,69.952 206.218,69.689 206.218 C 69.426 206.218,68.881 205.943,68.478 205.606 C 68.076 205.270,67.396 204.816,66.968 204.597 C 66.541 204.377,65.969 203.953,65.698 203.653 C 65.426 203.354,65.077 203.109,64.921 203.109 C 64.765 203.109,64.288 202.760,63.860 202.334 C 63.433 201.908,62.267 200.749,61.269 199.759 C 59.006 197.512,57.826 196.187,56.995 194.960 C 56.639 194.433,55.996 193.516,55.566 192.921 C 55.137 192.326,54.565 191.344,54.296 190.738 C 54.027 190.133,53.718 189.637,53.609 189.637 C 53.499 189.637,53.158 188.880,52.850 187.953 C 52.542 187.027,52.187 186.269,52.061 186.269 C 51.936 186.269,51.709 185.774,51.557 185.168 C 51.406 184.563,50.994 183.310,50.642 182.383 C 50.291 181.457,49.882 179.767,49.733 178.627 C 49.584 177.487,49.324 175.855,49.155 175.000 C 48.695 172.670,48.702 81.015,49.163 78.109 C 49.344 76.969,49.652 75.014,49.848 73.764 C 50.044 72.515,50.320 71.349,50.462 71.174 C 50.603 70.998,50.961 69.995,51.256 68.944 C 51.551 67.893,51.956 66.844,52.156 66.613 C 52.355 66.381,52.710 65.618,52.943 64.918 C 53.175 64.217,53.522 63.459,53.713 63.234 C 53.904 63.008,54.216 62.416,54.406 61.917 C 54.597 61.418,54.965 60.803,55.224 60.549 C 55.482 60.296,55.883 59.723,56.114 59.277 C 56.344 58.831,56.812 58.165,57.153 57.798 C 57.493 57.430,57.772 57.028,57.772 56.903 C 57.772 56.668,57.853 56.579,61.013 53.368 C 65.512 48.796,71.862 44.735,76.282 43.603 C 77.131 43.385,78.064 43.058,78.356 42.876 C 78.904 42.534,80.916 42.129,84.067 41.728 C 86.242 41.450,93.748 41.560,97.078 41.918 M206.606 41.834 C 210.419 42.291,211.381 42.478,212.047 42.894 C 212.332 43.072,213.318 43.406,214.238 43.638 C 215.158 43.869,216.090 44.210,216.310 44.395 C 216.530 44.580,217.266 44.936,217.945 45.187 C 218.625 45.437,219.328 45.790,219.509 45.971 C 219.690 46.152,220.388 46.543,221.059 46.840 C 221.730 47.137,222.280 47.491,222.280 47.626 C 222.280 47.761,222.744 48.057,223.311 48.284 C 223.879 48.511,224.490 48.932,224.669 49.219 C 224.848 49.506,225.125 49.741,225.284 49.741 C 225.684 49.741,231.139 55.289,233.105 57.695 C 234.160 58.987,235.468 61.081,235.635 61.747 C 235.725 62.105,236.022 62.600,236.295 62.847 C 236.569 63.095,236.966 63.881,237.178 64.593 C 237.389 65.306,237.734 66.079,237.944 66.311 C 238.154 66.542,238.517 67.479,238.751 68.393 C 238.985 69.306,239.324 70.292,239.505 70.584 C 239.927 71.263,240.064 71.888,240.415 74.731 C 240.573 76.009,240.841 77.221,241.012 77.427 C 241.568 78.097,241.447 173.399,240.887 175.907 C 240.649 176.975,240.314 178.724,240.143 179.793 C 239.972 180.861,239.631 182.144,239.385 182.642 C 239.138 183.141,238.794 184.132,238.620 184.845 C 238.446 185.557,238.140 186.321,237.941 186.541 C 237.741 186.762,237.403 187.440,237.188 188.048 C 236.974 188.656,236.578 189.466,236.309 189.849 C 236.040 190.231,235.732 190.835,235.626 191.192 C 235.520 191.548,235.191 192.103,234.897 192.425 C 234.602 192.747,234.120 193.404,233.825 193.885 C 232.490 196.065,231.744 196.960,228.887 199.809 C 227.210 201.481,225.748 202.850,225.638 202.850 C 225.528 202.850,224.974 203.229,224.407 203.692 C 223.840 204.155,222.991 204.767,222.520 205.052 C 220.685 206.163,218.753 207.256,218.135 207.534 C 217.778 207.694,216.788 208.163,215.933 208.576 C 215.078 208.989,214.168 209.327,213.912 209.327 C 213.655 209.326,212.431 209.665,211.192 210.078 C 206.170 211.752,194.706 211.769,190.026 210.109 C 189.171 209.806,187.931 209.453,187.271 209.325 C 186.610 209.197,185.632 208.795,185.097 208.432 C 184.562 208.069,183.925 207.772,183.682 207.772 C 183.438 207.772,182.726 207.424,182.099 207.000 C 181.472 206.575,180.842 206.225,180.699 206.222 C 180.556 206.220,179.865 205.810,179.163 205.311 C 178.462 204.812,177.740 204.404,177.558 204.404 C 177.376 204.404,177.135 204.258,177.021 204.079 C 176.907 203.900,176.405 203.447,175.907 203.073 C 172.885 200.805,167.211 194.456,166.100 192.098 C 165.831 191.528,165.363 190.840,165.059 190.569 C 164.756 190.297,164.506 189.831,164.503 189.532 C 164.500 189.234,164.151 188.477,163.726 187.850 C 163.301 187.223,162.953 186.460,162.953 186.156 C 162.953 185.851,162.716 185.140,162.427 184.576 C 162.137 184.011,161.720 182.733,161.500 181.736 C 161.281 180.738,160.882 179.267,160.614 178.466 C 159.634 175.533,159.541 170.275,159.649 123.446 C 159.753 77.645,159.775 76.700,160.764 73.964 C 160.971 73.394,161.318 72.058,161.536 70.995 C 161.754 69.932,162.041 68.996,162.173 68.914 C 162.304 68.833,162.592 68.077,162.811 67.236 C 163.030 66.394,163.502 65.284,163.859 64.769 C 164.216 64.254,164.508 63.639,164.508 63.402 C 164.508 63.165,164.836 62.588,165.238 62.120 C 165.640 61.652,166.117 60.899,166.298 60.446 C 166.479 59.993,166.850 59.422,167.122 59.175 C 167.394 58.929,167.617 58.616,167.617 58.479 C 167.617 57.843,173.677 51.477,175.898 49.780 C 176.392 49.402,177.004 48.889,177.258 48.640 C 177.512 48.391,177.831 48.187,177.966 48.187 C 178.102 48.187,178.731 47.837,179.364 47.409 C 179.997 46.982,180.640 46.632,180.792 46.632 C 180.944 46.632,181.276 46.416,181.531 46.151 C 181.786 45.887,182.578 45.454,183.290 45.188 C 184.003 44.923,185.052 44.442,185.622 44.118 C 186.192 43.794,186.924 43.528,187.249 43.526 C 187.574 43.525,188.540 43.228,189.396 42.868 C 190.420 42.437,191.802 42.132,193.430 41.978 C 194.793 41.849,195.973 41.678,196.054 41.597 C 196.344 41.307,203.563 41.469,206.606 41.834 M318.782 41.934 C 320.974 42.189,322.378 42.549,322.913 42.994 C 323.092 43.142,323.809 43.371,324.508 43.504 C 325.779 43.745,326.733 44.083,327.461 44.547 C 327.675 44.684,328.374 45.041,329.016 45.342 C 330.879 46.216,332.786 47.253,333.183 47.608 C 333.532 47.921,334.257 48.444,336.269 49.834 C 336.768 50.179,338.342 51.669,339.767 53.145 C 343.947 57.476,344.917 58.750,347.135 62.824 C 347.368 63.251,347.748 63.892,347.980 64.249 C 348.212 64.605,348.577 65.498,348.792 66.234 C 349.006 66.970,349.354 67.844,349.565 68.177 C 349.776 68.510,350.028 69.190,350.124 69.689 C 350.220 70.188,350.587 71.563,350.938 72.745 C 352.011 76.349,352.055 78.427,352.060 126.166 C 352.065 174.610,352.019 176.764,350.909 180.012 C 350.552 181.059,350.259 182.236,350.259 182.629 C 350.259 183.021,349.987 183.855,349.655 184.482 C 349.322 185.109,348.965 185.972,348.862 186.399 C 348.758 186.826,348.409 187.584,348.085 188.083 C 347.762 188.582,347.368 189.367,347.209 189.829 C 347.050 190.290,346.564 191.185,346.129 191.818 C 345.693 192.451,345.337 193.049,345.337 193.147 C 345.337 193.308,344.518 194.337,343.287 195.725 C 343.034 196.010,342.674 196.535,342.488 196.891 C 342.039 197.748,337.441 202.227,336.196 203.020 C 335.657 203.364,335.005 203.845,334.747 204.089 C 334.489 204.334,333.890 204.767,333.416 205.052 C 331.415 206.255,330.141 206.984,329.534 207.274 C 326.521 208.713,325.109 209.326,324.811 209.326 C 324.619 209.326,323.416 209.664,322.140 210.076 C 316.956 211.750,306.144 211.765,300.907 210.106 C 299.624 209.699,298.167 209.287,297.668 209.188 C 297.170 209.090,296.587 208.877,296.373 208.715 C 295.626 208.148,294.822 207.772,294.355 207.772 C 294.096 207.772,293.424 207.437,292.862 207.028 C 292.300 206.618,291.548 206.194,291.192 206.085 C 290.835 205.977,290.233 205.641,289.852 205.340 C 289.472 205.039,288.558 204.385,287.821 203.886 C 283.899 201.232,278.124 194.795,276.319 191.062 C 276.112 190.635,275.643 189.883,275.277 189.393 C 274.911 188.902,274.611 188.271,274.611 187.991 C 274.611 187.710,274.321 186.985,273.966 186.379 C 273.611 185.773,273.187 184.659,273.025 183.903 C 272.863 183.148,272.499 182.085,272.216 181.542 C 270.680 178.596,270.620 176.537,270.607 126.943 C 270.595 76.536,270.595 76.517,272.300 71.461 C 272.716 70.227,273.062 69.003,273.067 68.741 C 273.073 68.479,273.423 67.623,273.844 66.839 C 274.266 66.056,274.611 65.257,274.611 65.065 C 274.611 64.777,275.503 63.117,276.719 61.140 C 276.850 60.926,277.159 60.413,277.404 60.001 C 277.649 59.588,278.170 58.873,278.562 58.412 C 278.954 57.951,279.275 57.453,279.275 57.304 C 279.275 56.991,281.725 54.291,283.413 52.746 C 284.050 52.162,284.925 51.326,285.356 50.888 C 286.920 49.300,293.600 45.078,294.549 45.078 C 294.784 45.078,295.361 44.795,295.830 44.449 C 296.299 44.103,297.167 43.743,297.758 43.649 C 298.350 43.556,299.274 43.257,299.810 42.985 C 300.727 42.521,301.862 42.288,305.959 41.723 C 307.914 41.453,315.763 41.582,318.782 41.934 " stroke="none" fill="#ffffff" fill-rule="evenodd"></path></g></svg>