<svg id="svg" version="1.1" xmlns="http://www.w3.org/2000/svg" xmlns:xlink="http://www.w3.org/1999/xlink" width="400" height="258.91472868217056" viewBox="0, 0, 400,258.91472868217056"><g id="svgg"><path id="path0" d="M136.868 39.394 C 135.986 39.509,135.041 39.722,134.769 39.867 C 134.497 40.013,133.062 40.323,131.580 40.557 C 130.098 40.790,128.536 41.189,128.109 41.444 C 127.681 41.698,126.690 42.059,125.907 42.244 C 125.123 42.430,124.249 42.780,123.964 43.021 C 123.679 43.262,122.979 43.605,122.409 43.782 C 121.839 43.960,121.138 44.319,120.851 44.579 C 120.564 44.840,119.914 45.227,119.406 45.439 C 118.898 45.651,118.331 46.007,118.147 46.229 C 117.963 46.451,117.673 46.632,117.502 46.632 C 117.332 46.632,116.734 47.040,116.174 47.539 C 115.614 48.037,115.017 48.445,114.847 48.445 C 114.061 48.446,106.877 56.161,105.699 58.269 C 105.486 58.652,105.049 59.221,104.728 59.534 C 104.407 59.847,104.145 60.321,104.145 60.586 C 104.145 60.852,103.808 61.492,103.397 62.010 C 102.985 62.528,102.573 63.357,102.480 63.852 C 102.387 64.348,102.158 64.843,101.970 64.954 C 101.488 65.240,101.036 66.181,101.036 66.902 C 101.036 67.239,100.758 67.894,100.417 68.355 C 100.030 68.880,99.729 69.748,99.614 70.673 C 99.513 71.485,99.164 72.791,98.838 73.575 C 97.687 76.344,97.617 79.949,97.743 130.440 C 97.860 177.439,97.913 180.022,98.797 181.394 C 99.010 181.724,99.359 182.850,99.573 183.896 C 99.787 184.942,100.150 186.006,100.380 186.260 C 100.611 186.515,100.869 187.175,100.953 187.727 C 101.108 188.736,101.777 190.155,102.098 190.155 C 102.192 190.155,102.397 190.651,102.552 191.256 C 102.708 191.862,103.130 192.696,103.490 193.110 C 103.850 193.524,104.145 194.016,104.145 194.202 C 104.145 194.389,104.495 194.940,104.922 195.427 C 105.350 195.914,105.699 196.402,105.699 196.513 C 105.699 196.805,107.822 199.552,108.355 199.950 C 108.604 200.136,108.808 200.459,108.808 200.668 C 108.808 200.877,109.087 201.174,109.427 201.329 C 109.768 201.485,110.169 201.880,110.318 202.208 C 110.468 202.536,110.824 202.879,111.111 202.970 C 111.397 203.061,111.704 203.364,111.793 203.643 C 111.881 203.922,112.292 204.326,112.705 204.539 C 113.118 204.753,113.580 205.160,113.732 205.443 C 113.884 205.727,114.161 205.959,114.348 205.959 C 114.535 205.959,114.968 206.205,115.310 206.507 C 115.652 206.809,116.399 207.351,116.969 207.711 C 117.539 208.071,118.091 208.510,118.196 208.688 C 118.301 208.865,118.701 209.088,119.086 209.185 C 119.470 209.281,120.118 209.641,120.525 209.984 C 120.933 210.327,121.715 210.729,122.261 210.876 C 122.808 211.023,123.392 211.307,123.558 211.508 C 123.724 211.708,124.466 212.009,125.207 212.178 C 125.948 212.346,126.885 212.717,127.289 213.001 C 127.740 213.320,128.938 213.661,130.397 213.886 C 131.703 214.088,133.122 214.452,133.549 214.696 C 135.281 215.681,147.157 215.467,150.389 214.392 C 150.959 214.202,152.283 213.916,153.332 213.755 C 154.381 213.594,155.507 213.253,155.833 212.997 C 156.159 212.740,157.090 212.371,157.903 212.176 C 158.715 211.981,159.436 211.673,159.506 211.492 C 159.575 211.311,160.260 210.981,161.027 210.757 C 161.825 210.526,162.536 210.141,162.686 209.860 C 162.831 209.590,163.305 209.290,163.740 209.195 C 164.175 209.099,164.834 208.740,165.205 208.397 C 165.576 208.053,165.967 207.772,166.075 207.772 C 166.184 207.772,166.779 207.360,167.398 206.856 C 168.017 206.352,168.913 205.624,169.390 205.237 C 170.881 204.026,174.386 200.433,175.066 199.417 C 175.424 198.883,175.812 198.446,175.929 198.446 C 176.046 198.446,176.335 198.038,176.572 197.539 C 176.808 197.040,177.154 196.632,177.341 196.632 C 177.527 196.632,177.753 196.296,177.843 195.886 C 177.933 195.476,178.350 194.756,178.770 194.285 C 179.190 193.815,179.534 193.227,179.534 192.978 C 179.534 192.730,179.828 192.177,180.188 191.749 C 180.548 191.322,181.006 190.428,181.206 189.762 C 181.406 189.097,181.752 188.351,181.975 188.105 C 182.197 187.859,182.488 187.083,182.622 186.381 C 182.911 184.858,183.360 183.617,183.696 183.409 C 183.830 183.326,184.110 181.881,184.319 180.197 C 184.565 178.213,184.861 176.897,185.160 176.457 C 185.845 175.449,185.883 79.027,185.199 77.979 C 184.683 77.188,184.561 76.670,184.200 73.744 C 184.044 72.484,183.751 71.200,183.549 70.891 C 183.347 70.582,182.988 69.574,182.752 68.649 C 182.516 67.725,182.237 66.911,182.130 66.839 C 181.792 66.612,181.088 65.070,181.088 64.556 C 181.088 64.284,180.738 63.621,180.311 63.083 C 179.883 62.545,179.534 61.909,179.534 61.669 C 179.534 61.429,179.184 60.841,178.756 60.363 C 178.329 59.884,177.979 59.342,177.979 59.159 C 177.979 58.976,177.630 58.428,177.202 57.941 C 176.775 57.454,176.425 56.964,176.425 56.853 C 176.425 56.619,176.127 56.295,172.502 52.591 C 171.038 51.095,169.369 49.488,168.793 49.020 C 168.217 48.552,167.455 47.932,167.098 47.642 C 166.090 46.821,164.724 45.927,163.731 45.438 C 163.232 45.193,162.591 44.793,162.306 44.549 C 162.021 44.306,161.184 43.910,160.447 43.671 C 159.710 43.432,158.970 43.071,158.803 42.870 C 158.636 42.668,157.803 42.366,156.951 42.199 C 156.099 42.031,155.224 41.715,155.006 41.497 C 154.602 41.094,151.805 40.443,150.389 40.422 C 149.961 40.416,149.271 40.234,148.855 40.017 C 147.277 39.194,140.934 38.864,136.868 39.394 M251.490 39.400 C 250.671 39.520,249.785 39.734,249.521 39.875 C 249.257 40.017,247.829 40.323,246.347 40.557 C 244.865 40.790,243.303 41.189,242.876 41.444 C 242.448 41.698,241.457 42.059,240.674 42.245 C 239.890 42.431,239.068 42.734,238.847 42.917 C 238.626 43.100,237.933 43.432,237.306 43.653 C 236.679 43.874,235.981 44.222,235.755 44.427 C 235.529 44.632,234.794 45.042,234.123 45.339 C 233.451 45.636,232.902 45.982,232.902 46.109 C 232.902 46.235,232.688 46.406,232.426 46.489 C 232.165 46.572,231.494 47.046,230.936 47.543 C 230.379 48.039,229.784 48.445,229.615 48.445 C 229.348 48.446,227.090 50.424,225.518 52.034 C 223.131 54.480,222.300 55.427,221.955 56.094 C 221.735 56.519,221.311 57.088,221.011 57.359 C 220.711 57.631,220.466 57.965,220.466 58.102 C 220.466 58.239,220.117 58.750,219.689 59.236 C 219.262 59.723,218.912 60.306,218.912 60.532 C 218.912 60.757,218.562 61.340,218.135 61.827 C 217.707 62.314,217.358 62.901,217.358 63.132 C 217.358 63.363,217.063 63.938,216.704 64.409 C 216.344 64.881,215.949 65.808,215.825 66.469 C 215.702 67.131,215.367 67.988,215.082 68.373 C 214.795 68.761,214.441 69.860,214.290 70.832 C 214.139 71.798,213.769 73.062,213.467 73.642 C 212.530 75.439,212.446 79.920,212.449 127.979 C 212.451 175.873,212.519 179.462,213.456 181.260 C 213.760 181.842,214.126 183.050,214.270 183.944 C 214.414 184.839,214.804 186.048,215.136 186.632 C 215.468 187.216,215.807 188.060,215.889 188.506 C 215.970 188.953,216.334 189.756,216.697 190.291 C 217.060 190.826,217.358 191.405,217.358 191.578 C 217.358 191.750,217.688 192.347,218.091 192.904 C 218.494 193.460,218.904 194.236,219.003 194.626 C 219.101 195.017,219.285 195.337,219.413 195.337 C 219.540 195.337,220.007 195.891,220.449 196.567 C 221.766 198.582,222.514 199.545,223.060 199.927 C 223.343 200.126,223.575 200.393,223.575 200.521 C 223.575 200.852,227.365 204.663,227.694 204.663 C 227.845 204.663,228.158 204.955,228.392 205.311 C 228.625 205.667,228.956 205.959,229.126 205.959 C 229.297 205.959,229.772 206.308,230.181 206.736 C 230.591 207.163,231.075 207.513,231.257 207.513 C 231.439 207.513,231.987 207.863,232.473 208.290 C 232.960 208.718,233.460 209.069,233.583 209.072 C 233.707 209.075,234.320 209.423,234.945 209.847 C 235.570 210.270,236.485 210.728,236.979 210.865 C 237.472 211.001,238.010 211.291,238.174 211.508 C 238.338 211.725,239.226 212.095,240.149 212.329 C 241.071 212.563,241.946 212.912,242.092 213.106 C 242.239 213.300,243.505 213.641,244.922 213.866 C 246.332 214.091,247.848 214.467,248.290 214.702 C 249.667 215.434,260.787 215.519,263.134 214.815 C 264.103 214.524,266.003 214.098,267.354 213.868 C 268.706 213.638,270.079 213.275,270.406 213.062 C 270.732 212.848,271.753 212.440,272.675 212.155 C 273.598 211.870,274.352 211.530,274.352 211.399 C 274.352 211.267,274.953 210.982,275.686 210.764 C 276.420 210.546,277.178 210.143,277.371 209.868 C 277.563 209.593,278.062 209.293,278.479 209.201 C 278.896 209.109,279.508 208.766,279.839 208.438 C 280.170 208.110,280.680 207.767,280.972 207.676 C 281.265 207.585,282.176 206.870,282.998 206.087 C 283.819 205.304,284.610 204.663,284.755 204.663 C 285.054 204.663,287.181 202.509,288.731 200.636 C 289.301 199.947,290.087 199.047,290.479 198.635 C 290.871 198.224,291.192 197.784,291.192 197.657 C 291.192 197.531,291.541 197.069,291.969 196.632 C 292.396 196.195,292.746 195.682,292.746 195.493 C 292.746 195.304,293.096 194.709,293.523 194.171 C 293.951 193.633,294.301 193.057,294.301 192.891 C 294.301 192.725,294.634 192.129,295.040 191.567 C 295.447 191.004,295.858 190.139,295.952 189.644 C 296.047 189.149,296.400 188.333,296.737 187.830 C 297.074 187.328,297.420 186.439,297.506 185.854 C 297.592 185.269,297.943 184.162,298.287 183.393 C 298.695 182.479,298.973 181.241,299.088 179.819 C 299.186 178.622,299.385 177.339,299.532 176.969 C 300.398 174.782,300.497 169.782,300.510 127.461 C 300.522 85.577,300.433 80.623,299.613 77.979 C 299.415 77.338,299.176 75.881,299.084 74.741 C 298.975 73.399,298.701 72.212,298.307 71.373 C 297.972 70.661,297.573 69.452,297.421 68.688 C 297.268 67.923,296.919 66.983,296.646 66.599 C 296.372 66.215,296.064 65.558,295.961 65.140 C 295.857 64.721,295.509 64.028,295.186 63.601 C 294.864 63.174,294.518 62.474,294.417 62.047 C 294.316 61.619,293.964 60.978,293.633 60.622 C 293.303 60.266,292.848 59.532,292.622 58.991 C 292.396 58.451,292.045 57.945,291.841 57.866 C 291.637 57.788,291.391 57.473,291.293 57.165 C 291.196 56.858,290.832 56.315,290.486 55.959 C 285.060 50.378,283.498 48.856,282.633 48.310 C 282.068 47.954,281.606 47.559,281.606 47.434 C 281.606 47.309,281.333 47.138,280.999 47.054 C 280.665 46.970,280.111 46.624,279.769 46.284 C 279.426 45.944,278.892 45.587,278.584 45.491 C 278.275 45.394,277.696 45.059,277.298 44.746 C 276.900 44.433,275.999 43.974,275.296 43.726 C 274.593 43.479,273.831 43.111,273.602 42.909 C 273.374 42.708,272.511 42.394,271.686 42.212 C 270.861 42.030,269.956 41.682,269.674 41.438 C 269.239 41.060,266.202 40.415,264.860 40.415 C 264.638 40.415,264.089 40.255,263.640 40.061 C 261.661 39.204,255.221 38.854,251.490 39.400 M146.595 49.493 C 147.778 49.641,149.173 49.991,149.693 50.270 C 150.214 50.549,150.960 50.777,151.351 50.777 C 152.163 50.777,154.145 51.510,154.145 51.811 C 154.145 51.921,154.672 52.144,155.316 52.306 C 155.960 52.468,156.715 52.829,156.994 53.108 C 157.273 53.387,157.922 53.791,158.437 54.006 C 158.952 54.221,159.741 54.685,160.192 55.037 C 160.642 55.390,161.355 55.945,161.776 56.272 C 163.629 57.708,168.494 62.807,169.380 64.242 C 169.603 64.602,169.982 65.130,170.223 65.415 C 170.464 65.699,170.798 66.360,170.966 66.883 C 171.133 67.406,171.433 67.969,171.631 68.134 C 171.830 68.299,172.189 69.037,172.428 69.774 C 172.668 70.511,173.039 71.314,173.252 71.558 C 173.464 71.802,173.845 72.968,174.097 74.149 C 174.350 75.329,174.773 76.820,175.037 77.461 C 176.080 79.989,175.841 176.111,174.787 178.150 C 174.572 178.564,174.221 179.755,174.005 180.796 C 173.790 181.837,173.440 182.882,173.229 183.119 C 173.017 183.356,172.651 184.217,172.416 185.034 C 172.180 185.851,171.881 186.584,171.752 186.664 C 171.622 186.744,171.317 187.242,171.073 187.770 C 170.829 188.298,170.347 189.080,170.002 189.508 C 169.657 189.935,168.594 191.344,167.638 192.639 C 165.835 195.083,163.676 197.184,161.336 198.772 C 160.863 199.093,160.206 199.607,159.876 199.915 C 159.546 200.223,158.985 200.548,158.631 200.636 C 158.277 200.725,157.736 201.032,157.429 201.318 C 157.123 201.603,156.375 201.962,155.768 202.115 C 155.160 202.268,154.663 202.483,154.663 202.592 C 154.663 202.920,153.061 203.556,151.770 203.739 C 151.105 203.834,150.428 204.071,150.266 204.266 C 149.229 205.516,135.410 205.573,132.853 204.338 C 132.042 203.947,131.135 203.627,130.837 203.627 C 130.117 203.627,128.497 202.940,128.497 202.635 C 128.497 202.502,127.971 202.260,127.327 202.098 C 126.683 201.936,125.942 201.590,125.682 201.329 C 125.421 201.068,124.830 200.723,124.368 200.563 C 123.505 200.262,122.276 199.373,120.990 198.122 C 120.588 197.730,120.139 197.409,119.993 197.409 C 119.846 197.409,119.514 197.146,119.255 196.825 C 118.995 196.504,118.462 196.035,118.070 195.783 C 117.678 195.531,117.358 195.172,117.358 194.986 C 117.358 194.800,117.075 194.496,116.730 194.311 C 116.384 194.126,116.034 193.706,115.952 193.378 C 115.869 193.049,115.575 192.709,115.298 192.621 C 115.020 192.533,114.722 192.236,114.635 191.961 C 114.548 191.687,114.076 190.982,113.585 190.396 C 113.095 189.809,112.694 189.170,112.694 188.975 C 112.694 188.781,112.476 188.413,112.210 188.158 C 111.943 187.903,111.569 187.228,111.379 186.658 C 111.189 186.088,110.830 185.387,110.581 185.101 C 110.333 184.814,109.957 183.920,109.747 183.114 C 109.537 182.307,109.193 181.376,108.982 181.044 C 108.771 180.712,108.401 179.041,108.159 177.332 C 107.916 175.622,107.585 173.990,107.421 173.705 C 106.910 172.812,106.868 83.683,107.379 81.997 C 107.595 81.283,107.990 79.150,108.258 77.257 C 108.549 75.203,108.901 73.636,109.132 73.371 C 109.345 73.127,109.665 72.307,109.842 71.549 C 110.019 70.791,110.358 69.975,110.595 69.736 C 110.833 69.496,111.185 68.834,111.379 68.264 C 111.573 67.694,112.006 66.898,112.342 66.496 C 112.678 66.093,112.953 65.546,112.953 65.280 C 112.953 65.015,113.073 64.724,113.218 64.634 C 113.364 64.544,113.969 63.808,114.563 62.999 C 115.919 61.153,120.891 56.216,121.907 55.706 C 122.326 55.496,123.051 55.001,123.519 54.605 C 123.987 54.210,124.533 53.886,124.731 53.886 C 124.930 53.886,125.252 53.726,125.448 53.531 C 125.932 53.046,127.349 52.332,127.825 52.332 C 128.040 52.332,128.630 52.050,129.137 51.706 C 129.644 51.362,130.553 50.999,131.156 50.900 C 131.760 50.801,132.742 50.500,133.340 50.231 C 135.381 49.311,142.146 48.935,146.595 49.493 M261.315 49.500 C 262.430 49.653,263.692 49.952,264.119 50.164 C 264.547 50.376,265.462 50.659,266.153 50.791 C 266.844 50.924,267.718 51.203,268.096 51.410 C 268.976 51.895,269.560 52.168,270.920 52.731 C 271.525 52.982,272.021 53.271,272.021 53.372 C 272.021 53.474,272.547 53.757,273.189 54.003 C 273.832 54.248,274.478 54.672,274.623 54.945 C 274.769 55.217,275.057 55.440,275.264 55.440 C 276.008 55.440,282.037 61.176,282.548 62.370 C 282.746 62.834,283.016 63.212,283.148 63.212 C 283.452 63.212,285.751 66.623,285.751 67.074 C 285.751 67.260,286.038 67.753,286.389 68.170 C 286.739 68.586,287.100 69.361,287.190 69.891 C 287.280 70.421,287.555 71.146,287.801 71.503 C 288.410 72.386,288.554 72.824,288.855 74.711 C 288.998 75.605,289.302 76.712,289.531 77.171 C 290.345 78.803,290.440 85.018,290.340 130.311 C 290.238 176.245,290.232 176.522,289.241 178.422 C 289.033 178.820,288.863 179.447,288.862 179.816 C 288.860 180.741,288.172 182.945,287.818 183.164 C 287.658 183.263,287.412 183.857,287.272 184.483 C 287.131 185.109,286.744 185.913,286.411 186.269 C 286.078 186.626,285.727 187.292,285.631 187.750 C 285.534 188.208,285.174 188.849,284.831 189.175 C 284.487 189.500,284.204 189.902,284.201 190.066 C 284.199 190.231,283.782 190.872,283.276 191.491 C 282.769 192.110,282.041 193.014,281.657 193.500 C 280.117 195.448,276.277 198.964,275.690 198.964 C 275.566 198.964,275.099 199.313,274.652 199.741 C 274.205 200.168,273.684 200.518,273.494 200.518 C 273.304 200.518,272.691 200.865,272.132 201.288 C 271.572 201.712,270.881 202.063,270.596 202.070 C 270.311 202.077,269.565 202.430,268.938 202.854 C 268.311 203.279,267.458 203.627,267.043 203.627 C 266.629 203.627,265.626 203.948,264.816 204.339 L 263.342 205.052 256.218 205.052 L 249.093 205.052 247.620 204.339 C 246.809 203.948,245.807 203.627,245.392 203.627 C 244.977 203.627,244.125 203.279,243.498 202.854 C 242.871 202.430,242.111 202.080,241.810 202.077 C 241.509 202.075,240.823 201.723,240.285 201.295 C 239.747 200.868,239.099 200.518,238.844 200.518 C 238.590 200.518,238.052 200.198,237.649 199.806 C 237.247 199.414,236.597 198.928,236.205 198.726 C 235.813 198.523,235.492 198.211,235.492 198.031 C 235.492 197.851,235.251 197.627,234.956 197.533 C 234.404 197.358,230.829 193.948,230.829 193.596 C 230.829 193.488,230.541 193.107,230.189 192.749 C 228.925 191.464,227.971 190.199,227.605 189.322 C 227.400 188.832,227.057 188.285,226.843 188.107 C 226.628 187.929,226.260 187.202,226.024 186.490 C 225.787 185.778,225.441 185.137,225.253 185.066 C 225.066 184.994,224.778 184.332,224.612 183.594 C 224.447 182.857,224.044 181.729,223.717 181.088 C 223.351 180.371,223.061 179.220,222.963 178.098 C 222.876 177.094,222.568 175.520,222.279 174.599 C 221.535 172.229,221.576 81.884,222.321 80.310 C 222.558 79.812,222.837 78.414,222.943 77.205 C 223.128 75.083,223.569 73.511,224.065 73.204 C 224.196 73.123,224.385 72.467,224.484 71.746 C 224.596 70.931,224.888 70.194,225.256 69.797 C 225.582 69.446,225.978 68.642,226.137 68.011 C 226.296 67.381,226.587 66.771,226.785 66.658 C 226.982 66.544,227.361 66.029,227.626 65.515 C 229.455 61.967,235.333 56.170,239.206 54.094 C 239.657 53.852,240.153 53.544,240.309 53.409 C 240.794 52.989,242.184 52.332,242.585 52.332 C 242.796 52.332,243.125 52.175,243.316 51.984 C 243.880 51.420,244.615 51.108,245.855 50.908 C 246.496 50.804,247.509 50.500,248.106 50.231 C 250.151 49.310,257.117 48.925,261.315 49.500 " stroke="none" fill="#17a556" fill-rule="evenodd"></path><path id="path1" d="M0.000 129.534 L 0.000 259.067 200.000 259.067 L 400.000 259.067 400.000 129.534 L 400.000 0.000 200.000 0.000 L 0.000 0.000 0.000 129.534 M146.394 39.376 C 147.332 39.512,148.440 39.800,148.855 40.017 C 149.271 40.234,149.961 40.416,150.389 40.422 C 151.805 40.443,154.602 41.094,155.006 41.497 C 155.224 41.715,156.099 42.031,156.951 42.199 C 157.803 42.366,158.636 42.668,158.803 42.870 C 158.970 43.071,159.710 43.432,160.447 43.671 C 161.184 43.910,162.021 44.306,162.306 44.549 C 162.591 44.793,163.232 45.193,163.731 45.438 C 164.724 45.927,166.090 46.821,167.098 47.642 C 167.455 47.932,168.217 48.552,168.793 49.020 C 169.369 49.488,171.038 51.095,172.502 52.591 C 176.127 56.295,176.425 56.619,176.425 56.853 C 176.425 56.964,176.775 57.454,177.202 57.941 C 177.630 58.428,177.979 58.976,177.979 59.159 C 177.979 59.342,178.329 59.884,178.756 60.363 C 179.184 60.841,179.534 61.429,179.534 61.669 C 179.534 61.909,179.883 62.545,180.311 63.083 C 180.738 63.621,181.088 64.284,181.088 64.556 C 181.088 65.070,181.792 66.612,182.130 66.839 C 182.237 66.911,182.516 67.725,182.752 68.649 C 182.988 69.574,183.347 70.582,183.549 70.891 C 183.751 71.200,184.044 72.484,184.200 73.744 C 184.561 76.670,184.683 77.188,185.199 77.979 C 185.883 79.027,185.845 175.449,185.160 176.457 C 184.861 176.897,184.565 178.213,184.319 180.197 C 184.110 181.881,183.830 183.326,183.696 183.409 C 183.360 183.617,182.911 184.858,182.622 186.381 C 182.488 187.083,182.197 187.859,181.975 188.105 C 181.752 188.351,181.406 189.097,181.206 189.762 C 181.006 190.428,180.548 191.322,180.188 191.749 C 179.828 192.177,179.534 192.730,179.534 192.978 C 179.534 193.227,179.190 193.815,178.770 194.285 C 178.350 194.756,177.933 195.476,177.843 195.886 C 177.753 196.296,177.527 196.632,177.341 196.632 C 177.154 196.632,176.808 197.040,176.572 197.539 C 176.335 198.038,176.046 198.446,175.929 198.446 C 175.812 198.446,175.424 198.883,175.066 199.417 C 174.386 200.433,170.881 204.026,169.390 205.237 C 168.913 205.624,168.017 206.352,167.398 206.856 C 166.779 207.360,166.184 207.772,166.075 207.772 C 165.967 207.772,165.576 208.053,165.205 208.397 C 164.834 208.740,164.175 209.099,163.740 209.195 C 163.305 209.290,162.831 209.590,162.686 209.860 C 162.536 210.141,161.825 210.526,161.027 210.757 C 160.260 210.981,159.575 211.311,159.506 211.492 C 159.436 211.673,158.715 211.981,157.903 212.176 C 157.090 212.371,156.159 212.740,155.833 212.997 C 155.507 213.253,154.381 213.594,153.332 213.755 C 152.283 213.916,150.959 214.202,150.389 214.392 C 147.157 215.467,135.281 215.681,133.549 214.696 C 133.122 214.452,131.703 214.088,130.397 213.886 C 128.938 213.661,127.740 213.320,127.289 213.001 C 126.885 212.717,125.948 212.346,125.207 212.178 C 124.466 212.009,123.724 211.708,123.558 211.508 C 123.392 211.307,122.808 211.023,122.261 210.876 C 121.715 210.729,120.933 210.327,120.525 209.984 C 120.118 209.641,119.470 209.281,119.086 209.185 C 118.701 209.088,118.301 208.865,118.196 208.688 C 118.091 208.510,117.539 208.071,116.969 207.711 C 116.399 207.351,115.652 206.809,115.310 206.507 C 114.968 206.205,114.535 205.959,114.348 205.959 C 114.161 205.959,113.884 205.727,113.732 205.443 C 113.580 205.160,113.118 204.753,112.705 204.539 C 112.292 204.326,111.881 203.922,111.793 203.643 C 111.704 203.364,111.397 203.061,111.111 202.970 C 110.824 202.879,110.468 202.536,110.318 202.208 C 110.169 201.880,109.768 201.485,109.427 201.329 C 109.087 201.174,108.808 200.877,108.808 200.668 C 108.808 200.459,108.604 200.136,108.355 199.950 C 107.822 199.552,105.699 196.805,105.699 196.513 C 105.699 196.402,105.350 195.914,104.922 195.427 C 104.495 194.940,104.145 194.389,104.145 194.202 C 104.145 194.016,103.850 193.524,103.490 193.110 C 103.130 192.696,102.708 191.862,102.552 191.256 C 102.397 190.651,102.192 190.155,102.098 190.155 C 101.777 190.155,101.108 188.736,100.953 187.727 C 100.869 187.175,100.611 186.515,100.380 186.260 C 100.150 186.006,99.787 184.942,99.573 183.896 C 99.359 182.850,99.010 181.724,98.797 181.394 C 97.913 180.022,97.860 177.439,97.743 130.440 C 97.617 79.949,97.687 76.344,98.838 73.575 C 99.164 72.791,99.513 71.485,99.614 70.673 C 99.729 69.748,100.030 68.880,100.417 68.355 C 100.758 67.894,101.036 67.239,101.036 66.902 C 101.036 66.181,101.488 65.240,101.970 64.954 C 102.158 64.843,102.387 64.348,102.480 63.852 C 102.573 63.357,102.985 62.528,103.397 62.010 C 103.808 61.492,104.145 60.852,104.145 60.586 C 104.145 60.321,104.407 59.847,104.728 59.534 C 105.049 59.221,105.486 58.652,105.699 58.269 C 106.877 56.161,114.061 48.446,114.847 48.445 C 115.017 48.445,115.614 48.037,116.174 47.539 C 116.734 47.040,117.332 46.632,117.502 46.632 C 117.673 46.632,117.963 46.451,118.147 46.229 C 118.331 46.007,118.898 45.651,119.406 45.439 C 119.914 45.227,120.564 44.840,120.851 44.579 C 121.138 44.319,121.839 43.960,122.409 43.782 C 122.979 43.605,123.679 43.262,123.964 43.021 C 124.249 42.780,125.123 42.430,125.907 42.244 C 126.690 42.059,127.681 41.698,128.109 41.444 C 128.536 41.189,130.098 40.790,131.580 40.557 C 133.062 40.323,134.497 40.013,134.769 39.867 C 135.998 39.210,143.154 38.907,146.394 39.376 M260.941 39.413 C 261.976 39.575,263.191 39.867,263.640 40.061 C 264.089 40.255,264.638 40.415,264.860 40.415 C 266.202 40.415,269.239 41.060,269.674 41.438 C 269.956 41.682,270.861 42.030,271.686 42.212 C 272.511 42.394,273.374 42.708,273.602 42.909 C 273.831 43.111,274.593 43.479,275.296 43.726 C 275.999 43.974,276.900 44.433,277.298 44.746 C 277.696 45.059,278.275 45.394,278.584 45.491 C 278.892 45.587,279.426 45.944,279.769 46.284 C 280.111 46.624,280.665 46.970,280.999 47.054 C 281.333 47.138,281.606 47.309,281.606 47.434 C 281.606 47.559,282.068 47.954,282.633 48.310 C 283.498 48.856,285.060 50.378,290.486 55.959 C 290.832 56.315,291.196 56.858,291.293 57.165 C 291.391 57.473,291.637 57.788,291.841 57.866 C 292.045 57.945,292.396 58.451,292.622 58.991 C 292.848 59.532,293.303 60.266,293.633 60.622 C 293.964 60.978,294.316 61.619,294.417 62.047 C 294.518 62.474,294.864 63.174,295.186 63.601 C 295.509 64.028,295.857 64.721,295.961 65.140 C 296.064 65.558,296.372 66.215,296.646 66.599 C 296.919 66.983,297.268 67.923,297.421 68.688 C 297.573 69.452,297.972 70.661,298.307 71.373 C 298.701 72.212,298.975 73.399,299.084 74.741 C 299.176 75.881,299.415 77.338,299.613 77.979 C 301.038 82.575,300.963 173.355,299.532 176.969 C 299.385 177.339,299.186 178.622,299.088 179.819 C 298.973 181.241,298.695 182.479,298.287 183.393 C 297.943 184.162,297.592 185.269,297.506 185.854 C 297.420 186.439,297.074 187.328,296.737 187.830 C 296.400 188.333,296.047 189.149,295.952 189.644 C 295.858 190.139,295.447 191.004,295.040 191.567 C 294.634 192.129,294.301 192.725,294.301 192.891 C 294.301 193.057,293.951 193.633,293.523 194.171 C 293.096 194.709,292.746 195.304,292.746 195.493 C 292.746 195.682,292.396 196.195,291.969 196.632 C 291.541 197.069,291.192 197.531,291.192 197.657 C 291.192 197.784,290.871 198.224,290.479 198.635 C 290.087 199.047,289.301 199.947,288.731 200.636 C 287.181 202.509,285.054 204.663,284.755 204.663 C 284.610 204.663,283.819 205.304,282.998 206.087 C 282.176 206.870,281.265 207.585,280.972 207.676 C 280.680 207.767,280.170 208.110,279.839 208.438 C 279.508 208.766,278.896 209.109,278.479 209.201 C 278.062 209.293,277.563 209.593,277.371 209.868 C 277.178 210.143,276.420 210.546,275.686 210.764 C 274.953 210.982,274.352 211.267,274.352 211.399 C 274.352 211.530,273.598 211.870,272.675 212.155 C 271.753 212.440,270.732 212.848,270.406 213.062 C 270.079 213.275,268.706 213.638,267.354 213.868 C 266.003 214.098,264.103 214.524,263.134 214.815 C 260.787 215.519,249.667 215.434,248.290 214.702 C 247.848 214.467,246.332 214.091,244.922 213.866 C 243.505 213.641,242.239 213.300,242.092 213.106 C 241.946 212.912,241.071 212.563,240.149 212.329 C 239.226 212.095,238.338 211.725,238.174 211.508 C 238.010 211.291,237.472 211.001,236.979 210.865 C 236.485 210.728,235.570 210.270,234.945 209.847 C 234.320 209.423,233.707 209.075,233.583 209.072 C 233.460 209.069,232.960 208.718,232.473 208.290 C 231.987 207.863,231.439 207.513,231.257 207.513 C 231.075 207.513,230.591 207.163,230.181 206.736 C 229.772 206.308,229.297 205.959,229.126 205.959 C 228.956 205.959,228.625 205.667,228.392 205.311 C 228.158 204.955,227.845 204.663,227.694 204.663 C 227.365 204.663,223.575 200.852,223.575 200.521 C 223.575 200.393,223.343 200.126,223.060 199.927 C 222.514 199.545,221.766 198.582,220.449 196.567 C 220.007 195.891,219.540 195.337,219.413 195.337 C 219.285 195.337,219.101 195.017,219.003 194.626 C 218.904 194.236,218.494 193.460,218.091 192.904 C 217.688 192.347,217.358 191.750,217.358 191.578 C 217.358 191.405,217.060 190.826,216.697 190.291 C 216.334 189.756,215.970 188.953,215.889 188.506 C 215.807 188.060,215.468 187.216,215.136 186.632 C 214.804 186.048,214.414 184.839,214.270 183.944 C 214.126 183.050,213.760 181.842,213.456 181.260 C 212.519 179.462,212.451 175.873,212.449 127.979 C 212.446 79.920,212.530 75.439,213.467 73.642 C 213.769 73.062,214.139 71.798,214.290 70.832 C 214.441 69.860,214.795 68.761,215.082 68.373 C 215.367 67.988,215.702 67.131,215.825 66.469 C 215.949 65.808,216.344 64.881,216.704 64.409 C 217.063 63.938,217.358 63.363,217.358 63.132 C 217.358 62.901,217.707 62.314,218.135 61.827 C 218.562 61.340,218.912 60.757,218.912 60.532 C 218.912 60.306,219.262 59.723,219.689 59.236 C 220.117 58.750,220.466 58.239,220.466 58.102 C 220.466 57.965,220.711 57.631,221.011 57.359 C 221.311 57.088,221.735 56.519,221.955 56.094 C 222.300 55.427,223.131 54.480,225.518 52.034 C 227.090 50.424,229.348 48.446,229.615 48.445 C 229.784 48.445,230.379 48.039,230.936 47.543 C 231.494 47.046,232.165 46.572,232.426 46.489 C 232.688 46.406,232.902 46.235,232.902 46.109 C 232.902 45.982,233.451 45.636,234.123 45.339 C 234.794 45.042,235.529 44.632,235.755 44.427 C 235.981 44.222,236.679 43.874,237.306 43.653 C 237.933 43.432,238.626 43.100,238.847 42.917 C 239.068 42.734,239.890 42.431,240.674 42.245 C 241.457 42.059,242.448 41.698,242.876 41.444 C 243.303 41.189,244.865 40.790,246.347 40.557 C 247.829 40.323,249.257 40.017,249.521 39.875 C 250.831 39.174,257.647 38.899,260.941 39.413 M136.189 49.515 C 135.219 49.640,133.937 49.962,133.340 50.231 C 132.742 50.500,131.760 50.801,131.156 50.900 C 130.553 50.999,129.644 51.362,129.137 51.706 C 128.630 52.050,128.040 52.332,127.825 52.332 C 127.349 52.332,125.932 53.046,125.448 53.531 C 125.252 53.726,124.930 53.886,124.731 53.886 C 124.533 53.886,123.987 54.210,123.519 54.605 C 123.051 55.001,122.326 55.496,121.907 55.706 C 120.891 56.216,115.919 61.153,114.563 62.999 C 113.969 63.808,113.364 64.544,113.218 64.634 C 113.073 64.724,112.953 65.015,112.953 65.280 C 112.953 65.546,112.678 66.093,112.342 66.496 C 112.006 66.898,111.573 67.694,111.379 68.264 C 111.185 68.834,110.833 69.496,110.595 69.736 C 110.358 69.975,110.019 70.791,109.842 71.549 C 109.665 72.307,109.345 73.127,109.132 73.371 C 108.901 73.636,108.549 75.203,108.258 77.257 C 107.990 79.150,107.595 81.283,107.379 81.997 C 106.868 83.683,106.910 172.812,107.421 173.705 C 107.585 173.990,107.916 175.622,108.159 177.332 C 108.401 179.041,108.771 180.712,108.982 181.044 C 109.193 181.376,109.537 182.307,109.747 183.114 C 109.957 183.920,110.333 184.814,110.581 185.101 C 110.830 185.387,111.189 186.088,111.379 186.658 C 111.569 187.228,111.943 187.903,112.210 188.158 C 112.476 188.413,112.694 188.781,112.694 188.975 C 112.694 189.170,113.095 189.809,113.585 190.396 C 114.076 190.982,114.548 191.687,114.635 191.961 C 114.722 192.236,115.020 192.533,115.298 192.621 C 115.575 192.709,115.869 193.049,115.952 193.378 C 116.034 193.706,116.384 194.126,116.730 194.311 C 117.075 194.496,117.358 194.800,117.358 194.986 C 117.358 195.172,117.678 195.531,118.070 195.783 C 118.462 196.035,118.995 196.504,119.255 196.825 C 119.514 197.146,119.846 197.409,119.993 197.409 C 120.139 197.409,120.588 197.730,120.990 198.122 C 122.276 199.373,123.505 200.262,124.368 200.563 C 124.830 200.723,125.421 201.068,125.682 201.329 C 125.942 201.590,126.683 201.936,127.327 202.098 C 127.971 202.260,128.497 202.502,128.497 202.635 C 128.497 202.940,130.117 203.627,130.837 203.627 C 131.135 203.627,132.042 203.947,132.853 204.338 C 135.410 205.573,149.229 205.516,150.266 204.266 C 150.428 204.071,151.105 203.834,151.770 203.739 C 153.061 203.556,154.663 202.920,154.663 202.592 C 154.663 202.483,155.160 202.268,155.768 202.115 C 156.375 201.962,157.123 201.603,157.429 201.318 C 157.736 201.032,158.277 200.725,158.631 200.636 C 158.985 200.548,159.546 200.223,159.876 199.915 C 160.206 199.607,160.863 199.093,161.336 198.772 C 163.676 197.184,165.835 195.083,167.638 192.639 C 168.594 191.344,169.657 189.935,170.002 189.508 C 170.347 189.080,170.829 188.298,171.073 187.770 C 171.317 187.242,171.622 186.744,171.752 186.664 C 171.881 186.584,172.180 185.851,172.416 185.034 C 172.651 184.217,173.017 183.356,173.229 183.119 C 173.440 182.882,173.790 181.837,174.005 180.796 C 174.221 179.755,174.572 178.564,174.787 178.150 C 175.841 176.111,176.080 79.989,175.037 77.461 C 174.773 76.820,174.350 75.329,174.097 74.149 C 173.845 72.968,173.464 71.802,173.252 71.558 C 173.039 71.314,172.668 70.511,172.428 69.774 C 172.189 69.037,171.830 68.299,171.631 68.134 C 171.433 67.969,171.133 67.406,170.966 66.883 C 170.798 66.360,170.464 65.699,170.223 65.415 C 169.982 65.130,169.603 64.602,169.380 64.242 C 168.494 62.807,163.629 57.708,161.776 56.272 C 161.355 55.945,160.642 55.390,160.192 55.037 C 159.741 54.685,158.952 54.221,158.437 54.006 C 157.922 53.791,157.273 53.387,156.994 53.108 C 156.715 52.829,155.960 52.468,155.316 52.306 C 154.672 52.144,154.145 51.921,154.145 51.811 C 154.145 51.510,152.163 50.777,151.351 50.777 C 150.960 50.777,150.214 50.549,149.693 50.270 C 147.923 49.321,140.797 48.923,136.189 49.515 M250.956 49.515 C 249.986 49.640,248.704 49.962,248.106 50.231 C 247.509 50.500,246.496 50.804,245.855 50.908 C 244.615 51.108,243.880 51.420,243.316 51.984 C 243.125 52.175,242.796 52.332,242.585 52.332 C 242.184 52.332,240.794 52.989,240.309 53.409 C 240.153 53.544,239.657 53.852,239.206 54.094 C 235.333 56.170,229.455 61.967,227.626 65.515 C 227.361 66.029,226.982 66.544,226.785 66.658 C 226.587 66.771,226.296 67.381,226.137 68.011 C 225.978 68.642,225.582 69.446,225.256 69.797 C 224.888 70.194,224.596 70.931,224.484 71.746 C 224.385 72.467,224.196 73.123,224.065 73.204 C 223.569 73.511,223.128 75.083,222.943 77.205 C 222.837 78.414,222.558 79.812,222.321 80.310 C 221.576 81.884,221.535 172.229,222.279 174.599 C 222.568 175.520,222.876 177.094,222.963 178.098 C 223.061 179.220,223.351 180.371,223.717 181.088 C 224.044 181.729,224.447 182.857,224.612 183.594 C 224.778 184.332,225.066 184.994,225.253 185.066 C 225.441 185.137,225.787 185.778,226.024 186.490 C 226.260 187.202,226.628 187.929,226.843 188.107 C 227.057 188.285,227.400 188.832,227.605 189.322 C 227.971 190.199,228.925 191.464,230.189 192.749 C 230.541 193.107,230.829 193.488,230.829 193.596 C 230.829 193.948,234.404 197.358,234.956 197.533 C 235.251 197.627,235.492 197.851,235.492 198.031 C 235.492 198.211,235.813 198.523,236.205 198.726 C 236.597 198.928,237.247 199.414,237.649 199.806 C 238.052 200.198,238.590 200.518,238.844 200.518 C 239.099 200.518,239.747 200.868,240.285 201.295 C 240.823 201.723,241.509 202.075,241.810 202.077 C 242.111 202.080,242.871 202.430,243.498 202.854 C 244.125 203.279,244.977 203.627,245.392 203.627 C 245.807 203.627,246.809 203.948,247.620 204.339 L 249.093 205.052 256.218 205.052 L 263.342 205.052 264.816 204.339 C 265.626 203.948,266.629 203.627,267.043 203.627 C 267.458 203.627,268.311 203.279,268.938 202.854 C 269.565 202.430,270.311 202.077,270.596 202.070 C 270.881 202.063,271.572 201.712,272.132 201.288 C 272.691 200.865,273.304 200.518,273.494 200.518 C 273.684 200.518,274.205 200.168,274.652 199.741 C 275.099 199.313,275.566 198.964,275.690 198.964 C 276.277 198.964,280.117 195.448,281.657 193.500 C 282.041 193.014,282.769 192.110,283.276 191.491 C 283.782 190.872,284.199 190.231,284.201 190.066 C 284.204 189.902,284.487 189.500,284.831 189.175 C 285.174 188.849,285.534 188.208,285.631 187.750 C 285.727 187.292,286.078 186.626,286.411 186.269 C 286.744 185.913,287.131 185.109,287.272 184.483 C 287.412 183.857,287.658 183.263,287.818 183.164 C 288.172 182.945,288.860 180.741,288.862 179.816 C 288.863 179.447,289.033 178.820,289.241 178.422 C 290.232 176.522,290.238 176.245,290.340 130.311 C 290.440 85.018,290.345 78.803,289.531 77.171 C 289.302 76.712,288.998 75.605,288.855 74.711 C 288.554 72.824,288.410 72.386,287.801 71.503 C 287.555 71.146,287.280 70.421,287.190 69.891 C 287.100 69.361,286.739 68.586,286.389 68.170 C 286.038 67.753,285.751 67.260,285.751 67.074 C 285.751 66.623,283.452 63.212,283.148 63.212 C 283.016 63.212,282.746 62.834,282.548 62.370 C 282.037 61.176,276.008 55.440,275.264 55.440 C 275.057 55.440,274.769 55.217,274.623 54.945 C 274.478 54.672,273.832 54.248,273.189 54.003 C 272.547 53.757,272.021 53.474,272.021 53.372 C 272.021 53.271,271.525 52.982,270.920 52.731 C 269.560 52.168,268.976 51.895,268.096 51.410 C 267.718 51.203,266.844 50.924,266.153 50.791 C 265.462 50.659,264.547 50.376,264.119 50.164 C 262.392 49.306,255.302 48.956,250.956 49.515 " stroke="none" fill="#ffffff" fill-rule="evenodd"></path></g></svg>