<svg id="svg" version="1.1" xmlns="http://www.w3.org/2000/svg" xmlns:xlink="http://www.w3.org/1999/xlink" width="400" height="258.91472868217056" viewBox="0, 0, 400,258.91472868217056"><g id="svgg"><path id="path0" d="M75.780 39.164 C 74.642 39.293,73.456 39.567,73.143 39.771 C 72.831 39.976,71.678 40.329,70.580 40.556 C 69.482 40.782,68.279 41.182,67.906 41.444 C 67.533 41.706,66.616 42.115,65.868 42.354 C 65.120 42.593,64.508 42.885,64.508 43.005 C 64.508 43.124,63.954 43.425,63.277 43.673 C 62.600 43.921,61.930 44.263,61.788 44.432 C 61.645 44.601,61.120 44.947,60.622 45.201 C 60.123 45.455,59.540 45.824,59.326 46.020 C 59.113 46.216,58.338 46.814,57.604 47.348 C 54.727 49.443,50.000 54.014,50.000 54.701 C 50.000 54.820,49.650 55.252,49.223 55.661 C 48.795 56.069,48.446 56.535,48.446 56.697 C 48.446 56.859,48.096 57.302,47.668 57.683 C 47.241 58.064,46.891 58.586,46.891 58.842 C 46.891 59.099,46.541 59.707,46.114 60.194 C 45.687 60.680,45.337 61.247,45.337 61.454 C 45.337 61.660,45.000 62.344,44.588 62.974 C 44.175 63.604,43.753 64.523,43.648 65.016 C 43.544 65.509,43.190 66.325,42.861 66.829 C 42.533 67.334,42.185 68.329,42.086 69.041 C 41.988 69.754,41.671 70.728,41.382 71.206 C 41.016 71.812,40.787 72.835,40.630 74.574 C 40.506 75.948,40.231 77.752,40.021 78.583 C 39.551 80.436,39.430 174.518,39.897 175.390 C 40.040 175.656,40.329 177.351,40.540 179.156 C 40.815 181.508,41.075 182.683,41.457 183.300 C 41.750 183.774,42.061 184.764,42.148 185.501 C 42.245 186.322,42.529 187.107,42.881 187.527 C 43.198 187.904,43.542 188.620,43.647 189.119 C 43.752 189.618,44.175 190.541,44.588 191.171 C 45.000 191.801,45.337 192.485,45.337 192.692 C 45.337 192.898,45.687 193.465,46.114 193.951 C 46.541 194.438,46.891 195.009,46.891 195.219 C 46.891 195.429,47.241 195.967,47.668 196.414 C 48.096 196.861,48.446 197.351,48.446 197.503 C 48.446 197.654,48.734 198.074,49.086 198.436 C 49.438 198.797,51.275 200.696,53.166 202.654 C 55.058 204.613,56.749 206.216,56.924 206.216 C 57.099 206.217,57.426 206.498,57.650 206.841 C 57.875 207.183,58.366 207.541,58.743 207.635 C 59.120 207.730,59.817 208.149,60.293 208.567 C 60.769 208.985,61.292 209.326,61.456 209.326 C 61.620 209.326,61.995 209.544,62.289 209.810 C 62.583 210.076,63.378 210.500,64.054 210.752 C 64.731 211.004,65.285 211.306,65.285 211.424 C 65.285 211.541,66.040 211.870,66.962 212.155 C 67.884 212.440,68.925 212.861,69.275 213.090 C 69.625 213.319,70.853 213.671,72.003 213.872 C 73.153 214.073,74.356 214.404,74.677 214.607 C 76.512 215.772,91.456 215.805,92.736 214.646 C 92.970 214.435,93.987 214.144,94.996 214.001 C 96.990 213.718,98.045 213.393,98.299 212.981 C 98.389 212.836,99.177 212.577,100.050 212.405 C 100.940 212.230,101.864 211.867,102.151 211.580 C 102.433 211.298,103.190 210.909,103.833 210.715 C 104.476 210.522,105.160 210.139,105.351 209.865 C 105.543 209.592,106.054 209.290,106.486 209.195 C 106.918 209.100,107.643 208.683,108.097 208.268 C 108.552 207.853,109.030 207.513,109.159 207.513 C 109.779 207.513,116.856 200.902,117.479 199.741 C 117.670 199.385,118.129 198.811,118.499 198.465 C 118.868 198.120,119.171 197.685,119.171 197.500 C 119.171 197.314,119.451 196.979,119.794 196.754 C 120.137 196.529,120.484 196.080,120.565 195.755 C 120.647 195.430,121.066 194.720,121.497 194.178 C 121.927 193.636,122.280 193.033,122.280 192.838 C 122.280 192.642,122.630 192.000,123.057 191.410 C 123.484 190.820,123.834 190.060,123.834 189.722 C 123.834 189.385,124.124 188.671,124.477 188.136 C 124.831 187.601,125.233 186.569,125.371 185.843 C 125.509 185.116,125.857 184.070,126.144 183.517 C 126.469 182.892,126.773 181.535,126.948 179.922 C 127.104 178.497,127.351 177.042,127.498 176.688 C 128.299 174.755,128.358 171.387,128.359 127.202 C 128.359 83.459,128.280 78.732,127.523 77.317 C 127.366 77.023,127.159 75.741,127.063 74.467 C 126.930 72.694,126.713 71.780,126.139 70.575 C 125.726 69.709,125.389 68.674,125.389 68.275 C 125.389 67.876,125.051 66.953,124.639 66.223 C 124.226 65.493,123.803 64.488,123.699 63.990 C 123.594 63.491,123.242 62.765,122.916 62.377 C 122.590 61.988,122.249 61.333,122.159 60.920 C 122.068 60.507,121.708 59.901,121.360 59.573 C 121.011 59.245,120.725 58.822,120.725 58.634 C 120.725 58.445,120.496 58.061,120.216 57.781 C 119.936 57.501,119.408 56.830,119.043 56.291 C 117.656 54.243,117.145 53.656,114.569 51.151 C 111.571 48.236,110.583 47.402,109.423 46.808 C 108.977 46.579,108.548 46.225,108.469 46.020 C 108.391 45.815,107.910 45.511,107.402 45.343 C 106.893 45.175,106.477 44.924,106.477 44.784 C 106.477 44.645,105.806 44.225,104.987 43.852 C 104.168 43.478,103.381 43.035,103.238 42.866 C 103.096 42.698,102.396 42.407,101.684 42.220 C 100.972 42.034,100.132 41.685,99.819 41.445 C 99.506 41.205,98.516 40.859,97.617 40.676 C 96.719 40.492,95.635 40.138,95.207 39.889 C 93.598 38.951,81.584 38.502,75.780 39.164 M191.128 39.134 C 189.602 39.269,188.587 39.504,188.019 39.852 C 187.555 40.136,186.418 40.515,185.492 40.695 C 184.566 40.874,183.517 41.227,183.161 41.479 C 182.804 41.731,181.988 42.071,181.347 42.235 C 180.706 42.399,179.948 42.737,179.663 42.986 C 179.378 43.236,178.737 43.593,178.238 43.780 C 177.740 43.968,177.210 44.268,177.061 44.446 C 176.913 44.625,176.330 45.025,175.766 45.334 C 173.288 46.696,172.360 47.454,168.632 51.166 C 164.607 55.173,164.508 55.280,164.508 55.628 C 164.508 55.800,164.289 56.058,164.021 56.201 C 163.753 56.344,163.357 56.902,163.142 57.441 C 162.926 57.979,162.504 58.642,162.204 58.913 C 161.904 59.185,161.658 59.555,161.658 59.735 C 161.658 59.916,161.388 60.393,161.059 60.796 C 160.729 61.199,160.257 62.073,160.009 62.739 C 159.761 63.404,159.393 64.086,159.190 64.254 C 158.988 64.422,158.742 64.985,158.645 65.505 C 158.431 66.649,157.869 68.044,157.540 68.247 C 157.408 68.329,157.164 69.205,156.997 70.195 C 156.830 71.185,156.460 72.437,156.175 72.979 C 155.151 74.921,155.065 79.264,155.080 127.720 C 155.096 175.764,155.168 179.260,156.184 181.218 C 156.480 181.788,156.833 183.040,156.968 184.001 C 157.118 185.064,157.423 186.014,157.746 186.424 C 158.038 186.795,158.352 187.525,158.444 188.044 C 158.537 188.564,158.948 189.505,159.358 190.135 C 159.768 190.765,160.104 191.478,160.104 191.719 C 160.104 191.960,160.453 192.597,160.881 193.135 C 161.308 193.673,161.658 194.272,161.658 194.467 C 161.658 194.662,161.949 195.075,162.306 195.385 C 162.662 195.695,162.953 196.075,162.953 196.230 C 162.953 196.520,164.577 198.670,165.527 199.639 C 165.821 199.939,166.062 200.284,166.062 200.406 C 166.062 200.756,171.266 205.698,172.073 206.115 C 172.472 206.321,172.798 206.601,172.798 206.737 C 172.798 206.873,173.260 207.220,173.824 207.508 C 174.389 207.796,175.059 208.250,175.314 208.517 C 175.569 208.784,176.069 209.089,176.425 209.195 C 176.781 209.300,177.309 209.602,177.598 209.866 C 177.887 210.129,178.611 210.517,179.208 210.728 C 179.804 210.938,180.616 211.349,181.014 211.641 C 181.411 211.933,182.294 212.275,182.976 212.401 C 183.658 212.528,184.415 212.810,184.660 213.030 C 184.904 213.249,185.861 213.568,186.788 213.738 C 187.714 213.908,188.996 214.216,189.637 214.422 C 192.457 215.327,192.999 215.381,199.352 215.379 C 205.691 215.377,205.872 215.362,207.870 214.683 C 208.992 214.302,210.216 213.989,210.590 213.988 C 211.528 213.986,213.262 213.489,213.731 213.087 C 213.944 212.904,214.813 212.556,215.661 212.313 C 216.510 212.071,217.487 211.649,217.834 211.376 C 218.180 211.104,218.655 210.881,218.888 210.881 C 219.121 210.881,219.728 210.538,220.236 210.119 C 220.745 209.700,221.498 209.272,221.911 209.169 C 222.324 209.065,222.876 208.708,223.138 208.376 C 223.399 208.044,223.738 207.772,223.891 207.772 C 224.044 207.772,224.667 207.364,225.276 206.865 C 225.885 206.367,226.505 205.959,226.655 205.959 C 226.805 205.959,227.186 205.609,227.502 205.181 C 227.818 204.754,228.205 204.404,228.361 204.404 C 228.517 204.404,228.851 204.054,229.104 203.627 C 229.356 203.199,229.706 202.850,229.881 202.850 C 230.056 202.850,230.406 202.500,230.658 202.073 C 230.911 201.645,231.257 201.291,231.427 201.285 C 231.597 201.280,232.319 200.457,233.031 199.456 C 233.744 198.455,234.540 197.442,234.801 197.204 C 235.062 196.967,235.435 196.391,235.630 195.925 C 235.825 195.459,236.094 195.078,236.228 195.078 C 236.362 195.078,236.669 194.582,236.910 193.977 C 237.150 193.371,237.558 192.642,237.817 192.358 C 238.075 192.073,238.365 191.466,238.461 191.010 C 238.558 190.553,238.876 189.876,239.168 189.504 C 239.460 189.133,239.806 188.341,239.937 187.744 C 240.068 187.147,240.449 186.075,240.784 185.363 C 241.119 184.650,241.536 183.251,241.710 182.254 C 241.884 181.256,242.198 180.168,242.407 179.835 C 243.460 178.159,243.698 77.511,242.654 75.259 C 242.390 74.689,241.963 73.012,241.704 71.531 C 241.446 70.051,241.126 68.768,240.993 68.681 C 240.606 68.428,240.247 67.587,239.905 66.127 C 239.729 65.379,239.487 64.767,239.366 64.767 C 239.246 64.767,238.894 64.073,238.585 63.225 C 238.276 62.378,237.803 61.485,237.535 61.242 C 237.266 60.999,237.047 60.594,237.047 60.342 C 237.047 60.090,236.772 59.555,236.435 59.152 C 236.099 58.749,235.645 58.070,235.426 57.642 C 235.206 57.214,234.782 56.642,234.482 56.371 C 234.183 56.100,233.938 55.743,233.938 55.577 C 233.938 55.412,233.559 54.920,233.096 54.483 C 232.633 54.047,231.454 52.802,230.476 51.716 C 229.499 50.630,228.604 49.741,228.488 49.741 C 228.301 49.741,227.828 49.339,226.027 47.646 C 225.737 47.373,225.403 47.150,225.286 47.150 C 225.072 47.150,222.242 45.143,221.503 44.467 C 221.289 44.271,220.648 43.965,220.078 43.786 C 219.508 43.606,218.808 43.255,218.523 43.005 C 218.238 42.755,217.539 42.406,216.969 42.228 C 216.399 42.051,215.583 41.700,215.155 41.448 C 214.728 41.196,213.523 40.798,212.479 40.564 C 211.434 40.331,210.327 39.975,210.018 39.774 C 208.777 38.965,197.373 38.579,191.128 39.134 M306.477 39.146 C 305.408 39.267,304.067 39.591,303.497 39.866 C 302.927 40.142,301.762 40.508,300.907 40.680 C 300.052 40.853,299.061 41.192,298.705 41.434 C 298.348 41.677,297.558 42.018,296.949 42.193 C 296.340 42.369,295.431 42.791,294.929 43.131 C 294.427 43.472,293.614 43.883,293.122 44.046 C 292.630 44.208,292.228 44.454,292.228 44.593 C 292.228 44.732,291.828 45.012,291.339 45.217 C 290.850 45.421,290.371 45.715,290.275 45.871 C 290.113 46.132,288.626 47.187,286.605 48.473 C 286.148 48.764,285.709 49.208,285.628 49.461 C 285.548 49.714,285.203 50.049,284.862 50.204 C 284.521 50.359,284.167 50.721,284.077 51.007 C 283.986 51.294,283.677 51.602,283.391 51.693 C 283.104 51.784,282.748 52.127,282.598 52.455 C 282.449 52.783,282.048 53.179,281.707 53.334 C 281.367 53.489,281.088 53.775,281.088 53.970 C 281.088 54.165,280.840 54.546,280.536 54.817 C 280.233 55.089,279.691 55.777,279.333 56.347 C 278.974 56.917,278.523 57.477,278.330 57.591 C 278.137 57.705,277.979 57.963,277.979 58.164 C 277.979 58.366,277.646 58.914,277.239 59.382 C 276.832 59.850,276.357 60.669,276.183 61.203 C 276.010 61.736,275.682 62.276,275.455 62.403 C 275.227 62.531,274.882 63.256,274.688 64.015 C 274.494 64.774,274.200 65.478,274.035 65.580 C 273.698 65.789,273.067 67.714,273.061 68.553 C 273.059 68.855,272.826 69.395,272.543 69.754 C 272.232 70.150,271.918 71.160,271.748 72.315 C 271.461 74.262,271.242 75.358,270.593 78.109 C 270.047 80.421,270.036 173.962,270.581 176.295 C 271.199 178.938,271.442 180.116,271.748 181.956 C 271.910 182.933,272.215 183.993,272.424 184.313 C 272.634 184.633,272.978 185.558,273.190 186.369 C 273.401 187.179,273.796 188.159,274.068 188.546 C 274.340 188.932,274.637 189.682,274.727 190.213 C 274.817 190.743,275.178 191.517,275.528 191.934 C 275.879 192.351,276.166 192.811,276.166 192.958 C 276.166 193.105,276.459 193.573,276.817 193.998 C 277.175 194.424,277.640 195.184,277.851 195.688 C 278.061 196.192,278.391 196.697,278.583 196.812 C 278.775 196.927,279.059 197.254,279.215 197.539 C 280.275 199.482,288.442 207.513,289.359 207.513 C 289.525 207.513,289.953 207.806,290.311 208.163 C 290.669 208.521,291.390 208.993,291.915 209.212 C 292.439 209.431,293.103 209.823,293.390 210.084 C 293.677 210.345,294.378 210.707,294.948 210.890 C 295.518 211.072,296.101 211.370,296.244 211.552 C 296.386 211.734,297.184 212.058,298.016 212.270 C 298.849 212.483,299.723 212.827,299.959 213.034 C 300.513 213.519,301.016 213.662,303.313 213.984 C 304.351 214.130,305.465 214.423,305.789 214.635 C 307.525 215.773,321.699 215.798,323.443 214.666 C 323.730 214.480,325.094 214.126,326.476 213.878 C 327.857 213.631,329.120 213.269,329.282 213.074 C 329.444 212.878,330.238 212.528,331.045 212.296 C 331.852 212.063,332.746 211.670,333.031 211.422 C 333.316 211.174,334.043 210.816,334.647 210.627 C 335.250 210.437,335.938 210.067,336.176 209.804 C 336.414 209.541,336.737 209.326,336.893 209.326 C 337.050 209.326,337.752 208.918,338.453 208.420 C 339.155 207.921,339.836 207.513,339.968 207.513 C 340.099 207.513,340.537 207.192,340.940 206.801 C 341.344 206.409,342.071 205.749,342.557 205.334 C 343.878 204.206,346.914 201.188,347.798 200.124 C 348.225 199.609,348.896 198.829,349.288 198.390 C 349.679 197.951,350.001 197.463,350.003 197.306 C 350.004 197.149,350.412 196.509,350.909 195.883 C 351.407 195.258,351.813 194.588,351.813 194.396 C 351.813 194.203,352.050 193.899,352.338 193.720 C 352.627 193.540,352.980 192.962,353.122 192.434 C 353.265 191.906,353.655 191.148,353.989 190.750 C 354.324 190.352,354.679 189.542,354.778 188.950 C 354.878 188.358,355.233 187.504,355.567 187.051 C 355.910 186.586,356.255 185.642,356.358 184.888 C 356.459 184.152,356.808 183.025,357.134 182.383 C 357.599 181.468,357.792 180.438,358.032 177.591 C 358.200 175.596,358.501 173.363,358.702 172.629 C 359.243 170.651,359.250 81.937,358.709 80.881 C 358.512 80.496,358.210 78.549,358.038 76.554 C 357.802 73.816,357.581 72.610,357.134 71.632 C 356.809 70.920,356.455 69.698,356.348 68.917 C 356.235 68.099,355.904 67.165,355.566 66.715 C 355.243 66.285,354.893 65.525,354.788 65.026 C 354.682 64.527,354.330 63.801,354.004 63.413 C 353.678 63.025,353.329 62.325,353.227 61.859 C 353.126 61.392,352.759 60.725,352.411 60.375 C 352.064 60.026,351.713 59.406,351.631 58.998 C 351.549 58.589,351.207 58.075,350.871 57.854 C 350.534 57.634,350.259 57.296,350.259 57.103 C 350.259 56.911,349.909 56.396,349.482 55.959 C 349.054 55.521,348.705 55.045,348.705 54.901 C 348.705 54.523,343.113 49.024,341.481 47.798 C 340.723 47.228,339.843 46.528,339.527 46.244 C 339.211 45.959,338.407 45.465,337.740 45.146 C 337.074 44.827,336.528 44.472,336.528 44.356 C 336.528 44.240,336.108 43.993,335.593 43.807 C 335.079 43.621,334.262 43.200,333.777 42.871 C 333.292 42.542,332.424 42.193,331.849 42.096 C 331.273 41.998,330.605 41.715,330.362 41.466 C 330.120 41.216,329.165 40.862,328.238 40.677 C 327.312 40.493,326.205 40.135,325.777 39.881 C 324.225 38.959,312.199 38.501,306.477 39.146 M88.637 48.627 C 88.843 48.798,90.137 49.105,91.513 49.310 C 92.978 49.528,94.369 49.898,94.870 50.202 C 95.341 50.488,96.099 50.800,96.555 50.897 C 97.012 50.993,97.662 51.290,98.002 51.557 C 98.341 51.824,99.125 52.245,99.745 52.493 C 100.364 52.741,101.083 53.156,101.342 53.415 C 101.601 53.674,101.948 53.886,102.113 53.886 C 102.884 53.886,110.363 60.640,110.363 61.336 C 110.363 61.463,110.639 61.828,110.977 62.145 C 111.316 62.463,111.800 63.183,112.053 63.745 C 112.307 64.307,112.619 64.767,112.747 64.767 C 112.875 64.767,113.159 65.197,113.379 65.722 C 113.598 66.247,114.044 67.034,114.370 67.471 C 114.695 67.907,115.040 68.705,115.137 69.244 C 115.233 69.782,115.597 70.644,115.946 71.158 C 116.319 71.708,116.585 72.479,116.592 73.028 C 116.598 73.543,116.781 74.430,116.997 75.000 C 118.197 78.152,118.146 75.633,118.073 127.637 L 118.005 176.554 117.431 177.720 C 117.116 178.361,116.778 179.565,116.681 180.395 C 116.575 181.302,116.266 182.256,115.908 182.784 C 115.580 183.267,115.235 184.071,115.141 184.569 C 115.048 185.068,114.697 185.771,114.363 186.132 C 114.028 186.494,113.679 187.187,113.588 187.673 C 113.497 188.159,113.171 188.820,112.864 189.143 C 112.557 189.465,112.131 190.045,111.917 190.430 C 110.370 193.221,104.436 199.223,103.224 199.223 C 103.048 199.223,102.838 199.399,102.755 199.614 C 102.673 199.829,102.281 200.145,101.886 200.316 C 101.490 200.487,100.836 200.894,100.433 201.221 C 100.031 201.547,99.389 201.885,99.009 201.973 C 98.628 202.061,97.908 202.404,97.409 202.737 C 96.911 203.069,95.920 203.470,95.207 203.626 C 94.495 203.782,93.397 204.158,92.768 204.460 C 89.978 205.801,77.741 205.705,74.812 204.319 C 74.007 203.938,73.009 203.627,72.594 203.627 C 72.179 203.627,71.327 203.279,70.700 202.854 C 70.073 202.430,69.326 202.077,69.041 202.070 C 68.756 202.063,68.065 201.712,67.506 201.288 C 66.946 200.865,66.333 200.518,66.143 200.518 C 65.954 200.518,65.432 200.168,64.985 199.741 C 64.538 199.313,64.045 198.964,63.889 198.964 C 63.734 198.964,63.314 198.674,62.956 198.320 C 62.598 197.966,61.111 196.494,59.650 195.049 C 58.190 193.604,56.995 192.270,56.995 192.085 C 56.995 191.899,56.703 191.518,56.347 191.238 C 55.991 190.958,55.699 190.604,55.699 190.451 C 55.699 190.298,55.358 189.784,54.940 189.308 C 54.522 188.833,54.099 188.100,54.000 187.680 C 53.901 187.260,53.552 186.626,53.225 186.269 C 52.899 185.913,52.546 185.155,52.441 184.585 C 52.337 184.016,51.985 183.141,51.661 182.642 C 51.283 182.064,50.971 181.008,50.796 179.721 C 50.645 178.614,50.317 177.395,50.066 177.013 C 49.636 176.356,49.611 173.613,49.611 127.213 L 49.611 78.109 50.163 76.943 C 50.467 76.302,50.796 75.078,50.895 74.223 C 51.006 73.263,51.315 72.299,51.703 71.702 C 52.049 71.171,52.332 70.472,52.332 70.148 C 52.332 69.824,52.555 69.152,52.826 68.653 C 53.098 68.154,53.631 67.134,54.011 66.386 C 54.390 65.638,54.807 65.026,54.938 65.026 C 55.068 65.026,55.353 64.647,55.572 64.184 C 56.480 62.261,62.636 55.440,63.464 55.440 C 63.593 55.440,64.082 55.091,64.550 54.663 C 65.018 54.236,65.531 53.886,65.691 53.886 C 65.851 53.886,66.189 53.657,66.442 53.377 C 66.696 53.097,67.413 52.673,68.037 52.435 C 68.661 52.197,69.171 51.917,69.171 51.813 C 69.171 51.610,70.903 50.932,72.117 50.659 C 72.526 50.568,73.020 50.333,73.214 50.139 C 73.585 49.768,75.698 49.233,76.891 49.208 C 77.276 49.200,78.115 48.969,78.756 48.693 C 80.146 48.097,87.937 48.044,88.637 48.627 M203.717 48.550 C 204.166 48.750,205.641 49.107,206.995 49.343 C 208.348 49.578,209.728 49.948,210.061 50.165 C 210.394 50.382,211.268 50.736,212.004 50.953 C 212.740 51.169,213.517 51.498,213.731 51.683 C 213.944 51.869,214.532 52.191,215.036 52.399 C 215.541 52.607,216.129 52.954,216.344 53.169 C 216.559 53.384,217.138 53.766,217.629 54.018 C 218.121 54.271,218.756 54.693,219.041 54.958 C 219.326 55.222,219.993 55.818,220.522 56.281 C 221.052 56.745,221.600 57.241,221.740 57.383 C 222.029 57.677,223.055 58.704,223.446 59.090 C 225.354 60.978,226.424 62.196,226.781 62.889 C 227.020 63.352,227.311 63.731,227.428 63.731 C 227.546 63.731,227.857 64.226,228.121 64.832 C 228.384 65.437,228.806 66.137,229.057 66.387 C 229.308 66.636,229.658 67.336,229.835 67.941 C 230.011 68.546,230.369 69.337,230.629 69.698 C 230.889 70.059,231.173 70.816,231.259 71.382 C 231.346 71.947,231.682 72.992,232.006 73.705 C 233.419 76.807,233.453 78.184,233.347 128.109 C 233.245 176.194,233.168 179.329,232.069 180.073 C 231.947 180.156,231.633 181.120,231.372 182.217 C 231.111 183.313,230.710 184.417,230.481 184.670 C 230.253 184.923,229.890 185.627,229.676 186.234 C 229.461 186.842,229.050 187.639,228.762 188.005 C 228.474 188.371,228.238 188.812,228.238 188.984 C 228.238 189.157,228.004 189.510,227.717 189.770 C 227.430 190.030,226.943 190.747,226.635 191.364 C 226.326 191.982,225.985 192.487,225.875 192.487 C 225.766 192.487,225.476 192.827,225.231 193.242 C 224.986 193.657,224.513 194.121,224.180 194.273 C 223.847 194.424,223.575 194.701,223.575 194.887 C 223.575 195.073,223.225 195.432,222.798 195.684 C 222.370 195.937,222.021 196.286,222.021 196.461 C 222.021 196.636,221.671 196.986,221.244 197.239 C 220.816 197.491,220.466 197.798,220.466 197.921 C 220.466 198.044,220.046 198.404,219.531 198.722 C 219.017 199.040,218.300 199.574,217.939 199.909 C 217.578 200.244,217.083 200.518,216.839 200.518 C 216.596 200.518,216.083 200.809,215.699 201.165 C 215.315 201.521,214.481 201.943,213.847 202.103 C 213.213 202.262,212.694 202.502,212.694 202.635 C 212.694 202.950,211.064 203.627,210.304 203.627 C 209.978 203.627,209.150 203.925,208.465 204.290 C 205.675 205.775,191.377 205.762,189.637 204.272 C 189.424 204.089,188.491 203.749,187.565 203.517 C 186.639 203.285,185.759 202.934,185.611 202.738 C 185.463 202.541,184.873 202.255,184.301 202.100 C 183.728 201.946,183.005 201.527,182.694 201.169 C 182.383 200.811,181.915 200.518,181.655 200.518 C 181.394 200.518,180.790 200.168,180.311 199.741 C 179.832 199.313,179.290 198.964,179.106 198.964 C 178.922 198.964,178.513 198.614,178.197 198.187 C 177.881 197.759,177.489 197.409,177.326 197.409 C 177.162 197.409,176.717 197.089,176.337 196.697 C 175.956 196.305,175.469 195.810,175.253 195.596 C 174.887 195.233,174.250 194.501,172.659 192.617 C 171.029 190.687,170.529 189.968,170.256 189.167 C 170.095 188.694,169.739 188.111,169.465 187.871 C 169.191 187.632,168.764 186.881,168.516 186.205 C 168.267 185.528,167.978 184.974,167.872 184.974 C 167.766 184.974,167.482 184.187,167.241 183.225 C 166.999 182.264,166.628 181.285,166.417 181.051 C 166.189 180.799,165.837 179.269,165.552 177.294 C 165.289 175.463,164.946 173.636,164.790 173.234 C 164.319 172.018,164.398 82.170,164.872 80.899 C 165.072 80.362,165.374 78.699,165.542 77.203 C 165.742 75.425,166.058 74.035,166.455 73.188 C 166.789 72.475,167.141 71.425,167.238 70.855 C 167.334 70.285,167.685 69.411,168.017 68.912 C 168.349 68.413,168.699 67.682,168.796 67.286 C 168.892 66.890,169.170 66.460,169.413 66.330 C 169.656 66.200,170.014 65.612,170.208 65.023 C 170.403 64.434,170.756 63.815,170.994 63.647 C 171.231 63.479,171.621 62.963,171.859 62.500 C 172.098 62.037,172.397 61.658,172.524 61.658 C 172.652 61.658,172.991 61.279,173.279 60.816 C 174.163 59.395,178.336 55.440,178.952 55.440 C 179.138 55.440,179.360 55.261,179.444 55.042 C 179.528 54.823,179.961 54.457,180.407 54.229 C 180.853 54.000,181.544 53.541,181.942 53.209 C 182.340 52.876,183.115 52.483,183.664 52.336 C 184.213 52.188,184.721 51.911,184.794 51.721 C 184.867 51.531,185.491 51.228,186.181 51.046 C 186.871 50.865,187.751 50.497,188.137 50.229 C 188.555 49.938,189.907 49.572,191.482 49.322 C 192.935 49.092,194.485 48.747,194.925 48.555 C 196.062 48.060,202.609 48.056,203.717 48.550 M319.006 48.576 C 319.638 48.791,321.167 49.143,322.406 49.359 C 323.644 49.575,325.084 49.974,325.605 50.245 C 326.127 50.517,327.065 50.888,327.690 51.070 C 328.314 51.252,328.955 51.528,329.115 51.683 C 329.274 51.838,329.800 52.127,330.283 52.325 C 330.767 52.522,331.454 52.955,331.811 53.285 C 332.167 53.616,332.600 53.886,332.772 53.886 C 332.944 53.886,333.381 54.160,333.742 54.495 C 334.104 54.830,334.791 55.349,335.270 55.648 C 336.007 56.109,337.349 57.387,340.310 60.449 C 340.609 60.758,341.164 61.506,341.544 62.111 C 341.924 62.717,342.338 63.212,342.465 63.212 C 342.592 63.212,342.816 63.560,342.964 63.984 C 343.112 64.408,343.475 65.015,343.771 65.333 C 344.067 65.650,344.424 66.334,344.563 66.852 C 344.702 67.370,345.043 67.998,345.320 68.249 C 345.597 68.499,345.943 69.262,346.089 69.943 C 346.235 70.625,346.589 71.580,346.875 72.065 C 347.162 72.550,347.506 73.701,347.640 74.621 C 347.774 75.542,348.075 76.745,348.309 77.294 C 349.173 79.323,349.245 83.789,349.155 129.404 L 349.065 174.482 348.494 175.969 C 348.180 176.787,347.799 178.347,347.648 179.435 C 347.474 180.684,347.150 181.760,346.771 182.352 C 346.440 182.868,346.088 183.756,345.990 184.326 C 345.892 184.896,345.530 185.734,345.185 186.187 C 344.841 186.641,344.560 187.186,344.560 187.398 C 344.560 187.610,344.285 188.114,343.948 188.516 C 343.612 188.919,343.158 189.599,342.939 190.027 C 342.719 190.454,342.295 191.026,341.995 191.297 C 341.696 191.568,341.451 191.913,341.451 192.064 C 341.451 192.215,341.163 192.634,340.811 192.995 C 340.460 193.357,339.310 194.556,338.256 195.661 C 337.202 196.765,336.195 197.668,336.018 197.668 C 335.841 197.668,335.467 197.960,335.187 198.316 C 334.907 198.672,334.540 198.964,334.372 198.964 C 334.203 198.964,333.736 199.313,333.332 199.741 C 332.929 200.168,332.454 200.518,332.278 200.518 C 332.102 200.518,331.500 200.865,330.940 201.288 C 330.380 201.712,329.734 202.061,329.504 202.065 C 329.274 202.069,328.785 202.309,328.419 202.597 C 328.052 202.886,326.958 203.312,325.987 203.544 C 325.017 203.777,324.046 204.117,323.830 204.300 C 322.146 205.731,307.072 205.708,305.440 204.273 C 305.227 204.085,304.411 203.813,303.627 203.669 C 301.856 203.343,300.777 202.941,300.777 202.607 C 300.777 202.467,300.316 202.227,299.753 202.076 C 299.189 201.924,298.385 201.511,297.967 201.159 C 297.548 200.807,297.075 200.518,296.916 200.518 C 296.757 200.518,296.261 200.168,295.814 199.741 C 295.367 199.313,294.894 198.964,294.763 198.964 C 293.749 198.964,286.528 191.500,286.528 190.452 C 286.528 190.287,286.240 189.901,285.887 189.595 C 285.535 189.288,285.110 188.618,284.943 188.107 C 284.776 187.595,284.430 186.907,284.174 186.577 C 283.918 186.248,283.570 185.548,283.402 185.023 C 283.233 184.497,282.950 183.892,282.772 183.679 C 282.376 183.202,281.966 181.860,281.747 180.318 C 281.656 179.680,281.429 178.981,281.242 178.763 C 280.329 177.701,280.311 176.721,280.311 127.378 C 280.311 76.807,280.345 75.130,281.359 75.130 C 281.478 75.130,281.649 74.576,281.741 73.899 C 281.972 72.193,282.374 70.965,282.939 70.237 C 283.203 69.897,283.420 69.419,283.420 69.175 C 283.420 68.931,283.767 68.218,284.192 67.591 C 284.617 66.964,284.967 66.241,284.969 65.986 C 284.972 65.730,285.249 65.246,285.584 64.910 C 285.920 64.575,286.276 64.088,286.375 63.828 C 286.905 62.449,292.386 56.507,294.019 55.542 C 294.459 55.282,294.819 54.977,294.819 54.864 C 294.819 54.751,295.320 54.397,295.932 54.078 C 297.175 53.429,298.322 52.751,299.668 51.868 C 300.165 51.542,301.219 51.106,302.010 50.900 C 302.801 50.694,303.636 50.356,303.865 50.148 C 304.346 49.714,306.191 49.243,307.513 49.218 C 308.012 49.209,309.003 48.983,309.715 48.716 C 311.430 48.074,317.268 47.986,319.006 48.576 " stroke="none" fill="#18a556" fill-rule="evenodd"></path><path id="path1" d="M0.000 129.534 L 0.000 259.067 200.000 259.067 L 400.000 259.067 400.000 129.534 L 400.000 0.000 200.000 0.000 L 0.000 0.000 0.000 129.534 M91.925 39.148 C 93.354 39.313,94.764 39.631,95.207 39.889 C 95.635 40.138,96.719 40.492,97.617 40.676 C 98.516 40.859,99.506 41.205,99.819 41.445 C 100.132 41.685,100.972 42.034,101.684 42.220 C 102.396 42.407,103.096 42.698,103.238 42.866 C 103.381 43.035,104.168 43.478,104.987 43.852 C 105.806 44.225,106.477 44.645,106.477 44.784 C 106.477 44.924,106.893 45.175,107.402 45.343 C 107.910 45.511,108.391 45.815,108.469 46.020 C 108.548 46.225,108.977 46.579,109.423 46.808 C 110.583 47.402,111.571 48.236,114.569 51.151 C 117.145 53.656,117.656 54.243,119.043 56.291 C 119.408 56.830,119.936 57.501,120.216 57.781 C 120.496 58.061,120.725 58.445,120.725 58.634 C 120.725 58.822,121.011 59.245,121.360 59.573 C 121.708 59.901,122.068 60.507,122.159 60.920 C 122.249 61.333,122.590 61.988,122.916 62.377 C 123.242 62.765,123.594 63.491,123.699 63.990 C 123.803 64.488,124.226 65.493,124.639 66.223 C 125.051 66.953,125.389 67.876,125.389 68.275 C 125.389 68.674,125.726 69.709,126.139 70.575 C 126.713 71.780,126.930 72.694,127.063 74.467 C 127.159 75.741,127.366 77.023,127.523 77.317 C 128.280 78.732,128.359 83.459,128.359 127.202 C 128.358 171.387,128.299 174.755,127.498 176.688 C 127.351 177.042,127.104 178.497,126.948 179.922 C 126.773 181.535,126.469 182.892,126.144 183.517 C 125.857 184.070,125.509 185.116,125.371 185.843 C 125.233 186.569,124.831 187.601,124.477 188.136 C 124.124 188.671,123.834 189.385,123.834 189.722 C 123.834 190.060,123.484 190.820,123.057 191.410 C 122.630 192.000,122.280 192.642,122.280 192.838 C 122.280 193.033,121.927 193.636,121.497 194.178 C 121.066 194.720,120.647 195.430,120.565 195.755 C 120.484 196.080,120.137 196.529,119.794 196.754 C 119.451 196.979,119.171 197.314,119.171 197.500 C 119.171 197.685,118.868 198.120,118.499 198.465 C 118.129 198.811,117.670 199.385,117.479 199.741 C 116.856 200.902,109.779 207.513,109.159 207.513 C 109.030 207.513,108.552 207.853,108.097 208.268 C 107.643 208.683,106.918 209.100,106.486 209.195 C 106.054 209.290,105.543 209.592,105.351 209.865 C 105.160 210.139,104.476 210.522,103.833 210.715 C 103.190 210.909,102.433 211.298,102.151 211.580 C 101.864 211.867,100.940 212.230,100.050 212.405 C 99.177 212.577,98.389 212.836,98.299 212.981 C 98.045 213.393,96.990 213.718,94.996 214.001 C 93.987 214.144,92.970 214.435,92.736 214.646 C 91.456 215.805,76.512 215.772,74.677 214.607 C 74.356 214.404,73.153 214.073,72.003 213.872 C 70.853 213.671,69.625 213.319,69.275 213.090 C 68.925 212.861,67.884 212.440,66.962 212.155 C 66.040 211.870,65.285 211.541,65.285 211.424 C 65.285 211.306,64.731 211.004,64.054 210.752 C 63.378 210.500,62.583 210.076,62.289 209.810 C 61.995 209.544,61.620 209.326,61.456 209.326 C 61.292 209.326,60.769 208.985,60.293 208.567 C 59.817 208.149,59.120 207.730,58.743 207.635 C 58.366 207.541,57.875 207.183,57.650 206.841 C 57.426 206.498,57.099 206.217,56.924 206.216 C 56.749 206.216,55.058 204.613,53.166 202.654 C 51.275 200.696,49.438 198.797,49.086 198.436 C 48.734 198.074,48.446 197.654,48.446 197.503 C 48.446 197.351,48.096 196.861,47.668 196.414 C 47.241 195.967,46.891 195.429,46.891 195.219 C 46.891 195.009,46.541 194.438,46.114 193.951 C 45.687 193.465,45.337 192.898,45.337 192.692 C 45.337 192.485,45.000 191.801,44.588 191.171 C 44.175 190.541,43.752 189.618,43.647 189.119 C 43.542 188.620,43.198 187.904,42.881 187.527 C 42.529 187.107,42.245 186.322,42.148 185.501 C 42.061 184.764,41.750 183.774,41.457 183.300 C 41.075 182.683,40.815 181.508,40.540 179.156 C 40.329 177.351,40.040 175.656,39.897 175.390 C 39.430 174.518,39.551 80.436,40.021 78.583 C 40.231 77.752,40.506 75.948,40.630 74.574 C 40.787 72.835,41.016 71.812,41.382 71.206 C 41.671 70.728,41.988 69.754,42.086 69.041 C 42.185 68.329,42.533 67.334,42.861 66.829 C 43.190 66.325,43.544 65.509,43.648 65.016 C 43.753 64.523,44.175 63.604,44.588 62.974 C 45.000 62.344,45.337 61.660,45.337 61.454 C 45.337 61.247,45.687 60.680,46.114 60.194 C 46.541 59.707,46.891 59.099,46.891 58.842 C 46.891 58.586,47.241 58.064,47.668 57.683 C 48.096 57.302,48.446 56.859,48.446 56.697 C 48.446 56.535,48.795 56.069,49.223 55.661 C 49.650 55.252,50.000 54.820,50.000 54.701 C 50.000 54.014,54.727 49.443,57.604 47.348 C 58.338 46.814,59.113 46.216,59.326 46.020 C 59.540 45.824,60.123 45.455,60.622 45.201 C 61.120 44.947,61.645 44.601,61.788 44.432 C 61.930 44.263,62.600 43.921,63.277 43.673 C 63.954 43.425,64.508 43.124,64.508 43.005 C 64.508 42.885,65.120 42.593,65.868 42.354 C 66.616 42.115,67.533 41.706,67.906 41.444 C 68.279 41.182,69.482 40.782,70.580 40.556 C 71.678 40.329,72.831 39.976,73.143 39.771 C 74.401 38.947,86.644 38.541,91.925 39.148 M206.773 39.134 C 208.249 39.285,209.709 39.572,210.018 39.774 C 210.327 39.975,211.434 40.331,212.479 40.564 C 213.523 40.798,214.728 41.196,215.155 41.448 C 215.583 41.700,216.399 42.051,216.969 42.228 C 217.539 42.406,218.238 42.755,218.523 43.005 C 218.808 43.255,219.508 43.606,220.078 43.786 C 220.648 43.965,221.289 44.271,221.503 44.467 C 222.242 45.143,225.072 47.150,225.286 47.150 C 225.403 47.150,225.737 47.373,226.027 47.646 C 227.828 49.339,228.301 49.741,228.488 49.741 C 228.604 49.741,229.499 50.630,230.476 51.716 C 231.454 52.802,232.633 54.047,233.096 54.483 C 233.559 54.920,233.938 55.412,233.938 55.577 C 233.938 55.743,234.183 56.100,234.482 56.371 C 234.782 56.642,235.206 57.214,235.426 57.642 C 235.645 58.070,236.099 58.749,236.435 59.152 C 236.772 59.555,237.047 60.090,237.047 60.342 C 237.047 60.594,237.266 60.999,237.535 61.242 C 237.803 61.485,238.276 62.378,238.585 63.225 C 238.894 64.073,239.246 64.767,239.366 64.767 C 239.487 64.767,239.729 65.379,239.905 66.127 C 240.247 67.587,240.606 68.428,240.993 68.681 C 241.126 68.768,241.446 70.051,241.704 71.531 C 241.963 73.012,242.390 74.689,242.654 75.259 C 243.698 77.511,243.460 178.159,242.407 179.835 C 242.198 180.168,241.884 181.256,241.710 182.254 C 241.536 183.251,241.119 184.650,240.784 185.363 C 240.449 186.075,240.068 187.147,239.937 187.744 C 239.806 188.341,239.460 189.133,239.168 189.504 C 238.876 189.876,238.558 190.553,238.461 191.010 C 238.365 191.466,238.075 192.073,237.817 192.358 C 237.558 192.642,237.150 193.371,236.910 193.977 C 236.669 194.582,236.362 195.078,236.228 195.078 C 236.094 195.078,235.825 195.459,235.630 195.925 C 235.435 196.391,235.062 196.967,234.801 197.204 C 234.540 197.442,233.744 198.455,233.031 199.456 C 232.319 200.457,231.597 201.280,231.427 201.285 C 231.257 201.291,230.911 201.645,230.658 202.073 C 230.406 202.500,230.056 202.850,229.881 202.850 C 229.706 202.850,229.356 203.199,229.104 203.627 C 228.851 204.054,228.517 204.404,228.361 204.404 C 228.205 204.404,227.818 204.754,227.502 205.181 C 227.186 205.609,226.805 205.959,226.655 205.959 C 226.505 205.959,225.885 206.367,225.276 206.865 C 224.667 207.364,224.044 207.772,223.891 207.772 C 223.738 207.772,223.399 208.044,223.138 208.376 C 222.876 208.708,222.324 209.065,221.911 209.169 C 221.498 209.272,220.745 209.700,220.236 210.119 C 219.728 210.538,219.121 210.881,218.888 210.881 C 218.655 210.881,218.180 211.104,217.834 211.376 C 217.487 211.649,216.510 212.071,215.661 212.313 C 214.813 212.556,213.944 212.904,213.731 213.087 C 213.262 213.489,211.528 213.986,210.590 213.988 C 210.216 213.989,208.992 214.302,207.870 214.683 C 205.872 215.362,205.691 215.377,199.352 215.379 C 192.999 215.381,192.457 215.327,189.637 214.422 C 188.996 214.216,187.714 213.908,186.788 213.738 C 185.861 213.568,184.904 213.249,184.660 213.030 C 184.415 212.810,183.658 212.528,182.976 212.401 C 182.294 212.275,181.411 211.933,181.014 211.641 C 180.616 211.349,179.804 210.938,179.208 210.728 C 178.611 210.517,177.887 210.129,177.598 209.866 C 177.309 209.602,176.781 209.300,176.425 209.195 C 176.069 209.089,175.569 208.784,175.314 208.517 C 175.059 208.250,174.389 207.796,173.824 207.508 C 173.260 207.220,172.798 206.873,172.798 206.737 C 172.798 206.601,172.472 206.321,172.073 206.115 C 171.266 205.698,166.062 200.756,166.062 200.406 C 166.062 200.284,165.821 199.939,165.527 199.639 C 164.577 198.670,162.953 196.520,162.953 196.230 C 162.953 196.075,162.662 195.695,162.306 195.385 C 161.949 195.075,161.658 194.662,161.658 194.467 C 161.658 194.272,161.308 193.673,160.881 193.135 C 160.453 192.597,160.104 191.960,160.104 191.719 C 160.104 191.478,159.768 190.765,159.358 190.135 C 158.948 189.505,158.537 188.564,158.444 188.044 C 158.352 187.525,158.038 186.795,157.746 186.424 C 157.423 186.014,157.118 185.064,156.968 184.001 C 156.833 183.040,156.480 181.788,156.184 181.218 C 155.168 179.260,155.096 175.764,155.080 127.720 C 155.065 79.264,155.151 74.921,156.175 72.979 C 156.460 72.437,156.830 71.185,156.997 70.195 C 157.164 69.205,157.408 68.329,157.540 68.247 C 157.869 68.044,158.431 66.649,158.645 65.505 C 158.742 64.985,158.988 64.422,159.190 64.254 C 159.393 64.086,159.761 63.404,160.009 62.739 C 160.257 62.073,160.729 61.199,161.059 60.796 C 161.388 60.393,161.658 59.916,161.658 59.735 C 161.658 59.555,161.904 59.185,162.204 58.913 C 162.504 58.642,162.926 57.979,163.142 57.441 C 163.357 56.902,163.753 56.344,164.021 56.201 C 164.289 56.058,164.508 55.800,164.508 55.628 C 164.508 55.280,164.607 55.173,168.632 51.166 C 172.360 47.454,173.288 46.696,175.766 45.334 C 176.330 45.025,176.913 44.625,177.061 44.446 C 177.210 44.268,177.740 43.968,178.238 43.780 C 178.737 43.593,179.378 43.236,179.663 42.986 C 179.948 42.737,180.706 42.399,181.347 42.235 C 181.988 42.071,182.804 41.731,183.161 41.479 C 183.517 41.227,184.566 40.874,185.492 40.695 C 186.418 40.515,187.555 40.136,188.019 39.852 C 189.485 38.953,200.766 38.521,206.773 39.134 M322.484 39.140 C 323.982 39.306,325.314 39.606,325.777 39.881 C 326.205 40.135,327.312 40.493,328.238 40.677 C 329.165 40.862,330.120 41.216,330.362 41.466 C 330.605 41.715,331.273 41.998,331.849 42.096 C 332.424 42.193,333.292 42.542,333.777 42.871 C 334.262 43.200,335.079 43.621,335.593 43.807 C 336.108 43.993,336.528 44.240,336.528 44.356 C 336.528 44.472,337.074 44.827,337.740 45.146 C 338.407 45.465,339.211 45.959,339.527 46.244 C 339.843 46.528,340.723 47.228,341.481 47.798 C 343.113 49.024,348.705 54.523,348.705 54.901 C 348.705 55.045,349.054 55.521,349.482 55.959 C 349.909 56.396,350.259 56.911,350.259 57.103 C 350.259 57.296,350.534 57.634,350.871 57.854 C 351.207 58.075,351.549 58.589,351.631 58.998 C 351.713 59.406,352.064 60.026,352.411 60.375 C 352.759 60.725,353.126 61.392,353.227 61.859 C 353.329 62.325,353.678 63.025,354.004 63.413 C 354.330 63.801,354.682 64.527,354.788 65.026 C 354.893 65.525,355.243 66.285,355.566 66.715 C 355.904 67.165,356.235 68.099,356.348 68.917 C 356.455 69.698,356.809 70.920,357.134 71.632 C 357.581 72.610,357.802 73.816,358.038 76.554 C 358.210 78.549,358.512 80.496,358.709 80.881 C 359.250 81.937,359.243 170.651,358.702 172.629 C 358.501 173.363,358.200 175.596,358.032 177.591 C 357.792 180.438,357.599 181.468,357.134 182.383 C 356.808 183.025,356.459 184.152,356.358 184.888 C 356.255 185.642,355.910 186.586,355.567 187.051 C 355.233 187.504,354.878 188.358,354.778 188.950 C 354.679 189.542,354.324 190.352,353.989 190.750 C 353.655 191.148,353.265 191.906,353.122 192.434 C 352.980 192.962,352.627 193.540,352.338 193.720 C 352.050 193.899,351.813 194.203,351.813 194.396 C 351.813 194.588,351.407 195.258,350.909 195.883 C 350.412 196.509,350.004 197.149,350.003 197.306 C 350.001 197.463,349.679 197.951,349.288 198.390 C 348.896 198.829,348.225 199.609,347.798 200.124 C 346.914 201.188,343.878 204.206,342.557 205.334 C 342.071 205.749,341.344 206.409,340.940 206.801 C 340.537 207.192,340.099 207.513,339.968 207.513 C 339.836 207.513,339.155 207.921,338.453 208.420 C 337.752 208.918,337.050 209.326,336.893 209.326 C 336.737 209.326,336.414 209.541,336.176 209.804 C 335.938 210.067,335.250 210.437,334.647 210.627 C 334.043 210.816,333.316 211.174,333.031 211.422 C 332.746 211.670,331.852 212.063,331.045 212.296 C 330.238 212.528,329.444 212.878,329.282 213.074 C 329.120 213.269,327.857 213.631,326.476 213.878 C 325.094 214.126,323.730 214.480,323.443 214.666 C 321.699 215.798,307.525 215.773,305.789 214.635 C 305.465 214.423,304.351 214.130,303.313 213.984 C 301.016 213.662,300.513 213.519,299.959 213.034 C 299.723 212.827,298.849 212.483,298.016 212.270 C 297.184 212.058,296.386 211.734,296.244 211.552 C 296.101 211.370,295.518 211.072,294.948 210.890 C 294.378 210.707,293.677 210.345,293.390 210.084 C 293.103 209.823,292.439 209.431,291.915 209.212 C 291.390 208.993,290.669 208.521,290.311 208.163 C 289.953 207.806,289.525 207.513,289.359 207.513 C 288.442 207.513,280.275 199.482,279.215 197.539 C 279.059 197.254,278.775 196.927,278.583 196.812 C 278.391 196.697,278.061 196.192,277.851 195.688 C 277.640 195.184,277.175 194.424,276.817 193.998 C 276.459 193.573,276.166 193.105,276.166 192.958 C 276.166 192.811,275.879 192.351,275.528 191.934 C 275.178 191.517,274.817 190.743,274.727 190.213 C 274.637 189.682,274.340 188.932,274.068 188.546 C 273.796 188.159,273.401 187.179,273.190 186.369 C 272.978 185.558,272.634 184.633,272.424 184.313 C 272.215 183.993,271.910 182.933,271.748 181.956 C 271.442 180.116,271.199 178.938,270.581 176.295 C 270.036 173.962,270.047 80.421,270.593 78.109 C 271.242 75.358,271.461 74.262,271.748 72.315 C 271.918 71.160,272.232 70.150,272.543 69.754 C 272.826 69.395,273.059 68.855,273.061 68.553 C 273.067 67.714,273.698 65.789,274.035 65.580 C 274.200 65.478,274.494 64.774,274.688 64.015 C 274.882 63.256,275.227 62.531,275.455 62.403 C 275.682 62.276,276.010 61.736,276.183 61.203 C 276.357 60.669,276.832 59.850,277.239 59.382 C 277.646 58.914,277.979 58.366,277.979 58.164 C 277.979 57.963,278.137 57.705,278.330 57.591 C 278.523 57.477,278.974 56.917,279.333 56.347 C 279.691 55.777,280.233 55.089,280.536 54.817 C 280.840 54.546,281.088 54.165,281.088 53.970 C 281.088 53.775,281.367 53.489,281.707 53.334 C 282.048 53.179,282.449 52.783,282.598 52.455 C 282.748 52.127,283.104 51.784,283.391 51.693 C 283.677 51.602,283.986 51.294,284.077 51.007 C 284.167 50.721,284.521 50.359,284.862 50.204 C 285.203 50.049,285.548 49.714,285.628 49.461 C 285.709 49.208,286.148 48.764,286.605 48.473 C 288.626 47.187,290.113 46.132,290.275 45.871 C 290.371 45.715,290.850 45.421,291.339 45.217 C 291.828 45.012,292.228 44.732,292.228 44.593 C 292.228 44.454,292.630 44.208,293.122 44.046 C 293.614 43.883,294.427 43.472,294.929 43.131 C 295.431 42.791,296.340 42.369,296.949 42.193 C 297.558 42.018,298.348 41.677,298.705 41.434 C 299.061 41.192,300.052 40.853,300.907 40.680 C 301.762 40.508,302.927 40.142,303.497 39.866 C 305.425 38.935,316.741 38.502,322.484 39.140 M78.756 48.693 C 78.115 48.969,77.276 49.200,76.891 49.208 C 75.698 49.233,73.585 49.768,73.214 50.139 C 73.020 50.333,72.526 50.568,72.117 50.659 C 70.903 50.932,69.171 51.610,69.171 51.813 C 69.171 51.917,68.661 52.197,68.037 52.435 C 67.413 52.673,66.696 53.097,66.442 53.377 C 66.189 53.657,65.851 53.886,65.691 53.886 C 65.531 53.886,65.018 54.236,64.550 54.663 C 64.082 55.091,63.593 55.440,63.464 55.440 C 62.636 55.440,56.480 62.261,55.572 64.184 C 55.353 64.647,55.068 65.026,54.938 65.026 C 54.807 65.026,54.390 65.638,54.011 66.386 C 53.631 67.134,53.098 68.154,52.826 68.653 C 52.555 69.152,52.332 69.824,52.332 70.148 C 52.332 70.472,52.049 71.171,51.703 71.702 C 51.315 72.299,51.006 73.263,50.895 74.223 C 50.796 75.078,50.467 76.302,50.163 76.943 L 49.611 78.109 49.611 127.213 C 49.611 173.613,49.636 176.356,50.066 177.013 C 50.317 177.395,50.645 178.614,50.796 179.721 C 50.971 181.008,51.283 182.064,51.661 182.642 C 51.985 183.141,52.337 184.016,52.441 184.585 C 52.546 185.155,52.899 185.913,53.225 186.269 C 53.552 186.626,53.901 187.260,54.000 187.680 C 54.099 188.100,54.522 188.833,54.940 189.308 C 55.358 189.784,55.699 190.298,55.699 190.451 C 55.699 190.604,55.991 190.958,56.347 191.238 C 56.703 191.518,56.995 191.899,56.995 192.085 C 56.995 192.270,58.190 193.604,59.650 195.049 C 61.111 196.494,62.598 197.966,62.956 198.320 C 63.314 198.674,63.734 198.964,63.889 198.964 C 64.045 198.964,64.538 199.313,64.985 199.741 C 65.432 200.168,65.954 200.518,66.143 200.518 C 66.333 200.518,66.946 200.865,67.506 201.288 C 68.065 201.712,68.756 202.063,69.041 202.070 C 69.326 202.077,70.073 202.430,70.700 202.854 C 71.327 203.279,72.179 203.627,72.594 203.627 C 73.009 203.627,74.007 203.938,74.812 204.319 C 77.741 205.705,89.978 205.801,92.768 204.460 C 93.397 204.158,94.495 203.782,95.207 203.626 C 95.920 203.470,96.911 203.069,97.409 202.737 C 97.908 202.404,98.628 202.061,99.009 201.973 C 99.389 201.885,100.031 201.547,100.433 201.221 C 100.836 200.894,101.490 200.487,101.886 200.316 C 102.281 200.145,102.673 199.829,102.755 199.614 C 102.838 199.399,103.048 199.223,103.224 199.223 C 104.436 199.223,110.370 193.221,111.917 190.430 C 112.131 190.045,112.557 189.465,112.864 189.143 C 113.171 188.820,113.497 188.159,113.588 187.673 C 113.679 187.187,114.028 186.494,114.363 186.132 C 114.697 185.771,115.048 185.068,115.141 184.569 C 115.235 184.071,115.580 183.267,115.908 182.784 C 116.266 182.256,116.575 181.302,116.681 180.395 C 116.778 179.565,117.116 178.361,117.431 177.720 L 118.005 176.554 118.073 127.637 C 118.146 75.633,118.197 78.152,116.997 75.000 C 116.781 74.430,116.598 73.543,116.592 73.028 C 116.585 72.479,116.319 71.708,115.946 71.158 C 115.597 70.644,115.233 69.782,115.137 69.244 C 115.040 68.705,114.695 67.907,114.370 67.471 C 114.044 67.034,113.598 66.247,113.379 65.722 C 113.159 65.197,112.875 64.767,112.747 64.767 C 112.619 64.767,112.307 64.307,112.053 63.745 C 111.800 63.183,111.316 62.463,110.977 62.145 C 110.639 61.828,110.363 61.463,110.363 61.336 C 110.363 60.640,102.884 53.886,102.113 53.886 C 101.948 53.886,101.601 53.674,101.342 53.415 C 101.083 53.156,100.364 52.741,99.745 52.493 C 99.125 52.245,98.341 51.824,98.002 51.557 C 97.662 51.290,97.012 50.993,96.555 50.897 C 96.099 50.800,95.341 50.488,94.870 50.202 C 94.369 49.898,92.978 49.528,91.513 49.310 C 90.137 49.105,88.843 48.798,88.637 48.627 C 87.937 48.044,80.146 48.097,78.756 48.693 M194.925 48.555 C 194.485 48.747,192.935 49.092,191.482 49.322 C 189.907 49.572,188.555 49.938,188.137 50.229 C 187.751 50.497,186.871 50.865,186.181 51.046 C 185.491 51.228,184.867 51.531,184.794 51.721 C 184.721 51.911,184.213 52.188,183.664 52.336 C 183.115 52.483,182.340 52.876,181.942 53.209 C 181.544 53.541,180.853 54.000,180.407 54.229 C 179.961 54.457,179.528 54.823,179.444 55.042 C 179.360 55.261,179.138 55.440,178.952 55.440 C 178.336 55.440,174.163 59.395,173.279 60.816 C 172.991 61.279,172.652 61.658,172.524 61.658 C 172.397 61.658,172.098 62.037,171.859 62.500 C 171.621 62.963,171.231 63.479,170.994 63.647 C 170.756 63.815,170.403 64.434,170.208 65.023 C 170.014 65.612,169.656 66.200,169.413 66.330 C 169.170 66.460,168.892 66.890,168.796 67.286 C 168.699 67.682,168.349 68.413,168.017 68.912 C 167.685 69.411,167.334 70.285,167.238 70.855 C 167.141 71.425,166.789 72.475,166.455 73.188 C 166.058 74.035,165.742 75.425,165.542 77.203 C 165.374 78.699,165.072 80.362,164.872 80.899 C 164.398 82.170,164.319 172.018,164.790 173.234 C 164.946 173.636,165.289 175.463,165.552 177.294 C 165.837 179.269,166.189 180.799,166.417 181.051 C 166.628 181.285,166.999 182.264,167.241 183.225 C 167.482 184.187,167.766 184.974,167.872 184.974 C 167.978 184.974,168.267 185.528,168.516 186.205 C 168.764 186.881,169.191 187.632,169.465 187.871 C 169.739 188.111,170.095 188.694,170.256 189.167 C 170.529 189.968,171.029 190.687,172.659 192.617 C 174.250 194.501,174.887 195.233,175.253 195.596 C 175.469 195.810,175.956 196.305,176.337 196.697 C 176.717 197.089,177.162 197.409,177.326 197.409 C 177.489 197.409,177.881 197.759,178.197 198.187 C 178.513 198.614,178.922 198.964,179.106 198.964 C 179.290 198.964,179.832 199.313,180.311 199.741 C 180.790 200.168,181.394 200.518,181.655 200.518 C 181.915 200.518,182.383 200.811,182.694 201.169 C 183.005 201.527,183.728 201.946,184.301 202.100 C 184.873 202.255,185.463 202.541,185.611 202.738 C 185.759 202.934,186.639 203.285,187.565 203.517 C 188.491 203.749,189.424 204.089,189.637 204.272 C 191.377 205.762,205.675 205.775,208.465 204.290 C 209.150 203.925,209.978 203.627,210.304 203.627 C 211.064 203.627,212.694 202.950,212.694 202.635 C 212.694 202.502,213.213 202.262,213.847 202.103 C 214.481 201.943,215.315 201.521,215.699 201.165 C 216.083 200.809,216.596 200.518,216.839 200.518 C 217.083 200.518,217.578 200.244,217.939 199.909 C 218.300 199.574,219.017 199.040,219.531 198.722 C 220.046 198.404,220.466 198.044,220.466 197.921 C 220.466 197.798,220.816 197.491,221.244 197.239 C 221.671 196.986,222.021 196.636,222.021 196.461 C 222.021 196.286,222.370 195.937,222.798 195.684 C 223.225 195.432,223.575 195.073,223.575 194.887 C 223.575 194.701,223.847 194.424,224.180 194.273 C 224.513 194.121,224.986 193.657,225.231 193.242 C 225.476 192.827,225.766 192.487,225.875 192.487 C 225.985 192.487,226.326 191.982,226.635 191.364 C 226.943 190.747,227.430 190.030,227.717 189.770 C 228.004 189.510,228.238 189.157,228.238 188.984 C 228.238 188.812,228.474 188.371,228.762 188.005 C 229.050 187.639,229.461 186.842,229.676 186.234 C 229.890 185.627,230.253 184.923,230.481 184.670 C 230.710 184.417,231.111 183.313,231.372 182.217 C 231.633 181.120,231.947 180.156,232.069 180.073 C 233.168 179.329,233.245 176.194,233.347 128.109 C 233.453 78.184,233.419 76.807,232.006 73.705 C 231.682 72.992,231.346 71.947,231.259 71.382 C 231.173 70.816,230.889 70.059,230.629 69.698 C 230.369 69.337,230.011 68.546,229.835 67.941 C 229.658 67.336,229.308 66.636,229.057 66.387 C 228.806 66.137,228.384 65.437,228.121 64.832 C 227.857 64.226,227.546 63.731,227.428 63.731 C 227.311 63.731,227.020 63.352,226.781 62.889 C 226.424 62.196,225.354 60.978,223.446 59.090 C 223.055 58.704,222.029 57.677,221.740 57.383 C 221.600 57.241,221.052 56.745,220.522 56.281 C 219.993 55.818,219.326 55.222,219.041 54.958 C 218.756 54.693,218.121 54.271,217.629 54.018 C 217.138 53.766,216.559 53.384,216.344 53.169 C 216.129 52.954,215.541 52.607,215.036 52.399 C 214.532 52.191,213.944 51.869,213.731 51.683 C 213.517 51.498,212.740 51.169,212.004 50.953 C 211.268 50.736,210.394 50.382,210.061 50.165 C 209.728 49.948,208.348 49.578,206.995 49.343 C 205.641 49.107,204.166 48.750,203.717 48.550 C 202.609 48.056,196.062 48.060,194.925 48.555 M309.715 48.716 C 309.003 48.983,308.012 49.209,307.513 49.218 C 306.191 49.243,304.346 49.714,303.865 50.148 C 303.636 50.356,302.801 50.694,302.010 50.900 C 301.219 51.106,300.165 51.542,299.668 51.868 C 298.322 52.751,297.175 53.429,295.932 54.078 C 295.320 54.397,294.819 54.751,294.819 54.864 C 294.819 54.977,294.459 55.282,294.019 55.542 C 292.386 56.507,286.905 62.449,286.375 63.828 C 286.276 64.088,285.920 64.575,285.584 64.910 C 285.249 65.246,284.972 65.730,284.969 65.986 C 284.967 66.241,284.617 66.964,284.192 67.591 C 283.767 68.218,283.420 68.931,283.420 69.175 C 283.420 69.419,283.203 69.897,282.939 70.237 C 282.374 70.965,281.972 72.193,281.741 73.899 C 281.649 74.576,281.478 75.130,281.359 75.130 C 280.345 75.130,280.311 76.807,280.311 127.378 C 280.311 176.721,280.329 177.701,281.242 178.763 C 281.429 178.981,281.656 179.680,281.747 180.318 C 281.966 181.860,282.376 183.202,282.772 183.679 C 282.950 183.892,283.233 184.497,283.402 185.023 C 283.570 185.548,283.918 186.248,284.174 186.577 C 284.430 186.907,284.776 187.595,284.943 188.107 C 285.110 188.618,285.535 189.288,285.887 189.595 C 286.240 189.901,286.528 190.287,286.528 190.452 C 286.528 191.500,293.749 198.964,294.763 198.964 C 294.894 198.964,295.367 199.313,295.814 199.741 C 296.261 200.168,296.757 200.518,296.916 200.518 C 297.075 200.518,297.548 200.807,297.967 201.159 C 298.385 201.511,299.189 201.924,299.753 202.076 C 300.316 202.227,300.777 202.467,300.777 202.607 C 300.777 202.941,301.856 203.343,303.627 203.669 C 304.411 203.813,305.227 204.085,305.440 204.273 C 307.072 205.708,322.146 205.731,323.830 204.300 C 324.046 204.117,325.017 203.777,325.987 203.544 C 326.958 203.312,328.052 202.886,328.419 202.597 C 328.785 202.309,329.274 202.069,329.504 202.065 C 329.734 202.061,330.380 201.712,330.940 201.288 C 331.500 200.865,332.102 200.518,332.278 200.518 C 332.454 200.518,332.929 200.168,333.332 199.741 C 333.736 199.313,334.203 198.964,334.372 198.964 C 334.540 198.964,334.907 198.672,335.187 198.316 C 335.467 197.960,335.841 197.668,336.018 197.668 C 336.195 197.668,337.202 196.765,338.256 195.661 C 339.310 194.556,340.460 193.357,340.811 192.995 C 341.163 192.634,341.451 192.215,341.451 192.064 C 341.451 191.913,341.696 191.568,341.995 191.297 C 342.295 191.026,342.719 190.454,342.939 190.027 C 343.158 189.599,343.612 188.919,343.948 188.516 C 344.285 188.114,344.560 187.610,344.560 187.398 C 344.560 187.186,344.841 186.641,345.185 186.187 C 345.530 185.734,345.892 184.896,345.990 184.326 C 346.088 183.756,346.440 182.868,346.771 182.352 C 347.150 181.760,347.474 180.684,347.648 179.435 C 347.799 178.347,348.180 176.787,348.494 175.969 L 349.065 174.482 349.155 129.404 C 349.245 83.789,349.173 79.323,348.309 77.294 C 348.075 76.745,347.774 75.542,347.640 74.621 C 347.506 73.701,347.162 72.550,346.875 72.065 C 346.589 71.580,346.235 70.625,346.089 69.943 C 345.943 69.262,345.597 68.499,345.320 68.249 C 345.043 67.998,344.702 67.370,344.563 66.852 C 344.424 66.334,344.067 65.650,343.771 65.333 C 343.475 65.015,343.112 64.408,342.964 63.984 C 342.816 63.560,342.592 63.212,342.465 63.212 C 342.338 63.212,341.924 62.717,341.544 62.111 C 341.164 61.506,340.609 60.758,340.310 60.449 C 337.349 57.387,336.007 56.109,335.270 55.648 C 334.791 55.349,334.104 54.830,333.742 54.495 C 333.381 54.160,332.944 53.886,332.772 53.886 C 332.600 53.886,332.167 53.616,331.811 53.285 C 331.454 52.955,330.767 52.522,330.283 52.325 C 329.800 52.127,329.274 51.838,329.115 51.683 C 328.955 51.528,328.314 51.252,327.690 51.070 C 327.065 50.888,326.127 50.517,325.605 50.245 C 325.084 49.974,323.644 49.575,322.406 49.359 C 321.167 49.143,319.638 48.791,319.006 48.576 C 317.268 47.986,311.430 48.074,309.715 48.716 " stroke="none" fill="#f7f7f7" fill-rule="evenodd"></path></g></svg>