<svg id="svg" version="1.1" xmlns="http://www.w3.org/2000/svg" xmlns:xlink="http://www.w3.org/1999/xlink" width="400" height="258.91472868217056" viewBox="0, 0, 400,258.91472868217056"><g id="svgg"><path id="path0" d="M193.264 41.079 C 192.196 41.268,190.563 41.602,189.637 41.820 C 188.711 42.039,187.650 42.220,187.280 42.223 C 186.909 42.226,186.093 42.499,185.466 42.831 C 184.839 43.163,183.744 43.579,183.031 43.756 C 182.319 43.933,181.503 44.289,181.218 44.546 C 180.933 44.803,180.233 45.159,179.663 45.337 C 179.093 45.514,178.394 45.860,178.109 46.104 C 177.824 46.348,177.183 46.707,176.684 46.902 C 176.185 47.096,175.661 47.402,175.518 47.581 C 175.251 47.917,174.219 48.688,172.409 49.904 C 171.839 50.287,171.221 50.815,171.035 51.077 C 170.848 51.340,170.582 51.554,170.442 51.554 C 170.160 51.554,168.554 53.170,166.969 55.049 C 166.399 55.725,165.743 56.468,165.512 56.701 C 165.281 56.934,164.902 57.498,164.669 57.956 C 164.437 58.413,163.955 59.078,163.600 59.434 C 163.244 59.789,162.953 60.254,162.953 60.466 C 162.953 60.678,162.744 61.004,162.488 61.190 C 162.232 61.376,161.818 62.073,161.568 62.739 C 161.318 63.404,160.949 64.084,160.750 64.250 C 160.550 64.416,160.205 65.175,159.984 65.938 C 159.762 66.701,159.407 67.499,159.196 67.710 C 158.984 67.922,158.681 68.716,158.521 69.475 C 158.361 70.234,157.966 71.438,157.642 72.150 C 157.272 72.963,156.991 74.217,156.888 75.518 C 156.798 76.658,156.530 78.348,156.292 79.275 C 155.679 81.661,155.442 173.726,156.045 175.000 C 156.385 175.718,156.995 179.436,156.995 180.794 C 156.995 181.116,157.286 181.994,157.641 182.745 C 157.997 183.497,158.406 184.735,158.550 185.496 C 158.694 186.258,158.964 187.064,159.149 187.288 C 159.610 187.845,160.104 189.046,160.104 189.609 C 160.104 189.866,160.321 190.272,160.586 190.512 C 160.851 190.752,161.288 191.439,161.557 192.039 C 161.826 192.639,162.251 193.335,162.500 193.586 C 162.749 193.836,162.953 194.199,162.953 194.392 C 162.953 194.585,163.252 195.065,163.617 195.459 C 163.982 195.853,164.479 196.540,164.721 196.986 C 165.143 197.762,166.330 199.104,168.945 201.761 C 170.881 203.728,173.471 205.816,174.294 206.073 C 174.619 206.174,175.062 206.528,175.280 206.860 C 175.497 207.192,175.982 207.541,176.356 207.635 C 176.731 207.729,177.375 208.090,177.788 208.437 C 178.200 208.784,178.849 209.145,179.230 209.239 C 179.611 209.333,180.334 209.682,180.838 210.014 C 181.341 210.345,182.307 210.720,182.984 210.846 C 183.662 210.973,184.415 211.255,184.660 211.473 C 185.169 211.927,186.558 212.310,188.577 212.554 C 189.347 212.647,190.338 212.920,190.779 213.162 C 191.964 213.811,204.908 213.822,206.088 213.175 C 206.516 212.941,207.798 212.613,208.938 212.446 C 210.078 212.280,211.593 211.868,212.306 211.530 C 213.018 211.192,214.067 210.775,214.637 210.603 C 215.207 210.431,215.983 210.074,216.361 209.809 C 216.739 209.543,217.219 209.326,217.427 209.326 C 217.634 209.326,218.248 208.974,218.790 208.543 C 219.332 208.113,220.075 207.685,220.442 207.593 C 220.808 207.501,221.322 207.154,221.583 206.822 C 221.845 206.489,222.224 206.218,222.427 206.218 C 222.630 206.218,223.248 205.810,223.800 205.311 C 224.352 204.812,224.927 204.404,225.079 204.404 C 225.230 204.404,225.602 204.054,225.907 203.627 C 226.211 203.199,226.602 202.850,226.775 202.850 C 226.949 202.850,227.297 202.500,227.549 202.073 C 227.802 201.645,228.177 201.295,228.383 201.295 C 228.588 201.295,228.756 201.196,228.756 201.074 C 228.756 200.952,229.076 200.515,229.466 200.103 C 229.856 199.690,230.725 198.595,231.397 197.668 C 232.069 196.742,232.915 195.659,233.278 195.261 C 233.641 194.864,233.938 194.386,233.938 194.201 C 233.938 194.015,234.229 193.524,234.586 193.110 C 234.942 192.696,235.363 191.949,235.521 191.451 C 235.679 190.952,235.962 190.421,236.149 190.271 C 236.336 190.121,236.741 189.217,237.049 188.263 C 237.358 187.309,237.706 186.528,237.823 186.528 C 237.940 186.528,238.284 185.455,238.586 184.142 C 238.888 182.830,239.257 181.681,239.406 181.589 C 240.332 181.017,240.410 176.747,240.404 127.202 C 240.397 76.592,240.359 74.737,239.285 72.661 C 239.062 72.229,238.697 71.090,238.474 70.130 C 238.252 69.170,237.840 68.007,237.559 67.547 C 237.278 67.087,237.045 66.477,237.040 66.192 C 237.036 65.907,236.686 65.216,236.262 64.656 C 235.839 64.096,235.489 63.455,235.485 63.231 C 235.481 63.007,235.131 62.366,234.708 61.806 C 234.284 61.246,233.938 60.633,233.938 60.444 C 233.938 60.254,233.588 59.733,233.161 59.286 C 232.733 58.838,232.379 58.344,232.375 58.187 C 232.370 58.030,231.614 57.085,230.695 56.088 C 229.775 55.091,228.955 54.071,228.872 53.821 C 228.789 53.572,228.626 53.368,228.508 53.368 C 228.391 53.368,227.554 52.662,226.648 51.800 C 225.741 50.937,224.709 50.073,224.352 49.879 C 223.996 49.685,223.533 49.283,223.324 48.986 C 223.114 48.689,222.788 48.446,222.599 48.446 C 222.411 48.446,221.980 48.169,221.642 47.831 C 221.304 47.494,220.736 47.144,220.379 47.054 C 220.021 46.965,219.381 46.598,218.955 46.240 C 218.530 45.882,217.682 45.413,217.070 45.197 C 216.459 44.982,215.778 44.651,215.557 44.463 C 215.336 44.275,214.398 43.916,213.472 43.665 C 212.545 43.414,211.630 43.081,211.438 42.924 C 211.066 42.622,206.941 41.653,203.497 41.059 C 200.917 40.614,195.837 40.624,193.264 41.079 M206.218 48.525 C 206.716 48.783,207.935 49.165,208.926 49.375 C 209.916 49.584,210.907 49.908,211.128 50.093 C 211.348 50.279,212.111 50.639,212.824 50.894 C 213.536 51.150,214.236 51.501,214.378 51.675 C 214.521 51.849,215.060 52.130,215.577 52.301 C 216.095 52.471,216.735 52.851,217.002 53.145 C 217.268 53.439,217.836 53.858,218.264 54.076 C 218.691 54.293,219.216 54.630,219.430 54.823 C 220.307 55.616,222.209 57.151,222.788 57.532 C 223.544 58.029,223.370 58.702,222.389 59.075 C 220.914 59.636,174.366 59.272,173.945 58.697 C 173.610 58.239,173.687 58.096,174.849 57.013 C 176.603 55.378,178.512 53.887,178.857 53.882 C 179.015 53.879,179.418 53.589,179.752 53.237 C 180.085 52.886,180.802 52.478,181.344 52.332 C 181.886 52.186,182.394 51.900,182.473 51.695 C 182.551 51.491,183.194 51.152,183.902 50.941 C 184.610 50.731,185.461 50.380,185.795 50.162 C 186.129 49.943,187.106 49.600,187.966 49.400 C 188.827 49.199,189.759 48.904,190.038 48.744 C 191.189 48.084,192.668 47.960,198.834 48.008 C 204.513 48.051,205.423 48.115,206.218 48.525 M228.865 65.524 C 229.233 65.870,229.534 66.258,229.534 66.387 C 229.534 66.515,229.934 67.457,230.423 68.479 C 230.912 69.501,231.393 70.687,231.493 71.114 C 231.592 71.541,231.880 72.241,232.134 72.668 C 232.843 73.865,233.188 76.645,232.736 77.526 L 232.370 78.238 198.479 78.238 C 160.307 78.238,163.446 78.408,163.813 76.366 C 163.897 75.900,164.084 74.832,164.229 73.993 C 164.374 73.154,164.664 72.278,164.873 72.046 C 165.083 71.815,165.401 71.044,165.580 70.333 C 165.759 69.623,166.100 68.808,166.338 68.523 C 166.575 68.238,166.971 67.466,167.217 66.806 C 167.623 65.713,168.042 65.312,169.171 64.934 C 169.385 64.862,182.753 64.824,198.878 64.850 L 228.197 64.896 228.865 65.524 M233.155 84.106 C 234.723 85.032,234.723 96.574,233.155 97.501 C 232.041 98.159,163.895 98.157,163.168 97.499 C 162.480 96.876,162.439 84.908,163.123 84.153 C 163.755 83.454,231.975 83.408,233.155 84.106 M233.657 104.120 C 234.167 104.708,234.197 105.040,234.193 110.078 C 234.189 115.935,234.202 115.870,232.836 116.441 C 231.575 116.968,165.268 117.025,163.731 116.501 L 162.824 116.192 162.754 110.259 C 162.692 104.999,162.734 104.272,163.121 103.844 C 163.542 103.378,164.708 103.365,198.337 103.430 L 233.117 103.497 233.657 104.120 M233.652 122.903 C 234.267 123.460,234.507 133.393,233.930 134.470 C 233.215 135.807,234.770 135.751,198.182 135.751 C 163.915 135.751,163.473 135.740,162.893 134.871 C 162.473 134.242,162.666 123.123,163.104 122.684 C 163.802 121.986,232.875 122.200,233.652 122.903 M232.420 141.198 C 234.020 141.642,234.058 141.776,234.159 147.419 C 234.263 153.265,234.059 154.163,232.477 154.825 C 231.572 155.203,167.346 155.383,164.661 155.015 C 162.773 154.756,162.694 154.462,162.698 147.746 C 162.703 141.540,162.720 141.463,164.157 141.185 C 165.743 140.879,231.316 140.891,232.420 141.198 M232.477 160.201 C 234.059 160.862,234.263 161.761,234.159 167.607 C 234.058 173.250,234.020 173.384,232.420 173.828 C 231.255 174.152,165.953 174.175,164.282 173.852 C 162.698 173.546,162.703 173.567,162.698 167.280 C 162.694 160.849,162.835 160.215,164.312 160.032 C 166.965 159.703,231.669 159.864,232.477 160.201 M231.712 179.525 C 232.647 179.880,232.822 180.870,232.152 182.007 C 231.852 182.515,231.474 183.478,231.311 184.147 C 231.149 184.816,230.814 185.596,230.566 185.881 C 230.318 186.166,229.970 186.865,229.793 187.435 C 229.615 188.005,229.266 188.705,229.016 188.990 C 228.766 189.275,228.420 189.784,228.245 190.121 C 228.071 190.458,227.503 191.186,226.983 191.740 L 226.036 192.745 198.395 192.746 L 170.754 192.746 169.872 191.904 C 169.386 191.441,168.845 190.692,168.668 190.239 C 168.491 189.786,168.196 189.358,168.013 189.287 C 167.829 189.217,167.490 188.604,167.258 187.924 C 167.027 187.245,166.624 186.449,166.364 186.156 C 166.104 185.862,165.744 185.097,165.563 184.456 C 165.383 183.815,165.013 182.927,164.742 182.482 C 164.143 181.502,164.104 180.233,164.656 179.682 C 165.138 179.199,230.453 179.046,231.712 179.525 M219.246 198.806 L 219.969 199.296 219.416 199.885 C 219.112 200.209,218.582 200.545,218.240 200.631 C 217.897 200.717,217.617 200.899,217.617 201.036 C 217.617 201.173,217.157 201.519,216.595 201.806 C 216.034 202.092,215.143 202.619,214.616 202.977 C 214.089 203.334,213.457 203.627,213.211 203.627 C 212.965 203.627,212.466 203.862,212.101 204.148 C 211.737 204.435,210.550 204.892,209.463 205.163 C 208.377 205.435,207.348 205.772,207.176 205.913 C 205.703 207.127,191.674 207.044,189.720 205.809 C 189.410 205.613,188.652 205.383,188.036 205.298 C 186.805 205.128,184.974 204.434,184.974 204.136 C 184.974 204.033,184.479 203.822,183.873 203.669 C 183.267 203.517,182.370 203.095,181.880 202.732 C 181.389 202.369,180.830 202.073,180.637 202.073 C 180.445 202.073,180.019 201.810,179.691 201.490 C 179.364 201.169,178.656 200.677,178.119 200.396 C 176.568 199.586,176.645 198.972,178.368 198.404 C 179.820 197.925,218.508 198.306,219.246 198.806 " stroke="none" fill="#1ca759" fill-rule="evenodd"></path><path id="path1" d="M0.000 129.534 L 0.000 259.067 200.000 259.067 L 400.000 259.067 400.000 129.534 L 400.000 0.000 200.000 0.000 L 0.000 0.000 0.000 129.534 M203.497 41.059 C 206.941 41.653,211.066 42.622,211.438 42.924 C 211.630 43.081,212.545 43.414,213.472 43.665 C 214.398 43.916,215.336 44.275,215.557 44.463 C 215.778 44.651,216.459 44.982,217.070 45.197 C 217.682 45.413,218.530 45.882,218.955 46.240 C 219.381 46.598,220.021 46.965,220.379 47.054 C 220.736 47.144,221.304 47.494,221.642 47.831 C 221.980 48.169,222.411 48.446,222.599 48.446 C 222.788 48.446,223.114 48.689,223.324 48.986 C 223.533 49.283,223.996 49.685,224.352 49.879 C 224.709 50.073,225.741 50.937,226.648 51.800 C 227.554 52.662,228.391 53.368,228.508 53.368 C 228.626 53.368,228.789 53.572,228.872 53.821 C 228.955 54.071,229.775 55.091,230.695 56.088 C 231.614 57.085,232.370 58.030,232.375 58.187 C 232.379 58.344,232.733 58.838,233.161 59.286 C 233.588 59.733,233.938 60.254,233.938 60.444 C 233.938 60.633,234.284 61.246,234.708 61.806 C 235.131 62.366,235.481 63.007,235.485 63.231 C 235.489 63.455,235.839 64.096,236.262 64.656 C 236.686 65.216,237.036 65.907,237.040 66.192 C 237.045 66.477,237.278 67.087,237.559 67.547 C 237.840 68.007,238.252 69.170,238.474 70.130 C 238.697 71.090,239.062 72.229,239.285 72.661 C 240.930 75.841,241.046 180.576,239.406 181.589 C 239.257 181.681,238.888 182.830,238.586 184.142 C 238.284 185.455,237.940 186.528,237.823 186.528 C 237.706 186.528,237.358 187.309,237.049 188.263 C 236.741 189.217,236.336 190.121,236.149 190.271 C 235.962 190.421,235.679 190.952,235.521 191.451 C 235.363 191.949,234.942 192.696,234.586 193.110 C 234.229 193.524,233.938 194.015,233.938 194.201 C 233.938 194.386,233.641 194.864,233.278 195.261 C 232.915 195.659,232.069 196.742,231.397 197.668 C 230.725 198.595,229.856 199.690,229.466 200.103 C 229.076 200.515,228.756 200.952,228.756 201.074 C 228.756 201.196,228.588 201.295,228.383 201.295 C 228.177 201.295,227.802 201.645,227.549 202.073 C 227.297 202.500,226.949 202.850,226.775 202.850 C 226.602 202.850,226.211 203.199,225.907 203.627 C 225.602 204.054,225.230 204.404,225.079 204.404 C 224.927 204.404,224.352 204.812,223.800 205.311 C 223.248 205.810,222.630 206.218,222.427 206.218 C 222.224 206.218,221.845 206.489,221.583 206.822 C 221.322 207.154,220.808 207.501,220.442 207.593 C 220.075 207.685,219.332 208.113,218.790 208.543 C 218.248 208.974,217.634 209.326,217.427 209.326 C 217.219 209.326,216.739 209.543,216.361 209.809 C 215.983 210.074,215.207 210.431,214.637 210.603 C 214.067 210.775,213.018 211.192,212.306 211.530 C 211.593 211.868,210.078 212.280,208.938 212.446 C 207.798 212.613,206.516 212.941,206.088 213.175 C 204.908 213.822,191.964 213.811,190.779 213.162 C 190.338 212.920,189.347 212.647,188.577 212.554 C 186.558 212.310,185.169 211.927,184.660 211.473 C 184.415 211.255,183.662 210.973,182.984 210.846 C 182.307 210.720,181.341 210.345,180.838 210.014 C 180.334 209.682,179.611 209.333,179.230 209.239 C 178.849 209.145,178.200 208.784,177.788 208.437 C 177.375 208.090,176.731 207.729,176.356 207.635 C 175.982 207.541,175.497 207.192,175.280 206.860 C 175.062 206.528,174.619 206.174,174.294 206.073 C 173.471 205.816,170.881 203.728,168.945 201.761 C 166.330 199.104,165.143 197.762,164.721 196.986 C 164.479 196.540,163.982 195.853,163.617 195.459 C 163.252 195.065,162.953 194.585,162.953 194.392 C 162.953 194.199,162.749 193.836,162.500 193.586 C 162.251 193.335,161.826 192.639,161.557 192.039 C 161.288 191.439,160.851 190.752,160.586 190.512 C 160.321 190.272,160.104 189.866,160.104 189.609 C 160.104 189.046,159.610 187.845,159.149 187.288 C 158.964 187.064,158.694 186.258,158.550 185.496 C 158.406 184.735,157.997 183.497,157.641 182.745 C 157.286 181.994,156.995 181.116,156.995 180.794 C 156.995 179.436,156.385 175.718,156.045 175.000 C 155.442 173.726,155.679 81.661,156.292 79.275 C 156.530 78.348,156.798 76.658,156.888 75.518 C 156.991 74.217,157.272 72.963,157.642 72.150 C 157.966 71.438,158.361 70.234,158.521 69.475 C 158.681 68.716,158.984 67.922,159.196 67.710 C 159.407 67.499,159.762 66.701,159.984 65.938 C 160.205 65.175,160.550 64.416,160.750 64.250 C 160.949 64.084,161.318 63.404,161.568 62.739 C 161.818 62.073,162.232 61.376,162.488 61.190 C 162.744 61.004,162.953 60.678,162.953 60.466 C 162.953 60.254,163.244 59.789,163.600 59.434 C 163.955 59.078,164.437 58.413,164.669 57.956 C 164.902 57.498,165.281 56.934,165.512 56.701 C 165.743 56.468,166.399 55.725,166.969 55.049 C 168.554 53.170,170.160 51.554,170.442 51.554 C 170.582 51.554,170.848 51.340,171.035 51.077 C 171.221 50.815,171.839 50.287,172.409 49.904 C 174.219 48.688,175.251 47.917,175.518 47.581 C 175.661 47.402,176.185 47.096,176.684 46.902 C 177.183 46.707,177.824 46.348,178.109 46.104 C 178.394 45.860,179.093 45.514,179.663 45.337 C 180.233 45.159,180.933 44.803,181.218 44.546 C 181.503 44.289,182.319 43.933,183.031 43.756 C 183.744 43.579,184.839 43.163,185.466 42.831 C 186.093 42.499,186.909 42.226,187.280 42.223 C 187.650 42.220,188.711 42.039,189.637 41.820 C 194.560 40.659,199.581 40.384,203.497 41.059 M191.451 48.206 C 190.952 48.342,190.316 48.585,190.038 48.744 C 189.759 48.904,188.827 49.199,187.966 49.400 C 187.106 49.600,186.129 49.943,185.795 50.162 C 185.461 50.380,184.610 50.731,183.902 50.941 C 183.194 51.152,182.551 51.491,182.473 51.695 C 182.394 51.900,181.886 52.186,181.344 52.332 C 180.802 52.478,180.085 52.886,179.752 53.237 C 179.418 53.589,179.015 53.879,178.857 53.882 C 178.512 53.887,176.603 55.378,174.849 57.013 C 173.687 58.096,173.610 58.239,173.945 58.697 C 174.366 59.272,220.914 59.636,222.389 59.075 C 223.370 58.702,223.544 58.029,222.788 57.532 C 222.209 57.151,220.307 55.616,219.430 54.823 C 219.216 54.630,218.691 54.293,218.264 54.076 C 217.836 53.858,217.268 53.439,217.002 53.145 C 216.735 52.851,216.095 52.471,215.577 52.301 C 215.060 52.130,214.521 51.849,214.378 51.675 C 214.236 51.501,213.536 51.150,212.824 50.894 C 212.111 50.639,211.348 50.279,211.128 50.093 C 210.907 49.908,209.916 49.584,208.926 49.375 C 207.935 49.165,206.716 48.783,206.218 48.525 C 205.179 47.989,193.194 47.729,191.451 48.206 M169.171 64.934 C 168.042 65.312,167.623 65.713,167.217 66.806 C 166.971 67.466,166.575 68.238,166.338 68.523 C 166.100 68.808,165.759 69.623,165.580 70.333 C 165.401 71.044,165.083 71.815,164.873 72.046 C 164.664 72.278,164.374 73.154,164.229 73.993 C 164.084 74.832,163.897 75.900,163.813 76.366 C 163.446 78.408,160.307 78.238,198.479 78.238 L 232.370 78.238 232.736 77.526 C 233.188 76.645,232.843 73.865,232.134 72.668 C 231.880 72.241,231.592 71.541,231.493 71.114 C 231.393 70.687,230.912 69.501,230.423 68.479 C 229.934 67.457,229.534 66.515,229.534 66.387 C 229.534 66.258,229.233 65.870,228.865 65.524 L 228.197 64.896 198.878 64.850 C 182.753 64.824,169.385 64.862,169.171 64.934 M163.123 84.153 C 162.439 84.908,162.480 96.876,163.168 97.499 C 163.895 98.157,232.041 98.159,233.155 97.501 C 234.723 96.574,234.723 85.032,233.155 84.106 C 231.975 83.408,163.755 83.454,163.123 84.153 M163.121 103.844 C 162.734 104.272,162.692 104.999,162.754 110.259 L 162.824 116.192 163.731 116.501 C 165.268 117.025,231.575 116.968,232.836 116.441 C 234.202 115.870,234.189 115.935,234.193 110.078 C 234.197 105.040,234.167 104.708,233.657 104.120 L 233.117 103.497 198.337 103.430 C 164.708 103.365,163.542 103.378,163.121 103.844 M163.104 122.684 C 162.666 123.123,162.473 134.242,162.893 134.871 C 163.473 135.740,163.915 135.751,198.182 135.751 C 234.770 135.751,233.215 135.807,233.930 134.470 C 234.507 133.393,234.267 123.460,233.652 122.903 C 232.875 122.200,163.802 121.986,163.104 122.684 M164.157 141.185 C 162.720 141.463,162.703 141.540,162.698 147.746 C 162.694 154.462,162.773 154.756,164.661 155.015 C 167.346 155.383,231.572 155.203,232.477 154.825 C 234.059 154.163,234.263 153.265,234.159 147.419 C 234.058 141.776,234.020 141.642,232.420 141.198 C 231.316 140.891,165.743 140.879,164.157 141.185 M164.312 160.032 C 162.835 160.215,162.694 160.849,162.698 167.280 C 162.703 173.567,162.698 173.546,164.282 173.852 C 165.953 174.175,231.255 174.152,232.420 173.828 C 234.020 173.384,234.058 173.250,234.159 167.607 C 234.263 161.761,234.059 160.862,232.477 160.201 C 231.669 159.864,166.965 159.703,164.312 160.032 M164.656 179.682 C 164.104 180.233,164.143 181.502,164.742 182.482 C 165.013 182.927,165.383 183.815,165.563 184.456 C 165.744 185.097,166.104 185.862,166.364 186.156 C 166.624 186.449,167.027 187.245,167.258 187.924 C 167.490 188.604,167.829 189.217,168.013 189.287 C 168.196 189.358,168.491 189.786,168.668 190.239 C 168.845 190.692,169.386 191.441,169.872 191.904 L 170.754 192.746 198.395 192.746 L 226.036 192.745 226.983 191.740 C 227.503 191.186,228.071 190.458,228.245 190.121 C 228.420 189.784,228.766 189.275,229.016 188.990 C 229.266 188.705,229.615 188.005,229.793 187.435 C 229.970 186.865,230.318 186.166,230.566 185.881 C 230.814 185.596,231.149 184.816,231.311 184.147 C 231.474 183.478,231.852 182.515,232.152 182.007 C 232.822 180.870,232.647 179.880,231.712 179.525 C 230.453 179.046,165.138 179.199,164.656 179.682 M178.368 198.404 C 176.645 198.972,176.568 199.586,178.119 200.396 C 178.656 200.677,179.364 201.169,179.691 201.490 C 180.019 201.810,180.445 202.073,180.637 202.073 C 180.830 202.073,181.389 202.369,181.880 202.732 C 182.370 203.095,183.267 203.517,183.873 203.669 C 184.479 203.822,184.974 204.033,184.974 204.136 C 184.974 204.434,186.805 205.128,188.036 205.298 C 188.652 205.383,189.410 205.613,189.720 205.809 C 191.674 207.044,205.703 207.127,207.176 205.913 C 207.348 205.772,208.377 205.435,209.463 205.163 C 210.550 204.892,211.737 204.435,212.101 204.148 C 212.466 203.862,212.965 203.627,213.211 203.627 C 213.457 203.627,214.089 203.334,214.616 202.977 C 215.143 202.619,216.034 202.092,216.595 201.806 C 217.157 201.519,217.617 201.173,217.617 201.036 C 217.617 200.899,217.897 200.717,218.240 200.631 C 218.582 200.545,219.112 200.209,219.416 199.885 L 219.969 199.296 219.246 198.806 C 218.508 198.306,179.820 197.925,178.368 198.404 " stroke="none" fill="#ffffff" fill-rule="evenodd"></path></g></svg>