<svg id="svg" version="1.1" xmlns="http://www.w3.org/2000/svg" xmlns:xlink="http://www.w3.org/1999/xlink" width="400" height="258.91472868217056" viewBox="0, 0, 400,258.91472868217056"><g id="svgg"><path id="path0" d="M137.047 40.933 C 136.263 41.038,134.981 41.305,134.197 41.525 C 133.413 41.746,131.956 42.065,130.959 42.235 C 129.961 42.405,128.562 42.816,127.850 43.150 C 127.137 43.483,126.108 43.834,125.562 43.931 C 125.017 44.028,124.511 44.261,124.439 44.449 C 124.366 44.638,123.705 44.986,122.970 45.223 C 122.234 45.460,121.515 45.800,121.371 45.978 C 121.227 46.155,120.528 46.614,119.816 46.997 C 117.691 48.141,117.117 48.527,115.980 49.575 C 115.384 50.126,114.488 50.876,113.990 51.244 C 112.826 52.101,111.033 53.959,109.715 55.673 C 109.145 56.415,108.358 57.326,107.966 57.699 C 107.574 58.071,107.254 58.511,107.254 58.676 C 107.254 58.842,106.966 59.248,106.614 59.578 C 106.262 59.909,105.836 60.600,105.667 61.113 C 105.499 61.627,105.167 62.184,104.930 62.352 C 104.693 62.520,104.342 63.133,104.150 63.716 C 103.958 64.298,103.645 64.903,103.456 65.061 C 103.266 65.218,102.882 66.088,102.602 66.993 C 102.323 67.898,101.914 68.913,101.694 69.249 C 101.474 69.584,101.173 70.549,101.024 71.393 C 100.876 72.237,100.538 73.452,100.274 74.093 C 99.299 76.461,99.222 80.426,99.237 127.822 C 99.251 175.347,99.328 179.070,100.332 180.989 C 100.565 181.433,100.868 182.501,101.007 183.363 C 101.146 184.225,101.559 185.493,101.925 186.181 C 102.291 186.868,102.594 187.665,102.598 187.951 C 102.602 188.237,102.952 188.929,103.375 189.489 C 103.799 190.049,104.145 190.737,104.145 191.019 C 104.145 191.301,104.419 191.892,104.754 192.333 C 105.089 192.774,105.562 193.520,105.804 193.990 C 106.047 194.461,106.472 195.073,106.750 195.351 C 107.027 195.628,107.254 195.963,107.254 196.094 C 107.254 196.369,107.708 196.894,111.269 200.732 C 112.694 202.268,114.385 203.902,115.026 204.363 C 115.667 204.825,116.597 205.495,117.091 205.853 C 117.586 206.210,118.203 206.730,118.462 207.008 C 118.720 207.286,119.085 207.513,119.272 207.513 C 119.459 207.513,120.074 207.848,120.640 208.258 C 121.205 208.667,121.951 209.087,122.298 209.190 C 122.644 209.294,123.335 209.644,123.834 209.969 C 124.333 210.293,125.324 210.698,126.036 210.869 C 126.749 211.039,127.506 211.325,127.720 211.503 C 128.271 211.963,130.062 212.435,131.258 212.435 C 131.817 212.435,132.736 212.690,133.300 213.001 C 134.724 213.786,147.005 213.905,148.964 213.154 C 149.605 212.907,151.004 212.584,152.073 212.436 C 153.141 212.287,154.598 211.889,155.311 211.552 C 156.023 211.215,157.131 210.789,157.772 210.605 C 158.413 210.422,159.171 210.079,159.456 209.843 C 159.741 209.607,160.468 209.274,161.071 209.102 C 161.674 208.931,162.290 208.561,162.440 208.281 C 162.590 208.001,162.936 207.772,163.208 207.772 C 163.481 207.772,164.030 207.469,164.430 207.098 C 164.829 206.728,165.474 206.260,165.863 206.058 C 166.995 205.471,174.611 198.195,174.611 197.700 C 174.611 197.567,175.019 196.970,175.518 196.373 C 176.017 195.776,176.425 195.186,176.425 195.062 C 176.425 194.938,176.757 194.454,177.163 193.986 C 177.569 193.518,177.978 192.819,178.072 192.433 C 178.166 192.047,178.533 191.418,178.888 191.035 C 179.243 190.652,179.534 190.081,179.534 189.765 C 179.534 189.450,179.816 188.775,180.162 188.266 C 180.508 187.756,180.979 186.605,181.209 185.707 C 181.439 184.809,181.800 183.810,182.012 183.487 C 182.223 183.164,182.511 181.997,182.650 180.893 C 183.047 177.757,183.188 177.119,183.643 176.425 C 184.220 175.544,184.304 80.995,183.729 79.016 C 183.078 76.774,182.909 75.942,182.674 73.845 C 182.544 72.683,182.267 71.535,182.059 71.294 C 181.566 70.724,181.088 69.286,181.088 68.375 C 181.088 67.980,180.801 67.315,180.451 66.899 C 180.100 66.482,179.708 65.673,179.579 65.101 C 179.451 64.529,179.103 63.818,178.806 63.521 C 178.509 63.224,178.142 62.520,177.990 61.957 C 177.839 61.395,177.546 60.870,177.340 60.791 C 177.135 60.712,176.740 60.204,176.464 59.663 C 176.188 59.122,175.716 58.457,175.416 58.185 C 175.116 57.914,174.870 57.539,174.870 57.352 C 174.870 57.165,174.492 56.612,174.028 56.122 C 173.565 55.633,172.429 54.409,171.503 53.401 C 170.576 52.394,169.703 51.567,169.562 51.562 C 169.421 51.558,169.013 51.272,168.656 50.926 C 166.940 49.268,166.404 48.857,165.367 48.398 C 164.752 48.126,164.249 47.794,164.249 47.662 C 164.249 47.529,163.761 47.171,163.164 46.866 C 162.567 46.562,161.928 46.162,161.743 45.976 C 161.557 45.791,160.821 45.446,160.107 45.208 C 159.393 44.971,158.808 44.684,158.808 44.570 C 158.808 44.303,157.648 43.849,156.420 43.636 C 155.890 43.544,155.218 43.262,154.927 43.009 C 154.605 42.730,153.557 42.427,152.263 42.238 C 151.090 42.068,149.605 41.771,148.964 41.580 C 146.016 40.702,140.857 40.421,137.047 40.933 M251.813 40.922 C 251.030 41.033,249.747 41.306,248.964 41.528 C 248.180 41.751,246.665 42.075,245.596 42.248 C 244.527 42.422,243.303 42.766,242.876 43.013 C 242.448 43.259,241.457 43.614,240.674 43.802 C 239.890 43.989,239.050 44.342,238.808 44.586 C 238.565 44.830,237.924 45.171,237.383 45.344 C 236.842 45.518,236.166 45.865,235.881 46.117 C 235.596 46.368,234.896 46.826,234.326 47.134 C 232.534 48.102,231.828 48.556,231.073 49.223 C 230.670 49.579,229.937 50.202,229.443 50.607 C 228.179 51.644,225.428 54.385,224.352 55.679 C 223.854 56.279,223.125 57.129,222.733 57.568 C 222.341 58.008,222.021 58.522,222.021 58.711 C 222.021 58.901,221.737 59.242,221.389 59.469 C 221.042 59.697,220.688 60.203,220.602 60.594 C 220.516 60.986,220.100 61.684,219.679 62.146 C 219.257 62.608,218.912 63.196,218.912 63.453 C 218.912 63.710,218.667 64.232,218.367 64.613 C 218.067 64.994,217.608 66.013,217.346 66.877 C 217.084 67.741,216.696 68.641,216.482 68.878 C 216.268 69.114,215.974 70.049,215.828 70.956 C 215.682 71.862,215.329 73.052,215.044 73.599 C 214.077 75.453,213.994 79.843,214.009 128.109 C 214.024 177.107,214.072 179.674,215.006 181.185 C 215.323 181.698,215.689 182.870,215.819 183.788 C 215.967 184.837,216.298 185.817,216.706 186.419 C 217.065 186.946,217.358 187.694,217.358 188.080 C 217.358 188.466,217.707 189.265,218.135 189.855 C 218.562 190.445,218.912 191.081,218.912 191.268 C 218.912 191.455,219.247 192.068,219.656 192.630 C 220.066 193.193,220.490 193.940,220.598 194.291 C 220.706 194.641,221.071 195.145,221.408 195.411 C 221.745 195.676,222.021 196.016,222.021 196.166 C 222.021 197.078,229.688 204.694,232.254 206.331 C 232.681 206.603,233.148 206.967,233.290 207.139 C 233.433 207.310,233.843 207.519,234.202 207.601 C 234.561 207.684,235.116 207.995,235.435 208.292 C 235.754 208.590,236.504 209.005,237.101 209.216 C 237.698 209.427,238.386 209.779,238.629 209.999 C 238.872 210.219,239.752 210.576,240.585 210.792 C 241.417 211.008,242.273 211.332,242.487 211.512 C 242.941 211.894,244.674 212.344,246.486 212.551 C 247.189 212.632,248.005 212.854,248.299 213.046 C 249.664 213.933,260.513 214.066,263.232 213.229 C 264.147 212.947,265.771 212.585,266.839 212.424 C 267.908 212.263,269.365 211.860,270.078 211.529 C 270.790 211.198,271.898 210.774,272.539 210.587 C 273.180 210.400,273.929 210.041,274.203 209.790 C 274.478 209.538,275.085 209.261,275.553 209.173 C 276.021 209.085,276.758 208.676,277.189 208.263 C 277.621 207.851,278.130 207.513,278.320 207.513 C 278.511 207.513,278.937 207.225,279.268 206.873 C 279.598 206.521,280.254 206.105,280.725 205.950 C 281.196 205.795,281.651 205.447,281.737 205.179 C 281.822 204.910,282.134 204.613,282.429 204.519 C 282.724 204.425,284.175 203.108,285.651 201.591 C 289.314 197.830,289.255 197.897,289.704 197.020 C 289.923 196.592,290.347 196.020,290.647 195.749 C 290.947 195.478,291.192 195.105,291.192 194.920 C 291.192 194.735,291.477 194.298,291.825 193.950 C 292.173 193.602,292.645 192.869,292.874 192.322 C 293.102 191.776,293.501 191.094,293.760 190.807 C 294.019 190.520,294.303 189.903,294.390 189.437 C 294.477 188.971,294.843 188.157,295.202 187.628 C 295.561 187.100,295.855 186.314,295.855 185.882 C 295.855 185.449,296.191 184.398,296.601 183.545 C 297.152 182.402,297.396 181.418,297.531 179.797 C 297.632 178.589,297.842 177.365,297.998 177.077 C 298.677 175.827,298.775 170.450,298.885 128.497 C 299.002 83.782,298.992 83.203,298.046 78.238 C 297.843 77.170,297.572 75.415,297.445 74.339 C 297.317 73.263,296.980 71.922,296.696 71.360 C 296.411 70.797,296.050 69.735,295.894 68.999 C 295.739 68.264,295.316 67.227,294.956 66.696 C 294.595 66.165,294.301 65.462,294.301 65.133 C 294.301 64.804,294.001 64.211,293.635 63.816 C 293.269 63.421,292.907 62.787,292.831 62.407 C 292.755 62.026,292.355 61.345,291.942 60.893 C 291.529 60.441,291.192 59.922,291.192 59.739 C 291.192 59.556,290.947 59.185,290.647 58.914 C 290.347 58.643,289.926 58.071,289.710 57.643 C 289.494 57.215,289.011 56.551,288.636 56.168 C 288.260 55.784,287.662 55.116,287.306 54.682 C 285.881 52.950,284.505 51.605,283.990 51.441 C 283.691 51.346,283.376 51.048,283.290 50.777 C 283.204 50.507,282.921 50.218,282.661 50.135 C 282.401 50.053,281.853 49.686,281.444 49.321 C 281.034 48.956,280.321 48.492,279.858 48.289 C 279.394 48.086,279.016 47.801,279.016 47.656 C 279.016 47.510,278.472 47.158,277.807 46.873 C 277.142 46.588,276.472 46.201,276.317 46.012 C 276.163 45.824,275.512 45.469,274.870 45.223 C 274.229 44.977,273.530 44.625,273.316 44.441 C 273.102 44.258,272.286 43.965,271.503 43.791 C 270.719 43.617,269.763 43.254,269.379 42.983 C 268.955 42.685,267.698 42.344,266.187 42.117 C 264.816 41.911,263.556 41.632,263.388 41.496 C 262.684 40.928,254.592 40.527,251.813 40.922 M148.462 48.190 C 149.222 48.334,149.912 48.563,149.996 48.699 C 150.080 48.834,150.786 49.077,151.564 49.237 C 152.788 49.489,156.065 50.841,157.254 51.583 C 157.468 51.717,158.255 52.113,159.003 52.464 C 159.751 52.815,160.363 53.209,160.363 53.339 C 160.363 53.470,160.697 53.693,161.105 53.835 C 161.513 53.977,162.204 54.426,162.640 54.832 C 164.407 56.476,165.345 57.254,165.559 57.254 C 166.162 57.254,166.328 58.283,165.809 58.802 C 165.291 59.321,165.028 59.326,141.856 59.326 C 118.403 59.326,117.265 59.285,116.933 58.419 C 116.771 57.998,119.283 55.460,119.874 55.447 C 120.047 55.444,120.303 55.228,120.441 54.969 C 120.580 54.709,121.167 54.284,121.746 54.023 C 122.325 53.762,122.798 53.443,122.798 53.314 C 122.798 53.185,123.352 52.837,124.028 52.539 C 124.705 52.242,125.317 51.915,125.389 51.813 C 125.592 51.520,127.137 50.777,127.543 50.777 C 127.744 50.777,128.205 50.545,128.566 50.261 C 128.926 49.977,130.070 49.566,131.107 49.348 C 132.144 49.130,133.127 48.840,133.291 48.704 C 134.171 47.973,145.328 47.595,148.462 48.190 M264.249 48.606 C 264.890 48.908,265.939 49.234,266.580 49.330 C 267.577 49.480,270.773 50.803,272.021 51.583 C 272.234 51.717,272.876 52.062,273.446 52.350 C 274.016 52.638,275.181 53.392,276.036 54.025 C 276.891 54.657,277.970 55.421,278.433 55.722 C 278.896 56.023,279.275 56.367,279.275 56.488 C 279.275 56.608,279.621 56.911,280.044 57.161 C 281.053 57.757,281.189 58.189,280.564 58.814 C 280.061 59.317,279.616 59.326,256.405 59.326 C 231.322 59.326,231.606 59.340,231.606 58.180 C 231.606 57.772,234.153 55.440,234.600 55.440 C 234.773 55.440,235.104 55.151,235.336 54.797 C 235.568 54.443,236.051 54.080,236.409 53.990 C 236.767 53.900,237.173 53.616,237.310 53.360 C 237.447 53.103,238.144 52.699,238.858 52.462 C 239.571 52.225,240.155 51.945,240.155 51.841 C 240.155 51.608,241.854 50.777,242.331 50.777 C 242.521 50.777,242.972 50.545,243.332 50.261 C 243.693 49.977,244.840 49.566,245.881 49.347 C 246.922 49.128,247.954 48.787,248.174 48.589 C 249.154 47.711,262.376 47.724,264.249 48.606 M171.809 65.216 C 172.021 65.393,172.353 66.017,172.547 66.604 C 172.740 67.191,173.046 67.728,173.225 67.797 C 173.405 67.866,173.743 68.579,173.977 69.383 C 174.210 70.186,174.607 71.138,174.858 71.497 C 175.110 71.856,175.396 72.774,175.494 73.536 C 175.592 74.298,175.857 75.382,176.082 75.945 C 176.478 76.935,176.472 76.989,175.895 77.603 L 175.298 78.238 141.270 78.238 L 107.241 78.238 106.962 77.526 C 106.625 76.665,107.037 73.990,107.606 73.347 C 107.810 73.116,108.112 72.268,108.277 71.462 C 108.441 70.656,108.788 69.752,109.047 69.453 C 109.307 69.154,109.666 68.385,109.845 67.745 C 110.061 66.973,110.512 66.272,111.180 65.668 L 112.189 64.756 141.806 64.826 C 164.851 64.881,171.509 64.967,171.809 65.216 M286.578 65.297 C 286.798 65.517,287.064 65.984,287.168 66.333 C 287.272 66.683,287.631 67.377,287.966 67.876 C 288.301 68.374,288.683 69.273,288.817 69.872 C 288.950 70.471,289.237 71.140,289.455 71.358 C 289.849 71.752,290.413 73.858,290.416 74.948 C 290.417 75.262,290.600 75.867,290.822 76.294 C 291.212 77.041,291.202 77.091,290.547 77.654 L 289.867 78.238 255.953 78.238 C 222.688 78.238,222.034 78.229,221.771 77.737 C 221.222 76.713,221.591 74.050,222.418 73.057 C 222.596 72.843,222.822 72.174,222.921 71.571 C 223.020 70.967,223.378 70.066,223.715 69.568 C 224.053 69.071,224.451 68.224,224.600 67.687 C 224.876 66.688,225.987 65.231,226.684 64.956 C 227.696 64.556,286.169 64.889,286.578 65.297 M176.717 84.107 C 176.997 84.444,177.073 85.872,177.073 90.803 C 177.073 95.735,176.997 97.162,176.717 97.499 C 176.165 98.164,107.594 98.158,106.468 97.492 C 105.517 96.931,105.344 95.498,105.479 89.297 C 105.580 84.664,105.667 84.292,106.740 83.870 C 107.825 83.445,176.360 83.677,176.717 84.107 M291.506 84.262 C 291.751 84.690,291.839 86.424,291.839 90.803 C 291.839 95.182,291.751 96.916,291.506 97.345 L 291.173 97.927 256.584 97.927 C 217.643 97.927,220.666 98.092,220.374 95.961 C 220.154 94.357,220.187 86.680,220.420 85.369 C 220.739 83.573,218.293 83.687,256.532 83.683 L 291.173 83.679 291.506 84.262 M176.799 103.944 C 177.526 104.982,177.385 115.612,176.635 116.311 C 176.070 116.837,175.928 116.839,141.985 116.838 C 106.953 116.836,106.242 116.816,105.703 115.809 C 105.344 115.139,105.356 105.045,105.716 104.373 C 106.226 103.420,106.919 103.401,141.760 103.384 L 176.395 103.368 176.799 103.944 M291.551 104.006 C 292.286 105.129,292.164 115.433,291.406 116.240 L 290.842 116.839 256.755 116.838 C 221.720 116.836,221.009 116.816,220.469 115.809 C 219.834 114.621,220.148 104.699,220.843 104.004 L 221.479 103.368 256.306 103.368 L 291.132 103.368 291.551 104.006 M176.684 122.533 C 177.303 122.925,177.258 134.696,176.635 135.319 C 176.228 135.726,173.775 135.752,141.444 135.689 L 106.691 135.622 106.066 134.895 C 105.448 134.177,105.440 134.102,105.440 128.782 C 105.440 123.074,105.470 122.929,106.736 122.464 C 107.441 122.204,176.272 122.273,176.684 122.533 M291.566 122.856 C 292.194 123.752,292.158 133.927,291.523 135.002 L 291.077 135.757 256.267 135.689 L 221.458 135.622 220.832 134.895 C 220.215 134.177,220.207 134.102,220.207 128.782 C 220.207 123.074,220.237 122.929,221.503 122.464 C 221.716 122.385,237.477 122.311,256.527 122.300 L 291.162 122.280 291.566 122.856 M176.554 141.341 C 177.306 141.908,177.357 153.344,176.613 154.480 L 176.154 155.181 142.084 155.181 C 104.181 155.181,106.563 155.295,105.794 153.453 C 105.461 152.656,105.404 151.575,105.479 147.395 C 105.578 141.849,105.634 141.637,107.092 141.214 C 108.645 140.764,175.953 140.886,176.554 141.341 M291.228 141.427 C 292.334 142.323,292.288 153.567,291.173 154.682 C 290.494 155.361,223.490 155.478,221.874 154.802 C 220.328 154.156,220.140 153.304,220.246 147.395 C 220.345 141.849,220.400 141.637,221.859 141.214 C 223.716 140.676,290.553 140.881,291.228 141.427 M176.613 160.546 C 177.409 161.760,177.299 172.557,176.482 173.374 L 175.892 173.964 142.415 174.041 C 107.612 174.122,107.137 174.112,106.164 173.325 C 105.373 172.684,105.076 163.290,105.793 161.574 C 106.554 159.752,104.160 159.866,142.028 159.855 L 176.154 159.845 176.613 160.546 M291.173 160.344 C 291.885 161.056,292.042 162.597,291.923 167.681 C 291.799 172.983,291.610 173.599,290.024 173.880 C 288.338 174.179,223.068 174.130,221.984 173.828 C 220.385 173.384,220.346 173.247,220.246 167.631 C 220.142 161.785,220.334 160.879,221.817 160.235 C 223.353 159.567,290.502 159.673,291.173 160.344 M175.008 179.637 C 175.712 180.152,175.585 181.986,174.736 183.583 C 174.370 184.271,173.945 185.333,173.792 185.941 C 173.639 186.549,173.404 187.047,173.271 187.047 C 173.137 187.047,172.798 187.566,172.517 188.202 C 172.236 188.837,171.890 189.428,171.749 189.515 C 171.608 189.603,171.199 190.253,170.841 190.961 C 169.882 192.852,171.638 192.746,141.206 192.746 L 113.534 192.746 112.605 191.613 C 112.094 190.989,111.533 190.144,111.359 189.734 C 111.184 189.325,110.849 188.756,110.614 188.472 C 110.380 188.187,110.033 187.545,109.844 187.047 C 109.655 186.548,109.333 185.943,109.129 185.703 C 108.925 185.463,108.537 184.427,108.268 183.402 C 107.999 182.377,107.643 181.375,107.477 181.175 C 107.109 180.731,107.614 179.620,108.263 179.446 C 109.538 179.105,174.535 179.291,175.008 179.637 M289.779 179.712 C 290.313 180.246,290.143 182.459,289.515 183.153 C 289.296 183.395,288.944 184.176,288.732 184.888 C 288.520 185.601,288.125 186.440,287.854 186.753 C 287.582 187.066,287.287 187.710,287.198 188.185 C 287.109 188.660,286.801 189.261,286.514 189.521 C 286.227 189.781,285.769 190.497,285.497 191.112 C 284.738 192.827,286.206 192.746,256.009 192.746 L 228.374 192.746 227.270 191.526 C 226.663 190.856,226.166 190.196,226.166 190.061 C 226.166 189.926,225.863 189.419,225.493 188.934 C 225.123 188.448,224.708 187.645,224.571 187.149 C 224.434 186.654,224.053 185.852,223.725 185.368 C 223.397 184.885,223.050 184.000,222.955 183.403 C 222.859 182.806,222.610 182.073,222.401 181.775 C 221.853 180.993,221.933 180.143,222.597 179.678 C 223.517 179.033,289.133 179.066,289.779 179.712 M162.591 198.749 C 163.214 199.373,162.874 199.950,161.532 200.543 C 160.889 200.828,160.363 201.178,160.363 201.321 C 160.363 201.464,159.962 201.748,159.473 201.953 C 158.983 202.157,158.151 202.618,157.623 202.976 C 157.095 203.334,156.482 203.627,156.260 203.627 C 156.038 203.627,155.437 203.918,154.923 204.274 C 154.410 204.630,153.307 205.047,152.473 205.201 C 151.638 205.355,150.711 205.636,150.413 205.824 C 148.359 207.120,134.799 207.118,132.745 205.822 C 132.445 205.633,131.746 205.403,131.191 205.310 C 129.936 205.101,128.748 204.678,128.238 204.257 C 128.025 204.081,127.357 203.792,126.756 203.614 C 126.154 203.436,125.435 203.079,125.159 202.821 C 124.882 202.564,124.349 202.276,123.975 202.182 C 123.601 202.088,122.974 201.691,122.583 201.299 C 122.191 200.908,121.613 200.506,121.298 200.406 C 120.156 200.043,120.123 198.822,121.244 198.375 C 122.309 197.950,162.152 198.311,162.591 198.749 M277.143 198.705 C 277.971 199.251,277.774 199.732,276.432 200.441 C 275.795 200.778,275.030 201.283,274.732 201.563 C 274.433 201.843,274.074 202.073,273.933 202.073 C 273.791 202.073,273.274 202.369,272.783 202.732 C 272.293 203.095,271.396 203.517,270.790 203.669 C 270.185 203.822,269.689 204.033,269.689 204.136 C 269.689 204.435,267.859 205.137,266.580 205.329 C 265.939 205.425,265.353 205.601,265.277 205.720 C 264.395 207.102,249.627 207.160,247.462 205.790 C 247.135 205.583,246.281 205.344,245.564 205.259 C 244.846 205.174,243.877 204.845,243.411 204.528 C 242.944 204.212,241.963 203.754,241.231 203.510 C 240.499 203.267,239.811 202.919,239.704 202.737 C 239.596 202.554,239.089 202.269,238.577 202.103 C 238.066 201.936,237.396 201.512,237.089 201.159 C 236.783 200.807,236.377 200.518,236.187 200.518 C 234.800 200.518,234.665 198.875,236.010 198.366 C 237.017 197.986,276.547 198.311,277.143 198.705 " stroke="none" fill="#1aa658" fill-rule="evenodd"></path><path id="path1" d="M0.000 129.534 L 0.000 259.067 200.000 259.067 L 400.000 259.067 400.000 129.534 L 400.000 0.000 200.000 0.000 L 0.000 0.000 0.000 129.534 M146.228 40.953 C 147.091 41.107,148.323 41.389,148.964 41.580 C 149.605 41.771,151.090 42.068,152.263 42.238 C 153.557 42.427,154.605 42.730,154.927 43.009 C 155.218 43.262,155.890 43.544,156.420 43.636 C 157.648 43.849,158.808 44.303,158.808 44.570 C 158.808 44.684,159.393 44.971,160.107 45.208 C 160.821 45.446,161.557 45.791,161.743 45.976 C 161.928 46.162,162.567 46.562,163.164 46.866 C 163.761 47.171,164.249 47.529,164.249 47.662 C 164.249 47.794,164.752 48.126,165.367 48.398 C 166.404 48.857,166.940 49.268,168.656 50.926 C 169.013 51.272,169.421 51.558,169.562 51.562 C 169.703 51.567,170.576 52.394,171.503 53.401 C 172.429 54.409,173.565 55.633,174.028 56.122 C 174.492 56.612,174.870 57.165,174.870 57.352 C 174.870 57.539,175.116 57.914,175.416 58.185 C 175.716 58.457,176.188 59.122,176.464 59.663 C 176.740 60.204,177.135 60.712,177.340 60.791 C 177.546 60.870,177.839 61.395,177.990 61.957 C 178.142 62.520,178.509 63.224,178.806 63.521 C 179.103 63.818,179.451 64.529,179.579 65.101 C 179.708 65.673,180.100 66.482,180.451 66.899 C 180.801 67.315,181.088 67.980,181.088 68.375 C 181.088 69.286,181.566 70.724,182.059 71.294 C 182.267 71.535,182.544 72.683,182.674 73.845 C 182.909 75.942,183.078 76.774,183.729 79.016 C 184.304 80.995,184.220 175.544,183.643 176.425 C 183.188 177.119,183.047 177.757,182.650 180.893 C 182.511 181.997,182.223 183.164,182.012 183.487 C 181.800 183.810,181.439 184.809,181.209 185.707 C 180.979 186.605,180.508 187.756,180.162 188.266 C 179.816 188.775,179.534 189.450,179.534 189.765 C 179.534 190.081,179.243 190.652,178.888 191.035 C 178.533 191.418,178.166 192.047,178.072 192.433 C 177.978 192.819,177.569 193.518,177.163 193.986 C 176.757 194.454,176.425 194.938,176.425 195.062 C 176.425 195.186,176.017 195.776,175.518 196.373 C 175.019 196.970,174.611 197.567,174.611 197.700 C 174.611 198.195,166.995 205.471,165.863 206.058 C 165.474 206.260,164.829 206.728,164.430 207.098 C 164.030 207.469,163.481 207.772,163.208 207.772 C 162.936 207.772,162.590 208.001,162.440 208.281 C 162.290 208.561,161.674 208.931,161.071 209.102 C 160.468 209.274,159.741 209.607,159.456 209.843 C 159.171 210.079,158.413 210.422,157.772 210.605 C 157.131 210.789,156.023 211.215,155.311 211.552 C 154.598 211.889,153.141 212.287,152.073 212.436 C 151.004 212.584,149.605 212.907,148.964 213.154 C 147.005 213.905,134.724 213.786,133.300 213.001 C 132.736 212.690,131.817 212.435,131.258 212.435 C 130.062 212.435,128.271 211.963,127.720 211.503 C 127.506 211.325,126.749 211.039,126.036 210.869 C 125.324 210.698,124.333 210.293,123.834 209.969 C 123.335 209.644,122.644 209.294,122.298 209.190 C 121.951 209.087,121.205 208.667,120.640 208.258 C 120.074 207.848,119.459 207.513,119.272 207.513 C 119.085 207.513,118.720 207.286,118.462 207.008 C 118.203 206.730,117.586 206.210,117.091 205.853 C 116.597 205.495,115.667 204.825,115.026 204.363 C 114.385 203.902,112.694 202.268,111.269 200.732 C 107.708 196.894,107.254 196.369,107.254 196.094 C 107.254 195.963,107.027 195.628,106.750 195.351 C 106.472 195.073,106.047 194.461,105.804 193.990 C 105.562 193.520,105.089 192.774,104.754 192.333 C 104.419 191.892,104.145 191.301,104.145 191.019 C 104.145 190.737,103.799 190.049,103.375 189.489 C 102.952 188.929,102.602 188.237,102.598 187.951 C 102.594 187.665,102.291 186.868,101.925 186.181 C 101.559 185.493,101.146 184.225,101.007 183.363 C 100.868 182.501,100.565 181.433,100.332 180.989 C 99.328 179.070,99.251 175.347,99.237 127.822 C 99.222 80.426,99.299 76.461,100.274 74.093 C 100.538 73.452,100.876 72.237,101.024 71.393 C 101.173 70.549,101.474 69.584,101.694 69.249 C 101.914 68.913,102.323 67.898,102.602 66.993 C 102.882 66.088,103.266 65.218,103.456 65.061 C 103.645 64.903,103.958 64.298,104.150 63.716 C 104.342 63.133,104.693 62.520,104.930 62.352 C 105.167 62.184,105.499 61.627,105.667 61.113 C 105.836 60.600,106.262 59.909,106.614 59.578 C 106.966 59.248,107.254 58.842,107.254 58.676 C 107.254 58.511,107.574 58.071,107.966 57.699 C 108.358 57.326,109.145 56.415,109.715 55.673 C 111.033 53.959,112.826 52.101,113.990 51.244 C 114.488 50.876,115.384 50.126,115.980 49.575 C 117.117 48.527,117.691 48.141,119.816 46.997 C 120.528 46.614,121.227 46.155,121.371 45.978 C 121.515 45.800,122.234 45.460,122.970 45.223 C 123.705 44.986,124.366 44.638,124.439 44.449 C 124.511 44.261,125.017 44.028,125.562 43.931 C 126.108 43.834,127.137 43.483,127.850 43.150 C 128.562 42.816,129.961 42.405,130.959 42.235 C 131.956 42.065,133.413 41.746,134.197 41.525 C 137.124 40.701,143.194 40.413,146.228 40.953 M261.917 41.079 C 262.558 41.173,263.220 41.361,263.388 41.496 C 263.556 41.632,264.816 41.911,266.187 42.117 C 267.698 42.344,268.955 42.685,269.379 42.983 C 269.763 43.254,270.719 43.617,271.503 43.791 C 272.286 43.965,273.102 44.258,273.316 44.441 C 273.530 44.625,274.229 44.977,274.870 45.223 C 275.512 45.469,276.163 45.824,276.317 46.012 C 276.472 46.201,277.142 46.588,277.807 46.873 C 278.472 47.158,279.016 47.510,279.016 47.656 C 279.016 47.801,279.394 48.086,279.858 48.289 C 280.321 48.492,281.034 48.956,281.444 49.321 C 281.853 49.686,282.401 50.053,282.661 50.135 C 282.921 50.218,283.204 50.507,283.290 50.777 C 283.376 51.048,283.691 51.346,283.990 51.441 C 284.505 51.605,285.881 52.950,287.306 54.682 C 287.662 55.116,288.260 55.784,288.636 56.168 C 289.011 56.551,289.494 57.215,289.710 57.643 C 289.926 58.071,290.347 58.643,290.647 58.914 C 290.947 59.185,291.192 59.556,291.192 59.739 C 291.192 59.922,291.529 60.441,291.942 60.893 C 292.355 61.345,292.755 62.026,292.831 62.407 C 292.907 62.787,293.269 63.421,293.635 63.816 C 294.001 64.211,294.301 64.804,294.301 65.133 C 294.301 65.462,294.595 66.165,294.956 66.696 C 295.316 67.227,295.739 68.264,295.894 68.999 C 296.050 69.735,296.411 70.797,296.696 71.360 C 296.980 71.922,297.317 73.263,297.445 74.339 C 297.572 75.415,297.843 77.170,298.046 78.238 C 298.992 83.203,299.002 83.782,298.885 128.497 C 298.775 170.450,298.677 175.827,297.998 177.077 C 297.842 177.365,297.632 178.589,297.531 179.797 C 297.396 181.418,297.152 182.402,296.601 183.545 C 296.191 184.398,295.855 185.449,295.855 185.882 C 295.855 186.314,295.561 187.100,295.202 187.628 C 294.843 188.157,294.477 188.971,294.390 189.437 C 294.303 189.903,294.019 190.520,293.760 190.807 C 293.501 191.094,293.102 191.776,292.874 192.322 C 292.645 192.869,292.173 193.602,291.825 193.950 C 291.477 194.298,291.192 194.735,291.192 194.920 C 291.192 195.105,290.947 195.478,290.647 195.749 C 290.347 196.020,289.923 196.592,289.704 197.020 C 289.255 197.897,289.314 197.830,285.651 201.591 C 284.175 203.108,282.724 204.425,282.429 204.519 C 282.134 204.613,281.822 204.910,281.737 205.179 C 281.651 205.447,281.196 205.795,280.725 205.950 C 280.254 206.105,279.598 206.521,279.268 206.873 C 278.937 207.225,278.511 207.513,278.320 207.513 C 278.130 207.513,277.621 207.851,277.189 208.263 C 276.758 208.676,276.021 209.085,275.553 209.173 C 275.085 209.261,274.478 209.538,274.203 209.790 C 273.929 210.041,273.180 210.400,272.539 210.587 C 271.898 210.774,270.790 211.198,270.078 211.529 C 269.365 211.860,267.908 212.263,266.839 212.424 C 265.771 212.585,264.147 212.947,263.232 213.229 C 260.513 214.066,249.664 213.933,248.299 213.046 C 248.005 212.854,247.189 212.632,246.486 212.551 C 244.674 212.344,242.941 211.894,242.487 211.512 C 242.273 211.332,241.417 211.008,240.585 210.792 C 239.752 210.576,238.872 210.219,238.629 209.999 C 238.386 209.779,237.698 209.427,237.101 209.216 C 236.504 209.005,235.754 208.590,235.435 208.292 C 235.116 207.995,234.561 207.684,234.202 207.601 C 233.843 207.519,233.433 207.310,233.290 207.139 C 233.148 206.967,232.681 206.603,232.254 206.331 C 229.688 204.694,222.021 197.078,222.021 196.166 C 222.021 196.016,221.745 195.676,221.408 195.411 C 221.071 195.145,220.706 194.641,220.598 194.291 C 220.490 193.940,220.066 193.193,219.656 192.630 C 219.247 192.068,218.912 191.455,218.912 191.268 C 218.912 191.081,218.562 190.445,218.135 189.855 C 217.707 189.265,217.358 188.466,217.358 188.080 C 217.358 187.694,217.065 186.946,216.706 186.419 C 216.298 185.817,215.967 184.837,215.819 183.788 C 215.689 182.870,215.323 181.698,215.006 181.185 C 214.072 179.674,214.024 177.107,214.009 128.109 C 213.994 79.843,214.077 75.453,215.044 73.599 C 215.329 73.052,215.682 71.862,215.828 70.956 C 215.974 70.049,216.268 69.114,216.482 68.878 C 216.696 68.641,217.084 67.741,217.346 66.877 C 217.608 66.013,218.067 64.994,218.367 64.613 C 218.667 64.232,218.912 63.710,218.912 63.453 C 218.912 63.196,219.257 62.608,219.679 62.146 C 220.100 61.684,220.516 60.986,220.602 60.594 C 220.688 60.203,221.042 59.697,221.389 59.469 C 221.737 59.242,222.021 58.901,222.021 58.711 C 222.021 58.522,222.341 58.008,222.733 57.568 C 223.125 57.129,223.854 56.279,224.352 55.679 C 225.428 54.385,228.179 51.644,229.443 50.607 C 229.937 50.202,230.670 49.579,231.073 49.223 C 231.828 48.556,232.534 48.102,234.326 47.134 C 234.896 46.826,235.596 46.368,235.881 46.117 C 236.166 45.865,236.842 45.518,237.383 45.344 C 237.924 45.171,238.565 44.830,238.808 44.586 C 239.050 44.342,239.890 43.989,240.674 43.802 C 241.457 43.614,242.448 43.259,242.876 43.013 C 243.303 42.766,244.527 42.422,245.596 42.248 C 246.665 42.075,248.180 41.751,248.964 41.528 C 251.770 40.732,258.073 40.513,261.917 41.079 M134.606 48.218 C 134.047 48.349,133.455 48.568,133.291 48.704 C 133.127 48.840,132.144 49.130,131.107 49.348 C 130.070 49.566,128.926 49.977,128.566 50.261 C 128.205 50.545,127.744 50.777,127.543 50.777 C 127.137 50.777,125.592 51.520,125.389 51.813 C 125.317 51.915,124.705 52.242,124.028 52.539 C 123.352 52.837,122.798 53.185,122.798 53.314 C 122.798 53.443,122.325 53.762,121.746 54.023 C 121.167 54.284,120.580 54.709,120.441 54.969 C 120.303 55.228,120.047 55.444,119.874 55.447 C 119.283 55.460,116.771 57.998,116.933 58.419 C 117.265 59.285,118.403 59.326,141.856 59.326 C 165.028 59.326,165.291 59.321,165.809 58.802 C 166.328 58.283,166.162 57.254,165.559 57.254 C 165.345 57.254,164.407 56.476,162.640 54.832 C 162.204 54.426,161.513 53.977,161.105 53.835 C 160.697 53.693,160.363 53.470,160.363 53.339 C 160.363 53.209,159.751 52.815,159.003 52.464 C 158.255 52.113,157.468 51.717,157.254 51.583 C 156.065 50.841,152.788 49.489,151.564 49.237 C 150.786 49.077,150.080 48.834,149.996 48.699 C 149.552 47.979,137.261 47.595,134.606 48.218 M249.352 48.110 C 248.925 48.176,248.395 48.392,248.174 48.589 C 247.954 48.787,246.922 49.128,245.881 49.347 C 244.840 49.566,243.693 49.977,243.332 50.261 C 242.972 50.545,242.521 50.777,242.331 50.777 C 241.854 50.777,240.155 51.608,240.155 51.841 C 240.155 51.945,239.571 52.225,238.858 52.462 C 238.144 52.699,237.447 53.103,237.310 53.360 C 237.173 53.616,236.767 53.900,236.409 53.990 C 236.051 54.080,235.568 54.443,235.336 54.797 C 235.104 55.151,234.773 55.440,234.600 55.440 C 234.153 55.440,231.606 57.772,231.606 58.180 C 231.606 59.340,231.322 59.326,256.405 59.326 C 279.616 59.326,280.061 59.317,280.564 58.814 C 281.189 58.189,281.053 57.757,280.044 57.161 C 279.621 56.911,279.275 56.608,279.275 56.488 C 279.275 56.367,278.896 56.023,278.433 55.722 C 277.970 55.421,276.891 54.657,276.036 54.025 C 275.181 53.392,274.016 52.638,273.446 52.350 C 272.876 52.062,272.234 51.717,272.021 51.583 C 270.773 50.803,267.577 49.480,266.580 49.330 C 265.939 49.234,264.890 48.908,264.249 48.606 C 263.108 48.069,252.007 47.699,249.352 48.110 M111.180 65.668 C 110.512 66.272,110.061 66.973,109.845 67.745 C 109.666 68.385,109.307 69.154,109.047 69.453 C 108.788 69.752,108.441 70.656,108.277 71.462 C 108.112 72.268,107.810 73.116,107.606 73.347 C 107.037 73.990,106.625 76.665,106.962 77.526 L 107.241 78.238 141.270 78.238 L 175.298 78.238 175.895 77.603 C 176.472 76.989,176.478 76.935,176.082 75.945 C 175.857 75.382,175.592 74.298,175.494 73.536 C 175.396 72.774,175.110 71.856,174.858 71.497 C 174.607 71.138,174.210 70.186,173.977 69.383 C 173.743 68.579,173.405 67.866,173.225 67.797 C 173.046 67.728,172.740 67.191,172.547 66.604 C 172.353 66.017,172.021 65.393,171.809 65.216 C 171.509 64.967,164.851 64.881,141.806 64.826 L 112.189 64.756 111.180 65.668 M226.684 64.956 C 225.987 65.231,224.876 66.688,224.600 67.687 C 224.451 68.224,224.053 69.071,223.715 69.568 C 223.378 70.066,223.020 70.967,222.921 71.571 C 222.822 72.174,222.596 72.843,222.418 73.057 C 221.591 74.050,221.222 76.713,221.771 77.737 C 222.034 78.229,222.688 78.238,255.953 78.238 L 289.867 78.238 290.547 77.654 C 291.202 77.091,291.212 77.041,290.822 76.294 C 290.600 75.867,290.417 75.262,290.416 74.948 C 290.413 73.858,289.849 71.752,289.455 71.358 C 289.237 71.140,288.950 70.471,288.817 69.872 C 288.683 69.273,288.301 68.374,287.966 67.876 C 287.631 67.377,287.272 66.683,287.168 66.333 C 286.709 64.795,288.888 64.901,256.625 64.849 C 240.371 64.823,226.898 64.871,226.684 64.956 M106.740 83.870 C 105.667 84.292,105.580 84.664,105.479 89.297 C 105.344 95.498,105.517 96.931,106.468 97.492 C 107.594 98.158,176.165 98.164,176.717 97.499 C 176.997 97.162,177.073 95.735,177.073 90.803 C 177.073 85.872,176.997 84.444,176.717 84.107 C 176.360 83.677,107.825 83.445,106.740 83.870 M221.247 84.012 C 220.296 84.494,219.776 91.601,220.374 95.961 C 220.666 98.092,217.643 97.927,256.584 97.927 L 291.173 97.927 291.506 97.345 C 291.751 96.916,291.839 95.182,291.839 90.803 C 291.839 86.424,291.751 84.690,291.506 84.262 L 291.173 83.679 256.532 83.683 C 229.219 83.686,221.755 83.755,221.247 84.012 M106.558 103.629 C 105.550 104.035,105.440 104.669,105.440 110.104 C 105.440 115.867,105.511 116.173,106.933 116.568 C 109.084 117.165,175.983 116.919,176.635 116.311 C 177.385 115.612,177.526 104.982,176.799 103.944 L 176.395 103.368 141.760 103.384 C 122.458 103.393,106.874 103.502,106.558 103.629 M220.843 104.004 C 220.148 104.699,219.834 114.621,220.469 115.809 C 221.009 116.816,221.720 116.836,256.755 116.838 L 290.842 116.839 291.406 116.240 C 292.164 115.433,292.286 105.129,291.551 104.006 L 291.132 103.368 256.306 103.368 L 221.479 103.368 220.843 104.004 M106.736 122.464 C 105.470 122.929,105.440 123.074,105.440 128.782 C 105.440 134.102,105.448 134.177,106.066 134.895 L 106.691 135.622 141.444 135.689 C 173.775 135.752,176.228 135.726,176.635 135.319 C 177.258 134.696,177.303 122.925,176.684 122.533 C 176.272 122.273,107.441 122.204,106.736 122.464 M221.503 122.464 C 220.237 122.929,220.207 123.074,220.207 128.782 C 220.207 134.102,220.215 134.177,220.832 134.895 L 221.458 135.622 256.267 135.689 L 291.077 135.757 291.523 135.002 C 292.158 133.927,292.194 123.752,291.566 122.856 L 291.162 122.280 256.527 122.300 C 237.477 122.311,221.716 122.385,221.503 122.464 M107.092 141.214 C 105.634 141.637,105.578 141.849,105.479 147.395 C 105.404 151.575,105.461 152.656,105.794 153.453 C 106.563 155.295,104.181 155.181,142.084 155.181 L 176.154 155.181 176.613 154.480 C 177.357 153.344,177.306 141.908,176.554 141.341 C 175.953 140.886,108.645 140.764,107.092 141.214 M221.859 141.214 C 220.400 141.637,220.345 141.849,220.246 147.395 C 220.140 153.304,220.328 154.156,221.874 154.802 C 223.490 155.478,290.494 155.361,291.173 154.682 C 292.288 153.567,292.334 142.323,291.228 141.427 C 290.553 140.881,223.716 140.676,221.859 141.214 M107.050 160.235 C 105.564 160.880,105.375 161.780,105.479 167.694 C 105.582 173.545,105.619 173.642,107.848 173.962 C 108.447 174.048,124.003 174.084,142.415 174.041 L 175.892 173.964 176.482 173.374 C 177.299 172.557,177.409 161.760,176.613 160.546 L 176.154 159.845 142.028 159.855 C 113.041 159.863,107.773 159.921,107.050 160.235 M221.817 160.235 C 220.334 160.879,220.142 161.785,220.246 167.631 C 220.346 173.247,220.385 173.384,221.984 173.828 C 223.068 174.130,288.338 174.179,290.024 173.880 C 291.610 173.599,291.799 172.983,291.923 167.681 C 292.042 162.597,291.885 161.056,291.173 160.344 C 290.502 159.673,223.353 159.567,221.817 160.235 M108.263 179.446 C 107.614 179.620,107.109 180.731,107.477 181.175 C 107.643 181.375,107.999 182.377,108.268 183.402 C 108.537 184.427,108.925 185.463,109.129 185.703 C 109.333 185.943,109.655 186.548,109.844 187.047 C 110.033 187.545,110.380 188.187,110.614 188.472 C 110.849 188.756,111.184 189.325,111.359 189.734 C 111.533 190.144,112.094 190.989,112.605 191.613 L 113.534 192.746 141.206 192.746 C 171.638 192.746,169.882 192.852,170.841 190.961 C 171.199 190.253,171.608 189.603,171.749 189.515 C 171.890 189.428,172.236 188.837,172.517 188.202 C 172.798 187.566,173.137 187.047,173.271 187.047 C 173.404 187.047,173.639 186.549,173.792 185.941 C 173.945 185.333,174.370 184.271,174.736 183.583 C 175.585 181.986,175.712 180.152,175.008 179.637 C 174.535 179.291,109.538 179.105,108.263 179.446 M222.597 179.678 C 221.933 180.143,221.853 180.993,222.401 181.775 C 222.610 182.073,222.859 182.806,222.955 183.403 C 223.050 184.000,223.397 184.885,223.725 185.368 C 224.053 185.852,224.434 186.654,224.571 187.149 C 224.708 187.645,225.123 188.448,225.493 188.934 C 225.863 189.419,226.166 189.926,226.166 190.061 C 226.166 190.196,226.663 190.856,227.270 191.526 L 228.374 192.746 256.009 192.746 C 286.206 192.746,284.738 192.827,285.497 191.112 C 285.769 190.497,286.227 189.781,286.514 189.521 C 286.801 189.261,287.109 188.660,287.198 188.185 C 287.287 187.710,287.582 187.066,287.854 186.753 C 288.125 186.440,288.520 185.601,288.732 184.888 C 288.944 184.176,289.296 183.395,289.515 183.153 C 290.143 182.459,290.313 180.246,289.779 179.712 C 289.133 179.066,223.517 179.033,222.597 179.678 M121.244 198.375 C 120.123 198.822,120.156 200.043,121.298 200.406 C 121.613 200.506,122.191 200.908,122.583 201.299 C 122.974 201.691,123.601 202.088,123.975 202.182 C 124.349 202.276,124.882 202.564,125.159 202.821 C 125.435 203.079,126.154 203.436,126.756 203.614 C 127.357 203.792,128.025 204.081,128.238 204.257 C 128.748 204.678,129.936 205.101,131.191 205.310 C 131.746 205.403,132.445 205.633,132.745 205.822 C 134.799 207.118,148.359 207.120,150.413 205.824 C 150.711 205.636,151.638 205.355,152.473 205.201 C 153.307 205.047,154.410 204.630,154.923 204.274 C 155.437 203.918,156.038 203.627,156.260 203.627 C 156.482 203.627,157.095 203.334,157.623 202.976 C 158.151 202.618,158.983 202.157,159.473 201.953 C 159.962 201.748,160.363 201.464,160.363 201.321 C 160.363 201.178,160.889 200.828,161.532 200.543 C 162.874 199.950,163.214 199.373,162.591 198.749 C 162.152 198.311,122.309 197.950,121.244 198.375 M236.010 198.366 C 234.665 198.875,234.800 200.518,236.187 200.518 C 236.377 200.518,236.783 200.807,237.089 201.159 C 237.396 201.512,238.066 201.936,238.577 202.103 C 239.089 202.269,239.596 202.554,239.704 202.737 C 239.811 202.919,240.499 203.267,241.231 203.510 C 241.963 203.754,242.944 204.212,243.411 204.528 C 243.877 204.845,244.846 205.174,245.564 205.259 C 246.281 205.344,247.135 205.583,247.462 205.790 C 249.627 207.160,264.395 207.102,265.277 205.720 C 265.353 205.601,265.939 205.425,266.580 205.329 C 267.859 205.137,269.689 204.435,269.689 204.136 C 269.689 204.033,270.185 203.822,270.790 203.669 C 271.396 203.517,272.293 203.095,272.783 202.732 C 273.274 202.369,273.791 202.073,273.933 202.073 C 274.074 202.073,274.433 201.843,274.732 201.563 C 275.030 201.283,275.795 200.778,276.432 200.441 C 277.774 199.732,277.971 199.251,277.143 198.705 C 276.547 198.311,237.017 197.986,236.010 198.366 " stroke="none" fill="#ffffff" fill-rule="evenodd"></path></g></svg>