<svg id="svg" version="1.1" xmlns="http://www.w3.org/2000/svg" xmlns:xlink="http://www.w3.org/1999/xlink" width="400" height="258.91472868217056" viewBox="0, 0, 400,258.91472868217056"><g id="svgg"><path id="path0" d="M179.110 45.353 C 177.950 45.465,176.218 45.799,175.261 46.095 C 174.304 46.390,173.268 46.632,172.958 46.632 C 172.649 46.632,171.700 46.978,170.848 47.401 C 169.997 47.824,169.126 48.176,168.912 48.183 C 168.698 48.190,167.707 48.778,166.710 49.490 C 165.712 50.201,164.579 50.986,164.190 51.234 C 163.555 51.639,163.096 52.301,161.581 54.999 C 160.603 56.740,161.137 63.087,162.424 65.026 C 162.566 65.240,162.867 65.823,163.094 66.321 C 163.720 67.700,164.733 69.506,164.972 69.671 C 165.316 69.909,167.617 73.447,167.617 73.738 C 167.617 73.884,167.908 74.277,168.264 74.611 C 168.620 74.946,168.912 75.354,168.912 75.518 C 168.912 75.682,169.320 76.389,169.819 77.091 C 170.317 77.792,170.725 78.513,170.725 78.693 C 170.725 78.873,171.075 79.503,171.503 80.093 C 171.930 80.683,172.280 81.354,172.280 81.585 C 172.280 81.815,172.574 82.436,172.933 82.965 C 173.292 83.493,173.659 84.307,173.749 84.774 C 173.839 85.240,174.184 86.148,174.516 86.791 C 174.848 87.434,175.235 88.571,175.377 89.317 C 175.518 90.063,175.796 90.994,175.993 91.386 C 176.476 92.345,176.620 93.010,176.925 95.697 C 177.068 96.955,177.311 98.136,177.466 98.321 C 178.266 99.286,177.265 110.652,176.029 114.637 C 175.676 115.777,175.384 116.943,175.381 117.228 C 175.379 117.513,175.077 118.446,174.712 119.301 C 174.347 120.155,173.928 121.380,173.780 122.021 C 173.633 122.662,173.246 123.653,172.921 124.223 C 172.596 124.793,172.250 125.667,172.152 126.166 C 172.054 126.665,171.707 127.485,171.382 127.989 C 171.057 128.493,170.708 129.283,170.606 129.745 C 170.505 130.206,170.152 131.076,169.822 131.678 C 169.492 132.280,169.138 133.180,169.036 133.679 C 168.933 134.177,168.583 135.052,168.258 135.622 C 167.932 136.192,167.584 137.168,167.484 137.792 C 167.383 138.416,167.080 139.301,166.810 139.759 C 166.540 140.216,166.197 141.280,166.048 142.122 C 165.900 142.964,165.499 144.352,165.159 145.207 C 164.818 146.062,164.467 147.345,164.380 148.057 C 164.292 148.769,163.907 150.576,163.524 152.073 C 162.829 154.787,162.828 154.814,162.834 164.378 L 162.840 173.964 163.514 175.648 C 163.885 176.574,164.271 177.856,164.373 178.497 C 164.474 179.139,164.824 180.130,165.149 180.699 C 165.474 181.269,165.816 182.089,165.909 182.521 C 166.002 182.953,166.424 183.828,166.846 184.464 C 167.269 185.101,167.615 185.712,167.615 185.822 C 167.618 186.237,169.941 189.462,171.373 191.038 C 171.801 191.508,172.546 192.377,173.029 192.967 C 173.512 193.558,174.017 194.041,174.150 194.041 C 174.284 194.041,174.931 194.579,175.588 195.236 C 176.245 195.894,177.227 196.725,177.770 197.084 C 178.312 197.443,178.756 197.830,178.756 197.944 C 178.756 198.058,179.019 198.231,179.339 198.329 C 179.660 198.426,180.272 198.767,180.699 199.086 C 181.127 199.405,181.994 199.930,182.626 200.252 C 183.259 200.574,183.937 200.999,184.134 201.196 C 184.332 201.393,184.620 201.554,184.776 201.554 C 185.234 201.554,187.047 202.413,187.047 202.631 C 187.047 202.740,187.542 202.963,188.148 203.125 C 188.753 203.288,189.715 203.646,190.285 203.921 C 190.855 204.197,192.021 204.603,192.876 204.825 C 193.731 205.047,194.811 205.388,195.276 205.582 C 195.742 205.777,197.665 206.176,199.551 206.469 C 201.436 206.762,203.504 207.133,204.145 207.292 C 205.754 207.692,212.256 207.871,213.990 207.564 C 214.773 207.425,217.157 207.003,219.286 206.625 C 221.416 206.247,223.281 205.842,223.431 205.725 C 223.582 205.608,224.579 205.251,225.648 204.932 C 226.716 204.612,227.649 204.258,227.720 204.144 C 227.791 204.030,228.491 203.633,229.275 203.262 C 232.387 201.790,237.302 197.122,237.307 195.633 C 237.308 195.399,237.496 194.858,237.725 194.430 C 238.986 192.072,239.022 188.252,237.808 185.586 C 237.532 184.980,237.306 184.327,237.306 184.134 C 237.306 183.942,236.901 183.148,236.406 182.371 C 235.911 181.594,235.500 180.842,235.494 180.699 C 235.488 180.557,235.194 180.166,234.840 179.830 C 234.486 179.495,234.197 179.073,234.197 178.894 C 234.197 178.714,233.849 178.173,233.424 177.691 C 232.999 177.208,232.649 176.684,232.647 176.525 C 232.644 176.367,232.301 175.807,231.883 175.281 C 231.465 174.756,231.051 173.994,230.961 173.589 C 230.872 173.183,230.577 172.651,230.306 172.405 C 230.034 172.159,229.674 171.535,229.504 171.018 C 229.335 170.501,228.922 169.717,228.588 169.276 C 228.253 168.835,227.979 168.240,227.979 167.952 C 227.979 167.665,227.645 166.802,227.236 166.034 C 226.827 165.266,226.404 164.229,226.297 163.731 C 226.190 163.232,225.840 162.299,225.521 161.658 C 225.201 161.017,224.854 159.909,224.751 159.197 C 224.647 158.484,224.387 157.494,224.173 156.995 C 222.104 152.172,222.802 140.321,225.532 133.938 C 226.533 131.596,227.174 130.205,227.442 129.793 C 227.907 129.076,229.534 125.198,229.534 124.805 C 229.534 124.592,229.822 123.765,230.174 122.968 C 230.527 122.171,230.924 120.845,231.058 120.021 C 231.191 119.197,231.542 117.913,231.837 117.166 C 232.132 116.420,232.493 114.671,232.638 113.280 C 232.784 111.889,233.084 109.877,233.306 108.808 C 234.338 103.843,234.291 92.580,233.219 87.694 C 232.937 86.412,232.621 84.623,232.517 83.718 C 232.412 82.814,232.048 81.388,231.707 80.550 C 231.367 79.712,231.088 78.780,231.088 78.480 C 231.088 78.179,230.753 77.209,230.342 76.323 C 229.932 75.437,229.515 74.341,229.416 73.887 C 229.316 73.434,229.116 72.990,228.971 72.900 C 228.826 72.810,228.364 72.022,227.944 71.148 C 226.898 68.970,226.094 67.544,225.735 67.231 C 225.569 67.087,225.218 66.619,224.955 66.192 C 223.960 64.574,217.985 58.488,215.545 56.606 C 214.806 56.036,213.903 55.308,213.539 54.987 C 213.175 54.666,212.760 54.404,212.616 54.404 C 212.472 54.404,211.942 54.089,211.437 53.704 C 210.505 52.994,209.143 52.197,207.529 51.418 C 207.039 51.182,206.225 50.708,205.720 50.365 C 205.215 50.022,204.613 49.741,204.383 49.741 C 204.152 49.741,203.407 49.445,202.727 49.084 C 202.047 48.722,200.897 48.299,200.171 48.143 C 199.445 47.988,198.439 47.646,197.936 47.384 C 197.433 47.121,196.088 46.776,194.948 46.617 C 193.808 46.457,192.409 46.164,191.839 45.965 C 189.645 45.199,183.662 44.911,179.110 45.353 " stroke="none" fill="#643494" fill-rule="evenodd"></path><path id="path1" d="M0.000 129.534 L 0.000 259.067 200.000 259.067 L 400.000 259.067 400.000 129.534 L 400.000 0.000 200.000 0.000 L 0.000 0.000 0.000 129.534 M188.120 45.341 C 189.596 45.485,191.269 45.766,191.839 45.965 C 192.409 46.164,193.808 46.457,194.948 46.617 C 196.088 46.776,197.433 47.121,197.936 47.384 C 198.439 47.646,199.445 47.988,200.171 48.143 C 200.897 48.299,202.047 48.722,202.727 49.084 C 203.407 49.445,204.152 49.741,204.383 49.741 C 204.613 49.741,205.215 50.022,205.720 50.365 C 206.225 50.708,207.039 51.182,207.529 51.418 C 209.143 52.197,210.505 52.994,211.437 53.704 C 211.942 54.089,212.472 54.404,212.616 54.404 C 212.760 54.404,213.175 54.666,213.539 54.987 C 213.903 55.308,214.806 56.036,215.545 56.606 C 217.985 58.488,223.960 64.574,224.955 66.192 C 225.218 66.619,225.569 67.087,225.735 67.231 C 226.094 67.544,226.898 68.970,227.944 71.148 C 228.364 72.022,228.826 72.810,228.971 72.900 C 229.116 72.990,229.316 73.434,229.416 73.887 C 229.515 74.341,229.932 75.437,230.342 76.323 C 230.753 77.209,231.088 78.179,231.088 78.480 C 231.088 78.780,231.367 79.712,231.707 80.550 C 232.048 81.388,232.412 82.814,232.517 83.718 C 232.621 84.623,232.937 86.412,233.219 87.694 C 234.291 92.580,234.338 103.843,233.306 108.808 C 233.084 109.877,232.784 111.889,232.638 113.280 C 232.493 114.671,232.132 116.420,231.837 117.166 C 231.542 117.913,231.191 119.197,231.058 120.021 C 230.924 120.845,230.527 122.171,230.174 122.968 C 229.822 123.765,229.534 124.592,229.534 124.805 C 229.534 125.198,227.907 129.076,227.442 129.793 C 227.174 130.205,226.533 131.596,225.532 133.938 C 222.802 140.321,222.104 152.172,224.173 156.995 C 224.387 157.494,224.647 158.484,224.751 159.197 C 224.854 159.909,225.201 161.017,225.521 161.658 C 225.840 162.299,226.190 163.232,226.297 163.731 C 226.404 164.229,226.827 165.266,227.236 166.034 C 227.645 166.802,227.979 167.665,227.979 167.952 C 227.979 168.240,228.253 168.835,228.588 169.276 C 228.922 169.717,229.335 170.501,229.504 171.018 C 229.674 171.535,230.034 172.159,230.306 172.405 C 230.577 172.651,230.872 173.183,230.961 173.589 C 231.051 173.994,231.465 174.756,231.883 175.281 C 232.301 175.807,232.644 176.367,232.647 176.525 C 232.649 176.684,232.999 177.208,233.424 177.691 C 233.849 178.173,234.197 178.714,234.197 178.894 C 234.197 179.073,234.486 179.495,234.840 179.830 C 235.194 180.166,235.488 180.557,235.494 180.699 C 235.500 180.842,235.911 181.594,236.406 182.371 C 236.901 183.148,237.306 183.942,237.306 184.134 C 237.306 184.327,237.532 184.980,237.808 185.586 C 239.022 188.252,238.986 192.072,237.725 194.430 C 237.496 194.858,237.308 195.399,237.307 195.633 C 237.302 197.122,232.387 201.790,229.275 203.262 C 228.491 203.633,227.791 204.030,227.720 204.144 C 227.649 204.258,226.716 204.612,225.648 204.932 C 224.579 205.251,223.582 205.608,223.431 205.725 C 223.281 205.842,221.416 206.247,219.286 206.625 C 217.157 207.003,214.773 207.425,213.990 207.564 C 212.256 207.871,205.754 207.692,204.145 207.292 C 203.504 207.133,201.436 206.762,199.551 206.469 C 197.665 206.176,195.742 205.777,195.276 205.582 C 194.811 205.388,193.731 205.047,192.876 204.825 C 192.021 204.603,190.855 204.197,190.285 203.921 C 189.715 203.646,188.753 203.288,188.148 203.125 C 187.542 202.963,187.047 202.740,187.047 202.631 C 187.047 202.413,185.234 201.554,184.776 201.554 C 184.620 201.554,184.332 201.393,184.134 201.196 C 183.937 200.999,183.259 200.574,182.626 200.252 C 181.994 199.930,181.127 199.405,180.699 199.086 C 180.272 198.767,179.660 198.426,179.339 198.329 C 179.019 198.231,178.756 198.058,178.756 197.944 C 178.756 197.830,178.312 197.443,177.770 197.084 C 177.227 196.725,176.245 195.894,175.588 195.236 C 174.931 194.579,174.284 194.041,174.150 194.041 C 174.017 194.041,173.512 193.558,173.029 192.967 C 172.546 192.377,171.801 191.508,171.373 191.038 C 169.941 189.462,167.618 186.237,167.615 185.822 C 167.615 185.712,167.269 185.101,166.846 184.464 C 166.424 183.828,166.002 182.953,165.909 182.521 C 165.816 182.089,165.474 181.269,165.149 180.699 C 164.824 180.130,164.474 179.139,164.373 178.497 C 164.271 177.856,163.885 176.574,163.514 175.648 L 162.840 173.964 162.834 164.378 C 162.828 154.814,162.829 154.787,163.524 152.073 C 163.907 150.576,164.292 148.769,164.380 148.057 C 164.467 147.345,164.818 146.062,165.159 145.207 C 165.499 144.352,165.900 142.964,166.048 142.122 C 166.197 141.280,166.540 140.216,166.810 139.759 C 167.080 139.301,167.383 138.416,167.484 137.792 C 167.584 137.168,167.932 136.192,168.258 135.622 C 168.583 135.052,168.933 134.177,169.036 133.679 C 169.138 133.180,169.492 132.280,169.822 131.678 C 170.152 131.076,170.505 130.206,170.606 129.745 C 170.708 129.283,171.057 128.493,171.382 127.989 C 171.707 127.485,172.054 126.665,172.152 126.166 C 172.250 125.667,172.596 124.793,172.921 124.223 C 173.246 123.653,173.633 122.662,173.780 122.021 C 173.928 121.380,174.347 120.155,174.712 119.301 C 175.077 118.446,175.379 117.513,175.381 117.228 C 175.384 116.943,175.676 115.777,176.029 114.637 C 177.265 110.652,178.266 99.286,177.466 98.321 C 177.311 98.136,177.068 96.955,176.925 95.697 C 176.620 93.010,176.476 92.345,175.993 91.386 C 175.796 90.994,175.518 90.063,175.377 89.317 C 175.235 88.571,174.848 87.434,174.516 86.791 C 174.184 86.148,173.839 85.240,173.749 84.774 C 173.659 84.307,173.292 83.493,172.933 82.965 C 172.574 82.436,172.280 81.815,172.280 81.585 C 172.280 81.354,171.930 80.683,171.503 80.093 C 171.075 79.503,170.725 78.873,170.725 78.693 C 170.725 78.513,170.317 77.792,169.819 77.091 C 169.320 76.389,168.912 75.682,168.912 75.518 C 168.912 75.354,168.620 74.946,168.264 74.611 C 167.908 74.277,167.617 73.884,167.617 73.738 C 167.617 73.447,165.316 69.909,164.972 69.671 C 164.733 69.506,163.720 67.700,163.094 66.321 C 162.867 65.823,162.566 65.240,162.424 65.026 C 161.137 63.087,160.603 56.740,161.581 54.999 C 163.096 52.301,163.555 51.639,164.190 51.234 C 164.579 50.986,165.712 50.201,166.710 49.490 C 167.707 48.778,168.698 48.190,168.912 48.183 C 169.126 48.176,169.997 47.824,170.848 47.401 C 171.700 46.978,172.649 46.632,172.958 46.632 C 173.268 46.632,174.304 46.390,175.261 46.095 C 178.236 45.176,183.366 44.875,188.120 45.341 " stroke="none" fill="#fcfcfc" fill-rule="evenodd"></path></g></svg>