<svg id="svg" version="1.1" xmlns="http://www.w3.org/2000/svg" xmlns:xlink="http://www.w3.org/1999/xlink" width="400" height="258.91472868217056" viewBox="0, 0, 400,258.91472868217056"><g id="svgg"><path id="path0" d="M130.495 45.493 C 130.383 45.608,129.275 45.786,128.034 45.889 C 124.247 46.202,121.174 46.787,119.683 47.479 C 118.903 47.842,117.885 48.217,117.422 48.312 C 116.959 48.408,116.580 48.576,116.580 48.686 C 116.580 48.795,116.092 49.105,115.495 49.374 C 114.561 49.796,112.806 51.036,112.083 51.786 C 110.579 53.346,110.104 53.912,110.104 54.142 C 110.104 54.292,109.783 54.908,109.392 55.510 C 108.420 57.008,108.340 61.124,109.249 62.865 C 109.559 63.458,109.946 64.441,110.110 65.050 C 110.274 65.658,110.689 66.525,111.033 66.976 C 111.377 67.426,111.658 67.921,111.658 68.075 C 111.658 68.228,111.920 68.684,112.241 69.086 C 112.562 69.489,113.046 70.256,113.318 70.790 C 113.590 71.324,113.905 71.762,114.018 71.762 C 114.132 71.762,114.462 72.257,114.752 72.863 C 115.042 73.468,115.813 74.712,116.466 75.627 C 117.119 76.541,117.849 77.662,118.088 78.118 C 119.497 80.801,120.041 81.778,120.320 82.124 C 120.492 82.338,120.790 83.038,120.982 83.679 C 121.173 84.320,121.539 85.201,121.795 85.637 C 122.051 86.072,122.430 87.079,122.637 87.874 C 122.844 88.669,123.185 89.653,123.394 90.061 C 123.604 90.469,123.910 91.503,124.074 92.358 C 124.239 93.212,124.626 94.845,124.934 95.984 C 125.698 98.810,125.793 108.476,125.074 110.363 C 124.830 111.004,124.509 112.345,124.360 113.342 C 124.067 115.304,122.536 120.474,121.751 122.150 C 121.484 122.720,121.131 123.653,120.967 124.223 C 120.802 124.793,120.501 125.525,120.297 125.849 C 120.094 126.174,119.694 127.194,119.409 128.116 C 119.124 129.038,118.784 129.793,118.653 129.793 C 118.523 129.793,118.166 130.630,117.862 131.654 C 117.557 132.677,117.154 133.755,116.966 134.050 C 116.778 134.345,116.441 135.213,116.218 135.979 C 115.994 136.745,115.687 137.522,115.535 137.705 C 115.383 137.888,114.982 139.010,114.645 140.198 C 113.802 143.162,113.002 145.924,112.406 147.927 C 112.131 148.854,111.797 150.544,111.665 151.684 C 111.532 152.824,111.187 154.672,110.897 155.791 C 109.822 159.944,109.920 169.693,111.081 174.093 C 111.363 175.162,111.676 176.619,111.776 177.332 C 111.876 178.044,112.136 178.904,112.354 179.243 C 112.572 179.582,112.968 180.623,113.235 181.556 C 113.502 182.490,113.823 183.320,113.948 183.401 C 114.073 183.483,114.417 184.099,114.712 184.771 C 115.007 185.443,115.375 186.142,115.529 186.325 C 115.684 186.508,116.396 187.562,117.112 188.667 C 118.438 190.713,122.399 194.922,124.741 196.774 C 125.453 197.337,126.095 197.869,126.166 197.956 C 126.237 198.043,126.663 198.303,127.113 198.533 C 127.562 198.763,128.095 199.117,128.297 199.318 C 128.648 199.669,130.032 200.457,132.614 201.776 C 133.271 202.112,133.867 202.474,133.938 202.580 C 134.009 202.687,134.534 202.921,135.104 203.100 C 135.674 203.278,136.548 203.661,137.047 203.949 C 137.545 204.237,138.652 204.638,139.506 204.839 C 140.361 205.040,141.309 205.369,141.615 205.569 C 141.920 205.769,143.261 206.116,144.595 206.339 C 145.929 206.563,147.545 206.948,148.187 207.194 C 149.681 207.769,165.268 207.877,166.345 207.321 C 166.688 207.143,168.176 206.769,169.652 206.487 C 171.128 206.206,172.481 205.855,172.659 205.707 C 172.838 205.559,173.646 205.210,174.456 204.931 C 175.266 204.652,176.231 204.187,176.600 203.896 C 176.970 203.606,177.418 203.368,177.597 203.368 C 178.913 203.368,183.587 198.937,185.113 196.244 L 186.140 194.430 186.140 190.415 L 186.140 186.399 185.029 184.197 C 183.993 182.141,183.198 180.869,182.217 179.692 C 181.992 179.423,181.650 178.822,181.456 178.358 C 181.262 177.893,180.948 177.355,180.758 177.163 C 180.308 176.706,179.175 174.786,178.489 173.316 C 178.189 172.675,177.733 171.917,177.476 171.632 C 177.218 171.347,176.861 170.648,176.683 170.078 C 176.505 169.508,176.214 168.867,176.036 168.653 C 175.859 168.439,175.569 167.798,175.392 167.228 C 175.216 166.658,174.809 165.709,174.487 165.119 C 174.166 164.529,173.824 163.630,173.729 163.121 C 173.633 162.612,173.279 161.579,172.940 160.826 C 172.602 160.072,172.245 158.815,172.147 158.031 C 172.049 157.247,171.741 155.763,171.462 154.732 C 170.377 150.718,170.384 144.209,171.477 140.674 C 171.763 139.747,172.075 138.465,172.169 137.824 C 172.263 137.183,172.574 136.250,172.860 135.751 C 173.145 135.253,173.540 134.305,173.737 133.645 C 173.934 132.985,174.269 132.301,174.482 132.124 C 174.695 131.948,175.044 131.215,175.257 130.496 C 175.471 129.777,175.805 129.004,176.001 128.778 C 176.196 128.553,176.595 127.668,176.886 126.813 C 177.177 125.959,177.659 124.571,177.957 123.729 C 178.254 122.888,178.498 121.955,178.499 121.657 C 178.500 121.358,178.676 120.778,178.890 120.368 C 179.352 119.481,179.923 117.056,180.178 114.896 C 180.279 114.041,180.516 112.970,180.705 112.516 C 181.685 110.158,181.911 90.550,181.000 86.917 C 180.550 85.125,180.162 83.373,179.764 81.347 C 179.611 80.563,179.338 79.689,179.158 79.404 C 178.978 79.119,178.630 78.187,178.384 77.332 C 178.139 76.477,177.773 75.519,177.570 75.203 C 177.368 74.888,177.013 74.072,176.781 73.390 C 176.550 72.708,176.142 71.872,175.875 71.532 C 175.607 71.193,175.389 70.806,175.389 70.672 C 175.389 70.539,175.055 69.943,174.647 69.347 C 174.239 68.752,173.824 68.005,173.725 67.688 C 173.626 67.371,173.276 66.900,172.947 66.642 C 172.618 66.384,172.271 65.925,172.175 65.623 C 172.079 65.321,171.836 65.010,171.633 64.933 C 171.431 64.855,170.975 64.331,170.619 63.768 C 170.264 63.204,169.239 62.040,168.341 61.180 C 166.855 59.755,165.941 59.005,163.640 57.322 C 163.205 57.003,162.749 56.566,162.629 56.350 C 162.508 56.135,162.258 55.959,162.074 55.959 C 161.889 55.959,161.516 55.713,161.245 55.412 C 160.973 55.112,160.219 54.597,159.569 54.267 C 158.919 53.937,158.234 53.483,158.048 53.259 C 157.861 53.034,157.577 52.849,157.416 52.849 C 157.256 52.848,156.600 52.499,155.959 52.073 C 155.317 51.646,154.616 51.297,154.400 51.296 C 154.183 51.296,153.586 51.010,153.073 50.661 C 152.559 50.312,151.804 49.943,151.393 49.841 C 150.983 49.738,149.948 49.325,149.093 48.921 C 148.238 48.517,147.325 48.187,147.064 48.187 C 146.803 48.187,145.716 47.885,144.649 47.517 C 142.809 46.882,139.833 46.341,135.492 45.853 C 134.424 45.733,132.908 45.556,132.124 45.459 C 131.341 45.362,130.608 45.377,130.495 45.493 M232.628 45.433 C 232.549 45.514,231.384 45.698,230.038 45.842 C 225.533 46.324,222.939 46.830,221.503 47.508 C 220.719 47.879,219.889 48.183,219.659 48.184 C 219.429 48.185,218.941 48.423,218.573 48.712 C 218.206 49.000,217.506 49.404,217.018 49.608 C 215.642 50.182,212.968 52.605,212.314 53.869 C 212.115 54.255,211.778 54.715,211.567 54.891 C 210.440 55.826,210.498 62.703,211.645 64.161 C 211.936 64.532,212.302 65.315,212.458 65.902 C 212.615 66.489,212.923 67.171,213.143 67.418 C 213.363 67.664,213.789 68.321,214.090 68.876 C 214.652 69.913,216.787 73.198,217.649 74.352 C 217.915 74.709,218.383 75.466,218.690 76.035 C 218.996 76.605,219.387 77.188,219.557 77.331 C 219.728 77.474,220.022 77.999,220.210 78.497 C 220.398 78.996,220.694 79.579,220.868 79.793 C 221.371 80.411,223.575 85.085,223.575 85.534 C 223.575 85.758,223.799 86.225,224.072 86.572 C 224.345 86.919,224.644 87.664,224.736 88.226 C 224.828 88.789,225.182 89.948,225.523 90.803 C 227.265 95.177,228.066 104.258,227.111 108.808 C 226.856 110.019,226.541 111.897,226.410 112.980 C 226.279 114.063,225.895 115.578,225.557 116.348 C 225.219 117.117,224.863 118.280,224.767 118.933 C 224.671 119.586,224.371 120.534,224.100 121.039 C 223.829 121.545,223.434 122.624,223.221 123.439 C 223.008 124.253,222.660 125.112,222.447 125.348 C 222.234 125.584,221.914 126.360,221.737 127.073 C 221.559 127.785,221.212 128.659,220.965 129.016 C 220.717 129.372,220.311 130.304,220.062 131.088 C 219.813 131.872,219.466 132.746,219.290 133.031 C 219.114 133.316,218.765 134.190,218.513 134.974 C 218.261 135.758,217.907 136.632,217.725 136.917 C 217.544 137.202,217.202 138.193,216.965 139.119 C 216.728 140.045,216.430 140.928,216.304 141.082 C 216.177 141.235,215.827 142.401,215.526 143.672 C 215.225 144.944,214.864 146.123,214.725 146.291 C 214.586 146.460,214.301 147.684,214.092 149.011 C 213.883 150.339,213.546 151.949,213.344 152.591 C 212.290 155.933,211.922 169.459,212.773 173.575 C 213.289 176.068,214.412 180.008,214.718 180.398 C 214.848 180.564,215.165 181.381,215.422 182.214 C 215.679 183.047,216.036 183.875,216.216 184.054 C 216.395 184.234,216.731 184.833,216.962 185.386 C 217.193 185.939,217.596 186.627,217.858 186.914 C 218.119 187.200,218.517 187.799,218.741 188.243 C 219.809 190.358,227.117 197.630,229.139 198.590 C 229.615 198.816,230.208 199.225,230.457 199.500 C 230.706 199.775,231.026 200.000,231.169 200.000 C 231.311 200.000,231.804 200.287,232.264 200.638 C 232.723 200.988,233.609 201.473,234.231 201.714 C 234.853 201.955,235.546 202.309,235.770 202.500 C 235.994 202.691,236.734 203.014,237.414 203.219 C 238.094 203.424,238.845 203.767,239.083 203.983 C 239.321 204.198,240.095 204.505,240.803 204.663 C 241.511 204.822,242.617 205.185,243.260 205.471 C 243.904 205.756,245.767 206.223,247.401 206.507 C 249.034 206.792,250.539 207.163,250.744 207.333 C 251.381 207.862,267.454 207.762,268.782 207.220 C 269.352 206.988,270.693 206.655,271.762 206.480 C 272.830 206.305,274.054 205.953,274.482 205.697 C 274.909 205.441,275.784 205.083,276.425 204.903 C 277.066 204.722,277.770 204.424,277.989 204.240 C 278.208 204.056,278.965 203.652,279.673 203.341 C 280.380 203.030,281.017 202.700,281.088 202.606 C 281.159 202.513,281.626 202.153,282.124 201.807 C 283.786 200.653,287.047 196.935,287.047 196.193 C 287.047 196.074,287.304 195.512,287.619 194.944 C 288.572 193.225,288.632 188.097,287.721 186.172 C 287.350 185.388,287.047 184.581,287.047 184.379 C 287.047 184.176,286.754 183.579,286.397 183.052 C 286.039 182.525,285.517 181.645,285.238 181.097 C 284.958 180.548,284.638 180.060,284.528 180.011 C 284.333 179.925,283.050 178.040,281.909 176.166 C 281.605 175.667,281.048 174.589,280.670 173.769 C 280.293 172.950,279.895 172.280,279.787 172.280 C 279.679 172.280,279.394 171.791,279.155 171.194 C 278.916 170.596,278.519 169.809,278.272 169.445 C 278.025 169.081,277.619 168.112,277.370 167.293 C 277.120 166.473,276.824 165.803,276.712 165.803 C 276.599 165.803,276.291 165.074,276.027 164.184 C 275.763 163.293,275.345 162.157,275.097 161.658 C 274.849 161.159,274.569 160.168,274.475 159.456 C 274.380 158.744,273.995 157.228,273.619 156.088 C 272.564 152.886,272.571 141.967,273.630 139.378 C 274.009 138.452,274.402 137.237,274.503 136.678 C 274.603 136.120,275.019 135.030,275.426 134.256 C 275.833 133.482,276.166 132.684,276.166 132.483 C 276.166 132.281,276.504 131.506,276.917 130.760 C 277.330 130.014,277.752 129.113,277.854 128.756 C 277.957 128.400,278.198 127.929,278.390 127.709 C 278.582 127.489,278.931 126.562,279.165 125.649 C 279.399 124.735,279.756 123.736,279.957 123.429 C 280.159 123.121,280.500 122.008,280.716 120.955 C 280.931 119.903,281.270 118.692,281.468 118.264 C 281.666 117.837,282.012 116.167,282.237 114.553 C 282.461 112.939,282.755 111.413,282.890 111.162 C 283.790 109.480,283.944 90.225,283.076 87.893 C 282.852 87.289,282.537 85.837,282.377 84.666 C 282.216 83.494,281.909 82.064,281.694 81.488 C 281.479 80.912,281.079 79.624,280.804 78.627 C 280.530 77.630,280.138 76.514,279.932 76.147 C 279.727 75.781,279.366 74.906,279.131 74.204 C 278.895 73.502,278.551 72.753,278.367 72.539 C 278.182 72.325,277.839 71.686,277.604 71.118 C 277.369 70.550,276.963 69.850,276.701 69.563 C 276.440 69.276,276.149 68.789,276.056 68.481 C 275.888 67.927,275.090 66.778,273.663 65.035 C 272.675 63.828,267.947 59.131,266.743 58.161 C 266.213 57.733,265.516 57.150,265.194 56.865 C 264.136 55.929,260.594 53.542,259.456 52.998 C 259.028 52.794,258.277 52.327,257.786 51.961 C 257.296 51.595,256.701 51.295,256.465 51.295 C 256.229 51.295,255.524 50.948,254.896 50.523 C 254.269 50.098,253.514 49.748,253.217 49.746 C 252.921 49.743,252.109 49.452,251.412 49.100 C 250.716 48.747,249.547 48.335,248.816 48.183 C 248.084 48.031,246.856 47.667,246.087 47.373 C 244.806 46.885,242.171 46.425,237.435 45.862 C 236.438 45.743,234.981 45.565,234.197 45.466 C 233.413 45.366,232.707 45.352,232.628 45.433 " stroke="none" fill="#643494" fill-rule="evenodd"></path><path id="path1" d="M0.000 129.534 L 0.000 259.067 200.000 259.067 L 400.000 259.067 400.000 129.534 L 400.000 0.000 200.000 0.000 L 0.000 0.000 0.000 129.534 M135.492 45.853 C 139.833 46.341,142.809 46.882,144.649 47.517 C 145.716 47.885,146.803 48.187,147.064 48.187 C 147.325 48.187,148.238 48.517,149.093 48.921 C 149.948 49.325,150.983 49.738,151.393 49.841 C 151.804 49.943,152.559 50.312,153.073 50.661 C 153.586 51.010,154.183 51.296,154.400 51.296 C 154.616 51.297,155.317 51.646,155.959 52.073 C 156.600 52.499,157.256 52.848,157.416 52.849 C 157.577 52.849,157.861 53.034,158.048 53.259 C 158.234 53.483,158.919 53.937,159.569 54.267 C 160.219 54.597,160.973 55.112,161.245 55.412 C 161.516 55.713,161.889 55.959,162.074 55.959 C 162.258 55.959,162.508 56.135,162.629 56.350 C 162.749 56.566,163.205 57.003,163.640 57.322 C 165.941 59.005,166.855 59.755,168.341 61.180 C 169.239 62.040,170.264 63.204,170.619 63.768 C 170.975 64.331,171.431 64.855,171.633 64.933 C 171.836 65.010,172.079 65.321,172.175 65.623 C 172.271 65.925,172.618 66.384,172.947 66.642 C 173.276 66.900,173.626 67.371,173.725 67.688 C 173.824 68.005,174.239 68.752,174.647 69.347 C 175.055 69.943,175.389 70.539,175.389 70.672 C 175.389 70.806,175.607 71.193,175.875 71.532 C 176.142 71.872,176.550 72.708,176.781 73.390 C 177.013 74.072,177.368 74.888,177.570 75.203 C 177.773 75.519,178.139 76.477,178.384 77.332 C 178.630 78.187,178.978 79.119,179.158 79.404 C 179.338 79.689,179.611 80.563,179.764 81.347 C 180.162 83.373,180.550 85.125,181.000 86.917 C 181.911 90.550,181.685 110.158,180.705 112.516 C 180.516 112.970,180.279 114.041,180.178 114.896 C 179.923 117.056,179.352 119.481,178.890 120.368 C 178.676 120.778,178.500 121.358,178.499 121.657 C 178.498 121.955,178.254 122.888,177.957 123.729 C 177.659 124.571,177.177 125.959,176.886 126.813 C 176.595 127.668,176.196 128.553,176.001 128.778 C 175.805 129.004,175.471 129.777,175.257 130.496 C 175.044 131.215,174.695 131.948,174.482 132.124 C 174.269 132.301,173.934 132.985,173.737 133.645 C 173.540 134.305,173.145 135.253,172.860 135.751 C 172.574 136.250,172.263 137.183,172.169 137.824 C 172.075 138.465,171.763 139.747,171.477 140.674 C 170.384 144.209,170.377 150.718,171.462 154.732 C 171.741 155.763,172.049 157.247,172.147 158.031 C 172.245 158.815,172.602 160.072,172.940 160.826 C 173.279 161.579,173.633 162.612,173.729 163.121 C 173.824 163.630,174.166 164.529,174.487 165.119 C 174.809 165.709,175.216 166.658,175.392 167.228 C 175.569 167.798,175.859 168.439,176.036 168.653 C 176.214 168.867,176.505 169.508,176.683 170.078 C 176.861 170.648,177.218 171.347,177.476 171.632 C 177.733 171.917,178.189 172.675,178.489 173.316 C 179.175 174.786,180.308 176.706,180.758 177.163 C 180.948 177.355,181.262 177.893,181.456 178.358 C 181.650 178.822,181.992 179.423,182.217 179.692 C 183.198 180.869,183.993 182.141,185.029 184.197 L 186.140 186.399 186.140 190.415 L 186.140 194.430 185.113 196.244 C 183.587 198.937,178.913 203.368,177.597 203.368 C 177.418 203.368,176.970 203.606,176.600 203.896 C 176.231 204.187,175.266 204.652,174.456 204.931 C 173.646 205.210,172.838 205.559,172.659 205.707 C 172.481 205.855,171.128 206.206,169.652 206.487 C 168.176 206.769,166.688 207.143,166.345 207.321 C 165.268 207.877,149.681 207.769,148.187 207.194 C 147.545 206.948,145.929 206.563,144.595 206.339 C 143.261 206.116,141.920 205.769,141.615 205.569 C 141.309 205.369,140.361 205.040,139.506 204.839 C 138.652 204.638,137.545 204.237,137.047 203.949 C 136.548 203.661,135.674 203.278,135.104 203.100 C 134.534 202.921,134.009 202.687,133.938 202.580 C 133.867 202.474,133.271 202.112,132.614 201.776 C 130.032 200.457,128.648 199.669,128.297 199.318 C 128.095 199.117,127.562 198.763,127.113 198.533 C 126.663 198.303,126.237 198.043,126.166 197.956 C 126.095 197.869,125.453 197.337,124.741 196.774 C 122.399 194.922,118.438 190.713,117.112 188.667 C 116.396 187.562,115.684 186.508,115.529 186.325 C 115.375 186.142,115.007 185.443,114.712 184.771 C 114.417 184.099,114.073 183.483,113.948 183.401 C 113.823 183.320,113.502 182.490,113.235 181.556 C 112.968 180.623,112.572 179.582,112.354 179.243 C 112.136 178.904,111.876 178.044,111.776 177.332 C 111.676 176.619,111.363 175.162,111.081 174.093 C 109.920 169.693,109.822 159.944,110.897 155.791 C 111.187 154.672,111.532 152.824,111.665 151.684 C 111.797 150.544,112.131 148.854,112.406 147.927 C 113.002 145.924,113.802 143.162,114.645 140.198 C 114.982 139.010,115.383 137.888,115.535 137.705 C 115.687 137.522,115.994 136.745,116.218 135.979 C 116.441 135.213,116.778 134.345,116.966 134.050 C 117.154 133.755,117.557 132.677,117.862 131.654 C 118.166 130.630,118.523 129.793,118.653 129.793 C 118.784 129.793,119.124 129.038,119.409 128.116 C 119.694 127.194,120.094 126.174,120.297 125.849 C 120.501 125.525,120.802 124.793,120.967 124.223 C 121.131 123.653,121.484 122.720,121.751 122.150 C 122.536 120.474,124.067 115.304,124.360 113.342 C 124.509 112.345,124.830 111.004,125.074 110.363 C 125.793 108.476,125.698 98.810,124.934 95.984 C 124.626 94.845,124.239 93.212,124.074 92.358 C 123.910 91.503,123.604 90.469,123.394 90.061 C 123.185 89.653,122.844 88.669,122.637 87.874 C 122.430 87.079,122.051 86.072,121.795 85.637 C 121.539 85.201,121.173 84.320,120.982 83.679 C 120.790 83.038,120.492 82.338,120.320 82.124 C 120.041 81.778,119.497 80.801,118.088 78.118 C 117.849 77.662,117.119 76.541,116.466 75.627 C 115.813 74.712,115.042 73.468,114.752 72.863 C 114.462 72.257,114.132 71.762,114.018 71.762 C 113.905 71.762,113.590 71.324,113.318 70.790 C 113.046 70.256,112.562 69.489,112.241 69.086 C 111.920 68.684,111.658 68.228,111.658 68.075 C 111.658 67.921,111.377 67.426,111.033 66.976 C 110.689 66.525,110.274 65.658,110.110 65.050 C 109.946 64.441,109.559 63.458,109.249 62.865 C 108.340 61.124,108.420 57.008,109.392 55.510 C 109.783 54.908,110.104 54.292,110.104 54.142 C 110.104 53.912,110.579 53.346,112.083 51.786 C 112.806 51.036,114.561 49.796,115.495 49.374 C 116.092 49.105,116.580 48.795,116.580 48.686 C 116.580 48.576,116.959 48.408,117.422 48.312 C 117.885 48.217,118.903 47.842,119.683 47.479 C 121.174 46.787,124.247 46.202,128.034 45.889 C 129.275 45.786,130.383 45.608,130.495 45.493 C 130.608 45.377,131.341 45.362,132.124 45.459 C 132.908 45.556,134.424 45.733,135.492 45.853 M237.435 45.862 C 242.171 46.425,244.806 46.885,246.087 47.373 C 246.856 47.667,248.084 48.031,248.816 48.183 C 249.547 48.335,250.716 48.747,251.412 49.100 C 252.109 49.452,252.921 49.743,253.217 49.746 C 253.514 49.748,254.269 50.098,254.896 50.523 C 255.524 50.948,256.229 51.295,256.465 51.295 C 256.701 51.295,257.296 51.595,257.786 51.961 C 258.277 52.327,259.028 52.794,259.456 52.998 C 260.594 53.542,264.136 55.929,265.194 56.865 C 265.516 57.150,266.213 57.733,266.743 58.161 C 267.947 59.131,272.675 63.828,273.663 65.035 C 275.090 66.778,275.888 67.927,276.056 68.481 C 276.149 68.789,276.440 69.276,276.701 69.563 C 276.963 69.850,277.369 70.550,277.604 71.118 C 277.839 71.686,278.182 72.325,278.367 72.539 C 278.551 72.753,278.895 73.502,279.131 74.204 C 279.366 74.906,279.727 75.781,279.932 76.147 C 280.138 76.514,280.530 77.630,280.804 78.627 C 281.079 79.624,281.479 80.912,281.694 81.488 C 281.909 82.064,282.216 83.494,282.377 84.666 C 282.537 85.837,282.852 87.289,283.076 87.893 C 283.944 90.225,283.790 109.480,282.890 111.162 C 282.755 111.413,282.461 112.939,282.237 114.553 C 282.012 116.167,281.666 117.837,281.468 118.264 C 281.270 118.692,280.931 119.903,280.716 120.955 C 280.500 122.008,280.159 123.121,279.957 123.429 C 279.756 123.736,279.399 124.735,279.165 125.649 C 278.931 126.562,278.582 127.489,278.390 127.709 C 278.198 127.929,277.957 128.400,277.854 128.756 C 277.752 129.113,277.330 130.014,276.917 130.760 C 276.504 131.506,276.166 132.281,276.166 132.483 C 276.166 132.684,275.833 133.482,275.426 134.256 C 275.019 135.030,274.603 136.120,274.503 136.678 C 274.402 137.237,274.009 138.452,273.630 139.378 C 272.571 141.967,272.564 152.886,273.619 156.088 C 273.995 157.228,274.380 158.744,274.475 159.456 C 274.569 160.168,274.849 161.159,275.097 161.658 C 275.345 162.157,275.763 163.293,276.027 164.184 C 276.291 165.074,276.599 165.803,276.712 165.803 C 276.824 165.803,277.120 166.473,277.370 167.293 C 277.619 168.112,278.025 169.081,278.272 169.445 C 278.519 169.809,278.916 170.596,279.155 171.194 C 279.394 171.791,279.679 172.280,279.787 172.280 C 279.895 172.280,280.293 172.950,280.670 173.769 C 281.048 174.589,281.605 175.667,281.909 176.166 C 283.050 178.040,284.333 179.925,284.528 180.011 C 284.638 180.060,284.958 180.548,285.238 181.097 C 285.517 181.645,286.039 182.525,286.397 183.052 C 286.754 183.579,287.047 184.176,287.047 184.379 C 287.047 184.581,287.350 185.388,287.721 186.172 C 288.632 188.097,288.572 193.225,287.619 194.944 C 287.304 195.512,287.047 196.074,287.047 196.193 C 287.047 196.935,283.786 200.653,282.124 201.807 C 281.626 202.153,281.159 202.513,281.088 202.606 C 281.017 202.700,280.380 203.030,279.673 203.341 C 278.965 203.652,278.208 204.056,277.989 204.240 C 277.770 204.424,277.066 204.722,276.425 204.903 C 275.784 205.083,274.909 205.441,274.482 205.697 C 274.054 205.953,272.830 206.305,271.762 206.480 C 270.693 206.655,269.352 206.988,268.782 207.220 C 267.454 207.762,251.381 207.862,250.744 207.333 C 250.539 207.163,249.034 206.792,247.401 206.507 C 245.767 206.223,243.904 205.756,243.260 205.471 C 242.617 205.185,241.511 204.822,240.803 204.663 C 240.095 204.505,239.321 204.198,239.083 203.983 C 238.845 203.767,238.094 203.424,237.414 203.219 C 236.734 203.014,235.994 202.691,235.770 202.500 C 235.546 202.309,234.853 201.955,234.231 201.714 C 233.609 201.473,232.723 200.988,232.264 200.638 C 231.804 200.287,231.311 200.000,231.169 200.000 C 231.026 200.000,230.706 199.775,230.457 199.500 C 230.208 199.225,229.615 198.816,229.139 198.590 C 227.117 197.630,219.809 190.358,218.741 188.243 C 218.517 187.799,218.119 187.200,217.858 186.914 C 217.596 186.627,217.193 185.939,216.962 185.386 C 216.731 184.833,216.395 184.234,216.216 184.054 C 216.036 183.875,215.679 183.047,215.422 182.214 C 215.165 181.381,214.848 180.564,214.718 180.398 C 214.412 180.008,213.289 176.068,212.773 173.575 C 211.922 169.459,212.290 155.933,213.344 152.591 C 213.546 151.949,213.883 150.339,214.092 149.011 C 214.301 147.684,214.586 146.460,214.725 146.291 C 214.864 146.123,215.225 144.944,215.526 143.672 C 215.827 142.401,216.177 141.235,216.304 141.082 C 216.430 140.928,216.728 140.045,216.965 139.119 C 217.202 138.193,217.544 137.202,217.725 136.917 C 217.907 136.632,218.261 135.758,218.513 134.974 C 218.765 134.190,219.114 133.316,219.290 133.031 C 219.466 132.746,219.813 131.872,220.062 131.088 C 220.311 130.304,220.717 129.372,220.965 129.016 C 221.212 128.659,221.559 127.785,221.737 127.073 C 221.914 126.360,222.234 125.584,222.447 125.348 C 222.660 125.112,223.008 124.253,223.221 123.439 C 223.434 122.624,223.829 121.545,224.100 121.039 C 224.371 120.534,224.671 119.586,224.767 118.933 C 224.863 118.280,225.219 117.117,225.557 116.348 C 225.895 115.578,226.279 114.063,226.410 112.980 C 226.541 111.897,226.856 110.019,227.111 108.808 C 228.066 104.258,227.265 95.177,225.523 90.803 C 225.182 89.948,224.828 88.789,224.736 88.226 C 224.644 87.664,224.345 86.919,224.072 86.572 C 223.799 86.225,223.575 85.758,223.575 85.534 C 223.575 85.085,221.371 80.411,220.868 79.793 C 220.694 79.579,220.398 78.996,220.210 78.497 C 220.022 77.999,219.728 77.474,219.557 77.331 C 219.387 77.188,218.996 76.605,218.690 76.035 C 218.383 75.466,217.915 74.709,217.649 74.352 C 216.787 73.198,214.652 69.913,214.090 68.876 C 213.789 68.321,213.363 67.664,213.143 67.418 C 212.923 67.171,212.615 66.489,212.458 65.902 C 212.302 65.315,211.936 64.532,211.645 64.161 C 210.498 62.703,210.440 55.826,211.567 54.891 C 211.778 54.715,212.115 54.255,212.314 53.869 C 212.968 52.605,215.642 50.182,217.018 49.608 C 217.506 49.404,218.206 49.000,218.573 48.712 C 218.941 48.423,219.429 48.185,219.659 48.184 C 219.889 48.183,220.719 47.879,221.503 47.508 C 222.939 46.830,225.533 46.324,230.038 45.842 C 231.384 45.698,232.549 45.514,232.628 45.433 C 232.707 45.352,233.413 45.366,234.197 45.466 C 234.981 45.565,236.438 45.743,237.435 45.862 " stroke="none" fill="#fcfcfc" fill-rule="evenodd"></path></g></svg>