<svg id="svg" version="1.1" xmlns="http://www.w3.org/2000/svg" xmlns:xlink="http://www.w3.org/1999/xlink" width="400" height="258.91472868217056" viewBox="0, 0, 400,258.91472868217056"><g id="svgg"><path id="path0" d="M79.275 47.799 C 78.776 47.979,76.998 48.208,75.323 48.309 C 72.847 48.457,72.048 48.609,71.048 49.119 C 70.372 49.464,69.352 49.821,68.782 49.912 C 68.200 50.005,67.373 50.401,66.895 50.816 C 66.427 51.222,65.884 51.554,65.689 51.554 C 65.381 51.554,63.489 52.927,62.866 53.604 C 62.746 53.734,62.344 54.171,61.972 54.574 C 59.556 57.197,58.656 61.671,60.075 64.005 C 60.370 64.490,60.749 65.501,60.917 66.252 C 61.085 67.002,61.318 67.617,61.436 67.617 C 61.553 67.617,61.950 68.170,62.318 68.847 C 63.626 71.252,64.445 72.599,64.699 72.762 C 64.840 72.853,65.203 73.415,65.506 74.011 C 65.808 74.607,66.175 75.169,66.321 75.259 C 66.468 75.350,66.759 75.833,66.968 76.332 C 67.176 76.831,67.566 77.435,67.835 77.674 C 68.103 77.913,68.475 78.517,68.662 79.016 C 68.849 79.514,69.215 80.131,69.475 80.386 C 69.735 80.641,69.948 81.000,69.948 81.183 C 69.948 81.367,70.287 82.033,70.700 82.663 C 71.114 83.293,71.606 84.333,71.793 84.974 C 71.981 85.615,72.331 86.354,72.571 86.616 C 72.811 86.877,73.088 87.519,73.185 88.041 C 73.283 88.563,73.633 89.573,73.963 90.285 C 74.293 90.997,74.704 92.440,74.875 93.491 C 75.047 94.542,75.431 95.941,75.730 96.600 C 76.578 98.474,76.568 110.691,75.716 113.245 C 75.401 114.189,74.969 115.961,74.756 117.181 C 74.544 118.402,74.137 119.834,73.852 120.365 C 73.568 120.896,73.258 121.865,73.165 122.518 C 73.072 123.170,72.786 123.938,72.530 124.223 C 72.274 124.508,71.888 125.422,71.672 126.255 C 71.456 127.087,71.107 127.962,70.896 128.198 C 70.684 128.434,70.330 129.325,70.109 130.179 C 69.887 131.032,69.530 131.859,69.315 132.016 C 69.101 132.173,68.761 133.006,68.560 133.867 C 68.359 134.728,67.949 135.766,67.649 136.175 C 67.349 136.583,67.000 137.475,66.873 138.157 C 66.747 138.839,66.475 139.597,66.268 139.841 C 65.838 140.349,65.285 142.133,65.285 143.010 C 65.285 143.336,65.004 144.197,64.660 144.924 C 64.316 145.651,63.906 147.170,63.749 148.301 C 63.592 149.432,63.291 150.547,63.082 150.779 C 62.850 151.035,62.596 152.203,62.435 153.763 C 62.057 157.400,61.684 159.575,61.329 160.206 C 60.822 161.108,60.926 172.483,61.449 173.316 C 61.960 174.131,62.095 174.720,62.419 177.570 C 62.575 178.952,62.838 180.041,63.079 180.307 C 63.299 180.550,63.657 181.433,63.875 182.271 C 64.093 183.108,64.432 183.971,64.627 184.189 C 64.823 184.407,65.184 185.110,65.430 185.751 C 65.676 186.392,66.023 187.038,66.202 187.185 C 66.381 187.333,66.715 187.857,66.944 188.351 C 67.766 190.119,69.266 191.990,72.150 194.847 C 75.468 198.133,75.526 198.186,75.787 198.189 C 75.924 198.190,76.548 198.598,77.174 199.096 C 77.799 199.593,78.412 200.000,78.536 200.000 C 78.659 200.000,79.005 200.282,79.305 200.627 C 79.605 200.971,80.158 201.330,80.534 201.424 C 80.910 201.518,81.581 201.871,82.024 202.208 C 82.468 202.546,83.167 202.902,83.579 202.999 C 83.990 203.097,84.677 203.438,85.106 203.756 C 85.535 204.075,86.288 204.424,86.780 204.532 C 87.272 204.640,88.087 204.997,88.591 205.325 C 89.095 205.653,90.091 206.003,90.803 206.104 C 91.516 206.204,92.565 206.550,93.135 206.872 C 93.783 207.240,94.850 207.525,95.984 207.635 C 96.982 207.732,98.789 208.064,100.000 208.374 C 103.085 209.162,112.908 209.212,115.544 208.453 C 116.470 208.186,118.219 207.836,119.430 207.675 C 120.873 207.483,121.900 207.194,122.409 206.837 C 122.837 206.537,123.681 206.228,124.285 206.150 C 124.928 206.067,125.716 205.729,126.183 205.336 C 126.623 204.966,127.172 204.663,127.403 204.663 C 127.981 204.663,131.284 202.416,131.615 201.797 C 131.763 201.521,132.029 201.295,132.207 201.295 C 132.385 201.295,132.737 200.946,132.990 200.518 C 133.242 200.091,133.566 199.741,133.708 199.741 C 133.850 199.741,134.212 199.187,134.511 198.510 C 134.810 197.834,135.299 196.950,135.597 196.546 C 136.676 195.087,136.504 188.216,135.353 186.788 C 135.181 186.574,134.894 185.933,134.716 185.363 C 134.538 184.793,134.165 184.077,133.887 183.771 C 133.609 183.466,133.186 182.872,132.947 182.452 C 132.118 180.993,131.473 179.997,130.764 179.085 C 130.372 178.580,130.052 178.034,130.052 177.872 C 130.052 177.709,129.702 177.194,129.275 176.726 C 128.847 176.258,128.494 175.620,128.490 175.308 C 128.486 174.996,128.136 174.283,127.713 173.723 C 127.290 173.164,126.940 172.464,126.936 172.169 C 126.932 171.874,126.582 171.174,126.159 170.614 C 125.735 170.055,125.389 169.365,125.389 169.081 C 125.389 168.797,125.056 167.973,124.648 167.249 C 124.241 166.525,123.827 165.381,123.727 164.708 C 123.627 164.034,123.272 162.985,122.937 162.376 C 122.589 161.743,122.250 160.554,122.143 159.598 C 122.041 158.678,121.710 157.454,121.406 156.878 C 120.337 154.844,120.516 142.706,121.640 141.103 C 121.841 140.815,122.083 139.894,122.178 139.057 C 122.286 138.101,122.583 137.190,122.975 136.612 C 123.319 136.106,123.668 135.326,123.751 134.879 C 123.834 134.433,124.173 133.776,124.503 133.419 C 124.833 133.063,125.185 132.259,125.285 131.631 C 125.385 131.004,125.659 130.300,125.892 130.066 C 126.384 129.575,126.836 128.474,127.045 127.264 C 127.125 126.800,127.424 126.101,127.710 125.710 C 128.018 125.288,128.335 124.242,128.490 123.135 C 128.633 122.110,128.993 120.806,129.288 120.239 C 129.644 119.556,129.916 118.305,130.094 116.535 C 130.241 115.064,130.484 113.631,130.635 113.351 C 131.364 111.988,131.596 108.789,131.601 100.040 C 131.606 91.038,131.542 90.268,130.559 87.565 C 130.430 87.209,130.205 85.936,130.060 84.737 C 129.915 83.538,129.605 82.265,129.370 81.907 C 129.136 81.549,128.728 80.393,128.465 79.339 C 128.201 78.284,127.751 77.123,127.464 76.759 C 127.178 76.394,126.943 75.896,126.943 75.652 C 126.943 75.407,126.595 74.694,126.171 74.067 C 125.746 73.440,125.396 72.746,125.393 72.524 C 125.391 72.303,125.089 71.720,124.723 71.229 C 124.357 70.738,123.896 69.958,123.700 69.495 C 123.503 69.032,123.245 68.653,123.126 68.653 C 123.007 68.653,122.687 68.274,122.414 67.811 C 121.868 66.881,121.584 66.545,119.002 63.763 C 118.026 62.712,116.645 61.414,115.933 60.879 C 115.220 60.344,114.122 59.426,113.493 58.839 C 112.864 58.252,112.215 57.772,112.050 57.772 C 111.886 57.772,111.360 57.422,110.881 56.995 C 110.402 56.567,109.850 56.218,109.654 56.218 C 109.458 56.218,108.983 55.880,108.599 55.468 C 108.216 55.056,107.520 54.638,107.053 54.540 C 106.587 54.441,105.887 54.094,105.499 53.768 C 105.111 53.442,104.411 53.093,103.945 52.991 C 103.478 52.889,102.779 52.542,102.390 52.220 C 102.002 51.897,101.230 51.562,100.675 51.475 C 100.121 51.387,99.408 51.073,99.092 50.776 C 98.717 50.424,97.895 50.139,96.733 49.959 C 95.751 49.807,94.482 49.443,93.912 49.151 C 93.110 48.739,91.923 48.542,88.662 48.280 C 86.344 48.094,84.224 47.822,83.951 47.675 C 83.281 47.317,80.398 47.393,79.275 47.799 M182.696 47.681 C 182.369 47.812,180.411 48.078,178.346 48.271 C 175.245 48.561,174.458 48.721,173.829 49.186 C 173.409 49.496,172.540 49.822,171.896 49.910 C 171.212 50.004,170.459 50.317,170.086 50.663 C 169.734 50.989,169.181 51.336,168.855 51.434 C 168.530 51.532,167.973 51.872,167.617 52.190 C 167.260 52.507,166.554 53.015,166.046 53.318 C 165.538 53.621,164.961 54.193,164.763 54.590 C 164.565 54.986,164.137 55.607,163.811 55.969 C 162.312 57.637,162.389 64.734,163.927 66.690 C 164.230 67.075,164.615 67.804,164.782 68.310 C 164.949 68.817,165.255 69.421,165.461 69.654 C 166.069 70.340,167.030 71.802,167.741 73.122 C 168.105 73.799,168.499 74.352,168.618 74.352 C 168.736 74.352,169.044 74.819,169.301 75.390 C 169.559 75.961,169.936 76.566,170.140 76.736 C 170.344 76.905,170.688 77.487,170.905 78.029 C 171.122 78.572,171.410 79.016,171.545 79.016 C 171.680 79.016,172.079 79.645,172.431 80.415 C 172.783 81.184,173.229 81.944,173.421 82.104 C 173.613 82.263,173.918 82.945,174.100 83.619 C 174.281 84.293,174.636 85.078,174.888 85.363 C 175.140 85.648,175.427 86.347,175.525 86.917 C 175.623 87.487,175.974 88.361,176.304 88.860 C 176.635 89.359,176.984 90.350,177.081 91.062 C 177.178 91.775,177.527 92.999,177.856 93.782 C 179.415 97.493,179.406 112.702,177.844 116.192 C 177.524 116.904,177.182 118.187,177.082 119.041 C 176.983 119.896,176.633 121.062,176.305 121.632 C 175.977 122.202,175.627 123.160,175.527 123.762 C 175.427 124.363,175.124 125.137,174.853 125.482 C 174.581 125.827,174.200 126.792,174.005 127.627 C 173.809 128.462,173.341 129.599,172.965 130.153 C 172.588 130.707,172.280 131.478,172.280 131.866 C 172.280 132.255,172.049 132.867,171.766 133.226 C 171.483 133.585,171.077 134.551,170.863 135.374 C 170.649 136.196,170.314 137.054,170.118 137.281 C 169.658 137.816,169.172 139.271,169.167 140.129 C 169.165 140.500,168.995 141.095,168.790 141.451 C 168.094 142.656,167.834 143.389,167.603 144.790 C 167.477 145.557,167.195 146.383,166.976 146.624 C 166.752 146.872,166.411 148.192,166.190 149.668 C 165.976 151.102,165.638 152.666,165.439 153.145 C 163.872 156.916,163.942 175.287,165.534 178.454 C 165.797 178.977,166.090 179.987,166.186 180.699 C 166.281 181.412,166.627 182.403,166.954 182.902 C 167.281 183.400,167.696 184.362,167.875 185.039 C 168.055 185.716,168.305 186.269,168.431 186.269 C 168.557 186.269,168.920 186.823,169.239 187.500 C 169.558 188.177,170.023 188.883,170.272 189.069 C 170.521 189.255,170.725 189.550,170.725 189.724 C 170.725 190.040,171.546 191.096,173.381 193.145 C 173.915 193.741,174.352 194.362,174.352 194.524 C 174.352 194.686,174.468 194.819,174.610 194.819 C 174.751 194.819,175.793 195.635,176.925 196.632 C 178.057 197.630,179.104 198.446,179.252 198.446 C 179.401 198.446,179.705 198.726,179.930 199.069 C 180.154 199.411,180.620 199.762,180.965 199.849 C 181.309 199.935,181.710 200.229,181.856 200.500 C 182.001 200.772,182.558 201.135,183.094 201.306 C 183.629 201.477,184.359 201.882,184.715 202.206 C 185.071 202.530,185.744 202.876,186.211 202.974 C 186.677 203.072,187.377 203.417,187.765 203.741 C 188.154 204.065,188.923 204.413,189.476 204.514 C 190.028 204.616,190.902 204.974,191.419 205.310 C 191.935 205.647,192.940 206.004,193.653 206.105 C 194.365 206.206,195.473 206.557,196.114 206.884 C 196.930 207.300,198.069 207.555,199.907 207.734 C 201.539 207.892,202.864 208.169,203.405 208.463 C 204.443 209.030,217.463 209.198,218.160 208.654 C 218.661 208.263,220.528 207.830,222.539 207.638 C 223.565 207.541,224.648 207.242,225.312 206.873 C 225.911 206.540,226.870 206.188,227.442 206.091 C 228.014 205.995,228.748 205.709,229.073 205.456 C 229.397 205.203,230.218 204.753,230.897 204.454 C 231.575 204.156,232.200 203.732,232.285 203.511 C 232.369 203.290,232.593 203.109,232.781 203.109 C 233.077 203.109,234.571 201.899,235.363 201.017 C 235.505 200.858,235.942 200.422,236.334 200.048 C 236.726 199.673,237.047 199.235,237.047 199.073 C 237.047 198.912,237.316 198.490,237.645 198.134 C 238.049 197.699,238.359 196.863,238.596 195.571 C 238.790 194.516,239.105 193.199,239.295 192.645 C 239.528 191.963,239.556 191.535,239.381 191.324 C 239.238 191.152,238.943 189.974,238.724 188.705 C 238.501 187.408,238.112 186.102,237.835 185.721 C 237.564 185.349,237.158 184.649,236.933 184.167 C 236.482 183.199,235.624 181.909,234.604 180.664 C 234.238 180.217,233.938 179.737,233.938 179.599 C 233.938 179.460,233.596 178.916,233.178 178.390 C 232.760 177.864,232.345 177.099,232.255 176.688 C 232.165 176.278,231.914 175.795,231.697 175.615 C 231.480 175.435,231.055 174.762,230.753 174.119 C 230.451 173.476,230.012 172.758,229.778 172.524 C 229.545 172.291,229.273 171.598,229.175 170.986 C 229.077 170.373,228.726 169.550,228.396 169.157 C 228.065 168.764,227.721 167.982,227.631 167.421 C 227.541 166.859,227.230 166.098,226.940 165.729 C 226.651 165.361,226.291 164.381,226.140 163.553 C 225.990 162.724,225.634 161.645,225.348 161.155 C 225.002 160.559,224.748 159.438,224.587 157.787 C 224.455 156.425,224.144 154.728,223.896 154.016 C 223.263 152.195,223.256 146.026,223.885 144.171 C 224.126 143.459,224.434 141.920,224.569 140.751 C 224.737 139.290,224.977 138.418,225.338 137.958 C 225.627 137.591,225.944 136.798,226.042 136.197 C 226.140 135.596,226.558 134.588,226.970 133.958 C 227.383 133.328,227.722 132.629,227.725 132.404 C 227.728 132.179,228.077 131.482,228.502 130.855 C 228.927 130.228,229.275 129.399,229.275 129.013 C 229.275 128.627,229.564 127.884,229.917 127.364 C 230.281 126.827,230.669 125.738,230.812 124.852 C 230.951 123.991,231.307 122.894,231.604 122.413 C 231.954 121.846,232.233 120.754,232.398 119.296 C 232.539 118.062,232.816 116.737,233.015 116.352 C 233.584 115.253,233.894 112.916,234.087 108.290 C 234.185 105.939,234.423 103.491,234.617 102.850 C 235.074 101.335,235.069 98.871,234.607 97.262 C 234.405 96.559,234.162 94.177,234.067 91.969 C 233.908 88.247,233.583 86.247,232.943 85.051 C 232.801 84.787,232.566 83.708,232.420 82.654 C 232.262 81.518,231.949 80.460,231.650 80.055 C 231.372 79.680,231.007 78.706,230.837 77.890 C 230.668 77.075,230.317 76.207,230.057 75.963 C 229.797 75.718,229.452 75.023,229.290 74.418 C 229.128 73.813,228.783 73.114,228.522 72.864 C 228.261 72.614,227.907 71.971,227.734 71.436 C 227.561 70.900,227.204 70.347,226.940 70.206 C 226.676 70.064,226.378 69.686,226.278 69.366 C 226.178 69.045,225.764 68.401,225.357 67.936 C 224.951 67.470,224.546 66.800,224.458 66.446 C 224.369 66.092,224.186 65.803,224.051 65.803 C 223.916 65.803,222.714 64.696,221.380 63.342 C 220.046 61.988,218.879 60.881,218.787 60.881 C 218.695 60.881,218.307 60.595,217.924 60.245 C 216.399 58.851,215.124 57.830,214.508 57.509 C 214.152 57.324,213.708 56.957,213.522 56.695 C 213.335 56.432,213.032 56.218,212.848 56.218 C 212.664 56.218,212.030 55.868,211.440 55.440 C 210.850 55.013,210.186 54.663,209.964 54.663 C 209.742 54.663,209.304 54.389,208.990 54.054 C 208.676 53.719,207.953 53.298,207.383 53.120 C 206.813 52.942,205.912 52.516,205.381 52.175 C 204.850 51.834,204.197 51.554,203.930 51.554 C 203.663 51.554,202.877 51.253,202.184 50.884 C 201.490 50.515,200.219 50.093,199.360 49.945 C 198.501 49.798,197.210 49.403,196.492 49.069 C 195.425 48.571,194.574 48.429,191.829 48.289 C 189.982 48.196,188.005 47.961,187.435 47.768 C 186.263 47.371,183.590 47.322,182.696 47.681 M285.500 47.795 C 285.006 47.974,283.199 48.199,281.485 48.296 C 278.915 48.442,278.155 48.583,277.153 49.102 C 276.484 49.447,275.465 49.805,274.888 49.898 C 274.311 49.990,273.576 50.326,273.254 50.645 C 272.932 50.964,272.409 51.306,272.091 51.406 C 270.725 51.832,267.455 54.925,266.906 56.309 C 266.672 56.900,266.299 57.520,266.077 57.686 C 265.400 58.194,265.511 62.868,266.234 64.303 C 266.542 64.914,266.943 65.922,267.126 66.543 C 267.309 67.164,267.605 67.728,267.784 67.797 C 267.963 67.865,268.242 68.322,268.404 68.812 C 268.565 69.302,268.957 70.020,269.275 70.408 C 269.593 70.796,270.002 71.484,270.184 71.937 C 270.365 72.390,270.672 72.822,270.866 72.896 C 271.060 72.970,271.460 73.562,271.756 74.210 C 272.051 74.858,272.392 75.389,272.514 75.389 C 272.636 75.389,272.886 75.754,273.071 76.200 C 273.256 76.647,273.660 77.317,273.968 77.690 C 274.276 78.063,274.664 78.765,274.830 79.251 C 274.996 79.736,275.359 80.293,275.638 80.489 C 275.917 80.684,276.220 81.245,276.312 81.735 C 276.404 82.224,276.758 82.950,277.100 83.346 C 277.441 83.743,277.790 84.439,277.876 84.894 C 277.961 85.349,278.306 86.094,278.642 86.550 C 278.979 87.005,279.332 87.916,279.429 88.572 C 279.525 89.229,279.830 90.089,280.106 90.482 C 280.408 90.911,280.747 92.118,280.955 93.500 C 281.145 94.767,281.495 96.098,281.731 96.459 C 282.838 98.149,282.842 110.784,281.736 113.472 C 281.414 114.255,281.066 115.712,280.962 116.710 C 280.844 117.853,280.552 118.907,280.174 119.560 C 279.844 120.130,279.495 121.179,279.397 121.891 C 279.300 122.604,278.952 123.595,278.624 124.093 C 278.296 124.592,277.945 125.525,277.846 126.166 C 277.746 126.807,277.395 127.691,277.065 128.130 C 276.735 128.569,276.379 129.386,276.275 129.944 C 276.171 130.502,275.820 131.367,275.495 131.865 C 275.171 132.364,274.826 133.238,274.729 133.808 C 274.632 134.378,274.363 135.136,274.130 135.492 C 273.448 136.535,273.057 137.572,273.057 138.337 C 273.057 138.729,272.846 139.327,272.588 139.667 C 272.056 140.368,271.503 142.100,271.503 143.065 C 271.503 143.421,271.260 144.021,270.963 144.399 C 270.631 144.821,270.281 145.905,270.053 147.219 C 269.849 148.392,269.521 149.702,269.324 150.130 C 268.943 150.958,268.524 153.386,268.252 156.347 C 268.150 157.469,267.922 158.344,267.657 158.641 C 267.020 159.354,267.015 171.887,267.651 173.446 C 267.883 174.016,268.152 175.123,268.248 175.907 C 268.569 178.526,268.971 180.175,269.432 180.761 C 269.683 181.080,269.966 181.859,270.061 182.492 C 270.156 183.125,270.463 183.934,270.744 184.291 C 271.025 184.648,271.429 185.436,271.643 186.042 C 271.857 186.648,272.207 187.326,272.422 187.548 C 273.024 188.173,274.041 189.669,274.546 190.674 C 274.796 191.172,275.293 191.890,275.648 192.268 C 276.004 192.646,276.427 193.113,276.587 193.304 C 276.748 193.496,277.098 193.851,277.365 194.093 C 277.631 194.335,277.984 194.668,278.148 194.832 C 279.030 195.714,279.505 196.189,279.702 196.385 C 280.487 197.168,281.712 198.187,281.867 198.187 C 281.969 198.187,282.563 198.593,283.189 199.091 C 283.815 199.588,284.469 199.996,284.644 199.997 C 284.819 199.999,285.148 200.284,285.376 200.631 C 285.603 200.978,286.160 201.343,286.612 201.442 C 287.065 201.540,287.818 201.955,288.286 202.365 C 288.754 202.774,289.351 203.109,289.611 203.109 C 289.872 203.109,290.400 203.356,290.784 203.658 C 291.168 203.960,291.970 204.316,292.567 204.448 C 293.164 204.581,294.061 204.965,294.560 205.301 C 295.073 205.646,296.085 205.991,296.891 206.095 C 297.675 206.196,298.782 206.544,299.352 206.869 C 300.005 207.241,301.060 207.524,302.202 207.635 C 303.199 207.732,305.006 208.064,306.218 208.374 C 309.302 209.162,319.125 209.212,321.762 208.453 C 322.688 208.186,324.437 207.836,325.648 207.675 C 327.090 207.483,328.118 207.194,328.627 206.837 C 329.054 206.538,329.917 206.213,330.543 206.116 C 331.170 206.019,332.024 205.653,332.442 205.302 C 332.859 204.951,333.414 204.663,333.674 204.663 C 333.935 204.663,334.636 204.255,335.233 203.756 C 335.830 203.258,336.474 202.850,336.665 202.850 C 336.855 202.850,337.260 202.500,337.565 202.073 C 337.869 201.645,338.285 201.295,338.489 201.295 C 338.693 201.295,338.860 201.183,338.860 201.045 C 338.860 200.908,339.201 200.406,339.619 199.931 C 340.036 199.456,340.582 198.549,340.833 197.914 C 341.083 197.280,341.503 196.465,341.767 196.103 C 342.651 194.888,342.629 187.874,341.740 187.324 C 341.602 187.239,341.245 186.517,340.947 185.718 C 340.648 184.920,340.173 184.059,339.891 183.803 C 339.609 183.548,339.378 183.199,339.378 183.027 C 339.378 182.856,338.971 182.204,338.474 181.578 C 337.977 180.952,337.569 180.304,337.567 180.136 C 337.566 179.969,337.273 179.486,336.917 179.063 C 336.561 178.639,336.269 178.180,336.269 178.042 C 336.269 177.904,335.928 177.361,335.510 176.836 C 335.092 176.310,334.677 175.548,334.588 175.143 C 334.499 174.738,334.200 174.201,333.922 173.949 C 333.645 173.698,333.290 173.019,333.134 172.440 C 332.978 171.861,332.571 171.054,332.228 170.648 C 331.886 170.241,331.606 169.642,331.606 169.317 C 331.606 168.991,331.308 168.286,330.944 167.749 C 330.579 167.212,330.164 166.117,330.022 165.316 C 329.880 164.515,329.534 163.541,329.255 163.151 C 328.975 162.761,328.582 161.501,328.381 160.350 C 328.180 159.199,327.899 158.117,327.756 157.945 C 326.700 156.672,326.642 142.729,327.685 140.779 C 327.997 140.196,328.359 139.061,328.490 138.258 C 328.629 137.404,328.952 136.556,329.266 136.219 C 329.562 135.901,329.878 135.182,329.967 134.621 C 330.057 134.059,330.343 133.388,330.602 133.129 C 330.861 132.870,331.272 132.043,331.515 131.290 C 331.759 130.538,332.183 129.614,332.458 129.237 C 332.733 128.861,333.058 128.016,333.181 127.359 C 333.304 126.703,333.639 125.845,333.925 125.453 C 334.233 125.033,334.551 123.992,334.702 122.914 C 334.843 121.910,335.202 120.535,335.501 119.860 C 335.807 119.168,336.150 117.603,336.288 116.276 C 336.422 114.981,336.714 113.382,336.938 112.725 C 338.058 109.427,338.087 90.883,336.975 88.703 C 336.765 88.291,336.466 86.862,336.311 85.528 C 336.155 84.194,335.797 82.620,335.513 82.030 C 335.230 81.441,334.872 80.376,334.718 79.663 C 334.564 78.951,334.211 78.055,333.934 77.673 C 333.657 77.291,333.322 76.497,333.190 75.908 C 333.057 75.319,332.647 74.402,332.278 73.869 C 331.908 73.336,331.606 72.723,331.606 72.507 C 331.606 72.291,331.256 71.722,330.829 71.244 C 330.402 70.765,330.052 70.223,330.052 70.040 C 330.052 69.857,329.702 69.309,329.275 68.822 C 328.847 68.335,328.497 67.826,328.497 67.690 C 328.497 67.554,328.177 67.138,327.785 66.766 C 327.393 66.393,326.606 65.496,326.036 64.771 C 325.466 64.046,323.834 62.470,322.409 61.268 C 320.984 60.067,319.523 58.788,319.161 58.428 C 318.800 58.067,318.383 57.772,318.236 57.772 C 318.089 57.772,317.577 57.422,317.098 56.995 C 316.620 56.567,316.078 56.218,315.895 56.218 C 315.712 56.218,315.179 55.885,314.711 55.479 C 314.243 55.073,313.548 54.665,313.168 54.573 C 312.787 54.480,312.146 54.128,311.743 53.790 C 311.340 53.452,310.629 53.093,310.162 52.991 C 309.696 52.889,308.996 52.542,308.608 52.220 C 308.219 51.897,307.463 51.565,306.928 51.480 C 306.392 51.396,305.605 51.079,305.180 50.776 C 304.738 50.461,303.655 50.110,302.656 49.957 C 301.694 49.810,300.511 49.448,300.027 49.153 C 299.314 48.718,298.345 48.552,294.907 48.279 C 292.574 48.093,290.442 47.822,290.169 47.675 C 289.501 47.318,286.617 47.392,285.500 47.795 " stroke="none" fill="#643594" fill-rule="evenodd"></path><path id="path1" d="M0.000 129.534 L 0.000 259.067 200.000 259.067 L 400.000 259.067 400.000 129.534 L 400.000 0.000 200.000 0.000 L 0.000 0.000 0.000 129.534 M83.951 47.675 C 84.224 47.822,86.344 48.094,88.662 48.280 C 91.923 48.542,93.110 48.739,93.912 49.151 C 94.482 49.443,95.751 49.807,96.733 49.959 C 97.895 50.139,98.717 50.424,99.092 50.776 C 99.408 51.073,100.121 51.387,100.675 51.475 C 101.230 51.562,102.002 51.897,102.390 52.220 C 102.779 52.542,103.478 52.889,103.945 52.991 C 104.411 53.093,105.111 53.442,105.499 53.768 C 105.887 54.094,106.587 54.441,107.053 54.540 C 107.520 54.638,108.216 55.056,108.599 55.468 C 108.983 55.880,109.458 56.218,109.654 56.218 C 109.850 56.218,110.402 56.567,110.881 56.995 C 111.360 57.422,111.886 57.772,112.050 57.772 C 112.215 57.772,112.864 58.252,113.493 58.839 C 114.122 59.426,115.220 60.344,115.933 60.879 C 116.645 61.414,118.026 62.712,119.002 63.763 C 121.584 66.545,121.868 66.881,122.414 67.811 C 122.687 68.274,123.007 68.653,123.126 68.653 C 123.245 68.653,123.503 69.032,123.700 69.495 C 123.896 69.958,124.357 70.738,124.723 71.229 C 125.089 71.720,125.391 72.303,125.393 72.524 C 125.396 72.746,125.746 73.440,126.171 74.067 C 126.595 74.694,126.943 75.407,126.943 75.652 C 126.943 75.896,127.178 76.394,127.464 76.759 C 127.751 77.123,128.201 78.284,128.465 79.339 C 128.728 80.393,129.136 81.549,129.370 81.907 C 129.605 82.265,129.915 83.538,130.060 84.737 C 130.205 85.936,130.430 87.209,130.559 87.565 C 131.542 90.268,131.606 91.038,131.601 100.040 C 131.596 108.789,131.364 111.988,130.635 113.351 C 130.484 113.631,130.241 115.064,130.094 116.535 C 129.916 118.305,129.644 119.556,129.288 120.239 C 128.993 120.806,128.633 122.110,128.490 123.135 C 128.335 124.242,128.018 125.288,127.710 125.710 C 127.424 126.101,127.125 126.800,127.045 127.264 C 126.836 128.474,126.384 129.575,125.892 130.066 C 125.659 130.300,125.385 131.004,125.285 131.631 C 125.185 132.259,124.833 133.063,124.503 133.419 C 124.173 133.776,123.834 134.433,123.751 134.879 C 123.668 135.326,123.319 136.106,122.975 136.612 C 122.583 137.190,122.286 138.101,122.178 139.057 C 122.083 139.894,121.841 140.815,121.640 141.103 C 120.516 142.706,120.337 154.844,121.406 156.878 C 121.710 157.454,122.041 158.678,122.143 159.598 C 122.250 160.554,122.589 161.743,122.937 162.376 C 123.272 162.985,123.627 164.034,123.727 164.708 C 123.827 165.381,124.241 166.525,124.648 167.249 C 125.056 167.973,125.389 168.797,125.389 169.081 C 125.389 169.365,125.735 170.055,126.159 170.614 C 126.582 171.174,126.932 171.874,126.936 172.169 C 126.940 172.464,127.290 173.164,127.713 173.723 C 128.136 174.283,128.486 174.996,128.490 175.308 C 128.494 175.620,128.847 176.258,129.275 176.726 C 129.702 177.194,130.052 177.709,130.052 177.872 C 130.052 178.034,130.372 178.580,130.764 179.085 C 131.473 179.997,132.118 180.993,132.947 182.452 C 133.186 182.872,133.609 183.466,133.887 183.771 C 134.165 184.077,134.538 184.793,134.716 185.363 C 134.894 185.933,135.181 186.574,135.353 186.788 C 136.504 188.216,136.676 195.087,135.597 196.546 C 135.299 196.950,134.810 197.834,134.511 198.510 C 134.212 199.187,133.850 199.741,133.708 199.741 C 133.566 199.741,133.242 200.091,132.990 200.518 C 132.737 200.946,132.385 201.295,132.207 201.295 C 132.029 201.295,131.763 201.521,131.615 201.797 C 131.284 202.416,127.981 204.663,127.403 204.663 C 127.172 204.663,126.623 204.966,126.183 205.336 C 125.716 205.729,124.928 206.067,124.285 206.150 C 123.681 206.228,122.837 206.537,122.409 206.837 C 121.900 207.194,120.873 207.483,119.430 207.675 C 118.219 207.836,116.470 208.186,115.544 208.453 C 112.908 209.212,103.085 209.162,100.000 208.374 C 98.789 208.064,96.982 207.732,95.984 207.635 C 94.850 207.525,93.783 207.240,93.135 206.872 C 92.565 206.550,91.516 206.204,90.803 206.104 C 90.091 206.003,89.095 205.653,88.591 205.325 C 88.087 204.997,87.272 204.640,86.780 204.532 C 86.288 204.424,85.535 204.075,85.106 203.756 C 84.677 203.438,83.990 203.097,83.579 202.999 C 83.167 202.902,82.468 202.546,82.024 202.208 C 81.581 201.871,80.910 201.518,80.534 201.424 C 80.158 201.330,79.605 200.971,79.305 200.627 C 79.005 200.282,78.659 200.000,78.536 200.000 C 78.412 200.000,77.799 199.593,77.174 199.096 C 76.548 198.598,75.924 198.190,75.787 198.189 C 75.526 198.186,75.468 198.133,72.150 194.847 C 69.266 191.990,67.766 190.119,66.944 188.351 C 66.715 187.857,66.381 187.333,66.202 187.185 C 66.023 187.038,65.676 186.392,65.430 185.751 C 65.184 185.110,64.823 184.407,64.627 184.189 C 64.432 183.971,64.093 183.108,63.875 182.271 C 63.657 181.433,63.299 180.550,63.079 180.307 C 62.838 180.041,62.575 178.952,62.419 177.570 C 62.095 174.720,61.960 174.131,61.449 173.316 C 60.926 172.483,60.822 161.108,61.329 160.206 C 61.684 159.575,62.057 157.400,62.435 153.763 C 62.596 152.203,62.850 151.035,63.082 150.779 C 63.291 150.547,63.592 149.432,63.749 148.301 C 63.906 147.170,64.316 145.651,64.660 144.924 C 65.004 144.197,65.285 143.336,65.285 143.010 C 65.285 142.133,65.838 140.349,66.268 139.841 C 66.475 139.597,66.747 138.839,66.873 138.157 C 67.000 137.475,67.349 136.583,67.649 136.175 C 67.949 135.766,68.359 134.728,68.560 133.867 C 68.761 133.006,69.101 132.173,69.315 132.016 C 69.530 131.859,69.887 131.032,70.109 130.179 C 70.330 129.325,70.684 128.434,70.896 128.198 C 71.107 127.962,71.456 127.087,71.672 126.255 C 71.888 125.422,72.274 124.508,72.530 124.223 C 72.786 123.938,73.072 123.170,73.165 122.518 C 73.258 121.865,73.568 120.896,73.852 120.365 C 74.137 119.834,74.544 118.402,74.756 117.181 C 74.969 115.961,75.401 114.189,75.716 113.245 C 76.568 110.691,76.578 98.474,75.730 96.600 C 75.431 95.941,75.047 94.542,74.875 93.491 C 74.704 92.440,74.293 90.997,73.963 90.285 C 73.633 89.573,73.283 88.563,73.185 88.041 C 73.088 87.519,72.811 86.877,72.571 86.616 C 72.331 86.354,71.981 85.615,71.793 84.974 C 71.606 84.333,71.114 83.293,70.700 82.663 C 70.287 82.033,69.948 81.367,69.948 81.183 C 69.948 81.000,69.735 80.641,69.475 80.386 C 69.215 80.131,68.849 79.514,68.662 79.016 C 68.475 78.517,68.103 77.913,67.835 77.674 C 67.566 77.435,67.176 76.831,66.968 76.332 C 66.759 75.833,66.468 75.350,66.321 75.259 C 66.175 75.169,65.808 74.607,65.506 74.011 C 65.203 73.415,64.840 72.853,64.699 72.762 C 64.445 72.599,63.626 71.252,62.318 68.847 C 61.950 68.170,61.553 67.617,61.436 67.617 C 61.318 67.617,61.085 67.002,60.917 66.252 C 60.749 65.501,60.370 64.490,60.075 64.005 C 58.656 61.671,59.556 57.197,61.972 54.574 C 62.344 54.171,62.746 53.734,62.866 53.604 C 63.489 52.927,65.381 51.554,65.689 51.554 C 65.884 51.554,66.427 51.222,66.895 50.816 C 67.373 50.401,68.200 50.005,68.782 49.912 C 69.352 49.821,70.372 49.464,71.048 49.119 C 72.048 48.609,72.847 48.457,75.323 48.309 C 76.998 48.208,78.776 47.979,79.275 47.799 C 80.398 47.393,83.281 47.317,83.951 47.675 M187.435 47.768 C 188.005 47.961,189.982 48.196,191.829 48.289 C 194.574 48.429,195.425 48.571,196.492 49.069 C 197.210 49.403,198.501 49.798,199.360 49.945 C 200.219 50.093,201.490 50.515,202.184 50.884 C 202.877 51.253,203.663 51.554,203.930 51.554 C 204.197 51.554,204.850 51.834,205.381 52.175 C 205.912 52.516,206.813 52.942,207.383 53.120 C 207.953 53.298,208.676 53.719,208.990 54.054 C 209.304 54.389,209.742 54.663,209.964 54.663 C 210.186 54.663,210.850 55.013,211.440 55.440 C 212.030 55.868,212.664 56.218,212.848 56.218 C 213.032 56.218,213.335 56.432,213.522 56.695 C 213.708 56.957,214.152 57.324,214.508 57.509 C 215.124 57.830,216.399 58.851,217.924 60.245 C 218.307 60.595,218.695 60.881,218.787 60.881 C 218.879 60.881,220.046 61.988,221.380 63.342 C 222.714 64.696,223.916 65.803,224.051 65.803 C 224.186 65.803,224.369 66.092,224.458 66.446 C 224.546 66.800,224.951 67.470,225.357 67.936 C 225.764 68.401,226.178 69.045,226.278 69.366 C 226.378 69.686,226.676 70.064,226.940 70.206 C 227.204 70.347,227.561 70.900,227.734 71.436 C 227.907 71.971,228.261 72.614,228.522 72.864 C 228.783 73.114,229.128 73.813,229.290 74.418 C 229.452 75.023,229.797 75.718,230.057 75.963 C 230.317 76.207,230.668 77.075,230.837 77.890 C 231.007 78.706,231.372 79.680,231.650 80.055 C 231.949 80.460,232.262 81.518,232.420 82.654 C 232.566 83.708,232.801 84.787,232.943 85.051 C 233.583 86.247,233.908 88.247,234.067 91.969 C 234.162 94.177,234.405 96.559,234.607 97.262 C 235.069 98.871,235.074 101.335,234.617 102.850 C 234.423 103.491,234.185 105.939,234.087 108.290 C 233.894 112.916,233.584 115.253,233.015 116.352 C 232.816 116.737,232.539 118.062,232.398 119.296 C 232.233 120.754,231.954 121.846,231.604 122.413 C 231.307 122.894,230.951 123.991,230.812 124.852 C 230.669 125.738,230.281 126.827,229.917 127.364 C 229.564 127.884,229.275 128.627,229.275 129.013 C 229.275 129.399,228.927 130.228,228.502 130.855 C 228.077 131.482,227.728 132.179,227.725 132.404 C 227.722 132.629,227.383 133.328,226.970 133.958 C 226.558 134.588,226.140 135.596,226.042 136.197 C 225.944 136.798,225.627 137.591,225.338 137.958 C 224.977 138.418,224.737 139.290,224.569 140.751 C 224.434 141.920,224.126 143.459,223.885 144.171 C 223.256 146.026,223.263 152.195,223.896 154.016 C 224.144 154.728,224.455 156.425,224.587 157.787 C 224.748 159.438,225.002 160.559,225.348 161.155 C 225.634 161.645,225.990 162.724,226.140 163.553 C 226.291 164.381,226.651 165.361,226.940 165.729 C 227.230 166.098,227.541 166.859,227.631 167.421 C 227.721 167.982,228.065 168.764,228.396 169.157 C 228.726 169.550,229.077 170.373,229.175 170.986 C 229.273 171.598,229.545 172.291,229.778 172.524 C 230.012 172.758,230.451 173.476,230.753 174.119 C 231.055 174.762,231.480 175.435,231.697 175.615 C 231.914 175.795,232.165 176.278,232.255 176.688 C 232.345 177.099,232.760 177.864,233.178 178.390 C 233.596 178.916,233.938 179.460,233.938 179.599 C 233.938 179.737,234.238 180.217,234.604 180.664 C 235.624 181.909,236.482 183.199,236.933 184.167 C 237.158 184.649,237.564 185.349,237.835 185.721 C 238.112 186.102,238.501 187.408,238.724 188.705 C 238.943 189.974,239.238 191.152,239.381 191.324 C 239.556 191.535,239.528 191.963,239.295 192.645 C 239.105 193.199,238.790 194.516,238.596 195.571 C 238.359 196.863,238.049 197.699,237.645 198.134 C 237.316 198.490,237.047 198.912,237.047 199.073 C 237.047 199.235,236.726 199.673,236.334 200.048 C 235.942 200.422,235.505 200.858,235.363 201.017 C 234.571 201.899,233.077 203.109,232.781 203.109 C 232.593 203.109,232.369 203.290,232.285 203.511 C 232.200 203.732,231.575 204.156,230.897 204.454 C 230.218 204.753,229.397 205.203,229.073 205.456 C 228.748 205.709,228.014 205.995,227.442 206.091 C 226.870 206.188,225.911 206.540,225.312 206.873 C 224.648 207.242,223.565 207.541,222.539 207.638 C 220.528 207.830,218.661 208.263,218.160 208.654 C 217.463 209.198,204.443 209.030,203.405 208.463 C 202.864 208.169,201.539 207.892,199.907 207.734 C 198.069 207.555,196.930 207.300,196.114 206.884 C 195.473 206.557,194.365 206.206,193.653 206.105 C 192.940 206.004,191.935 205.647,191.419 205.310 C 190.902 204.974,190.028 204.616,189.476 204.514 C 188.923 204.413,188.154 204.065,187.765 203.741 C 187.377 203.417,186.677 203.072,186.211 202.974 C 185.744 202.876,185.071 202.530,184.715 202.206 C 184.359 201.882,183.629 201.477,183.094 201.306 C 182.558 201.135,182.001 200.772,181.856 200.500 C 181.710 200.229,181.309 199.935,180.965 199.849 C 180.620 199.762,180.154 199.411,179.930 199.069 C 179.705 198.726,179.401 198.446,179.252 198.446 C 179.104 198.446,178.057 197.630,176.925 196.632 C 175.793 195.635,174.751 194.819,174.610 194.819 C 174.468 194.819,174.352 194.686,174.352 194.524 C 174.352 194.362,173.915 193.741,173.381 193.145 C 171.546 191.096,170.725 190.040,170.725 189.724 C 170.725 189.550,170.521 189.255,170.272 189.069 C 170.023 188.883,169.558 188.177,169.239 187.500 C 168.920 186.823,168.557 186.269,168.431 186.269 C 168.305 186.269,168.055 185.716,167.875 185.039 C 167.696 184.362,167.281 183.400,166.954 182.902 C 166.627 182.403,166.281 181.412,166.186 180.699 C 166.090 179.987,165.797 178.977,165.534 178.454 C 163.942 175.287,163.872 156.916,165.439 153.145 C 165.638 152.666,165.976 151.102,166.190 149.668 C 166.411 148.192,166.752 146.872,166.976 146.624 C 167.195 146.383,167.477 145.557,167.603 144.790 C 167.834 143.389,168.094 142.656,168.790 141.451 C 168.995 141.095,169.165 140.500,169.167 140.129 C 169.172 139.271,169.658 137.816,170.118 137.281 C 170.314 137.054,170.649 136.196,170.863 135.374 C 171.077 134.551,171.483 133.585,171.766 133.226 C 172.049 132.867,172.280 132.255,172.280 131.866 C 172.280 131.478,172.588 130.707,172.965 130.153 C 173.341 129.599,173.809 128.462,174.005 127.627 C 174.200 126.792,174.581 125.827,174.853 125.482 C 175.124 125.137,175.427 124.363,175.527 123.762 C 175.627 123.160,175.977 122.202,176.305 121.632 C 176.633 121.062,176.983 119.896,177.082 119.041 C 177.182 118.187,177.524 116.904,177.844 116.192 C 179.406 112.702,179.415 97.493,177.856 93.782 C 177.527 92.999,177.178 91.775,177.081 91.062 C 176.984 90.350,176.635 89.359,176.304 88.860 C 175.974 88.361,175.623 87.487,175.525 86.917 C 175.427 86.347,175.140 85.648,174.888 85.363 C 174.636 85.078,174.281 84.293,174.100 83.619 C 173.918 82.945,173.613 82.263,173.421 82.104 C 173.229 81.944,172.783 81.184,172.431 80.415 C 172.079 79.645,171.680 79.016,171.545 79.016 C 171.410 79.016,171.122 78.572,170.905 78.029 C 170.688 77.487,170.344 76.905,170.140 76.736 C 169.936 76.566,169.559 75.961,169.301 75.390 C 169.044 74.819,168.736 74.352,168.618 74.352 C 168.499 74.352,168.105 73.799,167.741 73.122 C 167.030 71.802,166.069 70.340,165.461 69.654 C 165.255 69.421,164.949 68.817,164.782 68.310 C 164.615 67.804,164.230 67.075,163.927 66.690 C 162.389 64.734,162.312 57.637,163.811 55.969 C 164.137 55.607,164.565 54.986,164.763 54.590 C 164.961 54.193,165.538 53.621,166.046 53.318 C 166.554 53.015,167.260 52.507,167.617 52.190 C 167.973 51.872,168.530 51.532,168.855 51.434 C 169.181 51.336,169.734 50.989,170.086 50.663 C 170.459 50.317,171.212 50.004,171.896 49.910 C 172.540 49.822,173.409 49.496,173.829 49.186 C 174.458 48.721,175.245 48.561,178.346 48.271 C 180.411 48.078,182.369 47.812,182.696 47.681 C 183.590 47.322,186.263 47.371,187.435 47.768 M290.169 47.675 C 290.442 47.822,292.574 48.093,294.907 48.279 C 298.345 48.552,299.314 48.718,300.027 49.153 C 300.511 49.448,301.694 49.810,302.656 49.957 C 303.655 50.110,304.738 50.461,305.180 50.776 C 305.605 51.079,306.392 51.396,306.928 51.480 C 307.463 51.565,308.219 51.897,308.608 52.220 C 308.996 52.542,309.696 52.889,310.162 52.991 C 310.629 53.093,311.340 53.452,311.743 53.790 C 312.146 54.128,312.787 54.480,313.168 54.573 C 313.548 54.665,314.243 55.073,314.711 55.479 C 315.179 55.885,315.712 56.218,315.895 56.218 C 316.078 56.218,316.620 56.567,317.098 56.995 C 317.577 57.422,318.089 57.772,318.236 57.772 C 318.383 57.772,318.800 58.067,319.161 58.428 C 319.523 58.788,320.984 60.067,322.409 61.268 C 323.834 62.470,325.466 64.046,326.036 64.771 C 326.606 65.496,327.393 66.393,327.785 66.766 C 328.177 67.138,328.497 67.554,328.497 67.690 C 328.497 67.826,328.847 68.335,329.275 68.822 C 329.702 69.309,330.052 69.857,330.052 70.040 C 330.052 70.223,330.402 70.765,330.829 71.244 C 331.256 71.722,331.606 72.291,331.606 72.507 C 331.606 72.723,331.908 73.336,332.278 73.869 C 332.647 74.402,333.057 75.319,333.190 75.908 C 333.322 76.497,333.657 77.291,333.934 77.673 C 334.211 78.055,334.564 78.951,334.718 79.663 C 334.872 80.376,335.230 81.441,335.513 82.030 C 335.797 82.620,336.155 84.194,336.311 85.528 C 336.466 86.862,336.765 88.291,336.975 88.703 C 338.087 90.883,338.058 109.427,336.938 112.725 C 336.714 113.382,336.422 114.981,336.288 116.276 C 336.150 117.603,335.807 119.168,335.501 119.860 C 335.202 120.535,334.843 121.910,334.702 122.914 C 334.551 123.992,334.233 125.033,333.925 125.453 C 333.639 125.845,333.304 126.703,333.181 127.359 C 333.058 128.016,332.733 128.861,332.458 129.237 C 332.183 129.614,331.759 130.538,331.515 131.290 C 331.272 132.043,330.861 132.870,330.602 133.129 C 330.343 133.388,330.057 134.059,329.967 134.621 C 329.878 135.182,329.562 135.901,329.266 136.219 C 328.952 136.556,328.629 137.404,328.490 138.258 C 328.359 139.061,327.997 140.196,327.685 140.779 C 326.642 142.729,326.700 156.672,327.756 157.945 C 327.899 158.117,328.180 159.199,328.381 160.350 C 328.582 161.501,328.975 162.761,329.255 163.151 C 329.534 163.541,329.880 164.515,330.022 165.316 C 330.164 166.117,330.579 167.212,330.944 167.749 C 331.308 168.286,331.606 168.991,331.606 169.317 C 331.606 169.642,331.886 170.241,332.228 170.648 C 332.571 171.054,332.978 171.861,333.134 172.440 C 333.290 173.019,333.645 173.698,333.922 173.949 C 334.200 174.201,334.499 174.738,334.588 175.143 C 334.677 175.548,335.092 176.310,335.510 176.836 C 335.928 177.361,336.269 177.904,336.269 178.042 C 336.269 178.180,336.561 178.639,336.917 179.063 C 337.273 179.486,337.566 179.969,337.567 180.136 C 337.569 180.304,337.977 180.952,338.474 181.578 C 338.971 182.204,339.378 182.856,339.378 183.027 C 339.378 183.199,339.609 183.548,339.891 183.803 C 340.173 184.059,340.648 184.920,340.947 185.718 C 341.245 186.517,341.602 187.239,341.740 187.324 C 342.629 187.874,342.651 194.888,341.767 196.103 C 341.503 196.465,341.083 197.280,340.833 197.914 C 340.582 198.549,340.036 199.456,339.619 199.931 C 339.201 200.406,338.860 200.908,338.860 201.045 C 338.860 201.183,338.693 201.295,338.489 201.295 C 338.285 201.295,337.869 201.645,337.565 202.073 C 337.260 202.500,336.855 202.850,336.665 202.850 C 336.474 202.850,335.830 203.258,335.233 203.756 C 334.636 204.255,333.935 204.663,333.674 204.663 C 333.414 204.663,332.859 204.951,332.442 205.302 C 332.024 205.653,331.170 206.019,330.543 206.116 C 329.917 206.213,329.054 206.538,328.627 206.837 C 328.118 207.194,327.090 207.483,325.648 207.675 C 324.437 207.836,322.688 208.186,321.762 208.453 C 319.125 209.212,309.302 209.162,306.218 208.374 C 305.006 208.064,303.199 207.732,302.202 207.635 C 301.060 207.524,300.005 207.241,299.352 206.869 C 298.782 206.544,297.675 206.196,296.891 206.095 C 296.085 205.991,295.073 205.646,294.560 205.301 C 294.061 204.965,293.164 204.581,292.567 204.448 C 291.970 204.316,291.168 203.960,290.784 203.658 C 290.400 203.356,289.872 203.109,289.611 203.109 C 289.351 203.109,288.754 202.774,288.286 202.365 C 287.818 201.955,287.065 201.540,286.612 201.442 C 286.160 201.343,285.603 200.978,285.376 200.631 C 285.148 200.284,284.819 199.999,284.644 199.997 C 284.469 199.996,283.815 199.588,283.189 199.091 C 282.563 198.593,281.969 198.187,281.867 198.187 C 281.712 198.187,280.487 197.168,279.702 196.385 C 279.505 196.189,279.030 195.714,278.148 194.832 C 277.984 194.668,277.631 194.335,277.365 194.093 C 277.098 193.851,276.748 193.496,276.587 193.304 C 276.427 193.113,276.004 192.646,275.648 192.268 C 275.293 191.890,274.796 191.172,274.546 190.674 C 274.041 189.669,273.024 188.173,272.422 187.548 C 272.207 187.326,271.857 186.648,271.643 186.042 C 271.429 185.436,271.025 184.648,270.744 184.291 C 270.463 183.934,270.156 183.125,270.061 182.492 C 269.966 181.859,269.683 181.080,269.432 180.761 C 268.971 180.175,268.569 178.526,268.248 175.907 C 268.152 175.123,267.883 174.016,267.651 173.446 C 267.015 171.887,267.020 159.354,267.657 158.641 C 267.922 158.344,268.150 157.469,268.252 156.347 C 268.524 153.386,268.943 150.958,269.324 150.130 C 269.521 149.702,269.849 148.392,270.053 147.219 C 270.281 145.905,270.631 144.821,270.963 144.399 C 271.260 144.021,271.503 143.421,271.503 143.065 C 271.503 142.100,272.056 140.368,272.588 139.667 C 272.846 139.327,273.057 138.729,273.057 138.337 C 273.057 137.572,273.448 136.535,274.130 135.492 C 274.363 135.136,274.632 134.378,274.729 133.808 C 274.826 133.238,275.171 132.364,275.495 131.865 C 275.820 131.367,276.171 130.502,276.275 129.944 C 276.379 129.386,276.735 128.569,277.065 128.130 C 277.395 127.691,277.746 126.807,277.846 126.166 C 277.945 125.525,278.296 124.592,278.624 124.093 C 278.952 123.595,279.300 122.604,279.397 121.891 C 279.495 121.179,279.844 120.130,280.174 119.560 C 280.552 118.907,280.844 117.853,280.962 116.710 C 281.066 115.712,281.414 114.255,281.736 113.472 C 282.842 110.784,282.838 98.149,281.731 96.459 C 281.495 96.098,281.145 94.767,280.955 93.500 C 280.747 92.118,280.408 90.911,280.106 90.482 C 279.830 90.089,279.525 89.229,279.429 88.572 C 279.332 87.916,278.979 87.005,278.642 86.550 C 278.306 86.094,277.961 85.349,277.876 84.894 C 277.790 84.439,277.441 83.743,277.100 83.346 C 276.758 82.950,276.404 82.224,276.312 81.735 C 276.220 81.245,275.917 80.684,275.638 80.489 C 275.359 80.293,274.996 79.736,274.830 79.251 C 274.664 78.765,274.276 78.063,273.968 77.690 C 273.660 77.317,273.256 76.647,273.071 76.200 C 272.886 75.754,272.636 75.389,272.514 75.389 C 272.392 75.389,272.051 74.858,271.756 74.210 C 271.460 73.562,271.060 72.970,270.866 72.896 C 270.672 72.822,270.365 72.390,270.184 71.937 C 270.002 71.484,269.593 70.796,269.275 70.408 C 268.957 70.020,268.565 69.302,268.404 68.812 C 268.242 68.322,267.963 67.865,267.784 67.797 C 267.605 67.728,267.309 67.164,267.126 66.543 C 266.943 65.922,266.542 64.914,266.234 64.303 C 265.511 62.868,265.400 58.194,266.077 57.686 C 266.299 57.520,266.672 56.900,266.906 56.309 C 267.455 54.925,270.725 51.832,272.091 51.406 C 272.409 51.306,272.932 50.964,273.254 50.645 C 273.576 50.326,274.311 49.990,274.888 49.898 C 275.465 49.805,276.484 49.447,277.153 49.102 C 278.155 48.583,278.915 48.442,281.485 48.296 C 283.199 48.199,285.006 47.974,285.500 47.795 C 286.617 47.392,289.501 47.318,290.169 47.675 " stroke="none" fill="#ffffff" fill-rule="evenodd"></path></g></svg>