<svg id="svg" version="1.1" xmlns="http://www.w3.org/2000/svg" xmlns:xlink="http://www.w3.org/1999/xlink" width="400" height="258.91472868217056" viewBox="0, 0, 400,258.91472868217056"><g id="svgg"><path id="path0" d="M128.975 42.355 C 128.848 42.482,127.843 42.665,123.446 43.363 C 121.002 43.751,119.845 44.098,119.583 44.521 C 119.498 44.660,118.963 44.852,118.396 44.948 C 117.829 45.044,116.952 45.402,116.448 45.744 C 115.943 46.087,115.259 46.435,114.927 46.518 C 114.595 46.601,113.949 47.011,113.493 47.428 C 113.036 47.845,112.582 48.189,112.484 48.191 C 112.028 48.202,108.549 51.902,108.549 52.376 C 108.549 52.513,108.271 52.996,107.930 53.450 C 107.309 54.277,106.218 58.036,106.218 59.349 C 106.218 60.791,107.331 65.697,107.812 66.375 C 108.085 66.760,108.438 67.460,108.594 67.929 C 108.751 68.398,109.155 69.153,109.492 69.607 C 109.828 70.061,110.104 70.535,110.104 70.662 C 110.104 70.789,110.450 71.350,110.874 71.910 C 111.297 72.470,111.647 73.064,111.651 73.231 C 111.655 73.399,111.949 73.882,112.306 74.305 C 112.662 74.728,112.953 75.177,112.953 75.302 C 112.953 75.427,113.286 75.935,113.693 76.431 C 114.100 76.926,114.640 77.740,114.895 78.238 C 115.149 78.737,115.442 79.203,115.545 79.275 C 115.649 79.346,115.996 79.929,116.317 80.570 C 116.637 81.211,117.043 81.911,117.218 82.124 C 117.393 82.338,117.739 83.038,117.987 83.679 C 118.235 84.320,118.591 85.019,118.779 85.233 C 118.967 85.447,119.297 86.224,119.514 86.960 C 119.730 87.695,120.086 88.571,120.306 88.906 C 120.525 89.240,120.881 90.276,121.097 91.206 C 121.313 92.137,121.666 93.253,121.882 93.686 C 123.477 96.883,123.387 112.303,121.762 114.378 C 121.650 114.521,121.418 115.337,121.246 116.192 C 121.075 117.047,120.664 118.446,120.333 119.301 C 120.002 120.155,119.526 121.525,119.274 122.345 C 119.023 123.164,118.730 123.834,118.624 123.834 C 118.518 123.834,118.237 124.505,118.001 125.324 C 117.764 126.143,117.362 127.163,117.107 127.591 C 116.853 128.018,116.446 128.979,116.204 129.725 C 115.962 130.471,115.659 131.146,115.532 131.225 C 115.405 131.304,115.051 132.209,114.746 133.236 C 114.440 134.263,114.105 135.162,113.999 135.233 C 113.894 135.304,113.509 136.354,113.145 137.565 C 112.421 139.968,111.919 141.526,111.100 143.912 C 110.807 144.767,110.408 146.457,110.214 147.668 C 110.020 148.880,109.628 150.515,109.342 151.302 C 107.539 156.271,107.593 172.864,109.429 177.954 C 109.800 178.982,110.104 180.092,110.104 180.419 C 110.104 180.747,110.445 181.654,110.861 182.435 C 111.278 183.216,111.699 184.283,111.797 184.806 C 111.896 185.329,112.081 185.822,112.210 185.902 C 112.340 185.982,112.750 186.651,113.122 187.389 C 113.494 188.127,113.884 188.789,113.989 188.860 C 114.093 188.931,114.430 189.485,114.737 190.091 C 115.044 190.696,115.391 191.192,115.508 191.192 C 115.624 191.192,115.850 191.477,116.009 191.825 C 116.168 192.174,116.711 192.917,117.216 193.476 C 117.721 194.035,118.135 194.565,118.135 194.653 C 118.135 194.868,121.757 198.411,122.808 199.223 C 123.269 199.579,124.009 200.170,124.452 200.535 C 124.896 200.901,125.696 201.464,126.231 201.787 C 126.765 202.110,127.202 202.459,127.202 202.562 C 127.202 202.665,127.698 202.963,128.303 203.224 C 128.909 203.485,129.579 203.849,129.793 204.032 C 130.560 204.691,137.529 208.031,138.136 208.031 C 138.349 208.031,139.040 208.305,139.670 208.641 C 140.301 208.976,141.389 209.336,142.089 209.441 C 142.789 209.546,144.127 209.905,145.062 210.239 C 146.003 210.575,147.745 210.924,148.964 211.021 C 150.175 211.118,151.960 211.359,152.931 211.557 C 154.967 211.972,162.763 212.042,164.378 211.659 C 164.948 211.524,166.617 211.289,168.087 211.137 C 169.691 210.970,171.673 210.553,173.047 210.093 C 174.306 209.671,175.565 209.326,175.845 209.326 C 176.126 209.326,176.633 209.111,176.973 208.849 C 177.313 208.586,178.148 208.161,178.830 207.903 C 179.511 207.646,180.130 207.337,180.206 207.215 C 180.281 207.093,180.889 206.750,181.557 206.452 C 182.225 206.154,182.889 205.776,183.031 205.611 C 183.174 205.446,183.931 204.821,184.715 204.222 C 185.499 203.624,186.431 202.765,186.788 202.314 C 187.144 201.862,187.719 201.145,188.065 200.718 C 190.730 197.438,192.138 191.559,191.182 187.694 C 191.041 187.124,190.809 186.078,190.666 185.369 C 190.523 184.660,190.133 183.667,189.799 183.163 C 189.466 182.659,189.102 181.957,188.991 181.603 C 188.880 181.248,188.514 180.629,188.177 180.226 C 187.840 179.823,187.565 179.402,187.565 179.290 C 187.565 179.178,187.244 178.674,186.852 178.169 C 186.460 177.664,185.907 176.864,185.622 176.390 C 184.152 173.948,183.660 173.070,183.064 171.826 C 182.705 171.078,182.298 170.466,182.159 170.466 C 182.019 170.466,181.767 170.029,181.598 169.495 C 181.429 168.960,181.094 168.174,180.855 167.746 C 180.615 167.319,180.204 166.386,179.941 165.674 C 179.678 164.961,179.313 164.203,179.130 163.990 C 178.947 163.776,178.716 163.251,178.617 162.824 C 178.291 161.419,177.646 159.462,177.405 159.151 C 177.194 158.877,176.788 156.687,176.190 152.591 C 176.076 151.807,175.849 150.838,175.685 150.437 C 175.005 148.765,176.465 139.652,177.848 136.938 C 178.205 136.237,178.497 135.534,178.497 135.376 C 178.497 135.218,179.084 133.926,179.801 132.505 C 180.518 131.085,181.292 129.281,181.522 128.497 C 181.751 127.714,182.093 126.838,182.280 126.551 C 182.468 126.264,182.808 125.225,183.036 124.241 C 183.264 123.257,183.626 122.115,183.839 121.702 C 184.053 121.289,184.398 119.897,184.606 118.609 C 184.815 117.321,185.111 116.031,185.266 115.743 C 185.677 114.975,185.968 112.801,186.249 108.411 C 186.386 106.270,186.622 104.193,186.772 103.796 C 187.184 102.713,187.109 96.229,186.658 93.870 C 186.444 92.753,186.267 91.023,186.265 90.026 C 186.259 88.024,185.629 84.026,185.246 83.564 C 185.111 83.403,184.873 82.459,184.715 81.467 C 184.557 80.475,184.158 79.080,183.827 78.368 C 183.497 77.655,183.145 76.621,183.046 76.070 C 182.947 75.518,182.590 74.527,182.253 73.868 C 181.916 73.208,181.440 72.173,181.195 71.567 C 180.950 70.962,180.664 70.466,180.559 70.466 C 180.453 70.466,180.287 70.146,180.189 69.754 C 180.091 69.362,179.746 68.692,179.422 68.264 C 179.098 67.837,178.624 67.079,178.368 66.580 C 177.883 65.635,176.658 64.032,175.156 62.376 C 174.671 61.842,174.012 61.025,173.691 60.560 C 172.999 59.559,172.064 58.736,165.803 53.620 C 164.828 52.823,162.478 51.295,162.228 51.295 C 162.106 51.295,161.737 51.007,161.406 50.655 C 161.075 50.303,160.385 49.881,159.871 49.717 C 159.358 49.552,158.692 49.194,158.392 48.921 C 158.091 48.648,157.397 48.300,156.849 48.149 C 156.300 47.997,155.441 47.594,154.938 47.253 C 154.436 46.911,153.848 46.632,153.632 46.632 C 153.415 46.632,152.539 46.301,151.684 45.897 C 150.829 45.493,149.663 45.087,149.093 44.993 C 148.523 44.900,147.358 44.534,146.503 44.180 C 145.648 43.825,144.587 43.533,144.145 43.529 C 143.703 43.526,141.663 43.233,139.611 42.878 C 136.168 42.282,129.382 41.948,128.975 42.355 M227.850 42.635 C 226.852 42.837,225.032 43.166,223.805 43.368 C 222.578 43.569,220.935 44.036,220.153 44.406 C 219.372 44.775,218.528 45.078,218.279 45.078 C 218.030 45.078,217.517 45.296,217.138 45.563 C 216.760 45.829,215.978 46.274,215.400 46.551 C 212.540 47.922,208.412 52.287,207.790 54.597 C 207.631 55.187,207.273 56.172,206.995 56.785 C 206.305 58.305,206.306 60.947,206.997 62.700 C 207.284 63.427,207.638 64.556,207.784 65.210 C 207.931 65.863,208.284 66.725,208.568 67.125 C 208.853 67.525,209.217 68.237,209.377 68.706 C 209.537 69.176,209.941 69.889,210.275 70.292 C 210.608 70.695,210.881 71.174,210.881 71.357 C 210.881 71.541,211.215 72.111,211.623 72.625 C 212.032 73.138,212.512 73.912,212.691 74.344 C 212.870 74.776,213.098 75.130,213.198 75.130 C 213.298 75.130,213.642 75.654,213.962 76.295 C 214.282 76.937,214.634 77.461,214.744 77.461 C 214.854 77.461,215.167 77.896,215.438 78.428 C 215.710 78.959,216.253 79.851,216.645 80.409 C 217.037 80.968,217.358 81.567,217.358 81.740 C 217.358 81.913,217.570 82.333,217.831 82.672 C 218.091 83.012,218.509 83.815,218.759 84.456 C 219.010 85.097,219.362 85.797,219.542 86.010 C 219.722 86.224,220.017 86.982,220.198 87.694 C 220.379 88.407,220.724 89.281,220.966 89.637 C 221.208 89.994,221.606 91.211,221.852 92.342 C 222.097 93.473,222.399 94.523,222.523 94.674 C 223.712 96.129,223.730 111.355,222.543 112.824 C 222.428 112.966,222.138 114.074,221.898 115.285 C 221.659 116.496,221.256 117.895,221.004 118.394 C 220.752 118.892,220.397 119.942,220.215 120.725 C 220.034 121.509,219.677 122.500,219.423 122.927 C 219.170 123.355,218.813 124.229,218.631 124.870 C 218.449 125.512,218.104 126.328,217.865 126.684 C 217.626 127.040,217.221 127.973,216.966 128.756 C 216.710 129.540,216.357 130.415,216.181 130.699 C 216.006 130.984,215.656 131.859,215.404 132.642 C 215.152 133.426,214.797 134.301,214.614 134.585 C 214.432 134.870,214.141 135.687,213.968 136.399 C 213.795 137.111,213.448 138.108,213.196 138.613 C 212.944 139.118,212.661 139.993,212.567 140.556 C 212.474 141.119,212.124 142.222,211.791 143.005 C 211.458 143.789,211.056 145.288,210.897 146.336 C 210.738 147.385,210.378 148.928,210.095 149.765 C 209.813 150.603,209.469 152.381,209.331 153.717 C 209.192 155.053,209.015 156.313,208.936 156.517 C 208.368 157.996,207.841 167.712,208.250 169.171 C 208.389 169.670,208.637 171.069,208.800 172.280 C 209.419 176.884,209.619 177.894,210.215 179.404 C 210.552 180.259,210.911 181.367,211.013 181.865 C 211.114 182.364,211.349 182.947,211.534 183.161 C 211.719 183.374,212.077 184.190,212.329 184.974 C 212.581 185.758,212.985 186.690,213.226 187.047 C 213.468 187.403,213.884 188.066,214.151 188.521 C 216.962 193.301,221.325 198.048,225.777 201.171 C 226.775 201.871,227.661 202.543,227.746 202.664 C 227.832 202.786,228.473 203.170,229.171 203.517 C 229.869 203.865,231.023 204.492,231.736 204.910 C 232.448 205.329,233.439 205.853,233.938 206.075 C 234.437 206.296,235.427 206.763,236.140 207.112 C 236.852 207.461,237.902 207.886,238.472 208.056 C 239.041 208.227,239.914 208.582,240.411 208.846 C 240.907 209.110,241.534 209.326,241.804 209.326 C 242.073 209.326,243.474 209.674,244.916 210.099 C 246.359 210.524,248.705 210.992,250.130 211.138 C 251.554 211.284,253.303 211.512,254.016 211.645 C 255.691 211.957,264.029 211.988,264.826 211.685 C 265.162 211.557,266.773 211.311,268.405 211.139 C 270.038 210.966,271.956 210.612,272.668 210.352 C 273.381 210.091,274.488 209.749,275.130 209.590 C 276.236 209.317,278.906 208.158,280.311 207.341 C 280.667 207.133,281.483 206.720,282.124 206.421 C 282.766 206.122,283.407 205.738,283.549 205.568 C 283.692 205.397,284.100 205.064,284.456 204.828 C 285.447 204.171,288.342 201.247,288.342 200.903 C 288.342 200.735,288.576 200.387,288.862 200.128 C 292.334 196.986,292.677 187.387,289.515 181.865 C 289.311 181.509,288.845 180.693,288.480 180.052 C 288.114 179.411,287.409 178.361,286.911 177.720 C 286.414 177.079,285.788 176.081,285.521 175.502 C 285.253 174.923,284.862 174.277,284.652 174.067 C 284.442 173.857,284.013 173.165,283.700 172.529 C 283.386 171.893,282.735 170.674,282.254 169.819 C 281.185 167.920,280.830 167.159,280.826 166.758 C 280.824 166.589,280.521 165.926,280.151 165.285 C 279.782 164.644,279.312 163.481,279.107 162.702 C 278.901 161.922,278.576 161.106,278.383 160.888 C 278.191 160.671,277.786 159.191,277.485 157.602 C 277.183 156.012,276.763 154.296,276.551 153.789 C 276.101 152.711,276.007 144.536,276.427 143.005 C 276.564 142.506,276.956 141.030,277.299 139.723 C 277.641 138.417,278.226 136.705,278.598 135.918 C 278.970 135.132,279.275 134.369,279.275 134.224 C 279.275 134.079,279.569 133.527,279.929 132.997 C 280.289 132.467,280.655 131.733,280.743 131.366 C 280.831 130.999,281.166 130.233,281.488 129.663 C 281.810 129.093,282.156 128.219,282.258 127.720 C 282.359 127.222,282.662 126.324,282.932 125.725 C 283.201 125.126,283.605 123.845,283.829 122.877 C 284.054 121.910,284.345 120.988,284.477 120.830 C 284.609 120.671,285.015 118.928,285.379 116.956 C 285.743 114.985,286.091 113.291,286.153 113.191 C 287.401 111.172,287.326 88.210,286.064 85.851 C 285.916 85.575,285.666 84.423,285.509 83.291 C 285.174 80.885,284.792 79.353,284.477 79.158 C 284.354 79.082,284.051 78.174,283.802 77.140 C 283.554 76.105,283.191 75.074,282.995 74.849 C 282.800 74.623,282.463 73.842,282.246 73.112 C 282.030 72.383,281.671 71.604,281.448 71.382 C 281.226 71.160,280.933 70.575,280.797 70.082 C 280.661 69.590,280.289 68.863,279.969 68.467 C 279.649 68.070,279.161 67.309,278.884 66.775 C 278.606 66.240,278.308 65.803,278.221 65.803 C 278.134 65.803,277.942 65.538,277.794 65.213 C 276.990 63.448,268.624 54.885,267.265 54.436 C 267.102 54.382,266.705 54.098,266.383 53.805 C 266.061 53.512,265.398 53.032,264.910 52.737 C 264.421 52.443,263.227 51.672,262.257 51.025 C 261.286 50.377,260.055 49.650,259.521 49.410 C 258.986 49.169,258.549 48.867,258.549 48.740 C 258.549 48.612,258.010 48.371,257.350 48.205 C 256.691 48.039,255.787 47.630,255.343 47.296 C 254.898 46.962,254.126 46.605,253.627 46.503 C 253.128 46.401,252.196 46.048,251.554 45.719 C 250.913 45.390,249.911 45.054,249.327 44.973 C 248.743 44.892,247.636 44.548,246.866 44.209 C 246.043 43.846,244.452 43.471,243.005 43.298 C 241.652 43.136,239.845 42.876,238.990 42.722 C 236.469 42.265,229.931 42.214,227.850 42.635 M138.731 53.728 C 139.870 53.965,141.423 54.268,142.181 54.400 C 142.939 54.533,144.299 54.938,145.204 55.300 C 146.109 55.662,147.051 55.959,147.298 55.959 C 147.703 55.959,150.175 57.038,151.813 57.930 C 152.170 58.124,153.062 58.570,153.797 58.920 C 154.532 59.271,155.211 59.682,155.305 59.834 C 155.399 59.987,155.905 60.347,156.429 60.636 C 157.400 61.170,158.911 62.183,159.550 62.727 C 159.744 62.892,160.403 63.410,161.015 63.877 C 162.267 64.832,167.429 70.058,167.593 70.536 C 167.652 70.707,167.973 71.060,168.306 71.323 C 168.639 71.585,168.912 71.948,168.912 72.130 C 168.912 72.312,169.247 72.924,169.657 73.489 C 170.066 74.055,170.488 74.801,170.593 75.147 C 170.699 75.494,170.996 76.010,171.255 76.295 C 171.513 76.580,171.867 77.396,172.040 78.109 C 172.214 78.821,172.621 79.870,172.946 80.440 C 173.270 81.010,173.655 82.137,173.801 82.943 C 173.948 83.750,174.236 84.813,174.441 85.306 C 174.817 86.205,175.111 88.244,175.664 93.782 C 176.199 99.130,175.386 111.680,174.327 114.436 C 174.176 114.832,173.893 116.050,173.699 117.143 C 173.506 118.236,173.121 119.576,172.845 120.122 C 172.568 120.668,172.258 121.639,172.156 122.280 C 172.054 122.921,171.707 123.912,171.385 124.482 C 171.063 125.052,170.717 125.868,170.617 126.295 C 170.517 126.723,170.150 127.507,169.803 128.038 C 169.455 128.570,169.171 129.094,169.170 129.204 C 169.170 129.314,168.834 130.045,168.424 130.829 C 168.014 131.613,167.594 132.662,167.492 133.161 C 167.390 133.659,167.031 134.709,166.694 135.492 C 166.357 136.276,165.970 137.791,165.833 138.860 C 165.696 139.929,165.465 141.269,165.320 141.839 C 164.407 145.422,164.330 148.264,165.037 152.332 C 165.321 153.970,165.714 156.477,165.908 157.902 C 166.103 159.326,166.491 161.017,166.771 161.658 C 167.051 162.299,167.356 163.237,167.450 163.742 C 167.543 164.247,167.966 165.472,168.389 166.462 C 168.811 167.453,169.160 168.412,169.164 168.593 C 169.168 168.774,169.444 169.357,169.777 169.889 C 170.110 170.420,170.460 171.253,170.556 171.740 C 170.652 172.227,171.002 172.985,171.334 173.424 C 171.667 173.863,172.024 174.573,172.128 175.000 C 172.232 175.427,172.587 176.069,172.917 176.425 C 173.247 176.781,173.595 177.333,173.691 177.650 C 173.903 178.352,175.483 181.067,175.992 181.606 C 176.194 181.820,176.614 182.461,176.924 183.031 C 177.781 184.606,178.600 185.923,179.046 186.446 C 181.813 189.688,180.171 194.766,175.585 197.151 C 174.978 197.467,174.424 197.812,174.352 197.917 C 174.281 198.023,173.407 198.376,172.409 198.701 C 171.412 199.026,170.472 199.389,170.320 199.508 C 168.239 201.142,150.223 201.048,146.942 199.386 C 146.558 199.191,145.602 198.890,144.819 198.716 C 144.035 198.542,142.869 198.129,142.228 197.799 C 141.587 197.470,140.538 197.061,139.896 196.892 C 139.255 196.722,138.556 196.433,138.342 196.250 C 138.128 196.066,137.438 195.639,136.809 195.302 C 134.010 193.802,132.700 192.948,130.716 191.329 C 130.012 190.755,129.238 190.127,128.995 189.934 C 127.846 189.022,126.888 187.960,124.953 185.452 C 123.294 183.302,121.568 180.044,120.931 177.858 C 120.641 176.865,120.251 175.816,120.063 175.526 C 119.875 175.237,119.593 173.718,119.437 172.150 C 119.281 170.583,119.041 168.652,118.903 167.860 C 118.588 166.047,118.587 164.767,118.901 162.381 C 119.038 161.342,119.280 159.037,119.441 157.259 C 119.601 155.480,119.892 153.644,120.087 153.177 C 120.281 152.711,120.637 151.252,120.876 149.934 C 121.115 148.617,121.515 147.131,121.765 146.632 C 122.014 146.133,122.366 145.026,122.546 144.171 C 122.726 143.316,123.043 142.339,123.252 142.000 C 123.460 141.661,123.842 140.670,124.099 139.798 C 124.656 137.915,125.434 135.938,126.456 133.808 C 126.867 132.953,127.202 132.019,127.202 131.731 C 127.202 131.444,127.491 130.784,127.844 130.264 C 128.196 129.745,128.603 128.795,128.747 128.152 C 128.891 127.509,129.302 126.432,129.660 125.759 C 130.018 125.085,130.311 124.222,130.311 123.840 C 130.311 123.457,130.603 122.571,130.960 121.870 C 131.317 121.169,131.714 119.955,131.842 119.171 C 131.970 118.387,132.318 117.025,132.615 116.145 C 134.425 110.771,134.427 96.906,132.617 91.600 C 132.329 90.756,131.983 89.483,131.849 88.772 C 131.714 88.061,131.328 86.887,130.992 86.162 C 130.656 85.437,130.311 84.469,130.224 84.010 C 130.138 83.551,129.773 82.708,129.412 82.137 C 129.052 81.566,128.756 80.950,128.755 80.769 C 128.754 80.588,128.562 80.091,128.328 79.663 C 126.891 77.034,126.291 75.920,125.817 75.000 C 125.523 74.430,124.957 73.509,124.558 72.953 C 124.160 72.398,123.834 71.791,123.834 71.606 C 123.834 71.421,123.674 71.176,123.479 71.062 C 123.284 70.948,122.876 70.389,122.571 69.819 C 122.267 69.249,121.801 68.491,121.536 68.135 C 120.722 67.043,119.171 64.561,119.171 64.351 C 119.171 64.242,118.949 63.912,118.679 63.618 C 117.763 62.624,117.135 59.857,117.605 58.888 C 119.643 54.679,130.519 52.022,138.731 53.728 M238.342 53.632 C 239.696 53.916,241.615 54.267,242.608 54.413 C 243.601 54.558,244.664 54.842,244.971 55.043 C 245.279 55.244,246.233 55.591,247.092 55.814 C 247.951 56.036,249.160 56.508,249.780 56.863 C 250.400 57.217,251.082 57.509,251.295 57.511 C 251.509 57.513,252.209 57.864,252.850 58.290 C 253.491 58.716,254.212 59.066,254.453 59.066 C 254.693 59.067,255.273 59.417,255.741 59.845 C 256.209 60.272,256.723 60.622,256.883 60.622 C 257.044 60.622,257.455 60.869,257.797 61.170 C 258.140 61.472,258.829 61.981,259.330 62.301 C 259.831 62.621,260.399 63.074,260.593 63.307 C 260.786 63.540,261.076 63.733,261.236 63.735 C 261.955 63.746,269.468 71.911,269.814 73.057 C 269.921 73.413,270.161 73.880,270.346 74.093 C 270.902 74.734,272.737 78.564,272.926 79.476 C 273.022 79.943,273.368 80.817,273.695 81.419 C 274.021 82.021,274.429 83.426,274.602 84.543 C 274.774 85.659,275.068 86.941,275.254 87.392 C 276.516 90.448,276.453 106.943,275.160 112.088 C 274.879 113.205,274.567 114.808,274.466 115.650 C 274.365 116.493,274.020 117.833,273.699 118.630 C 273.378 119.426,273.033 120.602,272.932 121.244 C 272.831 121.885,272.478 122.902,272.147 123.503 C 271.817 124.105,271.468 124.980,271.371 125.446 C 271.275 125.913,270.932 126.705,270.609 127.205 C 270.286 127.706,269.935 128.406,269.830 128.760 C 269.724 129.114,269.366 129.812,269.034 130.311 C 268.702 130.810,268.348 131.668,268.248 132.218 C 268.148 132.768,267.801 133.700,267.478 134.290 C 267.154 134.880,266.806 136.004,266.704 136.788 C 266.603 137.571,266.230 139.203,265.876 140.415 C 264.899 143.753,264.895 151.720,265.868 155.699 C 266.234 157.196,266.618 159.112,266.722 159.958 C 266.826 160.805,267.179 162.101,267.505 162.840 C 267.832 163.578,268.178 164.634,268.275 165.187 C 268.372 165.740,268.730 166.679,269.070 167.274 C 269.411 167.869,269.689 168.496,269.689 168.666 C 269.689 169.033,271.358 172.901,271.919 173.834 C 272.133 174.190,272.487 174.882,272.706 175.372 C 272.925 175.862,273.372 176.620,273.698 177.056 C 274.025 177.493,274.378 178.141,274.482 178.497 C 274.587 178.854,274.862 179.360,275.092 179.622 C 275.531 180.121,276.505 181.737,277.499 183.614 C 277.820 184.220,278.174 184.715,278.286 184.715 C 278.397 184.715,278.811 185.314,279.205 186.045 C 279.600 186.777,280.090 187.680,280.296 188.053 C 280.790 188.951,280.959 191.437,280.600 192.524 C 280.235 193.629,277.160 196.891,276.484 196.891 C 276.349 196.891,275.794 197.193,275.251 197.561 C 274.709 197.929,273.497 198.466,272.560 198.754 C 271.622 199.042,270.723 199.384,270.563 199.515 C 268.555 201.145,249.965 201.042,247.346 199.385 C 247.025 199.182,245.923 198.829,244.899 198.601 C 243.874 198.374,242.650 197.967,242.179 197.697 C 241.707 197.428,240.855 197.063,240.285 196.887 C 239.715 196.711,239.074 196.428,238.860 196.259 C 238.646 196.090,237.976 195.738,237.370 195.476 C 236.765 195.213,236.269 194.908,236.269 194.797 C 236.269 194.686,236.047 194.524,235.774 194.437 C 234.984 194.187,231.896 192.085,230.343 190.741 C 226.929 187.787,225.144 185.637,223.295 182.254 C 222.983 181.684,222.625 181.151,222.499 181.070 C 222.373 180.988,222.050 180.172,221.782 179.256 C 221.514 178.340,221.117 177.241,220.901 176.813 C 220.497 176.017,220.336 175.248,219.432 169.777 C 218.716 165.441,218.755 163.666,219.683 158.420 C 219.809 157.707,220.106 155.784,220.343 154.145 C 220.580 152.506,220.876 151.042,221.000 150.891 C 221.124 150.739,221.418 149.632,221.654 148.430 C 221.889 147.227,222.239 145.991,222.431 145.683 C 222.624 145.374,222.975 144.325,223.211 143.351 C 223.447 142.377,223.802 141.321,223.998 141.004 C 224.195 140.687,224.527 139.768,224.737 138.962 C 224.947 138.155,225.342 137.117,225.615 136.655 C 225.888 136.193,226.196 135.422,226.301 134.941 C 226.406 134.461,226.827 133.439,227.236 132.671 C 227.645 131.903,227.979 131.114,227.979 130.917 C 227.979 130.721,228.329 129.905,228.756 129.104 C 229.184 128.303,229.534 127.364,229.534 127.017 C 229.534 126.671,229.819 125.901,230.168 125.305 C 230.517 124.710,230.883 123.698,230.982 123.057 C 231.081 122.416,231.423 121.367,231.743 120.725 C 232.063 120.084,232.451 118.742,232.606 117.743 C 232.761 116.744,233.130 115.228,233.426 114.375 C 234.703 110.698,234.689 97.806,233.403 93.394 C 233.112 92.396,232.759 90.897,232.619 90.062 C 232.478 89.226,232.076 87.977,231.725 87.285 C 231.375 86.594,231.088 85.749,231.088 85.408 C 231.088 85.067,230.756 84.160,230.350 83.391 C 229.943 82.623,229.531 81.665,229.433 81.261 C 229.334 80.857,228.967 80.073,228.617 79.517 C 228.266 78.962,227.979 78.431,227.979 78.337 C 227.979 78.243,227.645 77.622,227.236 76.957 C 226.827 76.293,226.409 75.489,226.309 75.172 C 226.208 74.854,225.843 74.290,225.498 73.918 C 225.153 73.545,224.870 73.092,224.870 72.910 C 224.870 72.728,224.605 72.249,224.281 71.846 C 223.957 71.444,223.523 70.764,223.316 70.337 C 223.109 69.909,222.704 69.254,222.416 68.880 C 222.127 68.506,221.658 67.815,221.373 67.345 C 221.088 66.875,220.478 65.899,220.018 65.175 C 219.558 64.452,219.000 63.452,218.778 62.953 C 218.557 62.455,218.139 61.552,217.850 60.948 C 217.347 59.898,217.361 59.689,217.994 58.829 C 218.500 58.140,220.831 55.959,221.060 55.959 C 221.185 55.959,222.007 55.619,222.885 55.204 C 223.763 54.789,225.181 54.309,226.036 54.137 C 226.891 53.966,228.115 53.676,228.756 53.494 C 230.621 52.964,235.494 53.034,238.342 53.632 " stroke="none" fill="#683196" fill-rule="evenodd"></path><path id="path1" d="M0.000 129.534 L 0.000 259.067 200.000 259.067 L 400.000 259.067 400.000 129.534 L 400.000 0.000 200.000 0.000 L 0.000 0.000 0.000 129.534 M139.611 42.878 C 141.663 43.233,143.703 43.526,144.145 43.529 C 144.587 43.533,145.648 43.825,146.503 44.180 C 147.358 44.534,148.523 44.900,149.093 44.993 C 149.663 45.087,150.829 45.493,151.684 45.897 C 152.539 46.301,153.415 46.632,153.632 46.632 C 153.848 46.632,154.436 46.911,154.938 47.253 C 155.441 47.594,156.300 47.997,156.849 48.149 C 157.397 48.300,158.091 48.648,158.392 48.921 C 158.692 49.194,159.358 49.552,159.871 49.717 C 160.385 49.881,161.075 50.303,161.406 50.655 C 161.737 51.007,162.106 51.295,162.228 51.295 C 162.478 51.295,164.828 52.823,165.803 53.620 C 172.064 58.736,172.999 59.559,173.691 60.560 C 174.012 61.025,174.671 61.842,175.156 62.376 C 176.658 64.032,177.883 65.635,178.368 66.580 C 178.624 67.079,179.098 67.837,179.422 68.264 C 179.746 68.692,180.091 69.362,180.189 69.754 C 180.287 70.146,180.453 70.466,180.559 70.466 C 180.664 70.466,180.950 70.962,181.195 71.567 C 181.440 72.173,181.916 73.208,182.253 73.868 C 182.590 74.527,182.947 75.518,183.046 76.070 C 183.145 76.621,183.497 77.655,183.827 78.368 C 184.158 79.080,184.557 80.475,184.715 81.467 C 184.873 82.459,185.111 83.403,185.246 83.564 C 185.629 84.026,186.259 88.024,186.265 90.026 C 186.267 91.023,186.444 92.753,186.658 93.870 C 187.109 96.229,187.184 102.713,186.772 103.796 C 186.622 104.193,186.386 106.270,186.249 108.411 C 185.968 112.801,185.677 114.975,185.266 115.743 C 185.111 116.031,184.815 117.321,184.606 118.609 C 184.398 119.897,184.053 121.289,183.839 121.702 C 183.626 122.115,183.264 123.257,183.036 124.241 C 182.808 125.225,182.468 126.264,182.280 126.551 C 182.093 126.838,181.751 127.714,181.522 128.497 C 181.292 129.281,180.518 131.085,179.801 132.505 C 179.084 133.926,178.497 135.218,178.497 135.376 C 178.497 135.534,178.205 136.237,177.848 136.938 C 176.465 139.652,175.005 148.765,175.685 150.437 C 175.849 150.838,176.076 151.807,176.190 152.591 C 176.788 156.687,177.194 158.877,177.405 159.151 C 177.646 159.462,178.291 161.419,178.617 162.824 C 178.716 163.251,178.947 163.776,179.130 163.990 C 179.313 164.203,179.678 164.961,179.941 165.674 C 180.204 166.386,180.615 167.319,180.855 167.746 C 181.094 168.174,181.429 168.960,181.598 169.495 C 181.767 170.029,182.019 170.466,182.159 170.466 C 182.298 170.466,182.705 171.078,183.064 171.826 C 183.660 173.070,184.152 173.948,185.622 176.390 C 185.907 176.864,186.460 177.664,186.852 178.169 C 187.244 178.674,187.565 179.178,187.565 179.290 C 187.565 179.402,187.840 179.823,188.177 180.226 C 188.514 180.629,188.880 181.248,188.991 181.603 C 189.102 181.957,189.466 182.659,189.799 183.163 C 190.133 183.667,190.523 184.660,190.666 185.369 C 190.809 186.078,191.041 187.124,191.182 187.694 C 192.138 191.559,190.730 197.438,188.065 200.718 C 187.719 201.145,187.144 201.862,186.788 202.314 C 186.431 202.765,185.499 203.624,184.715 204.222 C 183.931 204.821,183.174 205.446,183.031 205.611 C 182.889 205.776,182.225 206.154,181.557 206.452 C 180.889 206.750,180.281 207.093,180.206 207.215 C 180.130 207.337,179.511 207.646,178.830 207.903 C 178.148 208.161,177.313 208.586,176.973 208.849 C 176.633 209.111,176.126 209.326,175.845 209.326 C 175.565 209.326,174.306 209.671,173.047 210.093 C 171.673 210.553,169.691 210.970,168.087 211.137 C 166.617 211.289,164.948 211.524,164.378 211.659 C 162.763 212.042,154.967 211.972,152.931 211.557 C 151.960 211.359,150.175 211.118,148.964 211.021 C 147.745 210.924,146.003 210.575,145.062 210.239 C 144.127 209.905,142.789 209.546,142.089 209.441 C 141.389 209.336,140.301 208.976,139.670 208.641 C 139.040 208.305,138.349 208.031,138.136 208.031 C 137.529 208.031,130.560 204.691,129.793 204.032 C 129.579 203.849,128.909 203.485,128.303 203.224 C 127.698 202.963,127.202 202.665,127.202 202.562 C 127.202 202.459,126.765 202.110,126.231 201.787 C 125.696 201.464,124.896 200.901,124.452 200.535 C 124.009 200.170,123.269 199.579,122.808 199.223 C 121.757 198.411,118.135 194.868,118.135 194.653 C 118.135 194.565,117.721 194.035,117.216 193.476 C 116.711 192.917,116.168 192.174,116.009 191.825 C 115.850 191.477,115.624 191.192,115.508 191.192 C 115.391 191.192,115.044 190.696,114.737 190.091 C 114.430 189.485,114.093 188.931,113.989 188.860 C 113.884 188.789,113.494 188.127,113.122 187.389 C 112.750 186.651,112.340 185.982,112.210 185.902 C 112.081 185.822,111.896 185.329,111.797 184.806 C 111.699 184.283,111.278 183.216,110.861 182.435 C 110.445 181.654,110.104 180.747,110.104 180.419 C 110.104 180.092,109.800 178.982,109.429 177.954 C 107.593 172.864,107.539 156.271,109.342 151.302 C 109.628 150.515,110.020 148.880,110.214 147.668 C 110.408 146.457,110.807 144.767,111.100 143.912 C 111.919 141.526,112.421 139.968,113.145 137.565 C 113.509 136.354,113.894 135.304,113.999 135.233 C 114.105 135.162,114.440 134.263,114.746 133.236 C 115.051 132.209,115.405 131.304,115.532 131.225 C 115.659 131.146,115.962 130.471,116.204 129.725 C 116.446 128.979,116.853 128.018,117.107 127.591 C 117.362 127.163,117.764 126.143,118.001 125.324 C 118.237 124.505,118.518 123.834,118.624 123.834 C 118.730 123.834,119.023 123.164,119.274 122.345 C 119.526 121.525,120.002 120.155,120.333 119.301 C 120.664 118.446,121.075 117.047,121.246 116.192 C 121.418 115.337,121.650 114.521,121.762 114.378 C 123.387 112.303,123.477 96.883,121.882 93.686 C 121.666 93.253,121.313 92.137,121.097 91.206 C 120.881 90.276,120.525 89.240,120.306 88.906 C 120.086 88.571,119.730 87.695,119.514 86.960 C 119.297 86.224,118.967 85.447,118.779 85.233 C 118.591 85.019,118.235 84.320,117.987 83.679 C 117.739 83.038,117.393 82.338,117.218 82.124 C 117.043 81.911,116.637 81.211,116.317 80.570 C 115.996 79.929,115.649 79.346,115.545 79.275 C 115.442 79.203,115.149 78.737,114.895 78.238 C 114.640 77.740,114.100 76.926,113.693 76.431 C 113.286 75.935,112.953 75.427,112.953 75.302 C 112.953 75.177,112.662 74.728,112.306 74.305 C 111.949 73.882,111.655 73.399,111.651 73.231 C 111.647 73.064,111.297 72.470,110.874 71.910 C 110.450 71.350,110.104 70.789,110.104 70.662 C 110.104 70.535,109.828 70.061,109.492 69.607 C 109.155 69.153,108.751 68.398,108.594 67.929 C 108.438 67.460,108.085 66.760,107.812 66.375 C 107.331 65.697,106.218 60.791,106.218 59.349 C 106.218 58.036,107.309 54.277,107.930 53.450 C 108.271 52.996,108.549 52.513,108.549 52.376 C 108.549 51.902,112.028 48.202,112.484 48.191 C 112.582 48.189,113.036 47.845,113.493 47.428 C 113.949 47.011,114.595 46.601,114.927 46.518 C 115.259 46.435,115.943 46.087,116.448 45.744 C 116.952 45.402,117.829 45.044,118.396 44.948 C 118.963 44.852,119.498 44.660,119.583 44.521 C 119.845 44.098,121.002 43.751,123.446 43.363 C 127.843 42.665,128.848 42.482,128.975 42.355 C 129.382 41.948,136.168 42.282,139.611 42.878 M238.990 42.722 C 239.845 42.876,241.652 43.136,243.005 43.298 C 244.452 43.471,246.043 43.846,246.866 44.209 C 247.636 44.548,248.743 44.892,249.327 44.973 C 249.911 45.054,250.913 45.390,251.554 45.719 C 252.196 46.048,253.128 46.401,253.627 46.503 C 254.126 46.605,254.898 46.962,255.343 47.296 C 255.787 47.630,256.691 48.039,257.350 48.205 C 258.010 48.371,258.549 48.612,258.549 48.740 C 258.549 48.867,258.986 49.169,259.521 49.410 C 260.055 49.650,261.286 50.377,262.257 51.025 C 263.227 51.672,264.421 52.443,264.910 52.737 C 265.398 53.032,266.061 53.512,266.383 53.805 C 266.705 54.098,267.102 54.382,267.265 54.436 C 268.624 54.885,276.990 63.448,277.794 65.213 C 277.942 65.538,278.134 65.803,278.221 65.803 C 278.308 65.803,278.606 66.240,278.884 66.775 C 279.161 67.309,279.649 68.070,279.969 68.467 C 280.289 68.863,280.661 69.590,280.797 70.082 C 280.933 70.575,281.226 71.160,281.448 71.382 C 281.671 71.604,282.030 72.383,282.246 73.112 C 282.463 73.842,282.800 74.623,282.995 74.849 C 283.191 75.074,283.554 76.105,283.802 77.140 C 284.051 78.174,284.354 79.082,284.477 79.158 C 284.792 79.353,285.174 80.885,285.509 83.291 C 285.666 84.423,285.916 85.575,286.064 85.851 C 287.326 88.210,287.401 111.172,286.153 113.191 C 286.091 113.291,285.743 114.985,285.379 116.956 C 285.015 118.928,284.609 120.671,284.477 120.830 C 284.345 120.988,284.054 121.910,283.829 122.877 C 283.605 123.845,283.201 125.126,282.932 125.725 C 282.662 126.324,282.359 127.222,282.258 127.720 C 282.156 128.219,281.810 129.093,281.488 129.663 C 281.166 130.233,280.831 130.999,280.743 131.366 C 280.655 131.733,280.289 132.467,279.929 132.997 C 279.569 133.527,279.275 134.079,279.275 134.224 C 279.275 134.369,278.970 135.132,278.598 135.918 C 278.226 136.705,277.641 138.417,277.299 139.723 C 276.956 141.030,276.564 142.506,276.427 143.005 C 276.007 144.536,276.101 152.711,276.551 153.789 C 276.763 154.296,277.183 156.012,277.485 157.602 C 277.786 159.191,278.191 160.671,278.383 160.888 C 278.576 161.106,278.901 161.922,279.107 162.702 C 279.312 163.481,279.782 164.644,280.151 165.285 C 280.521 165.926,280.824 166.589,280.826 166.758 C 280.830 167.159,281.185 167.920,282.254 169.819 C 282.735 170.674,283.386 171.893,283.700 172.529 C 284.013 173.165,284.442 173.857,284.652 174.067 C 284.862 174.277,285.253 174.923,285.521 175.502 C 285.788 176.081,286.414 177.079,286.911 177.720 C 287.409 178.361,288.114 179.411,288.480 180.052 C 288.845 180.693,289.311 181.509,289.515 181.865 C 292.677 187.387,292.334 196.986,288.862 200.128 C 288.576 200.387,288.342 200.735,288.342 200.903 C 288.342 201.247,285.447 204.171,284.456 204.828 C 284.100 205.064,283.692 205.397,283.549 205.568 C 283.407 205.738,282.766 206.122,282.124 206.421 C 281.483 206.720,280.667 207.133,280.311 207.341 C 278.906 208.158,276.236 209.317,275.130 209.590 C 274.488 209.749,273.381 210.091,272.668 210.352 C 271.956 210.612,270.038 210.966,268.405 211.139 C 266.773 211.311,265.162 211.557,264.826 211.685 C 264.029 211.988,255.691 211.957,254.016 211.645 C 253.303 211.512,251.554 211.284,250.130 211.138 C 248.705 210.992,246.359 210.524,244.916 210.099 C 243.474 209.674,242.073 209.326,241.804 209.326 C 241.534 209.326,240.907 209.110,240.411 208.846 C 239.914 208.582,239.041 208.227,238.472 208.056 C 237.902 207.886,236.852 207.461,236.140 207.112 C 235.427 206.763,234.437 206.296,233.938 206.075 C 233.439 205.853,232.448 205.329,231.736 204.910 C 231.023 204.492,229.869 203.865,229.171 203.517 C 228.473 203.170,227.832 202.786,227.746 202.664 C 227.661 202.543,226.775 201.871,225.777 201.171 C 221.325 198.048,216.962 193.301,214.151 188.521 C 213.884 188.066,213.468 187.403,213.226 187.047 C 212.985 186.690,212.581 185.758,212.329 184.974 C 212.077 184.190,211.719 183.374,211.534 183.161 C 211.349 182.947,211.114 182.364,211.013 181.865 C 210.911 181.367,210.552 180.259,210.215 179.404 C 209.619 177.894,209.419 176.884,208.800 172.280 C 208.637 171.069,208.389 169.670,208.250 169.171 C 207.841 167.712,208.368 157.996,208.936 156.517 C 209.015 156.313,209.192 155.053,209.331 153.717 C 209.469 152.381,209.813 150.603,210.095 149.765 C 210.378 148.928,210.738 147.385,210.897 146.336 C 211.056 145.288,211.458 143.789,211.791 143.005 C 212.124 142.222,212.474 141.119,212.567 140.556 C 212.661 139.993,212.944 139.118,213.196 138.613 C 213.448 138.108,213.795 137.111,213.968 136.399 C 214.141 135.687,214.432 134.870,214.614 134.585 C 214.797 134.301,215.152 133.426,215.404 132.642 C 215.656 131.859,216.006 130.984,216.181 130.699 C 216.357 130.415,216.710 129.540,216.966 128.756 C 217.221 127.973,217.626 127.040,217.865 126.684 C 218.104 126.328,218.449 125.512,218.631 124.870 C 218.813 124.229,219.170 123.355,219.423 122.927 C 219.677 122.500,220.034 121.509,220.215 120.725 C 220.397 119.942,220.752 118.892,221.004 118.394 C 221.256 117.895,221.659 116.496,221.898 115.285 C 222.138 114.074,222.428 112.966,222.543 112.824 C 223.730 111.355,223.712 96.129,222.523 94.674 C 222.399 94.523,222.097 93.473,221.852 92.342 C 221.606 91.211,221.208 89.994,220.966 89.637 C 220.724 89.281,220.379 88.407,220.198 87.694 C 220.017 86.982,219.722 86.224,219.542 86.010 C 219.362 85.797,219.010 85.097,218.759 84.456 C 218.509 83.815,218.091 83.012,217.831 82.672 C 217.570 82.333,217.358 81.913,217.358 81.740 C 217.358 81.567,217.037 80.968,216.645 80.409 C 216.253 79.851,215.710 78.959,215.438 78.428 C 215.167 77.896,214.854 77.461,214.744 77.461 C 214.634 77.461,214.282 76.937,213.962 76.295 C 213.642 75.654,213.298 75.130,213.198 75.130 C 213.098 75.130,212.870 74.776,212.691 74.344 C 212.512 73.912,212.032 73.138,211.623 72.625 C 211.215 72.111,210.881 71.541,210.881 71.357 C 210.881 71.174,210.608 70.695,210.275 70.292 C 209.941 69.889,209.537 69.176,209.377 68.706 C 209.217 68.237,208.853 67.525,208.568 67.125 C 208.284 66.725,207.931 65.863,207.784 65.210 C 207.638 64.556,207.284 63.427,206.997 62.700 C 206.306 60.947,206.305 58.305,206.995 56.785 C 207.273 56.172,207.631 55.187,207.790 54.597 C 208.412 52.287,212.540 47.922,215.400 46.551 C 215.978 46.274,216.760 45.829,217.138 45.563 C 217.517 45.296,218.030 45.078,218.279 45.078 C 218.528 45.078,219.372 44.775,220.153 44.406 C 220.935 44.036,222.578 43.569,223.805 43.368 C 225.032 43.166,226.852 42.837,227.850 42.635 C 229.931 42.214,236.469 42.265,238.990 42.722 M126.631 53.880 C 121.955 55.004,118.579 56.877,117.605 58.888 C 117.135 59.857,117.763 62.624,118.679 63.618 C 118.949 63.912,119.171 64.242,119.171 64.351 C 119.171 64.561,120.722 67.043,121.536 68.135 C 121.801 68.491,122.267 69.249,122.571 69.819 C 122.876 70.389,123.284 70.948,123.479 71.062 C 123.674 71.176,123.834 71.421,123.834 71.606 C 123.834 71.791,124.160 72.398,124.558 72.953 C 124.957 73.509,125.523 74.430,125.817 75.000 C 126.291 75.920,126.891 77.034,128.328 79.663 C 128.562 80.091,128.754 80.588,128.755 80.769 C 128.756 80.950,129.052 81.566,129.412 82.137 C 129.773 82.708,130.138 83.551,130.224 84.010 C 130.311 84.469,130.656 85.437,130.992 86.162 C 131.328 86.887,131.714 88.061,131.849 88.772 C 131.983 89.483,132.329 90.756,132.617 91.600 C 134.427 96.906,134.425 110.771,132.615 116.145 C 132.318 117.025,131.970 118.387,131.842 119.171 C 131.714 119.955,131.317 121.169,130.960 121.870 C 130.603 122.571,130.311 123.457,130.311 123.840 C 130.311 124.222,130.018 125.085,129.660 125.759 C 129.302 126.432,128.891 127.509,128.747 128.152 C 128.603 128.795,128.196 129.745,127.844 130.264 C 127.491 130.784,127.202 131.444,127.202 131.731 C 127.202 132.019,126.867 132.953,126.456 133.808 C 125.434 135.938,124.656 137.915,124.099 139.798 C 123.842 140.670,123.460 141.661,123.252 142.000 C 123.043 142.339,122.726 143.316,122.546 144.171 C 122.366 145.026,122.014 146.133,121.765 146.632 C 121.515 147.131,121.115 148.617,120.876 149.934 C 120.637 151.252,120.281 152.711,120.087 153.177 C 119.892 153.644,119.601 155.480,119.441 157.259 C 119.280 159.037,119.038 161.342,118.901 162.381 C 118.587 164.767,118.588 166.047,118.903 167.860 C 119.041 168.652,119.281 170.583,119.437 172.150 C 119.593 173.718,119.875 175.237,120.063 175.526 C 120.251 175.816,120.641 176.865,120.931 177.858 C 121.568 180.044,123.294 183.302,124.953 185.452 C 126.888 187.960,127.846 189.022,128.995 189.934 C 129.238 190.127,130.012 190.755,130.716 191.329 C 132.700 192.948,134.010 193.802,136.809 195.302 C 137.438 195.639,138.128 196.066,138.342 196.250 C 138.556 196.433,139.255 196.722,139.896 196.892 C 140.538 197.061,141.587 197.470,142.228 197.799 C 142.869 198.129,144.035 198.542,144.819 198.716 C 145.602 198.890,146.558 199.191,146.942 199.386 C 150.223 201.048,168.239 201.142,170.320 199.508 C 170.472 199.389,171.412 199.026,172.409 198.701 C 173.407 198.376,174.281 198.023,174.352 197.917 C 174.424 197.812,174.978 197.467,175.585 197.151 C 180.171 194.766,181.813 189.688,179.046 186.446 C 178.600 185.923,177.781 184.606,176.924 183.031 C 176.614 182.461,176.194 181.820,175.992 181.606 C 175.483 181.067,173.903 178.352,173.691 177.650 C 173.595 177.333,173.247 176.781,172.917 176.425 C 172.587 176.069,172.232 175.427,172.128 175.000 C 172.024 174.573,171.667 173.863,171.334 173.424 C 171.002 172.985,170.652 172.227,170.556 171.740 C 170.460 171.253,170.110 170.420,169.777 169.889 C 169.444 169.357,169.168 168.774,169.164 168.593 C 169.160 168.412,168.811 167.453,168.389 166.462 C 167.966 165.472,167.543 164.247,167.450 163.742 C 167.356 163.237,167.051 162.299,166.771 161.658 C 166.491 161.017,166.103 159.326,165.908 157.902 C 165.714 156.477,165.321 153.970,165.037 152.332 C 164.330 148.264,164.407 145.422,165.320 141.839 C 165.465 141.269,165.696 139.929,165.833 138.860 C 165.970 137.791,166.357 136.276,166.694 135.492 C 167.031 134.709,167.390 133.659,167.492 133.161 C 167.594 132.662,168.014 131.613,168.424 130.829 C 168.834 130.045,169.170 129.314,169.170 129.204 C 169.171 129.094,169.455 128.570,169.803 128.038 C 170.150 127.507,170.517 126.723,170.617 126.295 C 170.717 125.868,171.063 125.052,171.385 124.482 C 171.707 123.912,172.054 122.921,172.156 122.280 C 172.258 121.639,172.568 120.668,172.845 120.122 C 173.121 119.576,173.506 118.236,173.699 117.143 C 173.893 116.050,174.176 114.832,174.327 114.436 C 175.386 111.680,176.199 99.130,175.664 93.782 C 175.111 88.244,174.817 86.205,174.441 85.306 C 174.236 84.813,173.948 83.750,173.801 82.943 C 173.655 82.137,173.270 81.010,172.946 80.440 C 172.621 79.870,172.214 78.821,172.040 78.109 C 171.867 77.396,171.513 76.580,171.255 76.295 C 170.996 76.010,170.699 75.494,170.593 75.147 C 170.488 74.801,170.066 74.055,169.657 73.489 C 169.247 72.924,168.912 72.312,168.912 72.130 C 168.912 71.948,168.639 71.585,168.306 71.323 C 167.973 71.060,167.652 70.707,167.593 70.536 C 167.429 70.058,162.267 64.832,161.015 63.877 C 160.403 63.410,159.744 62.892,159.550 62.727 C 158.911 62.183,157.400 61.170,156.429 60.636 C 155.905 60.347,155.399 59.987,155.305 59.834 C 155.211 59.682,154.532 59.271,153.797 58.920 C 153.062 58.570,152.170 58.124,151.813 57.930 C 150.175 57.038,147.703 55.959,147.298 55.959 C 147.051 55.959,146.109 55.662,145.204 55.300 C 144.299 54.938,142.939 54.533,142.181 54.400 C 141.423 54.268,139.870 53.965,138.731 53.728 C 135.049 52.963,130.192 53.024,126.631 53.880 M228.756 53.494 C 228.115 53.676,226.891 53.966,226.036 54.137 C 225.181 54.309,223.763 54.789,222.885 55.204 C 222.007 55.619,221.185 55.959,221.060 55.959 C 220.831 55.959,218.500 58.140,217.994 58.829 C 217.361 59.689,217.347 59.898,217.850 60.948 C 218.139 61.552,218.557 62.455,218.778 62.953 C 219.000 63.452,219.558 64.452,220.018 65.175 C 220.478 65.899,221.088 66.875,221.373 67.345 C 221.658 67.815,222.127 68.506,222.416 68.880 C 222.704 69.254,223.109 69.909,223.316 70.337 C 223.523 70.764,223.957 71.444,224.281 71.846 C 224.605 72.249,224.870 72.728,224.870 72.910 C 224.870 73.092,225.153 73.545,225.498 73.918 C 225.843 74.290,226.208 74.854,226.309 75.172 C 226.409 75.489,226.827 76.293,227.236 76.957 C 227.645 77.622,227.979 78.243,227.979 78.337 C 227.979 78.431,228.266 78.962,228.617 79.517 C 228.967 80.073,229.334 80.857,229.433 81.261 C 229.531 81.665,229.943 82.623,230.350 83.391 C 230.756 84.160,231.088 85.067,231.088 85.408 C 231.088 85.749,231.375 86.594,231.725 87.285 C 232.076 87.977,232.478 89.226,232.619 90.062 C 232.759 90.897,233.112 92.396,233.403 93.394 C 234.689 97.806,234.703 110.698,233.426 114.375 C 233.130 115.228,232.761 116.744,232.606 117.743 C 232.451 118.742,232.063 120.084,231.743 120.725 C 231.423 121.367,231.081 122.416,230.982 123.057 C 230.883 123.698,230.517 124.710,230.168 125.305 C 229.819 125.901,229.534 126.671,229.534 127.017 C 229.534 127.364,229.184 128.303,228.756 129.104 C 228.329 129.905,227.979 130.721,227.979 130.917 C 227.979 131.114,227.645 131.903,227.236 132.671 C 226.827 133.439,226.406 134.461,226.301 134.941 C 226.196 135.422,225.888 136.193,225.615 136.655 C 225.342 137.117,224.947 138.155,224.737 138.962 C 224.527 139.768,224.195 140.687,223.998 141.004 C 223.802 141.321,223.447 142.377,223.211 143.351 C 222.975 144.325,222.624 145.374,222.431 145.683 C 222.239 145.991,221.889 147.227,221.654 148.430 C 221.418 149.632,221.124 150.739,221.000 150.891 C 220.876 151.042,220.580 152.506,220.343 154.145 C 220.106 155.784,219.809 157.707,219.683 158.420 C 218.755 163.666,218.716 165.441,219.432 169.777 C 220.336 175.248,220.497 176.017,220.901 176.813 C 221.117 177.241,221.514 178.340,221.782 179.256 C 222.050 180.172,222.373 180.988,222.499 181.070 C 222.625 181.151,222.983 181.684,223.295 182.254 C 225.144 185.637,226.929 187.787,230.343 190.741 C 231.896 192.085,234.984 194.187,235.774 194.437 C 236.047 194.524,236.269 194.686,236.269 194.797 C 236.269 194.908,236.765 195.213,237.370 195.476 C 237.976 195.738,238.646 196.090,238.860 196.259 C 239.074 196.428,239.715 196.711,240.285 196.887 C 240.855 197.063,241.707 197.428,242.179 197.697 C 242.650 197.967,243.874 198.374,244.899 198.601 C 245.923 198.829,247.025 199.182,247.346 199.385 C 249.965 201.042,268.555 201.145,270.563 199.515 C 270.723 199.384,271.622 199.042,272.560 198.754 C 273.497 198.466,274.709 197.929,275.251 197.561 C 275.794 197.193,276.349 196.891,276.484 196.891 C 277.160 196.891,280.235 193.629,280.600 192.524 C 280.959 191.437,280.790 188.951,280.296 188.053 C 280.090 187.680,279.600 186.777,279.205 186.045 C 278.811 185.314,278.397 184.715,278.286 184.715 C 278.174 184.715,277.820 184.220,277.499 183.614 C 276.505 181.737,275.531 180.121,275.092 179.622 C 274.862 179.360,274.587 178.854,274.482 178.497 C 274.378 178.141,274.025 177.493,273.698 177.056 C 273.372 176.620,272.925 175.862,272.706 175.372 C 272.487 174.882,272.133 174.190,271.919 173.834 C 271.358 172.901,269.689 169.033,269.689 168.666 C 269.689 168.496,269.411 167.869,269.070 167.274 C 268.730 166.679,268.372 165.740,268.275 165.187 C 268.178 164.634,267.832 163.578,267.505 162.840 C 267.179 162.101,266.826 160.805,266.722 159.958 C 266.618 159.112,266.234 157.196,265.868 155.699 C 264.895 151.720,264.899 143.753,265.876 140.415 C 266.230 139.203,266.603 137.571,266.704 136.788 C 266.806 136.004,267.154 134.880,267.478 134.290 C 267.801 133.700,268.148 132.768,268.248 132.218 C 268.348 131.668,268.702 130.810,269.034 130.311 C 269.366 129.812,269.724 129.114,269.830 128.760 C 269.935 128.406,270.286 127.706,270.609 127.205 C 270.932 126.705,271.275 125.913,271.371 125.446 C 271.468 124.980,271.817 124.105,272.147 123.503 C 272.478 122.902,272.831 121.885,272.932 121.244 C 273.033 120.602,273.378 119.426,273.699 118.630 C 274.020 117.833,274.365 116.493,274.466 115.650 C 274.567 114.808,274.879 113.205,275.160 112.088 C 276.453 106.943,276.516 90.448,275.254 87.392 C 275.068 86.941,274.774 85.659,274.602 84.543 C 274.429 83.426,274.021 82.021,273.695 81.419 C 273.368 80.817,273.022 79.943,272.926 79.476 C 272.737 78.564,270.902 74.734,270.346 74.093 C 270.161 73.880,269.921 73.413,269.814 73.057 C 269.468 71.911,261.955 63.746,261.236 63.735 C 261.076 63.733,260.786 63.540,260.593 63.307 C 260.399 63.074,259.831 62.621,259.330 62.301 C 258.829 61.981,258.140 61.472,257.797 61.170 C 257.455 60.869,257.044 60.622,256.883 60.622 C 256.723 60.622,256.209 60.272,255.741 59.845 C 255.273 59.417,254.693 59.067,254.453 59.066 C 254.212 59.066,253.491 58.716,252.850 58.290 C 252.209 57.864,251.509 57.513,251.295 57.511 C 251.082 57.509,250.400 57.217,249.780 56.863 C 249.160 56.508,247.951 56.036,247.092 55.814 C 246.233 55.591,245.279 55.244,244.971 55.043 C 244.664 54.842,243.601 54.558,242.608 54.413 C 241.615 54.267,239.696 53.916,238.342 53.632 C 235.494 53.034,230.621 52.964,228.756 53.494 " stroke="none" fill="#fcfcfc" fill-rule="evenodd"></path></g></svg>