<svg id="svg" version="1.1" xmlns="http://www.w3.org/2000/svg" xmlns:xlink="http://www.w3.org/1999/xlink" width="400" height="258.91472868217056" viewBox="0, 0, 400,258.91472868217056"><g id="svgg"><path id="path0" d="M77.119 42.221 C 75.720 42.336,74.088 42.608,73.493 42.825 C 72.897 43.042,71.691 43.339,70.813 43.484 C 69.934 43.630,68.734 43.981,68.146 44.265 C 67.558 44.550,66.702 44.862,66.245 44.958 C 65.788 45.055,65.065 45.395,64.637 45.714 C 64.210 46.032,63.423 46.499,62.889 46.751 C 62.354 47.003,61.917 47.309,61.917 47.431 C 61.917 47.552,61.615 47.810,61.246 48.003 C 60.392 48.451,57.254 51.554,57.254 51.951 C 57.254 52.116,57.029 52.455,56.754 52.704 C 56.210 53.196,54.988 56.701,54.747 58.459 C 54.650 59.168,54.793 60.360,55.153 61.837 C 56.065 65.578,56.251 66.153,56.764 66.805 C 57.033 67.147,57.254 67.616,57.255 67.846 C 57.255 68.076,57.518 68.665,57.838 69.155 C 59.192 71.229,59.499 71.719,60.323 73.129 C 60.799 73.944,61.281 74.611,61.392 74.611 C 61.504 74.611,61.746 74.977,61.931 75.423 C 62.116 75.869,62.891 77.171,63.653 78.316 C 64.414 79.461,65.104 80.661,65.185 80.983 C 65.265 81.305,65.550 81.766,65.817 82.007 C 66.083 82.249,66.441 82.869,66.610 83.386 C 66.780 83.903,67.177 84.738,67.494 85.240 C 67.810 85.743,68.153 86.559,68.256 87.053 C 68.359 87.548,68.670 88.346,68.946 88.826 C 69.223 89.306,69.571 90.297,69.721 91.028 C 69.871 91.759,70.303 93.115,70.681 94.041 L 71.369 95.725 71.368 103.497 C 71.367 111.218,71.363 111.281,70.696 113.083 C 70.328 114.080,69.943 115.448,69.842 116.121 C 69.742 116.795,69.388 117.844,69.057 118.453 C 68.726 119.062,68.377 120.084,68.281 120.725 C 68.186 121.367,67.833 122.361,67.496 122.935 C 67.160 123.510,66.800 124.442,66.696 125.008 C 66.593 125.574,66.278 126.365,65.995 126.767 C 65.713 127.170,65.334 127.986,65.154 128.581 C 64.974 129.176,64.521 130.234,64.149 130.932 C 63.776 131.630,63.472 132.421,63.472 132.690 C 63.472 132.958,63.197 133.728,62.862 134.400 C 62.527 135.072,62.115 136.186,61.946 136.876 C 61.777 137.566,61.470 138.387,61.265 138.701 C 61.060 139.014,60.701 140.194,60.467 141.323 C 60.234 142.452,59.887 143.613,59.697 143.903 C 59.507 144.193,59.173 145.421,58.956 146.632 C 58.738 147.843,58.386 149.321,58.174 149.916 C 57.962 150.510,57.662 152.317,57.508 153.931 C 57.354 155.545,57.118 157.362,56.982 157.970 C 56.149 161.705,57.132 177.199,58.292 178.627 C 58.408 178.769,58.586 179.352,58.688 179.922 C 59.699 185.570,68.300 197.748,73.054 200.262 C 73.409 200.449,74.425 201.166,75.313 201.856 C 76.202 202.545,77.032 203.109,77.158 203.109 C 77.285 203.109,77.829 203.408,78.367 203.773 C 78.905 204.138,79.825 204.622,80.411 204.849 C 80.997 205.076,81.652 205.409,81.865 205.588 C 82.079 205.768,82.778 206.118,83.420 206.366 C 84.061 206.613,84.771 206.975,84.999 207.168 C 85.226 207.362,86.097 207.699,86.934 207.917 C 87.771 208.135,88.635 208.473,88.853 208.669 C 89.070 208.864,89.948 209.151,90.803 209.305 C 91.658 209.460,93.465 209.887,94.819 210.254 C 100.577 211.814,115.929 211.878,119.819 210.357 C 120.531 210.079,121.906 209.688,122.875 209.488 C 123.843 209.289,124.834 208.953,125.077 208.741 C 125.320 208.530,126.129 208.158,126.875 207.915 C 127.622 207.672,128.307 207.353,128.398 207.205 C 128.489 207.058,129.161 206.655,129.891 206.311 C 131.273 205.659,132.845 204.617,133.290 204.058 C 133.433 203.879,133.794 203.563,134.092 203.356 C 135.270 202.539,137.540 199.494,138.621 197.280 L 139.759 194.948 139.763 190.391 L 139.767 185.835 138.925 184.202 C 138.462 183.304,138.083 182.460,138.083 182.326 C 138.083 182.192,137.675 181.468,137.176 180.717 C 136.677 179.965,136.267 179.246,136.265 179.118 C 136.262 178.991,135.971 178.611,135.617 178.276 C 135.264 177.940,134.974 177.554,134.974 177.417 C 134.974 177.280,134.683 176.786,134.327 176.320 C 133.972 175.853,133.552 175.104,133.395 174.653 C 133.238 174.203,132.999 173.834,132.864 173.834 C 132.729 173.834,132.361 173.280,132.046 172.604 C 131.732 171.927,131.226 170.965,130.922 170.466 C 130.618 169.968,130.282 169.268,130.174 168.912 C 130.067 168.556,129.704 167.858,129.368 167.362 C 129.031 166.866,128.756 166.283,128.756 166.067 C 128.756 165.851,128.411 165.032,127.989 164.249 C 127.568 163.465,127.218 162.616,127.212 162.363 C 127.207 162.109,126.901 161.186,126.533 160.312 C 126.165 159.438,125.707 157.839,125.515 156.758 C 125.323 155.677,124.987 154.035,124.768 153.109 C 124.210 150.744,124.211 144.413,124.771 142.347 C 125.001 141.498,125.336 140.162,125.515 139.378 C 125.694 138.595,126.146 137.312,126.519 136.528 C 126.892 135.745,127.198 134.892,127.200 134.633 C 127.201 134.374,127.484 133.791,127.830 133.338 C 128.175 132.884,128.540 132.163,128.641 131.736 C 128.742 131.308,129.092 130.599,129.418 130.160 C 129.745 129.721,130.095 128.905,130.197 128.346 C 130.298 127.788,130.647 126.802,130.971 126.155 C 131.295 125.508,131.679 124.336,131.824 123.550 C 131.969 122.765,132.331 121.487,132.627 120.711 C 132.923 119.935,133.235 118.659,133.320 117.876 C 133.404 117.092,133.750 115.402,134.088 114.119 C 135.644 108.215,135.643 89.506,134.086 84.456 C 133.757 83.387,133.407 81.884,133.310 81.115 C 133.213 80.347,132.909 79.278,132.635 78.741 C 132.361 78.204,132.011 77.201,131.857 76.512 C 131.704 75.823,131.235 74.570,130.815 73.728 C 130.395 72.886,130.052 72.055,130.052 71.882 C 130.052 71.708,129.883 71.426,129.677 71.255 C 129.471 71.084,129.101 70.399,128.856 69.733 C 128.611 69.068,128.203 68.289,127.948 68.002 C 127.694 67.715,127.304 67.044,127.081 66.512 C 126.859 65.980,126.587 65.544,126.477 65.544 C 126.367 65.544,126.061 65.178,125.797 64.731 C 125.533 64.284,125.159 63.730,124.965 63.500 C 121.745 59.676,119.973 57.914,116.336 54.922 C 115.730 54.424,115.021 53.820,114.761 53.582 C 114.501 53.343,114.017 53.005,113.685 52.830 C 113.354 52.655,112.791 52.291,112.435 52.022 C 111.340 51.194,109.090 49.741,108.902 49.741 C 108.804 49.741,108.189 49.404,107.536 48.991 C 106.882 48.579,106.057 48.155,105.703 48.048 C 105.349 47.941,104.649 47.589,104.148 47.267 C 103.648 46.944,102.830 46.598,102.332 46.498 C 101.833 46.399,101.043 46.085,100.577 45.802 C 100.111 45.519,99.120 45.132,98.375 44.942 C 97.630 44.752,96.380 44.372,95.596 44.096 C 94.812 43.821,93.472 43.511,92.617 43.408 C 91.762 43.305,90.287 43.008,89.339 42.748 C 87.276 42.182,80.931 41.909,77.119 42.221 M181.995 42.223 C 180.712 42.335,179.197 42.599,178.627 42.809 C 178.057 43.020,176.891 43.278,176.036 43.383 C 175.181 43.488,173.899 43.841,173.187 44.169 C 172.474 44.496,171.473 44.896,170.961 45.057 C 170.450 45.218,169.641 45.638,169.162 45.991 C 168.684 46.344,168.170 46.633,168.020 46.635 C 166.944 46.645,161.140 52.532,161.140 53.612 C 161.140 53.801,160.913 54.321,160.636 54.770 C 159.473 56.651,159.459 61.337,160.607 64.249 C 160.860 64.890,161.214 65.881,161.394 66.451 C 161.574 67.021,161.887 67.677,162.090 67.909 C 162.475 68.349,163.319 69.833,164.240 71.686 C 164.538 72.286,164.890 72.844,165.023 72.925 C 165.377 73.144,167.617 76.535,167.617 76.851 C 167.617 77.000,167.859 77.341,168.156 77.610 C 168.453 77.879,168.866 78.507,169.075 79.007 C 169.284 79.506,169.669 80.150,169.931 80.437 C 170.193 80.724,170.495 81.250,170.603 81.606 C 170.711 81.962,171.059 82.604,171.376 83.031 C 171.693 83.459,172.033 84.158,172.132 84.585 C 172.231 85.013,172.581 85.776,172.911 86.281 C 173.241 86.785,173.595 87.718,173.697 88.353 C 173.800 88.988,174.103 89.889,174.371 90.355 C 174.639 90.820,175.086 92.336,175.364 93.723 C 175.642 95.109,176.010 96.593,176.180 97.021 C 176.906 98.836,176.701 110.298,175.926 111.253 C 175.802 111.404,175.568 112.403,175.404 113.472 C 175.240 114.540,174.837 116.005,174.507 116.726 C 174.177 117.447,173.824 118.595,173.722 119.278 C 173.619 119.960,173.310 120.886,173.034 121.335 C 172.758 121.783,172.408 122.617,172.256 123.187 C 172.104 123.756,171.639 124.912,171.223 125.754 C 170.807 126.596,170.466 127.460,170.466 127.674 C 170.466 127.888,170.189 128.540,169.850 129.122 C 169.511 129.705,169.150 130.589,169.047 131.088 C 168.945 131.587,168.597 132.461,168.274 133.031 C 167.951 133.601,167.602 134.530,167.500 135.096 C 167.397 135.661,167.044 136.594,166.715 137.168 C 166.387 137.743,166.036 138.792,165.936 139.500 C 165.836 140.208,165.489 141.315,165.165 141.961 C 164.841 142.606,164.493 143.718,164.391 144.430 C 164.289 145.142,163.936 146.600,163.605 147.668 C 163.275 148.737,162.874 150.661,162.714 151.943 C 162.554 153.225,162.256 155.091,162.053 156.088 C 161.060 160.957,161.108 171.412,162.135 174.115 C 162.269 174.468,162.526 175.686,162.705 176.822 C 162.885 177.957,163.291 179.431,163.608 180.098 C 163.925 180.765,164.265 181.756,164.363 182.300 C 164.462 182.845,164.808 183.698,165.132 184.197 C 165.457 184.696,165.861 185.527,166.031 186.044 C 166.202 186.561,166.563 187.185,166.834 187.431 C 167.106 187.677,167.399 188.201,167.486 188.595 C 167.573 188.990,167.929 189.581,168.278 189.909 C 168.627 190.237,168.912 190.649,168.912 190.824 C 168.912 191.444,173.840 196.820,176.599 199.210 C 177.708 200.171,179.521 201.554,179.672 201.554 C 179.745 201.554,180.367 201.941,181.053 202.412 C 181.739 202.884,182.668 203.423,183.119 203.610 C 183.569 203.796,183.938 204.037,183.938 204.145 C 183.938 204.252,184.514 204.588,185.218 204.891 C 185.923 205.194,186.565 205.549,186.646 205.681 C 186.727 205.812,187.404 206.118,188.151 206.361 C 188.897 206.604,189.683 206.949,189.896 207.127 C 190.110 207.306,190.984 207.650,191.839 207.892 C 192.694 208.133,193.648 208.494,193.958 208.693 C 194.269 208.892,195.435 209.237,196.549 209.459 C 197.663 209.681,199.216 210.091,200.000 210.371 C 204.451 211.960,220.614 211.780,225.738 210.085 C 226.998 209.668,228.200 209.326,228.409 209.326 C 229.124 209.326,234.970 206.483,235.881 205.692 C 236.166 205.444,236.749 205.064,237.176 204.847 C 238.965 203.939,242.851 199.233,243.567 197.108 C 243.727 196.633,243.943 196.127,244.048 195.984 C 245.439 194.090,245.377 187.514,243.944 184.845 C 243.714 184.417,243.526 183.825,243.525 183.529 C 243.524 183.233,243.156 182.417,242.708 181.715 C 240.299 177.948,239.853 177.281,239.378 176.727 C 239.093 176.394,238.860 175.997,238.860 175.844 C 238.860 175.692,238.562 175.177,238.199 174.700 C 237.835 174.223,237.406 173.456,237.245 172.996 C 237.085 172.535,236.744 171.933,236.488 171.659 C 236.232 171.384,235.889 170.754,235.726 170.259 C 235.562 169.764,235.160 168.964,234.832 168.479 C 234.503 167.995,234.153 167.227,234.053 166.773 C 233.953 166.318,233.595 165.508,233.257 164.973 C 232.919 164.438,232.642 163.818,232.642 163.595 C 232.642 163.373,232.308 162.467,231.898 161.582 C 231.489 160.698,231.069 159.393,230.966 158.682 C 230.863 157.972,230.633 157.097,230.454 156.739 C 228.978 153.776,229.059 140.811,230.565 138.996 C 230.698 138.836,230.886 138.208,230.983 137.600 C 231.080 136.993,231.410 136.124,231.715 135.670 C 232.021 135.216,232.477 134.300,232.729 133.634 C 232.982 132.969,233.354 132.287,233.556 132.119 C 233.758 131.951,234.001 131.388,234.095 130.868 C 234.188 130.348,234.599 129.281,235.008 128.497 C 235.416 127.714,235.753 126.839,235.756 126.554 C 235.760 126.269,236.009 125.512,236.311 124.870 C 236.612 124.229,237.065 122.714,237.318 121.503 C 237.571 120.291,237.965 118.797,238.194 118.183 C 238.423 117.568,238.731 115.885,238.879 114.443 C 239.027 113.000,239.216 111.711,239.298 111.578 C 240.600 109.472,240.747 91.749,239.498 87.629 C 239.293 86.952,239.056 85.641,238.971 84.715 C 238.810 82.965,238.189 80.372,237.823 79.922 C 237.707 79.780,237.487 78.980,237.333 78.145 C 237.179 77.310,236.828 76.261,236.552 75.813 C 236.275 75.366,235.905 74.417,235.728 73.705 C 235.551 72.992,235.135 72.049,234.802 71.608 C 234.469 71.167,234.197 70.630,234.197 70.416 C 234.197 70.201,233.847 69.543,233.420 68.953 C 232.992 68.363,232.642 67.771,232.642 67.639 C 232.642 67.506,232.367 67.068,232.031 66.665 C 231.695 66.262,231.228 65.559,230.994 65.101 C 230.759 64.644,230.306 63.985,229.986 63.636 C 229.666 63.288,229.113 62.626,228.756 62.165 C 226.923 59.795,219.261 52.850,218.481 52.850 C 218.389 52.850,217.897 52.529,217.389 52.137 C 215.976 51.047,213.910 49.741,213.600 49.741 C 213.447 49.741,212.919 49.396,212.425 48.974 C 211.932 48.553,211.354 48.203,211.140 48.197 C 210.926 48.190,210.110 47.850,209.326 47.439 C 208.543 47.029,207.524 46.612,207.063 46.513 C 206.601 46.414,206.156 46.224,206.073 46.090 C 205.850 45.728,204.422 45.185,203.177 44.988 C 202.573 44.892,201.616 44.573,201.052 44.278 C 200.487 43.984,198.999 43.584,197.745 43.389 C 196.492 43.194,194.650 42.864,193.653 42.656 C 191.401 42.185,185.105 41.951,181.995 42.223 M282.772 42.236 C 281.490 42.337,280.032 42.554,279.534 42.718 C 279.035 42.881,277.579 43.187,276.298 43.396 C 274.945 43.618,273.691 43.982,273.308 44.265 C 272.945 44.534,272.268 44.837,271.805 44.939 C 271.013 45.113,268.960 46.253,266.799 47.721 C 261.027 51.639,258.368 60.334,261.389 65.415 C 261.643 65.842,261.932 66.541,262.032 66.969 C 262.132 67.396,262.480 68.038,262.807 68.394 C 263.134 68.750,263.529 69.426,263.686 69.896 C 263.843 70.367,264.215 71.066,264.513 71.451 C 265.460 72.673,266.287 73.939,266.663 74.741 C 266.863 75.168,267.276 75.740,267.581 76.012 C 267.885 76.283,268.135 76.633,268.135 76.790 C 268.135 76.946,268.543 77.648,269.041 78.350 C 269.540 79.051,269.948 79.729,269.948 79.856 C 269.948 79.983,270.226 80.457,270.566 80.911 C 270.905 81.365,271.269 82.027,271.373 82.383 C 271.477 82.740,271.825 83.382,272.146 83.811 C 272.467 84.240,272.818 84.998,272.925 85.495 C 273.033 85.992,273.332 86.698,273.590 87.063 C 273.848 87.428,274.241 88.509,274.462 89.465 C 274.684 90.420,275.034 91.462,275.241 91.780 C 275.447 92.098,275.751 93.174,275.916 94.171 C 276.204 95.911,276.442 97.109,276.946 99.352 C 277.365 101.214,277.236 105.917,276.683 108.938 C 276.396 110.505,276.028 112.545,275.865 113.472 C 275.702 114.398,275.363 115.563,275.112 116.062 C 274.861 116.561,274.573 117.494,274.473 118.135 C 274.372 118.776,274.027 119.825,273.705 120.466 C 273.384 121.108,273.037 122.040,272.934 122.539 C 272.831 123.038,272.481 123.912,272.156 124.482 C 271.831 125.052,271.478 125.923,271.371 126.418 C 271.264 126.913,270.915 127.732,270.596 128.238 C 270.276 128.745,269.930 129.564,269.826 130.059 C 269.723 130.554,269.362 131.462,269.024 132.077 C 268.687 132.692,268.336 133.625,268.244 134.150 C 268.152 134.674,267.812 135.570,267.489 136.140 C 267.166 136.710,266.815 137.701,266.710 138.342 C 266.604 138.983,266.291 139.956,266.014 140.503 C 265.736 141.051,265.357 142.275,265.171 143.224 C 264.984 144.172,264.593 145.542,264.301 146.268 C 264.009 146.994,263.685 148.451,263.581 149.505 C 263.477 150.559,263.234 151.800,263.041 152.262 C 261.549 155.833,261.560 173.717,263.056 176.638 C 263.251 177.019,263.497 177.973,263.602 178.756 C 263.707 179.540,264.054 180.706,264.372 181.347 C 264.691 181.988,265.034 182.863,265.134 183.290 C 265.234 183.718,265.584 184.477,265.911 184.977 C 266.239 185.478,266.597 186.178,266.708 186.532 C 266.819 186.886,267.186 187.506,267.522 187.908 C 267.859 188.311,268.135 188.778,268.135 188.946 C 268.135 190.007,274.129 196.793,277.443 199.482 C 278.057 199.981,278.808 200.635,279.112 200.935 C 279.415 201.236,279.896 201.556,280.181 201.646 C 280.466 201.737,281.038 202.103,281.452 202.460 C 281.866 202.817,282.333 203.112,282.488 203.116 C 282.644 203.120,283.230 203.470,283.790 203.893 C 284.349 204.317,284.945 204.663,285.114 204.663 C 285.282 204.663,285.873 204.971,286.428 205.347 C 286.982 205.723,288.071 206.250,288.847 206.517 C 289.624 206.784,290.323 207.099,290.402 207.218 C 290.480 207.336,291.418 207.695,292.487 208.016 C 293.556 208.337,294.555 208.702,294.708 208.827 C 294.862 208.953,295.852 209.235,296.911 209.455 C 297.969 209.675,299.534 210.077,300.389 210.348 C 305.420 211.941,320.780 211.801,326.049 210.113 C 327.399 209.680,328.626 209.326,328.776 209.326 C 328.926 209.326,329.653 209.051,330.392 208.714 C 331.131 208.378,332.015 208.015,332.356 207.908 C 332.697 207.801,333.506 207.377,334.155 206.966 C 334.804 206.554,335.427 206.218,335.541 206.218 C 336.314 206.218,342.746 200.107,342.746 199.373 C 342.746 199.168,342.906 198.841,343.101 198.646 C 343.631 198.116,344.215 196.878,344.418 195.855 C 344.517 195.356,344.772 194.564,344.985 194.095 C 345.607 192.722,345.739 188.962,345.214 187.565 C 344.972 186.924,344.604 185.710,344.394 184.868 C 344.019 183.366,343.823 182.932,342.671 181.068 C 342.356 180.558,341.865 179.759,341.580 179.294 C 341.295 178.829,340.742 178.035,340.350 177.530 C 339.958 177.026,339.637 176.468,339.637 176.291 C 339.637 176.115,339.453 175.817,339.228 175.630 C 339.002 175.443,338.480 174.621,338.068 173.804 C 337.655 172.986,337.207 172.249,337.071 172.166 C 336.936 172.082,336.683 171.578,336.508 171.046 C 336.334 170.513,335.917 169.717,335.582 169.276 C 335.248 168.835,334.974 168.311,334.974 168.110 C 334.974 167.910,334.629 167.105,334.207 166.321 C 333.785 165.538,333.436 164.721,333.430 164.506 C 333.424 164.291,333.127 163.565,332.770 162.894 C 332.412 162.222,331.960 160.911,331.765 159.981 C 331.570 159.051,331.296 158.144,331.157 157.966 C 329.372 155.685,329.390 141.849,331.182 138.083 C 331.555 137.299,331.861 136.436,331.863 136.164 C 331.864 135.893,332.151 135.297,332.499 134.840 C 332.848 134.383,333.213 133.672,333.310 133.261 C 333.408 132.849,333.755 132.154,334.082 131.714 C 334.408 131.275,334.758 130.459,334.859 129.901 C 334.960 129.343,335.376 128.245,335.785 127.461 C 336.193 126.677,336.528 125.770,336.528 125.446 C 336.528 125.121,336.810 124.185,337.155 123.367 C 337.499 122.549,337.956 120.950,338.171 119.813 C 338.385 118.676,338.748 117.105,338.976 116.321 C 339.205 115.538,339.564 113.439,339.775 111.658 C 339.986 109.877,340.298 107.487,340.468 106.347 C 340.877 103.613,340.887 94.165,340.483 91.839 C 340.310 90.842,339.985 88.579,339.762 86.810 C 339.538 85.041,339.122 82.902,338.837 82.055 C 338.552 81.209,338.205 79.916,338.067 79.183 C 337.929 78.450,337.538 77.267,337.197 76.554 C 336.857 75.842,336.498 74.877,336.402 74.410 C 336.305 73.943,335.956 73.069,335.627 72.467 C 335.298 71.865,334.942 71.082,334.836 70.725 C 334.731 70.369,334.369 69.748,334.032 69.345 C 333.695 68.943,333.420 68.451,333.420 68.253 C 333.420 68.056,333.086 67.511,332.677 67.043 C 332.269 66.575,331.860 65.959,331.768 65.674 C 331.676 65.389,331.282 64.777,330.891 64.314 C 330.501 63.851,329.832 63.008,329.404 62.442 C 327.550 59.986,323.194 55.845,320.920 54.377 C 320.243 53.940,319.689 53.498,319.689 53.394 C 319.689 53.290,319.310 53.007,318.847 52.766 C 318.384 52.524,317.189 51.747,316.192 51.038 C 315.194 50.330,314.241 49.748,314.074 49.746 C 313.907 49.743,313.441 49.468,313.038 49.135 C 312.635 48.801,311.922 48.397,311.452 48.237 C 310.983 48.077,310.282 47.721,309.895 47.446 C 309.509 47.170,308.669 46.805,308.029 46.635 C 307.389 46.465,306.505 46.105,306.065 45.836 C 305.625 45.567,304.518 45.189,303.604 44.996 C 302.691 44.803,301.557 44.444,301.085 44.199 C 300.613 43.953,299.214 43.574,297.976 43.356 C 296.738 43.138,295.142 42.850,294.430 42.717 C 290.969 42.069,286.982 41.905,282.772 42.236 M87.176 53.378 C 87.447 53.588,89.576 54.052,91.918 54.412 C 92.674 54.528,93.557 54.796,93.880 55.007 C 94.203 55.219,94.984 55.530,95.615 55.699 C 96.245 55.867,97.345 56.284,98.057 56.624 C 98.769 56.964,99.877 57.478,100.518 57.766 C 102.030 58.445,103.576 59.308,104.585 60.039 C 105.028 60.359,105.510 60.622,105.656 60.622 C 105.802 60.622,106.076 60.770,106.264 60.951 C 106.452 61.132,106.956 61.542,107.383 61.862 C 110.652 64.308,117.617 71.316,117.617 72.159 C 117.617 72.232,118.015 72.872,118.502 73.580 C 118.990 74.288,119.464 75.210,119.555 75.629 C 119.647 76.047,119.889 76.528,120.094 76.697 C 120.298 76.866,120.701 77.769,120.989 78.703 C 121.277 79.636,121.636 80.548,121.786 80.728 C 121.935 80.909,122.282 82.130,122.557 83.442 C 122.832 84.754,123.161 85.956,123.289 86.113 C 124.639 87.777,124.665 108.274,123.322 112.435 C 123.069 113.219,122.660 114.998,122.414 116.388 C 122.167 117.778,121.874 118.972,121.762 119.041 C 121.651 119.110,121.358 120.013,121.112 121.047 C 120.866 122.081,120.509 123.178,120.318 123.483 C 120.128 123.789,119.735 124.714,119.445 125.539 C 119.155 126.364,118.809 127.106,118.676 127.187 C 118.544 127.269,118.193 127.951,117.897 128.703 C 117.601 129.454,117.192 130.327,116.990 130.643 C 116.787 130.959,116.421 131.917,116.178 132.772 C 115.934 133.627,115.632 134.392,115.508 134.473 C 115.383 134.553,115.098 135.544,114.874 136.675 C 114.651 137.805,114.273 139.430,114.034 140.285 C 112.866 144.475,113.808 158.135,115.517 161.788 C 115.784 162.358,116.203 163.669,116.448 164.702 C 116.694 165.735,116.981 166.580,117.085 166.580 C 117.190 166.580,117.491 167.292,117.755 168.163 C 118.018 169.033,118.434 170.000,118.680 170.312 C 118.925 170.624,119.319 171.544,119.555 172.357 C 119.792 173.169,120.085 173.834,120.208 173.834 C 120.331 173.834,120.515 174.097,120.616 174.417 C 120.718 174.738,121.102 175.466,121.469 176.036 C 121.837 176.606,122.346 177.481,122.602 177.979 C 122.857 178.478,123.467 179.527,123.956 180.311 C 124.445 181.095,125.147 182.260,125.516 182.902 C 126.228 184.141,127.107 185.459,127.942 186.542 C 130.362 189.680,128.324 195.050,123.964 197.027 C 123.394 197.285,122.734 197.660,122.498 197.860 C 122.262 198.060,121.388 198.399,120.555 198.613 C 119.723 198.828,118.757 199.187,118.408 199.411 C 117.844 199.775,116.443 199.992,108.459 200.955 C 107.769 201.039,106.603 200.982,105.869 200.828 C 105.134 200.675,103.107 200.414,101.363 200.248 C 99.619 200.082,97.812 199.847,97.347 199.726 C 95.198 199.163,92.002 198.129,91.062 197.692 C 90.492 197.426,89.618 197.097,89.119 196.958 C 88.620 196.820,87.759 196.399,87.205 196.022 C 86.651 195.645,85.989 195.337,85.735 195.337 C 85.481 195.337,84.927 195.045,84.503 194.689 C 84.080 194.333,83.609 194.041,83.456 194.041 C 83.303 194.041,82.780 193.692,82.293 193.264 C 81.807 192.837,81.322 192.487,81.218 192.487 C 81.113 192.487,80.638 192.166,80.163 191.775 C 79.687 191.383,78.700 190.596,77.968 190.026 C 77.237 189.456,76.535 188.873,76.408 188.731 C 75.103 187.259,72.798 184.362,72.798 184.193 C 72.798 184.074,72.522 183.648,72.186 183.245 C 71.849 182.842,71.483 182.223,71.372 181.869 C 71.261 181.514,70.897 180.813,70.565 180.310 C 70.232 179.807,69.882 178.990,69.787 178.493 C 69.692 177.997,69.354 177.066,69.036 176.425 C 68.718 175.784,68.327 174.268,68.167 173.057 C 68.006 171.846,67.767 170.214,67.635 169.430 C 67.267 167.242,67.315 161.501,67.719 159.326 C 67.918 158.258,68.164 156.458,68.264 155.327 C 68.365 154.196,68.712 152.447,69.036 151.441 C 69.360 150.435,69.708 149.038,69.809 148.338 C 69.910 147.637,70.255 146.471,70.575 145.747 C 70.895 145.023,71.238 143.925,71.336 143.308 C 71.435 142.690,71.804 141.616,72.157 140.920 C 72.509 140.224,72.798 139.436,72.798 139.169 C 72.798 138.902,73.137 137.995,73.551 137.153 C 73.965 136.311,74.376 135.272,74.464 134.845 C 74.553 134.417,74.972 133.381,75.395 132.541 C 75.819 131.702,76.166 130.841,76.166 130.629 C 76.166 130.416,76.388 129.879,76.659 129.435 C 76.931 128.990,77.329 128.025,77.545 127.289 C 77.761 126.553,78.114 125.679,78.328 125.346 C 78.543 125.013,78.899 124.036,79.119 123.175 C 79.340 122.314,79.690 121.265,79.898 120.843 C 80.106 120.422,80.468 119.087,80.703 117.876 C 80.937 116.665,81.282 115.207,81.468 114.637 C 82.747 110.724,82.750 94.953,81.472 92.478 C 81.285 92.117,81.058 91.359,80.967 90.794 C 80.700 89.131,80.257 87.488,79.860 86.693 C 79.657 86.286,79.320 85.298,79.112 84.499 C 78.904 83.700,78.579 82.868,78.390 82.650 C 78.201 82.432,77.846 81.640,77.602 80.890 C 77.358 80.140,76.983 79.352,76.770 79.138 C 76.556 78.925,76.270 78.347,76.134 77.855 C 75.998 77.362,75.600 76.618,75.249 76.201 C 74.898 75.784,74.611 75.334,74.611 75.201 C 74.611 74.957,73.603 73.307,72.244 71.331 C 71.836 70.737,71.503 70.129,71.503 69.980 C 71.503 69.830,71.153 69.309,70.725 68.822 C 70.298 68.335,69.948 67.833,69.948 67.706 C 69.948 67.579,69.615 67.070,69.208 66.575 C 68.800 66.079,68.384 65.411,68.283 65.089 C 68.182 64.768,67.831 64.185,67.503 63.794 C 67.175 63.403,66.819 62.675,66.712 62.176 C 66.605 61.677,66.355 60.950,66.155 60.559 C 65.453 59.185,66.956 56.853,69.151 55.912 C 69.803 55.632,70.512 55.248,70.725 55.058 C 70.939 54.868,71.930 54.512,72.927 54.267 C 73.925 54.022,74.974 53.696,75.259 53.542 C 76.383 52.937,86.430 52.798,87.176 53.378 M193.746 53.779 C 195.080 54.123,196.483 54.404,196.865 54.404 C 197.247 54.404,198.021 54.641,198.585 54.930 C 199.150 55.219,200.170 55.622,200.854 55.826 C 202.006 56.170,205.065 57.510,205.959 58.062 C 206.172 58.195,206.930 58.590,207.642 58.942 C 208.355 59.294,209.229 59.798,209.585 60.064 C 209.942 60.329,210.929 61.000,211.780 61.555 C 212.631 62.110,213.577 62.827,213.882 63.148 C 214.188 63.468,214.557 63.731,214.702 63.731 C 215.139 63.731,221.503 70.205,221.503 70.650 C 221.503 70.769,221.830 71.272,222.231 71.767 C 222.632 72.263,223.211 73.213,223.518 73.879 C 223.825 74.544,224.188 75.158,224.324 75.242 C 224.460 75.326,224.653 75.768,224.754 76.224 C 224.854 76.680,225.202 77.465,225.527 77.969 C 225.852 78.474,226.202 79.294,226.305 79.793 C 226.408 80.291,226.765 81.319,227.099 82.077 C 227.434 82.834,227.776 84.058,227.860 84.797 C 227.944 85.536,228.324 87.364,228.705 88.860 C 229.680 92.687,229.748 105.128,228.814 108.869 C 228.504 110.114,228.121 112.212,227.963 113.532 C 227.805 114.853,227.444 116.457,227.160 117.098 C 226.876 117.740,226.530 118.961,226.390 119.813 C 226.250 120.664,225.892 121.755,225.594 122.237 C 225.296 122.720,224.955 123.634,224.836 124.270 C 224.717 124.905,224.392 125.716,224.112 126.071 C 223.833 126.426,223.464 127.146,223.293 127.672 C 223.122 128.197,222.788 128.877,222.551 129.182 C 222.314 129.487,221.904 130.449,221.641 131.319 C 221.377 132.189,221.076 132.902,220.971 132.902 C 220.867 132.902,220.583 133.747,220.341 134.780 C 220.099 135.813,219.677 137.332,219.404 138.156 C 218.234 141.680,218.160 154.273,219.291 157.182 C 219.500 157.720,219.903 159.316,220.186 160.729 C 220.470 162.141,220.813 163.366,220.950 163.450 C 221.087 163.535,221.433 164.516,221.718 165.631 C 222.004 166.746,222.422 167.862,222.647 168.111 C 222.873 168.360,223.057 168.710,223.057 168.888 C 223.057 169.066,223.465 170.060,223.964 171.097 C 224.462 172.133,224.870 173.088,224.870 173.218 C 224.870 173.348,225.145 173.861,225.480 174.357 C 225.815 174.853,226.225 175.677,226.392 176.188 C 226.560 176.699,226.912 177.350,227.177 177.633 C 227.441 177.917,227.742 178.431,227.847 178.776 C 227.952 179.122,228.305 179.696,228.632 180.052 C 228.959 180.408,229.413 181.108,229.641 181.606 C 230.018 182.430,230.387 183.009,231.791 184.974 C 234.265 188.440,234.694 191.216,233.094 193.417 C 232.302 194.507,229.581 196.891,229.129 196.891 C 229.061 196.891,228.569 197.167,228.035 197.504 C 226.410 198.530,221.856 199.917,219.041 200.244 C 217.617 200.409,215.495 200.659,214.326 200.798 C 213.157 200.938,211.933 200.991,211.606 200.917 C 211.278 200.843,209.845 200.658,208.420 200.506 C 202.895 199.917,201.917 199.766,201.153 199.378 C 200.718 199.158,199.608 198.819,198.685 198.626 C 197.762 198.432,196.718 198.092,196.366 197.871 C 196.014 197.649,195.300 197.332,194.780 197.167 C 192.513 196.450,184.715 192.017,184.715 191.446 C 184.715 191.325,184.508 191.161,184.254 191.080 C 183.566 190.862,178.497 185.807,178.497 185.338 C 178.497 185.206,178.219 184.798,177.878 184.430 C 177.537 184.063,177.055 183.365,176.805 182.879 C 176.556 182.393,176.135 181.717,175.870 181.377 C 175.605 181.037,175.387 180.571,175.385 180.341 C 175.384 180.111,175.049 179.266,174.642 178.464 C 174.235 177.661,173.822 176.467,173.723 175.808 C 173.624 175.150,173.260 173.475,172.915 172.086 C 172.208 169.246,171.961 159.629,172.566 158.499 C 172.850 157.968,172.927 157.572,173.665 152.850 C 173.877 151.496,174.220 149.981,174.428 149.482 C 174.636 148.983,175.008 147.642,175.255 146.503 C 175.502 145.363,175.796 144.313,175.908 144.171 C 176.020 144.028,176.369 143.038,176.684 141.969 C 176.999 140.900,177.348 139.909,177.461 139.767 C 177.574 139.624,177.900 138.750,178.186 137.824 C 178.472 136.898,179.009 135.540,179.379 134.807 C 179.749 134.074,180.052 133.328,180.052 133.149 C 180.052 132.971,180.388 132.113,180.798 131.244 C 182.417 127.816,182.850 126.765,183.139 125.559 C 183.304 124.869,183.605 124.051,183.808 123.742 C 184.010 123.433,184.352 122.419,184.568 121.488 C 184.784 120.557,185.135 119.447,185.347 119.021 C 185.560 118.594,185.867 117.375,186.031 116.312 C 186.194 115.248,186.493 113.820,186.695 113.139 C 187.890 109.114,187.884 99.733,186.684 94.171 C 186.469 93.174,186.161 91.658,186.001 90.803 C 185.840 89.948,185.554 88.899,185.366 88.472 C 185.177 88.044,184.777 86.855,184.477 85.829 C 184.177 84.803,183.824 83.898,183.692 83.817 C 183.561 83.736,183.261 83.001,183.025 82.184 C 182.789 81.368,182.441 80.525,182.252 80.311 C 182.063 80.097,181.700 79.398,181.445 78.756 C 181.191 78.115,180.714 77.196,180.387 76.713 C 180.060 76.230,179.793 75.698,179.793 75.531 C 179.793 75.364,179.570 74.988,179.297 74.695 C 179.024 74.402,178.555 73.623,178.254 72.962 C 177.953 72.302,177.605 71.762,177.480 71.762 C 177.355 71.762,177.138 71.432,176.997 71.029 C 176.857 70.626,176.438 69.968,176.065 69.566 C 175.693 69.165,175.389 68.703,175.389 68.540 C 175.389 68.378,175.044 67.841,174.622 67.348 C 174.200 66.854,173.851 66.323,173.845 66.166 C 173.839 66.009,173.499 65.418,173.089 64.853 C 172.680 64.287,172.255 63.541,172.146 63.195 C 172.037 62.848,171.673 62.159,171.336 61.663 C 170.029 59.733,171.223 57.336,174.323 55.664 C 174.948 55.327,175.705 54.908,176.007 54.732 C 176.308 54.556,176.788 54.407,177.073 54.400 C 177.358 54.394,178.407 54.146,179.404 53.849 C 183.273 52.695,189.427 52.665,193.746 53.779 M293.493 53.652 C 294.564 53.926,296.124 54.260,296.958 54.395 C 297.792 54.529,299.080 54.920,299.820 55.264 C 300.560 55.607,301.547 55.960,302.014 56.048 C 302.480 56.135,303.294 56.501,303.823 56.860 C 304.351 57.219,304.960 57.513,305.177 57.514 C 305.393 57.515,306.091 57.861,306.727 58.283 C 307.364 58.705,308.209 59.122,308.606 59.209 C 309.002 59.296,309.326 59.459,309.326 59.570 C 309.326 59.681,309.851 60.051,310.492 60.391 C 311.133 60.731,311.658 61.088,311.658 61.183 C 311.658 61.279,312.095 61.625,312.630 61.952 C 313.164 62.280,313.891 62.814,314.246 63.139 C 314.601 63.464,314.963 63.731,315.050 63.731 C 315.387 63.731,320.725 68.835,320.725 69.156 C 320.725 69.265,321.028 69.681,321.398 70.081 C 321.769 70.480,322.305 71.255,322.590 71.802 C 322.876 72.350,323.200 72.798,323.310 72.798 C 323.421 72.798,323.772 73.410,324.090 74.158 C 324.408 74.906,324.821 75.693,325.008 75.907 C 325.195 76.120,325.431 76.628,325.533 77.035 C 325.634 77.441,325.979 78.266,326.299 78.868 C 326.619 79.470,327.011 80.569,327.170 81.311 C 327.329 82.053,327.679 83.093,327.948 83.623 C 328.216 84.152,328.519 85.343,328.620 86.269 C 328.721 87.196,329.084 89.610,329.428 91.636 C 330.093 95.560,330.298 102.217,329.812 104.115 C 329.573 105.048,328.917 109.654,328.615 112.515 C 328.528 113.342,328.191 114.800,327.868 115.753 C 327.544 116.707,327.193 118.060,327.089 118.761 C 326.984 119.461,326.629 120.643,326.300 121.388 C 325.971 122.132,325.617 123.133,325.514 123.611 C 325.410 124.090,325.061 124.948,324.736 125.518 C 324.412 126.088,324.065 126.829,323.965 127.164 C 323.864 127.499,323.503 128.186,323.161 128.690 C 322.819 129.194,322.539 129.798,322.539 130.033 C 322.539 130.268,322.293 130.922,321.992 131.487 C 321.474 132.457,320.593 135.073,319.813 137.953 C 318.477 142.887,318.739 157.596,320.197 159.456 C 320.308 159.598,320.591 160.589,320.825 161.658 C 321.059 162.727,321.414 163.916,321.613 164.300 C 321.813 164.685,322.171 165.676,322.410 166.502 C 322.649 167.329,323.052 168.355,323.307 168.782 C 323.562 169.210,323.969 170.172,324.212 170.920 C 324.454 171.668,324.751 172.280,324.870 172.280 C 324.990 172.280,325.279 172.856,325.513 173.560 C 325.747 174.265,326.146 175.110,326.399 175.439 C 326.653 175.767,326.992 176.424,327.154 176.898 C 327.315 177.371,327.742 178.109,328.102 178.537 C 328.462 178.964,328.756 179.423,328.756 179.556 C 328.756 179.689,329.106 180.280,329.534 180.870 C 329.961 181.460,330.311 182.086,330.311 182.261 C 330.311 182.436,330.498 182.734,330.726 182.923 C 331.760 183.782,334.715 189.363,334.715 190.458 C 334.715 191.381,333.202 193.943,332.081 194.921 C 331.464 195.459,330.709 196.122,330.404 196.395 C 330.099 196.668,329.736 196.891,329.598 196.891 C 329.460 196.891,328.939 197.168,328.441 197.506 C 327.943 197.844,326.674 198.384,325.620 198.705 C 324.567 199.027,323.579 199.390,323.425 199.511 C 322.877 199.942,315.346 200.869,312.435 200.864 C 310.001 200.859,302.508 199.845,301.643 199.403 C 301.238 199.196,300.091 198.840,299.093 198.611 C 298.096 198.382,296.697 197.905,295.984 197.551 C 295.272 197.197,294.501 196.904,294.271 196.899 C 294.041 196.895,293.553 196.656,293.187 196.368 C 292.820 196.079,292.039 195.674,291.451 195.466 C 290.862 195.259,290.081 194.853,289.715 194.565 C 289.349 194.277,288.919 194.040,288.760 194.039 C 288.602 194.038,287.947 193.634,287.306 193.141 C 286.665 192.649,285.625 191.863,284.996 191.395 C 282.882 189.822,277.720 184.432,277.720 183.798 C 277.720 183.688,277.424 183.210,277.063 182.736 C 276.701 182.262,276.234 181.389,276.025 180.797 C 275.816 180.205,275.425 179.358,275.156 178.914 C 274.886 178.471,274.582 177.596,274.480 176.969 C 274.378 176.342,274.022 175.051,273.689 174.100 C 272.496 170.684,272.574 158.097,273.814 154.104 C 274.095 153.201,274.449 151.538,274.602 150.409 C 274.755 149.280,274.981 148.231,275.103 148.078 C 275.376 147.735,276.166 145.031,276.166 144.438 C 276.166 144.202,276.458 143.370,276.815 142.590 C 277.172 141.809,277.582 140.644,277.726 139.999 C 277.871 139.355,278.152 138.572,278.351 138.261 C 278.550 137.949,278.890 137.111,279.106 136.399 C 279.323 135.687,279.799 134.530,280.165 133.829 C 280.530 133.128,280.829 132.411,280.829 132.236 C 280.829 132.061,281.179 131.253,281.606 130.440 C 282.034 129.628,282.383 128.769,282.383 128.532 C 282.383 128.295,282.609 127.680,282.885 127.165 C 283.161 126.650,283.586 125.544,283.829 124.708 C 284.072 123.871,284.417 122.953,284.597 122.668 C 284.776 122.383,285.114 121.276,285.347 120.207 C 285.581 119.139,285.941 117.899,286.148 117.453 C 286.354 117.007,286.761 115.025,287.051 113.049 C 287.341 111.073,287.691 109.048,287.829 108.549 C 288.152 107.383,288.159 99.896,287.838 98.853 C 287.704 98.415,287.478 97.241,287.337 96.244 C 286.661 91.452,286.496 90.586,286.128 89.873 C 285.910 89.451,285.610 88.439,285.463 87.623 C 285.315 86.807,284.956 85.732,284.665 85.233 C 284.374 84.734,283.970 83.689,283.766 82.909 C 283.563 82.130,283.237 81.314,283.041 81.096 C 282.846 80.878,282.483 80.175,282.235 79.534 C 281.988 78.892,281.642 78.193,281.468 77.979 C 281.294 77.766,280.901 77.066,280.595 76.425 C 279.858 74.883,278.796 73.022,278.377 72.539 C 278.191 72.325,277.790 71.684,277.484 71.114 C 277.179 70.544,276.351 69.262,275.645 68.264 C 274.939 67.267,274.359 66.325,274.357 66.172 C 274.354 66.019,274.071 65.629,273.727 65.306 C 273.382 64.982,273.028 64.428,272.939 64.074 C 272.850 63.719,272.463 62.955,272.080 62.375 C 270.465 59.935,271.335 57.543,274.482 55.773 C 279.247 53.092,287.641 52.156,293.493 53.652 " stroke="none" fill="#673096" fill-rule="evenodd"></path><path id="path1" d="M0.000 129.534 L 0.000 259.067 200.000 259.067 L 400.000 259.067 400.000 129.534 L 400.000 0.000 200.000 0.000 L 0.000 0.000 0.000 129.534 M89.339 42.748 C 90.287 43.008,91.762 43.305,92.617 43.408 C 93.472 43.511,94.812 43.821,95.596 44.096 C 96.380 44.372,97.630 44.752,98.375 44.942 C 99.120 45.132,100.111 45.519,100.577 45.802 C 101.043 46.085,101.833 46.399,102.332 46.498 C 102.830 46.598,103.648 46.944,104.148 47.267 C 104.649 47.589,105.349 47.941,105.703 48.048 C 106.057 48.155,106.882 48.579,107.536 48.991 C 108.189 49.404,108.804 49.741,108.902 49.741 C 109.090 49.741,111.340 51.194,112.435 52.022 C 112.791 52.291,113.354 52.655,113.685 52.830 C 114.017 53.005,114.501 53.343,114.761 53.582 C 115.021 53.820,115.730 54.424,116.336 54.922 C 119.973 57.914,121.745 59.676,124.965 63.500 C 125.159 63.730,125.533 64.284,125.797 64.731 C 126.061 65.178,126.367 65.544,126.477 65.544 C 126.587 65.544,126.859 65.980,127.081 66.512 C 127.304 67.044,127.694 67.715,127.948 68.002 C 128.203 68.289,128.611 69.068,128.856 69.733 C 129.101 70.399,129.471 71.084,129.677 71.255 C 129.883 71.426,130.052 71.708,130.052 71.882 C 130.052 72.055,130.395 72.886,130.815 73.728 C 131.235 74.570,131.704 75.823,131.857 76.512 C 132.011 77.201,132.361 78.204,132.635 78.741 C 132.909 79.278,133.213 80.347,133.310 81.115 C 133.407 81.884,133.757 83.387,134.086 84.456 C 135.643 89.506,135.644 108.215,134.088 114.119 C 133.750 115.402,133.404 117.092,133.320 117.876 C 133.235 118.659,132.923 119.935,132.627 120.711 C 132.331 121.487,131.969 122.765,131.824 123.550 C 131.679 124.336,131.295 125.508,130.971 126.155 C 130.647 126.802,130.298 127.788,130.197 128.346 C 130.095 128.905,129.745 129.721,129.418 130.160 C 129.092 130.599,128.742 131.308,128.641 131.736 C 128.540 132.163,128.175 132.884,127.830 133.338 C 127.484 133.791,127.201 134.374,127.200 134.633 C 127.198 134.892,126.892 135.745,126.519 136.528 C 126.146 137.312,125.694 138.595,125.515 139.378 C 125.336 140.162,125.001 141.498,124.771 142.347 C 124.211 144.413,124.210 150.744,124.768 153.109 C 124.987 154.035,125.323 155.677,125.515 156.758 C 125.707 157.839,126.165 159.438,126.533 160.312 C 126.901 161.186,127.207 162.109,127.212 162.363 C 127.218 162.616,127.568 163.465,127.989 164.249 C 128.411 165.032,128.756 165.851,128.756 166.067 C 128.756 166.283,129.031 166.866,129.368 167.362 C 129.704 167.858,130.067 168.556,130.174 168.912 C 130.282 169.268,130.618 169.968,130.922 170.466 C 131.226 170.965,131.732 171.927,132.046 172.604 C 132.361 173.280,132.729 173.834,132.864 173.834 C 132.999 173.834,133.238 174.203,133.395 174.653 C 133.552 175.104,133.972 175.853,134.327 176.320 C 134.683 176.786,134.974 177.280,134.974 177.417 C 134.974 177.554,135.264 177.940,135.617 178.276 C 135.971 178.611,136.262 178.991,136.265 179.118 C 136.267 179.246,136.677 179.965,137.176 180.717 C 137.675 181.468,138.083 182.192,138.083 182.326 C 138.083 182.460,138.462 183.304,138.925 184.202 L 139.767 185.835 139.763 190.391 L 139.759 194.948 138.621 197.280 C 137.540 199.494,135.270 202.539,134.092 203.356 C 133.794 203.563,133.433 203.879,133.290 204.058 C 132.845 204.617,131.273 205.659,129.891 206.311 C 129.161 206.655,128.489 207.058,128.398 207.205 C 128.307 207.353,127.622 207.672,126.875 207.915 C 126.129 208.158,125.320 208.530,125.077 208.741 C 124.834 208.953,123.843 209.289,122.875 209.488 C 121.906 209.688,120.531 210.079,119.819 210.357 C 115.929 211.878,100.577 211.814,94.819 210.254 C 93.465 209.887,91.658 209.460,90.803 209.305 C 89.948 209.151,89.070 208.864,88.853 208.669 C 88.635 208.473,87.771 208.135,86.934 207.917 C 86.097 207.699,85.226 207.362,84.999 207.168 C 84.771 206.975,84.061 206.613,83.420 206.366 C 82.778 206.118,82.079 205.768,81.865 205.588 C 81.652 205.409,80.997 205.076,80.411 204.849 C 79.825 204.622,78.905 204.138,78.367 203.773 C 77.829 203.408,77.285 203.109,77.158 203.109 C 77.032 203.109,76.202 202.545,75.313 201.856 C 74.425 201.166,73.409 200.449,73.054 200.262 C 68.300 197.748,59.699 185.570,58.688 179.922 C 58.586 179.352,58.408 178.769,58.292 178.627 C 57.132 177.199,56.149 161.705,56.982 157.970 C 57.118 157.362,57.354 155.545,57.508 153.931 C 57.662 152.317,57.962 150.510,58.174 149.916 C 58.386 149.321,58.738 147.843,58.956 146.632 C 59.173 145.421,59.507 144.193,59.697 143.903 C 59.887 143.613,60.234 142.452,60.467 141.323 C 60.701 140.194,61.060 139.014,61.265 138.701 C 61.470 138.387,61.777 137.566,61.946 136.876 C 62.115 136.186,62.527 135.072,62.862 134.400 C 63.197 133.728,63.472 132.958,63.472 132.690 C 63.472 132.421,63.776 131.630,64.149 130.932 C 64.521 130.234,64.974 129.176,65.154 128.581 C 65.334 127.986,65.713 127.170,65.995 126.767 C 66.278 126.365,66.593 125.574,66.696 125.008 C 66.800 124.442,67.160 123.510,67.496 122.935 C 67.833 122.361,68.186 121.367,68.281 120.725 C 68.377 120.084,68.726 119.062,69.057 118.453 C 69.388 117.844,69.742 116.795,69.842 116.121 C 69.943 115.448,70.328 114.080,70.696 113.083 C 71.363 111.281,71.367 111.218,71.368 103.497 L 71.369 95.725 70.681 94.041 C 70.303 93.115,69.871 91.759,69.721 91.028 C 69.571 90.297,69.223 89.306,68.946 88.826 C 68.670 88.346,68.359 87.548,68.256 87.053 C 68.153 86.559,67.810 85.743,67.494 85.240 C 67.177 84.738,66.780 83.903,66.610 83.386 C 66.441 82.869,66.083 82.249,65.817 82.007 C 65.550 81.766,65.265 81.305,65.185 80.983 C 65.104 80.661,64.414 79.461,63.653 78.316 C 62.891 77.171,62.116 75.869,61.931 75.423 C 61.746 74.977,61.504 74.611,61.392 74.611 C 61.281 74.611,60.799 73.944,60.323 73.129 C 59.499 71.719,59.192 71.229,57.838 69.155 C 57.518 68.665,57.255 68.076,57.255 67.846 C 57.254 67.616,57.033 67.147,56.764 66.805 C 56.251 66.153,56.065 65.578,55.153 61.837 C 54.793 60.360,54.650 59.168,54.747 58.459 C 54.988 56.701,56.210 53.196,56.754 52.704 C 57.029 52.455,57.254 52.116,57.254 51.951 C 57.254 51.554,60.392 48.451,61.246 48.003 C 61.615 47.810,61.917 47.552,61.917 47.431 C 61.917 47.309,62.354 47.003,62.889 46.751 C 63.423 46.499,64.210 46.032,64.637 45.714 C 65.065 45.395,65.788 45.055,66.245 44.958 C 66.702 44.862,67.558 44.550,68.146 44.265 C 68.734 43.981,69.934 43.630,70.813 43.484 C 71.691 43.339,72.897 43.042,73.493 42.825 C 76.051 41.892,86.042 41.844,89.339 42.748 M193.653 42.656 C 194.650 42.864,196.492 43.194,197.745 43.389 C 198.999 43.584,200.487 43.984,201.052 44.278 C 201.616 44.573,202.573 44.892,203.177 44.988 C 204.422 45.185,205.850 45.728,206.073 46.090 C 206.156 46.224,206.601 46.414,207.063 46.513 C 207.524 46.612,208.543 47.029,209.326 47.439 C 210.110 47.850,210.926 48.190,211.140 48.197 C 211.354 48.203,211.932 48.553,212.425 48.974 C 212.919 49.396,213.447 49.741,213.600 49.741 C 213.910 49.741,215.976 51.047,217.389 52.137 C 217.897 52.529,218.389 52.850,218.481 52.850 C 219.261 52.850,226.923 59.795,228.756 62.165 C 229.113 62.626,229.666 63.288,229.986 63.636 C 230.306 63.985,230.759 64.644,230.994 65.101 C 231.228 65.559,231.695 66.262,232.031 66.665 C 232.367 67.068,232.642 67.506,232.642 67.639 C 232.642 67.771,232.992 68.363,233.420 68.953 C 233.847 69.543,234.197 70.201,234.197 70.416 C 234.197 70.630,234.469 71.167,234.802 71.608 C 235.135 72.049,235.551 72.992,235.728 73.705 C 235.905 74.417,236.275 75.366,236.552 75.813 C 236.828 76.261,237.179 77.310,237.333 78.145 C 237.487 78.980,237.707 79.780,237.823 79.922 C 238.189 80.372,238.810 82.965,238.971 84.715 C 239.056 85.641,239.293 86.952,239.498 87.629 C 240.747 91.749,240.600 109.472,239.298 111.578 C 239.216 111.711,239.027 113.000,238.879 114.443 C 238.731 115.885,238.423 117.568,238.194 118.183 C 237.965 118.797,237.571 120.291,237.318 121.503 C 237.065 122.714,236.612 124.229,236.311 124.870 C 236.009 125.512,235.760 126.269,235.756 126.554 C 235.753 126.839,235.416 127.714,235.008 128.497 C 234.599 129.281,234.188 130.348,234.095 130.868 C 234.001 131.388,233.758 131.951,233.556 132.119 C 233.354 132.287,232.982 132.969,232.729 133.634 C 232.477 134.300,232.021 135.216,231.715 135.670 C 231.410 136.124,231.080 136.993,230.983 137.600 C 230.886 138.208,230.698 138.836,230.565 138.996 C 229.059 140.811,228.978 153.776,230.454 156.739 C 230.633 157.097,230.863 157.972,230.966 158.682 C 231.069 159.393,231.489 160.698,231.898 161.582 C 232.308 162.467,232.642 163.373,232.642 163.595 C 232.642 163.818,232.919 164.438,233.257 164.973 C 233.595 165.508,233.953 166.318,234.053 166.773 C 234.153 167.227,234.503 167.995,234.832 168.479 C 235.160 168.964,235.562 169.764,235.726 170.259 C 235.889 170.754,236.232 171.384,236.488 171.659 C 236.744 171.933,237.085 172.535,237.245 172.996 C 237.406 173.456,237.835 174.223,238.199 174.700 C 238.562 175.177,238.860 175.692,238.860 175.844 C 238.860 175.997,239.093 176.394,239.378 176.727 C 239.853 177.281,240.299 177.948,242.708 181.715 C 243.156 182.417,243.524 183.233,243.525 183.529 C 243.526 183.825,243.714 184.417,243.944 184.845 C 245.377 187.514,245.439 194.090,244.048 195.984 C 243.943 196.127,243.727 196.633,243.567 197.108 C 242.851 199.233,238.965 203.939,237.176 204.847 C 236.749 205.064,236.166 205.444,235.881 205.692 C 234.970 206.483,229.124 209.326,228.409 209.326 C 228.200 209.326,226.998 209.668,225.738 210.085 C 220.614 211.780,204.451 211.960,200.000 210.371 C 199.216 210.091,197.663 209.681,196.549 209.459 C 195.435 209.237,194.269 208.892,193.958 208.693 C 193.648 208.494,192.694 208.133,191.839 207.892 C 190.984 207.650,190.110 207.306,189.896 207.127 C 189.683 206.949,188.897 206.604,188.151 206.361 C 187.404 206.118,186.727 205.812,186.646 205.681 C 186.565 205.549,185.923 205.194,185.218 204.891 C 184.514 204.588,183.938 204.252,183.938 204.145 C 183.938 204.037,183.569 203.796,183.119 203.610 C 182.668 203.423,181.739 202.884,181.053 202.412 C 180.367 201.941,179.745 201.554,179.672 201.554 C 179.521 201.554,177.708 200.171,176.599 199.210 C 173.840 196.820,168.912 191.444,168.912 190.824 C 168.912 190.649,168.627 190.237,168.278 189.909 C 167.929 189.581,167.573 188.990,167.486 188.595 C 167.399 188.201,167.106 187.677,166.834 187.431 C 166.563 187.185,166.202 186.561,166.031 186.044 C 165.861 185.527,165.457 184.696,165.132 184.197 C 164.808 183.698,164.462 182.845,164.363 182.300 C 164.265 181.756,163.925 180.765,163.608 180.098 C 163.291 179.431,162.885 177.957,162.705 176.822 C 162.526 175.686,162.269 174.468,162.135 174.115 C 161.108 171.412,161.060 160.957,162.053 156.088 C 162.256 155.091,162.554 153.225,162.714 151.943 C 162.874 150.661,163.275 148.737,163.605 147.668 C 163.936 146.600,164.289 145.142,164.391 144.430 C 164.493 143.718,164.841 142.606,165.165 141.961 C 165.489 141.315,165.836 140.208,165.936 139.500 C 166.036 138.792,166.387 137.743,166.715 137.168 C 167.044 136.594,167.397 135.661,167.500 135.096 C 167.602 134.530,167.951 133.601,168.274 133.031 C 168.597 132.461,168.945 131.587,169.047 131.088 C 169.150 130.589,169.511 129.705,169.850 129.122 C 170.189 128.540,170.466 127.888,170.466 127.674 C 170.466 127.460,170.807 126.596,171.223 125.754 C 171.639 124.912,172.104 123.756,172.256 123.187 C 172.408 122.617,172.758 121.783,173.034 121.335 C 173.310 120.886,173.619 119.960,173.722 119.278 C 173.824 118.595,174.177 117.447,174.507 116.726 C 174.837 116.005,175.240 114.540,175.404 113.472 C 175.568 112.403,175.802 111.404,175.926 111.253 C 176.701 110.298,176.906 98.836,176.180 97.021 C 176.010 96.593,175.642 95.109,175.364 93.723 C 175.086 92.336,174.639 90.820,174.371 90.355 C 174.103 89.889,173.800 88.988,173.697 88.353 C 173.595 87.718,173.241 86.785,172.911 86.281 C 172.581 85.776,172.231 85.013,172.132 84.585 C 172.033 84.158,171.693 83.459,171.376 83.031 C 171.059 82.604,170.711 81.962,170.603 81.606 C 170.495 81.250,170.193 80.724,169.931 80.437 C 169.669 80.150,169.284 79.506,169.075 79.007 C 168.866 78.507,168.453 77.879,168.156 77.610 C 167.859 77.341,167.617 77.000,167.617 76.851 C 167.617 76.535,165.377 73.144,165.023 72.925 C 164.890 72.844,164.538 72.286,164.240 71.686 C 163.319 69.833,162.475 68.349,162.090 67.909 C 161.887 67.677,161.574 67.021,161.394 66.451 C 161.214 65.881,160.860 64.890,160.607 64.249 C 159.459 61.337,159.473 56.651,160.636 54.770 C 160.913 54.321,161.140 53.801,161.140 53.612 C 161.140 52.532,166.944 46.645,168.020 46.635 C 168.170 46.633,168.684 46.344,169.162 45.991 C 169.641 45.638,170.450 45.218,170.961 45.057 C 171.473 44.896,172.474 44.496,173.187 44.169 C 173.899 43.841,175.181 43.488,176.036 43.383 C 176.891 43.278,178.057 43.020,178.627 42.809 C 180.947 41.954,189.861 41.862,193.653 42.656 M290.544 42.236 C 291.969 42.367,293.718 42.584,294.430 42.717 C 295.142 42.850,296.738 43.138,297.976 43.356 C 299.214 43.574,300.613 43.953,301.085 44.199 C 301.557 44.444,302.691 44.803,303.604 44.996 C 304.518 45.189,305.625 45.567,306.065 45.836 C 306.505 46.105,307.389 46.465,308.029 46.635 C 308.669 46.805,309.509 47.170,309.895 47.446 C 310.282 47.721,310.983 48.077,311.452 48.237 C 311.922 48.397,312.635 48.801,313.038 49.135 C 313.441 49.468,313.907 49.743,314.074 49.746 C 314.241 49.748,315.194 50.330,316.192 51.038 C 317.189 51.747,318.384 52.524,318.847 52.766 C 319.310 53.007,319.689 53.290,319.689 53.394 C 319.689 53.498,320.243 53.940,320.920 54.377 C 323.194 55.845,327.550 59.986,329.404 62.442 C 329.832 63.008,330.501 63.851,330.891 64.314 C 331.282 64.777,331.676 65.389,331.768 65.674 C 331.860 65.959,332.269 66.575,332.677 67.043 C 333.086 67.511,333.420 68.056,333.420 68.253 C 333.420 68.451,333.695 68.943,334.032 69.345 C 334.369 69.748,334.731 70.369,334.836 70.725 C 334.942 71.082,335.298 71.865,335.627 72.467 C 335.956 73.069,336.305 73.943,336.402 74.410 C 336.498 74.877,336.857 75.842,337.197 76.554 C 337.538 77.267,337.929 78.450,338.067 79.183 C 338.205 79.916,338.552 81.209,338.837 82.055 C 339.122 82.902,339.538 85.041,339.762 86.810 C 339.985 88.579,340.310 90.842,340.483 91.839 C 340.887 94.165,340.877 103.613,340.468 106.347 C 340.298 107.487,339.986 109.877,339.775 111.658 C 339.564 113.439,339.205 115.538,338.976 116.321 C 338.748 117.105,338.385 118.676,338.171 119.813 C 337.956 120.950,337.499 122.549,337.155 123.367 C 336.810 124.185,336.528 125.121,336.528 125.446 C 336.528 125.770,336.193 126.677,335.785 127.461 C 335.376 128.245,334.960 129.343,334.859 129.901 C 334.758 130.459,334.408 131.275,334.082 131.714 C 333.755 132.154,333.408 132.849,333.310 133.261 C 333.213 133.672,332.848 134.383,332.499 134.840 C 332.151 135.297,331.864 135.893,331.863 136.164 C 331.861 136.436,331.555 137.299,331.182 138.083 C 329.390 141.849,329.372 155.685,331.157 157.966 C 331.296 158.144,331.570 159.051,331.765 159.981 C 331.960 160.911,332.412 162.222,332.770 162.894 C 333.127 163.565,333.424 164.291,333.430 164.506 C 333.436 164.721,333.785 165.538,334.207 166.321 C 334.629 167.105,334.974 167.910,334.974 168.110 C 334.974 168.311,335.248 168.835,335.582 169.276 C 335.917 169.717,336.334 170.513,336.508 171.046 C 336.683 171.578,336.936 172.082,337.071 172.166 C 337.207 172.249,337.655 172.986,338.068 173.804 C 338.480 174.621,339.002 175.443,339.228 175.630 C 339.453 175.817,339.637 176.115,339.637 176.291 C 339.637 176.468,339.958 177.026,340.350 177.530 C 340.742 178.035,341.295 178.829,341.580 179.294 C 341.865 179.759,342.356 180.558,342.671 181.068 C 343.823 182.932,344.019 183.366,344.394 184.868 C 344.604 185.710,344.972 186.924,345.214 187.565 C 345.739 188.962,345.607 192.722,344.985 194.095 C 344.772 194.564,344.517 195.356,344.418 195.855 C 344.215 196.878,343.631 198.116,343.101 198.646 C 342.906 198.841,342.746 199.168,342.746 199.373 C 342.746 200.107,336.314 206.218,335.541 206.218 C 335.427 206.218,334.804 206.554,334.155 206.966 C 333.506 207.377,332.697 207.801,332.356 207.908 C 332.015 208.015,331.131 208.378,330.392 208.714 C 329.653 209.051,328.926 209.326,328.776 209.326 C 328.626 209.326,327.399 209.680,326.049 210.113 C 320.780 211.801,305.420 211.941,300.389 210.348 C 299.534 210.077,297.969 209.675,296.911 209.455 C 295.852 209.235,294.862 208.953,294.708 208.827 C 294.555 208.702,293.556 208.337,292.487 208.016 C 291.418 207.695,290.480 207.336,290.402 207.218 C 290.323 207.099,289.624 206.784,288.847 206.517 C 288.071 206.250,286.982 205.723,286.428 205.347 C 285.873 204.971,285.282 204.663,285.114 204.663 C 284.945 204.663,284.349 204.317,283.790 203.893 C 283.230 203.470,282.644 203.120,282.488 203.116 C 282.333 203.112,281.866 202.817,281.452 202.460 C 281.038 202.103,280.466 201.737,280.181 201.646 C 279.896 201.556,279.415 201.236,279.112 200.935 C 278.808 200.635,278.057 199.981,277.443 199.482 C 274.129 196.793,268.135 190.007,268.135 188.946 C 268.135 188.778,267.859 188.311,267.522 187.908 C 267.186 187.506,266.819 186.886,266.708 186.532 C 266.597 186.178,266.239 185.478,265.911 184.977 C 265.584 184.477,265.234 183.718,265.134 183.290 C 265.034 182.863,264.691 181.988,264.372 181.347 C 264.054 180.706,263.707 179.540,263.602 178.756 C 263.497 177.973,263.251 177.019,263.056 176.638 C 261.560 173.717,261.549 155.833,263.041 152.262 C 263.234 151.800,263.477 150.559,263.581 149.505 C 263.685 148.451,264.009 146.994,264.301 146.268 C 264.593 145.542,264.984 144.172,265.171 143.224 C 265.357 142.275,265.736 141.051,266.014 140.503 C 266.291 139.956,266.604 138.983,266.710 138.342 C 266.815 137.701,267.166 136.710,267.489 136.140 C 267.812 135.570,268.152 134.674,268.244 134.150 C 268.336 133.625,268.687 132.692,269.024 132.077 C 269.362 131.462,269.723 130.554,269.826 130.059 C 269.930 129.564,270.276 128.745,270.596 128.238 C 270.915 127.732,271.264 126.913,271.371 126.418 C 271.478 125.923,271.831 125.052,272.156 124.482 C 272.481 123.912,272.831 123.038,272.934 122.539 C 273.037 122.040,273.384 121.108,273.705 120.466 C 274.027 119.825,274.372 118.776,274.473 118.135 C 274.573 117.494,274.861 116.561,275.112 116.062 C 275.363 115.563,275.702 114.398,275.865 113.472 C 276.028 112.545,276.396 110.505,276.683 108.938 C 277.236 105.917,277.365 101.214,276.946 99.352 C 276.442 97.109,276.204 95.911,275.916 94.171 C 275.751 93.174,275.447 92.098,275.241 91.780 C 275.034 91.462,274.684 90.420,274.462 89.465 C 274.241 88.509,273.848 87.428,273.590 87.063 C 273.332 86.698,273.033 85.992,272.925 85.495 C 272.818 84.998,272.467 84.240,272.146 83.811 C 271.825 83.382,271.477 82.740,271.373 82.383 C 271.269 82.027,270.905 81.365,270.566 80.911 C 270.226 80.457,269.948 79.983,269.948 79.856 C 269.948 79.729,269.540 79.051,269.041 78.350 C 268.543 77.648,268.135 76.946,268.135 76.790 C 268.135 76.633,267.885 76.283,267.581 76.012 C 267.276 75.740,266.863 75.168,266.663 74.741 C 266.287 73.939,265.460 72.673,264.513 71.451 C 264.215 71.066,263.843 70.367,263.686 69.896 C 263.529 69.426,263.134 68.750,262.807 68.394 C 262.480 68.038,262.132 67.396,262.032 66.969 C 261.932 66.541,261.643 65.842,261.389 65.415 C 258.368 60.334,261.027 51.639,266.799 47.721 C 268.960 46.253,271.013 45.113,271.805 44.939 C 272.268 44.837,272.945 44.534,273.308 44.265 C 273.691 43.982,274.945 43.618,276.298 43.396 C 277.579 43.187,279.035 42.881,279.534 42.718 C 281.375 42.113,286.682 41.881,290.544 42.236 M77.850 53.091 C 76.710 53.186,75.544 53.389,75.259 53.542 C 74.974 53.696,73.925 54.022,72.927 54.267 C 71.930 54.512,70.939 54.868,70.725 55.058 C 70.512 55.248,69.803 55.632,69.151 55.912 C 66.956 56.853,65.453 59.185,66.155 60.559 C 66.355 60.950,66.605 61.677,66.712 62.176 C 66.819 62.675,67.175 63.403,67.503 63.794 C 67.831 64.185,68.182 64.768,68.283 65.089 C 68.384 65.411,68.800 66.079,69.208 66.575 C 69.615 67.070,69.948 67.579,69.948 67.706 C 69.948 67.833,70.298 68.335,70.725 68.822 C 71.153 69.309,71.503 69.830,71.503 69.980 C 71.503 70.129,71.836 70.737,72.244 71.331 C 73.603 73.307,74.611 74.957,74.611 75.201 C 74.611 75.334,74.898 75.784,75.249 76.201 C 75.600 76.618,75.998 77.362,76.134 77.855 C 76.270 78.347,76.556 78.925,76.770 79.138 C 76.983 79.352,77.358 80.140,77.602 80.890 C 77.846 81.640,78.201 82.432,78.390 82.650 C 78.579 82.868,78.904 83.700,79.112 84.499 C 79.320 85.298,79.657 86.286,79.860 86.693 C 80.257 87.488,80.700 89.131,80.967 90.794 C 81.058 91.359,81.285 92.117,81.472 92.478 C 82.750 94.953,82.747 110.724,81.468 114.637 C 81.282 115.207,80.937 116.665,80.703 117.876 C 80.468 119.087,80.106 120.422,79.898 120.843 C 79.690 121.265,79.340 122.314,79.119 123.175 C 78.899 124.036,78.543 125.013,78.328 125.346 C 78.114 125.679,77.761 126.553,77.545 127.289 C 77.329 128.025,76.931 128.990,76.659 129.435 C 76.388 129.879,76.166 130.416,76.166 130.629 C 76.166 130.841,75.819 131.702,75.395 132.541 C 74.972 133.381,74.553 134.417,74.464 134.845 C 74.376 135.272,73.965 136.311,73.551 137.153 C 73.137 137.995,72.798 138.902,72.798 139.169 C 72.798 139.436,72.509 140.224,72.157 140.920 C 71.804 141.616,71.435 142.690,71.336 143.308 C 71.238 143.925,70.895 145.023,70.575 145.747 C 70.255 146.471,69.910 147.637,69.809 148.338 C 69.708 149.038,69.360 150.435,69.036 151.441 C 68.712 152.447,68.365 154.196,68.264 155.327 C 68.164 156.458,67.918 158.258,67.719 159.326 C 67.315 161.501,67.267 167.242,67.635 169.430 C 67.767 170.214,68.006 171.846,68.167 173.057 C 68.327 174.268,68.718 175.784,69.036 176.425 C 69.354 177.066,69.692 177.997,69.787 178.493 C 69.882 178.990,70.232 179.807,70.565 180.310 C 70.897 180.813,71.261 181.514,71.372 181.869 C 71.483 182.223,71.849 182.842,72.186 183.245 C 72.522 183.648,72.798 184.074,72.798 184.193 C 72.798 184.362,75.103 187.259,76.408 188.731 C 76.535 188.873,77.237 189.456,77.968 190.026 C 78.700 190.596,79.687 191.383,80.163 191.775 C 80.638 192.166,81.113 192.487,81.218 192.487 C 81.322 192.487,81.807 192.837,82.293 193.264 C 82.780 193.692,83.303 194.041,83.456 194.041 C 83.609 194.041,84.080 194.333,84.503 194.689 C 84.927 195.045,85.481 195.337,85.735 195.337 C 85.989 195.337,86.651 195.645,87.205 196.022 C 87.759 196.399,88.620 196.820,89.119 196.958 C 89.618 197.097,90.492 197.426,91.062 197.692 C 92.002 198.129,95.198 199.163,97.347 199.726 C 97.812 199.847,99.619 200.082,101.363 200.248 C 103.107 200.414,105.134 200.675,105.869 200.828 C 106.603 200.982,107.769 201.039,108.459 200.955 C 116.443 199.992,117.844 199.775,118.408 199.411 C 118.757 199.187,119.723 198.828,120.555 198.613 C 121.388 198.399,122.262 198.060,122.498 197.860 C 122.734 197.660,123.394 197.285,123.964 197.027 C 128.324 195.050,130.362 189.680,127.942 186.542 C 127.107 185.459,126.228 184.141,125.516 182.902 C 125.147 182.260,124.445 181.095,123.956 180.311 C 123.467 179.527,122.857 178.478,122.602 177.979 C 122.346 177.481,121.837 176.606,121.469 176.036 C 121.102 175.466,120.718 174.738,120.616 174.417 C 120.515 174.097,120.331 173.834,120.208 173.834 C 120.085 173.834,119.792 173.169,119.555 172.357 C 119.319 171.544,118.925 170.624,118.680 170.312 C 118.434 170.000,118.018 169.033,117.755 168.163 C 117.491 167.292,117.190 166.580,117.085 166.580 C 116.981 166.580,116.694 165.735,116.448 164.702 C 116.203 163.669,115.784 162.358,115.517 161.788 C 113.808 158.135,112.866 144.475,114.034 140.285 C 114.273 139.430,114.651 137.805,114.874 136.675 C 115.098 135.544,115.383 134.553,115.508 134.473 C 115.632 134.392,115.934 133.627,116.178 132.772 C 116.421 131.917,116.787 130.959,116.990 130.643 C 117.192 130.327,117.601 129.454,117.897 128.703 C 118.193 127.951,118.544 127.269,118.676 127.187 C 118.809 127.106,119.155 126.364,119.445 125.539 C 119.735 124.714,120.128 123.789,120.318 123.483 C 120.509 123.178,120.866 122.081,121.112 121.047 C 121.358 120.013,121.651 119.110,121.762 119.041 C 121.874 118.972,122.167 117.778,122.414 116.388 C 122.660 114.998,123.069 113.219,123.322 112.435 C 124.665 108.274,124.639 87.777,123.289 86.113 C 123.161 85.956,122.832 84.754,122.557 83.442 C 122.282 82.130,121.935 80.909,121.786 80.728 C 121.636 80.548,121.277 79.636,120.989 78.703 C 120.701 77.769,120.298 76.866,120.094 76.697 C 119.889 76.528,119.647 76.047,119.555 75.629 C 119.464 75.210,118.990 74.288,118.502 73.580 C 118.015 72.872,117.617 72.232,117.617 72.159 C 117.617 71.316,110.652 64.308,107.383 61.862 C 106.956 61.542,106.452 61.132,106.264 60.951 C 106.076 60.770,105.802 60.622,105.656 60.622 C 105.510 60.622,105.028 60.359,104.585 60.039 C 103.576 59.308,102.030 58.445,100.518 57.766 C 99.877 57.478,98.769 56.964,98.057 56.624 C 97.345 56.284,96.245 55.867,95.615 55.699 C 94.984 55.530,94.203 55.219,93.880 55.007 C 93.557 54.796,92.674 54.528,91.918 54.412 C 89.576 54.052,87.447 53.588,87.176 53.378 C 86.803 53.088,80.294 52.888,77.850 53.091 M182.902 53.105 C 181.975 53.217,180.402 53.551,179.404 53.849 C 178.407 54.146,177.358 54.394,177.073 54.400 C 176.788 54.407,176.308 54.556,176.007 54.732 C 175.705 54.908,174.948 55.327,174.323 55.664 C 171.223 57.336,170.029 59.733,171.336 61.663 C 171.673 62.159,172.037 62.848,172.146 63.195 C 172.255 63.541,172.680 64.287,173.089 64.853 C 173.499 65.418,173.839 66.009,173.845 66.166 C 173.851 66.323,174.200 66.854,174.622 67.348 C 175.044 67.841,175.389 68.378,175.389 68.540 C 175.389 68.703,175.693 69.165,176.065 69.566 C 176.438 69.968,176.857 70.626,176.997 71.029 C 177.138 71.432,177.355 71.762,177.480 71.762 C 177.605 71.762,177.953 72.302,178.254 72.962 C 178.555 73.623,179.024 74.402,179.297 74.695 C 179.570 74.988,179.793 75.364,179.793 75.531 C 179.793 75.698,180.060 76.230,180.387 76.713 C 180.714 77.196,181.191 78.115,181.445 78.756 C 181.700 79.398,182.063 80.097,182.252 80.311 C 182.441 80.525,182.789 81.368,183.025 82.184 C 183.261 83.001,183.561 83.736,183.692 83.817 C 183.824 83.898,184.177 84.803,184.477 85.829 C 184.777 86.855,185.177 88.044,185.366 88.472 C 185.554 88.899,185.840 89.948,186.001 90.803 C 186.161 91.658,186.469 93.174,186.684 94.171 C 187.884 99.733,187.890 109.114,186.695 113.139 C 186.493 113.820,186.194 115.248,186.031 116.312 C 185.867 117.375,185.560 118.594,185.347 119.021 C 185.135 119.447,184.784 120.557,184.568 121.488 C 184.352 122.419,184.010 123.433,183.808 123.742 C 183.605 124.051,183.304 124.869,183.139 125.559 C 182.850 126.765,182.417 127.816,180.798 131.244 C 180.388 132.113,180.052 132.971,180.052 133.149 C 180.052 133.328,179.749 134.074,179.379 134.807 C 179.009 135.540,178.472 136.898,178.186 137.824 C 177.900 138.750,177.574 139.624,177.461 139.767 C 177.348 139.909,176.999 140.900,176.684 141.969 C 176.369 143.038,176.020 144.028,175.908 144.171 C 175.796 144.313,175.502 145.363,175.255 146.503 C 175.008 147.642,174.636 148.983,174.428 149.482 C 174.220 149.981,173.877 151.496,173.665 152.850 C 172.927 157.572,172.850 157.968,172.566 158.499 C 171.961 159.629,172.208 169.246,172.915 172.086 C 173.260 173.475,173.624 175.150,173.723 175.808 C 173.822 176.467,174.235 177.661,174.642 178.464 C 175.049 179.266,175.384 180.111,175.385 180.341 C 175.387 180.571,175.605 181.037,175.870 181.377 C 176.135 181.717,176.556 182.393,176.805 182.879 C 177.055 183.365,177.537 184.063,177.878 184.430 C 178.219 184.798,178.497 185.206,178.497 185.338 C 178.497 185.807,183.566 190.862,184.254 191.080 C 184.508 191.161,184.715 191.325,184.715 191.446 C 184.715 192.017,192.513 196.450,194.780 197.167 C 195.300 197.332,196.014 197.649,196.366 197.871 C 196.718 198.092,197.762 198.432,198.685 198.626 C 199.608 198.819,200.718 199.158,201.153 199.378 C 201.917 199.766,202.895 199.917,208.420 200.506 C 209.845 200.658,211.278 200.843,211.606 200.917 C 211.933 200.991,213.157 200.938,214.326 200.798 C 215.495 200.659,217.617 200.409,219.041 200.244 C 221.856 199.917,226.410 198.530,228.035 197.504 C 228.569 197.167,229.061 196.891,229.129 196.891 C 229.581 196.891,232.302 194.507,233.094 193.417 C 234.694 191.216,234.265 188.440,231.791 184.974 C 230.387 183.009,230.018 182.430,229.641 181.606 C 229.413 181.108,228.959 180.408,228.632 180.052 C 228.305 179.696,227.952 179.122,227.847 178.776 C 227.742 178.431,227.441 177.917,227.177 177.633 C 226.912 177.350,226.560 176.699,226.392 176.188 C 226.225 175.677,225.815 174.853,225.480 174.357 C 225.145 173.861,224.870 173.348,224.870 173.218 C 224.870 173.088,224.462 172.133,223.964 171.097 C 223.465 170.060,223.057 169.066,223.057 168.888 C 223.057 168.710,222.873 168.360,222.647 168.111 C 222.422 167.862,222.004 166.746,221.718 165.631 C 221.433 164.516,221.087 163.535,220.950 163.450 C 220.813 163.366,220.470 162.141,220.186 160.729 C 219.903 159.316,219.500 157.720,219.291 157.182 C 218.160 154.273,218.234 141.680,219.404 138.156 C 219.677 137.332,220.099 135.813,220.341 134.780 C 220.583 133.747,220.867 132.902,220.971 132.902 C 221.076 132.902,221.377 132.189,221.641 131.319 C 221.904 130.449,222.314 129.487,222.551 129.182 C 222.788 128.877,223.122 128.197,223.293 127.672 C 223.464 127.146,223.833 126.426,224.112 126.071 C 224.392 125.716,224.717 124.905,224.836 124.270 C 224.955 123.634,225.296 122.720,225.594 122.237 C 225.892 121.755,226.250 120.664,226.390 119.813 C 226.530 118.961,226.876 117.740,227.160 117.098 C 227.444 116.457,227.805 114.853,227.963 113.532 C 228.121 112.212,228.504 110.114,228.814 108.869 C 229.748 105.128,229.680 92.687,228.705 88.860 C 228.324 87.364,227.944 85.536,227.860 84.797 C 227.776 84.058,227.434 82.834,227.099 82.077 C 226.765 81.319,226.408 80.291,226.305 79.793 C 226.202 79.294,225.852 78.474,225.527 77.969 C 225.202 77.465,224.854 76.680,224.754 76.224 C 224.653 75.768,224.460 75.326,224.324 75.242 C 224.188 75.158,223.825 74.544,223.518 73.879 C 223.211 73.213,222.632 72.263,222.231 71.767 C 221.830 71.272,221.503 70.769,221.503 70.650 C 221.503 70.205,215.139 63.731,214.702 63.731 C 214.557 63.731,214.188 63.468,213.882 63.148 C 213.577 62.827,212.631 62.110,211.780 61.555 C 210.929 61.000,209.942 60.329,209.585 60.064 C 209.229 59.798,208.355 59.294,207.642 58.942 C 206.930 58.590,206.172 58.195,205.959 58.062 C 205.065 57.510,202.006 56.170,200.854 55.826 C 200.170 55.622,199.150 55.219,198.585 54.930 C 198.021 54.641,197.247 54.404,196.865 54.404 C 196.483 54.404,195.080 54.123,193.746 53.779 C 191.036 53.080,185.801 52.755,182.902 53.105 M283.420 53.094 C 274.340 54.140,269.339 58.233,272.080 62.375 C 272.463 62.955,272.850 63.719,272.939 64.074 C 273.028 64.428,273.382 64.982,273.727 65.306 C 274.071 65.629,274.354 66.019,274.357 66.172 C 274.359 66.325,274.939 67.267,275.645 68.264 C 276.351 69.262,277.179 70.544,277.484 71.114 C 277.790 71.684,278.191 72.325,278.377 72.539 C 278.796 73.022,279.858 74.883,280.595 76.425 C 280.901 77.066,281.294 77.766,281.468 77.979 C 281.642 78.193,281.988 78.892,282.235 79.534 C 282.483 80.175,282.846 80.878,283.041 81.096 C 283.237 81.314,283.563 82.130,283.766 82.909 C 283.970 83.689,284.374 84.734,284.665 85.233 C 284.956 85.732,285.315 86.807,285.463 87.623 C 285.610 88.439,285.910 89.451,286.128 89.873 C 286.496 90.586,286.661 91.452,287.337 96.244 C 287.478 97.241,287.704 98.415,287.838 98.853 C 288.159 99.896,288.152 107.383,287.829 108.549 C 287.691 109.048,287.341 111.073,287.051 113.049 C 286.761 115.025,286.354 117.007,286.148 117.453 C 285.941 117.899,285.581 119.139,285.347 120.207 C 285.114 121.276,284.776 122.383,284.597 122.668 C 284.417 122.953,284.072 123.871,283.829 124.708 C 283.586 125.544,283.161 126.650,282.885 127.165 C 282.609 127.680,282.383 128.295,282.383 128.532 C 282.383 128.769,282.034 129.628,281.606 130.440 C 281.179 131.253,280.829 132.061,280.829 132.236 C 280.829 132.411,280.530 133.128,280.165 133.829 C 279.799 134.530,279.323 135.687,279.106 136.399 C 278.890 137.111,278.550 137.949,278.351 138.261 C 278.152 138.572,277.871 139.355,277.726 139.999 C 277.582 140.644,277.172 141.809,276.815 142.590 C 276.458 143.370,276.166 144.202,276.166 144.438 C 276.166 145.031,275.376 147.735,275.103 148.078 C 274.981 148.231,274.755 149.280,274.602 150.409 C 274.449 151.538,274.095 153.201,273.814 154.104 C 272.574 158.097,272.496 170.684,273.689 174.100 C 274.022 175.051,274.378 176.342,274.480 176.969 C 274.582 177.596,274.886 178.471,275.156 178.914 C 275.425 179.358,275.816 180.205,276.025 180.797 C 276.234 181.389,276.701 182.262,277.063 182.736 C 277.424 183.210,277.720 183.688,277.720 183.798 C 277.720 184.432,282.882 189.822,284.996 191.395 C 285.625 191.863,286.665 192.649,287.306 193.141 C 287.947 193.634,288.602 194.038,288.760 194.039 C 288.919 194.040,289.349 194.277,289.715 194.565 C 290.081 194.853,290.862 195.259,291.451 195.466 C 292.039 195.674,292.820 196.079,293.187 196.368 C 293.553 196.656,294.041 196.895,294.271 196.899 C 294.501 196.904,295.272 197.197,295.984 197.551 C 296.697 197.905,298.096 198.382,299.093 198.611 C 300.091 198.840,301.238 199.196,301.643 199.403 C 302.508 199.845,310.001 200.859,312.435 200.864 C 315.346 200.869,322.877 199.942,323.425 199.511 C 323.579 199.390,324.567 199.027,325.620 198.705 C 326.674 198.384,327.943 197.844,328.441 197.506 C 328.939 197.168,329.460 196.891,329.598 196.891 C 329.736 196.891,330.099 196.668,330.404 196.395 C 330.709 196.122,331.464 195.459,332.081 194.921 C 333.202 193.943,334.715 191.381,334.715 190.458 C 334.715 189.363,331.760 183.782,330.726 182.923 C 330.498 182.734,330.311 182.436,330.311 182.261 C 330.311 182.086,329.961 181.460,329.534 180.870 C 329.106 180.280,328.756 179.689,328.756 179.556 C 328.756 179.423,328.462 178.964,328.102 178.537 C 327.742 178.109,327.315 177.371,327.154 176.898 C 326.992 176.424,326.653 175.767,326.399 175.439 C 326.146 175.110,325.747 174.265,325.513 173.560 C 325.279 172.856,324.990 172.280,324.870 172.280 C 324.751 172.280,324.454 171.668,324.212 170.920 C 323.969 170.172,323.562 169.210,323.307 168.782 C 323.052 168.355,322.649 167.329,322.410 166.502 C 322.171 165.676,321.813 164.685,321.613 164.300 C 321.414 163.916,321.059 162.727,320.825 161.658 C 320.591 160.589,320.308 159.598,320.197 159.456 C 318.739 157.596,318.477 142.887,319.813 137.953 C 320.593 135.073,321.474 132.457,321.992 131.487 C 322.293 130.922,322.539 130.268,322.539 130.033 C 322.539 129.798,322.819 129.194,323.161 128.690 C 323.503 128.186,323.864 127.499,323.965 127.164 C 324.065 126.829,324.412 126.088,324.736 125.518 C 325.061 124.948,325.410 124.090,325.514 123.611 C 325.617 123.133,325.971 122.132,326.300 121.388 C 326.629 120.643,326.984 119.461,327.089 118.761 C 327.193 118.060,327.544 116.707,327.868 115.753 C 328.191 114.800,328.528 113.342,328.615 112.515 C 328.917 109.654,329.573 105.048,329.812 104.115 C 330.298 102.217,330.093 95.560,329.428 91.636 C 329.084 89.610,328.721 87.196,328.620 86.269 C 328.519 85.343,328.216 84.152,327.948 83.623 C 327.679 83.093,327.329 82.053,327.170 81.311 C 327.011 80.569,326.619 79.470,326.299 78.868 C 325.979 78.266,325.634 77.441,325.533 77.035 C 325.431 76.628,325.195 76.120,325.008 75.907 C 324.821 75.693,324.408 74.906,324.090 74.158 C 323.772 73.410,323.421 72.798,323.310 72.798 C 323.200 72.798,322.876 72.350,322.590 71.802 C 322.305 71.255,321.769 70.480,321.398 70.081 C 321.028 69.681,320.725 69.265,320.725 69.156 C 320.725 68.835,315.387 63.731,315.050 63.731 C 314.963 63.731,314.601 63.464,314.246 63.139 C 313.891 62.814,313.164 62.280,312.630 61.952 C 312.095 61.625,311.658 61.279,311.658 61.183 C 311.658 61.088,311.133 60.731,310.492 60.391 C 309.851 60.051,309.326 59.681,309.326 59.570 C 309.326 59.459,309.002 59.296,308.606 59.209 C 308.209 59.122,307.364 58.705,306.727 58.283 C 306.091 57.861,305.393 57.515,305.177 57.514 C 304.960 57.513,304.351 57.219,303.823 56.860 C 303.294 56.501,302.480 56.135,302.014 56.048 C 301.547 55.960,300.560 55.607,299.820 55.264 C 299.080 54.920,297.792 54.529,296.958 54.395 C 296.124 54.260,294.564 53.926,293.493 53.652 C 291.281 53.087,286.017 52.795,283.420 53.094 " stroke="none" fill="#fcfcfc" fill-rule="evenodd"></path></g></svg>