<svg id="svg" version="1.1" xmlns="http://www.w3.org/2000/svg" xmlns:xlink="http://www.w3.org/1999/xlink" width="400" height="258.91472868217056" viewBox="0, 0, 400,258.91472868217056"><g id="svgg"><path id="path0" d="M79.275 44.116 C 78.063 44.229,76.256 44.488,75.259 44.691 C 74.262 44.895,72.575 45.187,71.511 45.340 C 70.446 45.493,69.392 45.784,69.168 45.988 C 68.943 46.191,67.978 46.598,67.022 46.894 C 66.067 47.189,65.285 47.540,65.285 47.675 C 65.285 47.810,64.864 48.097,64.349 48.312 C 63.834 48.527,63.014 49.053,62.526 49.481 C 62.039 49.909,61.535 50.259,61.407 50.259 C 61.279 50.259,61.099 50.499,61.005 50.793 C 60.912 51.087,60.583 51.442,60.274 51.583 C 59.965 51.724,59.447 52.300,59.123 52.863 C 58.799 53.425,58.432 53.886,58.308 53.886 C 57.052 53.886,57.028 64.764,58.283 65.540 C 58.418 65.623,58.783 66.271,59.094 66.978 C 59.405 67.685,59.887 68.556,60.164 68.912 C 60.442 69.268,60.827 69.938,61.021 70.402 C 61.214 70.865,61.481 71.244,61.613 71.244 C 61.745 71.244,62.104 71.826,62.411 72.539 C 62.717 73.251,63.063 73.834,63.180 73.834 C 63.297 73.834,63.603 74.301,63.860 74.870 C 64.117 75.440,64.428 75.907,64.550 75.907 C 64.673 75.907,65.034 76.460,65.353 77.137 C 65.672 77.813,66.121 78.542,66.350 78.756 C 66.580 78.970,66.920 79.553,67.105 80.052 C 67.290 80.551,67.632 81.192,67.865 81.477 C 68.097 81.762,68.445 82.461,68.637 83.031 C 68.829 83.601,69.186 84.324,69.430 84.638 C 69.674 84.952,70.025 85.768,70.210 86.452 C 70.394 87.135,70.711 87.888,70.914 88.125 C 71.116 88.361,71.456 89.398,71.670 90.429 C 71.883 91.459,72.241 92.583,72.465 92.925 C 73.882 95.086,73.873 112.890,72.456 114.457 C 72.230 114.706,71.910 115.782,71.745 116.847 C 71.580 117.911,71.242 119.074,70.995 119.431 C 70.748 119.788,70.356 120.824,70.126 121.733 C 69.895 122.642,69.533 123.578,69.321 123.812 C 69.109 124.046,68.757 124.923,68.539 125.760 C 68.321 126.598,67.977 127.469,67.775 127.696 C 67.573 127.923,67.222 128.740,66.995 129.512 C 66.768 130.284,66.417 131.100,66.215 131.325 C 66.013 131.551,65.671 132.417,65.455 133.250 C 65.239 134.082,64.889 134.956,64.678 135.193 C 64.466 135.429,64.117 136.477,63.901 137.523 C 63.686 138.569,63.336 139.618,63.124 139.855 C 62.911 140.091,62.603 141.043,62.439 141.969 C 62.275 142.895,61.872 144.236,61.544 144.948 C 61.216 145.661,60.869 147.056,60.772 148.049 C 60.675 149.042,60.358 150.383,60.067 151.028 C 58.533 154.431,58.547 174.584,60.085 177.596 C 60.378 178.170,60.744 179.324,60.899 180.161 C 61.054 180.999,61.336 181.839,61.526 182.029 C 61.715 182.219,62.078 182.930,62.331 183.609 C 62.584 184.289,63.003 185.123,63.261 185.462 C 63.519 185.802,63.731 186.277,63.731 186.517 C 63.731 186.757,64.080 187.345,64.508 187.824 C 64.936 188.303,65.425 189.082,65.596 189.555 C 65.767 190.028,66.045 190.415,66.212 190.415 C 66.380 190.415,66.657 190.751,66.827 191.161 C 66.997 191.572,67.390 192.147,67.700 192.439 C 68.010 192.731,68.396 193.123,68.556 193.311 C 68.717 193.499,69.067 193.849,69.334 194.088 C 69.600 194.327,69.954 194.677,70.120 194.865 C 71.108 195.986,75.488 199.740,75.811 199.743 C 75.935 199.745,76.548 200.153,77.174 200.650 C 77.799 201.148,78.524 201.554,78.784 201.554 C 79.044 201.554,79.379 201.783,79.529 202.063 C 79.679 202.343,80.295 202.715,80.898 202.890 C 81.501 203.064,82.319 203.472,82.715 203.795 C 83.111 204.119,83.869 204.463,84.399 204.561 C 84.929 204.658,85.684 205.006,86.076 205.333 C 86.469 205.660,87.343 206.010,88.019 206.112 C 88.695 206.213,89.657 206.559,90.155 206.882 C 90.730 207.253,91.679 207.531,92.746 207.643 C 94.332 207.807,96.165 208.287,97.116 208.785 C 99.116 209.834,116.315 209.555,118.782 208.435 C 119.495 208.111,120.824 207.764,121.737 207.662 C 122.844 207.539,123.663 207.280,124.198 206.883 C 124.639 206.555,125.384 206.215,125.854 206.127 C 126.324 206.039,127.081 205.683,127.538 205.335 C 127.994 204.988,128.698 204.621,129.101 204.521 C 129.505 204.420,129.898 204.173,129.975 203.971 C 130.052 203.770,130.539 203.389,131.055 203.125 C 132.447 202.415,135.701 198.776,136.260 197.306 C 136.402 196.931,136.758 196.300,137.052 195.903 C 138.090 194.500,138.005 185.608,136.946 184.834 C 136.734 184.678,136.422 184.002,136.252 183.330 C 136.083 182.658,135.744 181.966,135.498 181.792 C 135.253 181.619,134.808 180.923,134.510 180.246 C 134.211 179.569,133.866 179.016,133.743 179.016 C 133.620 179.016,133.314 178.549,133.062 177.979 C 132.811 177.409,132.491 176.943,132.351 176.943 C 132.212 176.943,131.937 176.564,131.741 176.101 C 131.544 175.638,131.084 174.858,130.717 174.367 C 130.351 173.876,130.052 173.340,130.052 173.175 C 130.052 173.011,129.704 172.363,129.279 171.736 C 128.854 171.109,128.505 170.408,128.502 170.179 C 128.500 169.949,128.200 169.323,127.836 168.786 C 127.472 168.250,126.993 167.272,126.772 166.613 C 126.552 165.954,126.209 165.232,126.011 165.008 C 125.814 164.784,125.540 164.012,125.404 163.292 C 125.267 162.572,124.909 161.509,124.607 160.931 C 124.306 160.353,123.949 159.105,123.815 158.158 C 123.681 157.211,123.436 156.183,123.269 155.873 C 121.955 153.425,121.901 142.353,123.193 140.287 C 123.373 140.001,123.642 139.040,123.792 138.153 C 123.943 137.265,124.350 136.041,124.696 135.432 C 125.043 134.824,125.407 133.985,125.504 133.567 C 125.602 133.149,125.965 132.469,126.312 132.057 C 126.659 131.645,126.943 131.002,126.943 130.629 C 126.943 130.256,127.222 129.536,127.563 129.029 C 127.903 128.523,128.326 127.468,128.502 126.684 C 128.678 125.900,128.968 125.084,129.145 124.870 C 129.543 124.392,129.960 123.046,130.188 121.503 C 130.283 120.861,130.504 120.104,130.679 119.819 C 131.131 119.083,131.554 117.246,131.722 115.281 C 131.802 114.352,132.120 112.778,132.428 111.783 C 132.953 110.090,132.996 109.329,133.096 99.890 C 133.207 89.498,133.155 88.769,132.110 86.010 C 131.975 85.654,131.761 84.331,131.635 83.070 C 131.470 81.418,131.256 80.574,130.868 80.049 C 130.572 79.649,130.211 78.584,130.066 77.684 C 129.921 76.784,129.567 75.729,129.280 75.341 C 128.993 74.953,128.573 74.076,128.347 73.393 C 128.121 72.709,127.791 72.034,127.615 71.891 C 127.439 71.749,127.076 71.020,126.809 70.272 C 126.541 69.524,126.223 68.912,126.101 68.912 C 125.980 68.912,125.722 68.533,125.528 68.070 C 125.335 67.607,124.816 66.775,124.376 66.221 C 123.935 65.667,123.575 65.122,123.575 65.010 C 123.575 64.817,123.315 64.510,121.308 62.329 C 120.845 61.825,120.466 61.313,120.466 61.189 C 120.466 61.065,120.185 60.836,119.841 60.679 C 119.497 60.522,119.140 60.154,119.046 59.860 C 118.953 59.567,118.727 59.326,118.543 59.326 C 118.360 59.326,117.486 58.627,116.601 57.772 C 115.717 56.917,114.895 56.218,114.775 56.218 C 114.511 56.218,112.559 54.691,111.648 53.772 C 111.287 53.407,110.800 53.109,110.567 53.109 C 110.334 53.109,109.795 52.816,109.369 52.458 C 108.944 52.099,108.185 51.635,107.683 51.425 C 107.182 51.216,106.704 50.935,106.621 50.802 C 106.539 50.668,105.919 50.350,105.243 50.094 C 104.568 49.838,103.641 49.376,103.182 49.067 C 102.724 48.759,101.921 48.426,101.398 48.328 C 100.875 48.230,100.143 47.933,99.770 47.669 C 99.398 47.404,98.403 47.050,97.558 46.882 C 96.714 46.714,95.607 46.362,95.097 46.099 C 94.557 45.821,92.820 45.449,90.933 45.208 C 89.152 44.981,87.345 44.690,86.917 44.562 C 85.513 44.141,81.518 43.908,79.275 44.116 M184.067 44.100 C 182.642 44.228,180.894 44.492,180.181 44.688 C 179.469 44.884,177.871 45.180,176.630 45.345 C 175.171 45.540,174.182 45.813,173.831 46.117 C 173.533 46.375,172.703 46.727,171.987 46.899 C 171.271 47.071,170.626 47.367,170.553 47.557 C 170.480 47.747,169.994 48.041,169.472 48.211 C 168.159 48.639,167.341 49.319,163.890 52.850 C 163.541 53.206,163.123 54.003,162.959 54.622 C 162.796 55.240,162.419 56.211,162.123 56.780 C 161.490 57.994,161.586 61.762,162.278 62.818 C 162.488 63.138,162.834 64.068,163.047 64.885 C 163.260 65.701,163.610 66.563,163.823 66.799 C 164.037 67.035,164.449 67.782,164.739 68.459 C 165.029 69.135,165.373 69.689,165.503 69.689 C 165.633 69.689,165.990 70.272,166.297 70.984 C 166.603 71.697,166.949 72.280,167.066 72.280 C 167.183 72.280,167.486 72.739,167.739 73.301 C 167.992 73.862,168.351 74.380,168.536 74.451 C 168.721 74.522,169.078 75.024,169.329 75.567 C 169.580 76.110,170.055 76.884,170.385 77.287 C 170.715 77.689,170.984 78.171,170.984 78.356 C 170.984 78.541,171.178 78.853,171.415 79.049 C 171.652 79.244,172.112 80.005,172.437 80.740 C 172.763 81.475,173.143 82.147,173.282 82.233 C 173.422 82.319,173.738 83.000,173.985 83.747 C 174.233 84.493,174.639 85.395,174.888 85.751 C 175.137 86.108,175.419 86.862,175.516 87.427 C 175.613 87.993,175.964 88.926,176.297 89.500 C 176.637 90.087,176.978 91.224,177.076 92.098 C 177.172 92.953,177.486 94.119,177.774 94.689 C 179.065 97.246,179.069 109.579,177.779 112.452 C 177.495 113.084,177.180 114.408,177.078 115.394 C 176.955 116.581,176.690 117.499,176.293 118.114 C 175.963 118.624,175.613 119.683,175.514 120.466 C 175.412 121.279,175.128 122.116,174.854 122.414 C 174.590 122.702,174.202 123.675,173.992 124.577 C 173.781 125.479,173.456 126.409,173.268 126.645 C 172.624 127.454,172.280 128.233,172.280 128.882 C 172.280 129.241,172.043 129.770,171.754 130.059 C 171.466 130.348,171.045 131.310,170.821 132.196 C 170.597 133.083,170.267 133.983,170.088 134.197 C 169.671 134.695,169.171 136.180,169.171 136.921 C 169.171 137.237,168.947 137.779,168.674 138.127 C 168.401 138.474,168.002 139.603,167.789 140.636 C 167.575 141.668,167.233 142.769,167.030 143.083 C 166.646 143.672,166.214 145.383,165.937 147.409 C 165.849 148.051,165.619 148.816,165.426 149.111 C 165.084 149.634,164.708 151.800,164.375 155.179 C 164.284 156.104,164.104 156.987,163.976 157.141 C 163.148 158.139,163.044 170.442,163.850 172.001 C 164.056 172.400,164.353 173.763,164.509 175.029 C 164.864 177.899,165.009 178.526,165.432 179.016 C 165.617 179.231,165.958 180.241,166.190 181.262 C 166.422 182.282,166.772 183.179,166.967 183.253 C 167.162 183.328,167.526 184.038,167.775 184.830 C 168.025 185.621,168.329 186.269,168.450 186.269 C 168.572 186.269,168.905 186.816,169.192 187.484 C 169.478 188.152,169.940 188.858,170.219 189.053 C 170.497 189.248,170.727 189.547,170.729 189.717 C 170.737 190.472,177.553 197.650,179.080 198.511 C 179.615 198.813,180.052 199.153,180.052 199.267 C 180.052 199.381,180.461 199.646,180.962 199.855 C 181.463 200.065,181.940 200.410,182.021 200.623 C 182.103 200.837,182.558 201.139,183.031 201.295 C 183.505 201.452,184.165 201.851,184.498 202.182 C 184.831 202.513,185.467 202.863,185.911 202.959 C 186.354 203.056,186.975 203.375,187.291 203.669 C 187.606 203.962,188.452 204.358,189.171 204.547 C 189.890 204.737,190.727 205.118,191.030 205.395 C 191.332 205.671,192.161 205.980,192.871 206.082 C 193.580 206.184,194.485 206.498,194.882 206.781 C 195.298 207.077,196.510 207.441,197.748 207.642 C 198.927 207.832,200.568 208.226,201.393 208.516 C 205.154 209.838,220.042 209.785,223.645 208.436 C 224.533 208.104,225.883 207.748,226.646 207.645 C 227.409 207.541,228.674 207.120,229.457 206.708 C 230.241 206.296,231.098 205.959,231.363 205.959 C 231.628 205.959,232.059 205.728,232.321 205.447 C 232.583 205.166,233.273 204.768,233.855 204.563 C 234.436 204.358,235.188 203.941,235.526 203.635 C 237.869 201.518,239.896 199.503,239.896 199.291 C 239.896 199.153,240.201 198.711,240.573 198.310 C 240.944 197.908,241.481 196.871,241.765 196.005 C 242.049 195.139,242.415 194.347,242.579 194.245 C 243.096 193.922,242.974 187.322,242.437 186.528 C 242.195 186.172,241.870 185.309,241.714 184.611 C 241.559 183.913,241.152 183.010,240.811 182.605 C 240.470 182.200,240.108 181.605,240.007 181.284 C 239.906 180.962,239.490 180.294,239.083 179.798 C 238.675 179.303,238.342 178.766,238.342 178.606 C 238.342 178.445,238.051 178.000,237.694 177.615 C 237.338 177.231,237.047 176.764,237.047 176.579 C 237.047 176.393,236.778 175.952,236.450 175.598 C 236.122 175.244,235.650 174.421,235.401 173.769 C 235.152 173.118,234.800 172.527,234.618 172.458 C 234.436 172.388,234.076 171.779,233.819 171.105 C 233.561 170.430,233.151 169.679,232.906 169.435 C 232.662 169.191,232.389 168.531,232.299 167.970 C 232.209 167.409,231.902 166.699,231.617 166.392 C 231.331 166.086,230.972 165.274,230.819 164.588 C 230.666 163.903,230.321 162.968,230.053 162.511 C 229.784 162.054,229.443 161.028,229.296 160.231 C 229.149 159.434,228.779 158.235,228.474 157.565 C 226.955 154.232,227.052 141.277,228.619 138.233 C 228.980 137.532,229.275 136.693,229.275 136.367 C 229.275 135.696,229.783 134.456,230.058 134.456 C 230.158 134.456,230.442 133.814,230.688 133.030 C 230.935 132.246,231.289 131.518,231.474 131.411 C 231.659 131.305,231.998 130.586,232.226 129.814 C 232.454 129.043,232.801 128.227,232.997 128.001 C 233.413 127.523,233.831 126.231,234.070 124.691 C 234.162 124.094,234.397 123.473,234.592 123.311 C 234.786 123.149,235.073 122.356,235.229 121.547 C 235.631 119.462,235.902 118.431,236.395 117.103 C 236.632 116.465,236.947 114.483,237.094 112.699 C 237.241 110.915,237.537 109.048,237.753 108.549 C 238.586 106.621,238.477 92.649,237.602 89.249 C 237.455 88.679,237.220 87.082,237.079 85.700 C 236.931 84.241,236.599 82.679,236.288 81.976 C 235.993 81.310,235.638 80.054,235.498 79.184 C 235.357 78.313,235.026 77.308,234.761 76.948 C 234.496 76.589,234.132 75.685,233.954 74.938 C 233.775 74.192,233.420 73.316,233.164 72.991 C 232.909 72.667,232.580 71.964,232.432 71.430 C 232.285 70.896,231.864 70.102,231.497 69.665 C 231.129 69.229,230.829 68.710,230.829 68.512 C 230.829 68.315,230.505 67.770,230.110 67.302 C 229.714 66.834,229.228 66.130,229.030 65.738 C 228.831 65.347,228.576 65.026,228.463 65.026 C 228.350 65.026,227.973 64.607,227.625 64.095 C 226.894 63.019,224.710 60.483,223.989 59.873 C 223.719 59.644,222.553 58.680,221.399 57.731 C 220.245 56.782,218.993 55.703,218.618 55.334 C 218.242 54.965,217.805 54.663,217.646 54.663 C 217.488 54.663,217.129 54.435,216.850 54.156 C 216.571 53.877,215.901 53.423,215.360 53.147 C 214.820 52.871,214.156 52.400,213.885 52.100 C 213.613 51.800,213.194 51.554,212.952 51.554 C 212.711 51.554,212.057 51.224,211.501 50.821 C 210.944 50.418,210.147 50.002,209.730 49.897 C 209.314 49.793,208.652 49.438,208.261 49.109 C 207.870 48.779,207.018 48.430,206.369 48.333 C 205.719 48.235,205.003 47.971,204.777 47.745 C 204.551 47.519,203.417 47.114,202.257 46.843 C 201.097 46.573,199.968 46.192,199.750 45.996 C 199.518 45.789,197.896 45.463,195.865 45.216 C 193.948 44.983,192.257 44.695,192.109 44.577 C 191.961 44.459,190.848 44.305,189.637 44.236 C 188.426 44.167,187.260 44.056,187.047 43.989 C 186.833 43.923,185.492 43.973,184.067 44.100 M283.161 44.214 C 282.234 44.271,281.109 44.488,280.660 44.697 C 280.211 44.907,279.521 45.078,279.127 45.078 C 277.750 45.078,274.994 45.659,274.223 46.112 C 273.795 46.364,272.979 46.714,272.409 46.892 C 271.839 47.069,271.140 47.419,270.855 47.671 C 270.570 47.922,270.045 48.212,269.689 48.315 C 269.333 48.419,268.750 48.760,268.394 49.072 C 268.038 49.385,267.310 49.926,266.776 50.274 C 266.243 50.622,265.806 50.978,265.805 51.065 C 265.804 51.151,265.337 51.752,264.767 52.400 C 264.197 53.047,263.731 53.747,263.731 53.956 C 263.731 54.164,263.468 54.668,263.148 55.076 C 262.356 56.083,262.247 63.325,263.011 64.169 C 263.256 64.440,263.658 65.298,263.904 66.074 C 264.150 66.851,264.500 67.578,264.680 67.689 C 264.861 67.801,265.239 68.413,265.521 69.050 C 265.803 69.686,266.147 70.207,266.285 70.207 C 266.424 70.207,266.739 70.736,266.986 71.382 C 267.233 72.028,267.563 72.640,267.720 72.742 C 268.066 72.967,269.730 75.453,270.316 76.619 C 270.548 77.082,270.836 77.461,270.956 77.461 C 271.075 77.461,271.383 78.015,271.640 78.692 C 271.897 79.369,272.299 80.060,272.534 80.227 C 272.769 80.395,273.119 81.009,273.311 81.591 C 273.503 82.174,273.817 82.780,274.009 82.939 C 274.201 83.098,274.547 83.883,274.779 84.684 C 275.010 85.485,275.411 86.410,275.670 86.741 C 275.928 87.072,276.219 87.888,276.317 88.555 C 276.415 89.221,276.725 90.095,277.007 90.496 C 277.312 90.929,277.662 92.138,277.871 93.475 C 278.064 94.713,278.430 96.250,278.683 96.891 C 279.423 98.759,279.349 108.972,278.584 110.622 C 278.287 111.263,277.962 112.662,277.861 113.731 C 277.748 114.942,277.450 116.131,277.070 116.889 C 276.735 117.558,276.378 118.666,276.277 119.351 C 276.177 120.035,275.760 121.224,275.353 121.992 C 274.945 122.761,274.611 123.707,274.611 124.095 C 274.611 124.483,274.391 125.081,274.121 125.424 C 273.851 125.767,273.443 126.677,273.215 127.445 C 272.987 128.214,272.636 129.027,272.436 129.253 C 272.235 129.479,271.885 130.295,271.659 131.066 C 271.432 131.838,271.084 132.654,270.887 132.880 C 270.689 133.106,270.328 134.106,270.084 135.104 C 269.840 136.101,269.473 137.104,269.270 137.333 C 269.066 137.561,268.720 138.610,268.501 139.662 C 268.281 140.715,267.927 141.769,267.713 142.005 C 267.500 142.241,267.160 143.379,266.958 144.534 C 266.757 145.688,266.420 146.895,266.209 147.216 C 265.999 147.537,265.651 149.142,265.436 150.783 C 265.221 152.424,264.856 154.289,264.626 154.927 C 263.586 157.806,263.549 171.963,264.577 173.991 C 264.786 174.403,265.150 175.900,265.386 177.318 C 265.621 178.735,265.988 180.086,266.201 180.321 C 266.414 180.556,266.765 181.437,266.981 182.278 C 267.198 183.120,267.544 183.937,267.752 184.094 C 267.959 184.251,268.323 184.980,268.560 185.713 C 268.797 186.447,269.089 187.047,269.209 187.047 C 269.329 187.047,269.674 187.571,269.975 188.212 C 270.277 188.854,270.618 189.378,270.733 189.378 C 270.848 189.378,271.210 189.815,271.537 190.350 C 272.226 191.474,272.535 191.824,276.082 195.473 C 277.531 196.966,278.814 198.188,278.931 198.189 C 279.049 198.190,279.657 198.598,280.283 199.096 C 280.908 199.593,281.521 200.000,281.644 200.000 C 281.768 200.000,282.122 200.291,282.432 200.648 C 282.742 201.004,283.203 201.295,283.457 201.295 C 283.712 201.295,284.303 201.627,284.771 202.032 C 285.239 202.436,286.025 202.905,286.517 203.073 C 287.010 203.241,287.669 203.619,287.982 203.912 C 288.294 204.206,289.014 204.509,289.581 204.585 C 290.148 204.661,290.920 204.988,291.298 205.313 C 291.683 205.643,292.520 205.980,293.207 206.080 C 293.880 206.178,294.896 206.526,295.466 206.852 C 296.036 207.179,297.202 207.529,298.057 207.630 C 298.912 207.732,300.427 208.091,301.425 208.430 C 305.057 209.663,320.750 209.845,323.446 208.685 C 324.891 208.064,325.773 207.810,327.073 207.643 C 327.785 207.551,328.776 207.211,329.275 206.887 C 329.773 206.563,330.615 206.217,331.145 206.118 C 331.675 206.019,332.433 205.668,332.829 205.338 C 333.225 205.008,333.969 204.601,334.483 204.434 C 334.996 204.267,335.687 203.842,336.017 203.490 C 336.348 203.138,336.760 202.850,336.932 202.850 C 337.105 202.850,337.431 202.567,337.658 202.222 C 337.884 201.876,338.305 201.519,338.594 201.427 C 338.883 201.335,339.119 201.102,339.119 200.908 C 339.119 200.714,339.386 200.343,339.711 200.084 C 340.037 199.824,340.574 199.087,340.905 198.446 C 341.236 197.804,341.619 197.210,341.756 197.124 C 342.050 196.940,343.273 192.544,343.442 191.062 C 343.515 190.427,343.303 189.038,342.894 187.472 C 342.528 186.067,342.228 184.643,342.228 184.307 C 342.228 183.971,342.005 183.578,341.731 183.431 C 341.457 183.284,341.091 182.727,340.916 182.191 C 340.742 181.656,340.266 180.835,339.859 180.367 C 339.452 179.899,339.119 179.351,339.119 179.149 C 339.119 178.947,338.957 178.689,338.758 178.575 C 338.322 178.325,337.026 176.261,336.187 174.482 C 335.851 173.769,335.382 173.027,335.146 172.831 C 334.909 172.635,334.712 172.286,334.708 172.054 C 334.704 171.822,334.354 171.174,333.931 170.614 C 333.507 170.055,333.161 169.342,333.161 169.031 C 333.161 168.721,332.892 168.070,332.563 167.586 C 332.235 167.102,331.758 166.065,331.504 165.283 C 331.249 164.500,330.877 163.677,330.677 163.453 C 330.477 163.228,330.238 162.471,330.146 161.769 C 330.053 161.067,329.691 159.919,329.341 159.219 C 328.942 158.421,328.617 157.163,328.471 155.851 C 328.112 152.637,327.828 150.977,327.501 150.177 C 327.088 149.169,327.127 146.183,327.570 144.800 C 327.924 143.699,328.300 141.662,328.631 139.060 C 328.716 138.387,328.898 137.767,329.034 137.683 C 329.389 137.464,330.052 135.792,330.052 135.118 C 330.052 134.805,330.398 134.090,330.822 133.531 C 331.245 132.971,331.595 132.273,331.599 131.980 C 331.603 131.687,331.888 131.065,332.233 130.598 C 332.578 130.130,333.001 129.146,333.173 128.410 C 333.345 127.674,333.626 126.898,333.799 126.684 C 334.258 126.113,334.656 124.906,334.841 123.516 C 334.931 122.843,335.121 122.220,335.264 122.131 C 335.673 121.879,335.999 120.818,336.282 118.823 C 336.426 117.810,336.766 116.338,337.039 115.551 C 337.368 114.601,337.667 112.485,337.926 109.269 C 338.140 106.601,338.438 104.190,338.588 103.910 C 339.039 103.068,338.943 94.259,338.473 93.359 C 338.260 92.951,338.080 92.034,338.073 91.321 C 338.049 88.865,337.387 84.065,336.959 83.240 C 336.724 82.785,336.424 81.678,336.294 80.779 C 336.061 79.166,335.828 78.470,335.096 77.202 C 334.891 76.846,334.721 76.250,334.719 75.878 C 334.717 75.506,334.441 74.798,334.106 74.304 C 333.770 73.810,333.288 72.744,333.034 71.936 C 332.780 71.128,332.465 70.466,332.335 70.466 C 332.204 70.466,331.916 70.030,331.693 69.497 C 331.470 68.964,331.010 68.197,330.670 67.793 C 330.330 67.389,330.052 66.897,330.052 66.699 C 330.052 66.501,329.731 65.981,329.339 65.544 C 328.948 65.106,328.277 64.326,327.850 63.809 C 326.053 61.637,320.405 56.218,319.938 56.218 C 319.803 56.218,319.381 55.868,319.001 55.440 C 318.620 55.013,318.157 54.663,317.971 54.663 C 317.786 54.663,317.236 54.313,316.749 53.886 C 316.263 53.459,315.738 53.109,315.584 53.109 C 315.429 53.109,314.945 52.759,314.508 52.332 C 314.070 51.904,313.488 51.554,313.213 51.554 C 312.937 51.554,312.329 51.227,311.861 50.826 C 311.393 50.425,310.534 49.960,309.952 49.792 C 309.369 49.624,308.681 49.252,308.422 48.966 C 308.163 48.680,307.636 48.446,307.252 48.446 C 306.868 48.446,306.032 48.168,305.394 47.829 C 304.756 47.490,303.369 47.015,302.312 46.775 C 301.255 46.534,300.201 46.166,299.970 45.957 C 299.705 45.717,298.384 45.448,296.410 45.232 C 294.683 45.043,293.124 44.767,292.944 44.620 C 292.587 44.328,285.866 44.049,283.161 44.214 M87.819 51.328 C 88.743 51.472,89.617 51.687,89.762 51.806 C 89.907 51.924,91.075 52.215,92.358 52.453 C 93.640 52.690,94.961 53.060,95.293 53.275 C 95.625 53.490,96.554 53.837,97.358 54.047 C 98.161 54.256,99.013 54.603,99.249 54.817 C 99.486 55.031,100.125 55.329,100.670 55.480 C 102.086 55.871,104.032 57.996,103.480 58.548 C 102.821 59.207,66.109 59.269,65.299 58.613 C 64.513 57.976,64.775 56.387,65.770 55.758 C 66.144 55.521,66.699 55.071,67.002 54.757 C 67.305 54.444,67.962 54.074,68.463 53.936 C 68.963 53.798,69.603 53.454,69.885 53.172 C 70.170 52.887,70.957 52.576,71.662 52.471 C 72.358 52.368,73.452 52.044,74.093 51.753 C 76.061 50.858,83.375 50.632,87.819 51.328 M189.809 51.025 C 192.589 51.205,193.764 51.392,194.653 51.797 C 195.298 52.091,196.119 52.332,196.476 52.332 C 197.560 52.332,199.727 52.873,200.088 53.234 C 200.275 53.421,201.177 53.764,202.092 53.996 C 203.008 54.228,203.887 54.592,204.047 54.804 C 204.207 55.017,204.900 55.382,205.587 55.616 C 206.894 56.061,208.919 57.888,208.710 58.433 C 208.441 59.133,172.956 59.446,170.694 58.768 C 168.738 58.182,169.953 55.644,172.927 54.103 C 173.497 53.808,174.143 53.409,174.363 53.217 C 174.583 53.025,175.520 52.692,176.447 52.477 C 177.374 52.262,178.505 51.900,178.960 51.673 C 179.648 51.329,181.846 51.048,185.622 50.820 C 185.907 50.802,187.791 50.895,189.809 51.025 M293.374 51.312 C 294.218 51.437,294.987 51.667,295.083 51.822 C 295.179 51.977,296.120 52.221,297.175 52.365 C 298.230 52.508,299.676 52.892,300.389 53.218 C 301.101 53.543,302.235 53.958,302.910 54.139 C 303.584 54.320,304.263 54.623,304.419 54.811 C 304.575 54.999,305.255 55.336,305.929 55.560 C 306.688 55.812,307.580 56.401,308.272 57.106 L 309.389 58.244 308.581 58.662 C 307.457 59.244,271.081 59.167,270.376 58.582 C 269.282 57.673,271.159 54.956,273.575 53.952 C 274.074 53.745,274.662 53.416,274.882 53.221 C 275.101 53.026,276.034 52.683,276.954 52.460 C 277.874 52.236,278.954 51.872,279.353 51.652 C 280.741 50.884,289.128 50.681,293.374 51.312 M113.083 64.249 C 113.341 64.534,113.679 64.767,113.835 64.767 C 114.212 64.767,118.132 68.952,118.133 69.356 C 118.134 69.529,118.469 70.054,118.877 70.522 C 119.285 70.990,119.695 71.617,119.788 71.915 C 119.881 72.213,120.241 72.724,120.589 73.051 C 121.184 73.609,121.198 73.688,120.837 74.387 L 120.453 75.130 96.730 75.130 C 70.115 75.130,71.984 75.270,71.076 73.207 C 70.820 72.626,70.457 72.055,70.270 71.938 C 70.083 71.821,69.746 71.267,69.522 70.707 C 69.298 70.147,69.013 69.689,68.889 69.689 C 68.765 69.689,68.414 69.194,68.108 68.588 C 67.803 67.983,67.334 67.278,67.067 67.024 C 66.505 66.489,66.391 64.542,66.891 64.041 C 67.521 63.412,112.508 63.613,113.083 64.249 M218.502 64.313 C 219.307 64.975,220.500 66.162,221.022 66.818 C 221.215 67.062,221.842 67.836,222.416 68.540 C 222.990 69.243,223.599 70.139,223.771 70.531 C 223.942 70.923,224.187 71.244,224.315 71.244 C 224.933 71.244,225.695 73.853,225.267 74.507 L 224.853 75.137 201.074 75.069 C 175.874 74.996,176.425 75.022,176.425 73.899 C 176.425 73.772,176.085 73.288,175.670 72.823 C 175.256 72.359,174.839 71.673,174.745 71.299 C 174.652 70.925,174.350 70.461,174.075 70.269 C 173.800 70.076,173.575 69.708,173.575 69.451 C 173.575 69.193,173.300 68.704,172.963 68.364 C 171.515 66.901,170.853 64.388,171.814 64.002 C 172.160 63.863,181.896 63.757,195.101 63.747 L 217.794 63.731 218.502 64.313 M318.552 64.263 C 319.705 64.821,321.503 66.651,321.503 67.267 C 321.503 67.466,321.792 67.759,322.145 67.921 C 322.499 68.082,322.864 68.454,322.957 68.747 C 323.051 69.041,323.403 69.498,323.740 69.763 C 324.077 70.028,324.352 70.411,324.352 70.615 C 324.352 70.818,324.595 71.227,324.892 71.524 C 325.849 72.481,326.175 73.583,325.746 74.412 L 325.375 75.130 301.677 75.130 C 279.431 75.130,277.955 75.102,277.584 74.676 C 277.367 74.427,276.886 73.873,276.516 73.446 C 276.146 73.018,275.729 72.348,275.590 71.956 C 275.452 71.564,275.226 71.244,275.090 71.244 C 274.953 71.244,274.597 70.690,274.299 70.013 C 274.000 69.336,273.540 68.630,273.277 68.444 C 273.013 68.258,272.798 67.977,272.798 67.821 C 272.798 67.664,272.506 67.154,272.150 66.687 C 271.459 65.781,271.303 64.552,271.813 64.041 C 272.452 63.403,317.215 63.615,318.552 64.263 M123.793 81.103 C 124.067 81.397,124.367 82.217,124.461 82.929 C 124.555 83.640,124.860 84.659,125.139 85.193 C 125.914 86.680,126.370 92.636,125.794 93.750 L 125.375 94.560 103.153 94.560 L 80.931 94.560 80.088 93.690 C 79.391 92.971,79.183 92.469,78.883 90.776 C 78.684 89.651,78.288 88.279,78.003 87.727 C 77.718 87.176,77.355 86.097,77.196 85.331 C 77.036 84.565,76.803 83.938,76.676 83.938 C 76.217 83.938,75.802 81.912,76.119 81.217 L 76.414 80.570 99.855 80.570 C 123.185 80.570,123.298 80.572,123.793 81.103 M228.754 81.305 C 229.276 81.827,229.539 82.409,229.662 83.313 C 229.757 84.013,230.009 85.227,230.221 86.010 C 231.436 90.494,231.541 93.070,230.551 94.060 C 230.032 94.579,186.068 94.872,185.357 94.361 C 184.779 93.946,184.268 92.816,184.141 91.669 C 184.067 91.005,183.760 89.951,183.458 89.328 C 183.156 88.704,182.799 87.612,182.664 86.901 C 182.529 86.189,182.121 85.086,181.756 84.449 C 181.044 83.202,180.865 81.415,181.399 80.881 C 181.636 80.644,187.201 80.570,204.864 80.570 L 228.019 80.570 228.754 81.305 M328.801 80.999 C 329.061 81.235,329.275 81.531,329.275 81.657 C 329.275 81.783,329.501 82.202,329.777 82.588 C 330.126 83.075,330.397 84.204,330.660 86.269 C 330.869 87.908,331.225 89.598,331.451 90.026 C 332.168 91.381,331.905 92.984,330.796 94.017 C 330.214 94.559,330.194 94.560,308.012 94.560 L 285.811 94.560 285.433 93.977 C 285.226 93.656,284.972 93.044,284.870 92.617 C 284.768 92.189,284.464 91.373,284.194 90.803 C 283.924 90.233,283.585 89.018,283.439 88.103 C 283.294 87.187,283.068 86.371,282.938 86.289 C 282.539 86.038,281.935 84.348,281.741 82.941 C 281.640 82.207,281.434 81.606,281.283 81.606 C 281.132 81.606,281.278 81.373,281.606 81.088 C 282.457 80.350,327.989 80.264,328.801 80.999 M125.812 100.194 C 126.620 101.386,126.201 110.697,125.298 111.600 C 124.617 112.282,81.539 112.430,80.791 111.753 C 79.685 110.752,80.224 100.450,81.422 99.689 C 81.595 99.580,91.544 99.488,103.532 99.486 L 125.329 99.482 125.812 100.194 M230.862 99.913 C 231.308 100.455,231.309 108.379,230.864 109.998 C 230.252 112.222,232.225 112.038,208.117 112.116 C 184.145 112.193,184.739 112.235,185.092 110.516 C 185.544 108.316,185.710 106.607,185.729 103.938 C 185.745 101.856,185.866 100.790,186.147 100.246 L 186.542 99.482 208.524 99.482 C 228.723 99.482,230.535 99.517,230.862 99.913 M331.096 99.745 C 332.220 100.347,332.300 105.754,331.230 108.776 C 331.010 109.400,330.829 110.165,330.829 110.476 C 330.829 110.787,330.588 111.301,330.294 111.616 L 329.759 112.190 307.864 112.118 C 282.623 112.036,285.106 112.343,285.390 109.339 C 285.479 108.406,285.713 107.304,285.910 106.890 C 286.147 106.395,286.269 105.196,286.269 103.377 C 286.269 100.956,286.335 100.546,286.798 100.049 L 287.326 99.482 308.965 99.482 C 323.137 99.482,330.774 99.573,331.096 99.745 M123.176 117.872 C 124.152 118.243,124.218 118.725,123.503 120.262 C 123.152 121.015,122.801 122.145,122.722 122.773 C 122.642 123.400,122.344 124.230,122.058 124.616 C 121.773 125.002,121.460 125.742,121.362 126.261 C 121.201 127.119,120.432 128.402,119.246 129.786 C 118.693 130.432,77.412 130.631,76.015 129.995 C 74.959 129.514,75.493 124.880,76.695 124.093 C 76.804 124.022,77.012 123.323,77.157 122.539 C 77.428 121.083,77.732 120.219,78.297 119.301 C 78.472 119.016,78.766 118.520,78.951 118.199 L 79.287 117.617 100.896 117.617 C 114.456 117.617,122.755 117.712,123.176 117.872 M228.205 118.101 C 228.761 118.658,228.252 121.998,227.410 123.316 C 227.182 123.672,226.808 124.628,226.578 125.440 C 226.347 126.252,226.047 126.986,225.911 127.070 C 225.774 127.154,225.431 127.747,225.148 128.387 C 224.250 130.418,225.549 130.311,201.724 130.311 C 185.167 130.311,180.576 130.241,180.366 129.987 C 179.787 129.286,179.734 127.865,180.262 127.194 C 180.539 126.841,180.959 125.800,181.195 124.881 C 181.430 123.961,181.787 123.027,181.988 122.806 C 182.188 122.584,182.468 121.682,182.610 120.801 C 182.918 118.891,183.259 118.184,184.020 117.877 C 185.315 117.356,227.674 117.570,228.205 118.101 M328.812 118.282 C 329.164 119.056,328.753 121.550,328.157 122.253 C 327.963 122.482,327.662 123.332,327.488 124.142 C 327.314 124.953,326.967 125.885,326.717 126.215 C 326.467 126.544,326.066 127.338,325.826 127.979 C 325.502 128.845,325.126 129.295,324.366 129.728 L 323.343 130.311 302.222 130.311 L 281.101 130.311 280.706 129.547 C 280.075 128.326,280.283 127.168,281.402 125.677 C 281.657 125.338,281.865 124.743,281.865 124.356 C 281.865 123.456,282.347 122.018,282.839 121.448 C 283.050 121.205,283.281 120.483,283.353 119.844 C 283.627 117.408,281.457 117.617,306.492 117.617 L 328.509 117.617 328.812 118.282 M116.179 135.478 C 116.699 136.053,116.633 139.290,116.057 141.451 C 115.886 142.092,115.690 143.899,115.623 145.466 C 115.439 149.709,118.555 149.223,91.535 149.223 L 68.383 149.223 68.108 148.620 C 67.775 147.888,68.203 145.207,68.752 144.581 C 68.950 144.355,69.308 143.297,69.548 142.229 C 69.787 141.161,70.133 140.112,70.315 139.897 C 70.497 139.683,70.797 138.925,70.980 138.212 C 71.876 134.733,70.013 134.987,94.714 134.980 C 115.198 134.974,115.734 134.987,116.179 135.478 M221.258 135.403 C 222.046 136.191,221.899 138.736,220.968 140.426 C 220.738 140.844,220.583 142.306,220.516 144.689 C 220.436 147.491,220.321 148.419,220.011 148.769 C 219.362 149.501,173.935 149.467,173.029 148.734 C 172.543 148.341,172.486 148.173,172.738 147.870 C 172.909 147.664,173.224 146.584,173.437 145.470 C 173.650 144.357,173.996 143.256,174.205 143.024 C 174.415 142.793,174.660 142.081,174.750 141.444 C 174.953 139.997,175.346 138.911,175.954 138.113 C 176.213 137.773,176.425 137.293,176.425 137.047 C 176.425 136.335,177.407 135.277,178.179 135.155 C 179.958 134.876,220.967 135.112,221.258 135.403 M321.561 135.433 C 322.172 135.940,322.330 137.235,321.886 138.093 C 321.538 138.766,321.000 144.227,320.988 147.205 C 320.980 149.383,322.900 149.223,296.753 149.223 C 274.271 149.223,273.643 149.209,273.203 148.723 C 272.725 148.194,272.821 147.370,273.449 146.632 C 273.631 146.418,273.969 145.318,274.200 144.186 C 274.431 143.055,274.798 141.933,275.016 141.693 C 275.233 141.452,275.474 140.804,275.551 140.252 C 275.795 138.504,276.454 137.145,277.831 135.551 L 278.339 134.963 299.752 135.033 C 316.619 135.089,321.248 135.174,321.561 135.433 M115.983 155.505 C 116.368 155.928,116.558 156.600,116.677 157.952 C 116.779 159.112,117.040 160.155,117.368 160.711 C 117.659 161.203,118.014 162.336,118.157 163.229 C 118.301 164.121,118.646 165.171,118.924 165.562 C 119.535 166.419,119.564 167.051,119.027 167.818 L 118.623 168.394 92.922 168.394 C 68.324 168.394,67.181 168.373,66.317 167.910 L 65.415 167.426 65.343 163.594 C 65.290 160.816,65.373 159.435,65.643 158.573 C 65.847 157.919,66.084 156.986,66.170 156.501 C 66.467 154.804,64.597 154.922,91.178 154.922 L 115.454 154.922 115.983 155.505 M220.812 155.764 C 221.583 156.794,221.693 157.142,222.013 159.592 C 222.160 160.716,222.540 162.063,222.920 162.803 C 223.281 163.504,223.576 164.378,223.577 164.746 C 223.578 165.114,223.750 165.743,223.959 166.145 C 224.413 167.015,223.966 167.969,222.980 168.234 C 222.224 168.436,172.943 168.433,171.716 168.231 C 170.171 167.975,170.068 167.432,170.390 161.194 C 170.654 156.062,170.685 155.861,171.277 155.406 C 171.861 154.957,173.081 154.934,196.036 154.928 L 220.181 154.922 220.812 155.764 M320.926 155.246 C 321.071 155.424,321.311 155.978,321.460 156.477 C 321.608 156.975,321.923 157.908,322.160 158.549 C 322.396 159.190,322.685 160.385,322.803 161.203 C 322.921 162.021,323.323 163.316,323.697 164.080 C 324.550 165.823,324.667 167.523,323.970 168.032 C 323.555 168.336,319.353 168.394,297.783 168.394 C 267.721 168.394,270.724 168.734,270.728 165.331 C 270.733 161.200,271.246 155.867,271.685 155.382 C 272.224 154.787,320.443 154.653,320.926 155.246 M123.183 175.065 C 123.826 175.884,124.352 176.749,124.352 176.988 C 124.352 177.226,124.645 177.770,125.004 178.195 C 125.362 178.621,125.826 179.380,126.036 179.881 C 126.246 180.383,126.540 180.870,126.691 180.963 C 126.842 181.056,127.147 181.589,127.371 182.146 C 127.594 182.704,127.871 183.161,127.986 183.161 C 128.355 183.161,129.275 184.882,129.275 185.573 C 129.275 187.121,130.698 187.047,101.025 187.047 C 71.524 187.047,71.790 187.059,71.251 185.641 C 71.132 185.330,70.749 184.731,70.400 184.312 C 70.050 183.892,69.625 183.121,69.454 182.598 C 69.284 182.076,68.981 181.512,68.781 181.346 C 68.581 181.180,68.227 180.384,67.994 179.577 C 67.761 178.769,67.386 177.903,67.161 177.651 C 66.936 177.400,66.701 176.576,66.638 175.820 C 66.433 173.351,63.637 173.575,94.704 173.575 L 122.013 173.575 123.183 175.065 M226.684 173.743 C 227.388 173.884,227.627 174.134,228.149 175.273 C 228.491 176.022,228.914 176.689,229.089 176.756 C 229.263 176.823,229.568 177.330,229.766 177.882 C 229.963 178.434,230.392 179.206,230.718 179.597 C 231.044 179.988,231.389 180.553,231.484 180.853 C 231.580 181.153,231.889 181.630,232.173 181.914 C 232.456 182.197,232.854 182.827,233.057 183.313 C 233.260 183.799,233.523 184.197,233.641 184.197 C 234.639 184.197,234.388 186.667,233.364 186.919 C 233.038 186.999,220.356 187.031,205.181 186.991 C 176.253 186.914,176.425 186.920,176.425 185.857 C 176.425 185.699,176.079 185.207,175.655 184.764 C 175.232 184.321,174.813 183.671,174.725 183.319 C 174.637 182.968,174.414 182.622,174.231 182.552 C 174.047 182.481,173.649 181.608,173.346 180.611 C 173.044 179.615,172.675 178.759,172.527 178.709 C 171.876 178.492,171.479 174.518,172.059 174.028 C 172.611 173.562,224.426 173.292,226.684 173.743 M327.640 174.158 C 328.154 174.507,328.668 175.181,328.920 175.838 C 329.152 176.442,329.509 177.074,329.712 177.243 C 329.915 177.411,330.255 177.965,330.468 178.473 C 330.680 178.981,331.070 179.632,331.334 179.919 C 331.598 180.206,332.029 180.854,332.293 181.360 C 333.093 182.896,333.778 183.972,334.395 184.662 C 334.983 185.318,334.982 185.986,334.393 186.723 C 334.020 187.188,278.629 187.179,277.825 186.714 C 277.071 186.277,275.648 184.596,275.648 184.143 C 275.648 183.937,275.364 183.502,275.016 183.176 C 274.669 182.850,274.239 182.013,274.061 181.317 C 273.882 180.621,273.656 180.052,273.558 180.052 C 273.297 180.052,272.873 178.846,272.511 177.073 C 272.337 176.218,272.084 175.374,271.949 175.198 C 271.604 174.747,271.903 174.123,272.598 173.844 C 272.939 173.708,284.476 173.601,299.984 173.592 L 326.781 173.575 327.640 174.158 M129.810 192.496 C 131.060 193.165,128.219 197.668,126.547 197.668 C 126.368 197.668,126.152 197.849,126.068 198.069 C 125.983 198.289,125.477 198.652,124.943 198.875 C 124.409 199.098,123.696 199.497,123.359 199.763 C 123.021 200.028,122.320 200.322,121.800 200.415 C 121.280 200.508,120.240 200.870,119.489 201.220 C 118.496 201.683,117.361 201.925,115.343 202.105 C 113.815 202.241,111.964 202.523,111.230 202.731 C 109.530 203.212,106.328 203.216,104.442 202.740 C 103.637 202.537,101.930 202.296,100.648 202.206 C 97.724 201.999,95.582 201.599,95.078 201.167 C 94.864 200.984,94.165 200.754,93.523 200.658 C 91.850 200.405,90.635 199.996,89.926 199.444 C 89.586 199.180,89.021 198.964,88.671 198.964 C 88.027 198.964,86.528 198.221,86.528 197.902 C 86.528 197.808,86.028 197.604,85.417 197.450 C 84.806 197.296,84.028 196.874,83.688 196.513 C 83.348 196.151,82.850 195.855,82.582 195.855 C 82.313 195.855,81.459 195.255,80.684 194.522 C 79.211 193.129,79.146 192.651,80.394 192.408 C 81.711 192.152,129.325 192.237,129.810 192.496 M234.676 192.512 C 235.484 192.794,235.743 193.338,235.222 193.660 C 235.074 193.751,234.770 194.283,234.546 194.841 C 234.323 195.399,234.038 195.855,233.912 195.855 C 233.786 195.855,233.371 196.205,232.990 196.632 C 232.609 197.060,232.171 197.409,232.016 197.409 C 231.861 197.409,231.417 197.746,231.028 198.157 C 230.640 198.568,230.017 198.981,229.643 199.075 C 229.269 199.169,228.633 199.490,228.230 199.788 C 227.826 200.087,226.890 200.427,226.150 200.544 C 225.410 200.661,224.616 200.925,224.384 201.131 C 223.759 201.689,222.210 202.010,219.171 202.213 C 217.562 202.321,216.242 202.541,215.940 202.752 C 215.227 203.250,209.906 203.251,209.190 202.754 C 208.883 202.541,207.537 202.325,205.829 202.214 C 202.730 202.014,200.961 201.684,200.088 201.143 C 199.781 200.952,198.792 200.677,197.892 200.532 C 196.991 200.387,195.939 200.036,195.554 199.751 C 195.168 199.466,194.292 199.107,193.605 198.953 C 192.919 198.799,192.125 198.462,191.839 198.203 C 191.554 197.944,190.855 197.587,190.285 197.409 C 189.715 197.232,189.016 196.881,188.731 196.630 C 188.446 196.379,187.962 196.098,187.656 196.005 C 187.350 195.913,186.672 195.433,186.148 194.939 C 185.625 194.445,185.096 194.041,184.973 194.041 C 184.476 194.041,184.391 192.916,184.862 192.572 C 185.485 192.116,233.377 192.059,234.676 192.512 M335.091 192.575 C 336.505 193.609,332.816 198.198,329.930 198.995 C 329.427 199.134,329.016 199.354,329.016 199.485 C 329.016 199.854,328.123 200.245,326.644 200.526 C 325.902 200.666,325.110 200.949,324.884 201.153 C 324.325 201.660,322.645 201.995,319.560 202.214 C 318.080 202.320,316.750 202.551,316.458 202.754 C 315.745 203.249,310.422 203.250,309.708 202.755 C 309.397 202.540,308.032 202.329,306.218 202.217 C 302.911 202.013,301.351 201.707,300.004 200.995 C 299.507 200.733,298.796 200.518,298.423 200.518 C 297.571 200.518,296.111 200.035,295.579 199.578 C 295.356 199.386,294.773 199.153,294.284 199.059 C 293.216 198.856,291.969 198.259,291.969 197.952 C 291.969 197.830,291.442 197.597,290.798 197.435 C 290.154 197.273,289.422 196.939,289.171 196.692 C 288.920 196.445,288.277 196.040,287.743 195.791 C 287.209 195.541,286.703 195.158,286.619 194.939 C 286.535 194.720,286.130 194.367,285.720 194.155 C 284.878 193.719,284.735 192.911,285.427 192.508 C 286.181 192.069,334.488 192.134,335.091 192.575 " stroke="none" fill="#683296" fill-rule="evenodd"></path><path id="path1" d="M0.000 129.534 L 0.000 259.067 200.000 259.067 L 400.000 259.067 400.000 129.534 L 400.000 0.000 200.000 0.000 L 0.000 0.000 0.000 129.534 M86.917 44.562 C 87.345 44.690,89.152 44.981,90.933 45.208 C 92.820 45.449,94.557 45.821,95.097 46.099 C 95.607 46.362,96.714 46.714,97.558 46.882 C 98.403 47.050,99.398 47.404,99.770 47.669 C 100.143 47.933,100.875 48.230,101.398 48.328 C 101.921 48.426,102.724 48.759,103.182 49.067 C 103.641 49.376,104.568 49.838,105.243 50.094 C 105.919 50.350,106.539 50.668,106.621 50.802 C 106.704 50.935,107.182 51.216,107.683 51.425 C 108.185 51.635,108.944 52.099,109.369 52.458 C 109.795 52.816,110.334 53.109,110.567 53.109 C 110.800 53.109,111.287 53.407,111.648 53.772 C 112.559 54.691,114.511 56.218,114.775 56.218 C 114.895 56.218,115.717 56.917,116.601 57.772 C 117.486 58.627,118.360 59.326,118.543 59.326 C 118.727 59.326,118.953 59.567,119.046 59.860 C 119.140 60.154,119.497 60.522,119.841 60.679 C 120.185 60.836,120.466 61.065,120.466 61.189 C 120.466 61.313,120.845 61.825,121.308 62.329 C 123.315 64.510,123.575 64.817,123.575 65.010 C 123.575 65.122,123.935 65.667,124.376 66.221 C 124.816 66.775,125.335 67.607,125.528 68.070 C 125.722 68.533,125.980 68.912,126.101 68.912 C 126.223 68.912,126.541 69.524,126.809 70.272 C 127.076 71.020,127.439 71.749,127.615 71.891 C 127.791 72.034,128.121 72.709,128.347 73.393 C 128.573 74.076,128.993 74.953,129.280 75.341 C 129.567 75.729,129.921 76.784,130.066 77.684 C 130.211 78.584,130.572 79.649,130.868 80.049 C 131.256 80.574,131.470 81.418,131.635 83.070 C 131.761 84.331,131.975 85.654,132.110 86.010 C 133.155 88.769,133.207 89.498,133.096 99.890 C 132.996 109.329,132.953 110.090,132.428 111.783 C 132.120 112.778,131.802 114.352,131.722 115.281 C 131.554 117.246,131.131 119.083,130.679 119.819 C 130.504 120.104,130.283 120.861,130.188 121.503 C 129.960 123.046,129.543 124.392,129.145 124.870 C 128.968 125.084,128.678 125.900,128.502 126.684 C 128.326 127.468,127.903 128.523,127.563 129.029 C 127.222 129.536,126.943 130.256,126.943 130.629 C 126.943 131.002,126.659 131.645,126.312 132.057 C 125.965 132.469,125.602 133.149,125.504 133.567 C 125.407 133.985,125.043 134.824,124.696 135.432 C 124.350 136.041,123.943 137.265,123.792 138.153 C 123.642 139.040,123.373 140.001,123.193 140.287 C 121.901 142.353,121.955 153.425,123.269 155.873 C 123.436 156.183,123.681 157.211,123.815 158.158 C 123.949 159.105,124.306 160.353,124.607 160.931 C 124.909 161.509,125.267 162.572,125.404 163.292 C 125.540 164.012,125.814 164.784,126.011 165.008 C 126.209 165.232,126.552 165.954,126.772 166.613 C 126.993 167.272,127.472 168.250,127.836 168.786 C 128.200 169.323,128.500 169.949,128.502 170.179 C 128.505 170.408,128.854 171.109,129.279 171.736 C 129.704 172.363,130.052 173.011,130.052 173.175 C 130.052 173.340,130.351 173.876,130.717 174.367 C 131.084 174.858,131.544 175.638,131.741 176.101 C 131.937 176.564,132.212 176.943,132.351 176.943 C 132.491 176.943,132.811 177.409,133.062 177.979 C 133.314 178.549,133.620 179.016,133.743 179.016 C 133.866 179.016,134.211 179.569,134.510 180.246 C 134.808 180.923,135.253 181.619,135.498 181.792 C 135.744 181.966,136.083 182.658,136.252 183.330 C 136.422 184.002,136.734 184.678,136.946 184.834 C 138.005 185.608,138.090 194.500,137.052 195.903 C 136.758 196.300,136.402 196.931,136.260 197.306 C 135.701 198.776,132.447 202.415,131.055 203.125 C 130.539 203.389,130.052 203.770,129.975 203.971 C 129.898 204.173,129.505 204.420,129.101 204.521 C 128.698 204.621,127.994 204.988,127.538 205.335 C 127.081 205.683,126.324 206.039,125.854 206.127 C 125.384 206.215,124.639 206.555,124.198 206.883 C 123.663 207.280,122.844 207.539,121.737 207.662 C 120.824 207.764,119.495 208.111,118.782 208.435 C 116.315 209.555,99.116 209.834,97.116 208.785 C 96.165 208.287,94.332 207.807,92.746 207.643 C 91.679 207.531,90.730 207.253,90.155 206.882 C 89.657 206.559,88.695 206.213,88.019 206.112 C 87.343 206.010,86.469 205.660,86.076 205.333 C 85.684 205.006,84.929 204.658,84.399 204.561 C 83.869 204.463,83.111 204.119,82.715 203.795 C 82.319 203.472,81.501 203.064,80.898 202.890 C 80.295 202.715,79.679 202.343,79.529 202.063 C 79.379 201.783,79.044 201.554,78.784 201.554 C 78.524 201.554,77.799 201.148,77.174 200.650 C 76.548 200.153,75.935 199.745,75.811 199.743 C 75.488 199.740,71.108 195.986,70.120 194.865 C 69.954 194.677,69.600 194.327,69.334 194.088 C 69.067 193.849,68.717 193.499,68.556 193.311 C 68.396 193.123,68.010 192.731,67.700 192.439 C 67.390 192.147,66.997 191.572,66.827 191.161 C 66.657 190.751,66.380 190.415,66.212 190.415 C 66.045 190.415,65.767 190.028,65.596 189.555 C 65.425 189.082,64.936 188.303,64.508 187.824 C 64.080 187.345,63.731 186.757,63.731 186.517 C 63.731 186.277,63.519 185.802,63.261 185.462 C 63.003 185.123,62.584 184.289,62.331 183.609 C 62.078 182.930,61.715 182.219,61.526 182.029 C 61.336 181.839,61.054 180.999,60.899 180.161 C 60.744 179.324,60.378 178.170,60.085 177.596 C 58.547 174.584,58.533 154.431,60.067 151.028 C 60.358 150.383,60.675 149.042,60.772 148.049 C 60.869 147.056,61.216 145.661,61.544 144.948 C 61.872 144.236,62.275 142.895,62.439 141.969 C 62.603 141.043,62.911 140.091,63.124 139.855 C 63.336 139.618,63.686 138.569,63.901 137.523 C 64.117 136.477,64.466 135.429,64.678 135.193 C 64.889 134.956,65.239 134.082,65.455 133.250 C 65.671 132.417,66.013 131.551,66.215 131.325 C 66.417 131.100,66.768 130.284,66.995 129.512 C 67.222 128.740,67.573 127.923,67.775 127.696 C 67.977 127.469,68.321 126.598,68.539 125.760 C 68.757 124.923,69.109 124.046,69.321 123.812 C 69.533 123.578,69.895 122.642,70.126 121.733 C 70.356 120.824,70.748 119.788,70.995 119.431 C 71.242 119.074,71.580 117.911,71.745 116.847 C 71.910 115.782,72.230 114.706,72.456 114.457 C 73.873 112.890,73.882 95.086,72.465 92.925 C 72.241 92.583,71.883 91.459,71.670 90.429 C 71.456 89.398,71.116 88.361,70.914 88.125 C 70.711 87.888,70.394 87.135,70.210 86.452 C 70.025 85.768,69.674 84.952,69.430 84.638 C 69.186 84.324,68.829 83.601,68.637 83.031 C 68.445 82.461,68.097 81.762,67.865 81.477 C 67.632 81.192,67.290 80.551,67.105 80.052 C 66.920 79.553,66.580 78.970,66.350 78.756 C 66.121 78.542,65.672 77.813,65.353 77.137 C 65.034 76.460,64.673 75.907,64.550 75.907 C 64.428 75.907,64.117 75.440,63.860 74.870 C 63.603 74.301,63.297 73.834,63.180 73.834 C 63.063 73.834,62.717 73.251,62.411 72.539 C 62.104 71.826,61.745 71.244,61.613 71.244 C 61.481 71.244,61.214 70.865,61.021 70.402 C 60.827 69.938,60.442 69.268,60.164 68.912 C 59.887 68.556,59.405 67.685,59.094 66.978 C 58.783 66.271,58.418 65.623,58.283 65.540 C 57.028 64.764,57.052 53.886,58.308 53.886 C 58.432 53.886,58.799 53.425,59.123 52.863 C 59.447 52.300,59.965 51.724,60.274 51.583 C 60.583 51.442,60.912 51.087,61.005 50.793 C 61.099 50.499,61.279 50.259,61.407 50.259 C 61.535 50.259,62.039 49.909,62.526 49.481 C 63.014 49.053,63.834 48.527,64.349 48.312 C 64.864 48.097,65.285 47.810,65.285 47.675 C 65.285 47.540,66.067 47.189,67.022 46.894 C 67.978 46.598,68.943 46.191,69.168 45.988 C 69.392 45.784,70.446 45.493,71.511 45.340 C 72.575 45.187,74.262 44.895,75.259 44.691 C 79.190 43.888,84.473 43.829,86.917 44.562 M189.637 44.236 C 190.848 44.305,191.961 44.459,192.109 44.577 C 192.257 44.695,193.948 44.983,195.865 45.216 C 197.896 45.463,199.518 45.789,199.750 45.996 C 199.968 46.192,201.097 46.573,202.257 46.843 C 203.417 47.114,204.551 47.519,204.777 47.745 C 205.003 47.971,205.719 48.235,206.369 48.333 C 207.018 48.430,207.870 48.779,208.261 49.109 C 208.652 49.438,209.314 49.793,209.730 49.897 C 210.147 50.002,210.944 50.418,211.501 50.821 C 212.057 51.224,212.711 51.554,212.952 51.554 C 213.194 51.554,213.613 51.800,213.885 52.100 C 214.156 52.400,214.820 52.871,215.360 53.147 C 215.901 53.423,216.571 53.877,216.850 54.156 C 217.129 54.435,217.488 54.663,217.646 54.663 C 217.805 54.663,218.242 54.965,218.618 55.334 C 218.993 55.703,220.245 56.782,221.399 57.731 C 222.553 58.680,223.719 59.644,223.989 59.873 C 224.710 60.483,226.894 63.019,227.625 64.095 C 227.973 64.607,228.350 65.026,228.463 65.026 C 228.576 65.026,228.831 65.347,229.030 65.738 C 229.228 66.130,229.714 66.834,230.110 67.302 C 230.505 67.770,230.829 68.315,230.829 68.512 C 230.829 68.710,231.129 69.229,231.497 69.665 C 231.864 70.102,232.285 70.896,232.432 71.430 C 232.580 71.964,232.909 72.667,233.164 72.991 C 233.420 73.316,233.775 74.192,233.954 74.938 C 234.132 75.685,234.496 76.589,234.761 76.948 C 235.026 77.308,235.357 78.313,235.498 79.184 C 235.638 80.054,235.993 81.310,236.288 81.976 C 236.599 82.679,236.931 84.241,237.079 85.700 C 237.220 87.082,237.455 88.679,237.602 89.249 C 238.477 92.649,238.586 106.621,237.753 108.549 C 237.537 109.048,237.241 110.915,237.094 112.699 C 236.947 114.483,236.632 116.465,236.395 117.103 C 235.902 118.431,235.631 119.462,235.229 121.547 C 235.073 122.356,234.786 123.149,234.592 123.311 C 234.397 123.473,234.162 124.094,234.070 124.691 C 233.831 126.231,233.413 127.523,232.997 128.001 C 232.801 128.227,232.454 129.043,232.226 129.814 C 231.998 130.586,231.659 131.305,231.474 131.411 C 231.289 131.518,230.935 132.246,230.688 133.030 C 230.442 133.814,230.158 134.456,230.058 134.456 C 229.783 134.456,229.275 135.696,229.275 136.367 C 229.275 136.693,228.980 137.532,228.619 138.233 C 227.052 141.277,226.955 154.232,228.474 157.565 C 228.779 158.235,229.149 159.434,229.296 160.231 C 229.443 161.028,229.784 162.054,230.053 162.511 C 230.321 162.968,230.666 163.903,230.819 164.588 C 230.972 165.274,231.331 166.086,231.617 166.392 C 231.902 166.699,232.209 167.409,232.299 167.970 C 232.389 168.531,232.662 169.191,232.906 169.435 C 233.151 169.679,233.561 170.430,233.819 171.105 C 234.076 171.779,234.436 172.388,234.618 172.458 C 234.800 172.527,235.152 173.118,235.401 173.769 C 235.650 174.421,236.122 175.244,236.450 175.598 C 236.778 175.952,237.047 176.393,237.047 176.579 C 237.047 176.764,237.338 177.231,237.694 177.615 C 238.051 178.000,238.342 178.445,238.342 178.606 C 238.342 178.766,238.675 179.303,239.083 179.798 C 239.490 180.294,239.906 180.962,240.007 181.284 C 240.108 181.605,240.470 182.200,240.811 182.605 C 241.152 183.010,241.559 183.913,241.714 184.611 C 241.870 185.309,242.195 186.172,242.437 186.528 C 242.974 187.322,243.096 193.922,242.579 194.245 C 242.415 194.347,242.049 195.139,241.765 196.005 C 241.481 196.871,240.944 197.908,240.573 198.310 C 240.201 198.711,239.896 199.153,239.896 199.291 C 239.896 199.503,237.869 201.518,235.526 203.635 C 235.188 203.941,234.436 204.358,233.855 204.563 C 233.273 204.768,232.583 205.166,232.321 205.447 C 232.059 205.728,231.628 205.959,231.363 205.959 C 231.098 205.959,230.241 206.296,229.457 206.708 C 228.674 207.120,227.409 207.541,226.646 207.645 C 225.883 207.748,224.533 208.104,223.645 208.436 C 220.042 209.785,205.154 209.838,201.393 208.516 C 200.568 208.226,198.927 207.832,197.748 207.642 C 196.510 207.441,195.298 207.077,194.882 206.781 C 194.485 206.498,193.580 206.184,192.871 206.082 C 192.161 205.980,191.332 205.671,191.030 205.395 C 190.727 205.118,189.890 204.737,189.171 204.547 C 188.452 204.358,187.606 203.962,187.291 203.669 C 186.975 203.375,186.354 203.056,185.911 202.959 C 185.467 202.863,184.831 202.513,184.498 202.182 C 184.165 201.851,183.505 201.452,183.031 201.295 C 182.558 201.139,182.103 200.837,182.021 200.623 C 181.940 200.410,181.463 200.065,180.962 199.855 C 180.461 199.646,180.052 199.381,180.052 199.267 C 180.052 199.153,179.615 198.813,179.080 198.511 C 177.553 197.650,170.737 190.472,170.729 189.717 C 170.727 189.547,170.497 189.248,170.219 189.053 C 169.940 188.858,169.478 188.152,169.192 187.484 C 168.905 186.816,168.572 186.269,168.450 186.269 C 168.329 186.269,168.025 185.621,167.775 184.830 C 167.526 184.038,167.162 183.328,166.967 183.253 C 166.772 183.179,166.422 182.282,166.190 181.262 C 165.958 180.241,165.617 179.231,165.432 179.016 C 165.009 178.526,164.864 177.899,164.509 175.029 C 164.353 173.763,164.056 172.400,163.850 172.001 C 163.044 170.442,163.148 158.139,163.976 157.141 C 164.104 156.987,164.284 156.104,164.375 155.179 C 164.708 151.800,165.084 149.634,165.426 149.111 C 165.619 148.816,165.849 148.051,165.937 147.409 C 166.214 145.383,166.646 143.672,167.030 143.083 C 167.233 142.769,167.575 141.668,167.789 140.636 C 168.002 139.603,168.401 138.474,168.674 138.127 C 168.947 137.779,169.171 137.237,169.171 136.921 C 169.171 136.180,169.671 134.695,170.088 134.197 C 170.267 133.983,170.597 133.083,170.821 132.196 C 171.045 131.310,171.466 130.348,171.754 130.059 C 172.043 129.770,172.280 129.241,172.280 128.882 C 172.280 128.233,172.624 127.454,173.268 126.645 C 173.456 126.409,173.781 125.479,173.992 124.577 C 174.202 123.675,174.590 122.702,174.854 122.414 C 175.128 122.116,175.412 121.279,175.514 120.466 C 175.613 119.683,175.963 118.624,176.293 118.114 C 176.690 117.499,176.955 116.581,177.078 115.394 C 177.180 114.408,177.495 113.084,177.779 112.452 C 179.069 109.579,179.065 97.246,177.774 94.689 C 177.486 94.119,177.172 92.953,177.076 92.098 C 176.978 91.224,176.637 90.087,176.297 89.500 C 175.964 88.926,175.613 87.993,175.516 87.427 C 175.419 86.862,175.137 86.108,174.888 85.751 C 174.639 85.395,174.233 84.493,173.985 83.747 C 173.738 83.000,173.422 82.319,173.282 82.233 C 173.143 82.147,172.763 81.475,172.437 80.740 C 172.112 80.005,171.652 79.244,171.415 79.049 C 171.178 78.853,170.984 78.541,170.984 78.356 C 170.984 78.171,170.715 77.689,170.385 77.287 C 170.055 76.884,169.580 76.110,169.329 75.567 C 169.078 75.024,168.721 74.522,168.536 74.451 C 168.351 74.380,167.992 73.862,167.739 73.301 C 167.486 72.739,167.183 72.280,167.066 72.280 C 166.949 72.280,166.603 71.697,166.297 70.984 C 165.990 70.272,165.633 69.689,165.503 69.689 C 165.373 69.689,165.029 69.135,164.739 68.459 C 164.449 67.782,164.037 67.035,163.823 66.799 C 163.610 66.563,163.260 65.701,163.047 64.885 C 162.834 64.068,162.488 63.138,162.278 62.818 C 161.586 61.762,161.490 57.994,162.123 56.780 C 162.419 56.211,162.796 55.240,162.959 54.622 C 163.123 54.003,163.541 53.206,163.890 52.850 C 167.341 49.319,168.159 48.639,169.472 48.211 C 169.994 48.041,170.480 47.747,170.553 47.557 C 170.626 47.367,171.271 47.071,171.987 46.899 C 172.703 46.727,173.533 46.375,173.831 46.117 C 174.182 45.813,175.171 45.540,176.630 45.345 C 177.871 45.180,179.469 44.884,180.181 44.688 C 181.624 44.292,186.442 43.801,187.047 43.989 C 187.260 44.056,188.426 44.167,189.637 44.236 M292.944 44.620 C 293.124 44.767,294.683 45.043,296.410 45.232 C 298.384 45.448,299.705 45.717,299.970 45.957 C 300.201 46.166,301.255 46.534,302.312 46.775 C 303.369 47.015,304.756 47.490,305.394 47.829 C 306.032 48.168,306.868 48.446,307.252 48.446 C 307.636 48.446,308.163 48.680,308.422 48.966 C 308.681 49.252,309.369 49.624,309.952 49.792 C 310.534 49.960,311.393 50.425,311.861 50.826 C 312.329 51.227,312.937 51.554,313.213 51.554 C 313.488 51.554,314.070 51.904,314.508 52.332 C 314.945 52.759,315.429 53.109,315.584 53.109 C 315.738 53.109,316.263 53.459,316.749 53.886 C 317.236 54.313,317.786 54.663,317.971 54.663 C 318.157 54.663,318.620 55.013,319.001 55.440 C 319.381 55.868,319.803 56.218,319.938 56.218 C 320.405 56.218,326.053 61.637,327.850 63.809 C 328.277 64.326,328.948 65.106,329.339 65.544 C 329.731 65.981,330.052 66.501,330.052 66.699 C 330.052 66.897,330.330 67.389,330.670 67.793 C 331.010 68.197,331.470 68.964,331.693 69.497 C 331.916 70.030,332.204 70.466,332.335 70.466 C 332.465 70.466,332.780 71.128,333.034 71.936 C 333.288 72.744,333.770 73.810,334.106 74.304 C 334.441 74.798,334.717 75.506,334.719 75.878 C 334.721 76.250,334.891 76.846,335.096 77.202 C 335.828 78.470,336.061 79.166,336.294 80.779 C 336.424 81.678,336.724 82.785,336.959 83.240 C 337.387 84.065,338.049 88.865,338.073 91.321 C 338.080 92.034,338.260 92.951,338.473 93.359 C 338.943 94.259,339.039 103.068,338.588 103.910 C 338.438 104.190,338.140 106.601,337.926 109.269 C 337.667 112.485,337.368 114.601,337.039 115.551 C 336.766 116.338,336.426 117.810,336.282 118.823 C 335.999 120.818,335.673 121.879,335.264 122.131 C 335.121 122.220,334.931 122.843,334.841 123.516 C 334.656 124.906,334.258 126.113,333.799 126.684 C 333.626 126.898,333.345 127.674,333.173 128.410 C 333.001 129.146,332.578 130.130,332.233 130.598 C 331.888 131.065,331.603 131.687,331.599 131.980 C 331.595 132.273,331.245 132.971,330.822 133.531 C 330.398 134.090,330.052 134.805,330.052 135.118 C 330.052 135.792,329.389 137.464,329.034 137.683 C 328.898 137.767,328.716 138.387,328.631 139.060 C 328.300 141.662,327.924 143.699,327.570 144.800 C 327.127 146.183,327.088 149.169,327.501 150.177 C 327.828 150.977,328.112 152.637,328.471 155.851 C 328.617 157.163,328.942 158.421,329.341 159.219 C 329.691 159.919,330.053 161.067,330.146 161.769 C 330.238 162.471,330.477 163.228,330.677 163.453 C 330.877 163.677,331.249 164.500,331.504 165.283 C 331.758 166.065,332.235 167.102,332.563 167.586 C 332.892 168.070,333.161 168.721,333.161 169.031 C 333.161 169.342,333.507 170.055,333.931 170.614 C 334.354 171.174,334.704 171.822,334.708 172.054 C 334.712 172.286,334.909 172.635,335.146 172.831 C 335.382 173.027,335.851 173.769,336.187 174.482 C 337.026 176.261,338.322 178.325,338.758 178.575 C 338.957 178.689,339.119 178.947,339.119 179.149 C 339.119 179.351,339.452 179.899,339.859 180.367 C 340.266 180.835,340.742 181.656,340.916 182.191 C 341.091 182.727,341.457 183.284,341.731 183.431 C 342.005 183.578,342.228 183.971,342.228 184.307 C 342.228 184.643,342.528 186.067,342.894 187.472 C 343.303 189.038,343.515 190.427,343.442 191.062 C 343.273 192.544,342.050 196.940,341.756 197.124 C 341.619 197.210,341.236 197.804,340.905 198.446 C 340.574 199.087,340.037 199.824,339.711 200.084 C 339.386 200.343,339.119 200.714,339.119 200.908 C 339.119 201.102,338.883 201.335,338.594 201.427 C 338.305 201.519,337.884 201.876,337.658 202.222 C 337.431 202.567,337.105 202.850,336.932 202.850 C 336.760 202.850,336.348 203.138,336.017 203.490 C 335.687 203.842,334.996 204.267,334.483 204.434 C 333.969 204.601,333.225 205.008,332.829 205.338 C 332.433 205.668,331.675 206.019,331.145 206.118 C 330.615 206.217,329.773 206.563,329.275 206.887 C 328.776 207.211,327.785 207.551,327.073 207.643 C 325.773 207.810,324.891 208.064,323.446 208.685 C 320.750 209.845,305.057 209.663,301.425 208.430 C 300.427 208.091,298.912 207.732,298.057 207.630 C 297.202 207.529,296.036 207.179,295.466 206.852 C 294.896 206.526,293.880 206.178,293.207 206.080 C 292.520 205.980,291.683 205.643,291.298 205.313 C 290.920 204.988,290.148 204.661,289.581 204.585 C 289.014 204.509,288.294 204.206,287.982 203.912 C 287.669 203.619,287.010 203.241,286.517 203.073 C 286.025 202.905,285.239 202.436,284.771 202.032 C 284.303 201.627,283.712 201.295,283.457 201.295 C 283.203 201.295,282.742 201.004,282.432 200.648 C 282.122 200.291,281.768 200.000,281.644 200.000 C 281.521 200.000,280.908 199.593,280.283 199.096 C 279.657 198.598,279.049 198.190,278.931 198.189 C 278.814 198.188,277.531 196.966,276.082 195.473 C 272.535 191.824,272.226 191.474,271.537 190.350 C 271.210 189.815,270.848 189.378,270.733 189.378 C 270.618 189.378,270.277 188.854,269.975 188.212 C 269.674 187.571,269.329 187.047,269.209 187.047 C 269.089 187.047,268.797 186.447,268.560 185.713 C 268.323 184.980,267.959 184.251,267.752 184.094 C 267.544 183.937,267.198 183.120,266.981 182.278 C 266.765 181.437,266.414 180.556,266.201 180.321 C 265.988 180.086,265.621 178.735,265.386 177.318 C 265.150 175.900,264.786 174.403,264.577 173.991 C 263.549 171.963,263.586 157.806,264.626 154.927 C 264.856 154.289,265.221 152.424,265.436 150.783 C 265.651 149.142,265.999 147.537,266.209 147.216 C 266.420 146.895,266.757 145.688,266.958 144.534 C 267.160 143.379,267.500 142.241,267.713 142.005 C 267.927 141.769,268.281 140.715,268.501 139.662 C 268.720 138.610,269.066 137.561,269.270 137.333 C 269.473 137.104,269.840 136.101,270.084 135.104 C 270.328 134.106,270.689 133.106,270.887 132.880 C 271.084 132.654,271.432 131.838,271.659 131.066 C 271.885 130.295,272.235 129.479,272.436 129.253 C 272.636 129.027,272.987 128.214,273.215 127.445 C 273.443 126.677,273.851 125.767,274.121 125.424 C 274.391 125.081,274.611 124.483,274.611 124.095 C 274.611 123.707,274.945 122.761,275.353 121.992 C 275.760 121.224,276.177 120.035,276.277 119.351 C 276.378 118.666,276.735 117.558,277.070 116.889 C 277.450 116.131,277.748 114.942,277.861 113.731 C 277.962 112.662,278.287 111.263,278.584 110.622 C 279.349 108.972,279.423 98.759,278.683 96.891 C 278.430 96.250,278.064 94.713,277.871 93.475 C 277.662 92.138,277.312 90.929,277.007 90.496 C 276.725 90.095,276.415 89.221,276.317 88.555 C 276.219 87.888,275.928 87.072,275.670 86.741 C 275.411 86.410,275.010 85.485,274.779 84.684 C 274.547 83.883,274.201 83.098,274.009 82.939 C 273.817 82.780,273.503 82.174,273.311 81.591 C 273.119 81.009,272.769 80.395,272.534 80.227 C 272.299 80.060,271.897 79.369,271.640 78.692 C 271.383 78.015,271.075 77.461,270.956 77.461 C 270.836 77.461,270.548 77.082,270.316 76.619 C 269.730 75.453,268.066 72.967,267.720 72.742 C 267.563 72.640,267.233 72.028,266.986 71.382 C 266.739 70.736,266.424 70.207,266.285 70.207 C 266.147 70.207,265.803 69.686,265.521 69.050 C 265.239 68.413,264.861 67.801,264.680 67.689 C 264.500 67.578,264.150 66.851,263.904 66.074 C 263.658 65.298,263.256 64.440,263.011 64.169 C 262.247 63.325,262.356 56.083,263.148 55.076 C 263.468 54.668,263.731 54.164,263.731 53.956 C 263.731 53.747,264.197 53.047,264.767 52.400 C 265.337 51.752,265.804 51.151,265.805 51.065 C 265.806 50.978,266.243 50.622,266.776 50.274 C 267.310 49.926,268.038 49.385,268.394 49.072 C 268.750 48.760,269.333 48.419,269.689 48.315 C 270.045 48.212,270.570 47.922,270.855 47.671 C 271.140 47.419,271.839 47.069,272.409 46.892 C 272.979 46.714,273.795 46.364,274.223 46.112 C 274.994 45.659,277.750 45.078,279.127 45.078 C 279.521 45.078,280.211 44.907,280.660 44.697 C 282.060 44.045,292.164 43.982,292.944 44.620 M77.850 51.038 C 76.123 51.161,74.870 51.399,74.093 51.753 C 73.452 52.044,72.358 52.368,71.662 52.471 C 70.957 52.576,70.170 52.887,69.885 53.172 C 69.603 53.454,68.963 53.798,68.463 53.936 C 67.962 54.074,67.305 54.444,67.002 54.757 C 66.699 55.071,66.144 55.521,65.770 55.758 C 64.775 56.387,64.513 57.976,65.299 58.613 C 66.109 59.269,102.821 59.207,103.480 58.548 C 104.032 57.996,102.086 55.871,100.670 55.480 C 100.125 55.329,99.486 55.031,99.249 54.817 C 99.013 54.603,98.161 54.256,97.358 54.047 C 96.554 53.837,95.625 53.490,95.293 53.275 C 94.961 53.060,93.640 52.690,92.358 52.453 C 91.075 52.215,89.907 51.924,89.762 51.806 C 88.978 51.166,82.192 50.729,77.850 51.038 M182.446 51.055 C 180.930 51.172,179.433 51.437,178.960 51.673 C 178.505 51.900,177.374 52.262,176.447 52.477 C 175.520 52.692,174.583 53.025,174.363 53.217 C 174.143 53.409,173.497 53.808,172.927 54.103 C 169.953 55.644,168.738 58.182,170.694 58.768 C 172.956 59.446,208.441 59.133,208.710 58.433 C 208.919 57.888,206.894 56.061,205.587 55.616 C 204.900 55.382,204.207 55.017,204.047 54.804 C 203.887 54.592,203.008 54.228,202.092 53.996 C 201.177 53.764,200.275 53.421,200.088 53.234 C 199.727 52.873,197.560 52.332,196.476 52.332 C 196.119 52.332,195.298 52.091,194.653 51.797 C 193.599 51.317,187.791 50.688,185.622 50.820 C 185.337 50.837,183.908 50.943,182.446 51.055 M282.850 51.049 C 281.185 51.170,279.789 51.410,279.353 51.652 C 278.954 51.872,277.874 52.236,276.954 52.460 C 276.034 52.683,275.101 53.026,274.882 53.221 C 274.662 53.416,274.074 53.745,273.575 53.952 C 271.159 54.956,269.282 57.673,270.376 58.582 C 271.081 59.167,307.457 59.244,308.581 58.662 L 309.389 58.244 308.272 57.106 C 307.580 56.401,306.688 55.812,305.929 55.560 C 305.255 55.336,304.575 54.999,304.419 54.811 C 304.263 54.623,303.584 54.320,302.910 54.139 C 302.235 53.958,301.101 53.543,300.389 53.218 C 299.676 52.892,298.230 52.508,297.175 52.365 C 296.120 52.221,295.179 51.977,295.083 51.822 C 294.672 51.157,287.566 50.708,282.850 51.049 M66.891 64.041 C 66.391 64.542,66.505 66.489,67.067 67.024 C 67.334 67.278,67.803 67.983,68.108 68.588 C 68.414 69.194,68.765 69.689,68.889 69.689 C 69.013 69.689,69.298 70.147,69.522 70.707 C 69.746 71.267,70.083 71.821,70.270 71.938 C 70.457 72.055,70.820 72.626,71.076 73.207 C 71.984 75.270,70.115 75.130,96.730 75.130 L 120.453 75.130 120.837 74.387 C 121.198 73.688,121.184 73.609,120.589 73.051 C 120.241 72.724,119.881 72.213,119.788 71.915 C 119.695 71.617,119.285 70.990,118.877 70.522 C 118.469 70.054,118.134 69.529,118.133 69.356 C 118.132 68.952,114.212 64.767,113.835 64.767 C 113.679 64.767,113.341 64.534,113.083 64.249 C 112.508 63.613,67.521 63.412,66.891 64.041 M171.814 64.002 C 170.853 64.388,171.515 66.901,172.963 68.364 C 173.300 68.704,173.575 69.193,173.575 69.451 C 173.575 69.708,173.800 70.076,174.075 70.269 C 174.350 70.461,174.652 70.925,174.745 71.299 C 174.839 71.673,175.256 72.359,175.670 72.823 C 176.085 73.288,176.425 73.772,176.425 73.899 C 176.425 75.022,175.874 74.996,201.074 75.069 L 224.853 75.137 225.267 74.507 C 225.695 73.853,224.933 71.244,224.315 71.244 C 224.187 71.244,223.942 70.923,223.771 70.531 C 223.599 70.139,222.990 69.243,222.416 68.540 C 221.842 67.836,221.215 67.062,221.022 66.818 C 220.500 66.162,219.307 64.975,218.502 64.313 L 217.794 63.731 195.101 63.747 C 181.896 63.757,172.160 63.863,171.814 64.002 M271.813 64.041 C 271.303 64.552,271.459 65.781,272.150 66.687 C 272.506 67.154,272.798 67.664,272.798 67.821 C 272.798 67.977,273.013 68.258,273.277 68.444 C 273.540 68.630,274.000 69.336,274.299 70.013 C 274.597 70.690,274.953 71.244,275.090 71.244 C 275.226 71.244,275.452 71.564,275.590 71.956 C 275.729 72.348,276.146 73.018,276.516 73.446 C 276.886 73.873,277.367 74.427,277.584 74.676 C 277.955 75.102,279.431 75.130,301.677 75.130 L 325.375 75.130 325.746 74.412 C 326.175 73.583,325.849 72.481,324.892 71.524 C 324.595 71.227,324.352 70.818,324.352 70.615 C 324.352 70.411,324.077 70.028,323.740 69.763 C 323.403 69.498,323.051 69.041,322.957 68.747 C 322.864 68.454,322.499 68.082,322.145 67.921 C 321.792 67.759,321.503 67.466,321.503 67.267 C 321.503 66.651,319.705 64.821,318.552 64.263 C 317.215 63.615,272.452 63.403,271.813 64.041 M76.119 81.217 C 75.802 81.912,76.217 83.938,76.676 83.938 C 76.803 83.938,77.036 84.565,77.196 85.331 C 77.355 86.097,77.718 87.176,78.003 87.727 C 78.288 88.279,78.684 89.651,78.883 90.776 C 79.183 92.469,79.391 92.971,80.088 93.690 L 80.931 94.560 103.153 94.560 L 125.375 94.560 125.794 93.750 C 126.370 92.636,125.914 86.680,125.139 85.193 C 124.860 84.659,124.555 83.640,124.461 82.929 C 124.116 80.332,126.603 80.570,99.855 80.570 L 76.414 80.570 76.119 81.217 M181.399 80.881 C 180.865 81.415,181.044 83.202,181.756 84.449 C 182.121 85.086,182.529 86.189,182.664 86.901 C 182.799 87.612,183.156 88.704,183.458 89.328 C 183.760 89.951,184.067 91.005,184.141 91.669 C 184.268 92.816,184.779 93.946,185.357 94.361 C 186.068 94.872,230.032 94.579,230.551 94.060 C 231.541 93.070,231.436 90.494,230.221 86.010 C 230.009 85.227,229.757 84.013,229.662 83.313 C 229.539 82.409,229.276 81.827,228.754 81.305 L 228.019 80.570 204.864 80.570 C 187.201 80.570,181.636 80.644,181.399 80.881 M281.606 81.088 C 281.278 81.373,281.132 81.606,281.283 81.606 C 281.434 81.606,281.640 82.207,281.741 82.941 C 281.935 84.348,282.539 86.038,282.938 86.289 C 283.068 86.371,283.294 87.187,283.439 88.103 C 283.585 89.018,283.924 90.233,284.194 90.803 C 284.464 91.373,284.768 92.189,284.870 92.617 C 284.972 93.044,285.226 93.656,285.433 93.977 L 285.811 94.560 308.012 94.560 C 330.194 94.560,330.214 94.559,330.796 94.017 C 331.905 92.984,332.168 91.381,331.451 90.026 C 331.225 89.598,330.869 87.908,330.660 86.269 C 330.397 84.204,330.126 83.075,329.777 82.588 C 329.501 82.202,329.275 81.783,329.275 81.657 C 329.275 80.554,329.636 80.570,305.265 80.570 C 282.575 80.570,282.194 80.578,281.606 81.088 M81.422 99.689 C 80.224 100.450,79.685 110.752,80.791 111.753 C 81.539 112.430,124.617 112.282,125.298 111.600 C 126.201 110.697,126.620 101.386,125.812 100.194 L 125.329 99.482 103.532 99.486 C 91.544 99.488,81.595 99.580,81.422 99.689 M186.147 100.246 C 185.866 100.790,185.745 101.856,185.729 103.938 C 185.710 106.607,185.544 108.316,185.092 110.516 C 184.739 112.235,184.145 112.193,208.117 112.116 C 232.225 112.038,230.252 112.222,230.864 109.998 C 231.309 108.379,231.308 100.455,230.862 99.913 C 230.535 99.517,228.723 99.482,208.524 99.482 L 186.542 99.482 186.147 100.246 M286.798 100.049 C 286.335 100.546,286.269 100.956,286.269 103.377 C 286.269 105.196,286.147 106.395,285.910 106.890 C 285.713 107.304,285.479 108.406,285.390 109.339 C 285.106 112.343,282.623 112.036,307.864 112.118 L 329.759 112.190 330.294 111.616 C 330.588 111.301,330.829 110.787,330.829 110.476 C 330.829 110.165,331.010 109.400,331.230 108.776 C 332.300 105.754,332.220 100.347,331.096 99.745 C 330.774 99.573,323.137 99.482,308.965 99.482 L 287.326 99.482 286.798 100.049 M78.951 118.199 C 78.766 118.520,78.472 119.016,78.297 119.301 C 77.732 120.219,77.428 121.083,77.157 122.539 C 77.012 123.323,76.804 124.022,76.695 124.093 C 75.493 124.880,74.959 129.514,76.015 129.995 C 77.412 130.631,118.693 130.432,119.246 129.786 C 120.432 128.402,121.201 127.119,121.362 126.261 C 121.460 125.742,121.773 125.002,122.058 124.616 C 122.344 124.230,122.642 123.400,122.722 122.773 C 122.801 122.145,123.152 121.015,123.503 120.262 C 124.802 117.470,126.057 117.617,100.896 117.617 L 79.287 117.617 78.951 118.199 M184.020 117.877 C 183.259 118.184,182.918 118.891,182.610 120.801 C 182.468 121.682,182.188 122.584,181.988 122.806 C 181.787 123.027,181.430 123.961,181.195 124.881 C 180.959 125.800,180.539 126.841,180.262 127.194 C 179.734 127.865,179.787 129.286,180.366 129.987 C 180.576 130.241,185.167 130.311,201.724 130.311 C 225.549 130.311,224.250 130.418,225.148 128.387 C 225.431 127.747,225.774 127.154,225.911 127.070 C 226.047 126.986,226.347 126.252,226.578 125.440 C 226.808 124.628,227.182 123.672,227.410 123.316 C 228.252 121.998,228.761 118.658,228.205 118.101 C 227.674 117.570,185.315 117.356,184.020 117.877 M283.980 118.149 C 283.707 118.442,283.425 119.205,283.353 119.844 C 283.281 120.483,283.050 121.205,282.839 121.448 C 282.347 122.018,281.865 123.456,281.865 124.356 C 281.865 124.743,281.657 125.338,281.402 125.677 C 280.283 127.168,280.075 128.326,280.706 129.547 L 281.101 130.311 302.222 130.311 L 323.343 130.311 324.366 129.728 C 325.126 129.295,325.502 128.845,325.826 127.979 C 326.066 127.338,326.467 126.544,326.717 126.215 C 326.967 125.885,327.314 124.953,327.488 124.142 C 327.662 123.332,327.963 122.482,328.157 122.253 C 328.753 121.550,329.164 119.056,328.812 118.282 L 328.509 117.617 306.492 117.617 C 284.611 117.617,284.473 117.620,283.980 118.149 M72.840 135.412 C 71.803 135.923,71.422 136.497,70.980 138.212 C 70.797 138.925,70.497 139.683,70.315 139.897 C 70.133 140.112,69.787 141.161,69.548 142.229 C 69.308 143.297,68.950 144.355,68.752 144.581 C 68.203 145.207,67.775 147.888,68.108 148.620 L 68.383 149.223 91.535 149.223 C 118.555 149.223,115.439 149.709,115.623 145.466 C 115.690 143.899,115.886 142.092,116.057 141.451 C 116.633 139.290,116.699 136.053,116.179 135.478 C 115.526 134.756,74.299 134.693,72.840 135.412 M178.179 135.155 C 177.407 135.277,176.425 136.335,176.425 137.047 C 176.425 137.293,176.213 137.773,175.954 138.113 C 175.346 138.911,174.953 139.997,174.750 141.444 C 174.660 142.081,174.415 142.793,174.205 143.024 C 173.996 143.256,173.650 144.357,173.437 145.470 C 173.224 146.584,172.909 147.664,172.738 147.870 C 172.486 148.173,172.543 148.341,173.029 148.734 C 173.935 149.467,219.362 149.501,220.011 148.769 C 220.321 148.419,220.436 147.491,220.516 144.689 C 220.583 142.306,220.738 140.844,220.968 140.426 C 221.899 138.736,222.046 136.191,221.258 135.403 C 220.967 135.112,179.958 134.876,178.179 135.155 M277.831 135.551 C 276.454 137.145,275.795 138.504,275.551 140.252 C 275.474 140.804,275.233 141.452,275.016 141.693 C 274.798 141.933,274.431 143.055,274.200 144.186 C 273.969 145.318,273.631 146.418,273.449 146.632 C 272.821 147.370,272.725 148.194,273.203 148.723 C 273.643 149.209,274.271 149.223,296.753 149.223 C 322.900 149.223,320.980 149.383,320.988 147.205 C 321.000 144.227,321.538 138.766,321.886 138.093 C 322.330 137.235,322.172 135.940,321.561 135.433 C 321.248 135.174,316.619 135.089,299.752 135.033 L 278.339 134.963 277.831 135.551 M66.614 155.271 C 66.454 155.462,66.255 156.016,66.170 156.501 C 66.084 156.986,65.847 157.919,65.643 158.573 C 65.373 159.435,65.290 160.816,65.343 163.594 L 65.415 167.426 66.317 167.910 C 67.181 168.373,68.324 168.394,92.922 168.394 L 118.623 168.394 119.027 167.818 C 119.564 167.051,119.535 166.419,118.924 165.562 C 118.646 165.171,118.301 164.121,118.157 163.229 C 118.014 162.336,117.659 161.203,117.368 160.711 C 117.040 160.155,116.779 159.112,116.677 157.952 C 116.558 156.600,116.368 155.928,115.983 155.505 L 115.454 154.922 91.178 154.922 C 71.157 154.922,66.852 154.983,66.614 155.271 M171.277 155.406 C 170.685 155.861,170.654 156.062,170.390 161.194 C 170.068 167.432,170.171 167.975,171.716 168.231 C 172.943 168.433,222.224 168.436,222.980 168.234 C 223.966 167.969,224.413 167.015,223.959 166.145 C 223.750 165.743,223.578 165.114,223.577 164.746 C 223.576 164.378,223.281 163.504,222.920 162.803 C 222.540 162.063,222.160 160.716,222.013 159.592 C 221.693 157.142,221.583 156.794,220.812 155.764 L 220.181 154.922 196.036 154.928 C 173.081 154.934,171.861 154.957,171.277 155.406 M271.685 155.382 C 271.246 155.867,270.733 161.200,270.728 165.331 C 270.724 168.734,267.721 168.394,297.783 168.394 C 319.353 168.394,323.555 168.336,323.970 168.032 C 324.667 167.523,324.550 165.823,323.697 164.080 C 323.323 163.316,322.921 162.021,322.803 161.203 C 322.685 160.385,322.396 159.190,322.160 158.549 C 321.923 157.908,321.608 156.975,321.460 156.477 C 321.311 155.978,321.071 155.424,320.926 155.246 C 320.443 154.653,272.224 154.787,271.685 155.382 M66.959 174.010 C 66.413 174.557,66.546 176.964,67.161 177.651 C 67.386 177.903,67.761 178.769,67.994 179.577 C 68.227 180.384,68.581 181.180,68.781 181.346 C 68.981 181.512,69.284 182.076,69.454 182.598 C 69.625 183.121,70.050 183.892,70.400 184.312 C 70.749 184.731,71.132 185.330,71.251 185.641 C 71.790 187.059,71.524 187.047,101.025 187.047 C 130.698 187.047,129.275 187.121,129.275 185.573 C 129.275 184.882,128.355 183.161,127.986 183.161 C 127.871 183.161,127.594 182.704,127.371 182.146 C 127.147 181.589,126.842 181.056,126.691 180.963 C 126.540 180.870,126.246 180.383,126.036 179.881 C 125.826 179.380,125.362 178.621,125.004 178.195 C 124.645 177.770,124.352 177.226,124.352 176.988 C 124.352 176.749,123.826 175.884,123.183 175.065 L 122.013 173.575 94.704 173.575 C 69.472 173.575,67.361 173.608,66.959 174.010 M172.059 174.028 C 171.479 174.518,171.876 178.492,172.527 178.709 C 172.675 178.759,173.044 179.615,173.346 180.611 C 173.649 181.608,174.047 182.481,174.231 182.552 C 174.414 182.622,174.637 182.968,174.725 183.319 C 174.813 183.671,175.232 184.321,175.655 184.764 C 176.079 185.207,176.425 185.699,176.425 185.857 C 176.425 186.920,176.253 186.914,205.181 186.991 C 220.356 187.031,233.038 186.999,233.364 186.919 C 234.388 186.667,234.639 184.197,233.641 184.197 C 233.523 184.197,233.260 183.799,233.057 183.313 C 232.854 182.827,232.456 182.197,232.173 181.914 C 231.889 181.630,231.580 181.153,231.484 180.853 C 231.389 180.553,231.044 179.988,230.718 179.597 C 230.392 179.206,229.963 178.434,229.766 177.882 C 229.568 177.330,229.263 176.823,229.089 176.756 C 228.914 176.689,228.491 176.022,228.149 175.273 C 227.627 174.134,227.388 173.884,226.684 173.743 C 224.426 173.292,172.611 173.562,172.059 174.028 M272.598 173.844 C 271.903 174.123,271.604 174.747,271.949 175.198 C 272.084 175.374,272.337 176.218,272.511 177.073 C 272.873 178.846,273.297 180.052,273.558 180.052 C 273.656 180.052,273.882 180.621,274.061 181.317 C 274.239 182.013,274.669 182.850,275.016 183.176 C 275.364 183.502,275.648 183.937,275.648 184.143 C 275.648 184.596,277.071 186.277,277.825 186.714 C 278.629 187.179,334.020 187.188,334.393 186.723 C 334.982 185.986,334.983 185.318,334.395 184.662 C 333.778 183.972,333.093 182.896,332.293 181.360 C 332.029 180.854,331.598 180.206,331.334 179.919 C 331.070 179.632,330.680 178.981,330.468 178.473 C 330.255 177.965,329.915 177.411,329.712 177.243 C 329.509 177.074,329.152 176.442,328.920 175.838 C 328.668 175.181,328.154 174.507,327.640 174.158 L 326.781 173.575 299.984 173.592 C 284.476 173.601,272.939 173.708,272.598 173.844 M80.394 192.408 C 79.146 192.651,79.211 193.129,80.684 194.522 C 81.459 195.255,82.313 195.855,82.582 195.855 C 82.850 195.855,83.348 196.151,83.688 196.513 C 84.028 196.874,84.806 197.296,85.417 197.450 C 86.028 197.604,86.528 197.808,86.528 197.902 C 86.528 198.221,88.027 198.964,88.671 198.964 C 89.021 198.964,89.586 199.180,89.926 199.444 C 90.635 199.996,91.850 200.405,93.523 200.658 C 94.165 200.754,94.864 200.984,95.078 201.167 C 95.582 201.599,97.724 201.999,100.648 202.206 C 101.930 202.296,103.637 202.537,104.442 202.740 C 106.328 203.216,109.530 203.212,111.230 202.731 C 111.964 202.523,113.815 202.241,115.343 202.105 C 117.361 201.925,118.496 201.683,119.489 201.220 C 120.240 200.870,121.280 200.508,121.800 200.415 C 122.320 200.322,123.021 200.028,123.359 199.763 C 123.696 199.497,124.409 199.098,124.943 198.875 C 125.477 198.652,125.983 198.289,126.068 198.069 C 126.152 197.849,126.368 197.668,126.547 197.668 C 128.219 197.668,131.060 193.165,129.810 192.496 C 129.325 192.237,81.711 192.152,80.394 192.408 M184.862 192.572 C 184.391 192.916,184.476 194.041,184.973 194.041 C 185.096 194.041,185.625 194.445,186.148 194.939 C 186.672 195.433,187.350 195.913,187.656 196.005 C 187.962 196.098,188.446 196.379,188.731 196.630 C 189.016 196.881,189.715 197.232,190.285 197.409 C 190.855 197.587,191.554 197.944,191.839 198.203 C 192.125 198.462,192.919 198.799,193.605 198.953 C 194.292 199.107,195.168 199.466,195.554 199.751 C 195.939 200.036,196.991 200.387,197.892 200.532 C 198.792 200.677,199.781 200.952,200.088 201.143 C 200.961 201.684,202.730 202.014,205.829 202.214 C 207.537 202.325,208.883 202.541,209.190 202.754 C 209.906 203.251,215.227 203.250,215.940 202.752 C 216.242 202.541,217.562 202.321,219.171 202.213 C 222.210 202.010,223.759 201.689,224.384 201.131 C 224.616 200.925,225.410 200.661,226.150 200.544 C 226.890 200.427,227.826 200.087,228.230 199.788 C 228.633 199.490,229.269 199.169,229.643 199.075 C 230.017 198.981,230.640 198.568,231.028 198.157 C 231.417 197.746,231.861 197.409,232.016 197.409 C 232.171 197.409,232.609 197.060,232.990 196.632 C 233.371 196.205,233.786 195.855,233.912 195.855 C 234.038 195.855,234.323 195.399,234.546 194.841 C 234.770 194.283,235.074 193.751,235.222 193.660 C 235.743 193.338,235.484 192.794,234.676 192.512 C 233.377 192.059,185.485 192.116,184.862 192.572 M285.427 192.508 C 284.735 192.911,284.878 193.719,285.720 194.155 C 286.130 194.367,286.535 194.720,286.619 194.939 C 286.703 195.158,287.209 195.541,287.743 195.791 C 288.277 196.040,288.920 196.445,289.171 196.692 C 289.422 196.939,290.154 197.273,290.798 197.435 C 291.442 197.597,291.969 197.830,291.969 197.952 C 291.969 198.259,293.216 198.856,294.284 199.059 C 294.773 199.153,295.356 199.386,295.579 199.578 C 296.111 200.035,297.571 200.518,298.423 200.518 C 298.796 200.518,299.507 200.733,300.004 200.995 C 301.351 201.707,302.911 202.013,306.218 202.217 C 308.032 202.329,309.397 202.540,309.708 202.755 C 310.422 203.250,315.745 203.249,316.458 202.754 C 316.750 202.551,318.080 202.320,319.560 202.214 C 322.645 201.995,324.325 201.660,324.884 201.153 C 325.110 200.949,325.902 200.666,326.644 200.526 C 328.123 200.245,329.016 199.854,329.016 199.485 C 329.016 199.354,329.427 199.134,329.930 198.995 C 332.816 198.198,336.505 193.609,335.091 192.575 C 334.488 192.134,286.181 192.069,285.427 192.508 " stroke="none" fill="#ffffff" fill-rule="evenodd"></path></g></svg>