<svg id="svg" version="1.1" xmlns="http://www.w3.org/2000/svg" xmlns:xlink="http://www.w3.org/1999/xlink" width="400" height="258.91472868217056" viewBox="0, 0, 400,258.91472868217056"><g id="svgg"><path id="path0" d="M198.394 28.259 C 197.659 28.807,195.521 32.767,195.220 34.138 C 195.124 34.578,194.883 35.072,194.686 35.236 C 194.489 35.399,194.125 36.078,193.877 36.743 C 193.629 37.409,193.222 38.223,192.972 38.552 C 192.721 38.882,192.376 39.581,192.205 40.107 C 192.034 40.632,191.678 41.340,191.414 41.679 C 191.150 42.018,190.806 42.772,190.649 43.354 C 190.493 43.936,190.159 44.673,189.908 44.992 C 189.658 45.311,189.304 46.102,189.123 46.749 C 188.941 47.397,188.718 47.927,188.626 47.927 C 188.535 47.927,188.277 48.306,188.053 48.769 C 186.666 51.640,186.029 53.057,185.870 53.627 C 185.771 53.983,185.532 54.455,185.339 54.676 C 185.146 54.897,184.807 55.591,184.585 56.218 C 184.364 56.845,184.015 57.544,183.808 57.772 C 183.602 58.000,183.252 58.699,183.031 59.326 C 182.810 59.953,182.458 60.655,182.249 60.886 C 182.040 61.117,181.634 61.989,181.347 62.824 C 181.060 63.659,180.666 64.525,180.471 64.749 C 180.276 64.972,179.979 65.585,179.811 66.111 C 179.642 66.636,179.295 67.336,179.038 67.665 C 178.782 67.995,178.433 68.694,178.261 69.220 C 178.090 69.745,177.736 70.447,177.475 70.779 C 177.213 71.111,176.850 71.905,176.668 72.544 C 176.485 73.182,176.191 73.880,176.013 74.093 C 175.836 74.307,175.488 75.006,175.241 75.648 C 174.993 76.289,174.636 76.994,174.448 77.215 C 174.261 77.436,173.931 78.114,173.717 78.721 C 173.503 79.329,173.100 80.116,172.821 80.469 C 172.543 80.823,172.235 81.481,172.136 81.932 C 172.036 82.383,171.686 83.165,171.356 83.669 C 171.027 84.173,170.673 84.935,170.571 85.363 C 170.468 85.790,170.120 86.490,169.798 86.917 C 169.475 87.345,169.125 88.044,169.021 88.472 C 168.916 88.899,168.557 89.609,168.223 90.050 C 167.890 90.491,167.617 91.023,167.617 91.231 C 167.617 91.439,167.209 92.419,166.711 93.409 C 166.212 94.398,165.804 95.337,165.804 95.496 C 165.803 95.655,165.567 96.085,165.279 96.451 C 164.991 96.817,164.586 97.598,164.378 98.187 C 164.171 98.775,163.773 99.546,163.495 99.899 C 163.217 100.253,162.911 100.916,162.814 101.372 C 162.718 101.829,162.302 102.799,161.890 103.529 C 161.477 104.259,161.140 104.983,161.140 105.139 C 161.140 105.295,160.790 105.974,160.363 106.648 C 159.935 107.322,159.585 108.021,159.585 108.202 C 159.585 108.383,159.236 109.083,158.808 109.757 C 158.381 110.431,158.031 111.235,158.031 111.544 C 158.031 111.853,157.795 112.406,157.507 112.772 C 157.219 113.138,156.808 113.935,156.594 114.543 C 156.379 115.151,156.035 115.834,155.829 116.062 C 155.623 116.290,155.273 116.990,155.052 117.617 C 154.831 118.244,154.470 118.955,154.250 119.198 C 154.030 119.441,153.683 120.196,153.478 120.876 C 153.273 121.556,152.948 122.296,152.754 122.520 C 152.561 122.744,152.192 123.510,151.935 124.223 C 151.677 124.935,151.311 125.702,151.122 125.927 C 150.658 126.477,150.687 126.912,151.259 127.983 C 151.524 128.480,151.831 129.177,151.941 129.534 C 152.051 129.890,152.363 130.497,152.634 130.882 C 152.906 131.268,153.258 131.967,153.417 132.437 C 153.576 132.906,153.927 133.607,154.196 133.994 C 154.465 134.381,154.855 135.268,155.063 135.966 C 155.270 136.664,155.655 137.513,155.918 137.853 C 156.182 138.193,156.471 138.771,156.560 139.138 C 156.650 139.505,156.999 140.212,157.337 140.710 C 157.675 141.208,158.024 141.907,158.114 142.264 C 158.204 142.621,158.546 143.313,158.875 143.801 C 159.203 144.290,159.626 145.214,159.813 145.855 C 160.001 146.496,160.308 147.196,160.496 147.409 C 160.684 147.623,161.040 148.323,161.288 148.964 C 161.536 149.605,161.892 150.310,162.080 150.531 C 162.268 150.752,162.597 151.430,162.811 152.037 C 163.026 152.645,163.424 153.425,163.696 153.771 C 163.968 154.117,164.271 154.838,164.371 155.373 C 164.470 155.909,164.815 156.697,165.136 157.124 C 165.458 157.552,165.807 158.251,165.912 158.679 C 166.017 159.106,166.366 159.806,166.689 160.233 C 167.011 160.661,167.360 161.353,167.463 161.772 C 167.567 162.191,167.887 162.864,168.175 163.269 C 168.463 163.673,168.816 164.429,168.959 164.947 C 169.102 165.466,169.483 166.308,169.805 166.818 C 170.127 167.328,170.483 168.038,170.596 168.394 C 170.709 168.750,171.058 169.449,171.373 169.948 C 171.688 170.447,172.037 171.146,172.150 171.503 C 172.263 171.859,172.630 172.585,172.965 173.117 C 173.301 173.648,173.576 174.289,173.577 174.541 C 173.578 174.794,173.772 175.350,174.009 175.777 C 175.300 178.106,177.202 181.986,177.202 182.291 C 177.202 182.484,177.309 182.642,177.440 182.642 C 177.571 182.642,177.874 183.255,178.112 184.003 C 178.351 184.751,178.749 185.654,178.996 186.010 C 179.244 186.367,179.656 187.210,179.912 187.885 C 180.169 188.560,180.538 189.244,180.733 189.406 C 180.928 189.568,181.091 189.832,181.095 189.993 C 181.098 190.154,181.565 191.216,182.131 192.355 C 182.697 193.493,183.161 194.556,183.161 194.716 C 183.161 194.877,183.374 195.286,183.634 195.626 C 183.894 195.965,184.312 196.768,184.562 197.409 C 184.813 198.051,185.165 198.750,185.344 198.964 C 185.524 199.177,185.874 199.877,186.121 200.518 C 186.369 201.159,186.727 201.859,186.917 202.073 C 187.107 202.286,187.344 202.902,187.444 203.441 C 187.544 203.981,187.889 204.810,188.211 205.284 C 188.533 205.759,188.934 206.564,189.102 207.073 C 189.270 207.582,189.612 208.268,189.863 208.598 C 190.113 208.927,190.520 209.741,190.768 210.407 C 191.016 211.073,191.380 211.751,191.577 211.915 C 191.774 212.078,192.015 212.583,192.113 213.036 C 192.295 213.882,192.943 215.313,193.249 215.544 C 193.343 215.615,193.629 216.229,193.884 216.909 C 194.138 217.588,194.496 218.293,194.678 218.475 C 194.860 218.658,195.095 219.093,195.199 219.442 C 195.304 219.792,195.711 220.661,196.105 221.373 C 196.500 222.085,196.909 223.066,197.016 223.552 C 197.468 225.613,199.480 226.505,199.971 224.864 C 200.143 224.290,200.570 223.399,200.919 222.884 C 201.269 222.370,201.554 221.696,201.554 221.388 C 201.554 221.079,201.904 220.275,202.332 219.601 C 202.759 218.927,203.109 218.228,203.109 218.047 C 203.109 217.866,203.459 217.167,203.886 216.493 C 204.313 215.818,204.663 215.139,204.663 214.984 C 204.663 214.828,204.998 214.103,205.408 213.374 C 205.817 212.644,206.232 211.710,206.328 211.299 C 206.425 210.887,206.774 210.188,207.104 209.744 C 207.434 209.301,207.784 208.601,207.881 208.190 C 207.979 207.779,208.329 207.079,208.659 206.636 C 208.988 206.192,209.339 205.488,209.438 205.072 C 209.537 204.656,209.843 204.029,210.119 203.678 C 210.394 203.328,210.749 202.562,210.907 201.976 C 211.064 201.391,211.417 200.598,211.690 200.214 C 211.964 199.830,212.363 199.019,212.577 198.411 C 212.792 197.803,213.120 197.125,213.306 196.904 C 213.493 196.683,213.799 196.095,213.987 195.596 C 214.175 195.097,214.530 194.339,214.776 193.912 C 215.021 193.484,215.370 192.668,215.550 192.098 C 215.731 191.528,216.088 190.793,216.344 190.463 C 216.600 190.134,216.950 189.434,217.121 188.909 C 217.293 188.383,217.642 187.684,217.899 187.354 C 218.155 187.025,218.502 186.325,218.671 185.800 C 218.839 185.274,219.138 184.660,219.334 184.434 C 219.531 184.209,219.866 183.438,220.078 182.721 C 220.291 182.005,220.677 181.140,220.935 180.800 C 221.194 180.460,221.609 179.637,221.856 178.971 C 222.104 178.306,222.476 177.621,222.682 177.450 C 222.888 177.279,223.057 177.027,223.057 176.891 C 223.057 176.755,223.465 175.795,223.964 174.758 C 224.462 173.721,224.871 172.710,224.872 172.512 C 224.872 172.313,225.221 171.626,225.648 170.984 C 226.074 170.343,226.424 169.644,226.425 169.430 C 226.426 169.216,226.776 168.517,227.202 167.876 C 227.628 167.234,227.978 166.533,227.978 166.317 C 227.979 166.100,228.259 165.512,228.600 165.010 C 228.941 164.507,229.339 163.668,229.484 163.144 C 229.629 162.620,229.973 161.867,230.248 161.471 C 230.524 161.075,230.880 160.367,231.039 159.898 C 231.198 159.428,231.550 158.729,231.822 158.343 C 232.093 157.958,232.405 157.351,232.514 156.995 C 232.623 156.639,233.047 155.719,233.455 154.951 C 233.863 154.182,234.197 153.400,234.197 153.211 C 234.197 153.022,234.547 152.316,234.974 151.642 C 235.402 150.968,235.751 150.258,235.751 150.065 C 235.751 149.872,236.045 149.282,236.405 148.756 C 236.764 148.229,237.183 147.336,237.336 146.771 C 237.489 146.206,237.837 145.461,238.108 145.117 C 238.379 144.772,238.601 144.368,238.601 144.219 C 238.601 144.070,239.407 142.308,240.392 140.303 C 243.318 134.351,243.782 133.353,243.782 133.021 C 243.782 132.848,243.951 132.566,244.157 132.395 C 244.364 132.224,244.739 131.539,244.991 130.873 C 245.243 130.208,245.716 129.268,246.041 128.785 C 246.875 127.546,246.815 126.212,245.855 124.651 C 245.427 123.957,245.073 123.226,245.067 123.028 C 245.062 122.830,244.712 122.027,244.290 121.244 C 243.869 120.460,243.523 119.689,243.523 119.531 C 243.523 119.373,243.246 118.835,242.907 118.336 C 242.569 117.836,242.154 117.011,241.986 116.502 C 241.818 115.993,241.472 115.307,241.218 114.977 C 240.963 114.648,240.562 113.805,240.327 113.104 C 240.091 112.404,239.743 111.646,239.553 111.420 C 239.363 111.195,239.002 110.454,238.751 109.775 C 238.501 109.096,238.149 108.393,237.969 108.214 C 237.790 108.034,237.493 107.424,237.309 106.858 C 237.125 106.292,236.753 105.514,236.483 105.128 C 236.213 104.743,235.869 104.043,235.719 103.574 C 235.441 102.701,234.074 99.663,233.645 98.964 C 233.514 98.750,233.109 97.939,232.745 97.162 C 232.382 96.384,231.874 95.452,231.618 95.089 C 231.362 94.727,231.065 94.022,230.959 93.523 C 230.852 93.025,230.542 92.301,230.269 91.916 C 229.997 91.530,229.644 90.831,229.485 90.361 C 229.326 89.892,228.976 89.192,228.707 88.807 C 228.439 88.421,228.089 87.722,227.930 87.252 C 227.771 86.783,227.415 86.075,227.140 85.679 C 226.864 85.283,226.521 84.535,226.378 84.016 C 226.235 83.498,225.837 82.629,225.494 82.086 C 225.151 81.543,224.870 80.937,224.870 80.741 C 224.870 80.544,224.593 79.975,224.255 79.476 C 223.916 78.976,223.501 78.151,223.333 77.642 C 223.165 77.133,222.818 76.447,222.562 76.117 C 222.306 75.788,221.948 75.052,221.768 74.482 C 221.587 73.912,221.239 73.096,220.993 72.668 C 220.748 72.241,220.393 71.483,220.205 70.984 C 220.017 70.486,219.717 69.903,219.539 69.689 C 219.360 69.475,219.012 68.776,218.764 68.135 C 218.516 67.494,218.154 66.782,217.958 66.553 C 217.763 66.324,217.363 65.449,217.069 64.610 C 216.776 63.770,216.385 62.908,216.202 62.694 C 216.019 62.481,215.731 61.876,215.562 61.350 C 215.393 60.825,215.051 60.125,214.801 59.796 C 214.550 59.466,214.143 58.652,213.895 57.987 C 213.647 57.321,213.286 56.645,213.092 56.484 C 212.898 56.323,212.604 55.625,212.438 54.932 C 212.271 54.239,211.853 53.290,211.508 52.822 C 211.163 52.354,210.881 51.779,210.881 51.543 C 210.881 51.307,210.533 50.601,210.108 49.974 C 209.683 49.347,209.333 48.659,209.330 48.446 C 209.327 48.232,208.975 47.532,208.549 46.891 C 208.123 46.250,207.769 45.551,207.763 45.337 C 207.757 45.123,207.406 44.307,206.985 43.523 C 206.563 42.740,206.218 41.935,206.218 41.734 C 206.218 41.534,205.932 40.996,205.584 40.539 C 205.235 40.082,204.870 39.372,204.773 38.960 C 204.675 38.549,204.325 37.849,203.995 37.406 C 203.665 36.962,203.314 36.263,203.215 35.851 C 203.056 35.192,202.045 32.965,201.228 31.477 C 200.514 30.175,200.235 29.596,199.885 28.692 C 199.453 27.577,199.348 27.547,198.394 28.259 M200.016 54.333 C 200.207 55.013,200.631 55.965,200.959 56.448 C 201.286 56.931,201.555 57.514,201.556 57.743 C 201.556 57.973,201.905 58.685,202.332 59.326 C 202.758 59.968,203.108 60.667,203.109 60.881 C 203.110 61.095,203.460 61.794,203.886 62.435 C 204.312 63.076,204.662 63.776,204.663 63.990 C 204.664 64.203,205.072 65.188,205.571 66.177 C 206.069 67.166,206.477 68.114,206.477 68.282 C 206.477 68.451,206.645 68.729,206.852 68.901 C 207.058 69.072,207.433 69.756,207.685 70.422 C 207.937 71.088,208.401 72.015,208.716 72.483 C 209.031 72.951,209.370 73.708,209.469 74.167 C 209.569 74.625,209.873 75.315,210.145 75.701 C 210.418 76.087,210.771 76.786,210.930 77.255 C 211.089 77.725,211.437 78.422,211.703 78.804 C 211.969 79.187,212.363 79.997,212.577 80.605 C 212.792 81.213,213.125 81.891,213.318 82.111 C 213.511 82.332,213.750 82.804,213.848 83.161 C 213.946 83.517,214.999 85.790,216.187 88.212 C 217.376 90.635,218.829 93.666,219.417 94.948 C 220.005 96.231,220.600 97.455,220.738 97.668 C 220.877 97.882,221.223 98.582,221.506 99.223 C 221.789 99.864,222.139 100.563,222.285 100.777 C 222.430 100.991,222.731 101.574,222.953 102.073 C 223.175 102.571,223.698 103.688,224.114 104.554 C 224.530 105.420,224.870 106.284,224.870 106.473 C 224.870 106.662,225.156 107.190,225.504 107.647 C 225.853 108.104,226.218 108.815,226.316 109.226 C 226.413 109.638,226.759 110.332,227.084 110.769 C 227.409 111.206,227.802 112.036,227.958 112.614 C 228.113 113.191,228.462 113.945,228.732 114.289 C 229.003 114.633,229.350 115.380,229.503 115.949 C 229.656 116.517,230.075 117.381,230.435 117.868 C 230.794 118.355,231.088 118.946,231.088 119.182 C 231.088 119.418,231.436 120.124,231.861 120.751 C 232.285 121.378,232.635 122.039,232.638 122.220 C 232.640 122.401,232.992 123.204,233.420 124.005 C 234.505 126.040,234.505 127.900,233.420 129.534 C 232.993 130.175,232.644 130.816,232.643 130.959 C 232.642 131.101,232.308 131.859,231.901 132.642 C 231.493 133.426,231.079 134.404,230.981 134.815 C 230.882 135.227,230.531 135.926,230.202 136.370 C 229.872 136.813,229.522 137.513,229.424 137.924 C 229.327 138.335,228.977 139.035,228.647 139.478 C 228.317 139.922,227.966 140.626,227.868 141.042 C 227.769 141.458,227.463 142.085,227.187 142.436 C 226.911 142.786,226.557 143.549,226.401 144.131 C 226.244 144.713,225.901 145.463,225.637 145.797 C 225.374 146.132,225.019 146.835,224.848 147.361 C 224.676 147.886,224.320 148.594,224.056 148.934 C 223.791 149.274,223.575 149.662,223.575 149.796 C 223.575 150.239,218.313 161.180,217.746 161.917 C 217.582 162.131,217.299 162.830,217.118 163.472 C 216.936 164.113,216.635 164.812,216.447 165.026 C 216.259 165.240,215.903 165.939,215.655 166.580 C 215.407 167.222,215.058 167.921,214.878 168.135 C 214.698 168.348,214.349 169.048,214.101 169.689 C 213.853 170.330,213.493 171.040,213.301 171.265 C 213.108 171.491,212.777 172.262,212.564 172.978 C 212.351 173.695,211.966 174.559,211.707 174.900 C 211.448 175.240,211.034 176.063,210.786 176.728 C 210.538 177.394,210.167 178.078,209.960 178.250 C 209.754 178.421,209.585 178.699,209.585 178.869 C 209.585 179.038,209.177 180.004,208.679 181.017 C 208.180 182.029,207.772 183.013,207.771 183.203 C 207.770 183.394,207.421 184.074,206.995 184.715 C 206.569 185.356,206.219 186.056,206.218 186.269 C 206.216 186.483,205.867 187.183,205.440 187.824 C 205.014 188.465,204.665 189.138,204.664 189.318 C 204.664 189.499,204.313 190.302,203.886 191.104 C 203.459 191.905,203.109 192.737,203.109 192.952 C 203.109 193.168,202.824 193.719,202.475 194.176 C 202.126 194.633,201.761 195.343,201.664 195.755 C 201.566 196.166,201.208 196.876,200.869 197.333 C 200.529 197.789,200.180 198.515,200.094 198.946 C 199.753 200.654,198.040 200.385,197.244 198.499 C 197.021 197.971,196.679 197.247,196.484 196.891 C 196.290 196.535,195.938 195.835,195.702 195.337 C 194.905 193.653,193.830 191.327,193.427 190.415 C 193.207 189.916,192.861 189.216,192.659 188.860 C 192.457 188.504,192.107 187.804,191.882 187.306 C 191.657 186.807,191.308 186.108,191.108 185.751 C 190.289 184.296,189.119 181.711,189.114 181.347 C 189.112 181.133,188.762 180.446,188.337 179.819 C 187.912 179.192,187.565 178.479,187.565 178.234 C 187.565 177.990,187.336 177.499,187.057 177.144 C 186.777 176.789,186.303 175.841,186.002 175.037 C 185.701 174.233,185.362 173.575,185.248 173.575 C 185.134 173.575,184.892 173.040,184.709 172.386 C 184.526 171.733,184.120 170.821,183.808 170.361 C 183.496 169.901,183.167 169.233,183.078 168.876 C 182.988 168.519,182.620 167.793,182.260 167.262 C 181.901 166.732,181.606 166.172,181.606 166.019 C 181.606 165.865,181.270 165.083,180.858 164.282 C 178.891 160.448,175.431 153.166,175.295 152.572 C 175.211 152.205,174.866 151.498,174.528 151.000 C 174.191 150.502,173.829 149.753,173.724 149.335 C 173.620 148.917,173.271 148.225,172.948 147.798 C 172.626 147.370,172.277 146.678,172.174 146.259 C 172.071 145.841,171.757 145.176,171.477 144.782 C 171.197 144.389,170.804 143.526,170.605 142.864 C 170.406 142.202,170.063 141.462,169.843 141.219 C 169.624 140.976,169.263 140.264,169.041 139.637 C 168.820 139.010,168.470 138.311,168.264 138.083 C 168.058 137.855,167.707 137.152,167.484 136.521 C 167.262 135.890,166.870 135.018,166.613 134.583 C 166.357 134.148,166.061 133.447,165.955 133.023 C 165.849 132.600,165.480 131.883,165.135 131.429 C 164.790 130.976,164.506 130.451,164.503 130.263 C 164.501 130.076,164.153 129.339,163.731 128.627 C 162.798 127.055,162.773 126.552,163.566 125.384 C 163.903 124.888,164.268 124.074,164.376 123.575 C 164.484 123.076,164.795 122.353,165.068 121.967 C 165.340 121.582,165.693 120.882,165.852 120.413 C 166.011 119.944,166.361 119.244,166.629 118.859 C 166.898 118.473,167.250 117.774,167.411 117.304 C 167.573 116.835,167.968 116.043,168.289 115.544 C 168.610 115.045,168.999 114.155,169.154 113.566 C 169.308 112.977,169.601 112.356,169.806 112.186 C 170.011 112.016,170.367 111.312,170.596 110.622 C 170.825 109.931,171.175 109.232,171.373 109.067 C 171.571 108.903,171.921 108.203,172.150 107.513 C 172.380 106.822,172.735 106.118,172.941 105.947 C 173.146 105.777,173.477 105.098,173.676 104.438 C 173.875 103.778,174.340 102.714,174.710 102.073 C 175.080 101.431,175.384 100.711,175.385 100.472 C 175.387 100.233,175.548 99.877,175.744 99.682 C 176.216 99.210,176.943 97.785,176.943 97.332 C 176.943 97.133,177.171 96.708,177.449 96.387 C 177.727 96.067,178.150 95.204,178.389 94.469 C 178.628 93.735,178.965 92.960,179.138 92.746 C 179.311 92.532,179.656 91.833,179.904 91.192 C 180.152 90.551,180.501 89.851,180.681 89.637 C 180.861 89.424,181.210 88.724,181.458 88.083 C 181.706 87.442,182.062 86.742,182.249 86.528 C 182.436 86.315,182.779 85.572,183.012 84.877 C 183.245 84.183,183.723 83.124,184.075 82.523 C 184.427 81.923,184.715 81.300,184.715 81.139 C 184.715 80.978,185.065 80.296,185.492 79.621 C 185.920 78.947,186.269 78.233,186.269 78.033 C 186.269 77.834,186.506 77.338,186.796 76.931 C 187.086 76.524,187.481 75.667,187.673 75.026 C 187.866 74.385,188.270 73.548,188.572 73.165 C 188.873 72.782,189.119 72.269,189.119 72.025 C 189.119 71.780,189.467 71.068,189.892 70.441 C 190.317 69.814,190.666 69.113,190.669 68.883 C 190.671 68.654,190.979 68.016,191.352 67.466 C 191.725 66.916,192.192 65.923,192.389 65.259 C 192.586 64.595,192.922 63.907,193.136 63.730 C 193.349 63.553,193.522 63.277,193.520 63.116 C 193.519 62.955,194.263 61.308,195.175 59.456 C 196.086 57.604,197.026 55.622,197.263 55.052 C 197.669 54.073,199.101 52.744,199.491 52.985 C 199.589 53.046,199.826 53.652,200.016 54.333 " stroke="none" fill="#673096" fill-rule="evenodd"></path><path id="path1" d="M0.000 129.534 L 0.000 259.067 200.000 259.067 L 400.000 259.067 400.000 129.534 L 400.000 0.000 200.000 0.000 L 0.000 0.000 0.000 129.534 M199.885 28.692 C 200.235 29.596,200.514 30.175,201.228 31.477 C 202.045 32.965,203.056 35.192,203.215 35.851 C 203.314 36.263,203.665 36.962,203.995 37.406 C 204.325 37.849,204.675 38.549,204.773 38.960 C 204.870 39.372,205.235 40.082,205.584 40.539 C 205.932 40.996,206.218 41.534,206.218 41.734 C 206.218 41.935,206.563 42.740,206.985 43.523 C 207.406 44.307,207.757 45.123,207.763 45.337 C 207.769 45.551,208.123 46.250,208.549 46.891 C 208.975 47.532,209.327 48.232,209.330 48.446 C 209.333 48.659,209.683 49.347,210.108 49.974 C 210.533 50.601,210.881 51.307,210.881 51.543 C 210.881 51.779,211.163 52.354,211.508 52.822 C 211.853 53.290,212.271 54.239,212.438 54.932 C 212.604 55.625,212.898 56.323,213.092 56.484 C 213.286 56.645,213.647 57.321,213.895 57.987 C 214.143 58.652,214.550 59.466,214.801 59.796 C 215.051 60.125,215.393 60.825,215.562 61.350 C 215.731 61.876,216.019 62.481,216.202 62.694 C 216.385 62.908,216.776 63.770,217.069 64.610 C 217.363 65.449,217.763 66.324,217.958 66.553 C 218.154 66.782,218.516 67.494,218.764 68.135 C 219.012 68.776,219.360 69.475,219.539 69.689 C 219.717 69.903,220.017 70.486,220.205 70.984 C 220.393 71.483,220.748 72.241,220.993 72.668 C 221.239 73.096,221.587 73.912,221.768 74.482 C 221.948 75.052,222.306 75.788,222.562 76.117 C 222.818 76.447,223.165 77.133,223.333 77.642 C 223.501 78.151,223.916 78.976,224.255 79.476 C 224.593 79.975,224.870 80.544,224.870 80.741 C 224.870 80.937,225.151 81.543,225.494 82.086 C 225.837 82.629,226.235 83.498,226.378 84.016 C 226.521 84.535,226.864 85.283,227.140 85.679 C 227.415 86.075,227.771 86.783,227.930 87.252 C 228.089 87.722,228.439 88.421,228.707 88.807 C 228.976 89.192,229.326 89.892,229.485 90.361 C 229.644 90.831,229.997 91.530,230.269 91.916 C 230.542 92.301,230.852 93.025,230.959 93.523 C 231.065 94.022,231.362 94.727,231.618 95.089 C 231.874 95.452,232.382 96.384,232.745 97.162 C 233.109 97.939,233.514 98.750,233.645 98.964 C 234.074 99.663,235.441 102.701,235.719 103.574 C 235.869 104.043,236.213 104.743,236.483 105.128 C 236.753 105.514,237.125 106.292,237.309 106.858 C 237.493 107.424,237.790 108.034,237.969 108.214 C 238.149 108.393,238.501 109.096,238.751 109.775 C 239.002 110.454,239.363 111.195,239.553 111.420 C 239.743 111.646,240.091 112.404,240.327 113.104 C 240.562 113.805,240.963 114.648,241.218 114.977 C 241.472 115.307,241.818 115.993,241.986 116.502 C 242.154 117.011,242.569 117.836,242.907 118.336 C 243.246 118.835,243.523 119.373,243.523 119.531 C 243.523 119.689,243.869 120.460,244.290 121.244 C 244.712 122.027,245.062 122.830,245.067 123.028 C 245.073 123.226,245.427 123.957,245.855 124.651 C 246.815 126.212,246.875 127.546,246.041 128.785 C 245.716 129.268,245.243 130.208,244.991 130.873 C 244.739 131.539,244.364 132.224,244.157 132.395 C 243.951 132.566,243.782 132.848,243.782 133.021 C 243.782 133.353,243.318 134.351,240.392 140.303 C 239.407 142.308,238.601 144.070,238.601 144.219 C 238.601 144.368,238.379 144.772,238.108 145.117 C 237.837 145.461,237.489 146.206,237.336 146.771 C 237.183 147.336,236.764 148.229,236.405 148.756 C 236.045 149.282,235.751 149.872,235.751 150.065 C 235.751 150.258,235.402 150.968,234.974 151.642 C 234.547 152.316,234.197 153.022,234.197 153.211 C 234.197 153.400,233.863 154.182,233.455 154.951 C 233.047 155.719,232.623 156.639,232.514 156.995 C 232.405 157.351,232.093 157.958,231.822 158.343 C 231.550 158.729,231.198 159.428,231.039 159.898 C 230.880 160.367,230.524 161.075,230.248 161.471 C 229.973 161.867,229.629 162.620,229.484 163.144 C 229.339 163.668,228.941 164.507,228.600 165.010 C 228.259 165.512,227.979 166.100,227.978 166.317 C 227.978 166.533,227.628 167.234,227.202 167.876 C 226.776 168.517,226.426 169.216,226.425 169.430 C 226.424 169.644,226.074 170.343,225.648 170.984 C 225.221 171.626,224.872 172.313,224.872 172.512 C 224.871 172.710,224.462 173.721,223.964 174.758 C 223.465 175.795,223.057 176.755,223.057 176.891 C 223.057 177.027,222.888 177.279,222.682 177.450 C 222.476 177.621,222.104 178.306,221.856 178.971 C 221.609 179.637,221.194 180.460,220.935 180.800 C 220.677 181.140,220.291 182.005,220.078 182.721 C 219.866 183.438,219.531 184.209,219.334 184.434 C 219.138 184.660,218.839 185.274,218.671 185.800 C 218.502 186.325,218.155 187.025,217.899 187.354 C 217.642 187.684,217.293 188.383,217.121 188.909 C 216.950 189.434,216.600 190.134,216.344 190.463 C 216.088 190.793,215.731 191.528,215.550 192.098 C 215.370 192.668,215.021 193.484,214.776 193.912 C 214.530 194.339,214.175 195.097,213.987 195.596 C 213.799 196.095,213.493 196.683,213.306 196.904 C 213.120 197.125,212.792 197.803,212.577 198.411 C 212.363 199.019,211.964 199.830,211.690 200.214 C 211.417 200.598,211.064 201.391,210.907 201.976 C 210.749 202.562,210.394 203.328,210.119 203.678 C 209.843 204.029,209.537 204.656,209.438 205.072 C 209.339 205.488,208.988 206.192,208.659 206.636 C 208.329 207.079,207.979 207.779,207.881 208.190 C 207.784 208.601,207.434 209.301,207.104 209.744 C 206.774 210.188,206.425 210.887,206.328 211.299 C 206.232 211.710,205.817 212.644,205.408 213.374 C 204.998 214.103,204.663 214.828,204.663 214.984 C 204.663 215.139,204.313 215.818,203.886 216.493 C 203.459 217.167,203.109 217.866,203.109 218.047 C 203.109 218.228,202.759 218.927,202.332 219.601 C 201.904 220.275,201.554 221.079,201.554 221.388 C 201.554 221.696,201.269 222.370,200.919 222.884 C 200.570 223.399,200.143 224.290,199.971 224.864 C 199.480 226.505,197.468 225.613,197.016 223.552 C 196.909 223.066,196.500 222.085,196.105 221.373 C 195.711 220.661,195.304 219.792,195.199 219.442 C 195.095 219.093,194.860 218.658,194.678 218.475 C 194.496 218.293,194.138 217.588,193.884 216.909 C 193.629 216.229,193.343 215.615,193.249 215.544 C 192.943 215.313,192.295 213.882,192.113 213.036 C 192.015 212.583,191.774 212.078,191.577 211.915 C 191.380 211.751,191.016 211.073,190.768 210.407 C 190.520 209.741,190.113 208.927,189.863 208.598 C 189.612 208.268,189.270 207.582,189.102 207.073 C 188.934 206.564,188.533 205.759,188.211 205.284 C 187.889 204.810,187.544 203.981,187.444 203.441 C 187.344 202.902,187.107 202.286,186.917 202.073 C 186.727 201.859,186.369 201.159,186.121 200.518 C 185.874 199.877,185.524 199.177,185.344 198.964 C 185.165 198.750,184.813 198.051,184.562 197.409 C 184.312 196.768,183.894 195.965,183.634 195.626 C 183.374 195.286,183.161 194.877,183.161 194.716 C 183.161 194.556,182.697 193.493,182.131 192.355 C 181.565 191.216,181.098 190.154,181.095 189.993 C 181.091 189.832,180.928 189.568,180.733 189.406 C 180.538 189.244,180.169 188.560,179.912 187.885 C 179.656 187.210,179.244 186.367,178.996 186.010 C 178.749 185.654,178.351 184.751,178.112 184.003 C 177.874 183.255,177.571 182.642,177.440 182.642 C 177.309 182.642,177.202 182.484,177.202 182.291 C 177.202 181.986,175.300 178.106,174.009 175.777 C 173.772 175.350,173.578 174.794,173.577 174.541 C 173.576 174.289,173.301 173.648,172.965 173.117 C 172.630 172.585,172.263 171.859,172.150 171.503 C 172.037 171.146,171.688 170.447,171.373 169.948 C 171.058 169.449,170.709 168.750,170.596 168.394 C 170.483 168.038,170.127 167.328,169.805 166.818 C 169.483 166.308,169.102 165.466,168.959 164.947 C 168.816 164.429,168.463 163.673,168.175 163.269 C 167.887 162.864,167.567 162.191,167.463 161.772 C 167.360 161.353,167.011 160.661,166.689 160.233 C 166.366 159.806,166.017 159.106,165.912 158.679 C 165.807 158.251,165.458 157.552,165.136 157.124 C 164.815 156.697,164.470 155.909,164.371 155.373 C 164.271 154.838,163.968 154.117,163.696 153.771 C 163.424 153.425,163.026 152.645,162.811 152.037 C 162.597 151.430,162.268 150.752,162.080 150.531 C 161.892 150.310,161.536 149.605,161.288 148.964 C 161.040 148.323,160.684 147.623,160.496 147.409 C 160.308 147.196,160.001 146.496,159.813 145.855 C 159.626 145.214,159.203 144.290,158.875 143.801 C 158.546 143.313,158.204 142.621,158.114 142.264 C 158.024 141.907,157.675 141.208,157.337 140.710 C 156.999 140.212,156.650 139.505,156.560 139.138 C 156.471 138.771,156.182 138.193,155.918 137.853 C 155.655 137.513,155.270 136.664,155.063 135.966 C 154.855 135.268,154.465 134.381,154.196 133.994 C 153.927 133.607,153.576 132.906,153.417 132.437 C 153.258 131.967,152.906 131.268,152.634 130.882 C 152.363 130.497,152.051 129.890,151.941 129.534 C 151.831 129.177,151.524 128.480,151.259 127.983 C 150.687 126.912,150.658 126.477,151.122 125.927 C 151.311 125.702,151.677 124.935,151.935 124.223 C 152.192 123.510,152.561 122.744,152.754 122.520 C 152.948 122.296,153.273 121.556,153.478 120.876 C 153.683 120.196,154.030 119.441,154.250 119.198 C 154.470 118.955,154.831 118.244,155.052 117.617 C 155.273 116.990,155.623 116.290,155.829 116.062 C 156.035 115.834,156.379 115.151,156.594 114.543 C 156.808 113.935,157.219 113.138,157.507 112.772 C 157.795 112.406,158.031 111.853,158.031 111.544 C 158.031 111.235,158.381 110.431,158.808 109.757 C 159.236 109.083,159.585 108.383,159.585 108.202 C 159.585 108.021,159.935 107.322,160.363 106.648 C 160.790 105.974,161.140 105.295,161.140 105.139 C 161.140 104.983,161.477 104.259,161.890 103.529 C 162.302 102.799,162.718 101.829,162.814 101.372 C 162.911 100.916,163.217 100.253,163.495 99.899 C 163.773 99.546,164.171 98.775,164.378 98.187 C 164.586 97.598,164.991 96.817,165.279 96.451 C 165.567 96.085,165.803 95.655,165.804 95.496 C 165.804 95.337,166.212 94.398,166.711 93.409 C 167.209 92.419,167.617 91.439,167.617 91.231 C 167.617 91.023,167.890 90.491,168.223 90.050 C 168.557 89.609,168.916 88.899,169.021 88.472 C 169.125 88.044,169.475 87.345,169.798 86.917 C 170.120 86.490,170.468 85.790,170.571 85.363 C 170.673 84.935,171.027 84.173,171.356 83.669 C 171.686 83.165,172.036 82.383,172.136 81.932 C 172.235 81.481,172.543 80.823,172.821 80.469 C 173.100 80.116,173.503 79.329,173.717 78.721 C 173.931 78.114,174.261 77.436,174.448 77.215 C 174.636 76.994,174.993 76.289,175.241 75.648 C 175.488 75.006,175.836 74.307,176.013 74.093 C 176.191 73.880,176.485 73.182,176.668 72.544 C 176.850 71.905,177.213 71.111,177.475 70.779 C 177.736 70.447,178.090 69.745,178.261 69.220 C 178.433 68.694,178.782 67.995,179.038 67.665 C 179.295 67.336,179.642 66.636,179.811 66.111 C 179.979 65.585,180.276 64.972,180.471 64.749 C 180.666 64.525,181.060 63.659,181.347 62.824 C 181.634 61.989,182.040 61.117,182.249 60.886 C 182.458 60.655,182.810 59.953,183.031 59.326 C 183.252 58.699,183.602 58.000,183.808 57.772 C 184.015 57.544,184.364 56.845,184.585 56.218 C 184.807 55.591,185.146 54.897,185.339 54.676 C 185.532 54.455,185.771 53.983,185.870 53.627 C 186.029 53.057,186.666 51.640,188.053 48.769 C 188.277 48.306,188.535 47.927,188.626 47.927 C 188.718 47.927,188.941 47.397,189.123 46.749 C 189.304 46.102,189.658 45.311,189.908 44.992 C 190.159 44.673,190.493 43.936,190.649 43.354 C 190.806 42.772,191.150 42.018,191.414 41.679 C 191.678 41.340,192.034 40.632,192.205 40.107 C 192.376 39.581,192.721 38.882,192.972 38.552 C 193.222 38.223,193.629 37.409,193.877 36.743 C 194.125 36.078,194.489 35.399,194.686 35.236 C 194.883 35.072,195.124 34.578,195.220 34.138 C 195.521 32.767,197.659 28.807,198.394 28.259 C 199.348 27.547,199.453 27.577,199.885 28.692 M198.502 53.445 C 198.057 53.759,197.499 54.482,197.263 55.052 C 197.026 55.622,196.086 57.604,195.175 59.456 C 194.263 61.308,193.519 62.955,193.520 63.116 C 193.522 63.277,193.349 63.553,193.136 63.730 C 192.922 63.907,192.586 64.595,192.389 65.259 C 192.192 65.923,191.725 66.916,191.352 67.466 C 190.979 68.016,190.671 68.654,190.669 68.883 C 190.666 69.113,190.317 69.814,189.892 70.441 C 189.467 71.068,189.119 71.780,189.119 72.025 C 189.119 72.269,188.873 72.782,188.572 73.165 C 188.270 73.548,187.866 74.385,187.673 75.026 C 187.481 75.667,187.086 76.524,186.796 76.931 C 186.506 77.338,186.269 77.834,186.269 78.033 C 186.269 78.233,185.920 78.947,185.492 79.621 C 185.065 80.296,184.715 80.978,184.715 81.139 C 184.715 81.300,184.427 81.923,184.075 82.523 C 183.723 83.124,183.245 84.183,183.012 84.877 C 182.779 85.572,182.436 86.315,182.249 86.528 C 182.062 86.742,181.706 87.442,181.458 88.083 C 181.210 88.724,180.861 89.424,180.681 89.637 C 180.501 89.851,180.152 90.551,179.904 91.192 C 179.656 91.833,179.311 92.532,179.138 92.746 C 178.965 92.960,178.628 93.735,178.389 94.469 C 178.150 95.204,177.727 96.067,177.449 96.387 C 177.171 96.708,176.943 97.133,176.943 97.332 C 176.943 97.785,176.216 99.210,175.744 99.682 C 175.548 99.877,175.387 100.233,175.385 100.472 C 175.384 100.711,175.080 101.431,174.710 102.073 C 174.340 102.714,173.875 103.778,173.676 104.438 C 173.477 105.098,173.146 105.777,172.941 105.947 C 172.735 106.118,172.380 106.822,172.150 107.513 C 171.921 108.203,171.571 108.903,171.373 109.067 C 171.175 109.232,170.825 109.931,170.596 110.622 C 170.367 111.312,170.011 112.016,169.806 112.186 C 169.601 112.356,169.308 112.977,169.154 113.566 C 168.999 114.155,168.610 115.045,168.289 115.544 C 167.968 116.043,167.573 116.835,167.411 117.304 C 167.250 117.774,166.898 118.473,166.629 118.859 C 166.361 119.244,166.011 119.944,165.852 120.413 C 165.693 120.882,165.340 121.582,165.068 121.967 C 164.795 122.353,164.484 123.076,164.376 123.575 C 164.268 124.074,163.903 124.888,163.566 125.384 C 162.773 126.552,162.798 127.055,163.731 128.627 C 164.153 129.339,164.501 130.076,164.503 130.263 C 164.506 130.451,164.790 130.976,165.135 131.429 C 165.480 131.883,165.849 132.600,165.955 133.023 C 166.061 133.447,166.357 134.148,166.613 134.583 C 166.870 135.018,167.262 135.890,167.484 136.521 C 167.707 137.152,168.058 137.855,168.264 138.083 C 168.470 138.311,168.820 139.010,169.041 139.637 C 169.263 140.264,169.624 140.976,169.843 141.219 C 170.063 141.462,170.406 142.202,170.605 142.864 C 170.804 143.526,171.197 144.389,171.477 144.782 C 171.757 145.176,172.071 145.841,172.174 146.259 C 172.277 146.678,172.626 147.370,172.948 147.798 C 173.271 148.225,173.620 148.917,173.724 149.335 C 173.829 149.753,174.191 150.502,174.528 151.000 C 174.866 151.498,175.211 152.205,175.295 152.572 C 175.431 153.166,178.891 160.448,180.858 164.282 C 181.270 165.083,181.606 165.865,181.606 166.019 C 181.606 166.172,181.901 166.732,182.260 167.262 C 182.620 167.793,182.988 168.519,183.078 168.876 C 183.167 169.233,183.496 169.901,183.808 170.361 C 184.120 170.821,184.526 171.733,184.709 172.386 C 184.892 173.040,185.134 173.575,185.248 173.575 C 185.362 173.575,185.701 174.233,186.002 175.037 C 186.303 175.841,186.777 176.789,187.057 177.144 C 187.336 177.499,187.565 177.990,187.565 178.234 C 187.565 178.479,187.912 179.192,188.337 179.819 C 188.762 180.446,189.112 181.133,189.114 181.347 C 189.119 181.711,190.289 184.296,191.108 185.751 C 191.308 186.108,191.657 186.807,191.882 187.306 C 192.107 187.804,192.457 188.504,192.659 188.860 C 192.861 189.216,193.207 189.916,193.427 190.415 C 193.830 191.327,194.905 193.653,195.702 195.337 C 195.938 195.835,196.290 196.535,196.484 196.891 C 196.679 197.247,197.021 197.971,197.244 198.499 C 198.040 200.385,199.753 200.654,200.094 198.946 C 200.180 198.515,200.529 197.789,200.869 197.333 C 201.208 196.876,201.566 196.166,201.664 195.755 C 201.761 195.343,202.126 194.633,202.475 194.176 C 202.824 193.719,203.109 193.168,203.109 192.952 C 203.109 192.737,203.459 191.905,203.886 191.104 C 204.313 190.302,204.664 189.499,204.664 189.318 C 204.665 189.138,205.014 188.465,205.440 187.824 C 205.867 187.183,206.216 186.483,206.218 186.269 C 206.219 186.056,206.569 185.356,206.995 184.715 C 207.421 184.074,207.770 183.394,207.771 183.203 C 207.772 183.013,208.180 182.029,208.679 181.017 C 209.177 180.004,209.585 179.038,209.585 178.869 C 209.585 178.699,209.754 178.421,209.960 178.250 C 210.167 178.078,210.538 177.394,210.786 176.728 C 211.034 176.063,211.448 175.240,211.707 174.900 C 211.966 174.559,212.351 173.695,212.564 172.978 C 212.777 172.262,213.108 171.491,213.301 171.265 C 213.493 171.040,213.853 170.330,214.101 169.689 C 214.349 169.048,214.698 168.348,214.878 168.135 C 215.058 167.921,215.407 167.222,215.655 166.580 C 215.903 165.939,216.259 165.240,216.447 165.026 C 216.635 164.812,216.936 164.113,217.118 163.472 C 217.299 162.830,217.582 162.131,217.746 161.917 C 218.313 161.180,223.575 150.239,223.575 149.796 C 223.575 149.662,223.791 149.274,224.056 148.934 C 224.320 148.594,224.676 147.886,224.848 147.361 C 225.019 146.835,225.374 146.132,225.637 145.797 C 225.901 145.463,226.244 144.713,226.401 144.131 C 226.557 143.549,226.911 142.786,227.187 142.436 C 227.463 142.085,227.769 141.458,227.868 141.042 C 227.966 140.626,228.317 139.922,228.647 139.478 C 228.977 139.035,229.327 138.335,229.424 137.924 C 229.522 137.513,229.872 136.813,230.202 136.370 C 230.531 135.926,230.882 135.227,230.981 134.815 C 231.079 134.404,231.493 133.426,231.901 132.642 C 232.308 131.859,232.642 131.101,232.643 130.959 C 232.644 130.816,232.993 130.175,233.420 129.534 C 234.505 127.900,234.505 126.040,233.420 124.005 C 232.992 123.204,232.640 122.401,232.638 122.220 C 232.635 122.039,232.285 121.378,231.861 120.751 C 231.436 120.124,231.088 119.418,231.088 119.182 C 231.088 118.946,230.794 118.355,230.435 117.868 C 230.075 117.381,229.656 116.517,229.503 115.949 C 229.350 115.380,229.003 114.633,228.732 114.289 C 228.462 113.945,228.113 113.191,227.958 112.614 C 227.802 112.036,227.409 111.206,227.084 110.769 C 226.759 110.332,226.413 109.638,226.316 109.226 C 226.218 108.815,225.853 108.104,225.504 107.647 C 225.156 107.190,224.870 106.662,224.870 106.473 C 224.870 106.284,224.530 105.420,224.114 104.554 C 223.698 103.688,223.175 102.571,222.953 102.073 C 222.731 101.574,222.430 100.991,222.285 100.777 C 222.139 100.563,221.789 99.864,221.506 99.223 C 221.223 98.582,220.877 97.882,220.738 97.668 C 220.600 97.455,220.005 96.231,219.417 94.948 C 218.829 93.666,217.376 90.635,216.187 88.212 C 214.999 85.790,213.946 83.517,213.848 83.161 C 213.750 82.804,213.511 82.332,213.318 82.111 C 213.125 81.891,212.792 81.213,212.577 80.605 C 212.363 79.997,211.969 79.187,211.703 78.804 C 211.437 78.422,211.089 77.725,210.930 77.255 C 210.771 76.786,210.418 76.087,210.145 75.701 C 209.873 75.315,209.569 74.625,209.469 74.167 C 209.370 73.708,209.031 72.951,208.716 72.483 C 208.401 72.015,207.937 71.088,207.685 70.422 C 207.433 69.756,207.058 69.072,206.852 68.901 C 206.645 68.729,206.477 68.451,206.477 68.282 C 206.477 68.114,206.069 67.166,205.571 66.177 C 205.072 65.188,204.664 64.203,204.663 63.990 C 204.662 63.776,204.312 63.076,203.886 62.435 C 203.460 61.794,203.110 61.095,203.109 60.881 C 203.108 60.667,202.758 59.968,202.332 59.326 C 201.905 58.685,201.556 57.973,201.556 57.743 C 201.555 57.514,201.286 56.931,200.959 56.448 C 200.631 55.965,200.207 55.013,200.016 54.333 C 199.585 52.792,199.499 52.741,198.502 53.445 " stroke="none" fill="#fcfcfc" fill-rule="evenodd"></path></g></svg>