<svg id="svg" version="1.1" xmlns="http://www.w3.org/2000/svg" xmlns:xlink="http://www.w3.org/1999/xlink" width="400" height="258.91472868217056" viewBox="0, 0, 400,258.91472868217056"><g id="svgg"><path id="path0" d="M198.251 32.672 C 197.788 32.969,197.409 33.419,197.409 33.673 C 197.409 34.202,196.668 36.076,196.382 36.269 C 196.277 36.341,195.989 37.010,195.743 37.758 C 195.497 38.505,195.147 39.204,194.965 39.312 C 194.783 39.420,194.433 40.119,194.188 40.866 C 193.943 41.614,193.593 42.313,193.411 42.421 C 193.229 42.528,192.821 43.403,192.504 44.365 C 192.186 45.327,191.835 46.114,191.723 46.114 C 191.612 46.114,191.265 46.813,190.953 47.668 C 190.642 48.523,190.292 49.223,190.176 49.223 C 190.060 49.223,189.711 49.922,189.399 50.777 C 189.087 51.632,188.731 52.332,188.608 52.332 C 188.485 52.332,188.183 52.944,187.938 53.692 C 187.693 54.440,187.290 55.343,187.042 55.699 C 186.795 56.056,186.510 56.729,186.409 57.195 C 186.308 57.662,185.959 58.361,185.633 58.750 C 185.308 59.138,184.958 59.838,184.856 60.304 C 184.754 60.771,184.405 61.470,184.079 61.859 C 183.753 62.247,183.401 62.973,183.295 63.472 C 183.190 63.970,182.843 64.728,182.524 65.155 C 182.205 65.583,181.866 66.351,181.771 66.863 C 181.676 67.374,181.322 68.052,180.985 68.369 C 180.648 68.686,180.302 69.381,180.217 69.915 C 180.131 70.448,179.782 71.148,179.440 71.469 C 179.096 71.792,178.747 72.493,178.661 73.035 C 178.574 73.574,178.286 74.295,178.021 74.637 C 177.755 74.979,177.333 75.879,177.084 76.638 C 176.834 77.396,176.480 78.074,176.297 78.144 C 176.114 78.214,175.822 78.780,175.648 79.403 C 175.474 80.025,175.137 80.746,174.898 81.005 C 174.660 81.264,174.262 82.112,174.013 82.889 C 173.764 83.666,173.407 84.482,173.219 84.703 C 173.032 84.923,172.676 85.628,172.428 86.269 C 172.180 86.911,171.830 87.610,171.651 87.824 C 171.471 88.038,171.121 88.737,170.873 89.378 C 170.626 90.019,170.270 90.719,170.083 90.933 C 169.896 91.146,169.548 91.904,169.309 92.617 C 169.070 93.329,168.723 94.087,168.538 94.301 C 168.353 94.514,168.005 95.292,167.765 96.029 C 167.525 96.766,167.167 97.504,166.969 97.668 C 166.771 97.833,166.421 98.532,166.192 99.223 C 165.962 99.913,165.605 100.619,165.398 100.791 C 165.190 100.963,164.836 101.738,164.611 102.512 C 164.386 103.287,164.051 103.978,163.866 104.049 C 163.681 104.120,163.386 104.692,163.210 105.320 C 163.034 105.948,162.613 106.837,162.274 107.297 C 161.935 107.756,161.658 108.326,161.658 108.563 C 161.658 108.801,161.354 109.443,160.982 109.991 C 160.610 110.539,160.152 111.499,159.964 112.125 C 159.775 112.750,159.449 113.454,159.239 113.690 C 159.029 113.926,158.723 114.621,158.560 115.234 C 158.396 115.847,158.042 116.569,157.772 116.839 C 157.502 117.109,157.152 117.809,156.995 118.394 C 156.837 118.979,156.493 119.673,156.230 119.936 C 155.967 120.199,155.564 121.060,155.334 121.849 C 155.105 122.639,154.765 123.437,154.579 123.624 C 153.190 125.022,153.246 128.894,154.677 130.325 C 154.949 130.597,155.304 131.346,155.466 131.990 C 155.628 132.634,155.861 133.161,155.983 133.161 C 156.322 133.161,156.995 134.609,156.995 135.340 C 156.995 135.697,157.217 136.199,157.488 136.454 C 157.760 136.709,158.179 137.521,158.419 138.259 C 158.659 138.996,159.000 139.656,159.177 139.724 C 159.354 139.791,159.704 140.499,159.955 141.297 C 160.206 142.094,160.515 142.746,160.642 142.746 C 160.917 142.746,161.658 144.434,161.658 145.059 C 161.658 145.299,161.949 145.890,162.306 146.373 C 162.662 146.856,162.953 147.444,162.953 147.680 C 162.953 147.916,163.301 148.622,163.726 149.249 C 164.151 149.876,164.500 150.576,164.503 150.806 C 164.506 151.035,164.813 151.673,165.186 152.223 C 165.560 152.773,166.037 153.809,166.247 154.526 C 166.457 155.243,166.827 156.062,167.070 156.347 C 167.312 156.632,167.665 157.332,167.854 157.902 C 168.042 158.472,168.392 159.171,168.631 159.456 C 168.870 159.741,169.220 160.440,169.409 161.010 C 169.598 161.580,169.898 162.222,170.076 162.435 C 170.254 162.649,170.606 163.465,170.859 164.249 C 171.112 165.032,171.467 165.762,171.649 165.869 C 171.831 165.977,172.181 166.677,172.426 167.424 C 172.672 168.171,173.022 168.870,173.204 168.978 C 173.386 169.086,173.733 169.785,173.976 170.533 C 174.219 171.280,174.626 172.124,174.882 172.409 C 175.138 172.694,175.427 173.361,175.524 173.890 C 175.622 174.420,175.981 175.178,176.322 175.574 C 176.664 175.971,177.013 176.670,177.100 177.129 C 177.186 177.587,177.532 178.283,177.869 178.674 C 178.205 179.066,178.554 179.741,178.642 180.173 C 178.731 180.605,179.067 181.367,179.388 181.865 C 179.709 182.364,180.050 183.193,180.146 183.708 C 180.242 184.223,180.556 184.856,180.842 185.116 C 181.129 185.375,181.489 186.083,181.641 186.690 C 181.794 187.296,182.140 187.992,182.411 188.238 C 182.682 188.483,183.030 189.152,183.184 189.725 C 183.339 190.299,183.732 191.125,184.058 191.562 C 184.384 192.000,184.728 192.791,184.823 193.321 C 184.917 193.852,185.266 194.609,185.599 195.005 C 185.931 195.401,186.284 196.099,186.383 196.555 C 186.483 197.012,186.792 197.674,187.070 198.028 C 187.348 198.382,187.751 199.168,187.966 199.776 C 188.180 200.384,188.517 201.062,188.714 201.282 C 188.911 201.503,189.263 202.344,189.496 203.150 C 189.729 203.957,190.084 204.680,190.286 204.757 C 190.487 204.834,190.837 205.534,191.063 206.312 C 191.289 207.089,191.637 207.788,191.837 207.865 C 192.037 207.941,192.376 208.596,192.590 209.319 C 192.805 210.043,193.160 210.814,193.379 211.033 C 193.598 211.252,193.961 212.065,194.187 212.840 C 194.412 213.615,194.683 214.249,194.789 214.249 C 195.028 214.249,195.855 215.949,195.855 216.441 C 195.855 216.640,196.015 216.962,196.210 217.157 C 196.692 217.639,197.409 219.058,197.409 219.528 C 197.409 219.739,197.798 220.324,198.273 220.827 C 199.210 221.821,199.741 221.712,199.741 220.527 C 199.741 219.865,200.160 218.939,200.648 218.523 C 200.815 218.381,201.092 217.769,201.263 217.164 C 201.435 216.559,201.782 215.859,202.036 215.609 C 202.289 215.360,202.639 214.660,202.813 214.055 C 202.987 213.450,203.341 212.750,203.599 212.501 C 203.857 212.251,204.211 211.464,204.384 210.751 C 204.558 210.039,204.911 209.223,205.168 208.938 C 205.425 208.653,205.781 207.953,205.959 207.383 C 206.136 206.813,206.486 206.114,206.736 205.829 C 206.986 205.544,207.335 204.845,207.513 204.275 C 207.691 203.705,208.033 203.005,208.274 202.720 C 208.514 202.435,208.910 201.544,209.153 200.741 C 209.396 199.937,209.761 199.141,209.964 198.972 C 210.168 198.803,210.522 198.100,210.751 197.409 C 210.981 196.719,211.331 196.019,211.529 195.854 C 211.728 195.689,212.029 195.127,212.199 194.604 C 212.368 194.081,212.725 193.342,212.991 192.962 C 213.258 192.582,213.549 191.883,213.638 191.408 C 213.727 190.933,214.070 190.181,214.399 189.737 C 214.729 189.294,215.078 188.594,215.176 188.183 C 215.273 187.772,215.623 187.072,215.953 186.629 C 216.283 186.185,216.632 185.486,216.730 185.074 C 216.828 184.663,217.175 183.967,217.501 183.528 C 217.828 183.089,218.177 182.293,218.277 181.761 C 218.377 181.228,218.720 180.480,219.040 180.098 C 219.360 179.716,219.705 179.022,219.807 178.556 C 219.909 178.089,220.259 177.390,220.584 177.002 C 220.910 176.613,221.260 175.914,221.361 175.447 C 221.463 174.981,221.818 174.276,222.150 173.881 C 222.483 173.486,222.837 172.702,222.938 172.139 C 223.039 171.575,223.386 170.759,223.710 170.324 C 224.034 169.890,224.411 169.132,224.547 168.640 C 224.684 168.148,225.104 167.293,225.480 166.738 C 225.857 166.184,226.166 165.530,226.166 165.284 C 226.166 165.038,226.412 164.523,226.713 164.141 C 227.015 163.758,227.410 162.950,227.592 162.346 C 227.773 161.741,228.227 160.798,228.598 160.250 C 228.970 159.702,229.277 159.066,229.279 158.837 C 229.282 158.607,229.632 157.907,230.057 157.280 C 230.481 156.653,230.831 155.953,230.834 155.725 C 230.836 155.497,231.186 154.798,231.611 154.171 C 232.036 153.544,232.386 152.728,232.388 152.357 C 232.391 151.987,232.740 151.171,233.165 150.544 C 233.590 149.917,233.940 149.217,233.943 148.990 C 233.945 148.762,234.295 148.062,234.720 147.435 C 235.145 146.808,235.494 146.109,235.497 145.881 C 235.500 145.653,235.849 144.953,236.274 144.326 C 236.699 143.699,237.047 142.921,237.047 142.597 C 237.047 142.274,237.338 141.662,237.694 141.239 C 238.051 140.816,238.342 140.253,238.343 139.989 C 238.343 139.724,238.575 139.158,238.857 138.731 C 239.707 137.445,239.820 137.219,240.155 136.140 C 240.332 135.570,240.681 134.870,240.932 134.585 C 241.182 134.301,241.466 133.624,241.563 133.081 C 241.660 132.539,241.940 131.894,242.185 131.649 C 242.431 131.403,242.847 130.623,243.109 129.914 C 243.372 129.206,243.738 128.505,243.922 128.355 C 244.461 127.918,244.664 126.307,244.233 125.876 C 243.704 125.347,243.362 124.613,243.167 123.588 C 243.074 123.096,242.780 122.455,242.515 122.163 C 242.250 121.871,241.887 121.166,241.710 120.596 C 241.532 120.026,241.183 119.326,240.933 119.041 C 240.683 118.756,240.333 118.057,240.155 117.487 C 239.978 116.917,239.625 116.218,239.371 115.933 C 239.117 115.648,238.728 114.798,238.507 114.045 C 238.286 113.291,237.867 112.372,237.576 112.002 C 237.285 111.632,237.047 111.129,237.047 110.885 C 237.047 110.641,236.699 109.928,236.274 109.301 C 235.849 108.674,235.500 107.973,235.497 107.743 C 235.494 107.514,235.188 106.878,234.816 106.330 C 234.444 105.782,233.990 104.757,233.808 104.053 C 233.625 103.348,233.296 102.672,233.076 102.549 C 232.857 102.426,232.495 101.698,232.272 100.932 C 232.049 100.165,231.695 99.472,231.484 99.391 C 231.273 99.310,230.968 98.717,230.806 98.074 C 230.644 97.430,230.250 96.622,229.931 96.277 C 229.611 95.932,229.276 95.191,229.187 94.631 C 229.097 94.070,228.788 93.340,228.500 93.009 C 228.213 92.677,227.862 91.976,227.720 91.451 C 227.579 90.926,227.229 90.226,226.943 89.896 C 226.657 89.567,226.304 88.854,226.158 88.313 C 226.012 87.772,225.740 87.176,225.552 86.988 C 225.056 86.492,224.707 85.739,224.522 84.768 C 224.433 84.298,224.083 83.540,223.743 83.084 C 223.403 82.627,223.045 81.917,222.948 81.506 C 222.850 81.095,222.500 80.395,222.170 79.952 C 221.841 79.508,221.491 78.809,221.393 78.397 C 221.296 77.986,220.945 77.286,220.614 76.843 C 220.283 76.399,219.937 75.611,219.844 75.091 C 219.751 74.571,219.443 73.850,219.159 73.489 C 218.874 73.127,218.466 72.334,218.252 71.727 C 218.037 71.119,217.693 70.435,217.487 70.207 C 217.281 69.979,216.941 69.308,216.732 68.714 C 216.522 68.121,216.122 67.311,215.842 66.914 C 215.562 66.517,215.259 65.755,215.168 65.221 C 215.077 64.687,214.729 63.955,214.394 63.593 C 214.059 63.232,213.708 62.526,213.614 62.024 C 213.520 61.522,213.223 60.891,212.954 60.622 C 212.685 60.353,212.315 59.634,212.132 59.024 C 211.950 58.413,211.595 57.709,211.345 57.459 C 211.095 57.209,210.759 56.481,210.598 55.842 C 210.437 55.202,210.150 54.550,209.960 54.392 C 209.769 54.234,209.426 53.540,209.197 52.850 C 208.968 52.159,208.618 51.460,208.420 51.295 C 208.222 51.131,207.872 50.431,207.642 49.741 C 207.413 49.050,207.056 48.345,206.848 48.173 C 206.641 48.000,206.285 47.205,206.056 46.404 C 205.828 45.603,205.435 44.715,205.184 44.430 C 204.933 44.145,204.582 43.446,204.404 42.876 C 204.227 42.306,203.877 41.606,203.627 41.321 C 203.377 41.036,203.027 40.337,202.850 39.767 C 202.672 39.197,202.318 38.497,202.063 38.212 C 201.808 37.927,201.406 37.024,201.170 36.205 C 200.934 35.385,200.641 34.715,200.521 34.715 C 200.400 34.715,200.107 34.132,199.870 33.420 C 199.380 31.944,199.385 31.946,198.251 32.672 M200.253 50.236 C 200.394 50.759,200.740 51.436,201.023 51.740 C 201.306 52.043,201.670 52.819,201.832 53.464 C 201.995 54.109,202.407 55.015,202.748 55.478 C 203.089 55.940,203.368 56.509,203.368 56.742 C 203.368 56.975,203.726 57.706,204.165 58.368 C 205.009 59.642,205.011 60.427,204.172 61.066 C 203.605 61.498,194.598 61.523,193.659 61.095 C 192.829 60.717,192.582 59.825,193.086 59.027 C 193.297 58.693,193.555 58.128,193.660 57.772 C 193.765 57.416,194.079 56.800,194.357 56.404 C 194.636 56.009,194.983 55.256,195.127 54.733 C 195.272 54.210,195.669 53.415,196.011 52.967 C 196.353 52.520,196.633 51.931,196.633 51.659 C 196.638 49.268,199.671 48.075,200.253 50.236 M208.372 67.631 C 208.918 68.212,209.518 69.207,209.713 69.856 C 209.908 70.501,210.256 71.169,210.488 71.338 C 210.720 71.508,211.026 72.168,211.168 72.805 C 211.310 73.442,211.698 74.372,212.030 74.870 C 212.363 75.369,212.715 76.127,212.813 76.554 C 212.911 76.982,213.201 77.565,213.457 77.850 C 214.184 78.660,214.351 79.768,213.833 80.341 C 213.214 81.025,184.711 81.109,183.742 80.429 L 183.171 80.030 183.684 79.073 C 183.966 78.547,184.197 77.927,184.197 77.695 C 184.197 77.464,184.501 76.826,184.873 76.278 C 185.245 75.730,185.703 74.770,185.891 74.145 C 186.080 73.520,186.396 72.815,186.595 72.579 C 186.794 72.343,187.107 71.627,187.290 70.988 C 187.473 70.348,187.901 69.494,188.241 69.089 C 188.582 68.685,188.860 68.214,188.860 68.043 C 188.860 67.872,189.042 67.473,189.263 67.156 L 189.667 66.580 198.525 66.581 L 207.383 66.581 208.372 67.631 M217.878 87.276 C 218.404 87.830,218.909 88.652,218.999 89.102 C 219.089 89.552,219.444 90.294,219.787 90.750 C 220.130 91.207,220.490 92.065,220.587 92.658 C 220.684 93.251,220.988 93.940,221.263 94.189 C 221.539 94.438,221.891 95.116,222.047 95.695 C 222.203 96.274,222.611 97.080,222.953 97.487 C 223.683 98.354,223.716 98.648,223.172 99.424 L 222.769 100.000 198.949 100.000 C 175.475 100.000,175.122 99.992,174.611 99.482 C 174.076 98.947,173.912 98.187,174.332 98.187 C 174.463 98.187,174.653 97.809,174.754 97.348 C 174.925 96.573,175.541 95.383,175.931 95.078 C 176.022 95.006,176.177 94.657,176.275 94.301 C 176.577 93.213,177.270 91.710,177.470 91.710 C 177.574 91.710,177.784 91.214,177.937 90.609 C 178.090 90.003,178.512 89.106,178.874 88.615 C 179.237 88.125,179.534 87.609,179.534 87.470 C 179.534 86.242,179.099 86.269,198.655 86.269 L 216.920 86.269 217.878 87.276 M226.822 106.314 C 227.494 106.996,228.074 107.897,228.277 108.575 C 228.462 109.195,228.815 109.903,229.059 110.147 C 229.304 110.392,229.647 111.094,229.823 111.708 C 229.998 112.322,230.293 113.004,230.478 113.225 C 230.664 113.446,230.991 114.124,231.205 114.732 C 231.420 115.340,231.833 116.139,232.123 116.508 C 232.683 117.220,232.623 118.832,232.022 119.232 C 231.577 119.528,166.731 119.475,165.950 119.177 C 164.938 118.793,165.275 115.584,166.423 114.665 C 166.620 114.507,166.986 113.737,167.237 112.953 C 167.488 112.170,167.807 111.454,167.946 111.364 C 168.085 111.273,168.418 110.574,168.686 109.809 C 168.954 109.045,169.325 108.303,169.511 108.161 C 169.697 108.018,170.032 107.435,170.255 106.865 C 170.933 105.133,169.562 105.212,199.057 105.196 L 225.705 105.181 226.822 106.314 M235.959 125.293 C 236.909 126.404,236.960 126.541,236.653 127.171 C 236.470 127.544,236.179 128.316,236.005 128.886 C 235.831 129.456,235.494 130.155,235.255 130.440 C 235.016 130.725,234.667 131.425,234.478 131.995 C 234.289 132.565,233.928 133.264,233.676 133.549 C 233.423 133.834,233.132 134.475,233.028 134.974 C 232.795 136.093,232.338 136.997,231.618 137.759 L 231.068 138.342 198.759 138.338 C 180.990 138.336,166.328 138.248,166.177 138.144 C 166.026 138.039,165.745 137.545,165.551 137.047 C 165.358 136.548,165.052 135.965,164.872 135.751 C 164.692 135.538,164.350 134.780,164.112 134.067 C 163.873 133.355,163.470 132.539,163.214 132.254 C 162.959 131.969,162.669 131.354,162.571 130.888 C 162.472 130.421,162.103 129.697,161.751 129.279 C 160.918 128.288,160.756 125.923,161.472 125.204 C 162.550 124.122,162.166 124.133,199.267 124.113 L 234.934 124.093 235.959 125.293 M227.850 144.467 C 228.351 144.968,228.187 145.971,227.474 146.762 C 227.217 147.047,226.862 147.746,226.684 148.316 C 226.506 148.886,226.157 149.585,225.907 149.870 C 225.657 150.155,225.307 150.855,225.130 151.425 C 224.952 151.995,224.590 152.700,224.324 152.992 C 224.059 153.284,223.773 153.866,223.688 154.287 C 223.177 156.821,224.058 156.736,198.377 156.736 L 175.895 156.736 174.768 155.697 C 173.923 154.918,173.599 154.398,173.475 153.620 C 173.383 153.050,173.091 152.366,172.825 152.100 C 172.560 151.834,172.144 151.020,171.902 150.292 C 171.660 149.563,171.314 148.879,171.134 148.771 C 170.954 148.663,170.614 148.002,170.378 147.301 C 170.143 146.601,169.781 145.840,169.574 145.611 C 169.156 145.150,169.299 144.792,170.078 144.351 C 171.022 143.816,227.312 143.929,227.850 144.467 M218.660 161.871 C 219.433 162.497,219.208 164.894,218.271 166.007 C 217.939 166.401,217.540 167.198,217.384 167.777 C 217.228 168.356,216.879 169.030,216.608 169.275 C 216.337 169.520,215.984 170.246,215.822 170.887 C 215.266 173.097,215.687 173.045,198.469 173.051 L 183.596 173.057 182.506 171.870 C 181.907 171.217,181.273 170.197,181.098 169.603 C 180.923 169.009,180.572 168.290,180.318 168.005 C 180.064 167.720,179.711 167.021,179.533 166.451 C 179.355 165.881,179.020 165.198,178.788 164.934 C 178.271 164.343,178.231 162.421,178.723 161.827 C 179.300 161.133,217.800 161.175,218.660 161.871 M210.853 178.728 C 211.411 179.286,211.185 181.545,210.535 181.909 C 210.348 182.013,210.049 182.600,209.870 183.213 C 209.691 183.825,209.381 184.618,209.180 184.974 C 208.980 185.330,208.526 186.230,208.171 186.973 C 207.062 189.301,206.752 189.378,198.490 189.378 L 191.519 189.378 190.349 188.208 C 189.557 187.417,189.087 186.673,188.895 185.913 C 188.739 185.294,188.433 184.639,188.215 184.458 C 187.997 184.277,187.628 183.475,187.396 182.675 C 187.163 181.875,186.826 181.104,186.646 180.960 C 186.077 180.508,185.932 179.131,186.404 178.659 C 187.103 177.960,210.150 178.025,210.853 178.728 M202.967 194.342 C 203.943 194.787,203.691 197.457,202.573 198.511 C 202.309 198.761,201.960 199.461,201.798 200.066 C 201.636 200.671,201.288 201.369,201.023 201.618 C 200.758 201.867,200.463 202.508,200.366 203.043 C 199.857 205.864,197.655 205.314,196.731 202.135 C 196.500 201.339,196.089 200.451,195.819 200.161 C 195.549 199.871,195.205 199.178,195.055 198.621 C 194.905 198.064,194.557 197.366,194.282 197.071 C 193.717 196.464,193.604 194.841,194.093 194.352 C 194.514 193.932,202.048 193.923,202.967 194.342 " stroke="none" fill="#683196" fill-rule="evenodd"></path><path id="path1" d="M0.000 129.534 L 0.000 259.067 200.000 259.067 L 400.000 259.067 400.000 129.534 L 400.000 0.000 200.000 0.000 L 0.000 0.000 0.000 129.534 M199.870 33.420 C 200.107 34.132,200.400 34.715,200.521 34.715 C 200.641 34.715,200.934 35.385,201.170 36.205 C 201.406 37.024,201.808 37.927,202.063 38.212 C 202.318 38.497,202.672 39.197,202.850 39.767 C 203.027 40.337,203.377 41.036,203.627 41.321 C 203.877 41.606,204.227 42.306,204.404 42.876 C 204.582 43.446,204.933 44.145,205.184 44.430 C 205.435 44.715,205.828 45.603,206.056 46.404 C 206.285 47.205,206.641 48.000,206.848 48.173 C 207.056 48.345,207.413 49.050,207.642 49.741 C 207.872 50.431,208.222 51.131,208.420 51.295 C 208.618 51.460,208.968 52.159,209.197 52.850 C 209.426 53.540,209.769 54.234,209.960 54.392 C 210.150 54.550,210.437 55.202,210.598 55.842 C 210.759 56.481,211.095 57.209,211.345 57.459 C 211.595 57.709,211.950 58.413,212.132 59.024 C 212.315 59.634,212.685 60.353,212.954 60.622 C 213.223 60.891,213.520 61.522,213.614 62.024 C 213.708 62.526,214.059 63.232,214.394 63.593 C 214.729 63.955,215.077 64.687,215.168 65.221 C 215.259 65.755,215.562 66.517,215.842 66.914 C 216.122 67.311,216.522 68.121,216.732 68.714 C 216.941 69.308,217.281 69.979,217.487 70.207 C 217.693 70.435,218.037 71.119,218.252 71.727 C 218.466 72.334,218.874 73.127,219.159 73.489 C 219.443 73.850,219.751 74.571,219.844 75.091 C 219.937 75.611,220.283 76.399,220.614 76.843 C 220.945 77.286,221.296 77.986,221.393 78.397 C 221.491 78.809,221.841 79.508,222.170 79.952 C 222.500 80.395,222.850 81.095,222.948 81.506 C 223.045 81.917,223.403 82.627,223.743 83.084 C 224.083 83.540,224.433 84.298,224.522 84.768 C 224.707 85.739,225.056 86.492,225.552 86.988 C 225.740 87.176,226.012 87.772,226.158 88.313 C 226.304 88.854,226.657 89.567,226.943 89.896 C 227.229 90.226,227.579 90.926,227.720 91.451 C 227.862 91.976,228.213 92.677,228.500 93.009 C 228.788 93.340,229.097 94.070,229.187 94.631 C 229.276 95.191,229.611 95.932,229.931 96.277 C 230.250 96.622,230.644 97.430,230.806 98.074 C 230.968 98.717,231.273 99.310,231.484 99.391 C 231.695 99.472,232.049 100.165,232.272 100.932 C 232.495 101.698,232.857 102.426,233.076 102.549 C 233.296 102.672,233.625 103.348,233.808 104.053 C 233.990 104.757,234.444 105.782,234.816 106.330 C 235.188 106.878,235.494 107.514,235.497 107.743 C 235.500 107.973,235.849 108.674,236.274 109.301 C 236.699 109.928,237.047 110.641,237.047 110.885 C 237.047 111.129,237.285 111.632,237.576 112.002 C 237.867 112.372,238.286 113.291,238.507 114.045 C 238.728 114.798,239.117 115.648,239.371 115.933 C 239.625 116.218,239.978 116.917,240.155 117.487 C 240.333 118.057,240.683 118.756,240.933 119.041 C 241.183 119.326,241.532 120.026,241.710 120.596 C 241.887 121.166,242.250 121.871,242.515 122.163 C 242.780 122.455,243.074 123.096,243.167 123.588 C 243.362 124.613,243.704 125.347,244.233 125.876 C 244.664 126.307,244.461 127.918,243.922 128.355 C 243.738 128.505,243.372 129.206,243.109 129.914 C 242.847 130.623,242.431 131.403,242.185 131.649 C 241.940 131.894,241.660 132.539,241.563 133.081 C 241.466 133.624,241.182 134.301,240.932 134.585 C 240.681 134.870,240.332 135.570,240.155 136.140 C 239.820 137.219,239.707 137.445,238.857 138.731 C 238.575 139.158,238.343 139.724,238.343 139.989 C 238.342 140.253,238.051 140.816,237.694 141.239 C 237.338 141.662,237.047 142.274,237.047 142.597 C 237.047 142.921,236.699 143.699,236.274 144.326 C 235.849 144.953,235.500 145.653,235.497 145.881 C 235.494 146.109,235.145 146.808,234.720 147.435 C 234.295 148.062,233.945 148.762,233.943 148.990 C 233.940 149.217,233.590 149.917,233.165 150.544 C 232.740 151.171,232.391 151.987,232.388 152.357 C 232.386 152.728,232.036 153.544,231.611 154.171 C 231.186 154.798,230.836 155.497,230.834 155.725 C 230.831 155.953,230.481 156.653,230.057 157.280 C 229.632 157.907,229.282 158.607,229.279 158.837 C 229.277 159.066,228.970 159.702,228.598 160.250 C 228.227 160.798,227.773 161.741,227.592 162.346 C 227.410 162.950,227.015 163.758,226.713 164.141 C 226.412 164.523,226.166 165.038,226.166 165.284 C 226.166 165.530,225.857 166.184,225.480 166.738 C 225.104 167.293,224.684 168.148,224.547 168.640 C 224.411 169.132,224.034 169.890,223.710 170.324 C 223.386 170.759,223.039 171.575,222.938 172.139 C 222.837 172.702,222.483 173.486,222.150 173.881 C 221.818 174.276,221.463 174.981,221.361 175.447 C 221.260 175.914,220.910 176.613,220.584 177.002 C 220.259 177.390,219.909 178.089,219.807 178.556 C 219.705 179.022,219.360 179.716,219.040 180.098 C 218.720 180.480,218.377 181.228,218.277 181.761 C 218.177 182.293,217.828 183.089,217.501 183.528 C 217.175 183.967,216.828 184.663,216.730 185.074 C 216.632 185.486,216.283 186.185,215.953 186.629 C 215.623 187.072,215.273 187.772,215.176 188.183 C 215.078 188.594,214.729 189.294,214.399 189.737 C 214.070 190.181,213.727 190.933,213.638 191.408 C 213.549 191.883,213.258 192.582,212.991 192.962 C 212.725 193.342,212.368 194.081,212.199 194.604 C 212.029 195.127,211.728 195.689,211.529 195.854 C 211.331 196.019,210.981 196.719,210.751 197.409 C 210.522 198.100,210.168 198.803,209.964 198.972 C 209.761 199.141,209.396 199.937,209.153 200.741 C 208.910 201.544,208.514 202.435,208.274 202.720 C 208.033 203.005,207.691 203.705,207.513 204.275 C 207.335 204.845,206.986 205.544,206.736 205.829 C 206.486 206.114,206.136 206.813,205.959 207.383 C 205.781 207.953,205.425 208.653,205.168 208.938 C 204.911 209.223,204.558 210.039,204.384 210.751 C 204.211 211.464,203.857 212.251,203.599 212.501 C 203.341 212.750,202.987 213.450,202.813 214.055 C 202.639 214.660,202.289 215.360,202.036 215.609 C 201.782 215.859,201.435 216.559,201.263 217.164 C 201.092 217.769,200.815 218.381,200.648 218.523 C 200.160 218.939,199.741 219.865,199.741 220.527 C 199.741 221.712,199.210 221.821,198.273 220.827 C 197.798 220.324,197.409 219.739,197.409 219.528 C 197.409 219.058,196.692 217.639,196.210 217.157 C 196.015 216.962,195.855 216.640,195.855 216.441 C 195.855 215.949,195.028 214.249,194.789 214.249 C 194.683 214.249,194.412 213.615,194.187 212.840 C 193.961 212.065,193.598 211.252,193.379 211.033 C 193.160 210.814,192.805 210.043,192.590 209.319 C 192.376 208.596,192.037 207.941,191.837 207.865 C 191.637 207.788,191.289 207.089,191.063 206.312 C 190.837 205.534,190.487 204.834,190.286 204.757 C 190.084 204.680,189.729 203.957,189.496 203.150 C 189.263 202.344,188.911 201.503,188.714 201.282 C 188.517 201.062,188.180 200.384,187.966 199.776 C 187.751 199.168,187.348 198.382,187.070 198.028 C 186.792 197.674,186.483 197.012,186.383 196.555 C 186.284 196.099,185.931 195.401,185.599 195.005 C 185.266 194.609,184.917 193.852,184.823 193.321 C 184.728 192.791,184.384 192.000,184.058 191.562 C 183.732 191.125,183.339 190.299,183.184 189.725 C 183.030 189.152,182.682 188.483,182.411 188.238 C 182.140 187.992,181.794 187.296,181.641 186.690 C 181.489 186.083,181.129 185.375,180.842 185.116 C 180.556 184.856,180.242 184.223,180.146 183.708 C 180.050 183.193,179.709 182.364,179.388 181.865 C 179.067 181.367,178.731 180.605,178.642 180.173 C 178.554 179.741,178.205 179.066,177.869 178.674 C 177.532 178.283,177.186 177.587,177.100 177.129 C 177.013 176.670,176.664 175.971,176.322 175.574 C 175.981 175.178,175.622 174.420,175.524 173.890 C 175.427 173.361,175.138 172.694,174.882 172.409 C 174.626 172.124,174.219 171.280,173.976 170.533 C 173.733 169.785,173.386 169.086,173.204 168.978 C 173.022 168.870,172.672 168.171,172.426 167.424 C 172.181 166.677,171.831 165.977,171.649 165.869 C 171.467 165.762,171.112 165.032,170.859 164.249 C 170.606 163.465,170.254 162.649,170.076 162.435 C 169.898 162.222,169.598 161.580,169.409 161.010 C 169.220 160.440,168.870 159.741,168.631 159.456 C 168.392 159.171,168.042 158.472,167.854 157.902 C 167.665 157.332,167.312 156.632,167.070 156.347 C 166.827 156.062,166.457 155.243,166.247 154.526 C 166.037 153.809,165.560 152.773,165.186 152.223 C 164.813 151.673,164.506 151.035,164.503 150.806 C 164.500 150.576,164.151 149.876,163.726 149.249 C 163.301 148.622,162.953 147.916,162.953 147.680 C 162.953 147.444,162.662 146.856,162.306 146.373 C 161.949 145.890,161.658 145.299,161.658 145.059 C 161.658 144.434,160.917 142.746,160.642 142.746 C 160.515 142.746,160.206 142.094,159.955 141.297 C 159.704 140.499,159.354 139.791,159.177 139.724 C 159.000 139.656,158.659 138.996,158.419 138.259 C 158.179 137.521,157.760 136.709,157.488 136.454 C 157.217 136.199,156.995 135.697,156.995 135.340 C 156.995 134.609,156.322 133.161,155.983 133.161 C 155.861 133.161,155.628 132.634,155.466 131.990 C 155.304 131.346,154.949 130.597,154.677 130.325 C 153.246 128.894,153.190 125.022,154.579 123.624 C 154.765 123.437,155.105 122.639,155.334 121.849 C 155.564 121.060,155.967 120.199,156.230 119.936 C 156.493 119.673,156.837 118.979,156.995 118.394 C 157.152 117.809,157.502 117.109,157.772 116.839 C 158.042 116.569,158.396 115.847,158.560 115.234 C 158.723 114.621,159.029 113.926,159.239 113.690 C 159.449 113.454,159.775 112.750,159.964 112.125 C 160.152 111.499,160.610 110.539,160.982 109.991 C 161.354 109.443,161.658 108.801,161.658 108.563 C 161.658 108.326,161.935 107.756,162.274 107.297 C 162.613 106.837,163.034 105.948,163.210 105.320 C 163.386 104.692,163.681 104.120,163.866 104.049 C 164.051 103.978,164.386 103.287,164.611 102.512 C 164.836 101.738,165.190 100.963,165.398 100.791 C 165.605 100.619,165.962 99.913,166.192 99.223 C 166.421 98.532,166.771 97.833,166.969 97.668 C 167.167 97.504,167.525 96.766,167.765 96.029 C 168.005 95.292,168.353 94.514,168.538 94.301 C 168.723 94.087,169.070 93.329,169.309 92.617 C 169.548 91.904,169.896 91.146,170.083 90.933 C 170.270 90.719,170.626 90.019,170.873 89.378 C 171.121 88.737,171.471 88.038,171.651 87.824 C 171.830 87.610,172.180 86.911,172.428 86.269 C 172.676 85.628,173.032 84.923,173.219 84.703 C 173.407 84.482,173.764 83.666,174.013 82.889 C 174.262 82.112,174.660 81.264,174.898 81.005 C 175.137 80.746,175.474 80.025,175.648 79.403 C 175.822 78.780,176.114 78.214,176.297 78.144 C 176.480 78.074,176.834 77.396,177.084 76.638 C 177.333 75.879,177.755 74.979,178.021 74.637 C 178.286 74.295,178.574 73.574,178.661 73.035 C 178.747 72.493,179.096 71.792,179.440 71.469 C 179.782 71.148,180.131 70.448,180.217 69.915 C 180.302 69.381,180.648 68.686,180.985 68.369 C 181.322 68.052,181.676 67.374,181.771 66.863 C 181.866 66.351,182.205 65.583,182.524 65.155 C 182.843 64.728,183.190 63.970,183.295 63.472 C 183.401 62.973,183.753 62.247,184.079 61.859 C 184.405 61.470,184.754 60.771,184.856 60.304 C 184.958 59.838,185.308 59.138,185.633 58.750 C 185.959 58.361,186.308 57.662,186.409 57.195 C 186.510 56.729,186.795 56.056,187.042 55.699 C 187.290 55.343,187.693 54.440,187.938 53.692 C 188.183 52.944,188.485 52.332,188.608 52.332 C 188.731 52.332,189.087 51.632,189.399 50.777 C 189.711 49.922,190.060 49.223,190.176 49.223 C 190.292 49.223,190.642 48.523,190.953 47.668 C 191.265 46.813,191.612 46.114,191.723 46.114 C 191.835 46.114,192.186 45.327,192.504 44.365 C 192.821 43.403,193.229 42.528,193.411 42.421 C 193.593 42.313,193.943 41.614,194.188 40.866 C 194.433 40.119,194.783 39.420,194.965 39.312 C 195.147 39.204,195.497 38.505,195.743 37.758 C 195.989 37.010,196.277 36.341,196.382 36.269 C 196.668 36.076,197.409 34.202,197.409 33.673 C 197.409 33.274,198.772 32.141,199.267 32.129 C 199.362 32.126,199.634 32.707,199.870 33.420 M198.470 49.158 C 197.545 49.606,196.635 50.845,196.633 51.659 C 196.633 51.931,196.353 52.520,196.011 52.967 C 195.669 53.415,195.272 54.210,195.127 54.733 C 194.983 55.256,194.636 56.009,194.357 56.404 C 194.079 56.800,193.765 57.416,193.660 57.772 C 193.555 58.128,193.297 58.693,193.086 59.027 C 192.582 59.825,192.829 60.717,193.659 61.095 C 194.598 61.523,203.605 61.498,204.172 61.066 C 205.011 60.427,205.009 59.642,204.165 58.368 C 203.726 57.706,203.368 56.975,203.368 56.742 C 203.368 56.509,203.089 55.940,202.748 55.478 C 202.407 55.015,201.995 54.109,201.832 53.464 C 201.670 52.819,201.306 52.043,201.023 51.740 C 200.740 51.436,200.394 50.759,200.253 50.236 C 199.886 48.873,199.518 48.651,198.470 49.158 M189.263 67.156 C 189.042 67.473,188.860 67.872,188.860 68.043 C 188.860 68.214,188.582 68.685,188.241 69.089 C 187.901 69.494,187.473 70.348,187.290 70.988 C 187.107 71.627,186.794 72.343,186.595 72.579 C 186.396 72.815,186.080 73.520,185.891 74.145 C 185.703 74.770,185.245 75.730,184.873 76.278 C 184.501 76.826,184.197 77.464,184.197 77.695 C 184.197 77.927,183.966 78.547,183.684 79.073 L 183.171 80.030 183.742 80.429 C 184.711 81.109,213.214 81.025,213.833 80.341 C 214.351 79.768,214.184 78.660,213.457 77.850 C 213.201 77.565,212.911 76.982,212.813 76.554 C 212.715 76.127,212.363 75.369,212.030 74.870 C 211.698 74.372,211.310 73.442,211.168 72.805 C 211.026 72.168,210.720 71.508,210.488 71.338 C 210.256 71.169,209.908 70.501,209.713 69.856 C 209.518 69.207,208.918 68.212,208.372 67.631 L 207.383 66.581 198.525 66.581 L 189.667 66.580 189.263 67.156 M179.962 86.743 C 179.727 87.004,179.534 87.331,179.534 87.470 C 179.534 87.609,179.237 88.125,178.874 88.615 C 178.512 89.106,178.090 90.003,177.937 90.609 C 177.784 91.214,177.574 91.710,177.470 91.710 C 177.270 91.710,176.577 93.213,176.275 94.301 C 176.177 94.657,176.022 95.006,175.931 95.078 C 175.541 95.383,174.925 96.573,174.754 97.348 C 174.653 97.809,174.463 98.187,174.332 98.187 C 173.912 98.187,174.076 98.947,174.611 99.482 C 175.122 99.992,175.475 100.000,198.949 100.000 L 222.769 100.000 223.172 99.424 C 223.716 98.648,223.683 98.354,222.953 97.487 C 222.611 97.080,222.203 96.274,222.047 95.695 C 221.891 95.116,221.539 94.438,221.263 94.189 C 220.988 93.940,220.684 93.251,220.587 92.658 C 220.490 92.065,220.130 91.207,219.787 90.750 C 219.444 90.294,219.089 89.552,218.999 89.102 C 218.909 88.652,218.404 87.830,217.878 87.276 L 216.920 86.269 198.655 86.269 C 181.290 86.269,180.370 86.293,179.962 86.743 M171.535 105.520 C 170.877 105.753,170.560 106.085,170.255 106.865 C 170.032 107.435,169.697 108.018,169.511 108.161 C 169.325 108.303,168.954 109.045,168.686 109.809 C 168.418 110.574,168.085 111.273,167.946 111.364 C 167.807 111.454,167.488 112.170,167.237 112.953 C 166.986 113.737,166.620 114.507,166.423 114.665 C 165.275 115.584,164.938 118.793,165.950 119.177 C 166.731 119.475,231.577 119.528,232.022 119.232 C 232.623 118.832,232.683 117.220,232.123 116.508 C 231.833 116.139,231.420 115.340,231.205 114.732 C 230.991 114.124,230.664 113.446,230.478 113.225 C 230.293 113.004,229.998 112.322,229.823 111.708 C 229.647 111.094,229.304 110.392,229.059 110.147 C 228.815 109.903,228.462 109.195,228.277 108.575 C 228.074 107.897,227.494 106.996,226.822 106.314 L 225.705 105.181 199.057 105.196 C 179.104 105.207,172.190 105.288,171.535 105.520 M162.767 124.437 C 160.860 125.133,160.341 127.603,161.751 129.279 C 162.103 129.697,162.472 130.421,162.571 130.888 C 162.669 131.354,162.959 131.969,163.214 132.254 C 163.470 132.539,163.873 133.355,164.112 134.067 C 164.350 134.780,164.692 135.538,164.872 135.751 C 165.052 135.965,165.358 136.548,165.551 137.047 C 165.745 137.545,166.026 138.039,166.177 138.144 C 166.328 138.248,180.990 138.336,198.759 138.338 L 231.068 138.342 231.618 137.759 C 232.338 136.997,232.795 136.093,233.028 134.974 C 233.132 134.475,233.423 133.834,233.676 133.549 C 233.928 133.264,234.289 132.565,234.478 131.995 C 234.667 131.425,235.016 130.725,235.255 130.440 C 235.494 130.155,235.831 129.456,236.005 128.886 C 236.179 128.316,236.470 127.544,236.653 127.171 C 236.960 126.541,236.909 126.404,235.959 125.293 L 234.934 124.093 199.267 124.113 C 172.656 124.128,163.389 124.210,162.767 124.437 M170.078 144.351 C 169.299 144.792,169.156 145.150,169.574 145.611 C 169.781 145.840,170.143 146.601,170.378 147.301 C 170.614 148.002,170.954 148.663,171.134 148.771 C 171.314 148.879,171.660 149.563,171.902 150.292 C 172.144 151.020,172.560 151.834,172.825 152.100 C 173.091 152.366,173.383 153.050,173.475 153.620 C 173.599 154.398,173.923 154.918,174.768 155.697 L 175.895 156.736 198.377 156.736 C 224.058 156.736,223.177 156.821,223.688 154.287 C 223.773 153.866,224.059 153.284,224.324 152.992 C 224.590 152.700,224.952 151.995,225.130 151.425 C 225.307 150.855,225.657 150.155,225.907 149.870 C 226.157 149.585,226.506 148.886,226.684 148.316 C 226.862 147.746,227.217 147.047,227.474 146.762 C 228.187 145.971,228.351 144.968,227.850 144.467 C 227.312 143.929,171.022 143.816,170.078 144.351 M178.723 161.827 C 178.231 162.421,178.271 164.343,178.788 164.934 C 179.020 165.198,179.355 165.881,179.533 166.451 C 179.711 167.021,180.064 167.720,180.318 168.005 C 180.572 168.290,180.923 169.009,181.098 169.603 C 181.273 170.197,181.907 171.217,182.506 171.870 L 183.596 173.057 198.469 173.051 C 215.687 173.045,215.266 173.097,215.822 170.887 C 215.984 170.246,216.337 169.520,216.608 169.275 C 216.879 169.030,217.228 168.356,217.384 167.777 C 217.540 167.198,217.939 166.401,218.271 166.007 C 219.208 164.894,219.433 162.497,218.660 161.871 C 217.800 161.175,179.300 161.133,178.723 161.827 M186.404 178.659 C 185.932 179.131,186.077 180.508,186.646 180.960 C 186.826 181.104,187.163 181.875,187.396 182.675 C 187.628 183.475,187.997 184.277,188.215 184.458 C 188.433 184.639,188.739 185.294,188.895 185.913 C 189.087 186.673,189.557 187.417,190.349 188.208 L 191.519 189.378 198.490 189.378 C 206.752 189.378,207.062 189.301,208.171 186.973 C 208.526 186.230,208.980 185.330,209.180 184.974 C 209.381 184.618,209.691 183.825,209.870 183.213 C 210.049 182.600,210.348 182.013,210.535 181.909 C 211.185 181.545,211.411 179.286,210.853 178.728 C 210.150 178.025,187.103 177.960,186.404 178.659 M194.093 194.352 C 193.604 194.841,193.717 196.464,194.282 197.071 C 194.557 197.366,194.905 198.064,195.055 198.621 C 195.205 199.178,195.549 199.871,195.819 200.161 C 196.089 200.451,196.500 201.339,196.731 202.135 C 197.655 205.314,199.857 205.864,200.366 203.043 C 200.463 202.508,200.758 201.867,201.023 201.618 C 201.288 201.369,201.636 200.671,201.798 200.066 C 201.960 199.461,202.309 198.761,202.573 198.511 C 203.691 197.457,203.943 194.787,202.967 194.342 C 202.048 193.923,194.514 193.932,194.093 194.352 " stroke="none" fill="#ffffff" fill-rule="evenodd"></path></g></svg>