<svg id="svg" version="1.1" xmlns="http://www.w3.org/2000/svg" xmlns:xlink="http://www.w3.org/1999/xlink" width="400" height="258.91472868217056" viewBox="0, 0, 400,258.91472868217056"><g id="svgg"><path id="path0" d="M143.001 32.785 C 142.834 33.291,142.432 33.991,142.108 34.341 C 141.784 34.690,141.455 35.454,141.376 36.037 C 141.298 36.620,141.006 37.348,140.727 37.655 C 140.448 37.962,140.074 38.679,139.896 39.249 C 139.719 39.819,139.369 40.518,139.119 40.803 C 138.869 41.088,138.520 41.788,138.342 42.358 C 138.164 42.927,137.815 43.627,137.565 43.912 C 137.315 44.197,136.971 45.032,136.799 45.769 C 136.627 46.505,136.268 47.306,136.000 47.548 C 135.733 47.790,135.328 48.549,135.100 49.233 C 134.873 49.918,134.525 50.613,134.326 50.777 C 134.128 50.942,133.779 51.641,133.549 52.332 C 133.320 53.022,132.978 53.715,132.790 53.871 C 132.602 54.027,132.299 54.706,132.118 55.381 C 131.936 56.055,131.587 56.839,131.340 57.124 C 131.094 57.409,130.748 58.109,130.570 58.679 C 130.392 59.249,130.043 59.948,129.793 60.233 C 129.543 60.518,129.193 61.218,129.016 61.788 C 128.838 62.358,128.487 63.057,128.236 63.342 C 127.984 63.627,127.590 64.521,127.360 65.329 C 127.129 66.136,126.815 66.839,126.660 66.890 C 126.506 66.942,126.161 67.606,125.893 68.366 C 125.625 69.127,125.247 69.881,125.051 70.043 C 124.856 70.204,124.554 70.839,124.380 71.453 C 124.206 72.066,123.839 72.793,123.564 73.068 C 123.289 73.343,122.988 74.047,122.894 74.632 C 122.801 75.217,122.464 76.006,122.147 76.384 C 121.829 76.763,121.486 77.454,121.385 77.921 C 121.283 78.387,120.930 79.090,120.599 79.482 C 120.269 79.874,119.872 80.669,119.716 81.248 C 119.560 81.827,119.207 82.505,118.932 82.754 C 118.657 83.003,118.355 83.660,118.261 84.213 C 118.168 84.767,117.754 85.718,117.341 86.327 C 116.928 86.937,116.588 87.622,116.585 87.850 C 116.582 88.078,116.233 88.777,115.808 89.404 C 115.383 90.031,115.033 90.732,115.031 90.961 C 115.028 91.191,114.717 91.832,114.339 92.386 C 113.961 92.940,113.553 93.825,113.434 94.351 C 113.314 94.877,112.924 95.739,112.567 96.265 C 112.209 96.792,111.915 97.410,111.912 97.640 C 111.910 97.869,111.560 98.570,111.135 99.197 C 110.710 99.824,110.361 100.524,110.358 100.751 C 110.355 100.979,110.006 101.679,109.581 102.306 C 109.156 102.933,108.808 103.669,108.808 103.942 C 108.808 104.498,108.382 105.386,107.867 105.900 C 107.680 106.088,107.407 106.684,107.262 107.225 C 107.116 107.766,106.763 108.478,106.477 108.808 C 106.191 109.138,105.841 109.838,105.699 110.363 C 105.558 110.888,105.206 111.590,104.916 111.924 C 104.627 112.258,104.332 112.830,104.260 113.195 C 104.189 113.561,103.784 114.522,103.360 115.331 C 102.937 116.141,102.589 116.957,102.586 117.145 C 102.583 117.333,102.234 118.000,101.809 118.627 C 101.384 119.254,101.036 119.967,101.036 120.211 C 101.036 120.456,100.798 120.958,100.507 121.328 C 100.216 121.698,99.808 122.572,99.601 123.271 C 99.394 123.969,98.961 124.874,98.640 125.282 C 97.832 126.309,97.839 128.159,98.655 129.263 C 98.984 129.707,99.424 130.556,99.633 131.150 C 99.842 131.743,100.170 132.409,100.361 132.630 C 100.552 132.850,100.914 133.701,101.167 134.521 C 101.419 135.340,101.716 136.010,101.828 136.010 C 101.939 136.010,102.301 136.710,102.633 137.565 C 102.964 138.420,103.310 139.119,103.401 139.119 C 103.492 139.119,103.832 139.790,104.157 140.609 C 104.481 141.428,104.894 142.273,105.074 142.487 C 105.254 142.701,105.539 143.422,105.707 144.090 C 105.875 144.758,106.234 145.505,106.505 145.751 C 106.775 145.996,107.125 146.670,107.281 147.249 C 107.436 147.828,107.829 148.617,108.154 149.003 C 108.478 149.388,108.818 150.100,108.909 150.584 C 109.000 151.068,109.303 151.710,109.584 152.011 C 109.864 152.312,110.203 153.043,110.336 153.635 C 110.469 154.228,110.810 154.964,111.093 155.271 C 111.376 155.578,111.726 156.264,111.870 156.796 C 112.014 157.329,112.375 158.072,112.671 158.449 C 112.968 158.826,113.333 159.588,113.482 160.143 C 113.631 160.697,114.040 161.572,114.390 162.088 C 114.740 162.604,115.026 163.225,115.026 163.469 C 115.026 163.712,115.374 164.425,115.798 165.052 C 116.223 165.679,116.573 166.378,116.576 166.606 C 116.578 166.834,116.928 167.533,117.353 168.160 C 117.778 168.788,118.127 169.461,118.130 169.658 C 118.133 169.854,118.472 170.612,118.885 171.342 C 119.297 172.071,119.712 173.039,119.808 173.492 C 119.903 173.946,120.143 174.450,120.340 174.614 C 120.537 174.777,120.902 175.456,121.150 176.121 C 121.399 176.787,121.871 177.692,122.200 178.133 C 122.529 178.574,122.798 179.112,122.798 179.327 C 122.798 179.543,123.130 180.348,123.536 181.116 C 123.943 181.884,124.359 182.863,124.462 183.290 C 124.565 183.718,124.860 184.301,125.117 184.585 C 125.374 184.870,125.729 185.570,125.907 186.140 C 126.084 186.710,126.434 187.409,126.683 187.694 C 126.933 187.979,127.336 188.824,127.579 189.573 C 127.822 190.321,128.124 190.933,128.249 190.933 C 128.375 190.933,128.657 191.537,128.876 192.277 C 129.096 193.016,129.494 193.861,129.761 194.155 C 130.028 194.449,130.392 195.155,130.570 195.725 C 130.748 196.295,131.097 196.995,131.347 197.280 C 131.597 197.565,131.945 198.264,132.121 198.834 C 132.297 199.404,132.603 200.129,132.801 200.445 C 133.000 200.761,133.403 201.665,133.698 202.453 C 133.993 203.241,134.327 203.886,134.440 203.886 C 134.553 203.886,134.901 204.585,135.212 205.440 C 135.524 206.295,135.880 206.995,136.004 206.995 C 136.128 206.995,136.368 207.432,136.537 207.966 C 136.707 208.501,137.111 209.404,137.437 209.974 C 137.762 210.544,138.155 211.482,138.310 212.058 C 138.465 212.634,138.819 213.349,139.097 213.647 C 139.374 213.944,139.724 214.644,139.874 215.201 C 140.024 215.758,140.372 216.456,140.648 216.752 C 140.923 217.048,141.265 217.710,141.406 218.223 C 141.548 218.736,141.895 219.481,142.178 219.878 C 142.461 220.276,142.827 221.099,142.990 221.707 C 143.259 222.706,143.782 223.012,143.782 222.171 C 143.782 221.986,144.080 221.395,144.444 220.859 C 144.808 220.323,145.284 219.345,145.502 218.686 C 145.720 218.026,146.058 217.362,146.253 217.208 C 146.448 217.055,146.801 216.356,147.037 215.654 C 147.273 214.952,147.686 214.170,147.956 213.915 C 148.225 213.660,148.446 213.272,148.446 213.053 C 148.446 212.833,148.854 211.805,149.352 210.769 C 149.851 209.732,150.259 208.710,150.259 208.497 C 150.259 208.285,150.493 207.899,150.779 207.640 C 151.066 207.381,151.437 206.693,151.606 206.111 C 151.774 205.528,152.176 204.728,152.500 204.332 C 152.823 203.936,153.168 203.184,153.267 202.661 C 153.365 202.138,153.777 201.186,154.184 200.545 C 154.590 199.905,154.922 199.232,154.922 199.052 C 154.922 198.871,155.272 198.171,155.699 197.497 C 156.127 196.823,156.477 196.101,156.477 195.893 C 156.477 195.685,156.770 195.131,157.128 194.661 C 157.487 194.191,157.852 193.422,157.940 192.952 C 158.029 192.483,158.361 191.748,158.679 191.319 C 158.998 190.890,159.347 190.132,159.455 189.635 C 159.564 189.137,159.924 188.407,160.256 188.011 C 160.588 187.614,160.935 186.893,161.026 186.408 C 161.117 185.923,161.416 185.323,161.690 185.075 C 161.964 184.827,162.366 184.013,162.583 183.266 C 162.800 182.520,163.149 181.766,163.359 181.592 C 163.569 181.417,163.869 180.769,164.024 180.152 C 164.180 179.534,164.576 178.715,164.904 178.333 C 165.233 177.951,165.575 177.248,165.664 176.771 C 165.754 176.295,166.055 175.692,166.334 175.433 C 166.613 175.173,167.028 174.328,167.257 173.555 C 167.486 172.783,167.778 172.084,167.906 172.004 C 168.035 171.923,168.352 171.255,168.611 170.519 C 168.870 169.783,169.263 168.974,169.483 168.722 C 169.704 168.470,170.039 167.798,170.228 167.228 C 170.418 166.658,170.771 165.959,171.013 165.674 C 171.256 165.389,171.626 164.569,171.836 163.852 C 172.046 163.136,172.523 162.099,172.897 161.549 C 173.270 160.999,173.575 160.355,173.575 160.118 C 173.575 159.880,173.867 159.291,174.223 158.808 C 174.579 158.325,174.870 157.736,174.870 157.499 C 174.870 157.261,175.175 156.619,175.547 156.071 C 175.919 155.523,176.372 154.580,176.553 153.976 C 176.735 153.371,177.131 152.563,177.432 152.181 C 177.733 151.798,177.979 151.285,177.979 151.040 C 177.979 150.796,178.327 150.083,178.752 149.456 C 179.177 148.829,179.526 148.128,179.529 147.899 C 179.532 147.669,179.843 147.028,180.221 146.474 C 180.599 145.920,181.012 145.011,181.138 144.455 C 181.264 143.899,181.654 143.103,182.005 142.687 C 182.356 142.270,182.642 141.663,182.642 141.337 C 182.642 141.011,182.992 140.305,183.420 139.767 C 183.847 139.229,184.197 138.529,184.197 138.212 C 184.197 137.895,184.531 137.215,184.940 136.701 C 185.348 136.187,185.758 135.295,185.850 134.719 C 185.942 134.143,186.223 133.466,186.474 133.216 C 186.724 132.965,187.084 132.238,187.272 131.600 C 187.460 130.962,187.862 130.172,188.165 129.845 C 189.084 128.851,189.109 126.075,188.212 124.759 C 187.830 124.199,187.452 123.325,187.372 122.816 C 187.292 122.307,186.953 121.562,186.618 121.159 C 186.284 120.756,185.945 120.115,185.865 119.734 C 185.720 119.039,185.659 118.920,184.712 117.487 C 184.430 117.060,184.198 116.462,184.198 116.159 C 184.197 115.856,184.014 115.456,183.791 115.271 C 183.266 114.835,182.644 113.627,182.638 113.031 C 182.635 112.775,182.285 112.052,181.861 111.425 C 181.436 110.798,181.088 110.025,181.088 109.708 C 181.088 109.390,180.906 108.979,180.682 108.794 C 180.142 108.346,179.534 107.142,179.534 106.521 C 179.534 106.247,179.352 105.871,179.130 105.687 C 178.675 105.310,177.982 103.782,177.975 103.142 C 177.972 102.910,177.622 102.207,177.197 101.580 C 176.772 100.953,176.423 100.254,176.420 100.026 C 176.418 99.798,176.068 99.098,175.643 98.471 C 175.218 97.844,174.870 97.131,174.870 96.887 C 174.870 96.643,174.632 96.140,174.341 95.770 C 174.050 95.400,173.631 94.481,173.410 93.728 C 173.189 92.974,172.801 92.124,172.546 91.839 C 172.292 91.554,171.939 90.855,171.762 90.285 C 171.584 89.715,171.234 89.016,170.984 88.731 C 170.735 88.446,170.385 87.746,170.207 87.176 C 170.030 86.606,169.675 85.907,169.419 85.622 C 169.163 85.337,168.873 84.665,168.774 84.130 C 168.675 83.594,168.372 82.873,168.100 82.528 C 167.828 82.182,167.429 81.399,167.214 80.788 C 166.998 80.178,166.605 79.441,166.340 79.152 C 166.076 78.863,165.778 78.245,165.680 77.779 C 165.581 77.312,165.235 76.613,164.912 76.224 C 164.588 75.836,164.245 75.093,164.150 74.573 C 164.054 74.053,163.736 73.323,163.443 72.950 C 163.149 72.577,162.791 71.842,162.646 71.317 C 162.501 70.792,162.118 70.007,161.795 69.572 C 161.472 69.138,161.128 68.446,161.031 68.035 C 160.933 67.623,160.582 66.924,160.251 66.480 C 159.921 66.037,159.572 65.240,159.478 64.710 C 159.383 64.180,159.034 63.422,158.702 63.026 C 158.370 62.630,158.015 61.924,157.913 61.458 C 157.811 60.991,157.462 60.292,157.136 59.903 C 156.810 59.515,156.461 58.815,156.359 58.349 C 156.257 57.882,155.902 57.178,155.570 56.783 C 155.238 56.388,154.883 55.604,154.782 55.040 C 154.681 54.477,154.328 53.653,153.997 53.209 C 153.666 52.765,153.316 52.066,153.218 51.655 C 153.121 51.243,152.784 50.557,152.470 50.130 C 152.156 49.702,151.768 48.968,151.607 48.499 C 151.446 48.030,151.087 47.326,150.809 46.936 C 150.531 46.545,150.218 45.764,150.114 45.199 C 150.010 44.633,149.660 43.853,149.337 43.465 C 149.013 43.076,148.665 42.377,148.564 41.910 C 148.462 41.444,148.112 40.744,147.786 40.356 C 147.461 39.968,147.111 39.268,147.009 38.802 C 146.907 38.335,146.552 37.629,146.220 37.233 C 145.888 36.837,145.536 36.083,145.437 35.557 C 145.339 35.032,144.926 34.143,144.520 33.583 C 144.114 33.023,143.782 32.407,143.782 32.215 C 143.782 31.529,143.299 31.881,143.001 32.785 M253.118 33.386 C 252.969 33.937,252.626 34.670,252.356 35.014 C 252.085 35.358,251.738 36.105,251.585 36.674 C 251.432 37.243,251.024 38.091,250.679 38.558 C 250.334 39.026,249.980 39.794,249.891 40.264 C 249.803 40.735,249.499 41.330,249.217 41.586 C 248.934 41.842,248.574 42.527,248.418 43.109 C 248.261 43.690,247.897 44.497,247.610 44.901 C 247.322 45.306,246.978 46.116,246.847 46.701 C 246.715 47.287,246.383 47.923,246.109 48.115 C 245.835 48.307,245.480 48.956,245.321 49.556 C 245.162 50.156,244.810 50.887,244.539 51.179 C 244.269 51.472,243.879 52.270,243.674 52.952 C 243.468 53.635,243.107 54.408,242.870 54.669 C 242.634 54.930,242.327 55.648,242.189 56.264 C 242.050 56.880,241.726 57.617,241.467 57.902 C 241.208 58.187,240.851 58.886,240.674 59.456 C 240.496 60.026,240.146 60.725,239.896 61.010 C 239.646 61.295,239.295 61.995,239.115 62.565 C 238.935 63.135,238.567 63.916,238.297 64.301 C 238.028 64.686,237.644 65.542,237.445 66.203 C 237.246 66.865,236.903 67.605,236.683 67.848 C 236.463 68.091,236.102 68.803,235.881 69.430 C 235.660 70.057,235.310 70.757,235.104 70.984 C 234.897 71.212,234.548 71.912,234.326 72.539 C 234.105 73.166,233.772 73.860,233.587 74.080 C 233.402 74.301,233.102 75.006,232.922 75.648 C 232.741 76.289,232.386 77.047,232.132 77.332 C 231.878 77.617,231.525 78.316,231.347 78.886 C 231.170 79.456,230.820 80.155,230.570 80.440 C 230.321 80.725,229.918 81.571,229.675 82.319 C 229.432 83.067,229.137 83.679,229.019 83.679 C 228.901 83.679,228.600 84.331,228.349 85.128 C 228.098 85.926,227.712 86.758,227.492 86.979 C 227.271 87.200,226.884 87.968,226.631 88.686 C 226.378 89.405,226.038 90.074,225.877 90.174 C 225.715 90.274,225.365 90.976,225.097 91.735 C 224.830 92.493,224.444 93.208,224.238 93.323 C 224.033 93.438,223.785 94.063,223.688 94.712 C 223.590 95.361,223.245 96.207,222.921 96.593 C 222.596 96.978,222.203 97.768,222.047 98.347 C 221.891 98.926,221.542 99.600,221.271 99.845 C 221.000 100.090,220.654 100.787,220.501 101.393 C 220.349 101.999,219.995 102.702,219.716 102.955 C 219.437 103.207,219.132 103.867,219.039 104.420 C 218.945 104.974,218.531 105.925,218.118 106.535 C 217.705 107.144,217.365 107.829,217.362 108.057 C 217.360 108.285,217.010 108.984,216.585 109.611 C 216.160 110.238,215.810 110.938,215.808 111.166 C 215.805 111.394,215.455 112.093,215.031 112.720 C 214.606 113.347,214.256 114.105,214.253 114.404 C 214.251 114.703,213.901 115.461,213.476 116.088 C 213.051 116.715,212.702 117.470,212.699 117.765 C 212.696 118.060,212.348 118.759,211.924 119.319 C 211.501 119.879,211.149 120.570,211.142 120.855 C 211.136 121.140,210.783 121.886,210.358 122.513 C 209.933 123.140,209.585 123.904,209.585 124.211 C 209.585 124.519,209.294 125.165,208.938 125.648 C 208.146 126.721,208.092 127.979,208.809 128.628 C 209.095 128.886,209.456 129.572,209.612 130.151 C 209.768 130.730,210.176 131.536,210.518 131.943 C 210.860 132.350,211.140 133.000,211.140 133.389 C 211.140 133.778,211.434 134.495,211.793 134.982 C 212.152 135.469,212.567 136.314,212.714 136.859 C 212.860 137.405,213.205 138.076,213.480 138.351 C 213.755 138.625,214.112 139.377,214.274 140.021 C 214.437 140.665,214.669 141.192,214.791 141.192 C 215.109 141.192,215.705 142.458,215.903 143.553 C 215.996 144.067,216.307 144.701,216.594 144.960 C 216.880 145.220,217.240 145.928,217.393 146.534 C 217.545 147.140,217.892 147.837,218.163 148.082 C 218.433 148.327,218.782 149.001,218.938 149.579 C 219.094 150.157,219.437 150.904,219.701 151.240 C 219.965 151.576,220.365 152.483,220.590 153.257 C 220.815 154.030,221.106 154.663,221.237 154.663 C 221.368 154.663,221.730 155.363,222.042 156.218 C 222.353 157.073,222.701 157.772,222.814 157.772 C 222.927 157.772,223.265 158.428,223.566 159.231 C 223.866 160.033,224.285 160.937,224.497 161.239 C 224.710 161.541,225.007 162.254,225.159 162.824 C 225.311 163.394,225.643 164.093,225.898 164.378 C 226.153 164.663,226.506 165.363,226.684 165.933 C 226.862 166.503,227.211 167.202,227.461 167.487 C 227.711 167.772,228.061 168.472,228.238 169.041 C 228.416 169.611,228.767 170.311,229.019 170.596 C 229.272 170.881,229.560 171.522,229.660 172.021 C 229.760 172.519,230.109 173.335,230.437 173.834 C 230.764 174.333,231.167 175.169,231.333 175.692 C 231.498 176.215,231.795 176.777,231.994 176.942 C 232.193 177.107,232.543 177.807,232.772 178.497 C 233.001 179.188,233.352 179.888,233.551 180.054 C 233.751 180.219,234.092 180.967,234.310 181.717 C 234.528 182.466,234.919 183.360,235.180 183.703 C 235.441 184.046,235.857 184.871,236.105 185.537 C 236.353 186.202,236.717 186.881,236.914 187.044 C 237.111 187.208,237.351 187.712,237.447 188.166 C 237.543 188.619,237.891 189.349,238.221 189.788 C 238.551 190.228,238.901 191.018,239.000 191.546 C 239.099 192.073,239.475 192.938,239.835 193.467 C 240.195 193.997,240.597 194.817,240.728 195.289 C 240.859 195.761,241.186 196.367,241.454 196.635 C 241.722 196.903,242.065 197.580,242.215 198.139 C 242.366 198.698,242.717 199.446,242.997 199.801 C 243.276 200.156,243.616 200.940,243.751 201.543 C 243.887 202.146,244.230 202.891,244.514 203.198 C 244.799 203.505,245.158 204.233,245.313 204.816 C 245.467 205.399,245.815 206.077,246.086 206.322 C 246.357 206.567,246.704 207.264,246.856 207.870 C 247.009 208.476,247.372 209.188,247.664 209.452 C 247.956 209.716,248.268 210.389,248.357 210.949 C 248.446 211.508,248.781 212.276,249.101 212.656 C 249.421 213.036,249.795 213.754,249.933 214.251 C 250.071 214.749,250.492 215.609,250.869 216.163 C 251.246 216.717,251.554 217.365,251.554 217.602 C 251.554 217.840,251.840 218.421,252.189 218.894 C 252.537 219.366,252.896 220.118,252.985 220.563 C 253.348 222.374,253.315 222.347,254.291 221.602 C 254.896 221.140,255.293 220.540,255.538 219.716 C 255.735 219.052,256.202 218.058,256.575 217.508 C 256.949 216.958,257.256 216.320,257.259 216.091 C 257.261 215.861,257.611 215.161,258.036 214.534 C 258.461 213.907,258.808 213.201,258.808 212.965 C 258.808 212.729,259.088 212.157,259.430 211.693 C 259.772 211.230,260.131 210.430,260.227 209.916 C 260.324 209.401,260.676 208.621,261.010 208.182 C 261.344 207.743,261.704 207.034,261.808 206.606 C 261.913 206.179,262.261 205.479,262.580 205.052 C 262.900 204.624,263.284 203.824,263.434 203.272 C 263.583 202.721,263.871 202.080,264.073 201.848 C 264.276 201.615,264.637 200.822,264.877 200.085 C 265.117 199.348,265.475 198.610,265.674 198.446 C 265.872 198.281,266.221 197.582,266.451 196.891 C 266.680 196.201,267.030 195.501,267.228 195.337 C 267.426 195.172,267.776 194.473,268.005 193.782 C 268.235 193.092,268.576 192.399,268.764 192.243 C 268.952 192.087,269.255 191.408,269.436 190.733 C 269.618 190.059,269.968 189.275,270.215 188.990 C 270.462 188.705,270.818 188.005,271.006 187.435 C 271.195 186.865,271.547 186.166,271.789 185.881 C 272.030 185.596,272.423 184.780,272.661 184.067 C 272.899 183.355,273.249 182.597,273.437 182.383 C 273.626 182.170,273.971 181.425,274.205 180.729 C 274.438 180.033,274.858 179.172,275.138 178.816 C 275.418 178.460,275.648 177.969,275.648 177.724 C 275.648 177.480,275.995 176.767,276.420 176.140 C 276.845 175.513,277.195 174.812,277.197 174.583 C 277.200 174.353,277.493 173.737,277.848 173.213 C 278.204 172.689,278.621 171.759,278.775 171.147 C 278.929 170.534,279.326 169.719,279.656 169.334 C 279.986 168.950,280.327 168.261,280.413 167.802 C 280.500 167.344,280.862 166.630,281.218 166.216 C 281.574 165.802,281.865 165.208,281.865 164.895 C 281.865 164.582,282.213 163.814,282.638 163.187 C 283.063 162.560,283.412 161.810,283.415 161.521 C 283.420 161.012,283.954 160.074,284.640 159.373 C 284.824 159.184,284.974 158.773,284.974 158.459 C 284.974 157.910,285.487 156.988,286.194 156.264 C 286.378 156.076,286.528 155.693,286.528 155.414 C 286.528 155.134,286.937 154.065,287.435 153.037 C 287.934 152.009,288.342 151.036,288.342 150.875 C 288.342 150.713,288.511 150.442,288.717 150.270 C 288.923 150.099,289.298 149.415,289.550 148.749 C 289.803 148.083,290.267 147.156,290.582 146.688 C 290.897 146.220,291.236 145.467,291.335 145.014 C 291.435 144.561,291.782 143.778,292.107 143.274 C 292.433 142.770,292.774 141.991,292.867 141.542 C 292.959 141.094,293.265 140.519,293.546 140.264 C 293.828 140.010,294.183 139.305,294.336 138.699 C 294.488 138.093,294.835 137.396,295.106 137.151 C 295.376 136.906,295.726 136.229,295.883 135.648 C 296.039 135.066,296.399 134.265,296.682 133.868 C 296.965 133.471,297.316 132.713,297.462 132.184 C 297.608 131.655,297.998 130.900,298.330 130.506 C 299.493 129.124,299.498 125.548,298.340 123.859 C 297.989 123.347,297.620 122.578,297.521 122.150 C 297.422 121.723,297.071 121.010,296.741 120.566 C 296.412 120.123,296.062 119.423,295.964 119.012 C 295.867 118.601,295.517 117.901,295.187 117.458 C 294.857 117.014,294.507 116.315,294.410 115.903 C 294.312 115.492,293.972 114.805,293.653 114.376 C 293.334 113.947,292.986 113.189,292.879 112.692 C 292.642 111.594,292.037 110.363,291.734 110.363 C 291.612 110.363,291.380 109.836,291.217 109.192 C 291.055 108.548,290.698 107.796,290.423 107.522 C 290.148 107.247,289.801 106.565,289.650 106.006 C 289.500 105.447,289.148 104.699,288.869 104.344 C 288.589 103.989,288.258 103.245,288.132 102.691 C 288.006 102.137,287.594 101.230,287.216 100.676 C 286.838 100.122,286.526 99.481,286.524 99.251 C 286.521 99.022,286.171 98.321,285.747 97.694 C 285.322 97.067,284.972 96.368,284.969 96.140 C 284.967 95.912,284.617 95.212,284.192 94.585 C 283.767 93.958,283.418 93.201,283.415 92.901 C 283.412 92.602,283.063 91.845,282.638 91.217 C 282.213 90.590,281.863 89.891,281.861 89.663 C 281.858 89.435,281.508 88.736,281.083 88.109 C 280.659 87.482,280.311 86.776,280.311 86.540 C 280.311 86.304,280.021 85.718,279.666 85.237 C 279.312 84.757,278.949 83.947,278.861 83.438 C 278.773 82.929,278.425 82.104,278.089 81.605 C 277.753 81.105,277.337 80.291,277.164 79.795 C 276.991 79.300,276.655 78.685,276.417 78.430 C 276.179 78.174,275.840 77.483,275.664 76.895 C 275.487 76.306,275.184 75.665,274.989 75.470 C 274.794 75.275,274.436 74.408,274.193 73.544 C 273.951 72.680,273.598 71.914,273.410 71.842 C 273.221 71.769,272.865 71.067,272.617 70.281 C 272.369 69.495,272.023 68.797,271.848 68.730 C 271.673 68.663,271.335 68.006,271.098 67.270 C 270.861 66.535,270.515 65.811,270.330 65.662 C 270.145 65.512,269.804 64.740,269.573 63.945 C 269.342 63.150,268.935 62.302,268.669 62.062 C 268.404 61.821,268.112 61.227,268.021 60.742 C 267.930 60.257,267.583 59.536,267.251 59.140 C 266.919 58.744,266.564 58.038,266.462 57.572 C 266.361 57.105,266.013 56.406,265.689 56.017 C 265.365 55.629,265.024 54.894,264.931 54.386 C 264.837 53.877,264.471 53.067,264.116 52.586 C 263.762 52.106,263.472 51.525,263.472 51.296 C 263.472 51.066,263.124 50.330,262.699 49.660 C 262.274 48.990,261.847 48.122,261.751 47.731 C 261.655 47.340,261.319 46.671,261.004 46.244 C 260.690 45.816,260.357 45.068,260.266 44.581 C 260.174 44.094,259.827 43.337,259.495 42.897 C 259.162 42.458,258.805 41.749,258.700 41.321 C 258.595 40.894,258.245 40.194,257.922 39.767 C 257.600 39.339,257.252 38.647,257.148 38.228 C 257.045 37.809,256.730 37.143,256.448 36.747 C 256.166 36.352,255.763 35.447,255.553 34.737 C 255.299 33.882,254.917 33.267,254.423 32.915 C 253.442 32.217,253.432 32.220,253.118 33.386 M144.452 49.945 C 144.614 50.271,144.989 50.795,145.285 51.111 C 145.581 51.426,145.933 52.172,146.067 52.769 C 146.201 53.366,146.550 54.159,146.842 54.530 C 147.134 54.902,147.452 55.579,147.549 56.035 C 147.645 56.492,147.937 57.098,148.197 57.383 C 149.392 58.693,149.604 61.089,148.584 61.758 C 147.660 62.363,139.260 62.376,138.400 61.773 C 137.587 61.204,137.607 59.459,138.440 58.232 C 138.779 57.733,139.193 56.908,139.361 56.399 C 139.529 55.889,139.871 55.203,140.121 54.874 C 140.371 54.544,140.727 53.752,140.912 53.114 C 141.097 52.475,141.469 51.672,141.738 51.330 C 142.008 50.988,142.228 50.587,142.228 50.439 C 142.228 49.312,143.948 48.930,144.452 49.945 M255.017 50.080 C 255.614 50.643,256.031 51.352,256.230 52.145 C 256.397 52.809,256.690 53.481,256.880 53.639 C 257.070 53.797,257.421 54.529,257.661 55.266 C 257.900 56.003,258.300 56.839,258.550 57.124 C 259.031 57.674,259.438 58.836,259.703 60.420 C 259.858 61.339,259.822 61.402,258.916 61.780 C 257.516 62.365,249.181 62.356,248.594 61.769 C 248.023 61.199,248.082 59.670,248.705 58.879 C 248.990 58.517,249.223 58.026,249.223 57.788 C 249.223 57.550,249.560 56.824,249.972 56.175 C 250.383 55.525,250.807 54.599,250.913 54.116 C 251.019 53.633,251.382 52.832,251.719 52.336 C 252.056 51.840,252.332 51.333,252.332 51.210 C 252.332 49.442,253.721 48.858,255.017 50.080 M152.776 67.563 C 153.241 67.895,153.710 68.523,153.839 68.988 C 153.966 69.445,154.362 70.248,154.719 70.774 C 155.077 71.299,155.442 72.183,155.530 72.738 C 155.619 73.293,155.927 73.960,156.215 74.220 C 156.503 74.481,156.866 75.167,157.021 75.747 C 157.177 76.326,157.570 77.115,157.895 77.500 C 158.809 78.587,158.992 80.054,158.284 80.627 C 157.403 81.340,129.641 81.338,128.760 80.625 C 128.087 80.080,128.336 78.543,129.275 77.461 C 129.561 77.131,129.910 76.432,130.052 75.907 C 130.193 75.382,130.544 74.681,130.832 74.349 C 131.120 74.017,131.426 73.302,131.513 72.761 C 131.599 72.219,131.950 71.397,132.292 70.933 C 132.633 70.470,133.025 69.680,133.163 69.178 C 133.341 68.526,133.729 68.060,134.517 67.550 L 135.622 66.836 143.782 66.902 C 151.824 66.968,151.955 66.978,152.776 67.563 M263.300 67.663 C 264.219 68.801,265.198 70.528,265.549 71.632 C 265.730 72.202,266.082 72.930,266.330 73.249 C 266.578 73.568,266.852 74.210,266.940 74.674 C 267.027 75.138,267.378 75.843,267.719 76.239 C 268.060 76.636,268.411 77.344,268.499 77.813 C 268.587 78.282,268.901 78.925,269.197 79.243 C 270.784 80.947,269.620 81.086,253.756 81.083 C 236.589 81.080,237.641 81.421,240.101 76.656 C 240.939 75.033,241.711 73.355,241.817 72.927 C 241.923 72.500,242.172 71.970,242.371 71.749 C 242.570 71.528,242.915 70.829,243.139 70.194 C 243.362 69.560,244.035 68.540,244.635 67.928 L 245.725 66.815 254.233 66.892 L 262.740 66.969 263.300 67.663 M162.228 86.875 C 162.470 86.994,162.855 87.656,163.084 88.345 C 163.313 89.034,163.671 89.739,163.880 89.913 C 164.089 90.086,164.386 90.730,164.541 91.344 C 164.695 91.958,165.101 92.839,165.442 93.301 C 165.783 93.764,166.062 94.333,166.062 94.566 C 166.062 94.798,166.420 95.529,166.857 96.189 C 168.033 97.964,168.229 100.138,167.247 100.511 C 166.099 100.948,120.204 100.856,119.624 100.417 C 118.886 99.856,119.035 98.207,119.943 96.865 C 120.368 96.238,120.718 95.538,120.721 95.308 C 120.723 95.079,121.011 94.470,121.360 93.956 C 121.709 93.442,122.073 92.601,122.169 92.088 C 122.266 91.575,122.610 90.839,122.934 90.454 C 123.259 90.068,123.652 89.279,123.808 88.700 C 124.128 87.509,124.701 86.891,125.648 86.713 C 126.799 86.496,161.773 86.651,162.228 86.875 M272.392 86.781 C 272.758 86.920,273.057 87.195,273.057 87.393 C 273.057 87.590,273.362 88.201,273.736 88.751 C 274.109 89.301,274.575 90.295,274.773 90.959 C 274.970 91.623,275.305 92.310,275.518 92.487 C 275.731 92.664,276.081 93.399,276.295 94.121 C 276.509 94.843,276.908 95.674,277.182 95.968 C 277.604 96.423,278.497 99.124,278.497 99.947 C 278.497 100.815,230.703 101.325,229.845 100.466 C 229.349 99.971,229.459 98.076,230.012 97.575 C 230.275 97.337,230.637 96.648,230.816 96.045 C 230.995 95.442,231.357 94.745,231.621 94.496 C 231.885 94.247,232.178 93.606,232.274 93.071 C 232.369 92.536,232.782 91.583,233.192 90.953 C 233.602 90.323,233.938 89.610,233.938 89.369 C 233.938 88.837,235.367 86.985,235.967 86.741 C 236.667 86.456,271.638 86.494,272.392 86.781 M171.313 106.356 C 171.845 106.718,172.280 107.186,172.280 107.396 C 172.280 107.817,172.706 108.653,173.330 109.456 C 173.551 109.741,173.879 110.557,174.058 111.269 C 174.238 111.982,174.602 112.798,174.867 113.083 C 175.133 113.368,175.432 113.951,175.533 114.378 C 175.633 114.806,175.977 115.507,176.296 115.937 C 176.616 116.367,176.958 117.200,177.058 117.788 C 177.405 119.846,180.182 119.689,143.355 119.689 C 108.544 119.689,109.845 119.733,109.845 118.568 C 109.845 117.940,110.363 116.481,110.649 116.304 C 110.812 116.204,111.161 115.508,111.425 114.759 C 111.689 114.009,112.073 113.209,112.278 112.980 C 112.483 112.752,112.733 112.119,112.834 111.575 C 112.935 111.030,113.280 110.272,113.600 109.891 C 113.920 109.509,114.261 108.832,114.359 108.386 C 114.534 107.583,114.829 107.200,116.037 106.210 C 116.647 105.709,117.181 105.699,143.503 105.699 L 170.346 105.699 171.313 106.356 M281.885 106.457 C 282.302 106.873,282.642 107.378,282.642 107.577 C 282.642 107.777,282.923 108.204,283.265 108.526 C 283.608 108.848,283.968 109.539,284.064 110.061 C 284.161 110.583,284.507 111.361,284.832 111.790 C 285.158 112.219,285.513 112.976,285.622 113.472 C 285.731 113.967,286.084 114.724,286.406 115.153 C 287.182 116.185,287.777 118.803,287.336 119.244 C 286.918 119.662,221.935 119.841,220.847 119.427 C 220.000 119.105,220.057 117.830,220.969 116.671 C 221.262 116.298,221.503 115.757,221.503 115.469 C 221.503 115.181,221.791 114.568,222.143 114.106 C 222.495 113.644,222.893 112.777,223.028 112.178 C 223.162 111.580,223.505 110.839,223.789 110.532 C 224.073 110.225,224.430 109.505,224.583 108.931 C 224.743 108.327,225.301 107.428,225.911 106.794 L 226.962 105.699 254.045 105.699 L 281.128 105.699 281.885 106.457 M179.946 125.286 C 181.719 126.027,182.106 127.348,180.987 128.839 C 180.646 129.292,180.290 130.030,180.195 130.478 C 180.100 130.927,179.800 131.495,179.528 131.741 C 179.256 131.987,178.857 132.794,178.642 133.536 C 178.427 134.277,178.029 135.084,177.757 135.329 C 177.486 135.574,177.194 136.216,177.108 136.756 C 176.762 138.915,179.883 138.721,144.079 138.802 C 107.573 138.884,110.761 139.100,109.809 136.489 C 109.506 135.656,109.161 134.974,109.043 134.974 C 108.925 134.974,108.650 134.372,108.431 133.636 C 108.212 132.900,107.861 132.107,107.650 131.874 C 107.440 131.641,107.092 130.954,106.878 130.346 C 106.663 129.738,106.252 128.941,105.964 128.575 C 104.970 127.311,105.521 125.852,107.254 125.162 C 108.490 124.669,178.757 124.789,179.946 125.286 M290.019 125.121 C 291.303 125.419,291.710 125.960,291.710 127.369 C 291.710 128.461,291.279 129.793,290.926 129.793 C 290.825 129.793,290.488 130.492,290.176 131.347 C 289.865 132.202,289.509 132.902,289.385 132.902 C 289.262 132.902,288.959 133.514,288.713 134.262 C 288.467 135.010,288.050 135.900,287.786 136.240 C 287.522 136.579,287.306 137.001,287.306 137.176 C 287.306 137.351,287.064 137.802,286.769 138.177 L 286.232 138.860 254.246 138.860 L 222.260 138.860 221.220 137.889 C 220.487 137.204,220.105 136.581,219.925 135.780 C 219.785 135.155,219.448 134.361,219.176 134.015 C 218.905 133.670,218.544 132.957,218.376 132.432 C 218.207 131.907,217.903 131.286,217.700 131.052 C 216.185 129.314,215.993 126.233,217.335 125.203 C 217.843 124.813,288.349 124.734,290.019 125.121 M172.083 144.553 C 172.882 145.181,172.581 147.085,171.411 148.806 C 171.034 149.360,170.723 150.001,170.721 150.230 C 170.718 150.460,170.368 151.161,169.943 151.788 C 169.519 152.415,169.169 153.114,169.166 153.342 C 169.162 153.761,167.994 155.705,167.245 156.541 C 166.636 157.222,120.397 157.246,119.645 156.566 C 119.384 156.330,119.171 156.003,119.171 155.839 C 119.171 155.675,118.882 155.150,118.530 154.672 C 118.177 154.193,117.707 153.180,117.486 152.419 C 117.265 151.659,116.977 151.036,116.846 151.036 C 116.715 151.036,116.353 150.337,116.041 149.482 C 115.730 148.627,115.392 147.927,115.292 147.927 C 114.427 147.927,114.249 144.764,115.091 144.358 C 116.326 143.762,171.317 143.950,172.083 144.553 M282.150 144.343 C 283.155 144.687,283.494 145.065,283.159 145.468 C 283.032 145.621,282.799 146.325,282.641 147.031 C 282.483 147.738,282.083 148.608,281.752 148.964 C 281.421 149.320,281.077 150.030,280.986 150.541 C 280.895 151.053,280.543 151.733,280.204 152.052 C 279.825 152.407,279.521 153.068,279.417 153.759 C 279.296 154.570,278.970 155.182,278.255 155.941 L 277.262 156.995 254.296 156.995 C 228.212 156.995,229.878 157.129,229.160 154.968 C 228.923 154.252,228.573 153.538,228.382 153.380 C 228.192 153.222,227.911 152.593,227.757 151.983 C 227.603 151.372,227.243 150.660,226.956 150.401 C 226.670 150.141,226.360 149.529,226.268 149.039 C 226.176 148.550,225.829 147.826,225.497 147.431 C 224.865 146.680,224.580 145.003,225.012 144.578 C 225.590 144.010,280.519 143.784,282.150 144.343 M163.472 162.510 C 164.303 162.930,164.425 163.813,163.767 164.650 C 163.482 165.013,163.167 165.683,163.067 166.139 C 162.968 166.596,162.610 167.298,162.272 167.701 C 161.934 168.104,161.658 168.700,161.658 169.026 C 161.658 169.351,161.308 170.058,160.881 170.596 C 160.453 171.134,160.104 171.726,160.104 171.912 C 160.104 172.099,159.822 172.578,159.478 172.978 L 158.853 173.705 143.870 173.705 C 127.300 173.705,127.578 173.732,126.986 172.034 C 126.860 171.670,126.448 170.919,126.072 170.365 C 125.696 169.811,125.389 169.164,125.389 168.926 C 125.389 168.689,125.092 168.093,124.729 167.602 C 124.366 167.111,123.945 166.218,123.794 165.617 C 123.642 165.015,123.356 164.389,123.158 164.225 C 122.620 163.778,122.720 163.312,123.481 162.713 C 124.326 162.048,162.173 161.856,163.472 162.510 M274.138 162.605 C 274.811 163.214,274.727 164.052,273.834 165.634 C 273.407 166.391,273.057 167.197,273.057 167.425 C 273.057 167.652,272.897 167.998,272.702 168.194 C 272.230 168.666,271.503 170.090,271.503 170.543 C 271.503 170.742,271.256 171.185,270.955 171.528 C 270.654 171.870,270.113 172.532,269.754 172.998 L 269.100 173.846 254.174 173.775 L 239.249 173.705 238.298 172.977 C 237.666 172.494,237.192 171.820,236.887 170.969 C 236.633 170.265,236.346 169.689,236.248 169.689 C 236.151 169.689,235.800 169.019,235.470 168.199 C 235.139 167.380,234.721 166.559,234.540 166.374 C 234.359 166.190,234.079 165.549,233.918 164.949 C 233.758 164.350,233.581 163.786,233.527 163.696 C 233.472 163.606,233.667 163.227,233.960 162.854 L 234.494 162.176 254.079 162.176 C 271.939 162.176,273.706 162.214,274.138 162.605 M155.181 178.735 C 156.128 179.006,155.416 184.197,154.433 184.197 C 154.327 184.197,154.035 184.845,153.786 185.637 C 153.536 186.429,153.176 187.137,152.985 187.210 C 152.794 187.283,152.560 187.655,152.464 188.037 C 152.057 189.671,152.240 189.637,143.670 189.637 C 135.103 189.637,134.920 189.606,134.588 188.095 C 134.496 187.674,134.193 187.041,133.914 186.687 C 133.636 186.333,133.233 185.547,133.019 184.939 C 132.804 184.331,132.469 183.653,132.273 183.433 C 131.269 182.300,131.035 179.124,131.930 178.765 C 132.614 178.490,154.229 178.462,155.181 178.735 M266.079 178.766 C 266.754 179.127,266.749 180.663,266.069 181.527 C 265.788 181.884,265.479 182.602,265.384 183.122 C 265.288 183.642,264.945 184.385,264.622 184.774 C 264.298 185.162,263.950 185.861,263.849 186.328 C 263.681 187.098,263.161 187.926,262.056 189.184 C 261.695 189.596,260.984 189.637,254.313 189.637 C 245.760 189.637,245.558 189.599,244.913 187.868 C 244.666 187.203,244.251 186.380,243.992 186.039 C 243.734 185.699,243.353 184.850,243.145 184.151 C 242.938 183.453,242.530 182.579,242.239 182.209 C 241.588 181.382,241.519 179.503,242.117 178.905 C 242.613 178.409,265.168 178.278,266.079 178.766 M148.262 195.698 L 148.985 196.188 148.445 196.762 C 148.149 197.078,147.781 197.789,147.628 198.342 C 147.476 198.895,147.087 199.661,146.765 200.044 C 146.442 200.427,146.097 201.186,145.996 201.730 C 145.896 202.275,145.545 203.012,145.216 203.368 C 144.887 203.724,144.542 204.267,144.449 204.575 C 144.264 205.188,143.715 205.498,143.178 205.292 C 142.873 205.175,141.841 203.283,140.574 200.518 C 140.346 200.019,140.052 199.437,139.922 199.223 C 137.647 195.491,138.045 195.086,143.912 195.161 C 146.990 195.201,147.648 195.282,148.262 195.698 M258.772 195.692 C 259.312 196.181,258.968 197.668,258.314 197.668 C 258.192 197.668,257.960 198.195,257.798 198.839 C 257.636 199.483,257.275 200.238,256.996 200.517 C 256.718 200.795,256.420 201.347,256.335 201.742 C 255.582 205.239,252.992 206.460,252.456 203.571 C 252.358 203.041,252.005 202.291,251.671 201.903 C 251.338 201.515,250.991 200.760,250.901 200.225 C 250.811 199.690,250.564 199.109,250.353 198.935 C 249.276 198.041,248.965 196.070,249.806 195.463 C 250.710 194.810,258.003 194.996,258.772 195.692 " stroke="none" fill="#683996" fill-rule="evenodd"></path><path id="path1" d="M0.000 129.534 L 0.000 259.067 200.000 259.067 L 400.000 259.067 400.000 129.534 L 400.000 0.000 200.000 0.000 L 0.000 0.000 0.000 129.534 M143.782 32.215 C 143.782 32.407,144.114 33.023,144.520 33.583 C 144.926 34.143,145.339 35.032,145.437 35.557 C 145.536 36.083,145.888 36.837,146.220 37.233 C 146.552 37.629,146.907 38.335,147.009 38.802 C 147.111 39.268,147.461 39.968,147.786 40.356 C 148.112 40.744,148.462 41.444,148.564 41.910 C 148.665 42.377,149.013 43.076,149.337 43.465 C 149.660 43.853,150.010 44.633,150.114 45.199 C 150.218 45.764,150.531 46.545,150.809 46.936 C 151.087 47.326,151.446 48.030,151.607 48.499 C 151.768 48.968,152.156 49.702,152.470 50.130 C 152.784 50.557,153.121 51.243,153.218 51.655 C 153.316 52.066,153.666 52.765,153.997 53.209 C 154.328 53.653,154.681 54.477,154.782 55.040 C 154.883 55.604,155.238 56.388,155.570 56.783 C 155.902 57.178,156.257 57.882,156.359 58.349 C 156.461 58.815,156.810 59.515,157.136 59.903 C 157.462 60.292,157.811 60.991,157.913 61.458 C 158.015 61.924,158.370 62.630,158.702 63.026 C 159.034 63.422,159.383 64.180,159.478 64.710 C 159.572 65.240,159.921 66.037,160.251 66.480 C 160.582 66.924,160.933 67.623,161.031 68.035 C 161.128 68.446,161.472 69.138,161.795 69.572 C 162.118 70.007,162.501 70.792,162.646 71.317 C 162.791 71.842,163.149 72.577,163.443 72.950 C 163.736 73.323,164.054 74.053,164.150 74.573 C 164.245 75.093,164.588 75.836,164.912 76.224 C 165.235 76.613,165.581 77.312,165.680 77.779 C 165.778 78.245,166.076 78.863,166.340 79.152 C 166.605 79.441,166.998 80.178,167.214 80.788 C 167.429 81.399,167.828 82.182,168.100 82.528 C 168.372 82.873,168.675 83.594,168.774 84.130 C 168.873 84.665,169.163 85.337,169.419 85.622 C 169.675 85.907,170.030 86.606,170.207 87.176 C 170.385 87.746,170.735 88.446,170.984 88.731 C 171.234 89.016,171.584 89.715,171.762 90.285 C 171.939 90.855,172.292 91.554,172.546 91.839 C 172.801 92.124,173.189 92.974,173.410 93.728 C 173.631 94.481,174.050 95.400,174.341 95.770 C 174.632 96.140,174.870 96.643,174.870 96.887 C 174.870 97.131,175.218 97.844,175.643 98.471 C 176.068 99.098,176.418 99.798,176.420 100.026 C 176.423 100.254,176.772 100.953,177.197 101.580 C 177.622 102.207,177.972 102.910,177.975 103.142 C 177.982 103.782,178.675 105.310,179.130 105.687 C 179.352 105.871,179.534 106.247,179.534 106.521 C 179.534 107.142,180.142 108.346,180.682 108.794 C 180.906 108.979,181.088 109.390,181.088 109.708 C 181.088 110.025,181.436 110.798,181.861 111.425 C 182.285 112.052,182.635 112.775,182.638 113.031 C 182.644 113.627,183.266 114.835,183.791 115.271 C 184.014 115.456,184.197 115.856,184.198 116.159 C 184.198 116.462,184.430 117.060,184.712 117.487 C 185.659 118.920,185.720 119.039,185.865 119.734 C 185.945 120.115,186.284 120.756,186.618 121.159 C 186.953 121.562,187.292 122.307,187.372 122.816 C 187.452 123.325,187.830 124.199,188.212 124.759 C 189.109 126.075,189.084 128.851,188.165 129.845 C 187.862 130.172,187.460 130.962,187.272 131.600 C 187.084 132.238,186.724 132.965,186.474 133.216 C 186.223 133.466,185.942 134.143,185.850 134.719 C 185.758 135.295,185.348 136.187,184.940 136.701 C 184.531 137.215,184.197 137.895,184.197 138.212 C 184.197 138.529,183.847 139.229,183.420 139.767 C 182.992 140.305,182.642 141.011,182.642 141.337 C 182.642 141.663,182.356 142.270,182.005 142.687 C 181.654 143.103,181.264 143.899,181.138 144.455 C 181.012 145.011,180.599 145.920,180.221 146.474 C 179.843 147.028,179.532 147.669,179.529 147.899 C 179.526 148.128,179.177 148.829,178.752 149.456 C 178.327 150.083,177.979 150.796,177.979 151.040 C 177.979 151.285,177.733 151.798,177.432 152.181 C 177.131 152.563,176.735 153.371,176.553 153.976 C 176.372 154.580,175.919 155.523,175.547 156.071 C 175.175 156.619,174.870 157.261,174.870 157.499 C 174.870 157.736,174.579 158.325,174.223 158.808 C 173.867 159.291,173.575 159.880,173.575 160.118 C 173.575 160.355,173.270 160.999,172.897 161.549 C 172.523 162.099,172.046 163.136,171.836 163.852 C 171.626 164.569,171.256 165.389,171.013 165.674 C 170.771 165.959,170.418 166.658,170.228 167.228 C 170.039 167.798,169.704 168.470,169.483 168.722 C 169.263 168.974,168.870 169.783,168.611 170.519 C 168.352 171.255,168.035 171.923,167.906 172.004 C 167.778 172.084,167.486 172.783,167.257 173.555 C 167.028 174.328,166.613 175.173,166.334 175.433 C 166.055 175.692,165.754 176.295,165.664 176.771 C 165.575 177.248,165.233 177.951,164.904 178.333 C 164.576 178.715,164.180 179.534,164.024 180.152 C 163.869 180.769,163.569 181.417,163.359 181.592 C 163.149 181.766,162.800 182.520,162.583 183.266 C 162.366 184.013,161.964 184.827,161.690 185.075 C 161.416 185.323,161.117 185.923,161.026 186.408 C 160.935 186.893,160.588 187.614,160.256 188.011 C 159.924 188.407,159.564 189.137,159.455 189.635 C 159.347 190.132,158.998 190.890,158.679 191.319 C 158.361 191.748,158.029 192.483,157.940 192.952 C 157.852 193.422,157.487 194.191,157.128 194.661 C 156.770 195.131,156.477 195.685,156.477 195.893 C 156.477 196.101,156.127 196.823,155.699 197.497 C 155.272 198.171,154.922 198.871,154.922 199.052 C 154.922 199.232,154.590 199.905,154.184 200.545 C 153.777 201.186,153.365 202.138,153.267 202.661 C 153.168 203.184,152.823 203.936,152.500 204.332 C 152.176 204.728,151.774 205.528,151.606 206.111 C 151.437 206.693,151.066 207.381,150.779 207.640 C 150.493 207.899,150.259 208.285,150.259 208.497 C 150.259 208.710,149.851 209.732,149.352 210.769 C 148.854 211.805,148.446 212.833,148.446 213.053 C 148.446 213.272,148.225 213.660,147.956 213.915 C 147.686 214.170,147.273 214.952,147.037 215.654 C 146.801 216.356,146.448 217.055,146.253 217.208 C 146.058 217.362,145.720 218.026,145.502 218.686 C 145.284 219.345,144.808 220.323,144.444 220.859 C 144.080 221.395,143.782 221.986,143.782 222.171 C 143.782 223.012,143.259 222.706,142.990 221.707 C 142.827 221.099,142.461 220.276,142.178 219.878 C 141.895 219.481,141.548 218.736,141.406 218.223 C 141.265 217.710,140.923 217.048,140.648 216.752 C 140.372 216.456,140.024 215.758,139.874 215.201 C 139.724 214.644,139.374 213.944,139.097 213.647 C 138.819 213.349,138.465 212.634,138.310 212.058 C 138.155 211.482,137.762 210.544,137.437 209.974 C 137.111 209.404,136.707 208.501,136.537 207.966 C 136.368 207.432,136.128 206.995,136.004 206.995 C 135.880 206.995,135.524 206.295,135.212 205.440 C 134.901 204.585,134.553 203.886,134.440 203.886 C 134.327 203.886,133.993 203.241,133.698 202.453 C 133.403 201.665,133.000 200.761,132.801 200.445 C 132.603 200.129,132.297 199.404,132.121 198.834 C 131.945 198.264,131.597 197.565,131.347 197.280 C 131.097 196.995,130.748 196.295,130.570 195.725 C 130.392 195.155,130.028 194.449,129.761 194.155 C 129.494 193.861,129.096 193.016,128.876 192.277 C 128.657 191.537,128.375 190.933,128.249 190.933 C 128.124 190.933,127.822 190.321,127.579 189.573 C 127.336 188.824,126.933 187.979,126.683 187.694 C 126.434 187.409,126.084 186.710,125.907 186.140 C 125.729 185.570,125.374 184.870,125.117 184.585 C 124.860 184.301,124.565 183.718,124.462 183.290 C 124.359 182.863,123.943 181.884,123.536 181.116 C 123.130 180.348,122.798 179.543,122.798 179.327 C 122.798 179.112,122.529 178.574,122.200 178.133 C 121.871 177.692,121.399 176.787,121.150 176.121 C 120.902 175.456,120.537 174.777,120.340 174.614 C 120.143 174.450,119.903 173.946,119.808 173.492 C 119.712 173.039,119.297 172.071,118.885 171.342 C 118.472 170.612,118.133 169.854,118.130 169.658 C 118.127 169.461,117.778 168.788,117.353 168.160 C 116.928 167.533,116.578 166.834,116.576 166.606 C 116.573 166.378,116.223 165.679,115.798 165.052 C 115.374 164.425,115.026 163.712,115.026 163.469 C 115.026 163.225,114.740 162.604,114.390 162.088 C 114.040 161.572,113.631 160.697,113.482 160.143 C 113.333 159.588,112.968 158.826,112.671 158.449 C 112.375 158.072,112.014 157.329,111.870 156.796 C 111.726 156.264,111.376 155.578,111.093 155.271 C 110.810 154.964,110.469 154.228,110.336 153.635 C 110.203 153.043,109.864 152.312,109.584 152.011 C 109.303 151.710,109.000 151.068,108.909 150.584 C 108.818 150.100,108.478 149.388,108.154 149.003 C 107.829 148.617,107.436 147.828,107.281 147.249 C 107.125 146.670,106.775 145.996,106.505 145.751 C 106.234 145.505,105.875 144.758,105.707 144.090 C 105.539 143.422,105.254 142.701,105.074 142.487 C 104.894 142.273,104.481 141.428,104.157 140.609 C 103.832 139.790,103.492 139.119,103.401 139.119 C 103.310 139.119,102.964 138.420,102.633 137.565 C 102.301 136.710,101.939 136.010,101.828 136.010 C 101.716 136.010,101.419 135.340,101.167 134.521 C 100.914 133.701,100.552 132.850,100.361 132.630 C 100.170 132.409,99.842 131.743,99.633 131.150 C 99.424 130.556,98.984 129.707,98.655 129.263 C 97.839 128.159,97.832 126.309,98.640 125.282 C 98.961 124.874,99.394 123.969,99.601 123.271 C 99.808 122.572,100.216 121.698,100.507 121.328 C 100.798 120.958,101.036 120.456,101.036 120.211 C 101.036 119.967,101.384 119.254,101.809 118.627 C 102.234 118.000,102.583 117.333,102.586 117.145 C 102.589 116.957,102.937 116.141,103.360 115.331 C 103.784 114.522,104.189 113.561,104.260 113.195 C 104.332 112.830,104.627 112.258,104.916 111.924 C 105.206 111.590,105.558 110.888,105.699 110.363 C 105.841 109.838,106.191 109.138,106.477 108.808 C 106.763 108.478,107.116 107.766,107.262 107.225 C 107.407 106.684,107.680 106.088,107.867 105.900 C 108.382 105.386,108.808 104.498,108.808 103.942 C 108.808 103.669,109.156 102.933,109.581 102.306 C 110.006 101.679,110.355 100.979,110.358 100.751 C 110.361 100.524,110.710 99.824,111.135 99.197 C 111.560 98.570,111.910 97.869,111.912 97.640 C 111.915 97.410,112.209 96.792,112.567 96.265 C 112.924 95.739,113.314 94.877,113.434 94.351 C 113.553 93.825,113.961 92.940,114.339 92.386 C 114.717 91.832,115.028 91.191,115.031 90.961 C 115.033 90.732,115.383 90.031,115.808 89.404 C 116.233 88.777,116.582 88.078,116.585 87.850 C 116.588 87.622,116.928 86.937,117.341 86.327 C 117.754 85.718,118.168 84.767,118.261 84.213 C 118.355 83.660,118.657 83.003,118.932 82.754 C 119.207 82.505,119.560 81.827,119.716 81.248 C 119.872 80.669,120.269 79.874,120.599 79.482 C 120.930 79.090,121.283 78.387,121.385 77.921 C 121.486 77.454,121.829 76.763,122.147 76.384 C 122.464 76.006,122.801 75.217,122.894 74.632 C 122.988 74.047,123.289 73.343,123.564 73.068 C 123.839 72.793,124.206 72.066,124.380 71.453 C 124.554 70.839,124.856 70.204,125.051 70.043 C 125.247 69.881,125.625 69.127,125.893 68.366 C 126.161 67.606,126.506 66.942,126.660 66.890 C 126.815 66.839,127.129 66.136,127.360 65.329 C 127.590 64.521,127.984 63.627,128.236 63.342 C 128.487 63.057,128.838 62.358,129.016 61.788 C 129.193 61.218,129.543 60.518,129.793 60.233 C 130.043 59.948,130.392 59.249,130.570 58.679 C 130.748 58.109,131.094 57.409,131.340 57.124 C 131.587 56.839,131.936 56.055,132.118 55.381 C 132.299 54.706,132.602 54.027,132.790 53.871 C 132.978 53.715,133.320 53.022,133.549 52.332 C 133.779 51.641,134.128 50.942,134.326 50.777 C 134.525 50.613,134.873 49.918,135.100 49.233 C 135.328 48.549,135.733 47.790,136.000 47.548 C 136.268 47.306,136.627 46.505,136.799 45.769 C 136.971 45.032,137.315 44.197,137.565 43.912 C 137.815 43.627,138.164 42.927,138.342 42.358 C 138.520 41.788,138.869 41.088,139.119 40.803 C 139.369 40.518,139.719 39.819,139.896 39.249 C 140.074 38.679,140.448 37.962,140.727 37.655 C 141.006 37.348,141.298 36.620,141.376 36.037 C 141.455 35.454,141.784 34.690,142.108 34.341 C 142.432 33.991,142.834 33.291,143.001 32.785 C 143.299 31.881,143.782 31.529,143.782 32.215 M254.423 32.915 C 254.917 33.267,255.299 33.882,255.553 34.737 C 255.763 35.447,256.166 36.352,256.448 36.747 C 256.730 37.143,257.045 37.809,257.148 38.228 C 257.252 38.647,257.600 39.339,257.922 39.767 C 258.245 40.194,258.595 40.894,258.700 41.321 C 258.805 41.749,259.162 42.458,259.495 42.897 C 259.827 43.337,260.174 44.094,260.266 44.581 C 260.357 45.068,260.690 45.816,261.004 46.244 C 261.319 46.671,261.655 47.340,261.751 47.731 C 261.847 48.122,262.274 48.990,262.699 49.660 C 263.124 50.330,263.472 51.066,263.472 51.296 C 263.472 51.525,263.762 52.106,264.116 52.586 C 264.471 53.067,264.837 53.877,264.931 54.386 C 265.024 54.894,265.365 55.629,265.689 56.017 C 266.013 56.406,266.361 57.105,266.462 57.572 C 266.564 58.038,266.919 58.744,267.251 59.140 C 267.583 59.536,267.930 60.257,268.021 60.742 C 268.112 61.227,268.404 61.821,268.669 62.062 C 268.935 62.302,269.342 63.150,269.573 63.945 C 269.804 64.740,270.145 65.512,270.330 65.662 C 270.515 65.811,270.861 66.535,271.098 67.270 C 271.335 68.006,271.673 68.663,271.848 68.730 C 272.023 68.797,272.369 69.495,272.617 70.281 C 272.865 71.067,273.221 71.769,273.410 71.842 C 273.598 71.914,273.951 72.680,274.193 73.544 C 274.436 74.408,274.794 75.275,274.989 75.470 C 275.184 75.665,275.487 76.306,275.664 76.895 C 275.840 77.483,276.179 78.174,276.417 78.430 C 276.655 78.685,276.991 79.300,277.164 79.795 C 277.337 80.291,277.753 81.105,278.089 81.605 C 278.425 82.104,278.773 82.929,278.861 83.438 C 278.949 83.947,279.312 84.757,279.666 85.237 C 280.021 85.718,280.311 86.304,280.311 86.540 C 280.311 86.776,280.659 87.482,281.083 88.109 C 281.508 88.736,281.858 89.435,281.861 89.663 C 281.863 89.891,282.213 90.590,282.638 91.217 C 283.063 91.845,283.412 92.602,283.415 92.901 C 283.418 93.201,283.767 93.958,284.192 94.585 C 284.617 95.212,284.967 95.912,284.969 96.140 C 284.972 96.368,285.322 97.067,285.747 97.694 C 286.171 98.321,286.521 99.022,286.524 99.251 C 286.526 99.481,286.838 100.122,287.216 100.676 C 287.594 101.230,288.006 102.137,288.132 102.691 C 288.258 103.245,288.589 103.989,288.869 104.344 C 289.148 104.699,289.500 105.447,289.650 106.006 C 289.801 106.565,290.148 107.247,290.423 107.522 C 290.698 107.796,291.055 108.548,291.217 109.192 C 291.380 109.836,291.612 110.363,291.734 110.363 C 292.037 110.363,292.642 111.594,292.879 112.692 C 292.986 113.189,293.334 113.947,293.653 114.376 C 293.972 114.805,294.312 115.492,294.410 115.903 C 294.507 116.315,294.857 117.014,295.187 117.458 C 295.517 117.901,295.867 118.601,295.964 119.012 C 296.062 119.423,296.412 120.123,296.741 120.566 C 297.071 121.010,297.422 121.723,297.521 122.150 C 297.620 122.578,297.989 123.347,298.340 123.859 C 299.498 125.548,299.493 129.124,298.330 130.506 C 297.998 130.900,297.608 131.655,297.462 132.184 C 297.316 132.713,296.965 133.471,296.682 133.868 C 296.399 134.265,296.039 135.066,295.883 135.648 C 295.726 136.229,295.376 136.906,295.106 137.151 C 294.835 137.396,294.488 138.093,294.336 138.699 C 294.183 139.305,293.828 140.010,293.546 140.264 C 293.265 140.519,292.959 141.094,292.867 141.542 C 292.774 141.991,292.433 142.770,292.107 143.274 C 291.782 143.778,291.435 144.561,291.335 145.014 C 291.236 145.467,290.897 146.220,290.582 146.688 C 290.267 147.156,289.803 148.083,289.550 148.749 C 289.298 149.415,288.923 150.099,288.717 150.270 C 288.511 150.442,288.342 150.713,288.342 150.875 C 288.342 151.036,287.934 152.009,287.435 153.037 C 286.937 154.065,286.528 155.134,286.528 155.414 C 286.528 155.693,286.378 156.076,286.194 156.264 C 285.487 156.988,284.974 157.910,284.974 158.459 C 284.974 158.773,284.824 159.184,284.640 159.373 C 283.954 160.074,283.420 161.012,283.415 161.521 C 283.412 161.810,283.063 162.560,282.638 163.187 C 282.213 163.814,281.865 164.582,281.865 164.895 C 281.865 165.208,281.574 165.802,281.218 166.216 C 280.862 166.630,280.500 167.344,280.413 167.802 C 280.327 168.261,279.986 168.950,279.656 169.334 C 279.326 169.719,278.929 170.534,278.775 171.147 C 278.621 171.759,278.204 172.689,277.848 173.213 C 277.493 173.737,277.200 174.353,277.197 174.583 C 277.195 174.812,276.845 175.513,276.420 176.140 C 275.995 176.767,275.648 177.480,275.648 177.724 C 275.648 177.969,275.418 178.460,275.138 178.816 C 274.858 179.172,274.438 180.033,274.205 180.729 C 273.971 181.425,273.626 182.170,273.437 182.383 C 273.249 182.597,272.899 183.355,272.661 184.067 C 272.423 184.780,272.030 185.596,271.789 185.881 C 271.547 186.166,271.195 186.865,271.006 187.435 C 270.818 188.005,270.462 188.705,270.215 188.990 C 269.968 189.275,269.618 190.059,269.436 190.733 C 269.255 191.408,268.952 192.087,268.764 192.243 C 268.576 192.399,268.235 193.092,268.005 193.782 C 267.776 194.473,267.426 195.172,267.228 195.337 C 267.030 195.501,266.680 196.201,266.451 196.891 C 266.221 197.582,265.872 198.281,265.674 198.446 C 265.475 198.610,265.117 199.348,264.877 200.085 C 264.637 200.822,264.276 201.615,264.073 201.848 C 263.871 202.080,263.583 202.721,263.434 203.272 C 263.284 203.824,262.900 204.624,262.580 205.052 C 262.261 205.479,261.913 206.179,261.808 206.606 C 261.704 207.034,261.344 207.743,261.010 208.182 C 260.676 208.621,260.324 209.401,260.227 209.916 C 260.131 210.430,259.772 211.230,259.430 211.693 C 259.088 212.157,258.808 212.729,258.808 212.965 C 258.808 213.201,258.461 213.907,258.036 214.534 C 257.611 215.161,257.261 215.861,257.259 216.091 C 257.256 216.320,256.949 216.958,256.575 217.508 C 256.202 218.058,255.735 219.052,255.538 219.716 C 255.293 220.540,254.896 221.140,254.291 221.602 C 253.315 222.347,253.348 222.374,252.985 220.563 C 252.896 220.118,252.537 219.366,252.189 218.894 C 251.840 218.421,251.554 217.840,251.554 217.602 C 251.554 217.365,251.246 216.717,250.869 216.163 C 250.492 215.609,250.071 214.749,249.933 214.251 C 249.795 213.754,249.421 213.036,249.101 212.656 C 248.781 212.276,248.446 211.508,248.357 210.949 C 248.268 210.389,247.956 209.716,247.664 209.452 C 247.372 209.188,247.009 208.476,246.856 207.870 C 246.704 207.264,246.357 206.567,246.086 206.322 C 245.815 206.077,245.467 205.399,245.313 204.816 C 245.158 204.233,244.799 203.505,244.514 203.198 C 244.230 202.891,243.887 202.146,243.751 201.543 C 243.616 200.940,243.276 200.156,242.997 199.801 C 242.717 199.446,242.366 198.698,242.215 198.139 C 242.065 197.580,241.722 196.903,241.454 196.635 C 241.186 196.367,240.859 195.761,240.728 195.289 C 240.597 194.817,240.195 193.997,239.835 193.467 C 239.475 192.938,239.099 192.073,239.000 191.546 C 238.901 191.018,238.551 190.228,238.221 189.788 C 237.891 189.349,237.543 188.619,237.447 188.166 C 237.351 187.712,237.111 187.208,236.914 187.044 C 236.717 186.881,236.353 186.202,236.105 185.537 C 235.857 184.871,235.441 184.046,235.180 183.703 C 234.919 183.360,234.528 182.466,234.310 181.717 C 234.092 180.967,233.751 180.219,233.551 180.054 C 233.352 179.888,233.001 179.188,232.772 178.497 C 232.543 177.807,232.193 177.107,231.994 176.942 C 231.795 176.777,231.498 176.215,231.333 175.692 C 231.167 175.169,230.764 174.333,230.437 173.834 C 230.109 173.335,229.760 172.519,229.660 172.021 C 229.560 171.522,229.272 170.881,229.019 170.596 C 228.767 170.311,228.416 169.611,228.238 169.041 C 228.061 168.472,227.711 167.772,227.461 167.487 C 227.211 167.202,226.862 166.503,226.684 165.933 C 226.506 165.363,226.153 164.663,225.898 164.378 C 225.643 164.093,225.311 163.394,225.159 162.824 C 225.007 162.254,224.710 161.541,224.497 161.239 C 224.285 160.937,223.866 160.033,223.566 159.231 C 223.265 158.428,222.927 157.772,222.814 157.772 C 222.701 157.772,222.353 157.073,222.042 156.218 C 221.730 155.363,221.368 154.663,221.237 154.663 C 221.106 154.663,220.815 154.030,220.590 153.257 C 220.365 152.483,219.965 151.576,219.701 151.240 C 219.437 150.904,219.094 150.157,218.938 149.579 C 218.782 149.001,218.433 148.327,218.163 148.082 C 217.892 147.837,217.545 147.140,217.393 146.534 C 217.240 145.928,216.880 145.220,216.594 144.960 C 216.307 144.701,215.996 144.067,215.903 143.553 C 215.705 142.458,215.109 141.192,214.791 141.192 C 214.669 141.192,214.437 140.665,214.274 140.021 C 214.112 139.377,213.755 138.625,213.480 138.351 C 213.205 138.076,212.860 137.405,212.714 136.859 C 212.567 136.314,212.152 135.469,211.793 134.982 C 211.434 134.495,211.140 133.778,211.140 133.389 C 211.140 133.000,210.860 132.350,210.518 131.943 C 210.176 131.536,209.768 130.730,209.612 130.151 C 209.456 129.572,209.095 128.886,208.809 128.628 C 208.092 127.979,208.146 126.721,208.938 125.648 C 209.294 125.165,209.585 124.519,209.585 124.211 C 209.585 123.904,209.933 123.140,210.358 122.513 C 210.783 121.886,211.136 121.140,211.142 120.855 C 211.149 120.570,211.501 119.879,211.924 119.319 C 212.348 118.759,212.696 118.060,212.699 117.765 C 212.702 117.470,213.051 116.715,213.476 116.088 C 213.901 115.461,214.251 114.703,214.253 114.404 C 214.256 114.105,214.606 113.347,215.031 112.720 C 215.455 112.093,215.805 111.394,215.808 111.166 C 215.810 110.938,216.160 110.238,216.585 109.611 C 217.010 108.984,217.360 108.285,217.362 108.057 C 217.365 107.829,217.705 107.144,218.118 106.535 C 218.531 105.925,218.945 104.974,219.039 104.420 C 219.132 103.867,219.437 103.207,219.716 102.955 C 219.995 102.702,220.349 101.999,220.501 101.393 C 220.654 100.787,221.000 100.090,221.271 99.845 C 221.542 99.600,221.891 98.926,222.047 98.347 C 222.203 97.768,222.596 96.978,222.921 96.593 C 223.245 96.207,223.590 95.361,223.688 94.712 C 223.785 94.063,224.033 93.438,224.238 93.323 C 224.444 93.208,224.830 92.493,225.097 91.735 C 225.365 90.976,225.715 90.274,225.877 90.174 C 226.038 90.074,226.378 89.405,226.631 88.686 C 226.884 87.968,227.271 87.200,227.492 86.979 C 227.712 86.758,228.098 85.926,228.349 85.128 C 228.600 84.331,228.901 83.679,229.019 83.679 C 229.137 83.679,229.432 83.067,229.675 82.319 C 229.918 81.571,230.321 80.725,230.570 80.440 C 230.820 80.155,231.170 79.456,231.347 78.886 C 231.525 78.316,231.878 77.617,232.132 77.332 C 232.386 77.047,232.741 76.289,232.922 75.648 C 233.102 75.006,233.402 74.301,233.587 74.080 C 233.772 73.860,234.105 73.166,234.326 72.539 C 234.548 71.912,234.897 71.212,235.104 70.984 C 235.310 70.757,235.660 70.057,235.881 69.430 C 236.102 68.803,236.463 68.091,236.683 67.848 C 236.903 67.605,237.246 66.865,237.445 66.203 C 237.644 65.542,238.028 64.686,238.297 64.301 C 238.567 63.916,238.935 63.135,239.115 62.565 C 239.295 61.995,239.646 61.295,239.896 61.010 C 240.146 60.725,240.496 60.026,240.674 59.456 C 240.851 58.886,241.208 58.187,241.467 57.902 C 241.726 57.617,242.050 56.880,242.189 56.264 C 242.327 55.648,242.634 54.930,242.870 54.669 C 243.107 54.408,243.468 53.635,243.674 52.952 C 243.879 52.270,244.269 51.472,244.539 51.179 C 244.810 50.887,245.162 50.156,245.321 49.556 C 245.480 48.956,245.835 48.307,246.109 48.115 C 246.383 47.923,246.715 47.287,246.847 46.701 C 246.978 46.116,247.322 45.306,247.610 44.901 C 247.897 44.497,248.261 43.690,248.418 43.109 C 248.574 42.527,248.934 41.842,249.217 41.586 C 249.499 41.330,249.803 40.735,249.891 40.264 C 249.980 39.794,250.334 39.026,250.679 38.558 C 251.024 38.091,251.432 37.243,251.585 36.674 C 251.738 36.105,252.085 35.358,252.356 35.014 C 252.626 34.670,252.969 33.937,253.118 33.386 C 253.432 32.220,253.442 32.217,254.423 32.915 M142.667 49.685 C 142.426 49.952,142.228 50.291,142.228 50.439 C 142.228 50.587,142.008 50.988,141.738 51.330 C 141.469 51.672,141.097 52.475,140.912 53.114 C 140.727 53.752,140.371 54.544,140.121 54.874 C 139.871 55.203,139.529 55.889,139.361 56.399 C 139.193 56.908,138.779 57.733,138.440 58.232 C 137.607 59.459,137.587 61.204,138.400 61.773 C 139.260 62.376,147.660 62.363,148.584 61.758 C 149.604 61.089,149.392 58.693,148.197 57.383 C 147.937 57.098,147.645 56.492,147.549 56.035 C 147.452 55.579,147.134 54.902,146.842 54.530 C 146.550 54.159,146.201 53.366,146.067 52.769 C 145.933 52.172,145.581 51.426,145.285 51.111 C 144.989 50.795,144.614 50.271,144.452 49.945 C 144.075 49.186,143.230 49.063,142.667 49.685 M252.750 50.104 C 252.520 50.589,252.332 51.086,252.332 51.210 C 252.332 51.333,252.056 51.840,251.719 52.336 C 251.382 52.832,251.019 53.633,250.913 54.116 C 250.807 54.599,250.383 55.525,249.972 56.175 C 249.560 56.824,249.223 57.550,249.223 57.788 C 249.223 58.026,248.990 58.517,248.705 58.879 C 248.082 59.670,248.023 61.199,248.594 61.769 C 249.181 62.356,257.516 62.365,258.916 61.780 C 259.822 61.402,259.858 61.339,259.703 60.420 C 259.438 58.836,259.031 57.674,258.550 57.124 C 258.300 56.839,257.900 56.003,257.661 55.266 C 257.421 54.529,257.070 53.797,256.880 53.639 C 256.690 53.481,256.397 52.809,256.230 52.145 C 255.625 49.740,253.511 48.500,252.750 50.104 M134.517 67.550 C 133.729 68.060,133.341 68.526,133.163 69.178 C 133.025 69.680,132.633 70.470,132.292 70.933 C 131.950 71.397,131.599 72.219,131.513 72.761 C 131.426 73.302,131.120 74.017,130.832 74.349 C 130.544 74.681,130.193 75.382,130.052 75.907 C 129.910 76.432,129.561 77.131,129.275 77.461 C 128.336 78.543,128.087 80.080,128.760 80.625 C 129.641 81.338,157.403 81.340,158.284 80.627 C 158.992 80.054,158.809 78.587,157.895 77.500 C 157.570 77.115,157.177 76.326,157.021 75.747 C 156.866 75.167,156.503 74.481,156.215 74.220 C 155.927 73.960,155.619 73.293,155.530 72.738 C 155.442 72.183,155.077 71.299,154.719 70.774 C 154.362 70.248,153.966 69.445,153.839 68.988 C 153.303 67.053,152.934 66.977,143.782 66.902 L 135.622 66.836 134.517 67.550 M244.635 67.928 C 244.035 68.540,243.362 69.560,243.139 70.194 C 242.915 70.829,242.570 71.528,242.371 71.749 C 242.172 71.970,241.923 72.500,241.817 72.927 C 241.711 73.355,240.939 75.033,240.101 76.656 C 237.641 81.421,236.589 81.080,253.756 81.083 C 269.620 81.086,270.784 80.947,269.197 79.243 C 268.901 78.925,268.587 78.282,268.499 77.813 C 268.411 77.344,268.060 76.636,267.719 76.239 C 267.378 75.843,267.027 75.138,266.940 74.674 C 266.852 74.210,266.578 73.568,266.330 73.249 C 266.082 72.930,265.730 72.202,265.549 71.632 C 265.198 70.528,264.219 68.801,263.300 67.663 L 262.740 66.969 254.233 66.892 L 245.725 66.815 244.635 67.928 M125.648 86.713 C 124.701 86.891,124.128 87.509,123.808 88.700 C 123.652 89.279,123.259 90.068,122.934 90.454 C 122.610 90.839,122.266 91.575,122.169 92.088 C 122.073 92.601,121.709 93.442,121.360 93.956 C 121.011 94.470,120.723 95.079,120.721 95.308 C 120.718 95.538,120.368 96.238,119.943 96.865 C 119.035 98.207,118.886 99.856,119.624 100.417 C 120.204 100.856,166.099 100.948,167.247 100.511 C 168.229 100.138,168.033 97.964,166.857 96.189 C 166.420 95.529,166.062 94.798,166.062 94.566 C 166.062 94.333,165.783 93.764,165.442 93.301 C 165.101 92.839,164.695 91.958,164.541 91.344 C 164.386 90.730,164.089 90.086,163.880 89.913 C 163.671 89.739,163.313 89.034,163.084 88.345 C 162.855 87.656,162.470 86.994,162.228 86.875 C 161.773 86.651,126.799 86.496,125.648 86.713 M235.967 86.741 C 235.367 86.985,233.938 88.837,233.938 89.369 C 233.938 89.610,233.602 90.323,233.192 90.953 C 232.782 91.583,232.369 92.536,232.274 93.071 C 232.178 93.606,231.885 94.247,231.621 94.496 C 231.357 94.745,230.995 95.442,230.816 96.045 C 230.637 96.648,230.275 97.337,230.012 97.575 C 229.459 98.076,229.349 99.971,229.845 100.466 C 230.703 101.325,278.497 100.815,278.497 99.947 C 278.497 99.124,277.604 96.423,277.182 95.968 C 276.908 95.674,276.509 94.843,276.295 94.121 C 276.081 93.399,275.731 92.664,275.518 92.487 C 275.305 92.310,274.970 91.623,274.773 90.959 C 274.575 90.295,274.109 89.301,273.736 88.751 C 273.362 88.201,273.057 87.590,273.057 87.393 C 273.057 87.195,272.758 86.920,272.392 86.781 C 271.638 86.494,236.667 86.456,235.967 86.741 M116.037 106.210 C 114.829 107.200,114.534 107.583,114.359 108.386 C 114.261 108.832,113.920 109.509,113.600 109.891 C 113.280 110.272,112.935 111.030,112.834 111.575 C 112.733 112.119,112.483 112.752,112.278 112.980 C 112.073 113.209,111.689 114.009,111.425 114.759 C 111.161 115.508,110.812 116.204,110.649 116.304 C 110.363 116.481,109.845 117.940,109.845 118.568 C 109.845 119.733,108.544 119.689,143.355 119.689 C 180.182 119.689,177.405 119.846,177.058 117.788 C 176.958 117.200,176.616 116.367,176.296 115.937 C 175.977 115.507,175.633 114.806,175.533 114.378 C 175.432 113.951,175.133 113.368,174.867 113.083 C 174.602 112.798,174.238 111.982,174.058 111.269 C 173.879 110.557,173.551 109.741,173.330 109.456 C 172.706 108.653,172.280 107.817,172.280 107.396 C 172.280 107.186,171.845 106.718,171.313 106.356 L 170.346 105.699 143.503 105.699 C 117.181 105.699,116.647 105.709,116.037 106.210 M225.911 106.794 C 225.301 107.428,224.743 108.327,224.583 108.931 C 224.430 109.505,224.073 110.225,223.789 110.532 C 223.505 110.839,223.162 111.580,223.028 112.178 C 222.893 112.777,222.495 113.644,222.143 114.106 C 221.791 114.568,221.503 115.181,221.503 115.469 C 221.503 115.757,221.262 116.298,220.969 116.671 C 220.057 117.830,220.000 119.105,220.847 119.427 C 221.935 119.841,286.918 119.662,287.336 119.244 C 287.777 118.803,287.182 116.185,286.406 115.153 C 286.084 114.724,285.731 113.967,285.622 113.472 C 285.513 112.976,285.158 112.219,284.832 111.790 C 284.507 111.361,284.161 110.583,284.064 110.061 C 283.968 109.539,283.608 108.848,283.265 108.526 C 282.923 108.204,282.642 107.777,282.642 107.577 C 282.642 107.378,282.302 106.873,281.885 106.457 L 281.128 105.699 254.045 105.699 L 226.962 105.699 225.911 106.794 M107.254 125.162 C 105.521 125.852,104.970 127.311,105.964 128.575 C 106.252 128.941,106.663 129.738,106.878 130.346 C 107.092 130.954,107.440 131.641,107.650 131.874 C 107.861 132.107,108.212 132.900,108.431 133.636 C 108.650 134.372,108.925 134.974,109.043 134.974 C 109.161 134.974,109.506 135.656,109.809 136.489 C 110.761 139.100,107.573 138.884,144.079 138.802 C 179.883 138.721,176.762 138.915,177.108 136.756 C 177.194 136.216,177.486 135.574,177.757 135.329 C 178.029 135.084,178.427 134.277,178.642 133.536 C 178.857 132.794,179.256 131.987,179.528 131.741 C 179.800 131.495,180.100 130.927,180.195 130.478 C 180.290 130.030,180.646 129.292,180.987 128.839 C 182.106 127.348,181.719 126.027,179.946 125.286 C 178.757 124.789,108.490 124.669,107.254 125.162 M217.335 125.203 C 215.993 126.233,216.185 129.314,217.700 131.052 C 217.903 131.286,218.207 131.907,218.376 132.432 C 218.544 132.957,218.905 133.670,219.176 134.015 C 219.448 134.361,219.785 135.155,219.925 135.780 C 220.105 136.581,220.487 137.204,221.220 137.889 L 222.260 138.860 254.246 138.860 L 286.232 138.860 286.769 138.177 C 287.064 137.802,287.306 137.351,287.306 137.176 C 287.306 137.001,287.522 136.579,287.786 136.240 C 288.050 135.900,288.467 135.010,288.713 134.262 C 288.959 133.514,289.262 132.902,289.385 132.902 C 289.509 132.902,289.865 132.202,290.176 131.347 C 290.488 130.492,290.825 129.793,290.926 129.793 C 291.279 129.793,291.710 128.461,291.710 127.369 C 291.710 125.960,291.303 125.419,290.019 125.121 C 288.349 124.734,217.843 124.813,217.335 125.203 M115.091 144.358 C 114.249 144.764,114.427 147.927,115.292 147.927 C 115.392 147.927,115.730 148.627,116.041 149.482 C 116.353 150.337,116.715 151.036,116.846 151.036 C 116.977 151.036,117.265 151.659,117.486 152.419 C 117.707 153.180,118.177 154.193,118.530 154.672 C 118.882 155.150,119.171 155.675,119.171 155.839 C 119.171 156.003,119.384 156.330,119.645 156.566 C 120.397 157.246,166.636 157.222,167.245 156.541 C 167.994 155.705,169.162 153.761,169.166 153.342 C 169.169 153.114,169.519 152.415,169.943 151.788 C 170.368 151.161,170.718 150.460,170.721 150.230 C 170.723 150.001,171.034 149.360,171.411 148.806 C 172.581 147.085,172.882 145.181,172.083 144.553 C 171.317 143.950,116.326 143.762,115.091 144.358 M226.295 144.232 C 224.601 144.401,224.223 145.917,225.497 147.431 C 225.829 147.826,226.176 148.550,226.268 149.039 C 226.360 149.529,226.670 150.141,226.956 150.401 C 227.243 150.660,227.603 151.372,227.757 151.983 C 227.911 152.593,228.192 153.222,228.382 153.380 C 228.573 153.538,228.923 154.252,229.160 154.968 C 229.878 157.129,228.212 156.995,254.296 156.995 L 277.262 156.995 278.255 155.941 C 278.970 155.182,279.296 154.570,279.417 153.759 C 279.521 153.068,279.825 152.407,280.204 152.052 C 280.543 151.733,280.895 151.053,280.986 150.541 C 281.077 150.030,281.421 149.320,281.752 148.964 C 282.083 148.608,282.483 147.738,282.641 147.031 C 282.799 146.325,283.032 145.621,283.159 145.468 C 283.494 145.065,283.155 144.687,282.150 144.343 C 281.314 144.056,229.097 143.953,226.295 144.232 M123.481 162.713 C 122.720 163.312,122.620 163.778,123.158 164.225 C 123.356 164.389,123.642 165.015,123.794 165.617 C 123.945 166.218,124.366 167.111,124.729 167.602 C 125.092 168.093,125.389 168.689,125.389 168.926 C 125.389 169.164,125.696 169.811,126.072 170.365 C 126.448 170.919,126.860 171.670,126.986 172.034 C 127.578 173.732,127.300 173.705,143.870 173.705 L 158.853 173.705 159.478 172.978 C 159.822 172.578,160.104 172.099,160.104 171.912 C 160.104 171.726,160.453 171.134,160.881 170.596 C 161.308 170.058,161.658 169.351,161.658 169.026 C 161.658 168.700,161.934 168.104,162.272 167.701 C 162.610 167.298,162.968 166.596,163.067 166.139 C 163.167 165.683,163.482 165.013,163.767 164.650 C 164.425 163.813,164.303 162.930,163.472 162.510 C 162.173 161.856,124.326 162.048,123.481 162.713 M233.960 162.854 C 233.667 163.227,233.472 163.606,233.527 163.696 C 233.581 163.786,233.758 164.350,233.918 164.949 C 234.079 165.549,234.359 166.190,234.540 166.374 C 234.721 166.559,235.139 167.380,235.470 168.199 C 235.800 169.019,236.151 169.689,236.248 169.689 C 236.346 169.689,236.633 170.265,236.887 170.969 C 237.192 171.820,237.666 172.494,238.298 172.977 L 239.249 173.705 254.174 173.775 L 269.100 173.846 269.754 172.998 C 270.113 172.532,270.654 171.870,270.955 171.528 C 271.256 171.185,271.503 170.742,271.503 170.543 C 271.503 170.090,272.230 168.666,272.702 168.194 C 272.897 167.998,273.057 167.652,273.057 167.425 C 273.057 167.197,273.407 166.391,273.834 165.634 C 275.902 161.969,277.086 162.176,254.079 162.176 L 234.494 162.176 233.960 162.854 M131.930 178.765 C 131.035 179.124,131.269 182.300,132.273 183.433 C 132.469 183.653,132.804 184.331,133.019 184.939 C 133.233 185.547,133.636 186.333,133.914 186.687 C 134.193 187.041,134.496 187.674,134.588 188.095 C 134.920 189.606,135.103 189.637,143.670 189.637 C 152.240 189.637,152.057 189.671,152.464 188.037 C 152.560 187.655,152.794 187.283,152.985 187.210 C 153.176 187.137,153.536 186.429,153.786 185.637 C 154.035 184.845,154.327 184.197,154.433 184.197 C 155.416 184.197,156.128 179.006,155.181 178.735 C 154.229 178.462,132.614 178.490,131.930 178.765 M242.117 178.905 C 241.519 179.503,241.588 181.382,242.239 182.209 C 242.530 182.579,242.938 183.453,243.145 184.151 C 243.353 184.850,243.734 185.699,243.992 186.039 C 244.251 186.380,244.666 187.203,244.913 187.868 C 245.558 189.599,245.760 189.637,254.313 189.637 C 260.984 189.637,261.695 189.596,262.056 189.184 C 263.161 187.926,263.681 187.098,263.849 186.328 C 263.950 185.861,264.298 185.162,264.622 184.774 C 264.945 184.385,265.288 183.642,265.384 183.122 C 265.479 182.602,265.788 181.884,266.069 181.527 C 266.749 180.663,266.754 179.127,266.079 178.766 C 265.168 178.278,242.613 178.409,242.117 178.905 M139.767 195.252 C 138.321 195.637,138.361 196.663,139.922 199.223 C 140.052 199.437,140.346 200.019,140.574 200.518 C 141.841 203.283,142.873 205.175,143.178 205.292 C 143.715 205.498,144.264 205.188,144.449 204.575 C 144.542 204.267,144.887 203.724,145.216 203.368 C 145.545 203.012,145.896 202.275,145.996 201.730 C 146.097 201.186,146.442 200.427,146.765 200.044 C 147.087 199.661,147.476 198.895,147.628 198.342 C 147.781 197.789,148.149 197.078,148.445 196.762 L 148.985 196.188 148.262 195.698 C 147.539 195.208,141.185 194.875,139.767 195.252 M249.806 195.463 C 248.965 196.070,249.276 198.041,250.353 198.935 C 250.564 199.109,250.811 199.690,250.901 200.225 C 250.991 200.760,251.338 201.515,251.671 201.903 C 252.005 202.291,252.358 203.041,252.456 203.571 C 252.992 206.460,255.582 205.239,256.335 201.742 C 256.420 201.347,256.718 200.795,256.996 200.517 C 257.275 200.238,257.636 199.483,257.798 198.839 C 257.960 198.195,258.192 197.668,258.314 197.668 C 258.968 197.668,259.312 196.181,258.772 195.692 C 258.003 194.996,250.710 194.810,249.806 195.463 " stroke="none" fill="#ffffff" fill-rule="evenodd"></path></g></svg>