<svg id="svg" version="1.1" xmlns="http://www.w3.org/2000/svg" xmlns:xlink="http://www.w3.org/1999/xlink" width="400" height="258.91472868217056" viewBox="0, 0, 400,258.91472868217056"><g id="svgg"><path id="path0" d="M192.076 39.227 C 191.067 39.417,190.017 39.693,189.745 39.838 C 189.472 39.984,188.569 40.188,187.739 40.291 C 186.909 40.395,185.685 40.756,185.019 41.094 C 184.353 41.432,183.400 41.781,182.902 41.871 C 182.403 41.960,181.632 42.304,181.188 42.635 C 180.745 42.966,180.045 43.316,179.634 43.414 C 179.223 43.512,178.536 43.851,178.109 44.168 C 177.681 44.485,177.040 44.832,176.684 44.940 C 176.328 45.048,175.745 45.396,175.389 45.713 C 175.032 46.031,174.304 46.552,173.769 46.871 C 173.235 47.190,172.798 47.540,172.798 47.648 C 172.798 47.756,172.514 47.973,172.168 48.131 C 171.081 48.627,166.790 52.690,165.285 54.651 C 164.929 55.115,164.200 56.034,163.666 56.693 C 163.131 57.353,162.694 58.003,162.694 58.139 C 162.694 58.275,162.470 58.627,162.197 58.921 C 161.649 59.510,160.681 61.152,159.820 62.953 C 159.513 63.595,159.117 64.294,158.939 64.508 C 158.761 64.722,158.408 65.538,158.154 66.321 C 157.900 67.105,157.548 67.979,157.372 68.264 C 157.196 68.549,156.910 69.424,156.735 70.207 C 156.561 70.991,156.236 72.157,156.013 72.798 C 155.789 73.439,155.493 74.430,155.353 75.000 C 154.715 77.609,154.271 168.351,154.861 175.518 C 155.143 178.940,155.546 181.238,155.949 181.725 C 156.072 181.873,156.305 182.753,156.468 183.679 C 156.630 184.605,157.040 185.946,157.379 186.658 C 157.719 187.370,158.137 188.420,158.310 188.990 C 158.483 189.560,158.841 190.304,159.105 190.644 C 159.369 190.984,159.585 191.371,159.585 191.504 C 159.585 191.750,161.766 195.440,162.218 195.959 C 162.354 196.116,162.694 196.593,162.973 197.021 C 164.047 198.667,166.194 201.339,167.634 202.821 C 169.549 204.792,174.549 208.634,176.432 209.581 C 177.069 209.902,177.766 210.311,177.979 210.490 C 178.193 210.669,178.798 210.953,179.323 211.122 C 179.849 211.291,180.548 211.640,180.878 211.898 C 181.207 212.156,181.885 212.456,182.383 212.563 C 182.882 212.670,183.822 213.026,184.472 213.354 C 185.122 213.681,186.369 214.079,187.242 214.237 C 188.114 214.395,189.506 214.762,190.334 215.052 C 192.364 215.763,205.140 215.850,207.513 215.170 C 208.297 214.945,209.696 214.582,210.622 214.361 C 211.548 214.141,212.889 213.685,213.601 213.348 C 214.313 213.010,215.303 212.652,215.801 212.551 C 216.298 212.449,217.056 212.100,217.484 211.773 C 217.913 211.447,218.614 211.098,219.041 210.997 C 219.469 210.895,220.053 210.601,220.340 210.341 C 220.627 210.082,221.299 209.687,221.832 209.464 C 222.366 209.241,223.005 208.893,223.253 208.690 C 223.502 208.488,224.217 207.902,224.844 207.388 C 225.470 206.875,226.228 206.325,226.527 206.167 C 227.151 205.839,232.480 200.509,233.347 199.346 C 234.818 197.375,235.095 197.012,235.227 196.891 C 235.521 196.621,237.306 193.564,237.306 193.330 C 237.306 193.196,237.599 192.747,237.958 192.333 C 238.316 191.919,238.729 191.141,238.875 190.605 C 239.022 190.068,239.372 189.238,239.654 188.760 C 239.937 188.281,240.328 187.321,240.525 186.626 C 240.721 185.931,241.114 184.722,241.398 183.938 C 241.682 183.154,242.049 181.872,242.215 181.088 C 242.380 180.304,242.707 178.847,242.940 177.850 C 243.323 176.212,243.372 171.430,243.449 128.607 C 243.539 78.164,243.566 79.457,242.353 74.352 C 242.133 73.426,241.837 72.160,241.695 71.538 C 241.553 70.917,241.222 69.926,240.959 69.336 C 240.695 68.747,240.406 67.848,240.315 67.339 C 240.224 66.830,239.859 66.020,239.505 65.540 C 239.150 65.059,238.860 64.472,238.860 64.235 C 238.860 63.997,238.552 63.350,238.176 62.795 C 237.800 62.241,237.372 61.440,237.223 61.015 C 237.075 60.589,236.728 60.006,236.452 59.719 C 236.175 59.432,235.791 58.829,235.598 58.379 C 235.404 57.929,235.156 57.521,235.045 57.472 C 234.935 57.423,234.263 56.626,233.552 55.699 C 230.987 52.359,229.387 50.628,228.109 49.813 C 227.539 49.449,226.898 48.996,226.684 48.805 C 224.861 47.181,221.586 44.820,221.154 44.819 C 221.033 44.819,220.601 44.581,220.194 44.291 C 219.786 44.001,219.069 43.633,218.600 43.474 C 218.130 43.315,217.416 42.955,217.013 42.674 C 216.610 42.394,215.796 42.055,215.204 41.922 C 214.611 41.789,213.939 41.510,213.709 41.302 C 213.479 41.094,211.870 40.629,210.133 40.270 C 208.397 39.911,206.660 39.485,206.273 39.324 C 205.189 38.872,194.346 38.798,192.076 39.227 M205.466 50.309 C 205.978 50.534,207.219 50.904,208.223 51.133 C 209.227 51.361,210.631 51.841,211.344 52.199 C 212.057 52.557,212.804 52.850,213.005 52.850 C 213.206 52.850,213.772 53.151,214.263 53.520 C 214.754 53.888,215.431 54.299,215.768 54.431 C 216.447 54.699,217.022 55.119,219.763 57.351 C 220.791 58.188,221.892 59.046,222.210 59.256 C 222.529 59.467,223.049 60.060,223.367 60.574 C 223.685 61.089,224.124 61.697,224.343 61.926 C 225.684 63.331,227.979 66.529,227.979 66.993 C 227.979 67.127,228.265 67.657,228.614 68.171 C 228.963 68.684,229.326 69.440,229.421 69.850 C 229.517 70.260,229.867 71.074,230.200 71.658 C 230.533 72.242,230.917 73.408,231.053 74.249 C 231.190 75.089,231.574 76.477,231.907 77.332 L 232.513 78.886 232.513 127.332 L 232.513 175.777 231.822 177.850 C 231.442 178.990,231.053 180.389,230.958 180.959 C 230.863 181.528,230.576 182.345,230.321 182.772 C 230.065 183.199,229.708 184.016,229.527 184.585 C 229.347 185.155,228.990 185.891,228.734 186.221 C 228.477 186.550,228.127 187.247,227.955 187.768 C 227.783 188.290,227.474 188.884,227.270 189.089 C 227.065 189.293,226.613 189.880,226.265 190.391 C 225.917 190.903,225.339 191.729,224.979 192.228 C 224.213 193.292,220.760 196.891,220.506 196.891 C 220.410 196.891,220.033 197.168,219.668 197.506 C 219.093 198.040,217.749 198.996,216.347 199.870 C 216.119 200.012,215.553 200.397,215.089 200.726 C 214.625 201.055,213.588 201.550,212.785 201.827 C 211.983 202.103,211.172 202.456,210.984 202.612 C 210.796 202.768,209.851 203.111,208.883 203.373 C 207.916 203.636,206.600 204.055,205.959 204.304 C 203.682 205.191,194.021 204.945,190.954 203.923 C 189.612 203.475,188.363 203.109,188.177 203.109 C 187.856 203.109,185.325 201.950,183.938 201.168 C 183.582 200.967,182.839 200.554,182.286 200.250 C 181.290 199.701,179.827 198.703,178.400 197.598 C 176.788 196.349,173.380 192.732,172.282 191.105 C 171.861 190.482,171.338 189.824,171.121 189.643 C 170.903 189.463,170.725 189.194,170.725 189.045 C 170.725 188.897,170.388 188.241,169.976 187.587 C 169.564 186.934,169.139 186.109,169.032 185.755 C 168.925 185.400,168.571 184.701,168.245 184.200 C 167.918 183.700,167.570 182.824,167.471 182.254 C 167.371 181.684,167.204 181.101,167.099 180.959 C 166.586 180.263,166.024 177.783,165.801 175.236 C 165.665 173.681,165.444 171.768,165.309 170.984 C 164.951 168.904,164.977 110.085,165.337 108.420 C 165.507 107.630,165.678 101.257,165.774 92.098 L 165.933 77.073 166.796 74.482 C 167.271 73.057,168.000 71.192,168.415 70.337 C 168.831 69.482,169.171 68.677,169.171 68.548 C 169.171 68.419,169.462 67.931,169.819 67.464 C 170.175 66.997,170.467 66.461,170.469 66.274 C 170.470 66.086,170.874 65.408,171.366 64.767 C 171.859 64.126,172.645 63.092,173.113 62.469 C 174.684 60.378,178.608 56.700,180.052 55.965 C 180.408 55.783,180.944 55.413,181.242 55.141 C 181.541 54.870,182.182 54.438,182.667 54.181 C 186.104 52.361,188.457 51.295,189.040 51.295 C 189.324 51.295,190.245 51.053,191.086 50.757 C 194.204 49.661,203.336 49.376,205.466 50.309 " stroke="none" fill="#662f95" fill-rule="evenodd"></path><path id="path1" d="M0.000 129.534 L 0.000 259.067 200.000 259.067 L 400.000 259.067 400.000 129.534 L 400.000 0.000 200.000 0.000 L 0.000 0.000 0.000 129.534 M206.273 39.324 C 206.660 39.485,208.397 39.911,210.133 40.270 C 211.870 40.629,213.479 41.094,213.709 41.302 C 213.939 41.510,214.611 41.789,215.204 41.922 C 215.796 42.055,216.610 42.394,217.013 42.674 C 217.416 42.955,218.130 43.315,218.600 43.474 C 219.069 43.633,219.786 44.001,220.194 44.291 C 220.601 44.581,221.033 44.819,221.154 44.819 C 221.586 44.820,224.861 47.181,226.684 48.805 C 226.898 48.996,227.539 49.449,228.109 49.813 C 229.387 50.628,230.987 52.359,233.552 55.699 C 234.263 56.626,234.935 57.423,235.045 57.472 C 235.156 57.521,235.404 57.929,235.598 58.379 C 235.791 58.829,236.175 59.432,236.452 59.719 C 236.728 60.006,237.075 60.589,237.223 61.015 C 237.372 61.440,237.800 62.241,238.176 62.795 C 238.552 63.350,238.860 63.997,238.860 64.235 C 238.860 64.472,239.150 65.059,239.505 65.540 C 239.859 66.020,240.224 66.830,240.315 67.339 C 240.406 67.848,240.695 68.747,240.959 69.336 C 241.222 69.926,241.553 70.917,241.695 71.538 C 241.837 72.160,242.133 73.426,242.353 74.352 C 243.566 79.457,243.539 78.164,243.449 128.607 C 243.372 171.430,243.323 176.212,242.940 177.850 C 242.707 178.847,242.380 180.304,242.215 181.088 C 242.049 181.872,241.682 183.154,241.398 183.938 C 241.114 184.722,240.721 185.931,240.525 186.626 C 240.328 187.321,239.937 188.281,239.654 188.760 C 239.372 189.238,239.022 190.068,238.875 190.605 C 238.729 191.141,238.316 191.919,237.958 192.333 C 237.599 192.747,237.306 193.196,237.306 193.330 C 237.306 193.564,235.521 196.621,235.227 196.891 C 235.095 197.012,234.818 197.375,233.347 199.346 C 232.480 200.509,227.151 205.839,226.527 206.167 C 226.228 206.325,225.470 206.875,224.844 207.388 C 224.217 207.902,223.502 208.488,223.253 208.690 C 223.005 208.893,222.366 209.241,221.832 209.464 C 221.299 209.687,220.627 210.082,220.340 210.341 C 220.053 210.601,219.469 210.895,219.041 210.997 C 218.614 211.098,217.913 211.447,217.484 211.773 C 217.056 212.100,216.298 212.449,215.801 212.551 C 215.303 212.652,214.313 213.010,213.601 213.348 C 212.889 213.685,211.548 214.141,210.622 214.361 C 209.696 214.582,208.297 214.945,207.513 215.170 C 205.140 215.850,192.364 215.763,190.334 215.052 C 189.506 214.762,188.114 214.395,187.242 214.237 C 186.369 214.079,185.122 213.681,184.472 213.354 C 183.822 213.026,182.882 212.670,182.383 212.563 C 181.885 212.456,181.207 212.156,180.878 211.898 C 180.548 211.640,179.849 211.291,179.323 211.122 C 178.798 210.953,178.193 210.669,177.979 210.490 C 177.766 210.311,177.069 209.902,176.432 209.581 C 174.549 208.634,169.549 204.792,167.634 202.821 C 166.194 201.339,164.047 198.667,162.973 197.021 C 162.694 196.593,162.354 196.116,162.218 195.959 C 161.766 195.440,159.585 191.750,159.585 191.504 C 159.585 191.371,159.369 190.984,159.105 190.644 C 158.841 190.304,158.483 189.560,158.310 188.990 C 158.137 188.420,157.719 187.370,157.379 186.658 C 157.040 185.946,156.630 184.605,156.468 183.679 C 156.305 182.753,156.072 181.873,155.949 181.725 C 155.546 181.238,155.143 178.940,154.861 175.518 C 154.271 168.351,154.715 77.609,155.353 75.000 C 155.493 74.430,155.789 73.439,156.013 72.798 C 156.236 72.157,156.561 70.991,156.735 70.207 C 156.910 69.424,157.196 68.549,157.372 68.264 C 157.548 67.979,157.900 67.105,158.154 66.321 C 158.408 65.538,158.761 64.722,158.939 64.508 C 159.117 64.294,159.513 63.595,159.820 62.953 C 160.681 61.152,161.649 59.510,162.197 58.921 C 162.470 58.627,162.694 58.275,162.694 58.139 C 162.694 58.003,163.131 57.353,163.666 56.693 C 164.200 56.034,164.929 55.115,165.285 54.651 C 166.790 52.690,171.081 48.627,172.168 48.131 C 172.514 47.973,172.798 47.756,172.798 47.648 C 172.798 47.540,173.235 47.190,173.769 46.871 C 174.304 46.552,175.032 46.031,175.389 45.713 C 175.745 45.396,176.328 45.048,176.684 44.940 C 177.040 44.832,177.681 44.485,178.109 44.168 C 178.536 43.851,179.223 43.512,179.634 43.414 C 180.045 43.316,180.745 42.966,181.188 42.635 C 181.632 42.304,182.403 41.960,182.902 41.871 C 183.400 41.781,184.353 41.432,185.019 41.094 C 185.685 40.756,186.909 40.395,187.739 40.291 C 188.569 40.188,189.472 39.984,189.745 39.838 C 191.466 38.919,204.341 38.519,206.273 39.324 M193.782 49.997 C 193.141 50.119,191.928 50.461,191.086 50.757 C 190.245 51.053,189.324 51.295,189.040 51.295 C 188.457 51.295,186.104 52.361,182.667 54.181 C 182.182 54.438,181.541 54.870,181.242 55.141 C 180.944 55.413,180.408 55.783,180.052 55.965 C 178.608 56.700,174.684 60.378,173.113 62.469 C 172.645 63.092,171.859 64.126,171.366 64.767 C 170.874 65.408,170.470 66.086,170.469 66.274 C 170.467 66.461,170.175 66.997,169.819 67.464 C 169.462 67.931,169.171 68.419,169.171 68.548 C 169.171 68.677,168.831 69.482,168.415 70.337 C 168.000 71.192,167.271 73.057,166.796 74.482 L 165.933 77.073 165.774 92.098 C 165.678 101.257,165.507 107.630,165.337 108.420 C 164.977 110.085,164.951 168.904,165.309 170.984 C 165.444 171.768,165.665 173.681,165.801 175.236 C 166.024 177.783,166.586 180.263,167.099 180.959 C 167.204 181.101,167.371 181.684,167.471 182.254 C 167.570 182.824,167.918 183.700,168.245 184.200 C 168.571 184.701,168.925 185.400,169.032 185.755 C 169.139 186.109,169.564 186.934,169.976 187.587 C 170.388 188.241,170.725 188.897,170.725 189.045 C 170.725 189.194,170.903 189.463,171.121 189.643 C 171.338 189.824,171.861 190.482,172.282 191.105 C 173.380 192.732,176.788 196.349,178.400 197.598 C 179.827 198.703,181.290 199.701,182.286 200.250 C 182.839 200.554,183.582 200.967,183.938 201.168 C 185.325 201.950,187.856 203.109,188.177 203.109 C 188.363 203.109,189.612 203.475,190.954 203.923 C 194.021 204.945,203.682 205.191,205.959 204.304 C 206.600 204.055,207.916 203.636,208.883 203.373 C 209.851 203.111,210.796 202.768,210.984 202.612 C 211.172 202.456,211.983 202.103,212.785 201.827 C 213.588 201.550,214.625 201.055,215.089 200.726 C 215.553 200.397,216.119 200.012,216.347 199.870 C 217.749 198.996,219.093 198.040,219.668 197.506 C 220.033 197.168,220.410 196.891,220.506 196.891 C 220.760 196.891,224.213 193.292,224.979 192.228 C 225.339 191.729,225.917 190.903,226.265 190.391 C 226.613 189.880,227.065 189.293,227.270 189.089 C 227.474 188.884,227.783 188.290,227.955 187.768 C 228.127 187.247,228.477 186.550,228.734 186.221 C 228.990 185.891,229.347 185.155,229.527 184.585 C 229.708 184.016,230.065 183.199,230.321 182.772 C 230.576 182.345,230.863 181.528,230.958 180.959 C 231.053 180.389,231.442 178.990,231.822 177.850 L 232.513 175.777 232.513 127.332 L 232.513 78.886 231.907 77.332 C 231.574 76.477,231.190 75.089,231.053 74.249 C 230.917 73.408,230.533 72.242,230.200 71.658 C 229.867 71.074,229.517 70.260,229.421 69.850 C 229.326 69.440,228.963 68.684,228.614 68.171 C 228.265 67.657,227.979 67.127,227.979 66.993 C 227.979 66.529,225.684 63.331,224.343 61.926 C 224.124 61.697,223.685 61.089,223.367 60.574 C 223.049 60.060,222.529 59.467,222.210 59.256 C 221.892 59.046,220.791 58.188,219.763 57.351 C 217.022 55.119,216.447 54.699,215.768 54.431 C 215.431 54.299,214.754 53.888,214.263 53.520 C 213.772 53.151,213.206 52.850,213.005 52.850 C 212.804 52.850,212.057 52.557,211.344 52.199 C 210.631 51.841,209.227 51.361,208.223 51.133 C 207.219 50.904,205.978 50.534,205.466 50.309 C 204.392 49.839,195.817 49.610,193.782 49.997 " stroke="none" fill="#fcfcfc" fill-rule="evenodd"></path></g></svg>