<svg id="svg" version="1.1" xmlns="http://www.w3.org/2000/svg" xmlns:xlink="http://www.w3.org/1999/xlink" width="400" height="258.91472868217056" viewBox="0, 0, 400,258.91472868217056"><g id="svgg"><path id="path0" d="M78.351 41.030 C 77.486 41.212,76.657 41.437,76.507 41.530 C 76.357 41.622,75.083 41.883,73.676 42.110 C 72.268 42.336,70.941 42.680,70.727 42.874 C 70.512 43.068,69.540 43.427,68.566 43.671 C 67.592 43.916,66.736 44.268,66.665 44.454 C 66.593 44.640,65.933 44.986,65.198 45.223 C 64.462 45.460,63.734 45.812,63.579 46.004 C 63.425 46.197,62.754 46.588,62.090 46.873 C 61.425 47.158,60.881 47.497,60.881 47.628 C 60.881 47.758,60.519 48.014,60.078 48.197 C 59.247 48.542,57.739 49.669,56.290 51.030 C 55.831 51.461,55.354 51.813,55.230 51.813 C 55.107 51.813,54.877 52.095,54.721 52.439 C 54.564 52.783,54.213 53.135,53.941 53.221 C 53.669 53.307,53.319 53.657,53.164 53.998 C 53.008 54.339,52.647 54.693,52.361 54.784 C 52.074 54.874,51.772 55.163,51.689 55.425 C 51.606 55.687,51.250 56.212,50.898 56.591 C 50.546 56.971,50.095 57.596,49.896 57.981 C 49.698 58.365,49.290 58.902,48.990 59.173 C 48.691 59.444,48.446 59.806,48.446 59.976 C 48.446 60.147,48.165 60.590,47.822 60.960 C 47.479 61.330,47.061 62.052,46.891 62.564 C 46.722 63.077,46.320 63.760,45.998 64.082 C 45.677 64.403,45.328 65.123,45.223 65.680 C 45.119 66.237,44.812 67.003,44.541 67.384 C 44.270 67.764,43.916 68.700,43.754 69.465 C 43.592 70.229,43.195 71.380,42.872 72.021 C 42.444 72.872,42.234 73.885,42.095 75.777 C 41.991 77.202,41.745 78.683,41.549 79.067 C 41.100 79.947,41.007 174.107,41.454 175.649 C 41.598 176.147,41.882 177.816,42.085 179.358 C 42.295 180.958,42.669 182.574,42.955 183.123 C 43.231 183.651,43.590 184.706,43.753 185.466 C 43.915 186.226,44.268 187.156,44.536 187.532 C 44.805 187.909,45.152 188.693,45.309 189.275 C 45.466 189.856,45.821 190.538,46.098 190.789 C 46.376 191.040,46.678 191.586,46.769 192.002 C 46.860 192.418,47.200 193.076,47.524 193.465 C 47.848 193.853,48.310 194.521,48.550 194.948 C 49.851 197.267,53.295 201.165,56.306 203.727 C 56.789 204.138,57.429 204.687,57.728 204.948 C 58.028 205.209,58.715 205.702,59.257 206.044 C 59.798 206.386,60.393 206.849,60.579 207.072 C 60.765 207.296,61.246 207.552,61.649 207.641 C 62.052 207.729,62.582 208.023,62.827 208.294 C 63.073 208.565,63.841 208.975,64.535 209.206 C 65.229 209.437,65.865 209.735,65.947 209.868 C 66.165 210.221,67.841 210.881,68.520 210.881 C 68.840 210.881,69.386 211.105,69.734 211.378 C 70.082 211.652,71.118 212.012,72.036 212.179 C 72.954 212.345,74.721 212.773,75.963 213.130 C 78.849 213.959,89.837 213.976,91.353 213.154 C 91.799 212.912,92.953 212.588,93.919 212.434 C 94.886 212.280,96.270 211.878,96.996 211.541 C 97.722 211.205,98.724 210.849,99.223 210.751 C 99.722 210.653,100.538 210.305,101.036 209.978 C 101.535 209.650,102.366 209.249,102.883 209.085 C 103.400 208.922,104.024 208.567,104.270 208.295 C 104.516 208.024,105.040 207.730,105.435 207.644 C 105.830 207.557,106.421 207.201,106.748 206.852 C 107.076 206.503,107.450 206.218,107.579 206.218 C 107.773 206.218,110.046 204.381,111.346 203.174 C 111.538 202.995,111.864 202.850,112.071 202.850 C 112.277 202.850,112.573 202.571,112.728 202.231 C 112.884 201.890,113.289 201.485,113.630 201.329 C 113.970 201.174,114.249 200.878,114.249 200.672 C 114.249 200.465,114.394 200.139,114.573 199.947 C 115.842 198.581,117.617 196.369,117.617 196.153 C 117.617 196.010,117.901 195.668,118.250 195.395 C 118.598 195.121,118.959 194.592,119.052 194.220 C 119.146 193.848,119.493 193.252,119.824 192.894 C 120.155 192.537,120.506 191.979,120.603 191.653 C 120.701 191.328,121.118 190.527,121.530 189.874 C 121.943 189.220,122.280 188.391,122.280 188.032 C 122.280 187.672,122.569 186.952,122.922 186.431 C 123.280 185.904,123.674 184.808,123.810 183.961 C 123.945 183.123,124.314 181.871,124.630 181.180 C 125.572 179.117,125.618 176.616,125.615 127.332 C 125.611 77.528,125.574 75.501,124.635 73.475 C 124.312 72.778,123.929 71.446,123.784 70.514 C 123.639 69.582,123.357 68.657,123.157 68.457 C 122.605 67.905,122.357 67.332,122.162 66.155 C 122.058 65.528,121.723 64.837,121.355 64.491 C 121.009 64.166,120.725 63.715,120.725 63.490 C 120.725 63.265,120.317 62.507,119.819 61.806 C 119.320 61.104,118.912 60.397,118.912 60.233 C 118.912 60.069,118.620 59.661,118.264 59.326 C 117.908 58.992,117.617 58.607,117.617 58.471 C 117.617 57.834,110.337 50.109,109.481 49.837 C 109.193 49.746,108.741 49.395,108.475 49.058 C 108.210 48.721,107.822 48.446,107.611 48.446 C 107.401 48.446,106.972 48.176,106.659 47.847 C 106.345 47.518,105.680 47.091,105.181 46.898 C 104.683 46.706,104.041 46.350,103.756 46.107 C 103.472 45.864,102.685 45.459,102.008 45.207 C 101.331 44.955,100.777 44.656,100.777 44.543 C 100.777 44.430,100.107 44.154,99.288 43.931 C 98.468 43.707,97.362 43.288,96.830 43.000 C 96.297 42.711,94.759 42.310,93.410 42.107 C 92.062 41.905,90.400 41.547,89.715 41.311 C 88.055 40.739,80.607 40.555,78.351 41.030 M194.602 40.952 C 193.699 41.069,192.804 41.295,192.613 41.454 C 192.329 41.689,188.210 42.465,187.151 42.482 C 186.995 42.485,186.604 42.715,186.283 42.993 C 185.962 43.272,185.185 43.576,184.557 43.671 C 183.928 43.765,183.131 44.064,182.786 44.336 C 182.441 44.608,181.711 44.988,181.164 45.180 C 180.618 45.373,179.715 45.840,179.158 46.218 C 178.602 46.595,177.876 46.972,177.545 47.055 C 177.214 47.138,176.943 47.308,176.943 47.432 C 176.943 47.556,176.448 47.910,175.842 48.217 C 175.236 48.525,174.480 49.023,174.160 49.324 C 173.841 49.624,173.157 50.220,172.641 50.648 C 171.554 51.548,168.018 55.100,167.164 56.150 C 166.843 56.543,166.247 57.273,165.839 57.772 C 165.431 58.271,164.889 59.087,164.635 59.585 C 164.380 60.084,163.965 60.638,163.713 60.816 C 163.460 60.995,163.176 61.493,163.081 61.924 C 162.987 62.354,162.651 63.025,162.334 63.413 C 162.018 63.801,161.599 64.620,161.404 65.233 C 161.208 65.845,160.891 66.435,160.697 66.543 C 160.504 66.651,160.276 67.199,160.189 67.761 C 160.103 68.323,159.699 69.506,159.291 70.391 C 158.883 71.275,158.549 72.363,158.549 72.808 C 158.549 73.253,158.197 74.987,157.767 76.661 L 156.986 79.705 157.055 128.543 C 157.106 164.776,157.201 177.475,157.421 177.745 C 157.840 178.258,158.261 179.869,158.549 182.062 C 158.698 183.197,159.000 184.224,159.311 184.653 C 159.595 185.043,159.950 185.928,160.101 186.619 C 160.253 187.309,160.538 188.036,160.735 188.233 C 160.932 188.430,161.304 189.147,161.562 189.827 C 161.819 190.506,162.220 191.269,162.453 191.523 C 162.685 191.776,163.014 192.446,163.184 193.012 C 163.354 193.578,163.602 194.041,163.736 194.041 C 163.870 194.041,164.231 194.537,164.539 195.142 C 164.846 195.748,165.344 196.501,165.645 196.817 C 165.946 197.132,166.483 197.758,166.839 198.208 C 167.879 199.520,169.003 200.794,169.530 201.256 C 169.799 201.491,170.314 202.005,170.674 202.396 C 171.034 202.788,171.402 203.109,171.492 203.109 C 171.582 203.109,172.349 203.750,173.198 204.534 C 174.047 205.317,174.858 205.960,175.000 205.961 C 175.142 205.962,175.771 206.370,176.397 206.868 C 177.022 207.365,177.674 207.772,177.846 207.772 C 178.018 207.772,178.370 208.006,178.629 208.292 C 178.888 208.579,179.576 208.948,180.159 209.114 C 180.741 209.279,181.451 209.607,181.736 209.843 C 182.021 210.079,182.778 210.422,183.420 210.605 C 184.061 210.789,185.168 211.209,185.881 211.540 C 186.593 211.871,188.029 212.268,189.071 212.423 C 190.113 212.578,191.274 212.906,191.650 213.153 C 192.692 213.835,206.278 213.831,207.320 213.148 C 207.700 212.899,208.861 212.576,209.900 212.430 C 212.142 212.115,212.695 211.964,213.212 211.528 C 213.426 211.348,214.284 211.005,215.118 210.766 C 215.952 210.528,216.876 210.108,217.171 209.833 C 217.466 209.558,218.124 209.258,218.633 209.166 C 219.143 209.074,219.778 208.771,220.044 208.492 C 220.310 208.214,221.042 207.766,221.669 207.497 C 222.296 207.228,222.877 206.831,222.961 206.613 C 223.044 206.396,223.271 206.218,223.464 206.218 C 223.658 206.218,224.157 205.897,224.574 205.505 C 224.990 205.113,225.839 204.387,226.461 203.892 C 228.185 202.516,232.383 198.094,232.383 197.652 C 232.383 197.525,232.670 197.233,233.021 197.004 C 233.372 196.774,233.737 196.334,233.834 196.026 C 233.930 195.718,234.276 195.146,234.603 194.755 C 234.930 194.364,235.277 193.781,235.374 193.460 C 235.471 193.139,235.815 192.584,236.138 192.228 C 236.461 191.872,236.871 191.114,237.050 190.544 C 237.228 189.974,237.576 189.315,237.821 189.079 C 238.067 188.843,238.347 188.152,238.445 187.544 C 238.542 186.936,238.896 185.905,239.231 185.253 C 239.567 184.601,240.024 183.086,240.247 181.887 C 240.471 180.688,240.784 179.625,240.945 179.526 C 241.637 179.098,241.729 172.027,241.656 124.870 L 241.580 76.295 240.967 75.013 C 240.630 74.308,240.191 72.792,239.991 71.645 C 239.791 70.498,239.520 69.523,239.389 69.478 C 239.258 69.434,238.895 68.618,238.583 67.665 C 238.271 66.712,237.876 65.758,237.705 65.544 C 237.534 65.330,237.186 64.593,236.932 63.906 C 236.679 63.218,236.320 62.598,236.135 62.527 C 235.949 62.456,235.721 62.092,235.627 61.718 C 235.534 61.344,235.115 60.649,234.697 60.173 C 234.280 59.698,233.938 59.141,233.938 58.937 C 233.938 58.733,233.559 58.160,233.096 57.663 C 232.633 57.166,231.962 56.401,231.606 55.962 C 231.250 55.524,230.742 54.965,230.476 54.720 C 229.978 54.260,229.615 53.886,229.112 53.312 C 228.951 53.129,228.602 52.783,228.335 52.544 C 228.068 52.305,227.717 51.955,227.555 51.767 C 227.392 51.579,226.831 51.075,226.306 50.648 C 225.782 50.220,225.043 49.550,224.665 49.158 C 224.287 48.766,223.780 48.446,223.537 48.446 C 223.295 48.446,222.767 48.171,222.364 47.834 C 221.962 47.498,221.224 47.016,220.725 46.762 C 220.227 46.508,219.760 46.221,219.689 46.124 C 219.439 45.783,215.141 43.843,213.925 43.522 C 213.248 43.343,212.694 43.108,212.694 42.999 C 212.694 42.685,212.118 42.538,209.154 42.098 C 207.623 41.871,206.235 41.572,206.070 41.435 C 205.278 40.779,198.230 40.482,194.602 40.952 M309.369 40.952 C 308.466 41.069,307.570 41.296,307.377 41.456 C 307.185 41.615,305.825 41.923,304.356 42.140 C 302.886 42.356,301.334 42.743,300.907 43.000 C 300.479 43.257,299.722 43.549,299.223 43.649 C 298.724 43.748,297.881 44.111,297.350 44.454 C 296.819 44.797,296.231 45.078,296.043 45.078 C 295.855 45.078,295.066 45.483,294.289 45.978 C 293.511 46.473,292.775 46.881,292.651 46.885 C 292.284 46.895,288.860 49.244,288.860 49.484 C 288.860 49.606,288.609 49.786,288.303 49.883 C 287.714 50.070,282.383 55.262,282.383 55.649 C 282.383 55.773,282.092 56.008,281.736 56.170 C 281.380 56.333,281.088 56.632,281.088 56.835 C 281.088 57.039,280.680 57.693,280.181 58.290 C 279.683 58.887,279.275 59.531,279.275 59.721 C 279.275 59.911,279.003 60.280,278.671 60.541 C 278.338 60.803,277.992 61.306,277.900 61.661 C 277.808 62.016,277.446 62.636,277.095 63.040 C 276.744 63.444,276.376 64.139,276.278 64.585 C 276.181 65.030,275.832 65.807,275.503 66.311 C 275.174 66.815,274.824 67.694,274.726 68.264 C 274.627 68.834,274.268 69.897,273.928 70.627 C 273.588 71.356,273.205 72.789,273.077 73.811 C 272.949 74.833,272.630 75.984,272.368 76.371 C 271.213 78.073,271.204 175.907,272.358 178.140 C 272.573 178.554,272.824 179.474,272.917 180.185 C 273.208 182.402,273.639 184.042,274.108 184.715 C 274.357 185.071,274.633 185.870,274.723 186.491 C 274.812 187.111,275.159 187.985,275.493 188.434 C 275.828 188.882,276.177 189.672,276.269 190.189 C 276.361 190.706,276.725 191.440,277.078 191.821 C 277.431 192.202,277.720 192.672,277.720 192.864 C 277.720 193.057,278.128 193.704,278.627 194.301 C 279.126 194.897,279.534 195.530,279.534 195.707 C 279.534 195.884,279.883 196.340,280.311 196.721 C 280.738 197.102,281.088 197.520,281.088 197.650 C 281.088 197.781,281.409 198.220,281.801 198.627 C 282.192 199.034,282.987 199.888,283.566 200.525 C 284.505 201.559,286.591 203.477,288.555 205.112 C 289.567 205.954,292.381 207.772,292.674 207.772 C 292.812 207.772,293.132 208.001,293.385 208.280 C 293.638 208.560,294.268 208.926,294.785 209.094 C 295.302 209.261,296.017 209.602,296.373 209.852 C 296.729 210.101,297.652 210.492,298.424 210.721 C 299.196 210.950,300.016 211.308,300.247 211.517 C 300.477 211.726,301.733 212.069,303.037 212.280 C 304.340 212.491,305.793 212.875,306.266 213.132 C 307.521 213.817,321.021 213.847,322.059 213.167 C 322.424 212.928,323.176 212.658,323.732 212.568 C 325.908 212.214,327.349 211.837,327.720 211.522 C 327.934 211.341,328.864 211.002,329.788 210.768 C 330.712 210.534,331.562 210.174,331.677 209.968 C 331.792 209.762,332.512 209.412,333.277 209.189 C 334.043 208.967,334.732 208.619,334.810 208.416 C 334.888 208.213,335.375 207.871,335.893 207.654 C 336.410 207.438,337.182 206.968,337.608 206.610 C 338.033 206.252,338.471 205.959,338.579 205.959 C 338.688 205.959,339.466 205.319,340.308 204.538 C 341.150 203.756,341.917 203.115,342.013 203.113 C 342.288 203.107,345.104 200.170,346.244 198.701 C 346.813 197.967,347.542 197.100,347.863 196.775 C 348.183 196.450,348.446 196.072,348.446 195.935 C 348.446 195.798,348.739 195.411,349.098 195.074 C 349.456 194.737,349.887 194.004,350.054 193.445 C 350.221 192.887,350.572 192.297,350.833 192.134 C 351.095 191.972,351.434 191.376,351.587 190.810 C 351.739 190.244,352.128 189.468,352.450 189.086 C 352.772 188.703,353.115 187.884,353.213 187.265 C 353.311 186.646,353.665 185.732,353.999 185.233 C 354.396 184.641,354.668 183.750,354.782 182.667 C 354.878 181.754,355.270 180.239,355.652 179.299 L 356.347 177.591 356.347 127.202 L 356.347 76.813 355.666 75.259 C 355.292 74.404,354.902 73.005,354.801 72.150 C 354.699 71.295,354.390 70.226,354.113 69.773 C 353.835 69.321,353.432 68.273,353.216 67.445 C 353.001 66.617,352.664 65.849,352.469 65.740 C 352.273 65.631,351.924 64.973,351.694 64.278 C 351.463 63.583,351.056 62.817,350.790 62.576 C 350.524 62.335,350.230 61.836,350.137 61.468 C 350.045 61.099,349.626 60.382,349.207 59.874 C 348.788 59.365,348.446 58.830,348.446 58.684 C 348.446 58.538,348.096 58.088,347.668 57.684 C 347.241 57.281,346.891 56.830,346.891 56.681 C 346.891 56.347,340.493 50.000,340.156 50.000 C 340.022 50.000,339.653 49.650,339.337 49.223 C 339.021 48.795,338.560 48.446,338.313 48.446 C 338.066 48.446,337.534 48.171,337.131 47.834 C 336.729 47.498,335.991 47.018,335.492 46.767 C 334.994 46.516,334.411 46.165,334.197 45.986 C 333.983 45.807,333.378 45.523,332.853 45.355 C 332.328 45.186,331.622 44.831,331.285 44.566 C 330.948 44.301,329.997 43.908,329.172 43.693 C 328.347 43.477,327.479 43.133,327.243 42.928 C 327.007 42.723,325.537 42.360,323.978 42.122 C 322.418 41.884,321.006 41.576,320.839 41.438 C 320.045 40.779,313.003 40.481,309.369 40.952 M90.667 48.207 C 91.305 48.354,91.890 48.577,91.968 48.703 C 92.046 48.829,92.969 49.111,94.020 49.330 C 95.071 49.550,96.126 49.906,96.365 50.122 C 96.604 50.338,97.338 50.678,97.998 50.876 C 98.657 51.074,99.509 51.483,99.892 51.784 C 100.275 52.085,100.722 52.332,100.887 52.332 C 101.051 52.332,101.589 52.677,102.082 53.098 C 102.576 53.520,103.100 53.870,103.247 53.875 C 103.820 53.898,108.031 57.709,108.031 58.205 C 108.031 59.346,108.201 59.339,83.209 59.266 C 55.884 59.186,57.561 59.356,60.163 56.932 C 62.239 54.997,63.406 54.093,65.259 52.979 C 65.733 52.694,66.545 52.180,67.063 51.837 C 67.581 51.494,68.521 51.056,69.152 50.864 C 69.783 50.672,70.495 50.338,70.734 50.122 C 70.973 49.906,72.027 49.550,73.076 49.331 C 74.125 49.112,75.113 48.826,75.271 48.695 C 76.140 47.973,88.021 47.597,90.667 48.207 M207.510 48.521 C 208.007 48.777,209.197 49.164,210.153 49.381 C 211.110 49.599,212.179 50.002,212.529 50.277 C 212.879 50.552,213.356 50.777,213.590 50.777 C 214.107 50.777,215.575 51.514,215.933 51.952 C 216.075 52.126,216.515 52.345,216.911 52.437 C 217.306 52.529,217.854 52.828,218.128 53.102 C 218.401 53.375,218.983 53.784,219.419 54.010 C 219.856 54.236,220.356 54.650,220.532 54.930 C 220.707 55.211,220.975 55.440,221.129 55.440 C 221.282 55.440,221.765 55.819,222.203 56.282 C 222.640 56.745,223.186 57.275,223.416 57.458 C 223.945 57.881,223.948 58.398,223.427 58.919 C 222.787 59.559,176.052 59.538,175.344 58.898 C 175.084 58.662,174.870 58.353,174.870 58.211 C 174.870 57.936,177.143 55.700,177.424 55.699 C 177.515 55.699,178.049 55.291,178.609 54.793 C 179.169 54.294,179.760 53.886,179.923 53.886 C 180.085 53.886,180.609 53.536,181.088 53.109 C 181.567 52.681,182.108 52.332,182.290 52.332 C 182.473 52.332,182.831 52.109,183.086 51.838 C 183.341 51.566,184.190 51.136,184.974 50.882 C 185.758 50.628,186.549 50.271,186.732 50.090 C 187.098 49.727,188.696 49.227,189.508 49.223 C 189.793 49.221,190.376 49.036,190.803 48.811 C 192.723 47.801,205.672 47.577,207.510 48.521 M322.181 48.500 C 322.626 48.743,323.811 49.129,324.816 49.358 C 325.820 49.586,326.902 49.999,327.220 50.275 C 327.539 50.551,328.022 50.777,328.295 50.777 C 328.879 50.777,329.718 51.182,330.440 51.812 C 330.725 52.060,331.273 52.338,331.656 52.428 C 332.040 52.519,332.737 52.942,333.204 53.369 C 333.671 53.796,334.127 54.145,334.216 54.145 C 334.306 54.145,334.742 54.466,335.186 54.858 C 340.738 59.758,342.787 59.326,313.950 59.326 C 286.671 59.326,288.000 59.478,290.997 56.711 C 291.745 56.021,292.591 55.236,292.876 54.966 C 293.161 54.697,293.791 54.273,294.276 54.024 C 294.761 53.775,295.394 53.352,295.682 53.084 C 295.970 52.816,296.447 52.524,296.743 52.434 C 297.038 52.345,297.513 52.064,297.798 51.810 C 298.083 51.556,298.849 51.170,299.499 50.952 C 300.150 50.734,301.083 50.323,301.572 50.039 C 302.061 49.754,303.147 49.397,303.986 49.245 C 304.825 49.093,305.650 48.853,305.820 48.712 C 306.898 47.818,320.611 47.640,322.181 48.500 M113.974 65.659 C 114.412 66.078,114.869 66.778,114.990 67.213 C 115.111 67.649,115.502 68.435,115.859 68.960 C 116.216 69.485,116.582 70.360,116.671 70.903 C 116.760 71.447,117.126 72.465,117.484 73.166 C 118.203 74.573,118.401 77.351,117.824 77.927 C 117.279 78.472,49.907 78.368,49.361 77.822 C 48.672 77.132,49.268 72.935,50.255 71.530 C 50.516 71.159,50.803 70.421,50.893 69.891 C 50.983 69.361,51.329 68.603,51.661 68.207 C 51.993 67.811,52.345 67.120,52.442 66.672 C 52.878 64.675,50.179 64.829,83.986 64.865 L 113.178 64.896 113.974 65.659 M229.476 65.170 C 229.793 65.392,230.052 65.736,230.052 65.934 C 230.052 66.133,230.227 66.393,230.441 66.513 C 230.654 66.633,231.043 67.336,231.303 68.076 C 231.564 68.816,231.959 69.627,232.183 69.879 C 232.406 70.131,232.729 71.036,232.901 71.891 C 233.073 72.746,233.436 73.812,233.709 74.261 C 234.305 75.239,234.446 77.237,233.961 77.822 C 233.422 78.471,165.700 78.460,164.982 77.810 C 164.417 77.299,164.366 76.224,164.873 75.501 C 165.073 75.215,165.377 74.227,165.548 73.306 C 165.718 72.386,166.060 71.341,166.307 70.984 C 166.554 70.628,166.956 69.734,167.201 68.997 C 167.445 68.260,167.795 67.532,167.979 67.379 C 168.163 67.226,168.522 66.641,168.776 66.077 C 169.058 65.451,169.451 65.011,169.787 64.945 C 171.682 64.573,228.932 64.789,229.476 65.170 M344.402 65.384 C 344.560 65.653,344.938 66.179,345.243 66.553 C 345.547 66.927,345.916 67.666,346.062 68.195 C 346.208 68.723,346.560 69.483,346.844 69.882 C 347.129 70.282,347.488 71.295,347.643 72.133 C 347.798 72.972,348.149 74.037,348.423 74.501 C 348.865 75.250,349.073 76.209,348.991 77.119 C 348.886 78.286,350.368 78.239,314.165 78.234 C 295.474 78.232,280.053 78.145,279.896 78.040 C 279.113 77.517,279.021 75.130,279.784 75.130 C 279.914 75.130,280.095 74.576,280.186 73.899 C 280.385 72.426,281.059 70.207,281.307 70.207 C 281.405 70.207,281.690 69.630,281.940 68.924 C 282.191 68.218,282.562 67.475,282.766 67.271 C 282.969 67.068,283.212 66.594,283.307 66.217 C 283.695 64.671,281.833 64.754,314.347 64.828 C 343.190 64.894,344.123 64.912,344.402 65.384 M118.689 84.174 C 119.300 84.669,119.301 84.670,119.301 90.795 L 119.301 96.921 118.653 97.418 C 117.783 98.086,49.469 98.224,48.560 97.560 C 47.782 96.991,47.782 84.615,48.560 84.046 C 49.466 83.384,117.867 83.508,118.689 84.174 M234.342 84.046 C 235.132 84.624,235.118 96.921,234.326 97.519 C 233.496 98.147,164.996 98.127,164.475 97.499 C 164.195 97.162,164.119 95.735,164.119 90.803 C 164.119 85.872,164.195 84.444,164.475 84.107 C 164.978 83.500,233.513 83.441,234.342 84.046 M349.059 84.070 C 349.983 84.995,350.033 96.372,349.118 97.383 L 348.624 97.927 314.164 97.927 C 282.462 97.927,279.666 97.893,279.230 97.499 C 278.542 96.876,278.502 84.908,279.185 84.153 C 279.790 83.484,348.393 83.404,349.059 84.070 M118.794 104.004 C 119.429 104.639,119.430 104.649,119.430 110.092 C 119.430 116.182,119.374 116.380,117.566 116.706 C 115.579 117.063,48.802 116.724,48.356 116.354 C 47.732 115.837,47.710 104.830,48.331 103.944 L 48.734 103.368 83.446 103.368 L 118.158 103.368 118.794 104.004 M234.456 103.886 C 234.993 104.423,235.278 115.206,234.776 115.959 C 234.195 116.829,233.758 116.839,199.240 116.839 C 165.371 116.839,165.021 116.834,164.508 116.321 C 163.888 115.701,163.704 105.314,164.290 104.028 L 164.591 103.368 199.264 103.368 C 233.592 103.368,233.943 103.373,234.456 103.886 M349.213 103.935 C 349.711 104.469,349.741 104.824,349.741 110.134 L 349.741 115.766 349.058 116.302 L 348.376 116.839 314.040 116.839 C 282.454 116.839,279.666 116.805,279.230 116.411 C 278.633 115.870,278.498 104.811,279.078 103.882 C 279.396 103.373,279.759 103.368,314.042 103.368 L 348.684 103.368 349.213 103.935 M118.747 122.817 L 119.430 123.354 119.430 128.754 C 119.430 134.738,119.415 134.835,118.375 135.372 C 117.037 136.064,49.142 135.929,48.446 135.233 C 47.599 134.386,47.650 123.281,48.503 122.683 C 49.017 122.323,52.772 122.280,83.572 122.280 L 118.065 122.280 118.747 122.817 M234.456 122.798 C 235.267 123.609,235.251 134.034,234.437 135.069 L 233.900 135.751 199.365 135.751 C 167.578 135.751,164.802 135.717,164.475 135.324 C 163.895 134.626,163.813 123.271,164.383 122.700 C 165.114 121.970,233.724 122.066,234.456 122.798 M349.223 122.798 C 350.112 123.687,350.012 134.209,349.105 135.115 L 348.469 135.751 314.059 135.751 C 283.335 135.751,279.587 135.708,279.073 135.348 C 278.270 134.786,278.158 123.022,278.951 122.560 C 279.961 121.971,348.629 122.204,349.223 122.798 M118.127 141.386 C 119.340 141.997,119.473 142.778,119.378 148.764 L 119.301 153.616 118.582 154.334 L 117.864 155.052 84.165 155.119 C 61.762 155.164,50.135 155.098,49.480 154.922 C 48.056 154.538,47.927 153.940,47.927 147.687 C 47.927 141.831,48.042 141.327,49.420 141.118 C 52.136 140.706,117.282 140.960,118.127 141.386 M234.382 141.525 C 234.799 141.942,234.845 142.572,234.845 147.959 L 234.845 153.931 234.118 154.556 L 233.391 155.181 199.214 155.181 L 165.038 155.181 164.579 154.480 C 163.843 153.356,163.884 141.839,164.626 141.297 C 165.496 140.662,233.741 140.884,234.382 141.525 M348.543 141.179 C 350.351 141.867,350.300 153.930,348.485 154.901 C 348.117 155.098,337.794 155.181,313.865 155.181 L 279.769 155.181 279.133 154.545 L 278.497 153.910 278.501 148.004 C 278.505 141.921,278.530 141.738,279.404 141.242 C 280.070 140.865,347.553 140.803,348.543 141.179 M118.582 160.692 L 119.301 161.409 119.378 166.262 C 119.473 172.246,119.340 173.028,118.127 173.642 C 117.281 174.071,115.227 174.094,83.073 174.031 L 48.918 173.964 48.423 173.352 C 47.839 172.632,47.668 162.740,48.212 161.179 C 48.670 159.864,48.043 159.886,83.997 159.931 L 117.864 159.974 118.582 160.692 M234.118 160.470 L 234.845 161.095 234.845 167.067 C 234.845 172.454,234.799 173.084,234.382 173.501 C 233.741 174.142,165.496 174.364,164.626 173.729 C 163.884 173.187,163.843 161.670,164.579 160.546 L 165.038 159.845 199.214 159.845 L 233.391 159.845 234.118 160.470 M348.485 160.124 C 349.523 160.680,349.741 161.856,349.739 166.896 C 349.738 172.210,349.520 173.475,348.543 173.847 C 347.627 174.194,280.179 174.179,279.528 173.831 C 278.264 173.155,277.925 161.689,279.133 160.480 L 279.769 159.845 313.865 159.845 C 337.794 159.845,348.117 159.928,348.485 160.124 M116.743 179.430 C 117.725 179.693,118.058 180.715,117.435 181.557 C 117.142 181.952,116.816 182.791,116.710 183.420 C 116.604 184.049,116.247 184.976,115.917 185.481 C 115.587 185.986,115.234 186.749,115.132 187.176 C 115.031 187.604,114.616 188.336,114.210 188.804 C 113.804 189.272,113.470 189.855,113.469 190.100 C 113.467 190.344,112.992 191.040,112.413 191.645 L 111.360 192.746 83.504 192.746 L 55.648 192.746 54.767 191.865 C 54.282 191.381,53.886 190.753,53.886 190.470 C 53.886 190.187,53.605 189.772,53.261 189.546 C 52.917 189.321,52.557 188.780,52.462 188.345 C 52.366 187.909,52.021 187.235,51.695 186.846 C 51.369 186.458,51.016 185.631,50.912 185.009 C 50.807 184.388,50.443 183.468,50.102 182.966 C 49.446 181.999,49.294 180.627,49.750 179.776 C 50.014 179.282,114.942 178.946,116.743 179.430 M232.902 179.741 L 233.478 180.207 233.027 182.236 C 232.779 183.351,232.387 184.454,232.156 184.686 C 231.925 184.919,231.585 185.691,231.400 186.402 C 231.215 187.113,230.855 187.869,230.599 188.083 C 230.344 188.297,229.977 188.880,229.783 189.378 C 229.446 190.249,228.130 192.151,227.591 192.548 C 227.448 192.653,214.765 192.740,199.405 192.742 L 171.479 192.746 170.908 192.147 C 170.367 191.579,169.737 190.611,168.948 189.132 C 168.754 188.769,168.329 188.063,168.004 187.565 C 167.679 187.066,167.269 186.192,167.094 185.622 C 166.918 185.052,166.606 184.393,166.400 184.157 C 165.389 182.997,165.243 180.089,166.166 179.473 C 166.891 178.989,232.297 179.252,232.902 179.741 M347.672 179.856 C 348.027 180.237,348.157 180.617,348.050 180.957 C 347.960 181.243,347.770 182.060,347.627 182.772 C 347.485 183.484,347.154 184.301,346.894 184.585 C 346.633 184.870,346.288 185.597,346.128 186.201 C 345.968 186.805,345.550 187.609,345.198 187.988 C 344.847 188.367,344.560 188.889,344.560 189.148 C 344.560 189.407,344.210 190.018,343.782 190.504 C 343.355 190.991,343.005 191.482,343.005 191.594 C 343.005 192.793,344.176 192.746,314.243 192.746 C 283.746 192.746,284.974 192.805,284.974 191.349 C 284.974 191.171,284.624 190.634,284.197 190.155 C 283.769 189.677,283.420 189.081,283.420 188.832 C 283.420 188.583,283.260 188.219,283.065 188.024 C 282.590 187.550,281.865 186.126,281.865 185.670 C 281.865 185.468,281.649 185.025,281.385 184.685 C 280.257 183.236,279.849 180.253,280.693 179.636 C 281.110 179.331,286.362 179.275,314.159 179.275 L 347.130 179.275 347.672 179.856 M104.505 198.791 L 105.230 199.267 104.643 199.892 C 104.319 200.237,103.871 200.518,103.646 200.518 C 103.421 200.518,102.915 200.859,102.522 201.275 C 102.129 201.692,101.471 202.107,101.060 202.197 C 100.649 202.287,100.107 202.588,99.856 202.866 C 99.605 203.143,98.935 203.495,98.367 203.648 C 97.799 203.801,97.030 204.150,96.659 204.423 C 96.288 204.696,95.297 205.046,94.456 205.200 C 93.615 205.355,92.773 205.636,92.584 205.825 C 91.350 207.059,77.344 207.113,74.822 205.894 C 74.011 205.502,73.020 205.177,72.620 205.171 C 72.219 205.165,71.250 204.816,70.466 204.394 C 69.683 203.972,68.855 203.627,68.627 203.627 C 68.399 203.627,67.700 203.279,67.073 202.854 C 66.446 202.430,65.795 202.080,65.628 202.077 C 65.460 202.075,65.099 201.788,64.825 201.440 C 64.551 201.092,64.029 200.732,63.665 200.640 C 61.904 200.199,61.702 198.777,63.342 198.371 C 65.097 197.935,103.802 198.331,104.505 198.791 M220.388 198.774 C 220.904 199.290,220.670 199.926,219.793 200.391 C 219.522 200.535,218.788 201.031,218.161 201.492 C 217.534 201.954,216.900 202.332,216.752 202.332 C 216.605 202.332,216.225 202.575,215.909 202.872 C 215.593 203.169,214.849 203.521,214.256 203.654 C 213.663 203.787,212.861 204.131,212.474 204.417 C 212.087 204.703,211.308 205.007,210.743 205.094 C 210.177 205.180,209.074 205.556,208.290 205.928 C 205.619 207.199,190.415 207.012,190.415 205.708 C 190.415 205.578,189.861 205.399,189.184 205.310 C 187.856 205.136,186.010 204.448,186.010 204.129 C 186.010 204.020,185.535 203.851,184.953 203.753 C 184.353 203.652,183.526 203.250,183.041 202.823 C 182.570 202.410,182.006 202.073,181.786 202.073 C 181.567 202.073,181.057 201.797,180.655 201.461 C 180.252 201.125,179.551 200.660,179.097 200.427 C 177.729 199.726,177.821 198.595,179.265 198.364 C 181.785 197.962,219.956 198.343,220.388 198.774 M335.104 198.797 C 335.679 199.372,335.423 199.949,334.363 200.469 C 333.982 200.656,333.377 201.082,333.017 201.415 C 332.657 201.749,332.073 202.094,331.719 202.183 C 331.365 202.272,330.851 202.569,330.577 202.843 C 330.303 203.116,329.590 203.472,328.991 203.633 C 328.393 203.795,327.596 204.154,327.221 204.431 C 326.845 204.709,326.075 205.007,325.510 205.094 C 324.944 205.180,323.841 205.556,323.057 205.928 L 321.632 206.606 314.249 206.606 L 306.865 206.606 305.440 205.928 C 304.657 205.554,303.502 205.184,302.875 205.105 C 302.247 205.026,301.419 204.728,301.034 204.444 C 300.649 204.159,299.845 203.795,299.247 203.633 C 298.649 203.472,297.935 203.116,297.661 202.842 C 297.387 202.568,296.781 202.165,296.314 201.947 C 295.562 201.595,294.995 201.232,293.163 199.933 C 292.498 199.462,292.987 198.523,293.977 198.369 C 296.695 197.946,334.647 198.340,335.104 198.797 " stroke="none" fill="#683296" fill-rule="evenodd"></path><path id="path1" d="M0.000 129.534 L 0.000 259.067 200.000 259.067 L 400.000 259.067 400.000 129.534 L 400.000 0.000 200.000 0.000 L 0.000 0.000 0.000 129.534 M89.715 41.311 C 90.400 41.547,92.062 41.905,93.410 42.107 C 94.759 42.310,96.297 42.711,96.830 43.000 C 97.362 43.288,98.468 43.707,99.288 43.931 C 100.107 44.154,100.777 44.430,100.777 44.543 C 100.777 44.656,101.331 44.955,102.008 45.207 C 102.685 45.459,103.472 45.864,103.756 46.107 C 104.041 46.350,104.683 46.706,105.181 46.898 C 105.680 47.091,106.345 47.518,106.659 47.847 C 106.972 48.176,107.401 48.446,107.611 48.446 C 107.822 48.446,108.210 48.721,108.475 49.058 C 108.741 49.395,109.193 49.746,109.481 49.837 C 110.337 50.109,117.617 57.834,117.617 58.471 C 117.617 58.607,117.908 58.992,118.264 59.326 C 118.620 59.661,118.912 60.069,118.912 60.233 C 118.912 60.397,119.320 61.104,119.819 61.806 C 120.317 62.507,120.725 63.265,120.725 63.490 C 120.725 63.715,121.009 64.166,121.355 64.491 C 121.723 64.837,122.058 65.528,122.162 66.155 C 122.357 67.332,122.605 67.905,123.157 68.457 C 123.357 68.657,123.639 69.582,123.784 70.514 C 123.929 71.446,124.312 72.778,124.635 73.475 C 125.574 75.501,125.611 77.528,125.615 127.332 C 125.618 176.616,125.572 179.117,124.630 181.180 C 124.314 181.871,123.945 183.123,123.810 183.961 C 123.674 184.808,123.280 185.904,122.922 186.431 C 122.569 186.952,122.280 187.672,122.280 188.032 C 122.280 188.391,121.943 189.220,121.530 189.874 C 121.118 190.527,120.701 191.328,120.603 191.653 C 120.506 191.979,120.155 192.537,119.824 192.894 C 119.493 193.252,119.146 193.848,119.052 194.220 C 118.959 194.592,118.598 195.121,118.250 195.395 C 117.901 195.668,117.617 196.010,117.617 196.153 C 117.617 196.369,115.842 198.581,114.573 199.947 C 114.394 200.139,114.249 200.465,114.249 200.672 C 114.249 200.878,113.970 201.174,113.630 201.329 C 113.289 201.485,112.884 201.890,112.728 202.231 C 112.573 202.571,112.277 202.850,112.071 202.850 C 111.864 202.850,111.538 202.995,111.346 203.174 C 110.046 204.381,107.773 206.218,107.579 206.218 C 107.450 206.218,107.076 206.503,106.748 206.852 C 106.421 207.201,105.830 207.557,105.435 207.644 C 105.040 207.730,104.516 208.024,104.270 208.295 C 104.024 208.567,103.400 208.922,102.883 209.085 C 102.366 209.249,101.535 209.650,101.036 209.978 C 100.538 210.305,99.722 210.653,99.223 210.751 C 98.724 210.849,97.722 211.205,96.996 211.541 C 96.270 211.878,94.886 212.280,93.919 212.434 C 92.953 212.588,91.799 212.912,91.353 213.154 C 89.837 213.976,78.849 213.959,75.963 213.130 C 74.721 212.773,72.954 212.345,72.036 212.179 C 71.118 212.012,70.082 211.652,69.734 211.378 C 69.386 211.105,68.840 210.881,68.520 210.881 C 67.841 210.881,66.165 210.221,65.947 209.868 C 65.865 209.735,65.229 209.437,64.535 209.206 C 63.841 208.975,63.073 208.565,62.827 208.294 C 62.582 208.023,62.052 207.729,61.649 207.641 C 61.246 207.552,60.765 207.296,60.579 207.072 C 60.393 206.849,59.798 206.386,59.257 206.044 C 58.715 205.702,58.028 205.209,57.728 204.948 C 57.429 204.687,56.789 204.138,56.306 203.727 C 53.295 201.165,49.851 197.267,48.550 194.948 C 48.310 194.521,47.848 193.853,47.524 193.465 C 47.200 193.076,46.860 192.418,46.769 192.002 C 46.678 191.586,46.376 191.040,46.098 190.789 C 45.821 190.538,45.466 189.856,45.309 189.275 C 45.152 188.693,44.805 187.909,44.536 187.532 C 44.268 187.156,43.915 186.226,43.753 185.466 C 43.590 184.706,43.231 183.651,42.955 183.123 C 42.669 182.574,42.295 180.958,42.085 179.358 C 41.882 177.816,41.598 176.147,41.454 175.649 C 41.007 174.107,41.100 79.947,41.549 79.067 C 41.745 78.683,41.991 77.202,42.095 75.777 C 42.234 73.885,42.444 72.872,42.872 72.021 C 43.195 71.380,43.592 70.229,43.754 69.465 C 43.916 68.700,44.270 67.764,44.541 67.384 C 44.812 67.003,45.119 66.237,45.223 65.680 C 45.328 65.123,45.677 64.403,45.998 64.082 C 46.320 63.760,46.722 63.077,46.891 62.564 C 47.061 62.052,47.479 61.330,47.822 60.960 C 48.165 60.590,48.446 60.147,48.446 59.976 C 48.446 59.806,48.691 59.444,48.990 59.173 C 49.290 58.902,49.698 58.365,49.896 57.981 C 50.095 57.596,50.546 56.971,50.898 56.591 C 51.250 56.212,51.606 55.687,51.689 55.425 C 51.772 55.163,52.074 54.874,52.361 54.784 C 52.647 54.693,53.008 54.339,53.164 53.998 C 53.319 53.657,53.669 53.307,53.941 53.221 C 54.213 53.135,54.564 52.783,54.721 52.439 C 54.877 52.095,55.107 51.813,55.230 51.813 C 55.354 51.813,55.831 51.461,56.290 51.030 C 57.739 49.669,59.247 48.542,60.078 48.197 C 60.519 48.014,60.881 47.758,60.881 47.628 C 60.881 47.497,61.425 47.158,62.090 46.873 C 62.754 46.588,63.425 46.197,63.579 46.004 C 63.734 45.812,64.462 45.460,65.198 45.223 C 65.933 44.986,66.593 44.640,66.665 44.454 C 66.736 44.268,67.592 43.916,68.566 43.671 C 69.540 43.427,70.512 43.068,70.727 42.874 C 70.941 42.680,72.268 42.336,73.676 42.110 C 75.083 41.883,76.357 41.622,76.507 41.530 C 77.969 40.626,87.280 40.472,89.715 41.311 M203.856 40.938 C 204.908 41.075,205.904 41.298,206.070 41.435 C 206.235 41.572,207.623 41.871,209.154 42.098 C 212.118 42.538,212.694 42.685,212.694 42.999 C 212.694 43.108,213.248 43.343,213.925 43.522 C 215.141 43.843,219.439 45.783,219.689 46.124 C 219.760 46.221,220.227 46.508,220.725 46.762 C 221.224 47.016,221.962 47.498,222.364 47.834 C 222.767 48.171,223.295 48.446,223.537 48.446 C 223.780 48.446,224.287 48.766,224.665 49.158 C 225.043 49.550,225.782 50.220,226.306 50.648 C 226.831 51.075,227.392 51.579,227.555 51.767 C 227.717 51.955,228.068 52.305,228.335 52.544 C 228.602 52.783,228.951 53.129,229.112 53.312 C 229.615 53.886,229.978 54.260,230.476 54.720 C 230.742 54.965,231.250 55.524,231.606 55.962 C 231.962 56.401,232.633 57.166,233.096 57.663 C 233.559 58.160,233.938 58.733,233.938 58.937 C 233.938 59.141,234.280 59.698,234.697 60.173 C 235.115 60.649,235.534 61.344,235.627 61.718 C 235.721 62.092,235.949 62.456,236.135 62.527 C 236.320 62.598,236.679 63.218,236.932 63.906 C 237.186 64.593,237.534 65.330,237.705 65.544 C 237.876 65.758,238.271 66.712,238.583 67.665 C 238.895 68.618,239.258 69.434,239.389 69.478 C 239.520 69.523,239.791 70.498,239.991 71.645 C 240.191 72.792,240.630 74.308,240.967 75.013 L 241.580 76.295 241.656 124.870 C 241.729 172.027,241.637 179.098,240.945 179.526 C 240.784 179.625,240.471 180.688,240.247 181.887 C 240.024 183.086,239.567 184.601,239.231 185.253 C 238.896 185.905,238.542 186.936,238.445 187.544 C 238.347 188.152,238.067 188.843,237.821 189.079 C 237.576 189.315,237.228 189.974,237.050 190.544 C 236.871 191.114,236.461 191.872,236.138 192.228 C 235.815 192.584,235.471 193.139,235.374 193.460 C 235.277 193.781,234.930 194.364,234.603 194.755 C 234.276 195.146,233.930 195.718,233.834 196.026 C 233.737 196.334,233.372 196.774,233.021 197.004 C 232.670 197.233,232.383 197.525,232.383 197.652 C 232.383 198.094,228.185 202.516,226.461 203.892 C 225.839 204.387,224.990 205.113,224.574 205.505 C 224.157 205.897,223.658 206.218,223.464 206.218 C 223.271 206.218,223.044 206.396,222.961 206.613 C 222.877 206.831,222.296 207.228,221.669 207.497 C 221.042 207.766,220.310 208.214,220.044 208.492 C 219.778 208.771,219.143 209.074,218.633 209.166 C 218.124 209.258,217.466 209.558,217.171 209.833 C 216.876 210.108,215.952 210.528,215.118 210.766 C 214.284 211.005,213.426 211.348,213.212 211.528 C 212.695 211.964,212.142 212.115,209.900 212.430 C 208.861 212.576,207.700 212.899,207.320 213.148 C 206.278 213.831,192.692 213.835,191.650 213.153 C 191.274 212.906,190.113 212.578,189.071 212.423 C 188.029 212.268,186.593 211.871,185.881 211.540 C 185.168 211.209,184.061 210.789,183.420 210.605 C 182.778 210.422,182.021 210.079,181.736 209.843 C 181.451 209.607,180.741 209.279,180.159 209.114 C 179.576 208.948,178.888 208.579,178.629 208.292 C 178.370 208.006,178.018 207.772,177.846 207.772 C 177.674 207.772,177.022 207.365,176.397 206.868 C 175.771 206.370,175.142 205.962,175.000 205.961 C 174.858 205.960,174.047 205.317,173.198 204.534 C 172.349 203.750,171.582 203.109,171.492 203.109 C 171.402 203.109,171.034 202.788,170.674 202.396 C 170.314 202.005,169.799 201.491,169.530 201.256 C 169.003 200.794,167.879 199.520,166.839 198.208 C 166.483 197.758,165.946 197.132,165.645 196.817 C 165.344 196.501,164.846 195.748,164.539 195.142 C 164.231 194.537,163.870 194.041,163.736 194.041 C 163.602 194.041,163.354 193.578,163.184 193.012 C 163.014 192.446,162.685 191.776,162.453 191.523 C 162.220 191.269,161.819 190.506,161.562 189.827 C 161.304 189.147,160.932 188.430,160.735 188.233 C 160.538 188.036,160.253 187.309,160.101 186.619 C 159.950 185.928,159.595 185.043,159.311 184.653 C 159.000 184.224,158.698 183.197,158.549 182.062 C 158.261 179.869,157.840 178.258,157.421 177.745 C 157.201 177.475,157.106 164.776,157.055 128.543 L 156.986 79.705 157.767 76.661 C 158.197 74.987,158.549 73.253,158.549 72.808 C 158.549 72.363,158.883 71.275,159.291 70.391 C 159.699 69.506,160.103 68.323,160.189 67.761 C 160.276 67.199,160.504 66.651,160.697 66.543 C 160.891 66.435,161.208 65.845,161.404 65.233 C 161.599 64.620,162.018 63.801,162.334 63.413 C 162.651 63.025,162.987 62.354,163.081 61.924 C 163.176 61.493,163.460 60.995,163.713 60.816 C 163.965 60.638,164.380 60.084,164.635 59.585 C 164.889 59.087,165.431 58.271,165.839 57.772 C 166.247 57.273,166.843 56.543,167.164 56.150 C 168.018 55.100,171.554 51.548,172.641 50.648 C 173.157 50.220,173.841 49.624,174.160 49.324 C 174.480 49.023,175.236 48.525,175.842 48.217 C 176.448 47.910,176.943 47.556,176.943 47.432 C 176.943 47.308,177.214 47.138,177.545 47.055 C 177.876 46.972,178.602 46.595,179.158 46.218 C 179.715 45.840,180.618 45.373,181.164 45.180 C 181.711 44.988,182.441 44.608,182.786 44.336 C 183.131 44.064,183.928 43.765,184.557 43.671 C 185.185 43.576,185.962 43.272,186.283 42.993 C 186.604 42.715,186.995 42.485,187.151 42.482 C 188.210 42.465,192.329 41.689,192.613 41.454 C 193.423 40.781,200.239 40.468,203.856 40.938 M318.623 40.938 C 319.675 41.075,320.672 41.299,320.839 41.438 C 321.006 41.576,322.418 41.884,323.978 42.122 C 325.537 42.360,327.007 42.723,327.243 42.928 C 327.479 43.133,328.347 43.477,329.172 43.693 C 329.997 43.908,330.948 44.301,331.285 44.566 C 331.622 44.831,332.328 45.186,332.853 45.355 C 333.378 45.523,333.983 45.807,334.197 45.986 C 334.411 46.165,334.994 46.516,335.492 46.767 C 335.991 47.018,336.729 47.498,337.131 47.834 C 337.534 48.171,338.066 48.446,338.313 48.446 C 338.560 48.446,339.021 48.795,339.337 49.223 C 339.653 49.650,340.022 50.000,340.156 50.000 C 340.493 50.000,346.891 56.347,346.891 56.681 C 346.891 56.830,347.241 57.281,347.668 57.684 C 348.096 58.088,348.446 58.538,348.446 58.684 C 348.446 58.830,348.788 59.365,349.207 59.874 C 349.626 60.382,350.045 61.099,350.137 61.468 C 350.230 61.836,350.524 62.335,350.790 62.576 C 351.056 62.817,351.463 63.583,351.694 64.278 C 351.924 64.973,352.273 65.631,352.469 65.740 C 352.664 65.849,353.001 66.617,353.216 67.445 C 353.432 68.273,353.835 69.321,354.113 69.773 C 354.390 70.226,354.699 71.295,354.801 72.150 C 354.902 73.005,355.292 74.404,355.666 75.259 L 356.347 76.813 356.347 127.202 L 356.347 177.591 355.652 179.299 C 355.270 180.239,354.878 181.754,354.782 182.667 C 354.668 183.750,354.396 184.641,353.999 185.233 C 353.665 185.732,353.311 186.646,353.213 187.265 C 353.115 187.884,352.772 188.703,352.450 189.086 C 352.128 189.468,351.739 190.244,351.587 190.810 C 351.434 191.376,351.095 191.972,350.833 192.134 C 350.572 192.297,350.221 192.887,350.054 193.445 C 349.887 194.004,349.456 194.737,349.098 195.074 C 348.739 195.411,348.446 195.798,348.446 195.935 C 348.446 196.072,348.183 196.450,347.863 196.775 C 347.542 197.100,346.813 197.967,346.244 198.701 C 345.104 200.170,342.288 203.107,342.013 203.113 C 341.917 203.115,341.150 203.756,340.308 204.538 C 339.466 205.319,338.688 205.959,338.579 205.959 C 338.471 205.959,338.033 206.252,337.608 206.610 C 337.182 206.968,336.410 207.438,335.893 207.654 C 335.375 207.871,334.888 208.213,334.810 208.416 C 334.732 208.619,334.043 208.967,333.277 209.189 C 332.512 209.412,331.792 209.762,331.677 209.968 C 331.562 210.174,330.712 210.534,329.788 210.768 C 328.864 211.002,327.934 211.341,327.720 211.522 C 327.349 211.837,325.908 212.214,323.732 212.568 C 323.176 212.658,322.424 212.928,322.059 213.167 C 321.021 213.847,307.521 213.817,306.266 213.132 C 305.793 212.875,304.340 212.491,303.037 212.280 C 301.733 212.069,300.477 211.726,300.247 211.517 C 300.016 211.308,299.196 210.950,298.424 210.721 C 297.652 210.492,296.729 210.101,296.373 209.852 C 296.017 209.602,295.302 209.261,294.785 209.094 C 294.268 208.926,293.638 208.560,293.385 208.280 C 293.132 208.001,292.812 207.772,292.674 207.772 C 292.381 207.772,289.567 205.954,288.555 205.112 C 286.591 203.477,284.505 201.559,283.566 200.525 C 282.987 199.888,282.192 199.034,281.801 198.627 C 281.409 198.220,281.088 197.781,281.088 197.650 C 281.088 197.520,280.738 197.102,280.311 196.721 C 279.883 196.340,279.534 195.884,279.534 195.707 C 279.534 195.530,279.126 194.897,278.627 194.301 C 278.128 193.704,277.720 193.057,277.720 192.864 C 277.720 192.672,277.431 192.202,277.078 191.821 C 276.725 191.440,276.361 190.706,276.269 190.189 C 276.177 189.672,275.828 188.882,275.493 188.434 C 275.159 187.985,274.812 187.111,274.723 186.491 C 274.633 185.870,274.357 185.071,274.108 184.715 C 273.639 184.042,273.208 182.402,272.917 180.185 C 272.824 179.474,272.573 178.554,272.358 178.140 C 271.204 175.907,271.213 78.073,272.368 76.371 C 272.630 75.984,272.949 74.833,273.077 73.811 C 273.205 72.789,273.588 71.356,273.928 70.627 C 274.268 69.897,274.627 68.834,274.726 68.264 C 274.824 67.694,275.174 66.815,275.503 66.311 C 275.832 65.807,276.181 65.030,276.278 64.585 C 276.376 64.139,276.744 63.444,277.095 63.040 C 277.446 62.636,277.808 62.016,277.900 61.661 C 277.992 61.306,278.338 60.803,278.671 60.541 C 279.003 60.280,279.275 59.911,279.275 59.721 C 279.275 59.531,279.683 58.887,280.181 58.290 C 280.680 57.693,281.088 57.039,281.088 56.835 C 281.088 56.632,281.380 56.333,281.736 56.170 C 282.092 56.008,282.383 55.773,282.383 55.649 C 282.383 55.262,287.714 50.070,288.303 49.883 C 288.609 49.786,288.860 49.606,288.860 49.484 C 288.860 49.244,292.284 46.895,292.651 46.885 C 292.775 46.881,293.511 46.473,294.289 45.978 C 295.066 45.483,295.855 45.078,296.043 45.078 C 296.231 45.078,296.819 44.797,297.350 44.454 C 297.881 44.111,298.724 43.748,299.223 43.649 C 299.722 43.549,300.479 43.257,300.907 43.000 C 301.334 42.743,302.886 42.356,304.356 42.140 C 305.825 41.923,307.185 41.615,307.377 41.456 C 308.190 40.781,315.001 40.468,318.623 40.938 M76.575 48.218 C 76.016 48.349,75.429 48.563,75.271 48.695 C 75.113 48.826,74.125 49.112,73.076 49.331 C 72.027 49.550,70.973 49.906,70.734 50.122 C 70.495 50.338,69.783 50.672,69.152 50.864 C 68.521 51.056,67.581 51.494,67.063 51.837 C 66.545 52.180,65.733 52.694,65.259 52.979 C 63.406 54.093,62.239 54.997,60.163 56.932 C 57.561 59.356,55.884 59.186,83.209 59.266 C 108.201 59.339,108.031 59.346,108.031 58.205 C 108.031 57.709,103.820 53.898,103.247 53.875 C 103.100 53.870,102.576 53.520,102.082 53.098 C 101.589 52.677,101.051 52.332,100.887 52.332 C 100.722 52.332,100.275 52.085,99.892 51.784 C 99.509 51.483,98.657 51.074,97.998 50.876 C 97.338 50.678,96.604 50.338,96.365 50.122 C 96.126 49.906,95.071 49.550,94.020 49.330 C 92.969 49.111,92.046 48.829,91.968 48.703 C 91.522 47.982,79.234 47.594,76.575 48.218 M192.617 48.184 C 192.047 48.304,191.231 48.586,190.803 48.811 C 190.376 49.036,189.793 49.221,189.508 49.223 C 188.696 49.227,187.098 49.727,186.732 50.090 C 186.549 50.271,185.758 50.628,184.974 50.882 C 184.190 51.136,183.341 51.566,183.086 51.838 C 182.831 52.109,182.473 52.332,182.290 52.332 C 182.108 52.332,181.567 52.681,181.088 53.109 C 180.609 53.536,180.085 53.886,179.923 53.886 C 179.760 53.886,179.169 54.294,178.609 54.793 C 178.049 55.291,177.515 55.699,177.424 55.699 C 177.143 55.700,174.870 57.936,174.870 58.211 C 174.870 58.353,175.084 58.662,175.344 58.898 C 176.052 59.538,222.787 59.559,223.427 58.919 C 223.948 58.398,223.945 57.881,223.416 57.458 C 223.186 57.275,222.640 56.745,222.203 56.282 C 221.765 55.819,221.282 55.440,221.129 55.440 C 220.975 55.440,220.707 55.211,220.532 54.930 C 220.356 54.650,219.856 54.236,219.419 54.010 C 218.983 53.784,218.401 53.375,218.128 53.102 C 217.854 52.828,217.306 52.529,216.911 52.437 C 216.515 52.345,216.075 52.126,215.933 51.952 C 215.575 51.514,214.107 50.777,213.590 50.777 C 213.356 50.777,212.879 50.552,212.529 50.277 C 212.179 50.002,211.110 49.599,210.153 49.381 C 209.197 49.164,208.007 48.777,207.510 48.521 C 206.503 48.004,194.732 47.737,192.617 48.184 M307.145 48.208 C 306.586 48.344,305.990 48.571,305.820 48.712 C 305.650 48.853,304.825 49.093,303.986 49.245 C 303.147 49.397,302.061 49.754,301.572 50.039 C 301.083 50.323,300.150 50.734,299.499 50.952 C 298.849 51.170,298.083 51.556,297.798 51.810 C 297.513 52.064,297.038 52.345,296.743 52.434 C 296.447 52.524,295.970 52.816,295.682 53.084 C 295.394 53.352,294.761 53.775,294.276 54.024 C 293.791 54.273,293.161 54.697,292.876 54.966 C 292.591 55.236,291.745 56.021,290.997 56.711 C 288.000 59.478,286.671 59.326,313.950 59.326 C 342.787 59.326,340.738 59.758,335.186 54.858 C 334.742 54.466,334.306 54.145,334.216 54.145 C 334.127 54.145,333.671 53.796,333.204 53.369 C 332.737 52.942,332.040 52.519,331.656 52.428 C 331.273 52.338,330.725 52.060,330.440 51.812 C 329.718 51.182,328.879 50.777,328.295 50.777 C 328.022 50.777,327.539 50.551,327.220 50.275 C 326.902 49.999,325.820 49.586,324.816 49.358 C 323.811 49.129,322.626 48.743,322.181 48.500 C 321.244 47.986,309.026 47.749,307.145 48.208 M54.145 64.954 C 53.241 65.120,52.651 65.716,52.442 66.672 C 52.345 67.120,51.993 67.811,51.661 68.207 C 51.329 68.603,50.983 69.361,50.893 69.891 C 50.803 70.421,50.516 71.159,50.255 71.530 C 49.268 72.935,48.672 77.132,49.361 77.822 C 49.907 78.368,117.279 78.472,117.824 77.927 C 118.401 77.351,118.203 74.573,117.484 73.166 C 117.126 72.465,116.760 71.447,116.671 70.903 C 116.582 70.360,116.216 69.485,115.859 68.960 C 115.502 68.435,115.111 67.649,114.990 67.213 C 114.869 66.778,114.412 66.078,113.974 65.659 L 113.178 64.896 83.986 64.865 C 67.930 64.848,54.501 64.888,54.145 64.954 M169.787 64.945 C 169.451 65.011,169.058 65.451,168.776 66.077 C 168.522 66.641,168.163 67.226,167.979 67.379 C 167.795 67.532,167.445 68.260,167.201 68.997 C 166.956 69.734,166.554 70.628,166.307 70.984 C 166.060 71.341,165.718 72.386,165.548 73.306 C 165.377 74.227,165.073 75.215,164.873 75.501 C 164.366 76.224,164.417 77.299,164.982 77.810 C 165.700 78.460,233.422 78.471,233.961 77.822 C 234.446 77.237,234.305 75.239,233.709 74.261 C 233.436 73.812,233.073 72.746,232.901 71.891 C 232.729 71.036,232.406 70.131,232.183 69.879 C 231.959 69.627,231.564 68.816,231.303 68.076 C 231.043 67.336,230.654 66.633,230.441 66.513 C 230.227 66.393,230.052 66.133,230.052 65.934 C 230.052 64.735,230.842 64.764,199.619 64.802 C 183.514 64.822,170.089 64.886,169.787 64.945 M284.030 65.146 C 283.727 65.358,283.402 65.840,283.307 66.217 C 283.212 66.594,282.969 67.068,282.766 67.271 C 282.562 67.475,282.191 68.218,281.940 68.924 C 281.690 69.630,281.405 70.207,281.307 70.207 C 281.059 70.207,280.385 72.426,280.186 73.899 C 280.095 74.576,279.914 75.130,279.784 75.130 C 279.021 75.130,279.113 77.517,279.896 78.040 C 280.053 78.145,295.474 78.232,314.165 78.234 C 350.368 78.239,348.886 78.286,348.991 77.119 C 349.073 76.209,348.865 75.250,348.423 74.501 C 348.149 74.037,347.798 72.972,347.643 72.133 C 347.488 71.295,347.129 70.282,346.844 69.882 C 346.560 69.483,346.208 68.723,346.062 68.195 C 345.916 67.666,345.547 66.927,345.243 66.553 C 344.938 66.179,344.560 65.653,344.402 65.384 C 344.004 64.708,284.988 64.475,284.030 65.146 M48.560 84.046 C 47.782 84.615,47.782 96.991,48.560 97.560 C 49.469 98.224,117.783 98.086,118.653 97.418 L 119.301 96.921 119.301 90.795 C 119.301 84.670,119.300 84.669,118.689 84.174 C 117.867 83.508,49.466 83.384,48.560 84.046 M164.475 84.107 C 164.195 84.444,164.119 85.872,164.119 90.803 C 164.119 95.735,164.195 97.162,164.475 97.499 C 164.996 98.127,233.496 98.147,234.326 97.519 C 235.118 96.921,235.132 84.624,234.342 84.046 C 233.513 83.441,164.978 83.500,164.475 84.107 M279.185 84.153 C 278.502 84.908,278.542 96.876,279.230 97.499 C 279.666 97.893,282.462 97.927,314.164 97.927 L 348.624 97.927 349.118 97.383 C 350.033 96.372,349.983 84.995,349.059 84.070 C 348.393 83.404,279.790 83.484,279.185 84.153 M48.331 103.944 C 47.710 104.830,47.732 115.837,48.356 116.354 C 48.802 116.724,115.579 117.063,117.566 116.706 C 119.374 116.380,119.430 116.182,119.430 110.092 C 119.430 104.649,119.429 104.639,118.794 104.004 L 118.158 103.368 83.446 103.368 L 48.734 103.368 48.331 103.944 M164.290 104.028 C 163.704 105.314,163.888 115.701,164.508 116.321 C 165.021 116.834,165.371 116.839,199.240 116.839 C 233.758 116.839,234.195 116.829,234.776 115.959 C 235.278 115.206,234.993 104.423,234.456 103.886 C 233.943 103.373,233.592 103.368,199.264 103.368 L 164.591 103.368 164.290 104.028 M279.078 103.882 C 278.498 104.811,278.633 115.870,279.230 116.411 C 279.666 116.805,282.454 116.839,314.040 116.839 L 348.376 116.839 349.058 116.302 L 349.741 115.766 349.741 110.134 C 349.741 104.824,349.711 104.469,349.213 103.935 L 348.684 103.368 314.042 103.368 C 279.759 103.368,279.396 103.373,279.078 103.882 M48.503 122.683 C 47.650 123.281,47.599 134.386,48.446 135.233 C 49.142 135.929,117.037 136.064,118.375 135.372 C 119.415 134.835,119.430 134.738,119.430 128.754 L 119.430 123.354 118.747 122.817 L 118.065 122.280 83.572 122.280 C 52.772 122.280,49.017 122.323,48.503 122.683 M164.383 122.700 C 163.813 123.271,163.895 134.626,164.475 135.324 C 164.802 135.717,167.578 135.751,199.365 135.751 L 233.900 135.751 234.437 135.069 C 235.251 134.034,235.267 123.609,234.456 122.798 C 233.724 122.066,165.114 121.970,164.383 122.700 M278.951 122.560 C 278.158 123.022,278.270 134.786,279.073 135.348 C 279.587 135.708,283.335 135.751,314.059 135.751 L 348.469 135.751 349.105 135.115 C 350.012 134.209,350.112 123.687,349.223 122.798 C 348.629 122.204,279.961 121.971,278.951 122.560 M49.420 141.118 C 48.042 141.327,47.927 141.831,47.927 147.687 C 47.927 153.940,48.056 154.538,49.480 154.922 C 50.135 155.098,61.762 155.164,84.165 155.119 L 117.864 155.052 118.582 154.334 L 119.301 153.616 119.378 148.764 C 119.473 142.778,119.340 141.997,118.127 141.386 C 117.282 140.960,52.136 140.706,49.420 141.118 M164.626 141.297 C 163.884 141.839,163.843 153.356,164.579 154.480 L 165.038 155.181 199.214 155.181 L 233.391 155.181 234.118 154.556 L 234.845 153.931 234.845 147.959 C 234.845 142.572,234.799 141.942,234.382 141.525 C 233.741 140.884,165.496 140.662,164.626 141.297 M279.404 141.242 C 278.530 141.738,278.505 141.921,278.501 148.004 L 278.497 153.910 279.133 154.545 L 279.769 155.181 313.865 155.181 C 337.794 155.181,348.117 155.098,348.485 154.901 C 349.523 154.346,349.741 153.170,349.739 148.130 C 349.738 142.816,349.520 141.551,348.543 141.179 C 347.553 140.803,280.070 140.865,279.404 141.242 M49.313 160.126 C 48.079 160.486,47.927 161.277,47.927 167.367 C 47.927 172.272,47.971 172.794,48.423 173.352 L 48.918 173.964 83.073 174.031 C 115.227 174.094,117.281 174.071,118.127 173.642 C 119.340 173.028,119.473 172.246,119.378 166.262 L 119.301 161.409 118.582 160.692 L 117.864 159.974 83.997 159.931 C 64.033 159.906,49.794 159.986,49.313 160.126 M164.579 160.546 C 163.843 161.670,163.884 173.187,164.626 173.729 C 165.496 174.364,233.741 174.142,234.382 173.501 C 234.799 173.084,234.845 172.454,234.845 167.067 L 234.845 161.095 234.118 160.470 L 233.391 159.845 199.214 159.845 L 165.038 159.845 164.579 160.546 M279.133 160.480 C 277.925 161.689,278.264 173.155,279.528 173.831 C 280.179 174.179,347.627 174.194,348.543 173.847 C 350.351 173.159,350.300 161.096,348.485 160.124 C 348.117 159.928,337.794 159.845,313.865 159.845 L 279.769 159.845 279.133 160.480 M49.750 179.776 C 49.294 180.627,49.446 181.999,50.102 182.966 C 50.443 183.468,50.807 184.388,50.912 185.009 C 51.016 185.631,51.369 186.458,51.695 186.846 C 52.021 187.235,52.366 187.909,52.462 188.345 C 52.557 188.780,52.917 189.321,53.261 189.546 C 53.605 189.772,53.886 190.187,53.886 190.470 C 53.886 190.753,54.282 191.381,54.767 191.865 L 55.648 192.746 83.504 192.746 L 111.360 192.746 112.413 191.645 C 112.992 191.040,113.467 190.344,113.469 190.100 C 113.470 189.855,113.804 189.272,114.210 188.804 C 114.616 188.336,115.031 187.604,115.132 187.176 C 115.234 186.749,115.587 185.986,115.917 185.481 C 116.247 184.976,116.604 184.049,116.710 183.420 C 116.816 182.791,117.142 181.952,117.435 181.557 C 118.058 180.715,117.725 179.693,116.743 179.430 C 114.942 178.946,50.014 179.282,49.750 179.776 M166.166 179.473 C 165.243 180.089,165.389 182.997,166.400 184.157 C 166.606 184.393,166.918 185.052,167.094 185.622 C 167.269 186.192,167.679 187.066,168.004 187.565 C 168.329 188.063,168.754 188.769,168.948 189.132 C 169.737 190.611,170.367 191.579,170.908 192.147 L 171.479 192.746 199.405 192.742 C 214.765 192.740,227.448 192.653,227.591 192.548 C 228.130 192.151,229.446 190.249,229.783 189.378 C 229.977 188.880,230.344 188.297,230.599 188.083 C 230.855 187.869,231.215 187.113,231.400 186.402 C 231.585 185.691,231.925 184.919,232.156 184.686 C 232.387 184.454,232.779 183.351,233.027 182.236 L 233.478 180.207 232.902 179.741 C 232.297 179.252,166.891 178.989,166.166 179.473 M280.693 179.636 C 279.849 180.253,280.257 183.236,281.385 184.685 C 281.649 185.025,281.865 185.468,281.865 185.670 C 281.865 186.126,282.590 187.550,283.065 188.024 C 283.260 188.219,283.420 188.583,283.420 188.832 C 283.420 189.081,283.769 189.677,284.197 190.155 C 284.624 190.634,284.974 191.171,284.974 191.349 C 284.974 192.805,283.746 192.746,314.243 192.746 C 344.176 192.746,343.005 192.793,343.005 191.594 C 343.005 191.482,343.355 190.991,343.782 190.504 C 344.210 190.018,344.560 189.407,344.560 189.148 C 344.560 188.889,344.847 188.367,345.198 187.988 C 345.550 187.609,345.968 186.805,346.128 186.201 C 346.288 185.597,346.633 184.870,346.894 184.585 C 347.154 184.301,347.485 183.484,347.627 182.772 C 347.770 182.060,347.960 181.243,348.050 180.957 C 348.157 180.617,348.027 180.237,347.672 179.856 L 347.130 179.275 314.159 179.275 C 286.362 179.275,281.110 179.331,280.693 179.636 M63.342 198.371 C 61.702 198.777,61.904 200.199,63.665 200.640 C 64.029 200.732,64.551 201.092,64.825 201.440 C 65.099 201.788,65.460 202.075,65.628 202.077 C 65.795 202.080,66.446 202.430,67.073 202.854 C 67.700 203.279,68.399 203.627,68.627 203.627 C 68.855 203.627,69.683 203.972,70.466 204.394 C 71.250 204.816,72.219 205.165,72.620 205.171 C 73.020 205.177,74.011 205.502,74.822 205.894 C 77.344 207.113,91.350 207.059,92.584 205.825 C 92.773 205.636,93.615 205.355,94.456 205.200 C 95.297 205.046,96.288 204.696,96.659 204.423 C 97.030 204.150,97.799 203.801,98.367 203.648 C 98.935 203.495,99.605 203.143,99.856 202.866 C 100.107 202.588,100.649 202.287,101.060 202.197 C 101.471 202.107,102.129 201.692,102.522 201.275 C 102.915 200.859,103.421 200.518,103.646 200.518 C 103.871 200.518,104.319 200.237,104.643 199.892 L 105.230 199.267 104.505 198.791 C 103.802 198.331,65.097 197.935,63.342 198.371 M179.265 198.364 C 177.821 198.595,177.729 199.726,179.097 200.427 C 179.551 200.660,180.252 201.125,180.655 201.461 C 181.057 201.797,181.567 202.073,181.786 202.073 C 182.006 202.073,182.570 202.410,183.041 202.823 C 183.526 203.250,184.353 203.652,184.953 203.753 C 185.535 203.851,186.010 204.020,186.010 204.129 C 186.010 204.448,187.856 205.136,189.184 205.310 C 189.861 205.399,190.415 205.578,190.415 205.708 C 190.415 207.012,205.619 207.199,208.290 205.928 C 209.074 205.556,210.177 205.180,210.743 205.094 C 211.308 205.007,212.087 204.703,212.474 204.417 C 212.861 204.131,213.663 203.787,214.256 203.654 C 214.849 203.521,215.593 203.169,215.909 202.872 C 216.225 202.575,216.605 202.332,216.752 202.332 C 216.900 202.332,217.534 201.954,218.161 201.492 C 218.788 201.031,219.522 200.535,219.793 200.391 C 220.670 199.926,220.904 199.290,220.388 198.774 C 219.956 198.343,181.785 197.962,179.265 198.364 M293.977 198.369 C 292.987 198.523,292.498 199.462,293.163 199.933 C 294.995 201.232,295.562 201.595,296.314 201.947 C 296.781 202.165,297.387 202.568,297.661 202.842 C 297.935 203.116,298.649 203.472,299.247 203.633 C 299.845 203.795,300.649 204.159,301.034 204.444 C 301.419 204.728,302.247 205.026,302.875 205.105 C 303.502 205.184,304.657 205.554,305.440 205.928 L 306.865 206.606 314.249 206.606 L 321.632 206.606 323.057 205.928 C 323.841 205.556,324.944 205.180,325.510 205.094 C 326.075 205.007,326.845 204.709,327.221 204.431 C 327.596 204.154,328.393 203.795,328.991 203.633 C 329.590 203.472,330.303 203.116,330.577 202.843 C 330.851 202.569,331.365 202.272,331.719 202.183 C 332.073 202.094,332.657 201.749,333.017 201.415 C 333.377 201.082,333.982 200.656,334.363 200.469 C 335.423 199.949,335.679 199.372,335.104 198.797 C 334.647 198.340,296.695 197.946,293.977 198.369 " stroke="none" fill="#ffffff" fill-rule="evenodd"></path></g></svg>