<svg id="svg" version="1.1" xmlns="http://www.w3.org/2000/svg" xmlns:xlink="http://www.w3.org/1999/xlink" width="400" height="258.91472868217056" viewBox="0, 0, 400,258.91472868217056"><g id="svgg"><path id="path0" d="M179.016 45.754 C 178.374 45.955,176.808 46.288,175.534 46.493 C 174.125 46.720,172.946 47.067,172.525 47.379 C 172.144 47.660,171.400 47.972,170.872 48.071 C 170.343 48.170,169.599 48.503,169.217 48.812 C 168.836 49.120,168.279 49.543,167.980 49.751 C 165.819 51.257,164.692 52.247,164.339 52.946 C 164.113 53.392,163.725 53.990,163.475 54.275 C 161.934 56.032,162.032 62.363,163.638 64.781 C 163.974 65.287,164.249 65.820,164.249 65.965 C 164.249 66.110,164.595 66.687,165.019 67.247 C 165.442 67.806,165.792 68.389,165.796 68.542 C 165.800 68.696,166.211 69.395,166.710 70.096 C 167.209 70.797,167.621 71.488,167.627 71.631 C 167.633 71.774,167.983 72.295,168.404 72.788 C 168.826 73.281,169.171 73.815,169.171 73.974 C 169.171 74.132,169.456 74.530,169.805 74.858 C 170.154 75.186,170.510 75.774,170.596 76.166 C 170.682 76.557,171.038 77.146,171.386 77.474 C 171.735 77.801,172.021 78.201,172.021 78.362 C 172.021 78.523,172.362 79.118,172.779 79.685 C 173.196 80.252,173.621 81.050,173.723 81.458 C 173.826 81.867,174.241 82.854,174.646 83.652 C 175.051 84.450,175.384 85.257,175.385 85.444 C 175.387 85.630,175.679 86.398,176.035 87.149 C 176.390 87.901,176.795 89.117,176.935 89.852 C 177.074 90.587,177.356 91.452,177.561 91.773 C 177.765 92.094,178.124 93.815,178.357 95.596 C 178.590 97.377,178.900 99.242,179.046 99.741 C 179.587 101.590,178.847 110.063,177.823 113.731 C 177.605 114.514,177.192 116.030,176.907 117.098 C 176.622 118.167,176.228 119.291,176.030 119.597 C 175.833 119.902,175.495 120.913,175.279 121.844 C 175.064 122.774,174.651 123.923,174.362 124.397 C 174.073 124.871,173.836 125.447,173.835 125.676 C 173.835 125.905,173.500 126.721,173.091 127.489 C 172.681 128.258,172.259 129.290,172.151 129.783 C 172.044 130.276,171.689 131.092,171.364 131.596 C 171.039 132.100,170.689 132.921,170.588 133.420 C 170.486 133.918,170.135 134.857,169.808 135.507 C 169.481 136.156,169.131 137.126,169.030 137.662 C 168.930 138.199,168.581 139.190,168.255 139.865 C 167.930 140.540,167.579 141.669,167.476 142.373 C 167.374 143.077,167.056 144.117,166.770 144.684 C 166.484 145.250,166.099 146.708,165.915 147.922 C 165.730 149.136,165.341 150.931,165.051 151.911 C 163.571 156.903,163.607 171.708,165.111 176.189 C 165.466 177.245,165.837 178.575,165.936 179.145 C 166.036 179.715,166.381 180.594,166.705 181.098 C 167.028 181.602,167.379 182.418,167.485 182.911 C 167.592 183.405,168.014 184.268,168.425 184.831 C 168.835 185.393,169.171 185.935,169.171 186.035 C 169.171 186.228,170.571 188.360,171.559 189.673 C 172.163 190.474,176.535 194.936,177.881 196.125 C 179.305 197.381,183.104 199.987,183.525 199.995 C 183.654 199.998,184.120 200.267,184.561 200.593 C 185.561 201.332,189.677 203.368,190.175 203.369 C 190.378 203.369,190.952 203.619,191.451 203.924 C 191.949 204.229,193.290 204.705,194.430 204.982 C 195.570 205.260,196.636 205.596,196.799 205.731 C 196.962 205.866,198.769 206.270,200.814 206.630 C 202.860 206.990,205.058 207.387,205.699 207.513 C 210.038 208.362,223.168 207.072,225.491 205.568 C 225.791 205.374,226.619 205.077,227.332 204.908 C 228.044 204.739,229.035 204.336,229.534 204.012 C 230.032 203.688,230.878 203.285,231.412 203.117 C 231.946 202.948,232.383 202.718,232.383 202.605 C 232.383 202.493,232.822 202.110,233.359 201.755 C 234.715 200.858,237.306 198.456,237.306 198.096 C 237.306 197.932,237.598 197.459,237.955 197.044 C 238.312 196.629,238.729 195.813,238.882 195.230 C 239.036 194.648,239.328 193.911,239.532 193.593 C 240.709 191.755,239.784 184.827,238.115 182.982 C 237.881 182.724,237.540 182.175,237.357 181.763 C 237.173 181.350,236.789 180.709,236.503 180.338 C 235.522 179.065,233.939 176.554,233.938 176.271 C 233.938 176.115,233.709 175.780,233.429 175.527 C 233.150 175.274,232.786 174.644,232.620 174.127 C 232.455 173.610,232.123 172.953,231.884 172.668 C 231.303 171.979,229.654 168.706,229.439 167.818 C 229.345 167.429,228.994 166.708,228.659 166.215 C 228.325 165.722,227.976 164.850,227.885 164.278 C 227.793 163.707,227.470 162.818,227.167 162.304 C 226.863 161.790,226.464 160.647,226.280 159.765 C 226.095 158.883,225.678 157.461,225.352 156.606 C 224.787 155.120,224.760 154.724,224.752 147.539 L 224.743 140.026 225.439 138.342 C 225.822 137.416,226.218 136.308,226.318 135.881 C 226.419 135.453,226.834 134.393,227.240 133.524 C 227.647 132.655,227.979 131.826,227.979 131.682 C 227.979 131.538,228.269 130.992,228.624 130.470 C 228.978 129.948,229.342 129.203,229.432 128.815 C 229.521 128.426,229.863 127.639,230.190 127.065 C 230.517 126.490,230.869 125.558,230.973 124.992 C 231.077 124.426,231.436 123.338,231.772 122.573 C 232.107 121.808,232.489 120.526,232.619 119.723 C 232.749 118.921,233.053 117.740,233.294 117.098 C 233.535 116.457,233.891 114.767,234.084 113.342 C 234.277 111.917,234.641 109.585,234.893 108.161 C 235.615 104.084,235.561 92.646,234.801 88.601 C 234.493 86.962,234.164 84.945,234.069 84.118 C 233.975 83.291,233.632 82.009,233.308 81.269 C 232.984 80.528,232.647 79.377,232.559 78.710 C 232.471 78.044,232.160 77.111,231.870 76.638 C 231.579 76.164,231.214 75.312,231.058 74.743 C 230.903 74.175,230.550 73.393,230.275 73.006 C 229.999 72.619,229.646 71.936,229.490 71.489 C 228.988 70.050,226.648 66.394,224.771 64.119 C 223.529 62.613,220.737 59.860,218.941 58.370 C 218.459 57.970,217.736 57.337,217.336 56.964 C 216.935 56.591,216.192 56.040,215.683 55.739 C 215.174 55.439,214.614 55.072,214.439 54.924 C 213.789 54.376,212.286 53.370,211.658 53.062 C 211.302 52.888,210.663 52.509,210.239 52.220 C 209.141 51.471,205.709 49.741,205.324 49.741 C 205.145 49.741,204.448 49.448,203.775 49.090 C 203.101 48.732,202.006 48.318,201.340 48.171 C 200.674 48.024,199.430 47.630,198.575 47.296 C 197.720 46.962,196.321 46.611,195.466 46.515 C 194.611 46.419,192.941 46.114,191.754 45.839 C 189.040 45.207,180.929 45.154,179.016 45.754 " stroke="none" fill="#ec1d2d" fill-rule="evenodd"></path><path id="path1" d="M0.000 129.534 L 0.000 259.067 200.000 259.067 L 400.000 259.067 400.000 129.534 L 400.000 0.000 200.000 0.000 L 0.000 0.000 0.000 129.534 M191.754 45.839 C 192.941 46.114,194.611 46.419,195.466 46.515 C 196.321 46.611,197.720 46.962,198.575 47.296 C 199.430 47.630,200.674 48.024,201.340 48.171 C 202.006 48.318,203.101 48.732,203.775 49.090 C 204.448 49.448,205.145 49.741,205.324 49.741 C 205.709 49.741,209.141 51.471,210.239 52.220 C 210.663 52.509,211.302 52.888,211.658 53.062 C 212.286 53.370,213.789 54.376,214.439 54.924 C 214.614 55.072,215.174 55.439,215.683 55.739 C 216.192 56.040,216.935 56.591,217.336 56.964 C 217.736 57.337,218.459 57.970,218.941 58.370 C 220.737 59.860,223.529 62.613,224.771 64.119 C 226.648 66.394,228.988 70.050,229.490 71.489 C 229.646 71.936,229.999 72.619,230.275 73.006 C 230.550 73.393,230.903 74.175,231.058 74.743 C 231.214 75.312,231.579 76.164,231.870 76.638 C 232.160 77.111,232.471 78.044,232.559 78.710 C 232.647 79.377,232.984 80.528,233.308 81.269 C 233.632 82.009,233.975 83.291,234.069 84.118 C 234.164 84.945,234.493 86.962,234.801 88.601 C 235.561 92.646,235.615 104.084,234.893 108.161 C 234.641 109.585,234.277 111.917,234.084 113.342 C 233.891 114.767,233.535 116.457,233.294 117.098 C 233.053 117.740,232.749 118.921,232.619 119.723 C 232.489 120.526,232.107 121.808,231.772 122.573 C 231.436 123.338,231.077 124.426,230.973 124.992 C 230.869 125.558,230.517 126.490,230.190 127.065 C 229.863 127.639,229.521 128.426,229.432 128.815 C 229.342 129.203,228.978 129.948,228.624 130.470 C 228.269 130.992,227.979 131.538,227.979 131.682 C 227.979 131.826,227.647 132.655,227.240 133.524 C 226.834 134.393,226.419 135.453,226.318 135.881 C 226.218 136.308,225.822 137.416,225.439 138.342 L 224.743 140.026 224.752 147.539 C 224.760 154.724,224.787 155.120,225.352 156.606 C 225.678 157.461,226.095 158.883,226.280 159.765 C 226.464 160.647,226.863 161.790,227.167 162.304 C 227.470 162.818,227.793 163.707,227.885 164.278 C 227.976 164.850,228.325 165.722,228.659 166.215 C 228.994 166.708,229.345 167.429,229.439 167.818 C 229.654 168.706,231.303 171.979,231.884 172.668 C 232.123 172.953,232.455 173.610,232.620 174.127 C 232.786 174.644,233.150 175.274,233.429 175.527 C 233.709 175.780,233.938 176.115,233.938 176.271 C 233.939 176.554,235.522 179.065,236.503 180.338 C 236.789 180.709,237.173 181.350,237.357 181.763 C 237.540 182.175,237.881 182.724,238.115 182.982 C 239.784 184.827,240.709 191.755,239.532 193.593 C 239.328 193.911,239.036 194.648,238.882 195.230 C 238.729 195.813,238.312 196.629,237.955 197.044 C 237.598 197.459,237.306 197.932,237.306 198.096 C 237.306 198.456,234.715 200.858,233.359 201.755 C 232.822 202.110,232.383 202.493,232.383 202.605 C 232.383 202.718,231.946 202.948,231.412 203.117 C 230.878 203.285,230.032 203.688,229.534 204.012 C 229.035 204.336,228.044 204.739,227.332 204.908 C 226.619 205.077,225.791 205.374,225.491 205.568 C 223.168 207.072,210.038 208.362,205.699 207.513 C 205.058 207.387,202.860 206.990,200.814 206.630 C 198.769 206.270,196.962 205.866,196.799 205.731 C 196.636 205.596,195.570 205.260,194.430 204.982 C 193.290 204.705,191.949 204.229,191.451 203.924 C 190.952 203.619,190.378 203.369,190.175 203.369 C 189.677 203.368,185.561 201.332,184.561 200.593 C 184.120 200.267,183.654 199.998,183.525 199.995 C 183.104 199.987,179.305 197.381,177.881 196.125 C 176.535 194.936,172.163 190.474,171.559 189.673 C 170.571 188.360,169.171 186.228,169.171 186.035 C 169.171 185.935,168.835 185.393,168.425 184.831 C 168.014 184.268,167.592 183.405,167.485 182.911 C 167.379 182.418,167.028 181.602,166.705 181.098 C 166.381 180.594,166.036 179.715,165.936 179.145 C 165.837 178.575,165.466 177.245,165.111 176.189 C 163.607 171.708,163.571 156.903,165.051 151.911 C 165.341 150.931,165.730 149.136,165.915 147.922 C 166.099 146.708,166.484 145.250,166.770 144.684 C 167.056 144.117,167.374 143.077,167.476 142.373 C 167.579 141.669,167.930 140.540,168.255 139.865 C 168.581 139.190,168.930 138.199,169.030 137.662 C 169.131 137.126,169.481 136.156,169.808 135.507 C 170.135 134.857,170.486 133.918,170.588 133.420 C 170.689 132.921,171.039 132.100,171.364 131.596 C 171.689 131.092,172.044 130.276,172.151 129.783 C 172.259 129.290,172.681 128.258,173.091 127.489 C 173.500 126.721,173.835 125.905,173.835 125.676 C 173.836 125.447,174.073 124.871,174.362 124.397 C 174.651 123.923,175.064 122.774,175.279 121.844 C 175.495 120.913,175.833 119.902,176.030 119.597 C 176.228 119.291,176.622 118.167,176.907 117.098 C 177.192 116.030,177.605 114.514,177.823 113.731 C 178.847 110.063,179.587 101.590,179.046 99.741 C 178.900 99.242,178.590 97.377,178.357 95.596 C 178.124 93.815,177.765 92.094,177.561 91.773 C 177.356 91.452,177.074 90.587,176.935 89.852 C 176.795 89.117,176.390 87.901,176.035 87.149 C 175.679 86.398,175.387 85.630,175.385 85.444 C 175.384 85.257,175.051 84.450,174.646 83.652 C 174.241 82.854,173.826 81.867,173.723 81.458 C 173.621 81.050,173.196 80.252,172.779 79.685 C 172.362 79.118,172.021 78.523,172.021 78.362 C 172.021 78.201,171.735 77.801,171.386 77.474 C 171.038 77.146,170.682 76.557,170.596 76.166 C 170.510 75.774,170.154 75.186,169.805 74.858 C 169.456 74.530,169.171 74.132,169.171 73.974 C 169.171 73.815,168.826 73.281,168.404 72.788 C 167.983 72.295,167.633 71.774,167.627 71.631 C 167.621 71.488,167.209 70.797,166.710 70.096 C 166.211 69.395,165.800 68.696,165.796 68.542 C 165.792 68.389,165.442 67.806,165.019 67.247 C 164.595 66.687,164.249 66.110,164.249 65.965 C 164.249 65.820,163.974 65.287,163.638 64.781 C 162.032 62.363,161.934 56.032,163.475 54.275 C 163.725 53.990,164.113 53.392,164.339 52.946 C 164.692 52.247,165.819 51.257,167.980 49.751 C 168.279 49.543,168.836 49.120,169.217 48.812 C 169.599 48.503,170.343 48.170,170.872 48.071 C 171.400 47.972,172.144 47.660,172.525 47.379 C 172.946 47.067,174.125 46.720,175.534 46.493 C 176.808 46.288,178.374 45.955,179.016 45.754 C 180.929 45.154,189.040 45.207,191.754 45.839 " stroke="none" fill="#fcfcfc" fill-rule="evenodd"></path></g></svg>