<svg id="svg" version="1.1" xmlns="http://www.w3.org/2000/svg" xmlns:xlink="http://www.w3.org/1999/xlink" width="400" height="258.91472868217056" viewBox="0, 0, 400,258.91472868217056"><g id="svgg"><path id="path0" d="M128.756 46.621 C 127.830 46.737,126.230 47.137,125.199 47.510 C 124.169 47.882,123.182 48.187,123.006 48.187 C 122.440 48.187,118.514 50.215,118.017 50.764 C 117.753 51.056,117.409 51.296,117.253 51.297 C 116.635 51.301,113.739 54.596,113.270 55.829 C 111.911 59.396,113.008 65.529,115.540 68.523 C 115.781 68.808,116.132 69.449,116.319 69.948 C 116.507 70.447,116.796 70.972,116.962 71.114 C 117.400 71.491,119.689 75.056,119.689 75.362 C 119.689 75.505,119.849 75.715,120.044 75.829 C 120.239 75.943,120.652 76.503,120.961 77.073 C 121.574 78.203,122.295 79.420,123.187 80.829 C 123.502 81.328,123.914 82.144,124.102 82.642 C 124.289 83.141,124.639 83.841,124.880 84.197 C 125.120 84.553,125.461 85.455,125.637 86.202 C 125.813 86.948,126.170 87.829,126.430 88.160 C 126.689 88.490,127.038 89.511,127.204 90.429 C 127.369 91.347,127.727 92.623,127.999 93.264 C 129.744 97.383,129.671 110.804,127.879 115.415 C 127.546 116.269,127.202 117.522,127.114 118.198 C 127.026 118.874,126.675 119.981,126.336 120.659 C 125.996 121.337,125.636 122.345,125.535 122.901 C 125.434 123.456,125.189 124.157,124.992 124.458 C 124.794 124.760,124.390 125.792,124.093 126.752 C 123.797 127.712,123.452 128.497,123.327 128.497 C 123.202 128.497,122.839 129.284,122.520 130.246 C 122.201 131.208,121.797 132.228,121.622 132.513 C 121.446 132.798,121.096 133.672,120.845 134.456 C 120.593 135.240,120.244 136.114,120.070 136.399 C 119.896 136.684,119.615 137.500,119.446 138.212 C 119.276 138.925,118.978 139.753,118.784 140.053 C 118.590 140.353,118.187 141.627,117.888 142.883 C 117.590 144.140,117.228 145.310,117.084 145.484 C 116.940 145.658,116.588 147.004,116.303 148.476 C 116.018 149.948,115.626 151.622,115.432 152.196 C 115.239 152.769,114.953 154.521,114.797 156.088 C 114.640 157.655,114.448 159.521,114.369 160.233 C 114.034 163.263,113.956 167.608,114.209 169.171 C 114.359 170.097,114.612 172.131,114.770 173.690 C 114.935 175.307,115.264 176.976,115.537 177.576 C 115.800 178.154,116.096 179.093,116.195 179.663 C 116.353 180.572,117.742 183.884,118.423 184.974 C 118.556 185.188,118.947 185.963,119.292 186.696 C 119.636 187.430,120.017 188.071,120.138 188.121 C 120.260 188.171,120.643 188.679,120.990 189.249 C 122.510 191.741,125.985 195.411,128.897 197.596 C 130.922 199.116,132.095 199.912,132.976 200.365 C 133.505 200.636,133.938 200.943,133.938 201.045 C 133.938 201.148,134.514 201.479,135.218 201.782 C 135.923 202.085,136.565 202.441,136.646 202.572 C 136.727 202.703,137.404 203.009,138.151 203.252 C 138.897 203.495,139.695 203.856,139.923 204.055 C 140.152 204.253,141.084 204.640,141.996 204.913 C 142.907 205.186,144.411 205.660,145.337 205.965 C 150.513 207.669,151.288 207.811,158.007 208.296 C 165.526 208.837,174.166 207.597,178.627 205.336 C 179.339 204.975,180.062 204.676,180.233 204.671 C 180.404 204.667,181.062 204.313,181.696 203.886 C 182.329 203.459,182.917 203.109,183.002 203.109 C 183.712 203.109,186.721 200.250,188.012 198.347 C 190.806 194.231,191.028 187.083,188.461 183.938 C 188.286 183.724,187.892 183.083,187.585 182.513 C 187.069 181.557,186.503 180.687,185.307 179.016 C 185.053 178.660,184.659 177.961,184.432 177.462 C 184.205 176.963,183.827 176.394,183.590 176.199 C 183.354 176.003,183.161 175.699,183.161 175.523 C 183.161 175.346,182.862 174.762,182.497 174.223 C 182.131 173.685,181.647 172.765,181.420 172.179 C 181.193 171.593,180.860 170.939,180.680 170.725 C 180.499 170.512,180.100 169.697,179.792 168.914 C 179.485 168.132,179.139 167.433,179.024 167.360 C 178.909 167.287,178.566 166.421,178.262 165.435 C 177.958 164.448,177.609 163.516,177.485 163.362 C 177.362 163.209,177.024 162.209,176.734 161.140 C 176.444 160.071,176.038 158.731,175.831 158.161 C 175.624 157.591,175.316 155.784,175.145 154.145 C 174.975 152.506,174.727 150.744,174.594 150.229 C 174.285 149.033,174.286 147.458,174.596 146.053 C 174.730 145.445,175.022 143.561,175.244 141.866 C 175.466 140.171,175.749 138.655,175.872 138.498 C 175.996 138.341,176.352 137.455,176.664 136.528 C 176.975 135.602,177.789 133.734,178.472 132.376 C 179.156 131.019,179.866 129.445,180.052 128.879 C 180.238 128.313,180.541 127.617,180.726 127.332 C 180.910 127.047,181.243 126.114,181.466 125.259 C 181.688 124.404,182.034 123.355,182.234 122.927 C 182.435 122.500,182.789 121.229,183.020 120.104 C 183.251 118.979,183.656 117.405,183.919 116.607 C 184.183 115.808,184.540 113.815,184.714 112.176 C 184.887 110.538,185.151 108.439,185.299 107.513 C 185.654 105.296,185.647 93.308,185.290 91.321 C 185.136 90.466,184.875 88.601,184.710 87.176 C 184.544 85.751,184.141 83.769,183.812 82.772 C 183.484 81.775,183.083 80.398,182.921 79.713 C 182.760 79.028,182.398 78.039,182.117 77.515 C 181.836 76.991,181.606 76.418,181.606 76.242 C 181.606 75.352,178.333 69.336,176.682 67.191 C 176.039 66.356,175.326 65.382,175.096 65.026 C 174.596 64.248,169.429 59.067,169.154 59.067 C 169.048 59.067,168.496 58.688,167.929 58.225 C 165.480 56.229,163.647 54.902,162.540 54.327 C 162.126 54.111,161.507 53.691,161.165 53.393 C 160.823 53.094,160.356 52.846,160.129 52.843 C 159.901 52.839,159.257 52.489,158.697 52.065 C 158.138 51.642,157.496 51.293,157.273 51.291 C 157.049 51.288,156.282 50.941,155.570 50.518 C 154.858 50.096,154.032 49.748,153.736 49.745 C 153.439 49.743,152.623 49.449,151.922 49.091 C 151.221 48.734,149.902 48.321,148.991 48.174 C 148.080 48.026,147.140 47.802,146.902 47.674 C 145.063 46.690,133.528 46.020,128.756 46.621 M230.829 46.614 C 229.760 46.727,228.303 47.066,227.591 47.367 C 226.878 47.668,225.727 48.038,225.032 48.189 C 223.728 48.471,222.407 49.138,219.957 50.751 C 217.792 52.176,215.758 54.395,215.276 55.858 C 215.107 56.368,214.808 57.095,214.611 57.473 C 213.821 58.986,214.816 64.150,216.364 66.580 C 216.591 66.937,216.988 67.723,217.246 68.329 C 217.505 68.935,217.800 69.430,217.902 69.430 C 218.005 69.430,218.342 69.955,218.653 70.596 C 218.963 71.237,219.318 71.762,219.441 71.762 C 219.564 71.762,219.904 72.257,220.197 72.863 C 220.489 73.468,221.369 74.886,222.152 76.012 C 222.935 77.139,223.575 78.212,223.575 78.396 C 223.575 78.580,223.734 78.824,223.928 78.938 C 224.122 79.052,224.523 79.670,224.819 80.311 C 225.115 80.952,225.528 81.768,225.736 82.124 C 226.530 83.482,227.727 86.239,227.887 87.078 C 227.979 87.559,228.320 88.485,228.644 89.135 C 228.969 89.786,229.368 91.055,229.531 91.956 C 229.695 92.858,230.050 94.156,230.320 94.841 C 231.594 98.073,231.520 109.391,230.196 113.837 C 229.853 114.989,229.493 116.442,229.395 117.065 C 229.298 117.688,228.956 118.795,228.636 119.526 C 228.315 120.257,227.974 121.284,227.878 121.809 C 227.782 122.334,227.427 123.266,227.090 123.881 C 226.752 124.497,226.395 125.386,226.297 125.858 C 226.198 126.330,225.838 127.204,225.497 127.801 C 225.156 128.398,224.875 129.073,224.874 129.301 C 224.872 129.529,224.582 130.258,224.230 130.920 C 223.878 131.583,223.404 132.764,223.177 133.545 C 222.950 134.326,222.666 135.025,222.547 135.098 C 222.428 135.172,222.077 136.066,221.768 137.084 C 221.459 138.103,221.050 139.182,220.860 139.481 C 220.670 139.781,220.317 140.930,220.075 142.035 C 219.834 143.139,219.539 144.103,219.420 144.177 C 219.301 144.250,219.012 145.212,218.777 146.313 C 218.542 147.415,218.137 148.957,217.878 149.741 C 217.618 150.525,217.273 152.332,217.111 153.756 C 216.948 155.181,216.574 157.795,216.279 159.564 C 215.700 163.033,215.704 169.596,216.286 171.503 C 216.438 172.001,216.753 173.633,216.985 175.130 C 217.218 176.626,217.612 178.316,217.862 178.886 C 218.113 179.456,218.471 180.505,218.659 181.218 C 218.846 181.930,219.207 182.783,219.459 183.112 C 219.712 183.442,220.060 184.141,220.233 184.666 C 220.407 185.192,220.745 185.913,220.985 186.269 C 221.226 186.626,221.903 187.675,222.490 188.601 C 223.492 190.181,223.915 190.732,225.725 192.818 C 227.003 194.289,227.316 194.604,228.112 195.219 C 228.541 195.551,229.532 196.412,230.314 197.132 C 231.096 197.853,231.863 198.443,232.019 198.444 C 232.175 198.445,232.525 198.691,232.797 198.992 C 233.068 199.292,233.815 199.821,234.456 200.167 C 235.751 200.866,236.977 201.593,238.342 202.470 C 238.841 202.791,239.715 203.197,240.285 203.373 C 240.855 203.549,241.496 203.841,241.710 204.022 C 241.924 204.203,242.856 204.555,243.782 204.804 C 244.709 205.053,245.816 205.457,246.244 205.703 C 246.671 205.948,247.778 206.291,248.705 206.465 C 249.631 206.638,250.738 206.936,251.166 207.125 C 253.147 208.002,262.212 208.665,267.106 208.291 C 271.929 207.922,274.610 207.578,274.967 207.281 C 275.133 207.143,276.083 206.840,277.077 206.607 C 278.072 206.374,279.469 205.900,280.181 205.554 C 280.894 205.207,281.885 204.748,282.383 204.533 C 282.882 204.319,283.765 203.823,284.345 203.432 C 284.925 203.040,286.003 202.324,286.741 201.840 C 287.479 201.355,288.083 200.878,288.083 200.779 C 288.083 200.680,288.382 200.260,288.749 199.846 C 291.923 196.257,292.871 191.869,291.570 186.788 C 291.332 185.861,290.984 184.929,290.795 184.715 C 290.606 184.501,290.225 183.802,289.948 183.161 C 289.672 182.519,289.197 181.773,288.894 181.501 C 288.590 181.230,288.342 180.865,288.342 180.691 C 288.342 180.517,288.156 180.220,287.929 180.031 C 287.702 179.843,287.252 179.142,286.930 178.475 C 286.608 177.807,286.202 177.102,286.028 176.907 C 285.305 176.100,281.052 167.863,280.697 166.580 C 280.598 166.224,280.298 165.552,280.031 165.086 C 279.764 164.620,279.363 163.512,279.140 162.625 C 278.917 161.737,278.523 160.486,278.263 159.845 C 278.003 159.203,277.646 157.746,277.469 156.606 C 277.293 155.466,276.927 153.384,276.657 151.980 C 276.002 148.575,276.031 147.660,276.943 143.048 C 277.370 140.885,277.721 138.912,277.722 138.664 C 277.723 138.416,277.910 137.863,278.138 137.435 C 278.366 137.008,278.775 136.025,279.045 135.251 C 279.316 134.477,279.696 133.661,279.889 133.438 C 280.082 133.214,280.456 132.448,280.720 131.736 C 280.984 131.023,281.465 129.974,281.789 129.404 C 282.112 128.834,282.380 128.135,282.384 127.850 C 282.388 127.565,282.559 127.040,282.765 126.684 C 283.444 125.506,283.715 124.757,283.981 123.316 C 284.126 122.532,284.375 121.734,284.533 121.541 C 284.692 121.349,285.092 119.950,285.423 118.433 C 285.754 116.915,286.201 114.858,286.418 113.860 C 287.262 109.976,287.839 97.008,287.341 93.135 C 287.194 91.995,286.963 89.896,286.827 88.472 C 286.690 87.047,286.346 85.123,286.062 84.197 C 285.777 83.271,285.403 81.872,285.231 81.088 C 285.058 80.304,284.768 79.425,284.585 79.133 C 284.403 78.841,284.062 77.855,283.828 76.942 C 283.594 76.029,283.235 75.096,283.030 74.869 C 282.824 74.642,282.481 73.959,282.266 73.351 C 282.052 72.743,281.641 71.946,281.353 71.580 C 281.065 71.214,280.829 70.811,280.829 70.684 C 280.829 70.439,279.581 68.505,278.180 66.580 C 277.246 65.297,271.455 59.426,269.817 58.102 C 269.248 57.642,268.491 57.033,268.135 56.748 C 267.250 56.042,264.754 54.406,264.547 54.397 C 264.454 54.393,263.920 54.043,263.361 53.620 C 262.801 53.196,262.218 52.849,262.065 52.849 C 261.913 52.848,261.263 52.499,260.622 52.073 C 259.981 51.646,259.268 51.297,259.039 51.296 C 258.809 51.296,258.209 51.016,257.706 50.674 C 257.202 50.332,256.108 49.857,255.273 49.617 C 254.439 49.378,253.492 49.013,253.169 48.805 C 252.847 48.598,251.739 48.265,250.708 48.065 C 249.678 47.866,247.960 47.458,246.891 47.158 C 244.716 46.549,234.654 46.208,230.829 46.614 " stroke="none" fill="#ec1d2d" fill-rule="evenodd"></path><path id="path1" d="M0.000 129.534 L 0.000 259.067 200.000 259.067 L 400.000 259.067 400.000 129.534 L 400.000 0.000 200.000 0.000 L 0.000 0.000 0.000 129.534 M144.673 47.018 C 145.662 47.252,146.665 47.547,146.902 47.674 C 147.140 47.802,148.080 48.026,148.991 48.174 C 149.902 48.321,151.221 48.734,151.922 49.091 C 152.623 49.449,153.439 49.743,153.736 49.745 C 154.032 49.748,154.858 50.096,155.570 50.518 C 156.282 50.941,157.049 51.288,157.273 51.291 C 157.496 51.293,158.138 51.642,158.697 52.065 C 159.257 52.489,159.901 52.839,160.129 52.843 C 160.356 52.846,160.823 53.094,161.165 53.393 C 161.507 53.691,162.126 54.111,162.540 54.327 C 163.647 54.902,165.480 56.229,167.929 58.225 C 168.496 58.688,169.048 59.067,169.154 59.067 C 169.429 59.067,174.596 64.248,175.096 65.026 C 175.326 65.382,176.039 66.356,176.682 67.191 C 178.333 69.336,181.606 75.352,181.606 76.242 C 181.606 76.418,181.836 76.991,182.117 77.515 C 182.398 78.039,182.760 79.028,182.921 79.713 C 183.083 80.398,183.484 81.775,183.812 82.772 C 184.141 83.769,184.544 85.751,184.710 87.176 C 184.875 88.601,185.136 90.466,185.290 91.321 C 185.647 93.308,185.654 105.296,185.299 107.513 C 185.151 108.439,184.887 110.538,184.714 112.176 C 184.540 113.815,184.183 115.808,183.919 116.607 C 183.656 117.405,183.251 118.979,183.020 120.104 C 182.789 121.229,182.435 122.500,182.234 122.927 C 182.034 123.355,181.688 124.404,181.466 125.259 C 181.243 126.114,180.910 127.047,180.726 127.332 C 180.541 127.617,180.238 128.313,180.052 128.879 C 179.866 129.445,179.156 131.019,178.472 132.376 C 177.789 133.734,176.975 135.602,176.664 136.528 C 176.352 137.455,175.996 138.341,175.872 138.498 C 175.749 138.655,175.466 140.171,175.244 141.866 C 175.022 143.561,174.730 145.445,174.596 146.053 C 174.286 147.458,174.285 149.033,174.594 150.229 C 174.727 150.744,174.975 152.506,175.145 154.145 C 175.316 155.784,175.624 157.591,175.831 158.161 C 176.038 158.731,176.444 160.071,176.734 161.140 C 177.024 162.209,177.362 163.209,177.485 163.362 C 177.609 163.516,177.958 164.448,178.262 165.435 C 178.566 166.421,178.909 167.287,179.024 167.360 C 179.139 167.433,179.485 168.132,179.792 168.914 C 180.100 169.697,180.499 170.512,180.680 170.725 C 180.860 170.939,181.193 171.593,181.420 172.179 C 181.647 172.765,182.131 173.685,182.497 174.223 C 182.862 174.762,183.161 175.346,183.161 175.523 C 183.161 175.699,183.354 176.003,183.590 176.199 C 183.827 176.394,184.205 176.963,184.432 177.462 C 184.659 177.961,185.053 178.660,185.307 179.016 C 186.503 180.687,187.069 181.557,187.585 182.513 C 187.892 183.083,188.286 183.724,188.461 183.938 C 191.028 187.083,190.806 194.231,188.012 198.347 C 186.721 200.250,183.712 203.109,183.002 203.109 C 182.917 203.109,182.329 203.459,181.696 203.886 C 181.062 204.313,180.404 204.667,180.233 204.671 C 180.062 204.676,179.339 204.975,178.627 205.336 C 174.166 207.597,165.526 208.837,158.007 208.296 C 151.288 207.811,150.513 207.669,145.337 205.965 C 144.411 205.660,142.907 205.186,141.996 204.913 C 141.084 204.640,140.152 204.253,139.923 204.055 C 139.695 203.856,138.897 203.495,138.151 203.252 C 137.404 203.009,136.727 202.703,136.646 202.572 C 136.565 202.441,135.923 202.085,135.218 201.782 C 134.514 201.479,133.938 201.148,133.938 201.045 C 133.938 200.943,133.505 200.636,132.976 200.365 C 132.095 199.912,130.922 199.116,128.897 197.596 C 125.985 195.411,122.510 191.741,120.990 189.249 C 120.643 188.679,120.260 188.171,120.138 188.121 C 120.017 188.071,119.636 187.430,119.292 186.696 C 118.947 185.963,118.556 185.188,118.423 184.974 C 117.742 183.884,116.353 180.572,116.195 179.663 C 116.096 179.093,115.800 178.154,115.537 177.576 C 115.264 176.976,114.935 175.307,114.770 173.690 C 114.612 172.131,114.359 170.097,114.209 169.171 C 113.956 167.608,114.034 163.263,114.369 160.233 C 114.448 159.521,114.640 157.655,114.797 156.088 C 114.953 154.521,115.239 152.769,115.432 152.196 C 115.626 151.622,116.018 149.948,116.303 148.476 C 116.588 147.004,116.940 145.658,117.084 145.484 C 117.228 145.310,117.590 144.140,117.888 142.883 C 118.187 141.627,118.590 140.353,118.784 140.053 C 118.978 139.753,119.276 138.925,119.446 138.212 C 119.615 137.500,119.896 136.684,120.070 136.399 C 120.244 136.114,120.593 135.240,120.845 134.456 C 121.096 133.672,121.446 132.798,121.622 132.513 C 121.797 132.228,122.201 131.208,122.520 130.246 C 122.839 129.284,123.202 128.497,123.327 128.497 C 123.452 128.497,123.797 127.712,124.093 126.752 C 124.390 125.792,124.794 124.760,124.992 124.458 C 125.189 124.157,125.434 123.456,125.535 122.901 C 125.636 122.345,125.996 121.337,126.336 120.659 C 126.675 119.981,127.026 118.874,127.114 118.198 C 127.202 117.522,127.546 116.269,127.879 115.415 C 129.671 110.804,129.744 97.383,127.999 93.264 C 127.727 92.623,127.369 91.347,127.204 90.429 C 127.038 89.511,126.689 88.490,126.430 88.160 C 126.170 87.829,125.813 86.948,125.637 86.202 C 125.461 85.455,125.120 84.553,124.880 84.197 C 124.639 83.841,124.289 83.141,124.102 82.642 C 123.914 82.144,123.502 81.328,123.187 80.829 C 122.295 79.420,121.574 78.203,120.961 77.073 C 120.652 76.503,120.239 75.943,120.044 75.829 C 119.849 75.715,119.689 75.505,119.689 75.362 C 119.689 75.056,117.400 71.491,116.962 71.114 C 116.796 70.972,116.507 70.447,116.319 69.948 C 116.132 69.449,115.781 68.808,115.540 68.523 C 113.008 65.529,111.911 59.396,113.270 55.829 C 113.739 54.596,116.635 51.301,117.253 51.297 C 117.409 51.296,117.753 51.056,118.017 50.764 C 118.514 50.215,122.440 48.187,123.006 48.187 C 123.182 48.187,124.169 47.882,125.199 47.510 C 128.538 46.303,140.385 46.004,144.673 47.018 M246.891 47.158 C 247.960 47.458,249.678 47.866,250.708 48.065 C 251.739 48.265,252.847 48.598,253.169 48.805 C 253.492 49.013,254.439 49.378,255.273 49.617 C 256.108 49.857,257.202 50.332,257.706 50.674 C 258.209 51.016,258.809 51.296,259.039 51.296 C 259.268 51.297,259.981 51.646,260.622 52.073 C 261.263 52.499,261.913 52.848,262.065 52.849 C 262.218 52.849,262.801 53.196,263.361 53.620 C 263.920 54.043,264.454 54.393,264.547 54.397 C 264.754 54.406,267.250 56.042,268.135 56.748 C 268.491 57.033,269.248 57.642,269.817 58.102 C 271.455 59.426,277.246 65.297,278.180 66.580 C 279.581 68.505,280.829 70.439,280.829 70.684 C 280.829 70.811,281.065 71.214,281.353 71.580 C 281.641 71.946,282.052 72.743,282.266 73.351 C 282.481 73.959,282.824 74.642,283.030 74.869 C 283.235 75.096,283.594 76.029,283.828 76.942 C 284.062 77.855,284.403 78.841,284.585 79.133 C 284.768 79.425,285.058 80.304,285.231 81.088 C 285.403 81.872,285.777 83.271,286.062 84.197 C 286.346 85.123,286.690 87.047,286.827 88.472 C 286.963 89.896,287.194 91.995,287.341 93.135 C 287.839 97.008,287.262 109.976,286.418 113.860 C 286.201 114.858,285.754 116.915,285.423 118.433 C 285.092 119.950,284.692 121.349,284.533 121.541 C 284.375 121.734,284.126 122.532,283.981 123.316 C 283.715 124.757,283.444 125.506,282.765 126.684 C 282.559 127.040,282.388 127.565,282.384 127.850 C 282.380 128.135,282.112 128.834,281.789 129.404 C 281.465 129.974,280.984 131.023,280.720 131.736 C 280.456 132.448,280.082 133.214,279.889 133.438 C 279.696 133.661,279.316 134.477,279.045 135.251 C 278.775 136.025,278.366 137.008,278.138 137.435 C 277.910 137.863,277.723 138.416,277.722 138.664 C 277.721 138.912,277.370 140.885,276.943 143.048 C 276.031 147.660,276.002 148.575,276.657 151.980 C 276.927 153.384,277.293 155.466,277.469 156.606 C 277.646 157.746,278.003 159.203,278.263 159.845 C 278.523 160.486,278.917 161.737,279.140 162.625 C 279.363 163.512,279.764 164.620,280.031 165.086 C 280.298 165.552,280.598 166.224,280.697 166.580 C 281.052 167.863,285.305 176.100,286.028 176.907 C 286.202 177.102,286.608 177.807,286.930 178.475 C 287.252 179.142,287.702 179.843,287.929 180.031 C 288.156 180.220,288.342 180.517,288.342 180.691 C 288.342 180.865,288.590 181.230,288.894 181.501 C 289.197 181.773,289.672 182.519,289.948 183.161 C 290.225 183.802,290.606 184.501,290.795 184.715 C 290.984 184.929,291.332 185.861,291.570 186.788 C 292.871 191.869,291.923 196.257,288.749 199.846 C 288.382 200.260,288.083 200.680,288.083 200.779 C 288.083 200.878,287.479 201.355,286.741 201.840 C 286.003 202.324,284.925 203.040,284.345 203.432 C 283.765 203.823,282.882 204.319,282.383 204.533 C 281.885 204.748,280.894 205.207,280.181 205.554 C 279.469 205.900,278.072 206.374,277.077 206.607 C 276.083 206.840,275.133 207.143,274.967 207.281 C 274.610 207.578,271.929 207.922,267.106 208.291 C 262.212 208.665,253.147 208.002,251.166 207.125 C 250.738 206.936,249.631 206.638,248.705 206.465 C 247.778 206.291,246.671 205.948,246.244 205.703 C 245.816 205.457,244.709 205.053,243.782 204.804 C 242.856 204.555,241.924 204.203,241.710 204.022 C 241.496 203.841,240.855 203.549,240.285 203.373 C 239.715 203.197,238.841 202.791,238.342 202.470 C 236.977 201.593,235.751 200.866,234.456 200.167 C 233.815 199.821,233.068 199.292,232.797 198.992 C 232.525 198.691,232.175 198.445,232.019 198.444 C 231.863 198.443,231.096 197.853,230.314 197.132 C 229.532 196.412,228.541 195.551,228.112 195.219 C 227.316 194.604,227.003 194.289,225.725 192.818 C 223.915 190.732,223.492 190.181,222.490 188.601 C 221.903 187.675,221.226 186.626,220.985 186.269 C 220.745 185.913,220.407 185.192,220.233 184.666 C 220.060 184.141,219.712 183.442,219.459 183.112 C 219.207 182.783,218.846 181.930,218.659 181.218 C 218.471 180.505,218.113 179.456,217.862 178.886 C 217.612 178.316,217.218 176.626,216.985 175.130 C 216.753 173.633,216.438 172.001,216.286 171.503 C 215.704 169.596,215.700 163.033,216.279 159.564 C 216.574 157.795,216.948 155.181,217.111 153.756 C 217.273 152.332,217.618 150.525,217.878 149.741 C 218.137 148.957,218.542 147.415,218.777 146.313 C 219.012 145.212,219.301 144.250,219.420 144.177 C 219.539 144.103,219.834 143.139,220.075 142.035 C 220.317 140.930,220.670 139.781,220.860 139.481 C 221.050 139.182,221.459 138.103,221.768 137.084 C 222.077 136.066,222.428 135.172,222.547 135.098 C 222.666 135.025,222.950 134.326,223.177 133.545 C 223.404 132.764,223.878 131.583,224.230 130.920 C 224.582 130.258,224.872 129.529,224.874 129.301 C 224.875 129.073,225.156 128.398,225.497 127.801 C 225.838 127.204,226.198 126.330,226.297 125.858 C 226.395 125.386,226.752 124.497,227.090 123.881 C 227.427 123.266,227.782 122.334,227.878 121.809 C 227.974 121.284,228.315 120.257,228.636 119.526 C 228.956 118.795,229.298 117.688,229.395 117.065 C 229.493 116.442,229.853 114.989,230.196 113.837 C 231.520 109.391,231.594 98.073,230.320 94.841 C 230.050 94.156,229.695 92.858,229.531 91.956 C 229.368 91.055,228.969 89.786,228.644 89.135 C 228.320 88.485,227.979 87.559,227.887 87.078 C 227.727 86.239,226.530 83.482,225.736 82.124 C 225.528 81.768,225.115 80.952,224.819 80.311 C 224.523 79.670,224.122 79.052,223.928 78.938 C 223.734 78.824,223.575 78.580,223.575 78.396 C 223.575 78.212,222.935 77.139,222.152 76.012 C 221.369 74.886,220.489 73.468,220.197 72.863 C 219.904 72.257,219.564 71.762,219.441 71.762 C 219.318 71.762,218.963 71.237,218.653 70.596 C 218.342 69.955,218.005 69.430,217.902 69.430 C 217.800 69.430,217.505 68.935,217.246 68.329 C 216.988 67.723,216.591 66.937,216.364 66.580 C 214.816 64.150,213.821 58.986,214.611 57.473 C 214.808 57.095,215.107 56.368,215.276 55.858 C 215.758 54.395,217.792 52.176,219.957 50.751 C 222.407 49.138,223.728 48.471,225.032 48.189 C 225.727 48.038,226.878 47.668,227.591 47.367 C 230.303 46.221,243.050 46.083,246.891 47.158 " stroke="none" fill="#fcfcfc" fill-rule="evenodd"></path></g></svg>