<svg id="svg" version="1.1" xmlns="http://www.w3.org/2000/svg" xmlns:xlink="http://www.w3.org/1999/xlink" width="400" height="258.91472868217056" viewBox="0, 0, 400,258.91472868217056"><g id="svgg"><path id="path0" d="M128.975 42.355 C 128.848 42.482,127.843 42.665,123.446 43.363 C 121.002 43.751,119.845 44.098,119.583 44.521 C 119.498 44.660,118.963 44.852,118.396 44.948 C 117.829 45.044,116.952 45.402,116.448 45.744 C 115.943 46.087,115.259 46.435,114.927 46.518 C 114.595 46.601,113.949 47.011,113.493 47.428 C 113.036 47.845,112.582 48.189,112.484 48.191 C 112.028 48.202,108.549 51.902,108.549 52.376 C 108.549 52.513,108.270 52.996,107.929 53.450 C 107.289 54.302,106.218 57.959,106.218 59.293 C 106.218 60.780,107.321 65.684,107.812 66.375 C 108.085 66.760,108.438 67.460,108.594 67.929 C 108.751 68.398,109.155 69.153,109.492 69.607 C 109.828 70.061,110.104 70.535,110.104 70.662 C 110.104 70.789,110.450 71.350,110.874 71.910 C 111.297 72.470,111.647 73.064,111.651 73.231 C 111.655 73.399,111.949 73.882,112.306 74.305 C 112.662 74.728,112.953 75.164,112.953 75.272 C 112.953 75.380,113.274 75.883,113.666 76.389 C 114.377 77.307,115.265 78.741,116.334 80.699 C 116.645 81.269,117.043 81.911,117.218 82.124 C 117.393 82.338,117.739 83.038,117.987 83.679 C 118.235 84.320,118.591 85.019,118.779 85.233 C 118.967 85.447,119.297 86.224,119.514 86.960 C 119.730 87.695,120.086 88.571,120.306 88.906 C 120.525 89.240,120.881 90.276,121.097 91.206 C 121.313 92.137,121.656 93.243,121.859 93.664 C 122.062 94.086,122.358 95.479,122.517 96.762 C 122.675 98.044,122.931 99.851,123.086 100.777 C 123.561 103.622,122.627 113.251,121.767 114.378 C 121.658 114.521,121.378 115.512,121.144 116.580 C 120.910 117.649,120.558 118.833,120.362 119.211 C 120.166 119.589,119.742 120.784,119.421 121.866 C 119.099 122.949,118.745 123.834,118.633 123.834 C 118.522 123.834,118.237 124.505,118.001 125.324 C 117.764 126.143,117.362 127.163,117.107 127.591 C 116.852 128.018,116.494 128.834,116.312 129.403 C 116.129 129.972,115.707 130.951,115.373 131.579 C 115.040 132.206,114.767 132.899,114.767 133.117 C 114.767 133.336,114.538 133.989,114.258 134.568 C 113.978 135.148,113.464 136.554,113.114 137.694 C 112.381 140.088,111.851 141.725,111.100 143.912 C 110.807 144.767,110.408 146.457,110.214 147.668 C 110.020 148.880,109.626 150.519,109.339 151.312 C 107.534 156.284,107.591 172.857,109.429 177.954 C 109.800 178.982,110.104 180.092,110.104 180.419 C 110.104 180.747,110.453 181.671,110.881 182.472 C 111.308 183.273,111.660 184.134,111.662 184.386 C 111.664 184.638,111.810 185.091,111.986 185.391 C 112.162 185.692,112.642 186.567,113.052 187.334 C 113.463 188.102,113.884 188.789,113.989 188.860 C 114.093 188.931,114.425 189.474,114.725 190.067 C 115.025 190.659,115.362 191.184,115.472 191.233 C 115.583 191.281,115.997 191.788,116.393 192.358 C 116.789 192.927,117.375 193.744,117.696 194.171 C 118.421 195.138,121.671 198.353,122.803 199.223 C 123.266 199.579,124.009 200.170,124.452 200.535 C 124.896 200.901,125.696 201.464,126.231 201.787 C 126.765 202.110,127.202 202.459,127.202 202.562 C 127.202 202.665,127.698 202.963,128.303 203.224 C 128.909 203.485,129.579 203.849,129.793 204.032 C 130.574 204.703,137.260 207.896,138.472 208.176 C 138.899 208.276,139.598 208.561,140.026 208.811 C 140.453 209.061,141.384 209.349,142.094 209.450 C 142.804 209.552,144.091 209.901,144.955 210.226 C 145.821 210.552,147.508 210.901,148.716 211.004 C 149.921 211.106,151.781 211.353,152.850 211.553 C 155.077 211.970,162.768 212.041,164.378 211.659 C 164.948 211.524,166.639 211.288,168.135 211.134 C 169.825 210.960,171.701 210.565,173.088 210.091 C 174.316 209.670,175.553 209.326,175.838 209.326 C 176.122 209.326,176.633 209.111,176.973 208.849 C 177.313 208.586,178.148 208.161,178.830 207.903 C 179.511 207.646,180.130 207.337,180.206 207.215 C 180.281 207.093,180.889 206.750,181.557 206.452 C 182.225 206.154,182.889 205.776,183.031 205.611 C 183.174 205.446,183.931 204.821,184.715 204.222 C 185.499 203.623,186.490 202.699,186.917 202.169 C 187.345 201.639,188.015 200.832,188.407 200.374 C 188.799 199.917,189.119 199.440,189.119 199.314 C 189.119 199.187,189.411 198.654,189.768 198.129 C 191.002 196.313,191.820 190.275,191.182 187.694 C 191.041 187.124,190.809 186.078,190.666 185.369 C 190.523 184.660,190.133 183.667,189.799 183.163 C 189.466 182.659,189.102 181.957,188.991 181.603 C 188.880 181.248,188.543 180.653,188.242 180.279 C 187.941 179.905,187.461 179.209,187.176 178.732 C 186.891 178.256,186.424 177.512,186.137 177.081 C 185.851 176.649,185.384 175.903,185.101 175.424 C 184.817 174.944,184.332 174.166,184.023 173.693 C 183.713 173.221,183.224 172.302,182.936 171.650 C 182.648 170.999,182.298 170.466,182.159 170.466 C 182.020 170.466,181.764 170.029,181.592 169.495 C 181.419 168.960,180.885 167.689,180.406 166.670 C 179.926 165.651,179.534 164.703,179.534 164.564 C 179.534 164.426,179.366 164.173,179.162 164.003 C 178.957 163.834,178.712 163.324,178.618 162.871 C 178.369 161.675,177.673 159.558,177.283 158.808 C 177.098 158.452,176.945 157.933,176.945 157.654 C 176.942 156.691,176.136 151.939,175.763 150.683 C 175.134 148.565,176.374 139.524,177.539 137.732 C 177.738 137.426,178.046 136.710,178.224 136.140 C 178.402 135.570,179.170 133.821,179.930 132.254 C 180.691 130.687,181.396 129.054,181.497 128.627 C 181.597 128.199,181.897 127.415,182.164 126.884 C 182.430 126.352,182.828 125.138,183.049 124.185 C 183.270 123.232,183.631 122.105,183.850 121.680 C 184.070 121.255,184.419 119.856,184.626 118.571 C 184.833 117.286,185.119 116.016,185.263 115.748 C 185.633 115.057,186.202 110.740,186.370 107.357 C 186.448 105.776,186.632 104.165,186.779 103.778 C 187.185 102.710,187.106 96.210,186.658 93.870 C 186.444 92.753,186.267 91.023,186.265 90.026 C 186.259 88.027,185.659 84.216,185.221 83.396 C 185.067 83.109,184.825 82.151,184.683 81.268 C 184.541 80.385,184.150 79.022,183.813 78.238 C 183.477 77.455,183.133 76.464,183.049 76.036 C 182.966 75.609,182.615 74.676,182.271 73.964 C 181.927 73.251,181.444 72.173,181.198 71.567 C 180.952 70.962,180.664 70.466,180.559 70.466 C 180.453 70.466,180.287 70.146,180.189 69.754 C 180.091 69.362,179.746 68.692,179.422 68.264 C 179.098 67.837,178.624 67.079,178.368 66.580 C 177.883 65.635,176.658 64.032,175.156 62.376 C 174.671 61.842,174.012 61.025,173.691 60.560 C 173.085 59.683,172.039 58.730,168.523 55.854 C 167.383 54.922,166.218 53.952,165.934 53.699 C 165.250 53.088,162.473 51.295,162.213 51.295 C 162.100 51.295,161.737 51.007,161.406 50.655 C 161.075 50.303,160.385 49.881,159.871 49.717 C 159.358 49.552,158.692 49.194,158.392 48.921 C 158.091 48.648,157.397 48.300,156.849 48.149 C 156.300 47.997,155.441 47.594,154.938 47.253 C 154.436 46.911,153.848 46.632,153.632 46.632 C 153.415 46.632,152.539 46.301,151.684 45.897 C 150.829 45.493,149.663 45.087,149.093 44.993 C 148.523 44.900,147.358 44.534,146.503 44.180 C 145.648 43.825,144.587 43.533,144.145 43.529 C 143.703 43.526,141.663 43.233,139.611 42.878 C 136.168 42.282,129.382 41.948,128.975 42.355 M227.850 42.635 C 226.852 42.837,225.032 43.166,223.805 43.368 C 222.578 43.569,220.935 44.036,220.153 44.406 C 219.372 44.775,218.528 45.078,218.279 45.078 C 218.030 45.078,217.517 45.296,217.138 45.563 C 216.760 45.829,215.978 46.274,215.400 46.551 C 212.540 47.922,208.412 52.287,207.790 54.597 C 207.631 55.187,207.273 56.172,206.995 56.785 C 206.305 58.305,206.306 60.947,206.997 62.700 C 207.284 63.427,207.638 64.556,207.784 65.210 C 207.931 65.863,208.284 66.725,208.568 67.125 C 208.853 67.525,209.217 68.237,209.377 68.706 C 209.537 69.176,209.941 69.889,210.275 70.292 C 210.608 70.695,210.881 71.174,210.881 71.357 C 210.881 71.541,211.215 72.111,211.623 72.625 C 212.032 73.138,212.512 73.912,212.691 74.344 C 212.870 74.776,213.098 75.130,213.198 75.130 C 213.298 75.130,213.642 75.654,213.962 76.295 C 214.282 76.937,214.634 77.461,214.744 77.461 C 214.854 77.461,215.167 77.896,215.438 78.428 C 215.710 78.959,216.253 79.851,216.645 80.409 C 217.037 80.968,217.358 81.567,217.358 81.740 C 217.358 81.913,217.570 82.333,217.831 82.672 C 218.091 83.012,218.509 83.815,218.759 84.456 C 219.010 85.097,219.362 85.797,219.542 86.010 C 219.722 86.224,220.017 86.982,220.198 87.694 C 220.379 88.407,220.726 89.281,220.971 89.637 C 221.215 89.994,221.560 91.043,221.738 91.969 C 221.916 92.895,222.219 93.976,222.413 94.371 C 223.713 97.029,223.814 111.250,222.543 112.824 C 222.428 112.966,222.138 114.074,221.898 115.285 C 221.659 116.496,221.256 117.895,221.004 118.394 C 220.752 118.892,220.395 119.935,220.210 120.709 C 220.024 121.484,219.667 122.475,219.415 122.912 C 219.162 123.348,218.808 124.229,218.628 124.870 C 218.447 125.512,218.104 126.328,217.865 126.684 C 217.626 127.040,217.221 127.973,216.966 128.756 C 216.710 129.540,216.357 130.415,216.181 130.699 C 216.006 130.984,215.656 131.859,215.404 132.642 C 215.152 133.426,214.797 134.301,214.614 134.585 C 214.432 134.870,214.141 135.687,213.968 136.399 C 213.795 137.111,213.448 138.108,213.196 138.613 C 212.944 139.118,212.661 139.993,212.567 140.556 C 212.474 141.119,212.124 142.222,211.791 143.005 C 211.458 143.789,211.056 145.288,210.897 146.336 C 210.738 147.385,210.378 148.928,210.095 149.765 C 209.813 150.603,209.469 152.381,209.331 153.717 C 209.192 155.053,209.015 156.313,208.936 156.517 C 208.368 157.996,207.841 167.712,208.250 169.171 C 208.389 169.670,208.637 171.069,208.800 172.280 C 209.419 176.884,209.619 177.894,210.215 179.404 C 210.552 180.259,210.911 181.367,211.013 181.865 C 211.114 182.364,211.349 182.947,211.534 183.161 C 211.719 183.374,212.073 184.190,212.321 184.974 C 212.569 185.758,212.916 186.574,213.091 186.788 C 213.267 187.001,213.663 187.642,213.970 188.212 C 215.300 190.680,217.821 193.971,220.215 196.365 C 222.942 199.092,223.499 199.573,225.777 201.171 C 226.775 201.871,227.661 202.543,227.746 202.664 C 227.832 202.786,228.473 203.170,229.171 203.517 C 229.869 203.865,231.023 204.492,231.736 204.910 C 232.448 205.329,233.439 205.853,233.938 206.075 C 234.437 206.296,235.427 206.763,236.140 207.112 C 236.852 207.461,237.902 207.886,238.472 208.056 C 239.041 208.227,239.914 208.582,240.411 208.846 C 240.907 209.110,241.534 209.326,241.804 209.326 C 242.073 209.326,243.474 209.674,244.916 210.099 C 246.359 210.524,248.705 210.992,250.130 211.138 C 251.554 211.284,253.303 211.512,254.016 211.645 C 255.691 211.957,264.029 211.988,264.826 211.685 C 265.162 211.557,266.773 211.311,268.405 211.139 C 270.038 210.966,271.956 210.612,272.668 210.352 C 273.381 210.091,274.488 209.749,275.130 209.590 C 276.236 209.317,278.906 208.158,280.311 207.341 C 280.667 207.133,281.483 206.720,282.124 206.421 C 282.766 206.122,283.407 205.738,283.549 205.568 C 283.692 205.397,284.100 205.064,284.456 204.828 C 285.447 204.171,288.342 201.247,288.342 200.903 C 288.342 200.735,288.576 200.387,288.862 200.128 C 292.344 196.977,292.686 187.403,289.515 181.865 C 289.311 181.509,288.845 180.693,288.480 180.052 C 288.114 179.411,287.409 178.361,286.911 177.720 C 286.414 177.079,285.788 176.081,285.521 175.502 C 285.253 174.923,284.862 174.277,284.652 174.067 C 284.442 173.857,284.013 173.165,283.700 172.529 C 283.386 171.893,282.735 170.674,282.254 169.819 C 281.185 167.920,280.830 167.159,280.826 166.758 C 280.824 166.589,280.521 165.926,280.151 165.285 C 279.782 164.644,279.312 163.481,279.107 162.702 C 278.901 161.922,278.576 161.106,278.383 160.888 C 278.191 160.671,277.787 159.210,277.486 157.642 C 277.186 156.075,276.771 154.326,276.564 153.756 C 276.123 152.539,276.020 144.487,276.427 143.005 C 276.564 142.506,276.956 141.030,277.299 139.723 C 277.641 138.417,278.226 136.705,278.598 135.918 C 278.970 135.132,279.275 134.369,279.275 134.224 C 279.275 134.079,279.566 133.532,279.922 133.007 C 280.278 132.482,280.687 131.617,280.830 131.083 C 280.974 130.549,281.256 129.976,281.456 129.810 C 281.656 129.644,281.961 128.902,282.134 128.161 C 282.307 127.420,282.668 126.324,282.935 125.725 C 283.203 125.126,283.605 123.845,283.829 122.877 C 284.054 121.910,284.345 120.988,284.477 120.830 C 284.609 120.671,285.015 118.928,285.379 116.956 C 285.743 114.985,286.091 113.291,286.153 113.191 C 287.401 111.172,287.326 88.210,286.064 85.851 C 285.916 85.575,285.666 84.423,285.509 83.291 C 285.174 80.885,284.792 79.353,284.477 79.158 C 284.354 79.082,284.051 78.174,283.802 77.140 C 283.554 76.105,283.191 75.074,282.995 74.849 C 282.800 74.623,282.463 73.842,282.246 73.112 C 282.030 72.383,281.671 71.604,281.448 71.382 C 281.226 71.160,280.933 70.575,280.797 70.082 C 280.661 69.590,280.289 68.863,279.969 68.467 C 279.649 68.070,279.161 67.309,278.884 66.775 C 278.606 66.240,278.308 65.803,278.221 65.803 C 278.134 65.803,277.942 65.538,277.794 65.213 C 276.990 63.448,268.624 54.885,267.265 54.436 C 267.102 54.382,266.705 54.098,266.383 53.805 C 266.061 53.512,265.398 53.032,264.910 52.737 C 264.421 52.443,263.227 51.672,262.257 51.025 C 261.286 50.377,260.055 49.650,259.521 49.410 C 258.986 49.169,258.549 48.867,258.549 48.740 C 258.549 48.612,258.010 48.371,257.350 48.205 C 256.691 48.039,255.787 47.630,255.343 47.296 C 254.898 46.962,254.126 46.605,253.627 46.503 C 253.128 46.401,252.196 46.048,251.554 45.719 C 250.913 45.390,249.911 45.054,249.327 44.973 C 248.743 44.892,247.636 44.548,246.866 44.209 C 246.043 43.846,244.452 43.471,243.005 43.298 C 241.652 43.136,239.845 42.876,238.990 42.722 C 236.469 42.265,229.931 42.214,227.850 42.635 M136.684 53.336 C 137.097 53.461,138.601 53.764,140.026 54.009 C 141.451 54.254,143.141 54.628,143.782 54.840 C 144.424 55.053,145.764 55.486,146.762 55.803 C 148.504 56.357,150.445 57.173,151.813 57.926 C 152.170 58.122,153.062 58.570,153.797 58.920 C 154.532 59.271,155.211 59.682,155.305 59.834 C 155.399 59.987,155.905 60.347,156.429 60.636 C 157.400 61.170,158.911 62.183,159.550 62.727 C 159.744 62.892,160.403 63.410,161.015 63.877 C 162.267 64.832,167.429 70.058,167.593 70.536 C 167.652 70.707,167.973 71.060,168.306 71.323 C 168.639 71.585,168.912 71.948,168.912 72.130 C 168.912 72.312,169.247 72.924,169.657 73.489 C 170.066 74.055,170.488 74.801,170.593 75.147 C 170.699 75.494,170.996 76.010,171.255 76.295 C 171.513 76.580,171.867 77.396,172.040 78.109 C 172.214 78.821,172.621 79.870,172.946 80.440 C 173.270 81.010,173.655 82.137,173.801 82.943 C 173.948 83.750,174.242 84.829,174.456 85.340 C 174.669 85.852,174.973 87.465,175.129 88.925 C 175.286 90.386,175.537 92.688,175.687 94.041 C 176.218 98.826,175.355 111.760,174.327 114.436 C 174.176 114.832,173.893 116.050,173.699 117.143 C 173.506 118.236,173.121 119.576,172.845 120.122 C 172.568 120.668,172.258 121.639,172.156 122.280 C 172.054 122.921,171.707 123.912,171.385 124.482 C 171.063 125.052,170.717 125.868,170.617 126.295 C 170.517 126.723,170.150 127.507,169.803 128.038 C 169.455 128.570,169.171 129.094,169.170 129.204 C 169.170 129.314,168.837 130.045,168.431 130.829 C 168.024 131.613,167.552 132.825,167.381 133.524 C 167.211 134.222,166.880 135.155,166.646 135.596 C 166.412 136.038,166.084 137.332,165.917 138.472 C 165.750 139.611,165.488 141.069,165.334 141.710 C 164.396 145.632,164.319 148.482,165.042 152.461 C 165.327 154.028,165.719 156.477,165.912 157.902 C 166.105 159.326,166.491 161.017,166.771 161.658 C 167.051 162.299,167.366 163.290,167.471 163.860 C 167.576 164.430,167.941 165.505,168.281 166.250 C 168.620 166.994,168.976 167.926,169.071 168.322 C 169.167 168.718,169.506 169.508,169.825 170.078 C 170.144 170.648,170.486 171.464,170.585 171.891 C 170.685 172.319,171.030 173.018,171.352 173.446 C 171.675 173.873,172.024 174.573,172.128 175.000 C 172.232 175.427,172.587 176.069,172.917 176.425 C 173.247 176.781,173.595 177.333,173.691 177.650 C 173.914 178.387,175.499 181.089,176.025 181.628 C 176.245 181.854,176.425 182.121,176.425 182.222 C 176.425 182.430,178.205 185.285,178.948 186.269 C 181.747 189.976,180.284 194.707,175.585 197.151 C 174.978 197.467,174.424 197.806,174.352 197.906 C 174.032 198.352,168.526 199.999,166.117 200.368 C 160.800 201.184,149.331 200.596,146.942 199.386 C 146.558 199.191,145.602 198.890,144.819 198.716 C 144.035 198.542,142.869 198.129,142.228 197.799 C 141.587 197.470,140.538 197.061,139.896 196.892 C 139.255 196.722,138.556 196.433,138.342 196.250 C 138.128 196.066,137.438 195.639,136.809 195.302 C 134.145 193.875,132.602 192.884,131.088 191.628 C 130.589 191.215,129.739 190.510,129.198 190.063 C 127.525 188.678,127.014 188.122,124.953 185.452 C 123.338 183.359,121.576 180.061,120.964 177.984 C 120.692 177.061,120.294 175.936,120.079 175.485 C 119.865 175.034,119.569 173.457,119.421 171.982 C 119.274 170.507,119.040 168.652,118.903 167.860 C 118.588 166.046,118.588 164.766,118.901 162.381 C 119.038 161.342,119.280 159.037,119.441 157.259 C 119.601 155.480,119.892 153.644,120.087 153.177 C 120.281 152.711,120.637 151.252,120.876 149.934 C 121.115 148.617,121.515 147.131,121.765 146.632 C 122.014 146.133,122.366 145.026,122.546 144.171 C 122.726 143.316,123.043 142.339,123.252 142.000 C 123.460 141.661,123.842 140.670,124.099 139.798 C 124.656 137.915,125.434 135.938,126.456 133.808 C 126.867 132.953,127.202 132.019,127.202 131.731 C 127.202 131.444,127.491 130.784,127.844 130.264 C 128.196 129.745,128.603 128.795,128.747 128.152 C 128.891 127.509,129.302 126.432,129.660 125.759 C 130.018 125.085,130.311 124.222,130.311 123.840 C 130.311 123.457,130.603 122.571,130.960 121.870 C 131.317 121.169,131.714 119.955,131.842 119.171 C 131.970 118.387,132.317 117.026,132.614 116.147 C 133.691 112.949,134.445 103.903,133.957 100.024 C 133.191 93.929,132.923 92.285,132.521 91.205 C 132.285 90.571,131.982 89.473,131.847 88.766 C 131.713 88.058,131.328 86.887,130.992 86.162 C 130.656 85.437,130.311 84.469,130.224 84.010 C 130.138 83.551,129.773 82.708,129.412 82.137 C 129.052 81.566,128.756 80.950,128.755 80.769 C 128.754 80.588,128.562 80.091,128.328 79.663 C 126.891 77.034,126.291 75.920,125.817 75.000 C 125.523 74.430,124.957 73.509,124.558 72.953 C 124.160 72.398,123.834 71.791,123.834 71.606 C 123.834 71.421,123.674 71.176,123.479 71.062 C 123.284 70.948,122.876 70.389,122.571 69.819 C 122.267 69.249,121.801 68.491,121.536 68.135 C 120.728 67.051,119.171 64.562,119.171 64.355 C 119.171 64.248,118.967 63.935,118.718 63.659 C 117.793 62.638,117.141 59.849,117.605 58.895 C 119.379 55.248,131.414 51.741,136.684 53.336 M238.342 53.632 C 239.696 53.916,241.615 54.267,242.608 54.413 C 243.601 54.558,244.678 54.851,245.003 55.064 C 245.327 55.276,246.293 55.630,247.149 55.849 C 248.004 56.068,249.200 56.531,249.806 56.877 C 250.411 57.223,251.082 57.509,251.295 57.511 C 251.509 57.513,252.209 57.864,252.850 58.290 C 253.491 58.716,254.212 59.066,254.453 59.066 C 254.693 59.067,255.273 59.417,255.741 59.845 C 256.209 60.272,256.723 60.622,256.883 60.622 C 257.044 60.622,257.455 60.869,257.797 61.170 C 258.140 61.472,258.829 61.981,259.330 62.301 C 259.831 62.621,260.399 63.074,260.593 63.307 C 260.786 63.540,261.076 63.733,261.236 63.735 C 261.955 63.746,269.468 71.911,269.814 73.057 C 269.921 73.413,270.161 73.880,270.346 74.093 C 270.909 74.742,272.738 78.569,272.931 79.501 C 273.031 79.982,273.336 80.755,273.610 81.219 C 273.884 81.683,274.333 83.155,274.608 84.490 C 274.884 85.825,275.315 87.733,275.567 88.731 C 276.316 91.695,276.216 107.152,275.424 110.751 C 275.111 112.176,274.695 114.275,274.500 115.415 C 274.305 116.554,273.915 118.070,273.633 118.782 C 273.351 119.495,273.036 120.602,272.934 121.244 C 272.832 121.885,272.478 122.902,272.147 123.503 C 271.817 124.105,271.468 124.980,271.371 125.446 C 271.275 125.913,270.932 126.705,270.609 127.205 C 270.286 127.706,269.935 128.406,269.830 128.760 C 269.724 129.114,269.368 129.812,269.040 130.311 C 268.711 130.810,268.359 131.626,268.257 132.124 C 268.154 132.623,267.808 133.556,267.486 134.197 C 267.165 134.838,266.816 136.004,266.711 136.788 C 266.606 137.571,266.230 139.203,265.876 140.415 C 264.899 143.753,264.895 151.720,265.868 155.699 C 266.234 157.196,266.618 159.112,266.722 159.958 C 266.826 160.805,267.179 162.101,267.505 162.840 C 267.832 163.578,268.178 164.634,268.275 165.187 C 268.372 165.740,268.673 166.581,268.945 167.056 C 269.217 167.531,269.656 168.522,269.922 169.258 C 270.648 171.267,271.568 173.336,272.186 174.352 C 272.490 174.851,272.819 175.525,272.918 175.850 C 273.017 176.176,273.368 176.734,273.699 177.091 C 274.030 177.449,274.380 178.057,274.477 178.443 C 274.573 178.829,274.845 179.360,275.082 179.622 C 275.526 180.115,276.483 181.696,277.499 183.614 C 277.820 184.220,278.174 184.715,278.286 184.715 C 278.397 184.715,278.811 185.314,279.205 186.045 C 279.600 186.777,280.090 187.680,280.296 188.053 C 280.790 188.951,280.959 191.437,280.600 192.524 C 280.235 193.629,277.160 196.891,276.484 196.891 C 276.349 196.891,275.794 197.193,275.251 197.561 C 274.709 197.929,273.497 198.466,272.560 198.754 C 271.622 199.042,270.723 199.384,270.563 199.515 C 268.544 201.155,249.962 201.037,247.319 199.367 C 247.012 199.174,245.923 198.829,244.899 198.601 C 243.874 198.374,242.650 197.967,242.179 197.697 C 241.707 197.428,240.855 197.063,240.285 196.887 C 239.715 196.711,239.074 196.428,238.860 196.259 C 238.646 196.090,237.976 195.738,237.370 195.476 C 236.765 195.213,236.269 194.908,236.269 194.797 C 236.269 194.686,236.047 194.524,235.774 194.437 C 234.981 194.185,231.892 192.082,230.348 190.741 C 226.939 187.782,225.121 185.594,223.295 182.254 C 222.983 181.684,222.625 181.151,222.499 181.070 C 222.373 180.988,222.050 180.172,221.782 179.256 C 221.514 178.340,221.117 177.241,220.901 176.813 C 220.497 176.017,220.336 175.248,219.432 169.777 C 218.716 165.441,218.755 163.666,219.683 158.420 C 219.809 157.707,220.106 155.784,220.343 154.145 C 220.580 152.506,220.874 151.045,220.995 150.896 C 221.117 150.748,221.408 149.699,221.642 148.565 C 221.876 147.431,222.276 146.036,222.530 145.466 C 222.784 144.896,223.136 143.789,223.312 143.005 C 223.489 142.222,223.796 141.321,223.994 141.004 C 224.193 140.687,224.527 139.768,224.737 138.962 C 224.947 138.155,225.342 137.117,225.615 136.655 C 225.888 136.193,226.196 135.422,226.301 134.941 C 226.406 134.461,226.827 133.439,227.236 132.671 C 227.645 131.903,227.979 131.114,227.979 130.917 C 227.979 130.721,228.329 129.905,228.756 129.104 C 229.184 128.303,229.534 127.341,229.534 126.967 C 229.534 126.592,229.815 125.872,230.158 125.367 C 230.502 124.861,230.867 123.872,230.970 123.169 C 231.073 122.466,231.420 121.367,231.741 120.725 C 232.062 120.084,232.451 118.742,232.606 117.743 C 232.761 116.744,233.130 115.228,233.426 114.375 C 234.752 110.558,234.689 97.825,233.321 93.005 C 232.977 91.794,232.619 90.248,232.524 89.570 C 232.429 88.893,232.068 87.843,231.723 87.239 C 231.377 86.634,231.093 85.836,231.091 85.464 C 231.089 85.092,230.756 84.160,230.350 83.391 C 229.943 82.623,229.531 81.665,229.433 81.261 C 229.334 80.857,228.967 80.073,228.617 79.517 C 228.266 78.962,227.979 78.431,227.979 78.337 C 227.979 78.243,227.645 77.622,227.236 76.957 C 226.827 76.293,226.409 75.489,226.309 75.172 C 226.208 74.854,225.843 74.290,225.498 73.918 C 225.153 73.545,224.870 73.092,224.870 72.910 C 224.870 72.728,224.605 72.249,224.281 71.846 C 223.957 71.444,223.523 70.764,223.316 70.337 C 223.109 69.909,222.704 69.254,222.416 68.880 C 222.127 68.506,221.658 67.815,221.373 67.345 C 221.088 66.875,220.478 65.899,220.018 65.175 C 219.558 64.452,219.000 63.452,218.778 62.953 C 218.557 62.455,218.139 61.552,217.850 60.948 C 217.347 59.898,217.361 59.689,217.994 58.829 C 218.506 58.133,220.832 55.959,221.065 55.959 C 221.193 55.959,221.898 55.654,222.631 55.281 C 223.364 54.908,225.063 54.372,226.406 54.090 C 227.750 53.807,229.091 53.478,229.386 53.359 C 230.444 52.930,235.773 53.093,238.342 53.632 " stroke="none" fill="#ec2129" fill-rule="evenodd"></path><path id="path1" d="M0.000 129.534 L 0.000 259.067 200.000 259.067 L 400.000 259.067 400.000 129.534 L 400.000 0.000 200.000 0.000 L 0.000 0.000 0.000 129.534 M139.611 42.878 C 141.663 43.233,143.703 43.526,144.145 43.529 C 144.587 43.533,145.648 43.825,146.503 44.180 C 147.358 44.534,148.523 44.900,149.093 44.993 C 149.663 45.087,150.829 45.493,151.684 45.897 C 152.539 46.301,153.415 46.632,153.632 46.632 C 153.848 46.632,154.436 46.911,154.938 47.253 C 155.441 47.594,156.300 47.997,156.849 48.149 C 157.397 48.300,158.091 48.648,158.392 48.921 C 158.692 49.194,159.358 49.552,159.871 49.717 C 160.385 49.881,161.075 50.303,161.406 50.655 C 161.737 51.007,162.100 51.295,162.213 51.295 C 162.473 51.295,165.250 53.088,165.934 53.699 C 166.218 53.952,167.383 54.922,168.523 55.854 C 172.039 58.730,173.085 59.683,173.691 60.560 C 174.012 61.025,174.671 61.842,175.156 62.376 C 176.658 64.032,177.883 65.635,178.368 66.580 C 178.624 67.079,179.098 67.837,179.422 68.264 C 179.746 68.692,180.091 69.362,180.189 69.754 C 180.287 70.146,180.453 70.466,180.559 70.466 C 180.664 70.466,180.952 70.962,181.198 71.567 C 181.444 72.173,181.927 73.251,182.271 73.964 C 182.615 74.676,182.966 75.609,183.049 76.036 C 183.133 76.464,183.477 77.455,183.813 78.238 C 184.150 79.022,184.541 80.385,184.683 81.268 C 184.825 82.151,185.067 83.109,185.221 83.396 C 185.659 84.216,186.259 88.027,186.265 90.026 C 186.267 91.023,186.444 92.753,186.658 93.870 C 187.106 96.210,187.185 102.710,186.779 103.778 C 186.632 104.165,186.448 105.776,186.370 107.357 C 186.202 110.740,185.633 115.057,185.263 115.748 C 185.119 116.016,184.833 117.286,184.626 118.571 C 184.419 119.856,184.070 121.255,183.850 121.680 C 183.631 122.105,183.270 123.232,183.049 124.185 C 182.828 125.138,182.430 126.352,182.164 126.884 C 181.897 127.415,181.597 128.199,181.497 128.627 C 181.396 129.054,180.691 130.687,179.930 132.254 C 179.170 133.821,178.402 135.570,178.224 136.140 C 178.046 136.710,177.738 137.426,177.539 137.732 C 176.374 139.524,175.134 148.565,175.763 150.683 C 176.136 151.939,176.942 156.691,176.945 157.654 C 176.945 157.933,177.098 158.452,177.283 158.808 C 177.673 159.558,178.369 161.675,178.618 162.871 C 178.712 163.324,178.957 163.834,179.162 164.003 C 179.366 164.173,179.534 164.426,179.534 164.564 C 179.534 164.703,179.926 165.651,180.406 166.670 C 180.885 167.689,181.419 168.960,181.592 169.495 C 181.764 170.029,182.020 170.466,182.159 170.466 C 182.298 170.466,182.648 170.999,182.936 171.650 C 183.224 172.302,183.713 173.221,184.023 173.693 C 184.332 174.166,184.817 174.944,185.101 175.424 C 185.384 175.903,185.851 176.649,186.137 177.081 C 186.424 177.512,186.891 178.256,187.176 178.732 C 187.461 179.209,187.941 179.905,188.242 180.279 C 188.543 180.653,188.880 181.248,188.991 181.603 C 189.102 181.957,189.466 182.659,189.799 183.163 C 190.133 183.667,190.523 184.660,190.666 185.369 C 190.809 186.078,191.041 187.124,191.182 187.694 C 191.820 190.275,191.002 196.313,189.768 198.129 C 189.411 198.654,189.119 199.187,189.119 199.314 C 189.119 199.440,188.799 199.917,188.407 200.374 C 188.015 200.832,187.345 201.639,186.917 202.169 C 186.490 202.699,185.499 203.623,184.715 204.222 C 183.931 204.821,183.174 205.446,183.031 205.611 C 182.889 205.776,182.225 206.154,181.557 206.452 C 180.889 206.750,180.281 207.093,180.206 207.215 C 180.130 207.337,179.511 207.646,178.830 207.903 C 178.148 208.161,177.313 208.586,176.973 208.849 C 176.633 209.111,176.122 209.326,175.838 209.326 C 175.553 209.326,174.316 209.670,173.088 210.091 C 171.701 210.565,169.825 210.960,168.135 211.134 C 166.639 211.288,164.948 211.524,164.378 211.659 C 162.768 212.041,155.077 211.970,152.850 211.553 C 151.781 211.353,149.921 211.106,148.716 211.004 C 147.508 210.901,145.821 210.552,144.955 210.226 C 144.091 209.901,142.804 209.552,142.094 209.450 C 141.384 209.349,140.453 209.061,140.026 208.811 C 139.598 208.561,138.899 208.276,138.472 208.176 C 137.260 207.896,130.574 204.703,129.793 204.032 C 129.579 203.849,128.909 203.485,128.303 203.224 C 127.698 202.963,127.202 202.665,127.202 202.562 C 127.202 202.459,126.765 202.110,126.231 201.787 C 125.696 201.464,124.896 200.901,124.452 200.535 C 124.009 200.170,123.266 199.579,122.803 199.223 C 121.671 198.353,118.421 195.138,117.696 194.171 C 117.375 193.744,116.789 192.927,116.393 192.358 C 115.997 191.788,115.583 191.281,115.472 191.233 C 115.362 191.184,115.025 190.659,114.725 190.067 C 114.425 189.474,114.093 188.931,113.989 188.860 C 113.884 188.789,113.463 188.102,113.052 187.334 C 112.642 186.567,112.162 185.692,111.986 185.391 C 111.810 185.091,111.664 184.638,111.662 184.386 C 111.660 184.134,111.308 183.273,110.881 182.472 C 110.453 181.671,110.104 180.747,110.104 180.419 C 110.104 180.092,109.800 178.982,109.429 177.954 C 107.591 172.857,107.534 156.284,109.339 151.312 C 109.626 150.519,110.020 148.880,110.214 147.668 C 110.408 146.457,110.807 144.767,111.100 143.912 C 111.851 141.725,112.381 140.088,113.114 137.694 C 113.464 136.554,113.978 135.148,114.258 134.568 C 114.538 133.989,114.767 133.336,114.767 133.117 C 114.767 132.899,115.040 132.206,115.373 131.579 C 115.707 130.951,116.129 129.972,116.312 129.403 C 116.494 128.834,116.852 128.018,117.107 127.591 C 117.362 127.163,117.764 126.143,118.001 125.324 C 118.237 124.505,118.522 123.834,118.633 123.834 C 118.745 123.834,119.099 122.949,119.421 121.866 C 119.742 120.784,120.166 119.589,120.362 119.211 C 120.558 118.833,120.910 117.649,121.144 116.580 C 121.378 115.512,121.658 114.521,121.767 114.378 C 122.627 113.251,123.561 103.622,123.086 100.777 C 122.931 99.851,122.675 98.044,122.517 96.762 C 122.358 95.479,122.062 94.086,121.859 93.664 C 121.656 93.243,121.313 92.137,121.097 91.206 C 120.881 90.276,120.525 89.240,120.306 88.906 C 120.086 88.571,119.730 87.695,119.514 86.960 C 119.297 86.224,118.967 85.447,118.779 85.233 C 118.591 85.019,118.235 84.320,117.987 83.679 C 117.739 83.038,117.393 82.338,117.218 82.124 C 117.043 81.911,116.645 81.269,116.334 80.699 C 115.265 78.741,114.377 77.307,113.666 76.389 C 113.274 75.883,112.953 75.380,112.953 75.272 C 112.953 75.164,112.662 74.728,112.306 74.305 C 111.949 73.882,111.655 73.399,111.651 73.231 C 111.647 73.064,111.297 72.470,110.874 71.910 C 110.450 71.350,110.104 70.789,110.104 70.662 C 110.104 70.535,109.828 70.061,109.492 69.607 C 109.155 69.153,108.751 68.398,108.594 67.929 C 108.438 67.460,108.085 66.760,107.812 66.375 C 107.321 65.684,106.218 60.780,106.218 59.293 C 106.218 57.959,107.289 54.302,107.929 53.450 C 108.270 52.996,108.549 52.513,108.549 52.376 C 108.549 51.902,112.028 48.202,112.484 48.191 C 112.582 48.189,113.036 47.845,113.493 47.428 C 113.949 47.011,114.595 46.601,114.927 46.518 C 115.259 46.435,115.943 46.087,116.448 45.744 C 116.952 45.402,117.829 45.044,118.396 44.948 C 118.963 44.852,119.498 44.660,119.583 44.521 C 119.845 44.098,121.002 43.751,123.446 43.363 C 127.843 42.665,128.848 42.482,128.975 42.355 C 129.382 41.948,136.168 42.282,139.611 42.878 M238.990 42.722 C 239.845 42.876,241.652 43.136,243.005 43.298 C 244.452 43.471,246.043 43.846,246.866 44.209 C 247.636 44.548,248.743 44.892,249.327 44.973 C 249.911 45.054,250.913 45.390,251.554 45.719 C 252.196 46.048,253.128 46.401,253.627 46.503 C 254.126 46.605,254.898 46.962,255.343 47.296 C 255.787 47.630,256.691 48.039,257.350 48.205 C 258.010 48.371,258.549 48.612,258.549 48.740 C 258.549 48.867,258.986 49.169,259.521 49.410 C 260.055 49.650,261.286 50.377,262.257 51.025 C 263.227 51.672,264.421 52.443,264.910 52.737 C 265.398 53.032,266.061 53.512,266.383 53.805 C 266.705 54.098,267.102 54.382,267.265 54.436 C 268.624 54.885,276.990 63.448,277.794 65.213 C 277.942 65.538,278.134 65.803,278.221 65.803 C 278.308 65.803,278.606 66.240,278.884 66.775 C 279.161 67.309,279.649 68.070,279.969 68.467 C 280.289 68.863,280.661 69.590,280.797 70.082 C 280.933 70.575,281.226 71.160,281.448 71.382 C 281.671 71.604,282.030 72.383,282.246 73.112 C 282.463 73.842,282.800 74.623,282.995 74.849 C 283.191 75.074,283.554 76.105,283.802 77.140 C 284.051 78.174,284.354 79.082,284.477 79.158 C 284.792 79.353,285.174 80.885,285.509 83.291 C 285.666 84.423,285.916 85.575,286.064 85.851 C 287.326 88.210,287.401 111.172,286.153 113.191 C 286.091 113.291,285.743 114.985,285.379 116.956 C 285.015 118.928,284.609 120.671,284.477 120.830 C 284.345 120.988,284.054 121.910,283.829 122.877 C 283.605 123.845,283.203 125.126,282.935 125.725 C 282.668 126.324,282.307 127.420,282.134 128.161 C 281.961 128.902,281.656 129.644,281.456 129.810 C 281.256 129.976,280.974 130.549,280.830 131.083 C 280.687 131.617,280.278 132.482,279.922 133.007 C 279.566 133.532,279.275 134.079,279.275 134.224 C 279.275 134.369,278.970 135.132,278.598 135.918 C 278.226 136.705,277.641 138.417,277.299 139.723 C 276.956 141.030,276.564 142.506,276.427 143.005 C 276.020 144.487,276.123 152.539,276.564 153.756 C 276.771 154.326,277.186 156.075,277.486 157.642 C 277.787 159.210,278.191 160.671,278.383 160.888 C 278.576 161.106,278.901 161.922,279.107 162.702 C 279.312 163.481,279.782 164.644,280.151 165.285 C 280.521 165.926,280.824 166.589,280.826 166.758 C 280.830 167.159,281.185 167.920,282.254 169.819 C 282.735 170.674,283.386 171.893,283.700 172.529 C 284.013 173.165,284.442 173.857,284.652 174.067 C 284.862 174.277,285.253 174.923,285.521 175.502 C 285.788 176.081,286.414 177.079,286.911 177.720 C 287.409 178.361,288.114 179.411,288.480 180.052 C 288.845 180.693,289.311 181.509,289.515 181.865 C 292.686 187.403,292.344 196.977,288.862 200.128 C 288.576 200.387,288.342 200.735,288.342 200.903 C 288.342 201.247,285.447 204.171,284.456 204.828 C 284.100 205.064,283.692 205.397,283.549 205.568 C 283.407 205.738,282.766 206.122,282.124 206.421 C 281.483 206.720,280.667 207.133,280.311 207.341 C 278.906 208.158,276.236 209.317,275.130 209.590 C 274.488 209.749,273.381 210.091,272.668 210.352 C 271.956 210.612,270.038 210.966,268.405 211.139 C 266.773 211.311,265.162 211.557,264.826 211.685 C 264.029 211.988,255.691 211.957,254.016 211.645 C 253.303 211.512,251.554 211.284,250.130 211.138 C 248.705 210.992,246.359 210.524,244.916 210.099 C 243.474 209.674,242.073 209.326,241.804 209.326 C 241.534 209.326,240.907 209.110,240.411 208.846 C 239.914 208.582,239.041 208.227,238.472 208.056 C 237.902 207.886,236.852 207.461,236.140 207.112 C 235.427 206.763,234.437 206.296,233.938 206.075 C 233.439 205.853,232.448 205.329,231.736 204.910 C 231.023 204.492,229.869 203.865,229.171 203.517 C 228.473 203.170,227.832 202.786,227.746 202.664 C 227.661 202.543,226.775 201.871,225.777 201.171 C 223.499 199.573,222.942 199.092,220.215 196.365 C 217.821 193.971,215.300 190.680,213.970 188.212 C 213.663 187.642,213.267 187.001,213.091 186.788 C 212.916 186.574,212.569 185.758,212.321 184.974 C 212.073 184.190,211.719 183.374,211.534 183.161 C 211.349 182.947,211.114 182.364,211.013 181.865 C 210.911 181.367,210.552 180.259,210.215 179.404 C 209.619 177.894,209.419 176.884,208.800 172.280 C 208.637 171.069,208.389 169.670,208.250 169.171 C 207.841 167.712,208.368 157.996,208.936 156.517 C 209.015 156.313,209.192 155.053,209.331 153.717 C 209.469 152.381,209.813 150.603,210.095 149.765 C 210.378 148.928,210.738 147.385,210.897 146.336 C 211.056 145.288,211.458 143.789,211.791 143.005 C 212.124 142.222,212.474 141.119,212.567 140.556 C 212.661 139.993,212.944 139.118,213.196 138.613 C 213.448 138.108,213.795 137.111,213.968 136.399 C 214.141 135.687,214.432 134.870,214.614 134.585 C 214.797 134.301,215.152 133.426,215.404 132.642 C 215.656 131.859,216.006 130.984,216.181 130.699 C 216.357 130.415,216.710 129.540,216.966 128.756 C 217.221 127.973,217.626 127.040,217.865 126.684 C 218.104 126.328,218.447 125.512,218.628 124.870 C 218.808 124.229,219.162 123.348,219.415 122.912 C 219.667 122.475,220.024 121.484,220.210 120.709 C 220.395 119.935,220.752 118.892,221.004 118.394 C 221.256 117.895,221.659 116.496,221.898 115.285 C 222.138 114.074,222.428 112.966,222.543 112.824 C 223.814 111.250,223.713 97.029,222.413 94.371 C 222.219 93.976,221.916 92.895,221.738 91.969 C 221.560 91.043,221.215 89.994,220.971 89.637 C 220.726 89.281,220.379 88.407,220.198 87.694 C 220.017 86.982,219.722 86.224,219.542 86.010 C 219.362 85.797,219.010 85.097,218.759 84.456 C 218.509 83.815,218.091 83.012,217.831 82.672 C 217.570 82.333,217.358 81.913,217.358 81.740 C 217.358 81.567,217.037 80.968,216.645 80.409 C 216.253 79.851,215.710 78.959,215.438 78.428 C 215.167 77.896,214.854 77.461,214.744 77.461 C 214.634 77.461,214.282 76.937,213.962 76.295 C 213.642 75.654,213.298 75.130,213.198 75.130 C 213.098 75.130,212.870 74.776,212.691 74.344 C 212.512 73.912,212.032 73.138,211.623 72.625 C 211.215 72.111,210.881 71.541,210.881 71.357 C 210.881 71.174,210.608 70.695,210.275 70.292 C 209.941 69.889,209.537 69.176,209.377 68.706 C 209.217 68.237,208.853 67.525,208.568 67.125 C 208.284 66.725,207.931 65.863,207.784 65.210 C 207.638 64.556,207.284 63.427,206.997 62.700 C 206.306 60.947,206.305 58.305,206.995 56.785 C 207.273 56.172,207.631 55.187,207.790 54.597 C 208.412 52.287,212.540 47.922,215.400 46.551 C 215.978 46.274,216.760 45.829,217.138 45.563 C 217.517 45.296,218.030 45.078,218.279 45.078 C 218.528 45.078,219.372 44.775,220.153 44.406 C 220.935 44.036,222.578 43.569,223.805 43.368 C 225.032 43.166,226.852 42.837,227.850 42.635 C 229.931 42.214,236.469 42.265,238.990 42.722 M126.631 53.889 C 121.960 54.997,118.593 56.865,117.605 58.895 C 117.141 59.849,117.793 62.638,118.718 63.659 C 118.967 63.935,119.171 64.248,119.171 64.355 C 119.171 64.562,120.728 67.051,121.536 68.135 C 121.801 68.491,122.267 69.249,122.571 69.819 C 122.876 70.389,123.284 70.948,123.479 71.062 C 123.674 71.176,123.834 71.421,123.834 71.606 C 123.834 71.791,124.160 72.398,124.558 72.953 C 124.957 73.509,125.523 74.430,125.817 75.000 C 126.291 75.920,126.891 77.034,128.328 79.663 C 128.562 80.091,128.754 80.588,128.755 80.769 C 128.756 80.950,129.052 81.566,129.412 82.137 C 129.773 82.708,130.138 83.551,130.224 84.010 C 130.311 84.469,130.656 85.437,130.992 86.162 C 131.328 86.887,131.713 88.058,131.847 88.766 C 131.982 89.473,132.285 90.571,132.521 91.205 C 132.923 92.285,133.191 93.929,133.957 100.024 C 134.445 103.903,133.691 112.949,132.614 116.147 C 132.317 117.026,131.970 118.387,131.842 119.171 C 131.714 119.955,131.317 121.169,130.960 121.870 C 130.603 122.571,130.311 123.457,130.311 123.840 C 130.311 124.222,130.018 125.085,129.660 125.759 C 129.302 126.432,128.891 127.509,128.747 128.152 C 128.603 128.795,128.196 129.745,127.844 130.264 C 127.491 130.784,127.202 131.444,127.202 131.731 C 127.202 132.019,126.867 132.953,126.456 133.808 C 125.434 135.938,124.656 137.915,124.099 139.798 C 123.842 140.670,123.460 141.661,123.252 142.000 C 123.043 142.339,122.726 143.316,122.546 144.171 C 122.366 145.026,122.014 146.133,121.765 146.632 C 121.515 147.131,121.115 148.617,120.876 149.934 C 120.637 151.252,120.281 152.711,120.087 153.177 C 119.892 153.644,119.601 155.480,119.441 157.259 C 119.280 159.037,119.038 161.342,118.901 162.381 C 118.588 164.766,118.588 166.046,118.903 167.860 C 119.040 168.652,119.274 170.507,119.421 171.982 C 119.569 173.457,119.865 175.034,120.079 175.485 C 120.294 175.936,120.692 177.061,120.964 177.984 C 121.576 180.061,123.338 183.359,124.953 185.452 C 127.014 188.122,127.525 188.678,129.198 190.063 C 129.739 190.510,130.589 191.215,131.088 191.628 C 132.602 192.884,134.145 193.875,136.809 195.302 C 137.438 195.639,138.128 196.066,138.342 196.250 C 138.556 196.433,139.255 196.722,139.896 196.892 C 140.538 197.061,141.587 197.470,142.228 197.799 C 142.869 198.129,144.035 198.542,144.819 198.716 C 145.602 198.890,146.558 199.191,146.942 199.386 C 149.331 200.596,160.800 201.184,166.117 200.368 C 168.526 199.999,174.032 198.352,174.352 197.906 C 174.424 197.806,174.978 197.467,175.585 197.151 C 180.284 194.707,181.747 189.976,178.948 186.269 C 178.205 185.285,176.425 182.430,176.425 182.222 C 176.425 182.121,176.245 181.854,176.025 181.628 C 175.499 181.089,173.914 178.387,173.691 177.650 C 173.595 177.333,173.247 176.781,172.917 176.425 C 172.587 176.069,172.232 175.427,172.128 175.000 C 172.024 174.573,171.675 173.873,171.352 173.446 C 171.030 173.018,170.685 172.319,170.585 171.891 C 170.486 171.464,170.144 170.648,169.825 170.078 C 169.506 169.508,169.167 168.718,169.071 168.322 C 168.976 167.926,168.620 166.994,168.281 166.250 C 167.941 165.505,167.576 164.430,167.471 163.860 C 167.366 163.290,167.051 162.299,166.771 161.658 C 166.491 161.017,166.105 159.326,165.912 157.902 C 165.719 156.477,165.327 154.028,165.042 152.461 C 164.319 148.482,164.396 145.632,165.334 141.710 C 165.488 141.069,165.750 139.611,165.917 138.472 C 166.084 137.332,166.412 136.038,166.646 135.596 C 166.880 135.155,167.211 134.222,167.381 133.524 C 167.552 132.825,168.024 131.613,168.431 130.829 C 168.837 130.045,169.170 129.314,169.170 129.204 C 169.171 129.094,169.455 128.570,169.803 128.038 C 170.150 127.507,170.517 126.723,170.617 126.295 C 170.717 125.868,171.063 125.052,171.385 124.482 C 171.707 123.912,172.054 122.921,172.156 122.280 C 172.258 121.639,172.568 120.668,172.845 120.122 C 173.121 119.576,173.506 118.236,173.699 117.143 C 173.893 116.050,174.176 114.832,174.327 114.436 C 175.355 111.760,176.218 98.826,175.687 94.041 C 175.537 92.688,175.286 90.386,175.129 88.925 C 174.973 87.465,174.669 85.852,174.456 85.340 C 174.242 84.829,173.948 83.750,173.801 82.943 C 173.655 82.137,173.270 81.010,172.946 80.440 C 172.621 79.870,172.214 78.821,172.040 78.109 C 171.867 77.396,171.513 76.580,171.255 76.295 C 170.996 76.010,170.699 75.494,170.593 75.147 C 170.488 74.801,170.066 74.055,169.657 73.489 C 169.247 72.924,168.912 72.312,168.912 72.130 C 168.912 71.948,168.639 71.585,168.306 71.323 C 167.973 71.060,167.652 70.707,167.593 70.536 C 167.429 70.058,162.267 64.832,161.015 63.877 C 160.403 63.410,159.744 62.892,159.550 62.727 C 158.911 62.183,157.400 61.170,156.429 60.636 C 155.905 60.347,155.399 59.987,155.305 59.834 C 155.211 59.682,154.532 59.271,153.797 58.920 C 153.062 58.570,152.170 58.122,151.813 57.926 C 150.445 57.173,148.504 56.357,146.762 55.803 C 145.764 55.486,144.424 55.053,143.782 54.840 C 143.141 54.628,141.451 54.254,140.026 54.009 C 138.601 53.764,137.097 53.461,136.684 53.336 C 135.058 52.844,129.824 53.132,126.631 53.889 M229.386 53.359 C 229.091 53.478,227.750 53.807,226.406 54.090 C 225.063 54.372,223.364 54.908,222.631 55.281 C 221.898 55.654,221.193 55.959,221.065 55.959 C 220.832 55.959,218.506 58.133,217.994 58.829 C 217.361 59.689,217.347 59.898,217.850 60.948 C 218.139 61.552,218.557 62.455,218.778 62.953 C 219.000 63.452,219.558 64.452,220.018 65.175 C 220.478 65.899,221.088 66.875,221.373 67.345 C 221.658 67.815,222.127 68.506,222.416 68.880 C 222.704 69.254,223.109 69.909,223.316 70.337 C 223.523 70.764,223.957 71.444,224.281 71.846 C 224.605 72.249,224.870 72.728,224.870 72.910 C 224.870 73.092,225.153 73.545,225.498 73.918 C 225.843 74.290,226.208 74.854,226.309 75.172 C 226.409 75.489,226.827 76.293,227.236 76.957 C 227.645 77.622,227.979 78.243,227.979 78.337 C 227.979 78.431,228.266 78.962,228.617 79.517 C 228.967 80.073,229.334 80.857,229.433 81.261 C 229.531 81.665,229.943 82.623,230.350 83.391 C 230.756 84.160,231.089 85.092,231.091 85.464 C 231.093 85.836,231.377 86.634,231.723 87.239 C 232.068 87.843,232.429 88.893,232.524 89.570 C 232.619 90.248,232.977 91.794,233.321 93.005 C 234.689 97.825,234.752 110.558,233.426 114.375 C 233.130 115.228,232.761 116.744,232.606 117.743 C 232.451 118.742,232.062 120.084,231.741 120.725 C 231.420 121.367,231.073 122.466,230.970 123.169 C 230.867 123.872,230.502 124.861,230.158 125.367 C 229.815 125.872,229.534 126.592,229.534 126.967 C 229.534 127.341,229.184 128.303,228.756 129.104 C 228.329 129.905,227.979 130.721,227.979 130.917 C 227.979 131.114,227.645 131.903,227.236 132.671 C 226.827 133.439,226.406 134.461,226.301 134.941 C 226.196 135.422,225.888 136.193,225.615 136.655 C 225.342 137.117,224.947 138.155,224.737 138.962 C 224.527 139.768,224.193 140.687,223.994 141.004 C 223.796 141.321,223.489 142.222,223.312 143.005 C 223.136 143.789,222.784 144.896,222.530 145.466 C 222.276 146.036,221.876 147.431,221.642 148.565 C 221.408 149.699,221.117 150.748,220.995 150.896 C 220.874 151.045,220.580 152.506,220.343 154.145 C 220.106 155.784,219.809 157.707,219.683 158.420 C 218.755 163.666,218.716 165.441,219.432 169.777 C 220.336 175.248,220.497 176.017,220.901 176.813 C 221.117 177.241,221.514 178.340,221.782 179.256 C 222.050 180.172,222.373 180.988,222.499 181.070 C 222.625 181.151,222.983 181.684,223.295 182.254 C 225.121 185.594,226.939 187.782,230.348 190.741 C 231.892 192.082,234.981 194.185,235.774 194.437 C 236.047 194.524,236.269 194.686,236.269 194.797 C 236.269 194.908,236.765 195.213,237.370 195.476 C 237.976 195.738,238.646 196.090,238.860 196.259 C 239.074 196.428,239.715 196.711,240.285 196.887 C 240.855 197.063,241.707 197.428,242.179 197.697 C 242.650 197.967,243.874 198.374,244.899 198.601 C 245.923 198.829,247.012 199.174,247.319 199.367 C 249.962 201.037,268.544 201.155,270.563 199.515 C 270.723 199.384,271.622 199.042,272.560 198.754 C 273.497 198.466,274.709 197.929,275.251 197.561 C 275.794 197.193,276.349 196.891,276.484 196.891 C 277.160 196.891,280.235 193.629,280.600 192.524 C 280.959 191.437,280.790 188.951,280.296 188.053 C 280.090 187.680,279.600 186.777,279.205 186.045 C 278.811 185.314,278.397 184.715,278.286 184.715 C 278.174 184.715,277.820 184.220,277.499 183.614 C 276.483 181.696,275.526 180.115,275.082 179.622 C 274.845 179.360,274.573 178.829,274.477 178.443 C 274.380 178.057,274.030 177.449,273.699 177.091 C 273.368 176.734,273.017 176.176,272.918 175.850 C 272.819 175.525,272.490 174.851,272.186 174.352 C 271.568 173.336,270.648 171.267,269.922 169.258 C 269.656 168.522,269.217 167.531,268.945 167.056 C 268.673 166.581,268.372 165.740,268.275 165.187 C 268.178 164.634,267.832 163.578,267.505 162.840 C 267.179 162.101,266.826 160.805,266.722 159.958 C 266.618 159.112,266.234 157.196,265.868 155.699 C 264.895 151.720,264.899 143.753,265.876 140.415 C 266.230 139.203,266.606 137.571,266.711 136.788 C 266.816 136.004,267.165 134.838,267.486 134.197 C 267.808 133.556,268.154 132.623,268.257 132.124 C 268.359 131.626,268.711 130.810,269.040 130.311 C 269.368 129.812,269.724 129.114,269.830 128.760 C 269.935 128.406,270.286 127.706,270.609 127.205 C 270.932 126.705,271.275 125.913,271.371 125.446 C 271.468 124.980,271.817 124.105,272.147 123.503 C 272.478 122.902,272.832 121.885,272.934 121.244 C 273.036 120.602,273.351 119.495,273.633 118.782 C 273.915 118.070,274.305 116.554,274.500 115.415 C 274.695 114.275,275.111 112.176,275.424 110.751 C 276.216 107.152,276.316 91.695,275.567 88.731 C 275.315 87.733,274.884 85.825,274.608 84.490 C 274.333 83.155,273.884 81.683,273.610 81.219 C 273.336 80.755,273.031 79.982,272.931 79.501 C 272.738 78.569,270.909 74.742,270.346 74.093 C 270.161 73.880,269.921 73.413,269.814 73.057 C 269.468 71.911,261.955 63.746,261.236 63.735 C 261.076 63.733,260.786 63.540,260.593 63.307 C 260.399 63.074,259.831 62.621,259.330 62.301 C 258.829 61.981,258.140 61.472,257.797 61.170 C 257.455 60.869,257.044 60.622,256.883 60.622 C 256.723 60.622,256.209 60.272,255.741 59.845 C 255.273 59.417,254.693 59.067,254.453 59.066 C 254.212 59.066,253.491 58.716,252.850 58.290 C 252.209 57.864,251.509 57.513,251.295 57.511 C 251.082 57.509,250.411 57.223,249.806 56.877 C 249.200 56.531,248.004 56.068,247.149 55.849 C 246.293 55.630,245.327 55.276,245.003 55.064 C 244.678 54.851,243.601 54.558,242.608 54.413 C 241.615 54.267,239.696 53.916,238.342 53.632 C 235.773 53.093,230.444 52.930,229.386 53.359 " stroke="none" fill="#fcfcfc" fill-rule="evenodd"></path></g></svg>