<svg id="svg" version="1.1" xmlns="http://www.w3.org/2000/svg" xmlns:xlink="http://www.w3.org/1999/xlink" width="400" height="258.91472868217056" viewBox="0, 0, 400,258.91472868217056"><g id="svgg"><path id="path0" d="M78.497 44.200 C 73.297 44.837,68.912 45.709,68.912 46.106 C 68.912 46.225,68.096 46.570,67.098 46.873 C 66.101 47.176,65.285 47.532,65.285 47.664 C 65.285 47.795,64.782 48.126,64.166 48.398 C 63.551 48.670,62.740 49.200,62.365 49.576 C 61.989 49.952,61.568 50.259,61.428 50.259 C 61.289 50.259,61.107 50.474,61.024 50.736 C 60.940 50.998,60.612 51.352,60.294 51.522 C 59.975 51.693,59.449 52.294,59.124 52.859 C 58.800 53.424,58.433 53.886,58.310 53.886 C 56.841 53.886,56.996 64.017,58.494 65.922 C 58.793 66.302,59.172 67.019,59.336 67.516 C 59.500 68.013,59.915 68.722,60.258 69.092 C 60.600 69.462,60.881 69.974,60.881 70.230 C 60.881 70.486,61.112 70.858,61.394 71.056 C 61.677 71.253,62.150 71.930,62.446 72.560 C 63.017 73.774,63.933 75.205,64.646 75.998 C 64.884 76.261,65.299 76.977,65.570 77.589 C 65.841 78.201,66.237 78.768,66.451 78.850 C 66.664 78.932,66.839 79.220,66.839 79.489 C 66.839 79.759,67.145 80.430,67.519 80.982 C 67.893 81.533,68.363 82.447,68.563 83.013 C 68.762 83.579,69.098 84.232,69.309 84.465 C 69.519 84.698,69.877 85.519,70.104 86.291 C 70.331 87.063,70.679 87.877,70.878 88.101 C 71.077 88.325,71.352 89.082,71.490 89.785 C 71.841 91.566,72.208 92.736,72.544 93.141 C 73.876 94.745,73.781 112.986,72.433 114.484 C 72.229 114.711,71.877 115.880,71.649 117.082 C 71.422 118.284,71.067 119.455,70.861 119.682 C 70.655 119.910,70.314 120.833,70.105 121.732 C 69.895 122.631,69.532 123.578,69.299 123.836 C 69.066 124.093,68.699 124.985,68.482 125.818 C 68.266 126.650,67.936 127.506,67.749 127.720 C 67.561 127.934,67.222 128.740,66.995 129.512 C 66.768 130.284,66.417 131.100,66.215 131.325 C 66.013 131.551,65.671 132.417,65.455 133.250 C 65.239 134.082,64.877 134.969,64.649 135.220 C 64.422 135.471,64.057 136.537,63.838 137.590 C 63.618 138.642,63.268 139.692,63.059 139.923 C 62.850 140.154,62.571 140.971,62.440 141.739 C 62.138 143.507,61.758 144.775,61.401 145.205 C 61.248 145.389,60.951 146.681,60.742 148.076 C 60.533 149.470,60.180 150.888,59.958 151.227 C 58.536 153.397,58.556 175.204,59.982 177.380 C 60.211 177.729,60.566 178.819,60.770 179.801 C 60.975 180.784,61.434 182.016,61.789 182.540 C 62.144 183.064,62.435 183.686,62.435 183.924 C 62.435 184.161,62.727 184.750,63.083 185.233 C 63.439 185.716,63.731 186.305,63.731 186.541 C 63.731 186.777,64.017 187.280,64.366 187.657 C 64.716 188.034,65.203 188.766,65.448 189.283 C 65.693 189.800,66.136 190.495,66.432 190.828 C 66.727 191.160,67.260 191.794,67.617 192.237 C 68.296 193.081,71.599 196.362,72.927 197.513 C 74.671 199.023,75.598 199.741,75.811 199.745 C 75.935 199.747,76.426 200.093,76.902 200.512 C 77.378 200.932,78.019 201.354,78.327 201.450 C 78.634 201.547,79.204 201.891,79.592 202.216 C 79.981 202.540,80.680 202.889,81.147 202.991 C 81.613 203.093,82.313 203.442,82.701 203.768 C 83.089 204.094,83.789 204.439,84.255 204.536 C 84.722 204.633,85.516 204.991,86.021 205.333 C 86.526 205.675,87.500 206.059,88.186 206.187 C 88.872 206.315,89.751 206.655,90.138 206.941 C 90.592 207.276,91.483 207.529,92.636 207.649 C 93.623 207.752,95.148 208.104,96.025 208.431 C 99.787 209.834,115.829 209.838,118.963 208.437 C 119.718 208.099,121.035 207.741,121.888 207.642 C 122.748 207.541,123.755 207.236,124.146 206.957 C 124.535 206.680,125.421 206.285,126.114 206.079 C 126.808 205.873,127.582 205.477,127.834 205.199 C 128.086 204.920,128.630 204.618,129.042 204.528 C 129.455 204.437,129.938 204.157,130.116 203.904 C 130.295 203.652,130.790 203.265,131.218 203.045 C 132.329 202.472,136.269 198.095,136.269 197.433 C 136.269 197.271,136.590 196.655,136.982 196.063 C 138.073 194.414,138.090 186.420,137.006 184.822 C 136.628 184.265,136.241 183.437,136.148 182.984 C 136.054 182.531,135.801 182.014,135.585 181.835 C 135.369 181.656,134.919 180.970,134.585 180.311 C 134.252 179.652,133.794 178.960,133.569 178.773 C 133.345 178.587,133.161 178.289,133.161 178.112 C 133.161 177.936,132.878 177.508,132.533 177.163 C 132.188 176.818,131.709 176.044,131.469 175.444 C 131.228 174.844,130.924 174.352,130.792 174.352 C 130.660 174.352,130.321 173.816,130.040 173.160 C 129.759 172.504,129.297 171.672,129.013 171.311 C 128.730 170.951,128.497 170.454,128.497 170.208 C 128.497 169.963,128.193 169.313,127.821 168.765 C 127.449 168.217,126.991 167.257,126.803 166.632 C 126.615 166.007,126.279 165.294,126.056 165.048 C 125.834 164.802,125.543 164.026,125.409 163.324 C 125.276 162.621,124.868 161.405,124.503 160.622 C 124.138 159.838,123.838 158.818,123.837 158.356 C 123.835 157.893,123.608 156.844,123.331 156.024 C 122.113 152.421,121.861 143.787,122.897 141.192 C 123.154 140.551,123.512 139.303,123.694 138.420 C 123.876 137.537,124.315 136.254,124.668 135.570 C 125.022 134.886,125.396 133.977,125.499 133.549 C 125.602 133.122,125.920 132.521,126.207 132.214 C 126.494 131.907,126.837 131.170,126.970 130.577 C 127.104 129.984,127.439 129.186,127.717 128.804 C 127.994 128.421,128.340 127.560,128.487 126.889 C 128.634 126.217,128.987 125.221,129.273 124.673 C 129.558 124.126,129.916 122.985,130.068 122.137 C 130.221 121.289,130.577 120.109,130.860 119.514 C 131.152 118.900,131.479 117.419,131.617 116.089 C 131.750 114.799,132.117 112.896,132.430 111.859 C 132.969 110.082,133.007 109.392,133.097 99.786 L 133.193 89.598 132.522 87.221 C 132.152 85.914,131.750 83.944,131.628 82.843 C 131.494 81.636,131.194 80.483,130.873 79.939 C 130.581 79.443,130.217 78.362,130.065 77.537 C 129.914 76.711,129.576 75.745,129.314 75.389 C 129.053 75.032,128.639 74.138,128.395 73.401 C 128.151 72.664,127.789 71.926,127.591 71.762 C 127.393 71.597,127.048 70.914,126.825 70.243 C 126.602 69.572,126.188 68.824,125.904 68.581 C 125.621 68.339,125.389 67.975,125.389 67.773 C 125.389 67.572,124.981 66.918,124.482 66.321 C 123.983 65.724,123.575 65.119,123.575 64.976 C 123.575 64.833,123.255 64.386,122.863 63.982 C 122.471 63.579,121.801 62.837,121.373 62.334 C 120.946 61.831,120.442 61.269,120.254 61.085 C 120.066 60.902,119.716 60.533,119.477 60.266 C 119.237 59.999,118.925 59.684,118.782 59.565 C 118.640 59.447,118.128 59.024,117.645 58.626 C 117.162 58.227,116.412 57.523,115.978 57.060 C 115.544 56.597,115.077 56.218,114.939 56.218 C 114.585 56.218,112.492 54.672,111.693 53.821 C 111.325 53.429,110.821 53.109,110.573 53.109 C 110.325 53.109,109.739 52.775,109.271 52.367 C 108.803 51.958,108.128 51.537,107.772 51.430 C 107.416 51.323,106.891 51.030,106.606 50.779 C 106.321 50.528,105.622 50.178,105.052 50.000 C 104.482 49.822,103.782 49.469,103.497 49.214 C 103.212 48.959,102.455 48.613,101.813 48.445 C 101.172 48.277,100.298 47.932,99.870 47.680 C 99.443 47.427,98.279 47.022,97.285 46.779 C 96.290 46.536,95.313 46.202,95.113 46.036 C 94.641 45.644,88.386 44.647,82.124 43.966 C 81.626 43.912,79.994 44.017,78.497 44.200 M183.938 44.092 C 182.442 44.216,180.693 44.477,180.052 44.672 C 179.411 44.867,177.862 45.167,176.609 45.339 C 175.357 45.512,174.189 45.796,174.013 45.972 C 173.837 46.148,173.054 46.500,172.274 46.754 C 171.493 47.008,170.622 47.425,170.337 47.682 C 170.052 47.938,169.491 48.229,169.091 48.329 C 168.323 48.519,167.820 48.919,165.590 51.108 C 163.407 53.251,163.273 53.432,162.951 54.663 C 162.783 55.304,162.453 56.046,162.217 56.310 C 161.589 57.015,161.600 62.173,162.231 62.871 C 162.470 63.135,162.787 63.894,162.935 64.557 C 163.245 65.939,163.729 67.098,163.996 67.098 C 164.096 67.098,164.378 67.623,164.623 68.263 C 164.868 68.904,165.219 69.516,165.403 69.623 C 165.588 69.731,165.992 70.343,166.301 70.984 C 166.914 72.255,167.844 73.668,168.604 74.482 C 168.870 74.767,169.284 75.432,169.525 75.960 C 169.765 76.489,170.065 76.985,170.192 77.063 C 170.318 77.141,170.675 77.729,170.985 78.369 C 171.295 79.010,171.639 79.534,171.750 79.534 C 171.860 79.534,172.147 80.049,172.388 80.679 C 172.628 81.309,172.988 81.959,173.186 82.124 C 173.384 82.289,173.744 83.026,173.986 83.763 C 174.228 84.501,174.642 85.413,174.907 85.791 C 175.172 86.170,175.389 86.765,175.389 87.115 C 175.389 87.465,175.722 88.379,176.131 89.147 C 176.559 89.955,176.952 91.200,177.062 92.098 C 177.167 92.953,177.493 94.177,177.788 94.819 C 178.997 97.452,179.042 109.019,177.854 112.038 C 177.516 112.898,177.158 114.392,177.060 115.360 C 176.939 116.540,176.685 117.407,176.285 117.995 C 175.945 118.497,175.612 119.493,175.509 120.321 C 175.409 121.117,175.117 122.037,174.860 122.364 C 174.603 122.691,174.205 123.680,173.977 124.561 C 173.749 125.442,173.273 126.587,172.921 127.107 C 172.568 127.627,172.280 128.311,172.280 128.628 C 172.280 128.945,172.057 129.488,171.784 129.835 C 171.512 130.181,171.091 131.146,170.848 131.979 C 170.606 132.811,170.145 134.030,169.823 134.687 C 169.500 135.343,169.169 136.332,169.085 136.884 C 169.002 137.436,168.752 138.090,168.529 138.336 C 168.306 138.582,167.961 139.559,167.763 140.507 C 167.565 141.455,167.163 142.726,166.870 143.330 C 166.577 143.935,166.217 145.282,166.069 146.324 C 165.922 147.365,165.640 148.531,165.444 148.914 C 164.978 149.828,164.818 150.644,164.505 153.727 C 164.362 155.136,164.052 156.826,163.816 157.484 C 163.169 159.285,163.146 171.001,163.787 172.180 C 164.028 172.623,164.351 174.022,164.506 175.288 C 164.832 177.969,164.960 178.482,165.443 179.034 C 165.639 179.257,165.908 180.015,166.041 180.717 C 166.352 182.353,166.760 183.420,167.074 183.420 C 167.210 183.420,167.509 184.066,167.739 184.857 C 167.968 185.647,168.325 186.359,168.532 186.438 C 168.738 186.517,169.046 187.044,169.215 187.609 C 169.384 188.174,169.708 188.774,169.934 188.943 C 170.161 189.111,170.533 189.543,170.763 189.903 C 172.376 192.436,179.526 199.357,181.179 199.985 C 181.556 200.129,181.865 200.370,181.865 200.521 C 181.865 200.672,182.361 201.010,182.966 201.271 C 183.572 201.532,184.283 201.988,184.548 202.283 C 184.812 202.579,185.395 202.900,185.843 202.998 C 186.291 203.096,186.970 203.438,187.352 203.758 C 187.734 204.078,188.482 204.421,189.014 204.521 C 189.547 204.621,190.342 204.973,190.782 205.303 C 191.221 205.633,192.105 205.985,192.746 206.085 C 193.387 206.185,194.378 206.532,194.948 206.855 C 195.525 207.183,196.864 207.571,197.970 207.732 C 199.063 207.891,200.541 208.252,201.256 208.534 C 204.573 209.841,220.541 209.778,223.823 208.444 C 224.623 208.119,225.880 207.774,226.616 207.676 C 227.352 207.578,228.613 207.152,229.418 206.728 C 230.223 206.305,231.094 205.959,231.354 205.959 C 231.613 205.959,232.163 205.675,232.575 205.328 C 232.988 204.981,233.667 204.612,234.085 204.508 C 234.503 204.404,235.136 204.046,235.492 203.711 C 238.332 201.045,240.155 199.195,240.155 198.980 C 240.155 198.840,240.387 198.509,240.671 198.244 C 240.955 197.980,241.408 197.131,241.680 196.356 C 241.951 195.582,242.359 194.598,242.587 194.171 C 243.215 192.994,243.175 188.009,242.528 186.784 C 242.266 186.287,241.909 185.307,241.736 184.605 C 241.562 183.903,241.146 183.002,240.810 182.603 C 240.474 182.204,240.122 181.524,240.027 181.092 C 239.932 180.660,239.651 180.198,239.404 180.065 C 239.156 179.933,238.740 179.351,238.479 178.772 C 238.218 178.194,237.899 177.720,237.771 177.720 C 237.643 177.720,237.378 177.341,237.181 176.878 C 236.984 176.415,236.530 175.643,236.171 175.162 C 235.813 174.682,235.446 173.953,235.356 173.544 C 235.266 173.134,234.977 172.648,234.714 172.464 C 234.451 172.280,234.029 171.609,233.777 170.974 C 233.524 170.338,233.165 169.664,232.979 169.475 C 232.792 169.286,232.512 168.622,232.355 167.999 C 232.198 167.375,231.790 166.487,231.449 166.025 C 231.108 165.563,230.828 164.886,230.826 164.522 C 230.824 164.158,230.537 163.360,230.188 162.750 C 229.839 162.139,229.425 160.915,229.268 160.029 C 229.111 159.144,228.745 157.955,228.454 157.387 C 227.048 154.646,227.053 141.432,228.461 138.672 C 228.759 138.087,229.129 137.047,229.283 136.361 C 229.437 135.674,229.713 134.935,229.895 134.719 C 230.078 134.503,230.493 133.656,230.818 132.837 C 231.142 132.017,231.492 131.347,231.595 131.347 C 231.698 131.347,231.930 130.852,232.110 130.246 C 232.453 129.094,232.678 128.562,233.305 127.422 C 233.512 127.044,233.792 126.156,233.927 125.447 C 234.061 124.738,234.418 123.686,234.719 123.107 C 235.021 122.529,235.372 121.313,235.501 120.406 C 235.629 119.499,235.976 118.211,236.271 117.545 C 236.627 116.739,236.889 115.353,237.052 113.412 C 237.351 109.843,237.527 108.781,237.894 108.336 C 238.623 107.454,238.393 92.086,237.604 88.990 C 237.459 88.420,237.215 86.809,237.061 85.411 C 236.899 83.940,236.575 82.464,236.291 81.908 C 236.021 81.379,235.721 80.366,235.624 79.657 C 235.527 78.948,235.179 77.785,234.851 77.073 C 234.522 76.360,234.059 75.174,233.822 74.437 C 233.585 73.700,233.236 72.968,233.046 72.810 C 232.856 72.652,232.573 72.018,232.418 71.401 C 232.262 70.784,231.942 70.119,231.706 69.923 C 231.470 69.727,231.057 69.099,230.790 68.527 C 230.299 67.478,229.392 66.110,228.554 65.155 C 228.304 64.870,227.577 63.965,226.939 63.143 C 225.484 61.270,224.291 60.099,221.503 57.802 C 220.291 56.805,219.009 55.720,218.653 55.391 C 218.297 55.062,217.685 54.653,217.293 54.481 C 216.901 54.310,216.580 54.061,216.580 53.927 C 216.580 53.793,216.085 53.451,215.479 53.166 C 214.874 52.881,214.156 52.402,213.885 52.101 C 213.613 51.800,213.194 51.554,212.952 51.554 C 212.711 51.554,212.057 51.224,211.501 50.821 C 210.944 50.418,210.147 50.002,209.730 49.897 C 209.314 49.793,208.655 49.440,208.267 49.113 C 207.879 48.787,207.068 48.441,206.466 48.344 C 205.863 48.248,205.101 47.957,204.772 47.698 C 204.442 47.439,203.438 47.077,202.540 46.893 C 201.642 46.710,200.550 46.347,200.113 46.087 C 199.604 45.783,198.126 45.466,195.992 45.203 C 194.161 44.978,192.478 44.697,192.252 44.581 C 192.025 44.464,190.848 44.306,189.637 44.230 C 188.426 44.154,187.260 44.041,187.047 43.979 C 186.833 43.917,185.434 43.968,183.938 44.092 M283.161 44.213 C 282.234 44.270,281.109 44.488,280.660 44.697 C 280.211 44.907,279.534 45.078,279.156 45.078 C 277.797 45.078,274.733 45.678,274.331 46.023 C 274.105 46.217,273.337 46.549,272.625 46.760 C 271.912 46.972,271.065 47.374,270.741 47.654 C 270.418 47.935,269.758 48.295,269.274 48.454 C 268.790 48.614,268.394 48.852,268.394 48.983 C 268.394 49.115,267.886 49.543,267.265 49.935 C 266.207 50.603,263.731 53.344,263.731 53.847 C 263.731 53.973,263.468 54.409,263.148 54.816 C 262.278 55.921,262.255 63.165,263.117 64.378 C 263.421 64.806,263.817 65.714,263.996 66.396 C 264.178 67.089,264.535 67.751,264.803 67.895 C 265.068 68.037,265.285 68.361,265.285 68.615 C 265.285 68.870,265.629 69.462,266.048 69.933 C 266.468 70.403,266.886 71.124,266.976 71.534 C 267.066 71.944,267.353 72.429,267.614 72.612 C 267.876 72.795,268.296 73.378,268.549 73.908 C 268.801 74.437,269.109 74.870,269.234 74.870 C 269.358 74.870,269.694 75.402,269.982 76.052 C 270.269 76.701,270.662 77.293,270.855 77.368 C 271.048 77.442,271.416 78.086,271.673 78.800 C 271.929 79.513,272.346 80.208,272.598 80.343 C 272.851 80.478,273.057 80.797,273.057 81.053 C 273.057 81.308,273.394 82.033,273.806 82.663 C 274.218 83.293,274.641 84.216,274.744 84.715 C 274.848 85.214,275.202 86.088,275.530 86.658 C 275.859 87.228,276.208 88.161,276.308 88.731 C 276.407 89.301,276.726 90.162,277.017 90.644 C 277.309 91.127,277.687 92.409,277.859 93.494 C 278.031 94.579,278.435 96.457,278.758 97.668 C 279.513 100.504,279.437 108.796,278.641 110.335 C 278.393 110.814,278.041 112.274,277.859 113.579 C 277.677 114.884,277.277 116.443,276.971 117.043 C 276.666 117.642,276.345 118.687,276.260 119.364 C 276.174 120.042,275.830 121.076,275.496 121.664 C 275.161 122.251,274.761 123.298,274.605 123.991 C 274.450 124.684,274.154 125.437,273.948 125.665 C 273.742 125.893,273.387 126.711,273.160 127.483 C 272.933 128.255,272.595 129.061,272.409 129.275 C 272.223 129.488,271.885 130.295,271.659 131.066 C 271.432 131.838,271.080 132.654,270.878 132.880 C 270.676 133.106,270.321 134.024,270.090 134.921 C 269.858 135.817,269.442 136.986,269.165 137.517 C 268.888 138.049,268.549 139.078,268.411 139.805 C 268.273 140.532,267.927 141.578,267.641 142.130 C 267.356 142.683,266.996 143.932,266.843 144.906 C 266.689 145.879,266.394 146.934,266.188 147.249 C 265.982 147.564,265.686 148.749,265.532 149.883 C 265.164 152.576,264.851 154.231,264.400 155.868 C 263.517 159.072,263.668 172.466,264.608 174.304 C 264.804 174.687,265.042 175.525,265.137 176.166 C 265.451 178.296,265.865 179.918,266.194 180.311 C 266.373 180.525,266.716 181.399,266.956 182.254 C 267.196 183.109,267.554 183.934,267.751 184.087 C 267.949 184.240,268.300 184.940,268.533 185.641 C 268.765 186.343,269.102 187.034,269.281 187.176 C 269.459 187.319,269.813 187.872,270.065 188.407 C 270.318 188.941,270.619 189.378,270.734 189.378 C 270.848 189.378,271.203 189.815,271.522 190.350 C 272.217 191.513,272.273 191.576,275.881 195.272 C 277.446 196.875,278.821 198.188,278.936 198.191 C 279.051 198.193,279.540 198.543,280.022 198.968 C 280.505 199.393,280.996 199.741,281.114 199.741 C 281.232 199.741,281.712 200.075,282.180 200.483 C 282.648 200.891,283.323 201.315,283.679 201.425 C 284.035 201.535,284.709 201.958,285.177 202.367 C 285.645 202.775,286.217 203.109,286.448 203.109 C 286.679 203.109,287.246 203.397,287.708 203.749 C 288.169 204.101,289.019 204.495,289.595 204.625 C 290.171 204.754,290.949 205.101,291.324 205.396 C 291.699 205.691,292.551 206.009,293.218 206.103 C 293.885 206.197,294.897 206.540,295.467 206.867 C 296.037 207.193,297.203 207.545,298.058 207.648 C 298.912 207.752,300.334 208.107,301.218 208.436 C 304.971 209.835,320.388 209.843,324.142 208.449 C 325.042 208.115,326.408 207.761,327.180 207.663 C 327.951 207.564,328.863 207.263,329.206 206.993 C 329.549 206.724,330.442 206.325,331.190 206.107 C 331.939 205.890,332.753 205.489,332.999 205.217 C 333.245 204.945,333.780 204.656,334.189 204.574 C 334.597 204.492,335.335 204.071,335.829 203.638 C 336.323 203.204,336.810 202.850,336.912 202.850 C 337.014 202.850,337.424 202.529,337.824 202.137 C 338.223 201.745,338.672 201.308,338.821 201.166 C 339.644 200.378,340.674 199.111,340.674 198.885 C 340.674 198.741,340.980 198.222,341.355 197.731 C 342.834 195.792,343.881 190.371,343.177 188.298 C 342.963 187.669,342.641 186.401,342.461 185.481 C 342.280 184.561,341.927 183.574,341.675 183.287 C 341.423 183.000,341.037 182.336,340.818 181.811 C 340.599 181.287,340.127 180.565,339.769 180.207 C 339.412 179.850,339.119 179.429,339.119 179.271 C 339.119 179.114,338.781 178.555,338.368 178.029 C 337.955 177.503,337.539 176.810,337.444 176.490 C 337.349 176.169,337.161 175.907,337.026 175.907 C 336.891 175.907,336.483 175.295,336.120 174.547 C 334.971 172.184,334.340 171.051,333.897 170.557 C 333.661 170.293,333.340 169.597,333.184 169.011 C 333.028 168.424,332.678 167.662,332.408 167.317 C 332.137 166.973,331.782 166.196,331.618 165.589 C 331.455 164.983,331.036 163.950,330.687 163.293 C 330.338 162.636,330.052 161.726,330.052 161.269 C 330.052 160.813,329.758 159.886,329.398 159.210 C 328.975 158.414,328.655 157.235,328.491 155.868 C 328.066 152.328,327.789 150.682,327.489 149.918 C 327.057 148.819,327.143 146.710,327.713 144.415 C 327.995 143.283,328.333 141.458,328.464 140.358 C 328.608 139.157,328.916 138.015,329.235 137.500 C 329.527 137.028,329.892 136.074,330.048 135.380 C 330.203 134.686,330.603 133.795,330.936 133.399 C 331.269 133.003,331.618 132.275,331.710 131.780 C 331.803 131.286,332.052 130.738,332.263 130.562 C 332.475 130.387,332.822 129.646,333.035 128.917 C 333.247 128.187,333.713 127.017,334.068 126.316 C 334.424 125.615,334.715 124.705,334.715 124.292 C 334.715 123.880,335.003 122.933,335.356 122.188 C 335.708 121.443,336.113 120.022,336.256 119.031 C 336.398 118.039,336.738 116.587,337.011 115.803 C 337.330 114.888,337.616 112.942,337.811 110.363 C 337.978 108.154,338.290 105.531,338.505 104.534 C 338.970 102.373,338.906 94.142,338.413 92.876 C 338.247 92.448,337.975 90.350,337.810 88.212 C 337.598 85.488,337.371 84.055,337.047 83.420 C 336.794 82.921,336.457 81.674,336.298 80.648 C 336.140 79.622,335.718 78.235,335.362 77.565 C 335.006 76.896,334.715 76.055,334.715 75.698 C 334.715 75.341,334.444 74.688,334.113 74.247 C 333.782 73.806,333.354 72.877,333.163 72.182 C 332.972 71.487,332.544 70.625,332.211 70.266 C 331.878 69.907,331.606 69.415,331.606 69.173 C 331.606 68.931,331.381 68.529,331.105 68.279 C 330.829 68.030,330.362 67.312,330.067 66.685 C 329.772 66.057,329.418 65.544,329.280 65.544 C 329.142 65.544,328.841 65.181,328.611 64.736 C 328.227 63.993,322.894 58.582,320.923 56.936 C 320.458 56.547,319.682 55.877,319.197 55.446 C 318.713 55.016,318.200 54.663,318.057 54.663 C 317.794 54.663,316.182 53.538,314.681 52.306 C 314.229 51.935,313.510 51.548,313.083 51.445 C 312.655 51.343,312.014 50.990,311.658 50.663 C 311.302 50.335,310.668 49.986,310.251 49.887 C 309.833 49.788,309.171 49.438,308.779 49.109 C 308.388 48.779,307.543 48.431,306.902 48.335 C 306.261 48.239,305.459 47.942,305.121 47.676 C 304.782 47.410,303.581 47.001,302.451 46.768 C 301.321 46.534,300.203 46.168,299.967 45.954 C 299.692 45.705,298.408 45.441,296.396 45.220 C 294.669 45.030,293.112 44.755,292.936 44.610 C 292.586 44.320,285.849 44.046,283.161 44.213 M86.492 51.183 C 87.398 51.256,88.797 51.536,89.601 51.805 C 90.405 52.074,91.910 52.430,92.946 52.596 C 93.983 52.762,94.989 53.057,95.183 53.252 C 95.378 53.446,96.104 53.743,96.797 53.912 C 98.198 54.254,98.911 54.574,99.430 55.093 C 99.621 55.284,100.032 55.441,100.342 55.441 C 100.997 55.443,102.591 56.350,102.591 56.721 C 102.591 56.860,102.889 57.250,103.253 57.588 C 104.706 58.935,104.755 58.932,84.481 59.003 C 67.140 59.063,65.897 59.038,65.383 58.614 C 64.600 57.968,64.817 56.360,65.768 55.759 C 66.144 55.522,66.700 55.070,67.005 54.754 C 67.310 54.439,68.026 54.055,68.597 53.901 C 69.169 53.747,69.699 53.458,69.776 53.257 C 69.852 53.057,70.593 52.762,71.421 52.602 C 72.250 52.441,73.469 52.068,74.131 51.771 C 76.011 50.929,80.623 50.710,86.492 51.183 M191.684 51.184 C 192.596 51.257,193.820 51.531,194.404 51.792 C 194.988 52.053,196.206 52.346,197.110 52.444 C 198.958 52.644,199.859 52.930,200.427 53.498 C 200.640 53.712,201.010 53.887,201.249 53.887 C 202.022 53.890,203.599 54.413,203.979 54.793 C 204.182 54.996,204.914 55.379,205.607 55.644 C 207.618 56.415,209.274 58.266,208.355 58.716 C 207.472 59.148,171.647 59.135,170.611 58.702 C 169.332 58.167,169.773 55.777,171.237 55.313 C 171.525 55.221,171.762 55.031,171.762 54.890 C 171.762 54.749,172.271 54.409,172.893 54.134 C 173.516 53.858,174.155 53.476,174.315 53.284 C 174.474 53.091,175.277 52.787,176.098 52.608 C 176.919 52.429,178.084 52.053,178.686 51.774 C 180.451 50.954,185.819 50.710,191.684 51.184 M291.839 51.177 C 293.201 51.265,294.413 51.485,294.754 51.706 C 295.074 51.914,296.350 52.261,297.589 52.477 C 298.828 52.693,300.212 53.099,300.664 53.378 C 301.116 53.657,301.707 53.886,301.976 53.886 C 302.246 53.886,303.398 54.349,304.537 54.916 C 305.675 55.482,306.727 55.948,306.875 55.952 C 307.562 55.969,309.066 58.228,308.631 58.589 C 307.991 59.120,271.005 59.104,270.365 58.573 C 269.344 57.725,271.195 55.018,273.422 54.104 C 273.863 53.923,274.603 53.519,275.068 53.205 C 275.533 52.892,276.408 52.554,277.011 52.455 C 277.615 52.355,278.622 52.043,279.248 51.761 C 280.002 51.421,281.318 51.180,283.134 51.047 C 285.825 50.852,287.133 50.871,291.839 51.177 M113.253 64.313 C 113.957 64.847,116.187 67.000,117.344 68.264 C 117.605 68.549,117.994 69.132,118.209 69.560 C 118.424 69.988,118.845 70.560,119.144 70.831 C 119.444 71.102,119.689 71.472,119.689 71.652 C 119.689 71.833,119.999 72.350,120.379 72.801 C 120.953 73.483,121.028 73.736,120.826 74.310 L 120.583 75.000 96.582 75.000 L 72.581 75.000 71.933 74.392 C 71.577 74.057,71.136 73.416,70.954 72.967 C 70.771 72.518,70.412 71.998,70.156 71.812 C 69.899 71.626,69.689 71.263,69.689 71.005 C 69.689 70.748,69.414 70.259,69.077 69.919 C 68.741 69.579,68.260 68.892,68.008 68.394 C 67.757 67.895,67.332 67.278,67.066 67.024 C 66.410 66.397,66.389 64.386,67.034 64.010 C 67.332 63.837,75.186 63.744,89.985 63.738 L 112.483 63.731 113.253 64.313 M218.820 64.651 C 219.583 65.157,220.207 65.662,220.207 65.772 C 220.207 65.882,220.965 66.856,221.891 67.937 C 222.817 69.019,223.575 70.030,223.575 70.185 C 223.575 70.340,223.819 70.710,224.116 71.007 C 225.327 72.218,225.747 73.914,225.058 74.806 C 224.801 75.138,178.795 75.307,177.579 74.980 C 177.077 74.845,176.153 73.611,175.000 71.536 C 174.715 71.023,174.349 70.485,174.187 70.340 C 174.024 70.196,173.690 69.641,173.445 69.106 C 173.199 68.572,172.897 68.135,172.774 68.135 C 172.395 68.135,171.563 66.249,171.465 65.170 C 171.334 63.717,170.197 63.785,195.051 63.756 L 217.433 63.731 218.820 64.651 M318.527 64.281 C 319.735 64.924,320.989 66.163,321.424 67.141 C 321.592 67.520,321.970 67.907,322.264 68.000 C 322.558 68.093,322.798 68.319,322.798 68.502 C 322.798 68.685,323.119 69.183,323.510 69.607 C 324.198 70.352,324.786 71.247,325.685 72.915 C 326.060 73.610,326.067 73.790,325.743 74.417 L 325.375 75.130 301.677 75.130 C 279.429 75.130,277.956 75.102,277.591 74.676 C 277.377 74.427,276.975 73.967,276.698 73.654 C 276.420 73.341,275.996 72.699,275.756 72.229 C 275.515 71.758,275.168 71.285,274.984 71.177 C 274.801 71.069,274.512 70.544,274.343 70.011 C 274.174 69.478,273.880 68.916,273.690 68.764 C 272.112 67.499,271.035 64.547,271.956 64.010 C 273.001 63.402,317.360 63.659,318.527 64.281 M123.793 81.103 C 124.067 81.397,124.367 82.217,124.461 82.929 C 124.555 83.640,124.861 84.660,125.140 85.196 C 125.945 86.740,126.361 92.725,125.736 93.782 L 125.277 94.560 103.217 94.560 L 81.158 94.560 80.444 93.998 C 79.550 93.295,79.114 92.264,78.752 89.998 C 78.596 89.021,78.304 88.039,78.103 87.817 C 77.901 87.595,77.546 86.660,77.313 85.740 C 77.080 84.820,76.737 83.892,76.550 83.679 C 75.954 82.998,75.808 81.482,76.292 80.998 C 77.041 80.250,123.092 80.352,123.793 81.103 M228.807 81.416 C 229.322 81.972,229.544 82.613,229.793 84.266 C 229.970 85.439,230.268 86.749,230.455 87.176 C 231.514 89.590,231.450 93.375,230.335 94.228 C 229.793 94.642,186.249 94.706,185.478 94.293 C 184.821 93.941,184.301 92.874,184.128 91.520 C 184.051 90.917,183.744 89.918,183.445 89.301 C 183.146 88.684,182.776 87.499,182.622 86.668 C 182.469 85.837,182.106 84.837,181.816 84.445 C 181.052 83.412,180.866 81.373,181.494 80.914 C 181.893 80.622,185.923 80.574,205.059 80.631 L 228.143 80.699 228.807 81.416 M328.779 80.986 C 329.175 81.462,329.659 82.270,330.016 83.049 C 330.152 83.344,330.400 84.742,330.569 86.158 C 330.739 87.589,331.109 89.230,331.401 89.857 C 332.126 91.409,331.918 92.885,330.839 93.849 L 330.040 94.562 307.840 94.496 L 285.639 94.430 285.145 93.135 C 284.874 92.422,284.501 91.548,284.318 91.192 C 284.135 90.835,283.793 89.613,283.558 88.476 C 283.323 87.338,282.974 86.230,282.783 86.014 C 282.444 85.633,282.152 84.715,281.646 82.444 C 281.200 80.441,279.565 80.570,305.466 80.570 C 326.244 80.570,328.467 80.610,328.779 80.986 M125.812 100.194 C 126.610 101.371,126.180 110.719,125.286 111.613 C 124.644 112.255,81.894 112.424,80.924 111.789 C 79.594 110.918,80.169 100.026,81.564 99.656 C 81.801 99.593,91.745 99.528,103.662 99.512 L 125.329 99.482 125.812 100.194 M230.862 99.914 C 231.483 100.669,231.285 108.937,230.609 110.464 C 229.809 112.272,230.936 112.192,207.362 112.116 L 186.025 112.047 185.453 111.475 C 184.945 110.967,184.917 110.823,185.206 110.189 C 185.402 109.759,185.590 107.766,185.677 105.191 C 185.774 102.309,185.940 100.674,186.182 100.194 L 186.542 99.482 208.524 99.482 C 228.735 99.482,230.535 99.517,230.862 99.914 M331.096 99.745 C 332.196 100.334,332.275 105.771,331.226 108.679 C 331.020 109.249,330.843 110.006,330.832 110.363 C 330.777 112.177,332.527 112.047,308.177 112.047 C 282.839 112.047,285.152 112.319,285.405 109.362 C 285.486 108.416,285.714 107.304,285.911 106.890 C 286.144 106.402,286.269 105.211,286.269 103.493 C 286.269 101.208,286.343 100.754,286.806 100.164 L 287.343 99.482 308.974 99.482 C 323.140 99.482,330.774 99.573,331.096 99.745 M123.134 117.856 C 124.083 118.216,124.157 118.809,123.445 120.315 C 123.089 121.067,122.798 122.005,122.798 122.399 C 122.798 122.794,122.512 123.657,122.163 124.317 C 121.813 124.978,121.407 125.984,121.260 126.554 C 121.113 127.124,120.686 127.940,120.312 128.368 C 119.937 128.795,119.455 129.407,119.241 129.728 L 118.852 130.311 97.780 130.311 C 73.418 130.311,75.254 130.504,75.467 127.957 C 75.610 126.257,76.204 124.390,76.700 124.083 C 76.840 123.997,77.059 123.287,77.186 122.506 C 77.429 121.013,78.806 118.005,79.346 117.786 C 79.944 117.544,122.493 117.612,123.134 117.856 M228.204 118.100 C 228.753 118.649,228.234 122.009,227.395 123.334 C 227.176 123.680,226.811 124.619,226.584 125.419 C 226.357 126.220,226.001 127.016,225.793 127.189 C 225.585 127.361,225.283 127.904,225.121 128.395 C 224.460 130.397,225.504 130.311,201.873 130.311 C 185.508 130.311,180.839 130.240,180.519 129.987 C 179.830 129.442,179.686 127.827,180.274 127.239 C 180.549 126.964,180.908 126.116,181.071 125.355 C 181.234 124.594,181.607 123.567,181.899 123.072 C 182.191 122.577,182.541 121.479,182.678 120.632 C 182.975 118.782,183.269 118.180,184.020 117.877 C 185.313 117.356,227.674 117.570,228.204 118.100 M328.772 118.164 C 329.136 118.843,328.874 120.869,328.309 121.747 C 328.085 122.095,327.699 123.169,327.451 124.133 C 327.203 125.098,326.836 126.051,326.636 126.251 C 326.435 126.452,326.109 127.107,325.911 127.707 C 325.653 128.490,325.240 129.012,324.452 129.554 L 323.352 130.311 302.250 130.311 L 281.147 130.311 280.699 129.367 C 280.208 128.331,280.445 126.845,281.228 126.062 C 281.441 125.850,281.721 125.116,281.851 124.432 C 282.136 122.929,282.585 121.698,282.925 121.488 C 283.062 121.403,283.245 120.736,283.332 120.005 C 283.643 117.379,281.343 117.617,306.478 117.617 L 328.479 117.617 328.772 118.164 M116.030 135.395 C 116.744 135.895,116.716 138.580,115.963 141.839 C 115.733 142.837,115.544 144.693,115.544 145.964 C 115.544 149.619,118.460 149.223,91.549 149.223 C 69.445 149.223,68.401 149.202,68.160 148.752 C 67.809 148.096,68.191 145.694,68.848 144.430 C 69.144 143.860,69.465 142.869,69.562 142.228 C 69.659 141.587,69.957 140.682,70.224 140.218 C 70.492 139.754,70.884 138.709,71.097 137.895 C 71.473 136.455,72.024 135.753,73.187 135.237 C 74.243 134.768,115.351 134.920,116.030 135.395 M221.260 135.405 C 221.880 136.025,221.830 137.883,221.137 139.994 C 220.566 141.733,220.466 142.498,220.466 145.155 C 220.466 147.695,220.387 148.363,220.038 148.749 C 219.359 149.498,174.046 149.474,173.070 148.723 C 172.549 148.323,172.492 148.166,172.754 147.851 C 172.929 147.640,173.201 146.725,173.358 145.819 C 173.515 144.913,173.920 143.647,174.257 143.007 C 174.594 142.367,174.870 141.524,174.870 141.134 C 174.870 140.309,175.606 138.342,175.914 138.342 C 176.030 138.342,176.207 137.963,176.307 137.500 C 176.593 136.180,177.362 135.279,178.309 135.157 C 180.450 134.879,220.969 135.113,221.260 135.405 M320.984 135.313 C 321.989 135.655,322.379 137.188,321.758 138.349 C 321.597 138.649,321.353 140.840,321.214 143.217 C 320.907 148.497,320.897 148.543,320.072 148.919 C 318.783 149.506,274.033 149.338,273.299 148.743 L 272.706 148.263 273.236 147.245 C 273.528 146.685,273.960 145.380,274.195 144.345 C 274.430 143.310,274.853 142.033,275.135 141.508 C 275.417 140.982,275.648 140.290,275.648 139.970 C 275.648 139.219,276.412 137.306,276.712 137.306 C 276.839 137.306,276.943 137.153,276.943 136.967 C 276.943 136.781,277.251 136.256,277.628 135.801 L 278.313 134.974 299.196 134.989 C 314.662 135.000,320.313 135.084,320.984 135.313 M116.005 155.556 C 116.335 155.976,116.552 156.782,116.651 157.955 C 116.746 159.096,117.035 160.192,117.467 161.051 C 117.834 161.783,118.135 162.773,118.135 163.252 C 118.135 163.731,118.436 164.689,118.803 165.380 C 119.543 166.768,119.494 167.684,118.658 168.132 C 117.559 168.720,66.825 168.348,65.997 167.746 L 65.284 167.228 65.355 163.212 C 65.423 159.368,65.824 156.879,66.618 155.376 C 66.844 154.949,68.280 154.922,91.182 154.922 L 115.506 154.922 116.005 155.556 M220.546 155.385 C 221.240 156.152,221.763 157.685,222.019 159.698 C 222.152 160.747,222.516 162.094,222.828 162.693 C 223.140 163.292,223.482 164.207,223.588 164.728 C 223.694 165.248,223.858 166.023,223.953 166.451 C 224.388 168.412,226.559 168.264,197.278 168.264 L 171.198 168.264 170.671 167.617 C 170.173 167.004,170.153 166.744,170.314 162.824 C 170.577 156.413,170.662 155.859,171.466 155.360 C 172.569 154.676,219.926 154.700,220.546 155.385 M320.909 155.246 C 321.329 155.797,322.543 159.695,322.810 161.346 C 322.949 162.209,323.355 163.480,323.713 164.170 C 324.513 165.711,324.612 167.160,323.965 167.874 C 323.500 168.388,323.198 168.394,297.793 168.394 C 267.750 168.394,270.725 168.725,270.725 165.379 C 270.725 161.425,271.265 155.854,271.694 155.376 C 272.223 154.786,320.461 154.659,320.909 155.246 M123.053 174.927 C 123.644 175.670,124.193 176.601,124.272 176.995 C 124.351 177.390,124.671 177.977,124.983 178.299 C 125.295 178.622,125.750 179.318,125.995 179.847 C 126.239 180.375,126.549 180.875,126.683 180.958 C 126.818 181.041,127.158 181.629,127.439 182.265 C 127.720 182.900,128.055 183.420,128.183 183.420 C 129.233 183.420,129.500 186.207,128.497 186.712 C 127.416 187.257,74.329 187.189,72.779 186.641 C 71.702 186.259,69.689 183.867,69.689 182.967 C 69.689 182.828,69.385 182.267,69.014 181.719 C 68.642 181.172,68.170 180.081,67.966 179.294 C 67.761 178.508,67.407 177.659,67.179 177.407 C 66.950 177.154,66.709 176.380,66.643 175.686 C 66.422 173.394,63.998 173.575,94.854 173.575 L 121.977 173.575 123.053 174.927 M226.880 173.851 C 227.472 174.058,227.807 174.444,228.214 175.391 C 228.514 176.086,228.888 176.734,229.046 176.832 C 229.204 176.930,229.557 177.515,229.829 178.132 C 230.102 178.748,230.449 179.329,230.599 179.422 C 230.749 179.515,231.091 180.103,231.359 180.728 C 231.628 181.354,231.957 181.865,232.092 181.865 C 232.227 181.865,232.591 182.390,232.902 183.031 C 233.212 183.672,233.553 184.197,233.660 184.197 C 234.653 184.197,234.335 186.680,233.311 186.933 C 233.014 187.005,220.317 187.032,205.094 186.991 L 177.416 186.917 176.778 186.140 C 176.426 185.712,175.854 185.017,175.505 184.594 C 175.156 184.172,174.870 183.676,174.870 183.493 C 174.870 183.310,174.625 182.915,174.325 182.615 C 174.025 182.316,173.596 181.412,173.370 180.608 C 173.144 179.803,172.752 178.854,172.498 178.497 C 171.807 177.527,171.570 174.581,172.138 174.013 C 172.671 173.480,225.368 173.324,226.880 173.851 M327.628 174.155 C 328.122 174.494,328.645 175.181,328.884 175.807 C 329.109 176.397,329.516 177.081,329.787 177.327 C 330.059 177.573,330.352 178.096,330.439 178.489 C 330.525 178.883,330.852 179.479,331.166 179.815 C 331.479 180.150,331.969 180.844,332.254 181.356 C 333.239 183.125,333.811 184.008,334.391 184.657 C 335.124 185.477,335.120 185.629,334.338 186.411 L 333.702 187.047 305.942 187.047 L 278.182 187.047 276.915 185.773 C 276.218 185.072,275.648 184.313,275.648 184.086 C 275.648 183.859,275.416 183.475,275.132 183.232 C 274.848 182.989,274.425 182.203,274.192 181.486 C 273.959 180.768,273.597 179.985,273.388 179.746 C 273.179 179.506,272.800 178.399,272.545 177.285 C 272.290 176.171,272.004 175.074,271.910 174.847 C 271.721 174.393,272.128 173.959,272.927 173.763 C 273.212 173.693,285.446 173.622,300.114 173.605 L 326.781 173.575 327.628 174.155 M129.646 192.481 C 130.483 192.799,130.483 193.267,129.645 194.697 C 129.003 195.792,127.410 197.409,126.972 197.409 C 126.856 197.409,126.395 197.759,125.948 198.187 C 125.500 198.614,124.985 198.964,124.803 198.964 C 124.621 198.964,124.044 199.255,123.520 199.611 C 122.996 199.967,121.955 200.390,121.207 200.550 C 120.459 200.711,119.694 200.994,119.509 201.180 C 119.076 201.613,117.073 202.001,114.119 202.225 C 112.837 202.322,111.336 202.561,110.783 202.755 C 109.490 203.211,106.053 203.210,104.761 202.755 C 104.208 202.561,102.591 202.322,101.166 202.225 C 98.039 202.011,95.921 201.632,95.161 201.148 C 94.850 200.951,94.092 200.720,93.477 200.636 C 92.086 200.445,90.155 199.772,90.155 199.479 C 90.155 199.358,89.527 199.129,88.760 198.970 C 87.992 198.810,87.157 198.452,86.905 198.173 C 86.653 197.894,85.992 197.544,85.437 197.395 C 84.883 197.245,84.211 196.906,83.946 196.640 C 83.680 196.375,82.958 195.929,82.340 195.649 C 81.723 195.370,80.760 194.664,80.200 194.080 L 79.183 193.019 80.071 192.634 C 81.141 192.169,128.443 192.023,129.646 192.481 M235.142 192.803 C 235.559 193.220,235.560 193.278,235.151 193.730 C 234.911 193.995,234.715 194.350,234.715 194.519 C 234.715 194.917,232.364 197.409,231.988 197.409 C 231.829 197.409,231.452 197.694,231.149 198.042 C 230.847 198.390,230.126 198.817,229.548 198.990 C 228.970 199.163,228.497 199.409,228.497 199.536 C 228.497 199.833,226.866 200.518,226.158 200.518 C 225.860 200.518,224.971 200.823,224.183 201.196 C 223.036 201.739,222.122 201.922,219.600 202.118 C 217.806 202.257,216.155 202.523,215.763 202.736 C 214.834 203.240,210.245 203.247,209.283 202.745 C 208.901 202.546,207.335 202.306,205.785 202.210 C 203.135 202.045,200.451 201.510,199.866 201.030 C 199.720 200.911,198.825 200.678,197.877 200.513 C 196.842 200.333,195.812 199.962,195.305 199.588 C 194.840 199.245,194.148 198.964,193.768 198.964 C 193.388 198.964,192.682 198.698,192.199 198.372 C 191.716 198.047,190.769 197.572,190.093 197.316 C 189.418 197.060,188.798 196.741,188.716 196.608 C 188.633 196.475,188.137 196.136,187.612 195.855 C 185.159 194.540,183.903 192.748,185.190 192.400 C 186.702 191.990,234.717 192.378,235.142 192.803 M334.832 192.529 C 335.987 193.055,335.582 194.522,333.824 196.184 C 332.230 197.691,330.471 198.964,329.982 198.964 C 329.757 198.964,329.239 199.245,328.830 199.590 C 328.420 199.934,327.625 200.292,327.061 200.385 C 326.497 200.478,325.447 200.840,324.728 201.189 C 323.733 201.671,322.677 201.889,320.324 202.100 C 318.621 202.252,316.861 202.541,316.412 202.743 C 315.299 203.242,310.818 203.240,309.885 202.741 C 309.479 202.525,307.731 202.267,305.629 202.114 C 302.950 201.919,301.786 201.721,300.957 201.320 C 300.349 201.026,299.215 200.666,298.437 200.521 C 296.847 200.225,295.596 199.772,295.596 199.492 C 295.596 199.389,294.944 199.159,294.147 198.981 C 293.350 198.803,292.490 198.448,292.235 198.194 C 291.981 197.939,291.200 197.541,290.501 197.309 C 289.802 197.076,289.032 196.654,288.789 196.371 C 288.546 196.087,288.191 195.855,288.000 195.855 C 287.570 195.855,284.974 193.499,284.974 193.109 C 284.974 192.953,285.236 192.699,285.557 192.544 C 286.414 192.131,333.927 192.116,334.832 192.529 " stroke="none" fill="#ec2a31" fill-rule="evenodd"></path><path id="path1" d="M0.000 129.534 L 0.000 259.067 200.000 259.067 L 400.000 259.067 400.000 129.534 L 400.000 0.000 200.000 0.000 L 0.000 0.000 0.000 129.534 M85.104 44.304 C 89.163 44.772,94.756 45.740,95.113 46.036 C 95.313 46.202,96.290 46.536,97.285 46.779 C 98.279 47.022,99.443 47.427,99.870 47.680 C 100.298 47.932,101.172 48.277,101.813 48.445 C 102.455 48.613,103.212 48.959,103.497 49.214 C 103.782 49.469,104.482 49.822,105.052 50.000 C 105.622 50.178,106.321 50.528,106.606 50.779 C 106.891 51.030,107.416 51.323,107.772 51.430 C 108.128 51.537,108.803 51.958,109.271 52.367 C 109.739 52.775,110.325 53.109,110.573 53.109 C 110.821 53.109,111.325 53.429,111.693 53.821 C 112.492 54.672,114.585 56.218,114.939 56.218 C 115.077 56.218,115.544 56.597,115.978 57.060 C 116.412 57.523,117.162 58.227,117.645 58.626 C 118.128 59.024,118.640 59.447,118.782 59.565 C 118.925 59.684,119.237 59.999,119.477 60.266 C 119.716 60.533,120.066 60.902,120.254 61.085 C 120.442 61.269,120.946 61.831,121.373 62.334 C 121.801 62.837,122.471 63.579,122.863 63.982 C 123.255 64.386,123.575 64.833,123.575 64.976 C 123.575 65.119,123.983 65.724,124.482 66.321 C 124.981 66.918,125.389 67.572,125.389 67.773 C 125.389 67.975,125.621 68.339,125.904 68.581 C 126.188 68.824,126.602 69.572,126.825 70.243 C 127.048 70.914,127.393 71.597,127.591 71.762 C 127.789 71.926,128.151 72.664,128.395 73.401 C 128.639 74.138,129.053 75.032,129.314 75.389 C 129.576 75.745,129.914 76.711,130.065 77.537 C 130.217 78.362,130.581 79.443,130.873 79.939 C 131.194 80.483,131.494 81.636,131.628 82.843 C 131.750 83.944,132.152 85.914,132.522 87.221 L 133.193 89.598 133.097 99.786 C 133.007 109.392,132.969 110.082,132.430 111.859 C 132.117 112.896,131.750 114.799,131.617 116.089 C 131.479 117.419,131.152 118.900,130.860 119.514 C 130.577 120.109,130.221 121.289,130.068 122.137 C 129.916 122.985,129.558 124.126,129.273 124.673 C 128.987 125.221,128.634 126.217,128.487 126.889 C 128.340 127.560,127.994 128.421,127.717 128.804 C 127.439 129.186,127.104 129.984,126.970 130.577 C 126.837 131.170,126.494 131.907,126.207 132.214 C 125.920 132.521,125.602 133.122,125.499 133.549 C 125.396 133.977,125.022 134.886,124.668 135.570 C 124.315 136.254,123.876 137.537,123.694 138.420 C 123.512 139.303,123.154 140.551,122.897 141.192 C 121.861 143.787,122.113 152.421,123.331 156.024 C 123.608 156.844,123.835 157.893,123.837 158.356 C 123.838 158.818,124.138 159.838,124.503 160.622 C 124.868 161.405,125.276 162.621,125.409 163.324 C 125.543 164.026,125.834 164.802,126.056 165.048 C 126.279 165.294,126.615 166.007,126.803 166.632 C 126.991 167.257,127.449 168.217,127.821 168.765 C 128.193 169.313,128.497 169.963,128.497 170.208 C 128.497 170.454,128.730 170.951,129.013 171.311 C 129.297 171.672,129.759 172.504,130.040 173.160 C 130.321 173.816,130.660 174.352,130.792 174.352 C 130.924 174.352,131.228 174.844,131.469 175.444 C 131.709 176.044,132.188 176.818,132.533 177.163 C 132.878 177.508,133.161 177.936,133.161 178.112 C 133.161 178.289,133.345 178.587,133.569 178.773 C 133.794 178.960,134.252 179.652,134.585 180.311 C 134.919 180.970,135.369 181.656,135.585 181.835 C 135.801 182.014,136.054 182.531,136.148 182.984 C 136.241 183.437,136.628 184.265,137.006 184.822 C 138.090 186.420,138.073 194.414,136.982 196.063 C 136.590 196.655,136.269 197.271,136.269 197.433 C 136.269 198.095,132.329 202.472,131.218 203.045 C 130.790 203.265,130.295 203.652,130.116 203.904 C 129.938 204.157,129.455 204.437,129.042 204.528 C 128.630 204.618,128.086 204.920,127.834 205.199 C 127.582 205.477,126.808 205.873,126.114 206.079 C 125.421 206.285,124.535 206.680,124.146 206.957 C 123.755 207.236,122.748 207.541,121.888 207.642 C 121.035 207.741,119.718 208.099,118.963 208.437 C 115.829 209.838,99.787 209.834,96.025 208.431 C 95.148 208.104,93.623 207.752,92.636 207.649 C 91.483 207.529,90.592 207.276,90.138 206.941 C 89.751 206.655,88.872 206.315,88.186 206.187 C 87.500 206.059,86.526 205.675,86.021 205.333 C 85.516 204.991,84.722 204.633,84.255 204.536 C 83.789 204.439,83.089 204.094,82.701 203.768 C 82.313 203.442,81.613 203.093,81.147 202.991 C 80.680 202.889,79.981 202.540,79.592 202.216 C 79.204 201.891,78.634 201.547,78.327 201.450 C 78.019 201.354,77.378 200.932,76.902 200.512 C 76.426 200.093,75.935 199.747,75.811 199.745 C 75.229 199.734,69.222 194.230,67.617 192.237 C 67.260 191.794,66.727 191.160,66.432 190.828 C 66.136 190.495,65.693 189.800,65.448 189.283 C 65.203 188.766,64.716 188.034,64.366 187.657 C 64.017 187.280,63.731 186.777,63.731 186.541 C 63.731 186.305,63.439 185.716,63.083 185.233 C 62.727 184.750,62.435 184.161,62.435 183.924 C 62.435 183.686,62.144 183.064,61.789 182.540 C 61.434 182.016,60.975 180.784,60.770 179.801 C 60.566 178.819,60.211 177.729,59.982 177.380 C 58.556 175.204,58.536 153.397,59.958 151.227 C 60.180 150.888,60.533 149.470,60.742 148.076 C 60.951 146.681,61.248 145.389,61.401 145.205 C 61.758 144.775,62.138 143.507,62.440 141.739 C 62.571 140.971,62.850 140.154,63.059 139.923 C 63.268 139.692,63.618 138.642,63.838 137.590 C 64.057 136.537,64.422 135.471,64.649 135.220 C 64.877 134.969,65.239 134.082,65.455 133.250 C 65.671 132.417,66.013 131.551,66.215 131.325 C 66.417 131.100,66.768 130.284,66.995 129.512 C 67.222 128.740,67.561 127.934,67.749 127.720 C 67.936 127.506,68.266 126.650,68.482 125.818 C 68.699 124.985,69.066 124.093,69.299 123.836 C 69.532 123.578,69.895 122.631,70.105 121.732 C 70.314 120.833,70.655 119.910,70.861 119.682 C 71.067 119.455,71.422 118.284,71.649 117.082 C 71.877 115.880,72.229 114.711,72.433 114.484 C 73.781 112.986,73.876 94.745,72.544 93.141 C 72.208 92.736,71.841 91.566,71.490 89.785 C 71.352 89.082,71.077 88.325,70.878 88.101 C 70.679 87.877,70.331 87.063,70.104 86.291 C 69.877 85.519,69.519 84.698,69.309 84.465 C 69.098 84.232,68.762 83.579,68.563 83.013 C 68.363 82.447,67.893 81.533,67.519 80.982 C 67.145 80.430,66.839 79.759,66.839 79.489 C 66.839 79.220,66.664 78.932,66.451 78.850 C 66.237 78.768,65.841 78.201,65.570 77.589 C 65.299 76.977,64.884 76.261,64.646 75.998 C 63.933 75.205,63.017 73.774,62.446 72.560 C 62.150 71.930,61.677 71.253,61.394 71.056 C 61.112 70.858,60.881 70.486,60.881 70.230 C 60.881 69.974,60.600 69.462,60.258 69.092 C 59.915 68.722,59.500 68.013,59.336 67.516 C 59.172 67.019,58.793 66.302,58.494 65.922 C 56.996 64.017,56.841 53.886,58.310 53.886 C 58.433 53.886,58.800 53.424,59.124 52.859 C 59.449 52.294,59.975 51.693,60.294 51.522 C 60.612 51.352,60.940 50.998,61.024 50.736 C 61.107 50.474,61.289 50.259,61.428 50.259 C 61.568 50.259,61.989 49.952,62.365 49.576 C 62.740 49.200,63.551 48.670,64.166 48.398 C 64.782 48.126,65.285 47.795,65.285 47.664 C 65.285 47.532,66.101 47.176,67.098 46.873 C 68.096 46.570,68.912 46.225,68.912 46.106 C 68.912 45.518,79.951 43.730,82.124 43.966 C 82.623 44.020,83.964 44.172,85.104 44.304 M189.637 44.230 C 190.848 44.306,192.025 44.464,192.252 44.581 C 192.478 44.697,194.161 44.978,195.992 45.203 C 198.126 45.466,199.604 45.783,200.113 46.087 C 200.550 46.347,201.642 46.710,202.540 46.893 C 203.438 47.077,204.442 47.439,204.772 47.698 C 205.101 47.957,205.863 48.248,206.466 48.344 C 207.068 48.441,207.879 48.787,208.267 49.113 C 208.655 49.440,209.314 49.793,209.730 49.897 C 210.147 50.002,210.944 50.418,211.501 50.821 C 212.057 51.224,212.711 51.554,212.952 51.554 C 213.194 51.554,213.613 51.800,213.885 52.101 C 214.156 52.402,214.874 52.881,215.479 53.166 C 216.085 53.451,216.580 53.793,216.580 53.927 C 216.580 54.061,216.901 54.310,217.293 54.481 C 217.685 54.653,218.297 55.062,218.653 55.391 C 219.009 55.720,220.291 56.805,221.503 57.802 C 224.291 60.099,225.484 61.270,226.939 63.143 C 227.577 63.965,228.304 64.870,228.554 65.155 C 229.392 66.110,230.299 67.478,230.790 68.527 C 231.057 69.099,231.470 69.727,231.706 69.923 C 231.942 70.119,232.262 70.784,232.418 71.401 C 232.573 72.018,232.856 72.652,233.046 72.810 C 233.236 72.968,233.585 73.700,233.822 74.437 C 234.059 75.174,234.522 76.360,234.851 77.073 C 235.179 77.785,235.527 78.948,235.624 79.657 C 235.721 80.366,236.021 81.379,236.291 81.908 C 236.575 82.464,236.899 83.940,237.061 85.411 C 237.215 86.809,237.459 88.420,237.604 88.990 C 238.393 92.086,238.623 107.454,237.894 108.336 C 237.527 108.781,237.351 109.843,237.052 113.412 C 236.889 115.353,236.627 116.739,236.271 117.545 C 235.976 118.211,235.629 119.499,235.501 120.406 C 235.372 121.313,235.021 122.529,234.719 123.107 C 234.418 123.686,234.061 124.738,233.927 125.447 C 233.792 126.156,233.512 127.044,233.305 127.422 C 232.678 128.562,232.453 129.094,232.110 130.246 C 231.930 130.852,231.698 131.347,231.595 131.347 C 231.492 131.347,231.142 132.017,230.818 132.837 C 230.493 133.656,230.078 134.503,229.895 134.719 C 229.713 134.935,229.437 135.674,229.283 136.361 C 229.129 137.047,228.759 138.087,228.461 138.672 C 227.053 141.432,227.048 154.646,228.454 157.387 C 228.745 157.955,229.111 159.144,229.268 160.029 C 229.425 160.915,229.839 162.139,230.188 162.750 C 230.537 163.360,230.824 164.158,230.826 164.522 C 230.828 164.886,231.108 165.563,231.449 166.025 C 231.790 166.487,232.198 167.375,232.355 167.999 C 232.512 168.622,232.792 169.286,232.979 169.475 C 233.165 169.664,233.524 170.338,233.777 170.974 C 234.029 171.609,234.451 172.280,234.714 172.464 C 234.977 172.648,235.266 173.134,235.356 173.544 C 235.446 173.953,235.813 174.682,236.171 175.162 C 236.530 175.643,236.984 176.415,237.181 176.878 C 237.378 177.341,237.643 177.720,237.771 177.720 C 237.899 177.720,238.218 178.194,238.479 178.772 C 238.740 179.351,239.156 179.933,239.404 180.065 C 239.651 180.198,239.932 180.660,240.027 181.092 C 240.122 181.524,240.474 182.204,240.810 182.603 C 241.146 183.002,241.562 183.903,241.736 184.605 C 241.909 185.307,242.266 186.287,242.528 186.784 C 243.175 188.009,243.215 192.994,242.587 194.171 C 242.359 194.598,241.951 195.582,241.680 196.356 C 241.408 197.131,240.955 197.980,240.671 198.244 C 240.387 198.509,240.155 198.840,240.155 198.980 C 240.155 199.195,238.332 201.045,235.492 203.711 C 235.136 204.046,234.503 204.404,234.085 204.508 C 233.667 204.612,232.988 204.981,232.575 205.328 C 232.163 205.675,231.613 205.959,231.354 205.959 C 231.094 205.959,230.223 206.305,229.418 206.728 C 228.613 207.152,227.352 207.578,226.616 207.676 C 225.880 207.774,224.623 208.119,223.823 208.444 C 220.541 209.778,204.573 209.841,201.256 208.534 C 200.541 208.252,199.063 207.891,197.970 207.732 C 196.864 207.571,195.525 207.183,194.948 206.855 C 194.378 206.532,193.387 206.185,192.746 206.085 C 192.105 205.985,191.221 205.633,190.782 205.303 C 190.342 204.973,189.547 204.621,189.014 204.521 C 188.482 204.421,187.734 204.078,187.352 203.758 C 186.970 203.438,186.291 203.096,185.843 202.998 C 185.395 202.900,184.812 202.579,184.548 202.283 C 184.283 201.988,183.572 201.532,182.966 201.271 C 182.361 201.010,181.865 200.672,181.865 200.521 C 181.865 200.370,181.556 200.129,181.179 199.985 C 179.526 199.357,172.376 192.436,170.763 189.903 C 170.533 189.543,170.161 189.111,169.934 188.943 C 169.708 188.774,169.384 188.174,169.215 187.609 C 169.046 187.044,168.738 186.517,168.532 186.438 C 168.325 186.359,167.968 185.647,167.739 184.857 C 167.509 184.066,167.210 183.420,167.074 183.420 C 166.760 183.420,166.352 182.353,166.041 180.717 C 165.908 180.015,165.639 179.257,165.443 179.034 C 164.960 178.482,164.832 177.969,164.506 175.288 C 164.351 174.022,164.028 172.623,163.787 172.180 C 163.146 171.001,163.169 159.285,163.816 157.484 C 164.052 156.826,164.362 155.136,164.505 153.727 C 164.818 150.644,164.978 149.828,165.444 148.914 C 165.640 148.531,165.922 147.365,166.069 146.324 C 166.217 145.282,166.577 143.935,166.870 143.330 C 167.163 142.726,167.565 141.455,167.763 140.507 C 167.961 139.559,168.306 138.582,168.529 138.336 C 168.752 138.090,169.002 137.436,169.085 136.884 C 169.169 136.332,169.500 135.343,169.823 134.687 C 170.145 134.030,170.606 132.811,170.848 131.979 C 171.091 131.146,171.512 130.181,171.784 129.835 C 172.057 129.488,172.280 128.945,172.280 128.628 C 172.280 128.311,172.568 127.627,172.921 127.107 C 173.273 126.587,173.749 125.442,173.977 124.561 C 174.205 123.680,174.603 122.691,174.860 122.364 C 175.117 122.037,175.409 121.117,175.509 120.321 C 175.612 119.493,175.945 118.497,176.285 117.995 C 176.685 117.407,176.939 116.540,177.060 115.360 C 177.158 114.392,177.516 112.898,177.854 112.038 C 179.042 109.019,178.997 97.452,177.788 94.819 C 177.493 94.177,177.167 92.953,177.062 92.098 C 176.952 91.200,176.559 89.955,176.131 89.147 C 175.722 88.379,175.389 87.465,175.389 87.115 C 175.389 86.765,175.172 86.170,174.907 85.791 C 174.642 85.413,174.228 84.501,173.986 83.763 C 173.744 83.026,173.384 82.289,173.186 82.124 C 172.988 81.959,172.628 81.309,172.388 80.679 C 172.147 80.049,171.860 79.534,171.750 79.534 C 171.639 79.534,171.295 79.010,170.985 78.369 C 170.675 77.729,170.318 77.141,170.192 77.063 C 170.065 76.985,169.765 76.489,169.525 75.960 C 169.284 75.432,168.870 74.767,168.604 74.482 C 167.844 73.668,166.914 72.255,166.301 70.984 C 165.992 70.343,165.588 69.731,165.403 69.623 C 165.219 69.516,164.868 68.904,164.623 68.263 C 164.378 67.623,164.096 67.098,163.996 67.098 C 163.729 67.098,163.245 65.939,162.935 64.557 C 162.787 63.894,162.470 63.135,162.231 62.871 C 161.600 62.173,161.589 57.015,162.217 56.310 C 162.453 56.046,162.783 55.304,162.951 54.663 C 163.273 53.432,163.407 53.251,165.590 51.108 C 167.820 48.919,168.323 48.519,169.091 48.329 C 169.491 48.229,170.052 47.938,170.337 47.682 C 170.622 47.425,171.493 47.008,172.274 46.754 C 173.054 46.500,173.837 46.148,174.013 45.972 C 174.189 45.796,175.357 45.512,176.609 45.339 C 177.862 45.167,179.411 44.867,180.052 44.672 C 181.291 44.295,186.394 43.789,187.047 43.979 C 187.260 44.041,188.426 44.154,189.637 44.230 M292.936 44.610 C 293.112 44.755,294.669 45.030,296.396 45.220 C 298.408 45.441,299.692 45.705,299.967 45.954 C 300.203 46.168,301.321 46.534,302.451 46.768 C 303.581 47.001,304.782 47.410,305.121 47.676 C 305.459 47.942,306.261 48.239,306.902 48.335 C 307.543 48.431,308.388 48.779,308.779 49.109 C 309.171 49.438,309.833 49.788,310.251 49.887 C 310.668 49.986,311.302 50.335,311.658 50.663 C 312.014 50.990,312.655 51.343,313.083 51.445 C 313.510 51.548,314.229 51.935,314.681 52.306 C 316.182 53.538,317.794 54.663,318.057 54.663 C 318.200 54.663,318.713 55.016,319.197 55.446 C 319.682 55.877,320.458 56.547,320.923 56.936 C 322.894 58.582,328.227 63.993,328.611 64.736 C 328.841 65.181,329.142 65.544,329.280 65.544 C 329.418 65.544,329.772 66.057,330.067 66.685 C 330.362 67.312,330.829 68.030,331.105 68.279 C 331.381 68.529,331.606 68.931,331.606 69.173 C 331.606 69.415,331.878 69.907,332.211 70.266 C 332.544 70.625,332.972 71.487,333.163 72.182 C 333.354 72.877,333.782 73.806,334.113 74.247 C 334.444 74.688,334.715 75.341,334.715 75.698 C 334.715 76.055,335.006 76.896,335.362 77.565 C 335.718 78.235,336.140 79.622,336.298 80.648 C 336.457 81.674,336.794 82.921,337.047 83.420 C 337.371 84.055,337.598 85.488,337.810 88.212 C 337.975 90.350,338.247 92.448,338.413 92.876 C 338.906 94.142,338.970 102.373,338.505 104.534 C 338.290 105.531,337.978 108.154,337.811 110.363 C 337.616 112.942,337.330 114.888,337.011 115.803 C 336.738 116.587,336.398 118.039,336.256 119.031 C 336.113 120.022,335.708 121.443,335.356 122.188 C 335.003 122.933,334.715 123.880,334.715 124.292 C 334.715 124.705,334.424 125.615,334.068 126.316 C 333.713 127.017,333.247 128.187,333.035 128.917 C 332.822 129.646,332.475 130.387,332.263 130.562 C 332.052 130.738,331.803 131.286,331.710 131.780 C 331.618 132.275,331.269 133.003,330.936 133.399 C 330.603 133.795,330.203 134.686,330.048 135.380 C 329.892 136.074,329.527 137.028,329.235 137.500 C 328.916 138.015,328.608 139.157,328.464 140.358 C 328.333 141.458,327.995 143.283,327.713 144.415 C 327.143 146.710,327.057 148.819,327.489 149.918 C 327.789 150.682,328.066 152.328,328.491 155.868 C 328.655 157.235,328.975 158.414,329.398 159.210 C 329.758 159.886,330.052 160.813,330.052 161.269 C 330.052 161.726,330.338 162.636,330.687 163.293 C 331.036 163.950,331.455 164.983,331.618 165.589 C 331.782 166.196,332.137 166.973,332.408 167.317 C 332.678 167.662,333.028 168.424,333.184 169.011 C 333.340 169.597,333.661 170.293,333.897 170.557 C 334.340 171.051,334.971 172.184,336.120 174.547 C 336.483 175.295,336.891 175.907,337.026 175.907 C 337.161 175.907,337.349 176.169,337.444 176.490 C 337.539 176.810,337.955 177.503,338.368 178.029 C 338.781 178.555,339.119 179.114,339.119 179.271 C 339.119 179.429,339.412 179.850,339.769 180.207 C 340.127 180.565,340.599 181.287,340.818 181.811 C 341.037 182.336,341.423 183.000,341.675 183.287 C 341.927 183.574,342.280 184.561,342.461 185.481 C 342.641 186.401,342.963 187.669,343.177 188.298 C 343.881 190.371,342.834 195.792,341.355 197.731 C 340.980 198.222,340.674 198.741,340.674 198.885 C 340.674 199.111,339.644 200.378,338.821 201.166 C 338.672 201.308,338.223 201.745,337.824 202.137 C 337.424 202.529,337.014 202.850,336.912 202.850 C 336.810 202.850,336.323 203.204,335.829 203.638 C 335.335 204.071,334.597 204.492,334.189 204.574 C 333.780 204.656,333.245 204.945,332.999 205.217 C 332.753 205.489,331.939 205.890,331.190 206.107 C 330.442 206.325,329.549 206.724,329.206 206.993 C 328.863 207.263,327.951 207.564,327.180 207.663 C 326.408 207.761,325.042 208.115,324.142 208.449 C 320.388 209.843,304.971 209.835,301.218 208.436 C 300.334 208.107,298.912 207.752,298.058 207.648 C 297.203 207.545,296.037 207.193,295.467 206.867 C 294.897 206.540,293.885 206.197,293.218 206.103 C 292.551 206.009,291.699 205.691,291.324 205.396 C 290.949 205.101,290.171 204.754,289.595 204.625 C 289.019 204.495,288.169 204.101,287.708 203.749 C 287.246 203.397,286.679 203.109,286.448 203.109 C 286.217 203.109,285.645 202.775,285.177 202.367 C 284.709 201.958,284.035 201.535,283.679 201.425 C 283.323 201.315,282.648 200.891,282.180 200.483 C 281.712 200.075,281.232 199.741,281.114 199.741 C 280.996 199.741,280.505 199.393,280.022 198.968 C 279.540 198.543,279.051 198.193,278.936 198.191 C 278.821 198.188,277.446 196.875,275.881 195.272 C 272.273 191.576,272.217 191.513,271.522 190.350 C 271.203 189.815,270.848 189.378,270.734 189.378 C 270.619 189.378,270.318 188.941,270.065 188.407 C 269.813 187.872,269.459 187.319,269.281 187.176 C 269.102 187.034,268.765 186.343,268.533 185.641 C 268.300 184.940,267.949 184.240,267.751 184.087 C 267.554 183.934,267.196 183.109,266.956 182.254 C 266.716 181.399,266.373 180.525,266.194 180.311 C 265.865 179.918,265.451 178.296,265.137 176.166 C 265.042 175.525,264.804 174.687,264.608 174.304 C 263.668 172.466,263.517 159.072,264.400 155.868 C 264.851 154.231,265.164 152.576,265.532 149.883 C 265.686 148.749,265.982 147.564,266.188 147.249 C 266.394 146.934,266.689 145.879,266.843 144.906 C 266.996 143.932,267.356 142.683,267.641 142.130 C 267.927 141.578,268.273 140.532,268.411 139.805 C 268.549 139.078,268.888 138.049,269.165 137.517 C 269.442 136.986,269.858 135.817,270.090 134.921 C 270.321 134.024,270.676 133.106,270.878 132.880 C 271.080 132.654,271.432 131.838,271.659 131.066 C 271.885 130.295,272.223 129.488,272.409 129.275 C 272.595 129.061,272.933 128.255,273.160 127.483 C 273.387 126.711,273.742 125.893,273.948 125.665 C 274.154 125.437,274.450 124.684,274.605 123.991 C 274.761 123.298,275.161 122.251,275.496 121.664 C 275.830 121.076,276.174 120.042,276.260 119.364 C 276.345 118.687,276.666 117.642,276.971 117.043 C 277.277 116.443,277.677 114.884,277.859 113.579 C 278.041 112.274,278.393 110.814,278.641 110.335 C 279.437 108.796,279.513 100.504,278.758 97.668 C 278.435 96.457,278.031 94.579,277.859 93.494 C 277.687 92.409,277.309 91.127,277.017 90.644 C 276.726 90.162,276.407 89.301,276.308 88.731 C 276.208 88.161,275.859 87.228,275.530 86.658 C 275.202 86.088,274.848 85.214,274.744 84.715 C 274.641 84.216,274.218 83.293,273.806 82.663 C 273.394 82.033,273.057 81.308,273.057 81.053 C 273.057 80.797,272.851 80.478,272.598 80.343 C 272.346 80.208,271.929 79.513,271.673 78.800 C 271.416 78.086,271.048 77.442,270.855 77.368 C 270.662 77.293,270.269 76.701,269.982 76.052 C 269.694 75.402,269.358 74.870,269.234 74.870 C 269.109 74.870,268.801 74.437,268.549 73.908 C 268.296 73.378,267.876 72.795,267.614 72.612 C 267.353 72.429,267.066 71.944,266.976 71.534 C 266.886 71.124,266.468 70.403,266.048 69.933 C 265.629 69.462,265.285 68.870,265.285 68.615 C 265.285 68.361,265.068 68.037,264.803 67.895 C 264.535 67.751,264.178 67.089,263.996 66.396 C 263.817 65.714,263.421 64.806,263.117 64.378 C 262.255 63.165,262.278 55.921,263.148 54.816 C 263.468 54.409,263.731 53.973,263.731 53.847 C 263.731 53.344,266.207 50.603,267.265 49.935 C 267.886 49.543,268.394 49.115,268.394 48.983 C 268.394 48.852,268.790 48.614,269.274 48.454 C 269.758 48.295,270.418 47.935,270.741 47.654 C 271.065 47.374,271.912 46.972,272.625 46.760 C 273.337 46.549,274.105 46.217,274.331 46.023 C 274.733 45.678,277.797 45.078,279.156 45.078 C 279.534 45.078,280.211 44.907,280.660 44.697 C 282.058 44.046,292.169 43.974,292.936 44.610 M78.017 51.043 C 76.195 51.172,74.948 51.405,74.131 51.771 C 73.469 52.068,72.250 52.441,71.421 52.602 C 70.593 52.762,69.852 53.057,69.776 53.257 C 69.699 53.458,69.169 53.747,68.597 53.901 C 68.026 54.055,67.310 54.439,67.005 54.754 C 66.700 55.070,66.144 55.522,65.768 55.759 C 64.817 56.360,64.600 57.968,65.383 58.614 C 65.897 59.038,67.140 59.063,84.481 59.003 C 104.755 58.932,104.706 58.935,103.253 57.588 C 102.889 57.250,102.591 56.860,102.591 56.721 C 102.591 56.350,100.997 55.443,100.342 55.441 C 100.032 55.441,99.621 55.284,99.430 55.093 C 98.911 54.574,98.198 54.254,96.797 53.912 C 96.104 53.743,95.378 53.446,95.183 53.252 C 94.989 53.057,93.983 52.762,92.946 52.596 C 91.910 52.430,90.405 52.074,89.601 51.805 C 87.402 51.069,82.354 50.737,78.017 51.043 M182.831 51.058 C 180.696 51.203,179.453 51.417,178.686 51.774 C 178.084 52.053,176.919 52.429,176.098 52.608 C 175.277 52.787,174.474 53.091,174.315 53.284 C 174.155 53.476,173.516 53.858,172.893 54.134 C 172.271 54.409,171.762 54.749,171.762 54.890 C 171.762 55.031,171.525 55.221,171.237 55.313 C 169.773 55.777,169.332 58.167,170.611 58.702 C 171.647 59.135,207.472 59.148,208.355 58.716 C 209.274 58.266,207.618 56.415,205.607 55.644 C 204.914 55.379,204.182 54.996,203.979 54.793 C 203.599 54.413,202.022 53.890,201.249 53.887 C 201.010 53.887,200.640 53.712,200.427 53.498 C 199.859 52.930,198.958 52.644,197.110 52.444 C 196.206 52.346,194.988 52.053,194.404 51.792 C 192.772 51.063,187.601 50.735,182.831 51.058 M283.134 51.047 C 281.318 51.180,280.002 51.421,279.248 51.761 C 278.622 52.043,277.615 52.355,277.011 52.455 C 276.408 52.554,275.533 52.892,275.068 53.205 C 274.603 53.519,273.863 53.923,273.422 54.104 C 271.195 55.018,269.344 57.725,270.365 58.573 C 271.005 59.104,307.991 59.120,308.631 58.589 C 309.066 58.228,307.562 55.969,306.875 55.952 C 306.727 55.948,305.675 55.482,304.537 54.916 C 303.398 54.349,302.246 53.886,301.976 53.886 C 301.707 53.886,301.116 53.657,300.664 53.378 C 300.212 53.099,298.828 52.693,297.589 52.477 C 296.350 52.261,295.074 51.914,294.754 51.706 C 294.210 51.353,292.583 51.176,287.694 50.936 C 286.697 50.888,284.645 50.938,283.134 51.047 M67.034 64.010 C 66.389 64.386,66.410 66.397,67.066 67.024 C 67.332 67.278,67.757 67.895,68.008 68.394 C 68.260 68.892,68.741 69.579,69.077 69.919 C 69.414 70.259,69.689 70.748,69.689 71.005 C 69.689 71.263,69.899 71.626,70.156 71.812 C 70.412 71.998,70.771 72.518,70.954 72.967 C 71.136 73.416,71.577 74.057,71.933 74.392 L 72.581 75.000 96.582 75.000 L 120.583 75.000 120.826 74.310 C 121.028 73.736,120.953 73.483,120.379 72.801 C 119.999 72.350,119.689 71.833,119.689 71.652 C 119.689 71.472,119.444 71.102,119.144 70.831 C 118.845 70.560,118.424 69.988,118.209 69.560 C 117.994 69.132,117.605 68.549,117.344 68.264 C 116.187 67.000,113.957 64.847,113.253 64.313 L 112.483 63.731 89.985 63.738 C 75.186 63.744,67.332 63.837,67.034 64.010 M172.021 63.965 C 171.052 64.239,171.756 68.135,172.774 68.135 C 172.897 68.135,173.199 68.572,173.445 69.106 C 173.690 69.641,174.024 70.196,174.187 70.340 C 174.349 70.485,174.715 71.023,175.000 71.536 C 176.153 73.611,177.077 74.845,177.579 74.980 C 178.795 75.307,224.801 75.138,225.058 74.806 C 225.747 73.914,225.327 72.218,224.116 71.007 C 223.819 70.710,223.575 70.340,223.575 70.185 C 223.575 70.030,222.817 69.019,221.891 67.937 C 220.965 66.856,220.207 65.882,220.207 65.772 C 220.207 65.662,219.583 65.157,218.820 64.651 L 217.433 63.731 195.051 63.756 C 182.741 63.771,172.377 63.865,172.021 63.965 M271.956 64.010 C 271.035 64.547,272.112 67.499,273.690 68.764 C 273.880 68.916,274.174 69.478,274.343 70.011 C 274.512 70.544,274.801 71.069,274.984 71.177 C 275.168 71.285,275.515 71.758,275.756 72.229 C 275.996 72.699,276.420 73.341,276.698 73.654 C 276.975 73.967,277.377 74.427,277.591 74.676 C 277.956 75.102,279.429 75.130,301.677 75.130 L 325.375 75.130 325.743 74.417 C 326.067 73.790,326.060 73.610,325.685 72.915 C 324.786 71.247,324.198 70.352,323.510 69.607 C 323.119 69.183,322.798 68.685,322.798 68.502 C 322.798 68.319,322.558 68.093,322.264 68.000 C 321.970 67.907,321.592 67.520,321.424 67.141 C 320.989 66.163,319.735 64.924,318.527 64.281 C 317.360 63.659,273.001 63.402,271.956 64.010 M76.292 80.998 C 75.808 81.482,75.954 82.998,76.550 83.679 C 76.737 83.892,77.080 84.820,77.313 85.740 C 77.546 86.660,77.901 87.595,78.103 87.817 C 78.304 88.039,78.596 89.021,78.752 89.998 C 79.114 92.264,79.550 93.295,80.444 93.998 L 81.158 94.560 103.217 94.560 L 125.277 94.560 125.736 93.782 C 126.361 92.725,125.945 86.740,125.140 85.196 C 124.861 84.660,124.555 83.640,124.461 82.929 C 124.117 80.332,126.582 80.570,100.008 80.570 C 78.691 80.570,76.685 80.606,76.292 80.998 M181.494 80.914 C 180.866 81.373,181.052 83.412,181.816 84.445 C 182.106 84.837,182.469 85.837,182.622 86.668 C 182.776 87.499,183.146 88.684,183.445 89.301 C 183.744 89.918,184.051 90.917,184.128 91.520 C 184.301 92.874,184.821 93.941,185.478 94.293 C 186.249 94.706,229.793 94.642,230.335 94.228 C 231.450 93.375,231.514 89.590,230.455 87.176 C 230.268 86.749,229.970 85.439,229.793 84.266 C 229.544 82.613,229.322 81.972,228.807 81.416 L 228.143 80.699 205.059 80.631 C 185.923 80.574,181.893 80.622,181.494 80.914 M281.949 80.955 C 281.460 81.298,281.427 81.459,281.646 82.444 C 282.152 84.715,282.444 85.633,282.783 86.014 C 282.974 86.230,283.323 87.338,283.558 88.476 C 283.793 89.613,284.135 90.835,284.318 91.192 C 284.501 91.548,284.874 92.422,285.145 93.135 L 285.639 94.430 307.840 94.496 L 330.040 94.562 330.839 93.849 C 331.918 92.885,332.126 91.409,331.401 89.857 C 331.109 89.230,330.739 87.589,330.569 86.158 C 330.272 83.663,330.129 83.130,329.448 81.958 C 328.576 80.458,330.505 80.570,305.466 80.570 C 285.574 80.570,282.425 80.621,281.949 80.955 M81.564 99.656 C 80.169 100.026,79.594 110.918,80.924 111.789 C 81.894 112.424,124.644 112.255,125.286 111.613 C 126.180 110.719,126.610 101.371,125.812 100.194 L 125.329 99.482 103.662 99.512 C 91.745 99.528,81.801 99.593,81.564 99.656 M186.182 100.194 C 185.940 100.674,185.774 102.309,185.677 105.191 C 185.590 107.766,185.402 109.759,185.206 110.189 C 184.917 110.823,184.945 110.967,185.453 111.475 L 186.025 112.047 207.362 112.116 C 230.936 112.192,229.809 112.272,230.609 110.464 C 231.285 108.937,231.483 100.669,230.862 99.914 C 230.535 99.517,228.735 99.482,208.524 99.482 L 186.542 99.482 186.182 100.194 M286.806 100.164 C 286.343 100.754,286.269 101.208,286.269 103.493 C 286.269 105.211,286.144 106.402,285.911 106.890 C 285.714 107.304,285.486 108.416,285.405 109.362 C 285.152 112.319,282.839 112.047,308.177 112.047 C 332.527 112.047,330.777 112.177,330.832 110.363 C 330.843 110.006,331.020 109.249,331.226 108.679 C 332.275 105.771,332.196 100.334,331.096 99.745 C 330.774 99.573,323.140 99.482,308.974 99.482 L 287.343 99.482 286.806 100.164 M79.346 117.786 C 78.806 118.005,77.429 121.013,77.186 122.506 C 77.059 123.287,76.840 123.997,76.700 124.083 C 76.204 124.390,75.610 126.257,75.467 127.957 C 75.254 130.504,73.418 130.311,97.780 130.311 L 118.852 130.311 119.241 129.728 C 119.455 129.407,119.937 128.795,120.312 128.368 C 120.686 127.940,121.113 127.124,121.260 126.554 C 121.407 125.984,121.813 124.978,122.163 124.317 C 122.512 123.657,122.798 122.794,122.798 122.399 C 122.798 122.005,123.089 121.067,123.445 120.315 C 124.157 118.809,124.083 118.216,123.134 117.856 C 122.493 117.612,79.944 117.544,79.346 117.786 M184.020 117.877 C 183.269 118.180,182.975 118.782,182.678 120.632 C 182.541 121.479,182.191 122.577,181.899 123.072 C 181.607 123.567,181.234 124.594,181.071 125.355 C 180.908 126.116,180.549 126.964,180.274 127.239 C 179.686 127.827,179.830 129.442,180.519 129.987 C 180.839 130.240,185.508 130.311,201.873 130.311 C 225.504 130.311,224.460 130.397,225.121 128.395 C 225.283 127.904,225.585 127.361,225.793 127.189 C 226.001 127.016,226.357 126.220,226.584 125.419 C 226.811 124.619,227.176 123.680,227.395 123.334 C 228.234 122.009,228.753 118.649,228.204 118.100 C 227.674 117.570,185.313 117.356,184.020 117.877 M283.983 118.146 C 283.698 118.452,283.422 119.239,283.332 120.005 C 283.245 120.736,283.062 121.403,282.925 121.488 C 282.585 121.698,282.136 122.929,281.851 124.432 C 281.721 125.116,281.441 125.850,281.228 126.062 C 280.445 126.845,280.208 128.331,280.699 129.367 L 281.147 130.311 302.250 130.311 L 323.352 130.311 324.452 129.554 C 325.240 129.012,325.653 128.490,325.911 127.707 C 326.109 127.107,326.435 126.452,326.636 126.251 C 326.836 126.051,327.203 125.098,327.451 124.133 C 327.699 123.169,328.085 122.095,328.309 121.747 C 328.874 120.869,329.136 118.843,328.772 118.164 L 328.479 117.617 306.478 117.617 C 284.649 117.617,284.472 117.621,283.983 118.146 M73.187 135.237 C 72.024 135.753,71.473 136.455,71.097 137.895 C 70.884 138.709,70.492 139.754,70.224 140.218 C 69.957 140.682,69.659 141.587,69.562 142.228 C 69.465 142.869,69.144 143.860,68.848 144.430 C 68.191 145.694,67.809 148.096,68.160 148.752 C 68.401 149.202,69.445 149.223,91.549 149.223 C 118.460 149.223,115.544 149.619,115.544 145.964 C 115.544 144.693,115.733 142.837,115.963 141.839 C 116.716 138.580,116.744 135.895,116.030 135.395 C 115.351 134.920,74.243 134.768,73.187 135.237 M178.309 135.157 C 177.362 135.279,176.593 136.180,176.307 137.500 C 176.207 137.963,176.030 138.342,175.914 138.342 C 175.606 138.342,174.870 140.309,174.870 141.134 C 174.870 141.524,174.594 142.367,174.257 143.007 C 173.920 143.647,173.515 144.913,173.358 145.819 C 173.201 146.725,172.929 147.640,172.754 147.851 C 172.492 148.166,172.549 148.323,173.070 148.723 C 174.046 149.474,219.359 149.498,220.038 148.749 C 220.387 148.363,220.466 147.695,220.466 145.155 C 220.466 142.498,220.566 141.733,221.137 139.994 C 221.830 137.883,221.880 136.025,221.260 135.405 C 220.969 135.113,180.450 134.879,178.309 135.157 M277.628 135.801 C 277.251 136.256,276.943 136.781,276.943 136.967 C 276.943 137.153,276.839 137.306,276.712 137.306 C 276.412 137.306,275.648 139.219,275.648 139.970 C 275.648 140.290,275.417 140.982,275.135 141.508 C 274.853 142.033,274.430 143.310,274.195 144.345 C 273.960 145.380,273.528 146.685,273.236 147.245 L 272.706 148.263 273.299 148.743 C 274.033 149.338,318.783 149.506,320.072 148.919 C 320.897 148.543,320.907 148.497,321.214 143.217 C 321.353 140.840,321.597 138.649,321.758 138.349 C 321.918 138.049,322.014 137.313,321.970 136.713 C 321.842 134.941,322.689 135.005,299.196 134.989 L 278.313 134.974 277.628 135.801 M66.618 155.376 C 65.824 156.879,65.423 159.368,65.355 163.212 L 65.284 167.228 65.997 167.746 C 66.825 168.348,117.559 168.720,118.658 168.132 C 119.494 167.684,119.543 166.768,118.803 165.380 C 118.436 164.689,118.135 163.731,118.135 163.252 C 118.135 162.773,117.834 161.783,117.467 161.051 C 117.035 160.192,116.746 159.096,116.651 157.955 C 116.552 156.782,116.335 155.976,116.005 155.556 L 115.506 154.922 91.182 154.922 C 68.280 154.922,66.844 154.949,66.618 155.376 M171.466 155.360 C 170.662 155.859,170.577 156.413,170.314 162.824 C 170.153 166.744,170.173 167.004,170.671 167.617 L 171.198 168.264 197.278 168.264 C 226.559 168.264,224.388 168.412,223.953 166.451 C 223.858 166.023,223.694 165.248,223.588 164.728 C 223.482 164.207,223.140 163.292,222.828 162.693 C 222.516 162.094,222.152 160.747,222.019 159.698 C 221.763 157.685,221.240 156.152,220.546 155.385 C 219.926 154.700,172.569 154.676,171.466 155.360 M271.694 155.376 C 271.265 155.854,270.725 161.425,270.725 165.379 C 270.725 168.725,267.750 168.394,297.793 168.394 C 323.198 168.394,323.500 168.388,323.965 167.874 C 324.612 167.160,324.513 165.711,323.713 164.170 C 323.355 163.480,322.949 162.209,322.810 161.346 C 322.543 159.695,321.329 155.797,320.909 155.246 C 320.461 154.659,272.223 154.786,271.694 155.376 M67.127 173.999 C 66.411 174.500,66.443 176.594,67.179 177.407 C 67.407 177.659,67.761 178.508,67.966 179.294 C 68.170 180.081,68.642 181.172,69.014 181.719 C 69.385 182.267,69.689 182.828,69.689 182.967 C 69.689 183.867,71.702 186.259,72.779 186.641 C 74.329 187.189,127.416 187.257,128.497 186.712 C 129.500 186.207,129.233 183.420,128.183 183.420 C 128.055 183.420,127.720 182.900,127.439 182.265 C 127.158 181.629,126.818 181.041,126.683 180.958 C 126.549 180.875,126.239 180.375,125.995 179.847 C 125.750 179.318,125.295 178.622,124.983 178.299 C 124.671 177.977,124.351 177.390,124.272 176.995 C 124.193 176.601,123.644 175.670,123.053 174.927 L 121.977 173.575 94.854 173.575 C 70.158 173.575,67.678 173.613,67.127 173.999 M172.138 174.013 C 171.570 174.581,171.807 177.527,172.498 178.497 C 172.752 178.854,173.144 179.803,173.370 180.608 C 173.596 181.412,174.025 182.316,174.325 182.615 C 174.625 182.915,174.870 183.310,174.870 183.493 C 174.870 183.676,175.156 184.172,175.505 184.594 C 175.854 185.017,176.426 185.712,176.778 186.140 L 177.416 186.917 205.094 186.991 C 220.317 187.032,233.014 187.005,233.311 186.933 C 234.335 186.680,234.653 184.197,233.660 184.197 C 233.553 184.197,233.212 183.672,232.902 183.031 C 232.591 182.390,232.227 181.865,232.092 181.865 C 231.957 181.865,231.628 181.354,231.359 180.728 C 231.091 180.103,230.749 179.515,230.599 179.422 C 230.449 179.329,230.102 178.748,229.829 178.132 C 229.557 177.515,229.204 176.930,229.046 176.832 C 228.888 176.734,228.514 176.086,228.214 175.391 C 227.807 174.444,227.472 174.058,226.880 173.851 C 225.368 173.324,172.671 173.480,172.138 174.013 M272.927 173.763 C 272.128 173.959,271.721 174.393,271.910 174.847 C 272.004 175.074,272.290 176.171,272.545 177.285 C 272.800 178.399,273.179 179.506,273.388 179.746 C 273.597 179.985,273.959 180.768,274.192 181.486 C 274.425 182.203,274.848 182.989,275.132 183.232 C 275.416 183.475,275.648 183.859,275.648 184.086 C 275.648 184.313,276.218 185.072,276.915 185.773 L 278.182 187.047 305.942 187.047 L 333.702 187.047 334.338 186.411 C 335.120 185.629,335.124 185.477,334.391 184.657 C 333.811 184.008,333.239 183.125,332.254 181.356 C 331.969 180.844,331.479 180.150,331.166 179.815 C 330.852 179.479,330.525 178.883,330.439 178.489 C 330.352 178.096,330.059 177.573,329.787 177.327 C 329.516 177.081,329.109 176.397,328.884 175.807 C 328.645 175.181,328.122 174.494,327.628 174.155 L 326.781 173.575 300.114 173.605 C 285.446 173.622,273.212 173.693,272.927 173.763 M80.071 192.634 L 79.183 193.019 80.200 194.080 C 80.760 194.664,81.723 195.370,82.340 195.649 C 82.958 195.929,83.680 196.375,83.946 196.640 C 84.211 196.906,84.883 197.245,85.437 197.395 C 85.992 197.544,86.653 197.894,86.905 198.173 C 87.157 198.452,87.992 198.810,88.760 198.970 C 89.527 199.129,90.155 199.358,90.155 199.479 C 90.155 199.772,92.086 200.445,93.477 200.636 C 94.092 200.720,94.850 200.951,95.161 201.148 C 95.921 201.632,98.039 202.011,101.166 202.225 C 102.591 202.322,104.208 202.561,104.761 202.755 C 106.053 203.210,109.490 203.211,110.783 202.755 C 111.336 202.561,112.837 202.322,114.119 202.225 C 117.073 202.001,119.076 201.613,119.509 201.180 C 119.694 200.994,120.459 200.711,121.207 200.550 C 121.955 200.390,122.996 199.967,123.520 199.611 C 124.044 199.255,124.621 198.964,124.803 198.964 C 124.985 198.964,125.500 198.614,125.948 198.187 C 126.395 197.759,126.856 197.409,126.972 197.409 C 127.410 197.409,129.003 195.792,129.645 194.697 C 130.483 193.267,130.483 192.799,129.646 192.481 C 128.443 192.023,81.141 192.169,80.071 192.634 M185.190 192.400 C 183.903 192.748,185.159 194.540,187.612 195.855 C 188.137 196.136,188.633 196.475,188.716 196.608 C 188.798 196.741,189.418 197.060,190.093 197.316 C 190.769 197.572,191.716 198.047,192.199 198.372 C 192.682 198.698,193.388 198.964,193.768 198.964 C 194.148 198.964,194.840 199.245,195.305 199.588 C 195.812 199.962,196.842 200.333,197.877 200.513 C 198.825 200.678,199.720 200.911,199.866 201.030 C 200.451 201.510,203.135 202.045,205.785 202.210 C 207.335 202.306,208.901 202.546,209.283 202.745 C 210.245 203.247,214.834 203.240,215.763 202.736 C 216.155 202.523,217.806 202.257,219.600 202.118 C 222.122 201.922,223.036 201.739,224.183 201.196 C 224.971 200.823,225.860 200.518,226.158 200.518 C 226.866 200.518,228.497 199.833,228.497 199.536 C 228.497 199.409,228.970 199.163,229.548 198.990 C 230.126 198.817,230.847 198.390,231.149 198.042 C 231.452 197.694,231.829 197.409,231.988 197.409 C 232.364 197.409,234.715 194.917,234.715 194.519 C 234.715 194.350,234.911 193.995,235.151 193.730 C 235.560 193.278,235.559 193.220,235.142 192.803 C 234.717 192.378,186.702 191.990,185.190 192.400 M285.557 192.544 C 285.236 192.699,284.974 192.953,284.974 193.109 C 284.974 193.499,287.570 195.855,288.000 195.855 C 288.191 195.855,288.546 196.087,288.789 196.371 C 289.032 196.654,289.802 197.076,290.501 197.309 C 291.200 197.541,291.981 197.939,292.235 198.194 C 292.490 198.448,293.350 198.803,294.147 198.981 C 294.944 199.159,295.596 199.389,295.596 199.492 C 295.596 199.772,296.847 200.225,298.437 200.521 C 299.215 200.666,300.349 201.026,300.957 201.320 C 301.786 201.721,302.950 201.919,305.629 202.114 C 307.731 202.267,309.479 202.525,309.885 202.741 C 310.818 203.240,315.299 203.242,316.412 202.743 C 316.861 202.541,318.621 202.252,320.324 202.100 C 322.677 201.889,323.733 201.671,324.728 201.189 C 325.447 200.840,326.497 200.478,327.061 200.385 C 327.625 200.292,328.420 199.934,328.830 199.590 C 329.239 199.245,329.757 198.964,329.982 198.964 C 330.471 198.964,332.230 197.691,333.824 196.184 C 335.582 194.522,335.987 193.055,334.832 192.529 C 333.927 192.116,286.414 192.131,285.557 192.544 " stroke="none" fill="#ffffff" fill-rule="evenodd"></path></g></svg>