<svg id="svg" version="1.1" xmlns="http://www.w3.org/2000/svg" xmlns:xlink="http://www.w3.org/1999/xlink" width="400" height="258.91472868217056" viewBox="0, 0, 400,258.91472868217056"><g id="svgg"><path id="path0" d="M85.204 38.148 C 84.897 38.753,84.568 39.307,84.473 39.378 C 84.378 39.449,84.091 40.064,83.837 40.743 C 83.582 41.422,83.234 42.122,83.063 42.297 C 82.892 42.473,82.542 43.172,82.286 43.852 C 82.029 44.531,81.672 45.234,81.493 45.413 C 81.313 45.593,81.018 46.190,80.836 46.740 C 80.654 47.291,79.583 49.561,78.455 51.785 C 77.327 54.009,76.220 56.354,75.995 56.995 C 75.770 57.636,75.385 58.452,75.139 58.808 C 74.892 59.165,74.561 59.840,74.401 60.309 C 74.242 60.779,73.890 61.478,73.619 61.864 C 73.347 62.249,73.040 62.856,72.936 63.212 C 72.831 63.569,72.477 64.268,72.149 64.767 C 71.820 65.266,71.469 66.082,71.369 66.580 C 71.269 67.079,70.927 67.837,70.609 68.264 C 70.291 68.692,69.944 69.391,69.840 69.819 C 69.735 70.246,69.385 70.946,69.062 71.373 C 68.740 71.801,68.390 72.500,68.285 72.927 C 68.180 73.355,67.830 74.054,67.506 74.482 C 67.182 74.909,66.839 75.684,66.742 76.204 C 66.646 76.724,66.334 77.445,66.050 77.807 C 65.766 78.168,65.358 78.961,65.143 79.569 C 64.929 80.176,64.584 80.860,64.378 81.088 C 64.172 81.316,63.822 82.015,63.601 82.642 C 63.380 83.270,63.042 83.963,62.850 84.184 C 62.659 84.405,62.297 85.227,62.047 86.010 C 61.796 86.794,61.435 87.616,61.243 87.837 C 61.051 88.058,60.713 88.751,60.492 89.378 C 60.271 90.005,59.921 90.705,59.715 90.933 C 59.509 91.161,59.159 91.860,58.938 92.487 C 58.717 93.114,58.376 93.808,58.181 94.029 C 57.986 94.249,57.631 95.013,57.392 95.725 C 57.153 96.438,56.794 97.201,56.594 97.422 C 56.395 97.643,56.050 98.337,55.829 98.964 C 55.608 99.591,55.258 100.290,55.052 100.518 C 54.846 100.746,54.501 101.430,54.287 102.037 C 54.073 102.645,53.665 103.438,53.380 103.800 C 53.096 104.161,52.786 104.882,52.691 105.402 C 52.596 105.922,52.298 106.663,52.027 107.048 C 51.757 107.434,51.404 108.133,51.244 108.603 C 51.083 109.072,50.679 109.862,50.346 110.358 C 50.013 110.854,49.740 111.437,49.740 111.653 C 49.739 111.870,49.390 112.571,48.964 113.212 C 48.537 113.854,48.188 114.624,48.188 114.925 C 48.187 115.226,47.909 115.880,47.571 116.379 C 47.232 116.879,46.817 117.704,46.649 118.213 C 46.481 118.722,46.134 119.408,45.878 119.738 C 45.622 120.067,45.272 120.767,45.101 121.292 C 44.929 121.818,44.582 122.517,44.330 122.847 C 44.077 123.176,43.669 124.028,43.423 124.741 C 42.309 127.962,42.342 127.686,42.936 128.846 C 43.239 129.438,43.561 130.293,43.651 130.746 C 43.742 131.200,43.977 131.704,44.174 131.868 C 44.371 132.031,44.735 132.710,44.983 133.375 C 45.231 134.041,45.638 134.855,45.889 135.185 C 46.139 135.514,46.481 136.200,46.649 136.709 C 46.817 137.219,47.232 138.044,47.571 138.543 C 47.909 139.042,48.187 139.697,48.188 139.997 C 48.188 140.298,48.537 141.069,48.964 141.710 C 49.390 142.351,49.739 143.053,49.740 143.269 C 49.740 143.485,50.013 144.068,50.346 144.564 C 50.679 145.060,51.083 145.851,51.244 146.320 C 51.405 146.790,51.773 147.476,52.063 147.845 C 52.353 148.214,52.591 148.711,52.591 148.950 C 52.591 149.189,53.585 151.359,54.801 153.773 C 56.016 156.186,57.194 158.685,57.418 159.326 C 57.643 159.968,57.979 160.667,58.166 160.881 C 58.353 161.095,58.708 161.794,58.956 162.435 C 59.204 163.076,59.554 163.776,59.733 163.990 C 59.913 164.203,60.263 164.903,60.511 165.544 C 60.758 166.185,61.119 166.894,61.311 167.120 C 61.503 167.346,61.846 168.162,62.072 168.934 C 62.299 169.705,62.693 170.570,62.950 170.855 C 63.206 171.140,63.496 171.755,63.595 172.221 C 63.694 172.688,64.041 173.387,64.367 173.776 C 64.692 174.164,65.042 174.864,65.144 175.330 C 65.246 175.797,65.592 176.496,65.915 176.884 C 66.237 177.273,66.579 177.997,66.675 178.493 C 66.772 178.990,67.120 179.806,67.449 180.307 C 67.777 180.808,68.179 181.602,68.340 182.071 C 68.502 182.540,68.853 183.240,69.122 183.625 C 69.390 184.011,69.740 184.710,69.899 185.180 C 70.058 185.649,70.411 186.349,70.684 186.734 C 70.956 187.120,71.266 187.843,71.373 188.342 C 71.480 188.841,71.790 189.564,72.062 189.950 C 72.335 190.335,72.688 191.035,72.847 191.504 C 73.006 191.973,73.336 192.649,73.581 193.005 C 74.223 193.940,76.166 198.089,76.166 198.525 C 76.166 198.728,76.379 199.172,76.639 199.512 C 76.899 199.852,77.317 200.654,77.568 201.295 C 77.818 201.937,78.172 202.636,78.354 202.850 C 78.536 203.063,78.894 203.796,79.148 204.477 C 79.402 205.159,79.712 205.779,79.835 205.855 C 80.145 206.047,80.829 207.732,80.829 208.303 C 80.829 208.561,80.989 208.931,81.184 209.126 C 81.666 209.608,82.383 211.027,82.383 211.497 C 82.383 211.708,82.543 212.040,82.738 212.235 C 83.220 212.717,83.938 214.135,83.938 214.606 C 83.938 214.817,84.087 215.143,84.270 215.331 C 84.453 215.520,84.926 216.230,85.321 216.910 C 85.716 217.591,86.130 218.091,86.241 218.023 C 86.451 217.893,87.928 214.927,88.733 213.018 C 88.989 212.413,89.287 211.917,89.397 211.917 C 89.507 211.917,89.672 211.571,89.765 211.149 C 89.858 210.726,90.203 209.984,90.531 209.500 C 90.860 209.016,91.266 208.203,91.434 207.694 C 91.602 207.185,91.951 206.499,92.209 206.169 C 92.467 205.840,92.764 205.162,92.868 204.663 C 92.972 204.165,93.395 203.222,93.809 202.568 C 94.222 201.914,94.560 201.215,94.561 201.014 C 94.561 200.812,94.911 200.123,95.337 199.482 C 95.763 198.841,96.112 198.139,96.113 197.923 C 96.113 197.707,96.395 197.116,96.739 196.610 C 97.083 196.104,97.488 195.229,97.640 194.665 C 97.792 194.101,98.210 193.241,98.570 192.754 C 98.929 192.267,99.223 191.681,99.223 191.451 C 99.223 191.222,99.553 190.513,99.957 189.876 C 100.361 189.239,100.776 188.380,100.880 187.967 C 100.984 187.555,101.294 186.930,101.570 186.580 C 101.845 186.229,102.198 185.470,102.353 184.893 C 102.509 184.316,102.917 183.430,103.261 182.924 C 103.605 182.418,103.887 181.827,103.887 181.611 C 103.888 181.395,104.237 180.693,104.663 180.052 C 105.089 179.411,105.439 178.725,105.439 178.529 C 105.440 178.333,105.778 177.575,106.190 176.845 C 106.603 176.115,107.018 175.147,107.114 174.694 C 107.209 174.241,107.448 173.736,107.646 173.573 C 107.843 173.409,108.207 172.731,108.454 172.065 C 108.702 171.399,109.110 170.585,109.360 170.256 C 109.610 169.926,109.953 169.240,110.121 168.731 C 110.289 168.222,110.703 167.397,111.042 166.898 C 111.381 166.398,111.658 165.818,111.658 165.608 C 111.658 165.398,112.199 164.161,112.861 162.859 C 114.361 159.907,114.903 158.798,115.727 156.995 C 116.084 156.211,117.404 153.472,118.659 150.907 C 119.913 148.342,121.076 145.806,121.241 145.272 C 121.407 144.738,121.636 144.301,121.750 144.301 C 121.864 144.301,122.219 143.601,122.539 142.746 C 122.859 141.891,123.207 141.192,123.312 141.192 C 123.418 141.192,123.712 140.638,123.966 139.961 C 124.220 139.284,124.702 138.207,125.038 137.567 C 125.373 136.927,125.648 136.238,125.648 136.037 C 125.648 135.835,125.933 135.297,126.282 134.840 C 126.630 134.383,126.995 133.672,127.093 133.261 C 127.190 132.849,127.540 132.150,127.870 131.706 C 128.200 131.263,128.551 130.563,128.651 130.152 C 128.751 129.741,129.054 129.087,129.324 128.700 C 129.834 127.971,129.639 126.162,129.009 125.773 C 128.870 125.687,128.756 125.414,128.756 125.165 C 128.756 124.916,128.407 124.161,127.979 123.487 C 127.552 122.813,127.202 122.114,127.202 121.933 C 127.202 121.752,126.865 121.073,126.453 120.423 C 126.042 119.774,125.621 118.848,125.518 118.365 C 125.415 117.882,125.178 117.312,124.992 117.098 C 124.805 116.885,124.401 116.070,124.093 115.287 C 123.785 114.505,123.436 113.805,123.316 113.731 C 123.196 113.657,122.853 112.974,122.554 112.214 C 122.254 111.454,121.856 110.679,121.670 110.493 C 121.483 110.306,121.125 109.501,120.874 108.703 C 120.623 107.906,120.322 107.254,120.204 107.254 C 120.086 107.254,119.788 106.642,119.542 105.894 C 119.296 105.146,118.885 104.264,118.629 103.935 C 118.374 103.605,118.023 102.906,117.849 102.380 C 117.676 101.855,117.327 101.133,117.073 100.777 C 116.818 100.421,116.415 99.517,116.177 98.769 C 115.939 98.021,115.656 97.409,115.549 97.409 C 115.443 97.409,115.149 96.856,114.896 96.179 C 114.644 95.502,114.288 94.773,114.105 94.560 C 113.923 94.346,113.570 93.646,113.321 93.005 C 113.071 92.364,112.669 91.548,112.426 91.192 C 112.184 90.835,111.902 90.253,111.801 89.896 C 111.609 89.219,110.296 86.347,109.669 85.233 C 109.469 84.877,109.121 84.177,108.895 83.679 C 108.670 83.180,108.320 82.481,108.118 82.124 C 107.916 81.768,107.568 81.069,107.345 80.570 C 107.123 80.071,106.603 78.952,106.190 78.083 C 105.778 77.213,105.440 76.395,105.440 76.264 C 105.440 76.134,105.168 75.621,104.835 75.125 C 104.502 74.629,104.098 73.839,103.938 73.369 C 103.777 72.900,103.425 72.201,103.154 71.815 C 102.884 71.429,102.514 70.648,102.332 70.078 C 102.150 69.508,101.799 68.750,101.552 68.394 C 101.306 68.038,101.018 67.455,100.912 67.098 C 100.806 66.742,100.396 65.868,100.000 65.155 C 99.604 64.443,99.198 63.586,99.096 63.250 C 98.995 62.915,98.632 62.229,98.290 61.725 C 97.948 61.221,97.668 60.658,97.668 60.473 C 97.668 60.039,97.271 59.139,96.647 58.161 C 96.375 57.733,96.143 57.221,96.133 57.023 C 96.123 56.825,95.764 56.095,95.337 55.400 C 94.909 54.706,94.560 54.006,94.560 53.846 C 94.560 53.686,94.210 52.986,93.782 52.292 C 93.355 51.597,93.005 50.881,93.005 50.702 C 93.005 50.522,91.971 48.320,90.708 45.808 C 89.444 43.296,88.329 40.916,88.229 40.520 C 88.130 40.123,87.848 39.500,87.603 39.135 C 87.358 38.770,86.996 38.151,86.799 37.759 C 86.297 36.761,85.852 36.870,85.204 38.148 M197.381 37.370 C 196.784 37.869,195.648 39.670,195.301 40.664 C 195.130 41.155,194.718 41.957,194.386 42.447 C 194.054 42.936,193.781 43.466,193.779 43.624 C 193.777 43.782,193.428 44.599,193.002 45.438 C 192.576 46.277,192.226 47.094,192.223 47.252 C 192.221 47.410,191.871 48.052,191.446 48.679 C 191.021 49.306,190.671 50.005,190.669 50.233 C 190.666 50.461,190.317 51.161,189.892 51.788 C 189.467 52.415,189.119 53.100,189.119 53.310 C 189.119 53.521,188.078 55.806,186.806 58.388 C 185.534 60.970,184.415 63.399,184.320 63.785 C 184.224 64.171,183.989 64.617,183.797 64.776 C 183.605 64.935,183.260 65.631,183.031 66.321 C 182.802 67.012,182.452 67.711,182.254 67.876 C 182.056 68.040,181.706 68.740,181.477 69.430 C 181.247 70.121,180.898 70.820,180.699 70.984 C 180.501 71.149,180.143 71.886,179.903 72.624 C 179.663 73.361,179.302 74.154,179.099 74.386 C 178.897 74.619,178.619 75.217,178.481 75.716 C 178.344 76.215,177.941 77.050,177.587 77.571 C 177.233 78.093,176.943 78.638,176.943 78.781 C 176.943 79.150,176.166 80.607,175.744 81.029 C 175.548 81.224,175.389 81.587,175.389 81.834 C 175.389 82.081,174.981 83.093,174.483 84.082 C 173.984 85.071,173.576 86.011,173.576 86.170 C 173.575 86.329,173.339 86.758,173.051 87.124 C 172.763 87.491,172.358 88.272,172.150 88.860 C 171.943 89.449,171.545 90.219,171.267 90.573 C 170.989 90.927,170.683 91.589,170.588 92.046 C 170.493 92.502,170.150 93.342,169.826 93.912 C 169.502 94.482,169.149 95.240,169.041 95.596 C 168.932 95.952,168.622 96.559,168.350 96.945 C 168.079 97.330,167.725 98.030,167.563 98.499 C 167.401 98.968,167.006 99.760,166.685 100.259 C 166.364 100.758,165.975 101.648,165.821 102.237 C 165.666 102.826,165.373 103.447,165.168 103.617 C 164.963 103.787,164.608 104.491,164.378 105.181 C 164.149 105.872,163.799 106.571,163.601 106.736 C 163.403 106.900,163.053 107.600,162.824 108.290 C 162.594 108.981,162.239 109.685,162.033 109.856 C 161.828 110.026,161.497 110.705,161.298 111.365 C 161.100 112.025,160.634 113.089,160.264 113.731 C 159.894 114.372,159.590 115.037,159.589 115.209 C 159.587 115.380,159.291 115.955,158.931 116.485 C 158.571 117.015,158.204 117.749,158.115 118.116 C 158.025 118.482,157.736 119.061,157.473 119.401 C 157.209 119.741,156.820 120.606,156.607 121.322 C 156.394 122.039,156.061 122.810,155.866 123.035 C 155.671 123.261,155.305 123.998,155.053 124.672 C 154.802 125.347,154.436 126.032,154.241 126.194 C 153.733 126.616,153.803 127.851,154.399 128.964 C 155.197 130.455,156.736 133.836,156.736 134.099 C 156.736 134.229,157.008 134.742,157.341 135.238 C 157.674 135.734,158.078 136.524,158.239 136.993 C 158.399 137.463,158.752 138.162,159.022 138.548 C 159.292 138.933,159.661 139.715,159.841 140.285 C 160.022 140.855,160.315 141.496,160.494 141.710 C 160.673 141.924,160.907 142.390,161.014 142.746 C 161.209 143.396,162.683 146.456,163.384 147.668 C 163.590 148.025,163.938 148.724,164.157 149.223 C 165.303 151.835,166.514 154.388,167.046 155.311 C 167.210 155.596,167.516 156.237,167.725 156.736 C 167.935 157.234,168.277 157.934,168.486 158.290 C 169.257 159.604,170.725 162.875,170.725 163.277 C 170.725 163.504,170.995 164.020,171.324 164.423 C 171.653 164.826,172.060 165.632,172.228 166.214 C 172.397 166.797,172.769 167.485,173.055 167.744 C 173.341 168.003,173.575 168.389,173.575 168.601 C 173.575 168.813,173.983 169.835,174.482 170.872 C 174.981 171.909,175.389 172.878,175.389 173.025 C 175.389 173.173,175.683 173.727,176.043 174.257 C 176.403 174.787,176.768 175.521,176.855 175.888 C 176.942 176.254,177.159 176.729,177.339 176.943 C 177.765 177.450,179.650 181.464,180.037 182.687 C 180.202 183.209,180.500 183.772,180.699 183.937 C 180.897 184.102,181.247 184.802,181.477 185.492 C 181.706 186.183,182.056 186.882,182.254 187.047 C 182.452 187.211,182.802 187.911,183.031 188.601 C 183.260 189.292,183.605 189.987,183.797 190.146 C 183.989 190.305,184.224 190.752,184.319 191.138 C 184.462 191.716,186.197 195.399,187.029 196.891 C 187.561 197.844,189.097 201.245,189.345 202.020 C 189.496 202.490,189.856 203.176,190.146 203.545 C 190.436 203.913,190.674 204.415,190.674 204.659 C 190.674 204.903,191.021 205.616,191.446 206.243 C 191.871 206.870,192.221 207.549,192.223 207.751 C 192.226 207.953,192.578 208.738,193.005 209.496 C 193.433 210.253,193.782 211.033,193.782 211.229 C 193.782 211.425,194.048 211.981,194.374 212.464 C 194.699 212.947,195.165 213.867,195.409 214.508 C 195.653 215.149,196.304 216.196,196.855 216.834 L 197.858 217.995 198.574 216.575 C 198.968 215.794,199.379 215.097,199.488 215.026 C 199.596 214.955,199.867 214.280,200.090 213.527 C 200.313 212.774,200.734 211.824,201.025 211.415 C 201.316 211.006,201.554 210.527,201.554 210.351 C 201.554 210.175,201.904 209.463,202.332 208.768 C 202.759 208.074,203.109 207.374,203.109 207.214 C 203.109 207.054,203.445 206.377,203.855 205.709 C 204.266 205.042,204.689 204.098,204.796 203.611 C 204.903 203.124,205.251 202.374,205.570 201.946 C 205.889 201.517,206.229 200.829,206.327 200.418 C 206.425 200.007,206.774 199.307,207.104 198.864 C 207.434 198.420,207.784 197.720,207.881 197.309 C 207.979 196.898,208.344 196.187,208.693 195.730 C 209.041 195.273,209.326 194.723,209.326 194.507 C 209.326 194.291,209.676 193.459,210.104 192.658 C 210.531 191.857,210.881 191.054,210.882 190.873 C 210.883 190.692,211.232 190.019,211.658 189.378 C 212.084 188.737,212.434 188.025,212.434 187.795 C 212.435 187.566,212.727 186.949,213.083 186.424 C 213.439 185.899,213.731 185.351,213.731 185.206 C 213.731 185.062,214.183 183.988,214.736 182.821 C 215.288 181.654,215.821 180.437,215.919 180.117 C 216.017 179.796,216.190 179.534,216.304 179.534 C 216.417 179.534,216.719 178.980,216.974 178.303 C 217.229 177.626,217.653 176.795,217.916 176.455 C 218.179 176.115,218.394 175.729,218.394 175.597 C 218.394 175.287,220.085 171.671,222.036 167.809 C 222.883 166.133,223.575 164.606,223.575 164.416 C 223.575 164.225,223.801 163.808,224.077 163.490 C 224.354 163.171,224.658 162.554,224.753 162.119 C 224.849 161.683,225.264 160.796,225.676 160.147 C 226.088 159.497,226.425 158.818,226.425 158.637 C 226.425 158.456,226.775 157.757,227.202 157.083 C 227.630 156.409,227.977 155.734,227.975 155.584 C 227.973 155.434,228.260 154.728,228.612 154.016 C 228.964 153.303,229.488 152.196,229.775 151.554 C 230.063 150.913,230.412 150.214,230.552 150.000 C 230.692 149.786,231.041 149.087,231.329 148.446 C 231.617 147.804,231.961 147.105,232.094 146.891 C 232.584 146.104,234.197 142.509,234.197 142.204 C 234.197 142.030,234.482 141.514,234.831 141.057 C 235.179 140.600,235.544 139.890,235.642 139.478 C 235.740 139.067,236.089 138.368,236.419 137.924 C 236.749 137.480,237.097 136.781,237.193 136.370 C 237.289 135.958,237.632 135.155,237.955 134.585 C 238.279 134.016,238.692 133.054,238.873 132.448 C 239.053 131.843,239.281 131.347,239.378 131.347 C 239.587 131.347,240.057 130.355,240.588 128.794 C 241.066 127.389,240.710 125.613,239.599 123.862 C 239.193 123.221,238.860 122.533,238.860 122.334 C 238.860 122.134,238.613 121.624,238.311 121.200 C 238.009 120.776,237.598 119.885,237.398 119.221 C 237.198 118.556,236.746 117.576,236.393 117.043 C 236.040 116.510,235.751 115.919,235.751 115.730 C 235.751 115.541,235.402 114.835,234.974 114.161 C 234.547 113.487,234.197 112.808,234.197 112.652 C 234.197 112.496,233.859 111.772,233.447 111.042 C 233.035 110.312,232.619 109.344,232.524 108.891 C 232.428 108.438,232.189 107.933,231.992 107.770 C 231.795 107.606,231.431 106.928,231.183 106.262 C 230.935 105.596,230.527 104.782,230.277 104.453 C 230.027 104.123,229.681 103.424,229.509 102.898 C 229.336 102.373,228.936 101.532,228.620 101.029 C 228.304 100.527,227.957 99.712,227.849 99.219 C 227.740 98.725,227.392 97.970,227.074 97.541 C 226.756 97.113,226.368 96.378,226.211 95.908 C 226.054 95.439,225.704 94.739,225.434 94.354 C 225.164 93.968,224.801 93.217,224.628 92.685 C 224.456 92.153,224.215 91.656,224.094 91.581 C 223.973 91.506,223.675 90.834,223.432 90.088 C 223.189 89.341,222.840 88.556,222.657 88.342 C 222.473 88.128,222.121 87.429,221.873 86.788 C 221.625 86.146,221.275 85.447,221.094 85.233 C 220.914 85.019,220.514 84.204,220.206 83.420 C 219.898 82.637,219.549 81.879,219.430 81.736 C 219.311 81.593,218.962 80.834,218.654 80.051 C 218.346 79.268,217.946 78.452,217.766 78.238 C 217.585 78.025,217.235 77.325,216.987 76.684 C 216.740 76.043,216.386 75.343,216.201 75.130 C 216.016 74.916,215.781 74.449,215.678 74.093 C 215.468 73.365,213.844 69.768,213.455 69.171 C 213.316 68.957,213.029 68.374,212.818 67.876 C 212.606 67.377,212.259 66.648,212.046 66.256 C 210.887 64.127,209.326 60.802,209.326 60.464 C 209.326 60.305,209.049 59.767,208.710 59.268 C 208.372 58.769,207.957 57.944,207.789 57.435 C 207.621 56.926,207.274 56.239,207.018 55.910 C 206.762 55.580,206.403 54.845,206.220 54.275 C 206.038 53.705,205.613 52.762,205.276 52.179 C 204.939 51.597,204.663 50.956,204.662 50.754 C 204.661 50.553,204.312 49.864,203.886 49.223 C 203.460 48.582,203.110 47.882,203.109 47.668 C 203.108 47.455,202.758 46.755,202.332 46.114 C 201.905 45.473,201.556 44.760,201.556 44.531 C 201.555 44.302,201.281 43.711,200.947 43.218 C 200.612 42.726,200.256 41.992,200.155 41.589 C 199.998 40.962,197.988 37.047,197.824 37.047 C 197.793 37.047,197.593 37.192,197.381 37.370 M309.121 37.643 C 308.986 37.814,308.737 38.383,308.568 38.909 C 308.399 39.434,308.045 40.138,307.782 40.472 C 307.519 40.807,307.176 41.557,307.019 42.139 C 306.862 42.720,306.508 43.483,306.233 43.834 C 305.957 44.184,305.651 44.811,305.552 45.228 C 305.453 45.644,305.102 46.347,304.773 46.791 C 304.443 47.235,304.093 47.934,303.995 48.345 C 303.898 48.757,303.548 49.456,303.218 49.900 C 302.888 50.343,302.537 51.043,302.438 51.454 C 302.252 52.226,301.946 52.880,299.304 58.161 C 298.448 59.870,297.670 61.587,297.575 61.975 C 297.480 62.363,297.113 63.108,296.758 63.630 C 296.404 64.153,296.112 64.768,296.109 64.997 C 296.107 65.227,295.757 65.928,295.332 66.555 C 294.907 67.182,294.560 67.888,294.560 68.123 C 294.560 68.359,294.266 68.951,293.906 69.438 C 293.547 69.925,293.128 70.793,292.975 71.366 C 292.823 71.940,292.537 72.590,292.340 72.811 C 292.144 73.032,291.807 73.710,291.593 74.318 C 291.378 74.925,290.985 75.736,290.719 76.118 C 290.452 76.501,290.105 77.198,289.945 77.667 C 289.786 78.136,289.431 78.837,289.155 79.224 C 288.880 79.611,288.523 80.417,288.362 81.015 C 288.201 81.613,287.970 82.164,287.849 82.239 C 287.728 82.313,287.362 83.047,287.037 83.869 C 286.712 84.690,286.299 85.538,286.120 85.751 C 285.941 85.965,285.592 86.665,285.344 87.306 C 285.096 87.947,284.738 88.655,284.547 88.878 C 284.357 89.102,283.965 89.970,283.677 90.808 C 283.389 91.646,283.061 92.396,282.949 92.474 C 282.837 92.552,282.537 93.172,282.282 93.852 C 282.027 94.531,281.679 95.231,281.508 95.406 C 281.338 95.582,280.988 96.281,280.731 96.961 C 280.474 97.640,280.118 98.342,279.939 98.521 C 279.761 98.700,279.406 99.485,279.152 100.265 C 278.898 101.045,278.540 101.859,278.356 102.073 C 278.173 102.286,277.820 102.986,277.572 103.627 C 277.324 104.268,276.975 104.968,276.795 105.181 C 276.615 105.395,276.263 106.095,276.013 106.736 C 275.763 107.377,275.348 108.176,275.091 108.511 C 274.835 108.846,274.549 109.545,274.457 110.065 C 274.364 110.585,274.017 111.373,273.686 111.817 C 273.355 112.261,273.002 112.960,272.900 113.371 C 272.799 113.783,272.452 114.469,272.129 114.896 C 271.807 115.324,271.457 116.023,271.352 116.451 C 271.247 116.878,270.904 117.578,270.590 118.005 C 270.275 118.433,269.945 119.171,269.856 119.646 C 269.766 120.121,269.455 120.845,269.164 121.254 C 268.872 121.663,268.502 122.382,268.340 122.851 C 268.179 123.321,267.755 124.149,267.398 124.692 C 266.226 126.476,266.331 128.371,267.737 130.829 C 268.464 132.100,269.948 135.373,269.948 135.706 C 269.948 135.892,270.231 136.416,270.576 136.870 C 270.921 137.323,271.289 138.044,271.394 138.472 C 271.499 138.899,271.849 139.598,272.171 140.026 C 272.494 140.453,272.843 141.153,272.947 141.580 C 273.051 142.008,273.351 142.635,273.614 142.974 C 273.877 143.313,274.216 144.071,274.367 144.658 C 274.519 145.245,274.850 146.017,275.102 146.373 C 275.354 146.729,275.770 147.573,276.026 148.248 C 276.283 148.922,276.652 149.607,276.847 149.769 C 277.042 149.931,277.202 150.173,277.202 150.306 C 277.202 150.440,277.654 151.504,278.207 152.671 C 278.760 153.838,279.300 155.079,279.407 155.428 C 279.514 155.778,279.751 156.213,279.933 156.395 C 280.115 156.577,280.473 157.282,280.728 157.962 C 280.983 158.641,281.270 159.255,281.367 159.326 C 281.641 159.528,283.938 164.480,283.938 164.869 C 283.938 165.059,284.173 165.515,284.462 165.881 C 284.750 166.247,285.161 167.044,285.375 167.652 C 285.589 168.259,285.934 168.943,286.140 169.171 C 286.346 169.399,286.678 170.048,286.878 170.613 C 287.077 171.179,287.488 172.104,287.791 172.669 C 288.094 173.235,288.342 173.874,288.343 174.089 C 288.344 174.305,288.693 175.006,289.119 175.648 C 289.545 176.289,289.895 176.955,289.895 177.128 C 289.896 177.301,290.246 177.995,290.674 178.669 C 291.101 179.343,291.451 180.049,291.451 180.238 C 291.451 180.427,291.734 181.016,292.079 181.547 C 292.425 182.078,292.830 182.982,292.980 183.556 C 293.130 184.130,293.547 184.998,293.906 185.485 C 294.266 185.972,294.560 186.563,294.560 186.799 C 294.560 187.035,294.907 187.741,295.332 188.368 C 295.757 188.995,296.107 189.696,296.109 189.925 C 296.112 190.154,296.400 190.764,296.750 191.280 C 297.100 191.795,297.509 192.671,297.658 193.225 C 297.807 193.779,298.146 194.510,298.411 194.850 C 298.676 195.189,298.980 195.758,299.087 196.114 C 299.193 196.470,299.604 197.345,300.000 198.057 C 300.396 198.769,300.802 199.627,300.904 199.962 C 301.005 200.297,301.354 200.964,301.679 201.443 C 302.005 201.922,302.352 202.746,302.451 203.273 C 302.549 203.800,302.898 204.591,303.224 205.030 C 303.551 205.470,303.898 206.166,303.995 206.577 C 304.093 206.988,304.458 207.699,304.807 208.156 C 305.155 208.613,305.440 209.157,305.440 209.365 C 305.440 209.573,305.770 210.263,306.173 210.898 C 306.576 211.533,306.985 212.452,307.083 212.940 C 307.180 213.427,307.440 214.025,307.660 214.268 C 307.879 214.511,308.274 215.276,308.536 215.969 C 309.271 217.911,310.951 217.578,311.675 215.346 C 311.848 214.814,312.206 214.069,312.471 213.691 C 312.736 213.312,312.953 212.924,312.953 212.828 C 312.953 212.608,314.358 209.580,316.321 205.570 C 318.246 201.637,319.578 198.741,319.806 197.992 C 319.903 197.672,320.078 197.409,320.193 197.409 C 320.309 197.409,320.665 196.710,320.984 195.855 C 321.304 195.000,321.660 194.301,321.775 194.301 C 321.890 194.301,322.234 193.632,322.540 192.814 C 322.846 191.996,323.195 191.208,323.316 191.062 C 323.437 190.916,323.783 190.139,324.084 189.334 C 324.385 188.529,324.794 187.736,324.993 187.570 C 325.192 187.405,325.434 186.899,325.530 186.446 C 325.626 185.993,325.977 185.259,326.310 184.815 C 326.643 184.372,326.995 183.672,327.092 183.261 C 327.189 182.849,327.536 181.988,327.864 181.347 C 328.192 180.706,328.699 179.657,328.991 179.016 C 329.282 178.374,329.637 177.675,329.780 177.461 C 329.923 177.247,330.211 176.665,330.420 176.166 C 330.629 175.667,330.972 174.968,331.180 174.611 C 331.839 173.488,333.420 170.052,333.420 169.744 C 333.420 169.581,333.769 168.897,334.197 168.223 C 334.624 167.548,334.974 166.849,334.974 166.668 C 334.974 166.487,335.324 165.788,335.751 165.114 C 336.179 164.440,336.528 163.728,336.528 163.532 C 336.528 163.225,337.142 161.918,338.503 159.326 C 338.690 158.970,339.034 158.271,339.267 157.772 C 339.500 157.273,339.849 156.574,340.044 156.218 C 340.804 154.826,342.637 150.810,342.881 150.000 C 342.989 149.644,343.287 149.083,343.544 148.753 C 343.801 148.424,344.149 147.738,344.317 147.228 C 344.486 146.719,344.900 145.894,345.239 145.395 C 345.578 144.896,345.855 144.372,345.855 144.231 C 345.855 143.976,347.137 141.120,347.801 139.896 C 348.158 139.240,348.651 138.223,349.185 137.047 C 349.346 136.690,349.582 136.224,349.709 136.010 C 350.093 135.366,351.732 131.799,352.091 130.829 C 352.275 130.330,352.638 129.644,352.897 129.304 C 353.630 128.342,353.510 126.669,352.591 125.040 C 352.163 124.282,351.813 123.484,351.813 123.265 C 351.813 123.047,351.599 122.590,351.336 122.250 C 351.073 121.910,350.671 121.075,350.443 120.395 C 350.214 119.714,349.788 118.853,349.495 118.481 C 349.203 118.110,348.964 117.606,348.964 117.362 C 348.964 117.117,348.616 116.404,348.191 115.777 C 347.766 115.150,347.417 114.477,347.414 114.282 C 347.411 114.086,347.073 113.270,346.661 112.468 C 346.249 111.666,345.726 110.602,345.497 110.104 C 345.268 109.605,344.969 109.022,344.832 108.808 C 344.695 108.595,344.347 107.895,344.059 107.254 C 343.772 106.613,343.427 105.913,343.294 105.699 C 342.764 104.848,341.192 101.305,341.192 100.962 C 341.192 100.761,340.844 100.083,340.419 99.456 C 339.994 98.829,339.645 98.128,339.642 97.899 C 339.639 97.669,339.340 97.044,338.977 96.509 C 338.614 95.974,338.100 94.996,337.835 94.336 C 336.841 91.860,336.113 90.265,335.685 89.626 C 335.442 89.263,335.105 88.569,334.935 88.083 C 334.766 87.597,334.356 86.799,334.023 86.310 C 333.691 85.820,333.419 85.290,333.419 85.132 C 333.419 84.974,333.084 84.203,332.674 83.420 C 332.265 82.636,331.842 81.703,331.734 81.347 C 331.626 80.991,331.316 80.384,331.045 79.999 C 330.773 79.613,330.421 78.913,330.262 78.444 C 330.103 77.975,329.747 77.267,329.471 76.871 C 329.195 76.475,328.853 75.727,328.709 75.208 C 328.566 74.690,328.187 73.848,327.867 73.337 C 327.547 72.827,327.202 72.073,327.100 71.661 C 326.999 71.250,326.645 70.551,326.316 70.107 C 325.986 69.663,325.633 68.951,325.532 68.523 C 325.431 68.096,325.192 67.571,325.000 67.358 C 324.809 67.144,324.410 66.353,324.114 65.600 C 323.818 64.848,323.415 63.973,323.218 63.657 C 323.021 63.341,322.656 62.529,322.405 61.852 C 322.155 61.176,321.864 60.622,321.758 60.622 C 321.652 60.622,321.304 59.922,320.984 59.067 C 320.665 58.212,320.317 57.513,320.211 57.513 C 320.105 57.513,319.819 56.959,319.575 56.282 C 319.331 55.606,318.791 54.365,318.374 53.526 C 317.958 52.686,317.617 51.856,317.617 51.679 C 317.617 51.503,317.448 51.219,317.242 51.048 C 317.035 50.876,316.666 50.192,316.421 49.526 C 316.175 48.861,315.813 48.125,315.616 47.892 C 315.419 47.658,315.020 46.842,314.730 46.078 C 314.440 45.314,314.074 44.533,313.916 44.342 C 313.758 44.152,313.422 43.406,313.168 42.686 C 312.914 41.965,312.549 41.188,312.356 40.960 C 312.163 40.731,311.809 40.011,311.569 39.360 C 311.085 38.047,309.617 37.017,309.121 37.643 " stroke="none" fill="#ec1c2c" fill-rule="evenodd"></path><path id="path1" d="M0.000 129.534 L 0.000 259.067 200.000 259.067 L 400.000 259.067 400.000 129.534 L 400.000 0.000 200.000 0.000 L 0.000 0.000 0.000 129.534 M86.799 37.759 C 86.996 38.151,87.358 38.770,87.603 39.135 C 87.848 39.500,88.130 40.123,88.229 40.520 C 88.329 40.916,89.444 43.296,90.708 45.808 C 91.971 48.320,93.005 50.522,93.005 50.702 C 93.005 50.881,93.355 51.597,93.782 52.292 C 94.210 52.986,94.560 53.686,94.560 53.846 C 94.560 54.006,94.909 54.706,95.337 55.400 C 95.764 56.095,96.123 56.825,96.133 57.023 C 96.143 57.221,96.375 57.733,96.647 58.161 C 97.271 59.139,97.668 60.039,97.668 60.473 C 97.668 60.658,97.948 61.221,98.290 61.725 C 98.632 62.229,98.995 62.915,99.096 63.250 C 99.198 63.586,99.604 64.443,100.000 65.155 C 100.396 65.868,100.806 66.742,100.912 67.098 C 101.018 67.455,101.306 68.038,101.552 68.394 C 101.799 68.750,102.150 69.508,102.332 70.078 C 102.514 70.648,102.884 71.429,103.154 71.815 C 103.425 72.201,103.777 72.900,103.938 73.369 C 104.098 73.839,104.502 74.629,104.835 75.125 C 105.168 75.621,105.440 76.134,105.440 76.264 C 105.440 76.395,105.778 77.213,106.190 78.083 C 106.603 78.952,107.123 80.071,107.345 80.570 C 107.568 81.069,107.916 81.768,108.118 82.124 C 108.320 82.481,108.670 83.180,108.895 83.679 C 109.121 84.177,109.469 84.877,109.669 85.233 C 110.296 86.347,111.609 89.219,111.801 89.896 C 111.902 90.253,112.184 90.835,112.426 91.192 C 112.669 91.548,113.071 92.364,113.321 93.005 C 113.570 93.646,113.923 94.346,114.105 94.560 C 114.288 94.773,114.644 95.502,114.896 96.179 C 115.149 96.856,115.443 97.409,115.549 97.409 C 115.656 97.409,115.939 98.021,116.177 98.769 C 116.415 99.517,116.818 100.421,117.073 100.777 C 117.327 101.133,117.676 101.855,117.849 102.380 C 118.023 102.906,118.374 103.605,118.629 103.935 C 118.885 104.264,119.296 105.146,119.542 105.894 C 119.788 106.642,120.086 107.254,120.204 107.254 C 120.322 107.254,120.623 107.906,120.874 108.703 C 121.125 109.501,121.483 110.306,121.670 110.493 C 121.856 110.679,122.254 111.454,122.554 112.214 C 122.853 112.974,123.196 113.657,123.316 113.731 C 123.436 113.805,123.785 114.505,124.093 115.287 C 124.401 116.070,124.805 116.885,124.992 117.098 C 125.178 117.312,125.415 117.882,125.518 118.365 C 125.621 118.848,126.042 119.774,126.453 120.423 C 126.865 121.073,127.202 121.752,127.202 121.933 C 127.202 122.114,127.552 122.813,127.979 123.487 C 128.407 124.161,128.756 124.916,128.756 125.165 C 128.756 125.414,128.870 125.687,129.009 125.773 C 129.639 126.162,129.834 127.971,129.324 128.700 C 129.054 129.087,128.751 129.741,128.651 130.152 C 128.551 130.563,128.200 131.263,127.870 131.706 C 127.540 132.150,127.190 132.849,127.093 133.261 C 126.995 133.672,126.630 134.383,126.282 134.840 C 125.933 135.297,125.648 135.835,125.648 136.037 C 125.648 136.238,125.373 136.927,125.038 137.567 C 124.702 138.207,124.220 139.284,123.966 139.961 C 123.712 140.638,123.418 141.192,123.312 141.192 C 123.207 141.192,122.859 141.891,122.539 142.746 C 122.219 143.601,121.864 144.301,121.750 144.301 C 121.636 144.301,121.407 144.738,121.241 145.272 C 121.076 145.806,119.913 148.342,118.659 150.907 C 117.404 153.472,116.084 156.211,115.727 156.995 C 114.903 158.798,114.361 159.907,112.861 162.859 C 112.199 164.161,111.658 165.398,111.658 165.608 C 111.658 165.818,111.381 166.398,111.042 166.898 C 110.703 167.397,110.289 168.222,110.121 168.731 C 109.953 169.240,109.610 169.926,109.360 170.256 C 109.110 170.585,108.702 171.399,108.454 172.065 C 108.207 172.731,107.843 173.409,107.646 173.573 C 107.448 173.736,107.209 174.241,107.114 174.694 C 107.018 175.147,106.603 176.115,106.190 176.845 C 105.778 177.575,105.440 178.333,105.439 178.529 C 105.439 178.725,105.089 179.411,104.663 180.052 C 104.237 180.693,103.888 181.395,103.887 181.611 C 103.887 181.827,103.605 182.418,103.261 182.924 C 102.917 183.430,102.509 184.316,102.353 184.893 C 102.198 185.470,101.845 186.229,101.570 186.580 C 101.294 186.930,100.984 187.555,100.880 187.967 C 100.776 188.380,100.361 189.239,99.957 189.876 C 99.553 190.513,99.223 191.222,99.223 191.451 C 99.223 191.681,98.929 192.267,98.570 192.754 C 98.210 193.241,97.792 194.101,97.640 194.665 C 97.488 195.229,97.083 196.104,96.739 196.610 C 96.395 197.116,96.113 197.707,96.113 197.923 C 96.112 198.139,95.763 198.841,95.337 199.482 C 94.911 200.123,94.561 200.812,94.561 201.014 C 94.560 201.215,94.222 201.914,93.809 202.568 C 93.395 203.222,92.972 204.165,92.868 204.663 C 92.764 205.162,92.467 205.840,92.209 206.169 C 91.951 206.499,91.602 207.185,91.434 207.694 C 91.266 208.203,90.860 209.016,90.531 209.500 C 90.203 209.984,89.858 210.726,89.765 211.149 C 89.672 211.571,89.507 211.917,89.397 211.917 C 89.287 211.917,88.989 212.413,88.733 213.018 C 87.928 214.927,86.451 217.893,86.241 218.023 C 86.130 218.091,85.716 217.591,85.321 216.910 C 84.926 216.230,84.453 215.520,84.270 215.331 C 84.087 215.143,83.938 214.817,83.938 214.606 C 83.938 214.135,83.220 212.717,82.738 212.235 C 82.543 212.040,82.383 211.708,82.383 211.497 C 82.383 211.027,81.666 209.608,81.184 209.126 C 80.989 208.931,80.829 208.561,80.829 208.303 C 80.829 207.732,80.145 206.047,79.835 205.855 C 79.712 205.779,79.402 205.159,79.148 204.477 C 78.894 203.796,78.536 203.063,78.354 202.850 C 78.172 202.636,77.818 201.937,77.568 201.295 C 77.317 200.654,76.899 199.852,76.639 199.512 C 76.379 199.172,76.166 198.728,76.166 198.525 C 76.166 198.089,74.223 193.940,73.581 193.005 C 73.336 192.649,73.006 191.973,72.847 191.504 C 72.688 191.035,72.335 190.335,72.062 189.950 C 71.790 189.564,71.480 188.841,71.373 188.342 C 71.266 187.843,70.956 187.120,70.684 186.734 C 70.411 186.349,70.058 185.649,69.899 185.180 C 69.740 184.710,69.390 184.011,69.122 183.625 C 68.853 183.240,68.502 182.540,68.340 182.071 C 68.179 181.602,67.777 180.808,67.449 180.307 C 67.120 179.806,66.772 178.990,66.675 178.493 C 66.579 177.997,66.237 177.273,65.915 176.884 C 65.592 176.496,65.246 175.797,65.144 175.330 C 65.042 174.864,64.692 174.164,64.367 173.776 C 64.041 173.387,63.694 172.688,63.595 172.221 C 63.496 171.755,63.206 171.140,62.950 170.855 C 62.693 170.570,62.299 169.705,62.072 168.934 C 61.846 168.162,61.503 167.346,61.311 167.120 C 61.119 166.894,60.758 166.185,60.511 165.544 C 60.263 164.903,59.913 164.203,59.733 163.990 C 59.554 163.776,59.204 163.076,58.956 162.435 C 58.708 161.794,58.353 161.095,58.166 160.881 C 57.979 160.667,57.643 159.968,57.418 159.326 C 57.194 158.685,56.016 156.186,54.801 153.773 C 53.585 151.359,52.591 149.189,52.591 148.950 C 52.591 148.711,52.353 148.214,52.063 147.845 C 51.773 147.476,51.405 146.790,51.244 146.320 C 51.083 145.851,50.679 145.060,50.346 144.564 C 50.013 144.068,49.740 143.485,49.740 143.269 C 49.739 143.053,49.390 142.351,48.964 141.710 C 48.537 141.069,48.188 140.298,48.188 139.997 C 48.187 139.697,47.909 139.042,47.571 138.543 C 47.232 138.044,46.817 137.219,46.649 136.709 C 46.481 136.200,46.139 135.514,45.889 135.185 C 45.638 134.855,45.231 134.041,44.983 133.375 C 44.735 132.710,44.371 132.031,44.174 131.868 C 43.977 131.704,43.742 131.200,43.651 130.746 C 43.561 130.293,43.239 129.438,42.936 128.846 C 42.342 127.686,42.309 127.962,43.423 124.741 C 43.669 124.028,44.077 123.176,44.330 122.847 C 44.582 122.517,44.929 121.818,45.101 121.292 C 45.272 120.767,45.622 120.067,45.878 119.738 C 46.134 119.408,46.481 118.722,46.649 118.213 C 46.817 117.704,47.232 116.879,47.571 116.379 C 47.909 115.880,48.187 115.226,48.188 114.925 C 48.188 114.624,48.537 113.854,48.964 113.212 C 49.390 112.571,49.739 111.870,49.740 111.653 C 49.740 111.437,50.013 110.854,50.346 110.358 C 50.679 109.862,51.083 109.072,51.244 108.603 C 51.404 108.133,51.757 107.434,52.027 107.048 C 52.298 106.663,52.596 105.922,52.691 105.402 C 52.786 104.882,53.096 104.161,53.380 103.800 C 53.665 103.438,54.073 102.645,54.287 102.037 C 54.501 101.430,54.846 100.746,55.052 100.518 C 55.258 100.290,55.608 99.591,55.829 98.964 C 56.050 98.337,56.395 97.643,56.594 97.422 C 56.794 97.201,57.153 96.438,57.392 95.725 C 57.631 95.013,57.986 94.249,58.181 94.029 C 58.376 93.808,58.717 93.114,58.938 92.487 C 59.159 91.860,59.509 91.161,59.715 90.933 C 59.921 90.705,60.271 90.005,60.492 89.378 C 60.713 88.751,61.051 88.058,61.243 87.837 C 61.435 87.616,61.796 86.794,62.047 86.010 C 62.297 85.227,62.659 84.405,62.850 84.184 C 63.042 83.963,63.380 83.270,63.601 82.642 C 63.822 82.015,64.172 81.316,64.378 81.088 C 64.584 80.860,64.929 80.176,65.143 79.569 C 65.358 78.961,65.766 78.168,66.050 77.807 C 66.334 77.445,66.646 76.724,66.742 76.204 C 66.839 75.684,67.182 74.909,67.506 74.482 C 67.830 74.054,68.180 73.355,68.285 72.927 C 68.390 72.500,68.740 71.801,69.062 71.373 C 69.385 70.946,69.735 70.246,69.840 69.819 C 69.944 69.391,70.291 68.692,70.609 68.264 C 70.927 67.837,71.269 67.079,71.369 66.580 C 71.469 66.082,71.820 65.266,72.149 64.767 C 72.477 64.268,72.831 63.569,72.936 63.212 C 73.040 62.856,73.347 62.249,73.619 61.864 C 73.890 61.478,74.242 60.779,74.401 60.309 C 74.561 59.840,74.892 59.165,75.139 58.808 C 75.385 58.452,75.770 57.636,75.995 56.995 C 76.220 56.354,77.327 54.009,78.455 51.785 C 79.583 49.561,80.654 47.291,80.836 46.740 C 81.018 46.190,81.313 45.593,81.493 45.413 C 81.672 45.234,82.029 44.531,82.286 43.852 C 82.542 43.172,82.892 42.473,83.063 42.297 C 83.234 42.122,83.582 41.422,83.837 40.743 C 84.091 40.064,84.378 39.449,84.473 39.378 C 84.568 39.307,84.897 38.753,85.204 38.148 C 85.852 36.870,86.297 36.761,86.799 37.759 M198.926 38.951 C 199.500 39.998,200.053 41.185,200.155 41.589 C 200.256 41.992,200.612 42.726,200.947 43.218 C 201.281 43.711,201.555 44.302,201.556 44.531 C 201.556 44.760,201.905 45.473,202.332 46.114 C 202.758 46.755,203.108 47.455,203.109 47.668 C 203.110 47.882,203.460 48.582,203.886 49.223 C 204.312 49.864,204.661 50.553,204.662 50.754 C 204.663 50.956,204.939 51.597,205.276 52.179 C 205.613 52.762,206.038 53.705,206.220 54.275 C 206.403 54.845,206.762 55.580,207.018 55.910 C 207.274 56.239,207.621 56.926,207.789 57.435 C 207.957 57.944,208.372 58.769,208.710 59.268 C 209.049 59.767,209.326 60.305,209.326 60.464 C 209.326 60.802,210.887 64.127,212.046 66.256 C 212.259 66.648,212.606 67.377,212.818 67.876 C 213.029 68.374,213.316 68.957,213.455 69.171 C 213.844 69.768,215.468 73.365,215.678 74.093 C 215.781 74.449,216.016 74.916,216.201 75.130 C 216.386 75.343,216.740 76.043,216.987 76.684 C 217.235 77.325,217.585 78.025,217.766 78.238 C 217.946 78.452,218.346 79.268,218.654 80.051 C 218.962 80.834,219.311 81.593,219.430 81.736 C 219.549 81.879,219.898 82.637,220.206 83.420 C 220.514 84.204,220.914 85.019,221.094 85.233 C 221.275 85.447,221.625 86.146,221.873 86.788 C 222.121 87.429,222.473 88.128,222.657 88.342 C 222.840 88.556,223.189 89.341,223.432 90.088 C 223.675 90.834,223.973 91.506,224.094 91.581 C 224.215 91.656,224.456 92.153,224.628 92.685 C 224.801 93.217,225.164 93.968,225.434 94.354 C 225.704 94.739,226.054 95.439,226.211 95.908 C 226.368 96.378,226.756 97.113,227.074 97.541 C 227.392 97.970,227.740 98.725,227.849 99.219 C 227.957 99.712,228.304 100.527,228.620 101.029 C 228.936 101.532,229.336 102.373,229.509 102.898 C 229.681 103.424,230.027 104.123,230.277 104.453 C 230.527 104.782,230.935 105.596,231.183 106.262 C 231.431 106.928,231.795 107.606,231.992 107.770 C 232.189 107.933,232.428 108.438,232.524 108.891 C 232.619 109.344,233.035 110.312,233.447 111.042 C 233.859 111.772,234.197 112.496,234.197 112.652 C 234.197 112.808,234.547 113.487,234.974 114.161 C 235.402 114.835,235.751 115.541,235.751 115.730 C 235.751 115.919,236.040 116.510,236.393 117.043 C 236.746 117.576,237.198 118.556,237.398 119.221 C 237.598 119.885,238.009 120.776,238.311 121.200 C 238.613 121.624,238.860 122.134,238.860 122.334 C 238.860 122.533,239.193 123.221,239.599 123.862 C 240.710 125.613,241.066 127.389,240.588 128.794 C 240.057 130.355,239.587 131.347,239.378 131.347 C 239.281 131.347,239.053 131.843,238.873 132.448 C 238.692 133.054,238.279 134.016,237.955 134.585 C 237.632 135.155,237.289 135.958,237.193 136.370 C 237.097 136.781,236.749 137.480,236.419 137.924 C 236.089 138.368,235.740 139.067,235.642 139.478 C 235.544 139.890,235.179 140.600,234.831 141.057 C 234.482 141.514,234.197 142.030,234.197 142.204 C 234.197 142.509,232.584 146.104,232.094 146.891 C 231.961 147.105,231.617 147.804,231.329 148.446 C 231.041 149.087,230.692 149.786,230.552 150.000 C 230.412 150.214,230.063 150.913,229.775 151.554 C 229.488 152.196,228.964 153.303,228.612 154.016 C 228.260 154.728,227.973 155.434,227.975 155.584 C 227.977 155.734,227.630 156.409,227.202 157.083 C 226.775 157.757,226.425 158.456,226.425 158.637 C 226.425 158.818,226.088 159.497,225.676 160.147 C 225.264 160.796,224.849 161.683,224.753 162.119 C 224.658 162.554,224.354 163.171,224.077 163.490 C 223.801 163.808,223.575 164.225,223.575 164.416 C 223.575 164.606,222.883 166.133,222.036 167.809 C 220.085 171.671,218.394 175.287,218.394 175.597 C 218.394 175.729,218.179 176.115,217.916 176.455 C 217.653 176.795,217.229 177.626,216.974 178.303 C 216.719 178.980,216.417 179.534,216.304 179.534 C 216.190 179.534,216.017 179.796,215.919 180.117 C 215.821 180.437,215.288 181.654,214.736 182.821 C 214.183 183.988,213.731 185.062,213.731 185.206 C 213.731 185.351,213.439 185.899,213.083 186.424 C 212.727 186.949,212.435 187.566,212.434 187.795 C 212.434 188.025,212.084 188.737,211.658 189.378 C 211.232 190.019,210.883 190.692,210.882 190.873 C 210.881 191.054,210.531 191.857,210.104 192.658 C 209.676 193.459,209.326 194.291,209.326 194.507 C 209.326 194.723,209.041 195.273,208.693 195.730 C 208.344 196.187,207.979 196.898,207.881 197.309 C 207.784 197.720,207.434 198.420,207.104 198.864 C 206.774 199.307,206.425 200.007,206.327 200.418 C 206.229 200.829,205.889 201.517,205.570 201.946 C 205.251 202.374,204.903 203.124,204.796 203.611 C 204.689 204.098,204.266 205.042,203.855 205.709 C 203.445 206.377,203.109 207.054,203.109 207.214 C 203.109 207.374,202.759 208.074,202.332 208.768 C 201.904 209.463,201.554 210.175,201.554 210.351 C 201.554 210.527,201.316 211.006,201.025 211.415 C 200.734 211.824,200.313 212.774,200.090 213.527 C 199.867 214.280,199.596 214.955,199.488 215.026 C 199.379 215.097,198.968 215.794,198.574 216.575 L 197.858 217.995 196.855 216.834 C 196.304 216.196,195.653 215.149,195.409 214.508 C 195.165 213.867,194.699 212.947,194.374 212.464 C 194.048 211.981,193.782 211.425,193.782 211.229 C 193.782 211.033,193.433 210.253,193.005 209.496 C 192.578 208.738,192.226 207.953,192.223 207.751 C 192.221 207.549,191.871 206.870,191.446 206.243 C 191.021 205.616,190.674 204.903,190.674 204.659 C 190.674 204.415,190.436 203.913,190.146 203.545 C 189.856 203.176,189.496 202.490,189.345 202.020 C 189.097 201.245,187.561 197.844,187.029 196.891 C 186.197 195.399,184.462 191.716,184.319 191.138 C 184.224 190.752,183.989 190.305,183.797 190.146 C 183.605 189.987,183.260 189.292,183.031 188.601 C 182.802 187.911,182.452 187.211,182.254 187.047 C 182.056 186.882,181.706 186.183,181.477 185.492 C 181.247 184.802,180.897 184.102,180.699 183.937 C 180.500 183.772,180.202 183.209,180.037 182.687 C 179.650 181.464,177.765 177.450,177.339 176.943 C 177.159 176.729,176.942 176.254,176.855 175.888 C 176.768 175.521,176.403 174.787,176.043 174.257 C 175.683 173.727,175.389 173.173,175.389 173.025 C 175.389 172.878,174.981 171.909,174.482 170.872 C 173.983 169.835,173.575 168.813,173.575 168.601 C 173.575 168.389,173.341 168.003,173.055 167.744 C 172.769 167.485,172.397 166.797,172.228 166.214 C 172.060 165.632,171.653 164.826,171.324 164.423 C 170.995 164.020,170.725 163.504,170.725 163.277 C 170.725 162.875,169.257 159.604,168.486 158.290 C 168.277 157.934,167.935 157.234,167.725 156.736 C 167.516 156.237,167.210 155.596,167.046 155.311 C 166.514 154.388,165.303 151.835,164.157 149.223 C 163.938 148.724,163.590 148.025,163.384 147.668 C 162.683 146.456,161.209 143.396,161.014 142.746 C 160.907 142.390,160.673 141.924,160.494 141.710 C 160.315 141.496,160.022 140.855,159.841 140.285 C 159.661 139.715,159.292 138.933,159.022 138.548 C 158.752 138.162,158.399 137.463,158.239 136.993 C 158.078 136.524,157.674 135.734,157.341 135.238 C 157.008 134.742,156.736 134.229,156.736 134.099 C 156.736 133.836,155.197 130.455,154.399 128.964 C 153.803 127.851,153.733 126.616,154.241 126.194 C 154.436 126.032,154.802 125.347,155.053 124.672 C 155.305 123.998,155.671 123.261,155.866 123.035 C 156.061 122.810,156.394 122.039,156.607 121.322 C 156.820 120.606,157.209 119.741,157.473 119.401 C 157.736 119.061,158.025 118.482,158.115 118.116 C 158.204 117.749,158.571 117.015,158.931 116.485 C 159.291 115.955,159.587 115.380,159.589 115.209 C 159.590 115.037,159.894 114.372,160.264 113.731 C 160.634 113.089,161.100 112.025,161.298 111.365 C 161.497 110.705,161.828 110.026,162.033 109.856 C 162.239 109.685,162.594 108.981,162.824 108.290 C 163.053 107.600,163.403 106.900,163.601 106.736 C 163.799 106.571,164.149 105.872,164.378 105.181 C 164.608 104.491,164.963 103.787,165.168 103.617 C 165.373 103.447,165.666 102.826,165.821 102.237 C 165.975 101.648,166.364 100.758,166.685 100.259 C 167.006 99.760,167.401 98.968,167.563 98.499 C 167.725 98.030,168.079 97.330,168.350 96.945 C 168.622 96.559,168.932 95.952,169.041 95.596 C 169.149 95.240,169.502 94.482,169.826 93.912 C 170.150 93.342,170.493 92.502,170.588 92.046 C 170.683 91.589,170.989 90.927,171.267 90.573 C 171.545 90.219,171.943 89.449,172.150 88.860 C 172.358 88.272,172.763 87.491,173.051 87.124 C 173.339 86.758,173.575 86.329,173.576 86.170 C 173.576 86.011,173.984 85.071,174.483 84.082 C 174.981 83.093,175.389 82.081,175.389 81.834 C 175.389 81.587,175.548 81.224,175.744 81.029 C 176.166 80.607,176.943 79.150,176.943 78.781 C 176.943 78.638,177.233 78.093,177.587 77.571 C 177.941 77.050,178.344 76.215,178.481 75.716 C 178.619 75.217,178.897 74.619,179.099 74.386 C 179.302 74.154,179.663 73.361,179.903 72.624 C 180.143 71.886,180.501 71.149,180.699 70.984 C 180.898 70.820,181.247 70.121,181.477 69.430 C 181.706 68.740,182.056 68.040,182.254 67.876 C 182.452 67.711,182.802 67.012,183.031 66.321 C 183.260 65.631,183.605 64.935,183.797 64.776 C 183.989 64.617,184.224 64.171,184.320 63.785 C 184.415 63.399,185.534 60.970,186.806 58.388 C 188.078 55.806,189.119 53.521,189.119 53.310 C 189.119 53.100,189.467 52.415,189.892 51.788 C 190.317 51.161,190.666 50.461,190.669 50.233 C 190.671 50.005,191.021 49.306,191.446 48.679 C 191.871 48.052,192.221 47.410,192.223 47.252 C 192.226 47.094,192.576 46.277,193.002 45.438 C 193.428 44.599,193.777 43.782,193.779 43.624 C 193.781 43.466,194.054 42.936,194.386 42.447 C 194.718 41.957,195.130 41.155,195.301 40.664 C 195.752 39.371,197.373 37.047,197.824 37.047 C 197.855 37.047,198.351 37.903,198.926 38.951 M311.569 39.360 C 311.809 40.011,312.163 40.731,312.356 40.960 C 312.549 41.188,312.914 41.965,313.168 42.686 C 313.422 43.406,313.758 44.152,313.916 44.342 C 314.074 44.533,314.440 45.314,314.730 46.078 C 315.020 46.842,315.419 47.658,315.616 47.892 C 315.813 48.125,316.175 48.861,316.421 49.526 C 316.666 50.192,317.035 50.876,317.242 51.048 C 317.448 51.219,317.617 51.503,317.617 51.679 C 317.617 51.856,317.958 52.686,318.374 53.526 C 318.791 54.365,319.331 55.606,319.575 56.282 C 319.819 56.959,320.105 57.513,320.211 57.513 C 320.317 57.513,320.665 58.212,320.984 59.067 C 321.304 59.922,321.652 60.622,321.758 60.622 C 321.864 60.622,322.155 61.176,322.405 61.852 C 322.656 62.529,323.021 63.341,323.218 63.657 C 323.415 63.973,323.818 64.848,324.114 65.600 C 324.410 66.353,324.809 67.144,325.000 67.358 C 325.192 67.571,325.431 68.096,325.532 68.523 C 325.633 68.951,325.986 69.663,326.316 70.107 C 326.645 70.551,326.999 71.250,327.100 71.661 C 327.202 72.073,327.547 72.827,327.867 73.337 C 328.187 73.848,328.566 74.690,328.709 75.208 C 328.853 75.727,329.195 76.475,329.471 76.871 C 329.747 77.267,330.103 77.975,330.262 78.444 C 330.421 78.913,330.773 79.613,331.045 79.999 C 331.316 80.384,331.626 80.991,331.734 81.347 C 331.842 81.703,332.265 82.636,332.674 83.420 C 333.084 84.203,333.419 84.974,333.419 85.132 C 333.419 85.290,333.691 85.820,334.023 86.310 C 334.356 86.799,334.766 87.597,334.935 88.083 C 335.105 88.569,335.442 89.263,335.685 89.626 C 336.113 90.265,336.841 91.860,337.835 94.336 C 338.100 94.996,338.614 95.974,338.977 96.509 C 339.340 97.044,339.639 97.669,339.642 97.899 C 339.645 98.128,339.994 98.829,340.419 99.456 C 340.844 100.083,341.192 100.761,341.192 100.962 C 341.192 101.305,342.764 104.848,343.294 105.699 C 343.427 105.913,343.772 106.613,344.059 107.254 C 344.347 107.895,344.695 108.595,344.832 108.808 C 344.969 109.022,345.268 109.605,345.497 110.104 C 345.726 110.602,346.249 111.666,346.661 112.468 C 347.073 113.270,347.411 114.086,347.414 114.282 C 347.417 114.477,347.766 115.150,348.191 115.777 C 348.616 116.404,348.964 117.117,348.964 117.362 C 348.964 117.606,349.203 118.110,349.495 118.481 C 349.788 118.853,350.214 119.714,350.443 120.395 C 350.671 121.075,351.073 121.910,351.336 122.250 C 351.599 122.590,351.813 123.047,351.813 123.265 C 351.813 123.484,352.163 124.282,352.591 125.040 C 353.510 126.669,353.630 128.342,352.897 129.304 C 352.638 129.644,352.275 130.330,352.091 130.829 C 351.732 131.799,350.093 135.366,349.709 136.010 C 349.582 136.224,349.346 136.690,349.185 137.047 C 348.651 138.223,348.158 139.240,347.801 139.896 C 347.137 141.120,345.855 143.976,345.855 144.231 C 345.855 144.372,345.578 144.896,345.239 145.395 C 344.900 145.894,344.486 146.719,344.317 147.228 C 344.149 147.738,343.801 148.424,343.544 148.753 C 343.287 149.083,342.989 149.644,342.881 150.000 C 342.637 150.810,340.804 154.826,340.044 156.218 C 339.849 156.574,339.500 157.273,339.267 157.772 C 339.034 158.271,338.690 158.970,338.503 159.326 C 337.142 161.918,336.528 163.225,336.528 163.532 C 336.528 163.728,336.179 164.440,335.751 165.114 C 335.324 165.788,334.974 166.487,334.974 166.668 C 334.974 166.849,334.624 167.548,334.197 168.223 C 333.769 168.897,333.420 169.581,333.420 169.744 C 333.420 170.052,331.839 173.488,331.180 174.611 C 330.972 174.968,330.629 175.667,330.420 176.166 C 330.211 176.665,329.923 177.247,329.780 177.461 C 329.637 177.675,329.282 178.374,328.991 179.016 C 328.699 179.657,328.192 180.706,327.864 181.347 C 327.536 181.988,327.189 182.849,327.092 183.261 C 326.995 183.672,326.643 184.372,326.310 184.815 C 325.977 185.259,325.626 185.993,325.530 186.446 C 325.434 186.899,325.192 187.405,324.993 187.570 C 324.794 187.736,324.385 188.529,324.084 189.334 C 323.783 190.139,323.437 190.916,323.316 191.062 C 323.195 191.208,322.846 191.996,322.540 192.814 C 322.234 193.632,321.890 194.301,321.775 194.301 C 321.660 194.301,321.304 195.000,320.984 195.855 C 320.665 196.710,320.309 197.409,320.193 197.409 C 320.078 197.409,319.903 197.672,319.806 197.992 C 319.578 198.741,318.246 201.637,316.321 205.570 C 314.358 209.580,312.953 212.608,312.953 212.828 C 312.953 212.924,312.736 213.312,312.471 213.691 C 312.206 214.069,311.848 214.814,311.675 215.346 C 310.951 217.578,309.271 217.911,308.536 215.969 C 308.274 215.276,307.879 214.511,307.660 214.268 C 307.440 214.025,307.180 213.427,307.083 212.940 C 306.985 212.452,306.576 211.533,306.173 210.898 C 305.770 210.263,305.440 209.573,305.440 209.365 C 305.440 209.157,305.155 208.613,304.807 208.156 C 304.458 207.699,304.093 206.988,303.995 206.577 C 303.898 206.166,303.551 205.470,303.224 205.030 C 302.898 204.591,302.549 203.800,302.451 203.273 C 302.352 202.746,302.005 201.922,301.679 201.443 C 301.354 200.964,301.005 200.297,300.904 199.962 C 300.802 199.627,300.396 198.769,300.000 198.057 C 299.604 197.345,299.193 196.470,299.087 196.114 C 298.980 195.758,298.676 195.189,298.411 194.850 C 298.146 194.510,297.807 193.779,297.658 193.225 C 297.509 192.671,297.100 191.795,296.750 191.280 C 296.400 190.764,296.112 190.154,296.109 189.925 C 296.107 189.696,295.757 188.995,295.332 188.368 C 294.907 187.741,294.560 187.035,294.560 186.799 C 294.560 186.563,294.266 185.972,293.906 185.485 C 293.547 184.998,293.130 184.130,292.980 183.556 C 292.830 182.982,292.425 182.078,292.079 181.547 C 291.734 181.016,291.451 180.427,291.451 180.238 C 291.451 180.049,291.101 179.343,290.674 178.669 C 290.246 177.995,289.896 177.301,289.895 177.128 C 289.895 176.955,289.545 176.289,289.119 175.648 C 288.693 175.006,288.344 174.305,288.343 174.089 C 288.342 173.874,288.094 173.235,287.791 172.669 C 287.488 172.104,287.077 171.179,286.878 170.613 C 286.678 170.048,286.346 169.399,286.140 169.171 C 285.934 168.943,285.589 168.259,285.375 167.652 C 285.161 167.044,284.750 166.247,284.462 165.881 C 284.173 165.515,283.938 165.059,283.938 164.869 C 283.938 164.480,281.641 159.528,281.367 159.326 C 281.270 159.255,280.983 158.641,280.728 157.962 C 280.473 157.282,280.115 156.577,279.933 156.395 C 279.751 156.213,279.514 155.778,279.407 155.428 C 279.300 155.079,278.760 153.838,278.207 152.671 C 277.654 151.504,277.202 150.440,277.202 150.306 C 277.202 150.173,277.042 149.931,276.847 149.769 C 276.652 149.607,276.283 148.922,276.026 148.248 C 275.770 147.573,275.354 146.729,275.102 146.373 C 274.850 146.017,274.519 145.245,274.367 144.658 C 274.216 144.071,273.877 143.313,273.614 142.974 C 273.351 142.635,273.051 142.008,272.947 141.580 C 272.843 141.153,272.494 140.453,272.171 140.026 C 271.849 139.598,271.499 138.899,271.394 138.472 C 271.289 138.044,270.921 137.323,270.576 136.870 C 270.231 136.416,269.948 135.892,269.948 135.706 C 269.948 135.373,268.464 132.100,267.737 130.829 C 266.331 128.371,266.226 126.476,267.398 124.692 C 267.755 124.149,268.179 123.321,268.340 122.851 C 268.502 122.382,268.872 121.663,269.164 121.254 C 269.455 120.845,269.766 120.121,269.856 119.646 C 269.945 119.171,270.275 118.433,270.590 118.005 C 270.904 117.578,271.247 116.878,271.352 116.451 C 271.457 116.023,271.807 115.324,272.129 114.896 C 272.452 114.469,272.799 113.783,272.900 113.371 C 273.002 112.960,273.355 112.261,273.686 111.817 C 274.017 111.373,274.364 110.585,274.457 110.065 C 274.549 109.545,274.835 108.846,275.091 108.511 C 275.348 108.176,275.763 107.377,276.013 106.736 C 276.263 106.095,276.615 105.395,276.795 105.181 C 276.975 104.968,277.324 104.268,277.572 103.627 C 277.820 102.986,278.173 102.286,278.356 102.073 C 278.540 101.859,278.898 101.045,279.152 100.265 C 279.406 99.485,279.761 98.700,279.939 98.521 C 280.118 98.342,280.474 97.640,280.731 96.961 C 280.988 96.281,281.338 95.582,281.508 95.406 C 281.679 95.231,282.027 94.531,282.282 93.852 C 282.537 93.172,282.837 92.552,282.949 92.474 C 283.061 92.396,283.389 91.646,283.677 90.808 C 283.965 89.970,284.357 89.102,284.547 88.878 C 284.738 88.655,285.096 87.947,285.344 87.306 C 285.592 86.665,285.941 85.965,286.120 85.751 C 286.299 85.538,286.712 84.690,287.037 83.869 C 287.362 83.047,287.728 82.313,287.849 82.239 C 287.970 82.164,288.201 81.613,288.362 81.015 C 288.523 80.417,288.880 79.611,289.155 79.224 C 289.431 78.837,289.786 78.136,289.945 77.667 C 290.105 77.198,290.452 76.501,290.719 76.118 C 290.985 75.736,291.378 74.925,291.593 74.318 C 291.807 73.710,292.144 73.032,292.340 72.811 C 292.537 72.590,292.823 71.940,292.975 71.366 C 293.128 70.793,293.547 69.925,293.906 69.438 C 294.266 68.951,294.560 68.359,294.560 68.123 C 294.560 67.888,294.907 67.182,295.332 66.555 C 295.757 65.928,296.107 65.227,296.109 64.997 C 296.112 64.768,296.404 64.153,296.758 63.630 C 297.113 63.108,297.480 62.363,297.575 61.975 C 297.670 61.587,298.448 59.870,299.304 58.161 C 301.946 52.880,302.252 52.226,302.438 51.454 C 302.537 51.043,302.888 50.343,303.218 49.900 C 303.548 49.456,303.898 48.757,303.995 48.345 C 304.093 47.934,304.443 47.235,304.773 46.791 C 305.102 46.347,305.453 45.644,305.552 45.228 C 305.651 44.811,305.957 44.184,306.233 43.834 C 306.508 43.483,306.862 42.720,307.019 42.139 C 307.176 41.557,307.519 40.807,307.782 40.472 C 308.045 40.138,308.399 39.434,308.568 38.909 C 309.220 36.885,310.741 37.113,311.569 39.360 " stroke="none" fill="#fcfcfc" fill-rule="evenodd"></path></g></svg>