<svg id="svg" version="1.1" xmlns="http://www.w3.org/2000/svg" xmlns:xlink="http://www.w3.org/1999/xlink" width="400" height="258.91472868217056" viewBox="0, 0, 400,258.91472868217056"><g id="svgg"><path id="path0" d="M198.432 28.170 C 197.810 28.548,195.631 32.594,195.186 34.197 C 195.087 34.553,194.796 35.114,194.539 35.444 C 194.281 35.773,193.931 36.473,193.759 36.998 C 193.588 37.523,193.238 38.223,192.982 38.552 C 192.726 38.882,192.376 39.581,192.205 40.107 C 192.034 40.632,191.674 41.344,191.406 41.689 C 191.137 42.035,190.792 42.818,190.637 43.430 C 190.483 44.043,190.201 44.673,190.011 44.831 C 189.821 44.989,189.467 45.715,189.225 46.445 C 188.983 47.174,188.566 48.006,188.300 48.292 C 188.033 48.578,187.700 49.239,187.559 49.761 C 187.419 50.283,187.071 51.005,186.787 51.367 C 186.502 51.729,186.269 52.188,186.269 52.387 C 186.269 52.587,185.862 53.559,185.363 54.549 C 184.865 55.538,184.457 56.477,184.457 56.636 C 184.456 56.795,184.220 57.225,183.932 57.591 C 183.644 57.957,183.233 58.754,183.019 59.361 C 182.804 59.969,182.458 60.655,182.249 60.886 C 182.040 61.117,181.634 61.989,181.347 62.824 C 181.060 63.659,180.667 64.525,180.475 64.749 C 180.283 64.972,179.996 65.539,179.839 66.009 C 179.681 66.478,179.333 67.178,179.065 67.563 C 178.796 67.949,178.447 68.648,178.287 69.118 C 178.128 69.587,177.774 70.287,177.500 70.672 C 177.226 71.058,176.852 71.898,176.668 72.539 C 176.485 73.180,176.191 73.880,176.013 74.093 C 175.836 74.307,175.488 75.006,175.241 75.648 C 174.993 76.289,174.636 76.994,174.448 77.215 C 174.261 77.436,173.925 78.132,173.703 78.762 C 173.480 79.392,173.082 80.144,172.817 80.433 C 172.552 80.722,172.250 81.362,172.146 81.855 C 172.041 82.349,171.686 83.165,171.356 83.669 C 171.027 84.173,170.673 84.935,170.571 85.363 C 170.468 85.790,170.120 86.490,169.798 86.917 C 169.475 87.345,169.125 88.044,169.021 88.472 C 168.916 88.899,168.557 89.609,168.223 90.050 C 167.890 90.491,167.617 91.023,167.617 91.231 C 167.617 91.439,167.209 92.419,166.711 93.409 C 166.212 94.398,165.804 95.337,165.804 95.496 C 165.803 95.655,165.567 96.085,165.279 96.451 C 164.991 96.817,164.580 97.614,164.366 98.222 C 164.151 98.829,163.807 99.513,163.601 99.741 C 163.395 99.969,163.044 100.674,162.822 101.308 C 162.599 101.942,161.443 104.399,160.252 106.767 C 159.061 109.135,158.009 111.429,157.913 111.865 C 157.817 112.302,157.578 112.792,157.381 112.955 C 157.184 113.119,156.836 113.817,156.606 114.508 C 156.377 115.198,156.027 115.898,155.829 116.062 C 155.631 116.227,155.281 116.926,155.052 117.617 C 154.822 118.307,154.473 119.007,154.275 119.171 C 154.076 119.335,153.718 120.073,153.478 120.810 C 153.238 121.547,152.898 122.325,152.722 122.539 C 152.546 122.753,152.187 123.510,151.924 124.223 C 151.660 124.935,151.294 125.672,151.111 125.860 C 150.652 126.331,150.693 126.921,151.257 127.983 C 151.521 128.480,151.877 129.314,152.048 129.837 C 152.218 130.360,152.521 130.922,152.719 131.087 C 152.918 131.252,153.268 131.952,153.497 132.642 C 153.727 133.333,154.077 134.033,154.277 134.199 C 154.476 134.364,154.817 135.112,155.035 135.862 C 155.253 136.611,155.649 137.505,155.914 137.848 C 156.180 138.191,156.471 138.771,156.560 139.138 C 156.650 139.505,156.999 140.212,157.337 140.710 C 157.675 141.208,158.024 141.907,158.114 142.264 C 158.204 142.621,158.546 143.313,158.875 143.801 C 159.203 144.290,159.626 145.214,159.813 145.855 C 160.001 146.496,160.308 147.196,160.496 147.409 C 160.684 147.623,161.042 148.323,161.293 148.964 C 161.543 149.605,161.953 150.397,162.203 150.725 C 162.454 151.052,162.740 151.693,162.839 152.149 C 162.939 152.606,163.282 153.292,163.602 153.673 C 163.922 154.055,164.267 154.809,164.368 155.348 C 164.469 155.888,164.780 156.649,165.058 157.039 C 165.336 157.430,165.693 158.133,165.852 158.603 C 166.011 159.072,166.361 159.771,166.629 160.157 C 166.898 160.542,167.248 161.242,167.407 161.711 C 167.566 162.181,167.915 162.880,168.183 163.264 C 168.451 163.649,168.827 164.486,169.019 165.124 C 169.211 165.762,169.597 166.613,169.878 167.015 C 170.158 167.417,170.517 168.130,170.676 168.600 C 170.835 169.069,171.188 169.768,171.459 170.154 C 171.731 170.539,172.041 171.146,172.149 171.503 C 172.257 171.859,172.623 172.627,172.961 173.209 C 173.299 173.792,173.576 174.433,173.577 174.634 C 173.578 174.835,173.772 175.350,174.009 175.777 C 175.300 178.106,177.202 181.986,177.202 182.291 C 177.202 182.484,177.309 182.642,177.440 182.642 C 177.571 182.642,177.874 183.255,178.112 184.003 C 178.351 184.751,178.749 185.654,178.996 186.010 C 179.244 186.367,179.656 187.210,179.912 187.885 C 180.169 188.560,180.538 189.244,180.733 189.406 C 180.928 189.568,181.088 189.810,181.088 189.944 C 181.088 190.077,181.554 191.163,182.124 192.358 C 182.694 193.552,183.161 194.692,183.161 194.893 C 183.161 195.093,183.376 195.451,183.639 195.689 C 183.901 195.927,184.272 196.615,184.461 197.219 C 184.651 197.822,185.005 198.549,185.248 198.834 C 185.491 199.119,185.844 199.819,186.032 200.389 C 186.221 200.959,186.575 201.658,186.820 201.943 C 187.064 202.228,187.345 202.902,187.445 203.441 C 187.544 203.981,187.878 204.797,188.187 205.255 C 188.495 205.713,188.954 206.633,189.206 207.298 C 189.458 207.964,189.833 208.648,190.040 208.820 C 190.246 208.991,190.415 209.280,190.415 209.461 C 190.415 209.643,190.740 210.416,191.137 211.178 C 191.535 211.941,192.070 213.121,192.327 213.800 C 192.583 214.479,192.932 215.179,193.103 215.354 C 193.274 215.530,193.623 216.229,193.880 216.909 C 194.137 217.588,194.496 218.293,194.678 218.475 C 194.860 218.658,195.095 219.093,195.199 219.442 C 195.304 219.792,195.711 220.661,196.105 221.373 C 196.500 222.085,196.909 223.066,197.016 223.552 C 197.477 225.653,199.481 226.502,199.987 224.811 C 200.168 224.208,200.536 223.435,200.805 223.093 C 201.074 222.751,201.419 221.991,201.573 221.404 C 201.726 220.817,202.115 219.929,202.436 219.430 C 202.758 218.931,203.153 218.139,203.314 217.670 C 203.476 217.201,203.830 216.501,204.102 216.115 C 204.373 215.730,204.684 215.123,204.792 214.767 C 204.900 214.411,205.251 213.653,205.572 213.083 C 205.894 212.513,206.235 211.710,206.330 211.299 C 206.426 210.887,206.774 210.188,207.104 209.744 C 207.434 209.301,207.784 208.601,207.881 208.190 C 207.979 207.779,208.329 207.079,208.659 206.636 C 208.988 206.192,209.339 205.488,209.438 205.072 C 209.537 204.656,209.843 204.029,210.119 203.678 C 210.394 203.328,210.749 202.562,210.907 201.976 C 211.064 201.391,211.417 200.598,211.690 200.214 C 211.964 199.830,212.363 199.019,212.577 198.411 C 212.792 197.803,213.120 197.125,213.306 196.904 C 213.493 196.683,213.799 196.095,213.987 195.596 C 214.175 195.097,214.530 194.339,214.776 193.912 C 215.021 193.484,215.370 192.668,215.550 192.098 C 215.731 191.528,216.088 190.793,216.344 190.463 C 216.600 190.134,216.950 189.434,217.121 188.909 C 217.293 188.383,217.642 187.684,217.899 187.354 C 218.155 187.025,218.502 186.325,218.671 185.800 C 218.839 185.274,219.127 184.670,219.311 184.456 C 219.494 184.242,219.884 183.380,220.178 182.541 C 220.472 181.701,220.874 180.827,221.072 180.598 C 221.270 180.369,221.638 179.629,221.890 178.954 C 222.141 178.280,222.507 177.595,222.702 177.433 C 222.897 177.271,223.057 177.027,223.057 176.891 C 223.057 176.755,223.465 175.795,223.964 174.758 C 224.462 173.721,224.871 172.710,224.872 172.512 C 224.872 172.313,225.221 171.626,225.648 170.984 C 226.074 170.343,226.424 169.644,226.425 169.430 C 226.426 169.216,226.776 168.517,227.202 167.876 C 227.628 167.234,227.978 166.533,227.978 166.317 C 227.979 166.100,228.259 165.512,228.600 165.010 C 228.941 164.507,229.339 163.668,229.484 163.144 C 229.629 162.620,229.973 161.867,230.248 161.471 C 230.524 161.075,230.880 160.367,231.039 159.898 C 231.198 159.428,231.549 158.729,231.820 158.343 C 232.090 157.958,232.451 157.213,232.621 156.687 C 232.792 156.162,233.142 155.462,233.401 155.133 C 233.659 154.803,233.957 154.139,234.062 153.656 C 234.168 153.173,234.591 152.247,235.003 151.597 C 235.414 150.948,235.751 150.258,235.751 150.065 C 235.751 149.872,236.045 149.282,236.405 148.756 C 236.764 148.229,237.177 147.358,237.323 146.821 C 237.468 146.284,237.874 145.422,238.224 144.907 C 238.574 144.391,238.860 143.842,238.860 143.686 C 238.860 143.530,239.609 141.885,240.524 140.030 C 243.219 134.566,243.782 133.355,243.782 133.021 C 243.782 132.848,243.951 132.566,244.157 132.395 C 244.364 132.224,244.739 131.539,244.991 130.873 C 245.243 130.208,245.716 129.268,246.041 128.785 C 246.875 127.546,246.815 126.212,245.855 124.651 C 245.427 123.957,245.073 123.226,245.067 123.028 C 245.062 122.830,244.712 122.027,244.290 121.244 C 243.869 120.460,243.523 119.689,243.523 119.531 C 243.523 119.373,243.246 118.835,242.907 118.336 C 242.569 117.836,242.154 117.011,241.986 116.502 C 241.818 115.993,241.465 115.303,241.202 114.968 C 240.939 114.634,240.595 113.884,240.439 113.302 C 240.282 112.720,239.934 111.964,239.665 111.622 C 239.396 111.280,239.029 110.511,238.850 109.912 C 238.670 109.313,238.324 108.609,238.081 108.347 C 237.837 108.086,237.489 107.413,237.306 106.851 C 237.124 106.289,236.753 105.514,236.483 105.128 C 236.213 104.743,235.869 104.043,235.719 103.574 C 235.441 102.701,234.074 99.663,233.645 98.964 C 233.514 98.750,233.109 97.939,232.745 97.162 C 232.382 96.384,231.874 95.452,231.618 95.089 C 231.362 94.727,231.065 94.022,230.959 93.523 C 230.852 93.025,230.542 92.301,230.269 91.916 C 229.997 91.530,229.644 90.831,229.485 90.361 C 229.326 89.892,228.976 89.192,228.707 88.807 C 228.439 88.421,228.089 87.722,227.930 87.252 C 227.771 86.783,227.415 86.075,227.140 85.679 C 226.864 85.283,226.521 84.535,226.378 84.016 C 226.235 83.498,225.837 82.629,225.494 82.086 C 225.151 81.543,224.870 80.937,224.870 80.741 C 224.870 80.544,224.604 79.988,224.279 79.505 C 223.954 79.022,223.481 78.082,223.229 77.417 C 222.977 76.751,222.602 76.067,222.396 75.895 C 222.189 75.724,222.021 75.417,222.021 75.212 C 222.021 75.007,221.554 73.863,220.984 72.668 C 220.415 71.474,219.948 70.382,219.948 70.241 C 219.948 70.100,219.776 69.813,219.565 69.602 C 219.355 69.392,218.937 68.598,218.638 67.838 C 218.338 67.078,217.985 66.389,217.852 66.307 C 217.719 66.225,217.385 65.524,217.108 64.750 C 216.832 63.975,215.677 61.506,214.541 59.262 C 213.406 57.018,212.403 54.847,212.313 54.436 C 212.223 54.026,211.864 53.304,211.515 52.831 C 211.166 52.359,210.881 51.779,210.881 51.543 C 210.881 51.307,210.533 50.601,210.108 49.974 C 209.683 49.347,209.334 48.657,209.331 48.441 C 209.329 48.225,209.052 47.642,208.717 47.146 C 208.382 46.649,207.958 45.777,207.775 45.207 C 207.591 44.637,207.232 43.872,206.976 43.508 C 206.720 43.143,206.430 42.501,206.330 42.083 C 206.231 41.664,205.880 40.958,205.550 40.515 C 205.220 40.071,204.870 39.372,204.773 38.960 C 204.675 38.549,204.319 37.841,203.982 37.388 C 203.644 36.934,203.368 36.403,203.368 36.206 C 203.368 35.883,201.956 32.748,201.237 31.477 C 200.591 30.333,200.244 29.619,199.885 28.692 C 199.469 27.618,199.387 27.589,198.432 28.170 M199.971 54.265 C 200.131 54.901,200.553 55.850,200.908 56.374 C 201.264 56.898,201.555 57.514,201.556 57.743 C 201.556 57.973,201.905 58.685,202.332 59.326 C 202.758 59.968,203.108 60.667,203.109 60.881 C 203.110 61.095,203.460 61.794,203.886 62.435 C 204.312 63.076,204.662 63.776,204.663 63.990 C 204.664 64.203,205.072 65.188,205.571 66.177 C 206.069 67.166,206.477 68.114,206.477 68.282 C 206.477 68.451,206.645 68.729,206.852 68.901 C 207.058 69.072,207.433 69.756,207.685 70.422 C 207.937 71.088,208.401 72.015,208.716 72.483 C 209.031 72.951,209.370 73.708,209.469 74.167 C 209.569 74.625,209.873 75.315,210.145 75.701 C 210.418 76.087,210.771 76.786,210.930 77.255 C 211.089 77.725,211.437 78.422,211.703 78.804 C 211.969 79.187,212.363 79.997,212.577 80.605 C 212.792 81.213,213.125 81.891,213.318 82.111 C 213.511 82.332,213.750 82.804,213.848 83.161 C 213.946 83.517,214.999 85.790,216.187 88.212 C 218.859 93.657,220.349 96.841,220.582 97.604 C 220.680 97.924,220.855 98.187,220.970 98.187 C 221.086 98.187,221.442 98.886,221.762 99.741 C 222.081 100.596,222.429 101.295,222.535 101.295 C 222.641 101.295,222.938 101.849,223.195 102.526 C 223.453 103.203,223.935 104.269,224.267 104.896 C 224.599 105.523,224.870 106.189,224.870 106.377 C 224.870 106.564,225.220 107.269,225.648 107.943 C 226.075 108.617,226.425 109.317,226.425 109.498 C 226.425 109.679,226.775 110.378,227.202 111.052 C 227.630 111.726,227.979 112.472,227.979 112.709 C 227.979 112.946,228.266 113.562,228.616 114.078 C 228.965 114.593,229.371 115.458,229.517 115.999 C 229.662 116.540,230.075 117.381,230.435 117.868 C 230.794 118.355,231.088 118.946,231.088 119.182 C 231.088 119.418,231.436 120.124,231.861 120.751 C 232.285 121.378,232.635 122.056,232.638 122.257 C 232.640 122.458,232.949 123.145,233.323 123.784 C 234.275 125.409,234.441 127.760,233.692 129.016 C 233.394 129.514,232.972 130.330,232.754 130.829 C 232.536 131.328,232.086 132.260,231.756 132.902 C 231.425 133.543,231.075 134.404,230.978 134.815 C 230.881 135.227,230.531 135.926,230.202 136.370 C 229.872 136.813,229.522 137.513,229.424 137.924 C 229.327 138.335,228.977 139.035,228.647 139.478 C 228.317 139.922,227.966 140.626,227.868 141.042 C 227.769 141.458,227.463 142.085,227.187 142.436 C 226.911 142.786,226.557 143.549,226.401 144.131 C 226.244 144.713,225.901 145.463,225.637 145.797 C 225.374 146.132,225.021 146.835,224.852 147.361 C 224.684 147.886,224.395 148.491,224.211 148.705 C 224.026 148.918,223.624 149.734,223.316 150.518 C 223.009 151.302,222.591 152.127,222.389 152.352 C 222.186 152.577,222.021 152.911,222.021 153.094 C 222.021 153.541,217.923 161.857,217.606 162.053 C 217.470 162.138,217.358 162.415,217.358 162.670 C 217.358 162.924,216.313 165.213,215.036 167.755 C 213.759 170.298,212.643 172.702,212.556 173.097 C 212.469 173.493,212.140 174.200,211.825 174.668 C 211.510 175.135,211.046 176.063,210.794 176.728 C 210.542 177.394,210.167 178.078,209.960 178.250 C 209.754 178.421,209.585 178.699,209.585 178.868 C 209.585 179.037,209.178 179.984,208.680 180.973 C 208.181 181.963,207.773 182.947,207.772 183.161 C 207.771 183.374,207.421 184.074,206.995 184.715 C 206.569 185.356,206.219 186.056,206.218 186.269 C 206.216 186.483,205.867 187.183,205.440 187.824 C 205.014 188.465,204.665 189.177,204.664 189.407 C 204.664 189.636,204.384 190.236,204.042 190.739 C 203.701 191.242,203.338 192.046,203.237 192.524 C 203.135 193.002,202.780 193.757,202.447 194.200 C 202.114 194.644,201.761 195.343,201.664 195.755 C 201.566 196.166,201.228 196.852,200.912 197.280 C 200.596 197.707,200.195 198.493,200.020 199.025 C 199.490 200.643,198.078 200.378,197.275 198.510 C 197.045 197.976,196.698 197.247,196.503 196.891 C 196.307 196.535,195.955 195.835,195.720 195.337 C 194.278 192.283,193.784 191.223,193.427 190.415 C 193.207 189.916,192.861 189.216,192.659 188.860 C 192.457 188.504,192.107 187.804,191.882 187.306 C 191.657 186.807,191.308 186.108,191.108 185.751 C 190.289 184.296,189.119 181.711,189.114 181.347 C 189.112 181.133,188.762 180.446,188.337 179.819 C 187.912 179.192,187.565 178.479,187.565 178.234 C 187.565 177.990,187.336 177.499,187.057 177.144 C 186.777 176.789,186.303 175.841,186.002 175.037 C 185.701 174.233,185.365 173.575,185.256 173.575 C 185.146 173.575,184.919 173.116,184.751 172.556 C 184.583 171.995,183.510 169.692,182.367 167.439 C 181.225 165.186,180.107 162.817,179.885 162.176 C 179.662 161.535,179.327 160.835,179.140 160.622 C 178.953 160.408,178.597 159.709,178.349 159.067 C 178.102 158.426,177.752 157.727,177.572 157.513 C 177.393 157.299,177.043 156.600,176.795 155.959 C 176.547 155.317,176.199 154.618,176.020 154.404 C 175.842 154.190,175.568 153.536,175.412 152.950 C 175.256 152.364,174.855 151.482,174.521 150.990 C 174.187 150.498,173.829 149.753,173.724 149.335 C 173.620 148.917,173.271 148.225,172.948 147.798 C 172.626 147.370,172.277 146.678,172.174 146.259 C 172.071 145.841,171.757 145.176,171.477 144.782 C 171.197 144.389,170.804 143.526,170.605 142.864 C 170.406 142.202,170.063 141.462,169.843 141.219 C 169.624 140.976,169.263 140.264,169.041 139.637 C 168.820 139.010,168.477 138.317,168.279 138.096 C 168.081 137.875,167.687 137.111,167.403 136.399 C 166.368 133.801,165.660 132.234,165.119 131.347 C 164.815 130.848,164.479 130.149,164.372 129.793 C 164.265 129.437,163.968 128.877,163.713 128.550 C 162.885 127.490,162.832 126.504,163.544 125.428 C 163.896 124.897,164.271 124.058,164.378 123.565 C 164.485 123.072,164.795 122.353,165.068 121.967 C 165.340 121.582,165.693 120.882,165.852 120.413 C 166.011 119.944,166.361 119.244,166.629 118.859 C 166.898 118.473,167.250 117.774,167.411 117.304 C 167.573 116.835,167.968 116.043,168.289 115.544 C 168.610 115.045,168.999 114.155,169.154 113.566 C 169.308 112.977,169.601 112.356,169.806 112.186 C 170.011 112.016,170.367 111.312,170.596 110.622 C 170.825 109.931,171.175 109.232,171.373 109.067 C 171.571 108.903,171.921 108.203,172.150 107.513 C 172.380 106.822,172.735 106.118,172.941 105.947 C 173.146 105.777,173.477 105.098,173.676 104.438 C 173.875 103.778,174.340 102.714,174.710 102.073 C 175.080 101.431,175.384 100.711,175.385 100.472 C 175.387 100.233,175.548 99.877,175.744 99.682 C 176.216 99.210,176.943 97.785,176.943 97.332 C 176.943 97.133,177.171 96.708,177.449 96.387 C 177.727 96.067,178.150 95.204,178.389 94.469 C 178.628 93.735,178.965 92.960,179.138 92.746 C 179.311 92.532,179.656 91.833,179.904 91.192 C 180.152 90.551,180.501 89.851,180.681 89.637 C 180.861 89.424,181.210 88.724,181.458 88.083 C 181.706 87.442,182.062 86.742,182.249 86.528 C 182.436 86.315,182.771 85.615,182.994 84.974 C 183.218 84.333,184.288 82.060,185.373 79.922 C 186.458 77.785,187.526 75.512,187.746 74.870 C 187.967 74.229,188.366 73.427,188.633 73.087 C 188.901 72.747,189.119 72.269,189.119 72.025 C 189.119 71.780,189.467 71.068,189.892 70.441 C 190.317 69.814,190.666 69.113,190.669 68.883 C 190.671 68.654,190.971 68.027,191.335 67.491 C 191.699 66.955,192.178 65.977,192.398 65.318 C 192.619 64.658,192.963 63.935,193.162 63.710 C 193.361 63.485,193.522 63.194,193.520 63.063 C 193.519 62.931,194.266 61.308,195.180 59.456 C 196.094 57.604,196.989 55.696,197.170 55.216 C 197.981 53.056,199.533 52.529,199.971 54.265 " stroke="none" fill="#ec2128" fill-rule="evenodd"></path><path id="path1" d="M0.000 129.534 L 0.000 259.067 200.000 259.067 L 400.000 259.067 400.000 129.534 L 400.000 0.000 200.000 0.000 L 0.000 0.000 0.000 129.534 M199.885 28.692 C 200.244 29.619,200.591 30.333,201.237 31.477 C 201.956 32.748,203.368 35.883,203.368 36.206 C 203.368 36.403,203.644 36.934,203.982 37.388 C 204.319 37.841,204.675 38.549,204.773 38.960 C 204.870 39.372,205.220 40.071,205.550 40.515 C 205.880 40.958,206.231 41.664,206.330 42.083 C 206.430 42.501,206.720 43.143,206.976 43.508 C 207.232 43.872,207.591 44.637,207.775 45.207 C 207.958 45.777,208.382 46.649,208.717 47.146 C 209.052 47.642,209.329 48.225,209.331 48.441 C 209.334 48.657,209.683 49.347,210.108 49.974 C 210.533 50.601,210.881 51.307,210.881 51.543 C 210.881 51.779,211.166 52.359,211.515 52.831 C 211.864 53.304,212.223 54.026,212.313 54.436 C 212.403 54.847,213.406 57.018,214.541 59.262 C 215.677 61.506,216.832 63.975,217.108 64.750 C 217.385 65.524,217.719 66.225,217.852 66.307 C 217.985 66.389,218.338 67.078,218.638 67.838 C 218.937 68.598,219.355 69.392,219.565 69.602 C 219.776 69.813,219.948 70.100,219.948 70.241 C 219.948 70.382,220.415 71.474,220.984 72.668 C 221.554 73.863,222.021 75.007,222.021 75.212 C 222.021 75.417,222.189 75.724,222.396 75.895 C 222.602 76.067,222.977 76.751,223.229 77.417 C 223.481 78.082,223.954 79.022,224.279 79.505 C 224.604 79.988,224.870 80.544,224.870 80.741 C 224.870 80.937,225.151 81.543,225.494 82.086 C 225.837 82.629,226.235 83.498,226.378 84.016 C 226.521 84.535,226.864 85.283,227.140 85.679 C 227.415 86.075,227.771 86.783,227.930 87.252 C 228.089 87.722,228.439 88.421,228.707 88.807 C 228.976 89.192,229.326 89.892,229.485 90.361 C 229.644 90.831,229.997 91.530,230.269 91.916 C 230.542 92.301,230.852 93.025,230.959 93.523 C 231.065 94.022,231.362 94.727,231.618 95.089 C 231.874 95.452,232.382 96.384,232.745 97.162 C 233.109 97.939,233.514 98.750,233.645 98.964 C 234.074 99.663,235.441 102.701,235.719 103.574 C 235.869 104.043,236.213 104.743,236.483 105.128 C 236.753 105.514,237.124 106.289,237.306 106.851 C 237.489 107.413,237.837 108.086,238.081 108.347 C 238.324 108.609,238.670 109.313,238.850 109.912 C 239.029 110.511,239.396 111.280,239.665 111.622 C 239.934 111.964,240.282 112.720,240.439 113.302 C 240.595 113.884,240.939 114.634,241.202 114.968 C 241.465 115.303,241.818 115.993,241.986 116.502 C 242.154 117.011,242.569 117.836,242.907 118.336 C 243.246 118.835,243.523 119.373,243.523 119.531 C 243.523 119.689,243.869 120.460,244.290 121.244 C 244.712 122.027,245.062 122.830,245.067 123.028 C 245.073 123.226,245.427 123.957,245.855 124.651 C 246.815 126.212,246.875 127.546,246.041 128.785 C 245.716 129.268,245.243 130.208,244.991 130.873 C 244.739 131.539,244.364 132.224,244.157 132.395 C 243.951 132.566,243.782 132.848,243.782 133.021 C 243.782 133.355,243.219 134.566,240.524 140.030 C 239.609 141.885,238.860 143.530,238.860 143.686 C 238.860 143.842,238.574 144.391,238.224 144.907 C 237.874 145.422,237.468 146.284,237.323 146.821 C 237.177 147.358,236.764 148.229,236.405 148.756 C 236.045 149.282,235.751 149.872,235.751 150.065 C 235.751 150.258,235.414 150.948,235.003 151.597 C 234.591 152.247,234.168 153.173,234.062 153.656 C 233.957 154.139,233.659 154.803,233.401 155.133 C 233.142 155.462,232.792 156.162,232.621 156.687 C 232.451 157.213,232.090 157.958,231.820 158.343 C 231.549 158.729,231.198 159.428,231.039 159.898 C 230.880 160.367,230.524 161.075,230.248 161.471 C 229.973 161.867,229.629 162.620,229.484 163.144 C 229.339 163.668,228.941 164.507,228.600 165.010 C 228.259 165.512,227.979 166.100,227.978 166.317 C 227.978 166.533,227.628 167.234,227.202 167.876 C 226.776 168.517,226.426 169.216,226.425 169.430 C 226.424 169.644,226.074 170.343,225.648 170.984 C 225.221 171.626,224.872 172.313,224.872 172.512 C 224.871 172.710,224.462 173.721,223.964 174.758 C 223.465 175.795,223.057 176.755,223.057 176.891 C 223.057 177.027,222.897 177.271,222.702 177.433 C 222.507 177.595,222.141 178.280,221.890 178.954 C 221.638 179.629,221.270 180.369,221.072 180.598 C 220.874 180.827,220.472 181.701,220.178 182.541 C 219.884 183.380,219.494 184.242,219.311 184.456 C 219.127 184.670,218.839 185.274,218.671 185.800 C 218.502 186.325,218.155 187.025,217.899 187.354 C 217.642 187.684,217.293 188.383,217.121 188.909 C 216.950 189.434,216.600 190.134,216.344 190.463 C 216.088 190.793,215.731 191.528,215.550 192.098 C 215.370 192.668,215.021 193.484,214.776 193.912 C 214.530 194.339,214.175 195.097,213.987 195.596 C 213.799 196.095,213.493 196.683,213.306 196.904 C 213.120 197.125,212.792 197.803,212.577 198.411 C 212.363 199.019,211.964 199.830,211.690 200.214 C 211.417 200.598,211.064 201.391,210.907 201.976 C 210.749 202.562,210.394 203.328,210.119 203.678 C 209.843 204.029,209.537 204.656,209.438 205.072 C 209.339 205.488,208.988 206.192,208.659 206.636 C 208.329 207.079,207.979 207.779,207.881 208.190 C 207.784 208.601,207.434 209.301,207.104 209.744 C 206.774 210.188,206.426 210.887,206.330 211.299 C 206.235 211.710,205.894 212.513,205.572 213.083 C 205.251 213.653,204.900 214.411,204.792 214.767 C 204.684 215.123,204.373 215.730,204.102 216.115 C 203.830 216.501,203.476 217.201,203.314 217.670 C 203.153 218.139,202.758 218.931,202.436 219.430 C 202.115 219.929,201.726 220.817,201.573 221.404 C 201.419 221.991,201.074 222.751,200.805 223.093 C 200.536 223.435,200.168 224.208,199.987 224.811 C 199.481 226.502,197.477 225.653,197.016 223.552 C 196.909 223.066,196.500 222.085,196.105 221.373 C 195.711 220.661,195.304 219.792,195.199 219.442 C 195.095 219.093,194.860 218.658,194.678 218.475 C 194.496 218.293,194.137 217.588,193.880 216.909 C 193.623 216.229,193.274 215.530,193.103 215.354 C 192.932 215.179,192.583 214.479,192.327 213.800 C 192.070 213.121,191.535 211.941,191.137 211.178 C 190.740 210.416,190.415 209.643,190.415 209.461 C 190.415 209.280,190.246 208.991,190.040 208.820 C 189.833 208.648,189.458 207.964,189.206 207.298 C 188.954 206.633,188.495 205.713,188.187 205.255 C 187.878 204.797,187.544 203.981,187.445 203.441 C 187.345 202.902,187.064 202.228,186.820 201.943 C 186.575 201.658,186.221 200.959,186.032 200.389 C 185.844 199.819,185.491 199.119,185.248 198.834 C 185.005 198.549,184.651 197.822,184.461 197.219 C 184.272 196.615,183.901 195.927,183.639 195.689 C 183.376 195.451,183.161 195.093,183.161 194.893 C 183.161 194.692,182.694 193.552,182.124 192.358 C 181.554 191.163,181.088 190.077,181.088 189.944 C 181.088 189.810,180.928 189.568,180.733 189.406 C 180.538 189.244,180.169 188.560,179.912 187.885 C 179.656 187.210,179.244 186.367,178.996 186.010 C 178.749 185.654,178.351 184.751,178.112 184.003 C 177.874 183.255,177.571 182.642,177.440 182.642 C 177.309 182.642,177.202 182.484,177.202 182.291 C 177.202 181.986,175.300 178.106,174.009 175.777 C 173.772 175.350,173.578 174.835,173.577 174.634 C 173.576 174.433,173.299 173.792,172.961 173.209 C 172.623 172.627,172.257 171.859,172.149 171.503 C 172.041 171.146,171.731 170.539,171.459 170.154 C 171.188 169.768,170.835 169.069,170.676 168.600 C 170.517 168.130,170.158 167.417,169.878 167.015 C 169.597 166.613,169.211 165.762,169.019 165.124 C 168.827 164.486,168.451 163.649,168.183 163.264 C 167.915 162.880,167.566 162.181,167.407 161.711 C 167.248 161.242,166.898 160.542,166.629 160.157 C 166.361 159.771,166.011 159.072,165.852 158.603 C 165.693 158.133,165.336 157.430,165.058 157.039 C 164.780 156.649,164.469 155.888,164.368 155.348 C 164.267 154.809,163.922 154.055,163.602 153.673 C 163.282 153.292,162.939 152.606,162.839 152.149 C 162.740 151.693,162.454 151.052,162.203 150.725 C 161.953 150.397,161.543 149.605,161.293 148.964 C 161.042 148.323,160.684 147.623,160.496 147.409 C 160.308 147.196,160.001 146.496,159.813 145.855 C 159.626 145.214,159.203 144.290,158.875 143.801 C 158.546 143.313,158.204 142.621,158.114 142.264 C 158.024 141.907,157.675 141.208,157.337 140.710 C 156.999 140.212,156.650 139.505,156.560 139.138 C 156.471 138.771,156.180 138.191,155.914 137.848 C 155.649 137.505,155.253 136.611,155.035 135.862 C 154.817 135.112,154.476 134.364,154.277 134.199 C 154.077 134.033,153.727 133.333,153.497 132.642 C 153.268 131.952,152.918 131.252,152.719 131.087 C 152.521 130.922,152.218 130.360,152.048 129.837 C 151.877 129.314,151.521 128.480,151.257 127.983 C 150.693 126.921,150.652 126.331,151.111 125.860 C 151.294 125.672,151.660 124.935,151.924 124.223 C 152.187 123.510,152.546 122.753,152.722 122.539 C 152.898 122.325,153.238 121.547,153.478 120.810 C 153.718 120.073,154.076 119.335,154.275 119.171 C 154.473 119.007,154.822 118.307,155.052 117.617 C 155.281 116.926,155.631 116.227,155.829 116.062 C 156.027 115.898,156.377 115.198,156.606 114.508 C 156.836 113.817,157.184 113.119,157.381 112.955 C 157.578 112.792,157.817 112.302,157.913 111.865 C 158.009 111.429,159.061 109.135,160.252 106.767 C 161.443 104.399,162.599 101.942,162.822 101.308 C 163.044 100.674,163.395 99.969,163.601 99.741 C 163.807 99.513,164.151 98.829,164.366 98.222 C 164.580 97.614,164.991 96.817,165.279 96.451 C 165.567 96.085,165.803 95.655,165.804 95.496 C 165.804 95.337,166.212 94.398,166.711 93.409 C 167.209 92.419,167.617 91.439,167.617 91.231 C 167.617 91.023,167.890 90.491,168.223 90.050 C 168.557 89.609,168.916 88.899,169.021 88.472 C 169.125 88.044,169.475 87.345,169.798 86.917 C 170.120 86.490,170.468 85.790,170.571 85.363 C 170.673 84.935,171.027 84.173,171.356 83.669 C 171.686 83.165,172.041 82.349,172.146 81.855 C 172.250 81.362,172.552 80.722,172.817 80.433 C 173.082 80.144,173.480 79.392,173.703 78.762 C 173.925 78.132,174.261 77.436,174.448 77.215 C 174.636 76.994,174.993 76.289,175.241 75.648 C 175.488 75.006,175.836 74.307,176.013 74.093 C 176.191 73.880,176.485 73.180,176.668 72.539 C 176.852 71.898,177.226 71.058,177.500 70.672 C 177.774 70.287,178.128 69.587,178.287 69.118 C 178.447 68.648,178.796 67.949,179.065 67.563 C 179.333 67.178,179.681 66.478,179.839 66.009 C 179.996 65.539,180.283 64.972,180.475 64.749 C 180.667 64.525,181.060 63.659,181.347 62.824 C 181.634 61.989,182.040 61.117,182.249 60.886 C 182.458 60.655,182.804 59.969,183.019 59.361 C 183.233 58.754,183.644 57.957,183.932 57.591 C 184.220 57.225,184.456 56.795,184.457 56.636 C 184.457 56.477,184.865 55.538,185.363 54.549 C 185.862 53.559,186.269 52.587,186.269 52.387 C 186.269 52.188,186.502 51.729,186.787 51.367 C 187.071 51.005,187.419 50.283,187.559 49.761 C 187.700 49.239,188.033 48.578,188.300 48.292 C 188.566 48.006,188.983 47.174,189.225 46.445 C 189.467 45.715,189.821 44.989,190.011 44.831 C 190.201 44.673,190.483 44.043,190.637 43.430 C 190.792 42.818,191.137 42.035,191.406 41.689 C 191.674 41.344,192.034 40.632,192.205 40.107 C 192.376 39.581,192.726 38.882,192.982 38.552 C 193.238 38.223,193.588 37.523,193.759 36.998 C 193.931 36.473,194.281 35.773,194.539 35.444 C 194.796 35.114,195.087 34.553,195.186 34.197 C 195.631 32.594,197.810 28.548,198.432 28.170 C 199.387 27.589,199.469 27.618,199.885 28.692 M198.163 53.726 C 197.797 54.066,197.350 54.736,197.170 55.216 C 196.989 55.696,196.094 57.604,195.180 59.456 C 194.266 61.308,193.519 62.931,193.520 63.063 C 193.522 63.194,193.361 63.485,193.162 63.710 C 192.963 63.935,192.619 64.658,192.398 65.318 C 192.178 65.977,191.699 66.955,191.335 67.491 C 190.971 68.027,190.671 68.654,190.669 68.883 C 190.666 69.113,190.317 69.814,189.892 70.441 C 189.467 71.068,189.119 71.780,189.119 72.025 C 189.119 72.269,188.901 72.747,188.633 73.087 C 188.366 73.427,187.967 74.229,187.746 74.870 C 187.526 75.512,186.458 77.785,185.373 79.922 C 184.288 82.060,183.218 84.333,182.994 84.974 C 182.771 85.615,182.436 86.315,182.249 86.528 C 182.062 86.742,181.706 87.442,181.458 88.083 C 181.210 88.724,180.861 89.424,180.681 89.637 C 180.501 89.851,180.152 90.551,179.904 91.192 C 179.656 91.833,179.311 92.532,179.138 92.746 C 178.965 92.960,178.628 93.735,178.389 94.469 C 178.150 95.204,177.727 96.067,177.449 96.387 C 177.171 96.708,176.943 97.133,176.943 97.332 C 176.943 97.785,176.216 99.210,175.744 99.682 C 175.548 99.877,175.387 100.233,175.385 100.472 C 175.384 100.711,175.080 101.431,174.710 102.073 C 174.340 102.714,173.875 103.778,173.676 104.438 C 173.477 105.098,173.146 105.777,172.941 105.947 C 172.735 106.118,172.380 106.822,172.150 107.513 C 171.921 108.203,171.571 108.903,171.373 109.067 C 171.175 109.232,170.825 109.931,170.596 110.622 C 170.367 111.312,170.011 112.016,169.806 112.186 C 169.601 112.356,169.308 112.977,169.154 113.566 C 168.999 114.155,168.610 115.045,168.289 115.544 C 167.968 116.043,167.573 116.835,167.411 117.304 C 167.250 117.774,166.898 118.473,166.629 118.859 C 166.361 119.244,166.011 119.944,165.852 120.413 C 165.693 120.882,165.340 121.582,165.068 121.967 C 164.795 122.353,164.485 123.072,164.378 123.565 C 164.271 124.058,163.896 124.897,163.544 125.428 C 162.832 126.504,162.885 127.490,163.713 128.550 C 163.968 128.877,164.265 129.437,164.372 129.793 C 164.479 130.149,164.815 130.848,165.119 131.347 C 165.660 132.234,166.368 133.801,167.403 136.399 C 167.687 137.111,168.081 137.875,168.279 138.096 C 168.477 138.317,168.820 139.010,169.041 139.637 C 169.263 140.264,169.624 140.976,169.843 141.219 C 170.063 141.462,170.406 142.202,170.605 142.864 C 170.804 143.526,171.197 144.389,171.477 144.782 C 171.757 145.176,172.071 145.841,172.174 146.259 C 172.277 146.678,172.626 147.370,172.948 147.798 C 173.271 148.225,173.620 148.917,173.724 149.335 C 173.829 149.753,174.187 150.498,174.521 150.990 C 174.855 151.482,175.256 152.364,175.412 152.950 C 175.568 153.536,175.842 154.190,176.020 154.404 C 176.199 154.618,176.547 155.317,176.795 155.959 C 177.043 156.600,177.393 157.299,177.572 157.513 C 177.752 157.727,178.102 158.426,178.349 159.067 C 178.597 159.709,178.953 160.408,179.140 160.622 C 179.327 160.835,179.662 161.535,179.885 162.176 C 180.107 162.817,181.225 165.186,182.367 167.439 C 183.510 169.692,184.583 171.995,184.751 172.556 C 184.919 173.116,185.146 173.575,185.256 173.575 C 185.365 173.575,185.701 174.233,186.002 175.037 C 186.303 175.841,186.777 176.789,187.057 177.144 C 187.336 177.499,187.565 177.990,187.565 178.234 C 187.565 178.479,187.912 179.192,188.337 179.819 C 188.762 180.446,189.112 181.133,189.114 181.347 C 189.119 181.711,190.289 184.296,191.108 185.751 C 191.308 186.108,191.657 186.807,191.882 187.306 C 192.107 187.804,192.457 188.504,192.659 188.860 C 192.861 189.216,193.207 189.916,193.427 190.415 C 193.784 191.223,194.278 192.283,195.720 195.337 C 195.955 195.835,196.307 196.535,196.503 196.891 C 196.698 197.247,197.045 197.976,197.275 198.510 C 198.078 200.378,199.490 200.643,200.020 199.025 C 200.195 198.493,200.596 197.707,200.912 197.280 C 201.228 196.852,201.566 196.166,201.664 195.755 C 201.761 195.343,202.114 194.644,202.447 194.200 C 202.780 193.757,203.135 193.002,203.237 192.524 C 203.338 192.046,203.701 191.242,204.042 190.739 C 204.384 190.236,204.664 189.636,204.664 189.407 C 204.665 189.177,205.014 188.465,205.440 187.824 C 205.867 187.183,206.216 186.483,206.218 186.269 C 206.219 186.056,206.569 185.356,206.995 184.715 C 207.421 184.074,207.771 183.374,207.772 183.161 C 207.773 182.947,208.181 181.963,208.680 180.973 C 209.178 179.984,209.585 179.037,209.585 178.868 C 209.585 178.699,209.754 178.421,209.960 178.250 C 210.167 178.078,210.542 177.394,210.794 176.728 C 211.046 176.063,211.510 175.135,211.825 174.668 C 212.140 174.200,212.469 173.493,212.556 173.097 C 212.643 172.702,213.759 170.298,215.036 167.755 C 216.313 165.213,217.358 162.924,217.358 162.670 C 217.358 162.415,217.470 162.138,217.606 162.053 C 217.923 161.857,222.021 153.541,222.021 153.094 C 222.021 152.911,222.186 152.577,222.389 152.352 C 222.591 152.127,223.009 151.302,223.316 150.518 C 223.624 149.734,224.026 148.918,224.211 148.705 C 224.395 148.491,224.684 147.886,224.852 147.361 C 225.021 146.835,225.374 146.132,225.637 145.797 C 225.901 145.463,226.244 144.713,226.401 144.131 C 226.557 143.549,226.911 142.786,227.187 142.436 C 227.463 142.085,227.769 141.458,227.868 141.042 C 227.966 140.626,228.317 139.922,228.647 139.478 C 228.977 139.035,229.327 138.335,229.424 137.924 C 229.522 137.513,229.872 136.813,230.202 136.370 C 230.531 135.926,230.881 135.227,230.978 134.815 C 231.075 134.404,231.425 133.543,231.756 132.902 C 232.086 132.260,232.536 131.328,232.754 130.829 C 232.972 130.330,233.394 129.514,233.692 129.016 C 234.441 127.760,234.275 125.409,233.323 123.784 C 232.949 123.145,232.640 122.458,232.638 122.257 C 232.635 122.056,232.285 121.378,231.861 120.751 C 231.436 120.124,231.088 119.418,231.088 119.182 C 231.088 118.946,230.794 118.355,230.435 117.868 C 230.075 117.381,229.662 116.540,229.517 115.999 C 229.371 115.458,228.965 114.593,228.616 114.078 C 228.266 113.562,227.979 112.946,227.979 112.709 C 227.979 112.472,227.630 111.726,227.202 111.052 C 226.775 110.378,226.425 109.679,226.425 109.498 C 226.425 109.317,226.075 108.617,225.648 107.943 C 225.220 107.269,224.870 106.564,224.870 106.377 C 224.870 106.189,224.599 105.523,224.267 104.896 C 223.935 104.269,223.453 103.203,223.195 102.526 C 222.938 101.849,222.641 101.295,222.535 101.295 C 222.429 101.295,222.081 100.596,221.762 99.741 C 221.442 98.886,221.086 98.187,220.970 98.187 C 220.855 98.187,220.680 97.924,220.582 97.604 C 220.349 96.841,218.859 93.657,216.187 88.212 C 214.999 85.790,213.946 83.517,213.848 83.161 C 213.750 82.804,213.511 82.332,213.318 82.111 C 213.125 81.891,212.792 81.213,212.577 80.605 C 212.363 79.997,211.969 79.187,211.703 78.804 C 211.437 78.422,211.089 77.725,210.930 77.255 C 210.771 76.786,210.418 76.087,210.145 75.701 C 209.873 75.315,209.569 74.625,209.469 74.167 C 209.370 73.708,209.031 72.951,208.716 72.483 C 208.401 72.015,207.937 71.088,207.685 70.422 C 207.433 69.756,207.058 69.072,206.852 68.901 C 206.645 68.729,206.477 68.451,206.477 68.282 C 206.477 68.114,206.069 67.166,205.571 66.177 C 205.072 65.188,204.664 64.203,204.663 63.990 C 204.662 63.776,204.312 63.076,203.886 62.435 C 203.460 61.794,203.110 61.095,203.109 60.881 C 203.108 60.667,202.758 59.968,202.332 59.326 C 201.905 58.685,201.556 57.973,201.556 57.743 C 201.555 57.514,201.264 56.898,200.908 56.374 C 200.553 55.850,200.131 54.901,199.971 54.265 C 199.634 52.927,199.173 52.790,198.163 53.726 " stroke="none" fill="#fcfcfc" fill-rule="evenodd"></path></g></svg>