<svg id="svg" version="1.1" xmlns="http://www.w3.org/2000/svg" xmlns:xlink="http://www.w3.org/1999/xlink" width="400" height="258.91472868217056" viewBox="0, 0, 400,258.91472868217056"><g id="svgg"><path id="path0" d="M142.870 31.915 C 142.771 32.244,142.365 33.038,141.967 33.679 C 141.570 34.320,141.168 35.209,141.075 35.655 C 140.982 36.100,140.620 36.851,140.271 37.324 C 139.923 37.797,139.637 38.377,139.637 38.612 C 139.637 38.848,139.290 39.554,138.865 40.181 C 138.440 40.808,138.090 41.502,138.088 41.724 C 138.085 41.945,137.753 42.646,137.350 43.282 C 136.947 43.917,136.542 44.817,136.449 45.281 C 136.356 45.746,135.986 46.558,135.627 47.087 C 135.268 47.615,134.972 48.225,134.969 48.441 C 134.967 48.657,134.617 49.347,134.192 49.974 C 133.767 50.601,133.420 51.307,133.420 51.543 C 133.420 51.779,133.126 52.370,132.766 52.857 C 132.407 53.344,131.990 54.212,131.840 54.786 C 131.690 55.360,131.285 56.264,130.939 56.795 C 130.594 57.326,130.311 57.915,130.311 58.104 C 130.311 58.293,129.961 58.999,129.534 59.673 C 129.106 60.347,128.756 61.026,128.756 61.182 C 128.756 61.338,128.419 62.063,128.007 62.792 C 127.594 63.522,127.179 64.490,127.083 64.943 C 126.988 65.396,126.748 65.901,126.551 66.065 C 126.354 66.228,125.992 66.907,125.747 67.572 C 125.502 68.238,125.152 68.959,124.970 69.176 C 124.788 69.392,124.384 70.237,124.071 71.054 C 123.759 71.871,123.409 72.539,123.293 72.539 C 123.178 72.539,122.879 73.209,122.628 74.028 C 122.378 74.848,121.971 75.788,121.723 76.117 C 121.476 76.447,121.135 77.146,120.966 77.672 C 120.798 78.197,120.512 78.802,120.331 79.016 C 119.938 79.481,118.006 83.539,117.742 84.456 C 117.639 84.812,117.404 85.278,117.219 85.492 C 117.034 85.706,116.680 86.405,116.432 87.047 C 116.185 87.688,115.835 88.387,115.655 88.601 C 115.475 88.815,115.126 89.514,114.878 90.155 C 114.630 90.797,114.280 91.496,114.101 91.710 C 113.921 91.924,113.577 92.623,113.335 93.264 C 112.752 94.813,111.138 98.217,110.755 98.705 C 110.588 98.918,110.250 99.638,110.004 100.303 C 109.759 100.969,109.397 101.647,109.200 101.811 C 109.003 101.975,108.763 102.479,108.668 102.932 C 108.572 103.386,108.221 104.281,107.887 104.922 C 107.553 105.563,107.106 106.496,106.893 106.995 C 106.679 107.494,106.327 108.193,106.109 108.549 C 105.891 108.905,105.542 109.605,105.332 110.104 C 105.122 110.602,104.781 111.302,104.573 111.658 C 104.366 112.014,103.848 113.063,103.422 113.990 C 101.868 117.368,101.563 118.013,101.333 118.394 C 100.631 119.562,99.260 122.558,99.104 123.267 C 99.005 123.718,98.824 124.149,98.701 124.225 C 97.479 124.980,97.331 128.180,98.441 129.819 C 98.866 130.446,99.215 131.124,99.218 131.326 C 99.221 131.528,99.555 132.286,99.960 133.010 C 100.366 133.734,100.781 134.669,100.884 135.088 C 100.987 135.507,101.300 136.172,101.581 136.566 C 101.862 136.960,102.222 137.667,102.381 138.136 C 102.540 138.606,102.888 139.303,103.154 139.685 C 103.420 140.067,103.796 140.827,103.988 141.374 C 104.181 141.920,104.586 142.773,104.889 143.269 C 105.191 143.765,105.439 144.352,105.439 144.574 C 105.440 144.795,105.790 145.528,106.218 146.202 C 106.645 146.876,106.995 147.575,106.995 147.756 C 106.995 147.937,107.345 148.637,107.772 149.311 C 108.199 149.985,108.549 150.678,108.550 150.851 C 108.550 151.024,108.885 151.807,109.295 152.591 C 109.704 153.374,110.127 154.307,110.235 154.663 C 110.343 155.019,110.653 155.626,110.924 156.012 C 111.196 156.397,111.548 157.097,111.707 157.566 C 111.866 158.036,112.195 158.711,112.439 159.067 C 112.682 159.424,113.029 160.181,113.209 160.751 C 113.390 161.321,113.687 161.962,113.871 162.176 C 114.055 162.390,114.442 163.190,114.731 163.954 C 115.021 164.718,115.424 165.534,115.627 165.767 C 115.830 166.001,116.135 166.622,116.303 167.147 C 116.472 167.672,116.820 168.372,117.078 168.701 C 117.335 169.031,117.636 169.592,117.746 169.948 C 117.857 170.304,118.325 171.412,118.786 172.409 C 119.248 173.407,119.706 174.485,119.804 174.806 C 119.903 175.126,120.078 175.389,120.193 175.389 C 120.309 175.389,120.665 176.088,120.984 176.943 C 121.304 177.798,121.652 178.497,121.758 178.497 C 121.864 178.497,122.161 179.051,122.418 179.728 C 122.676 180.405,123.158 181.471,123.490 182.098 C 123.822 182.725,124.093 183.379,124.093 183.552 C 124.093 183.724,124.383 184.293,124.738 184.815 C 125.092 185.337,125.457 186.082,125.549 186.470 C 125.641 186.859,125.980 187.532,126.303 187.966 C 126.626 188.400,127.008 189.184,127.153 189.707 C 127.297 190.231,127.646 190.983,127.927 191.379 C 128.208 191.775,128.558 192.532,128.704 193.063 C 128.850 193.593,129.195 194.351,129.471 194.746 C 129.747 195.142,130.103 195.850,130.262 196.320 C 130.421 196.789,130.773 197.489,131.045 197.874 C 131.316 198.260,131.626 198.867,131.734 199.223 C 131.842 199.579,132.265 200.512,132.674 201.295 C 133.084 202.079,133.419 202.884,133.419 203.084 C 133.419 203.285,133.705 203.822,134.054 204.280 C 134.402 204.737,134.767 205.447,134.865 205.858 C 134.962 206.270,135.301 206.956,135.619 207.383 C 135.936 207.811,136.278 208.452,136.380 208.808 C 136.481 209.165,136.834 209.981,137.163 210.622 C 137.492 211.263,137.898 212.215,138.065 212.738 C 138.232 213.261,138.531 213.824,138.730 213.989 C 138.928 214.154,139.278 214.854,139.508 215.544 C 139.737 216.235,140.087 216.934,140.285 217.098 C 140.483 217.263,140.827 217.942,141.049 218.608 C 141.586 220.217,143.089 223.128,143.443 223.246 C 143.598 223.298,143.981 222.811,144.294 222.164 C 144.607 221.517,144.961 220.927,145.080 220.853 C 145.200 220.780,145.498 220.115,145.744 219.375 C 145.989 218.636,146.388 217.818,146.631 217.558 C 146.874 217.297,147.216 216.606,147.391 216.023 C 147.565 215.439,147.923 214.731,148.185 214.450 C 148.447 214.169,148.736 213.642,148.827 213.279 C 148.999 212.591,150.616 208.967,151.052 208.290 C 151.189 208.076,151.533 207.377,151.816 206.736 C 152.099 206.095,152.450 205.395,152.596 205.181 C 152.741 204.968,153.042 204.385,153.265 203.886 C 153.488 203.387,153.933 202.396,154.255 201.684 C 154.577 200.972,154.994 199.981,155.183 199.482 C 155.372 198.983,155.672 198.400,155.850 198.187 C 156.028 197.973,156.377 197.273,156.625 196.632 C 156.872 195.991,157.222 195.291,157.402 195.078 C 157.582 194.864,157.931 194.165,158.179 193.523 C 158.427 192.882,158.767 192.183,158.934 191.969 C 159.102 191.755,159.449 190.997,159.707 190.285 C 159.964 189.573,160.324 188.815,160.506 188.601 C 160.688 188.387,161.042 187.688,161.293 187.047 C 161.543 186.405,161.953 185.613,162.203 185.286 C 162.454 184.958,162.740 184.320,162.839 183.868 C 162.939 183.415,163.278 182.634,163.593 182.131 C 163.908 181.629,164.252 180.868,164.357 180.440 C 164.462 180.013,164.814 179.313,165.138 178.886 C 165.463 178.459,165.817 177.817,165.925 177.461 C 166.033 177.105,166.370 176.405,166.674 175.907 C 167.214 175.020,167.922 173.453,168.957 170.855 C 169.241 170.142,169.635 169.379,169.833 169.158 C 170.032 168.937,170.375 168.244,170.596 167.617 C 170.817 166.990,171.178 166.278,171.398 166.035 C 171.618 165.792,171.961 165.052,172.160 164.390 C 172.359 163.728,172.751 162.865,173.031 162.471 C 173.311 162.078,173.625 161.421,173.727 161.012 C 173.830 160.603,174.187 159.865,174.521 159.373 C 174.855 158.881,175.250 158.028,175.398 157.477 C 175.546 156.927,175.762 156.477,175.877 156.477 C 176.097 156.477,176.787 154.999,177.088 153.886 C 177.185 153.530,177.406 153.063,177.581 152.850 C 177.756 152.636,178.102 151.937,178.349 151.295 C 178.597 150.654,178.947 149.955,179.127 149.741 C 179.306 149.527,179.656 148.828,179.904 148.187 C 180.152 147.545,180.500 146.846,180.679 146.632 C 180.857 146.418,181.153 145.835,181.337 145.337 C 181.661 144.460,185.671 136.089,186.940 133.641 C 187.284 132.978,187.565 132.270,187.565 132.066 C 187.565 131.862,187.926 131.150,188.367 130.485 C 189.663 128.528,189.704 126.700,188.507 124.277 C 187.989 123.229,187.565 122.191,187.565 121.972 C 187.565 121.752,187.329 121.273,187.041 120.907 C 186.753 120.541,186.342 119.744,186.128 119.136 C 185.913 118.528,185.569 117.844,185.363 117.617 C 185.156 117.389,184.812 116.705,184.598 116.097 C 184.383 115.489,183.972 114.693,183.684 114.326 C 183.396 113.960,183.161 113.465,183.161 113.226 C 183.161 112.987,182.166 110.817,180.951 108.404 C 179.735 105.990,178.557 103.491,178.333 102.850 C 178.109 102.209,177.766 101.503,177.570 101.282 C 177.375 101.062,177.035 100.368,176.813 99.741 C 176.592 99.114,176.249 98.420,176.051 98.199 C 175.853 97.979,175.486 97.273,175.236 96.632 C 174.986 95.991,174.581 95.205,174.337 94.886 C 174.092 94.566,173.811 93.867,173.712 93.331 C 173.613 92.796,173.268 92.008,172.947 91.580 C 172.625 91.153,172.276 90.453,172.171 90.026 C 172.066 89.598,171.716 88.899,171.394 88.472 C 171.071 88.044,170.722 87.345,170.617 86.917 C 170.512 86.490,170.158 85.788,169.831 85.358 C 169.505 84.929,169.155 84.094,169.056 83.503 C 168.956 82.913,168.654 82.231,168.386 81.987 C 168.117 81.744,167.711 80.985,167.484 80.300 C 167.256 79.616,166.908 78.921,166.709 78.756 C 166.510 78.591,166.213 78.028,166.048 77.505 C 165.883 76.982,165.479 76.146,165.152 75.648 C 164.824 75.149,164.473 74.333,164.370 73.834 C 164.268 73.335,163.961 72.612,163.689 72.226 C 163.416 71.841,163.063 71.141,162.904 70.672 C 162.745 70.203,162.395 69.503,162.127 69.118 C 161.859 68.732,161.509 68.033,161.350 67.563 C 161.191 67.094,160.859 66.418,160.613 66.062 C 160.366 65.706,159.968 64.832,159.727 64.119 C 159.486 63.407,159.126 62.643,158.926 62.422 C 158.726 62.202,158.382 61.508,158.161 60.881 C 157.939 60.254,157.590 59.554,157.383 59.326 C 157.177 59.099,156.833 58.415,156.619 57.807 C 156.404 57.199,155.996 56.406,155.712 56.045 C 155.428 55.684,155.117 54.972,155.022 54.465 C 154.926 53.957,154.571 53.132,154.231 52.632 C 153.892 52.131,153.540 51.430,153.451 51.073 C 153.361 50.715,153.011 50.016,152.674 49.518 C 152.336 49.020,151.989 48.313,151.902 47.946 C 151.816 47.580,151.539 47.047,151.286 46.762 C 151.033 46.477,150.641 45.612,150.414 44.840 C 150.188 44.069,149.842 43.253,149.645 43.027 C 149.449 42.801,149.150 42.187,148.982 41.661 C 148.813 41.136,148.466 40.436,148.209 40.107 C 147.953 39.777,147.604 39.078,147.432 38.552 C 147.261 38.027,146.905 37.323,146.642 36.989 C 146.379 36.654,146.037 35.919,145.883 35.354 C 145.188 32.813,143.261 30.613,142.870 31.915 M252.986 32.371 C 252.769 32.791,252.591 33.301,252.591 33.505 C 252.591 33.708,252.424 34.013,252.220 34.182 C 252.016 34.351,251.615 35.183,251.329 36.031 C 251.043 36.879,250.568 37.878,250.275 38.251 C 249.981 38.625,249.741 39.130,249.741 39.374 C 249.741 39.619,249.393 40.331,248.968 40.958 C 248.544 41.585,248.194 42.256,248.191 42.449 C 248.189 42.642,247.905 43.341,247.561 44.003 C 245.917 47.168,242.204 54.916,241.855 55.911 C 241.639 56.525,241.226 57.328,240.938 57.694 C 240.650 58.060,240.415 58.560,240.415 58.804 C 240.415 59.049,240.067 59.761,239.642 60.388 C 239.217 61.015,238.867 61.670,238.865 61.844 C 238.858 62.299,238.020 63.990,237.802 63.990 C 237.700 63.990,237.478 64.567,237.309 65.272 C 237.140 65.978,236.843 66.686,236.649 66.847 C 236.455 67.008,236.094 67.684,235.846 68.349 C 235.598 69.015,235.191 69.829,234.940 70.159 C 234.690 70.488,234.348 71.174,234.180 71.684 C 234.012 72.193,233.597 73.018,233.258 73.517 C 232.920 74.016,232.642 74.677,232.642 74.985 C 232.642 75.294,232.293 76.098,231.865 76.772 C 231.438 77.446,231.088 78.145,231.088 78.326 C 231.088 78.507,230.751 79.186,230.340 79.834 C 229.929 80.483,229.506 81.293,229.400 81.634 C 229.295 81.975,228.943 82.720,228.619 83.290 C 228.295 83.860,227.953 84.697,227.858 85.150 C 227.764 85.604,227.526 86.108,227.329 86.272 C 227.132 86.435,226.767 87.114,226.520 87.779 C 226.272 88.445,225.864 89.259,225.614 89.589 C 225.364 89.918,225.021 90.618,224.852 91.143 C 224.684 91.669,224.389 92.279,224.197 92.500 C 224.005 92.721,223.668 93.420,223.448 94.054 C 223.004 95.333,221.303 98.875,220.842 99.482 C 220.680 99.696,220.344 100.395,220.096 101.036 C 219.848 101.677,219.491 102.377,219.303 102.591 C 219.114 102.804,218.822 103.504,218.653 104.145 C 218.484 104.786,218.191 105.486,218.003 105.699 C 217.814 105.913,217.457 106.613,217.210 107.254 C 216.962 107.895,216.612 108.595,216.432 108.808 C 216.253 109.022,215.903 109.722,215.655 110.363 C 215.407 111.004,215.049 111.711,214.858 111.935 C 214.668 112.159,214.277 113.025,213.990 113.860 C 213.702 114.695,213.308 115.561,213.114 115.785 C 212.919 116.009,212.622 116.622,212.453 117.147 C 212.285 117.672,211.937 118.372,211.681 118.701 C 211.425 119.031,211.075 119.730,210.904 120.256 C 210.732 120.781,210.377 121.485,210.114 121.819 C 209.851 122.154,209.509 122.890,209.355 123.455 C 209.200 124.020,208.839 124.864,208.552 125.330 C 207.924 126.353,207.837 128.532,208.406 129.004 C 208.612 129.175,208.984 129.860,209.232 130.526 C 209.480 131.191,209.893 132.013,210.151 132.352 C 210.409 132.692,210.746 133.437,210.900 134.008 C 211.054 134.580,211.462 135.495,211.807 136.042 C 212.153 136.589,212.435 137.126,212.435 137.236 C 212.436 137.345,213.064 138.677,213.832 140.195 C 214.600 141.712,215.372 143.403,215.548 143.951 C 215.724 144.499,216.010 145.123,216.182 145.337 C 216.647 145.914,219.873 152.540,220.337 153.873 C 220.558 154.507,220.895 155.207,221.085 155.428 C 221.276 155.648,221.638 156.381,221.890 157.056 C 222.141 157.731,222.507 158.415,222.702 158.577 C 222.897 158.739,223.057 158.983,223.057 159.119 C 223.057 159.255,223.465 160.215,223.964 161.252 C 224.462 162.289,224.870 163.289,224.870 163.474 C 224.870 163.660,225.156 164.185,225.504 164.642 C 225.853 165.099,226.218 165.810,226.316 166.221 C 226.413 166.632,226.763 167.332,227.093 167.775 C 227.423 168.219,227.774 168.919,227.874 169.330 C 227.973 169.741,228.275 170.393,228.544 170.777 C 228.813 171.162,229.190 171.999,229.382 172.637 C 229.574 173.275,229.960 174.126,230.240 174.528 C 230.520 174.930,230.880 175.643,231.039 176.112 C 231.198 176.582,231.566 177.299,231.856 177.707 C 232.146 178.114,232.384 178.546,232.384 178.667 C 232.385 178.787,232.793 179.695,233.291 180.685 C 233.789 181.674,234.197 182.654,234.197 182.862 C 234.197 183.071,234.482 183.615,234.831 184.072 C 235.179 184.529,235.544 185.240,235.642 185.651 C 235.740 186.062,236.089 186.762,236.419 187.206 C 236.749 187.649,237.101 188.349,237.202 188.760 C 237.303 189.171,237.717 190.100,238.123 190.824 C 238.528 191.548,238.860 192.319,238.860 192.537 C 238.860 192.755,239.132 193.333,239.464 193.823 C 239.796 194.312,240.200 195.091,240.361 195.554 C 240.523 196.017,240.876 196.711,241.146 197.097 C 241.417 197.482,241.785 198.264,241.966 198.834 C 242.146 199.404,242.441 200.045,242.622 200.259 C 242.803 200.473,243.132 201.187,243.353 201.846 C 243.574 202.505,244.052 203.483,244.416 204.020 C 244.780 204.556,245.080 205.182,245.082 205.412 C 245.085 205.641,245.435 206.342,245.860 206.969 C 246.285 207.596,246.632 208.309,246.632 208.553 C 246.632 208.798,246.851 209.276,247.118 209.615 C 247.385 209.955,247.802 210.816,248.044 211.528 C 248.285 212.241,248.631 212.999,248.811 213.212 C 248.992 213.426,249.405 214.271,249.729 215.091 C 250.054 215.910,250.422 216.580,250.548 216.580 C 250.674 216.580,250.777 216.747,250.777 216.950 C 250.777 217.153,251.159 218.057,251.626 218.958 C 252.092 219.859,252.638 221.097,252.837 221.710 C 253.037 222.323,253.289 222.879,253.398 222.946 C 253.859 223.231,255.422 221.433,255.845 220.130 C 256.087 219.389,256.434 218.608,256.618 218.394 C 256.801 218.180,257.154 217.481,257.402 216.839 C 257.650 216.198,257.999 215.499,258.179 215.285 C 258.359 215.071,258.708 214.372,258.956 213.731 C 259.204 213.089,259.555 212.390,259.736 212.176 C 259.918 211.962,260.262 211.205,260.501 210.492 C 260.739 209.780,261.088 209.022,261.275 208.808 C 261.462 208.595,261.819 207.895,262.068 207.254 C 262.317 206.613,262.720 205.797,262.962 205.440 C 263.205 205.084,263.492 204.501,263.600 204.145 C 263.708 203.789,264.062 203.031,264.386 202.461 C 264.710 201.891,265.055 201.043,265.152 200.577 C 265.249 200.110,265.595 199.411,265.921 199.022 C 266.247 198.634,266.596 197.934,266.698 197.468 C 266.800 197.001,267.147 196.302,267.470 195.913 C 267.792 195.525,268.140 194.865,268.242 194.446 C 268.344 194.027,268.657 193.362,268.938 192.969 C 269.218 192.575,269.604 191.732,269.796 191.094 C 269.988 190.456,270.375 189.605,270.655 189.203 C 270.935 188.801,271.294 188.087,271.453 187.618 C 271.613 187.149,271.980 186.431,272.270 186.024 C 272.560 185.616,272.798 185.184,272.799 185.064 C 272.799 184.943,273.207 184.035,273.705 183.046 C 274.204 182.057,274.611 181.052,274.611 180.814 C 274.611 180.576,274.847 180.081,275.135 179.715 C 275.423 179.349,275.835 178.551,276.049 177.942 C 276.264 177.333,276.537 176.772,276.655 176.695 C 276.973 176.488,277.720 174.957,277.720 174.513 C 277.720 174.303,277.900 173.950,278.120 173.730 C 278.340 173.510,278.749 172.665,279.029 171.851 C 279.309 171.038,279.694 170.190,279.884 169.966 C 280.075 169.743,280.433 169.035,280.681 168.394 C 280.929 167.753,281.284 167.053,281.471 166.839 C 281.658 166.626,281.988 165.926,282.205 165.285 C 282.422 164.644,282.888 163.595,283.241 162.953 C 283.595 162.312,283.970 161.502,284.074 161.152 C 284.179 160.802,284.414 160.367,284.596 160.185 C 284.779 160.003,285.138 159.298,285.394 158.619 C 285.651 157.939,286.001 157.240,286.172 157.064 C 286.342 156.889,286.693 156.193,286.951 155.518 C 287.209 154.843,287.627 153.883,287.881 153.386 C 288.134 152.888,288.342 152.347,288.342 152.183 C 288.342 152.020,288.619 151.477,288.958 150.978 C 289.297 150.479,289.711 149.654,289.879 149.145 C 290.047 148.636,290.390 147.949,290.640 147.620 C 290.890 147.290,291.312 146.438,291.577 145.725 C 291.842 145.013,292.271 144.080,292.531 143.653 C 292.791 143.225,293.004 142.701,293.005 142.487 C 293.006 142.273,293.356 141.574,293.782 140.933 C 294.209 140.291,294.558 139.592,294.560 139.378 C 294.561 139.165,294.911 138.465,295.337 137.824 C 295.763 137.183,296.112 136.470,296.113 136.241 C 296.113 136.011,296.400 135.402,296.750 134.886 C 297.100 134.370,297.509 133.495,297.658 132.941 C 297.807 132.386,298.156 131.644,298.434 131.291 C 299.708 129.672,300.242 127.082,299.615 125.564 C 299.113 124.348,297.769 121.451,297.249 120.466 C 297.062 120.110,296.717 119.411,296.484 118.912 C 296.252 118.413,295.902 117.714,295.707 117.358 C 295.513 117.001,295.162 116.302,294.928 115.803 C 294.693 115.304,294.165 114.240,293.754 113.439 C 293.342 112.637,293.005 111.819,293.005 111.621 C 293.005 111.422,292.733 110.854,292.400 110.358 C 292.067 109.862,291.663 109.072,291.502 108.603 C 291.342 108.133,290.989 107.434,290.719 107.048 C 290.449 106.663,290.080 105.881,289.900 105.311 C 289.719 104.741,289.424 104.100,289.243 103.886 C 289.062 103.672,288.719 102.915,288.480 102.202 C 288.241 101.490,287.882 100.726,287.682 100.505 C 287.483 100.284,287.138 99.591,286.917 98.964 C 286.696 98.337,286.353 97.643,286.155 97.422 C 285.957 97.201,285.592 96.496,285.344 95.855 C 285.096 95.214,284.746 94.514,284.565 94.301 C 284.385 94.087,284.154 93.562,284.051 93.135 C 283.852 92.303,283.199 90.887,282.917 90.674 C 282.823 90.602,282.537 89.988,282.282 89.309 C 282.027 88.629,281.670 87.924,281.488 87.742 C 281.305 87.560,281.071 87.125,280.966 86.775 C 280.861 86.426,280.486 85.615,280.132 84.974 C 279.779 84.333,279.313 83.284,279.096 82.642 C 278.880 82.001,278.550 81.302,278.363 81.088 C 278.176 80.874,277.820 80.175,277.572 79.534 C 277.324 78.892,276.975 78.193,276.795 77.979 C 276.615 77.766,276.263 77.066,276.013 76.425 C 275.763 75.784,275.358 74.998,275.114 74.678 C 274.870 74.359,274.589 73.660,274.489 73.124 C 274.390 72.588,274.046 71.801,273.724 71.373 C 273.402 70.946,273.053 70.246,272.948 69.819 C 272.843 69.391,272.494 68.692,272.171 68.264 C 271.849 67.837,271.500 67.144,271.397 66.726 C 271.294 66.307,270.973 65.633,270.685 65.229 C 270.397 64.824,270.042 64.059,269.896 63.529 C 269.750 62.999,269.406 62.249,269.132 61.864 C 268.858 61.478,268.504 60.779,268.345 60.309 C 268.186 59.840,267.836 59.141,267.567 58.755 C 267.299 58.369,266.949 57.670,266.790 57.201 C 266.631 56.731,266.282 56.032,266.014 55.647 C 265.746 55.263,265.370 54.426,265.178 53.788 C 264.986 53.150,264.582 52.281,264.280 51.857 C 263.978 51.433,263.730 50.987,263.729 50.867 C 263.727 50.746,263.134 49.482,262.410 48.057 C 261.686 46.632,260.870 44.833,260.597 44.060 C 260.323 43.286,259.929 42.464,259.720 42.233 C 259.511 42.002,259.165 41.316,258.950 40.709 C 258.736 40.101,258.325 39.304,258.037 38.938 C 257.749 38.572,257.513 38.142,257.512 37.983 C 257.512 37.824,257.104 36.885,256.605 35.896 C 256.107 34.906,255.699 33.895,255.699 33.648 C 255.699 33.230,254.009 31.606,253.575 31.606 C 253.468 31.606,253.203 31.950,252.986 32.371 M144.656 51.101 C 145.151 51.849,145.639 52.795,145.741 53.202 C 145.842 53.609,146.611 55.273,147.448 56.899 C 148.941 59.796,148.964 59.871,148.569 60.633 L 148.167 61.411 143.452 61.340 L 138.737 61.269 138.392 60.550 C 138.077 59.891,138.115 59.721,138.842 58.538 C 139.280 57.827,139.637 57.130,139.637 56.987 C 139.637 56.844,139.974 56.118,140.385 55.372 C 140.796 54.626,141.213 53.666,141.312 53.238 C 141.410 52.811,141.652 52.282,141.850 52.063 C 142.047 51.844,142.389 51.232,142.610 50.703 C 143.152 49.406,143.589 49.490,144.656 51.101 M254.839 50.705 C 255.150 50.958,255.647 51.865,255.943 52.720 C 256.240 53.575,256.598 54.313,256.739 54.361 C 256.880 54.408,256.995 54.590,256.995 54.763 C 256.995 54.937,257.533 56.164,258.191 57.490 L 259.386 59.900 258.875 60.585 L 258.364 61.269 253.670 61.340 L 248.977 61.411 248.800 60.706 C 248.675 60.209,248.788 59.714,249.182 59.029 C 249.489 58.495,249.741 57.893,249.741 57.692 C 249.741 57.491,250.032 56.897,250.389 56.372 C 250.745 55.847,251.036 55.297,251.036 55.150 C 251.036 55.002,251.437 54.046,251.927 53.024 C 252.417 52.002,252.941 50.841,253.091 50.443 C 253.383 49.667,253.608 49.701,254.839 50.705 M152.313 68.070 C 152.942 68.391,153.301 68.820,153.546 69.542 C 153.736 70.103,154.066 70.754,154.279 70.989 C 154.491 71.224,154.840 72.003,155.052 72.719 C 155.265 73.436,155.655 74.300,155.918 74.641 C 156.182 74.981,156.471 75.551,156.561 75.907 C 156.651 76.263,156.985 76.962,157.302 77.461 C 159.399 80.755,160.219 80.570,143.523 80.570 C 126.999 80.570,127.639 80.687,129.501 78.010 C 129.760 77.637,130.103 76.948,130.262 76.478 C 130.421 76.009,130.776 75.308,131.052 74.921 C 131.327 74.535,131.678 73.753,131.832 73.184 C 131.986 72.616,132.318 71.861,132.571 71.507 C 132.824 71.154,133.208 70.399,133.424 69.830 C 134.249 67.664,134.464 67.617,143.497 67.617 C 150.533 67.617,151.525 67.668,152.313 68.070 M262.560 67.874 C 262.950 68.022,263.391 68.498,263.599 68.996 C 263.797 69.471,264.141 70.010,264.362 70.194 C 264.584 70.378,264.928 71.068,265.127 71.728 C 265.471 72.867,266.450 75.016,267.269 76.425 C 267.476 76.781,267.819 77.481,268.031 77.979 C 268.243 78.478,268.552 79.156,268.717 79.486 C 269.241 80.532,268.825 80.562,253.873 80.566 C 238.045 80.570,237.837 80.545,239.535 78.826 C 239.708 78.650,240.060 77.951,240.317 77.272 C 240.573 76.592,240.923 75.893,241.094 75.717 C 241.265 75.542,241.610 74.842,241.861 74.163 C 242.112 73.483,242.577 72.461,242.894 71.891 C 243.210 71.321,243.553 70.563,243.654 70.207 C 243.756 69.851,244.258 69.122,244.770 68.588 L 245.701 67.617 253.792 67.617 C 258.525 67.617,262.164 67.723,262.560 67.874 M161.925 87.310 C 162.196 87.455,162.560 88.067,162.734 88.670 C 162.909 89.273,163.306 90.079,163.618 90.461 C 163.929 90.842,164.267 91.596,164.368 92.136 C 164.469 92.676,164.780 93.437,165.058 93.827 C 165.336 94.217,165.694 94.921,165.855 95.390 C 166.015 95.859,166.419 96.649,166.752 97.146 C 167.412 98.129,167.536 99.200,167.047 99.689 C 166.509 100.227,120.053 100.130,119.846 99.590 C 119.574 98.882,119.675 97.979,120.069 97.585 C 120.278 97.376,120.648 96.697,120.891 96.077 C 121.134 95.456,121.546 94.670,121.807 94.330 C 122.067 93.991,122.280 93.545,122.280 93.341 C 122.280 92.707,124.886 87.583,125.344 87.315 C 125.949 86.962,161.266 86.957,161.925 87.310 M272.927 88.223 C 273.212 88.799,273.650 89.553,273.899 89.900 C 274.148 90.246,274.352 90.708,274.352 90.926 C 274.352 91.143,274.699 92.021,275.123 92.876 C 275.547 93.731,276.078 94.838,276.303 95.337 C 276.528 95.835,276.938 96.652,277.216 97.150 C 277.803 98.208,277.868 99.296,277.368 99.711 C 277.111 99.924,270.686 99.985,253.599 99.937 L 230.181 99.870 230.097 99.135 C 230.051 98.731,230.180 98.206,230.384 97.969 C 230.589 97.733,230.884 97.155,231.042 96.685 C 231.199 96.216,231.558 95.509,231.839 95.115 C 232.119 94.721,232.430 94.056,232.528 93.637 C 232.627 93.218,233.043 92.279,233.452 91.549 C 233.862 90.819,234.200 90.061,234.203 89.865 C 234.207 89.668,234.617 88.953,235.114 88.275 L 236.018 87.043 254.214 87.110 L 272.409 87.176 272.927 88.223 M171.461 107.086 C 171.753 107.351,172.062 107.890,172.149 108.285 C 172.236 108.680,172.591 109.388,172.938 109.859 C 173.285 110.329,173.645 111.121,173.738 111.617 C 173.832 112.114,174.186 112.930,174.525 113.431 C 174.865 113.931,175.217 114.640,175.308 115.007 C 175.399 115.374,175.681 115.965,175.934 116.321 C 176.340 116.893,176.537 117.851,176.452 118.848 C 176.430 119.107,169.736 119.160,143.462 119.107 C 105.794 119.032,109.690 119.347,111.096 116.487 C 112.497 113.639,113.472 111.460,113.472 111.179 C 113.472 111.028,113.755 110.487,114.100 109.977 C 114.446 109.467,114.804 108.711,114.895 108.296 C 114.994 107.845,115.392 107.328,115.885 107.012 C 117.116 106.220,170.583 106.292,171.461 107.086 M281.701 107.014 C 282.076 107.309,282.383 107.701,282.383 107.885 C 282.383 108.070,282.598 108.498,282.861 108.838 C 283.124 109.178,283.555 110.039,283.819 110.751 C 284.084 111.464,284.384 112.106,284.487 112.179 C 284.589 112.251,284.903 112.893,285.183 113.604 C 285.464 114.316,285.928 115.306,286.215 115.804 C 286.928 117.041,287.170 118.322,286.779 118.793 C 286.374 119.281,221.140 119.374,220.840 118.887 C 220.743 118.731,220.792 118.352,220.947 118.045 C 221.103 117.738,221.475 116.817,221.774 115.997 C 222.072 115.178,222.416 114.508,222.537 114.508 C 222.659 114.508,222.893 114.071,223.059 113.536 C 223.343 112.619,224.456 110.131,225.344 108.427 C 225.564 108.004,226.031 107.392,226.382 107.067 L 227.019 106.477 254.018 106.477 C 280.941 106.477,281.020 106.478,281.701 107.014 M180.056 125.871 C 181.151 126.455,181.375 127.461,180.635 128.470 C 180.364 128.841,180.009 129.529,179.847 129.999 C 179.685 130.468,179.331 131.167,179.059 131.553 C 178.788 131.938,178.478 132.545,178.371 132.902 C 178.265 133.258,177.910 134.074,177.582 134.715 C 177.255 135.356,176.790 136.364,176.549 136.955 C 175.945 138.436,178.208 138.342,143.327 138.342 C 108.175 138.342,110.654 138.483,110.223 136.454 C 110.125 135.996,109.768 135.097,109.429 134.456 C 109.090 133.815,108.644 132.882,108.436 132.383 C 108.229 131.885,107.887 131.185,107.675 130.829 C 105.874 127.789,105.824 126.193,107.513 125.572 C 108.776 125.108,179.170 125.398,180.056 125.871 M291.083 126.021 C 291.666 126.819,291.517 128.006,290.674 129.275 C 290.247 129.916,289.898 130.605,289.897 130.806 C 289.897 131.008,289.561 131.707,289.151 132.361 C 288.741 133.014,288.323 133.899,288.224 134.326 C 288.124 134.754,287.891 135.278,287.705 135.492 C 287.519 135.706,287.278 136.172,287.169 136.528 C 287.061 136.885,286.800 137.438,286.591 137.759 L 286.210 138.342 254.232 138.342 L 222.253 138.342 221.393 137.403 C 220.857 136.817,220.374 135.892,220.110 134.942 C 219.877 134.105,219.585 133.420,219.461 133.420 C 219.336 133.420,218.973 132.720,218.653 131.865 C 218.333 131.010,217.985 130.311,217.879 130.311 C 216.991 130.311,216.590 126.573,217.402 125.868 C 218.297 125.092,290.513 125.242,291.083 126.021 M171.710 144.870 C 172.233 145.393,172.071 146.859,171.393 147.750 C 171.048 148.204,170.680 148.925,170.575 149.352 C 170.470 149.780,170.120 150.479,169.798 150.907 C 169.475 151.334,169.128 152.034,169.027 152.461 C 168.925 152.889,168.693 153.413,168.510 153.627 C 168.327 153.841,167.904 154.540,167.569 155.181 L 166.961 156.347 143.588 156.413 L 120.215 156.479 119.608 155.507 C 118.897 154.369,117.617 151.694,117.617 151.346 C 117.617 151.214,117.402 150.828,117.139 150.488 C 116.876 150.148,116.453 149.318,116.198 148.644 C 115.944 147.969,115.576 147.284,115.381 147.122 C 115.020 146.822,114.884 145.047,115.199 144.732 C 115.536 144.395,171.371 144.531,171.710 144.870 M282.126 144.951 C 282.595 145.516,282.291 147.266,281.527 148.400 C 281.174 148.924,280.750 149.780,280.585 150.303 C 280.419 150.826,280.124 151.387,279.928 151.550 C 279.732 151.712,279.379 152.459,279.143 153.209 C 278.907 153.959,278.320 155.003,277.838 155.529 L 276.962 156.485 253.916 156.416 L 230.871 156.347 230.216 155.732 C 229.855 155.393,229.482 154.752,229.385 154.307 C 229.289 153.862,228.987 153.182,228.715 152.796 C 228.442 152.411,228.088 151.711,227.928 151.242 C 227.767 150.773,227.363 149.983,227.030 149.486 C 226.697 148.990,226.424 148.466,226.423 148.321 C 226.422 148.176,226.235 147.707,226.006 147.280 C 225.344 146.039,225.149 145.162,225.466 144.845 C 225.965 144.346,281.711 144.450,282.126 144.951 M163.205 163.154 C 163.739 163.587,163.750 163.660,163.381 164.385 C 163.166 164.809,162.214 166.729,161.268 168.653 C 160.321 170.576,159.376 172.325,159.168 172.539 C 158.696 173.024,130.525 173.274,128.794 172.808 C 127.760 172.530,127.727 172.486,125.973 169.041 C 123.791 164.758,123.421 163.662,123.973 163.110 C 124.646 162.437,162.372 162.480,163.205 163.154 M273.942 163.188 C 274.368 163.659,274.358 163.732,273.733 164.721 C 273.373 165.293,272.996 166.090,272.897 166.494 C 272.797 166.898,272.452 167.578,272.129 168.005 C 271.807 168.433,271.456 169.132,271.350 169.560 C 271.245 169.987,270.697 170.949,270.133 171.697 L 269.109 173.057 254.304 173.057 L 239.499 173.057 238.554 172.415 C 237.947 172.003,237.495 171.423,237.292 170.796 C 237.117 170.258,236.753 169.503,236.483 169.118 C 236.213 168.732,235.859 168.033,235.698 167.563 C 235.536 167.094,235.146 166.302,234.830 165.803 C 234.015 164.518,233.850 163.596,234.345 163.102 C 235.040 162.406,273.310 162.490,273.942 163.188 M155.014 179.975 C 155.476 180.858,155.260 181.519,153.066 185.926 C 151.154 189.767,152.143 189.433,142.967 189.328 C 135.610 189.243,134.976 189.126,134.973 187.848 C 134.972 187.621,134.623 186.911,134.197 186.269 C 133.771 185.628,133.421 184.929,133.421 184.715 C 133.420 184.501,133.074 183.685,132.653 182.902 C 131.844 181.399,131.658 180.104,132.176 179.585 C 132.408 179.353,135.295 179.275,143.567 179.275 L 154.647 179.275 155.014 179.975 M265.302 179.543 C 266.047 179.942,265.450 182.757,264.262 184.446 C 264.007 184.807,263.712 185.395,263.605 185.751 C 263.360 186.574,262.505 188.041,261.830 188.795 C 261.313 189.373,261.248 189.378,254.118 189.378 L 246.928 189.378 246.003 188.506 C 245.494 188.026,245.078 187.445,245.078 187.214 C 245.078 186.984,244.740 186.240,244.328 185.561 C 243.916 184.882,243.501 183.962,243.408 183.516 C 243.314 183.071,242.952 182.320,242.603 181.847 C 241.883 180.871,241.878 180.844,242.222 179.939 L 242.474 179.275 253.638 179.275 C 260.837 179.275,264.979 179.370,265.302 179.543 M147.498 195.884 C 148.081 196.149,148.103 196.223,147.785 196.855 C 147.596 197.231,147.251 197.947,147.020 198.446 C 146.788 198.944,146.446 199.644,146.259 200.000 C 146.073 200.356,145.487 201.543,144.957 202.637 C 144.066 204.475,143.455 205.181,143.163 204.708 C 142.599 203.797,141.192 200.896,141.192 200.647 C 141.192 200.473,140.895 199.895,140.533 199.361 C 139.439 197.749,139.034 196.314,139.562 195.920 C 140.120 195.502,146.597 195.473,147.498 195.884 M258.554 196.014 C 258.765 196.226,258.743 196.402,258.470 196.674 C 257.984 197.161,257.254 198.581,257.254 199.041 C 257.254 199.240,257.018 199.675,256.729 200.007 C 256.441 200.340,256.024 201.233,255.804 201.991 C 255.514 202.988,255.160 203.555,254.526 204.039 C 253.449 204.860,253.228 204.739,252.728 203.055 C 252.511 202.325,252.177 201.543,251.984 201.317 C 251.792 201.091,251.432 200.382,251.184 199.741 C 250.936 199.100,250.585 198.400,250.404 198.187 C 249.814 197.493,249.495 196.205,249.829 195.868 C 250.228 195.465,258.138 195.598,258.554 196.014 " stroke="none" fill="#ec222a" fill-rule="evenodd"></path><path id="path1" d="M0.000 129.534 L 0.000 259.067 200.000 259.067 L 400.000 259.067 400.000 129.534 L 400.000 0.000 200.000 0.000 L 0.000 0.000 0.000 129.534 M144.741 32.902 C 145.215 33.685,145.728 34.789,145.883 35.354 C 146.037 35.919,146.379 36.654,146.642 36.989 C 146.905 37.323,147.261 38.027,147.432 38.552 C 147.604 39.078,147.953 39.777,148.209 40.107 C 148.466 40.436,148.813 41.136,148.982 41.661 C 149.150 42.187,149.449 42.801,149.645 43.027 C 149.842 43.253,150.188 44.069,150.414 44.840 C 150.641 45.612,151.033 46.477,151.286 46.762 C 151.539 47.047,151.816 47.580,151.902 47.946 C 151.989 48.313,152.336 49.020,152.674 49.518 C 153.011 50.016,153.361 50.715,153.451 51.073 C 153.540 51.430,153.892 52.131,154.231 52.632 C 154.571 53.132,154.926 53.957,155.022 54.465 C 155.117 54.972,155.428 55.684,155.712 56.045 C 155.996 56.406,156.404 57.199,156.619 57.807 C 156.833 58.415,157.177 59.099,157.383 59.326 C 157.590 59.554,157.939 60.254,158.161 60.881 C 158.382 61.508,158.726 62.202,158.926 62.422 C 159.126 62.643,159.486 63.407,159.727 64.119 C 159.968 64.832,160.366 65.706,160.613 66.062 C 160.859 66.418,161.191 67.094,161.350 67.563 C 161.509 68.033,161.859 68.732,162.127 69.118 C 162.395 69.503,162.745 70.203,162.904 70.672 C 163.063 71.141,163.416 71.841,163.689 72.226 C 163.961 72.612,164.268 73.335,164.370 73.834 C 164.473 74.333,164.824 75.149,165.152 75.648 C 165.479 76.146,165.883 76.982,166.048 77.505 C 166.213 78.028,166.510 78.591,166.709 78.756 C 166.908 78.921,167.256 79.616,167.484 80.300 C 167.711 80.985,168.117 81.744,168.386 81.987 C 168.654 82.231,168.956 82.913,169.056 83.503 C 169.155 84.094,169.505 84.929,169.831 85.358 C 170.158 85.788,170.512 86.490,170.617 86.917 C 170.722 87.345,171.071 88.044,171.394 88.472 C 171.716 88.899,172.066 89.598,172.171 90.026 C 172.276 90.453,172.625 91.153,172.947 91.580 C 173.268 92.008,173.613 92.796,173.712 93.331 C 173.811 93.867,174.092 94.566,174.337 94.886 C 174.581 95.205,174.986 95.991,175.236 96.632 C 175.486 97.273,175.853 97.979,176.051 98.199 C 176.249 98.420,176.592 99.114,176.813 99.741 C 177.035 100.368,177.375 101.062,177.570 101.282 C 177.766 101.503,178.109 102.209,178.333 102.850 C 178.557 103.491,179.735 105.990,180.951 108.404 C 182.166 110.817,183.161 112.987,183.161 113.226 C 183.161 113.465,183.396 113.960,183.684 114.326 C 183.972 114.693,184.383 115.489,184.598 116.097 C 184.812 116.705,185.156 117.389,185.363 117.617 C 185.569 117.844,185.913 118.528,186.128 119.136 C 186.342 119.744,186.753 120.541,187.041 120.907 C 187.329 121.273,187.565 121.752,187.565 121.972 C 187.565 122.191,187.989 123.229,188.507 124.277 C 189.704 126.700,189.663 128.528,188.367 130.485 C 187.926 131.150,187.565 131.862,187.565 132.066 C 187.565 132.270,187.284 132.978,186.940 133.641 C 185.671 136.089,181.661 144.460,181.337 145.337 C 181.153 145.835,180.857 146.418,180.679 146.632 C 180.500 146.846,180.152 147.545,179.904 148.187 C 179.656 148.828,179.306 149.527,179.127 149.741 C 178.947 149.955,178.597 150.654,178.349 151.295 C 178.102 151.937,177.756 152.636,177.581 152.850 C 177.406 153.063,177.185 153.530,177.088 153.886 C 176.787 154.999,176.097 156.477,175.877 156.477 C 175.762 156.477,175.546 156.927,175.398 157.477 C 175.250 158.028,174.855 158.881,174.521 159.373 C 174.187 159.865,173.830 160.603,173.727 161.012 C 173.625 161.421,173.311 162.078,173.031 162.471 C 172.751 162.865,172.359 163.728,172.160 164.390 C 171.961 165.052,171.618 165.792,171.398 166.035 C 171.178 166.278,170.817 166.990,170.596 167.617 C 170.375 168.244,170.032 168.937,169.833 169.158 C 169.635 169.379,169.241 170.142,168.957 170.855 C 167.922 173.453,167.214 175.020,166.674 175.907 C 166.370 176.405,166.033 177.105,165.925 177.461 C 165.817 177.817,165.463 178.459,165.138 178.886 C 164.814 179.313,164.462 180.013,164.357 180.440 C 164.252 180.868,163.908 181.629,163.593 182.131 C 163.278 182.634,162.939 183.415,162.839 183.868 C 162.740 184.320,162.454 184.958,162.203 185.286 C 161.953 185.613,161.543 186.405,161.293 187.047 C 161.042 187.688,160.688 188.387,160.506 188.601 C 160.324 188.815,159.964 189.573,159.707 190.285 C 159.449 190.997,159.102 191.755,158.934 191.969 C 158.767 192.183,158.427 192.882,158.179 193.523 C 157.931 194.165,157.582 194.864,157.402 195.078 C 157.222 195.291,156.872 195.991,156.625 196.632 C 156.377 197.273,156.028 197.973,155.850 198.187 C 155.672 198.400,155.372 198.983,155.183 199.482 C 154.994 199.981,154.577 200.972,154.255 201.684 C 153.933 202.396,153.488 203.387,153.265 203.886 C 153.042 204.385,152.741 204.968,152.596 205.181 C 152.450 205.395,152.099 206.095,151.816 206.736 C 151.533 207.377,151.189 208.076,151.052 208.290 C 150.616 208.967,148.999 212.591,148.827 213.279 C 148.736 213.642,148.447 214.169,148.185 214.450 C 147.923 214.731,147.565 215.439,147.391 216.023 C 147.216 216.606,146.874 217.297,146.631 217.558 C 146.388 217.818,145.989 218.636,145.744 219.375 C 145.498 220.115,145.200 220.780,145.080 220.853 C 144.961 220.927,144.607 221.517,144.294 222.164 C 143.981 222.811,143.598 223.298,143.443 223.246 C 143.089 223.128,141.586 220.217,141.049 218.608 C 140.827 217.942,140.483 217.263,140.285 217.098 C 140.087 216.934,139.737 216.235,139.508 215.544 C 139.278 214.854,138.928 214.154,138.730 213.989 C 138.531 213.824,138.232 213.261,138.065 212.738 C 137.898 212.215,137.492 211.263,137.163 210.622 C 136.834 209.981,136.481 209.165,136.380 208.808 C 136.278 208.452,135.936 207.811,135.619 207.383 C 135.301 206.956,134.962 206.270,134.865 205.858 C 134.767 205.447,134.402 204.737,134.054 204.280 C 133.705 203.822,133.419 203.285,133.419 203.084 C 133.419 202.884,133.084 202.079,132.674 201.295 C 132.265 200.512,131.842 199.579,131.734 199.223 C 131.626 198.867,131.316 198.260,131.045 197.874 C 130.773 197.489,130.421 196.789,130.262 196.320 C 130.103 195.850,129.747 195.142,129.471 194.746 C 129.195 194.351,128.850 193.593,128.704 193.063 C 128.558 192.532,128.208 191.775,127.927 191.379 C 127.646 190.983,127.297 190.231,127.153 189.707 C 127.008 189.184,126.626 188.400,126.303 187.966 C 125.980 187.532,125.641 186.859,125.549 186.470 C 125.457 186.082,125.092 185.337,124.738 184.815 C 124.383 184.293,124.093 183.724,124.093 183.552 C 124.093 183.379,123.822 182.725,123.490 182.098 C 123.158 181.471,122.676 180.405,122.418 179.728 C 122.161 179.051,121.864 178.497,121.758 178.497 C 121.652 178.497,121.304 177.798,120.984 176.943 C 120.665 176.088,120.309 175.389,120.193 175.389 C 120.078 175.389,119.903 175.126,119.804 174.806 C 119.706 174.485,119.248 173.407,118.786 172.409 C 118.325 171.412,117.857 170.304,117.746 169.948 C 117.636 169.592,117.335 169.031,117.078 168.701 C 116.820 168.372,116.472 167.672,116.303 167.147 C 116.135 166.622,115.830 166.001,115.627 165.767 C 115.424 165.534,115.021 164.718,114.731 163.954 C 114.442 163.190,114.055 162.390,113.871 162.176 C 113.687 161.962,113.390 161.321,113.209 160.751 C 113.029 160.181,112.682 159.424,112.439 159.067 C 112.195 158.711,111.866 158.036,111.707 157.566 C 111.548 157.097,111.196 156.397,110.924 156.012 C 110.653 155.626,110.343 155.019,110.235 154.663 C 110.127 154.307,109.704 153.374,109.295 152.591 C 108.885 151.807,108.550 151.024,108.550 150.851 C 108.549 150.678,108.199 149.985,107.772 149.311 C 107.345 148.637,106.995 147.937,106.995 147.756 C 106.995 147.575,106.645 146.876,106.218 146.202 C 105.790 145.528,105.440 144.795,105.439 144.574 C 105.439 144.352,105.191 143.765,104.889 143.269 C 104.586 142.773,104.181 141.920,103.988 141.374 C 103.796 140.827,103.420 140.067,103.154 139.685 C 102.888 139.303,102.540 138.606,102.381 138.136 C 102.222 137.667,101.862 136.960,101.581 136.566 C 101.300 136.172,100.987 135.507,100.884 135.088 C 100.781 134.669,100.366 133.734,99.960 133.010 C 99.555 132.286,99.221 131.528,99.218 131.326 C 99.215 131.124,98.866 130.446,98.441 129.819 C 97.331 128.180,97.479 124.980,98.701 124.225 C 98.824 124.149,99.005 123.718,99.104 123.267 C 99.260 122.558,100.631 119.562,101.333 118.394 C 101.563 118.013,101.868 117.368,103.422 113.990 C 103.848 113.063,104.366 112.014,104.573 111.658 C 104.781 111.302,105.122 110.602,105.332 110.104 C 105.542 109.605,105.891 108.905,106.109 108.549 C 106.327 108.193,106.679 107.494,106.893 106.995 C 107.106 106.496,107.553 105.563,107.887 104.922 C 108.221 104.281,108.572 103.386,108.668 102.932 C 108.763 102.479,109.003 101.975,109.200 101.811 C 109.397 101.647,109.759 100.969,110.004 100.303 C 110.250 99.638,110.588 98.918,110.755 98.705 C 111.138 98.217,112.752 94.813,113.335 93.264 C 113.577 92.623,113.921 91.924,114.101 91.710 C 114.280 91.496,114.630 90.797,114.878 90.155 C 115.126 89.514,115.475 88.815,115.655 88.601 C 115.835 88.387,116.185 87.688,116.432 87.047 C 116.680 86.405,117.034 85.706,117.219 85.492 C 117.404 85.278,117.639 84.812,117.742 84.456 C 118.006 83.539,119.938 79.481,120.331 79.016 C 120.512 78.802,120.798 78.197,120.966 77.672 C 121.135 77.146,121.476 76.447,121.723 76.117 C 121.971 75.788,122.378 74.848,122.628 74.028 C 122.879 73.209,123.178 72.539,123.293 72.539 C 123.409 72.539,123.759 71.871,124.071 71.054 C 124.384 70.237,124.788 69.392,124.970 69.176 C 125.152 68.959,125.502 68.238,125.747 67.572 C 125.992 66.907,126.354 66.228,126.551 66.065 C 126.748 65.901,126.988 65.396,127.083 64.943 C 127.179 64.490,127.594 63.522,128.007 62.792 C 128.419 62.063,128.756 61.338,128.756 61.182 C 128.756 61.026,129.106 60.347,129.534 59.673 C 129.961 58.999,130.311 58.293,130.311 58.104 C 130.311 57.915,130.594 57.326,130.939 56.795 C 131.285 56.264,131.690 55.360,131.840 54.786 C 131.990 54.212,132.407 53.344,132.766 52.857 C 133.126 52.370,133.420 51.779,133.420 51.543 C 133.420 51.307,133.767 50.601,134.192 49.974 C 134.617 49.347,134.967 48.657,134.969 48.441 C 134.972 48.225,135.268 47.615,135.627 47.087 C 135.986 46.558,136.356 45.746,136.449 45.281 C 136.542 44.817,136.947 43.917,137.350 43.282 C 137.753 42.646,138.085 41.945,138.088 41.724 C 138.090 41.502,138.440 40.808,138.865 40.181 C 139.290 39.554,139.637 38.848,139.637 38.612 C 139.637 38.377,139.923 37.797,140.271 37.324 C 140.620 36.851,140.982 36.100,141.075 35.655 C 141.168 35.209,141.570 34.320,141.967 33.679 C 142.365 33.038,142.771 32.244,142.870 31.915 C 143.148 30.988,143.789 31.326,144.741 32.902 M254.734 32.402 C 255.265 32.840,255.699 33.401,255.699 33.648 C 255.699 33.895,256.107 34.906,256.605 35.896 C 257.104 36.885,257.512 37.824,257.512 37.983 C 257.513 38.142,257.749 38.572,258.037 38.938 C 258.325 39.304,258.736 40.101,258.950 40.709 C 259.165 41.316,259.511 42.002,259.720 42.233 C 259.929 42.464,260.323 43.286,260.597 44.060 C 260.870 44.833,261.686 46.632,262.410 48.057 C 263.134 49.482,263.727 50.746,263.729 50.867 C 263.730 50.987,263.978 51.433,264.280 51.857 C 264.582 52.281,264.986 53.150,265.178 53.788 C 265.370 54.426,265.746 55.263,266.014 55.647 C 266.282 56.032,266.631 56.731,266.790 57.201 C 266.949 57.670,267.299 58.369,267.567 58.755 C 267.836 59.141,268.186 59.840,268.345 60.309 C 268.504 60.779,268.858 61.478,269.132 61.864 C 269.406 62.249,269.750 62.999,269.896 63.529 C 270.042 64.059,270.397 64.824,270.685 65.229 C 270.973 65.633,271.294 66.307,271.397 66.726 C 271.500 67.144,271.849 67.837,272.171 68.264 C 272.494 68.692,272.843 69.391,272.948 69.819 C 273.053 70.246,273.402 70.946,273.724 71.373 C 274.046 71.801,274.390 72.588,274.489 73.124 C 274.589 73.660,274.870 74.359,275.114 74.678 C 275.358 74.998,275.763 75.784,276.013 76.425 C 276.263 77.066,276.615 77.766,276.795 77.979 C 276.975 78.193,277.324 78.892,277.572 79.534 C 277.820 80.175,278.176 80.874,278.363 81.088 C 278.550 81.302,278.880 82.001,279.096 82.642 C 279.313 83.284,279.779 84.333,280.132 84.974 C 280.486 85.615,280.861 86.426,280.966 86.775 C 281.071 87.125,281.305 87.560,281.488 87.742 C 281.670 87.924,282.027 88.629,282.282 89.309 C 282.537 89.988,282.823 90.602,282.917 90.674 C 283.199 90.887,283.852 92.303,284.051 93.135 C 284.154 93.562,284.385 94.087,284.565 94.301 C 284.746 94.514,285.096 95.214,285.344 95.855 C 285.592 96.496,285.957 97.201,286.155 97.422 C 286.353 97.643,286.696 98.337,286.917 98.964 C 287.138 99.591,287.483 100.284,287.682 100.505 C 287.882 100.726,288.241 101.490,288.480 102.202 C 288.719 102.915,289.062 103.672,289.243 103.886 C 289.424 104.100,289.719 104.741,289.900 105.311 C 290.080 105.881,290.449 106.663,290.719 107.048 C 290.989 107.434,291.342 108.133,291.502 108.603 C 291.663 109.072,292.067 109.862,292.400 110.358 C 292.733 110.854,293.005 111.422,293.005 111.621 C 293.005 111.819,293.342 112.637,293.754 113.439 C 294.165 114.240,294.693 115.304,294.928 115.803 C 295.162 116.302,295.513 117.001,295.707 117.358 C 295.902 117.714,296.252 118.413,296.484 118.912 C 296.717 119.411,297.062 120.110,297.249 120.466 C 297.769 121.451,299.113 124.348,299.615 125.564 C 300.242 127.082,299.708 129.672,298.434 131.291 C 298.156 131.644,297.807 132.386,297.658 132.941 C 297.509 133.495,297.100 134.370,296.750 134.886 C 296.400 135.402,296.113 136.011,296.113 136.241 C 296.112 136.470,295.763 137.183,295.337 137.824 C 294.911 138.465,294.561 139.165,294.560 139.378 C 294.558 139.592,294.209 140.291,293.782 140.933 C 293.356 141.574,293.006 142.273,293.005 142.487 C 293.004 142.701,292.791 143.225,292.531 143.653 C 292.271 144.080,291.842 145.013,291.577 145.725 C 291.312 146.438,290.890 147.290,290.640 147.620 C 290.390 147.949,290.047 148.636,289.879 149.145 C 289.711 149.654,289.297 150.479,288.958 150.978 C 288.619 151.477,288.342 152.020,288.342 152.183 C 288.342 152.347,288.134 152.888,287.881 153.386 C 287.627 153.883,287.209 154.843,286.951 155.518 C 286.693 156.193,286.342 156.889,286.172 157.064 C 286.001 157.240,285.651 157.939,285.394 158.619 C 285.138 159.298,284.779 160.003,284.596 160.185 C 284.414 160.367,284.179 160.802,284.074 161.152 C 283.970 161.502,283.595 162.312,283.241 162.953 C 282.888 163.595,282.422 164.644,282.205 165.285 C 281.988 165.926,281.658 166.626,281.471 166.839 C 281.284 167.053,280.929 167.753,280.681 168.394 C 280.433 169.035,280.075 169.743,279.884 169.966 C 279.694 170.190,279.309 171.038,279.029 171.851 C 278.749 172.665,278.340 173.510,278.120 173.730 C 277.900 173.950,277.720 174.303,277.720 174.513 C 277.720 174.957,276.973 176.488,276.655 176.695 C 276.537 176.772,276.264 177.333,276.049 177.942 C 275.835 178.551,275.423 179.349,275.135 179.715 C 274.847 180.081,274.611 180.576,274.611 180.814 C 274.611 181.052,274.204 182.057,273.705 183.046 C 273.207 184.035,272.799 184.943,272.799 185.064 C 272.798 185.184,272.560 185.616,272.270 186.024 C 271.980 186.431,271.613 187.149,271.453 187.618 C 271.294 188.087,270.935 188.801,270.655 189.203 C 270.375 189.605,269.988 190.456,269.796 191.094 C 269.604 191.732,269.218 192.575,268.938 192.969 C 268.657 193.362,268.344 194.027,268.242 194.446 C 268.140 194.865,267.792 195.525,267.470 195.913 C 267.147 196.302,266.800 197.001,266.698 197.468 C 266.596 197.934,266.247 198.634,265.921 199.022 C 265.595 199.411,265.249 200.110,265.152 200.577 C 265.055 201.043,264.710 201.891,264.386 202.461 C 264.062 203.031,263.708 203.789,263.600 204.145 C 263.492 204.501,263.205 205.084,262.962 205.440 C 262.720 205.797,262.317 206.613,262.068 207.254 C 261.819 207.895,261.462 208.595,261.275 208.808 C 261.088 209.022,260.739 209.780,260.501 210.492 C 260.262 211.205,259.918 211.962,259.736 212.176 C 259.555 212.390,259.204 213.089,258.956 213.731 C 258.708 214.372,258.359 215.071,258.179 215.285 C 257.999 215.499,257.650 216.198,257.402 216.839 C 257.154 217.481,256.801 218.180,256.618 218.394 C 256.434 218.608,256.087 219.389,255.845 220.130 C 255.422 221.433,253.859 223.231,253.398 222.946 C 253.289 222.879,253.037 222.323,252.837 221.710 C 252.638 221.097,252.092 219.859,251.626 218.958 C 251.159 218.057,250.777 217.153,250.777 216.950 C 250.777 216.747,250.674 216.580,250.548 216.580 C 250.422 216.580,250.054 215.910,249.729 215.091 C 249.405 214.271,248.992 213.426,248.811 213.212 C 248.631 212.999,248.285 212.241,248.044 211.528 C 247.802 210.816,247.385 209.955,247.118 209.615 C 246.851 209.276,246.632 208.798,246.632 208.553 C 246.632 208.309,246.285 207.596,245.860 206.969 C 245.435 206.342,245.085 205.641,245.082 205.412 C 245.080 205.182,244.780 204.556,244.416 204.020 C 244.052 203.483,243.574 202.505,243.353 201.846 C 243.132 201.187,242.803 200.473,242.622 200.259 C 242.441 200.045,242.146 199.404,241.966 198.834 C 241.785 198.264,241.417 197.482,241.146 197.097 C 240.876 196.711,240.523 196.017,240.361 195.554 C 240.200 195.091,239.796 194.312,239.464 193.823 C 239.132 193.333,238.860 192.755,238.860 192.537 C 238.860 192.319,238.528 191.548,238.123 190.824 C 237.717 190.100,237.303 189.171,237.202 188.760 C 237.101 188.349,236.749 187.649,236.419 187.206 C 236.089 186.762,235.740 186.062,235.642 185.651 C 235.544 185.240,235.179 184.529,234.831 184.072 C 234.482 183.615,234.197 183.071,234.197 182.862 C 234.197 182.654,233.789 181.674,233.291 180.685 C 232.793 179.695,232.385 178.787,232.384 178.667 C 232.384 178.546,232.146 178.114,231.856 177.707 C 231.566 177.299,231.198 176.582,231.039 176.112 C 230.880 175.643,230.520 174.930,230.240 174.528 C 229.960 174.126,229.574 173.275,229.382 172.637 C 229.190 171.999,228.813 171.162,228.544 170.777 C 228.275 170.393,227.973 169.741,227.874 169.330 C 227.774 168.919,227.423 168.219,227.093 167.775 C 226.763 167.332,226.413 166.632,226.316 166.221 C 226.218 165.810,225.853 165.099,225.504 164.642 C 225.156 164.185,224.870 163.660,224.870 163.474 C 224.870 163.289,224.462 162.289,223.964 161.252 C 223.465 160.215,223.057 159.255,223.057 159.119 C 223.057 158.983,222.897 158.739,222.702 158.577 C 222.507 158.415,222.141 157.731,221.890 157.056 C 221.638 156.381,221.276 155.648,221.085 155.428 C 220.895 155.207,220.558 154.507,220.337 153.873 C 219.873 152.540,216.647 145.914,216.182 145.337 C 216.010 145.123,215.724 144.499,215.548 143.951 C 215.372 143.403,214.600 141.712,213.832 140.195 C 213.064 138.677,212.436 137.345,212.435 137.236 C 212.435 137.126,212.153 136.589,211.807 136.042 C 211.462 135.495,211.054 134.580,210.900 134.008 C 210.746 133.437,210.409 132.692,210.151 132.352 C 209.893 132.013,209.480 131.191,209.232 130.526 C 208.984 129.860,208.612 129.175,208.406 129.004 C 207.837 128.532,207.924 126.353,208.552 125.330 C 208.839 124.864,209.200 124.020,209.355 123.455 C 209.509 122.890,209.851 122.154,210.114 121.819 C 210.377 121.485,210.732 120.781,210.904 120.256 C 211.075 119.730,211.425 119.031,211.681 118.701 C 211.937 118.372,212.285 117.672,212.453 117.147 C 212.622 116.622,212.919 116.009,213.114 115.785 C 213.308 115.561,213.702 114.695,213.990 113.860 C 214.277 113.025,214.668 112.159,214.858 111.935 C 215.049 111.711,215.407 111.004,215.655 110.363 C 215.903 109.722,216.253 109.022,216.432 108.808 C 216.612 108.595,216.962 107.895,217.210 107.254 C 217.457 106.613,217.814 105.913,218.003 105.699 C 218.191 105.486,218.484 104.786,218.653 104.145 C 218.822 103.504,219.114 102.804,219.303 102.591 C 219.491 102.377,219.848 101.677,220.096 101.036 C 220.344 100.395,220.680 99.696,220.842 99.482 C 221.303 98.875,223.004 95.333,223.448 94.054 C 223.668 93.420,224.005 92.721,224.197 92.500 C 224.389 92.279,224.684 91.669,224.852 91.143 C 225.021 90.618,225.364 89.918,225.614 89.589 C 225.864 89.259,226.272 88.445,226.520 87.779 C 226.767 87.114,227.132 86.435,227.329 86.272 C 227.526 86.108,227.764 85.604,227.858 85.150 C 227.953 84.697,228.295 83.860,228.619 83.290 C 228.943 82.720,229.295 81.975,229.400 81.634 C 229.506 81.293,229.929 80.483,230.340 79.834 C 230.751 79.186,231.088 78.507,231.088 78.326 C 231.088 78.145,231.438 77.446,231.865 76.772 C 232.293 76.098,232.642 75.294,232.642 74.985 C 232.642 74.677,232.920 74.016,233.258 73.517 C 233.597 73.018,234.012 72.193,234.180 71.684 C 234.348 71.174,234.690 70.488,234.940 70.159 C 235.191 69.829,235.598 69.015,235.846 68.349 C 236.094 67.684,236.455 67.008,236.649 66.847 C 236.843 66.686,237.140 65.978,237.309 65.272 C 237.478 64.567,237.700 63.990,237.802 63.990 C 238.020 63.990,238.858 62.299,238.865 61.844 C 238.867 61.670,239.217 61.015,239.642 60.388 C 240.067 59.761,240.415 59.049,240.415 58.804 C 240.415 58.560,240.650 58.060,240.938 57.694 C 241.226 57.328,241.639 56.525,241.855 55.911 C 242.204 54.916,245.917 47.168,247.561 44.003 C 247.905 43.341,248.189 42.642,248.191 42.449 C 248.194 42.256,248.544 41.585,248.968 40.958 C 249.393 40.331,249.741 39.619,249.741 39.374 C 249.741 39.130,249.981 38.625,250.275 38.251 C 250.568 37.878,251.043 36.879,251.329 36.031 C 251.615 35.183,252.016 34.351,252.220 34.182 C 252.424 34.013,252.591 33.708,252.591 33.505 C 252.591 33.023,253.325 31.606,253.575 31.606 C 253.681 31.606,254.203 31.964,254.734 32.402 M142.610 50.703 C 142.389 51.232,142.047 51.844,141.850 52.063 C 141.652 52.282,141.410 52.811,141.312 53.238 C 141.213 53.666,140.796 54.626,140.385 55.372 C 139.974 56.118,139.637 56.844,139.637 56.987 C 139.637 57.130,139.280 57.827,138.842 58.538 C 138.115 59.721,138.077 59.891,138.392 60.550 L 138.737 61.269 143.452 61.340 L 148.167 61.411 148.569 60.633 C 148.964 59.871,148.941 59.796,147.448 56.899 C 146.611 55.273,145.842 53.609,145.741 53.202 C 145.483 52.165,143.831 49.741,143.383 49.741 C 143.179 49.741,142.831 50.174,142.610 50.703 M253.091 50.443 C 252.941 50.841,252.417 52.002,251.927 53.024 C 251.437 54.046,251.036 55.002,251.036 55.150 C 251.036 55.297,250.745 55.847,250.389 56.372 C 250.032 56.897,249.741 57.491,249.741 57.692 C 249.741 57.893,249.489 58.495,249.182 59.029 C 248.788 59.714,248.675 60.209,248.800 60.706 L 248.977 61.411 253.670 61.340 L 258.364 61.269 258.875 60.585 L 259.386 59.900 258.191 57.490 C 257.533 56.164,256.995 54.937,256.995 54.763 C 256.995 54.590,256.880 54.408,256.739 54.361 C 256.598 54.313,256.240 53.575,255.943 52.720 C 255.166 50.480,253.560 49.198,253.091 50.443 M134.693 68.207 C 134.176 68.555,133.657 69.219,133.424 69.830 C 133.208 70.399,132.824 71.154,132.571 71.507 C 132.318 71.861,131.986 72.616,131.832 73.184 C 131.678 73.753,131.327 74.535,131.052 74.921 C 130.776 75.308,130.421 76.009,130.262 76.478 C 130.103 76.948,129.760 77.637,129.501 78.010 C 127.639 80.687,126.999 80.570,143.523 80.570 C 160.219 80.570,159.399 80.755,157.302 77.461 C 156.985 76.962,156.651 76.263,156.561 75.907 C 156.471 75.551,156.182 74.981,155.918 74.641 C 155.655 74.300,155.265 73.436,155.052 72.719 C 154.840 72.003,154.491 71.224,154.279 70.989 C 154.066 70.754,153.736 70.103,153.546 69.542 C 152.914 67.680,152.585 67.617,143.497 67.617 C 135.676 67.617,135.557 67.625,134.693 68.207 M244.770 68.588 C 244.258 69.122,243.756 69.851,243.654 70.207 C 243.553 70.563,243.210 71.321,242.894 71.891 C 242.577 72.461,242.112 73.483,241.861 74.163 C 241.610 74.842,241.265 75.542,241.094 75.717 C 240.923 75.893,240.573 76.592,240.317 77.272 C 240.060 77.951,239.708 78.650,239.535 78.826 C 237.837 80.545,238.045 80.570,253.873 80.566 C 268.825 80.562,269.241 80.532,268.717 79.486 C 268.552 79.156,268.243 78.478,268.031 77.979 C 267.819 77.481,267.476 76.781,267.269 76.425 C 266.450 75.016,265.471 72.867,265.127 71.728 C 264.928 71.068,264.584 70.378,264.362 70.194 C 264.141 70.010,263.797 69.471,263.599 68.996 C 263.048 67.678,262.609 67.617,253.792 67.617 L 245.701 67.617 244.770 68.588 M125.344 87.315 C 124.886 87.583,122.280 92.707,122.280 93.341 C 122.280 93.545,122.067 93.991,121.807 94.330 C 121.546 94.670,121.134 95.456,120.891 96.077 C 120.648 96.697,120.278 97.376,120.069 97.585 C 119.675 97.979,119.574 98.882,119.846 99.590 C 120.053 100.130,166.509 100.227,167.047 99.689 C 167.536 99.200,167.412 98.129,166.752 97.146 C 166.419 96.649,166.015 95.859,165.855 95.390 C 165.694 94.921,165.336 94.217,165.058 93.827 C 164.780 93.437,164.469 92.676,164.368 92.136 C 164.267 91.596,163.929 90.842,163.618 90.461 C 163.306 90.079,162.909 89.273,162.734 88.670 C 162.560 88.067,162.196 87.455,161.925 87.310 C 161.266 86.957,125.949 86.962,125.344 87.315 M235.114 88.275 C 234.617 88.953,234.207 89.668,234.203 89.865 C 234.200 90.061,233.862 90.819,233.452 91.549 C 233.043 92.279,232.627 93.218,232.528 93.637 C 232.430 94.056,232.119 94.721,231.839 95.115 C 231.558 95.509,231.199 96.216,231.042 96.685 C 230.884 97.155,230.589 97.733,230.384 97.969 C 230.180 98.206,230.051 98.731,230.097 99.135 L 230.181 99.870 253.599 99.937 C 270.686 99.985,277.111 99.924,277.368 99.711 C 277.868 99.296,277.803 98.208,277.216 97.150 C 276.938 96.652,276.528 95.835,276.303 95.337 C 276.078 94.838,275.547 93.731,275.123 92.876 C 274.699 92.021,274.352 91.143,274.352 90.926 C 274.352 90.708,274.148 90.246,273.899 89.900 C 273.650 89.553,273.212 88.799,272.927 88.223 L 272.409 87.176 254.214 87.110 L 236.018 87.043 235.114 88.275 M115.885 107.012 C 115.392 107.328,114.994 107.845,114.895 108.296 C 114.804 108.711,114.446 109.467,114.100 109.977 C 113.755 110.487,113.472 111.028,113.472 111.179 C 113.472 111.460,112.497 113.639,111.096 116.487 C 109.690 119.347,105.794 119.032,143.462 119.107 C 169.736 119.160,176.430 119.107,176.452 118.848 C 176.537 117.851,176.340 116.893,175.934 116.321 C 175.681 115.965,175.399 115.374,175.308 115.007 C 175.217 114.640,174.865 113.931,174.525 113.431 C 174.186 112.930,173.832 112.114,173.738 111.617 C 173.645 111.121,173.285 110.329,172.938 109.859 C 172.591 109.388,172.236 108.680,172.149 108.285 C 171.752 106.477,173.966 106.613,143.820 106.544 C 116.892 106.482,116.704 106.485,115.885 107.012 M226.382 107.067 C 226.031 107.392,225.564 108.004,225.344 108.427 C 224.456 110.131,223.343 112.619,223.059 113.536 C 222.893 114.071,222.659 114.508,222.537 114.508 C 222.416 114.508,222.072 115.178,221.774 115.997 C 221.475 116.817,221.103 117.738,220.947 118.045 C 220.792 118.352,220.743 118.731,220.840 118.887 C 221.140 119.374,286.374 119.281,286.779 118.793 C 287.170 118.322,286.928 117.041,286.215 115.804 C 285.928 115.306,285.464 114.316,285.183 113.604 C 284.903 112.893,284.589 112.251,284.487 112.179 C 284.384 112.106,284.084 111.464,283.819 110.751 C 283.555 110.039,283.124 109.178,282.861 108.838 C 282.598 108.498,282.383 108.070,282.383 107.885 C 282.383 106.419,283.539 106.477,254.018 106.477 L 227.019 106.477 226.382 107.067 M107.513 125.572 C 105.824 126.193,105.874 127.789,107.675 130.829 C 107.887 131.185,108.229 131.885,108.436 132.383 C 108.644 132.882,109.090 133.815,109.429 134.456 C 109.768 135.097,110.125 135.996,110.223 136.454 C 110.654 138.483,108.175 138.342,143.327 138.342 C 178.208 138.342,175.945 138.436,176.549 136.955 C 176.790 136.364,177.255 135.356,177.582 134.715 C 177.910 134.074,178.265 133.258,178.371 132.902 C 178.478 132.545,178.788 131.938,179.059 131.553 C 179.331 131.167,179.685 130.468,179.847 129.999 C 180.009 129.529,180.364 128.841,180.635 128.470 C 181.375 127.461,181.151 126.455,180.056 125.871 C 179.170 125.398,108.776 125.108,107.513 125.572 M217.402 125.868 C 216.590 126.573,216.991 130.311,217.879 130.311 C 217.985 130.311,218.333 131.010,218.653 131.865 C 218.973 132.720,219.336 133.420,219.461 133.420 C 219.585 133.420,219.877 134.105,220.110 134.942 C 220.374 135.892,220.857 136.817,221.393 137.403 L 222.253 138.342 254.232 138.342 L 286.210 138.342 286.591 137.759 C 286.800 137.438,287.061 136.885,287.169 136.528 C 287.278 136.172,287.519 135.706,287.705 135.492 C 287.891 135.278,288.124 134.754,288.224 134.326 C 288.323 133.899,288.741 133.014,289.151 132.361 C 289.561 131.707,289.897 131.008,289.897 130.806 C 289.898 130.605,290.247 129.916,290.674 129.275 C 291.517 128.006,291.666 126.819,291.083 126.021 C 290.513 125.242,218.297 125.092,217.402 125.868 M115.199 144.732 C 114.884 145.047,115.020 146.822,115.381 147.122 C 115.576 147.284,115.944 147.969,116.198 148.644 C 116.453 149.318,116.876 150.148,117.139 150.488 C 117.402 150.828,117.617 151.214,117.617 151.346 C 117.617 151.694,118.897 154.369,119.608 155.507 L 120.215 156.479 143.588 156.413 L 166.961 156.347 167.569 155.181 C 167.904 154.540,168.327 153.841,168.510 153.627 C 168.693 153.413,168.925 152.889,169.027 152.461 C 169.128 152.034,169.475 151.334,169.798 150.907 C 170.120 150.479,170.470 149.780,170.575 149.352 C 170.680 148.925,171.048 148.204,171.393 147.750 C 172.071 146.859,172.233 145.393,171.710 144.870 C 171.371 144.531,115.536 144.395,115.199 144.732 M225.466 144.845 C 225.149 145.162,225.344 146.039,226.006 147.280 C 226.235 147.707,226.422 148.176,226.423 148.321 C 226.424 148.466,226.697 148.990,227.030 149.486 C 227.363 149.983,227.767 150.773,227.928 151.242 C 228.088 151.711,228.442 152.411,228.715 152.796 C 228.987 153.182,229.289 153.862,229.385 154.307 C 229.482 154.752,229.855 155.393,230.216 155.732 L 230.871 156.347 253.916 156.416 L 276.962 156.485 277.838 155.529 C 278.320 155.003,278.907 153.959,279.143 153.209 C 279.379 152.459,279.732 151.712,279.928 151.550 C 280.124 151.387,280.419 150.826,280.585 150.303 C 280.750 149.780,281.174 148.924,281.527 148.400 C 282.291 147.266,282.595 145.516,282.126 144.951 C 281.711 144.450,225.965 144.346,225.466 144.845 M123.973 163.110 C 123.421 163.662,123.791 164.758,125.973 169.041 C 127.727 172.486,127.760 172.530,128.794 172.808 C 130.525 173.274,158.696 173.024,159.168 172.539 C 159.376 172.325,160.321 170.576,161.268 168.653 C 162.214 166.729,163.166 164.809,163.381 164.385 C 163.750 163.660,163.739 163.587,163.205 163.154 C 162.372 162.480,124.646 162.437,123.973 163.110 M234.345 163.102 C 233.850 163.596,234.015 164.518,234.830 165.803 C 235.146 166.302,235.536 167.094,235.698 167.563 C 235.859 168.033,236.213 168.732,236.483 169.118 C 236.753 169.503,237.117 170.258,237.292 170.796 C 237.495 171.423,237.947 172.003,238.554 172.415 L 239.499 173.057 254.304 173.057 L 269.109 173.057 270.133 171.697 C 270.697 170.949,271.245 169.987,271.350 169.560 C 271.456 169.132,271.807 168.433,272.129 168.005 C 272.452 167.578,272.797 166.898,272.897 166.494 C 272.996 166.090,273.373 165.293,273.733 164.721 C 274.358 163.732,274.368 163.659,273.942 163.188 C 273.310 162.490,235.040 162.406,234.345 163.102 M132.176 179.585 C 131.658 180.104,131.844 181.399,132.653 182.902 C 133.074 183.685,133.420 184.501,133.421 184.715 C 133.421 184.929,133.771 185.628,134.197 186.269 C 134.623 186.911,134.972 187.621,134.973 187.848 C 134.976 189.126,135.610 189.243,142.967 189.328 C 152.143 189.433,151.154 189.767,153.066 185.926 C 155.260 181.519,155.476 180.858,155.014 179.975 L 154.647 179.275 143.567 179.275 C 135.295 179.275,132.408 179.353,132.176 179.585 M242.222 179.939 C 241.878 180.844,241.883 180.871,242.603 181.847 C 242.952 182.320,243.314 183.071,243.408 183.516 C 243.501 183.962,243.916 184.882,244.328 185.561 C 244.740 186.240,245.078 186.984,245.078 187.214 C 245.078 187.445,245.494 188.026,246.003 188.506 L 246.928 189.378 254.118 189.378 C 261.248 189.378,261.313 189.373,261.830 188.795 C 262.505 188.041,263.360 186.574,263.605 185.751 C 263.712 185.395,264.007 184.807,264.262 184.446 C 264.752 183.749,265.803 180.853,265.803 180.199 C 265.803 179.347,264.853 179.275,253.638 179.275 L 242.474 179.275 242.222 179.939 M139.562 195.920 C 139.034 196.314,139.439 197.749,140.533 199.361 C 140.895 199.895,141.192 200.473,141.192 200.647 C 141.192 200.896,142.599 203.797,143.163 204.708 C 143.455 205.181,144.066 204.475,144.957 202.637 C 145.487 201.543,146.073 200.356,146.259 200.000 C 146.446 199.644,146.788 198.944,147.020 198.446 C 147.251 197.947,147.596 197.231,147.785 196.855 C 148.103 196.223,148.081 196.149,147.498 195.884 C 146.597 195.473,140.120 195.502,139.562 195.920 M249.829 195.868 C 249.495 196.205,249.814 197.493,250.404 198.187 C 250.585 198.400,250.936 199.100,251.184 199.741 C 251.432 200.382,251.792 201.091,251.984 201.317 C 252.177 201.543,252.511 202.325,252.728 203.055 C 253.228 204.739,253.449 204.860,254.526 204.039 C 255.160 203.555,255.514 202.988,255.804 201.991 C 256.024 201.233,256.441 200.340,256.729 200.007 C 257.018 199.675,257.254 199.240,257.254 199.041 C 257.254 198.581,257.984 197.161,258.470 196.674 C 259.216 195.929,258.381 195.728,254.198 195.645 C 251.339 195.589,250.040 195.655,249.829 195.868 " stroke="none" fill="#fcfcfc" fill-rule="evenodd"></path></g></svg>