<svg id="svg" version="1.1" xmlns="http://www.w3.org/2000/svg" xmlns:xlink="http://www.w3.org/1999/xlink" width="400" height="258.91472868217056" viewBox="0, 0, 400,258.91472868217056"><g id="svgg"><path id="path0" d="M85.663 31.663 C 85.154 32.477,84.575 33.595,83.949 34.974 C 83.658 35.615,83.301 36.315,83.156 36.528 C 83.010 36.742,82.711 37.325,82.491 37.824 C 82.271 38.323,81.821 39.313,81.490 40.026 C 81.160 40.738,80.683 41.817,80.431 42.422 C 80.179 43.028,79.876 43.523,79.758 43.523 C 79.640 43.523,79.467 43.844,79.373 44.236 C 79.158 45.130,78.540 46.367,78.075 46.832 C 77.880 47.028,77.720 47.361,77.720 47.573 C 77.720 47.906,76.103 51.596,75.379 52.915 C 75.242 53.164,75.016 53.572,74.877 53.821 C 74.738 54.071,74.453 54.683,74.243 55.181 C 74.034 55.680,73.694 56.380,73.487 56.736 C 72.897 57.754,71.557 60.685,71.354 61.399 C 71.253 61.755,70.895 62.453,70.559 62.949 C 70.223 63.445,69.948 63.976,69.948 64.129 C 69.948 64.281,69.606 64.946,69.188 65.605 C 68.770 66.264,68.314 67.216,68.175 67.721 C 68.036 68.225,67.695 68.962,67.418 69.358 C 67.141 69.754,66.832 70.420,66.730 70.839 C 66.629 71.258,66.316 71.923,66.035 72.317 C 65.755 72.712,65.394 73.418,65.233 73.888 C 65.073 74.357,64.669 75.147,64.336 75.643 C 64.003 76.139,63.731 76.638,63.731 76.751 C 63.731 76.865,63.323 77.818,62.824 78.869 C 62.325 79.919,61.917 80.957,61.917 81.174 C 61.917 81.391,61.757 81.729,61.562 81.924 C 61.097 82.389,60.479 83.626,60.265 84.521 C 60.171 84.913,59.997 85.233,59.879 85.233 C 59.761 85.233,59.457 85.729,59.203 86.334 C 58.950 86.940,58.407 88.149,57.998 89.021 C 57.589 89.894,57.254 90.723,57.254 90.865 C 57.254 91.006,57.041 91.400,56.781 91.740 C 56.520 92.079,56.103 92.882,55.852 93.523 C 55.602 94.165,55.250 94.864,55.070 95.078 C 54.891 95.291,54.541 95.991,54.293 96.632 C 54.045 97.273,53.691 97.973,53.506 98.187 C 53.321 98.400,53.086 98.867,52.982 99.223 C 52.879 99.579,51.758 101.983,50.491 104.566 C 49.223 107.148,48.187 109.433,48.187 109.643 C 48.187 109.854,47.839 110.539,47.414 111.166 C 46.989 111.793,46.639 112.492,46.637 112.720 C 46.634 112.948,46.285 113.647,45.860 114.274 C 45.435 114.901,45.085 115.602,45.082 115.832 C 45.080 116.061,44.788 116.676,44.433 117.199 C 44.079 117.721,43.710 118.466,43.613 118.854 C 43.517 119.242,42.738 120.900,41.882 122.539 C 39.958 126.221,39.814 127.664,41.167 129.707 C 41.608 130.373,41.969 131.108,41.969 131.341 C 41.969 131.574,42.263 132.163,42.622 132.650 C 42.982 133.137,43.400 134.005,43.553 134.579 C 43.706 135.152,43.992 135.802,44.188 136.023 C 44.385 136.244,44.721 136.922,44.936 137.530 C 45.150 138.138,45.544 138.948,45.810 139.331 C 46.076 139.713,46.424 140.410,46.583 140.879 C 46.742 141.349,47.093 142.048,47.364 142.434 C 47.634 142.819,48.003 143.601,48.183 144.171 C 48.364 144.741,48.655 145.382,48.831 145.596 C 49.008 145.810,49.362 146.567,49.620 147.280 C 49.877 147.992,50.233 148.750,50.411 148.964 C 50.588 149.177,50.936 149.877,51.184 150.518 C 51.432 151.159,51.782 151.859,51.963 152.073 C 52.143 152.286,52.543 153.102,52.851 153.885 C 53.159 154.669,53.498 155.426,53.604 155.569 C 53.710 155.712,54.002 156.385,54.253 157.064 C 54.504 157.744,54.849 158.443,55.020 158.619 C 55.191 158.794,55.541 159.494,55.797 160.173 C 56.054 160.853,56.411 161.555,56.590 161.735 C 56.770 161.914,57.069 162.524,57.256 163.090 C 57.443 163.656,57.985 164.877,58.460 165.803 C 58.935 166.729,59.324 167.618,59.325 167.779 C 59.326 167.940,59.486 168.204,59.681 168.366 C 59.876 168.528,60.242 169.212,60.494 169.887 C 60.746 170.562,61.110 171.297,61.303 171.521 C 61.496 171.744,61.889 172.611,62.176 173.446 C 62.463 174.281,62.857 175.147,63.050 175.371 C 63.244 175.594,63.482 176.114,63.580 176.525 C 63.678 176.936,64.027 177.636,64.356 178.079 C 64.685 178.523,65.083 179.270,65.240 179.739 C 65.397 180.209,65.748 180.908,66.020 181.294 C 66.293 181.679,66.603 182.403,66.710 182.902 C 66.817 183.400,67.127 184.124,67.399 184.509 C 67.672 184.895,68.025 185.594,68.184 186.064 C 68.343 186.533,68.693 187.233,68.961 187.618 C 69.229 188.004,69.579 188.703,69.738 189.172 C 69.897 189.642,70.257 190.355,70.537 190.757 C 70.817 191.159,71.204 192.010,71.396 192.648 C 71.587 193.286,71.974 194.130,72.254 194.523 C 72.534 194.917,72.848 195.581,72.951 196.000 C 73.055 196.419,73.403 197.111,73.726 197.539 C 74.048 197.966,74.397 198.658,74.502 199.076 C 74.606 199.494,74.965 200.238,75.299 200.731 C 75.633 201.223,76.034 202.105,76.189 202.691 C 76.345 203.277,76.619 203.931,76.797 204.145 C 76.976 204.359,77.324 205.058,77.572 205.699 C 77.820 206.341,78.170 207.040,78.349 207.254 C 78.529 207.468,78.876 208.157,79.120 208.787 C 79.364 209.416,79.782 210.208,80.049 210.548 C 80.316 210.887,80.607 211.498,80.697 211.905 C 80.850 212.603,85.583 222.184,85.983 222.605 C 86.219 222.854,88.342 219.981,88.342 219.412 C 88.342 219.177,88.651 218.531,89.029 217.977 C 89.407 217.422,89.821 216.503,89.949 215.933 C 90.077 215.363,90.455 214.488,90.789 213.990 C 91.122 213.491,91.530 212.655,91.695 212.132 C 91.860 211.609,92.158 211.046,92.358 210.881 C 92.557 210.716,92.859 210.152,93.030 209.630 C 93.201 209.107,93.615 208.273,93.950 207.777 C 94.285 207.280,94.560 206.628,94.560 206.326 C 94.560 206.024,94.907 205.264,95.332 204.637 C 95.757 204.010,96.107 203.311,96.109 203.083 C 96.112 202.855,96.462 202.156,96.886 201.529 C 97.311 200.902,97.661 200.201,97.664 199.971 C 97.666 199.742,97.958 199.127,98.313 198.605 C 98.667 198.082,99.033 197.337,99.126 196.949 C 99.219 196.561,99.687 195.497,100.166 194.585 C 100.645 193.673,101.036 192.784,101.036 192.609 C 101.036 192.434,101.205 192.151,101.411 191.980 C 101.617 191.809,101.989 191.124,102.237 190.459 C 102.485 189.793,102.902 188.966,103.165 188.621 C 103.427 188.276,103.767 187.495,103.921 186.886 C 104.074 186.276,104.479 185.399,104.820 184.937 C 105.161 184.475,105.440 183.903,105.440 183.667 C 105.440 183.432,105.788 182.726,106.213 182.099 C 106.638 181.472,106.988 180.775,106.990 180.550 C 106.993 180.325,107.332 179.625,107.744 178.995 C 108.156 178.365,108.579 177.442,108.685 176.943 C 108.790 176.444,109.087 175.767,109.345 175.437 C 109.604 175.108,109.953 174.421,110.121 173.912 C 110.289 173.403,110.695 172.590,111.023 172.106 C 111.352 171.622,111.695 170.889,111.786 170.476 C 111.876 170.063,112.119 169.585,112.325 169.414 C 112.531 169.243,112.886 168.448,113.115 167.647 C 113.343 166.847,113.736 165.959,113.987 165.674 C 114.238 165.389,114.589 164.689,114.767 164.119 C 114.944 163.549,115.290 162.850,115.534 162.565 C 115.778 162.280,116.132 161.639,116.320 161.140 C 116.507 160.641,116.862 159.883,117.107 159.456 C 117.353 159.028,117.699 158.212,117.877 157.642 C 118.055 157.073,118.351 156.431,118.534 156.218 C 118.718 156.004,119.071 155.304,119.319 154.663 C 119.567 154.022,119.917 153.323,120.096 153.109 C 120.276 152.895,120.626 152.196,120.873 151.554 C 121.121 150.913,121.471 150.214,121.650 150.000 C 121.829 149.786,122.216 148.924,122.510 148.085 C 122.804 147.245,123.206 146.371,123.404 146.142 C 123.601 145.913,123.969 145.173,124.221 144.498 C 124.473 143.824,124.839 143.139,125.034 142.977 C 125.229 142.815,125.389 142.545,125.389 142.376 C 125.389 142.207,125.796 141.259,126.295 140.270 C 126.793 139.281,127.201 138.283,127.201 138.053 C 127.202 137.823,127.438 137.335,127.726 136.969 C 128.014 136.603,128.425 135.806,128.639 135.198 C 128.854 134.590,129.198 133.907,129.404 133.679 C 129.610 133.451,129.961 132.748,130.184 132.116 C 130.407 131.484,130.788 130.674,131.031 130.315 C 132.440 128.235,132.453 125.179,131.059 123.365 C 130.806 123.035,130.459 122.336,130.288 121.810 C 130.117 121.285,129.767 120.585,129.511 120.256 C 129.255 119.926,128.905 119.227,128.734 118.701 C 128.562 118.176,128.206 117.469,127.942 117.129 C 127.679 116.790,127.339 116.032,127.187 115.445 C 127.035 114.858,126.679 114.053,126.394 113.656 C 126.110 113.259,125.706 112.449,125.496 111.856 C 125.287 111.262,124.962 110.596,124.774 110.376 C 124.586 110.155,124.230 109.449,123.982 108.808 C 123.734 108.167,123.381 107.468,123.198 107.254 C 123.014 107.040,122.718 106.399,122.540 105.829 C 122.362 105.259,122.016 104.443,121.770 104.016 C 121.525 103.588,121.170 102.830,120.982 102.332 C 120.794 101.833,120.494 101.250,120.316 101.036 C 120.138 100.823,119.789 100.123,119.541 99.482 C 119.293 98.841,118.933 98.132,118.741 97.906 C 118.549 97.680,118.200 96.923,117.965 96.222 C 117.731 95.521,117.339 94.657,117.096 94.301 C 116.852 93.944,116.513 93.223,116.342 92.698 C 116.172 92.172,115.823 91.473,115.567 91.143 C 115.311 90.814,114.961 90.114,114.790 89.589 C 114.618 89.063,114.269 88.364,114.013 88.034 C 113.757 87.705,113.347 86.825,113.101 86.078 C 112.856 85.332,112.556 84.660,112.434 84.585 C 112.313 84.510,112.073 84.021,111.900 83.498 C 111.728 82.976,111.253 82.022,110.845 81.379 C 110.437 80.736,110.104 80.061,110.104 79.881 C 110.104 79.700,109.754 79.000,109.326 78.326 C 108.899 77.652,108.549 76.848,108.549 76.540 C 108.549 76.231,108.272 75.571,107.933 75.071 C 107.595 74.572,107.180 73.747,107.012 73.238 C 106.844 72.729,106.497 72.043,106.241 71.713 C 105.984 71.384,105.635 70.684,105.463 70.159 C 105.292 69.633,104.937 68.930,104.673 68.595 C 104.410 68.261,104.067 67.511,103.910 66.929 C 103.753 66.347,103.404 65.589,103.133 65.245 C 102.862 64.901,102.513 64.146,102.358 63.568 C 102.202 62.990,101.853 62.317,101.582 62.072 C 101.311 61.827,100.964 61.125,100.809 60.512 C 100.655 59.900,100.358 59.257,100.148 59.083 C 99.939 58.909,99.638 58.339,99.481 57.816 C 99.212 56.924,98.021 54.303,97.225 52.850 C 97.029 52.494,96.685 51.794,96.460 51.295 C 96.235 50.797,95.885 50.097,95.683 49.741 C 95.481 49.385,95.135 48.685,94.915 48.187 C 94.695 47.688,94.175 46.618,93.760 45.808 C 93.345 44.999,93.003 44.183,93.000 43.995 C 92.998 43.807,92.648 43.140,92.223 42.513 C 91.798 41.886,91.451 41.180,91.451 40.944 C 91.451 40.708,91.157 40.117,90.797 39.630 C 90.438 39.143,90.018 38.276,89.864 37.703 C 89.710 37.131,89.380 36.370,89.132 36.013 C 88.884 35.655,88.552 34.985,88.396 34.524 C 88.104 33.660,86.711 31.491,86.277 31.223 C 86.143 31.140,85.867 31.338,85.663 31.663 M198.225 32.237 C 197.789 32.882,197.258 33.908,197.043 34.516 C 196.829 35.124,195.730 37.442,194.602 39.666 C 193.474 41.890,192.403 44.163,192.222 44.718 C 192.042 45.272,191.684 45.995,191.428 46.324 C 191.172 46.654,190.822 47.353,190.651 47.879 C 190.479 48.404,190.130 49.104,189.873 49.433 C 189.617 49.763,189.270 50.462,189.101 50.988 C 188.933 51.513,188.635 52.126,188.441 52.350 C 188.246 52.573,187.858 53.422,187.578 54.235 C 187.299 55.048,186.890 55.893,186.670 56.114 C 186.450 56.334,186.269 56.686,186.269 56.897 C 186.269 57.367,185.552 58.786,185.070 59.267 C 184.875 59.463,184.715 59.803,184.715 60.024 C 184.715 60.246,184.380 61.082,183.970 61.884 C 182.062 65.617,178.520 73.015,178.273 73.781 C 178.122 74.250,177.779 74.950,177.510 75.335 C 177.242 75.721,176.892 76.420,176.733 76.890 C 176.574 77.359,176.222 78.059,175.950 78.444 C 175.679 78.830,175.368 79.437,175.260 79.793 C 175.152 80.149,174.801 80.907,174.479 81.477 C 174.158 82.047,173.814 82.863,173.715 83.290 C 173.616 83.718,173.271 84.417,172.948 84.845 C 172.626 85.272,172.276 85.972,172.171 86.399 C 172.066 86.826,171.716 87.526,171.394 87.953 C 171.071 88.381,170.726 89.061,170.627 89.465 C 170.527 89.868,170.174 90.629,169.842 91.155 C 169.509 91.682,169.149 92.516,169.041 93.009 C 168.932 93.503,168.576 94.258,168.250 94.687 C 167.924 95.115,167.571 95.816,167.466 96.244 C 167.361 96.671,167.011 97.370,166.689 97.798 C 166.366 98.225,166.016 98.925,165.911 99.352 C 165.805 99.780,165.453 100.538,165.129 101.036 C 164.805 101.535,164.457 102.293,164.356 102.720 C 164.256 103.148,163.955 103.810,163.687 104.193 C 163.420 104.575,163.026 105.385,162.812 105.993 C 162.597 106.601,162.253 107.285,162.047 107.513 C 161.840 107.741,161.491 108.440,161.269 109.067 C 161.048 109.694,160.710 110.388,160.518 110.609 C 160.326 110.830,160.038 111.418,159.878 111.917 C 159.718 112.416,158.701 114.573,157.618 116.710 C 156.535 118.847,155.426 121.229,155.154 122.003 C 154.882 122.776,154.488 123.598,154.279 123.829 C 152.874 125.382,153.109 129.480,154.660 130.438 C 154.804 130.527,154.922 130.804,154.922 131.053 C 154.922 131.303,155.330 132.316,155.828 133.305 C 156.326 134.294,156.735 135.234,156.735 135.393 C 156.735 135.551,156.971 135.981,157.259 136.347 C 157.547 136.713,157.953 137.494,158.161 138.083 C 158.368 138.671,158.774 139.452,159.062 139.819 C 159.350 140.185,159.585 140.657,159.585 140.869 C 159.585 141.293,161.878 146.166,162.174 146.373 C 162.277 146.444,162.512 146.969,162.697 147.539 C 162.883 148.109,163.300 148.983,163.626 149.482 C 163.951 149.981,164.301 150.738,164.404 151.166 C 164.507 151.593,164.844 152.351,165.154 152.850 C 165.463 153.348,165.848 154.141,166.009 154.610 C 166.170 155.079,166.522 155.779,166.790 156.164 C 167.059 156.550,167.408 157.249,167.567 157.719 C 167.727 158.188,168.082 158.889,168.358 159.275 C 168.633 159.662,168.987 160.458,169.145 161.044 C 169.303 161.629,169.647 162.386,169.910 162.725 C 170.172 163.064,170.472 163.692,170.577 164.119 C 170.681 164.547,171.030 165.246,171.352 165.674 C 171.675 166.101,172.024 166.801,172.129 167.228 C 172.234 167.655,172.587 168.356,172.913 168.785 C 173.240 169.214,173.595 169.972,173.703 170.469 C 173.810 170.966,174.117 171.683,174.385 172.061 C 174.652 172.439,174.870 172.830,174.870 172.931 C 174.870 173.214,177.256 178.060,177.610 178.497 C 177.783 178.711,178.102 179.411,178.317 180.052 C 178.533 180.693,179.010 181.742,179.377 182.383 C 179.745 183.025,180.047 183.745,180.049 183.984 C 180.050 184.223,180.212 184.579,180.407 184.774 C 180.889 185.256,181.606 186.674,181.606 187.145 C 181.606 187.355,181.790 187.712,182.015 187.937 C 182.240 188.161,182.658 189.015,182.944 189.833 C 183.231 190.652,183.611 191.496,183.791 191.710 C 183.970 191.924,184.319 192.623,184.567 193.264 C 184.815 193.905,185.165 194.605,185.344 194.819 C 185.524 195.032,185.874 195.732,186.121 196.373 C 186.369 197.014,186.720 197.714,186.900 197.927 C 187.081 198.141,187.431 198.957,187.679 199.741 C 187.927 200.525,188.284 201.341,188.473 201.554 C 188.662 201.768,189.019 202.468,189.267 203.109 C 189.515 203.750,189.865 204.449,190.044 204.663 C 190.224 204.877,190.576 205.576,190.826 206.218 C 191.077 206.859,191.494 207.661,191.755 208.001 C 192.015 208.341,192.228 208.877,192.228 209.193 C 192.228 209.508,192.576 210.280,193.000 210.907 C 193.425 211.534,193.775 212.233,193.778 212.461 C 193.780 212.689,194.130 213.388,194.555 214.015 C 194.980 214.642,195.329 215.343,195.332 215.573 C 195.335 215.802,195.634 216.428,195.997 216.963 C 196.360 217.498,196.722 218.301,196.802 218.747 C 196.942 219.533,198.918 222.779,199.264 222.792 C 199.538 222.802,201.473 219.121,201.668 218.217 C 201.767 217.764,202.008 217.259,202.205 217.096 C 202.402 216.932,202.766 216.254,203.014 215.588 C 203.262 214.923,203.669 214.109,203.920 213.779 C 204.170 213.450,204.515 212.750,204.686 212.225 C 204.857 211.699,205.213 210.992,205.477 210.653 C 205.741 210.314,206.086 209.557,206.244 208.971 C 206.401 208.385,206.756 207.590,207.031 207.203 C 207.307 206.816,207.663 206.116,207.824 205.646 C 207.984 205.177,208.388 204.387,208.721 203.891 C 209.054 203.394,209.326 202.882,209.326 202.751 C 209.326 202.620,209.664 201.802,210.076 200.933 C 210.489 200.064,211.009 198.944,211.231 198.446 C 211.454 197.947,211.802 197.247,212.004 196.891 C 212.206 196.535,212.560 195.835,212.790 195.337 C 213.021 194.838,213.316 194.255,213.447 194.041 C 213.919 193.272,215.498 189.746,215.797 188.795 C 215.965 188.261,216.196 187.824,216.310 187.824 C 216.424 187.824,216.779 187.124,217.098 186.269 C 217.418 185.415,217.766 184.715,217.872 184.715 C 217.978 184.715,218.270 184.161,218.522 183.484 C 218.774 182.808,219.183 181.904,219.432 181.477 C 219.682 181.049,220.030 180.233,220.208 179.663 C 220.385 179.093,220.735 178.394,220.984 178.109 C 221.234 177.824,221.584 177.124,221.762 176.554 C 221.939 175.984,222.289 175.285,222.539 175.000 C 222.789 174.715,223.143 174.016,223.325 173.446 C 223.508 172.876,223.865 172.118,224.118 171.762 C 224.372 171.405,224.704 170.634,224.855 170.047 C 225.007 169.460,225.347 168.702,225.611 168.363 C 225.875 168.024,226.231 167.316,226.402 166.791 C 226.573 166.265,226.923 165.566,227.179 165.236 C 227.435 164.907,227.785 164.207,227.956 163.682 C 228.128 163.157,228.479 162.457,228.737 162.128 C 228.996 161.798,229.293 161.120,229.399 160.622 C 229.504 160.123,229.863 159.352,230.196 158.908 C 230.529 158.465,230.881 157.765,230.979 157.354 C 231.076 156.943,231.426 156.243,231.756 155.800 C 232.086 155.356,232.437 154.657,232.537 154.245 C 232.637 153.834,232.948 153.168,233.229 152.766 C 233.511 152.364,233.898 151.513,234.090 150.875 C 234.282 150.237,234.658 149.401,234.926 149.016 C 235.194 148.631,235.543 147.932,235.702 147.463 C 235.861 146.993,236.213 146.294,236.483 145.908 C 236.753 145.523,237.122 144.741,237.302 144.171 C 237.483 143.601,237.791 142.950,237.987 142.725 C 238.183 142.499,238.537 141.741,238.772 141.041 C 239.008 140.340,239.409 139.497,239.663 139.168 C 239.918 138.838,240.263 138.152,240.431 137.643 C 240.600 137.134,241.014 136.309,241.353 135.809 C 241.692 135.310,241.971 134.714,241.973 134.485 C 241.976 134.255,242.324 133.484,242.746 132.772 C 243.169 132.060,243.516 131.315,243.519 131.117 C 243.521 130.919,243.873 130.188,244.301 129.494 C 245.333 127.816,245.383 125.911,244.433 124.511 C 244.079 123.989,243.716 123.244,243.626 122.856 C 243.537 122.468,243.127 121.540,242.716 120.794 C 242.305 120.048,241.969 119.279,241.969 119.084 C 241.969 118.890,241.621 118.218,241.196 117.591 C 240.772 116.964,240.422 116.263,240.419 116.034 C 240.417 115.804,240.117 115.178,239.753 114.641 C 239.389 114.105,238.910 113.127,238.690 112.468 C 238.469 111.809,238.140 111.095,237.959 110.881 C 237.778 110.667,237.482 110.026,237.301 109.456 C 237.120 108.886,236.762 108.150,236.506 107.821 C 236.249 107.491,235.900 106.792,235.728 106.266 C 235.557 105.741,235.207 105.040,234.949 104.710 C 234.692 104.379,234.302 103.491,234.083 102.736 C 233.864 101.981,233.514 101.222,233.307 101.050 C 233.100 100.878,232.742 100.172,232.513 99.482 C 232.284 98.791,231.933 98.092,231.735 97.927 C 231.536 97.762,231.235 97.199,231.065 96.676 C 230.896 96.153,230.530 95.401,230.252 95.006 C 229.974 94.610,229.630 93.861,229.487 93.343 C 229.343 92.824,228.964 91.983,228.644 91.472 C 228.324 90.962,227.979 90.208,227.877 89.796 C 227.776 89.385,227.423 88.685,227.093 88.242 C 226.763 87.798,226.412 87.095,226.313 86.678 C 226.215 86.262,225.908 85.635,225.632 85.285 C 225.357 84.934,225.002 84.168,224.845 83.583 C 224.687 82.997,224.358 82.225,224.113 81.868 C 223.868 81.510,223.462 80.664,223.211 79.987 C 222.960 79.310,222.664 78.756,222.552 78.756 C 222.441 78.756,222.094 78.057,221.782 77.202 C 221.471 76.347,221.115 75.648,220.991 75.648 C 220.868 75.648,220.578 75.079,220.347 74.383 C 220.116 73.687,218.882 71.041,217.606 68.502 C 216.329 65.963,215.285 63.760,215.285 63.607 C 215.285 63.453,215.082 63.039,214.833 62.687 C 214.585 62.335,214.178 61.471,213.929 60.768 C 213.680 60.065,213.367 59.422,213.234 59.340 C 213.101 59.258,212.746 58.532,212.445 57.728 C 212.144 56.923,211.727 56.123,211.519 55.950 C 211.310 55.778,211.140 55.498,211.140 55.329 C 211.140 55.160,210.732 54.213,210.234 53.223 C 209.736 52.234,209.328 51.230,209.327 50.991 C 209.327 50.753,209.043 50.221,208.696 49.808 C 208.349 49.396,207.984 48.717,207.884 48.299 C 207.785 47.881,207.434 47.176,207.104 46.732 C 206.774 46.289,206.425 45.589,206.328 45.178 C 206.231 44.767,205.881 43.905,205.550 43.264 C 205.219 42.623,204.774 41.690,204.561 41.192 C 204.348 40.693,204.002 39.994,203.792 39.637 C 203.453 39.063,202.938 38.040,201.980 36.039 C 199.395 30.639,199.341 30.584,198.225 32.237 M309.165 31.306 C 308.857 31.522,307.410 34.536,307.011 35.795 C 306.845 36.318,306.547 36.881,306.348 37.046 C 306.149 37.211,305.799 37.911,305.570 38.601 C 305.341 39.292,304.990 39.991,304.792 40.156 C 304.593 40.321,304.294 40.884,304.127 41.407 C 303.960 41.930,303.555 42.882,303.226 43.523 C 302.897 44.165,302.389 45.214,302.097 45.855 C 301.806 46.496,301.461 47.196,301.331 47.409 C 301.201 47.623,300.659 48.731,300.128 49.870 C 299.596 51.010,298.825 52.599,298.415 53.401 C 298.004 54.202,297.668 55.006,297.668 55.186 C 297.668 55.365,297.319 56.081,296.891 56.776 C 296.464 57.470,296.114 58.170,296.114 58.330 C 296.114 58.490,295.784 59.159,295.380 59.816 C 294.977 60.473,294.560 61.360,294.453 61.788 C 294.347 62.215,294.097 62.745,293.899 62.966 C 293.700 63.187,293.354 63.887,293.131 64.521 C 292.908 65.155,292.439 66.108,292.088 66.640 C 291.738 67.171,291.451 67.760,291.451 67.949 C 291.451 68.138,291.101 68.844,290.674 69.518 C 290.246 70.192,289.896 70.852,289.896 70.986 C 289.896 71.119,289.547 71.916,289.119 72.757 C 288.692 73.599,288.342 74.461,288.342 74.673 C 288.342 74.886,288.106 75.359,287.818 75.725 C 287.530 76.092,287.119 76.888,286.905 77.496 C 286.690 78.104,286.346 78.788,286.140 79.016 C 285.934 79.243,285.584 79.949,285.362 80.583 C 285.140 81.217,283.913 83.850,282.635 86.434 C 281.357 89.018,280.311 91.254,280.311 91.402 C 280.311 91.551,280.154 91.830,279.963 92.021 C 279.771 92.213,279.415 92.970,279.171 93.704 C 278.928 94.437,278.575 95.165,278.387 95.321 C 278.200 95.476,277.841 96.155,277.589 96.830 C 277.337 97.505,276.981 98.232,276.798 98.446 C 276.614 98.659,276.215 99.502,275.910 100.319 C 275.605 101.136,275.249 101.869,275.120 101.949 C 274.990 102.029,274.754 102.585,274.595 103.185 C 274.435 103.784,274.042 104.624,273.722 105.052 C 273.401 105.479,273.053 106.179,272.948 106.606 C 272.843 107.034,272.475 107.755,272.130 108.208 C 271.785 108.662,271.503 109.164,271.503 109.325 C 271.503 109.693,269.539 113.967,268.705 115.415 C 268.541 115.699,268.235 116.341,268.026 116.839 C 267.816 117.338,267.470 118.038,267.256 118.394 C 267.042 118.750,266.446 120.032,265.933 121.244 C 265.419 122.455,264.824 123.737,264.610 124.093 C 263.291 126.288,263.237 127.494,264.380 129.242 C 264.718 129.759,265.077 130.531,265.177 130.959 C 265.278 131.386,265.579 132.049,265.846 132.431 C 266.114 132.813,266.502 133.608,266.710 134.197 C 266.918 134.786,267.305 135.580,267.572 135.963 C 267.838 136.345,268.186 137.042,268.345 137.511 C 268.504 137.981,268.858 138.680,269.132 139.066 C 269.406 139.451,269.750 140.201,269.896 140.731 C 270.042 141.261,270.388 142.019,270.665 142.415 C 270.941 142.811,271.252 143.484,271.355 143.912 C 271.459 144.339,271.807 145.039,272.129 145.466 C 272.452 145.894,272.802 146.593,272.907 147.021 C 273.011 147.448,273.380 148.169,273.725 148.623 C 274.070 149.076,274.352 149.589,274.352 149.761 C 274.352 149.934,274.760 150.923,275.259 151.960 C 275.758 152.997,276.166 153.966,276.166 154.113 C 276.166 154.261,276.460 154.815,276.820 155.345 C 277.180 155.875,277.548 156.601,277.637 156.959 C 277.727 157.316,278.069 158.003,278.397 158.487 C 278.725 158.970,279.064 159.619,279.151 159.929 C 279.324 160.545,280.658 163.475,281.235 164.508 C 281.434 164.864,281.775 165.563,281.992 166.062 C 282.210 166.561,282.559 167.260,282.770 167.617 C 282.980 167.973,283.334 168.672,283.558 169.171 C 285.047 172.496,287.615 177.721,287.824 177.850 C 287.935 177.918,288.102 178.296,288.195 178.689 C 288.288 179.082,288.700 180.104,289.110 180.959 C 289.519 181.813,290.047 182.921,290.281 183.420 C 290.515 183.918,290.867 184.618,291.062 184.974 C 291.257 185.330,291.603 186.054,291.829 186.582 C 292.056 187.111,292.352 187.611,292.487 187.694 C 292.622 187.778,292.864 188.335,293.025 188.933 C 293.186 189.532,293.523 190.314,293.773 190.671 C 294.024 191.029,294.368 191.751,294.538 192.277 C 294.709 192.802,295.053 193.501,295.303 193.831 C 295.553 194.160,295.961 194.975,296.209 195.640 C 296.457 196.306,296.821 196.984,297.018 197.148 C 297.215 197.311,297.453 197.816,297.547 198.269 C 297.641 198.722,298.056 199.704,298.470 200.449 C 298.884 201.195,299.223 201.959,299.223 202.147 C 299.223 202.335,299.573 203.041,300.000 203.715 C 300.427 204.389,300.777 205.088,300.777 205.269 C 300.777 205.450,301.108 206.119,301.512 206.756 C 301.916 207.393,302.331 208.261,302.434 208.685 C 302.538 209.109,302.907 209.891,303.254 210.422 C 303.602 210.953,303.886 211.542,303.886 211.731 C 303.886 211.920,304.236 212.626,304.663 213.300 C 305.091 213.974,305.440 214.674,305.440 214.855 C 305.440 215.036,305.790 215.735,306.218 216.409 C 306.645 217.083,306.995 217.836,306.995 218.083 C 306.995 218.330,307.229 218.938,307.516 219.434 C 307.803 219.931,308.265 220.832,308.543 221.438 C 308.821 222.043,309.160 222.539,309.295 222.539 C 309.858 222.539,311.596 220.181,311.752 219.206 C 311.840 218.654,312.082 218.061,312.290 217.889 C 312.497 217.717,312.870 217.031,313.118 216.366 C 313.366 215.700,313.773 214.886,314.023 214.556 C 314.274 214.227,314.618 213.527,314.790 213.002 C 314.961 212.477,315.317 211.769,315.581 211.430 C 315.845 211.091,316.185 210.333,316.336 209.746 C 316.488 209.159,316.816 208.387,317.066 208.031 C 317.316 207.675,317.727 206.859,317.979 206.218 C 318.231 205.576,318.584 204.877,318.764 204.663 C 318.944 204.449,319.293 203.750,319.541 203.109 C 319.789 202.468,320.146 201.768,320.334 201.554 C 320.523 201.341,320.815 200.641,320.984 200.000 C 321.153 199.359,321.446 198.659,321.634 198.446 C 321.823 198.232,322.186 197.532,322.441 196.891 C 322.695 196.250,323.163 195.343,323.480 194.875 C 323.797 194.407,324.130 193.686,324.221 193.274 C 324.311 192.861,324.554 192.383,324.760 192.212 C 324.966 192.041,325.314 191.283,325.534 190.528 C 325.753 189.774,326.143 188.885,326.400 188.555 C 326.657 188.224,327.008 187.523,327.179 186.998 C 327.350 186.473,327.700 185.773,327.956 185.444 C 328.212 185.114,328.562 184.415,328.734 183.889 C 328.905 183.364,329.260 182.660,329.523 182.326 C 329.787 181.991,330.130 181.241,330.287 180.659 C 330.443 180.077,330.797 179.315,331.073 178.964 C 331.349 178.614,331.655 177.986,331.754 177.570 C 331.852 177.154,332.203 176.451,332.533 176.007 C 332.863 175.563,333.213 174.864,333.310 174.453 C 333.408 174.041,333.761 173.338,334.094 172.890 C 334.427 172.441,334.812 171.578,334.948 170.970 C 335.085 170.363,335.422 169.562,335.697 169.190 C 335.972 168.818,336.287 168.230,336.397 167.883 C 336.506 167.537,337.281 165.930,338.117 164.312 C 338.953 162.695,339.639 161.174,339.642 160.932 C 339.645 160.690,339.994 159.979,340.419 159.352 C 340.844 158.725,341.194 158.026,341.196 157.798 C 341.199 157.570,341.549 156.870,341.974 156.243 C 342.398 155.616,342.746 154.910,342.746 154.675 C 342.746 154.439,343.031 153.859,343.380 153.386 C 343.729 152.914,344.085 152.203,344.172 151.807 C 344.259 151.412,345.359 149.059,346.616 146.578 C 347.872 144.098,348.981 141.704,349.078 141.259 C 349.176 140.814,349.408 140.324,349.594 140.170 C 349.780 140.015,350.138 139.337,350.390 138.662 C 350.642 137.987,350.998 137.260,351.181 137.047 C 351.364 136.833,351.765 136.018,352.073 135.236 C 352.381 134.453,352.722 133.754,352.832 133.681 C 352.942 133.609,353.234 132.936,353.481 132.186 C 353.728 131.436,354.093 130.659,354.292 130.460 C 354.638 130.114,355.214 128.595,355.535 127.185 C 355.691 126.496,354.893 124.023,354.286 123.316 C 354.103 123.102,353.745 122.289,353.490 121.508 C 353.236 120.728,352.882 119.943,352.703 119.764 C 352.524 119.586,352.168 118.884,351.911 118.204 C 351.655 117.525,351.305 116.825,351.134 116.650 C 350.963 116.474,350.617 115.775,350.363 115.095 C 350.110 114.416,349.692 113.582,349.433 113.242 C 349.175 112.902,348.964 112.365,348.964 112.048 C 348.964 111.731,348.687 111.063,348.348 110.564 C 348.009 110.064,347.594 109.239,347.426 108.730 C 347.258 108.221,346.911 107.535,346.655 107.205 C 346.399 106.876,346.049 106.176,345.878 105.651 C 345.707 105.125,345.344 104.413,345.072 104.068 C 344.801 103.722,344.468 102.950,344.334 102.351 C 344.199 101.752,343.787 100.826,343.418 100.293 C 343.048 99.761,342.746 99.144,342.746 98.924 C 342.746 98.704,342.398 98.011,341.974 97.384 C 341.549 96.757,341.199 96.079,341.196 95.878 C 341.194 95.676,340.854 94.977,340.441 94.323 C 340.028 93.670,339.613 92.770,339.520 92.325 C 339.427 91.879,339.066 91.128,338.717 90.655 C 338.368 90.182,338.083 89.608,338.083 89.379 C 338.083 89.149,337.733 88.410,337.306 87.736 C 336.878 87.062,336.528 86.383,336.528 86.227 C 336.528 86.071,336.193 85.347,335.784 84.617 C 335.374 83.887,334.959 82.948,334.860 82.529 C 334.761 82.110,334.451 81.445,334.170 81.051 C 333.889 80.656,333.529 79.950,333.369 79.480 C 333.209 79.011,332.870 78.357,332.616 78.028 C 332.362 77.698,332.016 77.012,331.848 76.503 C 331.680 75.994,331.276 75.183,330.949 74.702 C 330.622 74.221,330.278 73.373,330.185 72.818 C 330.091 72.262,329.786 71.601,329.507 71.348 C 329.227 71.096,328.874 70.393,328.721 69.787 C 328.569 69.181,328.222 68.484,327.951 68.239 C 327.681 67.994,327.332 67.316,327.178 66.733 C 327.023 66.151,326.688 65.440,326.434 65.155 C 326.179 64.870,325.825 64.171,325.648 63.601 C 325.471 63.031,325.122 62.215,324.873 61.788 C 324.624 61.360,324.214 60.457,323.962 59.780 C 323.711 59.103,323.418 58.549,323.312 58.549 C 323.207 58.549,322.859 57.850,322.539 56.995 C 322.219 56.140,321.871 55.440,321.765 55.440 C 321.660 55.440,321.372 54.887,321.126 54.210 C 320.880 53.533,319.638 50.881,318.367 48.316 C 317.095 45.751,316.056 43.463,316.058 43.231 C 316.060 42.999,315.903 42.677,315.707 42.515 C 315.512 42.353,315.147 41.669,314.895 40.994 C 314.643 40.319,314.288 39.592,314.105 39.378 C 313.923 39.165,313.570 38.465,313.321 37.824 C 313.071 37.183,312.667 36.367,312.422 36.010 C 312.177 35.654,311.851 34.910,311.699 34.357 C 311.210 32.583,309.788 30.871,309.165 31.306 M200.166 50.653 C 200.538 51.439,200.941 52.143,201.062 52.218 C 201.183 52.292,201.412 52.840,201.572 53.434 C 201.732 54.029,202.079 54.789,202.342 55.124 C 202.605 55.458,202.958 56.148,203.126 56.658 C 203.294 57.167,203.708 57.992,204.047 58.491 C 205.439 60.542,204.740 60.881,199.121 60.881 C 193.470 60.881,192.865 60.500,194.555 58.005 C 194.980 57.378,195.329 56.678,195.332 56.448 C 195.335 56.219,195.635 55.592,195.998 55.056 C 196.362 54.520,196.840 53.550,197.060 52.902 C 197.488 51.642,199.024 49.223,199.396 49.223 C 199.447 49.223,199.793 49.866,200.166 50.653 M311.261 51.554 C 311.445 51.911,311.675 52.573,311.773 53.026 C 311.871 53.479,312.105 53.978,312.294 54.135 C 312.483 54.292,312.897 55.116,313.215 55.967 C 313.533 56.817,313.880 57.513,313.986 57.513 C 314.092 57.513,314.386 58.057,314.640 58.723 C 315.396 60.702,314.970 60.887,309.751 60.855 C 304.018 60.820,303.169 60.431,304.742 58.563 C 305.090 58.148,305.451 57.409,305.543 56.919 C 305.635 56.430,305.941 55.820,306.224 55.564 C 306.507 55.308,306.863 54.635,307.016 54.067 C 307.169 53.500,307.576 52.588,307.921 52.041 C 308.267 51.494,308.549 50.895,308.549 50.710 C 308.549 50.526,308.736 50.108,308.964 49.782 L 309.380 49.189 310.153 50.048 C 310.578 50.520,311.076 51.198,311.261 51.554 M86.593 49.842 C 86.843 50.032,87.047 50.301,87.047 50.442 C 87.047 50.582,87.280 50.908,87.565 51.166 C 87.850 51.424,88.083 51.769,88.083 51.934 C 88.083 52.099,88.491 53.061,88.990 54.074 C 89.488 55.086,89.896 56.082,89.896 56.286 C 89.896 56.490,90.244 57.171,90.669 57.798 C 92.411 60.369,91.757 60.882,86.740 60.878 C 80.551 60.873,80.318 60.744,81.628 58.043 C 83.826 53.510,85.888 49.483,86.007 49.490 C 86.080 49.495,86.344 49.653,86.593 49.842 M95.034 67.512 C 95.359 67.739,95.906 68.526,96.251 69.260 C 96.596 69.995,96.988 70.771,97.121 70.984 C 97.459 71.525,99.081 75.067,99.495 76.166 C 99.682 76.665,100.047 77.351,100.306 77.690 C 100.944 78.527,100.928 79.953,100.276 80.302 C 99.949 80.477,94.978 80.570,85.930 80.570 C 70.359 80.570,71.175 80.678,71.910 78.720 C 72.143 78.099,72.528 77.064,72.765 76.419 C 73.002 75.775,73.449 74.894,73.757 74.461 C 74.066 74.027,74.402 73.338,74.505 72.929 C 74.607 72.520,74.965 71.782,75.299 71.290 C 75.633 70.798,76.025 69.953,76.170 69.413 C 76.317 68.867,76.786 68.136,77.227 67.765 L 78.019 67.098 86.232 67.098 C 93.330 67.098,94.524 67.155,95.034 67.512 M208.380 68.018 C 208.901 68.523,209.326 69.090,209.326 69.277 C 209.326 69.463,209.661 70.245,210.070 71.013 C 210.479 71.781,210.895 72.780,210.993 73.233 C 211.092 73.687,211.334 74.191,211.532 74.355 C 211.729 74.518,212.093 75.197,212.340 75.862 C 212.588 76.528,213.003 77.351,213.261 77.690 C 213.855 78.472,213.893 80.193,213.321 80.413 C 213.095 80.499,206.751 80.570,199.223 80.570 C 191.694 80.570,185.350 80.499,185.125 80.413 C 184.508 80.176,184.582 78.219,185.239 77.383 C 185.527 77.017,185.932 76.236,186.140 75.648 C 186.348 75.059,186.753 74.278,187.041 73.912 C 187.329 73.546,187.565 73.080,187.565 72.878 C 187.565 72.047,189.865 67.709,190.456 67.425 C 190.863 67.229,193.749 67.128,199.248 67.116 L 207.433 67.098 208.380 68.018 M318.063 67.260 C 318.674 67.424,320.378 70.290,320.982 72.170 C 321.162 72.729,321.459 73.361,321.643 73.575 C 321.827 73.789,322.184 74.488,322.436 75.130 C 322.688 75.771,323.114 76.598,323.383 76.968 C 324.123 77.984,324.295 79.782,323.695 80.221 C 323.051 80.691,295.612 80.741,295.144 80.273 C 294.758 79.887,295.020 78.547,295.636 77.750 C 295.899 77.410,296.114 76.932,296.114 76.688 C 296.114 76.444,296.462 75.731,296.886 75.104 C 297.311 74.477,297.661 73.813,297.664 73.629 C 297.666 73.445,298.011 72.629,298.431 71.816 C 298.850 71.002,299.272 70.012,299.368 69.615 C 299.464 69.219,299.935 68.490,300.414 67.996 L 301.286 67.098 309.387 67.102 C 313.842 67.104,317.746 67.175,318.063 67.260 M105.021 87.435 C 105.230 87.720,105.466 88.279,105.546 88.678 C 105.626 89.076,105.972 89.776,106.315 90.232 C 106.658 90.689,107.017 91.433,107.113 91.886 C 107.209 92.339,107.454 92.849,107.658 93.018 C 107.862 93.188,108.197 93.890,108.401 94.579 C 108.606 95.267,109.073 96.271,109.438 96.810 C 110.160 97.872,110.282 98.682,109.793 99.171 C 109.178 99.786,62.776 99.601,62.445 98.982 C 62.153 98.436,62.288 97.883,62.956 96.891 C 63.196 96.535,63.522 95.859,63.681 95.390 C 63.841 94.921,64.190 94.221,64.459 93.836 C 64.727 93.450,65.077 92.751,65.236 92.281 C 65.395 91.812,65.750 91.111,66.026 90.725 C 66.301 90.338,66.655 89.556,66.813 88.987 C 67.460 86.645,66.115 86.790,86.582 86.857 C 104.306 86.916,104.648 86.927,105.021 87.435 M217.834 87.397 C 218.126 87.661,218.438 88.211,218.527 88.619 C 218.617 89.027,218.973 89.778,219.319 90.288 C 219.665 90.798,219.948 91.371,219.948 91.562 C 219.948 91.754,220.703 93.393,221.626 95.206 C 222.970 97.845,223.252 98.599,223.042 98.992 C 222.621 99.779,175.813 99.757,175.392 98.970 C 175.104 98.432,175.570 96.871,176.120 96.531 C 176.266 96.441,176.575 95.794,176.808 95.095 C 177.040 94.395,177.399 93.683,177.604 93.512 C 177.810 93.342,178.152 92.614,178.366 91.895 C 178.579 91.176,178.918 90.403,179.117 90.177 C 179.317 89.951,179.654 89.242,179.865 88.601 C 180.497 86.686,179.424 86.782,199.390 86.853 C 216.419 86.914,217.330 86.941,217.834 87.397 M327.847 86.952 C 328.083 87.042,328.561 87.713,328.911 88.442 C 329.260 89.170,329.716 90.058,329.924 90.415 C 330.133 90.771,330.305 91.309,330.307 91.610 C 330.309 91.912,330.547 92.458,330.835 92.824 C 331.123 93.190,331.534 93.987,331.748 94.595 C 331.963 95.202,332.321 95.902,332.544 96.149 C 333.237 96.914,333.664 98.476,333.328 99.014 C 333.050 99.460,331.917 99.482,309.555 99.482 C 282.734 99.482,284.576 99.666,286.268 97.150 C 286.412 96.937,286.761 96.237,287.044 95.596 C 287.327 94.955,287.666 94.255,287.797 94.041 C 288.127 93.504,289.739 89.964,290.156 88.860 C 290.344 88.361,290.789 87.691,291.145 87.370 L 291.790 86.788 309.605 86.788 C 319.402 86.788,327.612 86.862,327.847 86.952 M113.212 106.153 C 114.163 106.628,116.704 111.152,117.897 114.495 C 118.175 115.271,118.525 115.983,118.676 116.076 C 119.139 116.363,119.489 118.399,119.146 118.812 C 118.893 119.118,113.818 119.163,86.043 119.107 L 53.238 119.041 53.158 118.066 C 53.101 117.383,53.237 116.888,53.611 116.412 C 53.905 116.039,54.145 115.578,54.145 115.388 C 54.145 114.911,54.975 113.212,55.209 113.212 C 55.313 113.212,55.589 112.639,55.822 111.937 C 56.055 111.236,56.406 110.529,56.601 110.367 C 56.797 110.205,57.157 109.435,57.402 108.657 C 57.695 107.724,58.146 106.979,58.725 106.471 L 59.604 105.699 85.955 105.700 C 110.523 105.700,112.367 105.731,113.212 106.153 M226.645 106.478 C 227.236 106.907,227.720 107.409,227.720 107.594 C 227.720 107.780,228.128 108.741,228.626 109.730 C 229.124 110.719,229.532 111.724,229.533 111.962 C 229.533 112.200,229.812 112.726,230.152 113.130 C 230.492 113.534,230.895 114.318,231.048 114.871 C 231.201 115.424,231.571 116.138,231.872 116.458 C 232.276 116.888,232.397 117.301,232.336 118.040 L 232.254 119.041 199.223 119.041 L 166.192 119.041 166.110 118.044 C 166.051 117.325,166.202 116.782,166.652 116.101 C 166.996 115.581,167.417 114.728,167.589 114.205 C 167.761 113.682,168.071 113.114,168.277 112.943 C 168.483 112.772,168.817 112.073,169.020 111.390 C 169.223 110.707,169.602 109.826,169.863 109.432 C 170.124 109.038,170.512 108.254,170.725 107.690 C 171.534 105.557,169.491 105.699,199.245 105.699 L 225.570 105.699 226.645 106.478 M336.308 105.965 C 337.222 106.219,338.083 107.129,338.083 107.842 C 338.083 108.033,338.377 108.588,338.736 109.075 C 339.095 109.562,339.509 110.403,339.654 110.944 C 339.800 111.485,340.206 112.350,340.555 112.865 C 340.905 113.381,341.194 113.991,341.196 114.220 C 341.199 114.450,341.549 115.150,341.974 115.777 C 342.851 117.072,343.038 118.744,342.336 119.014 C 341.452 119.353,276.426 119.189,276.396 118.847 C 276.322 118.007,276.518 117.176,276.930 116.583 C 277.179 116.225,277.512 115.549,277.671 115.079 C 277.830 114.610,278.198 113.892,278.488 113.485 C 278.778 113.077,279.016 112.657,279.016 112.552 C 279.016 112.446,279.424 111.512,279.922 110.475 C 280.421 109.438,280.829 108.406,280.829 108.181 C 280.829 107.956,281.295 107.306,281.865 106.736 L 282.902 105.699 309.132 105.701 C 326.045 105.702,335.698 105.796,336.308 105.965 M122.677 125.764 C 123.778 126.224,123.830 126.804,122.933 128.627 C 122.583 129.339,122.292 130.111,122.288 130.341 C 122.283 130.571,122.064 131.037,121.799 131.377 C 121.535 131.717,121.179 132.425,121.007 132.950 C 120.836 133.476,120.491 134.175,120.241 134.505 C 119.991 134.834,119.586 135.640,119.342 136.296 C 118.631 138.206,120.918 138.083,86.163 138.083 C 50.184 138.083,53.898 138.365,52.846 135.551 C 52.542 134.735,52.129 133.887,51.930 133.666 C 51.731 133.445,51.393 132.767,51.178 132.159 C 50.964 131.552,50.553 130.755,50.265 130.389 C 49.977 130.022,49.741 129.525,49.741 129.283 C 49.741 129.041,49.655 128.757,49.551 128.653 C 48.749 127.851,48.759 126.384,49.569 125.890 C 50.678 125.214,121.069 125.092,122.677 125.764 M236.087 125.978 C 236.784 126.435,236.786 126.444,236.373 127.403 C 236.144 127.934,235.839 128.775,235.695 129.272 C 235.551 129.769,235.155 130.507,234.815 130.911 C 234.475 131.315,234.197 131.841,234.196 132.079 C 234.196 132.318,233.788 133.322,233.289 134.312 C 232.791 135.301,232.383 136.252,232.383 136.426 C 232.383 136.599,232.025 137.043,231.586 137.412 L 230.789 138.083 199.268 138.079 C 164.553 138.075,166.751 138.187,166.068 136.387 C 165.851 135.816,165.426 134.944,165.124 134.449 C 164.822 133.954,164.494 133.199,164.396 132.772 C 164.298 132.345,163.949 131.585,163.622 131.085 C 163.295 130.584,162.940 129.885,162.834 129.530 C 162.727 129.176,162.496 128.653,162.320 128.368 C 161.443 126.951,161.623 126.026,162.846 125.658 C 164.505 125.158,235.309 125.468,236.087 125.978 M346.742 125.890 C 347.295 126.349,347.100 127.762,346.352 128.713 C 346.078 129.060,345.855 129.486,345.855 129.658 C 345.855 130.071,345.110 131.556,344.809 131.742 C 344.680 131.822,344.447 132.378,344.292 132.977 C 344.137 133.577,343.802 134.359,343.548 134.715 C 343.295 135.071,342.943 135.800,342.767 136.333 C 342.144 138.224,344.817 138.083,309.636 138.083 L 277.936 138.083 277.051 137.171 C 276.564 136.670,276.164 136.058,276.163 135.811 C 276.161 135.565,275.882 134.877,275.542 134.283 C 275.203 133.689,274.784 132.756,274.611 132.210 C 274.439 131.664,274.036 130.809,273.715 130.309 C 273.395 129.809,272.942 128.760,272.708 127.977 L 272.283 126.554 272.949 125.967 L 273.614 125.380 309.954 125.449 C 341.082 125.508,346.358 125.571,346.742 125.890 M114.607 144.785 C 115.072 145.300,114.865 146.209,114.063 147.178 C 113.873 147.407,113.477 148.281,113.183 149.121 C 112.890 149.961,112.494 150.823,112.303 151.036 C 112.113 151.250,111.874 151.775,111.771 152.202 C 111.669 152.630,111.252 153.439,110.844 154.002 C 110.437 154.564,110.104 155.138,110.104 155.277 C 110.104 156.519,110.917 156.477,86.780 156.477 C 61.031 156.477,62.922 156.603,62.167 154.829 C 61.856 154.097,61.442 153.317,61.248 153.096 C 61.053 152.875,60.713 152.181,60.492 151.554 C 60.271 150.927,59.921 150.228,59.715 150.000 C 59.509 149.772,59.159 149.073,58.938 148.446 C 58.717 147.819,58.373 147.125,58.174 146.904 C 57.617 146.286,57.409 145.127,57.775 144.686 C 58.331 144.016,113.999 144.113,114.607 144.785 M227.580 144.650 C 228.108 145.036,227.856 146.284,227.076 147.146 C 226.868 147.376,226.522 148.062,226.308 148.670 C 226.093 149.277,225.682 150.074,225.394 150.440 C 225.106 150.807,224.870 151.294,224.870 151.524 C 224.870 152.622,222.701 156.172,221.936 156.325 C 221.520 156.408,211.003 156.477,198.565 156.477 L 175.952 156.477 174.918 154.684 C 174.350 153.698,173.800 152.504,173.696 152.031 C 173.592 151.558,173.240 150.820,172.913 150.391 C 172.587 149.962,172.234 149.262,172.129 148.834 C 172.024 148.407,171.675 147.707,171.352 147.280 C 170.474 146.116,170.282 145.076,170.866 144.649 C 171.574 144.131,226.872 144.132,227.580 144.650 M337.939 144.646 C 338.471 145.035,337.947 147.288,337.175 147.928 C 336.977 148.093,336.679 148.656,336.515 149.179 C 336.350 149.702,335.951 150.542,335.627 151.046 C 335.304 151.550,334.954 152.351,334.850 152.826 C 334.671 153.641,333.336 155.860,332.772 156.282 C 332.630 156.388,322.179 156.446,309.548 156.411 C 283.869 156.340,285.973 156.507,285.257 154.479 C 285.066 153.939,284.770 153.323,284.598 153.109 C 284.425 152.895,284.074 152.137,283.817 151.425 C 283.559 150.712,283.200 149.955,283.017 149.741 C 282.835 149.527,282.481 148.828,282.231 148.187 C 281.980 147.545,281.563 146.743,281.302 146.403 C 280.755 145.688,280.697 145.054,281.140 144.611 C 281.622 144.130,337.279 144.164,337.939 144.646 M105.727 163.183 C 106.188 163.556,106.263 163.755,106.047 164.025 C 105.891 164.219,105.673 164.670,105.564 165.026 C 105.454 165.382,105.099 166.094,104.775 166.609 C 104.450 167.123,104.059 168.011,103.905 168.582 C 103.751 169.154,103.408 169.899,103.144 170.238 C 102.879 170.577,102.581 171.115,102.481 171.432 C 102.146 172.503,101.114 172.567,85.525 172.486 C 69.685 172.403,70.176 172.449,69.824 171.039 C 69.728 170.653,69.385 169.987,69.062 169.560 C 68.740 169.132,68.395 168.452,68.295 168.048 C 68.195 167.645,67.835 166.873,67.495 166.334 C 66.598 164.913,66.375 163.485,66.982 163.041 C 67.849 162.407,104.937 162.543,105.727 163.183 M218.411 162.962 C 219.159 163.363,218.808 165.319,217.761 166.580 C 217.583 166.794,217.235 167.494,216.986 168.135 C 216.737 168.776,216.399 169.462,216.233 169.660 C 216.068 169.857,215.743 170.498,215.511 171.084 C 214.933 172.542,215.330 172.507,199.223 172.521 C 183.231 172.535,183.507 172.556,182.976 171.270 C 182.764 170.757,182.431 170.156,182.235 169.935 C 182.039 169.715,181.698 169.021,181.477 168.394 C 181.255 167.767,180.912 167.073,180.714 166.852 C 180.516 166.631,180.109 165.810,179.810 165.026 L 179.267 163.601 179.818 163.148 C 180.473 162.608,217.418 162.431,218.411 162.962 M329.365 163.180 C 329.764 163.511,329.759 163.595,329.305 164.346 C 329.036 164.791,328.729 165.447,328.622 165.803 C 328.516 166.159,328.207 166.766,327.936 167.152 C 327.664 167.537,327.310 168.232,327.149 168.695 C 326.822 169.633,325.405 172.042,325.001 172.346 C 324.858 172.454,317.824 172.512,309.370 172.476 C 292.197 172.402,293.582 172.560,293.040 170.608 C 292.920 170.174,292.513 169.365,292.136 168.811 C 291.759 168.257,291.449 167.616,291.446 167.386 C 291.443 167.157,291.094 166.456,290.669 165.829 C 289.858 164.632,289.680 163.532,290.212 163.000 C 290.704 162.509,328.767 162.683,329.365 163.180 M97.916 179.003 C 98.442 179.336,97.866 181.596,96.860 183.140 C 96.450 183.770,96.114 184.483,96.114 184.725 C 96.114 184.966,95.882 185.458,95.598 185.819 C 95.314 186.180,94.860 186.994,94.588 187.629 C 93.964 189.083,93.750 189.120,85.909 189.118 C 79.184 189.116,78.397 188.970,77.782 187.614 C 77.544 187.088,77.137 186.343,76.878 185.958 C 76.619 185.574,76.251 184.737,76.059 184.099 C 75.867 183.461,75.480 182.610,75.198 182.208 C 74.570 181.309,74.264 179.564,74.652 179.097 C 74.991 178.688,97.275 178.598,97.916 179.003 M210.828 180.193 C 210.888 181.230,210.775 181.690,210.277 182.424 C 209.931 182.933,209.511 183.766,209.343 184.275 C 209.175 184.784,208.829 185.470,208.573 185.800 C 208.318 186.129,207.996 186.742,207.859 187.160 C 207.299 188.870,206.848 188.981,200.044 189.071 C 192.247 189.174,191.540 189.068,190.817 187.691 C 190.519 187.123,190.015 186.250,189.698 185.751 C 189.381 185.253,189.121 184.676,189.120 184.470 C 189.120 184.264,188.825 183.670,188.465 183.151 C 187.681 182.019,187.138 179.283,187.635 178.965 C 187.810 178.853,193.083 178.789,199.352 178.824 L 210.751 178.886 210.828 180.193 M321.099 178.916 C 321.676 179.137,320.838 183.420,320.218 183.420 C 320.104 183.420,319.750 184.119,319.430 184.974 C 319.110 185.829,318.770 186.528,318.673 186.528 C 318.576 186.528,318.251 187.036,317.949 187.656 C 317.257 189.081,317.024 189.119,309.096 189.119 C 302.577 189.118,301.789 188.953,301.064 187.435 C 300.860 187.008,300.532 186.367,300.336 186.010 C 300.139 185.654,299.796 184.955,299.574 184.456 C 299.351 183.957,298.906 183.025,298.583 182.383 C 297.834 180.893,297.580 179.564,297.958 179.108 C 298.264 178.740,320.167 178.558,321.099 178.916 M89.970 195.794 C 90.467 196.342,89.991 198.172,88.945 199.736 C 88.613 200.232,88.342 200.807,88.342 201.014 C 88.342 201.830,86.223 204.688,85.848 204.377 C 85.652 204.214,85.492 203.915,85.492 203.712 C 85.492 203.252,84.769 201.830,84.293 201.354 C 84.098 201.159,83.938 200.827,83.938 200.616 C 83.938 200.182,83.193 198.643,82.885 198.443 C 82.317 198.072,81.934 196.156,82.346 195.744 C 82.982 195.108,89.388 195.150,89.970 195.794 M203.089 195.818 C 203.424 196.445,203.014 197.957,202.345 198.563 C 202.069 198.813,201.763 199.380,201.666 199.824 C 201.300 201.489,199.453 204.703,199.053 204.371 C 198.557 203.959,196.992 201.078,196.789 200.201 C 196.699 199.813,196.344 199.080,196.000 198.573 C 195.205 197.402,194.933 196.212,195.346 195.715 C 195.873 195.079,202.743 195.171,203.089 195.818 M313.433 195.790 L 313.969 196.244 312.949 198.316 C 312.388 199.456,311.807 200.819,311.658 201.345 C 311.509 201.870,311.155 202.570,310.871 202.899 C 310.588 203.228,310.199 203.720,310.008 203.993 C 309.506 204.708,308.883 204.347,308.562 203.156 C 308.411 202.597,308.071 201.863,307.805 201.523 C 307.539 201.184,307.235 200.499,307.130 200.000 C 307.024 199.501,306.666 198.730,306.333 198.287 C 305.545 197.238,305.294 196.214,305.702 195.722 C 306.210 195.110,312.695 195.167,313.433 195.790 " stroke="none" fill="#ec242c" fill-rule="evenodd"></path><path id="path1" d="M0.000 129.534 L 0.000 259.067 200.000 259.067 L 400.000 259.067 400.000 129.534 L 400.000 0.000 200.000 0.000 L 0.000 0.000 0.000 129.534 M87.317 32.529 C 87.754 33.165,88.240 34.062,88.396 34.524 C 88.552 34.985,88.884 35.655,89.132 36.013 C 89.380 36.370,89.710 37.131,89.864 37.703 C 90.018 38.276,90.438 39.143,90.797 39.630 C 91.157 40.117,91.451 40.708,91.451 40.944 C 91.451 41.180,91.798 41.886,92.223 42.513 C 92.648 43.140,92.998 43.807,93.000 43.995 C 93.003 44.183,93.345 44.999,93.760 45.808 C 94.175 46.618,94.695 47.688,94.915 48.187 C 95.135 48.685,95.481 49.385,95.683 49.741 C 95.885 50.097,96.235 50.797,96.460 51.295 C 96.685 51.794,97.029 52.494,97.225 52.850 C 98.021 54.303,99.212 56.924,99.481 57.816 C 99.638 58.339,99.939 58.909,100.148 59.083 C 100.358 59.257,100.655 59.900,100.809 60.512 C 100.964 61.125,101.311 61.827,101.582 62.072 C 101.853 62.317,102.202 62.990,102.358 63.568 C 102.513 64.146,102.862 64.901,103.133 65.245 C 103.404 65.589,103.753 66.347,103.910 66.929 C 104.067 67.511,104.410 68.261,104.673 68.595 C 104.937 68.930,105.292 69.633,105.463 70.159 C 105.635 70.684,105.984 71.384,106.241 71.713 C 106.497 72.043,106.844 72.729,107.012 73.238 C 107.180 73.747,107.595 74.572,107.933 75.071 C 108.272 75.571,108.549 76.231,108.549 76.540 C 108.549 76.848,108.899 77.652,109.326 78.326 C 109.754 79.000,110.104 79.700,110.104 79.881 C 110.104 80.061,110.437 80.736,110.845 81.379 C 111.253 82.022,111.728 82.976,111.900 83.498 C 112.073 84.021,112.313 84.510,112.434 84.585 C 112.556 84.660,112.856 85.332,113.101 86.078 C 113.347 86.825,113.757 87.705,114.013 88.034 C 114.269 88.364,114.618 89.063,114.790 89.589 C 114.961 90.114,115.311 90.814,115.567 91.143 C 115.823 91.473,116.172 92.172,116.342 92.698 C 116.513 93.223,116.852 93.944,117.096 94.301 C 117.339 94.657,117.731 95.521,117.965 96.222 C 118.200 96.923,118.549 97.680,118.741 97.906 C 118.933 98.132,119.293 98.841,119.541 99.482 C 119.789 100.123,120.138 100.823,120.316 101.036 C 120.494 101.250,120.794 101.833,120.982 102.332 C 121.170 102.830,121.525 103.588,121.770 104.016 C 122.016 104.443,122.362 105.259,122.540 105.829 C 122.718 106.399,123.014 107.040,123.198 107.254 C 123.381 107.468,123.734 108.167,123.982 108.808 C 124.230 109.449,124.586 110.155,124.774 110.376 C 124.962 110.596,125.287 111.262,125.496 111.856 C 125.706 112.449,126.110 113.259,126.394 113.656 C 126.679 114.053,127.035 114.858,127.187 115.445 C 127.339 116.032,127.679 116.790,127.942 117.129 C 128.206 117.469,128.562 118.176,128.734 118.701 C 128.905 119.227,129.255 119.926,129.511 120.256 C 129.767 120.585,130.117 121.285,130.288 121.810 C 130.459 122.336,130.806 123.035,131.059 123.365 C 132.453 125.179,132.440 128.235,131.031 130.315 C 130.788 130.674,130.407 131.484,130.184 132.116 C 129.961 132.748,129.610 133.451,129.404 133.679 C 129.198 133.907,128.854 134.590,128.639 135.198 C 128.425 135.806,128.014 136.603,127.726 136.969 C 127.438 137.335,127.202 137.823,127.201 138.053 C 127.201 138.283,126.793 139.281,126.295 140.270 C 125.796 141.259,125.389 142.207,125.389 142.376 C 125.389 142.545,125.229 142.815,125.034 142.977 C 124.839 143.139,124.473 143.824,124.221 144.498 C 123.969 145.173,123.601 145.913,123.404 146.142 C 123.206 146.371,122.804 147.245,122.510 148.085 C 122.216 148.924,121.829 149.786,121.650 150.000 C 121.471 150.214,121.121 150.913,120.873 151.554 C 120.626 152.196,120.276 152.895,120.096 153.109 C 119.917 153.323,119.567 154.022,119.319 154.663 C 119.071 155.304,118.718 156.004,118.534 156.218 C 118.351 156.431,118.055 157.073,117.877 157.642 C 117.699 158.212,117.353 159.028,117.107 159.456 C 116.862 159.883,116.507 160.641,116.320 161.140 C 116.132 161.639,115.778 162.280,115.534 162.565 C 115.290 162.850,114.944 163.549,114.767 164.119 C 114.589 164.689,114.238 165.389,113.987 165.674 C 113.736 165.959,113.343 166.847,113.115 167.647 C 112.886 168.448,112.531 169.243,112.325 169.414 C 112.119 169.585,111.876 170.063,111.786 170.476 C 111.695 170.889,111.352 171.622,111.023 172.106 C 110.695 172.590,110.289 173.403,110.121 173.912 C 109.953 174.421,109.604 175.108,109.345 175.437 C 109.087 175.767,108.790 176.444,108.685 176.943 C 108.579 177.442,108.156 178.365,107.744 178.995 C 107.332 179.625,106.993 180.325,106.990 180.550 C 106.988 180.775,106.638 181.472,106.213 182.099 C 105.788 182.726,105.440 183.432,105.440 183.667 C 105.440 183.903,105.161 184.475,104.820 184.937 C 104.479 185.399,104.074 186.276,103.921 186.886 C 103.767 187.495,103.427 188.276,103.165 188.621 C 102.902 188.966,102.485 189.793,102.237 190.459 C 101.989 191.124,101.617 191.809,101.411 191.980 C 101.205 192.151,101.036 192.434,101.036 192.609 C 101.036 192.784,100.645 193.673,100.166 194.585 C 99.687 195.497,99.219 196.561,99.126 196.949 C 99.033 197.337,98.667 198.082,98.313 198.605 C 97.958 199.127,97.666 199.742,97.664 199.971 C 97.661 200.201,97.311 200.902,96.886 201.529 C 96.462 202.156,96.112 202.855,96.109 203.083 C 96.107 203.311,95.757 204.010,95.332 204.637 C 94.907 205.264,94.560 206.024,94.560 206.326 C 94.560 206.628,94.285 207.280,93.950 207.777 C 93.615 208.273,93.201 209.107,93.030 209.630 C 92.859 210.152,92.557 210.716,92.358 210.881 C 92.158 211.046,91.860 211.609,91.695 212.132 C 91.530 212.655,91.122 213.491,90.789 213.990 C 90.455 214.488,90.077 215.363,89.949 215.933 C 89.821 216.503,89.407 217.422,89.029 217.977 C 88.651 218.531,88.342 219.177,88.342 219.412 C 88.342 219.981,86.219 222.854,85.983 222.605 C 85.583 222.184,80.850 212.603,80.697 211.905 C 80.607 211.498,80.316 210.887,80.049 210.548 C 79.782 210.208,79.364 209.416,79.120 208.787 C 78.876 208.157,78.529 207.468,78.349 207.254 C 78.170 207.040,77.820 206.341,77.572 205.699 C 77.324 205.058,76.976 204.359,76.797 204.145 C 76.619 203.931,76.345 203.277,76.189 202.691 C 76.034 202.105,75.633 201.223,75.299 200.731 C 74.965 200.238,74.606 199.494,74.502 199.076 C 74.397 198.658,74.048 197.966,73.726 197.539 C 73.403 197.111,73.055 196.419,72.951 196.000 C 72.848 195.581,72.534 194.917,72.254 194.523 C 71.974 194.130,71.587 193.286,71.396 192.648 C 71.204 192.010,70.817 191.159,70.537 190.757 C 70.257 190.355,69.897 189.642,69.738 189.172 C 69.579 188.703,69.229 188.004,68.961 187.618 C 68.693 187.233,68.343 186.533,68.184 186.064 C 68.025 185.594,67.672 184.895,67.399 184.509 C 67.127 184.124,66.817 183.400,66.710 182.902 C 66.603 182.403,66.293 181.679,66.020 181.294 C 65.748 180.908,65.397 180.209,65.240 179.739 C 65.083 179.270,64.685 178.523,64.356 178.079 C 64.027 177.636,63.678 176.936,63.580 176.525 C 63.482 176.114,63.244 175.594,63.050 175.371 C 62.857 175.147,62.463 174.281,62.176 173.446 C 61.889 172.611,61.496 171.744,61.303 171.521 C 61.110 171.297,60.746 170.562,60.494 169.887 C 60.242 169.212,59.876 168.528,59.681 168.366 C 59.486 168.204,59.326 167.940,59.325 167.779 C 59.324 167.618,58.935 166.729,58.460 165.803 C 57.985 164.877,57.443 163.656,57.256 163.090 C 57.069 162.524,56.770 161.914,56.590 161.735 C 56.411 161.555,56.054 160.853,55.797 160.173 C 55.541 159.494,55.191 158.794,55.020 158.619 C 54.849 158.443,54.504 157.744,54.253 157.064 C 54.002 156.385,53.710 155.712,53.604 155.569 C 53.498 155.426,53.159 154.669,52.851 153.885 C 52.543 153.102,52.143 152.286,51.963 152.073 C 51.782 151.859,51.432 151.159,51.184 150.518 C 50.936 149.877,50.588 149.177,50.411 148.964 C 50.233 148.750,49.877 147.992,49.620 147.280 C 49.362 146.567,49.008 145.810,48.831 145.596 C 48.655 145.382,48.364 144.741,48.183 144.171 C 48.003 143.601,47.634 142.819,47.364 142.434 C 47.093 142.048,46.742 141.349,46.583 140.879 C 46.424 140.410,46.076 139.713,45.810 139.331 C 45.544 138.948,45.150 138.138,44.936 137.530 C 44.721 136.922,44.385 136.244,44.188 136.023 C 43.992 135.802,43.706 135.152,43.553 134.579 C 43.400 134.005,42.982 133.137,42.622 132.650 C 42.263 132.163,41.969 131.574,41.969 131.341 C 41.969 131.108,41.608 130.373,41.167 129.707 C 39.814 127.664,39.958 126.221,41.882 122.539 C 42.738 120.900,43.517 119.242,43.613 118.854 C 43.710 118.466,44.079 117.721,44.433 117.199 C 44.788 116.676,45.080 116.061,45.082 115.832 C 45.085 115.602,45.435 114.901,45.860 114.274 C 46.285 113.647,46.634 112.948,46.637 112.720 C 46.639 112.492,46.989 111.793,47.414 111.166 C 47.839 110.539,48.187 109.854,48.187 109.643 C 48.187 109.433,49.223 107.148,50.491 104.566 C 51.758 101.983,52.879 99.579,52.982 99.223 C 53.086 98.867,53.321 98.400,53.506 98.187 C 53.691 97.973,54.045 97.273,54.293 96.632 C 54.541 95.991,54.891 95.291,55.070 95.078 C 55.250 94.864,55.602 94.165,55.852 93.523 C 56.103 92.882,56.520 92.079,56.781 91.740 C 57.041 91.400,57.254 91.006,57.254 90.865 C 57.254 90.723,57.589 89.894,57.998 89.021 C 58.407 88.149,58.950 86.940,59.203 86.334 C 59.457 85.729,59.761 85.233,59.879 85.233 C 59.997 85.233,60.171 84.913,60.265 84.521 C 60.479 83.626,61.097 82.389,61.562 81.924 C 61.757 81.729,61.917 81.391,61.917 81.174 C 61.917 80.957,62.325 79.919,62.824 78.869 C 63.323 77.818,63.731 76.865,63.731 76.751 C 63.731 76.638,64.003 76.139,64.336 75.643 C 64.669 75.147,65.073 74.357,65.233 73.888 C 65.394 73.418,65.755 72.712,66.035 72.317 C 66.316 71.923,66.629 71.258,66.730 70.839 C 66.832 70.420,67.141 69.754,67.418 69.358 C 67.695 68.962,68.036 68.225,68.175 67.721 C 68.314 67.216,68.770 66.264,69.188 65.605 C 69.606 64.946,69.948 64.281,69.948 64.129 C 69.948 63.976,70.223 63.445,70.559 62.949 C 70.895 62.453,71.253 61.755,71.354 61.399 C 71.557 60.685,72.897 57.754,73.487 56.736 C 73.694 56.380,74.034 55.680,74.243 55.181 C 74.453 54.683,74.738 54.071,74.877 53.821 C 75.016 53.572,75.242 53.164,75.379 52.915 C 76.103 51.596,77.720 47.906,77.720 47.573 C 77.720 47.361,77.880 47.028,78.075 46.832 C 78.540 46.367,79.158 45.130,79.373 44.236 C 79.467 43.844,79.640 43.523,79.758 43.523 C 79.876 43.523,80.179 43.028,80.431 42.422 C 80.683 41.817,81.160 40.738,81.490 40.026 C 81.821 39.313,82.271 38.323,82.491 37.824 C 82.711 37.325,83.010 36.742,83.156 36.528 C 83.301 36.315,83.658 35.615,83.949 34.974 C 85.868 30.746,86.016 30.638,87.317 32.529 M200.648 33.336 C 201.218 34.482,201.817 35.699,201.980 36.039 C 202.938 38.040,203.453 39.063,203.792 39.637 C 204.002 39.994,204.348 40.693,204.561 41.192 C 204.774 41.690,205.219 42.623,205.550 43.264 C 205.881 43.905,206.231 44.767,206.328 45.178 C 206.425 45.589,206.774 46.289,207.104 46.732 C 207.434 47.176,207.785 47.881,207.884 48.299 C 207.984 48.717,208.349 49.396,208.696 49.808 C 209.043 50.221,209.327 50.753,209.327 50.991 C 209.328 51.230,209.736 52.234,210.234 53.223 C 210.732 54.213,211.140 55.160,211.140 55.329 C 211.140 55.498,211.310 55.778,211.519 55.950 C 211.727 56.123,212.144 56.923,212.445 57.728 C 212.746 58.532,213.101 59.258,213.234 59.340 C 213.367 59.422,213.680 60.065,213.929 60.768 C 214.178 61.471,214.585 62.335,214.833 62.687 C 215.082 63.039,215.285 63.453,215.285 63.607 C 215.285 63.760,216.329 65.963,217.606 68.502 C 218.882 71.041,220.116 73.687,220.347 74.383 C 220.578 75.079,220.868 75.648,220.991 75.648 C 221.115 75.648,221.471 76.347,221.782 77.202 C 222.094 78.057,222.441 78.756,222.552 78.756 C 222.664 78.756,222.960 79.310,223.211 79.987 C 223.462 80.664,223.868 81.510,224.113 81.868 C 224.358 82.225,224.687 82.997,224.845 83.583 C 225.002 84.168,225.357 84.934,225.632 85.285 C 225.908 85.635,226.215 86.262,226.313 86.678 C 226.412 87.095,226.763 87.798,227.093 88.242 C 227.423 88.685,227.776 89.385,227.877 89.796 C 227.979 90.208,228.324 90.962,228.644 91.472 C 228.964 91.983,229.343 92.824,229.487 93.343 C 229.630 93.861,229.974 94.610,230.252 95.006 C 230.530 95.401,230.896 96.153,231.065 96.676 C 231.235 97.199,231.536 97.762,231.735 97.927 C 231.933 98.092,232.284 98.791,232.513 99.482 C 232.742 100.172,233.100 100.878,233.307 101.050 C 233.514 101.222,233.864 101.981,234.083 102.736 C 234.302 103.491,234.692 104.379,234.949 104.710 C 235.207 105.040,235.557 105.741,235.728 106.266 C 235.900 106.792,236.249 107.491,236.506 107.821 C 236.762 108.150,237.120 108.886,237.301 109.456 C 237.482 110.026,237.778 110.667,237.959 110.881 C 238.140 111.095,238.469 111.809,238.690 112.468 C 238.910 113.127,239.389 114.105,239.753 114.641 C 240.117 115.178,240.417 115.804,240.419 116.034 C 240.422 116.263,240.772 116.964,241.196 117.591 C 241.621 118.218,241.969 118.890,241.969 119.084 C 241.969 119.279,242.305 120.048,242.716 120.794 C 243.127 121.540,243.537 122.468,243.626 122.856 C 243.716 123.244,244.079 123.989,244.433 124.511 C 245.383 125.911,245.333 127.816,244.301 129.494 C 243.873 130.188,243.521 130.919,243.519 131.117 C 243.516 131.315,243.169 132.060,242.746 132.772 C 242.324 133.484,241.976 134.255,241.973 134.485 C 241.971 134.714,241.692 135.310,241.353 135.809 C 241.014 136.309,240.600 137.134,240.431 137.643 C 240.263 138.152,239.918 138.838,239.663 139.168 C 239.409 139.497,239.008 140.340,238.772 141.041 C 238.537 141.741,238.183 142.499,237.987 142.725 C 237.791 142.950,237.483 143.601,237.302 144.171 C 237.122 144.741,236.753 145.523,236.483 145.908 C 236.213 146.294,235.861 146.993,235.702 147.463 C 235.543 147.932,235.194 148.631,234.926 149.016 C 234.658 149.401,234.282 150.237,234.090 150.875 C 233.898 151.513,233.511 152.364,233.229 152.766 C 232.948 153.168,232.637 153.834,232.537 154.245 C 232.437 154.657,232.086 155.356,231.756 155.800 C 231.426 156.243,231.076 156.943,230.979 157.354 C 230.881 157.765,230.529 158.465,230.196 158.908 C 229.863 159.352,229.504 160.123,229.399 160.622 C 229.293 161.120,228.996 161.798,228.737 162.128 C 228.479 162.457,228.128 163.157,227.956 163.682 C 227.785 164.207,227.435 164.907,227.179 165.236 C 226.923 165.566,226.573 166.265,226.402 166.791 C 226.231 167.316,225.875 168.024,225.611 168.363 C 225.347 168.702,225.007 169.460,224.855 170.047 C 224.704 170.634,224.372 171.405,224.118 171.762 C 223.865 172.118,223.508 172.876,223.325 173.446 C 223.143 174.016,222.789 174.715,222.539 175.000 C 222.289 175.285,221.939 175.984,221.762 176.554 C 221.584 177.124,221.234 177.824,220.984 178.109 C 220.735 178.394,220.385 179.093,220.208 179.663 C 220.030 180.233,219.682 181.049,219.432 181.477 C 219.183 181.904,218.774 182.808,218.522 183.484 C 218.270 184.161,217.978 184.715,217.872 184.715 C 217.766 184.715,217.418 185.415,217.098 186.269 C 216.779 187.124,216.424 187.824,216.310 187.824 C 216.196 187.824,215.965 188.261,215.797 188.795 C 215.498 189.746,213.919 193.272,213.447 194.041 C 213.316 194.255,213.021 194.838,212.790 195.337 C 212.560 195.835,212.206 196.535,212.004 196.891 C 211.802 197.247,211.454 197.947,211.231 198.446 C 211.009 198.944,210.489 200.064,210.076 200.933 C 209.664 201.802,209.326 202.620,209.326 202.751 C 209.326 202.882,209.054 203.394,208.721 203.891 C 208.388 204.387,207.984 205.177,207.824 205.646 C 207.663 206.116,207.307 206.816,207.031 207.203 C 206.756 207.590,206.401 208.385,206.244 208.971 C 206.086 209.557,205.741 210.314,205.477 210.653 C 205.213 210.992,204.857 211.699,204.686 212.225 C 204.515 212.750,204.170 213.450,203.920 213.779 C 203.669 214.109,203.262 214.923,203.014 215.588 C 202.766 216.254,202.402 216.932,202.205 217.096 C 202.008 217.259,201.767 217.764,201.668 218.217 C 201.473 219.121,199.538 222.802,199.264 222.792 C 198.918 222.779,196.942 219.533,196.802 218.747 C 196.722 218.301,196.360 217.498,195.997 216.963 C 195.634 216.428,195.335 215.802,195.332 215.573 C 195.329 215.343,194.980 214.642,194.555 214.015 C 194.130 213.388,193.780 212.689,193.778 212.461 C 193.775 212.233,193.425 211.534,193.000 210.907 C 192.576 210.280,192.228 209.508,192.228 209.193 C 192.228 208.877,192.015 208.341,191.755 208.001 C 191.494 207.661,191.077 206.859,190.826 206.218 C 190.576 205.576,190.224 204.877,190.044 204.663 C 189.865 204.449,189.515 203.750,189.267 203.109 C 189.019 202.468,188.662 201.768,188.473 201.554 C 188.284 201.341,187.927 200.525,187.679 199.741 C 187.431 198.957,187.081 198.141,186.900 197.927 C 186.720 197.714,186.369 197.014,186.121 196.373 C 185.874 195.732,185.524 195.032,185.344 194.819 C 185.165 194.605,184.815 193.905,184.567 193.264 C 184.319 192.623,183.970 191.924,183.791 191.710 C 183.611 191.496,183.231 190.652,182.944 189.833 C 182.658 189.015,182.240 188.161,182.015 187.937 C 181.790 187.712,181.606 187.355,181.606 187.145 C 181.606 186.674,180.889 185.256,180.407 184.774 C 180.212 184.579,180.050 184.223,180.049 183.984 C 180.047 183.745,179.745 183.025,179.377 182.383 C 179.010 181.742,178.533 180.693,178.317 180.052 C 178.102 179.411,177.783 178.711,177.610 178.497 C 177.256 178.060,174.870 173.214,174.870 172.931 C 174.870 172.830,174.652 172.439,174.385 172.061 C 174.117 171.683,173.810 170.966,173.703 170.469 C 173.595 169.972,173.240 169.214,172.913 168.785 C 172.587 168.356,172.234 167.655,172.129 167.228 C 172.024 166.801,171.675 166.101,171.352 165.674 C 171.030 165.246,170.681 164.547,170.577 164.119 C 170.472 163.692,170.172 163.064,169.910 162.725 C 169.647 162.386,169.303 161.629,169.145 161.044 C 168.987 160.458,168.633 159.662,168.358 159.275 C 168.082 158.889,167.727 158.188,167.567 157.719 C 167.408 157.249,167.059 156.550,166.790 156.164 C 166.522 155.779,166.170 155.079,166.009 154.610 C 165.848 154.141,165.463 153.348,165.154 152.850 C 164.844 152.351,164.507 151.593,164.404 151.166 C 164.301 150.738,163.951 149.981,163.626 149.482 C 163.300 148.983,162.883 148.109,162.697 147.539 C 162.512 146.969,162.277 146.444,162.174 146.373 C 161.878 146.166,159.585 141.293,159.585 140.869 C 159.585 140.657,159.350 140.185,159.062 139.819 C 158.774 139.452,158.368 138.671,158.161 138.083 C 157.953 137.494,157.547 136.713,157.259 136.347 C 156.971 135.981,156.735 135.551,156.735 135.393 C 156.735 135.234,156.326 134.294,155.828 133.305 C 155.330 132.316,154.922 131.303,154.922 131.053 C 154.922 130.804,154.804 130.527,154.660 130.438 C 153.109 129.480,152.874 125.382,154.279 123.829 C 154.488 123.598,154.882 122.776,155.154 122.003 C 155.426 121.229,156.535 118.847,157.618 116.710 C 158.701 114.573,159.718 112.416,159.878 111.917 C 160.038 111.418,160.326 110.830,160.518 110.609 C 160.710 110.388,161.048 109.694,161.269 109.067 C 161.491 108.440,161.840 107.741,162.047 107.513 C 162.253 107.285,162.597 106.601,162.812 105.993 C 163.026 105.385,163.420 104.575,163.687 104.193 C 163.955 103.810,164.256 103.148,164.356 102.720 C 164.457 102.293,164.805 101.535,165.129 101.036 C 165.453 100.538,165.805 99.780,165.911 99.352 C 166.016 98.925,166.366 98.225,166.689 97.798 C 167.011 97.370,167.361 96.671,167.466 96.244 C 167.571 95.816,167.924 95.115,168.250 94.687 C 168.576 94.258,168.932 93.503,169.041 93.009 C 169.149 92.516,169.509 91.682,169.842 91.155 C 170.174 90.629,170.527 89.868,170.627 89.465 C 170.726 89.061,171.071 88.381,171.394 87.953 C 171.716 87.526,172.066 86.826,172.171 86.399 C 172.276 85.972,172.626 85.272,172.948 84.845 C 173.271 84.417,173.616 83.718,173.715 83.290 C 173.814 82.863,174.158 82.047,174.479 81.477 C 174.801 80.907,175.152 80.149,175.260 79.793 C 175.368 79.437,175.679 78.830,175.950 78.444 C 176.222 78.059,176.574 77.359,176.733 76.890 C 176.892 76.420,177.242 75.721,177.510 75.335 C 177.779 74.950,178.122 74.250,178.273 73.781 C 178.520 73.015,182.062 65.617,183.970 61.884 C 184.380 61.082,184.715 60.246,184.715 60.024 C 184.715 59.803,184.875 59.463,185.070 59.267 C 185.552 58.786,186.269 57.367,186.269 56.897 C 186.269 56.686,186.450 56.334,186.670 56.114 C 186.890 55.893,187.299 55.048,187.578 54.235 C 187.858 53.422,188.246 52.573,188.441 52.350 C 188.635 52.126,188.933 51.513,189.101 50.988 C 189.270 50.462,189.617 49.763,189.873 49.433 C 190.130 49.104,190.479 48.404,190.651 47.879 C 190.822 47.353,191.172 46.654,191.428 46.324 C 191.684 45.995,192.042 45.272,192.222 44.718 C 192.403 44.163,193.474 41.890,194.602 39.666 C 195.730 37.442,196.829 35.124,197.043 34.516 C 197.548 33.084,198.933 31.036,199.314 31.157 C 199.478 31.209,200.078 32.189,200.648 33.336 M310.741 32.368 C 311.115 32.909,311.546 33.804,311.699 34.357 C 311.851 34.910,312.177 35.654,312.422 36.010 C 312.667 36.367,313.071 37.183,313.321 37.824 C 313.570 38.465,313.923 39.165,314.105 39.378 C 314.288 39.592,314.643 40.319,314.895 40.994 C 315.147 41.669,315.512 42.353,315.707 42.515 C 315.903 42.677,316.060 42.999,316.058 43.231 C 316.056 43.463,317.095 45.751,318.367 48.316 C 319.638 50.881,320.880 53.533,321.126 54.210 C 321.372 54.887,321.660 55.440,321.765 55.440 C 321.871 55.440,322.219 56.140,322.539 56.995 C 322.859 57.850,323.207 58.549,323.312 58.549 C 323.418 58.549,323.711 59.103,323.962 59.780 C 324.214 60.457,324.624 61.360,324.873 61.788 C 325.122 62.215,325.471 63.031,325.648 63.601 C 325.825 64.171,326.179 64.870,326.434 65.155 C 326.688 65.440,327.023 66.151,327.178 66.733 C 327.332 67.316,327.681 67.994,327.951 68.239 C 328.222 68.484,328.569 69.181,328.721 69.787 C 328.874 70.393,329.227 71.096,329.507 71.348 C 329.786 71.601,330.091 72.262,330.185 72.818 C 330.278 73.373,330.622 74.221,330.949 74.702 C 331.276 75.183,331.680 75.994,331.848 76.503 C 332.016 77.012,332.362 77.698,332.616 78.028 C 332.870 78.357,333.209 79.011,333.369 79.480 C 333.529 79.950,333.889 80.656,334.170 81.051 C 334.451 81.445,334.761 82.110,334.860 82.529 C 334.959 82.948,335.374 83.887,335.784 84.617 C 336.193 85.347,336.528 86.071,336.528 86.227 C 336.528 86.383,336.878 87.062,337.306 87.736 C 337.733 88.410,338.083 89.149,338.083 89.379 C 338.083 89.608,338.368 90.182,338.717 90.655 C 339.066 91.128,339.427 91.879,339.520 92.325 C 339.613 92.770,340.028 93.670,340.441 94.323 C 340.854 94.977,341.194 95.676,341.196 95.878 C 341.199 96.079,341.549 96.757,341.974 97.384 C 342.398 98.011,342.746 98.704,342.746 98.924 C 342.746 99.144,343.048 99.761,343.418 100.293 C 343.787 100.826,344.199 101.752,344.334 102.351 C 344.468 102.950,344.801 103.722,345.072 104.068 C 345.344 104.413,345.707 105.125,345.878 105.651 C 346.049 106.176,346.399 106.876,346.655 107.205 C 346.911 107.535,347.258 108.221,347.426 108.730 C 347.594 109.239,348.009 110.064,348.348 110.564 C 348.687 111.063,348.964 111.731,348.964 112.048 C 348.964 112.365,349.175 112.902,349.433 113.242 C 349.692 113.582,350.110 114.416,350.363 115.095 C 350.617 115.775,350.963 116.474,351.134 116.650 C 351.305 116.825,351.655 117.525,351.911 118.204 C 352.168 118.884,352.524 119.586,352.703 119.764 C 352.882 119.943,353.236 120.728,353.490 121.508 C 353.745 122.289,354.103 123.102,354.286 123.316 C 354.893 124.023,355.691 126.496,355.535 127.185 C 355.214 128.595,354.638 130.114,354.292 130.460 C 354.093 130.659,353.728 131.436,353.481 132.186 C 353.234 132.936,352.942 133.609,352.832 133.681 C 352.722 133.754,352.381 134.453,352.073 135.236 C 351.765 136.018,351.364 136.833,351.181 137.047 C 350.998 137.260,350.642 137.987,350.390 138.662 C 350.138 139.337,349.780 140.015,349.594 140.170 C 349.408 140.324,349.176 140.814,349.078 141.259 C 348.981 141.704,347.872 144.098,346.616 146.578 C 345.359 149.059,344.259 151.412,344.172 151.807 C 344.085 152.203,343.729 152.914,343.380 153.386 C 343.031 153.859,342.746 154.439,342.746 154.675 C 342.746 154.910,342.398 155.616,341.974 156.243 C 341.549 156.870,341.199 157.570,341.196 157.798 C 341.194 158.026,340.844 158.725,340.419 159.352 C 339.994 159.979,339.645 160.690,339.642 160.932 C 339.639 161.174,338.953 162.695,338.117 164.312 C 337.281 165.930,336.506 167.537,336.397 167.883 C 336.287 168.230,335.972 168.818,335.697 169.190 C 335.422 169.562,335.085 170.363,334.948 170.970 C 334.812 171.578,334.427 172.441,334.094 172.890 C 333.761 173.338,333.408 174.041,333.310 174.453 C 333.213 174.864,332.863 175.563,332.533 176.007 C 332.203 176.451,331.852 177.154,331.754 177.570 C 331.655 177.986,331.349 178.614,331.073 178.964 C 330.797 179.315,330.443 180.077,330.287 180.659 C 330.130 181.241,329.787 181.991,329.523 182.326 C 329.260 182.660,328.905 183.364,328.734 183.889 C 328.562 184.415,328.212 185.114,327.956 185.444 C 327.700 185.773,327.350 186.473,327.179 186.998 C 327.008 187.523,326.657 188.224,326.400 188.555 C 326.143 188.885,325.753 189.774,325.534 190.528 C 325.314 191.283,324.966 192.041,324.760 192.212 C 324.554 192.383,324.311 192.861,324.221 193.274 C 324.130 193.686,323.797 194.407,323.480 194.875 C 323.163 195.343,322.695 196.250,322.441 196.891 C 322.186 197.532,321.823 198.232,321.634 198.446 C 321.446 198.659,321.153 199.359,320.984 200.000 C 320.815 200.641,320.523 201.341,320.334 201.554 C 320.146 201.768,319.789 202.468,319.541 203.109 C 319.293 203.750,318.944 204.449,318.764 204.663 C 318.584 204.877,318.231 205.576,317.979 206.218 C 317.727 206.859,317.316 207.675,317.066 208.031 C 316.816 208.387,316.488 209.159,316.336 209.746 C 316.185 210.333,315.845 211.091,315.581 211.430 C 315.317 211.769,314.961 212.477,314.790 213.002 C 314.618 213.527,314.274 214.227,314.023 214.556 C 313.773 214.886,313.366 215.700,313.118 216.366 C 312.870 217.031,312.497 217.717,312.290 217.889 C 312.082 218.061,311.840 218.654,311.752 219.206 C 311.596 220.181,309.858 222.539,309.295 222.539 C 309.160 222.539,308.821 222.043,308.543 221.438 C 308.265 220.832,307.803 219.931,307.516 219.434 C 307.229 218.938,306.995 218.330,306.995 218.083 C 306.995 217.836,306.645 217.083,306.218 216.409 C 305.790 215.735,305.440 215.036,305.440 214.855 C 305.440 214.674,305.091 213.974,304.663 213.300 C 304.236 212.626,303.886 211.920,303.886 211.731 C 303.886 211.542,303.602 210.953,303.254 210.422 C 302.907 209.891,302.538 209.109,302.434 208.685 C 302.331 208.261,301.916 207.393,301.512 206.756 C 301.108 206.119,300.777 205.450,300.777 205.269 C 300.777 205.088,300.427 204.389,300.000 203.715 C 299.573 203.041,299.223 202.335,299.223 202.147 C 299.223 201.959,298.884 201.195,298.470 200.449 C 298.056 199.704,297.641 198.722,297.547 198.269 C 297.453 197.816,297.215 197.311,297.018 197.148 C 296.821 196.984,296.457 196.306,296.209 195.640 C 295.961 194.975,295.553 194.160,295.303 193.831 C 295.053 193.501,294.709 192.802,294.538 192.277 C 294.368 191.751,294.024 191.029,293.773 190.671 C 293.523 190.314,293.186 189.532,293.025 188.933 C 292.864 188.335,292.622 187.778,292.487 187.694 C 292.352 187.611,292.056 187.111,291.829 186.582 C 291.603 186.054,291.257 185.330,291.062 184.974 C 290.867 184.618,290.515 183.918,290.281 183.420 C 290.047 182.921,289.519 181.813,289.110 180.959 C 288.700 180.104,288.288 179.082,288.195 178.689 C 288.102 178.296,287.935 177.918,287.824 177.850 C 287.615 177.721,285.047 172.496,283.558 169.171 C 283.334 168.672,282.980 167.973,282.770 167.617 C 282.559 167.260,282.210 166.561,281.992 166.062 C 281.775 165.563,281.434 164.864,281.235 164.508 C 280.658 163.475,279.324 160.545,279.151 159.929 C 279.064 159.619,278.725 158.970,278.397 158.487 C 278.069 158.003,277.727 157.316,277.637 156.959 C 277.548 156.601,277.180 155.875,276.820 155.345 C 276.460 154.815,276.166 154.261,276.166 154.113 C 276.166 153.966,275.758 152.997,275.259 151.960 C 274.760 150.923,274.352 149.934,274.352 149.761 C 274.352 149.589,274.070 149.076,273.725 148.623 C 273.380 148.169,273.011 147.448,272.907 147.021 C 272.802 146.593,272.452 145.894,272.129 145.466 C 271.807 145.039,271.459 144.339,271.355 143.912 C 271.252 143.484,270.941 142.811,270.665 142.415 C 270.388 142.019,270.042 141.261,269.896 140.731 C 269.750 140.201,269.406 139.451,269.132 139.066 C 268.858 138.680,268.504 137.981,268.345 137.511 C 268.186 137.042,267.838 136.345,267.572 135.963 C 267.305 135.580,266.918 134.786,266.710 134.197 C 266.502 133.608,266.114 132.813,265.846 132.431 C 265.579 132.049,265.278 131.386,265.177 130.959 C 265.077 130.531,264.718 129.759,264.380 129.242 C 263.237 127.494,263.291 126.288,264.610 124.093 C 264.824 123.737,265.419 122.455,265.933 121.244 C 266.446 120.032,267.042 118.750,267.256 118.394 C 267.470 118.038,267.816 117.338,268.026 116.839 C 268.235 116.341,268.541 115.699,268.705 115.415 C 269.539 113.967,271.503 109.693,271.503 109.325 C 271.503 109.164,271.785 108.662,272.130 108.208 C 272.475 107.755,272.843 107.034,272.948 106.606 C 273.053 106.179,273.401 105.479,273.722 105.052 C 274.042 104.624,274.435 103.784,274.595 103.185 C 274.754 102.585,274.990 102.029,275.120 101.949 C 275.249 101.869,275.605 101.136,275.910 100.319 C 276.215 99.502,276.614 98.659,276.798 98.446 C 276.981 98.232,277.337 97.505,277.589 96.830 C 277.841 96.155,278.200 95.476,278.387 95.321 C 278.575 95.165,278.928 94.437,279.171 93.704 C 279.415 92.970,279.771 92.213,279.963 92.021 C 280.154 91.830,280.311 91.551,280.311 91.402 C 280.311 91.254,281.357 89.018,282.635 86.434 C 283.913 83.850,285.140 81.217,285.362 80.583 C 285.584 79.949,285.934 79.243,286.140 79.016 C 286.346 78.788,286.690 78.104,286.905 77.496 C 287.119 76.888,287.530 76.092,287.818 75.725 C 288.106 75.359,288.342 74.886,288.342 74.673 C 288.342 74.461,288.692 73.599,289.119 72.757 C 289.547 71.916,289.896 71.119,289.896 70.986 C 289.896 70.852,290.246 70.192,290.674 69.518 C 291.101 68.844,291.451 68.138,291.451 67.949 C 291.451 67.760,291.738 67.171,292.088 66.640 C 292.439 66.108,292.908 65.155,293.131 64.521 C 293.354 63.887,293.700 63.187,293.899 62.966 C 294.097 62.745,294.347 62.215,294.453 61.788 C 294.560 61.360,294.977 60.473,295.380 59.816 C 295.784 59.159,296.114 58.490,296.114 58.330 C 296.114 58.170,296.464 57.470,296.891 56.776 C 297.319 56.081,297.668 55.365,297.668 55.186 C 297.668 55.006,298.004 54.202,298.415 53.401 C 298.825 52.599,299.596 51.010,300.128 49.870 C 300.659 48.731,301.201 47.623,301.331 47.409 C 301.461 47.196,301.806 46.496,302.097 45.855 C 302.389 45.214,302.897 44.165,303.226 43.523 C 303.555 42.882,303.960 41.930,304.127 41.407 C 304.294 40.884,304.593 40.321,304.792 40.156 C 304.990 39.991,305.341 39.292,305.570 38.601 C 305.799 37.911,306.149 37.211,306.348 37.046 C 306.547 36.881,306.845 36.318,307.011 35.795 C 308.378 31.485,309.448 30.502,310.741 32.368 M198.935 49.676 C 198.010 50.816,197.430 51.814,197.060 52.902 C 196.840 53.550,196.362 54.520,195.998 55.056 C 195.635 55.592,195.335 56.219,195.332 56.448 C 195.329 56.678,194.980 57.378,194.555 58.005 C 192.865 60.500,193.470 60.881,199.121 60.881 C 204.740 60.881,205.439 60.542,204.047 58.491 C 203.708 57.992,203.294 57.167,203.126 56.658 C 202.958 56.148,202.605 55.458,202.342 55.124 C 202.079 54.789,201.732 54.029,201.572 53.434 C 201.412 52.840,201.183 52.292,201.062 52.218 C 200.941 52.143,200.538 51.439,200.166 50.653 C 199.401 49.037,199.433 49.063,198.935 49.676 M308.964 49.782 C 308.736 50.108,308.549 50.526,308.549 50.710 C 308.549 50.895,308.267 51.494,307.921 52.041 C 307.576 52.588,307.169 53.500,307.016 54.067 C 306.863 54.635,306.507 55.308,306.224 55.564 C 305.941 55.820,305.635 56.430,305.543 56.919 C 305.451 57.409,305.090 58.148,304.742 58.563 C 303.169 60.431,304.018 60.820,309.751 60.855 C 314.970 60.887,315.396 60.702,314.640 58.723 C 314.386 58.057,314.092 57.513,313.986 57.513 C 313.880 57.513,313.533 56.817,313.215 55.967 C 312.897 55.116,312.483 54.292,312.294 54.135 C 312.105 53.978,311.871 53.479,311.773 53.026 C 311.534 51.915,311.077 51.075,310.153 50.048 L 309.380 49.189 308.964 49.782 M84.163 52.915 C 79.855 61.549,79.636 60.873,86.740 60.878 C 91.757 60.882,92.411 60.369,90.669 57.798 C 90.244 57.171,89.896 56.490,89.896 56.286 C 89.896 56.082,89.488 55.086,88.990 54.074 C 88.491 53.061,88.083 52.099,88.083 51.934 C 88.083 51.769,87.850 51.424,87.565 51.166 C 87.280 50.908,87.047 50.582,87.047 50.442 C 87.047 50.200,86.291 49.508,86.007 49.490 C 85.935 49.486,85.104 51.027,84.163 52.915 M77.227 67.765 C 76.786 68.136,76.317 68.867,76.170 69.413 C 76.025 69.953,75.633 70.798,75.299 71.290 C 74.965 71.782,74.607 72.520,74.505 72.929 C 74.402 73.338,74.066 74.027,73.757 74.461 C 73.449 74.894,73.002 75.775,72.765 76.419 C 72.528 77.064,72.143 78.099,71.910 78.720 C 71.175 80.678,70.359 80.570,85.930 80.570 C 94.978 80.570,99.949 80.477,100.276 80.302 C 100.928 79.953,100.944 78.527,100.306 77.690 C 100.047 77.351,99.682 76.665,99.495 76.166 C 99.081 75.067,97.459 71.525,97.121 70.984 C 96.988 70.771,96.596 69.995,96.251 69.260 C 95.198 67.017,95.574 67.098,86.232 67.098 L 78.019 67.098 77.227 67.765 M190.456 67.425 C 189.865 67.709,187.565 72.047,187.565 72.878 C 187.565 73.080,187.329 73.546,187.041 73.912 C 186.753 74.278,186.348 75.059,186.140 75.648 C 185.932 76.236,185.527 77.017,185.239 77.383 C 184.582 78.219,184.508 80.176,185.125 80.413 C 185.350 80.499,191.694 80.570,199.223 80.570 C 206.751 80.570,213.095 80.499,213.321 80.413 C 213.893 80.193,213.855 78.472,213.261 77.690 C 213.003 77.351,212.588 76.528,212.340 75.862 C 212.093 75.197,211.729 74.518,211.532 74.355 C 211.334 74.191,211.092 73.687,210.993 73.233 C 210.895 72.780,210.479 71.781,210.070 71.013 C 209.661 70.245,209.326 69.463,209.326 69.277 C 209.326 69.090,208.901 68.523,208.380 68.018 L 207.433 67.098 199.248 67.116 C 193.749 67.128,190.863 67.229,190.456 67.425 M300.414 67.996 C 299.935 68.490,299.464 69.219,299.368 69.615 C 299.272 70.012,298.850 71.002,298.431 71.816 C 298.011 72.629,297.666 73.445,297.664 73.629 C 297.661 73.813,297.311 74.477,296.886 75.104 C 296.462 75.731,296.114 76.444,296.114 76.688 C 296.114 76.932,295.899 77.410,295.636 77.750 C 295.020 78.547,294.758 79.887,295.144 80.273 C 295.612 80.741,323.051 80.691,323.695 80.221 C 324.295 79.782,324.123 77.984,323.383 76.968 C 323.114 76.598,322.688 75.771,322.436 75.130 C 322.184 74.488,321.827 73.789,321.643 73.575 C 321.459 73.361,321.162 72.729,320.982 72.170 C 320.378 70.290,318.674 67.424,318.063 67.260 C 317.746 67.175,313.842 67.104,309.387 67.102 L 301.286 67.098 300.414 67.996 M68.005 87.094 C 67.323 87.485,67.153 87.754,66.813 88.987 C 66.655 89.556,66.301 90.338,66.026 90.725 C 65.750 91.111,65.395 91.812,65.236 92.281 C 65.077 92.751,64.727 93.450,64.459 93.836 C 64.190 94.221,63.841 94.921,63.681 95.390 C 63.522 95.859,63.196 96.535,62.956 96.891 C 62.288 97.883,62.153 98.436,62.445 98.982 C 62.776 99.601,109.178 99.786,109.793 99.171 C 110.282 98.682,110.160 97.872,109.438 96.810 C 109.073 96.271,108.606 95.267,108.401 94.579 C 108.197 93.890,107.862 93.188,107.658 93.018 C 107.454 92.849,107.209 92.339,107.113 91.886 C 107.017 91.433,106.658 90.689,106.315 90.232 C 105.972 89.776,105.626 89.076,105.546 88.678 C 105.163 86.771,106.753 86.924,86.582 86.857 C 73.392 86.814,68.384 86.878,68.005 87.094 M180.863 87.112 C 180.492 87.308,180.099 87.894,179.865 88.601 C 179.654 89.242,179.317 89.951,179.117 90.177 C 178.918 90.403,178.579 91.176,178.366 91.895 C 178.152 92.614,177.810 93.342,177.604 93.512 C 177.399 93.683,177.040 94.395,176.808 95.095 C 176.575 95.794,176.266 96.441,176.120 96.531 C 175.570 96.871,175.104 98.432,175.392 98.970 C 175.813 99.757,222.621 99.779,223.042 98.992 C 223.252 98.599,222.970 97.845,221.626 95.206 C 220.703 93.393,219.948 91.754,219.948 91.562 C 219.948 91.371,219.665 90.798,219.319 90.288 C 218.973 89.778,218.617 89.027,218.527 88.619 C 218.132 86.818,219.287 86.924,199.390 86.853 C 185.487 86.804,181.339 86.862,180.863 87.112 M291.145 87.370 C 290.789 87.691,290.344 88.361,290.156 88.860 C 289.739 89.964,288.127 93.504,287.797 94.041 C 287.666 94.255,287.327 94.955,287.044 95.596 C 286.761 96.237,286.412 96.937,286.268 97.150 C 284.576 99.666,282.734 99.482,309.555 99.482 C 331.917 99.482,333.050 99.460,333.328 99.014 C 333.664 98.476,333.237 96.914,332.544 96.149 C 332.321 95.902,331.963 95.202,331.748 94.595 C 331.534 93.987,331.123 93.190,330.835 92.824 C 330.547 92.458,330.309 91.912,330.307 91.610 C 330.305 91.309,330.133 90.771,329.924 90.415 C 329.716 90.058,329.260 89.170,328.911 88.442 C 328.057 86.659,329.555 86.788,309.605 86.788 L 291.790 86.788 291.145 87.370 M58.725 106.471 C 58.146 106.979,57.695 107.724,57.402 108.657 C 57.157 109.435,56.797 110.205,56.601 110.367 C 56.406 110.529,56.055 111.236,55.822 111.937 C 55.589 112.639,55.313 113.212,55.209 113.212 C 54.975 113.212,54.145 114.911,54.145 115.388 C 54.145 115.578,53.905 116.039,53.611 116.412 C 53.237 116.888,53.101 117.383,53.158 118.066 L 53.238 119.041 86.043 119.107 C 113.818 119.163,118.893 119.118,119.146 118.812 C 119.489 118.399,119.139 116.363,118.676 116.076 C 118.525 115.983,118.175 115.271,117.897 114.495 C 116.704 111.152,114.163 106.628,113.212 106.153 C 112.367 105.731,110.523 105.700,85.955 105.700 L 59.604 105.699 58.725 106.471 M172.017 106.182 C 171.404 106.510,170.989 106.995,170.725 107.690 C 170.512 108.254,170.124 109.038,169.863 109.432 C 169.602 109.826,169.223 110.707,169.020 111.390 C 168.817 112.073,168.483 112.772,168.277 112.943 C 168.071 113.114,167.761 113.682,167.589 114.205 C 167.417 114.728,166.996 115.581,166.652 116.101 C 166.202 116.782,166.051 117.325,166.110 118.044 L 166.192 119.041 199.223 119.041 L 232.254 119.041 232.336 118.040 C 232.397 117.301,232.276 116.888,231.872 116.458 C 231.571 116.138,231.201 115.424,231.048 114.871 C 230.895 114.318,230.492 113.534,230.152 113.130 C 229.812 112.726,229.533 112.200,229.533 111.962 C 229.532 111.724,229.124 110.719,228.626 109.730 C 228.128 108.741,227.720 107.780,227.720 107.594 C 227.720 107.409,227.236 106.907,226.645 106.478 L 225.570 105.699 199.245 105.699 C 174.060 105.699,172.880 105.720,172.017 106.182 M281.865 106.736 C 281.295 107.306,280.829 107.956,280.829 108.181 C 280.829 108.406,280.421 109.438,279.922 110.475 C 279.424 111.512,279.016 112.446,279.016 112.552 C 279.016 112.657,278.778 113.077,278.488 113.485 C 278.198 113.892,277.830 114.610,277.671 115.079 C 277.512 115.549,277.179 116.225,276.930 116.583 C 276.518 117.176,276.322 118.007,276.396 118.847 C 276.426 119.189,341.452 119.353,342.336 119.014 C 343.038 118.744,342.851 117.072,341.974 115.777 C 341.549 115.150,341.199 114.450,341.196 114.220 C 341.194 113.991,340.905 113.381,340.555 112.865 C 340.206 112.350,339.800 111.485,339.654 110.944 C 339.509 110.403,339.095 109.562,338.736 109.075 C 338.377 108.588,338.083 108.033,338.083 107.842 C 338.083 105.668,338.546 105.703,309.132 105.701 L 282.902 105.699 281.865 106.736 M49.569 125.890 C 48.759 126.384,48.749 127.851,49.551 128.653 C 49.655 128.757,49.741 129.041,49.741 129.283 C 49.741 129.525,49.977 130.022,50.265 130.389 C 50.553 130.755,50.964 131.552,51.178 132.159 C 51.393 132.767,51.731 133.445,51.930 133.666 C 52.129 133.887,52.542 134.735,52.846 135.551 C 53.898 138.365,50.184 138.083,86.163 138.083 C 120.918 138.083,118.631 138.206,119.342 136.296 C 119.586 135.640,119.991 134.834,120.241 134.505 C 120.491 134.175,120.836 133.476,121.007 132.950 C 121.179 132.425,121.535 131.717,121.799 131.377 C 122.064 131.037,122.283 130.571,122.288 130.341 C 122.292 130.111,122.583 129.339,122.933 128.627 C 123.830 126.804,123.778 126.224,122.677 125.764 C 121.069 125.092,50.678 125.214,49.569 125.890 M162.846 125.658 C 161.623 126.026,161.443 126.951,162.320 128.368 C 162.496 128.653,162.727 129.176,162.834 129.530 C 162.940 129.885,163.295 130.584,163.622 131.085 C 163.949 131.585,164.298 132.345,164.396 132.772 C 164.494 133.199,164.822 133.954,165.124 134.449 C 165.426 134.944,165.851 135.816,166.068 136.387 C 166.751 138.187,164.553 138.075,199.268 138.079 L 230.789 138.083 231.586 137.412 C 232.025 137.043,232.383 136.599,232.383 136.426 C 232.383 136.252,232.791 135.301,233.289 134.312 C 233.788 133.322,234.196 132.318,234.196 132.079 C 234.197 131.841,234.475 131.315,234.815 130.911 C 235.155 130.507,235.551 129.769,235.695 129.272 C 235.839 128.775,236.144 127.934,236.373 127.403 C 237.247 125.376,240.079 125.524,199.493 125.474 C 179.522 125.450,163.266 125.531,162.846 125.658 M272.949 125.967 L 272.283 126.554 272.708 127.977 C 272.942 128.760,273.395 129.809,273.715 130.309 C 274.036 130.809,274.439 131.664,274.611 132.210 C 274.784 132.756,275.203 133.689,275.542 134.283 C 275.882 134.877,276.161 135.565,276.163 135.811 C 276.164 136.058,276.564 136.670,277.051 137.171 L 277.936 138.083 309.636 138.083 C 344.817 138.083,342.144 138.224,342.767 136.333 C 342.943 135.800,343.295 135.071,343.548 134.715 C 343.802 134.359,344.137 133.577,344.292 132.977 C 344.447 132.378,344.680 131.822,344.809 131.742 C 345.110 131.556,345.855 130.071,345.855 129.658 C 345.855 129.486,346.078 129.060,346.352 128.713 C 346.625 128.365,346.925 127.672,347.019 127.172 C 347.352 125.395,350.151 125.525,309.954 125.449 L 273.614 125.380 272.949 125.967 M57.775 144.686 C 57.409 145.127,57.617 146.286,58.174 146.904 C 58.373 147.125,58.717 147.819,58.938 148.446 C 59.159 149.073,59.509 149.772,59.715 150.000 C 59.921 150.228,60.271 150.927,60.492 151.554 C 60.713 152.181,61.053 152.875,61.248 153.096 C 61.442 153.317,61.856 154.097,62.167 154.829 C 62.922 156.603,61.031 156.477,86.780 156.477 C 110.917 156.477,110.104 156.519,110.104 155.277 C 110.104 155.138,110.437 154.564,110.844 154.002 C 111.252 153.439,111.669 152.630,111.771 152.202 C 111.874 151.775,112.113 151.250,112.303 151.036 C 112.494 150.823,112.890 149.961,113.183 149.121 C 113.477 148.281,113.873 147.407,114.063 147.178 C 114.865 146.209,115.072 145.300,114.607 144.785 C 113.999 144.113,58.331 144.016,57.775 144.686 M170.866 144.649 C 170.282 145.076,170.474 146.116,171.352 147.280 C 171.675 147.707,172.024 148.407,172.129 148.834 C 172.234 149.262,172.587 149.962,172.913 150.391 C 173.240 150.820,173.592 151.558,173.696 152.031 C 173.800 152.504,174.350 153.698,174.918 154.684 L 175.952 156.477 198.565 156.477 C 211.003 156.477,221.520 156.408,221.936 156.325 C 222.701 156.172,224.870 152.622,224.870 151.524 C 224.870 151.294,225.106 150.807,225.394 150.440 C 225.682 150.074,226.093 149.277,226.308 148.670 C 226.522 148.062,226.868 147.376,227.076 147.146 C 227.856 146.284,228.108 145.036,227.580 144.650 C 226.872 144.132,171.574 144.131,170.866 144.649 M281.140 144.611 C 280.697 145.054,280.755 145.688,281.302 146.403 C 281.563 146.743,281.980 147.545,282.231 148.187 C 282.481 148.828,282.835 149.527,283.017 149.741 C 283.200 149.955,283.559 150.712,283.817 151.425 C 284.074 152.137,284.425 152.895,284.598 153.109 C 284.770 153.323,285.066 153.939,285.257 154.479 C 285.973 156.507,283.869 156.340,309.548 156.411 C 322.179 156.446,332.630 156.388,332.772 156.282 C 333.336 155.860,334.671 153.641,334.850 152.826 C 334.954 152.351,335.304 151.550,335.627 151.046 C 335.951 150.542,336.350 149.702,336.515 149.179 C 336.679 148.656,336.977 148.093,337.175 147.928 C 337.947 147.288,338.471 145.035,337.939 144.646 C 337.279 144.164,281.622 144.130,281.140 144.611 M66.982 163.041 C 66.375 163.485,66.598 164.913,67.495 166.334 C 67.835 166.873,68.195 167.645,68.295 168.048 C 68.395 168.452,68.740 169.132,69.062 169.560 C 69.385 169.987,69.728 170.653,69.824 171.039 C 70.176 172.449,69.685 172.403,85.525 172.486 C 101.114 172.567,102.146 172.503,102.481 171.432 C 102.581 171.115,102.879 170.577,103.144 170.238 C 103.408 169.899,103.751 169.154,103.905 168.582 C 104.059 168.011,104.450 167.123,104.775 166.609 C 105.099 166.094,105.454 165.382,105.564 165.026 C 105.673 164.670,105.891 164.219,106.047 164.025 C 106.263 163.755,106.188 163.556,105.727 163.183 C 104.937 162.543,67.849 162.407,66.982 163.041 M179.818 163.148 L 179.267 163.601 179.810 165.026 C 180.109 165.810,180.516 166.631,180.714 166.852 C 180.912 167.073,181.255 167.767,181.477 168.394 C 181.698 169.021,182.039 169.715,182.235 169.935 C 182.431 170.156,182.764 170.757,182.976 171.270 C 183.507 172.556,183.231 172.535,199.223 172.521 C 215.330 172.507,214.933 172.542,215.511 171.084 C 215.743 170.498,216.068 169.857,216.233 169.660 C 216.399 169.462,216.737 168.776,216.986 168.135 C 217.235 167.494,217.583 166.794,217.761 166.580 C 218.808 165.319,219.159 163.363,218.411 162.962 C 217.418 162.431,180.473 162.608,179.818 163.148 M290.212 163.000 C 289.680 163.532,289.858 164.632,290.669 165.829 C 291.094 166.456,291.443 167.157,291.446 167.386 C 291.449 167.616,291.759 168.257,292.136 168.811 C 292.513 169.365,292.920 170.174,293.040 170.608 C 293.582 172.560,292.197 172.402,309.370 172.476 C 317.824 172.512,324.858 172.454,325.001 172.346 C 325.405 172.042,326.822 169.633,327.149 168.695 C 327.310 168.232,327.664 167.537,327.936 167.152 C 328.207 166.766,328.516 166.159,328.622 165.803 C 328.729 165.447,329.036 164.791,329.305 164.346 C 330.256 162.773,330.968 162.831,309.732 162.754 C 294.901 162.701,290.456 162.757,290.212 163.000 M74.652 179.097 C 74.264 179.564,74.570 181.309,75.198 182.208 C 75.480 182.610,75.867 183.461,76.059 184.099 C 76.251 184.737,76.619 185.574,76.878 185.958 C 77.137 186.343,77.544 187.088,77.782 187.614 C 78.397 188.970,79.184 189.116,85.909 189.118 C 93.750 189.120,93.964 189.083,94.588 187.629 C 94.860 186.994,95.314 186.180,95.598 185.819 C 95.882 185.458,96.114 184.966,96.114 184.725 C 96.114 184.483,96.450 183.770,96.860 183.140 C 97.866 181.596,98.442 179.336,97.916 179.003 C 97.275 178.598,74.991 178.688,74.652 179.097 M187.635 178.965 C 187.138 179.283,187.681 182.019,188.465 183.151 C 188.825 183.670,189.120 184.264,189.120 184.470 C 189.121 184.676,189.381 185.253,189.698 185.751 C 190.015 186.250,190.519 187.123,190.817 187.691 C 191.540 189.068,192.247 189.174,200.044 189.071 C 206.848 188.981,207.299 188.870,207.859 187.160 C 207.996 186.742,208.318 186.129,208.573 185.800 C 208.829 185.470,209.175 184.784,209.343 184.275 C 209.511 183.766,209.931 182.933,210.277 182.424 C 210.775 181.690,210.888 181.230,210.828 180.193 L 210.751 178.886 199.352 178.824 C 193.083 178.789,187.810 178.853,187.635 178.965 M297.958 179.108 C 297.580 179.564,297.834 180.893,298.583 182.383 C 298.906 183.025,299.351 183.957,299.574 184.456 C 299.796 184.955,300.139 185.654,300.336 186.010 C 300.532 186.367,300.860 187.008,301.064 187.435 C 301.789 188.953,302.577 189.118,309.096 189.119 C 317.024 189.119,317.257 189.081,317.949 187.656 C 318.251 187.036,318.576 186.528,318.673 186.528 C 318.770 186.528,319.110 185.829,319.430 184.974 C 319.750 184.119,320.104 183.420,320.218 183.420 C 320.838 183.420,321.676 179.137,321.099 178.916 C 320.167 178.558,298.264 178.740,297.958 179.108 M82.346 195.744 C 81.934 196.156,82.317 198.072,82.885 198.443 C 83.193 198.643,83.938 200.182,83.938 200.616 C 83.938 200.827,84.098 201.159,84.293 201.354 C 84.769 201.830,85.492 203.252,85.492 203.712 C 85.492 203.915,85.652 204.214,85.848 204.377 C 86.223 204.688,88.342 201.830,88.342 201.014 C 88.342 200.807,88.613 200.232,88.945 199.736 C 89.991 198.172,90.467 196.342,89.970 195.794 C 89.388 195.150,82.982 195.108,82.346 195.744 M195.346 195.715 C 194.933 196.212,195.205 197.402,196.000 198.573 C 196.344 199.080,196.699 199.813,196.789 200.201 C 196.992 201.078,198.557 203.959,199.053 204.371 C 199.453 204.703,201.300 201.489,201.666 199.824 C 201.763 199.380,202.069 198.813,202.345 198.563 C 203.014 197.957,203.424 196.445,203.089 195.818 C 202.743 195.171,195.873 195.079,195.346 195.715 M305.702 195.722 C 305.294 196.214,305.545 197.238,306.333 198.287 C 306.666 198.730,307.024 199.501,307.130 200.000 C 307.235 200.499,307.539 201.184,307.805 201.523 C 308.071 201.863,308.411 202.597,308.562 203.156 C 308.883 204.347,309.506 204.708,310.008 203.993 C 310.199 203.720,310.588 203.228,310.871 202.899 C 311.155 202.570,311.509 201.870,311.658 201.345 C 311.807 200.819,312.388 199.456,312.949 198.316 L 313.969 196.244 313.433 195.790 C 312.695 195.167,306.210 195.110,305.702 195.722 " stroke="none" fill="#fcfcfc" fill-rule="evenodd"></path></g></svg>