<svg id="svg" version="1.1" xmlns="http://www.w3.org/2000/svg" xmlns:xlink="http://www.w3.org/1999/xlink" width="400" height="258.91472868217056" viewBox="0, 0, 400,258.91472868217056"><g id="svgg"><path id="path0" d="M135.852 43.767 C 135.123 43.882,133.957 44.160,133.261 44.384 C 132.565 44.608,131.327 44.910,130.511 45.054 C 129.695 45.199,128.741 45.505,128.390 45.735 C 128.039 45.964,127.192 46.301,126.506 46.483 C 125.820 46.665,124.806 47.123,124.251 47.500 C 123.697 47.878,123.050 48.187,122.812 48.187 C 122.575 48.187,121.979 48.486,121.488 48.852 C 120.997 49.218,120.246 49.674,119.819 49.865 C 119.391 50.056,118.720 50.485,118.327 50.818 C 117.934 51.152,117.148 51.775,116.581 52.202 C 114.672 53.642,108.812 59.721,108.806 60.267 C 108.804 60.391,108.396 61.004,107.899 61.630 C 107.402 62.255,106.995 62.858,106.995 62.970 C 106.995 63.081,106.711 63.510,106.364 63.922 C 106.017 64.335,105.652 65.014,105.553 65.432 C 105.454 65.850,105.106 66.549,104.781 66.987 C 104.456 67.424,104.054 68.298,103.888 68.930 C 103.721 69.561,103.367 70.453,103.101 70.912 C 102.835 71.371,102.543 72.187,102.453 72.726 C 102.363 73.264,102.006 74.582,101.661 75.655 C 100.590 78.977,100.530 81.775,100.525 128.886 C 100.519 176.280,100.583 179.290,101.652 182.162 C 101.989 183.067,102.347 184.391,102.446 185.104 C 102.546 185.816,102.893 186.807,103.217 187.306 C 103.541 187.804,103.891 188.669,103.995 189.227 C 104.099 189.785,104.467 190.612,104.813 191.065 C 105.158 191.518,105.440 192.064,105.440 192.278 C 105.440 192.493,105.790 193.151,106.218 193.741 C 106.645 194.331,106.995 194.921,106.995 195.051 C 106.995 195.181,107.374 195.762,107.837 196.342 C 108.300 196.922,109.028 197.864,109.456 198.435 C 110.470 199.790,114.896 204.401,115.674 204.913 C 116.006 205.132,116.997 205.871,117.876 206.556 C 118.756 207.241,119.873 207.992,120.359 208.224 C 120.846 208.455,121.244 208.724,121.244 208.821 C 121.244 208.918,121.797 209.206,122.474 209.461 C 123.151 209.716,123.972 210.132,124.300 210.385 C 124.627 210.638,125.268 210.926,125.725 211.024 C 126.181 211.123,127.083 211.470,127.728 211.795 C 128.374 212.120,129.481 212.470,130.189 212.573 C 130.897 212.676,132.060 212.996,132.772 213.284 C 134.895 214.143,146.809 214.275,149.512 213.469 C 150.564 213.155,152.124 212.776,152.979 212.626 C 153.834 212.475,154.940 212.080,155.436 211.746 C 155.932 211.413,156.515 211.139,156.731 211.139 C 156.947 211.138,158.045 210.672,159.170 210.103 C 160.295 209.533,161.373 209.067,161.566 209.067 C 161.759 209.067,161.917 208.967,161.917 208.844 C 161.917 208.722,162.442 208.343,163.083 208.003 C 163.724 207.663,164.249 207.304,164.249 207.206 C 164.249 207.108,164.715 206.766,165.285 206.446 C 165.855 206.125,166.321 205.778,166.321 205.673 C 166.321 205.568,166.758 205.216,167.293 204.890 C 168.955 203.877,173.834 198.709,173.834 197.962 C 173.834 197.814,173.992 197.601,174.185 197.487 C 175.323 196.815,179.537 189.002,179.955 186.788 C 180.050 186.289,180.344 185.447,180.609 184.916 C 180.874 184.386,181.329 182.579,181.619 180.901 C 181.909 179.223,182.257 177.209,182.393 176.425 C 182.707 174.611,182.693 83.017,182.378 81.218 C 182.253 80.505,182.028 79.223,181.877 78.368 C 181.726 77.513,181.479 76.056,181.329 75.130 C 181.179 74.203,180.901 73.207,180.712 72.915 C 180.523 72.623,180.176 71.638,179.942 70.724 C 179.708 69.811,179.354 68.884,179.155 68.664 C 178.957 68.444,178.599 67.681,178.361 66.969 C 178.122 66.256,177.725 65.440,177.478 65.155 C 177.231 64.870,176.836 64.216,176.602 63.701 C 176.367 63.187,175.998 62.619,175.782 62.439 C 175.566 62.260,175.389 61.969,175.389 61.794 C 175.389 61.619,175.039 61.110,174.611 60.663 C 174.184 60.215,173.834 59.750,173.834 59.628 C 173.834 59.506,173.586 59.185,173.282 58.913 C 172.979 58.642,172.461 57.996,172.132 57.478 C 171.627 56.683,170.346 55.335,169.090 54.275 C 168.921 54.132,168.067 53.403,167.193 52.655 C 166.319 51.907,165.499 51.295,165.372 51.295 C 165.245 51.295,164.758 50.946,164.290 50.518 C 163.822 50.091,163.319 49.741,163.172 49.741 C 163.024 49.741,162.537 49.479,162.088 49.158 C 161.087 48.443,157.607 46.632,157.234 46.632 C 157.084 46.632,156.308 46.333,155.508 45.967 C 154.709 45.602,153.405 45.186,152.610 45.043 C 151.816 44.900,150.408 44.543,149.482 44.250 C 147.625 43.661,138.551 43.339,135.852 43.767 M249.482 43.773 C 248.698 43.891,247.591 44.158,247.021 44.366 C 246.451 44.575,245.420 44.829,244.730 44.931 C 244.040 45.033,242.932 45.353,242.269 45.642 C 241.605 45.930,240.524 46.329,239.867 46.528 C 239.210 46.727,238.394 47.105,238.054 47.367 C 237.714 47.630,237.027 47.984,236.528 48.154 C 236.030 48.324,235.187 48.751,234.656 49.102 C 234.125 49.453,233.579 49.741,233.444 49.741 C 233.308 49.741,233.018 49.921,232.798 50.141 C 232.578 50.361,231.559 51.176,230.533 51.953 C 227.844 53.991,224.170 57.600,223.160 59.197 C 222.890 59.624,222.527 60.149,222.353 60.363 C 221.634 61.250,220.711 62.629,220.187 63.601 C 219.880 64.171,219.486 64.812,219.311 65.026 C 219.135 65.240,218.790 65.939,218.542 66.580 C 218.294 67.222,217.935 67.921,217.744 68.135 C 217.553 68.348,217.252 69.106,217.075 69.819 C 216.898 70.531,216.546 71.522,216.293 72.021 C 216.040 72.519,215.640 73.918,215.405 75.130 C 215.169 76.341,214.784 77.856,214.548 78.497 C 214.156 79.563,214.112 83.714,214.038 126.943 C 213.957 174.600,214.018 178.531,214.872 180.619 C 215.065 181.091,215.360 182.281,215.527 183.264 C 215.695 184.246,216.042 185.471,216.299 185.984 C 216.556 186.497,216.849 187.267,216.951 187.694 C 217.122 188.410,218.681 191.688,220.032 194.171 C 222.106 197.982,227.539 203.894,231.347 206.483 C 231.846 206.822,232.312 207.172,232.383 207.261 C 232.455 207.349,233.008 207.697,233.614 208.033 C 234.220 208.370,234.715 208.730,234.715 208.835 C 234.715 208.940,235.052 209.100,235.464 209.191 C 235.876 209.281,236.763 209.704,237.435 210.130 C 238.107 210.556,239.023 210.973,239.471 211.056 C 239.919 211.139,240.810 211.474,241.451 211.801 C 242.092 212.128,243.083 212.468,243.653 212.557 C 244.223 212.646,245.447 212.976,246.373 213.290 C 248.950 214.163,261.432 214.159,263.990 213.284 C 264.916 212.968,266.195 212.628,266.831 212.530 C 267.468 212.431,268.351 212.137,268.793 211.876 C 269.236 211.615,270.154 211.234,270.834 211.030 C 271.514 210.825,272.263 210.493,272.499 210.291 C 272.734 210.090,273.394 209.743,273.964 209.521 C 277.281 208.228,285.012 201.799,287.126 198.575 C 287.500 198.005,288.148 197.073,288.566 196.503 C 289.650 195.024,291.451 192.034,291.451 191.713 C 291.451 191.563,291.723 191.006,292.057 190.474 C 292.390 189.943,292.916 188.668,293.226 187.643 C 293.536 186.617,293.898 185.711,294.030 185.629 C 294.162 185.547,294.346 184.929,294.437 184.256 C 294.529 183.582,294.915 182.040,295.294 180.829 L 295.984 178.627 295.984 129.145 L 295.984 79.663 295.386 77.461 C 295.056 76.250,294.682 74.639,294.555 73.882 C 294.427 73.125,294.026 71.879,293.664 71.113 C 293.302 70.348,293.005 69.595,293.005 69.441 C 293.005 69.055,290.955 64.812,290.690 64.647 C 290.571 64.574,290.224 64.017,289.917 63.410 C 289.350 62.286,288.379 60.806,287.748 60.104 C 287.556 59.890,287.141 59.341,286.824 58.884 C 285.135 56.442,280.860 52.353,278.482 50.907 C 278.014 50.622,277.039 50.015,276.315 49.558 C 275.592 49.101,274.475 48.447,273.834 48.105 C 273.193 47.763,272.319 47.292,271.891 47.059 C 271.464 46.826,270.939 46.634,270.725 46.633 C 270.512 46.632,269.696 46.297,268.912 45.890 C 268.128 45.482,266.846 45.074,266.062 44.983 C 265.278 44.892,263.880 44.572,262.953 44.271 C 261.082 43.664,252.345 43.341,249.482 43.773 " stroke="none" fill="#ec1c2c" fill-rule="evenodd"></path><path id="path1" d="M0.000 129.534 L 0.000 259.067 200.000 259.067 L 400.000 259.067 400.000 129.534 L 400.000 0.000 200.000 0.000 L 0.000 0.000 0.000 129.534 M149.482 44.250 C 150.408 44.543,151.816 44.900,152.610 45.043 C 153.405 45.186,154.709 45.602,155.508 45.967 C 156.308 46.333,157.084 46.632,157.234 46.632 C 157.607 46.632,161.087 48.443,162.088 49.158 C 162.537 49.479,163.024 49.741,163.172 49.741 C 163.319 49.741,163.822 50.091,164.290 50.518 C 164.758 50.946,165.245 51.295,165.372 51.295 C 165.499 51.295,166.319 51.907,167.193 52.655 C 168.067 53.403,168.921 54.132,169.090 54.275 C 170.346 55.335,171.627 56.683,172.132 57.478 C 172.461 57.996,172.979 58.642,173.282 58.913 C 173.586 59.185,173.834 59.506,173.834 59.628 C 173.834 59.750,174.184 60.215,174.611 60.663 C 175.039 61.110,175.389 61.619,175.389 61.794 C 175.389 61.969,175.566 62.260,175.782 62.439 C 175.998 62.619,176.367 63.187,176.602 63.701 C 176.836 64.216,177.231 64.870,177.478 65.155 C 177.725 65.440,178.122 66.256,178.361 66.969 C 178.599 67.681,178.957 68.444,179.155 68.664 C 179.354 68.884,179.708 69.811,179.942 70.724 C 180.176 71.638,180.523 72.623,180.712 72.915 C 180.901 73.207,181.179 74.203,181.329 75.130 C 181.479 76.056,181.726 77.513,181.877 78.368 C 182.028 79.223,182.253 80.505,182.378 81.218 C 182.693 83.017,182.707 174.611,182.393 176.425 C 182.257 177.209,181.909 179.223,181.619 180.901 C 181.329 182.579,180.874 184.386,180.609 184.916 C 180.344 185.447,180.050 186.289,179.955 186.788 C 179.796 187.631,179.449 188.462,178.010 191.451 C 176.862 193.836,174.766 197.144,174.185 197.487 C 173.992 197.601,173.834 197.814,173.834 197.962 C 173.834 198.709,168.955 203.877,167.293 204.890 C 166.758 205.216,166.321 205.568,166.321 205.673 C 166.321 205.778,165.855 206.125,165.285 206.446 C 164.715 206.766,164.249 207.108,164.249 207.206 C 164.249 207.304,163.724 207.663,163.083 208.003 C 162.442 208.343,161.917 208.722,161.917 208.844 C 161.917 208.967,161.759 209.067,161.566 209.067 C 161.373 209.067,160.295 209.533,159.170 210.103 C 158.045 210.672,156.947 211.138,156.731 211.139 C 156.515 211.139,155.932 211.413,155.436 211.746 C 154.940 212.080,153.834 212.475,152.979 212.626 C 152.124 212.776,150.564 213.155,149.512 213.469 C 146.809 214.275,134.895 214.143,132.772 213.284 C 132.060 212.996,130.897 212.676,130.189 212.573 C 129.481 212.470,128.374 212.120,127.728 211.795 C 127.083 211.470,126.181 211.123,125.725 211.024 C 125.268 210.926,124.627 210.638,124.300 210.385 C 123.972 210.132,123.151 209.716,122.474 209.461 C 121.797 209.206,121.244 208.918,121.244 208.821 C 121.244 208.724,120.846 208.455,120.359 208.224 C 119.873 207.992,118.756 207.241,117.876 206.556 C 116.997 205.871,116.006 205.132,115.674 204.913 C 114.896 204.401,110.470 199.790,109.456 198.435 C 109.028 197.864,108.300 196.922,107.837 196.342 C 107.374 195.762,106.995 195.181,106.995 195.051 C 106.995 194.921,106.645 194.331,106.218 193.741 C 105.790 193.151,105.440 192.493,105.440 192.278 C 105.440 192.064,105.158 191.518,104.813 191.065 C 104.467 190.612,104.099 189.785,103.995 189.227 C 103.891 188.669,103.541 187.804,103.217 187.306 C 102.893 186.807,102.546 185.816,102.446 185.104 C 102.347 184.391,101.989 183.067,101.652 182.162 C 100.583 179.290,100.519 176.280,100.525 128.886 C 100.530 81.775,100.590 78.977,101.661 75.655 C 102.006 74.582,102.363 73.264,102.453 72.726 C 102.543 72.187,102.835 71.371,103.101 70.912 C 103.367 70.453,103.721 69.561,103.888 68.930 C 104.054 68.298,104.456 67.424,104.781 66.987 C 105.106 66.549,105.454 65.850,105.553 65.432 C 105.652 65.014,106.017 64.335,106.364 63.922 C 106.711 63.510,106.995 63.081,106.995 62.970 C 106.995 62.858,107.402 62.255,107.899 61.630 C 108.396 61.004,108.804 60.391,108.806 60.267 C 108.812 59.721,114.672 53.642,116.581 52.202 C 117.148 51.775,117.934 51.152,118.327 50.818 C 118.720 50.485,119.391 50.056,119.819 49.865 C 120.246 49.674,120.997 49.218,121.488 48.852 C 121.979 48.486,122.575 48.187,122.812 48.187 C 123.050 48.187,123.697 47.878,124.251 47.500 C 124.806 47.123,125.820 46.665,126.506 46.483 C 127.192 46.301,128.039 45.964,128.390 45.735 C 128.741 45.505,129.695 45.199,130.511 45.054 C 131.327 44.910,132.565 44.608,133.261 44.384 C 136.463 43.353,146.393 43.270,149.482 44.250 M262.953 44.271 C 263.880 44.572,265.278 44.892,266.062 44.983 C 266.846 45.074,268.128 45.482,268.912 45.890 C 269.696 46.297,270.512 46.632,270.725 46.633 C 270.939 46.634,271.464 46.826,271.891 47.059 C 272.319 47.292,273.193 47.763,273.834 48.105 C 274.475 48.447,275.592 49.101,276.315 49.558 C 277.039 50.015,278.014 50.622,278.482 50.907 C 280.860 52.353,285.135 56.442,286.824 58.884 C 287.141 59.341,287.556 59.890,287.748 60.104 C 288.379 60.806,289.350 62.286,289.917 63.410 C 290.224 64.017,290.571 64.574,290.690 64.647 C 290.955 64.812,293.005 69.055,293.005 69.441 C 293.005 69.595,293.302 70.348,293.664 71.113 C 294.026 71.879,294.427 73.125,294.555 73.882 C 294.682 74.639,295.056 76.250,295.386 77.461 L 295.984 79.663 295.984 129.145 L 295.984 178.627 295.294 180.829 C 294.915 182.040,294.529 183.582,294.437 184.256 C 294.346 184.929,294.162 185.547,294.030 185.629 C 293.898 185.711,293.536 186.617,293.226 187.643 C 292.916 188.668,292.390 189.943,292.057 190.474 C 291.723 191.006,291.451 191.563,291.451 191.713 C 291.451 192.034,289.650 195.024,288.566 196.503 C 288.148 197.073,287.500 198.005,287.126 198.575 C 286.483 199.555,281.950 204.203,280.565 205.302 C 279.032 206.519,274.913 209.151,273.964 209.521 C 273.394 209.743,272.734 210.090,272.499 210.291 C 272.263 210.493,271.514 210.825,270.834 211.030 C 270.154 211.234,269.236 211.615,268.793 211.876 C 268.351 212.137,267.468 212.431,266.831 212.530 C 266.195 212.628,264.916 212.968,263.990 213.284 C 261.432 214.159,248.950 214.163,246.373 213.290 C 245.447 212.976,244.223 212.646,243.653 212.557 C 243.083 212.468,242.092 212.128,241.451 211.801 C 240.810 211.474,239.919 211.139,239.471 211.056 C 239.023 210.973,238.107 210.556,237.435 210.130 C 236.763 209.704,235.876 209.281,235.464 209.191 C 235.052 209.100,234.715 208.940,234.715 208.835 C 234.715 208.730,234.220 208.370,233.614 208.033 C 233.008 207.697,232.455 207.349,232.383 207.261 C 232.312 207.172,231.846 206.822,231.347 206.483 C 227.539 203.894,222.106 197.982,220.032 194.171 C 218.681 191.688,217.122 188.410,216.951 187.694 C 216.849 187.267,216.556 186.497,216.299 185.984 C 216.042 185.471,215.695 184.246,215.527 183.264 C 215.360 182.281,215.065 181.091,214.872 180.619 C 214.018 178.531,213.957 174.600,214.038 126.943 C 214.112 83.714,214.156 79.563,214.548 78.497 C 214.784 77.856,215.169 76.341,215.405 75.130 C 215.640 73.918,216.040 72.519,216.293 72.021 C 216.546 71.522,216.898 70.531,217.075 69.819 C 217.252 69.106,217.553 68.348,217.744 68.135 C 217.935 67.921,218.294 67.222,218.542 66.580 C 218.790 65.939,219.135 65.240,219.311 65.026 C 219.486 64.812,219.880 64.171,220.187 63.601 C 220.711 62.629,221.634 61.250,222.353 60.363 C 222.527 60.149,222.890 59.624,223.160 59.197 C 224.170 57.600,227.844 53.991,230.533 51.953 C 231.559 51.176,232.578 50.361,232.798 50.141 C 233.018 49.921,233.308 49.741,233.444 49.741 C 233.579 49.741,234.125 49.453,234.656 49.102 C 235.187 48.751,236.030 48.324,236.528 48.154 C 237.027 47.984,237.714 47.630,238.054 47.367 C 238.394 47.105,239.210 46.727,239.867 46.528 C 240.524 46.329,241.605 45.930,242.269 45.642 C 242.932 45.353,244.040 45.033,244.730 44.931 C 245.420 44.829,246.451 44.575,247.021 44.366 C 249.795 43.352,259.935 43.292,262.953 44.271 " stroke="none" fill="#fcfcfc" fill-rule="evenodd"></path></g></svg>