<svg id="svg" version="1.1" xmlns="http://www.w3.org/2000/svg" xmlns:xlink="http://www.w3.org/1999/xlink" width="400" height="258.91472868217056" viewBox="0, 0, 400,258.91472868217056"><g id="svgg"><path id="path0" d="M191.925 39.244 C 190.974 39.438,189.983 39.711,189.723 39.850 C 189.462 39.989,188.569 40.188,187.739 40.291 C 186.909 40.395,185.685 40.756,185.019 41.094 C 184.353 41.432,183.400 41.781,182.902 41.871 C 182.403 41.960,181.632 42.304,181.188 42.635 C 180.745 42.966,180.045 43.316,179.634 43.414 C 179.223 43.512,178.536 43.851,178.109 44.168 C 177.681 44.485,177.040 44.835,176.684 44.946 C 176.328 45.057,175.664 45.452,175.209 45.825 C 174.755 46.198,173.788 46.911,173.062 47.409 C 170.558 49.128,166.935 52.502,165.285 54.651 C 164.929 55.115,164.200 56.034,163.666 56.693 C 163.131 57.353,162.694 57.988,162.694 58.106 C 162.694 58.224,162.356 58.751,161.943 59.277 C 161.530 59.803,161.114 60.495,161.019 60.816 C 160.924 61.137,160.752 61.399,160.636 61.399 C 160.521 61.399,160.166 62.011,159.848 62.759 C 159.530 63.507,159.122 64.294,158.943 64.508 C 158.763 64.722,158.408 65.538,158.154 66.321 C 157.900 67.105,157.533 67.992,157.337 68.294 C 157.142 68.595,156.805 69.690,156.588 70.728 C 156.372 71.766,156.080 72.830,155.940 73.092 C 154.937 74.965,154.658 88.965,154.612 139.767 C 154.580 175.228,154.741 180.238,155.961 181.736 C 156.077 181.878,156.305 182.753,156.468 183.679 C 156.630 184.605,157.040 185.946,157.379 186.658 C 157.719 187.370,158.137 188.420,158.310 188.990 C 158.483 189.560,158.841 190.304,159.105 190.644 C 159.369 190.984,159.585 191.371,159.585 191.504 C 159.585 191.778,161.893 195.655,162.175 195.855 C 162.275 195.926,162.509 196.276,162.694 196.632 C 162.879 196.988,163.310 197.630,163.653 198.057 C 166.137 201.159,167.784 203.020,168.845 203.925 C 169.523 204.504,170.311 205.200,170.596 205.472 C 171.542 206.375,175.255 208.989,176.432 209.581 C 177.069 209.902,177.766 210.306,177.979 210.479 C 178.193 210.651,178.912 210.994,179.578 211.239 C 180.244 211.485,180.926 211.851,181.094 212.053 C 181.262 212.256,181.825 212.499,182.345 212.593 C 182.865 212.688,183.821 213.031,184.470 213.356 C 185.119 213.681,186.110 214.025,186.672 214.121 C 187.234 214.217,188.685 214.600,189.896 214.974 C 192.736 215.850,204.885 216.005,207.513 215.199 C 208.297 214.958,209.696 214.580,210.622 214.357 C 211.548 214.135,212.889 213.685,213.601 213.358 C 214.313 213.031,215.304 212.677,215.803 212.571 C 216.302 212.465,217.061 212.115,217.490 211.793 C 217.919 211.472,218.639 211.127,219.091 211.028 C 219.543 210.929,220.056 210.674,220.232 210.463 C 220.407 210.251,221.061 209.846,221.684 209.562 C 222.308 209.278,223.017 208.883,223.261 208.684 C 223.505 208.485,224.217 207.902,224.844 207.388 C 225.470 206.875,226.228 206.326,226.527 206.170 C 227.157 205.841,232.492 200.507,233.347 199.352 C 234.597 197.662,235.092 197.015,235.227 196.891 C 235.521 196.621,237.306 193.564,237.306 193.330 C 237.306 193.196,237.599 192.747,237.958 192.333 C 238.316 191.919,238.735 191.114,238.888 190.544 C 239.042 189.974,239.317 189.333,239.500 189.119 C 239.683 188.905,239.978 188.264,240.156 187.694 C 240.334 187.124,240.815 185.760,241.224 184.663 C 241.634 183.566,241.974 182.342,241.980 181.943 C 241.987 181.544,242.163 180.751,242.373 180.181 C 243.498 177.122,243.523 175.949,243.523 127.173 C 243.523 80.824,243.482 78.442,242.622 75.648 C 242.425 75.006,242.188 73.957,242.094 73.316 C 241.885 71.875,241.278 69.721,240.971 69.332 C 240.845 69.172,240.600 68.440,240.428 67.704 C 240.256 66.968,239.832 65.984,239.487 65.516 C 239.142 65.049,238.860 64.472,238.860 64.235 C 238.860 63.997,238.552 63.350,238.176 62.795 C 237.800 62.241,237.372 61.440,237.223 61.015 C 237.075 60.589,236.728 60.006,236.452 59.719 C 236.175 59.432,235.791 58.829,235.598 58.379 C 235.404 57.929,235.156 57.521,235.045 57.472 C 234.935 57.423,234.263 56.626,233.552 55.699 C 231.034 52.419,229.392 50.633,228.165 49.839 C 227.626 49.491,226.984 49.032,226.740 48.821 C 224.568 46.943,221.565 44.820,221.081 44.819 C 220.920 44.819,220.649 44.650,220.478 44.444 C 220.306 44.237,219.622 43.865,218.956 43.615 C 218.291 43.365,217.444 42.943,217.075 42.676 C 216.706 42.410,215.891 42.076,215.265 41.936 C 214.639 41.795,213.949 41.519,213.731 41.322 C 213.513 41.125,212.812 40.844,212.173 40.699 C 211.533 40.553,209.670 40.110,208.031 39.714 C 204.448 38.847,195.190 38.577,191.925 39.244 M205.466 50.310 C 205.978 50.534,207.219 50.904,208.223 51.133 C 209.227 51.361,210.631 51.841,211.344 52.199 C 212.057 52.557,212.804 52.850,213.005 52.850 C 213.206 52.850,213.772 53.149,214.263 53.515 C 214.754 53.882,215.505 54.348,215.933 54.553 C 217.524 55.313,222.822 59.635,223.434 60.672 C 223.694 61.111,224.094 61.667,224.323 61.907 C 225.549 63.187,227.330 65.659,227.877 66.839 C 228.108 67.338,228.510 68.045,228.769 68.410 C 229.028 68.774,229.320 69.416,229.418 69.834 C 229.515 70.253,229.867 71.074,230.200 71.658 C 230.533 72.242,230.917 73.408,231.053 74.249 C 231.190 75.089,231.498 76.302,231.739 76.943 C 232.611 79.270,232.655 81.943,232.579 128.886 L 232.503 175.777 231.822 177.850 C 231.447 178.990,231.060 180.385,230.962 180.951 C 230.864 181.516,230.517 182.449,230.190 183.023 C 229.863 183.597,229.517 184.404,229.421 184.815 C 229.325 185.227,228.977 185.926,228.647 186.370 C 228.317 186.813,227.964 187.525,227.863 187.951 C 227.762 188.377,227.587 188.785,227.475 188.858 C 227.362 188.930,226.934 189.465,226.524 190.045 C 224.229 193.289,221.894 195.901,220.181 197.139 C 219.697 197.489,219.184 197.866,219.041 197.977 C 217.877 198.887,216.286 200.000,216.149 200.000 C 216.057 200.000,215.591 200.298,215.113 200.662 C 214.636 201.026,213.588 201.550,212.785 201.827 C 211.983 202.103,211.173 202.456,210.986 202.611 C 210.800 202.765,209.749 203.117,208.651 203.391 C 207.553 203.665,206.480 204.035,206.267 204.212 C 205.988 204.444,204.133 204.555,199.637 204.610 L 193.394 204.687 190.954 203.898 C 189.612 203.464,188.363 203.109,188.177 203.109 C 187.856 203.109,185.325 201.950,183.938 201.168 C 183.582 200.967,182.839 200.554,182.286 200.250 C 181.290 199.701,179.827 198.703,178.400 197.598 C 176.788 196.349,173.380 192.732,172.282 191.105 C 171.861 190.482,171.338 189.824,171.121 189.643 C 170.903 189.463,170.725 189.194,170.725 189.045 C 170.725 188.897,170.388 188.241,169.976 187.587 C 169.564 186.934,169.139 186.109,169.032 185.755 C 168.925 185.400,168.571 184.701,168.245 184.200 C 167.918 183.700,167.570 182.824,167.471 182.254 C 167.371 181.684,167.204 181.101,167.099 180.959 C 166.586 180.263,166.024 177.783,165.801 175.236 C 165.665 173.681,165.444 171.768,165.309 170.984 C 164.952 168.909,164.977 110.087,165.336 108.420 C 165.505 107.633,165.677 101.219,165.774 92.098 L 165.933 77.073 166.796 74.482 C 167.271 73.057,168.000 71.192,168.415 70.337 C 168.831 69.482,169.171 68.677,169.171 68.548 C 169.171 68.419,169.446 67.952,169.781 67.512 C 170.117 67.071,170.471 66.458,170.569 66.150 C 170.738 65.615,171.196 64.955,173.107 62.500 C 174.822 60.297,178.687 56.660,180.052 55.965 C 180.408 55.783,180.944 55.413,181.242 55.141 C 181.541 54.870,182.182 54.438,182.667 54.181 C 186.104 52.361,188.457 51.295,189.040 51.295 C 189.324 51.295,190.245 51.052,191.086 50.754 C 194.149 49.671,203.355 49.387,205.466 50.310 " stroke="none" fill="#ec2027" fill-rule="evenodd"></path><path id="path1" d="M0.000 129.534 L 0.000 259.067 200.000 259.067 L 400.000 259.067 400.000 129.534 L 400.000 0.000 200.000 0.000 L 0.000 0.000 0.000 129.534 M208.031 39.714 C 209.670 40.110,211.533 40.553,212.173 40.699 C 212.812 40.844,213.513 41.125,213.731 41.322 C 213.949 41.519,214.639 41.795,215.265 41.936 C 215.891 42.076,216.706 42.410,217.075 42.676 C 217.444 42.943,218.291 43.365,218.956 43.615 C 219.622 43.865,220.306 44.237,220.478 44.444 C 220.649 44.650,220.920 44.819,221.081 44.819 C 221.565 44.820,224.568 46.943,226.740 48.821 C 226.984 49.032,227.626 49.491,228.165 49.839 C 229.392 50.633,231.034 52.419,233.552 55.699 C 234.263 56.626,234.935 57.423,235.045 57.472 C 235.156 57.521,235.404 57.929,235.598 58.379 C 235.791 58.829,236.175 59.432,236.452 59.719 C 236.728 60.006,237.075 60.589,237.223 61.015 C 237.372 61.440,237.800 62.241,238.176 62.795 C 238.552 63.350,238.860 63.997,238.860 64.235 C 238.860 64.472,239.142 65.049,239.487 65.516 C 239.832 65.984,240.256 66.968,240.428 67.704 C 240.600 68.440,240.845 69.172,240.971 69.332 C 241.278 69.721,241.885 71.875,242.094 73.316 C 242.188 73.957,242.425 75.006,242.622 75.648 C 243.482 78.442,243.523 80.824,243.523 127.173 C 243.523 175.949,243.498 177.122,242.373 180.181 C 242.163 180.751,241.987 181.544,241.980 181.943 C 241.974 182.342,241.634 183.566,241.224 184.663 C 240.815 185.760,240.334 187.124,240.156 187.694 C 239.978 188.264,239.683 188.905,239.500 189.119 C 239.317 189.333,239.042 189.974,238.888 190.544 C 238.735 191.114,238.316 191.919,237.958 192.333 C 237.599 192.747,237.306 193.196,237.306 193.330 C 237.306 193.564,235.521 196.621,235.227 196.891 C 235.092 197.015,234.597 197.662,233.347 199.352 C 232.492 200.507,227.157 205.841,226.527 206.170 C 226.228 206.326,225.470 206.875,224.844 207.388 C 224.217 207.902,223.505 208.485,223.261 208.684 C 223.017 208.883,222.308 209.278,221.684 209.562 C 221.061 209.846,220.407 210.251,220.232 210.463 C 220.056 210.674,219.543 210.929,219.091 211.028 C 218.639 211.127,217.919 211.472,217.490 211.793 C 217.061 212.115,216.302 212.465,215.803 212.571 C 215.304 212.677,214.313 213.031,213.601 213.358 C 212.889 213.685,211.548 214.135,210.622 214.357 C 209.696 214.580,208.297 214.958,207.513 215.199 C 204.885 216.005,192.736 215.850,189.896 214.974 C 188.685 214.600,187.234 214.217,186.672 214.121 C 186.110 214.025,185.119 213.681,184.470 213.356 C 183.821 213.031,182.865 212.688,182.345 212.593 C 181.825 212.499,181.262 212.256,181.094 212.053 C 180.926 211.851,180.244 211.485,179.578 211.239 C 178.912 210.994,178.193 210.651,177.979 210.479 C 177.766 210.306,177.069 209.902,176.432 209.581 C 175.255 208.989,171.542 206.375,170.596 205.472 C 170.311 205.200,169.523 204.504,168.845 203.925 C 167.784 203.020,166.137 201.159,163.653 198.057 C 163.310 197.630,162.879 196.988,162.694 196.632 C 162.509 196.276,162.275 195.926,162.175 195.855 C 161.893 195.655,159.585 191.778,159.585 191.504 C 159.585 191.371,159.369 190.984,159.105 190.644 C 158.841 190.304,158.483 189.560,158.310 188.990 C 158.137 188.420,157.719 187.370,157.379 186.658 C 157.040 185.946,156.630 184.605,156.468 183.679 C 156.305 182.753,156.077 181.878,155.961 181.736 C 154.741 180.238,154.580 175.228,154.612 139.767 C 154.658 88.965,154.937 74.965,155.940 73.092 C 156.080 72.830,156.372 71.766,156.588 70.728 C 156.805 69.690,157.142 68.595,157.337 68.294 C 157.533 67.992,157.900 67.105,158.154 66.321 C 158.408 65.538,158.763 64.722,158.943 64.508 C 159.122 64.294,159.530 63.507,159.848 62.759 C 160.166 62.011,160.521 61.399,160.636 61.399 C 160.752 61.399,160.924 61.137,161.019 60.816 C 161.114 60.495,161.530 59.803,161.943 59.277 C 162.356 58.751,162.694 58.224,162.694 58.106 C 162.694 57.988,163.131 57.353,163.666 56.693 C 164.200 56.034,164.929 55.115,165.285 54.651 C 166.935 52.502,170.558 49.128,173.062 47.409 C 173.788 46.911,174.755 46.198,175.209 45.825 C 175.664 45.452,176.328 45.057,176.684 44.946 C 177.040 44.835,177.681 44.485,178.109 44.168 C 178.536 43.851,179.223 43.512,179.634 43.414 C 180.045 43.316,180.745 42.966,181.188 42.635 C 181.632 42.304,182.403 41.960,182.902 41.871 C 183.400 41.781,184.353 41.432,185.019 41.094 C 185.685 40.756,186.909 40.395,187.739 40.291 C 188.569 40.188,189.462 39.989,189.723 39.850 C 192.035 38.616,203.149 38.533,208.031 39.714 M193.912 49.996 C 193.199 50.115,191.928 50.457,191.086 50.754 C 190.245 51.052,189.324 51.295,189.040 51.295 C 188.457 51.295,186.104 52.361,182.667 54.181 C 182.182 54.438,181.541 54.870,181.242 55.141 C 180.944 55.413,180.408 55.783,180.052 55.965 C 178.687 56.660,174.822 60.297,173.107 62.500 C 171.196 64.955,170.738 65.615,170.569 66.150 C 170.471 66.458,170.117 67.071,169.781 67.512 C 169.446 67.952,169.171 68.419,169.171 68.548 C 169.171 68.677,168.831 69.482,168.415 70.337 C 168.000 71.192,167.271 73.057,166.796 74.482 L 165.933 77.073 165.774 92.098 C 165.677 101.219,165.505 107.633,165.336 108.420 C 164.977 110.087,164.952 168.909,165.309 170.984 C 165.444 171.768,165.665 173.681,165.801 175.236 C 166.024 177.783,166.586 180.263,167.099 180.959 C 167.204 181.101,167.371 181.684,167.471 182.254 C 167.570 182.824,167.918 183.700,168.245 184.200 C 168.571 184.701,168.925 185.400,169.032 185.755 C 169.139 186.109,169.564 186.934,169.976 187.587 C 170.388 188.241,170.725 188.897,170.725 189.045 C 170.725 189.194,170.903 189.463,171.121 189.643 C 171.338 189.824,171.861 190.482,172.282 191.105 C 173.380 192.732,176.788 196.349,178.400 197.598 C 179.827 198.703,181.290 199.701,182.286 200.250 C 182.839 200.554,183.582 200.967,183.938 201.168 C 185.325 201.950,187.856 203.109,188.177 203.109 C 188.363 203.109,189.612 203.464,190.954 203.898 L 193.394 204.687 199.637 204.610 C 204.133 204.555,205.988 204.444,206.267 204.212 C 206.480 204.035,207.553 203.665,208.651 203.391 C 209.749 203.117,210.800 202.765,210.986 202.611 C 211.173 202.456,211.983 202.103,212.785 201.827 C 213.588 201.550,214.636 201.026,215.113 200.662 C 215.591 200.298,216.057 200.000,216.149 200.000 C 216.286 200.000,217.877 198.887,219.041 197.977 C 219.184 197.866,219.697 197.489,220.181 197.139 C 221.894 195.901,224.229 193.289,226.524 190.045 C 226.934 189.465,227.362 188.930,227.475 188.858 C 227.587 188.785,227.762 188.377,227.863 187.951 C 227.964 187.525,228.317 186.813,228.647 186.370 C 228.977 185.926,229.325 185.227,229.421 184.815 C 229.517 184.404,229.863 183.597,230.190 183.023 C 230.517 182.449,230.864 181.516,230.962 180.951 C 231.060 180.385,231.447 178.990,231.822 177.850 L 232.503 175.777 232.579 128.886 C 232.655 81.943,232.611 79.270,231.739 76.943 C 231.498 76.302,231.190 75.089,231.053 74.249 C 230.917 73.408,230.533 72.242,230.200 71.658 C 229.867 71.074,229.515 70.253,229.418 69.834 C 229.320 69.416,229.028 68.774,228.769 68.410 C 228.510 68.045,228.108 67.338,227.877 66.839 C 227.330 65.659,225.549 63.187,224.323 61.907 C 224.094 61.667,223.694 61.111,223.434 60.672 C 222.822 59.635,217.524 55.313,215.933 54.553 C 215.505 54.348,214.754 53.882,214.263 53.515 C 213.772 53.149,213.206 52.850,213.005 52.850 C 212.804 52.850,212.057 52.557,211.344 52.199 C 210.631 51.841,209.227 51.361,208.223 51.133 C 207.219 50.904,205.978 50.534,205.466 50.310 C 204.393 49.841,196.167 49.617,193.912 49.996 " stroke="none" fill="#fcfcfc" fill-rule="evenodd"></path></g></svg>