<svg id="svg" version="1.1" xmlns="http://www.w3.org/2000/svg" xmlns:xlink="http://www.w3.org/1999/xlink" width="400" height="258.91472868217056" viewBox="0, 0, 400,258.91472868217056"><g id="svgg"><path id="path0" d="M78.886 38.316 C 78.601 38.435,77.333 38.618,76.067 38.722 C 74.633 38.841,72.951 39.195,71.599 39.663 C 70.407 40.076,69.227 40.419,68.977 40.425 C 68.728 40.430,67.882 40.780,67.098 41.202 C 66.315 41.624,65.544 41.969,65.386 41.969 C 65.228 41.969,64.686 42.249,64.182 42.591 C 63.678 42.933,63.009 43.294,62.694 43.394 C 61.926 43.638,58.549 45.891,58.549 46.160 C 58.549 46.277,58.381 46.373,58.176 46.373 C 57.971 46.373,57.243 46.846,56.557 47.423 C 52.401 50.925,50.862 52.470,49.538 54.469 C 49.184 55.003,48.802 55.440,48.688 55.440 C 48.574 55.440,48.411 55.661,48.325 55.930 C 48.240 56.199,47.881 56.731,47.527 57.113 C 47.174 57.494,46.646 58.236,46.355 58.761 C 46.063 59.286,45.481 60.298,45.061 61.010 C 44.641 61.723,44.113 62.714,43.886 63.212 C 43.660 63.711,43.204 64.702,42.872 65.415 C 41.991 67.308,40.415 72.120,40.415 72.918 C 40.415 73.297,40.123 74.897,39.767 76.475 L 39.119 79.344 39.121 127.302 C 39.123 174.552,39.131 175.291,39.647 177.446 C 39.936 178.649,40.281 180.409,40.416 181.357 C 40.550 182.305,40.954 183.711,41.312 184.481 C 41.671 185.251,41.962 186.114,41.959 186.399 C 41.955 186.854,42.282 187.608,43.981 191.062 C 44.942 193.015,45.479 193.971,46.034 194.714 C 46.363 195.154,46.632 195.644,46.632 195.801 C 46.632 195.959,46.894 196.376,47.215 196.728 C 47.536 197.080,48.264 197.980,48.834 198.728 C 50.065 200.343,55.740 206.035,57.162 207.082 C 57.711 207.486,58.510 208.038,58.938 208.309 C 60.332 209.191,60.727 209.446,61.830 210.168 C 62.428 210.560,63.019 210.881,63.144 210.881 C 63.268 210.881,63.901 211.218,64.551 211.630 C 65.200 212.041,66.126 212.461,66.609 212.561 C 67.092 212.662,67.893 212.978,68.388 213.264 C 68.884 213.550,70.078 213.948,71.042 214.149 C 72.006 214.350,73.407 214.758,74.156 215.057 C 78.680 216.862,92.823 215.812,99.411 213.183 C 100.441 212.772,101.421 212.435,101.589 212.435 C 101.757 212.435,102.255 212.162,102.696 211.829 C 103.137 211.495,103.814 211.144,104.201 211.049 C 104.588 210.953,105.404 210.542,106.014 210.134 C 106.625 209.725,107.387 209.311,107.707 209.212 C 108.028 209.113,108.290 208.933,108.290 208.812 C 108.290 208.691,108.727 208.322,109.262 207.992 C 109.796 207.663,110.466 207.199,110.751 206.961 C 111.036 206.723,111.852 206.047,112.565 205.459 C 114.899 203.531,117.086 201.208,118.925 198.705 C 121.415 195.315,121.922 194.569,122.443 193.523 C 122.691 193.025,123.099 192.348,123.348 192.019 C 123.598 191.690,123.988 190.863,124.214 190.181 C 124.441 189.498,124.856 188.489,125.137 187.939 C 125.418 187.388,125.648 186.790,125.648 186.611 C 125.648 186.431,125.932 185.642,126.279 184.857 C 126.626 184.073,126.983 182.875,127.072 182.195 C 127.312 180.373,127.731 178.521,128.201 177.202 C 128.702 175.798,128.996 87.279,128.522 80.817 C 128.240 76.973,127.047 70.986,126.202 69.171 C 125.903 68.530,125.656 67.784,125.653 67.513 C 125.650 67.242,125.361 66.426,125.010 65.699 C 124.660 64.973,124.131 63.854,123.836 63.212 C 122.745 60.849,120.794 57.492,120.222 56.995 C 120.140 56.924,119.750 56.399,119.355 55.829 C 117.911 53.743,117.430 53.192,114.947 50.777 C 112.041 47.951,111.064 47.124,109.973 46.565 C 109.546 46.346,108.974 45.922,108.703 45.622 C 108.432 45.323,108.074 45.078,107.908 45.078 C 107.742 45.078,107.226 44.738,106.761 44.323 C 106.297 43.908,105.614 43.493,105.245 43.400 C 104.876 43.308,104.288 43.007,103.937 42.731 C 103.587 42.455,102.821 42.101,102.235 41.943 C 101.650 41.785,100.866 41.440,100.494 41.175 C 100.122 40.910,99.247 40.569,98.549 40.418 C 97.851 40.267,96.697 39.896,95.984 39.595 C 93.541 38.561,80.615 37.594,78.886 38.316 M193.912 38.317 C 193.627 38.434,192.403 38.613,191.192 38.715 C 189.841 38.830,188.366 39.150,187.377 39.544 C 186.490 39.897,185.324 40.255,184.786 40.339 C 184.248 40.423,183.180 40.825,182.412 41.231 C 181.644 41.637,180.828 41.969,180.598 41.970 C 180.369 41.971,179.657 42.320,179.016 42.746 C 178.374 43.172,177.722 43.522,177.566 43.522 C 177.410 43.523,177.068 43.761,176.805 44.051 C 176.542 44.341,175.854 44.808,175.275 45.088 C 173.943 45.733,172.021 47.111,172.021 47.420 C 172.021 47.549,171.700 47.821,171.308 48.025 C 170.650 48.367,165.904 53.003,164.842 54.341 C 163.212 56.397,161.140 59.451,161.140 59.798 C 161.140 59.922,160.912 60.230,160.632 60.483 C 160.353 60.735,159.939 61.502,159.712 62.187 C 159.484 62.871,159.144 63.559,158.956 63.716 C 158.768 63.872,158.466 64.551,158.285 65.225 C 158.104 65.899,157.743 66.809,157.482 67.248 C 157.222 67.686,156.823 68.842,156.597 69.817 C 156.371 70.791,156.035 71.890,155.850 72.258 C 154.621 74.706,154.549 77.816,154.563 127.461 C 154.576 175.528,154.631 178.171,155.663 181.242 C 155.946 182.084,156.366 183.587,156.597 184.582 C 156.827 185.578,157.186 186.652,157.394 186.969 C 157.602 187.287,157.959 188.104,158.188 188.786 C 158.416 189.468,158.756 190.201,158.943 190.415 C 159.130 190.628,159.485 191.328,159.733 191.969 C 159.980 192.610,160.398 193.375,160.661 193.670 C 160.924 193.964,161.141 194.313,161.142 194.447 C 161.144 194.580,161.552 195.201,162.049 195.827 C 162.546 196.452,162.953 197.048,162.953 197.151 C 162.953 197.816,168.500 203.925,170.597 205.570 C 171.142 205.997,171.875 206.619,172.226 206.952 C 172.577 207.284,173.316 207.791,173.867 208.079 C 174.419 208.366,174.870 208.689,174.870 208.795 C 174.870 208.902,175.337 209.199,175.908 209.457 C 176.479 209.714,177.071 210.075,177.224 210.259 C 177.376 210.443,178.066 210.781,178.756 211.010 C 179.447 211.240,180.151 211.595,180.322 211.801 C 180.493 212.006,181.183 212.338,181.856 212.538 C 182.528 212.738,183.535 213.132,184.091 213.414 C 184.648 213.697,185.628 214.010,186.269 214.111 C 186.911 214.212,188.251 214.593,189.249 214.958 C 192.586 216.178,205.900 216.116,209.404 214.864 C 210.003 214.650,211.133 214.356,211.917 214.210 C 212.701 214.064,213.867 213.669,214.508 213.332 C 215.149 212.995,216.154 212.596,216.741 212.447 C 217.328 212.297,218.086 211.958,218.425 211.693 C 218.764 211.428,219.315 211.126,219.649 211.021 C 219.983 210.916,220.757 210.492,221.370 210.078 C 221.983 209.665,222.554 209.326,222.639 209.326 C 222.765 209.326,224.123 208.374,225.518 207.308 C 225.661 207.199,226.167 206.835,226.643 206.499 C 227.625 205.808,233.938 199.491,233.938 199.202 C 233.938 199.098,234.346 198.524,234.845 197.927 C 235.343 197.331,235.751 196.723,235.751 196.577 C 235.751 196.431,236.101 195.914,236.528 195.427 C 236.956 194.940,237.306 194.392,237.306 194.208 C 237.306 194.025,237.652 193.417,238.076 192.857 C 238.499 192.297,238.849 191.692,238.853 191.512 C 238.857 191.331,239.210 190.564,239.637 189.807 C 240.065 189.049,240.415 188.228,240.415 187.981 C 240.415 187.734,240.705 186.918,241.061 186.167 C 241.416 185.415,241.819 184.210,241.956 183.489 C 242.092 182.768,242.443 181.471,242.734 180.606 C 243.748 177.595,243.816 173.699,243.715 123.964 C 243.613 73.457,243.649 74.970,242.473 72.771 C 242.340 72.524,242.120 71.532,241.983 70.568 C 241.847 69.603,241.515 68.516,241.245 68.151 C 240.976 67.786,240.611 66.885,240.435 66.150 C 240.259 65.414,239.832 64.430,239.487 63.962 C 239.142 63.494,238.860 62.926,238.860 62.700 C 238.860 62.474,238.452 61.655,237.953 60.881 C 237.455 60.107,237.047 59.394,237.047 59.296 C 237.047 58.250,231.044 51.204,228.134 48.834 C 227.609 48.407,226.831 47.736,226.405 47.345 C 225.978 46.953,225.538 46.632,225.426 46.632 C 225.314 46.632,224.831 46.282,224.352 45.855 C 223.874 45.427,223.332 45.078,223.149 45.078 C 222.966 45.078,222.433 44.746,221.965 44.342 C 221.497 43.937,220.730 43.475,220.261 43.315 C 219.791 43.155,219.074 42.787,218.666 42.497 C 218.259 42.206,217.838 41.969,217.731 41.969 C 217.625 41.969,216.826 41.636,215.958 41.228 C 215.089 40.821,213.946 40.408,213.418 40.312 C 212.890 40.215,211.900 39.890,211.219 39.588 C 208.882 38.555,195.698 37.586,193.912 38.317 M310.079 38.194 C 310.006 38.267,308.548 38.489,306.839 38.688 C 304.954 38.907,303.248 39.262,302.502 39.592 C 301.826 39.891,300.841 40.213,300.313 40.307 C 299.785 40.400,298.828 40.741,298.187 41.064 C 297.545 41.387,296.468 41.849,295.793 42.090 C 295.117 42.331,294.499 42.635,294.418 42.766 C 294.337 42.897,293.636 43.304,292.861 43.671 C 292.085 44.038,291.451 44.446,291.451 44.578 C 291.451 44.711,291.280 44.819,291.071 44.819 C 290.862 44.819,290.309 45.144,289.841 45.542 C 289.373 45.941,288.640 46.482,288.212 46.746 C 286.410 47.860,279.915 54.418,278.627 56.425 C 278.057 57.313,277.270 58.462,276.878 58.978 C 276.486 59.494,276.166 60.029,276.166 60.166 C 276.166 60.304,275.827 60.919,275.414 61.531 C 275.000 62.144,274.579 62.919,274.478 63.253 C 274.377 63.587,274.026 64.385,273.699 65.026 C 273.371 65.667,272.968 66.775,272.802 67.487 C 272.636 68.199,272.288 69.132,272.028 69.560 C 271.769 69.987,271.477 70.978,271.379 71.762 C 271.281 72.545,270.985 73.944,270.720 74.870 C 269.708 78.412,269.689 79.375,269.691 127.286 C 269.692 176.388,269.705 176.988,270.822 179.953 C 271.030 180.506,271.276 181.592,271.367 182.366 C 271.458 183.141,271.749 184.248,272.012 184.827 C 272.275 185.407,272.721 186.522,273.003 187.306 C 273.887 189.762,274.922 192.068,275.503 192.876 C 275.811 193.303,276.209 193.949,276.388 194.311 C 276.689 194.920,277.698 196.350,279.840 199.202 C 281.627 201.584,285.055 204.950,287.700 206.922 C 290.360 208.906,290.953 209.326,291.092 209.326 C 291.177 209.326,291.748 209.665,292.360 210.078 C 292.973 210.492,293.748 210.917,294.082 211.023 C 294.416 211.129,295.100 211.475,295.603 211.792 C 296.105 212.109,296.895 212.452,297.358 212.554 C 297.821 212.655,298.693 213.007,299.294 213.335 C 299.896 213.663,300.855 214.009,301.425 214.104 C 301.995 214.199,303.452 214.588,304.663 214.969 C 307.848 215.969,321.643 216.029,324.223 215.054 C 325.078 214.731,326.477 214.350,327.332 214.207 C 328.187 214.064,329.294 213.709,329.793 213.419 C 330.291 213.128,331.239 212.729,331.899 212.532 C 332.559 212.336,333.238 212.006,333.409 211.800 C 333.580 211.594,334.148 211.286,334.671 211.116 C 335.194 210.945,336.088 210.493,336.658 210.110 C 337.228 209.727,337.910 209.335,338.174 209.239 C 338.698 209.047,339.222 208.660,342.036 206.385 C 345.523 203.567,349.134 199.636,351.235 196.373 C 351.831 195.447,352.504 194.424,352.731 194.100 C 353.149 193.501,354.304 191.231,355.555 188.548 C 355.934 187.736,356.479 186.223,356.766 185.186 C 357.053 184.150,357.408 183.157,357.555 182.981 C 357.701 182.805,357.994 181.461,358.207 179.996 C 358.652 176.926,358.909 175.215,359.309 172.668 C 359.743 169.896,359.573 80.713,359.132 80.272 C 358.954 80.094,358.808 79.445,358.808 78.830 C 358.808 77.341,357.818 71.223,357.519 70.862 C 357.389 70.706,357.030 69.657,356.722 68.532 C 356.413 67.407,355.998 66.324,355.800 66.126 C 355.602 65.928,355.440 65.650,355.440 65.507 C 355.440 64.947,351.982 58.336,351.278 57.549 C 350.784 56.998,349.398 55.131,348.861 54.295 C 347.829 52.687,341.046 46.373,340.351 46.373 C 340.213 46.373,339.871 46.082,339.591 45.725 C 339.311 45.369,338.933 45.078,338.751 45.078 C 338.569 45.078,337.957 44.743,337.391 44.333 C 336.826 43.923,336.097 43.503,335.771 43.400 C 335.446 43.297,334.767 42.933,334.264 42.591 C 333.760 42.249,333.218 41.969,333.060 41.969 C 332.901 41.969,332.072 41.637,331.215 41.232 C 330.359 40.827,329.193 40.409,328.625 40.302 C 328.056 40.196,327.474 40.020,327.332 39.912 C 325.914 38.831,310.934 37.339,310.079 38.194 M90.026 49.511 C 91.878 49.813,93.627 50.203,93.912 50.379 C 94.197 50.554,95.071 50.905,95.855 51.159 C 96.639 51.413,97.455 51.771,97.668 51.954 C 97.882 52.137,98.698 52.590,99.482 52.961 C 102.270 54.282,104.818 56.177,107.460 58.897 C 108.130 59.587,108.999 60.451,109.391 60.818 C 109.783 61.185,110.104 61.596,110.104 61.731 C 110.104 61.867,110.424 62.355,110.816 62.816 C 111.595 63.732,112.238 64.757,113.172 66.568 C 113.506 67.216,113.932 67.921,114.118 68.135 C 114.305 68.348,114.642 69.150,114.867 69.917 C 115.092 70.683,115.398 71.457,115.547 71.635 C 115.695 71.814,116.113 73.227,116.476 74.776 C 116.839 76.324,117.273 78.057,117.441 78.627 C 117.915 80.236,117.877 174.038,117.402 175.648 C 117.213 176.289,116.794 177.945,116.472 179.327 C 116.151 180.709,115.771 181.992,115.628 182.177 C 115.486 182.362,115.103 183.242,114.777 184.132 C 114.452 185.023,114.099 185.751,113.993 185.751 C 113.887 185.751,113.595 186.305,113.344 186.982 C 112.793 188.462,111.253 190.793,108.938 193.650 C 107.715 195.158,106.780 196.014,104.298 197.893 C 103.288 198.657,102.403 199.366,102.332 199.468 C 102.260 199.570,101.648 199.927,100.972 200.261 C 100.295 200.595,99.741 200.949,99.741 201.047 C 99.741 201.145,99.187 201.431,98.510 201.683 C 97.834 201.934,96.930 202.344,96.503 202.593 C 96.075 202.842,95.084 203.189,94.301 203.365 C 93.517 203.541,92.607 203.854,92.280 204.059 C 90.304 205.299,78.219 205.325,75.777 204.095 C 75.350 203.880,74.184 203.503,73.187 203.258 C 72.189 203.013,71.198 202.662,70.984 202.478 C 70.771 202.294,70.038 201.935,69.357 201.681 C 68.675 201.427,68.058 201.122,67.986 201.005 C 67.913 200.887,67.421 200.588,66.893 200.339 C 64.916 199.409,57.254 192.551,57.254 191.712 C 57.254 191.588,57.104 191.334,56.921 191.145 C 56.395 190.605,54.963 188.404,54.368 187.220 C 54.070 186.626,53.676 185.965,53.492 185.751 C 53.309 185.538,52.982 184.780,52.766 184.067 C 52.549 183.355,52.137 182.324,51.849 181.776 C 51.562 181.229,51.254 180.121,51.166 179.315 C 51.078 178.509,50.809 177.325,50.568 176.684 C 50.014 175.209,49.877 78.885,50.428 78.213 C 50.592 78.013,50.866 76.917,51.036 75.777 C 51.207 74.637,51.626 73.111,51.969 72.384 C 52.311 71.658,52.591 70.901,52.591 70.702 C 52.591 70.202,54.924 65.544,55.174 65.544 C 55.286 65.544,55.517 65.207,55.688 64.794 C 55.859 64.382,56.198 63.828,56.440 63.563 C 56.683 63.299,57.132 62.675,57.438 62.176 C 58.168 60.986,62.572 56.614,63.731 55.931 C 64.229 55.636,64.754 55.260,64.896 55.094 C 65.696 54.163,70.105 51.742,72.130 51.121 C 72.831 50.907,73.820 50.508,74.328 50.236 C 74.836 49.964,75.661 49.736,76.162 49.730 C 76.663 49.724,77.714 49.559,78.497 49.363 C 80.741 48.803,86.104 48.872,90.026 49.511 M205.181 49.469 C 206.820 49.741,208.834 50.263,209.658 50.630 C 210.481 50.996,211.310 51.295,211.499 51.295 C 211.930 51.295,215.279 52.981,215.803 53.462 C 216.017 53.658,216.600 54.024,217.098 54.275 C 219.849 55.659,227.979 64.182,227.979 65.682 C 227.979 65.793,228.265 66.258,228.613 66.715 C 228.962 67.172,229.325 67.882,229.421 68.294 C 229.517 68.705,229.859 69.508,230.181 70.078 C 230.503 70.648,230.848 71.522,230.948 72.021 C 231.048 72.519,231.413 73.744,231.758 74.741 C 232.846 77.884,232.888 79.791,232.895 126.943 C 232.902 174.803,232.861 176.602,231.726 179.448 C 231.375 180.328,231.088 181.297,231.088 181.602 C 231.088 182.089,229.647 185.466,228.985 186.528 C 228.852 186.742,228.497 187.442,228.195 188.083 C 227.894 188.724,227.557 189.284,227.447 189.328 C 227.337 189.371,226.805 190.100,226.265 190.947 C 225.725 191.794,225.191 192.487,225.077 192.487 C 224.963 192.487,224.870 192.620,224.870 192.783 C 224.870 193.602,218.381 199.189,215.999 200.421 C 215.549 200.654,215.021 201.004,214.826 201.199 C 214.631 201.395,214.308 201.554,214.109 201.554 C 213.621 201.554,211.917 202.380,211.917 202.617 C 211.917 202.721,211.316 202.936,210.581 203.093 C 209.845 203.251,208.709 203.621,208.055 203.916 C 203.296 206.059,191.187 205.127,185.716 202.198 C 185.056 201.844,184.341 201.554,184.129 201.554 C 183.916 201.554,183.590 201.370,183.403 201.146 C 183.216 200.921,182.532 200.450,181.882 200.099 C 180.465 199.335,179.076 198.386,178.368 197.697 C 178.083 197.419,177.311 196.746,176.652 196.200 C 174.706 194.587,170.469 189.280,170.467 188.452 C 170.467 188.299,170.181 187.905,169.832 187.577 C 169.483 187.250,169.130 186.676,169.048 186.302 C 168.966 185.928,168.552 184.935,168.128 184.096 C 167.704 183.256,167.358 182.356,167.358 182.095 C 167.358 181.834,167.075 180.982,166.730 180.201 C 166.304 179.240,166.010 177.880,165.816 175.984 C 165.659 174.445,165.420 172.720,165.285 172.150 C 164.944 170.718,164.953 83.638,165.293 82.254 C 165.434 81.684,165.670 79.889,165.819 78.265 C 165.997 76.333,166.260 74.981,166.582 74.350 C 166.852 73.819,167.210 72.816,167.376 72.120 C 167.542 71.424,168.014 70.166,168.425 69.324 C 168.835 68.482,169.171 67.657,169.171 67.491 C 169.171 67.325,169.453 66.924,169.797 66.601 C 170.141 66.278,170.498 65.711,170.591 65.341 C 170.684 64.971,171.048 64.312,171.400 63.876 C 174.944 59.482,175.889 58.453,177.836 56.865 C 178.360 56.438,179.219 55.725,179.744 55.280 C 180.270 54.836,180.933 54.400,181.218 54.311 C 181.503 54.221,182.074 53.856,182.488 53.499 C 182.902 53.142,183.429 52.850,183.659 52.850 C 183.889 52.850,184.497 52.564,185.010 52.215 C 185.524 51.866,186.279 51.500,186.689 51.401 C 187.100 51.302,187.978 50.950,188.641 50.619 C 189.366 50.257,190.964 49.851,192.655 49.600 C 194.199 49.370,195.512 49.133,195.573 49.073 C 195.891 48.755,202.530 49.029,205.181 49.469 M320.855 49.480 C 324.337 50.166,330.079 52.408,331.477 53.626 C 331.762 53.875,332.302 54.239,332.677 54.435 C 334.859 55.578,339.438 59.876,341.031 62.276 C 341.529 63.026,342.119 63.792,342.341 63.976 C 342.564 64.161,342.746 64.452,342.746 64.623 C 342.746 64.794,343.093 65.392,343.516 65.951 C 343.940 66.511,344.289 67.150,344.293 67.372 C 344.297 67.594,344.583 68.158,344.928 68.625 C 345.273 69.093,345.696 70.077,345.868 70.813 C 346.041 71.548,346.270 72.267,346.378 72.409 C 346.915 73.119,347.909 77.671,348.443 81.865 C 348.857 85.108,348.647 171.877,348.221 173.834 C 348.051 174.618,347.754 176.327,347.561 177.631 C 347.358 179.004,346.925 180.607,346.533 181.437 C 346.160 182.225,345.854 183.081,345.852 183.339 C 345.850 183.597,345.568 184.299,345.225 184.900 C 344.881 185.500,344.520 186.258,344.421 186.584 C 344.321 186.909,343.985 187.526,343.674 187.953 C 343.362 188.381,342.854 189.170,342.544 189.706 C 342.235 190.243,341.833 190.865,341.651 191.089 C 338.405 195.091,334.211 198.940,331.718 200.205 C 331.139 200.499,330.513 200.923,330.327 201.147 C 330.141 201.371,329.799 201.556,329.567 201.558 C 329.335 201.559,328.651 201.843,328.046 202.189 C 327.442 202.534,326.047 203.064,324.947 203.366 C 323.846 203.668,322.805 204.032,322.632 204.175 C 322.298 204.453,319.376 204.850,315.861 205.097 C 313.387 205.270,308.381 204.787,306.865 204.228 C 306.295 204.018,305.035 203.626,304.064 203.356 C 302.115 202.815,299.274 201.514,298.033 200.594 C 297.592 200.267,297.101 200.000,296.942 200.000 C 296.782 200.000,296.444 199.789,296.189 199.532 C 295.934 199.275,294.851 198.406,293.782 197.601 C 291.660 196.003,289.442 193.791,288.137 191.969 C 287.678 191.328,286.910 190.268,286.431 189.615 C 285.952 188.961,285.423 188.009,285.254 187.498 C 285.085 186.988,284.785 186.435,284.585 186.269 C 284.386 186.104,284.085 185.541,283.916 185.018 C 283.747 184.495,283.333 183.544,282.996 182.904 C 282.659 182.264,282.383 181.496,282.383 181.198 C 282.383 180.900,282.034 179.568,281.606 178.238 L 280.829 175.820 280.829 127.160 C 280.829 79.924,280.844 78.456,281.325 77.009 C 281.597 76.189,281.963 74.877,282.137 74.093 C 282.484 72.530,284.064 68.492,284.570 67.876 C 284.745 67.662,285.046 67.079,285.239 66.580 C 285.432 66.082,285.917 65.268,286.318 64.773 C 286.719 64.277,287.047 63.768,287.047 63.642 C 287.047 63.229,288.426 61.645,291.226 58.844 C 293.746 56.322,294.577 55.646,297.480 53.754 C 298.914 52.819,301.919 51.297,302.348 51.287 C 302.553 51.283,303.303 50.989,304.016 50.634 C 304.728 50.278,306.185 49.870,307.254 49.725 C 308.323 49.581,309.605 49.355,310.104 49.223 C 311.297 48.909,318.873 49.090,320.855 49.480 " stroke="none" fill="#ec2028" fill-rule="evenodd"></path><path id="path1" d="M0.000 129.534 L 0.000 259.067 200.000 259.067 L 400.000 259.067 400.000 129.534 L 400.000 0.000 200.000 0.000 L 0.000 0.000 0.000 129.534 M91.839 38.657 C 93.407 38.871,95.272 39.293,95.984 39.595 C 96.697 39.896,97.851 40.267,98.549 40.418 C 99.247 40.569,100.122 40.910,100.494 41.175 C 100.866 41.440,101.650 41.785,102.235 41.943 C 102.821 42.101,103.587 42.455,103.937 42.731 C 104.288 43.007,104.876 43.308,105.245 43.400 C 105.614 43.493,106.297 43.908,106.761 44.323 C 107.226 44.738,107.742 45.078,107.908 45.078 C 108.074 45.078,108.432 45.323,108.703 45.622 C 108.974 45.922,109.546 46.346,109.973 46.565 C 111.064 47.124,112.041 47.951,114.947 50.777 C 117.430 53.192,117.911 53.743,119.355 55.829 C 119.750 56.399,120.140 56.924,120.222 56.995 C 120.794 57.492,122.745 60.849,123.836 63.212 C 124.131 63.854,124.660 64.973,125.010 65.699 C 125.361 66.426,125.650 67.242,125.653 67.513 C 125.656 67.784,125.903 68.530,126.202 69.171 C 127.047 70.986,128.240 76.973,128.522 80.817 C 128.996 87.279,128.702 175.798,128.201 177.202 C 127.731 178.521,127.312 180.373,127.072 182.195 C 126.983 182.875,126.626 184.073,126.279 184.857 C 125.932 185.642,125.648 186.431,125.648 186.611 C 125.648 186.790,125.418 187.388,125.137 187.939 C 124.856 188.489,124.441 189.498,124.214 190.181 C 123.988 190.863,123.598 191.690,123.348 192.019 C 123.099 192.348,122.691 193.025,122.443 193.523 C 121.922 194.569,121.415 195.315,118.925 198.705 C 117.086 201.208,114.899 203.531,112.565 205.459 C 111.852 206.047,111.036 206.723,110.751 206.961 C 110.466 207.199,109.796 207.663,109.262 207.992 C 108.727 208.322,108.290 208.691,108.290 208.812 C 108.290 208.933,108.028 209.113,107.707 209.212 C 107.387 209.311,106.625 209.725,106.014 210.134 C 105.404 210.542,104.588 210.953,104.201 211.049 C 103.814 211.144,103.137 211.495,102.696 211.829 C 102.255 212.162,101.757 212.435,101.589 212.435 C 101.421 212.435,100.441 212.772,99.411 213.183 C 92.823 215.812,78.680 216.862,74.156 215.057 C 73.407 214.758,72.006 214.350,71.042 214.149 C 70.078 213.948,68.884 213.550,68.388 213.264 C 67.893 212.978,67.092 212.662,66.609 212.561 C 66.126 212.461,65.200 212.041,64.551 211.630 C 63.901 211.218,63.268 210.881,63.144 210.881 C 63.019 210.881,62.428 210.560,61.830 210.168 C 60.727 209.446,60.332 209.191,58.938 208.309 C 58.510 208.038,57.711 207.486,57.162 207.082 C 55.740 206.035,50.065 200.343,48.834 198.728 C 48.264 197.980,47.536 197.080,47.215 196.728 C 46.894 196.376,46.632 195.959,46.632 195.801 C 46.632 195.644,46.363 195.154,46.034 194.714 C 45.479 193.971,44.942 193.015,43.981 191.062 C 42.282 187.608,41.955 186.854,41.959 186.399 C 41.962 186.114,41.671 185.251,41.312 184.481 C 40.954 183.711,40.550 182.305,40.416 181.357 C 40.281 180.409,39.936 178.649,39.647 177.446 C 39.131 175.291,39.123 174.552,39.121 127.302 L 39.119 79.344 39.767 76.475 C 40.123 74.897,40.415 73.297,40.415 72.918 C 40.415 72.120,41.991 67.308,42.872 65.415 C 43.204 64.702,43.660 63.711,43.886 63.212 C 44.113 62.714,44.641 61.723,45.061 61.010 C 45.481 60.298,46.063 59.286,46.355 58.761 C 46.646 58.236,47.174 57.494,47.527 57.113 C 47.881 56.731,48.240 56.199,48.325 55.930 C 48.411 55.661,48.574 55.440,48.688 55.440 C 48.802 55.440,49.184 55.003,49.538 54.469 C 50.862 52.470,52.401 50.925,56.557 47.423 C 57.243 46.846,57.971 46.373,58.176 46.373 C 58.381 46.373,58.549 46.277,58.549 46.160 C 58.549 45.891,61.926 43.638,62.694 43.394 C 63.009 43.294,63.678 42.933,64.182 42.591 C 64.686 42.249,65.228 41.969,65.386 41.969 C 65.544 41.969,66.315 41.624,67.098 41.202 C 67.882 40.780,68.728 40.430,68.977 40.425 C 69.227 40.419,70.407 40.076,71.599 39.663 C 72.951 39.195,74.633 38.841,76.067 38.722 C 77.333 38.618,78.601 38.435,78.886 38.316 C 79.682 37.984,88.638 38.219,91.839 38.657 M207.257 38.658 C 208.755 38.869,210.538 39.287,211.219 39.588 C 211.900 39.890,212.890 40.215,213.418 40.312 C 213.946 40.408,215.089 40.821,215.958 41.228 C 216.826 41.636,217.625 41.969,217.731 41.969 C 217.838 41.969,218.259 42.206,218.666 42.497 C 219.074 42.787,219.791 43.155,220.261 43.315 C 220.730 43.475,221.497 43.937,221.965 44.342 C 222.433 44.746,222.966 45.078,223.149 45.078 C 223.332 45.078,223.874 45.427,224.352 45.855 C 224.831 46.282,225.314 46.632,225.426 46.632 C 225.538 46.632,225.978 46.953,226.405 47.345 C 226.831 47.736,227.609 48.407,228.134 48.834 C 231.044 51.204,237.047 58.250,237.047 59.296 C 237.047 59.394,237.455 60.107,237.953 60.881 C 238.452 61.655,238.860 62.474,238.860 62.700 C 238.860 62.926,239.142 63.494,239.487 63.962 C 239.832 64.430,240.259 65.414,240.435 66.150 C 240.611 66.885,240.976 67.786,241.245 68.151 C 241.515 68.516,241.847 69.603,241.983 70.568 C 242.120 71.532,242.340 72.524,242.473 72.771 C 243.649 74.970,243.613 73.457,243.715 123.964 C 243.816 173.699,243.748 177.595,242.734 180.606 C 242.443 181.471,242.092 182.768,241.956 183.489 C 241.819 184.210,241.416 185.415,241.061 186.167 C 240.705 186.918,240.415 187.734,240.415 187.981 C 240.415 188.228,240.065 189.049,239.637 189.807 C 239.210 190.564,238.857 191.331,238.853 191.512 C 238.849 191.692,238.499 192.297,238.076 192.857 C 237.652 193.417,237.306 194.025,237.306 194.208 C 237.306 194.392,236.956 194.940,236.528 195.427 C 236.101 195.914,235.751 196.431,235.751 196.577 C 235.751 196.723,235.343 197.331,234.845 197.927 C 234.346 198.524,233.938 199.098,233.938 199.202 C 233.938 199.491,227.625 205.808,226.643 206.499 C 226.167 206.835,225.661 207.199,225.518 207.308 C 224.123 208.374,222.765 209.326,222.639 209.326 C 222.554 209.326,221.983 209.665,221.370 210.078 C 220.757 210.492,219.983 210.916,219.649 211.021 C 219.315 211.126,218.764 211.428,218.425 211.693 C 218.086 211.958,217.328 212.297,216.741 212.447 C 216.154 212.596,215.149 212.995,214.508 213.332 C 213.867 213.669,212.701 214.064,211.917 214.210 C 211.133 214.356,210.003 214.650,209.404 214.864 C 205.900 216.116,192.586 216.178,189.249 214.958 C 188.251 214.593,186.911 214.212,186.269 214.111 C 185.628 214.010,184.648 213.697,184.091 213.414 C 183.535 213.132,182.528 212.738,181.856 212.538 C 181.183 212.338,180.493 212.006,180.322 211.801 C 180.151 211.595,179.447 211.240,178.756 211.010 C 178.066 210.781,177.376 210.443,177.224 210.259 C 177.071 210.075,176.479 209.714,175.908 209.457 C 175.337 209.199,174.870 208.902,174.870 208.795 C 174.870 208.689,174.419 208.366,173.867 208.079 C 173.316 207.791,172.577 207.284,172.226 206.952 C 171.875 206.619,171.142 205.997,170.597 205.570 C 168.500 203.925,162.953 197.816,162.953 197.151 C 162.953 197.048,162.546 196.452,162.049 195.827 C 161.552 195.201,161.144 194.580,161.142 194.447 C 161.141 194.313,160.924 193.964,160.661 193.670 C 160.398 193.375,159.980 192.610,159.733 191.969 C 159.485 191.328,159.130 190.628,158.943 190.415 C 158.756 190.201,158.416 189.468,158.188 188.786 C 157.959 188.104,157.602 187.287,157.394 186.969 C 157.186 186.652,156.827 185.578,156.597 184.582 C 156.366 183.587,155.946 182.084,155.663 181.242 C 154.631 178.171,154.576 175.528,154.563 127.461 C 154.549 77.816,154.621 74.706,155.850 72.258 C 156.035 71.890,156.371 70.791,156.597 69.817 C 156.823 68.842,157.222 67.686,157.482 67.248 C 157.743 66.809,158.104 65.899,158.285 65.225 C 158.466 64.551,158.768 63.872,158.956 63.716 C 159.144 63.559,159.484 62.871,159.712 62.187 C 159.939 61.502,160.353 60.735,160.632 60.483 C 160.912 60.230,161.140 59.922,161.140 59.798 C 161.140 59.451,163.212 56.397,164.842 54.341 C 165.904 53.003,170.650 48.367,171.308 48.025 C 171.700 47.821,172.021 47.549,172.021 47.420 C 172.021 47.111,173.943 45.733,175.275 45.088 C 175.854 44.808,176.542 44.341,176.805 44.051 C 177.068 43.761,177.410 43.523,177.566 43.522 C 177.722 43.522,178.374 43.172,179.016 42.746 C 179.657 42.320,180.369 41.971,180.598 41.970 C 180.828 41.969,181.644 41.637,182.412 41.231 C 183.180 40.825,184.248 40.423,184.786 40.339 C 185.324 40.255,186.490 39.897,187.377 39.544 C 188.366 39.150,189.841 38.830,191.192 38.715 C 192.403 38.613,193.627 38.434,193.912 38.317 C 194.716 37.988,204.216 38.231,207.257 38.658 M321.891 38.561 C 324.286 38.836,326.710 39.438,327.332 39.912 C 327.474 40.020,328.056 40.196,328.625 40.302 C 329.193 40.409,330.359 40.827,331.215 41.232 C 332.072 41.637,332.901 41.969,333.060 41.969 C 333.218 41.969,333.760 42.249,334.264 42.591 C 334.767 42.933,335.446 43.297,335.771 43.400 C 336.097 43.503,336.826 43.923,337.391 44.333 C 337.957 44.743,338.569 45.078,338.751 45.078 C 338.933 45.078,339.311 45.369,339.591 45.725 C 339.871 46.082,340.213 46.373,340.351 46.373 C 341.046 46.373,347.829 52.687,348.861 54.295 C 349.398 55.131,350.784 56.998,351.278 57.549 C 351.982 58.336,355.440 64.947,355.440 65.507 C 355.440 65.650,355.602 65.928,355.800 66.126 C 355.998 66.324,356.413 67.407,356.722 68.532 C 357.030 69.657,357.389 70.706,357.519 70.862 C 357.818 71.223,358.808 77.341,358.808 78.830 C 358.808 79.445,358.954 80.094,359.132 80.272 C 359.573 80.713,359.743 169.896,359.309 172.668 C 358.909 175.215,358.652 176.926,358.207 179.996 C 357.994 181.461,357.701 182.805,357.555 182.981 C 357.408 183.157,357.053 184.150,356.766 185.186 C 356.479 186.223,355.934 187.736,355.555 188.548 C 354.304 191.231,353.149 193.501,352.731 194.100 C 352.504 194.424,351.831 195.447,351.235 196.373 C 349.134 199.636,345.523 203.567,342.036 206.385 C 339.222 208.660,338.698 209.047,338.174 209.239 C 337.910 209.335,337.228 209.727,336.658 210.110 C 336.088 210.493,335.194 210.945,334.671 211.116 C 334.148 211.286,333.580 211.594,333.409 211.800 C 333.238 212.006,332.559 212.336,331.899 212.532 C 331.239 212.729,330.291 213.128,329.793 213.419 C 329.294 213.709,328.187 214.064,327.332 214.207 C 326.477 214.350,325.078 214.731,324.223 215.054 C 321.643 216.029,307.848 215.969,304.663 214.969 C 303.452 214.588,301.995 214.199,301.425 214.104 C 300.855 214.009,299.896 213.663,299.294 213.335 C 298.693 213.007,297.821 212.655,297.358 212.554 C 296.895 212.452,296.105 212.109,295.603 211.792 C 295.100 211.475,294.416 211.129,294.082 211.023 C 293.748 210.917,292.973 210.492,292.360 210.078 C 291.748 209.665,291.177 209.326,291.092 209.326 C 290.953 209.326,290.360 208.906,287.700 206.922 C 285.055 204.950,281.627 201.584,279.840 199.202 C 277.698 196.350,276.689 194.920,276.388 194.311 C 276.209 193.949,275.811 193.303,275.503 192.876 C 274.922 192.068,273.887 189.762,273.003 187.306 C 272.721 186.522,272.275 185.407,272.012 184.827 C 271.749 184.248,271.458 183.141,271.367 182.366 C 271.276 181.592,271.030 180.506,270.822 179.953 C 269.705 176.988,269.692 176.388,269.691 127.286 C 269.689 79.375,269.708 78.412,270.720 74.870 C 270.985 73.944,271.281 72.545,271.379 71.762 C 271.477 70.978,271.769 69.987,272.028 69.560 C 272.288 69.132,272.636 68.199,272.802 67.487 C 272.968 66.775,273.371 65.667,273.699 65.026 C 274.026 64.385,274.377 63.587,274.478 63.253 C 274.579 62.919,275.000 62.144,275.414 61.531 C 275.827 60.919,276.166 60.304,276.166 60.166 C 276.166 60.029,276.486 59.494,276.878 58.978 C 277.270 58.462,278.057 57.313,278.627 56.425 C 279.915 54.418,286.410 47.860,288.212 46.746 C 288.640 46.482,289.373 45.941,289.841 45.542 C 290.309 45.144,290.862 44.819,291.071 44.819 C 291.280 44.819,291.451 44.711,291.451 44.578 C 291.451 44.446,292.085 44.038,292.861 43.671 C 293.636 43.304,294.337 42.897,294.418 42.766 C 294.499 42.635,295.117 42.331,295.793 42.090 C 296.468 41.849,297.545 41.387,298.187 41.064 C 298.828 40.741,299.785 40.400,300.313 40.307 C 300.841 40.213,301.826 39.891,302.502 39.592 C 303.248 39.262,304.954 38.907,306.839 38.688 C 308.548 38.489,310.006 38.267,310.079 38.194 C 310.303 37.970,319.139 38.245,321.891 38.561 M78.497 49.363 C 77.714 49.559,76.663 49.724,76.162 49.730 C 75.661 49.736,74.836 49.964,74.328 50.236 C 73.820 50.508,72.831 50.907,72.130 51.121 C 70.105 51.742,65.696 54.163,64.896 55.094 C 64.754 55.260,64.229 55.636,63.731 55.931 C 62.572 56.614,58.168 60.986,57.438 62.176 C 57.132 62.675,56.683 63.299,56.440 63.563 C 56.198 63.828,55.859 64.382,55.688 64.794 C 55.517 65.207,55.286 65.544,55.174 65.544 C 54.924 65.544,52.591 70.202,52.591 70.702 C 52.591 70.901,52.311 71.658,51.969 72.384 C 51.626 73.111,51.207 74.637,51.036 75.777 C 50.866 76.917,50.592 78.013,50.428 78.213 C 49.877 78.885,50.014 175.209,50.568 176.684 C 50.809 177.325,51.078 178.509,51.166 179.315 C 51.254 180.121,51.562 181.229,51.849 181.776 C 52.137 182.324,52.549 183.355,52.766 184.067 C 52.982 184.780,53.309 185.538,53.492 185.751 C 53.676 185.965,54.070 186.626,54.368 187.220 C 54.963 188.404,56.395 190.605,56.921 191.145 C 57.104 191.334,57.254 191.588,57.254 191.712 C 57.254 192.551,64.916 199.409,66.893 200.339 C 67.421 200.588,67.913 200.887,67.986 201.005 C 68.058 201.122,68.675 201.427,69.357 201.681 C 70.038 201.935,70.771 202.294,70.984 202.478 C 71.198 202.662,72.189 203.013,73.187 203.258 C 74.184 203.503,75.350 203.880,75.777 204.095 C 78.219 205.325,90.304 205.299,92.280 204.059 C 92.607 203.854,93.517 203.541,94.301 203.365 C 95.084 203.189,96.075 202.842,96.503 202.593 C 96.930 202.344,97.834 201.934,98.510 201.683 C 99.187 201.431,99.741 201.145,99.741 201.047 C 99.741 200.949,100.295 200.595,100.972 200.261 C 101.648 199.927,102.260 199.570,102.332 199.468 C 102.403 199.366,103.288 198.657,104.298 197.893 C 106.780 196.014,107.715 195.158,108.938 193.650 C 111.253 190.793,112.793 188.462,113.344 186.982 C 113.595 186.305,113.887 185.751,113.993 185.751 C 114.099 185.751,114.452 185.023,114.777 184.132 C 115.103 183.242,115.486 182.362,115.628 182.177 C 115.771 181.992,116.151 180.709,116.472 179.327 C 116.794 177.945,117.213 176.289,117.402 175.648 C 117.877 174.038,117.915 80.236,117.441 78.627 C 117.273 78.057,116.839 76.324,116.476 74.776 C 116.113 73.227,115.695 71.814,115.547 71.635 C 115.398 71.457,115.092 70.683,114.867 69.917 C 114.642 69.150,114.305 68.348,114.118 68.135 C 113.932 67.921,113.506 67.216,113.172 66.568 C 112.238 64.757,111.595 63.732,110.816 62.816 C 110.424 62.355,110.104 61.867,110.104 61.731 C 110.104 61.596,109.783 61.185,109.391 60.818 C 108.999 60.451,108.130 59.587,107.460 58.897 C 104.818 56.177,102.270 54.282,99.482 52.961 C 98.698 52.590,97.882 52.137,97.668 51.954 C 97.455 51.771,96.639 51.413,95.855 51.159 C 95.071 50.905,94.197 50.554,93.912 50.379 C 92.100 49.264,81.654 48.576,78.497 49.363 M195.573 49.073 C 195.512 49.133,194.199 49.370,192.655 49.600 C 190.964 49.851,189.366 50.257,188.641 50.619 C 187.978 50.950,187.100 51.302,186.689 51.401 C 186.279 51.500,185.524 51.866,185.010 52.215 C 184.497 52.564,183.889 52.850,183.659 52.850 C 183.429 52.850,182.902 53.142,182.488 53.499 C 182.074 53.856,181.503 54.221,181.218 54.311 C 180.933 54.400,180.270 54.836,179.744 55.280 C 179.219 55.725,178.360 56.438,177.836 56.865 C 175.889 58.453,174.944 59.482,171.400 63.876 C 171.048 64.312,170.684 64.971,170.591 65.341 C 170.498 65.711,170.141 66.278,169.797 66.601 C 169.453 66.924,169.171 67.325,169.171 67.491 C 169.171 67.657,168.835 68.482,168.425 69.324 C 168.014 70.166,167.542 71.424,167.376 72.120 C 167.210 72.816,166.852 73.819,166.582 74.350 C 166.260 74.981,165.997 76.333,165.819 78.265 C 165.670 79.889,165.434 81.684,165.293 82.254 C 164.953 83.638,164.944 170.718,165.285 172.150 C 165.420 172.720,165.659 174.445,165.816 175.984 C 166.010 177.880,166.304 179.240,166.730 180.201 C 167.075 180.982,167.358 181.834,167.358 182.095 C 167.358 182.356,167.704 183.256,168.128 184.096 C 168.552 184.935,168.966 185.928,169.048 186.302 C 169.130 186.676,169.483 187.250,169.832 187.577 C 170.181 187.905,170.467 188.299,170.467 188.452 C 170.469 189.280,174.706 194.587,176.652 196.200 C 177.311 196.746,178.083 197.419,178.368 197.697 C 179.076 198.386,180.465 199.335,181.882 200.099 C 182.532 200.450,183.216 200.921,183.403 201.146 C 183.590 201.370,183.916 201.554,184.129 201.554 C 184.341 201.554,185.056 201.844,185.716 202.198 C 191.187 205.127,203.296 206.059,208.055 203.916 C 208.709 203.621,209.845 203.251,210.581 203.093 C 211.316 202.936,211.917 202.721,211.917 202.617 C 211.917 202.380,213.621 201.554,214.109 201.554 C 214.308 201.554,214.631 201.395,214.826 201.199 C 215.021 201.004,215.549 200.654,215.999 200.421 C 218.381 199.189,224.870 193.602,224.870 192.783 C 224.870 192.620,224.963 192.487,225.077 192.487 C 225.191 192.487,225.725 191.794,226.265 190.947 C 226.805 190.100,227.337 189.371,227.447 189.328 C 227.557 189.284,227.894 188.724,228.195 188.083 C 228.497 187.442,228.852 186.742,228.985 186.528 C 229.647 185.466,231.088 182.089,231.088 181.602 C 231.088 181.297,231.375 180.328,231.726 179.448 C 232.861 176.602,232.902 174.803,232.895 126.943 C 232.888 79.791,232.846 77.884,231.758 74.741 C 231.413 73.744,231.048 72.519,230.948 72.021 C 230.848 71.522,230.503 70.648,230.181 70.078 C 229.859 69.508,229.517 68.705,229.421 68.294 C 229.325 67.882,228.962 67.172,228.613 66.715 C 228.265 66.258,227.979 65.793,227.979 65.682 C 227.979 64.182,219.849 55.659,217.098 54.275 C 216.600 54.024,216.017 53.658,215.803 53.462 C 215.279 52.981,211.930 51.295,211.499 51.295 C 211.310 51.295,210.481 50.996,209.658 50.630 C 207.098 49.491,196.343 48.303,195.573 49.073 M310.104 49.223 C 309.605 49.355,308.323 49.581,307.254 49.725 C 306.185 49.870,304.728 50.278,304.016 50.634 C 303.303 50.989,302.553 51.283,302.348 51.287 C 301.919 51.297,298.914 52.819,297.480 53.754 C 294.577 55.646,293.746 56.322,291.226 58.844 C 288.426 61.645,287.047 63.229,287.047 63.642 C 287.047 63.768,286.719 64.277,286.318 64.773 C 285.917 65.268,285.432 66.082,285.239 66.580 C 285.046 67.079,284.745 67.662,284.570 67.876 C 284.064 68.492,282.484 72.530,282.137 74.093 C 281.963 74.877,281.597 76.189,281.325 77.009 C 280.844 78.456,280.829 79.924,280.829 127.160 L 280.829 175.820 281.606 178.238 C 282.034 179.568,282.383 180.900,282.383 181.198 C 282.383 181.496,282.659 182.264,282.996 182.904 C 283.333 183.544,283.747 184.495,283.916 185.018 C 284.085 185.541,284.386 186.104,284.585 186.269 C 284.785 186.435,285.085 186.988,285.254 187.498 C 285.423 188.009,285.952 188.961,286.431 189.615 C 286.910 190.268,287.678 191.328,288.137 191.969 C 289.442 193.791,291.660 196.003,293.782 197.601 C 294.851 198.406,295.934 199.275,296.189 199.532 C 296.444 199.789,296.782 200.000,296.942 200.000 C 297.101 200.000,297.592 200.267,298.033 200.594 C 299.274 201.514,302.115 202.815,304.064 203.356 C 305.035 203.626,306.295 204.018,306.865 204.228 C 308.381 204.787,313.387 205.270,315.861 205.097 C 319.376 204.850,322.298 204.453,322.632 204.175 C 322.805 204.032,323.846 203.668,324.947 203.366 C 326.047 203.064,327.442 202.534,328.046 202.189 C 328.651 201.843,329.335 201.559,329.567 201.558 C 329.799 201.556,330.141 201.371,330.327 201.147 C 330.513 200.923,331.139 200.499,331.718 200.205 C 332.717 199.698,333.090 199.435,335.217 197.733 C 336.287 196.877,339.461 193.713,340.544 192.422 C 341.858 190.856,341.964 190.712,342.544 189.706 C 342.854 189.170,343.362 188.381,343.674 187.953 C 343.985 187.526,344.321 186.909,344.421 186.584 C 344.520 186.258,344.881 185.500,345.225 184.900 C 345.568 184.299,345.850 183.597,345.852 183.339 C 345.854 183.081,346.160 182.225,346.533 181.437 C 346.925 180.607,347.358 179.004,347.561 177.631 C 347.754 176.327,348.051 174.618,348.221 173.834 C 348.647 171.877,348.857 85.108,348.443 81.865 C 347.909 77.671,346.915 73.119,346.378 72.409 C 346.270 72.267,346.041 71.548,345.868 70.813 C 345.696 70.077,345.273 69.093,344.928 68.625 C 344.583 68.158,344.297 67.594,344.293 67.372 C 344.289 67.150,343.940 66.511,343.516 65.951 C 343.093 65.392,342.746 64.794,342.746 64.623 C 342.746 64.452,342.564 64.161,342.341 63.976 C 342.119 63.792,341.529 63.026,341.031 62.276 C 339.438 59.876,334.859 55.578,332.677 54.435 C 332.302 54.239,331.762 53.875,331.477 53.626 C 330.593 52.856,325.646 50.695,323.187 50.005 C 320.258 49.183,312.103 48.696,310.104 49.223 " stroke="none" fill="#fcfcfc" fill-rule="evenodd"></path></g></svg>