<svg id="svg" version="1.1" xmlns="http://www.w3.org/2000/svg" xmlns:xlink="http://www.w3.org/1999/xlink" width="400" height="258.91472868217056" viewBox="0, 0, 400,258.91472868217056"><g id="svgg"><path id="path0" d="M178.109 45.352 C 177.254 45.464,175.622 45.796,174.482 46.091 C 173.342 46.385,172.176 46.632,171.891 46.639 C 171.606 46.647,170.732 46.998,169.948 47.420 C 169.165 47.841,168.340 48.186,168.116 48.186 C 167.892 48.187,167.251 48.533,166.691 48.957 C 166.132 49.380,165.557 49.732,165.415 49.738 C 165.162 49.749,163.376 51.394,162.279 52.626 C 160.212 54.945,159.427 59.495,160.593 62.387 C 160.863 63.055,161.277 64.146,161.514 64.811 C 161.751 65.477,162.113 66.161,162.319 66.333 C 162.526 66.504,162.694 66.800,162.694 66.992 C 162.694 67.183,163.027 67.722,163.434 68.190 C 163.842 68.659,164.317 69.479,164.491 70.013 C 164.665 70.547,164.912 70.984,165.041 70.984 C 165.169 70.984,165.501 71.429,165.779 71.973 C 166.056 72.517,166.468 73.115,166.694 73.303 C 166.920 73.490,167.317 74.124,167.577 74.710 C 167.838 75.297,168.244 75.937,168.481 76.133 C 168.718 76.328,168.912 76.631,168.912 76.806 C 168.912 76.981,169.258 77.602,169.681 78.186 C 170.104 78.769,170.522 79.536,170.611 79.889 C 170.699 80.243,170.996 80.734,171.269 80.982 C 171.543 81.230,171.940 82.014,172.151 82.725 C 172.362 83.436,172.756 84.393,173.027 84.852 C 173.298 85.312,173.605 86.081,173.709 86.561 C 173.812 87.042,174.107 87.850,174.363 88.356 C 174.620 88.862,174.969 90.028,175.139 90.947 C 175.310 91.865,175.698 93.316,176.002 94.171 C 176.855 96.570,176.823 109.963,175.959 112.281 C 175.645 113.123,175.386 114.114,175.382 114.484 C 175.378 114.853,175.081 115.972,174.720 116.969 C 174.360 117.966,173.914 119.365,173.729 120.078 C 173.544 120.790,173.157 121.839,172.868 122.409 C 172.579 122.979,172.259 123.834,172.156 124.310 C 172.054 124.785,171.632 125.817,171.218 126.603 C 170.805 127.389,170.466 128.226,170.466 128.464 C 170.466 128.701,170.191 129.301,169.853 129.797 C 169.516 130.294,169.152 131.108,169.044 131.606 C 168.936 132.105,168.585 133.038,168.264 133.679 C 167.943 134.320,167.592 135.253,167.485 135.751 C 167.377 136.250,167.024 137.241,166.699 137.953 C 166.374 138.666,166.023 139.715,165.918 140.285 C 165.814 140.855,165.466 141.904,165.146 142.617 C 164.826 143.329,164.479 144.544,164.376 145.316 C 164.273 146.088,163.917 147.516,163.586 148.488 C 163.256 149.461,162.909 151.103,162.816 152.136 C 162.724 153.170,162.425 155.165,162.153 156.569 C 161.512 159.878,161.455 168.572,162.056 171.373 C 162.270 172.370,162.562 174.003,162.705 175.000 C 162.946 176.681,163.569 178.793,164.004 179.404 C 164.106 179.547,164.276 180.071,164.383 180.570 C 164.490 181.069,164.853 181.883,165.190 182.379 C 165.527 182.875,165.803 183.435,165.803 183.624 C 165.803 184.005,167.649 187.217,168.217 187.824 C 168.417 188.038,168.725 188.489,168.902 188.827 C 170.515 191.916,177.980 198.378,182.307 200.431 C 182.776 200.654,183.161 200.924,183.161 201.031 C 183.161 201.137,183.714 201.432,184.391 201.684 C 185.068 201.937,185.806 202.303,186.032 202.498 C 186.258 202.693,187.074 203.038,187.846 203.265 C 188.617 203.492,189.424 203.833,189.638 204.023 C 189.852 204.213,190.902 204.566,191.970 204.807 C 193.038 205.047,194.217 205.400,194.589 205.590 C 194.962 205.780,196.419 206.121,197.827 206.347 C 199.236 206.573,201.613 206.987,203.109 207.266 C 206.094 207.824,212.097 207.964,214.051 207.522 C 216.659 206.932,219.161 206.454,220.808 206.231 C 221.779 206.100,222.712 205.884,222.880 205.751 C 223.049 205.618,223.944 205.256,224.870 204.948 C 229.612 203.366,234.009 200.077,236.157 196.503 C 237.038 195.037,238.304 190.204,237.955 189.639 C 237.890 189.535,237.667 188.394,237.458 187.102 C 237.203 185.527,236.860 184.409,236.415 183.704 C 236.050 183.126,235.751 182.550,235.751 182.424 C 235.751 182.298,235.417 181.775,235.009 181.261 C 234.601 180.748,234.120 179.974,233.941 179.542 C 233.762 179.110,233.507 178.756,233.374 178.756 C 233.240 178.756,232.902 178.237,232.621 177.601 C 232.340 176.966,231.983 176.368,231.829 176.273 C 231.674 176.177,231.329 175.605,231.062 175.001 C 230.795 174.397,230.406 173.761,230.198 173.589 C 229.990 173.416,229.681 172.847,229.511 172.324 C 229.341 171.801,228.981 171.058,228.711 170.672 C 228.441 170.287,228.088 169.587,227.928 169.118 C 227.767 168.648,227.363 167.858,227.030 167.362 C 226.697 166.866,226.425 166.271,226.425 166.041 C 226.425 165.810,226.129 165.065,225.768 164.385 C 225.406 163.705,224.987 162.551,224.835 161.821 C 224.684 161.090,224.394 160.230,224.192 159.910 C 223.989 159.591,223.649 158.366,223.435 157.190 C 223.221 156.014,222.801 153.779,222.500 152.223 C 221.873 148.973,221.918 144.206,222.600 141.710 C 222.815 140.926,223.130 139.527,223.302 138.601 C 223.473 137.675,223.763 136.684,223.946 136.399 C 224.129 136.114,224.468 135.229,224.699 134.432 C 224.931 133.635,225.344 132.698,225.618 132.350 C 225.892 132.002,226.244 131.241,226.401 130.659 C 226.557 130.077,226.909 129.318,227.182 128.971 C 227.454 128.624,227.761 127.880,227.863 127.318 C 227.966 126.755,228.319 125.829,228.648 125.259 C 228.978 124.689,229.328 123.698,229.425 123.057 C 229.523 122.416,229.867 121.250,230.191 120.466 C 230.515 119.683,230.863 118.459,230.965 117.746 C 231.067 117.034,231.428 115.397,231.766 114.108 C 232.798 110.182,233.707 97.726,233.193 94.560 C 233.043 93.633,232.798 91.302,232.649 89.378 C 232.498 87.426,232.145 85.079,231.850 84.067 C 231.558 83.070,231.205 81.571,231.064 80.735 C 230.924 79.900,230.522 78.651,230.171 77.959 C 229.820 77.267,229.534 76.502,229.534 76.259 C 229.534 75.859,228.033 72.464,227.432 71.503 C 227.298 71.289,226.893 70.504,226.531 69.759 C 226.169 69.014,225.763 68.335,225.627 68.252 C 225.492 68.168,225.139 67.625,224.843 67.044 C 224.547 66.464,224.082 65.751,223.810 65.459 C 223.538 65.167,223.316 64.847,223.316 64.747 C 223.316 64.599,220.706 61.711,220.015 61.095 C 219.907 60.998,219.061 60.214,218.135 59.352 C 216.399 57.736,212.057 54.404,211.688 54.404 C 211.573 54.404,211.257 54.156,210.986 53.852 C 210.714 53.549,209.971 53.076,209.333 52.801 C 208.696 52.526,207.997 52.132,207.779 51.926 C 207.287 51.460,203.923 49.741,203.504 49.741 C 203.335 49.741,202.623 49.446,201.922 49.085 C 201.221 48.724,200.006 48.267,199.223 48.071 C 198.439 47.874,197.215 47.479,196.503 47.194 C 195.790 46.908,194.449 46.546,193.523 46.389 C 192.597 46.232,191.315 45.992,190.674 45.856 C 187.159 45.109,181.652 44.888,178.109 45.352 " stroke="none" fill="#05ac55" fill-rule="evenodd"></path><path id="path1" d="M0.000 129.534 L 0.000 259.067 200.000 259.067 L 400.000 259.067 400.000 129.534 L 400.000 0.000 200.000 0.000 L 0.000 0.000 0.000 129.534 M187.435 45.345 C 188.575 45.490,190.032 45.720,190.674 45.856 C 191.315 45.992,192.597 46.232,193.523 46.389 C 194.449 46.546,195.790 46.908,196.503 47.194 C 197.215 47.479,198.439 47.874,199.223 48.071 C 200.006 48.267,201.221 48.724,201.922 49.085 C 202.623 49.446,203.335 49.741,203.504 49.741 C 203.923 49.741,207.287 51.460,207.779 51.926 C 207.997 52.132,208.696 52.526,209.333 52.801 C 209.971 53.076,210.714 53.549,210.986 53.852 C 211.257 54.156,211.573 54.404,211.688 54.404 C 212.057 54.404,216.399 57.736,218.135 59.352 C 219.061 60.214,219.907 60.998,220.015 61.095 C 220.706 61.711,223.316 64.599,223.316 64.747 C 223.316 64.847,223.538 65.167,223.810 65.459 C 224.082 65.751,224.547 66.464,224.843 67.044 C 225.139 67.625,225.492 68.168,225.627 68.252 C 225.763 68.335,226.169 69.014,226.531 69.759 C 226.893 70.504,227.298 71.289,227.432 71.503 C 228.033 72.464,229.534 75.859,229.534 76.259 C 229.534 76.502,229.820 77.267,230.171 77.959 C 230.522 78.651,230.924 79.900,231.064 80.735 C 231.205 81.571,231.558 83.070,231.850 84.067 C 232.145 85.079,232.498 87.426,232.649 89.378 C 232.798 91.302,233.043 93.633,233.193 94.560 C 233.707 97.726,232.798 110.182,231.766 114.108 C 231.428 115.397,231.067 117.034,230.965 117.746 C 230.863 118.459,230.515 119.683,230.191 120.466 C 229.867 121.250,229.523 122.416,229.425 123.057 C 229.328 123.698,228.978 124.689,228.648 125.259 C 228.319 125.829,227.966 126.755,227.863 127.318 C 227.761 127.880,227.454 128.624,227.182 128.971 C 226.909 129.318,226.557 130.077,226.401 130.659 C 226.244 131.241,225.892 132.002,225.618 132.350 C 225.344 132.698,224.931 133.635,224.699 134.432 C 224.468 135.229,224.129 136.114,223.946 136.399 C 223.763 136.684,223.473 137.675,223.302 138.601 C 223.130 139.527,222.815 140.926,222.600 141.710 C 221.918 144.206,221.873 148.973,222.500 152.223 C 222.801 153.779,223.221 156.014,223.435 157.190 C 223.649 158.366,223.989 159.591,224.192 159.910 C 224.394 160.230,224.684 161.090,224.835 161.821 C 224.987 162.551,225.406 163.705,225.768 164.385 C 226.129 165.065,226.425 165.810,226.425 166.041 C 226.425 166.271,226.697 166.866,227.030 167.362 C 227.363 167.858,227.767 168.648,227.928 169.118 C 228.088 169.587,228.441 170.287,228.711 170.672 C 228.981 171.058,229.341 171.801,229.511 172.324 C 229.681 172.847,229.990 173.416,230.198 173.589 C 230.406 173.761,230.795 174.397,231.062 175.001 C 231.329 175.605,231.674 176.177,231.829 176.273 C 231.983 176.368,232.340 176.966,232.621 177.601 C 232.902 178.237,233.240 178.756,233.374 178.756 C 233.507 178.756,233.762 179.110,233.941 179.542 C 234.120 179.974,234.601 180.748,235.009 181.261 C 235.417 181.775,235.751 182.298,235.751 182.424 C 235.751 182.550,236.050 183.126,236.415 183.704 C 236.860 184.409,237.203 185.527,237.458 187.102 C 237.667 188.394,237.890 189.535,237.955 189.639 C 238.304 190.204,237.038 195.037,236.157 196.503 C 234.009 200.077,229.612 203.366,224.870 204.948 C 223.944 205.256,223.049 205.618,222.880 205.751 C 222.712 205.884,221.779 206.100,220.808 206.231 C 219.161 206.454,216.659 206.932,214.051 207.522 C 212.097 207.964,206.094 207.824,203.109 207.266 C 201.613 206.987,199.236 206.573,197.827 206.347 C 196.419 206.121,194.962 205.780,194.589 205.590 C 194.217 205.400,193.038 205.047,191.970 204.807 C 190.902 204.566,189.852 204.213,189.638 204.023 C 189.424 203.833,188.617 203.492,187.846 203.265 C 187.074 203.038,186.258 202.693,186.032 202.498 C 185.806 202.303,185.068 201.937,184.391 201.684 C 183.714 201.432,183.161 201.137,183.161 201.031 C 183.161 200.924,182.776 200.654,182.307 200.431 C 177.980 198.378,170.515 191.916,168.902 188.827 C 168.725 188.489,168.417 188.038,168.217 187.824 C 167.649 187.217,165.803 184.005,165.803 183.624 C 165.803 183.435,165.527 182.875,165.190 182.379 C 164.853 181.883,164.490 181.069,164.383 180.570 C 164.276 180.071,164.106 179.547,164.004 179.404 C 163.569 178.793,162.946 176.681,162.705 175.000 C 162.562 174.003,162.270 172.370,162.056 171.373 C 161.455 168.572,161.512 159.878,162.153 156.569 C 162.425 155.165,162.724 153.170,162.816 152.136 C 162.909 151.103,163.256 149.461,163.586 148.488 C 163.917 147.516,164.273 146.088,164.376 145.316 C 164.479 144.544,164.826 143.329,165.146 142.617 C 165.466 141.904,165.814 140.855,165.918 140.285 C 166.023 139.715,166.374 138.666,166.699 137.953 C 167.024 137.241,167.377 136.250,167.485 135.751 C 167.592 135.253,167.943 134.320,168.264 133.679 C 168.585 133.038,168.936 132.105,169.044 131.606 C 169.152 131.108,169.516 130.294,169.853 129.797 C 170.191 129.301,170.466 128.701,170.466 128.464 C 170.466 128.226,170.805 127.389,171.218 126.603 C 171.632 125.817,172.054 124.785,172.156 124.310 C 172.259 123.834,172.579 122.979,172.868 122.409 C 173.157 121.839,173.544 120.790,173.729 120.078 C 173.914 119.365,174.360 117.966,174.720 116.969 C 175.081 115.972,175.378 114.853,175.382 114.484 C 175.386 114.114,175.645 113.123,175.959 112.281 C 176.823 109.963,176.855 96.570,176.002 94.171 C 175.698 93.316,175.310 91.865,175.139 90.947 C 174.969 90.028,174.620 88.862,174.363 88.356 C 174.107 87.850,173.812 87.042,173.709 86.561 C 173.605 86.081,173.298 85.312,173.027 84.852 C 172.756 84.393,172.362 83.436,172.151 82.725 C 171.940 82.014,171.543 81.230,171.269 80.982 C 170.996 80.734,170.699 80.243,170.611 79.889 C 170.522 79.536,170.104 78.769,169.681 78.186 C 169.258 77.602,168.912 76.981,168.912 76.806 C 168.912 76.631,168.718 76.328,168.481 76.133 C 168.244 75.937,167.838 75.297,167.577 74.710 C 167.317 74.124,166.920 73.490,166.694 73.303 C 166.468 73.115,166.056 72.517,165.779 71.973 C 165.501 71.429,165.169 70.984,165.041 70.984 C 164.912 70.984,164.665 70.547,164.491 70.013 C 164.317 69.479,163.842 68.659,163.434 68.190 C 163.027 67.722,162.694 67.183,162.694 66.992 C 162.694 66.800,162.526 66.504,162.319 66.333 C 162.113 66.161,161.751 65.477,161.514 64.811 C 161.277 64.146,160.863 63.055,160.593 62.387 C 159.427 59.495,160.212 54.945,162.279 52.626 C 163.376 51.394,165.162 49.749,165.415 49.738 C 165.557 49.732,166.132 49.380,166.691 48.957 C 167.251 48.533,167.892 48.187,168.116 48.186 C 168.340 48.186,169.165 47.841,169.948 47.420 C 170.732 46.998,171.606 46.647,171.891 46.639 C 172.176 46.632,173.342 46.385,174.482 46.091 C 178.283 45.109,183.303 44.820,187.435 45.345 " stroke="none" fill="#fcfcfc" fill-rule="evenodd"></path></g></svg>