<svg id="svg" version="1.1" xmlns="http://www.w3.org/2000/svg" xmlns:xlink="http://www.w3.org/1999/xlink" width="400" height="258.91472868217056" viewBox="0, 0, 400,258.91472868217056"><g id="svgg"><path id="path0" d="M178.497 43.146 C 177.999 43.337,177.183 43.501,176.684 43.509 C 175.244 43.533,172.184 44.184,171.490 44.614 C 171.141 44.831,170.272 45.158,169.560 45.340 C 168.847 45.523,168.031 45.870,167.746 46.111 C 167.461 46.351,166.820 46.705,166.321 46.897 C 165.823 47.089,165.136 47.516,164.796 47.846 C 164.456 48.176,164.060 48.446,163.915 48.446 C 163.609 48.446,161.399 50.729,161.399 51.046 C 161.399 51.164,161.172 51.333,160.894 51.421 C 160.616 51.509,160.312 51.837,160.219 52.151 C 160.125 52.464,159.724 53.245,159.329 53.886 C 157.968 56.092,157.748 64.695,159.031 65.529 C 159.354 65.738,160.104 67.266,160.104 67.713 C 160.104 67.923,160.398 68.445,160.758 68.873 C 161.118 69.300,161.537 70.009,161.690 70.447 C 161.843 70.885,162.079 71.244,162.216 71.244 C 162.352 71.244,162.757 71.885,163.116 72.668 C 163.475 73.452,163.879 74.093,164.014 74.093 C 164.149 74.093,164.396 74.414,164.562 74.806 C 164.729 75.198,165.115 75.810,165.422 76.166 C 165.729 76.522,166.138 77.222,166.332 77.720 C 166.525 78.219,166.894 78.779,167.150 78.965 C 167.407 79.152,167.617 79.456,167.617 79.642 C 167.617 79.828,167.925 80.433,168.301 80.987 C 168.678 81.541,169.153 82.483,169.356 83.080 C 169.560 83.677,169.887 84.298,170.082 84.460 C 170.278 84.622,170.634 85.358,170.874 86.095 C 171.114 86.832,171.478 87.628,171.682 87.863 C 171.887 88.098,172.227 89.030,172.438 89.934 C 172.649 90.838,173.005 91.857,173.228 92.198 C 173.452 92.540,173.801 94.114,174.003 95.697 C 174.206 97.280,174.542 99.255,174.750 100.086 C 175.237 102.026,175.244 105.903,174.762 107.184 C 174.560 107.721,174.256 109.501,174.086 111.140 C 173.876 113.171,173.588 114.532,173.183 115.415 C 172.855 116.127,172.508 117.293,172.411 118.005 C 172.313 118.718,172.010 119.617,171.738 120.004 C 171.465 120.390,171.075 121.422,170.871 122.296 C 170.667 123.170,170.328 124.078,170.118 124.313 C 169.908 124.548,169.538 125.424,169.297 126.258 C 169.056 127.092,168.580 128.187,168.238 128.690 C 167.896 129.194,167.617 129.924,167.617 130.312 C 167.617 130.700,167.384 131.314,167.100 131.675 C 166.815 132.037,166.395 133.065,166.166 133.960 C 165.937 134.854,165.525 135.889,165.251 136.260 C 164.978 136.630,164.659 137.533,164.543 138.267 C 164.427 139.001,164.126 139.915,163.875 140.298 C 163.624 140.682,163.254 141.936,163.054 143.086 C 162.853 144.237,162.511 145.448,162.295 145.778 C 162.079 146.108,161.785 147.339,161.641 148.513 C 161.362 150.799,160.953 152.365,160.568 152.616 C 159.603 153.244,159.612 175.079,160.577 176.242 C 160.963 176.706,161.552 178.734,161.779 180.376 C 161.872 181.052,162.040 181.606,162.150 181.606 C 162.417 181.606,162.953 182.801,162.953 183.396 C 162.953 183.654,163.262 184.319,163.639 184.873 C 164.016 185.427,164.428 186.256,164.555 186.715 C 164.683 187.173,165.049 187.873,165.370 188.269 C 165.690 188.665,166.102 189.334,166.285 189.756 C 166.468 190.177,166.843 190.679,167.117 190.871 C 167.392 191.064,167.617 191.334,167.617 191.472 C 167.617 191.611,167.960 192.100,168.380 192.559 C 168.800 193.018,169.618 193.977,170.198 194.689 C 171.461 196.240,171.154 195.939,173.753 198.175 C 174.920 199.179,175.996 200.000,176.144 200.000 C 176.292 200.000,176.597 200.280,176.821 200.623 C 177.046 200.966,177.511 201.317,177.856 201.403 C 178.201 201.490,178.602 201.783,178.747 202.055 C 178.893 202.327,179.450 202.689,179.985 202.860 C 180.520 203.031,181.250 203.436,181.606 203.760 C 181.962 204.084,182.636 204.430,183.102 204.528 C 183.569 204.627,184.268 204.971,184.656 205.293 C 185.045 205.616,185.712 205.963,186.140 206.065 C 186.567 206.167,187.325 206.524,187.824 206.858 C 188.323 207.192,189.250 207.549,189.885 207.650 C 190.520 207.752,191.453 208.103,191.958 208.429 C 192.533 208.800,193.500 209.090,194.548 209.206 C 195.469 209.307,196.874 209.604,197.673 209.866 C 202.486 211.446,218.549 211.485,222.280 209.925 C 222.778 209.717,223.886 209.433,224.741 209.294 C 225.596 209.155,226.708 208.770,227.213 208.439 C 227.718 208.107,228.627 207.752,229.234 207.649 C 229.851 207.545,230.587 207.202,230.906 206.870 C 231.220 206.544,231.920 206.137,232.461 205.964 C 233.003 205.792,233.585 205.429,233.754 205.157 C 233.924 204.885,234.205 204.663,234.380 204.663 C 234.555 204.663,235.099 204.284,235.590 203.821 C 236.081 203.358,236.639 202.834,236.829 202.657 C 237.020 202.480,237.468 201.979,237.824 201.543 C 238.180 201.107,238.749 200.445,239.088 200.071 C 239.427 199.697,239.813 198.996,239.947 198.513 C 240.080 198.030,240.436 197.388,240.737 197.087 C 242.233 195.591,242.308 185.535,240.835 184.062 C 240.627 183.854,240.313 183.245,240.138 182.710 C 239.962 182.174,239.487 181.330,239.080 180.835 C 238.674 180.339,238.342 179.724,238.342 179.467 C 238.342 179.210,238.162 178.930,237.941 178.846 C 237.721 178.761,237.248 178.153,236.890 177.494 C 235.435 174.812,234.826 173.803,234.556 173.629 C 234.400 173.528,234.124 172.979,233.943 172.409 C 233.763 171.839,233.391 171.127,233.118 170.827 C 232.845 170.526,232.498 169.827,232.348 169.272 C 232.198 168.718,231.854 168.025,231.584 167.733 C 231.315 167.440,230.926 166.642,230.721 165.959 C 230.515 165.277,230.165 164.517,229.942 164.271 C 229.720 164.025,229.429 163.249,229.295 162.547 C 229.047 161.241,228.762 160.471,228.102 159.326 C 227.896 158.970,227.726 158.306,227.724 157.850 C 227.718 156.573,227.197 154.347,226.736 153.627 C 226.107 152.647,226.116 143.819,226.746 142.409 C 226.988 141.868,227.364 140.563,227.582 139.510 C 227.799 138.457,228.269 137.047,228.626 136.376 C 228.983 135.705,229.275 134.949,229.275 134.696 C 229.275 134.443,229.555 133.904,229.897 133.497 C 230.239 133.091,230.656 132.249,230.824 131.626 C 230.991 131.004,231.348 130.191,231.617 129.820 C 231.886 129.449,232.225 128.601,232.371 127.935 C 232.516 127.270,232.862 126.337,233.138 125.863 C 233.415 125.388,233.767 124.301,233.920 123.446 C 234.074 122.591,234.487 121.192,234.839 120.337 C 235.192 119.482,235.488 118.258,235.497 117.617 C 235.518 116.239,235.754 115.069,236.544 112.435 C 237.444 109.431,237.453 89.278,236.555 86.269 C 235.935 84.193,235.690 83.146,235.258 80.726 C 235.108 79.886,234.808 79.002,234.590 78.762 C 234.373 78.522,234.073 77.635,233.922 76.792 C 233.772 75.949,233.432 74.955,233.166 74.584 C 232.900 74.213,232.553 73.427,232.394 72.837 C 232.235 72.247,231.887 71.559,231.622 71.309 C 231.356 71.059,231.011 70.378,230.855 69.795 C 230.700 69.212,230.355 68.538,230.089 68.298 C 229.823 68.057,229.397 67.397,229.142 66.832 C 228.887 66.266,228.582 65.803,228.465 65.803 C 228.348 65.803,228.057 65.424,227.820 64.961 C 227.583 64.498,227.171 63.886,226.905 63.601 C 226.639 63.316,225.985 62.563,225.452 61.928 C 224.189 60.423,221.875 58.137,220.458 56.995 C 219.840 56.496,219.033 55.784,218.665 55.412 C 218.296 55.040,217.746 54.657,217.441 54.560 C 217.136 54.464,216.824 54.219,216.746 54.017 C 216.669 53.816,216.163 53.424,215.621 53.148 C 215.080 52.872,214.415 52.400,214.144 52.100 C 213.872 51.800,213.502 51.554,213.322 51.554 C 213.141 51.554,212.643 51.260,212.215 50.900 C 211.788 50.540,211.050 50.116,210.576 49.958 C 210.103 49.800,209.424 49.410,209.067 49.092 C 208.711 48.774,208.017 48.438,207.525 48.346 C 207.034 48.254,206.392 47.965,206.101 47.703 C 205.809 47.442,204.987 47.077,204.275 46.892 C 203.562 46.708,202.630 46.353,202.202 46.104 C 201.775 45.854,200.725 45.504,199.870 45.326 C 199.016 45.148,198.025 44.821,197.668 44.599 C 195.707 43.376,180.832 42.248,178.497 43.146 M189.488 52.860 C 190.474 53.003,191.423 53.237,191.596 53.381 C 191.769 53.525,192.924 53.807,194.163 54.007 C 195.401 54.207,196.706 54.563,197.062 54.796 C 197.418 55.029,198.368 55.392,199.171 55.601 C 199.975 55.810,200.821 56.152,201.050 56.360 C 201.280 56.568,202.065 56.915,202.795 57.132 C 203.524 57.349,204.320 57.725,204.563 57.968 C 204.807 58.211,205.424 58.621,205.935 58.878 C 207.378 59.602,209.163 60.702,209.761 61.234 C 211.075 62.403,211.633 62.864,212.460 63.460 C 214.753 65.114,217.015 67.153,217.728 68.209 C 218.455 69.285,218.534 69.388,219.680 70.760 C 220.113 71.277,220.466 71.810,220.466 71.943 C 220.466 72.077,220.805 72.565,221.218 73.029 C 221.632 73.492,222.042 74.241,222.129 74.694 C 222.217 75.147,222.563 75.778,222.898 76.096 C 223.250 76.429,223.580 77.128,223.679 77.750 C 223.774 78.342,224.064 79.096,224.323 79.425 C 224.582 79.755,224.937 80.759,225.112 81.657 C 225.287 82.555,225.643 83.756,225.903 84.326 C 226.199 84.973,226.540 86.871,226.812 89.378 C 227.051 91.587,227.411 93.893,227.613 94.504 C 228.110 96.009,228.122 102.958,227.630 103.902 C 227.439 104.268,227.142 106.075,226.970 107.918 C 226.577 112.122,226.201 114.541,225.882 114.926 C 225.746 115.090,225.411 116.397,225.138 117.832 C 224.865 119.266,224.471 120.708,224.263 121.036 C 224.056 121.364,223.756 122.258,223.597 123.022 C 223.439 123.787,223.076 124.739,222.792 125.138 C 222.508 125.537,222.203 126.252,222.113 126.727 C 222.024 127.202,221.682 127.954,221.352 128.397 C 221.023 128.841,220.673 129.540,220.576 129.952 C 220.478 130.363,220.140 131.049,219.824 131.477 C 219.508 131.904,219.165 132.720,219.063 133.290 C 218.960 133.860,218.593 134.953,218.246 135.720 C 217.776 136.758,217.545 137.913,217.340 140.253 C 217.188 141.981,216.886 143.816,216.668 144.332 C 216.229 145.373,216.297 149.645,216.786 151.813 C 216.931 152.455,217.177 154.395,217.333 156.126 C 217.547 158.511,217.772 159.608,218.261 160.659 C 218.616 161.422,218.910 162.455,218.913 162.953 C 218.917 163.452,219.086 164.152,219.289 164.508 C 220.003 165.761,220.447 166.862,220.623 167.817 C 220.721 168.348,221.020 169.065,221.289 169.410 C 221.557 169.755,221.902 170.536,222.056 171.145 C 222.209 171.755,222.614 172.632,222.955 173.094 C 223.296 173.557,223.575 174.136,223.575 174.383 C 223.575 174.629,223.845 175.160,224.175 175.563 C 224.506 175.966,224.932 176.703,225.122 177.202 C 225.313 177.701,225.624 178.238,225.815 178.395 C 226.006 178.552,226.401 179.223,226.694 179.885 C 226.987 180.546,227.326 181.088,227.448 181.088 C 227.570 181.088,227.784 181.409,227.923 181.801 C 228.063 182.192,228.536 182.960,228.975 183.507 C 229.413 184.054,229.850 184.747,229.945 185.047 C 230.041 185.347,230.329 185.774,230.585 185.996 C 230.841 186.218,231.225 186.924,231.436 187.565 C 231.648 188.206,231.991 189.054,232.198 189.449 C 232.431 189.894,232.507 190.437,232.398 190.874 C 232.037 192.320,231.009 194.291,230.539 194.440 C 230.271 194.525,230.052 194.759,230.052 194.960 C 230.052 195.161,229.735 195.532,229.349 195.784 C 228.962 196.037,228.362 196.506,228.016 196.826 C 227.669 197.147,227.257 197.411,227.099 197.414 C 226.942 197.417,226.300 197.766,225.673 198.191 C 225.046 198.616,224.369 198.964,224.168 198.964 C 223.967 198.964,223.195 199.251,222.453 199.602 C 221.571 200.019,220.252 200.335,218.647 200.514 C 217.297 200.665,215.641 200.969,214.967 201.190 C 213.501 201.671,206.071 201.630,205.754 201.139 C 205.653 200.981,204.079 200.725,202.256 200.570 C 199.640 200.346,198.648 200.148,197.544 199.625 C 196.775 199.261,195.865 198.964,195.521 198.964 C 194.662 198.964,193.194 198.452,192.855 198.035 C 192.702 197.846,192.082 197.580,191.479 197.444 C 190.875 197.309,189.946 196.896,189.413 196.526 C 188.880 196.157,188.262 195.855,188.040 195.855 C 187.818 195.855,187.196 195.505,186.658 195.078 C 186.120 194.650,185.525 194.301,185.336 194.301 C 185.147 194.301,184.634 193.951,184.197 193.523 C 183.760 193.096,183.281 192.746,183.134 192.746 C 182.095 192.746,175.511 186.036,174.689 184.138 C 174.517 183.743,174.271 183.420,174.141 183.420 C 174.011 183.420,173.698 182.866,173.445 182.189 C 173.193 181.512,172.819 180.765,172.615 180.529 C 172.410 180.293,172.066 179.419,171.850 178.586 C 171.634 177.754,171.286 176.881,171.076 176.647 C 170.659 176.181,169.974 171.957,169.948 169.689 C 169.939 168.861,169.772 168.054,169.551 167.761 C 169.089 167.150,169.022 163.108,169.457 161.999 C 169.614 161.598,169.957 159.206,170.219 156.684 C 170.525 153.741,170.837 151.885,171.088 151.501 C 171.304 151.172,171.657 149.808,171.873 148.471 C 172.090 147.134,172.447 145.840,172.668 145.596 C 172.889 145.353,173.245 144.308,173.461 143.274 C 173.676 142.241,174.019 141.229,174.222 141.026 C 174.425 140.823,174.664 140.223,174.753 139.694 C 175.007 138.178,175.383 137.114,175.784 136.782 C 175.986 136.614,176.228 136.051,176.320 135.531 C 176.412 135.011,176.761 134.061,177.096 133.420 C 177.431 132.778,177.896 131.671,178.128 130.959 C 178.361 130.246,178.708 129.486,178.898 129.270 C 179.089 129.054,179.372 128.297,179.528 127.586 C 179.683 126.876,180.047 125.970,180.335 125.573 C 180.623 125.175,180.960 124.243,181.082 123.500 C 181.354 121.852,181.768 120.725,182.102 120.725 C 182.239 120.725,182.420 120.172,182.504 119.495 C 182.772 117.324,183.198 115.436,183.600 114.637 C 184.851 112.153,184.826 94.602,183.569 92.683 C 183.323 92.307,182.946 90.985,182.732 89.744 C 182.518 88.504,182.127 87.185,181.864 86.814 C 181.600 86.443,181.251 85.470,181.088 84.650 C 180.926 83.831,180.697 83.161,180.580 83.161 C 180.316 83.161,179.534 81.249,179.534 80.605 C 179.534 80.345,179.242 79.794,178.886 79.380 C 178.529 78.966,178.108 78.219,177.950 77.720 C 177.792 77.222,177.505 76.687,177.312 76.533 C 177.119 76.378,176.734 75.721,176.456 75.071 C 176.177 74.422,175.814 73.807,175.648 73.705 C 175.482 73.602,175.126 73.006,174.858 72.381 C 174.590 71.755,174.268 71.244,174.142 71.244 C 174.016 71.244,173.693 70.748,173.425 70.142 C 173.157 69.537,172.783 68.922,172.595 68.776 C 172.177 68.452,171.188 66.856,170.432 65.285 C 170.123 64.644,169.675 63.981,169.436 63.812 C 169.197 63.643,168.857 62.856,168.679 62.063 C 168.502 61.271,168.256 60.622,168.134 60.622 C 166.494 60.622,168.997 56.916,171.602 55.487 C 172.298 55.105,173.132 54.646,173.455 54.467 C 173.778 54.288,174.654 54.025,175.402 53.883 C 176.150 53.742,176.894 53.516,177.055 53.383 C 177.921 52.664,185.830 52.331,189.488 52.860 " stroke="none" fill="#18a656" fill-rule="evenodd"></path><path id="path1" d="M0.000 129.534 L 0.000 259.067 200.000 259.067 L 400.000 259.067 400.000 129.534 L 400.000 0.000 200.000 0.000 L 0.000 0.000 0.000 129.534 M193.005 43.567 C 195.214 43.912,197.312 44.377,197.668 44.599 C 198.025 44.821,199.016 45.148,199.870 45.326 C 200.725 45.504,201.775 45.854,202.202 46.104 C 202.630 46.353,203.562 46.708,204.275 46.892 C 204.987 47.077,205.809 47.442,206.101 47.703 C 206.392 47.965,207.034 48.254,207.525 48.346 C 208.017 48.438,208.711 48.774,209.067 49.092 C 209.424 49.410,210.103 49.800,210.576 49.958 C 211.050 50.116,211.788 50.540,212.215 50.900 C 212.643 51.260,213.141 51.554,213.322 51.554 C 213.502 51.554,213.872 51.800,214.144 52.100 C 214.415 52.400,215.080 52.872,215.621 53.148 C 216.163 53.424,216.669 53.816,216.746 54.017 C 216.824 54.219,217.136 54.464,217.441 54.560 C 217.746 54.657,218.296 55.040,218.665 55.412 C 219.033 55.784,219.840 56.496,220.458 56.995 C 221.875 58.137,224.189 60.423,225.452 61.928 C 225.985 62.563,226.639 63.316,226.905 63.601 C 227.171 63.886,227.583 64.498,227.820 64.961 C 228.057 65.424,228.348 65.803,228.465 65.803 C 228.582 65.803,228.887 66.266,229.142 66.832 C 229.397 67.397,229.823 68.057,230.089 68.298 C 230.355 68.538,230.700 69.212,230.855 69.795 C 231.011 70.378,231.356 71.059,231.622 71.309 C 231.887 71.559,232.235 72.247,232.394 72.837 C 232.553 73.427,232.900 74.213,233.166 74.584 C 233.432 74.955,233.772 75.949,233.922 76.792 C 234.073 77.635,234.373 78.522,234.590 78.762 C 234.808 79.002,235.108 79.886,235.258 80.726 C 235.690 83.146,235.935 84.193,236.555 86.269 C 237.453 89.278,237.444 109.431,236.544 112.435 C 235.754 115.069,235.518 116.239,235.497 117.617 C 235.488 118.258,235.192 119.482,234.839 120.337 C 234.487 121.192,234.074 122.591,233.920 123.446 C 233.767 124.301,233.415 125.388,233.138 125.863 C 232.862 126.337,232.516 127.270,232.371 127.935 C 232.225 128.601,231.886 129.449,231.617 129.820 C 231.348 130.191,230.991 131.004,230.824 131.626 C 230.656 132.249,230.239 133.091,229.897 133.497 C 229.555 133.904,229.275 134.443,229.275 134.696 C 229.275 134.949,228.983 135.705,228.626 136.376 C 228.269 137.047,227.799 138.457,227.582 139.510 C 227.364 140.563,226.988 141.868,226.746 142.409 C 226.116 143.819,226.107 152.647,226.736 153.627 C 227.197 154.347,227.718 156.573,227.724 157.850 C 227.726 158.306,227.896 158.970,228.102 159.326 C 228.762 160.471,229.047 161.241,229.295 162.547 C 229.429 163.249,229.720 164.025,229.942 164.271 C 230.165 164.517,230.515 165.277,230.721 165.959 C 230.926 166.642,231.315 167.440,231.584 167.733 C 231.854 168.025,232.198 168.718,232.348 169.272 C 232.498 169.827,232.845 170.526,233.118 170.827 C 233.391 171.127,233.763 171.839,233.943 172.409 C 234.124 172.979,234.400 173.528,234.556 173.629 C 234.826 173.803,235.435 174.812,236.890 177.494 C 237.248 178.153,237.721 178.761,237.941 178.846 C 238.162 178.930,238.342 179.210,238.342 179.467 C 238.342 179.724,238.674 180.339,239.080 180.835 C 239.487 181.330,239.962 182.174,240.138 182.710 C 240.313 183.245,240.627 183.854,240.835 184.062 C 242.308 185.535,242.233 195.591,240.737 197.087 C 240.436 197.388,240.080 198.030,239.947 198.513 C 239.813 198.996,239.427 199.697,239.088 200.071 C 238.749 200.445,238.180 201.107,237.824 201.543 C 237.468 201.979,237.020 202.480,236.829 202.657 C 236.639 202.834,236.081 203.358,235.590 203.821 C 235.099 204.284,234.555 204.663,234.380 204.663 C 234.205 204.663,233.924 204.885,233.754 205.157 C 233.585 205.429,233.003 205.792,232.461 205.964 C 231.920 206.137,231.220 206.544,230.906 206.870 C 230.587 207.202,229.851 207.545,229.234 207.649 C 228.627 207.752,227.718 208.107,227.213 208.439 C 226.708 208.770,225.596 209.155,224.741 209.294 C 223.886 209.433,222.778 209.717,222.280 209.925 C 218.549 211.485,202.486 211.446,197.673 209.866 C 196.874 209.604,195.469 209.307,194.548 209.206 C 193.500 209.090,192.533 208.800,191.958 208.429 C 191.453 208.103,190.520 207.752,189.885 207.650 C 189.250 207.549,188.323 207.192,187.824 206.858 C 187.325 206.524,186.567 206.167,186.140 206.065 C 185.712 205.963,185.045 205.616,184.656 205.293 C 184.268 204.971,183.569 204.627,183.102 204.528 C 182.636 204.430,181.962 204.084,181.606 203.760 C 181.250 203.436,180.520 203.031,179.985 202.860 C 179.450 202.689,178.893 202.327,178.747 202.055 C 178.602 201.783,178.201 201.490,177.856 201.403 C 177.511 201.317,177.046 200.966,176.821 200.623 C 176.597 200.280,176.292 200.000,176.144 200.000 C 175.996 200.000,174.920 199.179,173.753 198.175 C 171.154 195.939,171.461 196.240,170.198 194.689 C 169.618 193.977,168.800 193.018,168.380 192.559 C 167.960 192.100,167.617 191.611,167.617 191.472 C 167.617 191.334,167.392 191.064,167.117 190.871 C 166.843 190.679,166.468 190.177,166.285 189.756 C 166.102 189.334,165.690 188.665,165.370 188.269 C 165.049 187.873,164.683 187.173,164.555 186.715 C 164.428 186.256,164.016 185.427,163.639 184.873 C 163.262 184.319,162.953 183.654,162.953 183.396 C 162.953 182.801,162.417 181.606,162.150 181.606 C 162.040 181.606,161.872 181.052,161.779 180.376 C 161.552 178.734,160.963 176.706,160.577 176.242 C 159.612 175.079,159.603 153.244,160.568 152.616 C 160.953 152.365,161.362 150.799,161.641 148.513 C 161.785 147.339,162.079 146.108,162.295 145.778 C 162.511 145.448,162.853 144.237,163.054 143.086 C 163.254 141.936,163.624 140.682,163.875 140.298 C 164.126 139.915,164.427 139.001,164.543 138.267 C 164.659 137.533,164.978 136.630,165.251 136.260 C 165.525 135.889,165.937 134.854,166.166 133.960 C 166.395 133.065,166.815 132.037,167.100 131.675 C 167.384 131.314,167.617 130.700,167.617 130.312 C 167.617 129.924,167.896 129.194,168.238 128.690 C 168.580 128.187,169.056 127.092,169.297 126.258 C 169.538 125.424,169.908 124.548,170.118 124.313 C 170.328 124.078,170.667 123.170,170.871 122.296 C 171.075 121.422,171.465 120.390,171.738 120.004 C 172.010 119.617,172.313 118.718,172.411 118.005 C 172.508 117.293,172.855 116.127,173.183 115.415 C 173.588 114.532,173.876 113.171,174.086 111.140 C 174.256 109.501,174.560 107.721,174.762 107.184 C 175.244 105.903,175.237 102.026,174.750 100.086 C 174.542 99.255,174.206 97.280,174.003 95.697 C 173.801 94.114,173.452 92.540,173.228 92.198 C 173.005 91.857,172.649 90.838,172.438 89.934 C 172.227 89.030,171.887 88.098,171.682 87.863 C 171.478 87.628,171.114 86.832,170.874 86.095 C 170.634 85.358,170.278 84.622,170.082 84.460 C 169.887 84.298,169.560 83.677,169.356 83.080 C 169.153 82.483,168.678 81.541,168.301 80.987 C 167.925 80.433,167.617 79.828,167.617 79.642 C 167.617 79.456,167.407 79.152,167.150 78.965 C 166.894 78.779,166.525 78.219,166.332 77.720 C 166.138 77.222,165.729 76.522,165.422 76.166 C 165.115 75.810,164.729 75.198,164.562 74.806 C 164.396 74.414,164.149 74.093,164.014 74.093 C 163.879 74.093,163.475 73.452,163.116 72.668 C 162.757 71.885,162.352 71.244,162.216 71.244 C 162.079 71.244,161.843 70.885,161.690 70.447 C 161.537 70.009,161.118 69.300,160.758 68.873 C 160.398 68.445,160.104 67.923,160.104 67.713 C 160.104 67.266,159.354 65.738,159.031 65.529 C 157.748 64.695,157.968 56.092,159.329 53.886 C 159.724 53.245,160.125 52.464,160.219 52.151 C 160.312 51.837,160.616 51.509,160.894 51.421 C 161.172 51.333,161.399 51.164,161.399 51.046 C 161.399 50.729,163.609 48.446,163.915 48.446 C 164.060 48.446,164.456 48.176,164.796 47.846 C 165.136 47.516,165.823 47.089,166.321 46.897 C 166.820 46.705,167.461 46.351,167.746 46.111 C 168.031 45.870,168.847 45.523,169.560 45.340 C 170.272 45.158,171.141 44.831,171.490 44.614 C 172.184 44.184,175.244 43.533,176.684 43.509 C 177.183 43.501,177.999 43.337,178.497 43.146 C 180.002 42.567,188.122 42.803,193.005 43.567 M178.635 52.894 C 177.927 53.029,177.216 53.249,177.055 53.383 C 176.894 53.516,176.150 53.742,175.402 53.883 C 174.654 54.025,173.778 54.288,173.455 54.467 C 173.132 54.646,172.298 55.105,171.602 55.487 C 168.997 56.916,166.494 60.622,168.134 60.622 C 168.256 60.622,168.502 61.271,168.679 62.063 C 168.857 62.856,169.197 63.643,169.436 63.812 C 169.675 63.981,170.123 64.644,170.432 65.285 C 171.188 66.856,172.177 68.452,172.595 68.776 C 172.783 68.922,173.157 69.537,173.425 70.142 C 173.693 70.748,174.016 71.244,174.142 71.244 C 174.268 71.244,174.590 71.755,174.858 72.381 C 175.126 73.006,175.482 73.602,175.648 73.705 C 175.814 73.807,176.177 74.422,176.456 75.071 C 176.734 75.721,177.119 76.378,177.312 76.533 C 177.505 76.687,177.792 77.222,177.950 77.720 C 178.108 78.219,178.529 78.966,178.886 79.380 C 179.242 79.794,179.534 80.345,179.534 80.605 C 179.534 81.249,180.316 83.161,180.580 83.161 C 180.697 83.161,180.926 83.831,181.088 84.650 C 181.251 85.470,181.600 86.443,181.864 86.814 C 182.127 87.185,182.518 88.504,182.732 89.744 C 182.946 90.985,183.323 92.307,183.569 92.683 C 184.826 94.602,184.851 112.153,183.600 114.637 C 183.198 115.436,182.772 117.324,182.504 119.495 C 182.420 120.172,182.239 120.725,182.102 120.725 C 181.768 120.725,181.354 121.852,181.082 123.500 C 180.960 124.243,180.623 125.175,180.335 125.573 C 180.047 125.970,179.683 126.876,179.528 127.586 C 179.372 128.297,179.089 129.054,178.898 129.270 C 178.708 129.486,178.361 130.246,178.128 130.959 C 177.896 131.671,177.431 132.778,177.096 133.420 C 176.761 134.061,176.412 135.011,176.320 135.531 C 176.228 136.051,175.986 136.614,175.784 136.782 C 175.383 137.114,175.007 138.178,174.753 139.694 C 174.664 140.223,174.425 140.823,174.222 141.026 C 174.019 141.229,173.676 142.241,173.461 143.274 C 173.245 144.308,172.889 145.353,172.668 145.596 C 172.447 145.840,172.090 147.134,171.873 148.471 C 171.657 149.808,171.304 151.172,171.088 151.501 C 170.837 151.885,170.525 153.741,170.219 156.684 C 169.957 159.206,169.614 161.598,169.457 161.999 C 169.022 163.108,169.089 167.150,169.551 167.761 C 169.772 168.054,169.939 168.861,169.948 169.689 C 169.974 171.957,170.659 176.181,171.076 176.647 C 171.286 176.881,171.634 177.754,171.850 178.586 C 172.066 179.419,172.410 180.293,172.615 180.529 C 172.819 180.765,173.193 181.512,173.445 182.189 C 173.698 182.866,174.011 183.420,174.141 183.420 C 174.271 183.420,174.517 183.743,174.689 184.138 C 175.511 186.036,182.095 192.746,183.134 192.746 C 183.281 192.746,183.760 193.096,184.197 193.523 C 184.634 193.951,185.147 194.301,185.336 194.301 C 185.525 194.301,186.120 194.650,186.658 195.078 C 187.196 195.505,187.818 195.855,188.040 195.855 C 188.262 195.855,188.880 196.157,189.413 196.526 C 189.946 196.896,190.875 197.309,191.479 197.444 C 192.082 197.580,192.702 197.846,192.855 198.035 C 193.194 198.452,194.662 198.964,195.521 198.964 C 195.865 198.964,196.775 199.261,197.544 199.625 C 198.648 200.148,199.640 200.346,202.256 200.570 C 204.079 200.725,205.653 200.981,205.754 201.139 C 206.071 201.630,213.501 201.671,214.967 201.190 C 215.641 200.969,217.297 200.665,218.647 200.514 C 220.252 200.335,221.571 200.019,222.453 199.602 C 223.195 199.251,223.967 198.964,224.168 198.964 C 224.369 198.964,225.046 198.616,225.673 198.191 C 226.300 197.766,226.942 197.417,227.099 197.414 C 227.257 197.411,227.669 197.147,228.016 196.826 C 228.362 196.506,228.962 196.037,229.349 195.784 C 229.735 195.532,230.052 195.161,230.052 194.960 C 230.052 194.759,230.271 194.525,230.539 194.440 C 231.009 194.291,232.037 192.320,232.398 190.874 C 232.507 190.437,232.431 189.894,232.198 189.449 C 231.991 189.054,231.648 188.206,231.436 187.565 C 231.225 186.924,230.841 186.218,230.585 185.996 C 230.329 185.774,230.041 185.347,229.945 185.047 C 229.850 184.747,229.413 184.054,228.975 183.507 C 228.536 182.960,228.063 182.192,227.923 181.801 C 227.784 181.409,227.570 181.088,227.448 181.088 C 227.326 181.088,226.987 180.546,226.694 179.885 C 226.401 179.223,226.006 178.552,225.815 178.395 C 225.624 178.238,225.313 177.701,225.122 177.202 C 224.932 176.703,224.506 175.966,224.175 175.563 C 223.845 175.160,223.575 174.629,223.575 174.383 C 223.575 174.136,223.296 173.557,222.955 173.094 C 222.614 172.632,222.209 171.755,222.056 171.145 C 221.902 170.536,221.557 169.755,221.289 169.410 C 221.020 169.065,220.721 168.348,220.623 167.817 C 220.447 166.862,220.003 165.761,219.289 164.508 C 219.086 164.152,218.917 163.452,218.913 162.953 C 218.910 162.455,218.616 161.422,218.261 160.659 C 217.772 159.608,217.547 158.511,217.333 156.126 C 217.177 154.395,216.931 152.455,216.786 151.813 C 216.297 149.645,216.229 145.373,216.668 144.332 C 216.886 143.816,217.188 141.981,217.340 140.253 C 217.545 137.913,217.776 136.758,218.246 135.720 C 218.593 134.953,218.960 133.860,219.063 133.290 C 219.165 132.720,219.508 131.904,219.824 131.477 C 220.140 131.049,220.478 130.363,220.576 129.952 C 220.673 129.540,221.023 128.841,221.352 128.397 C 221.682 127.954,222.024 127.202,222.113 126.727 C 222.203 126.252,222.508 125.537,222.792 125.138 C 223.076 124.739,223.439 123.787,223.597 123.022 C 223.756 122.258,224.056 121.364,224.263 121.036 C 224.471 120.708,224.865 119.266,225.138 117.832 C 225.411 116.397,225.746 115.090,225.882 114.926 C 226.201 114.541,226.577 112.122,226.970 107.918 C 227.142 106.075,227.439 104.268,227.630 103.902 C 228.122 102.958,228.110 96.009,227.613 94.504 C 227.411 93.893,227.051 91.587,226.812 89.378 C 226.540 86.871,226.199 84.973,225.903 84.326 C 225.643 83.756,225.287 82.555,225.112 81.657 C 224.937 80.759,224.582 79.755,224.323 79.425 C 224.064 79.096,223.774 78.342,223.679 77.750 C 223.580 77.128,223.250 76.429,222.898 76.096 C 222.563 75.778,222.217 75.147,222.129 74.694 C 222.042 74.241,221.632 73.492,221.218 73.029 C 220.805 72.565,220.466 72.077,220.466 71.943 C 220.466 71.810,220.113 71.277,219.680 70.760 C 218.534 69.388,218.455 69.285,217.728 68.209 C 217.015 67.153,214.753 65.114,212.460 63.460 C 211.633 62.864,211.075 62.403,209.761 61.234 C 209.163 60.702,207.378 59.602,205.935 58.878 C 205.424 58.621,204.807 58.211,204.563 57.968 C 204.320 57.725,203.524 57.349,202.795 57.132 C 202.065 56.915,201.280 56.568,201.050 56.360 C 200.821 56.152,199.975 55.810,199.171 55.601 C 198.368 55.392,197.418 55.029,197.062 54.796 C 196.706 54.563,195.401 54.207,194.163 54.007 C 192.924 53.807,191.769 53.525,191.596 53.381 C 190.736 52.667,181.620 52.325,178.635 52.894 " stroke="none" fill="#ffffff" fill-rule="evenodd"></path></g></svg>