<svg id="svg" xmlns="http://www.w3.org/2000/svg" xmlns:xlink="http://www.w3.org/1999/xlink" width="400" height="259" viewBox="0, 0, 400,259" version="1.1"><g id="svgg"><path id="path0" d="M130.829 43.017 C 109.278 45.073,101.019 56.929,111.064 71.391 C 111.354 71.809,111.927 72.720,112.337 73.416 C 112.747 74.112,113.258 74.940,113.472 75.256 C 117.429 81.101,119.717 85.459,121.158 89.896 C 121.367 90.538,121.821 91.793,122.168 92.686 C 122.514 93.580,122.799 94.746,122.801 95.277 C 122.803 95.809,123.040 97.351,123.327 98.705 C 124.104 102.368,124.256 105.355,123.758 107.177 C 123.532 108.003,123.168 109.917,122.949 111.431 C 122.730 112.945,122.419 114.519,122.258 114.928 C 122.097 115.338,121.696 116.606,121.366 117.746 C 120.632 120.282,119.539 123.246,118.260 126.166 C 117.729 127.377,117.035 129.067,116.716 129.922 C 116.398 130.777,115.950 131.885,115.721 132.383 C 114.986 133.982,113.759 137.260,113.371 138.664 C 113.163 139.413,112.762 140.725,112.479 141.580 C 111.500 144.533,110.630 147.804,110.368 149.513 C 110.223 150.456,109.932 151.718,109.720 152.316 C 108.842 154.807,108.362 164.014,108.773 170.505 C 109.310 178.990,112.385 186.726,117.980 193.664 C 120.489 196.776,120.811 197.071,126.508 201.487 C 127.103 201.949,128.115 202.603,128.756 202.940 C 129.398 203.278,130.993 204.153,132.302 204.886 C 133.610 205.618,134.821 206.218,134.991 206.218 C 135.162 206.218,135.679 206.451,136.140 206.736 C 137.055 207.301,139.979 208.367,142.228 208.956 C 143.012 209.160,144.411 209.558,145.337 209.838 C 150.297 211.341,165.977 211.573,170.755 210.214 C 171.522 209.996,172.966 209.608,173.964 209.352 C 175.666 208.916,176.634 208.516,179.145 207.206 C 179.715 206.909,180.732 206.391,181.406 206.056 C 183.585 204.969,187.888 200.547,189.241 198.002 L 190.415 195.796 190.415 190.704 L 190.415 185.612 189.434 183.674 C 188.153 181.141,187.119 179.392,186.132 178.089 C 185.152 176.795,182.642 172.653,182.642 172.329 C 182.642 172.199,182.350 171.662,181.993 171.136 C 181.635 170.609,180.928 169.223,180.420 168.055 C 179.912 166.888,179.216 165.350,178.872 164.637 C 177.705 162.222,176.803 159.381,176.296 156.523 C 176.102 155.429,175.762 153.834,175.541 152.979 C 174.476 148.866,175.346 140.888,177.265 137.174 C 177.486 136.748,177.800 135.901,177.964 135.293 C 178.127 134.684,178.547 133.764,178.897 133.249 C 179.247 132.733,179.534 132.180,179.534 132.020 C 179.534 131.859,179.775 131.277,180.070 130.727 C 180.686 129.578,182.036 126.012,182.435 124.482 C 182.584 123.912,182.877 122.921,183.086 122.280 C 184.194 118.885,185.448 112.783,185.748 109.326 C 186.376 102.070,185.956 88.712,184.986 85.104 C 184.717 84.106,184.361 82.532,184.195 81.606 C 184.028 80.680,183.666 79.427,183.390 78.821 C 183.114 78.216,182.820 77.341,182.737 76.878 C 182.529 75.729,179.551 69.339,178.734 68.289 C 178.502 67.990,178.103 67.338,177.848 66.839 C 176.323 63.856,168.978 56.442,164.579 53.447 C 160.709 50.811,160.281 50.552,157.772 49.333 C 152.789 46.911,150.614 45.998,148.575 45.474 C 147.863 45.291,146.580 44.903,145.725 44.612 C 144.870 44.321,142.947 43.951,141.451 43.790 C 139.955 43.629,137.690 43.328,136.418 43.121 C 133.982 42.726,133.899 42.724,130.829 43.017 M230.829 42.911 C 230.473 42.977,228.374 43.324,226.166 43.683 C 214.932 45.505,209.127 50.054,207.184 58.558 C 206.672 60.800,208.499 66.506,211.080 70.725 C 211.473 71.367,212.026 72.284,212.309 72.764 C 212.994 73.925,215.680 78.094,216.613 79.446 C 217.022 80.040,217.358 80.636,217.358 80.770 C 217.358 80.905,217.664 81.467,218.038 82.018 C 218.412 82.569,218.881 83.483,219.081 84.049 C 219.280 84.615,219.604 85.259,219.800 85.479 C 219.996 85.700,220.332 86.478,220.547 87.208 C 220.761 87.938,221.122 88.894,221.349 89.332 C 221.576 89.771,221.932 90.806,222.140 91.632 C 222.347 92.459,222.784 93.834,223.109 94.689 C 223.908 96.790,224.000 110.234,223.232 112.694 C 222.987 113.478,222.510 115.189,222.172 116.496 C 221.834 117.804,221.469 119.016,221.361 119.190 C 221.253 119.365,220.845 120.393,220.453 121.476 C 219.305 124.650,218.510 126.668,217.482 129.016 C 215.836 132.777,213.597 138.860,212.715 141.969 C 212.453 142.895,212.112 143.969,211.958 144.355 C 211.804 144.742,211.492 146.082,211.264 147.334 C 211.036 148.587,210.625 150.279,210.350 151.095 C 210.035 152.027,209.744 154.000,209.566 156.406 C 209.410 158.511,209.118 160.891,208.916 161.695 C 208.489 163.398,208.431 167.346,208.814 168.655 C 208.960 169.152,209.256 171.143,209.471 173.078 C 209.970 177.547,212.207 184.505,214.143 187.606 C 217.377 192.788,222.606 198.831,224.870 200.004 C 225.227 200.189,225.984 200.719,226.554 201.183 C 232.080 205.680,244.001 210.162,252.423 210.909 C 256.706 211.289,267.239 211.052,269.819 210.517 C 272.504 209.961,275.912 208.948,277.080 208.358 C 277.646 208.072,278.381 207.754,278.714 207.651 C 279.047 207.548,279.921 207.106,280.657 206.668 C 285.874 203.564,287.966 201.402,290.117 196.891 L 291.044 194.948 291.037 190.803 C 291.030 185.650,289.726 182.224,285.761 176.943 C 285.387 176.444,284.937 175.745,284.762 175.389 C 284.586 175.032,283.984 173.983,283.424 173.057 C 281.764 170.313,278.756 164.040,278.756 163.321 C 278.756 163.045,278.474 162.290,278.129 161.642 C 277.784 160.994,277.371 159.712,277.210 158.794 C 277.050 157.876,276.662 156.367,276.348 155.440 C 275.500 152.938,275.499 143.429,276.346 141.062 C 276.653 140.207,277.098 138.808,277.337 137.953 C 277.575 137.098,277.925 136.108,278.114 135.751 C 279.730 132.707,282.603 125.626,283.213 123.187 C 283.355 122.617,283.745 121.276,284.080 120.207 C 284.415 119.139,284.814 117.448,284.968 116.451 C 285.121 115.453,285.466 113.530,285.734 112.176 C 286.627 107.673,286.676 88.774,285.798 87.135 C 285.635 86.829,285.318 85.439,285.093 84.045 C 284.711 81.669,283.268 76.820,282.248 74.482 C 281.345 72.413,279.680 69.026,279.256 68.394 C 279.017 68.038,278.289 66.930,277.640 65.933 C 272.138 57.487,259.689 48.637,248.834 45.456 C 247.694 45.121,246.295 44.679,245.725 44.473 C 245.155 44.266,243.268 43.962,241.531 43.797 C 239.794 43.631,238.030 43.398,237.612 43.278 C 236.684 43.012,231.727 42.744,230.829 42.911 M140.933 53.678 C 146.694 55.060,152.340 57.310,155.642 59.539 C 156.030 59.800,157.047 60.469,157.902 61.024 C 167.717 67.399,174.465 78.160,175.634 89.305 C 175.795 90.842,176.097 93.015,176.306 94.135 C 176.784 96.710,176.791 102.225,176.317 104.275 C 176.120 105.130,175.821 107.442,175.653 109.413 C 175.485 111.384,175.181 113.599,174.977 114.335 C 174.773 115.071,174.418 116.431,174.188 117.358 C 173.652 119.519,171.816 125.137,171.528 125.499 C 171.406 125.652,171.222 126.069,171.118 126.425 C 171.013 126.781,170.253 128.472,169.429 130.181 C 168.604 131.891,167.847 133.681,167.746 134.159 C 167.646 134.637,167.352 135.511,167.093 136.102 C 166.834 136.693,166.379 138.808,166.083 140.803 C 165.786 142.798,165.404 145.336,165.232 146.443 C 164.985 148.047,164.989 148.758,165.254 149.941 C 165.437 150.757,165.793 153.115,166.044 155.181 C 166.296 157.247,166.766 159.812,167.089 160.881 C 168.006 163.913,169.949 169.214,170.357 169.796 C 170.560 170.086,170.725 170.485,170.725 170.683 C 170.725 171.457,175.148 179.679,177.109 182.548 C 177.706 183.423,178.393 184.530,178.635 185.009 C 178.878 185.489,179.285 186.114,179.539 186.399 C 179.794 186.684,180.118 187.325,180.260 187.824 C 180.403 188.323,180.723 189.266,180.974 189.920 L 181.428 191.109 180.675 192.602 C 178.669 196.578,173.640 199.706,167.721 200.658 C 166.378 200.874,164.960 201.175,164.570 201.326 C 163.616 201.695,154.728 201.700,153.596 201.332 C 153.114 201.176,151.537 200.872,150.092 200.657 C 148.646 200.442,147.130 200.133,146.724 199.969 C 146.317 199.806,145.110 199.407,144.041 199.083 C 139.452 197.691,133.526 194.517,130.352 191.752 C 129.589 191.088,128.577 190.253,128.101 189.896 C 125.874 188.226,121.153 181.091,120.492 178.394 C 120.320 177.695,120.012 176.798,119.806 176.400 C 119.600 176.002,119.189 174.067,118.893 172.100 C 118.597 170.133,118.225 167.685,118.066 166.660 C 117.814 165.038,117.852 164.371,118.358 161.499 C 118.678 159.684,119.045 157.005,119.173 155.545 C 119.302 154.084,119.595 152.443,119.826 151.898 C 120.057 151.353,120.405 150.010,120.600 148.915 C 120.795 147.819,121.144 146.558,121.375 146.111 C 121.606 145.664,122.010 144.520,122.274 143.569 C 122.994 140.968,124.268 137.562,126.167 133.161 C 126.567 132.234,126.978 131.193,127.081 130.846 C 127.183 130.500,127.544 129.695,127.882 129.059 C 128.221 128.423,128.497 127.689,128.497 127.428 C 128.497 127.168,128.779 126.340,129.123 125.589 C 129.975 123.729,131.006 120.529,131.609 117.876 C 131.885 116.665,132.292 115.091,132.515 114.378 C 133.131 112.411,133.493 106.624,133.302 101.790 C 133.068 95.843,132.967 95.204,131.253 88.860 C 130.592 86.416,128.220 80.298,127.664 79.606 C 127.524 79.431,126.966 78.421,126.424 77.361 C 125.264 75.094,123.723 72.523,121.010 68.331 C 118.139 63.894,117.698 63.154,117.500 62.435 C 117.402 62.079,117.128 61.408,116.892 60.945 C 115.819 58.844,119.733 55.212,124.365 54.012 C 125.277 53.776,126.260 53.456,126.547 53.302 C 128.245 52.394,136.477 52.609,140.933 53.678 M235.622 52.844 C 239.011 53.104,244.780 54.316,246.632 55.158 C 247.273 55.450,247.961 55.691,248.159 55.694 C 248.517 55.699,252.098 57.299,252.850 57.788 C 253.063 57.928,253.646 58.227,254.145 58.454 C 258.994 60.657,268.134 68.924,270.434 73.187 C 270.741 73.756,271.383 74.930,271.859 75.795 C 272.336 76.660,272.934 78.001,273.190 78.775 C 273.446 79.548,273.832 80.454,274.048 80.787 C 274.265 81.121,274.586 82.112,274.761 82.989 C 274.936 83.867,275.319 85.487,275.611 86.589 C 277.074 92.104,276.954 108.362,275.411 113.731 C 275.145 114.657,274.852 115.939,274.760 116.580 C 274.546 118.080,273.168 122.550,272.405 124.223 C 272.080 124.935,271.730 125.810,271.626 126.166 C 271.523 126.522,270.812 128.048,270.047 129.557 C 269.282 131.067,268.580 132.699,268.488 133.184 C 268.395 133.670,268.105 134.496,267.843 135.019 C 267.581 135.543,267.192 136.976,266.978 138.204 C 266.763 139.432,266.407 141.061,266.185 141.824 C 265.547 144.017,265.752 152.558,266.537 156.477 C 267.503 161.302,268.614 165.045,270.077 168.394 C 270.606 169.605,271.254 171.120,271.518 171.762 C 272.033 173.017,273.060 175.006,274.994 178.497 C 276.181 180.640,276.853 181.718,279.205 185.258 C 281.171 188.217,281.782 191.119,280.863 193.135 C 279.532 196.057,273.335 199.864,268.808 200.542 C 267.796 200.693,266.328 200.971,265.544 201.159 C 261.138 202.215,252.723 201.576,246.597 199.720 C 245.224 199.304,243.943 198.964,243.751 198.964 C 243.559 198.964,242.817 198.685,242.102 198.343 C 237.311 196.055,236.205 195.496,234.585 194.543 C 229.602 191.609,224.285 185.904,221.926 180.959 C 218.943 174.705,217.503 163.461,219.034 158.379 C 219.255 157.644,219.612 155.787,219.828 154.252 C 220.201 151.594,220.883 148.883,222.038 145.466 C 222.327 144.611,222.722 143.329,222.915 142.617 C 223.109 141.904,223.567 140.622,223.933 139.767 C 224.299 138.912,224.602 138.052,224.605 137.856 C 224.611 137.535,225.662 134.996,226.924 132.254 C 228.088 129.726,229.805 125.183,230.579 122.581 C 230.848 121.678,231.292 120.337,231.565 119.602 C 231.838 118.866,232.208 117.390,232.386 116.321 C 232.565 115.253,232.866 113.938,233.056 113.400 C 234.190 110.186,234.179 99.222,233.036 94.301 C 231.684 88.475,230.893 85.851,229.757 83.420 C 229.457 82.778,228.861 81.496,228.432 80.570 C 228.003 79.644,227.485 78.595,227.282 78.238 C 227.079 77.882,226.623 77.008,226.270 76.295 C 225.916 75.583,225.167 74.301,224.605 73.446 C 224.043 72.591,223.396 71.556,223.167 71.146 C 222.938 70.736,221.785 68.921,220.604 67.111 C 219.424 65.302,218.370 63.547,218.264 63.211 C 218.157 62.875,217.852 62.243,217.585 61.805 C 216.602 60.194,217.221 58.275,219.202 56.794 C 220.353 55.933,223.824 54.145,224.344 54.145 C 224.500 54.145,225.353 53.895,226.239 53.589 C 227.659 53.100,229.874 52.724,231.865 52.635 C 232.222 52.620,233.912 52.714,235.622 52.844 " stroke="none" fill="#1da555" fill-rule="evenodd"></path><path id="path1" d="M0.000 129.534 L 0.000 259.067 200.000 259.067 L 400.000 259.067 400.000 129.534 L 400.000 0.000 200.000 0.000 L 0.000 0.000 0.000 129.534 M136.418 43.121 C 137.690 43.328,139.955 43.629,141.451 43.790 C 142.947 43.951,144.870 44.321,145.725 44.612 C 146.580 44.903,147.863 45.291,148.575 45.474 C 150.614 45.998,152.789 46.911,157.772 49.333 C 160.281 50.552,160.709 50.811,164.579 53.447 C 168.978 56.442,176.323 63.856,177.848 66.839 C 178.103 67.338,178.502 67.990,178.734 68.289 C 179.551 69.339,182.529 75.729,182.737 76.878 C 182.820 77.341,183.114 78.216,183.390 78.821 C 183.666 79.427,184.028 80.680,184.195 81.606 C 184.361 82.532,184.717 84.106,184.986 85.104 C 185.956 88.712,186.376 102.070,185.748 109.326 C 185.448 112.783,184.194 118.885,183.086 122.280 C 182.877 122.921,182.584 123.912,182.435 124.482 C 182.036 126.012,180.686 129.578,180.070 130.727 C 179.775 131.277,179.534 131.859,179.534 132.020 C 179.534 132.180,179.247 132.733,178.897 133.249 C 178.547 133.764,178.127 134.684,177.964 135.293 C 177.800 135.901,177.486 136.748,177.265 137.174 C 175.346 140.888,174.476 148.866,175.541 152.979 C 175.762 153.834,176.102 155.429,176.296 156.523 C 176.803 159.381,177.705 162.222,178.872 164.637 C 179.216 165.350,179.912 166.888,180.420 168.055 C 180.928 169.223,181.635 170.609,181.993 171.136 C 182.350 171.662,182.642 172.199,182.642 172.329 C 182.642 172.653,185.152 176.795,186.132 178.089 C 187.119 179.392,188.153 181.141,189.434 183.674 L 190.415 185.612 190.415 190.704 L 190.415 195.796 189.241 198.002 C 187.888 200.547,183.585 204.969,181.406 206.056 C 180.732 206.391,179.715 206.909,179.145 207.206 C 176.634 208.516,175.666 208.916,173.964 209.352 C 172.966 209.608,171.522 209.996,170.755 210.214 C 165.977 211.573,150.297 211.341,145.337 209.838 C 144.411 209.558,143.012 209.160,142.228 208.956 C 139.979 208.367,137.055 207.301,136.140 206.736 C 135.679 206.451,135.162 206.218,134.991 206.218 C 134.821 206.218,133.610 205.618,132.302 204.886 C 130.993 204.153,129.398 203.278,128.756 202.940 C 128.115 202.603,127.103 201.949,126.508 201.487 C 120.811 197.071,120.489 196.776,117.980 193.664 C 112.385 186.726,109.310 178.990,108.773 170.505 C 108.362 164.014,108.842 154.807,109.720 152.316 C 109.932 151.718,110.223 150.456,110.368 149.513 C 110.630 147.804,111.500 144.533,112.479 141.580 C 112.762 140.725,113.163 139.413,113.371 138.664 C 113.759 137.260,114.986 133.982,115.721 132.383 C 115.950 131.885,116.398 130.777,116.716 129.922 C 117.035 129.067,117.729 127.377,118.260 126.166 C 119.539 123.246,120.632 120.282,121.366 117.746 C 121.696 116.606,122.097 115.338,122.258 114.928 C 122.419 114.519,122.730 112.945,122.949 111.431 C 123.168 109.917,123.532 108.003,123.758 107.177 C 124.256 105.355,124.104 102.368,123.327 98.705 C 123.040 97.351,122.803 95.809,122.801 95.277 C 122.799 94.746,122.514 93.580,122.168 92.686 C 121.821 91.793,121.367 90.538,121.158 89.896 C 119.717 85.459,117.429 81.101,113.472 75.256 C 113.258 74.940,112.747 74.112,112.337 73.416 C 111.927 72.720,111.354 71.809,111.064 71.391 C 101.019 56.929,109.278 45.073,130.829 43.017 C 133.899 42.724,133.982 42.726,136.418 43.121 M237.612 43.278 C 238.030 43.398,239.794 43.631,241.531 43.797 C 243.268 43.962,245.155 44.266,245.725 44.473 C 246.295 44.679,247.694 45.121,248.834 45.456 C 259.689 48.637,272.138 57.487,277.640 65.933 C 278.289 66.930,279.017 68.038,279.256 68.394 C 279.680 69.026,281.345 72.413,282.248 74.482 C 283.268 76.820,284.711 81.669,285.093 84.045 C 285.318 85.439,285.635 86.829,285.798 87.135 C 286.676 88.774,286.627 107.673,285.734 112.176 C 285.466 113.530,285.121 115.453,284.968 116.451 C 284.814 117.448,284.415 119.139,284.080 120.207 C 283.745 121.276,283.355 122.617,283.213 123.187 C 282.603 125.626,279.730 132.707,278.114 135.751 C 277.925 136.108,277.575 137.098,277.337 137.953 C 277.098 138.808,276.653 140.207,276.346 141.062 C 275.499 143.429,275.500 152.938,276.348 155.440 C 276.662 156.367,277.050 157.876,277.210 158.794 C 277.371 159.712,277.784 160.994,278.129 161.642 C 278.474 162.290,278.756 163.045,278.756 163.321 C 278.756 164.040,281.764 170.313,283.424 173.057 C 283.984 173.983,284.586 175.032,284.762 175.389 C 284.937 175.745,285.387 176.444,285.761 176.943 C 289.726 182.224,291.030 185.650,291.037 190.803 L 291.044 194.948 290.117 196.891 C 287.966 201.402,285.874 203.564,280.657 206.668 C 279.921 207.106,279.047 207.548,278.714 207.651 C 278.381 207.754,277.646 208.072,277.080 208.358 C 269.370 212.250,250.756 212.094,239.706 208.044 C 235.618 206.546,228.726 202.950,226.554 201.183 C 225.984 200.719,225.227 200.189,224.870 200.004 C 222.606 198.831,217.377 192.788,214.143 187.606 C 212.207 184.505,209.970 177.547,209.471 173.078 C 209.256 171.143,208.960 169.152,208.814 168.655 C 208.431 167.346,208.489 163.398,208.916 161.695 C 209.118 160.891,209.410 158.511,209.566 156.406 C 209.744 154.000,210.035 152.027,210.350 151.095 C 210.625 150.279,211.036 148.587,211.264 147.334 C 211.492 146.082,211.804 144.742,211.958 144.355 C 212.112 143.969,212.453 142.895,212.715 141.969 C 213.597 138.860,215.836 132.777,217.482 129.016 C 218.510 126.668,219.305 124.650,220.453 121.476 C 220.845 120.393,221.253 119.365,221.361 119.190 C 221.469 119.016,221.834 117.804,222.172 116.496 C 222.510 115.189,222.987 113.478,223.232 112.694 C 224.000 110.234,223.908 96.790,223.109 94.689 C 222.784 93.834,222.347 92.459,222.140 91.632 C 221.932 90.806,221.576 89.771,221.349 89.332 C 221.122 88.894,220.761 87.938,220.547 87.208 C 220.332 86.478,219.996 85.700,219.800 85.479 C 219.604 85.259,219.280 84.615,219.081 84.049 C 218.881 83.483,218.412 82.569,218.038 82.018 C 217.664 81.467,217.358 80.905,217.358 80.770 C 217.358 80.636,217.022 80.040,216.613 79.446 C 215.680 78.094,212.994 73.925,212.309 72.764 C 212.026 72.284,211.473 71.367,211.080 70.725 C 208.499 66.506,206.672 60.800,207.184 58.558 C 209.127 50.054,214.932 45.505,226.166 43.683 C 228.374 43.324,230.473 42.977,230.829 42.911 C 231.727 42.744,236.684 43.012,237.612 43.278 M129.274 52.858 C 128.062 52.948,126.835 53.148,126.547 53.302 C 126.260 53.456,125.277 53.776,124.365 54.012 C 119.733 55.212,115.819 58.844,116.892 60.945 C 117.128 61.408,117.402 62.079,117.500 62.435 C 117.698 63.154,118.139 63.894,121.010 68.331 C 123.723 72.523,125.264 75.094,126.424 77.361 C 126.966 78.421,127.524 79.431,127.664 79.606 C 128.220 80.298,130.592 86.416,131.253 88.860 C 132.967 95.204,133.068 95.843,133.302 101.790 C 133.493 106.624,133.131 112.411,132.515 114.378 C 132.292 115.091,131.885 116.665,131.609 117.876 C 131.006 120.529,129.975 123.729,129.123 125.589 C 128.779 126.340,128.497 127.168,128.497 127.428 C 128.497 127.689,128.221 128.423,127.882 129.059 C 127.544 129.695,127.183 130.500,127.081 130.846 C 126.978 131.193,126.567 132.234,126.167 133.161 C 124.268 137.562,122.994 140.968,122.274 143.569 C 122.010 144.520,121.606 145.664,121.375 146.111 C 121.144 146.558,120.795 147.819,120.600 148.915 C 120.405 150.010,120.057 151.353,119.826 151.898 C 119.595 152.443,119.302 154.084,119.173 155.545 C 119.045 157.005,118.678 159.684,118.358 161.499 C 117.852 164.371,117.814 165.038,118.066 166.660 C 118.225 167.685,118.597 170.133,118.893 172.100 C 119.189 174.067,119.600 176.002,119.806 176.400 C 120.012 176.798,120.320 177.695,120.492 178.394 C 121.153 181.091,125.874 188.226,128.101 189.896 C 128.577 190.253,129.589 191.088,130.352 191.752 C 133.526 194.517,139.452 197.691,144.041 199.083 C 145.110 199.407,146.317 199.806,146.724 199.969 C 147.130 200.133,148.646 200.442,150.092 200.657 C 151.537 200.872,153.114 201.176,153.596 201.332 C 154.728 201.700,163.616 201.695,164.570 201.326 C 164.960 201.175,166.378 200.874,167.721 200.658 C 173.640 199.706,178.669 196.578,180.675 192.602 L 181.428 191.109 180.974 189.920 C 180.723 189.266,180.403 188.323,180.260 187.824 C 180.118 187.325,179.794 186.684,179.539 186.399 C 179.285 186.114,178.878 185.489,178.635 185.009 C 178.393 184.530,177.706 183.423,177.109 182.548 C 175.148 179.679,170.725 171.457,170.725 170.683 C 170.725 170.485,170.560 170.086,170.357 169.796 C 169.949 169.214,168.006 163.913,167.089 160.881 C 166.766 159.812,166.296 157.247,166.044 155.181 C 165.793 153.115,165.437 150.757,165.254 149.941 C 164.989 148.758,164.985 148.047,165.232 146.443 C 165.404 145.336,165.786 142.798,166.083 140.803 C 166.379 138.808,166.834 136.693,167.093 136.102 C 167.352 135.511,167.646 134.637,167.746 134.159 C 167.847 133.681,168.604 131.891,169.429 130.181 C 170.253 128.472,171.013 126.781,171.118 126.425 C 171.222 126.069,171.406 125.652,171.528 125.499 C 171.816 125.137,173.652 119.519,174.188 117.358 C 174.418 116.431,174.773 115.071,174.977 114.335 C 175.181 113.599,175.485 111.384,175.653 109.413 C 175.821 107.442,176.120 105.130,176.317 104.275 C 176.791 102.225,176.784 96.710,176.306 94.135 C 176.097 93.015,175.795 90.842,175.634 89.305 C 174.465 78.160,167.717 67.399,157.902 61.024 C 157.047 60.469,156.030 59.800,155.642 59.539 C 148.892 54.982,137.960 52.212,129.274 52.858 M229.534 52.849 C 228.608 52.951,227.125 53.284,226.239 53.589 C 225.353 53.895,224.500 54.145,224.344 54.145 C 223.824 54.145,220.353 55.933,219.202 56.794 C 217.221 58.275,216.602 60.194,217.585 61.805 C 217.852 62.243,218.157 62.875,218.264 63.211 C 218.370 63.547,219.424 65.302,220.604 67.111 C 221.785 68.921,222.938 70.736,223.167 71.146 C 223.396 71.556,224.043 72.591,224.605 73.446 C 225.167 74.301,225.916 75.583,226.270 76.295 C 226.623 77.008,227.079 77.882,227.282 78.238 C 227.485 78.595,228.003 79.644,228.432 80.570 C 228.861 81.496,229.457 82.778,229.757 83.420 C 230.893 85.851,231.684 88.475,233.036 94.301 C 234.179 99.222,234.190 110.186,233.056 113.400 C 232.866 113.938,232.565 115.253,232.386 116.321 C 232.208 117.390,231.838 118.866,231.565 119.602 C 231.292 120.337,230.848 121.678,230.579 122.581 C 229.805 125.183,228.088 129.726,226.924 132.254 C 225.662 134.996,224.611 137.535,224.605 137.856 C 224.602 138.052,224.299 138.912,223.933 139.767 C 223.567 140.622,223.109 141.904,222.915 142.617 C 222.722 143.329,222.327 144.611,222.038 145.466 C 220.883 148.883,220.201 151.594,219.828 154.252 C 219.612 155.787,219.255 157.644,219.034 158.379 C 217.503 163.461,218.943 174.705,221.926 180.959 C 224.285 185.904,229.602 191.609,234.585 194.543 C 236.205 195.496,237.311 196.055,242.102 198.343 C 242.817 198.685,243.559 198.964,243.751 198.964 C 243.943 198.964,245.224 199.304,246.597 199.720 C 252.723 201.576,261.138 202.215,265.544 201.159 C 266.328 200.971,267.796 200.693,268.808 200.542 C 273.335 199.864,279.532 196.057,280.863 193.135 C 281.782 191.119,281.171 188.217,279.205 185.258 C 276.853 181.718,276.181 180.640,274.994 178.497 C 273.060 175.006,272.033 173.017,271.518 171.762 C 271.254 171.120,270.606 169.605,270.077 168.394 C 268.614 165.045,267.503 161.302,266.537 156.477 C 265.752 152.558,265.547 144.017,266.185 141.824 C 266.407 141.061,266.763 139.432,266.978 138.204 C 267.192 136.976,267.581 135.543,267.843 135.019 C 268.105 134.496,268.395 133.670,268.488 133.184 C 268.580 132.699,269.282 131.067,270.047 129.557 C 270.812 128.048,271.523 126.522,271.626 126.166 C 271.730 125.810,272.080 124.935,272.405 124.223 C 273.168 122.550,274.546 118.080,274.760 116.580 C 274.852 115.939,275.145 114.657,275.411 113.731 C 276.954 108.362,277.074 92.104,275.611 86.589 C 275.319 85.487,274.936 83.867,274.761 82.989 C 274.586 82.112,274.265 81.121,274.048 80.787 C 273.832 80.454,273.446 79.548,273.190 78.775 C 272.934 78.001,272.336 76.660,271.859 75.795 C 271.383 74.930,270.741 73.756,270.434 73.187 C 268.134 68.924,258.994 60.657,254.145 58.454 C 253.646 58.227,253.063 57.928,252.850 57.788 C 252.098 57.299,248.517 55.699,248.159 55.694 C 247.961 55.691,247.273 55.450,246.632 55.158 C 244.780 54.316,239.011 53.104,235.622 52.844 C 232.196 52.582,231.963 52.582,229.534 52.849 " stroke="none" fill="#ffffff" fill-rule="evenodd"></path></g></svg>