<svg id="svg" version="1.1" xmlns="http://www.w3.org/2000/svg" xmlns:xlink="http://www.w3.org/1999/xlink" width="400" height="258.91472868217056" viewBox="0, 0, 400,258.91472868217056"><g id="svgg"><path id="path0" d="M128.627 43.144 C 128.199 43.340,127.359 43.505,126.759 43.512 C 124.988 43.531,121.675 44.073,121.087 44.440 C 120.788 44.627,119.709 45.034,118.691 45.343 C 117.673 45.652,116.839 45.995,116.839 46.104 C 116.839 46.213,116.307 46.506,115.657 46.754 C 115.007 47.003,114.174 47.485,113.806 47.826 C 113.438 48.167,113.019 48.446,112.874 48.446 C 112.631 48.446,111.212 49.860,109.521 51.787 C 109.129 52.234,108.808 52.764,108.808 52.964 C 108.808 53.164,108.499 53.695,108.121 54.144 C 106.641 55.904,106.653 63.628,108.140 65.773 C 108.507 66.303,108.812 66.965,108.815 67.242 C 108.819 67.519,109.169 68.204,109.593 68.764 C 110.016 69.323,110.363 69.976,110.363 70.213 C 110.363 70.451,110.611 70.867,110.914 71.139 C 111.218 71.410,111.677 72.120,111.935 72.717 C 112.192 73.314,112.643 74.042,112.937 74.336 C 113.231 74.630,113.472 75.027,113.472 75.219 C 113.472 75.411,113.722 75.789,114.027 76.061 C 114.333 76.332,114.795 77.028,115.054 77.607 C 115.313 78.186,115.763 78.874,116.053 79.137 C 116.343 79.399,116.580 79.748,116.580 79.911 C 116.580 80.075,116.914 80.669,117.321 81.231 C 117.728 81.794,118.143 82.590,118.242 83.002 C 118.340 83.413,118.692 84.113,119.023 84.556 C 119.354 85.000,119.704 85.803,119.800 86.342 C 119.896 86.881,120.243 87.717,120.571 88.201 C 120.899 88.684,121.238 89.594,121.324 90.222 C 121.410 90.851,121.777 91.955,122.139 92.676 C 122.599 93.592,122.798 94.406,122.798 95.374 C 122.798 96.137,123.090 97.964,123.446 99.434 C 124.183 102.474,124.307 105.784,123.733 107.085 C 123.425 107.785,123.124 109.573,122.667 113.428 C 122.611 113.903,122.334 114.777,122.051 115.371 C 121.769 115.965,121.459 117.034,121.363 117.746 C 121.266 118.459,120.907 119.554,120.565 120.181 C 120.222 120.807,119.869 121.776,119.780 122.334 C 119.691 122.892,119.348 123.746,119.019 124.231 C 118.690 124.717,118.343 125.554,118.248 126.093 C 118.153 126.632,117.739 127.607,117.328 128.261 C 116.917 128.915,116.580 129.744,116.580 130.103 C 116.580 130.463,116.295 131.177,115.946 131.692 C 115.597 132.206,115.234 133.067,115.140 133.606 C 115.045 134.145,114.694 135.087,114.360 135.700 C 114.025 136.313,113.635 137.445,113.493 138.215 C 113.351 138.985,112.988 140.099,112.686 140.689 C 112.385 141.279,112.030 142.436,111.898 143.259 C 111.765 144.082,111.419 145.294,111.128 145.951 C 110.837 146.609,110.485 148.146,110.347 149.367 C 110.208 150.588,109.932 151.842,109.733 152.153 C 108.354 154.317,108.192 173.662,109.529 176.446 C 109.831 177.076,110.194 178.316,110.334 179.202 C 110.475 180.088,110.889 181.322,111.254 181.945 C 111.619 182.567,111.917 183.304,111.917 183.582 C 111.917 183.860,112.163 184.549,112.464 185.114 C 112.765 185.678,113.189 186.490,113.408 186.917 C 113.626 187.345,114.079 188.065,114.415 188.519 C 114.751 188.973,115.026 189.483,115.026 189.653 C 115.026 189.824,115.405 190.406,115.868 190.948 C 116.331 191.490,117.060 192.418,117.487 193.010 C 117.915 193.601,118.643 194.488,119.106 194.979 C 119.569 195.470,119.948 195.987,119.948 196.128 C 119.948 196.269,120.237 196.516,120.591 196.677 C 120.944 196.838,121.298 197.173,121.377 197.421 C 121.455 197.669,121.866 198.015,122.288 198.190 C 122.711 198.365,123.057 198.582,123.057 198.671 C 123.058 198.761,123.641 199.231,124.353 199.717 C 125.065 200.202,125.648 200.704,125.648 200.831 C 125.648 200.958,126.051 201.231,126.545 201.438 C 127.039 201.644,127.559 202.031,127.702 202.297 C 127.844 202.563,128.340 202.857,128.803 202.950 C 129.266 203.042,129.940 203.393,130.302 203.730 C 130.663 204.066,131.382 204.477,131.899 204.642 C 132.416 204.807,133.038 205.162,133.282 205.431 C 133.526 205.701,134.185 205.999,134.747 206.093 C 135.309 206.188,136.086 206.532,136.473 206.857 C 136.860 207.181,137.701 207.531,138.342 207.634 C 138.983 207.738,139.974 208.087,140.544 208.411 C 141.114 208.736,142.280 209.086,143.135 209.190 C 143.990 209.294,145.153 209.602,145.721 209.876 C 149.038 211.476,168.721 211.461,171.869 209.856 C 172.387 209.592,173.502 209.296,174.346 209.198 C 175.400 209.075,176.105 208.828,176.591 208.410 C 176.981 208.075,177.731 207.728,178.259 207.639 C 178.787 207.550,179.483 207.195,179.806 206.851 C 180.129 206.507,180.786 206.152,181.265 206.062 C 181.745 205.972,182.280 205.697,182.455 205.452 C 182.629 205.206,183.031 204.867,183.347 204.699 C 183.868 204.423,186.513 201.834,188.044 200.102 C 188.378 199.723,188.777 199.050,188.930 198.606 C 189.082 198.161,189.508 197.340,189.876 196.781 C 190.537 195.775,190.544 195.708,190.544 190.693 L 190.544 185.622 189.702 184.096 C 189.239 183.256,188.857 182.440,188.853 182.282 C 188.849 182.124,188.499 181.537,188.076 180.977 C 187.652 180.417,187.306 179.823,187.306 179.655 C 187.306 179.488,186.956 178.985,186.528 178.538 C 186.101 178.091,185.751 177.625,185.751 177.504 C 185.751 177.382,185.457 176.944,185.097 176.530 C 184.737 176.116,184.370 175.486,184.281 175.130 C 184.192 174.773,183.787 174.099,183.381 173.631 C 182.975 173.163,182.642 172.513,182.642 172.186 C 182.642 171.860,182.354 171.322,182.002 170.992 C 181.650 170.661,181.230 169.990,181.068 169.500 C 180.907 169.011,180.497 168.124,180.157 167.531 C 179.818 166.937,179.539 166.211,179.537 165.918 C 179.535 165.625,179.244 164.992,178.889 164.512 C 178.535 164.031,178.170 163.222,178.079 162.713 C 177.988 162.204,177.632 161.183,177.288 160.443 C 176.891 159.592,176.563 158.216,176.392 156.689 C 176.244 155.363,176.007 154.207,175.865 154.119 C 175.723 154.031,175.494 153.156,175.357 152.174 C 175.220 151.192,175.037 149.878,174.951 149.253 C 174.755 147.822,175.321 143.127,175.813 142.105 C 176.017 141.681,176.289 140.597,176.416 139.697 C 176.548 138.770,176.937 137.567,177.314 136.924 C 177.680 136.300,177.979 135.539,177.979 135.235 C 177.979 134.559,178.405 133.706,179.051 133.086 C 179.316 132.831,179.534 132.352,179.534 132.021 C 179.534 131.690,179.816 131.003,180.162 130.494 C 180.508 129.984,180.978 128.836,181.207 127.943 C 181.436 127.049,181.798 126.125,182.011 125.889 C 182.224 125.653,182.508 124.792,182.641 123.974 C 182.948 122.084,183.138 121.469,183.565 120.980 C 183.754 120.765,184.037 119.548,184.195 118.278 C 184.353 117.007,184.724 115.260,185.019 114.396 C 186.482 110.111,186.472 89.092,185.006 84.912 C 184.719 84.094,184.359 82.528,184.207 81.430 C 184.054 80.333,183.773 79.254,183.582 79.031 C 183.129 78.505,182.644 77.045,182.638 76.192 C 182.635 75.821,182.285 75.005,181.861 74.378 C 181.436 73.751,181.086 72.993,181.083 72.694 C 181.081 72.395,180.731 71.637,180.306 71.010 C 179.881 70.383,179.534 69.675,179.534 69.436 C 179.534 69.198,179.246 68.732,178.894 68.401 C 178.541 68.070,178.116 67.382,177.947 66.872 C 177.779 66.362,177.368 65.730,177.033 65.467 C 176.699 65.204,176.425 64.843,176.425 64.665 C 176.425 64.488,176.163 64.100,175.842 63.803 C 175.521 63.507,174.793 62.711,174.223 62.035 C 173.186 60.803,170.574 58.221,168.960 56.829 C 168.488 56.421,167.791 55.767,167.413 55.376 C 167.034 54.984,166.593 54.663,166.433 54.663 C 166.273 54.663,165.920 54.417,165.649 54.117 C 165.378 53.817,164.616 53.297,163.957 52.963 C 163.298 52.629,162.690 52.175,162.605 51.955 C 162.521 51.735,162.289 51.554,162.090 51.554 C 161.892 51.554,161.289 51.205,160.751 50.777 C 160.213 50.350,159.565 50.000,159.311 50.000 C 159.056 50.000,158.486 49.695,158.044 49.323 C 157.601 48.951,156.747 48.536,156.146 48.401 C 155.544 48.265,154.819 47.947,154.534 47.693 C 154.249 47.439,153.346 47.047,152.527 46.822 C 151.708 46.597,150.868 46.241,150.659 46.032 C 150.450 45.823,149.487 45.515,148.520 45.346 C 147.553 45.178,146.412 44.827,145.985 44.566 C 145.230 44.106,142.924 43.740,138.538 43.383 C 137.435 43.294,136.466 43.114,136.385 42.983 C 136.146 42.596,129.525 42.733,128.627 43.144 M229.534 42.984 C 229.320 43.106,227.576 43.404,225.659 43.646 C 223.705 43.892,221.770 44.286,221.255 44.541 C 220.750 44.791,219.754 45.149,219.041 45.335 C 218.329 45.521,217.513 45.870,217.228 46.111 C 216.943 46.351,216.302 46.702,215.803 46.891 C 215.304 47.079,214.599 47.506,214.235 47.839 C 213.871 48.173,213.459 48.446,213.321 48.446 C 213.182 48.446,212.762 48.766,212.388 49.158 C 212.013 49.550,211.583 49.987,211.432 50.130 C 210.640 50.875,209.585 52.117,209.585 52.303 C 209.585 52.419,209.303 52.820,208.958 53.192 C 208.582 53.597,208.206 54.471,208.022 55.367 C 207.852 56.191,207.551 57.180,207.354 57.565 C 206.885 58.478,206.897 60.279,207.380 61.647 C 207.591 62.247,207.897 63.499,208.059 64.430 C 208.244 65.492,208.537 66.279,208.847 66.544 C 209.119 66.777,209.466 67.430,209.618 67.997 C 209.771 68.564,210.176 69.360,210.518 69.767 C 210.860 70.173,211.140 70.647,211.140 70.820 C 211.140 70.992,211.485 71.537,211.907 72.031 C 212.328 72.524,212.678 73.114,212.684 73.343 C 212.690 73.572,213.001 74.090,213.376 74.494 C 213.751 74.899,214.208 75.589,214.391 76.027 C 214.574 76.465,214.967 77.044,215.264 77.312 C 215.560 77.581,215.803 77.941,215.803 78.113 C 215.803 78.285,216.155 78.870,216.586 79.412 C 217.017 79.953,217.443 80.698,217.532 81.066 C 217.622 81.435,217.956 82.002,218.276 82.327 C 218.596 82.652,218.938 83.348,219.037 83.874 C 219.135 84.400,219.482 85.096,219.806 85.421 C 220.158 85.773,220.459 86.471,220.552 87.153 C 220.639 87.781,220.988 88.706,221.330 89.209 C 221.721 89.786,222.015 90.696,222.125 91.671 C 222.222 92.522,222.456 93.347,222.646 93.505 C 224.232 94.821,224.392 110.520,222.852 113.772 C 222.560 114.391,222.199 115.708,222.050 116.699 C 221.901 117.691,221.562 118.798,221.298 119.160 C 221.033 119.522,220.683 120.490,220.520 121.310 C 220.357 122.130,219.929 123.235,219.568 123.766 C 219.207 124.297,218.912 125.038,218.912 125.413 C 218.912 125.787,218.632 126.505,218.291 127.009 C 217.949 127.512,217.586 128.315,217.483 128.793 C 217.380 129.272,216.961 130.304,216.550 131.088 C 216.140 131.872,215.804 132.759,215.804 133.060 C 215.803 133.360,215.527 134.013,215.190 134.510 C 214.853 135.007,214.450 136.134,214.295 137.016 C 214.139 137.897,213.785 138.938,213.508 139.327 C 213.230 139.717,212.919 140.617,212.817 141.326 C 212.714 142.036,212.348 143.296,212.003 144.127 C 211.658 144.957,211.252 146.640,211.102 147.867 C 210.952 149.093,210.678 150.337,210.492 150.631 C 209.953 151.487,209.640 153.496,209.441 157.383 C 209.320 159.751,209.133 161.188,208.903 161.521 C 208.433 162.201,208.406 168.175,208.869 168.994 C 209.045 169.305,209.317 171.202,209.474 173.210 C 209.691 175.993,209.891 177.134,210.316 178.012 C 210.622 178.645,210.993 179.800,211.139 180.579 C 211.285 181.358,211.635 182.308,211.915 182.690 C 212.196 183.072,212.547 183.930,212.696 184.595 C 212.845 185.260,213.242 186.171,213.578 186.620 C 213.914 187.068,214.276 187.722,214.383 188.073 C 214.490 188.424,214.853 188.928,215.190 189.193 C 215.527 189.458,215.803 189.830,215.803 190.020 C 215.803 190.210,216.211 190.854,216.710 191.451 C 217.209 192.048,217.617 192.653,217.617 192.796 C 217.617 192.939,217.937 193.380,218.329 193.776 C 224.081 199.589,224.240 199.741,224.557 199.741 C 224.796 199.741,225.229 200.058,227.850 202.147 C 228.277 202.488,229.015 202.899,229.488 203.061 C 229.962 203.222,230.700 203.649,231.127 204.009 C 231.555 204.369,232.079 204.663,232.291 204.663 C 232.503 204.663,233.058 204.954,233.523 205.309 C 233.989 205.664,234.768 206.029,235.255 206.121 C 235.742 206.212,236.490 206.545,236.917 206.861 C 237.345 207.177,238.154 207.520,238.716 207.625 C 239.278 207.729,240.273 208.085,240.926 208.417 C 241.580 208.748,242.694 209.097,243.402 209.192 C 244.110 209.288,245.505 209.637,246.503 209.969 C 251.269 211.555,269.012 211.493,272.226 209.880 C 272.754 209.615,273.809 209.318,274.570 209.220 C 275.332 209.123,276.381 208.766,276.902 208.427 C 277.423 208.088,278.333 207.684,278.924 207.529 C 279.515 207.375,280.063 207.081,280.141 206.877 C 280.219 206.673,280.747 206.367,281.314 206.197 C 281.881 206.027,282.711 205.554,283.158 205.146 C 283.604 204.738,284.088 204.404,284.232 204.404 C 284.554 204.404,288.083 200.794,288.083 200.465 C 288.083 200.335,288.425 199.798,288.844 199.272 C 289.262 198.746,289.689 197.966,289.793 197.539 C 289.896 197.111,290.261 196.336,290.604 195.816 C 291.499 194.457,291.423 186.645,290.502 185.354 C 290.193 184.922,289.856 184.106,289.752 183.540 C 289.648 182.975,289.230 182.130,288.823 181.662 C 288.416 181.194,288.083 180.656,288.083 180.467 C 288.083 180.278,287.733 179.683,287.306 179.145 C 286.878 178.607,286.528 178.037,286.528 177.878 C 286.528 177.719,286.188 177.267,285.771 176.874 C 285.355 176.481,284.936 175.803,284.840 175.368 C 284.744 174.933,284.511 174.517,284.322 174.444 C 284.133 174.372,283.790 173.841,283.559 173.265 C 283.329 172.690,282.853 171.843,282.503 171.383 C 282.152 170.923,281.865 170.377,281.865 170.168 C 281.865 169.960,281.586 169.411,281.245 168.949 C 280.904 168.487,280.496 167.597,280.338 166.971 C 280.181 166.346,279.934 165.761,279.789 165.671 C 279.391 165.425,278.756 163.760,278.756 162.961 C 278.756 162.573,278.523 161.986,278.237 161.657 C 277.661 160.992,277.332 159.905,277.064 157.772 C 276.966 156.988,276.792 156.231,276.678 156.088 C 275.340 154.413,275.247 142.555,276.555 140.517 C 276.748 140.217,276.982 139.518,277.076 138.963 C 277.344 137.371,277.755 136.191,278.276 135.522 C 278.540 135.182,278.756 134.645,278.756 134.328 C 278.756 134.011,279.065 133.298,279.442 132.743 C 279.819 132.189,280.237 131.338,280.372 130.853 C 280.507 130.367,280.885 129.551,281.212 129.039 C 281.540 128.527,281.882 127.602,281.973 126.983 C 282.064 126.363,282.427 125.315,282.779 124.653 C 283.131 123.991,283.420 123.149,283.420 122.782 C 283.420 122.003,284.145 119.430,284.480 119.018 C 284.607 118.862,284.897 117.288,285.124 115.520 C 285.352 113.752,285.732 111.898,285.968 111.399 C 286.620 110.028,286.622 88.291,285.971 87.306 C 285.470 86.548,285.302 85.820,284.999 83.111 C 284.876 82.014,284.530 80.611,284.231 79.993 C 283.932 79.374,283.574 78.277,283.438 77.555 C 283.301 76.834,282.936 75.815,282.628 75.292 C 282.319 74.769,281.962 73.877,281.835 73.309 C 281.707 72.741,281.377 72.050,281.100 71.774 C 280.824 71.497,280.470 70.799,280.315 70.223 C 280.160 69.647,279.746 68.889,279.395 68.538 C 279.044 68.186,278.756 67.740,278.756 67.545 C 278.756 67.351,278.407 66.800,277.979 66.321 C 277.552 65.842,277.202 65.298,277.202 65.111 C 277.202 64.924,276.852 64.459,276.425 64.078 C 275.997 63.697,275.648 63.283,275.648 63.157 C 275.648 63.032,275.093 62.374,274.415 61.696 C 273.738 61.019,272.977 60.150,272.725 59.766 C 272.474 59.382,272.156 59.067,272.020 59.067 C 271.884 59.067,271.142 58.426,270.370 57.642 C 269.599 56.859,268.847 56.218,268.700 56.218 C 268.552 56.218,268.215 55.942,267.950 55.605 C 267.685 55.268,267.122 54.814,266.700 54.595 C 266.277 54.377,265.710 53.953,265.439 53.653 C 265.167 53.354,264.793 53.109,264.606 53.109 C 264.419 53.109,263.868 52.759,263.382 52.332 C 262.895 51.904,262.375 51.554,262.227 51.554 C 262.078 51.554,261.607 51.260,261.179 50.900 C 260.751 50.540,260.016 50.111,259.544 49.947 C 259.073 49.782,258.462 49.438,258.187 49.182 C 257.912 48.926,257.065 48.536,256.305 48.315 C 255.544 48.094,254.922 47.814,254.922 47.693 C 254.922 47.444,253.984 47.045,252.495 46.658 C 251.944 46.515,251.303 46.232,251.070 46.030 C 250.838 45.828,249.832 45.516,248.834 45.338 C 247.837 45.160,246.640 44.785,246.175 44.504 C 245.520 44.110,244.522 43.935,241.770 43.735 C 239.814 43.593,237.830 43.312,237.362 43.111 C 236.406 42.701,230.204 42.600,229.534 42.984 M139.420 53.212 C 139.896 53.436,141.328 53.801,142.602 54.022 C 143.877 54.243,145.276 54.635,145.711 54.893 C 146.146 55.150,147.164 55.502,147.972 55.674 C 148.780 55.846,149.576 56.149,149.741 56.347 C 149.905 56.545,150.612 56.898,151.312 57.130 C 152.012 57.362,152.655 57.666,152.741 57.806 C 152.827 57.945,153.528 58.338,154.298 58.678 C 155.069 59.019,155.699 59.410,155.699 59.546 C 155.699 59.682,156.020 59.908,156.412 60.047 C 156.804 60.187,157.572 60.660,158.119 61.099 C 158.665 61.538,159.336 61.967,159.608 62.054 C 159.881 62.140,160.104 62.322,160.104 62.456 C 160.104 62.591,160.483 62.931,160.946 63.211 C 162.044 63.875,167.565 69.360,168.022 70.241 C 168.216 70.615,168.554 70.990,168.773 71.074 C 168.992 71.159,169.171 71.390,169.171 71.588 C 169.171 71.787,169.521 72.390,169.948 72.927 C 170.376 73.465,170.725 74.048,170.725 74.222 C 170.725 74.397,171.034 74.993,171.412 75.547 C 171.790 76.101,172.264 77.181,172.465 77.948 C 172.667 78.714,173.049 79.647,173.314 80.020 C 173.580 80.394,173.935 81.399,174.105 82.254 C 174.274 83.109,174.615 84.216,174.862 84.715 C 175.158 85.311,175.411 86.821,175.600 89.119 C 175.759 91.043,176.066 93.199,176.283 93.912 C 176.814 95.652,176.849 103.066,176.331 104.093 C 176.138 104.478,175.901 105.842,175.807 107.124 C 175.409 112.497,175.193 114.163,174.789 114.938 C 174.555 115.388,174.185 116.779,173.967 118.029 C 173.749 119.278,173.410 120.484,173.214 120.707 C 173.018 120.931,172.678 121.911,172.460 122.884 C 172.241 123.858,171.888 124.849,171.676 125.086 C 171.464 125.324,171.097 126.187,170.861 127.005 C 170.625 127.822,170.278 128.580,170.090 128.689 C 169.902 128.797,169.551 129.469,169.311 130.181 C 169.071 130.894,168.712 131.656,168.513 131.876 C 168.315 132.096,167.965 133.086,167.735 134.078 C 167.506 135.070,167.145 136.072,166.934 136.306 C 166.691 136.576,166.412 137.950,166.172 140.063 C 165.963 141.895,165.620 144.112,165.409 144.991 C 164.929 146.991,164.918 149.369,165.382 150.686 C 165.578 151.242,165.817 152.685,165.913 153.892 C 166.192 157.407,166.602 159.895,167.002 160.506 C 167.207 160.819,167.483 161.746,167.617 162.567 C 167.751 163.388,168.110 164.539,168.416 165.126 C 168.722 165.712,169.134 166.808,169.330 167.562 C 169.527 168.316,169.921 169.183,170.207 169.489 C 170.492 169.795,170.725 170.356,170.725 170.735 C 170.725 171.114,171.073 171.938,171.498 172.565 C 171.923 173.192,172.272 173.883,172.275 174.102 C 172.278 174.321,172.688 175.133,173.187 175.908 C 173.686 176.682,174.167 177.544,174.255 177.822 C 174.343 178.100,174.625 178.553,174.881 178.827 C 175.136 179.101,175.421 179.629,175.514 179.999 C 175.607 180.369,176.025 181.061,176.443 181.536 C 176.860 182.012,177.202 182.552,177.202 182.736 C 177.202 182.920,177.487 183.338,177.836 183.666 C 178.185 183.994,178.542 184.588,178.630 184.988 C 178.718 185.387,179.062 185.892,179.396 186.111 C 179.805 186.379,180.062 186.870,180.184 187.619 C 180.284 188.231,180.586 189.094,180.856 189.538 C 181.476 190.558,181.478 191.315,180.863 192.188 C 180.597 192.566,180.292 193.156,180.185 193.499 C 179.922 194.344,176.693 197.409,176.066 197.409 C 175.880 197.409,175.515 197.645,175.254 197.933 C 174.993 198.222,174.129 198.643,173.335 198.870 C 172.541 199.097,171.714 199.438,171.498 199.627 C 171.026 200.040,169.422 200.403,166.974 200.649 C 165.980 200.749,164.934 200.994,164.650 201.193 C 163.906 201.713,154.428 201.714,153.420 201.193 C 153.035 200.994,151.904 200.754,150.907 200.658 C 148.242 200.404,146.421 200.011,146.013 199.603 C 145.815 199.405,144.923 199.126,144.031 198.982 C 143.064 198.826,142.027 198.456,141.462 198.065 C 140.942 197.704,140.252 197.409,139.930 197.409 C 139.263 197.409,138.449 197.033,137.694 196.375 C 137.409 196.126,136.882 195.854,136.523 195.769 C 136.164 195.685,135.622 195.385,135.319 195.102 C 135.016 194.820,134.377 194.409,133.899 194.189 C 132.789 193.678,130.956 192.317,129.361 190.819 C 128.672 190.172,127.905 189.575,127.655 189.493 C 127.406 189.411,127.202 189.242,127.202 189.118 C 127.202 188.994,126.386 187.946,125.389 186.788 C 124.391 185.630,123.575 184.469,123.575 184.208 C 123.575 183.947,123.395 183.665,123.175 183.581 C 122.955 183.496,122.606 183.025,122.401 182.533 C 122.196 182.042,121.749 181.228,121.407 180.725 C 121.066 180.223,120.711 179.307,120.619 178.691 C 120.526 178.074,120.177 177.030,119.843 176.370 C 119.415 175.525,119.182 174.493,119.055 172.883 C 118.956 171.625,118.635 169.553,118.342 168.279 C 117.791 165.883,117.796 163.905,118.360 161.399 C 118.901 158.995,119.171 157.046,119.171 155.537 C 119.171 154.060,119.754 151.470,120.214 150.904 C 120.331 150.760,120.512 149.886,120.617 148.961 C 120.810 147.248,121.294 145.756,121.746 145.476 C 121.884 145.391,122.076 144.618,122.174 143.759 C 122.281 142.805,122.578 141.861,122.935 141.335 C 123.257 140.861,123.605 139.965,123.710 139.343 C 123.814 138.721,124.235 137.584,124.644 136.816 C 125.054 136.048,125.389 135.171,125.389 134.868 C 125.389 134.565,125.661 133.911,125.994 133.415 C 126.328 132.919,126.736 131.963,126.902 131.292 C 127.069 130.620,127.496 129.642,127.851 129.118 C 128.207 128.595,128.497 127.797,128.497 127.346 C 128.497 126.886,128.772 126.154,129.122 125.679 C 129.492 125.177,129.866 124.145,130.041 123.141 C 130.203 122.210,130.562 121.140,130.838 120.763 C 131.146 120.342,131.448 119.278,131.619 118.005 C 131.772 116.865,132.136 115.433,132.428 114.821 C 133.812 111.920,133.660 95.251,132.224 92.438 C 132.028 92.054,131.749 90.888,131.603 89.847 C 131.445 88.718,131.129 87.668,130.820 87.246 C 130.535 86.856,130.229 86.002,130.139 85.348 C 130.049 84.693,129.713 83.771,129.393 83.298 C 129.072 82.825,128.623 81.797,128.395 81.014 C 128.167 80.231,127.812 79.525,127.605 79.446 C 127.398 79.366,127.100 78.823,126.943 78.238 C 126.785 77.653,126.441 76.959,126.178 76.696 C 125.914 76.432,125.614 75.943,125.511 75.608 C 125.408 75.274,124.988 74.540,124.579 73.977 C 124.169 73.415,123.834 72.807,123.834 72.626 C 123.834 72.446,123.500 71.915,123.092 71.447 C 122.684 70.979,122.259 70.304,122.149 69.948 C 122.039 69.592,121.673 69.044,121.337 68.730 C 121.001 68.416,120.725 67.999,120.725 67.804 C 120.725 67.608,120.437 67.177,120.085 66.846 C 119.733 66.516,119.314 65.849,119.154 65.364 C 118.994 64.879,118.596 64.216,118.270 63.889 C 117.943 63.563,117.595 62.817,117.497 62.233 C 117.398 61.648,117.151 61.032,116.949 60.864 C 116.512 60.502,116.460 59.432,116.866 59.181 C 117.023 59.084,117.318 58.606,117.521 58.120 C 117.727 57.626,118.173 57.128,118.531 56.992 C 118.883 56.858,119.171 56.629,119.171 56.484 C 119.171 56.338,119.725 55.942,120.402 55.604 C 121.078 55.266,121.993 54.800,122.434 54.568 C 122.876 54.336,123.855 54.029,124.611 53.886 C 125.367 53.743,126.128 53.507,126.303 53.362 C 127.306 52.529,137.720 52.410,139.420 53.212 M240.026 53.320 C 240.881 53.607,242.163 53.917,242.876 54.008 C 244.342 54.195,245.921 54.644,246.114 54.930 C 246.185 55.035,246.996 55.313,247.916 55.548 C 248.836 55.783,249.775 56.143,250.001 56.348 C 250.228 56.553,251.032 56.921,251.788 57.165 C 252.543 57.409,253.220 57.761,253.291 57.947 C 253.363 58.132,253.888 58.410,254.460 58.564 C 255.031 58.718,255.747 59.102,256.052 59.417 C 256.357 59.732,256.906 60.120,257.272 60.279 C 258.159 60.664,260.881 62.710,260.881 62.991 C 260.881 63.113,261.048 63.212,261.251 63.212 C 261.672 63.212,268.394 69.731,268.394 70.139 C 268.394 70.285,268.724 70.739,269.128 71.148 C 269.531 71.557,270.018 72.299,270.209 72.798 C 270.400 73.297,270.769 73.913,271.029 74.168 C 271.290 74.423,271.503 74.786,271.503 74.974 C 271.503 75.162,271.811 75.770,272.188 76.324 C 272.564 76.878,273.029 78.000,273.220 78.817 C 273.411 79.634,273.785 80.521,274.052 80.787 C 274.362 81.098,274.601 81.844,274.717 82.869 C 274.816 83.747,275.170 85.192,275.503 86.080 C 277.036 90.166,276.968 109.916,275.409 113.554 C 275.140 114.182,274.838 115.499,274.739 116.480 C 274.640 117.461,274.385 118.614,274.173 119.041 C 273.721 119.951,273.176 121.755,272.946 123.097 C 272.857 123.617,272.622 124.105,272.425 124.181 C 272.227 124.257,271.917 124.984,271.735 125.796 C 271.553 126.609,271.208 127.462,270.969 127.691 C 270.729 127.921,270.378 128.575,270.188 129.145 C 269.998 129.715,269.649 130.415,269.413 130.699 C 268.905 131.312,268.394 132.745,268.394 133.553 C 268.394 133.869,268.182 134.405,267.923 134.745 C 267.421 135.403,266.939 137.355,266.733 139.561 C 266.664 140.303,266.400 141.226,266.146 141.613 C 265.559 142.510,265.471 151.931,266.032 153.886 C 266.449 155.339,266.732 156.799,267.111 159.456 C 267.273 160.596,267.567 161.709,267.763 161.929 C 267.959 162.150,268.301 163.193,268.523 164.249 C 268.745 165.304,269.099 166.358,269.309 166.590 C 269.519 166.822,269.877 167.644,270.104 168.415 C 270.331 169.187,270.665 169.994,270.847 170.207 C 271.028 170.421,271.384 171.237,271.636 172.021 C 271.889 172.804,272.244 173.534,272.426 173.641 C 272.608 173.749,272.953 174.428,273.193 175.150 C 273.433 175.871,273.786 176.522,273.977 176.595 C 274.169 176.669,274.508 177.277,274.730 177.946 C 274.952 178.616,275.366 179.362,275.650 179.605 C 275.934 179.848,276.166 180.219,276.166 180.429 C 276.166 180.639,276.500 181.194,276.908 181.662 C 277.316 182.130,277.737 182.804,277.844 183.161 C 277.950 183.517,278.290 184.100,278.600 184.456 C 281.484 187.780,282.172 192.297,280.106 194.343 C 279.720 194.725,279.288 195.158,279.145 195.305 C 278.279 196.197,276.795 197.410,276.565 197.414 C 276.417 197.417,275.797 197.757,275.188 198.170 C 274.578 198.583,273.617 198.999,273.052 199.094 C 272.486 199.190,271.953 199.382,271.867 199.520 C 271.596 199.959,270.406 200.288,268.176 200.542 C 266.988 200.677,265.682 200.961,265.274 201.171 C 264.214 201.720,254.931 201.727,253.926 201.180 C 253.548 200.974,252.038 200.690,250.570 200.549 C 248.860 200.385,247.508 200.102,246.805 199.762 C 246.201 199.470,245.128 199.121,244.421 198.986 C 242.752 198.669,241.710 198.266,241.710 197.937 C 241.710 197.793,241.236 197.599,240.657 197.506 C 240.078 197.414,239.233 197.087,238.779 196.781 C 238.325 196.475,237.558 196.062,237.074 195.863 C 236.591 195.665,235.903 195.232,235.547 194.901 C 235.190 194.571,234.693 194.301,234.443 194.301 C 233.912 194.301,232.549 193.266,229.194 190.318 C 227.316 188.667,224.615 185.769,224.601 185.390 C 224.595 185.232,224.245 184.700,223.824 184.207 C 223.402 183.713,223.057 183.109,223.057 182.863 C 223.057 182.617,222.707 182.032,222.280 181.564 C 221.829 181.071,221.503 180.427,221.503 180.033 C 221.503 179.658,221.199 178.781,220.827 178.083 C 220.455 177.385,220.045 176.064,219.915 175.148 C 219.784 174.232,219.509 172.983,219.302 172.373 C 218.276 169.353,218.145 160.015,219.103 158.178 C 219.335 157.733,219.663 155.978,219.850 154.187 C 220.066 152.110,220.364 150.613,220.701 149.912 C 220.986 149.319,221.336 148.094,221.480 147.189 C 221.624 146.284,221.975 145.148,222.261 144.663 C 222.546 144.179,222.858 143.193,222.954 142.471 C 223.050 141.750,223.397 140.763,223.725 140.280 C 224.053 139.796,224.441 138.755,224.587 137.966 C 224.733 137.177,225.082 136.211,225.364 135.818 C 225.645 135.425,226.010 134.583,226.175 133.947 C 226.340 133.311,226.694 132.512,226.961 132.172 C 227.229 131.832,227.522 131.128,227.612 130.608 C 227.702 130.089,228.044 129.255,228.371 128.756 C 228.698 128.258,229.091 127.245,229.244 126.506 C 229.396 125.767,229.754 124.780,230.038 124.313 C 230.322 123.845,230.631 122.934,230.724 122.288 C 230.817 121.642,231.171 120.517,231.512 119.787 C 231.857 119.047,232.250 117.512,232.399 116.317 C 232.547 115.138,232.834 113.852,233.038 113.459 C 234.097 111.409,234.303 97.847,233.312 95.337 C 233.059 94.696,232.743 93.472,232.609 92.617 C 232.153 89.702,231.850 88.496,231.468 88.074 C 231.258 87.842,230.962 86.962,230.810 86.119 C 230.657 85.275,230.249 84.171,229.904 83.665 C 229.558 83.158,229.275 82.506,229.275 82.214 C 229.275 81.923,228.927 81.171,228.502 80.544 C 228.077 79.917,227.728 79.158,227.725 78.857 C 227.722 78.555,227.441 78.030,227.099 77.688 C 226.758 77.346,226.346 76.577,226.185 75.978 C 226.024 75.379,225.662 74.729,225.382 74.532 C 225.102 74.336,224.736 73.778,224.570 73.292 C 224.403 72.807,223.995 72.153,223.662 71.839 C 223.329 71.525,223.057 71.092,223.057 70.876 C 223.057 70.661,222.723 70.101,222.315 69.633 C 221.907 69.165,221.482 68.491,221.371 68.135 C 221.260 67.778,220.969 67.346,220.724 67.174 C 220.479 67.001,220.125 66.489,219.937 66.035 C 219.749 65.582,219.337 64.932,219.022 64.592 C 218.706 64.251,218.375 63.580,218.285 63.101 C 218.195 62.621,217.950 62.086,217.740 61.912 C 216.399 60.799,217.342 57.446,219.159 56.869 C 219.424 56.785,219.704 56.553,219.780 56.354 C 219.983 55.826,223.530 54.189,225.130 53.886 C 225.885 53.743,226.641 53.511,226.809 53.371 C 227.917 52.452,237.340 52.415,240.026 53.320 " stroke="none" fill="#19a657" fill-rule="evenodd"></path><path id="path1" d="M0.000 129.534 L 0.000 259.067 200.000 259.067 L 400.000 259.067 400.000 129.534 L 400.000 0.000 200.000 0.000 L 0.000 0.000 0.000 129.534 M136.385 42.983 C 136.466 43.114,137.435 43.294,138.538 43.383 C 142.924 43.740,145.230 44.106,145.985 44.566 C 146.412 44.827,147.553 45.178,148.520 45.346 C 149.487 45.515,150.450 45.823,150.659 46.032 C 150.868 46.241,151.708 46.597,152.527 46.822 C 153.346 47.047,154.249 47.439,154.534 47.693 C 154.819 47.947,155.544 48.265,156.146 48.401 C 156.747 48.536,157.601 48.951,158.044 49.323 C 158.486 49.695,159.056 50.000,159.311 50.000 C 159.565 50.000,160.213 50.350,160.751 50.777 C 161.289 51.205,161.892 51.554,162.090 51.554 C 162.289 51.554,162.521 51.735,162.605 51.955 C 162.690 52.175,163.298 52.629,163.957 52.963 C 164.616 53.297,165.378 53.817,165.649 54.117 C 165.920 54.417,166.273 54.663,166.433 54.663 C 166.593 54.663,167.034 54.984,167.413 55.376 C 167.791 55.767,168.488 56.421,168.960 56.829 C 170.574 58.221,173.186 60.803,174.223 62.035 C 174.793 62.711,175.521 63.507,175.842 63.803 C 176.163 64.100,176.425 64.488,176.425 64.665 C 176.425 64.843,176.699 65.204,177.033 65.467 C 177.368 65.730,177.779 66.362,177.947 66.872 C 178.116 67.382,178.541 68.070,178.894 68.401 C 179.246 68.732,179.534 69.198,179.534 69.436 C 179.534 69.675,179.881 70.383,180.306 71.010 C 180.731 71.637,181.081 72.395,181.083 72.694 C 181.086 72.993,181.436 73.751,181.861 74.378 C 182.285 75.005,182.635 75.821,182.638 76.192 C 182.644 77.045,183.129 78.505,183.582 79.031 C 183.773 79.254,184.054 80.333,184.207 81.430 C 184.359 82.528,184.719 84.094,185.006 84.912 C 186.472 89.092,186.482 110.111,185.019 114.396 C 184.724 115.260,184.353 117.007,184.195 118.278 C 184.037 119.548,183.754 120.765,183.565 120.980 C 183.138 121.469,182.948 122.084,182.641 123.974 C 182.508 124.792,182.224 125.653,182.011 125.889 C 181.798 126.125,181.436 127.049,181.207 127.943 C 180.978 128.836,180.508 129.984,180.162 130.494 C 179.816 131.003,179.534 131.690,179.534 132.021 C 179.534 132.352,179.316 132.831,179.051 133.086 C 178.405 133.706,177.979 134.559,177.979 135.235 C 177.979 135.539,177.680 136.300,177.314 136.924 C 176.937 137.567,176.548 138.770,176.416 139.697 C 176.289 140.597,176.017 141.681,175.813 142.105 C 175.321 143.127,174.755 147.822,174.951 149.253 C 175.037 149.878,175.220 151.192,175.357 152.174 C 175.494 153.156,175.723 154.031,175.865 154.119 C 176.007 154.207,176.244 155.363,176.392 156.689 C 176.563 158.216,176.891 159.592,177.288 160.443 C 177.632 161.183,177.988 162.204,178.079 162.713 C 178.170 163.222,178.535 164.031,178.889 164.512 C 179.244 164.992,179.535 165.625,179.537 165.918 C 179.539 166.211,179.818 166.937,180.157 167.531 C 180.497 168.124,180.907 169.011,181.068 169.500 C 181.230 169.990,181.650 170.661,182.002 170.992 C 182.354 171.322,182.642 171.860,182.642 172.186 C 182.642 172.513,182.975 173.163,183.381 173.631 C 183.787 174.099,184.192 174.773,184.281 175.130 C 184.370 175.486,184.737 176.116,185.097 176.530 C 185.457 176.944,185.751 177.382,185.751 177.504 C 185.751 177.625,186.101 178.091,186.528 178.538 C 186.956 178.985,187.306 179.488,187.306 179.655 C 187.306 179.823,187.652 180.417,188.076 180.977 C 188.499 181.537,188.849 182.124,188.853 182.282 C 188.857 182.440,189.239 183.256,189.702 184.096 L 190.544 185.622 190.544 190.693 C 190.544 195.708,190.537 195.775,189.876 196.781 C 189.508 197.340,189.082 198.161,188.930 198.606 C 188.777 199.050,188.378 199.723,188.044 200.102 C 186.513 201.834,183.868 204.423,183.347 204.699 C 183.031 204.867,182.629 205.206,182.455 205.452 C 182.280 205.697,181.745 205.972,181.265 206.062 C 180.786 206.152,180.129 206.507,179.806 206.851 C 179.483 207.195,178.787 207.550,178.259 207.639 C 177.731 207.728,176.981 208.075,176.591 208.410 C 176.105 208.828,175.400 209.075,174.346 209.198 C 173.502 209.296,172.387 209.592,171.869 209.856 C 168.721 211.461,149.038 211.476,145.721 209.876 C 145.153 209.602,143.990 209.294,143.135 209.190 C 142.280 209.086,141.114 208.736,140.544 208.411 C 139.974 208.087,138.983 207.738,138.342 207.634 C 137.701 207.531,136.860 207.181,136.473 206.857 C 136.086 206.532,135.309 206.188,134.747 206.093 C 134.185 205.999,133.526 205.701,133.282 205.431 C 133.038 205.162,132.416 204.807,131.899 204.642 C 131.382 204.477,130.663 204.066,130.302 203.730 C 129.940 203.393,129.266 203.042,128.803 202.950 C 128.340 202.857,127.844 202.563,127.702 202.297 C 127.559 202.031,127.039 201.644,126.545 201.438 C 126.051 201.231,125.648 200.958,125.648 200.831 C 125.648 200.704,125.065 200.202,124.353 199.717 C 123.641 199.231,123.058 198.761,123.057 198.671 C 123.057 198.582,122.711 198.365,122.288 198.190 C 121.866 198.015,121.455 197.669,121.377 197.421 C 121.298 197.173,120.944 196.838,120.591 196.677 C 120.237 196.516,119.948 196.269,119.948 196.128 C 119.948 195.987,119.569 195.470,119.106 194.979 C 118.643 194.488,117.915 193.601,117.487 193.010 C 117.060 192.418,116.331 191.490,115.868 190.948 C 115.405 190.406,115.026 189.824,115.026 189.653 C 115.026 189.483,114.751 188.973,114.415 188.519 C 114.079 188.065,113.626 187.345,113.408 186.917 C 113.189 186.490,112.765 185.678,112.464 185.114 C 112.163 184.549,111.917 183.860,111.917 183.582 C 111.917 183.304,111.619 182.567,111.254 181.945 C 110.889 181.322,110.475 180.088,110.334 179.202 C 110.194 178.316,109.831 177.076,109.529 176.446 C 108.192 173.662,108.354 154.317,109.733 152.153 C 109.932 151.842,110.208 150.588,110.347 149.367 C 110.485 148.146,110.837 146.609,111.128 145.951 C 111.419 145.294,111.765 144.082,111.898 143.259 C 112.030 142.436,112.385 141.279,112.686 140.689 C 112.988 140.099,113.351 138.985,113.493 138.215 C 113.635 137.445,114.025 136.313,114.360 135.700 C 114.694 135.087,115.045 134.145,115.140 133.606 C 115.234 133.067,115.597 132.206,115.946 131.692 C 116.295 131.177,116.580 130.463,116.580 130.103 C 116.580 129.744,116.917 128.915,117.328 128.261 C 117.739 127.607,118.153 126.632,118.248 126.093 C 118.343 125.554,118.690 124.717,119.019 124.231 C 119.348 123.746,119.691 122.892,119.780 122.334 C 119.869 121.776,120.222 120.807,120.565 120.181 C 120.907 119.554,121.266 118.459,121.363 117.746 C 121.459 117.034,121.769 115.965,122.051 115.371 C 122.334 114.777,122.611 113.903,122.667 113.428 C 123.124 109.573,123.425 107.785,123.733 107.085 C 124.307 105.784,124.183 102.474,123.446 99.434 C 123.090 97.964,122.798 96.137,122.798 95.374 C 122.798 94.406,122.599 93.592,122.139 92.676 C 121.777 91.955,121.410 90.851,121.324 90.222 C 121.238 89.594,120.899 88.684,120.571 88.201 C 120.243 87.717,119.896 86.881,119.800 86.342 C 119.704 85.803,119.354 85.000,119.023 84.556 C 118.692 84.113,118.340 83.413,118.242 83.002 C 118.143 82.590,117.728 81.794,117.321 81.231 C 116.914 80.669,116.580 80.075,116.580 79.911 C 116.580 79.748,116.343 79.399,116.053 79.137 C 115.763 78.874,115.313 78.186,115.054 77.607 C 114.795 77.028,114.333 76.332,114.027 76.061 C 113.722 75.789,113.472 75.411,113.472 75.219 C 113.472 75.027,113.231 74.630,112.937 74.336 C 112.643 74.042,112.192 73.314,111.935 72.717 C 111.677 72.120,111.218 71.410,110.914 71.139 C 110.611 70.867,110.363 70.451,110.363 70.213 C 110.363 69.976,110.016 69.323,109.593 68.764 C 109.169 68.204,108.819 67.519,108.815 67.242 C 108.812 66.965,108.507 66.303,108.140 65.773 C 106.653 63.628,106.641 55.904,108.121 54.144 C 108.499 53.695,108.808 53.164,108.808 52.964 C 108.808 52.764,109.129 52.234,109.521 51.787 C 111.212 49.860,112.631 48.446,112.874 48.446 C 113.019 48.446,113.438 48.167,113.806 47.826 C 114.174 47.485,115.007 47.003,115.657 46.754 C 116.307 46.506,116.839 46.213,116.839 46.104 C 116.839 45.995,117.673 45.652,118.691 45.343 C 119.709 45.034,120.788 44.627,121.087 44.440 C 121.675 44.073,124.988 43.531,126.759 43.512 C 127.359 43.505,128.199 43.340,128.627 43.144 C 129.525 42.733,136.146 42.596,136.385 42.983 M237.362 43.111 C 237.830 43.312,239.814 43.593,241.770 43.735 C 244.522 43.935,245.520 44.110,246.175 44.504 C 246.640 44.785,247.837 45.160,248.834 45.338 C 249.832 45.516,250.838 45.828,251.070 46.030 C 251.303 46.232,251.944 46.515,252.495 46.658 C 253.984 47.045,254.922 47.444,254.922 47.693 C 254.922 47.814,255.544 48.094,256.305 48.315 C 257.065 48.536,257.912 48.926,258.187 49.182 C 258.462 49.438,259.073 49.782,259.544 49.947 C 260.016 50.111,260.751 50.540,261.179 50.900 C 261.607 51.260,262.078 51.554,262.227 51.554 C 262.375 51.554,262.895 51.904,263.382 52.332 C 263.868 52.759,264.419 53.109,264.606 53.109 C 264.793 53.109,265.167 53.354,265.439 53.653 C 265.710 53.953,266.277 54.377,266.700 54.595 C 267.122 54.814,267.685 55.268,267.950 55.605 C 268.215 55.942,268.552 56.218,268.700 56.218 C 268.847 56.218,269.599 56.859,270.370 57.642 C 271.142 58.426,271.884 59.067,272.020 59.067 C 272.156 59.067,272.474 59.382,272.725 59.766 C 272.977 60.150,273.738 61.019,274.415 61.696 C 275.093 62.374,275.648 63.032,275.648 63.157 C 275.648 63.283,275.997 63.697,276.425 64.078 C 276.852 64.459,277.202 64.924,277.202 65.111 C 277.202 65.298,277.552 65.842,277.979 66.321 C 278.407 66.800,278.756 67.351,278.756 67.545 C 278.756 67.740,279.044 68.186,279.395 68.538 C 279.746 68.889,280.160 69.647,280.315 70.223 C 280.470 70.799,280.824 71.497,281.100 71.774 C 281.377 72.050,281.707 72.741,281.835 73.309 C 281.962 73.877,282.319 74.769,282.628 75.292 C 282.936 75.815,283.301 76.834,283.438 77.555 C 283.574 78.277,283.932 79.374,284.231 79.993 C 284.530 80.611,284.876 82.014,284.999 83.111 C 285.302 85.820,285.470 86.548,285.971 87.306 C 286.622 88.291,286.620 110.028,285.968 111.399 C 285.732 111.898,285.352 113.752,285.124 115.520 C 284.897 117.288,284.607 118.862,284.480 119.018 C 284.145 119.430,283.420 122.003,283.420 122.782 C 283.420 123.149,283.131 123.991,282.779 124.653 C 282.427 125.315,282.064 126.363,281.973 126.983 C 281.882 127.602,281.540 128.527,281.212 129.039 C 280.885 129.551,280.507 130.367,280.372 130.853 C 280.237 131.338,279.819 132.189,279.442 132.743 C 279.065 133.298,278.756 134.011,278.756 134.328 C 278.756 134.645,278.540 135.182,278.276 135.522 C 277.755 136.191,277.344 137.371,277.076 138.963 C 276.982 139.518,276.748 140.217,276.555 140.517 C 275.247 142.555,275.340 154.413,276.678 156.088 C 276.792 156.231,276.966 156.988,277.064 157.772 C 277.332 159.905,277.661 160.992,278.237 161.657 C 278.523 161.986,278.756 162.573,278.756 162.961 C 278.756 163.760,279.391 165.425,279.789 165.671 C 279.934 165.761,280.181 166.346,280.338 166.971 C 280.496 167.597,280.904 168.487,281.245 168.949 C 281.586 169.411,281.865 169.960,281.865 170.168 C 281.865 170.377,282.152 170.923,282.503 171.383 C 282.853 171.843,283.329 172.690,283.559 173.265 C 283.790 173.841,284.133 174.372,284.322 174.444 C 284.511 174.517,284.744 174.933,284.840 175.368 C 284.936 175.803,285.355 176.481,285.771 176.874 C 286.188 177.267,286.528 177.719,286.528 177.878 C 286.528 178.037,286.878 178.607,287.306 179.145 C 287.733 179.683,288.083 180.278,288.083 180.467 C 288.083 180.656,288.416 181.194,288.823 181.662 C 289.230 182.130,289.648 182.975,289.752 183.540 C 289.856 184.106,290.193 184.922,290.502 185.354 C 291.423 186.645,291.499 194.457,290.604 195.816 C 290.261 196.336,289.896 197.111,289.793 197.539 C 289.689 197.966,289.262 198.746,288.844 199.272 C 288.425 199.798,288.083 200.335,288.083 200.465 C 288.083 200.794,284.554 204.404,284.232 204.404 C 284.088 204.404,283.604 204.738,283.158 205.146 C 282.711 205.554,281.881 206.027,281.314 206.197 C 280.747 206.367,280.219 206.673,280.141 206.877 C 280.063 207.081,279.515 207.375,278.924 207.529 C 278.333 207.684,277.423 208.088,276.902 208.427 C 276.381 208.766,275.332 209.123,274.570 209.220 C 273.809 209.318,272.754 209.615,272.226 209.880 C 269.012 211.493,251.269 211.555,246.503 209.969 C 245.505 209.637,244.110 209.288,243.402 209.192 C 242.694 209.097,241.580 208.748,240.926 208.417 C 240.273 208.085,239.278 207.729,238.716 207.625 C 238.154 207.520,237.345 207.177,236.917 206.861 C 236.490 206.545,235.742 206.212,235.255 206.121 C 234.768 206.029,233.989 205.664,233.523 205.309 C 233.058 204.954,232.503 204.663,232.291 204.663 C 232.079 204.663,231.555 204.369,231.127 204.009 C 230.700 203.649,229.962 203.222,229.488 203.061 C 229.015 202.899,228.277 202.488,227.850 202.147 C 225.229 200.058,224.796 199.741,224.557 199.741 C 224.240 199.741,224.081 199.589,218.329 193.776 C 217.937 193.380,217.617 192.939,217.617 192.796 C 217.617 192.653,217.209 192.048,216.710 191.451 C 216.211 190.854,215.803 190.210,215.803 190.020 C 215.803 189.830,215.527 189.458,215.190 189.193 C 214.853 188.928,214.490 188.424,214.383 188.073 C 214.276 187.722,213.914 187.068,213.578 186.620 C 213.242 186.171,212.845 185.260,212.696 184.595 C 212.547 183.930,212.196 183.072,211.915 182.690 C 211.635 182.308,211.285 181.358,211.139 180.579 C 210.993 179.800,210.622 178.645,210.316 178.012 C 209.891 177.134,209.691 175.993,209.474 173.210 C 209.317 171.202,209.045 169.305,208.869 168.994 C 208.406 168.175,208.433 162.201,208.903 161.521 C 209.133 161.188,209.320 159.751,209.441 157.383 C 209.640 153.496,209.953 151.487,210.492 150.631 C 210.678 150.337,210.952 149.093,211.102 147.867 C 211.252 146.640,211.658 144.957,212.003 144.127 C 212.348 143.296,212.714 142.036,212.817 141.326 C 212.919 140.617,213.230 139.717,213.508 139.327 C 213.785 138.938,214.139 137.897,214.295 137.016 C 214.450 136.134,214.853 135.007,215.190 134.510 C 215.527 134.013,215.803 133.360,215.804 133.060 C 215.804 132.759,216.140 131.872,216.550 131.088 C 216.961 130.304,217.380 129.272,217.483 128.793 C 217.586 128.315,217.949 127.512,218.291 127.009 C 218.632 126.505,218.912 125.787,218.912 125.413 C 218.912 125.038,219.207 124.297,219.568 123.766 C 219.929 123.235,220.357 122.130,220.520 121.310 C 220.683 120.490,221.033 119.522,221.298 119.160 C 221.562 118.798,221.901 117.691,222.050 116.699 C 222.199 115.708,222.560 114.391,222.852 113.772 C 224.392 110.520,224.232 94.821,222.646 93.505 C 222.456 93.347,222.222 92.522,222.125 91.671 C 222.015 90.696,221.721 89.786,221.330 89.209 C 220.988 88.706,220.639 87.781,220.552 87.153 C 220.459 86.471,220.158 85.773,219.806 85.421 C 219.482 85.096,219.135 84.400,219.037 83.874 C 218.938 83.348,218.596 82.652,218.276 82.327 C 217.956 82.002,217.622 81.435,217.532 81.066 C 217.443 80.698,217.017 79.953,216.586 79.412 C 216.155 78.870,215.803 78.285,215.803 78.113 C 215.803 77.941,215.560 77.581,215.264 77.312 C 214.967 77.044,214.574 76.465,214.391 76.027 C 214.208 75.589,213.751 74.899,213.376 74.494 C 213.001 74.090,212.690 73.572,212.684 73.343 C 212.678 73.114,212.328 72.524,211.907 72.031 C 211.485 71.537,211.140 70.992,211.140 70.820 C 211.140 70.647,210.860 70.173,210.518 69.767 C 210.176 69.360,209.771 68.564,209.618 67.997 C 209.466 67.430,209.119 66.777,208.847 66.544 C 208.537 66.279,208.244 65.492,208.059 64.430 C 207.897 63.499,207.591 62.247,207.380 61.647 C 206.897 60.279,206.885 58.478,207.354 57.565 C 207.551 57.180,207.852 56.191,208.022 55.367 C 208.206 54.471,208.582 53.597,208.958 53.192 C 209.303 52.820,209.585 52.419,209.585 52.303 C 209.585 52.117,210.640 50.875,211.432 50.130 C 211.583 49.987,212.013 49.550,212.388 49.158 C 212.762 48.766,213.182 48.446,213.321 48.446 C 213.459 48.446,213.871 48.173,214.235 47.839 C 214.599 47.506,215.304 47.079,215.803 46.891 C 216.302 46.702,216.943 46.351,217.228 46.111 C 217.513 45.870,218.329 45.521,219.041 45.335 C 219.754 45.149,220.750 44.791,221.255 44.541 C 221.770 44.286,223.705 43.892,225.659 43.646 C 227.576 43.404,229.320 43.106,229.534 42.984 C 230.204 42.600,236.406 42.701,237.362 43.111 M128.142 52.857 C 127.305 52.990,126.477 53.217,126.303 53.362 C 126.128 53.507,125.367 53.743,124.611 53.886 C 123.855 54.029,122.876 54.336,122.434 54.568 C 121.993 54.800,121.078 55.266,120.402 55.604 C 119.725 55.942,119.171 56.338,119.171 56.484 C 119.171 56.629,118.883 56.858,118.531 56.992 C 118.173 57.128,117.727 57.626,117.521 58.120 C 117.318 58.606,117.023 59.084,116.866 59.181 C 116.460 59.432,116.512 60.502,116.949 60.864 C 117.151 61.032,117.398 61.648,117.497 62.233 C 117.595 62.817,117.943 63.563,118.270 63.889 C 118.596 64.216,118.994 64.879,119.154 65.364 C 119.314 65.849,119.733 66.516,120.085 66.846 C 120.437 67.177,120.725 67.608,120.725 67.804 C 120.725 67.999,121.001 68.416,121.337 68.730 C 121.673 69.044,122.039 69.592,122.149 69.948 C 122.259 70.304,122.684 70.979,123.092 71.447 C 123.500 71.915,123.834 72.446,123.834 72.626 C 123.834 72.807,124.169 73.415,124.579 73.977 C 124.988 74.540,125.408 75.274,125.511 75.608 C 125.614 75.943,125.914 76.432,126.178 76.696 C 126.441 76.959,126.785 77.653,126.943 78.238 C 127.100 78.823,127.398 79.366,127.605 79.446 C 127.812 79.525,128.167 80.231,128.395 81.014 C 128.623 81.797,129.072 82.825,129.393 83.298 C 129.713 83.771,130.049 84.693,130.139 85.348 C 130.229 86.002,130.535 86.856,130.820 87.246 C 131.129 87.668,131.445 88.718,131.603 89.847 C 131.749 90.888,132.028 92.054,132.224 92.438 C 133.660 95.251,133.812 111.920,132.428 114.821 C 132.136 115.433,131.772 116.865,131.619 118.005 C 131.448 119.278,131.146 120.342,130.838 120.763 C 130.562 121.140,130.203 122.210,130.041 123.141 C 129.866 124.145,129.492 125.177,129.122 125.679 C 128.772 126.154,128.497 126.886,128.497 127.346 C 128.497 127.797,128.207 128.595,127.851 129.118 C 127.496 129.642,127.069 130.620,126.902 131.292 C 126.736 131.963,126.328 132.919,125.994 133.415 C 125.661 133.911,125.389 134.565,125.389 134.868 C 125.389 135.171,125.054 136.048,124.644 136.816 C 124.235 137.584,123.814 138.721,123.710 139.343 C 123.605 139.965,123.257 140.861,122.935 141.335 C 122.578 141.861,122.281 142.805,122.174 143.759 C 122.076 144.618,121.884 145.391,121.746 145.476 C 121.294 145.756,120.810 147.248,120.617 148.961 C 120.512 149.886,120.331 150.760,120.214 150.904 C 119.754 151.470,119.171 154.060,119.171 155.537 C 119.171 157.046,118.901 158.995,118.360 161.399 C 117.796 163.905,117.791 165.883,118.342 168.279 C 118.635 169.553,118.956 171.625,119.055 172.883 C 119.182 174.493,119.415 175.525,119.843 176.370 C 120.177 177.030,120.526 178.074,120.619 178.691 C 120.711 179.307,121.066 180.223,121.407 180.725 C 121.749 181.228,122.196 182.042,122.401 182.533 C 122.606 183.025,122.955 183.496,123.175 183.581 C 123.395 183.665,123.575 183.947,123.575 184.208 C 123.575 184.469,124.391 185.630,125.389 186.788 C 126.386 187.946,127.202 188.994,127.202 189.118 C 127.202 189.242,127.406 189.411,127.655 189.493 C 127.905 189.575,128.672 190.172,129.361 190.819 C 130.956 192.317,132.789 193.678,133.899 194.189 C 134.377 194.409,135.016 194.820,135.319 195.102 C 135.622 195.385,136.164 195.685,136.523 195.769 C 136.882 195.854,137.409 196.126,137.694 196.375 C 138.449 197.033,139.263 197.409,139.930 197.409 C 140.252 197.409,140.942 197.704,141.462 198.065 C 142.027 198.456,143.064 198.826,144.031 198.982 C 144.923 199.126,145.815 199.405,146.013 199.603 C 146.421 200.011,148.242 200.404,150.907 200.658 C 151.904 200.754,153.035 200.994,153.420 201.193 C 154.428 201.714,163.906 201.713,164.650 201.193 C 164.934 200.994,165.980 200.749,166.974 200.649 C 169.422 200.403,171.026 200.040,171.498 199.627 C 171.714 199.438,172.541 199.097,173.335 198.870 C 174.129 198.643,174.993 198.222,175.254 197.933 C 175.515 197.645,175.880 197.409,176.066 197.409 C 176.693 197.409,179.922 194.344,180.185 193.499 C 180.292 193.156,180.597 192.566,180.863 192.188 C 181.478 191.315,181.476 190.558,180.856 189.538 C 180.586 189.094,180.284 188.231,180.184 187.619 C 180.062 186.870,179.805 186.379,179.396 186.111 C 179.062 185.892,178.718 185.387,178.630 184.988 C 178.542 184.588,178.185 183.994,177.836 183.666 C 177.487 183.338,177.202 182.920,177.202 182.736 C 177.202 182.552,176.860 182.012,176.443 181.536 C 176.025 181.061,175.607 180.369,175.514 179.999 C 175.421 179.629,175.136 179.101,174.881 178.827 C 174.625 178.553,174.343 178.100,174.255 177.822 C 174.167 177.544,173.686 176.682,173.187 175.908 C 172.688 175.133,172.278 174.321,172.275 174.102 C 172.272 173.883,171.923 173.192,171.498 172.565 C 171.073 171.938,170.725 171.114,170.725 170.735 C 170.725 170.356,170.492 169.795,170.207 169.489 C 169.921 169.183,169.527 168.316,169.330 167.562 C 169.134 166.808,168.722 165.712,168.416 165.126 C 168.110 164.539,167.751 163.388,167.617 162.567 C 167.483 161.746,167.207 160.819,167.002 160.506 C 166.602 159.895,166.192 157.407,165.913 153.892 C 165.817 152.685,165.578 151.242,165.382 150.686 C 164.918 149.369,164.929 146.991,165.409 144.991 C 165.620 144.112,165.963 141.895,166.172 140.063 C 166.412 137.950,166.691 136.576,166.934 136.306 C 167.145 136.072,167.506 135.070,167.735 134.078 C 167.965 133.086,168.315 132.096,168.513 131.876 C 168.712 131.656,169.071 130.894,169.311 130.181 C 169.551 129.469,169.902 128.797,170.090 128.689 C 170.278 128.580,170.625 127.822,170.861 127.005 C 171.097 126.187,171.464 125.324,171.676 125.086 C 171.888 124.849,172.241 123.858,172.460 122.884 C 172.678 121.911,173.018 120.931,173.214 120.707 C 173.410 120.484,173.749 119.278,173.967 118.029 C 174.185 116.779,174.555 115.388,174.789 114.938 C 175.193 114.163,175.409 112.497,175.807 107.124 C 175.901 105.842,176.138 104.478,176.331 104.093 C 176.849 103.066,176.814 95.652,176.283 93.912 C 176.066 93.199,175.759 91.043,175.600 89.119 C 175.411 86.821,175.158 85.311,174.862 84.715 C 174.615 84.216,174.274 83.109,174.105 82.254 C 173.935 81.399,173.580 80.394,173.314 80.020 C 173.049 79.647,172.667 78.714,172.465 77.948 C 172.264 77.181,171.790 76.101,171.412 75.547 C 171.034 74.993,170.725 74.397,170.725 74.222 C 170.725 74.048,170.376 73.465,169.948 72.927 C 169.521 72.390,169.171 71.787,169.171 71.588 C 169.171 71.390,168.992 71.159,168.773 71.074 C 168.554 70.990,168.216 70.615,168.022 70.241 C 167.565 69.360,162.044 63.875,160.946 63.211 C 160.483 62.931,160.104 62.591,160.104 62.456 C 160.104 62.322,159.881 62.140,159.608 62.054 C 159.336 61.967,158.665 61.538,158.119 61.099 C 157.572 60.660,156.804 60.187,156.412 60.047 C 156.020 59.908,155.699 59.682,155.699 59.546 C 155.699 59.410,155.069 59.019,154.298 58.678 C 153.528 58.338,152.827 57.945,152.741 57.806 C 152.655 57.666,152.012 57.362,151.312 57.130 C 150.612 56.898,149.905 56.545,149.741 56.347 C 149.576 56.149,148.780 55.846,147.972 55.674 C 147.164 55.502,146.146 55.150,145.711 54.893 C 145.276 54.635,143.877 54.243,142.602 54.022 C 141.328 53.801,139.896 53.436,139.420 53.212 C 138.377 52.720,130.563 52.474,128.142 52.857 M228.519 52.866 C 227.747 53.004,226.978 53.231,226.809 53.371 C 226.641 53.511,225.885 53.743,225.130 53.886 C 223.530 54.189,219.983 55.826,219.780 56.354 C 219.704 56.553,219.424 56.785,219.159 56.869 C 217.342 57.446,216.399 60.799,217.740 61.912 C 217.950 62.086,218.195 62.621,218.285 63.101 C 218.375 63.580,218.706 64.251,219.022 64.592 C 219.337 64.932,219.749 65.582,219.937 66.035 C 220.125 66.489,220.479 67.001,220.724 67.174 C 220.969 67.346,221.260 67.778,221.371 68.135 C 221.482 68.491,221.907 69.165,222.315 69.633 C 222.723 70.101,223.057 70.661,223.057 70.876 C 223.057 71.092,223.329 71.525,223.662 71.839 C 223.995 72.153,224.403 72.807,224.570 73.292 C 224.736 73.778,225.102 74.336,225.382 74.532 C 225.662 74.729,226.024 75.379,226.185 75.978 C 226.346 76.577,226.758 77.346,227.099 77.688 C 227.441 78.030,227.722 78.555,227.725 78.857 C 227.728 79.158,228.077 79.917,228.502 80.544 C 228.927 81.171,229.275 81.923,229.275 82.214 C 229.275 82.506,229.558 83.158,229.904 83.665 C 230.249 84.171,230.657 85.275,230.810 86.119 C 230.962 86.962,231.258 87.842,231.468 88.074 C 231.850 88.496,232.153 89.702,232.609 92.617 C 232.743 93.472,233.059 94.696,233.312 95.337 C 234.303 97.847,234.097 111.409,233.038 113.459 C 232.834 113.852,232.547 115.138,232.399 116.317 C 232.250 117.512,231.857 119.047,231.512 119.787 C 231.171 120.517,230.817 121.642,230.724 122.288 C 230.631 122.934,230.322 123.845,230.038 124.313 C 229.754 124.780,229.396 125.767,229.244 126.506 C 229.091 127.245,228.698 128.258,228.371 128.756 C 228.044 129.255,227.702 130.089,227.612 130.608 C 227.522 131.128,227.229 131.832,226.961 132.172 C 226.694 132.512,226.340 133.311,226.175 133.947 C 226.010 134.583,225.645 135.425,225.364 135.818 C 225.082 136.211,224.733 137.177,224.587 137.966 C 224.441 138.755,224.053 139.796,223.725 140.280 C 223.397 140.763,223.050 141.750,222.954 142.471 C 222.858 143.193,222.546 144.179,222.261 144.663 C 221.975 145.148,221.624 146.284,221.480 147.189 C 221.336 148.094,220.986 149.319,220.701 149.912 C 220.364 150.613,220.066 152.110,219.850 154.187 C 219.663 155.978,219.335 157.733,219.103 158.178 C 218.145 160.015,218.276 169.353,219.302 172.373 C 219.509 172.983,219.784 174.232,219.915 175.148 C 220.045 176.064,220.455 177.385,220.827 178.083 C 221.199 178.781,221.503 179.658,221.503 180.033 C 221.503 180.427,221.829 181.071,222.280 181.564 C 222.707 182.032,223.057 182.617,223.057 182.863 C 223.057 183.109,223.402 183.713,223.824 184.207 C 224.245 184.700,224.595 185.232,224.601 185.390 C 224.615 185.769,227.316 188.667,229.194 190.318 C 232.549 193.266,233.912 194.301,234.443 194.301 C 234.693 194.301,235.190 194.571,235.547 194.901 C 235.903 195.232,236.591 195.665,237.074 195.863 C 237.558 196.062,238.325 196.475,238.779 196.781 C 239.233 197.087,240.078 197.414,240.657 197.506 C 241.236 197.599,241.710 197.793,241.710 197.937 C 241.710 198.266,242.752 198.669,244.421 198.986 C 245.128 199.121,246.201 199.470,246.805 199.762 C 247.508 200.102,248.860 200.385,250.570 200.549 C 252.038 200.690,253.548 200.974,253.926 201.180 C 254.931 201.727,264.214 201.720,265.274 201.171 C 265.682 200.961,266.988 200.677,268.176 200.542 C 270.406 200.288,271.596 199.959,271.867 199.520 C 271.953 199.382,272.486 199.190,273.052 199.094 C 273.617 198.999,274.578 198.583,275.188 198.170 C 275.797 197.757,276.417 197.417,276.565 197.414 C 276.795 197.410,278.279 196.197,279.145 195.305 C 279.288 195.158,279.720 194.725,280.106 194.343 C 282.172 192.297,281.484 187.780,278.600 184.456 C 278.290 184.100,277.950 183.517,277.844 183.161 C 277.737 182.804,277.316 182.130,276.908 181.662 C 276.500 181.194,276.166 180.639,276.166 180.429 C 276.166 180.219,275.934 179.848,275.650 179.605 C 275.366 179.362,274.952 178.616,274.730 177.946 C 274.508 177.277,274.169 176.669,273.977 176.595 C 273.786 176.522,273.433 175.871,273.193 175.150 C 272.953 174.428,272.608 173.749,272.426 173.641 C 272.244 173.534,271.889 172.804,271.636 172.021 C 271.384 171.237,271.028 170.421,270.847 170.207 C 270.665 169.994,270.331 169.187,270.104 168.415 C 269.877 167.644,269.519 166.822,269.309 166.590 C 269.099 166.358,268.745 165.304,268.523 164.249 C 268.301 163.193,267.959 162.150,267.763 161.929 C 267.567 161.709,267.273 160.596,267.111 159.456 C 266.732 156.799,266.449 155.339,266.032 153.886 C 265.471 151.931,265.559 142.510,266.146 141.613 C 266.400 141.226,266.664 140.303,266.733 139.561 C 266.939 137.355,267.421 135.403,267.923 134.745 C 268.182 134.405,268.394 133.869,268.394 133.553 C 268.394 132.745,268.905 131.312,269.413 130.699 C 269.649 130.415,269.998 129.715,270.188 129.145 C 270.378 128.575,270.729 127.921,270.969 127.691 C 271.208 127.462,271.553 126.609,271.735 125.796 C 271.917 124.984,272.227 124.257,272.425 124.181 C 272.622 124.105,272.857 123.617,272.946 123.097 C 273.176 121.755,273.721 119.951,274.173 119.041 C 274.385 118.614,274.640 117.461,274.739 116.480 C 274.838 115.499,275.140 114.182,275.409 113.554 C 276.968 109.916,277.036 90.166,275.503 86.080 C 275.170 85.192,274.816 83.747,274.717 82.869 C 274.601 81.844,274.362 81.098,274.052 80.787 C 273.785 80.521,273.411 79.634,273.220 78.817 C 273.029 78.000,272.564 76.878,272.188 76.324 C 271.811 75.770,271.503 75.162,271.503 74.974 C 271.503 74.786,271.290 74.423,271.029 74.168 C 270.769 73.913,270.400 73.297,270.209 72.798 C 270.018 72.299,269.531 71.557,269.128 71.148 C 268.724 70.739,268.394 70.285,268.394 70.139 C 268.394 69.731,261.672 63.212,261.251 63.212 C 261.048 63.212,260.881 63.113,260.881 62.991 C 260.881 62.710,258.159 60.664,257.272 60.279 C 256.906 60.120,256.357 59.732,256.052 59.417 C 255.747 59.102,255.031 58.718,254.460 58.564 C 253.888 58.410,253.363 58.132,253.291 57.947 C 253.220 57.761,252.543 57.409,251.788 57.165 C 251.032 56.921,250.228 56.553,250.001 56.348 C 249.775 56.143,248.836 55.783,247.916 55.548 C 246.996 55.313,246.185 55.035,246.114 54.930 C 245.921 54.644,244.342 54.195,242.876 54.008 C 242.163 53.917,240.881 53.607,240.026 53.320 C 238.222 52.712,230.975 52.427,228.519 52.866 " stroke="none" fill="#f7fffa" fill-rule="evenodd"></path></g></svg>