<svg id="svg" version="1.1" xmlns="http://www.w3.org/2000/svg" xmlns:xlink="http://www.w3.org/1999/xlink" width="400" height="258.91472868217056" viewBox="0, 0, 400,258.91472868217056"><g id="svgg"><path id="path0" d="M80.829 43.954 C 80.615 43.999,79.449 44.144,78.238 44.274 C 73.815 44.751,68.912 45.714,68.912 46.106 C 68.912 46.225,68.096 46.570,67.098 46.873 C 66.101 47.176,65.285 47.532,65.285 47.664 C 65.285 47.795,64.782 48.126,64.166 48.398 C 63.551 48.670,62.740 49.200,62.365 49.576 C 61.989 49.952,61.568 50.259,61.428 50.259 C 61.289 50.259,61.107 50.474,61.024 50.736 C 60.940 50.998,60.585 51.366,60.233 51.554 C 59.882 51.743,59.530 52.098,59.452 52.344 C 59.374 52.590,59.028 53.097,58.682 53.469 C 56.769 55.533,56.754 63.381,58.659 66.187 C 59.026 66.728,59.326 67.307,59.326 67.473 C 59.326 67.639,59.626 68.177,59.992 68.667 C 60.358 69.158,60.819 69.938,61.015 70.402 C 61.212 70.865,61.481 71.244,61.613 71.244 C 61.745 71.244,62.107 71.797,62.416 72.474 C 62.995 73.738,63.936 75.208,64.622 75.921 C 64.836 76.143,65.247 76.859,65.536 77.513 C 65.825 78.166,66.220 78.762,66.414 78.836 C 66.607 78.910,66.834 79.314,66.918 79.734 C 67.002 80.154,67.346 80.834,67.682 81.246 C 68.018 81.658,68.451 82.492,68.645 83.100 C 68.839 83.707,69.144 84.326,69.324 84.476 C 69.504 84.625,69.853 85.410,70.100 86.221 C 70.348 87.031,70.715 87.888,70.916 88.125 C 71.117 88.361,71.457 89.410,71.671 90.456 C 71.884 91.502,72.244 92.644,72.470 92.994 C 73.877 95.176,73.851 112.907,72.438 114.479 C 72.232 114.708,71.877 115.880,71.649 117.082 C 71.422 118.284,71.077 119.450,70.883 119.673 C 70.689 119.896,70.345 120.822,70.118 121.732 C 69.891 122.642,69.533 123.578,69.321 123.812 C 69.109 124.046,68.757 124.923,68.539 125.760 C 68.321 126.598,67.977 127.469,67.775 127.696 C 67.573 127.923,67.222 128.740,66.995 129.512 C 66.768 130.284,66.417 131.100,66.215 131.325 C 66.013 131.551,65.671 132.417,65.455 133.250 C 65.239 134.082,64.897 134.956,64.695 135.193 C 64.349 135.596,63.952 136.891,63.594 138.777 C 63.508 139.231,63.280 139.733,63.087 139.893 C 62.893 140.054,62.658 140.674,62.563 141.271 C 62.328 142.761,61.793 144.535,61.297 145.466 C 61.070 145.894,60.883 146.617,60.882 147.073 C 60.880 148.304,60.365 150.563,59.929 151.251 C 58.513 153.487,58.647 174.770,60.096 177.615 C 60.393 178.198,60.746 179.355,60.882 180.186 C 61.017 181.018,61.231 181.764,61.357 181.846 C 61.673 182.052,62.435 183.576,62.435 184.004 C 62.435 184.197,62.727 184.750,63.083 185.233 C 63.439 185.716,63.731 186.305,63.731 186.541 C 63.731 186.777,64.017 187.280,64.366 187.657 C 64.716 188.034,65.203 188.766,65.448 189.283 C 65.693 189.800,66.136 190.495,66.432 190.828 C 66.727 191.160,67.260 191.794,67.617 192.237 C 68.296 193.081,71.599 196.362,72.927 197.513 C 74.675 199.027,75.599 199.741,75.811 199.743 C 75.935 199.745,76.548 200.153,77.174 200.650 C 77.799 201.148,78.452 201.554,78.623 201.554 C 78.795 201.554,79.147 201.789,79.406 202.075 C 79.665 202.361,80.354 202.733,80.936 202.901 C 81.518 203.069,82.313 203.467,82.701 203.784 C 83.089 204.101,83.789 204.439,84.255 204.536 C 84.722 204.633,85.516 204.991,86.021 205.333 C 86.526 205.675,87.474 206.054,88.130 206.177 C 88.785 206.299,89.713 206.638,90.192 206.929 C 90.678 207.225,91.806 207.542,92.746 207.647 C 93.672 207.750,95.188 208.103,96.114 208.432 C 100.059 209.832,115.523 209.836,118.886 208.438 C 119.684 208.106,121.030 207.751,121.876 207.649 C 122.840 207.533,123.712 207.243,124.208 206.875 C 124.644 206.552,125.398 206.212,125.885 206.121 C 126.372 206.029,127.143 205.670,127.598 205.323 C 128.054 204.975,128.737 204.613,129.116 204.518 C 129.495 204.423,129.948 204.142,130.123 203.895 C 130.297 203.648,130.790 203.265,131.218 203.045 C 132.377 202.447,136.269 198.089,136.269 197.388 C 136.269 197.201,136.590 196.586,136.982 196.020 C 138.074 194.445,138.091 186.421,137.006 184.822 C 136.628 184.265,136.240 183.430,136.144 182.967 C 136.048 182.504,135.772 181.979,135.531 181.801 C 135.289 181.623,134.874 180.985,134.609 180.383 C 134.343 179.782,133.908 179.094,133.643 178.854 C 133.378 178.613,133.161 178.276,133.161 178.104 C 133.161 177.932,132.886 177.513,132.551 177.173 C 132.215 176.833,131.724 176.092,131.458 175.527 C 131.193 174.962,130.768 174.291,130.514 174.037 C 130.260 173.783,130.052 173.418,130.052 173.226 C 130.052 173.033,129.704 172.363,129.279 171.736 C 128.854 171.109,128.505 170.408,128.502 170.179 C 128.500 169.949,128.193 169.313,127.821 168.765 C 127.449 168.217,126.991 167.257,126.803 166.632 C 126.615 166.007,126.279 165.294,126.056 165.048 C 125.834 164.802,125.543 164.026,125.409 163.324 C 125.276 162.621,124.868 161.405,124.503 160.622 C 124.138 159.838,123.838 158.833,123.837 158.388 C 123.835 157.943,123.518 156.661,123.130 155.538 C 122.200 152.840,122.037 143.268,122.886 141.192 C 123.148 140.551,123.526 139.233,123.725 138.264 C 123.924 137.295,124.366 136.013,124.707 135.414 C 125.048 134.816,125.408 133.977,125.507 133.549 C 125.605 133.122,125.920 132.521,126.207 132.214 C 126.494 131.907,126.837 131.170,126.970 130.577 C 127.104 129.984,127.439 129.186,127.717 128.804 C 127.994 128.421,128.340 127.560,128.487 126.889 C 128.634 126.217,128.987 125.221,129.273 124.673 C 129.558 124.126,129.916 122.985,130.068 122.137 C 130.221 121.289,130.577 120.109,130.860 119.514 C 131.152 118.900,131.479 117.419,131.617 116.089 C 131.750 114.799,132.117 112.896,132.430 111.859 C 133.331 108.887,133.477 90.781,132.626 87.685 C 131.850 84.864,131.631 83.732,131.618 82.487 C 131.611 81.878,131.337 80.918,130.975 80.237 C 130.628 79.584,130.219 78.371,130.066 77.543 C 129.914 76.714,129.576 75.745,129.314 75.389 C 129.053 75.032,128.639 74.138,128.395 73.401 C 128.151 72.664,127.789 71.926,127.591 71.762 C 127.393 71.597,127.048 70.914,126.825 70.243 C 126.602 69.572,126.188 68.824,125.904 68.581 C 125.621 68.339,125.387 67.993,125.386 67.813 C 125.385 67.634,124.977 66.975,124.479 66.350 C 123.982 65.724,123.575 65.121,123.575 65.009 C 123.575 64.817,123.314 64.509,121.308 62.329 C 120.845 61.825,120.466 61.313,120.466 61.189 C 120.466 61.065,120.185 60.836,119.841 60.679 C 119.497 60.522,119.140 60.154,119.046 59.860 C 118.953 59.567,118.740 59.326,118.573 59.326 C 118.406 59.326,117.977 59.039,117.619 58.688 C 116.196 57.289,115.011 56.306,113.709 55.440 C 112.958 54.942,112.047 54.213,111.684 53.821 C 111.321 53.429,110.821 53.109,110.573 53.109 C 110.325 53.109,109.739 52.775,109.271 52.367 C 108.803 51.958,108.128 51.537,107.772 51.430 C 107.416 51.323,106.891 51.030,106.606 50.779 C 106.321 50.528,105.622 50.178,105.052 50.000 C 104.482 49.822,103.782 49.469,103.497 49.214 C 103.212 48.959,102.455 48.613,101.813 48.445 C 101.172 48.277,100.298 47.931,99.870 47.676 C 99.443 47.422,98.452 47.077,97.668 46.911 C 96.885 46.744,95.777 46.382,95.207 46.105 C 94.233 45.632,89.563 44.816,84.845 44.294 C 83.705 44.168,82.422 44.021,81.995 43.968 C 81.567 43.914,81.043 43.908,80.829 43.954 M185.233 44.053 C 184.449 44.161,183.103 44.261,182.241 44.275 C 181.379 44.289,180.563 44.411,180.427 44.546 C 180.292 44.681,178.923 44.978,177.386 45.206 C 174.379 45.652,173.834 45.792,173.834 46.123 C 173.834 46.240,173.164 46.529,172.345 46.766 C 171.525 47.002,170.622 47.405,170.337 47.661 C 170.052 47.917,169.527 48.215,169.171 48.322 C 168.383 48.559,167.239 49.448,165.513 51.166 C 163.394 53.275,163.269 53.445,162.951 54.663 C 162.783 55.304,162.453 56.045,162.217 56.310 C 161.593 57.009,161.598 61.781,162.224 62.735 C 162.463 63.101,162.825 64.028,163.026 64.796 C 163.228 65.564,163.702 66.645,164.080 67.199 C 164.458 67.754,164.767 68.366,164.767 68.559 C 164.767 68.753,164.995 69.140,165.273 69.418 C 165.552 69.697,166.023 70.425,166.321 71.037 C 166.909 72.244,167.843 73.659,168.593 74.482 C 168.853 74.767,169.232 75.350,169.436 75.777 C 169.639 76.205,170.071 76.884,170.395 77.287 C 170.719 77.689,170.984 78.171,170.984 78.356 C 170.984 78.541,171.178 78.853,171.415 79.049 C 171.652 79.244,172.112 80.005,172.437 80.740 C 172.763 81.475,173.143 82.147,173.282 82.233 C 173.422 82.319,173.736 83.000,173.980 83.747 C 174.225 84.493,174.642 85.413,174.907 85.791 C 175.172 86.170,175.389 86.765,175.389 87.115 C 175.389 87.465,175.727 88.385,176.141 89.160 C 176.587 89.997,176.965 91.195,177.072 92.111 C 177.170 92.959,177.488 94.119,177.777 94.689 C 178.982 97.066,179.045 108.897,177.868 112.023 C 177.537 112.904,177.182 114.377,177.080 115.297 C 176.971 116.275,176.646 117.400,176.296 118.009 C 175.967 118.580,175.618 119.630,175.520 120.340 C 175.422 121.051,175.126 121.939,174.862 122.314 C 174.598 122.688,174.198 123.708,173.972 124.579 C 173.746 125.450,173.273 126.587,172.921 127.107 C 172.568 127.627,172.280 128.363,172.280 128.744 C 172.280 129.124,172.053 129.679,171.777 129.976 C 171.500 130.273,171.079 131.186,170.841 132.004 C 170.603 132.823,170.145 134.030,169.823 134.687 C 169.500 135.343,169.169 136.332,169.085 136.884 C 169.002 137.436,168.774 138.078,168.579 138.309 C 168.200 138.759,167.617 140.574,167.617 141.303 C 167.617 141.544,167.328 142.352,166.976 143.097 C 166.623 143.842,166.215 145.299,166.068 146.334 C 165.921 147.370,165.632 148.543,165.426 148.941 C 165.220 149.339,164.922 150.702,164.765 151.970 C 164.393 154.954,164.109 156.590,163.712 158.031 C 163.088 160.301,163.241 170.558,163.927 172.475 C 164.247 173.366,164.508 174.487,164.508 174.966 C 164.508 176.345,164.996 178.553,165.399 178.998 C 165.602 179.223,165.958 180.241,166.190 181.262 C 166.422 182.282,166.769 183.178,166.961 183.251 C 167.154 183.325,167.499 184.034,167.730 184.827 C 167.961 185.621,168.267 186.269,168.410 186.269 C 168.554 186.269,168.905 186.816,169.192 187.484 C 169.478 188.152,169.940 188.858,170.219 189.053 C 170.497 189.248,170.727 189.547,170.729 189.717 C 170.737 190.472,177.553 197.650,179.080 198.511 C 179.615 198.813,180.052 199.160,180.052 199.284 C 180.052 199.407,180.460 199.679,180.959 199.887 C 181.457 200.096,181.865 200.378,181.865 200.514 C 181.865 200.650,182.495 201.060,183.265 201.424 C 184.035 201.788,184.728 202.252,184.806 202.454 C 184.883 202.656,185.342 202.895,185.826 202.986 C 186.310 203.077,187.019 203.421,187.403 203.750 C 187.786 204.080,188.533 204.430,189.063 204.528 C 189.593 204.626,190.383 204.978,190.820 205.310 C 191.257 205.641,192.190 205.999,192.893 206.104 C 193.596 206.210,194.579 206.561,195.078 206.885 C 195.627 207.242,196.597 207.541,197.539 207.642 C 198.394 207.735,199.933 208.091,200.959 208.434 C 205.023 209.792,219.925 209.845,223.533 208.515 C 224.340 208.217,225.675 207.862,226.501 207.724 C 227.326 207.586,228.649 207.133,229.441 206.716 C 230.234 206.299,231.085 205.959,231.333 205.959 C 231.582 205.959,232.120 205.671,232.529 205.319 C 232.938 204.967,233.588 204.611,233.973 204.526 C 234.357 204.442,235.035 204.059,235.479 203.676 C 237.204 202.186,240.155 199.223,240.155 198.980 C 240.155 198.840,240.387 198.509,240.671 198.244 C 240.955 197.980,241.408 197.131,241.680 196.356 C 241.951 195.582,242.359 194.598,242.587 194.171 C 243.215 192.994,243.175 188.009,242.528 186.784 C 242.266 186.287,241.909 185.307,241.736 184.605 C 241.562 183.903,241.136 182.991,240.788 182.577 C 240.440 182.164,240.155 181.676,240.155 181.492 C 240.155 181.309,239.821 180.739,239.413 180.225 C 239.005 179.711,238.524 178.938,238.345 178.506 C 238.166 178.074,237.912 177.720,237.779 177.720 C 237.647 177.720,237.378 177.341,237.181 176.878 C 236.984 176.415,236.530 175.643,236.171 175.162 C 235.813 174.682,235.446 173.953,235.356 173.544 C 235.266 173.134,234.977 172.648,234.714 172.464 C 234.451 172.280,234.029 171.609,233.777 170.974 C 233.524 170.338,233.169 169.668,232.987 169.483 C 232.805 169.299,232.526 168.665,232.368 168.076 C 232.209 167.487,231.798 166.590,231.454 166.084 C 231.110 165.579,230.829 164.920,230.829 164.621 C 230.829 164.322,230.538 163.504,230.183 162.803 C 229.828 162.102,229.423 160.911,229.283 160.155 C 229.143 159.400,228.782 158.235,228.481 157.565 C 226.970 154.199,227.047 141.641,228.599 138.342 C 228.968 137.558,229.271 136.612,229.272 136.240 C 229.273 135.867,229.487 135.284,229.747 134.944 C 230.006 134.604,230.486 133.656,230.813 132.837 C 231.140 132.017,231.492 131.347,231.595 131.347 C 231.698 131.347,231.930 130.852,232.110 130.246 C 232.453 129.094,232.678 128.562,233.305 127.422 C 233.512 127.044,233.792 126.156,233.927 125.447 C 234.061 124.738,234.418 123.686,234.719 123.107 C 235.021 122.529,235.372 121.313,235.501 120.406 C 235.629 119.499,235.979 118.203,236.279 117.526 C 236.669 116.645,236.900 115.325,237.093 112.876 C 237.259 110.772,237.526 109.107,237.788 108.549 C 238.322 107.409,238.437 90.770,237.916 90.130 C 237.590 89.732,237.052 86.617,237.038 85.054 C 237.034 84.511,236.792 83.426,236.502 82.642 C 236.211 81.859,235.805 80.407,235.599 79.417 C 235.393 78.427,235.048 77.347,234.832 77.017 C 234.616 76.688,234.219 75.710,233.950 74.845 C 233.681 73.980,233.287 73.078,233.076 72.841 C 232.864 72.603,232.562 71.927,232.406 71.338 C 232.249 70.749,231.931 70.110,231.698 69.917 C 231.466 69.725,231.057 69.099,230.790 68.527 C 230.318 67.519,229.460 66.221,228.561 65.155 C 228.321 64.870,227.611 63.996,226.983 63.212 C 225.065 60.818,224.573 60.333,221.404 57.723 C 220.247 56.769,219.009 55.720,218.653 55.391 C 218.297 55.062,217.685 54.653,217.293 54.481 C 216.901 54.310,216.580 54.061,216.580 53.927 C 216.580 53.793,216.085 53.451,215.479 53.166 C 214.874 52.881,214.156 52.402,213.885 52.101 C 213.613 51.800,213.194 51.554,212.952 51.554 C 212.711 51.554,212.057 51.224,211.501 50.821 C 210.944 50.418,210.147 50.002,209.730 49.897 C 209.314 49.793,208.652 49.438,208.261 49.109 C 207.870 48.779,207.028 48.432,206.391 48.336 C 205.754 48.241,204.988 47.950,204.688 47.690 C 204.388 47.430,203.415 47.075,202.525 46.902 C 201.635 46.728,200.557 46.374,200.130 46.114 C 199.633 45.812,198.140 45.486,195.997 45.211 C 194.152 44.975,192.462 44.689,192.241 44.575 C 192.020 44.461,190.848 44.306,189.637 44.230 C 188.426 44.154,187.260 44.039,187.047 43.975 C 186.833 43.910,186.017 43.946,185.233 44.053 M283.161 44.214 C 282.234 44.271,281.109 44.488,280.660 44.697 C 280.211 44.907,279.534 45.078,279.156 45.078 C 277.717 45.078,274.714 45.705,274.093 46.135 C 273.737 46.382,272.834 46.779,272.085 47.017 C 271.337 47.256,270.725 47.544,270.725 47.658 C 270.725 47.772,270.347 48.014,269.883 48.196 C 269.420 48.379,268.750 48.783,268.394 49.093 C 268.038 49.404,267.309 49.920,266.775 50.239 C 266.240 50.558,265.803 50.910,265.803 51.021 C 265.803 51.132,265.337 51.752,264.767 52.400 C 264.197 53.047,263.731 53.741,263.731 53.942 C 263.731 54.142,263.468 54.588,263.148 54.932 C 262.276 55.867,262.253 63.162,263.117 64.378 C 263.421 64.806,263.817 65.714,263.996 66.396 C 264.178 67.089,264.535 67.751,264.803 67.895 C 265.068 68.037,265.285 68.365,265.285 68.624 C 265.285 68.883,265.578 69.412,265.936 69.798 C 266.295 70.185,266.765 70.924,266.981 71.441 C 267.197 71.958,267.548 72.562,267.761 72.784 C 268.356 73.401,269.339 74.867,270.072 76.231 C 270.436 76.907,270.837 77.461,270.963 77.461 C 271.089 77.461,271.405 78.054,271.665 78.779 C 271.926 79.504,272.346 80.208,272.598 80.343 C 272.851 80.478,273.057 80.801,273.057 81.061 C 273.057 81.321,273.366 81.987,273.743 82.542 C 274.121 83.096,274.575 84.097,274.753 84.767 C 274.930 85.437,275.311 86.315,275.599 86.719 C 275.886 87.122,276.199 87.915,276.293 88.480 C 276.388 89.045,276.734 90.032,277.063 90.674 C 277.392 91.315,277.739 92.539,277.835 93.394 C 277.931 94.249,278.265 95.648,278.577 96.503 C 279.372 98.677,279.434 108.897,278.662 110.331 C 278.403 110.813,278.038 112.300,277.851 113.636 C 277.665 114.972,277.277 116.516,276.989 117.068 C 276.701 117.620,276.382 118.640,276.280 119.334 C 276.178 120.028,275.760 121.224,275.353 121.992 C 274.945 122.761,274.611 123.707,274.611 124.095 C 274.611 124.483,274.391 125.081,274.121 125.424 C 273.851 125.767,273.443 126.677,273.215 127.445 C 272.987 128.214,272.636 129.027,272.436 129.253 C 272.235 129.479,271.885 130.295,271.659 131.066 C 271.432 131.838,271.080 132.654,270.878 132.880 C 270.676 133.106,270.321 134.024,270.090 134.921 C 269.858 135.817,269.442 136.986,269.165 137.517 C 268.888 138.049,268.542 139.115,268.396 139.887 C 268.249 140.659,267.948 141.568,267.726 141.907 C 267.504 142.245,267.144 143.469,266.926 144.626 C 266.708 145.782,266.359 146.988,266.152 147.304 C 265.945 147.621,265.652 148.969,265.502 150.300 C 265.351 151.631,265.003 153.478,264.728 154.404 C 263.579 158.273,263.487 172.504,264.600 174.202 C 264.810 174.522,265.056 175.357,265.148 176.058 C 265.433 178.239,265.854 179.905,266.228 180.335 C 266.426 180.563,266.765 181.437,266.981 182.278 C 267.198 183.120,267.540 183.934,267.742 184.087 C 267.945 184.240,268.300 184.940,268.533 185.641 C 268.765 186.343,269.102 187.034,269.281 187.176 C 269.459 187.319,269.813 187.872,270.065 188.407 C 270.318 188.941,270.619 189.378,270.734 189.378 C 270.848 189.378,271.210 189.815,271.537 190.350 C 272.226 191.474,272.535 191.824,276.082 195.473 C 277.531 196.966,278.802 198.187,278.906 198.187 C 279.110 198.187,280.894 199.461,282.210 200.548 C 282.662 200.921,283.323 201.315,283.679 201.425 C 284.035 201.535,284.709 201.958,285.177 202.367 C 285.645 202.775,286.249 203.109,286.518 203.109 C 286.787 203.109,287.367 203.411,287.806 203.781 C 288.246 204.151,289.057 204.515,289.609 204.589 C 290.160 204.663,290.920 204.988,291.298 205.313 C 291.683 205.643,292.520 205.980,293.207 206.080 C 293.880 206.178,294.897 206.529,295.467 206.859 C 296.037 207.189,297.202 207.547,298.056 207.654 C 298.909 207.760,300.379 208.117,301.323 208.447 C 305.298 209.835,320.448 209.827,324.171 208.433 C 325.054 208.103,326.418 207.746,327.202 207.640 C 327.986 207.534,328.898 207.235,329.228 206.975 C 329.559 206.715,330.442 206.325,331.190 206.107 C 331.939 205.890,332.753 205.489,332.999 205.217 C 333.245 204.945,333.780 204.656,334.189 204.574 C 334.597 204.492,335.335 204.071,335.829 203.638 C 336.323 203.204,336.810 202.850,336.912 202.850 C 337.014 202.850,337.424 202.529,337.824 202.137 C 338.223 201.745,338.688 201.289,338.857 201.124 C 339.800 200.202,340.394 199.421,340.919 198.411 C 341.243 197.789,341.618 197.210,341.754 197.125 C 342.730 196.513,343.754 190.221,343.171 188.415 C 342.951 187.734,342.630 186.418,342.457 185.492 C 342.285 184.566,341.949 183.631,341.711 183.414 C 341.474 183.197,341.072 182.476,340.818 181.811 C 340.564 181.147,340.190 180.539,339.985 180.461 C 339.781 180.382,339.443 179.908,339.234 179.408 C 339.024 178.907,338.765 178.497,338.657 178.497 C 338.549 178.497,338.172 177.944,337.818 177.267 C 337.465 176.590,337.082 175.995,336.967 175.945 C 336.852 175.895,336.465 175.253,336.108 174.520 C 335.023 172.292,334.355 171.114,333.744 170.349 C 333.423 169.948,333.161 169.360,333.161 169.043 C 333.161 168.726,332.874 168.044,332.524 167.529 C 332.174 167.013,331.761 166.118,331.605 165.539 C 331.449 164.961,331.036 163.950,330.687 163.293 C 330.338 162.636,330.052 161.763,330.052 161.352 C 330.052 160.941,329.759 160.026,329.401 159.320 C 328.990 158.510,328.655 157.243,328.493 155.896 C 328.021 151.946,327.789 150.613,327.475 150.026 C 327.050 149.232,327.246 146.339,327.939 143.174 C 328.246 141.771,328.497 140.267,328.497 139.832 C 328.497 139.396,328.830 138.329,329.236 137.460 C 329.642 136.592,330.050 135.490,330.141 135.013 C 330.233 134.536,330.600 133.798,330.957 133.374 C 331.314 132.950,331.606 132.343,331.606 132.025 C 331.606 131.708,331.892 131.061,332.240 130.588 C 332.589 130.116,332.950 129.364,333.042 128.919 C 333.134 128.473,333.548 127.380,333.962 126.489 C 334.376 125.598,334.715 124.560,334.715 124.182 C 334.715 123.805,335.007 122.879,335.363 122.125 C 335.720 121.372,336.137 119.850,336.291 118.743 C 336.445 117.637,336.752 116.382,336.972 115.955 C 337.225 115.467,337.504 113.639,337.725 111.022 C 337.919 108.736,338.210 106.166,338.373 105.311 C 338.880 102.649,338.957 94.203,338.482 93.285 C 338.263 92.860,338.078 91.895,338.072 91.140 C 338.053 88.803,337.400 84.094,336.982 83.284 C 336.764 82.860,336.453 81.639,336.291 80.570 C 336.123 79.464,335.779 78.328,335.491 77.933 C 335.213 77.552,334.909 76.757,334.815 76.168 C 334.721 75.579,334.380 74.708,334.058 74.234 C 333.736 73.759,333.290 72.746,333.068 71.983 C 332.846 71.220,332.426 70.393,332.135 70.145 C 331.844 69.897,331.606 69.478,331.606 69.214 C 331.606 68.949,331.358 68.511,331.055 68.240 C 330.751 67.968,330.289 67.251,330.027 66.645 C 329.766 66.040,329.434 65.544,329.290 65.544 C 329.147 65.544,328.845 65.189,328.620 64.754 C 328.396 64.320,326.731 62.515,324.922 60.743 C 320.357 56.273,320.297 56.218,320.021 56.218 C 319.886 56.218,319.463 55.868,319.082 55.440 C 318.701 55.013,318.256 54.663,318.093 54.663 C 317.816 54.663,316.483 53.751,314.770 52.390 C 314.362 52.065,313.641 51.671,313.167 51.512 C 312.693 51.354,312.014 50.964,311.658 50.646 C 311.302 50.327,310.674 49.987,310.263 49.890 C 309.851 49.793,309.152 49.443,308.708 49.114 C 308.265 48.784,307.439 48.444,306.874 48.358 C 306.309 48.271,305.544 47.978,305.175 47.705 C 304.806 47.432,303.585 47.019,302.462 46.787 C 301.339 46.554,300.221 46.184,299.978 45.965 C 299.689 45.703,298.454 45.446,296.396 45.220 C 294.669 45.030,293.112 44.757,292.936 44.613 C 292.585 44.326,285.837 44.051,283.161 44.214 M87.694 51.341 C 88.692 51.491,89.625 51.708,89.769 51.823 C 89.913 51.938,91.077 52.228,92.355 52.468 C 93.634 52.708,95.090 53.125,95.591 53.395 C 96.093 53.664,96.993 54.005,97.592 54.152 C 98.191 54.298,98.844 54.580,99.043 54.779 C 99.241 54.978,99.901 55.274,100.509 55.438 C 101.117 55.602,101.900 56.048,102.250 56.430 C 102.600 56.812,103.117 57.367,103.400 57.664 C 104.602 58.928,104.555 58.932,84.457 59.012 C 66.939 59.082,65.853 59.060,65.326 58.624 C 64.553 57.982,64.806 56.367,65.775 55.755 C 66.147 55.520,66.699 55.071,67.002 54.757 C 67.305 54.444,67.987 54.067,68.518 53.921 C 69.048 53.774,69.616 53.473,69.780 53.251 C 69.944 53.029,70.841 52.688,71.774 52.494 C 72.707 52.299,73.870 51.934,74.357 51.681 C 75.950 50.858,83.246 50.671,87.694 51.341 M189.515 51.023 C 192.022 51.185,193.549 51.413,194.438 51.759 C 195.146 52.034,196.367 52.338,197.150 52.435 C 198.872 52.647,200.259 53.067,200.259 53.376 C 200.259 53.501,200.696 53.683,201.231 53.780 C 202.490 54.008,204.145 54.661,204.145 54.930 C 204.145 55.045,204.748 55.340,205.485 55.585 C 206.703 55.989,208.808 57.722,208.808 58.320 C 208.808 58.959,206.017 59.065,189.176 59.066 C 170.389 59.067,169.360 59.005,169.790 57.882 C 169.877 57.656,169.948 57.234,169.948 56.944 C 169.948 56.306,171.507 54.815,172.927 54.093 C 173.497 53.804,174.143 53.409,174.363 53.217 C 174.583 53.025,175.520 52.692,176.447 52.477 C 177.374 52.262,178.512 51.896,178.976 51.665 C 179.501 51.403,180.921 51.169,182.721 51.048 C 184.317 50.941,185.680 50.839,185.751 50.821 C 185.823 50.803,187.516 50.894,189.515 51.023 M290.015 51.043 C 292.928 51.229,294.329 51.424,294.756 51.704 C 295.090 51.923,296.357 52.263,297.573 52.459 C 298.788 52.656,300.074 53.008,300.430 53.242 C 300.786 53.475,301.735 53.837,302.539 54.047 C 303.343 54.256,304.179 54.587,304.397 54.783 C 304.614 54.978,305.317 55.340,305.959 55.587 C 306.970 55.977,309.024 57.805,309.056 58.345 C 309.110 59.245,271.215 59.410,270.319 58.513 C 269.365 57.559,272.134 53.886,273.807 53.886 C 274.063 53.886,274.477 53.659,274.728 53.383 C 274.989 53.094,275.953 52.704,276.991 52.468 C 277.985 52.242,279.065 51.883,279.389 51.670 C 279.751 51.433,281.070 51.199,282.801 51.067 C 284.352 50.948,285.680 50.834,285.751 50.815 C 285.823 50.795,287.741 50.898,290.015 51.043 M113.083 64.249 C 113.341 64.534,113.679 64.767,113.835 64.767 C 114.258 64.767,117.589 68.385,118.129 69.430 C 118.387 69.929,118.843 70.559,119.143 70.830 C 119.444 71.102,119.689 71.472,119.689 71.652 C 119.689 71.833,119.999 72.350,120.379 72.801 C 120.953 73.483,121.028 73.736,120.826 74.310 L 120.583 75.000 96.927 75.066 C 70.327 75.140,71.981 75.258,71.088 73.237 C 70.824 72.640,70.401 71.998,70.148 71.812 C 69.896 71.626,69.689 71.263,69.689 71.005 C 69.689 70.748,69.414 70.259,69.077 69.919 C 68.741 69.579,68.260 68.892,68.008 68.394 C 67.757 67.895,67.332 67.278,67.066 67.024 C 66.410 66.397,66.389 64.386,67.034 64.010 C 68.039 63.425,112.546 63.655,113.083 64.249 M218.447 64.313 C 219.856 65.362,223.249 69.323,223.773 70.531 C 223.943 70.923,224.187 71.244,224.315 71.244 C 224.931 71.244,225.695 73.853,225.269 74.503 L 224.859 75.130 201.484 75.126 C 175.562 75.122,177.229 75.209,176.444 73.813 C 176.130 73.255,175.776 72.798,175.657 72.798 C 175.537 72.798,175.224 72.274,174.961 71.633 C 174.697 70.992,174.395 70.468,174.289 70.467 C 174.183 70.467,173.849 69.942,173.548 69.301 C 173.247 68.659,172.899 68.135,172.775 68.135 C 171.866 68.135,171.007 64.328,171.841 63.992 C 172.154 63.866,182.572 63.756,195.037 63.747 L 217.664 63.731 218.447 64.313 M318.276 64.107 C 319.321 64.544,321.503 66.658,321.503 67.235 C 321.503 67.451,321.792 67.759,322.145 67.921 C 322.499 68.082,322.864 68.454,322.957 68.747 C 323.051 69.041,323.403 69.498,323.740 69.763 C 324.077 70.028,324.352 70.402,324.352 70.595 C 324.352 70.787,324.642 71.289,324.997 71.711 C 325.967 72.863,326.165 73.585,325.739 74.417 L 325.375 75.130 301.677 75.130 C 279.431 75.130,277.955 75.102,277.584 74.676 C 277.367 74.427,276.886 73.873,276.516 73.446 C 276.146 73.018,275.729 72.348,275.590 71.956 C 275.452 71.564,275.229 71.244,275.095 71.244 C 274.961 71.244,274.618 70.697,274.332 70.029 C 274.045 69.361,273.583 68.655,273.304 68.460 C 273.026 68.265,272.798 67.977,272.798 67.821 C 272.798 67.664,272.506 67.154,272.150 66.687 C 271.459 65.781,271.303 64.552,271.813 64.041 C 272.320 63.535,317.058 63.599,318.276 64.107 M123.793 81.103 C 124.067 81.397,124.367 82.217,124.461 82.929 C 124.555 83.640,124.861 84.660,125.140 85.196 C 125.905 86.662,126.356 92.664,125.785 93.768 L 125.375 94.560 103.153 94.560 L 80.931 94.560 80.088 93.690 C 79.391 92.971,79.183 92.469,78.883 90.776 C 78.684 89.651,78.288 88.279,78.003 87.727 C 77.718 87.176,77.355 86.097,77.196 85.331 C 77.036 84.565,76.803 83.938,76.678 83.938 C 76.460 83.938,75.911 82.334,75.908 81.689 C 75.903 80.542,75.304 80.570,100.008 80.570 C 123.183 80.570,123.298 80.573,123.793 81.103 M228.629 81.197 C 229.354 81.869,229.649 82.722,229.933 84.974 C 230.032 85.758,230.258 86.690,230.436 87.047 C 231.018 88.213,231.427 91.748,231.114 92.909 C 230.642 94.662,231.912 94.576,207.541 94.500 L 185.419 94.430 184.902 93.738 C 184.618 93.357,184.290 92.443,184.173 91.707 C 184.057 90.971,183.725 89.879,183.436 89.281 C 183.146 88.684,182.795 87.616,182.656 86.908 C 182.516 86.201,182.106 85.048,181.745 84.347 C 181.046 82.991,180.886 81.393,181.399 80.881 C 181.636 80.644,187.193 80.570,204.831 80.570 L 227.953 80.570 228.629 81.197 M328.779 80.986 C 329.894 82.329,330.278 83.429,330.608 86.222 C 330.771 87.602,331.133 89.247,331.412 89.878 C 332.113 91.459,331.905 92.896,330.839 93.849 L 330.040 94.562 307.840 94.496 L 285.639 94.430 285.145 93.135 C 284.874 92.422,284.501 91.548,284.318 91.192 C 284.135 90.835,283.793 89.613,283.558 88.476 C 283.323 87.338,282.974 86.230,282.783 86.014 C 282.444 85.633,282.152 84.715,281.646 82.444 C 281.200 80.441,279.565 80.570,305.466 80.570 C 326.244 80.570,328.467 80.610,328.779 80.986 M125.812 100.194 C 126.610 101.371,126.180 110.719,125.286 111.613 C 124.644 112.255,81.894 112.424,80.924 111.789 C 79.686 110.977,80.116 100.519,81.422 99.689 C 81.595 99.580,91.544 99.488,103.532 99.486 L 125.329 99.482 125.812 100.194 M230.862 99.913 C 231.737 100.973,231.209 110.007,230.199 111.274 L 229.583 112.047 207.804 112.047 L 186.025 112.047 185.442 111.464 C 184.913 110.934,184.890 110.806,185.191 110.039 C 185.382 109.554,185.586 107.440,185.672 105.052 C 185.771 102.293,185.941 100.668,186.181 100.194 L 186.542 99.482 208.524 99.482 C 228.710 99.482,230.536 99.517,230.862 99.913 M331.096 99.745 C 332.203 100.337,332.274 105.813,331.215 108.815 C 331.003 109.417,330.829 110.165,330.829 110.476 C 330.829 110.787,330.589 111.300,330.295 111.615 L 329.762 112.188 308.043 112.117 C 282.866 112.035,285.153 112.314,285.405 109.362 C 285.486 108.416,285.714 107.304,285.911 106.890 C 286.142 106.406,286.269 105.222,286.269 103.570 C 286.269 101.131,286.500 100.115,287.150 99.680 C 287.607 99.375,330.523 99.438,331.096 99.745 M123.176 117.872 C 124.160 118.246,124.218 118.727,123.469 120.310 C 123.100 121.091,122.798 122.014,122.798 122.362 C 122.798 122.963,122.302 124.292,121.764 125.130 C 121.626 125.343,121.397 125.984,121.254 126.554 C 121.110 127.124,120.686 127.940,120.312 128.368 C 119.937 128.795,119.455 129.407,119.241 129.728 L 118.852 130.311 97.780 130.311 C 73.418 130.311,75.254 130.504,75.467 127.957 C 75.610 126.257,76.204 124.390,76.700 124.083 C 76.840 123.997,77.060 123.293,77.187 122.520 C 77.314 121.747,77.551 120.823,77.713 120.466 C 78.371 119.019,78.937 118.084,79.290 117.861 C 79.812 117.530,122.307 117.541,123.176 117.872 M228.204 118.100 C 228.753 118.649,228.234 122.009,227.395 123.334 C 227.176 123.680,226.808 124.628,226.578 125.440 C 226.347 126.252,226.034 126.994,225.882 127.088 C 225.729 127.182,225.387 127.767,225.121 128.387 C 224.253 130.413,225.495 130.311,201.684 130.311 C 185.159 130.311,180.576 130.241,180.366 129.987 C 179.788 129.287,179.717 127.796,180.237 127.276 C 180.508 127.005,180.928 125.982,181.169 125.004 C 181.411 124.026,181.786 123.028,182.005 122.787 C 182.223 122.546,182.519 121.616,182.663 120.721 C 182.975 118.782,183.261 118.183,184.020 117.877 C 185.313 117.356,227.674 117.570,228.204 118.100 M328.772 118.164 C 329.149 118.869,328.870 120.849,328.242 121.931 C 327.981 122.380,327.632 123.400,327.466 124.197 C 327.301 124.995,327.001 125.812,326.800 126.013 C 326.599 126.214,326.215 126.942,325.946 127.632 C 325.612 128.490,325.140 129.109,324.452 129.590 L 323.446 130.294 302.296 130.302 L 281.147 130.311 280.729 129.430 C 280.157 128.224,280.197 127.837,281.049 126.316 C 281.454 125.592,281.866 124.493,281.962 123.874 C 282.059 123.254,282.427 122.206,282.779 121.544 C 283.131 120.882,283.420 119.983,283.420 119.546 C 283.420 119.104,283.654 118.499,283.948 118.184 L 284.476 117.617 306.478 117.617 L 328.479 117.617 328.772 118.164 M116.005 135.377 C 116.731 135.887,116.793 138.082,116.156 140.803 C 115.923 141.801,115.680 143.899,115.616 145.466 C 115.442 149.709,118.555 149.223,91.549 149.223 C 68.752 149.223,68.408 149.215,68.137 148.710 C 67.784 148.049,68.220 145.181,68.766 144.578 C 68.980 144.341,69.338 143.283,69.560 142.228 C 69.782 141.173,70.126 140.129,70.325 139.908 C 70.524 139.688,70.826 138.925,70.997 138.212 C 71.404 136.517,71.792 135.928,72.840 135.412 C 74.124 134.779,115.104 134.747,116.005 135.377 M221.295 135.442 C 221.823 135.971,221.694 139.057,221.099 140.155 C 220.700 140.892,220.590 141.743,220.513 144.689 C 220.440 147.515,220.330 148.416,220.014 148.769 C 219.360 149.501,173.935 149.467,173.029 148.734 C 172.543 148.341,172.486 148.173,172.738 147.870 C 172.909 147.664,173.224 146.584,173.437 145.470 C 173.650 144.357,174.005 143.246,174.225 143.002 C 174.446 142.758,174.736 141.890,174.869 141.072 C 175.002 140.254,175.407 139.081,175.768 138.464 C 176.129 137.847,176.425 137.175,176.425 136.971 C 176.425 136.262,177.458 135.267,178.309 135.157 C 180.682 134.849,220.971 135.116,221.295 135.442 M321.089 135.336 C 322.117 135.765,322.392 136.806,321.829 138.140 C 321.500 138.920,321.015 144.025,320.994 146.946 C 320.975 149.428,323.148 149.223,296.871 149.223 C 274.885 149.223,273.866 149.202,273.299 148.743 L 272.706 148.263 273.255 147.209 C 273.557 146.630,273.976 145.325,274.186 144.309 C 274.397 143.293,274.756 142.175,274.986 141.825 C 275.215 141.475,275.508 140.636,275.636 139.960 C 275.944 138.340,276.349 137.306,276.678 137.306 C 276.824 137.306,276.943 137.140,276.943 136.937 C 276.943 136.734,277.245 136.210,277.614 135.771 L 278.284 134.974 299.254 134.974 C 316.607 134.974,320.373 135.036,321.089 135.336 M115.984 155.505 C 116.367 155.927,116.556 156.590,116.666 157.902 C 116.767 159.097,117.043 160.150,117.477 160.990 C 117.839 161.690,118.135 162.670,118.135 163.166 C 118.135 163.662,118.453 164.696,118.842 165.465 C 119.504 166.771,119.524 166.907,119.156 167.563 L 118.762 168.264 92.736 168.264 C 67.557 168.264,66.686 168.248,65.981 167.770 L 65.251 167.276 65.359 163.107 C 65.462 159.125,65.689 157.635,66.476 155.764 L 66.831 154.922 91.142 154.922 L 115.454 154.922 115.984 155.505 M220.546 155.385 C 221.238 156.150,221.763 157.683,222.016 159.680 C 222.153 160.761,222.537 162.128,222.915 162.881 C 223.278 163.603,223.577 164.469,223.579 164.804 C 223.581 165.140,223.737 165.706,223.925 166.062 C 224.426 167.008,223.856 168.060,222.733 168.264 C 222.270 168.348,210.485 168.382,196.544 168.340 L 171.198 168.264 170.671 167.617 C 170.171 167.002,170.153 166.746,170.317 162.565 C 170.560 156.369,170.639 155.874,171.465 155.361 C 172.569 154.676,219.925 154.700,220.546 155.385 M320.909 155.246 C 321.317 155.781,322.536 159.663,322.794 161.248 C 322.927 162.062,323.334 163.339,323.700 164.086 C 324.513 165.748,324.612 167.159,323.965 167.874 C 323.500 168.388,323.198 168.394,297.793 168.394 C 267.750 168.394,270.725 168.725,270.725 165.379 C 270.725 161.425,271.265 155.854,271.694 155.376 C 272.223 154.786,320.461 154.659,320.909 155.246 M123.164 175.065 C 123.815 175.884,124.349 176.801,124.350 177.102 C 124.351 177.403,124.622 177.928,124.951 178.268 C 125.281 178.608,125.750 179.318,125.995 179.847 C 126.239 180.375,126.557 180.880,126.702 180.970 C 126.846 181.059,127.147 181.589,127.371 182.146 C 127.594 182.704,127.871 183.161,127.986 183.161 C 128.986 183.161,129.573 186.031,128.699 186.643 C 127.821 187.258,74.517 187.256,72.779 186.641 C 71.706 186.261,69.689 183.868,69.689 182.975 C 69.689 182.841,69.356 182.216,68.949 181.586 C 68.543 180.956,68.059 179.858,67.874 179.145 C 67.689 178.433,67.364 177.647,67.151 177.399 C 66.938 177.151,66.709 176.380,66.643 175.686 C 66.422 173.394,63.998 173.575,94.855 173.575 L 121.979 173.575 123.164 175.065 M226.684 173.743 C 227.390 173.885,227.627 174.134,228.160 175.298 C 228.509 176.060,228.885 176.684,228.995 176.684 C 229.106 176.684,229.412 177.179,229.677 177.785 C 229.942 178.391,230.426 179.216,230.753 179.618 C 231.080 180.021,231.347 180.500,231.347 180.682 C 231.347 180.864,231.654 181.344,232.029 181.748 C 232.404 182.153,232.872 182.869,233.069 183.340 C 233.266 183.811,233.523 184.197,233.641 184.197 C 234.639 184.197,234.388 186.667,233.364 186.919 C 233.038 186.999,220.317 187.031,205.094 186.991 L 177.416 186.917 176.787 186.140 C 176.441 185.712,175.937 185.130,175.667 184.845 C 175.397 184.560,174.996 183.889,174.777 183.355 C 174.558 182.821,174.265 182.383,174.125 182.383 C 173.985 182.383,173.679 181.713,173.444 180.894 C 173.209 180.074,172.829 179.113,172.599 178.756 C 171.790 177.503,171.474 174.568,172.089 174.034 C 172.632 173.563,224.403 173.287,226.684 173.743 M327.640 174.158 C 328.151 174.505,328.667 175.181,328.917 175.829 C 329.147 176.428,329.548 177.110,329.808 177.346 C 330.069 177.581,330.352 178.096,330.439 178.489 C 330.525 178.883,330.852 179.479,331.166 179.815 C 331.479 180.150,331.969 180.844,332.254 181.356 C 333.240 183.128,333.811 184.009,334.395 184.662 C 335.032 185.373,334.967 186.148,334.224 186.714 C 333.903 186.958,327.496 187.032,305.995 187.038 L 278.182 187.047 276.915 185.773 C 276.218 185.072,275.648 184.319,275.648 184.099 C 275.648 183.879,275.373 183.433,275.037 183.106 C 274.701 182.780,274.278 181.959,274.097 181.282 C 273.915 180.606,273.678 180.052,273.569 180.052 C 273.261 180.052,272.205 176.529,271.943 174.627 C 271.800 173.594,272.101 173.583,299.984 173.579 L 326.781 173.575 327.640 174.158 M129.810 192.496 C 130.433 192.830,130.455 193.746,129.858 194.535 C 128.691 196.077,127.843 196.949,127.174 197.294 C 126.774 197.501,126.155 197.962,125.800 198.317 C 125.444 198.673,124.996 198.964,124.803 198.964 C 124.611 198.964,124.061 199.253,123.581 199.607 C 123.101 199.961,122.029 200.384,121.199 200.548 C 120.369 200.711,119.689 200.943,119.689 201.063 C 119.689 201.443,117.058 202.026,114.541 202.204 C 113.205 202.298,111.573 202.539,110.914 202.739 C 109.388 203.202,106.174 203.208,104.663 202.750 C 104.022 202.555,102.390 202.317,101.036 202.220 C 98.009 202.004,95.904 201.620,95.166 201.152 C 94.858 200.956,93.886 200.680,93.005 200.538 C 92.124 200.396,90.918 200.001,90.326 199.659 C 89.733 199.318,88.858 198.964,88.381 198.873 C 87.904 198.782,87.166 198.415,86.742 198.058 C 86.318 197.701,85.687 197.409,85.340 197.409 C 84.994 197.409,84.345 197.060,83.897 196.632 C 83.450 196.205,82.877 195.855,82.625 195.855 C 82.373 195.855,81.513 195.258,80.715 194.528 C 79.197 193.142,79.124 192.656,80.394 192.408 C 81.711 192.152,129.325 192.237,129.810 192.496 M235.142 192.803 C 235.542 193.203,235.547 193.295,235.194 193.710 C 234.977 193.963,234.650 194.550,234.467 195.013 C 234.284 195.476,234.032 195.855,233.908 195.855 C 233.784 195.855,233.371 196.205,232.990 196.632 C 232.609 197.060,232.171 197.409,232.016 197.409 C 231.861 197.409,231.417 197.746,231.028 198.157 C 230.640 198.568,230.017 198.981,229.643 199.075 C 229.269 199.169,228.655 199.472,228.277 199.749 C 227.900 200.026,226.996 200.365,226.269 200.501 C 225.542 200.638,224.515 201.005,223.986 201.317 C 223.218 201.770,222.334 201.938,219.608 202.151 C 217.729 202.298,216.109 202.544,216.007 202.699 C 215.696 203.172,210.302 203.224,209.283 202.763 C 208.808 202.548,207.254 202.300,205.829 202.212 C 202.906 202.032,200.913 201.662,200.088 201.146 C 199.781 200.954,198.801 200.679,197.912 200.536 C 196.950 200.381,195.912 200.010,195.348 199.619 C 194.828 199.259,194.104 198.964,193.740 198.964 C 193.376 198.964,192.682 198.698,192.199 198.372 C 191.716 198.047,190.769 197.572,190.093 197.316 C 189.418 197.060,188.798 196.741,188.716 196.608 C 188.633 196.475,188.137 196.145,187.612 195.876 C 185.329 194.703,183.976 192.925,185.039 192.492 C 186.256 191.997,234.636 192.297,235.142 192.803 M334.832 192.529 C 335.984 193.054,335.551 194.635,333.814 196.239 C 332.195 197.735,330.458 198.964,329.962 198.964 C 329.726 198.964,329.296 199.202,329.005 199.492 C 328.410 200.088,327.422 200.518,326.651 200.518 C 326.367 200.518,325.509 200.814,324.746 201.175 C 323.690 201.674,322.626 201.898,320.293 202.109 C 318.607 202.262,316.839 202.560,316.365 202.771 C 315.330 203.230,309.945 203.166,309.640 202.692 C 309.534 202.526,308.152 202.325,306.389 202.218 C 303.362 202.035,300.541 201.492,300.261 201.040 C 300.182 200.912,299.380 200.689,298.478 200.543 C 297.577 200.398,296.457 200.054,295.991 199.779 C 295.524 199.504,294.491 199.089,293.696 198.858 C 292.900 198.626,292.157 198.281,292.044 198.090 C 291.932 197.899,291.252 197.550,290.535 197.315 C 289.817 197.079,289.032 196.654,288.789 196.371 C 288.546 196.087,288.174 195.855,287.962 195.855 C 287.518 195.855,284.974 193.508,284.974 193.099 C 284.974 192.948,285.236 192.699,285.557 192.544 C 286.414 192.131,333.927 192.116,334.832 192.529 " stroke="none" fill="#1aa658" fill-rule="evenodd"></path><path id="path1" d="M0.000 129.534 L 0.000 259.067 200.000 259.067 L 400.000 259.067 400.000 129.534 L 400.000 0.000 200.000 0.000 L 0.000 0.000 0.000 129.534 M84.845 44.294 C 89.563 44.816,94.233 45.632,95.207 46.105 C 95.777 46.382,96.885 46.744,97.668 46.911 C 98.452 47.077,99.443 47.422,99.870 47.676 C 100.298 47.931,101.172 48.277,101.813 48.445 C 102.455 48.613,103.212 48.959,103.497 49.214 C 103.782 49.469,104.482 49.822,105.052 50.000 C 105.622 50.178,106.321 50.528,106.606 50.779 C 106.891 51.030,107.416 51.323,107.772 51.430 C 108.128 51.537,108.803 51.958,109.271 52.367 C 109.739 52.775,110.325 53.109,110.573 53.109 C 110.821 53.109,111.321 53.429,111.684 53.821 C 112.047 54.213,112.958 54.942,113.709 55.440 C 115.011 56.306,116.196 57.289,117.619 58.688 C 117.977 59.039,118.406 59.326,118.573 59.326 C 118.740 59.326,118.953 59.567,119.046 59.860 C 119.140 60.154,119.497 60.522,119.841 60.679 C 120.185 60.836,120.466 61.065,120.466 61.189 C 120.466 61.313,120.845 61.825,121.308 62.329 C 123.314 64.509,123.575 64.817,123.575 65.009 C 123.575 65.121,123.982 65.724,124.479 66.350 C 124.977 66.975,125.385 67.634,125.386 67.813 C 125.387 67.993,125.621 68.339,125.904 68.581 C 126.188 68.824,126.602 69.572,126.825 70.243 C 127.048 70.914,127.393 71.597,127.591 71.762 C 127.789 71.926,128.151 72.664,128.395 73.401 C 128.639 74.138,129.053 75.032,129.314 75.389 C 129.576 75.745,129.914 76.714,130.066 77.543 C 130.219 78.371,130.628 79.584,130.975 80.237 C 131.337 80.918,131.611 81.878,131.618 82.487 C 131.631 83.732,131.850 84.864,132.626 87.685 C 133.477 90.781,133.331 108.887,132.430 111.859 C 132.117 112.896,131.750 114.799,131.617 116.089 C 131.479 117.419,131.152 118.900,130.860 119.514 C 130.577 120.109,130.221 121.289,130.068 122.137 C 129.916 122.985,129.558 124.126,129.273 124.673 C 128.987 125.221,128.634 126.217,128.487 126.889 C 128.340 127.560,127.994 128.421,127.717 128.804 C 127.439 129.186,127.104 129.984,126.970 130.577 C 126.837 131.170,126.494 131.907,126.207 132.214 C 125.920 132.521,125.605 133.122,125.507 133.549 C 125.408 133.977,125.048 134.816,124.707 135.414 C 124.366 136.013,123.924 137.295,123.725 138.264 C 123.526 139.233,123.148 140.551,122.886 141.192 C 122.037 143.268,122.200 152.840,123.130 155.538 C 123.518 156.661,123.835 157.943,123.837 158.388 C 123.838 158.833,124.138 159.838,124.503 160.622 C 124.868 161.405,125.276 162.621,125.409 163.324 C 125.543 164.026,125.834 164.802,126.056 165.048 C 126.279 165.294,126.615 166.007,126.803 166.632 C 126.991 167.257,127.449 168.217,127.821 168.765 C 128.193 169.313,128.500 169.949,128.502 170.179 C 128.505 170.408,128.854 171.109,129.279 171.736 C 129.704 172.363,130.052 173.033,130.052 173.226 C 130.052 173.418,130.260 173.783,130.514 174.037 C 130.768 174.291,131.193 174.962,131.458 175.527 C 131.724 176.092,132.215 176.833,132.551 177.173 C 132.886 177.513,133.161 177.932,133.161 178.104 C 133.161 178.276,133.378 178.613,133.643 178.854 C 133.908 179.094,134.343 179.782,134.609 180.383 C 134.874 180.985,135.289 181.623,135.531 181.801 C 135.772 181.979,136.048 182.504,136.144 182.967 C 136.240 183.430,136.628 184.265,137.006 184.822 C 138.091 186.421,138.074 194.445,136.982 196.020 C 136.590 196.586,136.269 197.201,136.269 197.388 C 136.269 198.089,132.377 202.447,131.218 203.045 C 130.790 203.265,130.297 203.648,130.123 203.895 C 129.948 204.142,129.495 204.423,129.116 204.518 C 128.737 204.613,128.054 204.975,127.598 205.323 C 127.143 205.670,126.372 206.029,125.885 206.121 C 125.398 206.212,124.644 206.552,124.208 206.875 C 123.712 207.243,122.840 207.533,121.876 207.649 C 121.030 207.751,119.684 208.106,118.886 208.438 C 115.523 209.836,100.059 209.832,96.114 208.432 C 95.188 208.103,93.672 207.750,92.746 207.647 C 91.806 207.542,90.678 207.225,90.192 206.929 C 89.713 206.638,88.785 206.299,88.130 206.177 C 87.474 206.054,86.526 205.675,86.021 205.333 C 85.516 204.991,84.722 204.633,84.255 204.536 C 83.789 204.439,83.089 204.101,82.701 203.784 C 82.313 203.467,81.518 203.069,80.936 202.901 C 80.354 202.733,79.665 202.361,79.406 202.075 C 79.147 201.789,78.795 201.554,78.623 201.554 C 78.452 201.554,77.799 201.148,77.174 200.650 C 76.548 200.153,75.935 199.745,75.811 199.743 C 75.232 199.737,69.225 194.234,67.617 192.237 C 67.260 191.794,66.727 191.160,66.432 190.828 C 66.136 190.495,65.693 189.800,65.448 189.283 C 65.203 188.766,64.716 188.034,64.366 187.657 C 64.017 187.280,63.731 186.777,63.731 186.541 C 63.731 186.305,63.439 185.716,63.083 185.233 C 62.727 184.750,62.435 184.197,62.435 184.004 C 62.435 183.576,61.673 182.052,61.357 181.846 C 61.231 181.764,61.017 181.018,60.882 180.186 C 60.746 179.355,60.393 178.198,60.096 177.615 C 58.647 174.770,58.513 153.487,59.929 151.251 C 60.365 150.563,60.880 148.304,60.882 147.073 C 60.883 146.617,61.070 145.894,61.297 145.466 C 61.793 144.535,62.328 142.761,62.563 141.271 C 62.658 140.674,62.893 140.054,63.087 139.893 C 63.280 139.733,63.508 139.231,63.594 138.777 C 63.952 136.891,64.349 135.596,64.695 135.193 C 64.897 134.956,65.239 134.082,65.455 133.250 C 65.671 132.417,66.013 131.551,66.215 131.325 C 66.417 131.100,66.768 130.284,66.995 129.512 C 67.222 128.740,67.573 127.923,67.775 127.696 C 67.977 127.469,68.321 126.598,68.539 125.760 C 68.757 124.923,69.109 124.046,69.321 123.812 C 69.533 123.578,69.891 122.642,70.118 121.732 C 70.345 120.822,70.689 119.896,70.883 119.673 C 71.077 119.450,71.422 118.284,71.649 117.082 C 71.877 115.880,72.232 114.708,72.438 114.479 C 73.851 112.907,73.877 95.176,72.470 92.994 C 72.244 92.644,71.884 91.502,71.671 90.456 C 71.457 89.410,71.117 88.361,70.916 88.125 C 70.715 87.888,70.348 87.031,70.100 86.221 C 69.853 85.410,69.504 84.625,69.324 84.476 C 69.144 84.326,68.839 83.707,68.645 83.100 C 68.451 82.492,68.018 81.658,67.682 81.246 C 67.346 80.834,67.002 80.154,66.918 79.734 C 66.834 79.314,66.607 78.910,66.414 78.836 C 66.220 78.762,65.825 78.166,65.536 77.513 C 65.247 76.859,64.836 76.143,64.622 75.921 C 63.936 75.208,62.995 73.738,62.416 72.474 C 62.107 71.797,61.745 71.244,61.613 71.244 C 61.481 71.244,61.212 70.865,61.015 70.402 C 60.819 69.938,60.358 69.158,59.992 68.667 C 59.626 68.177,59.326 67.639,59.326 67.473 C 59.326 67.307,59.026 66.728,58.659 66.187 C 56.754 63.381,56.769 55.533,58.682 53.469 C 59.028 53.097,59.374 52.590,59.452 52.344 C 59.530 52.098,59.882 51.743,60.233 51.554 C 60.585 51.366,60.940 50.998,61.024 50.736 C 61.107 50.474,61.289 50.259,61.428 50.259 C 61.568 50.259,61.989 49.952,62.365 49.576 C 62.740 49.200,63.551 48.670,64.166 48.398 C 64.782 48.126,65.285 47.795,65.285 47.664 C 65.285 47.532,66.101 47.176,67.098 46.873 C 68.096 46.570,68.912 46.225,68.912 46.106 C 68.912 45.714,73.815 44.751,78.238 44.274 C 79.449 44.144,80.615 43.999,80.829 43.954 C 81.043 43.908,81.567 43.914,81.995 43.968 C 82.422 44.021,83.705 44.168,84.845 44.294 M189.637 44.230 C 190.848 44.306,192.020 44.461,192.241 44.575 C 192.462 44.689,194.152 44.975,195.997 45.211 C 198.140 45.486,199.633 45.812,200.130 46.114 C 200.557 46.374,201.635 46.728,202.525 46.902 C 203.415 47.075,204.388 47.430,204.688 47.690 C 204.988 47.950,205.754 48.241,206.391 48.336 C 207.028 48.432,207.870 48.779,208.261 49.109 C 208.652 49.438,209.314 49.793,209.730 49.897 C 210.147 50.002,210.944 50.418,211.501 50.821 C 212.057 51.224,212.711 51.554,212.952 51.554 C 213.194 51.554,213.613 51.800,213.885 52.101 C 214.156 52.402,214.874 52.881,215.479 53.166 C 216.085 53.451,216.580 53.793,216.580 53.927 C 216.580 54.061,216.901 54.310,217.293 54.481 C 217.685 54.653,218.297 55.062,218.653 55.391 C 219.009 55.720,220.247 56.769,221.404 57.723 C 224.573 60.333,225.065 60.818,226.983 63.212 C 227.611 63.996,228.321 64.870,228.561 65.155 C 229.460 66.221,230.318 67.519,230.790 68.527 C 231.057 69.099,231.466 69.725,231.698 69.917 C 231.931 70.110,232.249 70.749,232.406 71.338 C 232.562 71.927,232.864 72.603,233.076 72.841 C 233.287 73.078,233.681 73.980,233.950 74.845 C 234.219 75.710,234.616 76.688,234.832 77.017 C 235.048 77.347,235.393 78.427,235.599 79.417 C 235.805 80.407,236.211 81.859,236.502 82.642 C 236.792 83.426,237.034 84.511,237.038 85.054 C 237.052 86.617,237.590 89.732,237.916 90.130 C 238.437 90.770,238.322 107.409,237.788 108.549 C 237.526 109.107,237.259 110.772,237.093 112.876 C 236.900 115.325,236.669 116.645,236.279 117.526 C 235.979 118.203,235.629 119.499,235.501 120.406 C 235.372 121.313,235.021 122.529,234.719 123.107 C 234.418 123.686,234.061 124.738,233.927 125.447 C 233.792 126.156,233.512 127.044,233.305 127.422 C 232.678 128.562,232.453 129.094,232.110 130.246 C 231.930 130.852,231.698 131.347,231.595 131.347 C 231.492 131.347,231.140 132.017,230.813 132.837 C 230.486 133.656,230.006 134.604,229.747 134.944 C 229.487 135.284,229.273 135.867,229.272 136.240 C 229.271 136.612,228.968 137.558,228.599 138.342 C 227.047 141.641,226.970 154.199,228.481 157.565 C 228.782 158.235,229.143 159.400,229.283 160.155 C 229.423 160.911,229.828 162.102,230.183 162.803 C 230.538 163.504,230.829 164.322,230.829 164.621 C 230.829 164.920,231.110 165.579,231.454 166.084 C 231.798 166.590,232.209 167.487,232.368 168.076 C 232.526 168.665,232.805 169.299,232.987 169.483 C 233.169 169.668,233.524 170.338,233.777 170.974 C 234.029 171.609,234.451 172.280,234.714 172.464 C 234.977 172.648,235.266 173.134,235.356 173.544 C 235.446 173.953,235.813 174.682,236.171 175.162 C 236.530 175.643,236.984 176.415,237.181 176.878 C 237.378 177.341,237.647 177.720,237.779 177.720 C 237.912 177.720,238.166 178.074,238.345 178.506 C 238.524 178.938,239.005 179.711,239.413 180.225 C 239.821 180.739,240.155 181.309,240.155 181.492 C 240.155 181.676,240.440 182.164,240.788 182.577 C 241.136 182.991,241.562 183.903,241.736 184.605 C 241.909 185.307,242.266 186.287,242.528 186.784 C 243.175 188.009,243.215 192.994,242.587 194.171 C 242.359 194.598,241.951 195.582,241.680 196.356 C 241.408 197.131,240.955 197.980,240.671 198.244 C 240.387 198.509,240.155 198.840,240.155 198.980 C 240.155 199.223,237.204 202.186,235.479 203.676 C 235.035 204.059,234.357 204.442,233.973 204.526 C 233.588 204.611,232.938 204.967,232.529 205.319 C 232.120 205.671,231.582 205.959,231.333 205.959 C 231.085 205.959,230.234 206.299,229.441 206.716 C 228.649 207.133,227.326 207.586,226.501 207.724 C 225.675 207.862,224.340 208.217,223.533 208.515 C 219.925 209.845,205.023 209.792,200.959 208.434 C 199.933 208.091,198.394 207.735,197.539 207.642 C 196.597 207.541,195.627 207.242,195.078 206.885 C 194.579 206.561,193.596 206.210,192.893 206.104 C 192.190 205.999,191.257 205.641,190.820 205.310 C 190.383 204.978,189.593 204.626,189.063 204.528 C 188.533 204.430,187.786 204.080,187.403 203.750 C 187.019 203.421,186.310 203.077,185.826 202.986 C 185.342 202.895,184.883 202.656,184.806 202.454 C 184.728 202.252,184.035 201.788,183.265 201.424 C 182.495 201.060,181.865 200.650,181.865 200.514 C 181.865 200.378,181.457 200.096,180.959 199.887 C 180.460 199.679,180.052 199.407,180.052 199.284 C 180.052 199.160,179.615 198.813,179.080 198.511 C 177.553 197.650,170.737 190.472,170.729 189.717 C 170.727 189.547,170.497 189.248,170.219 189.053 C 169.940 188.858,169.478 188.152,169.192 187.484 C 168.905 186.816,168.554 186.269,168.410 186.269 C 168.267 186.269,167.961 185.621,167.730 184.827 C 167.499 184.034,167.154 183.325,166.961 183.251 C 166.769 183.178,166.422 182.282,166.190 181.262 C 165.958 180.241,165.602 179.223,165.399 178.998 C 164.996 178.553,164.508 176.345,164.508 174.966 C 164.508 174.487,164.247 173.366,163.927 172.475 C 163.241 170.558,163.088 160.301,163.712 158.031 C 164.109 156.590,164.393 154.954,164.765 151.970 C 164.922 150.702,165.220 149.339,165.426 148.941 C 165.632 148.543,165.921 147.370,166.068 146.334 C 166.215 145.299,166.623 143.842,166.976 143.097 C 167.328 142.352,167.617 141.544,167.617 141.303 C 167.617 140.574,168.200 138.759,168.579 138.309 C 168.774 138.078,169.002 137.436,169.085 136.884 C 169.169 136.332,169.500 135.343,169.823 134.687 C 170.145 134.030,170.603 132.823,170.841 132.004 C 171.079 131.186,171.500 130.273,171.777 129.976 C 172.053 129.679,172.280 129.124,172.280 128.744 C 172.280 128.363,172.568 127.627,172.921 127.107 C 173.273 126.587,173.746 125.450,173.972 124.579 C 174.198 123.708,174.598 122.688,174.862 122.314 C 175.126 121.939,175.422 121.051,175.520 120.340 C 175.618 119.630,175.967 118.580,176.296 118.009 C 176.646 117.400,176.971 116.275,177.080 115.297 C 177.182 114.377,177.537 112.904,177.868 112.023 C 179.045 108.897,178.982 97.066,177.777 94.689 C 177.488 94.119,177.170 92.959,177.072 92.111 C 176.965 91.195,176.587 89.997,176.141 89.160 C 175.727 88.385,175.389 87.465,175.389 87.115 C 175.389 86.765,175.172 86.170,174.907 85.791 C 174.642 85.413,174.225 84.493,173.980 83.747 C 173.736 83.000,173.422 82.319,173.282 82.233 C 173.143 82.147,172.763 81.475,172.437 80.740 C 172.112 80.005,171.652 79.244,171.415 79.049 C 171.178 78.853,170.984 78.541,170.984 78.356 C 170.984 78.171,170.719 77.689,170.395 77.287 C 170.071 76.884,169.639 76.205,169.436 75.777 C 169.232 75.350,168.853 74.767,168.593 74.482 C 167.843 73.659,166.909 72.244,166.321 71.037 C 166.023 70.425,165.552 69.697,165.273 69.418 C 164.995 69.140,164.767 68.753,164.767 68.559 C 164.767 68.366,164.458 67.754,164.080 67.199 C 163.702 66.645,163.228 65.564,163.026 64.796 C 162.825 64.028,162.463 63.101,162.224 62.735 C 161.598 61.781,161.593 57.009,162.217 56.310 C 162.453 56.045,162.783 55.304,162.951 54.663 C 163.269 53.445,163.394 53.275,165.513 51.166 C 167.239 49.448,168.383 48.559,169.171 48.322 C 169.527 48.215,170.052 47.917,170.337 47.661 C 170.622 47.405,171.525 47.002,172.345 46.766 C 173.164 46.529,173.834 46.240,173.834 46.123 C 173.834 45.792,174.379 45.652,177.386 45.206 C 178.923 44.978,180.292 44.681,180.427 44.546 C 180.563 44.411,181.379 44.289,182.241 44.275 C 183.103 44.261,184.449 44.161,185.233 44.053 C 186.017 43.946,186.833 43.910,187.047 43.975 C 187.260 44.039,188.426 44.154,189.637 44.230 M292.936 44.613 C 293.112 44.757,294.669 45.030,296.396 45.220 C 298.454 45.446,299.689 45.703,299.978 45.965 C 300.221 46.184,301.339 46.554,302.462 46.787 C 303.585 47.019,304.806 47.432,305.175 47.705 C 305.544 47.978,306.309 48.271,306.874 48.358 C 307.439 48.444,308.265 48.784,308.708 49.114 C 309.152 49.443,309.851 49.793,310.263 49.890 C 310.674 49.987,311.302 50.327,311.658 50.646 C 312.014 50.964,312.693 51.354,313.167 51.512 C 313.641 51.671,314.362 52.065,314.770 52.390 C 316.483 53.751,317.816 54.663,318.093 54.663 C 318.256 54.663,318.701 55.013,319.082 55.440 C 319.463 55.868,319.886 56.218,320.021 56.218 C 320.297 56.218,320.357 56.273,324.922 60.743 C 326.731 62.515,328.396 64.320,328.620 64.754 C 328.845 65.189,329.147 65.544,329.290 65.544 C 329.434 65.544,329.766 66.040,330.027 66.645 C 330.289 67.251,330.751 67.968,331.055 68.240 C 331.358 68.511,331.606 68.949,331.606 69.214 C 331.606 69.478,331.844 69.897,332.135 70.145 C 332.426 70.393,332.846 71.220,333.068 71.983 C 333.290 72.746,333.736 73.759,334.058 74.234 C 334.380 74.708,334.721 75.579,334.815 76.168 C 334.909 76.757,335.213 77.552,335.491 77.933 C 335.779 78.328,336.123 79.464,336.291 80.570 C 336.453 81.639,336.764 82.860,336.982 83.284 C 337.400 84.094,338.053 88.803,338.072 91.140 C 338.078 91.895,338.263 92.860,338.482 93.285 C 338.957 94.203,338.880 102.649,338.373 105.311 C 338.210 106.166,337.919 108.736,337.725 111.022 C 337.504 113.639,337.225 115.467,336.972 115.955 C 336.752 116.382,336.445 117.637,336.291 118.743 C 336.137 119.850,335.720 121.372,335.363 122.125 C 335.007 122.879,334.715 123.805,334.715 124.182 C 334.715 124.560,334.376 125.598,333.962 126.489 C 333.548 127.380,333.134 128.473,333.042 128.919 C 332.950 129.364,332.589 130.116,332.240 130.588 C 331.892 131.061,331.606 131.708,331.606 132.025 C 331.606 132.343,331.314 132.950,330.957 133.374 C 330.600 133.798,330.233 134.536,330.141 135.013 C 330.050 135.490,329.642 136.592,329.236 137.460 C 328.830 138.329,328.497 139.396,328.497 139.832 C 328.497 140.267,328.246 141.771,327.939 143.174 C 327.246 146.339,327.050 149.232,327.475 150.026 C 327.789 150.613,328.021 151.946,328.493 155.896 C 328.655 157.243,328.990 158.510,329.401 159.320 C 329.759 160.026,330.052 160.941,330.052 161.352 C 330.052 161.763,330.338 162.636,330.687 163.293 C 331.036 163.950,331.449 164.961,331.605 165.539 C 331.761 166.118,332.174 167.013,332.524 167.529 C 332.874 168.044,333.161 168.726,333.161 169.043 C 333.161 169.360,333.423 169.948,333.744 170.349 C 334.355 171.114,335.023 172.292,336.108 174.520 C 336.465 175.253,336.852 175.895,336.967 175.945 C 337.082 175.995,337.465 176.590,337.818 177.267 C 338.172 177.944,338.549 178.497,338.657 178.497 C 338.765 178.497,339.024 178.907,339.234 179.408 C 339.443 179.908,339.781 180.382,339.985 180.461 C 340.190 180.539,340.564 181.147,340.818 181.811 C 341.072 182.476,341.474 183.197,341.711 183.414 C 341.949 183.631,342.285 184.566,342.457 185.492 C 342.630 186.418,342.951 187.734,343.171 188.415 C 343.754 190.221,342.730 196.513,341.754 197.125 C 341.618 197.210,341.243 197.789,340.919 198.411 C 340.394 199.421,339.800 200.202,338.857 201.124 C 338.688 201.289,338.223 201.745,337.824 202.137 C 337.424 202.529,337.014 202.850,336.912 202.850 C 336.810 202.850,336.323 203.204,335.829 203.638 C 335.335 204.071,334.597 204.492,334.189 204.574 C 333.780 204.656,333.245 204.945,332.999 205.217 C 332.753 205.489,331.939 205.890,331.190 206.107 C 330.442 206.325,329.559 206.715,329.228 206.975 C 328.898 207.235,327.986 207.534,327.202 207.640 C 326.418 207.746,325.054 208.103,324.171 208.433 C 320.448 209.827,305.298 209.835,301.323 208.447 C 300.379 208.117,298.909 207.760,298.056 207.654 C 297.202 207.547,296.037 207.189,295.467 206.859 C 294.897 206.529,293.880 206.178,293.207 206.080 C 292.520 205.980,291.683 205.643,291.298 205.313 C 290.920 204.988,290.160 204.663,289.609 204.589 C 289.057 204.515,288.246 204.151,287.806 203.781 C 287.367 203.411,286.787 203.109,286.518 203.109 C 286.249 203.109,285.645 202.775,285.177 202.367 C 284.709 201.958,284.035 201.535,283.679 201.425 C 283.323 201.315,282.662 200.921,282.210 200.548 C 280.894 199.461,279.110 198.187,278.906 198.187 C 278.802 198.187,277.531 196.966,276.082 195.473 C 272.535 191.824,272.226 191.474,271.537 190.350 C 271.210 189.815,270.848 189.378,270.734 189.378 C 270.619 189.378,270.318 188.941,270.065 188.407 C 269.813 187.872,269.459 187.319,269.281 187.176 C 269.102 187.034,268.765 186.343,268.533 185.641 C 268.300 184.940,267.945 184.240,267.742 184.087 C 267.540 183.934,267.198 183.120,266.981 182.278 C 266.765 181.437,266.426 180.563,266.228 180.335 C 265.854 179.905,265.433 178.239,265.148 176.058 C 265.056 175.357,264.810 174.522,264.600 174.202 C 263.487 172.504,263.579 158.273,264.728 154.404 C 265.003 153.478,265.351 151.631,265.502 150.300 C 265.652 148.969,265.945 147.621,266.152 147.304 C 266.359 146.988,266.708 145.782,266.926 144.626 C 267.144 143.469,267.504 142.245,267.726 141.907 C 267.948 141.568,268.249 140.659,268.396 139.887 C 268.542 139.115,268.888 138.049,269.165 137.517 C 269.442 136.986,269.858 135.817,270.090 134.921 C 270.321 134.024,270.676 133.106,270.878 132.880 C 271.080 132.654,271.432 131.838,271.659 131.066 C 271.885 130.295,272.235 129.479,272.436 129.253 C 272.636 129.027,272.987 128.214,273.215 127.445 C 273.443 126.677,273.851 125.767,274.121 125.424 C 274.391 125.081,274.611 124.483,274.611 124.095 C 274.611 123.707,274.945 122.761,275.353 121.992 C 275.760 121.224,276.178 120.028,276.280 119.334 C 276.382 118.640,276.701 117.620,276.989 117.068 C 277.277 116.516,277.665 114.972,277.851 113.636 C 278.038 112.300,278.403 110.813,278.662 110.331 C 279.434 108.897,279.372 98.677,278.577 96.503 C 278.265 95.648,277.931 94.249,277.835 93.394 C 277.739 92.539,277.392 91.315,277.063 90.674 C 276.734 90.032,276.388 89.045,276.293 88.480 C 276.199 87.915,275.886 87.122,275.599 86.719 C 275.311 86.315,274.930 85.437,274.753 84.767 C 274.575 84.097,274.121 83.096,273.743 82.542 C 273.366 81.987,273.057 81.321,273.057 81.061 C 273.057 80.801,272.851 80.478,272.598 80.343 C 272.346 80.208,271.926 79.504,271.665 78.779 C 271.405 78.054,271.089 77.461,270.963 77.461 C 270.837 77.461,270.436 76.907,270.072 76.231 C 269.339 74.867,268.356 73.401,267.761 72.784 C 267.548 72.562,267.197 71.958,266.981 71.441 C 266.765 70.924,266.295 70.185,265.936 69.798 C 265.578 69.412,265.285 68.883,265.285 68.624 C 265.285 68.365,265.068 68.037,264.803 67.895 C 264.535 67.751,264.178 67.089,263.996 66.396 C 263.817 65.714,263.421 64.806,263.117 64.378 C 262.253 63.162,262.276 55.867,263.148 54.932 C 263.468 54.588,263.731 54.142,263.731 53.942 C 263.731 53.741,264.197 53.047,264.767 52.400 C 265.337 51.752,265.803 51.132,265.803 51.021 C 265.803 50.910,266.240 50.558,266.775 50.239 C 267.309 49.920,268.038 49.404,268.394 49.093 C 268.750 48.783,269.420 48.379,269.883 48.196 C 270.347 48.014,270.725 47.772,270.725 47.658 C 270.725 47.544,271.337 47.256,272.085 47.017 C 272.834 46.779,273.737 46.382,274.093 46.135 C 274.714 45.705,277.717 45.078,279.156 45.078 C 279.534 45.078,280.211 44.907,280.660 44.697 C 282.051 44.049,292.163 43.980,292.936 44.613 M77.842 51.042 C 76.174 51.158,74.927 51.387,74.357 51.681 C 73.870 51.934,72.707 52.299,71.774 52.494 C 70.841 52.688,69.944 53.029,69.780 53.251 C 69.616 53.473,69.048 53.774,68.518 53.921 C 67.987 54.067,67.305 54.444,67.002 54.757 C 66.699 55.071,66.147 55.520,65.775 55.755 C 64.806 56.367,64.553 57.982,65.326 58.624 C 65.853 59.060,66.939 59.082,84.457 59.012 C 104.555 58.932,104.602 58.928,103.400 57.664 C 103.117 57.367,102.600 56.812,102.250 56.430 C 101.900 56.048,101.117 55.602,100.509 55.438 C 99.901 55.274,99.241 54.978,99.043 54.779 C 98.844 54.580,98.191 54.298,97.592 54.152 C 96.993 54.005,96.093 53.664,95.591 53.395 C 95.090 53.125,93.634 52.708,92.355 52.468 C 91.077 52.228,89.913 51.938,89.769 51.823 C 88.981 51.192,82.127 50.743,77.842 51.042 M182.721 51.048 C 180.921 51.169,179.501 51.403,178.976 51.665 C 178.512 51.896,177.374 52.262,176.447 52.477 C 175.520 52.692,174.583 53.025,174.363 53.217 C 174.143 53.409,173.497 53.804,172.927 54.093 C 171.507 54.815,169.948 56.306,169.948 56.944 C 169.948 57.234,169.877 57.656,169.790 57.882 C 169.360 59.005,170.389 59.067,189.176 59.066 C 206.017 59.065,208.808 58.959,208.808 58.320 C 208.808 57.722,206.703 55.989,205.485 55.585 C 204.748 55.340,204.145 55.045,204.145 54.930 C 204.145 54.661,202.490 54.008,201.231 53.780 C 200.696 53.683,200.259 53.501,200.259 53.376 C 200.259 53.067,198.872 52.647,197.150 52.435 C 196.367 52.338,195.146 52.034,194.438 51.759 C 193.392 51.352,186.569 50.615,185.751 50.821 C 185.680 50.839,184.317 50.941,182.721 51.048 M282.801 51.067 C 281.070 51.199,279.751 51.433,279.389 51.670 C 279.065 51.883,277.985 52.242,276.991 52.468 C 275.953 52.704,274.989 53.094,274.728 53.383 C 274.477 53.659,274.063 53.886,273.807 53.886 C 272.134 53.886,269.365 57.559,270.319 58.513 C 271.215 59.410,309.110 59.245,309.056 58.345 C 309.024 57.805,306.970 55.977,305.959 55.587 C 305.317 55.340,304.614 54.978,304.397 54.783 C 304.179 54.587,303.343 54.256,302.539 54.047 C 301.735 53.837,300.786 53.475,300.430 53.242 C 300.074 53.008,298.788 52.656,297.573 52.459 C 296.357 52.263,295.090 51.923,294.756 51.704 C 294.261 51.380,286.489 50.612,285.751 50.815 C 285.680 50.834,284.352 50.948,282.801 51.067 M67.034 64.010 C 66.389 64.386,66.410 66.397,67.066 67.024 C 67.332 67.278,67.757 67.895,68.008 68.394 C 68.260 68.892,68.741 69.579,69.077 69.919 C 69.414 70.259,69.689 70.748,69.689 71.005 C 69.689 71.263,69.896 71.626,70.148 71.812 C 70.401 71.998,70.824 72.640,71.088 73.237 C 71.981 75.258,70.327 75.140,96.927 75.066 L 120.583 75.000 120.826 74.310 C 121.028 73.736,120.953 73.483,120.379 72.801 C 119.999 72.350,119.689 71.833,119.689 71.652 C 119.689 71.472,119.444 71.102,119.143 70.830 C 118.843 70.559,118.387 69.929,118.129 69.430 C 117.589 68.385,114.258 64.767,113.835 64.767 C 113.679 64.767,113.341 64.534,113.083 64.249 C 112.546 63.655,68.039 63.425,67.034 64.010 M171.841 63.992 C 171.007 64.328,171.866 68.135,172.775 68.135 C 172.899 68.135,173.247 68.659,173.548 69.301 C 173.849 69.942,174.183 70.467,174.289 70.467 C 174.395 70.468,174.697 70.992,174.961 71.633 C 175.224 72.274,175.537 72.798,175.657 72.798 C 175.776 72.798,176.130 73.255,176.444 73.813 C 177.229 75.209,175.562 75.122,201.484 75.126 L 224.859 75.130 225.269 74.503 C 225.695 73.853,224.931 71.244,224.315 71.244 C 224.187 71.244,223.943 70.923,223.773 70.531 C 223.249 69.323,219.856 65.362,218.447 64.313 L 217.664 63.731 195.037 63.747 C 182.572 63.756,172.154 63.866,171.841 63.992 M271.813 64.041 C 271.303 64.552,271.459 65.781,272.150 66.687 C 272.506 67.154,272.798 67.664,272.798 67.821 C 272.798 67.977,273.026 68.265,273.304 68.460 C 273.583 68.655,274.045 69.361,274.332 70.029 C 274.618 70.697,274.961 71.244,275.095 71.244 C 275.229 71.244,275.452 71.564,275.590 71.956 C 275.729 72.348,276.146 73.018,276.516 73.446 C 276.886 73.873,277.367 74.427,277.584 74.676 C 277.955 75.102,279.431 75.130,301.677 75.130 L 325.375 75.130 325.739 74.417 C 326.165 73.585,325.967 72.863,324.997 71.711 C 324.642 71.289,324.352 70.787,324.352 70.595 C 324.352 70.402,324.077 70.028,323.740 69.763 C 323.403 69.498,323.051 69.041,322.957 68.747 C 322.864 68.454,322.499 68.082,322.145 67.921 C 321.792 67.759,321.503 67.451,321.503 67.235 C 321.503 66.658,319.321 64.544,318.276 64.107 C 317.058 63.599,272.320 63.535,271.813 64.041 M76.314 80.977 C 76.090 81.201,75.907 81.522,75.908 81.689 C 75.911 82.334,76.460 83.938,76.678 83.938 C 76.803 83.938,77.036 84.565,77.196 85.331 C 77.355 86.097,77.718 87.176,78.003 87.727 C 78.288 88.279,78.684 89.651,78.883 90.776 C 79.183 92.469,79.391 92.971,80.088 93.690 L 80.931 94.560 103.153 94.560 L 125.375 94.560 125.785 93.768 C 126.356 92.664,125.905 86.662,125.140 85.196 C 124.861 84.660,124.555 83.640,124.461 82.929 C 124.117 80.332,126.582 80.570,100.008 80.570 C 79.183 80.570,76.678 80.613,76.314 80.977 M181.399 80.881 C 180.886 81.393,181.046 82.991,181.745 84.347 C 182.106 85.048,182.516 86.201,182.656 86.908 C 182.795 87.616,183.146 88.684,183.436 89.281 C 183.725 89.879,184.057 90.971,184.173 91.707 C 184.290 92.443,184.618 93.357,184.902 93.738 L 185.419 94.430 207.541 94.500 C 231.912 94.576,230.642 94.662,231.114 92.909 C 231.427 91.748,231.018 88.213,230.436 87.047 C 230.258 86.690,230.032 85.758,229.933 84.974 C 229.649 82.722,229.354 81.869,228.629 81.197 L 227.953 80.570 204.831 80.570 C 187.193 80.570,181.636 80.644,181.399 80.881 M281.949 80.955 C 281.460 81.298,281.427 81.459,281.646 82.444 C 282.152 84.715,282.444 85.633,282.783 86.014 C 282.974 86.230,283.323 87.338,283.558 88.476 C 283.793 89.613,284.135 90.835,284.318 91.192 C 284.501 91.548,284.874 92.422,285.145 93.135 L 285.639 94.430 307.840 94.496 L 330.040 94.562 330.839 93.849 C 331.905 92.896,332.113 91.459,331.412 89.878 C 331.133 89.247,330.771 87.602,330.608 86.222 C 330.278 83.429,329.894 82.329,328.779 80.986 C 328.274 80.377,282.818 80.346,281.949 80.955 M81.422 99.689 C 80.116 100.519,79.686 110.977,80.924 111.789 C 81.894 112.424,124.644 112.255,125.286 111.613 C 126.180 110.719,126.610 101.371,125.812 100.194 L 125.329 99.482 103.532 99.486 C 91.544 99.488,81.595 99.580,81.422 99.689 M186.181 100.194 C 185.941 100.668,185.771 102.293,185.672 105.052 C 185.586 107.440,185.382 109.554,185.191 110.039 C 184.890 110.806,184.913 110.934,185.442 111.464 L 186.025 112.047 207.804 112.047 L 229.583 112.047 230.199 111.274 C 231.209 110.007,231.737 100.973,230.862 99.913 C 230.536 99.517,228.710 99.482,208.524 99.482 L 186.542 99.482 186.181 100.194 M287.150 99.680 C 286.500 100.115,286.269 101.131,286.269 103.570 C 286.269 105.222,286.142 106.406,285.911 106.890 C 285.714 107.304,285.486 108.416,285.405 109.362 C 285.153 112.314,282.866 112.035,308.043 112.117 L 329.762 112.188 330.295 111.615 C 330.589 111.300,330.829 110.787,330.829 110.476 C 330.829 110.165,331.003 109.417,331.215 108.815 C 332.274 105.813,332.203 100.337,331.096 99.745 C 330.523 99.438,287.607 99.375,287.150 99.680 M79.290 117.861 C 78.937 118.084,78.371 119.019,77.713 120.466 C 77.551 120.823,77.314 121.747,77.187 122.520 C 77.060 123.293,76.840 123.997,76.700 124.083 C 76.204 124.390,75.610 126.257,75.467 127.957 C 75.254 130.504,73.418 130.311,97.780 130.311 L 118.852 130.311 119.241 129.728 C 119.455 129.407,119.937 128.795,120.312 128.368 C 120.686 127.940,121.110 127.124,121.254 126.554 C 121.397 125.984,121.626 125.343,121.764 125.130 C 122.302 124.292,122.798 122.963,122.798 122.362 C 122.798 122.014,123.100 121.091,123.469 120.310 C 124.218 118.727,124.160 118.246,123.176 117.872 C 122.307 117.541,79.812 117.530,79.290 117.861 M184.020 117.877 C 183.261 118.183,182.975 118.782,182.663 120.721 C 182.519 121.616,182.223 122.546,182.005 122.787 C 181.786 123.028,181.411 124.026,181.169 125.004 C 180.928 125.982,180.508 127.005,180.237 127.276 C 179.717 127.796,179.788 129.287,180.366 129.987 C 180.576 130.241,185.159 130.311,201.684 130.311 C 225.495 130.311,224.253 130.413,225.121 128.387 C 225.387 127.767,225.729 127.182,225.882 127.088 C 226.034 126.994,226.347 126.252,226.578 125.440 C 226.808 124.628,227.176 123.680,227.395 123.334 C 228.234 122.009,228.753 118.649,228.204 118.100 C 227.674 117.570,185.313 117.356,184.020 117.877 M283.948 118.184 C 283.654 118.499,283.420 119.104,283.420 119.546 C 283.420 119.983,283.131 120.882,282.779 121.544 C 282.427 122.206,282.059 123.254,281.962 123.874 C 281.866 124.493,281.454 125.592,281.049 126.316 C 280.197 127.837,280.157 128.224,280.729 129.430 L 281.147 130.311 302.296 130.302 L 323.446 130.294 324.452 129.590 C 325.140 129.109,325.612 128.490,325.946 127.632 C 326.215 126.942,326.599 126.214,326.800 126.013 C 327.001 125.812,327.301 124.995,327.466 124.197 C 327.632 123.400,327.981 122.380,328.242 121.931 C 328.870 120.849,329.149 118.869,328.772 118.164 L 328.479 117.617 306.478 117.617 L 284.476 117.617 283.948 118.184 M72.840 135.412 C 71.792 135.928,71.404 136.517,70.997 138.212 C 70.826 138.925,70.524 139.688,70.325 139.908 C 70.126 140.129,69.782 141.173,69.560 142.228 C 69.338 143.283,68.980 144.341,68.766 144.578 C 68.220 145.181,67.784 148.049,68.137 148.710 C 68.408 149.215,68.752 149.223,91.549 149.223 C 118.555 149.223,115.442 149.709,115.616 145.466 C 115.680 143.899,115.923 141.801,116.156 140.803 C 116.793 138.082,116.731 135.887,116.005 135.377 C 115.104 134.747,74.124 134.779,72.840 135.412 M178.309 135.157 C 177.458 135.267,176.425 136.262,176.425 136.971 C 176.425 137.175,176.129 137.847,175.768 138.464 C 175.407 139.081,175.002 140.254,174.869 141.072 C 174.736 141.890,174.446 142.758,174.225 143.002 C 174.005 143.246,173.650 144.357,173.437 145.470 C 173.224 146.584,172.909 147.664,172.738 147.870 C 172.486 148.173,172.543 148.341,173.029 148.734 C 173.935 149.467,219.360 149.501,220.014 148.769 C 220.330 148.416,220.440 147.515,220.513 144.689 C 220.590 141.743,220.700 140.892,221.099 140.155 C 221.694 139.057,221.823 135.971,221.295 135.442 C 220.971 135.116,180.682 134.849,178.309 135.157 M277.614 135.771 C 277.245 136.210,276.943 136.734,276.943 136.937 C 276.943 137.140,276.824 137.306,276.678 137.306 C 276.349 137.306,275.944 138.340,275.636 139.960 C 275.508 140.636,275.215 141.475,274.986 141.825 C 274.756 142.175,274.397 143.293,274.186 144.309 C 273.976 145.325,273.557 146.630,273.255 147.209 L 272.706 148.263 273.299 148.743 C 273.866 149.202,274.885 149.223,296.871 149.223 C 323.148 149.223,320.975 149.428,320.994 146.946 C 321.015 144.025,321.500 138.920,321.829 138.140 C 322.026 137.672,322.135 136.932,322.071 136.494 C 321.843 134.938,322.382 134.974,299.254 134.974 L 278.284 134.974 277.614 135.771 M66.476 155.764 C 65.689 157.635,65.462 159.125,65.359 163.107 L 65.251 167.276 65.981 167.770 C 66.686 168.248,67.557 168.264,92.736 168.264 L 118.762 168.264 119.156 167.563 C 119.524 166.907,119.504 166.771,118.842 165.465 C 118.453 164.696,118.135 163.662,118.135 163.166 C 118.135 162.670,117.839 161.690,117.477 160.990 C 117.043 160.150,116.767 159.097,116.666 157.902 C 116.556 156.590,116.367 155.927,115.984 155.505 L 115.454 154.922 91.142 154.922 L 66.831 154.922 66.476 155.764 M171.465 155.361 C 170.639 155.874,170.560 156.369,170.317 162.565 C 170.153 166.746,170.171 167.002,170.671 167.617 L 171.198 168.264 196.544 168.340 C 210.485 168.382,222.270 168.348,222.733 168.264 C 223.856 168.060,224.426 167.008,223.925 166.062 C 223.737 165.706,223.581 165.140,223.579 164.804 C 223.577 164.469,223.278 163.603,222.915 162.881 C 222.537 162.128,222.153 160.761,222.016 159.680 C 221.763 157.683,221.238 156.150,220.546 155.385 C 219.925 154.700,172.569 154.676,171.465 155.361 M271.694 155.376 C 271.265 155.854,270.725 161.425,270.725 165.379 C 270.725 168.725,267.750 168.394,297.793 168.394 C 323.198 168.394,323.500 168.388,323.965 167.874 C 324.612 167.159,324.513 165.748,323.700 164.086 C 323.334 163.339,322.927 162.062,322.794 161.248 C 322.536 159.663,321.317 155.781,320.909 155.246 C 320.461 154.659,272.223 154.786,271.694 155.376 M67.127 173.999 C 66.424 174.491,66.438 176.569,67.151 177.399 C 67.364 177.647,67.689 178.433,67.874 179.145 C 68.059 179.858,68.543 180.956,68.949 181.586 C 69.356 182.216,69.689 182.841,69.689 182.975 C 69.689 183.868,71.706 186.261,72.779 186.641 C 74.517 187.256,127.821 187.258,128.699 186.643 C 129.573 186.031,128.986 183.161,127.986 183.161 C 127.871 183.161,127.594 182.704,127.371 182.146 C 127.147 181.589,126.846 181.059,126.702 180.970 C 126.557 180.880,126.239 180.375,125.995 179.847 C 125.750 179.318,125.281 178.608,124.951 178.268 C 124.622 177.928,124.351 177.403,124.350 177.102 C 124.349 176.801,123.815 175.884,123.164 175.065 L 121.979 173.575 94.855 173.575 C 70.159 173.575,67.678 173.613,67.127 173.999 M172.089 174.034 C 171.474 174.568,171.790 177.503,172.599 178.756 C 172.829 179.113,173.209 180.074,173.444 180.894 C 173.679 181.713,173.985 182.383,174.125 182.383 C 174.265 182.383,174.558 182.821,174.777 183.355 C 174.996 183.889,175.397 184.560,175.667 184.845 C 175.937 185.130,176.441 185.712,176.787 186.140 L 177.416 186.917 205.094 186.991 C 220.317 187.031,233.038 186.999,233.364 186.919 C 234.388 186.667,234.639 184.197,233.641 184.197 C 233.523 184.197,233.266 183.811,233.069 183.340 C 232.872 182.869,232.404 182.153,232.029 181.748 C 231.654 181.344,231.347 180.864,231.347 180.682 C 231.347 180.500,231.080 180.021,230.753 179.618 C 230.426 179.216,229.942 178.391,229.677 177.785 C 229.412 177.179,229.106 176.684,228.995 176.684 C 228.885 176.684,228.509 176.060,228.160 175.298 C 227.627 174.134,227.390 173.885,226.684 173.743 C 224.403 173.287,172.632 173.563,172.089 174.034 M272.539 173.918 C 271.810 174.295,271.811 174.241,272.495 177.073 C 273.067 179.436,273.289 180.052,273.569 180.052 C 273.678 180.052,273.915 180.606,274.097 181.282 C 274.278 181.959,274.701 182.780,275.037 183.106 C 275.373 183.433,275.648 183.879,275.648 184.099 C 275.648 184.319,276.218 185.072,276.915 185.773 L 278.182 187.047 305.995 187.038 C 327.496 187.032,333.903 186.958,334.224 186.714 C 334.967 186.148,335.032 185.373,334.395 184.662 C 333.811 184.009,333.240 183.128,332.254 181.356 C 331.969 180.844,331.479 180.150,331.166 179.815 C 330.852 179.479,330.525 178.883,330.439 178.489 C 330.352 178.096,330.069 177.581,329.808 177.346 C 329.548 177.110,329.147 176.428,328.917 175.829 C 328.667 175.181,328.151 174.505,327.640 174.158 L 326.781 173.575 299.984 173.579 C 278.575 173.582,273.056 173.650,272.539 173.918 M80.394 192.408 C 79.124 192.656,79.197 193.142,80.715 194.528 C 81.513 195.258,82.373 195.855,82.625 195.855 C 82.877 195.855,83.450 196.205,83.897 196.632 C 84.345 197.060,84.994 197.409,85.340 197.409 C 85.687 197.409,86.318 197.701,86.742 198.058 C 87.166 198.415,87.904 198.782,88.381 198.873 C 88.858 198.964,89.733 199.318,90.326 199.659 C 90.918 200.001,92.124 200.396,93.005 200.538 C 93.886 200.680,94.858 200.956,95.166 201.152 C 95.904 201.620,98.009 202.004,101.036 202.220 C 102.390 202.317,104.022 202.555,104.663 202.750 C 106.174 203.208,109.388 203.202,110.914 202.739 C 111.573 202.539,113.205 202.298,114.541 202.204 C 117.058 202.026,119.689 201.443,119.689 201.063 C 119.689 200.943,120.369 200.711,121.199 200.548 C 122.029 200.384,123.101 199.961,123.581 199.607 C 124.061 199.253,124.611 198.964,124.803 198.964 C 124.996 198.964,125.444 198.673,125.800 198.317 C 126.155 197.962,126.774 197.501,127.174 197.294 C 127.843 196.949,128.691 196.077,129.858 194.535 C 130.455 193.746,130.433 192.830,129.810 192.496 C 129.325 192.237,81.711 192.152,80.394 192.408 M185.039 192.492 C 183.976 192.925,185.329 194.703,187.612 195.876 C 188.137 196.145,188.633 196.475,188.716 196.608 C 188.798 196.741,189.418 197.060,190.093 197.316 C 190.769 197.572,191.716 198.047,192.199 198.372 C 192.682 198.698,193.376 198.964,193.740 198.964 C 194.104 198.964,194.828 199.259,195.348 199.619 C 195.912 200.010,196.950 200.381,197.912 200.536 C 198.801 200.679,199.781 200.954,200.088 201.146 C 200.913 201.662,202.906 202.032,205.829 202.212 C 207.254 202.300,208.808 202.548,209.283 202.763 C 210.302 203.224,215.696 203.172,216.007 202.699 C 216.109 202.544,217.729 202.298,219.608 202.151 C 222.334 201.938,223.218 201.770,223.986 201.317 C 224.515 201.005,225.542 200.638,226.269 200.501 C 226.996 200.365,227.900 200.026,228.277 199.749 C 228.655 199.472,229.269 199.169,229.643 199.075 C 230.017 198.981,230.640 198.568,231.028 198.157 C 231.417 197.746,231.861 197.409,232.016 197.409 C 232.171 197.409,232.609 197.060,232.990 196.632 C 233.371 196.205,233.784 195.855,233.908 195.855 C 234.032 195.855,234.284 195.476,234.467 195.013 C 234.650 194.550,234.977 193.963,235.194 193.710 C 235.547 193.295,235.542 193.203,235.142 192.803 C 234.636 192.297,186.256 191.997,185.039 192.492 M285.557 192.544 C 285.236 192.699,284.974 192.948,284.974 193.099 C 284.974 193.508,287.518 195.855,287.962 195.855 C 288.174 195.855,288.546 196.087,288.789 196.371 C 289.032 196.654,289.817 197.079,290.535 197.315 C 291.252 197.550,291.932 197.899,292.044 198.090 C 292.157 198.281,292.900 198.626,293.696 198.858 C 294.491 199.089,295.524 199.504,295.991 199.779 C 296.457 200.054,297.577 200.398,298.478 200.543 C 299.380 200.689,300.182 200.912,300.261 201.040 C 300.541 201.492,303.362 202.035,306.389 202.218 C 308.152 202.325,309.534 202.526,309.640 202.692 C 309.945 203.166,315.330 203.230,316.365 202.771 C 316.839 202.560,318.607 202.262,320.293 202.109 C 322.626 201.898,323.690 201.674,324.746 201.175 C 325.509 200.814,326.367 200.518,326.651 200.518 C 327.422 200.518,328.410 200.088,329.005 199.492 C 329.296 199.202,329.726 198.964,329.962 198.964 C 330.458 198.964,332.195 197.735,333.814 196.239 C 335.551 194.635,335.984 193.054,334.832 192.529 C 333.927 192.116,286.414 192.131,285.557 192.544 " stroke="none" fill="#ffffff" fill-rule="evenodd"></path></g></svg>