<svg id="svg" version="1.1" xmlns="http://www.w3.org/2000/svg" xmlns:xlink="http://www.w3.org/1999/xlink" width="400" height="258.91472868217056" viewBox="0, 0, 400,258.91472868217056"><g id="svgg"><path id="path0" d="M198.204 40.195 C 197.619 40.930,197.068 41.834,196.981 42.204 C 196.786 43.025,195.193 46.406,194.378 47.728 C 194.050 48.260,193.782 48.830,193.782 48.995 C 193.782 49.160,193.451 49.834,193.046 50.492 C 192.640 51.151,192.229 52.114,192.132 52.632 C 192.035 53.151,191.790 53.712,191.587 53.880 C 191.385 54.048,191.016 54.730,190.768 55.396 C 190.520 56.062,190.113 56.876,189.863 57.205 C 189.612 57.535,189.268 58.234,189.096 58.760 C 188.925 59.285,188.569 59.993,188.305 60.332 C 188.041 60.671,187.698 61.429,187.542 62.016 C 187.385 62.603,187.097 63.264,186.900 63.484 C 186.703 63.705,186.367 64.383,186.152 64.991 C 185.938 65.599,185.544 66.409,185.278 66.792 C 185.012 67.174,184.664 67.871,184.505 68.340 C 184.346 68.810,183.978 69.527,183.688 69.935 C 183.398 70.342,183.161 70.832,183.161 71.022 C 183.161 71.361,181.684 74.622,180.950 75.907 C 180.746 76.263,180.401 76.962,180.184 77.461 C 179.966 77.960,179.617 78.659,179.407 79.016 C 179.197 79.372,178.839 80.071,178.611 80.570 C 178.383 81.069,177.857 82.185,177.441 83.052 C 177.024 83.918,176.684 84.747,176.684 84.895 C 176.684 85.042,176.448 85.463,176.160 85.829 C 175.872 86.195,175.467 86.976,175.259 87.565 C 175.051 88.154,174.658 88.949,174.385 89.333 C 174.111 89.717,173.749 90.554,173.579 91.194 C 173.409 91.834,173.060 92.591,172.803 92.876 C 172.546 93.161,172.255 93.775,172.156 94.242 C 172.058 94.708,171.717 95.408,171.400 95.796 C 171.083 96.185,170.686 96.979,170.518 97.561 C 170.349 98.144,169.978 98.832,169.691 99.091 C 169.405 99.350,169.171 99.755,169.171 99.990 C 169.171 100.226,168.763 101.228,168.265 102.217 C 167.767 103.206,167.359 104.169,167.358 104.357 C 167.358 104.544,167.075 105.069,166.730 105.522 C 166.385 105.976,166.017 106.697,165.912 107.124 C 165.807 107.552,165.448 108.262,165.114 108.703 C 164.781 109.144,164.508 109.675,164.508 109.884 C 164.508 110.092,164.100 111.072,163.602 112.061 C 163.104 113.051,162.696 113.990,162.695 114.149 C 162.695 114.308,162.459 114.737,162.171 115.104 C 161.883 115.470,161.471 116.267,161.257 116.874 C 161.043 117.482,160.698 118.166,160.492 118.394 C 160.286 118.622,159.939 119.313,159.721 119.931 C 159.503 120.548,158.381 122.957,157.226 125.283 L 155.128 129.513 155.932 131.163 C 156.374 132.070,156.736 132.934,156.736 133.081 C 156.736 133.229,156.971 133.649,157.259 134.016 C 157.547 134.382,157.959 135.179,158.173 135.786 C 158.387 136.394,158.735 137.082,158.946 137.315 C 159.156 137.547,159.503 138.324,159.716 139.040 C 159.928 139.757,160.318 140.622,160.582 140.962 C 160.845 141.302,161.134 141.880,161.223 142.247 C 161.313 142.614,161.662 143.321,162.000 143.819 C 162.338 144.317,162.700 145.066,162.804 145.484 C 162.908 145.902,163.267 146.603,163.601 147.042 C 163.936 147.481,164.289 148.269,164.388 148.793 C 164.486 149.317,164.789 150.028,165.061 150.374 C 165.333 150.720,165.731 151.500,165.945 152.108 C 166.159 152.715,166.504 153.399,166.710 153.627 C 166.916 153.855,167.260 154.539,167.475 155.146 C 167.689 155.754,168.087 156.534,168.359 156.880 C 168.631 157.226,168.935 157.943,169.034 158.473 C 169.134 159.004,169.443 159.758,169.721 160.148 C 169.999 160.539,170.356 161.242,170.515 161.711 C 170.674 162.181,171.024 162.880,171.293 163.266 C 171.561 163.651,171.911 164.351,172.070 164.820 C 172.229 165.290,172.579 165.989,172.847 166.375 C 173.115 166.760,173.462 167.460,173.618 167.929 C 173.892 168.755,176.102 173.358,180.870 183.031 C 182.134 185.596,183.166 187.883,183.164 188.113 C 183.162 188.343,183.374 188.809,183.634 189.149 C 183.894 189.489,184.312 190.291,184.562 190.933 C 184.813 191.574,185.165 192.273,185.344 192.487 C 185.524 192.701,185.874 193.400,186.121 194.041 C 186.369 194.683,186.728 195.382,186.919 195.596 C 187.110 195.810,187.404 196.528,187.571 197.193 C 187.738 197.858,188.087 198.631,188.347 198.910 C 188.607 199.189,188.963 199.895,189.138 200.479 C 189.313 201.062,189.663 201.762,189.915 202.033 C 190.168 202.304,190.517 203.004,190.692 203.587 C 190.867 204.171,191.221 204.875,191.479 205.152 C 191.737 205.429,192.020 205.986,192.108 206.390 C 192.297 207.258,192.734 208.267,193.156 208.808 C 193.322 209.022,193.592 209.615,193.756 210.127 C 193.920 210.638,194.343 211.448,194.695 211.926 C 195.048 212.404,195.337 212.989,195.337 213.227 C 195.337 213.464,195.627 214.086,195.981 214.608 C 196.336 215.130,196.702 215.875,196.795 216.263 C 197.057 217.355,197.583 218.271,198.563 219.341 L 199.461 220.321 199.860 219.366 C 200.079 218.840,200.259 218.317,200.259 218.203 C 200.259 218.089,200.532 217.590,200.865 217.094 C 201.198 216.598,201.601 215.808,201.762 215.338 C 201.922 214.869,202.283 214.162,202.564 213.768 C 202.845 213.374,203.159 212.709,203.263 212.290 C 203.366 211.871,203.705 211.120,204.016 210.622 C 204.326 210.123,204.663 209.378,204.765 208.967 C 204.867 208.556,205.220 207.856,205.550 207.413 C 205.880 206.969,206.229 206.270,206.327 205.858 C 206.425 205.447,206.790 204.737,207.138 204.280 C 207.487 203.822,207.772 203.285,207.773 203.084 C 207.773 202.884,208.108 202.079,208.518 201.295 C 208.927 200.512,209.350 199.579,209.458 199.223 C 209.565 198.867,209.876 198.260,210.147 197.874 C 210.419 197.489,210.771 196.789,210.930 196.320 C 211.089 195.850,211.445 195.142,211.721 194.746 C 211.996 194.351,212.342 193.593,212.488 193.063 C 212.634 192.532,212.957 191.807,213.206 191.451 C 213.455 191.095,213.808 190.337,213.991 189.767 C 214.174 189.197,214.534 188.461,214.790 188.131 C 215.046 187.802,215.393 187.116,215.561 186.607 C 215.729 186.097,216.144 185.272,216.482 184.773 C 216.821 184.274,217.098 183.724,217.098 183.552 C 217.098 183.379,217.370 182.725,217.702 182.098 C 218.034 181.471,218.516 180.405,218.774 179.728 C 219.031 179.051,219.328 178.497,219.434 178.497 C 219.539 178.497,219.888 177.798,220.207 176.943 C 220.527 176.088,220.883 175.389,220.999 175.389 C 221.114 175.389,221.289 175.126,221.387 174.806 C 221.486 174.485,221.944 173.407,222.405 172.409 C 222.867 171.412,223.331 170.322,223.436 169.986 C 223.541 169.651,223.907 168.964,224.249 168.460 C 224.591 167.957,224.871 167.357,224.872 167.127 C 224.872 166.898,225.221 166.185,225.648 165.544 C 226.074 164.903,226.423 164.190,226.424 163.961 C 226.424 163.732,226.709 163.124,227.057 162.612 C 227.405 162.099,227.803 161.270,227.941 160.770 C 228.079 160.269,228.418 159.535,228.694 159.140 C 228.970 158.744,229.326 158.036,229.485 157.566 C 229.644 157.097,229.996 156.397,230.267 156.012 C 230.539 155.626,230.849 155.019,230.957 154.663 C 231.064 154.307,231.488 153.374,231.897 152.591 C 232.306 151.807,232.642 151.024,232.642 150.851 C 232.642 150.678,232.992 149.985,233.420 149.311 C 233.847 148.637,234.197 147.922,234.197 147.722 C 234.197 147.523,234.417 147.050,234.686 146.672 C 235.193 145.960,237.106 141.804,237.442 140.686 C 237.547 140.336,237.782 139.901,237.964 139.719 C 238.146 139.537,238.506 138.832,238.762 138.152 C 239.019 137.473,239.361 136.781,239.522 136.615 C 239.683 136.449,239.956 135.925,240.128 135.450 C 240.300 134.974,240.770 133.944,241.174 133.161 C 241.577 132.377,241.988 131.358,242.088 130.897 C 242.187 130.435,242.361 130.000,242.474 129.930 C 242.719 129.779,241.770 126.989,240.975 125.522 C 240.667 124.954,240.415 124.358,240.415 124.198 C 240.415 124.038,240.137 123.498,239.799 122.999 C 239.460 122.500,239.045 121.675,238.877 121.165 C 238.709 120.656,238.356 119.966,238.093 119.631 C 237.830 119.297,237.482 118.529,237.319 117.926 C 237.157 117.322,236.737 116.407,236.388 115.891 C 236.038 115.376,235.751 114.776,235.751 114.559 C 235.751 114.342,235.414 113.630,235.002 112.976 C 234.590 112.322,234.165 111.498,234.058 111.143 C 233.951 110.789,233.596 110.089,233.269 109.589 C 232.942 109.088,232.590 108.335,232.488 107.915 C 232.385 107.494,231.970 106.521,231.565 105.751 C 231.160 104.981,230.829 104.203,230.829 104.021 C 230.829 103.839,230.660 103.550,230.454 103.379 C 230.248 103.208,229.873 102.523,229.621 101.858 C 229.368 101.192,228.904 100.265,228.589 99.797 C 228.274 99.329,227.935 98.572,227.836 98.113 C 227.737 97.655,227.433 96.964,227.160 96.579 C 226.888 96.193,226.535 95.494,226.376 95.024 C 226.217 94.555,225.869 93.858,225.603 93.476 C 225.336 93.093,224.943 92.283,224.729 91.675 C 224.514 91.067,224.181 90.389,223.988 90.168 C 223.794 89.947,223.554 89.475,223.453 89.119 C 223.174 88.132,219.473 80.627,219.174 80.442 C 219.030 80.353,218.912 80.105,218.912 79.892 C 218.912 79.678,218.460 78.548,217.907 77.381 C 217.354 76.214,216.822 74.997,216.724 74.676 C 216.626 74.356,216.451 74.093,216.335 74.093 C 216.220 74.093,215.864 73.394,215.544 72.539 C 215.224 71.684,214.876 70.984,214.770 70.984 C 214.665 70.984,214.382 70.431,214.143 69.754 C 213.904 69.077,213.422 67.982,213.072 67.319 C 212.722 66.657,212.435 65.991,212.435 65.839 C 212.435 65.687,212.085 65.011,211.658 64.337 C 211.231 63.662,210.881 62.956,210.881 62.768 C 210.881 62.579,210.592 61.988,210.239 61.454 C 209.886 60.921,209.433 59.939,209.232 59.271 C 209.031 58.604,208.621 57.745,208.320 57.362 C 208.018 56.979,207.772 56.466,207.772 56.222 C 207.772 55.977,207.424 55.264,207.000 54.637 C 206.575 54.010,206.225 53.310,206.222 53.080 C 206.220 52.851,205.933 52.244,205.585 51.731 C 205.237 51.218,204.840 50.389,204.701 49.889 C 204.563 49.388,204.214 48.648,203.926 48.243 C 203.638 47.838,203.321 47.165,203.222 46.746 C 203.122 46.327,202.771 45.622,202.441 45.178 C 202.111 44.734,201.761 44.035,201.664 43.623 C 201.566 43.212,201.233 42.526,200.923 42.098 C 200.614 41.671,200.218 40.831,200.043 40.231 C 199.596 38.691,199.404 38.688,198.204 40.195 " stroke="none" fill="#05ac54" fill-rule="evenodd"></path><path id="path1" d="M0.000 129.534 L 0.000 259.067 200.000 259.067 L 400.000 259.067 400.000 129.534 L 400.000 0.000 200.000 0.000 L 0.000 0.000 0.000 129.534 M200.043 40.231 C 200.218 40.831,200.614 41.671,200.923 42.098 C 201.233 42.526,201.566 43.212,201.664 43.623 C 201.761 44.035,202.111 44.734,202.441 45.178 C 202.771 45.622,203.122 46.327,203.222 46.746 C 203.321 47.165,203.638 47.838,203.926 48.243 C 204.214 48.648,204.563 49.388,204.701 49.889 C 204.840 50.389,205.237 51.218,205.585 51.731 C 205.933 52.244,206.220 52.851,206.222 53.080 C 206.225 53.310,206.575 54.010,207.000 54.637 C 207.424 55.264,207.772 55.977,207.772 56.222 C 207.772 56.466,208.018 56.979,208.320 57.362 C 208.621 57.745,209.031 58.604,209.232 59.271 C 209.433 59.939,209.886 60.921,210.239 61.454 C 210.592 61.988,210.881 62.579,210.881 62.768 C 210.881 62.956,211.231 63.662,211.658 64.337 C 212.085 65.011,212.435 65.687,212.435 65.839 C 212.435 65.991,212.722 66.657,213.072 67.319 C 213.422 67.982,213.904 69.077,214.143 69.754 C 214.382 70.431,214.665 70.984,214.770 70.984 C 214.876 70.984,215.224 71.684,215.544 72.539 C 215.864 73.394,216.220 74.093,216.335 74.093 C 216.451 74.093,216.626 74.356,216.724 74.676 C 216.822 74.997,217.354 76.214,217.907 77.381 C 218.460 78.548,218.912 79.678,218.912 79.892 C 218.912 80.105,219.030 80.353,219.174 80.442 C 219.473 80.627,223.174 88.132,223.453 89.119 C 223.554 89.475,223.794 89.947,223.988 90.168 C 224.181 90.389,224.514 91.067,224.729 91.675 C 224.943 92.283,225.336 93.093,225.603 93.476 C 225.869 93.858,226.217 94.555,226.376 95.024 C 226.535 95.494,226.888 96.193,227.160 96.579 C 227.433 96.964,227.737 97.655,227.836 98.113 C 227.935 98.572,228.274 99.329,228.589 99.797 C 228.904 100.265,229.368 101.192,229.621 101.858 C 229.873 102.523,230.248 103.208,230.454 103.379 C 230.660 103.550,230.829 103.839,230.829 104.021 C 230.829 104.203,231.160 104.981,231.565 105.751 C 231.970 106.521,232.385 107.494,232.488 107.915 C 232.590 108.335,232.942 109.088,233.269 109.589 C 233.596 110.089,233.951 110.789,234.058 111.143 C 234.165 111.498,234.590 112.322,235.002 112.976 C 235.414 113.630,235.751 114.342,235.751 114.559 C 235.751 114.776,236.038 115.376,236.388 115.891 C 236.737 116.407,237.157 117.322,237.319 117.926 C 237.482 118.529,237.830 119.297,238.093 119.631 C 238.356 119.966,238.709 120.656,238.877 121.165 C 239.045 121.675,239.460 122.500,239.799 122.999 C 240.137 123.498,240.415 124.038,240.415 124.198 C 240.415 124.358,240.667 124.954,240.975 125.522 C 241.770 126.989,242.719 129.779,242.474 129.930 C 242.361 130.000,242.187 130.435,242.088 130.897 C 241.988 131.358,241.577 132.377,241.174 133.161 C 240.770 133.944,240.300 134.974,240.128 135.450 C 239.956 135.925,239.683 136.449,239.522 136.615 C 239.361 136.781,239.019 137.473,238.762 138.152 C 238.506 138.832,238.146 139.537,237.964 139.719 C 237.782 139.901,237.547 140.336,237.442 140.686 C 237.106 141.804,235.193 145.960,234.686 146.672 C 234.417 147.050,234.197 147.523,234.197 147.722 C 234.197 147.922,233.847 148.637,233.420 149.311 C 232.992 149.985,232.642 150.678,232.642 150.851 C 232.642 151.024,232.306 151.807,231.897 152.591 C 231.488 153.374,231.064 154.307,230.957 154.663 C 230.849 155.019,230.539 155.626,230.267 156.012 C 229.996 156.397,229.644 157.097,229.485 157.566 C 229.326 158.036,228.970 158.744,228.694 159.140 C 228.418 159.535,228.079 160.269,227.941 160.770 C 227.803 161.270,227.405 162.099,227.057 162.612 C 226.709 163.124,226.424 163.732,226.424 163.961 C 226.423 164.190,226.074 164.903,225.648 165.544 C 225.221 166.185,224.872 166.898,224.872 167.127 C 224.871 167.357,224.591 167.957,224.249 168.460 C 223.907 168.964,223.541 169.651,223.436 169.986 C 223.331 170.322,222.867 171.412,222.405 172.409 C 221.944 173.407,221.486 174.485,221.387 174.806 C 221.289 175.126,221.114 175.389,220.999 175.389 C 220.883 175.389,220.527 176.088,220.207 176.943 C 219.888 177.798,219.539 178.497,219.434 178.497 C 219.328 178.497,219.031 179.051,218.774 179.728 C 218.516 180.405,218.034 181.471,217.702 182.098 C 217.370 182.725,217.098 183.379,217.098 183.552 C 217.098 183.724,216.821 184.274,216.482 184.773 C 216.144 185.272,215.729 186.097,215.561 186.607 C 215.393 187.116,215.046 187.802,214.790 188.131 C 214.534 188.461,214.174 189.197,213.991 189.767 C 213.808 190.337,213.455 191.095,213.206 191.451 C 212.957 191.807,212.634 192.532,212.488 193.063 C 212.342 193.593,211.996 194.351,211.721 194.746 C 211.445 195.142,211.089 195.850,210.930 196.320 C 210.771 196.789,210.419 197.489,210.147 197.874 C 209.876 198.260,209.565 198.867,209.458 199.223 C 209.350 199.579,208.927 200.512,208.518 201.295 C 208.108 202.079,207.773 202.884,207.773 203.084 C 207.772 203.285,207.487 203.822,207.138 204.280 C 206.790 204.737,206.425 205.447,206.327 205.858 C 206.229 206.270,205.880 206.969,205.550 207.413 C 205.220 207.856,204.867 208.556,204.765 208.967 C 204.663 209.378,204.326 210.123,204.016 210.622 C 203.705 211.120,203.366 211.871,203.263 212.290 C 203.159 212.709,202.845 213.374,202.564 213.768 C 202.283 214.162,201.922 214.869,201.762 215.338 C 201.601 215.808,201.198 216.598,200.865 217.094 C 200.532 217.590,200.259 218.089,200.259 218.203 C 200.259 218.317,200.079 218.840,199.860 219.366 L 199.461 220.321 198.563 219.341 C 197.583 218.271,197.057 217.355,196.795 216.263 C 196.702 215.875,196.336 215.130,195.981 214.608 C 195.627 214.086,195.337 213.464,195.337 213.227 C 195.337 212.989,195.048 212.404,194.695 211.926 C 194.343 211.448,193.920 210.638,193.756 210.127 C 193.592 209.615,193.322 209.022,193.156 208.808 C 192.734 208.267,192.297 207.258,192.108 206.390 C 192.020 205.986,191.737 205.429,191.479 205.152 C 191.221 204.875,190.867 204.171,190.692 203.587 C 190.517 203.004,190.168 202.304,189.915 202.033 C 189.663 201.762,189.313 201.062,189.138 200.479 C 188.963 199.895,188.607 199.189,188.347 198.910 C 188.087 198.631,187.738 197.858,187.571 197.193 C 187.404 196.528,187.110 195.810,186.919 195.596 C 186.728 195.382,186.369 194.683,186.121 194.041 C 185.874 193.400,185.524 192.701,185.344 192.487 C 185.165 192.273,184.813 191.574,184.562 190.933 C 184.312 190.291,183.894 189.489,183.634 189.149 C 183.374 188.809,183.162 188.343,183.164 188.113 C 183.166 187.883,182.134 185.596,180.870 183.031 C 176.102 173.358,173.892 168.755,173.618 167.929 C 173.462 167.460,173.115 166.760,172.847 166.375 C 172.579 165.989,172.229 165.290,172.070 164.820 C 171.911 164.351,171.561 163.651,171.293 163.266 C 171.024 162.880,170.674 162.181,170.515 161.711 C 170.356 161.242,169.999 160.539,169.721 160.148 C 169.443 159.758,169.134 159.004,169.034 158.473 C 168.935 157.943,168.631 157.226,168.359 156.880 C 168.087 156.534,167.689 155.754,167.475 155.146 C 167.260 154.539,166.916 153.855,166.710 153.627 C 166.504 153.399,166.159 152.715,165.945 152.108 C 165.731 151.500,165.333 150.720,165.061 150.374 C 164.789 150.028,164.486 149.317,164.388 148.793 C 164.289 148.269,163.936 147.481,163.601 147.042 C 163.267 146.603,162.908 145.902,162.804 145.484 C 162.700 145.066,162.338 144.317,162.000 143.819 C 161.662 143.321,161.313 142.614,161.223 142.247 C 161.134 141.880,160.845 141.302,160.582 140.962 C 160.318 140.622,159.928 139.757,159.716 139.040 C 159.503 138.324,159.156 137.547,158.946 137.315 C 158.735 137.082,158.387 136.394,158.173 135.786 C 157.959 135.179,157.547 134.382,157.259 134.016 C 156.971 133.649,156.736 133.229,156.736 133.081 C 156.736 132.934,156.374 132.070,155.932 131.163 L 155.128 129.513 157.226 125.283 C 158.381 122.957,159.503 120.548,159.721 119.931 C 159.939 119.313,160.286 118.622,160.492 118.394 C 160.698 118.166,161.043 117.482,161.257 116.874 C 161.471 116.267,161.883 115.470,162.171 115.104 C 162.459 114.737,162.695 114.308,162.695 114.149 C 162.696 113.990,163.104 113.051,163.602 112.061 C 164.100 111.072,164.508 110.092,164.508 109.884 C 164.508 109.675,164.781 109.144,165.114 108.703 C 165.448 108.262,165.807 107.552,165.912 107.124 C 166.017 106.697,166.385 105.976,166.730 105.522 C 167.075 105.069,167.358 104.544,167.358 104.357 C 167.359 104.169,167.767 103.206,168.265 102.217 C 168.763 101.228,169.171 100.226,169.171 99.990 C 169.171 99.755,169.405 99.350,169.691 99.091 C 169.978 98.832,170.349 98.144,170.518 97.561 C 170.686 96.979,171.083 96.185,171.400 95.796 C 171.717 95.408,172.058 94.708,172.156 94.242 C 172.255 93.775,172.546 93.161,172.803 92.876 C 173.060 92.591,173.409 91.834,173.579 91.194 C 173.749 90.554,174.111 89.717,174.385 89.333 C 174.658 88.949,175.051 88.154,175.259 87.565 C 175.467 86.976,175.872 86.195,176.160 85.829 C 176.448 85.463,176.684 85.042,176.684 84.895 C 176.684 84.747,177.024 83.918,177.441 83.052 C 177.857 82.185,178.383 81.069,178.611 80.570 C 178.839 80.071,179.197 79.372,179.407 79.016 C 179.617 78.659,179.966 77.960,180.184 77.461 C 180.401 76.962,180.746 76.263,180.950 75.907 C 181.684 74.622,183.161 71.361,183.161 71.022 C 183.161 70.832,183.398 70.342,183.688 69.935 C 183.978 69.527,184.346 68.810,184.505 68.340 C 184.664 67.871,185.012 67.174,185.278 66.792 C 185.544 66.409,185.938 65.599,186.152 64.991 C 186.367 64.383,186.703 63.705,186.900 63.484 C 187.097 63.264,187.385 62.603,187.542 62.016 C 187.698 61.429,188.041 60.671,188.305 60.332 C 188.569 59.993,188.925 59.285,189.096 58.760 C 189.268 58.234,189.612 57.535,189.863 57.205 C 190.113 56.876,190.520 56.062,190.768 55.396 C 191.016 54.730,191.385 54.048,191.587 53.880 C 191.790 53.712,192.035 53.151,192.132 52.632 C 192.229 52.114,192.640 51.151,193.046 50.492 C 193.451 49.834,193.782 49.160,193.782 48.995 C 193.782 48.830,194.050 48.260,194.378 47.728 C 195.193 46.406,196.786 43.025,196.981 42.204 C 197.180 41.364,199.188 38.808,199.498 38.999 C 199.624 39.077,199.869 39.631,200.043 40.231 " stroke="none" fill="#fcfcfc" fill-rule="evenodd"></path></g></svg>