<svg id="svg" xmlns="http://www.w3.org/2000/svg" xmlns:xlink="http://www.w3.org/1999/xlink" width="400" height="259" viewBox="0, 0, 400,259" version="1.1"><g id="svgg"><path id="path0" d="M141.607 32.196 C 140.767 33.938,139.631 36.295,139.081 37.435 C 138.532 38.575,138.083 39.615,138.083 39.746 C 138.083 39.878,137.926 40.169,137.733 40.394 C 137.541 40.619,136.827 42.027,136.146 43.523 C 135.465 45.019,134.004 48.109,132.899 50.389 C 131.794 52.668,129.957 56.457,128.818 58.808 C 127.679 61.159,126.131 64.424,125.379 66.062 C 124.627 67.701,123.813 69.333,123.569 69.689 C 123.325 70.045,123.036 70.628,122.927 70.984 C 122.818 71.341,121.404 74.344,119.784 77.659 C 118.165 80.973,116.838 83.771,116.837 83.876 C 116.836 84.053,114.727 88.320,114.055 89.508 C 113.894 89.793,113.272 91.133,112.672 92.487 C 112.073 93.841,110.530 97.105,109.243 99.741 C 107.955 102.377,105.945 106.516,104.774 108.938 C 103.603 111.360,101.652 115.382,100.437 117.876 C 99.222 120.369,98.145 122.701,98.044 123.057 C 97.944 123.413,97.585 124.180,97.248 124.762 C 96.021 126.875,96.117 127.693,98.031 131.477 C 98.969 133.329,99.736 134.961,99.737 135.104 C 99.738 135.246,100.777 137.461,102.046 140.026 C 106.449 148.922,108.808 153.789,108.808 153.971 C 108.808 154.152,110.924 158.558,115.699 168.321 C 117.039 171.059,118.135 173.390,118.135 173.501 C 118.135 173.612,119.171 175.802,120.436 178.367 C 122.648 182.848,124.325 186.322,126.692 191.321 C 127.825 193.714,130.275 198.778,134.427 207.311 C 135.725 209.978,136.788 212.243,136.788 212.343 C 136.788 212.444,137.845 214.691,139.137 217.338 C 140.429 219.985,141.857 222.935,142.311 223.894 C 142.764 224.852,143.268 225.639,143.432 225.642 C 143.776 225.649,145.193 223.490,145.469 222.539 C 145.572 222.183,145.933 221.367,146.272 220.725 C 146.610 220.084,147.056 219.152,147.263 218.653 C 147.471 218.154,147.810 217.455,148.018 217.098 C 148.226 216.742,148.745 215.693,149.171 214.767 C 149.597 213.841,151.066 210.808,152.434 208.028 C 153.803 205.249,154.922 202.888,154.922 202.783 C 154.922 202.608,156.770 198.776,157.450 197.539 C 157.607 197.254,158.167 196.088,158.696 194.948 C 159.224 193.808,160.689 190.764,161.952 188.183 C 163.215 185.603,164.247 183.388,164.245 183.261 C 164.242 183.135,165.164 181.166,166.293 178.886 C 170.947 169.486,173.316 164.588,173.316 164.366 C 173.316 164.237,174.292 162.147,175.485 159.721 C 176.678 157.296,178.355 153.854,179.213 152.073 C 180.071 150.291,181.840 146.619,183.143 143.912 C 184.446 141.205,185.840 138.348,186.241 137.565 C 186.641 136.781,187.119 135.674,187.303 135.104 C 187.486 134.534,187.858 133.752,188.128 133.366 C 188.399 132.981,188.752 132.281,188.914 131.812 C 189.075 131.343,189.501 130.512,189.860 129.966 C 190.792 128.546,190.789 126.109,189.852 124.694 C 189.490 124.146,189.103 123.408,188.993 123.054 C 188.883 122.699,188.458 121.742,188.049 120.927 C 187.640 120.112,187.304 119.296,187.301 119.114 C 187.298 118.931,186.949 118.269,186.524 117.642 C 186.099 117.015,185.749 116.316,185.747 116.088 C 185.744 115.860,185.394 115.161,184.969 114.534 C 184.545 113.907,184.197 113.224,184.197 113.018 C 184.197 112.680,181.892 107.869,176.657 97.280 C 175.671 95.285,174.866 93.551,174.868 93.427 C 174.869 93.303,173.807 91.030,172.507 88.375 C 168.551 80.298,165.518 74.033,164.903 72.668 C 163.715 70.033,163.485 69.545,163.134 68.912 C 162.936 68.556,162.353 67.390,161.838 66.321 C 157.881 58.114,156.477 55.147,156.477 54.991 C 156.477 54.891,155.355 52.533,153.984 49.749 C 149.698 41.051,147.244 35.971,146.097 33.420 C 143.717 28.132,143.585 28.096,141.607 32.196 M252.207 31.930 C 249.325 38.104,248.138 40.582,247.771 41.192 C 247.556 41.548,247.207 42.247,246.994 42.746 C 246.491 43.923,245.103 46.874,244.740 47.539 C 244.585 47.824,244.005 48.990,243.452 50.130 C 242.898 51.269,242.046 53.018,241.558 54.016 C 241.070 55.013,240.672 55.957,240.672 56.114 C 240.673 56.271,240.326 56.912,239.901 57.539 C 239.476 58.166,239.126 58.867,239.124 59.096 C 239.121 59.325,238.811 59.967,238.434 60.521 C 238.057 61.075,237.636 61.937,237.499 62.435 C 237.362 62.934,236.199 65.499,234.916 68.135 C 233.633 70.771,231.681 74.793,230.578 77.073 C 229.475 79.352,227.449 83.516,226.074 86.325 C 224.700 89.134,223.575 91.497,223.575 91.576 C 223.575 91.655,222.234 94.453,220.596 97.792 C 218.957 101.132,217.617 103.948,217.617 104.050 C 217.617 104.319,215.519 108.564,215.009 109.326 C 214.771 109.683,214.488 110.266,214.380 110.622 C 214.273 110.978,213.079 113.543,211.727 116.321 C 210.374 119.100,209.000 121.956,208.671 122.668 C 208.343 123.381,207.773 124.607,207.405 125.392 C 206.497 127.331,206.533 127.593,208.124 130.642 C 208.888 132.104,209.602 133.590,209.710 133.943 C 209.818 134.297,210.986 136.801,212.304 139.508 C 216.051 147.201,217.617 150.489,217.617 150.665 C 217.617 150.754,217.829 151.136,218.089 151.514 C 218.350 151.893,218.714 152.610,218.899 153.109 C 219.085 153.608,220.200 155.997,221.377 158.420 C 222.554 160.842,223.955 163.756,224.490 164.896 C 225.807 167.703,228.129 172.543,230.703 177.850 C 231.878 180.272,233.915 184.527,235.230 187.306 C 236.544 190.084,238.586 194.339,239.766 196.762 C 243.063 203.527,243.782 205.068,243.782 205.360 C 243.782 205.508,244.018 205.929,244.306 206.295 C 244.594 206.662,245.000 207.443,245.207 208.031 C 245.415 208.620,245.805 209.414,246.075 209.797 C 246.344 210.179,246.650 210.784,246.754 211.140 C 246.859 211.496,247.982 213.912,249.250 216.508 C 250.517 219.104,251.554 221.297,251.554 221.381 C 251.554 221.661,253.437 225.401,253.642 225.527 C 253.969 225.729,255.364 224.175,255.559 223.392 C 255.731 222.704,257.040 219.959,262.593 208.645 C 263.931 205.920,265.026 203.615,265.026 203.524 C 265.026 203.432,266.119 201.116,267.455 198.376 C 272.902 187.207,274.352 184.195,274.352 184.050 C 274.352 183.967,275.296 181.955,276.449 179.579 C 280.251 171.744,281.790 168.549,282.775 166.451 C 283.310 165.311,284.723 162.396,285.915 159.973 C 287.108 157.550,288.083 155.455,288.083 155.318 C 288.083 155.181,289.205 152.792,290.576 150.008 C 294.426 142.194,297.288 136.294,298.056 134.585 C 298.441 133.731,299.223 132.073,299.795 130.901 C 301.094 128.239,301.158 125.735,299.973 123.940 C 299.605 123.383,299.164 122.504,298.994 121.986 C 298.824 121.468,297.698 119.088,296.492 116.697 C 295.287 114.306,294.301 112.245,294.301 112.118 C 294.301 111.807,292.503 108.071,291.960 107.254 C 291.724 106.898,291.400 106.222,291.241 105.753 C 291.082 105.283,290.729 104.584,290.458 104.198 C 290.186 103.813,289.878 103.206,289.773 102.850 C 289.668 102.494,288.545 100.095,287.278 97.519 C 286.011 94.944,284.974 92.752,284.974 92.648 C 284.974 92.453,281.687 85.653,277.821 77.850 C 276.621 75.427,275.641 73.337,275.643 73.205 C 275.646 73.072,274.528 70.682,273.160 67.894 C 266.815 54.962,264.767 50.670,264.767 50.310 C 264.767 50.178,264.552 49.792,264.290 49.452 C 264.028 49.112,263.322 47.727,262.720 46.373 C 262.118 45.019,260.584 41.804,259.310 39.228 C 258.037 36.652,256.995 34.420,256.995 34.267 C 256.995 33.767,254.931 29.930,254.483 29.598 C 253.690 29.011,253.458 29.249,252.207 31.930 M144.150 53.086 C 144.601 53.584,149.482 63.143,149.482 63.528 C 149.482 63.820,152.598 70.207,153.120 70.984 C 153.359 71.341,153.700 72.078,153.876 72.622 C 154.053 73.166,155.100 75.440,156.203 77.674 C 157.307 79.908,158.647 82.668,159.181 83.808 C 159.715 84.948,160.737 87.047,161.451 88.472 C 162.165 89.896,163.272 92.286,163.912 93.782 C 164.552 95.278,165.236 96.683,165.432 96.904 C 165.629 97.125,165.970 97.819,166.192 98.446 C 166.413 99.073,166.763 99.772,166.969 100.000 C 167.175 100.228,167.507 100.875,167.706 101.438 C 167.905 102.001,169.315 105.026,170.840 108.161 C 174.716 116.131,175.306 117.363,175.749 118.394 C 175.962 118.892,176.308 119.592,176.517 119.948 C 176.726 120.304,177.321 121.528,177.839 122.668 C 178.357 123.808,179.008 125.172,179.287 125.699 C 180.039 127.123,179.726 128.585,178.078 131.347 C 177.866 131.703,177.518 132.403,177.305 132.902 C 176.628 134.485,172.913 142.234,169.788 148.581 C 168.594 151.007,167.619 153.105,167.622 153.245 C 167.625 153.384,166.587 155.596,165.315 158.161 C 161.389 166.078,158.611 171.861,158.410 172.539 C 158.304 172.895,157.942 173.592,157.606 174.089 C 157.270 174.585,156.995 175.179,156.995 175.410 C 156.995 175.640,156.647 176.342,156.222 176.969 C 155.797 177.596,155.448 178.295,155.445 178.523 C 155.443 178.751,155.093 179.451,154.668 180.078 C 154.243 180.705,153.893 181.401,153.891 181.625 C 153.888 181.848,152.837 184.153,151.554 186.745 C 150.272 189.337,149.222 191.544,149.220 191.649 C 149.217 191.865,146.067 198.128,144.924 200.193 C 144.200 201.499,143.544 202.017,143.022 201.695 C 142.784 201.547,138.879 193.737,136.929 189.508 C 136.404 188.368,135.844 187.202,135.686 186.917 C 134.544 184.858,133.168 181.971,133.031 181.345 C 132.940 180.932,132.657 180.326,132.401 179.999 C 132.146 179.672,131.850 179.113,131.744 178.756 C 131.638 178.400,131.213 177.574,130.801 176.920 C 130.389 176.267,130.052 175.625,130.053 175.495 C 130.054 175.253,129.899 174.925,126.065 167.053 C 124.838 164.535,123.834 162.387,123.834 162.279 C 123.834 162.172,122.796 159.977,121.527 157.402 C 120.258 154.827,119.134 152.429,119.029 152.073 C 118.925 151.716,118.564 151.019,118.228 150.523 C 117.892 150.027,117.616 149.502,117.615 149.357 C 117.614 149.212,117.424 148.744,117.192 148.316 C 115.898 145.929,114.508 143.135,114.508 142.920 C 114.508 142.784,113.534 140.678,112.343 138.240 C 108.630 130.639,107.254 127.692,107.254 127.344 C 107.254 126.931,108.532 124.090,110.872 119.301 C 111.846 117.306,113.127 114.624,113.718 113.342 C 114.309 112.060,114.926 110.777,115.088 110.492 C 115.429 109.894,115.872 108.979,117.224 106.088 C 117.757 104.948,119.112 102.135,120.236 99.837 C 121.360 97.539,122.280 95.598,122.280 95.525 C 122.280 95.351,128.214 83.054,133.770 71.713 C 135.145 68.907,136.269 66.534,136.269 66.439 C 136.269 66.345,137.244 64.268,138.435 61.825 C 139.625 59.382,141.084 56.373,141.675 55.137 C 142.628 53.148,142.969 52.688,143.548 52.611 C 143.633 52.600,143.904 52.814,144.150 53.086 M254.616 53.260 C 254.938 53.486,255.791 54.914,256.511 56.434 C 257.231 57.953,258.444 60.479,259.205 62.047 C 259.967 63.614,260.765 65.304,260.980 65.803 C 261.195 66.302,261.545 67.001,261.759 67.358 C 262.233 68.149,265.285 74.573,265.285 74.779 C 265.285 74.860,266.381 77.158,267.721 79.886 C 272.724 90.071,274.611 93.994,274.613 94.209 C 274.615 94.405,276.634 98.518,277.393 99.870 C 277.553 100.155,278.115 101.321,278.643 102.461 C 279.170 103.601,280.648 106.690,281.926 109.326 C 283.205 111.962,284.600 114.877,285.026 115.803 C 285.452 116.729,285.971 117.778,286.179 118.135 C 286.387 118.491,286.732 119.190,286.945 119.689 C 287.683 121.413,288.884 123.968,289.518 125.168 C 290.440 126.910,290.338 127.676,288.749 130.929 C 287.975 132.513,286.850 134.916,286.248 136.269 C 285.646 137.623,284.938 139.040,284.675 139.418 C 284.412 139.796,284.197 140.196,284.197 140.306 C 284.197 140.520,283.564 141.864,280.121 148.964 C 278.911 151.457,277.516 154.372,277.019 155.440 C 276.522 156.509,275.946 157.675,275.738 158.031 C 275.530 158.387,275.189 159.087,274.980 159.585 C 274.517 160.689,274.021 161.724,271.005 167.891 C 269.711 170.535,268.653 172.797,268.653 172.917 C 268.653 173.037,267.496 175.478,266.083 178.342 C 261.968 186.681,259.398 192.049,259.189 192.746 C 259.082 193.102,258.719 193.800,258.383 194.296 C 258.047 194.792,257.772 195.377,257.772 195.596 C 257.772 195.815,257.487 196.414,257.138 196.927 C 256.789 197.441,256.427 198.164,256.334 198.535 C 255.873 200.373,253.396 202.144,252.836 201.036 C 252.427 200.227,249.765 194.614,248.966 192.876 C 248.508 191.878,247.037 188.836,245.699 186.115 C 244.360 183.393,243.264 181.082,243.264 180.979 C 243.264 180.875,242.199 178.613,240.896 175.952 C 237.423 168.854,236.787 167.511,236.787 167.268 C 236.787 167.147,236.552 166.718,236.264 166.314 C 235.976 165.909,235.565 165.081,235.350 164.473 C 235.136 163.865,234.803 163.187,234.611 162.966 C 234.419 162.745,234.114 162.098,233.932 161.528 C 233.750 160.959,233.328 160.086,232.993 159.590 C 232.658 159.094,232.383 158.511,232.382 158.295 C 232.382 158.079,232.032 157.377,231.606 156.736 C 231.180 156.095,230.831 155.410,230.830 155.214 C 230.830 155.019,230.488 154.202,230.072 153.401 C 228.995 151.327,224.611 142.291,224.611 142.145 C 224.611 142.022,220.976 134.398,219.219 130.836 C 217.980 128.324,217.903 126.397,218.959 124.304 C 219.777 122.684,222.938 116.090,223.966 113.860 C 224.360 113.005,225.470 110.674,226.431 108.679 C 230.633 99.966,231.088 99.003,231.088 98.834 C 231.088 98.736,231.306 98.346,231.573 97.967 C 231.839 97.589,232.435 96.405,232.897 95.337 C 233.359 94.268,234.755 91.295,236.000 88.731 C 237.244 86.166,238.417 83.659,238.605 83.161 C 238.793 82.662,239.027 82.137,239.126 81.995 C 239.426 81.560,241.096 78.215,241.972 76.295 C 242.427 75.298,243.879 72.267,245.198 69.560 C 246.517 66.852,248.104 63.530,248.724 62.176 C 249.345 60.823,250.061 59.437,250.315 59.097 C 250.569 58.757,250.778 58.349,250.778 58.190 C 250.778 58.032,251.186 57.092,251.685 56.103 C 252.183 55.114,252.591 54.160,252.591 53.984 C 252.591 53.031,253.715 52.629,254.616 53.260 " stroke="none" fill="#1ea55d" fill-rule="evenodd"></path><path id="path1" d="M0.000 129.534 L 0.000 259.067 200.000 259.067 L 400.000 259.067 400.000 129.534 L 400.000 0.000 200.000 0.000 L 0.000 0.000 0.000 129.534 M144.351 29.987 C 144.702 30.521,145.487 32.066,146.097 33.420 C 147.244 35.971,149.698 41.051,153.984 49.749 C 155.355 52.533,156.477 54.891,156.477 54.991 C 156.477 55.147,157.881 58.114,161.838 66.321 C 162.353 67.390,162.936 68.556,163.134 68.912 C 163.485 69.545,163.715 70.033,164.903 72.668 C 165.518 74.033,168.551 80.298,172.507 88.375 C 173.807 91.030,174.869 93.303,174.868 93.427 C 174.866 93.551,175.671 95.285,176.657 97.280 C 181.892 107.869,184.197 112.680,184.197 113.018 C 184.197 113.224,184.545 113.907,184.969 114.534 C 185.394 115.161,185.744 115.860,185.747 116.088 C 185.749 116.316,186.099 117.015,186.524 117.642 C 186.949 118.269,187.298 118.931,187.301 119.114 C 187.304 119.296,187.640 120.112,188.049 120.927 C 188.458 121.742,188.883 122.699,188.993 123.054 C 189.103 123.408,189.490 124.146,189.852 124.694 C 190.789 126.109,190.792 128.546,189.860 129.966 C 189.501 130.512,189.075 131.343,188.914 131.812 C 188.752 132.281,188.399 132.981,188.128 133.366 C 187.858 133.752,187.486 134.534,187.303 135.104 C 187.119 135.674,186.641 136.781,186.241 137.565 C 185.840 138.348,184.446 141.205,183.143 143.912 C 181.840 146.619,180.071 150.291,179.213 152.073 C 178.355 153.854,176.678 157.296,175.485 159.721 C 174.292 162.147,173.316 164.237,173.316 164.366 C 173.316 164.588,170.947 169.486,166.293 178.886 C 165.164 181.166,164.242 183.135,164.245 183.261 C 164.247 183.388,163.215 185.603,161.952 188.183 C 160.689 190.764,159.224 193.808,158.696 194.948 C 158.167 196.088,157.607 197.254,157.450 197.539 C 156.770 198.776,154.922 202.608,154.922 202.783 C 154.922 202.888,153.803 205.249,152.434 208.028 C 151.066 210.808,149.597 213.841,149.171 214.767 C 148.745 215.693,148.226 216.742,148.018 217.098 C 147.810 217.455,147.471 218.154,147.263 218.653 C 147.056 219.152,146.610 220.084,146.272 220.725 C 145.933 221.367,145.572 222.183,145.469 222.539 C 145.193 223.490,143.776 225.649,143.432 225.642 C 143.268 225.639,142.764 224.852,142.311 223.894 C 141.857 222.935,140.429 219.985,139.137 217.338 C 137.845 214.691,136.788 212.444,136.788 212.343 C 136.788 212.243,135.725 209.978,134.427 207.311 C 130.275 198.778,127.825 193.714,126.692 191.321 C 124.325 186.322,122.648 182.848,120.436 178.367 C 119.171 175.802,118.135 173.612,118.135 173.501 C 118.135 173.390,117.039 171.059,115.699 168.321 C 110.924 158.558,108.808 154.152,108.808 153.971 C 108.808 153.789,106.449 148.922,102.046 140.026 C 100.777 137.461,99.738 135.246,99.737 135.104 C 99.736 134.961,98.969 133.329,98.031 131.477 C 96.117 127.693,96.021 126.875,97.248 124.762 C 97.585 124.180,97.944 123.413,98.044 123.057 C 98.145 122.701,99.222 120.369,100.437 117.876 C 101.652 115.382,103.603 111.360,104.774 108.938 C 105.945 106.516,107.955 102.377,109.243 99.741 C 110.530 97.105,112.073 93.841,112.672 92.487 C 113.272 91.133,113.894 89.793,114.055 89.508 C 114.727 88.320,116.836 84.053,116.837 83.876 C 116.838 83.771,118.165 80.973,119.784 77.659 C 121.404 74.344,122.818 71.341,122.927 70.984 C 123.036 70.628,123.325 70.045,123.569 69.689 C 123.813 69.333,124.627 67.701,125.379 66.062 C 126.131 64.424,127.679 61.159,128.818 58.808 C 129.957 56.457,131.794 52.668,132.899 50.389 C 134.004 48.109,135.465 45.019,136.146 43.523 C 136.827 42.027,137.541 40.619,137.733 40.394 C 137.926 40.169,138.083 39.878,138.083 39.746 C 138.083 39.615,138.532 38.575,139.081 37.435 C 143.712 27.825,143.307 28.397,144.351 29.987 M254.483 29.598 C 254.931 29.930,256.995 33.767,256.995 34.267 C 256.995 34.420,258.037 36.652,259.310 39.228 C 260.584 41.804,262.118 45.019,262.720 46.373 C 263.322 47.727,264.028 49.112,264.290 49.452 C 264.552 49.792,264.767 50.178,264.767 50.310 C 264.767 50.670,266.815 54.962,273.160 67.894 C 274.528 70.682,275.646 73.072,275.643 73.205 C 275.641 73.337,276.621 75.427,277.821 77.850 C 281.687 85.653,284.974 92.453,284.974 92.648 C 284.974 92.752,286.011 94.944,287.278 97.519 C 288.545 100.095,289.668 102.494,289.773 102.850 C 289.878 103.206,290.186 103.813,290.458 104.198 C 290.729 104.584,291.082 105.283,291.241 105.753 C 291.400 106.222,291.724 106.898,291.960 107.254 C 292.503 108.071,294.301 111.807,294.301 112.118 C 294.301 112.245,295.287 114.306,296.492 116.697 C 297.698 119.088,298.824 121.468,298.994 121.986 C 299.164 122.504,299.605 123.383,299.973 123.940 C 301.158 125.735,301.094 128.239,299.795 130.901 C 299.223 132.073,298.441 133.731,298.056 134.585 C 297.288 136.294,294.426 142.194,290.576 150.008 C 289.205 152.792,288.083 155.181,288.083 155.318 C 288.083 155.455,287.108 157.550,285.915 159.973 C 284.723 162.396,283.310 165.311,282.775 166.451 C 281.790 168.549,280.251 171.744,276.449 179.579 C 275.296 181.955,274.352 183.967,274.352 184.050 C 274.352 184.195,272.902 187.207,267.455 198.376 C 266.119 201.116,265.026 203.432,265.026 203.524 C 265.026 203.615,263.931 205.920,262.593 208.645 C 257.040 219.959,255.731 222.704,255.559 223.392 C 255.364 224.175,253.969 225.729,253.642 225.527 C 253.437 225.401,251.554 221.661,251.554 221.381 C 251.554 221.297,250.517 219.104,249.250 216.508 C 247.982 213.912,246.859 211.496,246.754 211.140 C 246.650 210.784,246.344 210.179,246.075 209.797 C 245.805 209.414,245.415 208.620,245.207 208.031 C 245.000 207.443,244.594 206.662,244.306 206.295 C 244.018 205.929,243.782 205.508,243.782 205.360 C 243.782 205.068,243.063 203.527,239.766 196.762 C 238.586 194.339,236.544 190.084,235.230 187.306 C 233.915 184.527,231.878 180.272,230.703 177.850 C 228.129 172.543,225.807 167.703,224.490 164.896 C 223.955 163.756,222.554 160.842,221.377 158.420 C 220.200 155.997,219.085 153.608,218.899 153.109 C 218.714 152.610,218.350 151.893,218.089 151.514 C 217.829 151.136,217.617 150.754,217.617 150.665 C 217.617 150.489,216.051 147.201,212.304 139.508 C 210.986 136.801,209.818 134.297,209.710 133.943 C 209.602 133.590,208.888 132.104,208.124 130.642 C 206.533 127.593,206.497 127.331,207.405 125.392 C 207.773 124.607,208.343 123.381,208.671 122.668 C 209.000 121.956,210.374 119.100,211.727 116.321 C 213.079 113.543,214.273 110.978,214.380 110.622 C 214.488 110.266,214.771 109.683,215.009 109.326 C 215.519 108.564,217.617 104.319,217.617 104.050 C 217.617 103.948,218.957 101.132,220.596 97.792 C 222.234 94.453,223.575 91.655,223.575 91.576 C 223.575 91.497,224.700 89.134,226.074 86.325 C 227.449 83.516,229.475 79.352,230.578 77.073 C 231.681 74.793,233.633 70.771,234.916 68.135 C 236.199 65.499,237.362 62.934,237.499 62.435 C 237.636 61.937,238.057 61.075,238.434 60.521 C 238.811 59.967,239.121 59.325,239.124 59.096 C 239.126 58.867,239.476 58.166,239.901 57.539 C 240.326 56.912,240.673 56.271,240.672 56.114 C 240.672 55.957,241.070 55.013,241.558 54.016 C 242.046 53.018,242.898 51.269,243.452 50.130 C 244.005 48.990,244.585 47.824,244.740 47.539 C 245.103 46.874,246.491 43.923,246.994 42.746 C 247.207 42.247,247.556 41.548,247.771 41.192 C 248.138 40.582,249.325 38.104,252.207 31.930 C 253.458 29.249,253.690 29.011,254.483 29.598 M143.072 52.762 C 142.895 52.833,142.267 53.902,141.675 55.137 C 141.084 56.373,139.625 59.382,138.435 61.825 C 137.244 64.268,136.269 66.345,136.269 66.439 C 136.269 66.534,135.145 68.907,133.770 71.713 C 128.214 83.054,122.280 95.351,122.280 95.525 C 122.280 95.598,121.360 97.539,120.236 99.837 C 119.112 102.135,117.757 104.948,117.224 106.088 C 115.872 108.979,115.429 109.894,115.088 110.492 C 114.926 110.777,114.309 112.060,113.718 113.342 C 113.127 114.624,111.846 117.306,110.872 119.301 C 108.532 124.090,107.254 126.931,107.254 127.344 C 107.254 127.692,108.630 130.639,112.343 138.240 C 113.534 140.678,114.508 142.784,114.508 142.920 C 114.508 143.135,115.898 145.929,117.192 148.316 C 117.424 148.744,117.614 149.212,117.615 149.357 C 117.616 149.502,117.892 150.027,118.228 150.523 C 118.564 151.019,118.925 151.716,119.029 152.073 C 119.134 152.429,120.258 154.827,121.527 157.402 C 122.796 159.977,123.834 162.172,123.834 162.279 C 123.834 162.387,124.838 164.535,126.065 167.053 C 129.899 174.925,130.054 175.253,130.053 175.495 C 130.052 175.625,130.389 176.267,130.801 176.920 C 131.213 177.574,131.638 178.400,131.744 178.756 C 131.850 179.113,132.146 179.672,132.401 179.999 C 132.657 180.326,132.940 180.932,133.031 181.345 C 133.168 181.971,134.544 184.858,135.686 186.917 C 135.844 187.202,136.404 188.368,136.929 189.508 C 138.879 193.737,142.784 201.547,143.022 201.695 C 143.544 202.017,144.200 201.499,144.924 200.193 C 146.067 198.128,149.217 191.865,149.220 191.649 C 149.222 191.544,150.272 189.337,151.554 186.745 C 152.837 184.153,153.888 181.848,153.891 181.625 C 153.893 181.401,154.243 180.705,154.668 180.078 C 155.093 179.451,155.443 178.751,155.445 178.523 C 155.448 178.295,155.797 177.596,156.222 176.969 C 156.647 176.342,156.995 175.640,156.995 175.410 C 156.995 175.179,157.270 174.585,157.606 174.089 C 157.942 173.592,158.304 172.895,158.410 172.539 C 158.611 171.861,161.389 166.078,165.315 158.161 C 166.587 155.596,167.625 153.384,167.622 153.245 C 167.619 153.105,168.594 151.007,169.788 148.581 C 172.913 142.234,176.628 134.485,177.305 132.902 C 177.518 132.403,177.866 131.703,178.078 131.347 C 179.726 128.585,180.039 127.123,179.287 125.699 C 179.008 125.172,178.357 123.808,177.839 122.668 C 177.321 121.528,176.726 120.304,176.517 119.948 C 176.308 119.592,175.962 118.892,175.749 118.394 C 175.306 117.363,174.716 116.131,170.840 108.161 C 169.315 105.026,167.905 102.001,167.706 101.438 C 167.507 100.875,167.175 100.228,166.969 100.000 C 166.763 99.772,166.413 99.073,166.192 98.446 C 165.970 97.819,165.629 97.125,165.432 96.904 C 165.236 96.683,164.552 95.278,163.912 93.782 C 163.272 92.286,162.165 89.896,161.451 88.472 C 160.737 87.047,159.715 84.948,159.181 83.808 C 158.647 82.668,157.307 79.908,156.203 77.674 C 155.100 75.440,154.053 73.166,153.876 72.622 C 153.700 72.078,153.359 71.341,153.120 70.984 C 152.598 70.207,149.482 63.820,149.482 63.528 C 149.482 63.143,144.601 53.584,144.150 53.086 C 143.684 52.571,143.604 52.547,143.072 52.762 M252.998 53.257 C 252.774 53.481,252.591 53.808,252.591 53.984 C 252.591 54.160,252.183 55.114,251.685 56.103 C 251.186 57.092,250.778 58.032,250.778 58.190 C 250.778 58.349,250.569 58.757,250.315 59.097 C 250.061 59.437,249.345 60.823,248.724 62.176 C 248.104 63.530,246.517 66.852,245.198 69.560 C 243.879 72.267,242.427 75.298,241.972 76.295 C 241.096 78.215,239.426 81.560,239.126 81.995 C 239.027 82.137,238.793 82.662,238.605 83.161 C 238.417 83.659,237.244 86.166,236.000 88.731 C 234.755 91.295,233.359 94.268,232.897 95.337 C 232.435 96.405,231.839 97.589,231.573 97.967 C 231.306 98.346,231.088 98.736,231.088 98.834 C 231.088 99.003,230.633 99.966,226.431 108.679 C 225.470 110.674,224.360 113.005,223.966 113.860 C 222.938 116.090,219.777 122.684,218.959 124.304 C 217.903 126.397,217.980 128.324,219.219 130.836 C 220.976 134.398,224.611 142.022,224.611 142.145 C 224.611 142.291,228.995 151.327,230.072 153.401 C 230.488 154.202,230.830 155.019,230.830 155.214 C 230.831 155.410,231.180 156.095,231.606 156.736 C 232.032 157.377,232.382 158.079,232.382 158.295 C 232.383 158.511,232.658 159.094,232.993 159.590 C 233.328 160.086,233.750 160.959,233.932 161.528 C 234.114 162.098,234.419 162.745,234.611 162.966 C 234.803 163.187,235.136 163.865,235.350 164.473 C 235.565 165.081,235.976 165.909,236.264 166.314 C 236.552 166.718,236.787 167.147,236.787 167.268 C 236.787 167.511,237.423 168.854,240.896 175.952 C 242.199 178.613,243.264 180.875,243.264 180.979 C 243.264 181.082,244.360 183.393,245.699 186.115 C 247.037 188.836,248.508 191.878,248.966 192.876 C 249.765 194.614,252.427 200.227,252.836 201.036 C 253.396 202.144,255.873 200.373,256.334 198.535 C 256.427 198.164,256.789 197.441,257.138 196.927 C 257.487 196.414,257.772 195.815,257.772 195.596 C 257.772 195.377,258.047 194.792,258.383 194.296 C 258.719 193.800,259.082 193.102,259.189 192.746 C 259.398 192.049,261.968 186.681,266.083 178.342 C 267.496 175.478,268.653 173.037,268.653 172.917 C 268.653 172.797,269.711 170.535,271.005 167.891 C 274.021 161.724,274.517 160.689,274.980 159.585 C 275.189 159.087,275.530 158.387,275.738 158.031 C 275.946 157.675,276.522 156.509,277.019 155.440 C 277.516 154.372,278.911 151.457,280.121 148.964 C 283.564 141.864,284.197 140.520,284.197 140.306 C 284.197 140.196,284.412 139.796,284.675 139.418 C 284.938 139.040,285.646 137.623,286.248 136.269 C 286.850 134.916,287.975 132.513,288.749 130.929 C 290.338 127.676,290.440 126.910,289.518 125.168 C 288.884 123.968,287.683 121.413,286.945 119.689 C 286.732 119.190,286.387 118.491,286.179 118.135 C 285.971 117.778,285.452 116.729,285.026 115.803 C 284.600 114.877,283.205 111.962,281.926 109.326 C 280.648 106.690,279.170 103.601,278.643 102.461 C 278.115 101.321,277.553 100.155,277.393 99.870 C 276.634 98.518,274.615 94.405,274.613 94.209 C 274.611 93.994,272.724 90.071,267.721 79.886 C 266.381 77.158,265.285 74.860,265.285 74.779 C 265.285 74.573,262.233 68.149,261.759 67.358 C 261.545 67.001,261.195 66.302,260.980 65.803 C 260.765 65.304,259.967 63.614,259.205 62.047 C 258.444 60.479,257.231 57.953,256.511 56.434 C 254.933 53.105,253.997 52.258,252.998 53.257 " stroke="none" fill="#ffffff" fill-rule="evenodd"></path></g></svg>