<svg id="svg" version="1.1" xmlns="http://www.w3.org/2000/svg" xmlns:xlink="http://www.w3.org/1999/xlink" width="400" height="258.91472868217056" viewBox="0, 0, 400,258.91472868217056"><g id="svgg"><path id="path0" d="M198.310 32.604 C 197.716 32.966,197.445 33.404,197.184 34.423 C 196.994 35.162,196.701 35.908,196.532 36.082 C 196.362 36.257,196.014 36.955,195.757 37.634 C 195.500 38.314,195.151 39.013,194.980 39.189 C 194.809 39.364,194.459 40.064,194.203 40.743 C 193.946 41.422,193.590 42.125,193.411 42.303 C 193.232 42.482,192.878 43.267,192.624 44.047 C 192.369 44.828,192.001 45.651,191.805 45.876 C 191.609 46.102,191.266 46.823,191.042 47.480 C 190.819 48.136,190.476 48.805,190.280 48.968 C 190.085 49.130,189.737 49.828,189.508 50.518 C 189.278 51.209,188.929 51.908,188.731 52.073 C 188.532 52.237,188.173 52.975,187.931 53.712 C 187.690 54.449,187.290 55.343,187.042 55.699 C 186.795 56.056,186.510 56.729,186.409 57.195 C 186.308 57.662,185.959 58.361,185.633 58.750 C 185.308 59.138,184.958 59.838,184.856 60.304 C 184.754 60.771,184.405 61.470,184.079 61.859 C 183.753 62.247,183.401 62.973,183.295 63.472 C 183.190 63.970,182.841 64.729,182.519 65.158 C 182.197 65.587,181.848 66.345,181.743 66.842 C 181.638 67.339,181.285 68.038,180.959 68.394 C 180.632 68.750,180.283 69.449,180.181 69.948 C 180.080 70.447,179.730 71.146,179.404 71.503 C 179.078 71.859,178.726 72.554,178.622 73.047 C 178.517 73.540,178.166 74.356,177.841 74.861 C 177.516 75.365,177.177 76.131,177.088 76.563 C 176.999 76.995,176.651 77.669,176.314 78.061 C 175.978 78.453,175.630 79.157,175.542 79.626 C 175.454 80.095,175.159 80.718,174.887 81.011 C 174.614 81.303,174.222 82.114,174.014 82.813 C 173.807 83.511,173.332 84.533,172.958 85.083 C 172.585 85.633,172.278 86.270,172.275 86.500 C 172.272 86.729,171.923 87.430,171.498 88.057 C 171.073 88.684,170.723 89.384,170.721 89.612 C 170.718 89.839,170.368 90.539,169.943 91.166 C 169.519 91.793,169.171 92.564,169.171 92.880 C 169.171 93.195,168.955 93.731,168.691 94.071 C 168.427 94.411,168.014 95.287,167.774 96.019 C 167.533 96.750,167.120 97.544,166.855 97.783 C 166.591 98.023,166.250 98.714,166.097 99.321 C 165.945 99.927,165.591 100.630,165.312 100.882 C 165.033 101.135,164.730 101.784,164.638 102.325 C 164.547 102.866,164.267 103.529,164.016 103.798 C 163.765 104.067,163.371 104.842,163.140 105.519 C 162.910 106.196,162.482 107.054,162.190 107.425 C 161.897 107.797,161.658 108.302,161.658 108.548 C 161.658 108.794,161.354 109.443,160.982 109.991 C 160.610 110.539,160.152 111.499,159.964 112.125 C 159.775 112.750,159.453 113.454,159.248 113.690 C 159.043 113.926,158.676 114.731,158.433 115.478 C 158.189 116.225,157.842 116.924,157.659 117.032 C 157.477 117.140,157.128 117.839,156.882 118.587 C 156.637 119.334,156.287 120.033,156.105 120.141 C 155.923 120.249,155.565 120.978,155.310 121.762 C 155.055 122.545,154.630 123.465,154.366 123.804 C 154.102 124.144,153.886 124.587,153.886 124.789 C 153.886 124.990,153.722 125.472,153.523 125.858 C 153.212 126.459,153.211 126.711,153.519 127.594 C 153.716 128.162,153.880 128.831,153.882 129.080 C 153.884 129.330,154.110 129.758,154.385 130.032 C 155.051 130.699,155.440 131.459,155.440 132.094 C 155.440 132.381,155.729 132.927,156.082 133.308 C 156.435 133.689,156.799 134.424,156.891 134.941 C 156.983 135.458,157.393 136.396,157.804 137.026 C 158.214 137.656,158.551 138.356,158.554 138.581 C 158.557 138.806,158.906 139.503,159.331 140.130 C 159.756 140.757,160.104 141.470,160.104 141.714 C 160.104 141.958,160.350 142.471,160.651 142.854 C 160.952 143.237,161.357 144.075,161.549 144.716 C 161.742 145.357,162.137 146.183,162.427 146.551 C 162.716 146.919,162.953 147.420,162.953 147.664 C 162.953 147.909,163.301 148.622,163.726 149.249 C 164.151 149.876,164.500 150.575,164.503 150.803 C 164.506 151.031,164.855 151.730,165.280 152.357 C 165.705 152.984,166.055 153.687,166.057 153.919 C 166.063 154.459,166.762 156.139,167.056 156.321 C 167.180 156.397,167.489 157.017,167.743 157.699 C 167.998 158.380,168.355 159.113,168.537 159.326 C 168.719 159.540,169.071 160.240,169.319 160.881 C 169.567 161.522,169.911 162.222,170.085 162.435 C 170.258 162.649,170.606 163.465,170.859 164.249 C 171.112 165.032,171.467 165.762,171.649 165.869 C 171.831 165.977,172.181 166.677,172.426 167.424 C 172.672 168.171,173.022 168.870,173.204 168.978 C 173.386 169.086,173.736 169.785,173.982 170.533 C 174.228 171.280,174.642 172.165,174.902 172.500 C 175.162 172.835,175.453 173.535,175.548 174.055 C 175.644 174.575,175.984 175.266,176.305 175.591 C 176.626 175.916,176.961 176.571,177.051 177.046 C 177.140 177.522,177.491 178.234,177.830 178.629 C 178.170 179.025,178.519 179.708,178.608 180.149 C 178.696 180.590,179.039 181.360,179.370 181.861 C 179.701 182.362,180.050 183.193,180.146 183.708 C 180.242 184.223,180.556 184.856,180.842 185.116 C 181.129 185.375,181.489 186.083,181.641 186.690 C 181.794 187.296,182.140 187.992,182.411 188.238 C 182.682 188.483,183.031 189.156,183.187 189.734 C 183.342 190.312,183.686 191.060,183.950 191.395 C 184.214 191.731,184.608 192.618,184.825 193.367 C 185.043 194.115,185.445 194.930,185.720 195.179 C 185.994 195.427,186.289 196.009,186.376 196.473 C 186.463 196.937,186.825 197.710,187.179 198.191 C 187.534 198.671,187.824 199.175,187.824 199.311 C 187.824 199.446,188.232 200.405,188.731 201.442 C 189.229 202.479,189.637 203.503,189.637 203.718 C 189.637 203.932,189.797 204.268,189.992 204.463 C 190.474 204.945,191.192 206.363,191.192 206.834 C 191.192 207.045,191.351 207.377,191.547 207.572 C 192.019 208.044,192.746 209.469,192.746 209.922 C 192.746 210.121,192.982 210.556,193.271 210.888 C 193.559 211.221,193.976 212.113,194.196 212.871 C 194.416 213.629,194.683 214.249,194.789 214.249 C 195.028 214.249,195.855 215.949,195.855 216.441 C 195.855 216.640,196.015 216.962,196.210 217.157 C 196.664 217.611,197.292 218.854,197.493 219.696 C 197.579 220.056,198.009 220.696,198.448 221.117 C 199.359 221.989,199.579 221.841,199.845 220.180 C 199.932 219.634,200.215 218.980,200.473 218.726 C 200.731 218.472,201.085 217.769,201.259 217.164 C 201.433 216.559,201.782 215.859,202.036 215.609 C 202.289 215.360,202.639 214.660,202.813 214.055 C 202.987 213.450,203.341 212.750,203.599 212.501 C 203.857 212.251,204.211 211.464,204.384 210.751 C 204.558 210.039,204.911 209.223,205.168 208.938 C 205.425 208.653,205.781 207.953,205.959 207.383 C 206.136 206.813,206.486 206.114,206.736 205.829 C 206.986 205.544,207.335 204.845,207.513 204.275 C 207.691 203.705,208.033 203.005,208.274 202.720 C 208.514 202.435,208.914 201.532,209.162 200.712 C 209.409 199.893,209.716 199.223,209.844 199.223 C 209.971 199.223,210.331 198.523,210.643 197.668 C 210.954 196.813,211.301 196.114,211.412 196.114 C 211.524 196.114,211.822 195.560,212.074 194.883 C 212.326 194.207,212.802 193.247,213.132 192.751 C 213.461 192.255,213.734 191.555,213.738 191.196 C 213.742 190.838,214.091 190.086,214.515 189.526 C 214.938 188.967,215.288 188.267,215.292 187.972 C 215.296 187.677,215.646 186.977,216.069 186.418 C 216.493 185.858,216.839 185.169,216.839 184.888 C 216.839 184.606,217.128 183.998,217.480 183.536 C 217.832 183.074,218.230 182.207,218.364 181.608 C 218.499 181.010,218.841 180.269,219.126 179.962 C 219.410 179.655,219.769 178.927,219.924 178.344 C 220.079 177.761,220.427 177.084,220.698 176.839 C 220.968 176.594,221.315 175.897,221.468 175.291 C 221.620 174.685,221.974 173.982,222.253 173.729 C 222.532 173.477,222.837 172.816,222.931 172.260 C 223.025 171.705,223.369 170.857,223.695 170.375 C 224.022 169.894,224.437 169.047,224.617 168.494 C 224.798 167.940,225.155 167.217,225.412 166.888 C 225.668 166.558,226.015 165.872,226.183 165.363 C 226.351 164.854,226.765 164.029,227.104 163.530 C 227.443 163.030,227.722 162.376,227.725 162.075 C 227.728 161.775,228.077 161.015,228.502 160.388 C 228.927 159.761,229.277 159.062,229.279 158.834 C 229.282 158.606,229.632 157.907,230.057 157.280 C 230.481 156.653,230.829 155.959,230.829 155.739 C 230.829 155.519,231.131 154.903,231.501 154.370 C 231.870 153.837,232.282 152.909,232.417 152.309 C 232.552 151.708,232.950 150.875,233.300 150.459 C 233.651 150.042,233.938 149.435,233.938 149.109 C 233.938 148.783,234.288 148.077,234.715 147.539 C 235.142 147.001,235.494 146.315,235.497 146.014 C 235.500 145.713,235.849 144.953,236.274 144.326 C 236.699 143.699,237.047 142.921,237.047 142.597 C 237.047 142.274,237.323 141.679,237.661 141.276 C 237.999 140.874,238.358 140.162,238.460 139.696 C 238.562 139.229,238.911 138.530,239.237 138.141 C 239.563 137.753,239.911 137.060,240.011 136.602 C 240.111 136.144,240.476 135.351,240.822 134.842 C 241.168 134.332,241.451 133.739,241.451 133.525 C 241.451 133.117,242.176 131.571,242.472 131.347 C 242.566 131.276,242.852 130.662,243.106 129.982 C 243.361 129.303,243.741 128.575,243.951 128.366 C 244.601 127.716,244.673 126.373,244.094 125.707 C 243.812 125.383,243.444 124.567,243.275 123.893 C 243.106 123.220,242.758 122.435,242.500 122.150 C 242.243 121.865,241.887 121.166,241.710 120.596 C 241.532 120.026,241.183 119.326,240.933 119.041 C 240.683 118.756,240.333 118.057,240.155 117.487 C 239.978 116.917,239.625 116.218,239.371 115.933 C 239.117 115.648,238.728 114.798,238.507 114.045 C 238.286 113.291,237.867 112.372,237.576 112.002 C 237.285 111.632,237.047 111.129,237.047 110.885 C 237.047 110.641,236.699 109.928,236.274 109.301 C 235.849 108.674,235.500 107.977,235.497 107.752 C 235.494 107.527,235.157 106.827,234.747 106.197 C 234.336 105.567,233.926 104.630,233.834 104.114 C 233.743 103.598,233.437 102.909,233.154 102.583 C 232.872 102.257,232.525 101.561,232.383 101.036 C 232.242 100.511,231.892 99.812,231.606 99.482 C 231.320 99.152,230.966 98.435,230.818 97.888 C 230.671 97.341,230.328 96.686,230.057 96.433 C 229.785 96.180,229.450 95.473,229.313 94.861 C 229.176 94.250,228.761 93.313,228.392 92.781 C 228.022 92.248,227.720 91.631,227.720 91.411 C 227.720 91.191,227.373 90.498,226.948 89.871 C 226.523 89.244,226.173 88.543,226.171 88.313 C 226.168 88.084,225.857 87.443,225.479 86.888 C 225.101 86.334,224.688 85.428,224.562 84.874 C 224.437 84.320,224.111 83.584,223.840 83.238 C 223.568 82.893,223.205 82.180,223.034 81.655 C 222.863 81.129,222.513 80.430,222.257 80.100 C 222.001 79.771,221.654 79.085,221.486 78.576 C 221.318 78.066,220.917 77.261,220.595 76.787 C 220.273 76.312,219.927 75.488,219.827 74.956 C 219.727 74.423,219.374 73.664,219.042 73.269 C 218.709 72.874,218.354 72.170,218.253 71.703 C 218.151 71.237,217.801 70.537,217.475 70.149 C 217.150 69.760,216.800 69.061,216.698 68.594 C 216.596 68.128,216.254 67.436,215.936 67.058 C 215.619 66.679,215.283 65.898,215.191 65.321 C 215.099 64.745,214.745 63.972,214.404 63.605 C 214.064 63.237,213.708 62.526,213.614 62.024 C 213.520 61.522,213.223 60.891,212.954 60.622 C 212.685 60.353,212.323 59.631,212.149 59.017 C 211.975 58.404,211.675 57.771,211.484 57.612 C 211.293 57.453,210.903 56.646,210.618 55.817 C 210.333 54.989,209.940 54.128,209.746 53.904 C 209.551 53.680,209.246 53.031,209.068 52.461 C 208.890 51.891,208.537 51.192,208.283 50.907 C 208.029 50.622,207.672 49.881,207.488 49.261 C 207.305 48.640,207.003 48.074,206.815 48.002 C 206.628 47.930,206.287 47.214,206.058 46.410 C 205.828 45.606,205.435 44.715,205.184 44.430 C 204.933 44.145,204.582 43.446,204.404 42.876 C 204.227 42.306,203.877 41.606,203.627 41.321 C 203.377 41.036,203.027 40.337,202.850 39.767 C 202.672 39.197,202.312 38.494,202.049 38.205 C 201.787 37.916,201.428 37.058,201.253 36.299 C 201.078 35.540,200.789 34.863,200.610 34.794 C 200.432 34.726,200.095 34.097,199.863 33.397 C 199.384 31.956,199.378 31.953,198.310 32.604 M200.253 50.236 C 200.394 50.759,200.740 51.436,201.023 51.740 C 201.306 52.043,201.670 52.819,201.832 53.464 C 201.995 54.109,202.407 55.015,202.748 55.478 C 203.089 55.940,203.368 56.511,203.368 56.747 C 203.368 56.983,203.715 57.689,204.140 58.316 C 205.063 59.677,205.079 59.835,204.385 60.716 L 203.848 61.399 199.243 61.399 C 193.352 61.399,191.988 60.924,193.072 59.249 C 193.275 58.935,193.524 58.342,193.626 57.931 C 193.727 57.520,194.082 56.820,194.416 56.377 C 194.749 55.933,195.107 55.162,195.212 54.663 C 195.318 54.165,195.680 53.427,196.018 53.024 C 196.356 52.621,196.632 52.062,196.632 51.781 C 196.632 49.324,199.659 48.032,200.253 50.236 M208.284 67.552 C 208.761 68.086,209.363 69.098,209.622 69.800 C 209.881 70.502,210.194 71.143,210.318 71.225 C 210.679 71.461,211.140 72.460,211.140 73.004 C 211.140 73.278,211.448 73.956,211.825 74.510 C 212.202 75.065,212.621 75.926,212.757 76.425 C 212.892 76.924,213.209 77.565,213.462 77.850 C 214.168 78.648,214.316 79.911,213.763 80.411 C 213.077 81.032,184.627 81.049,183.742 80.429 L 183.171 80.030 183.684 79.073 C 183.966 78.547,184.197 77.927,184.197 77.695 C 184.197 77.464,184.501 76.826,184.873 76.278 C 185.245 75.730,185.703 74.770,185.891 74.145 C 186.080 73.520,186.406 72.815,186.616 72.579 C 186.826 72.343,187.137 71.629,187.307 70.992 C 187.477 70.354,187.888 69.510,188.220 69.115 C 188.552 68.720,188.908 68.134,189.009 67.813 C 189.390 66.616,189.535 66.597,198.722 66.589 L 207.418 66.580 208.284 67.552 M217.578 86.924 C 218.006 87.285,218.565 88.130,218.820 88.803 C 219.075 89.475,219.540 90.406,219.853 90.871 C 220.166 91.336,220.499 92.171,220.593 92.726 C 220.686 93.282,220.988 93.940,221.263 94.189 C 221.539 94.438,221.891 95.116,222.047 95.695 C 222.203 96.274,222.611 97.080,222.953 97.487 C 223.683 98.354,223.716 98.648,223.172 99.424 L 222.769 100.000 199.062 100.000 C 184.204 100.000,175.179 99.906,174.884 99.748 C 174.296 99.434,174.011 98.732,174.314 98.348 C 174.440 98.188,174.678 97.639,174.843 97.127 C 175.008 96.616,175.431 95.806,175.783 95.328 C 176.136 94.850,176.425 94.252,176.425 94.000 C 176.425 93.447,177.224 91.710,177.478 91.710 C 177.578 91.710,177.784 91.214,177.937 90.609 C 178.090 90.003,178.512 89.106,178.874 88.615 C 179.237 88.125,179.534 87.609,179.534 87.470 C 179.534 86.242,179.105 86.269,198.595 86.269 L 216.800 86.269 217.578 86.924 M226.837 106.358 C 227.502 107.052,228.094 107.983,228.278 108.625 C 228.451 109.225,228.799 109.919,229.052 110.169 C 229.306 110.419,229.656 111.118,229.832 111.723 C 230.007 112.329,230.344 113.081,230.582 113.395 C 230.820 113.708,231.161 114.489,231.340 115.130 C 231.520 115.771,231.880 116.489,232.142 116.726 C 232.638 117.175,232.593 118.422,232.056 119.106 C 231.700 119.560,166.939 119.583,165.945 119.129 C 165.501 118.927,165.285 118.623,165.285 118.198 C 165.285 117.164,166.058 114.824,166.448 114.674 C 166.648 114.597,166.992 113.926,167.213 113.183 C 167.434 112.439,167.775 111.646,167.971 111.421 C 168.167 111.195,168.526 110.399,168.769 109.652 C 169.013 108.905,169.352 108.205,169.523 108.097 C 169.694 107.990,170.053 107.404,170.321 106.795 C 170.623 106.111,171.016 105.645,171.350 105.574 C 171.648 105.512,172.124 105.411,172.409 105.351 C 172.694 105.291,184.803 105.228,199.319 105.211 L 225.710 105.181 226.837 106.358 M235.514 124.812 C 236.890 126.394,236.855 126.234,236.248 128.149 C 235.938 129.124,235.481 130.155,235.232 130.440 C 234.983 130.725,234.634 131.425,234.456 131.995 C 234.278 132.565,233.936 133.264,233.695 133.549 C 233.455 133.834,233.062 134.715,232.823 135.506 C 232.576 136.325,232.075 137.245,231.659 137.644 L 230.928 138.344 198.560 138.278 L 166.192 138.212 165.629 137.098 C 165.320 136.484,164.948 135.840,164.804 135.666 C 164.659 135.492,164.347 134.770,164.110 134.061 C 163.873 133.352,163.470 132.539,163.214 132.254 C 162.959 131.969,162.669 131.354,162.571 130.888 C 162.472 130.421,162.125 129.722,161.800 129.333 C 161.044 128.430,160.829 126.811,161.322 125.732 C 162.103 124.025,159.864 124.121,199.245 124.107 L 234.888 124.093 235.514 124.812 M227.850 144.467 C 228.351 144.968,228.187 145.971,227.474 146.762 C 227.217 147.047,226.862 147.746,226.684 148.316 C 226.506 148.886,226.157 149.585,225.907 149.870 C 225.657 150.155,225.307 150.855,225.130 151.425 C 224.952 151.995,224.590 152.700,224.324 152.992 C 224.059 153.284,223.773 153.866,223.688 154.287 C 223.174 156.832,224.170 156.736,198.408 156.736 L 175.908 156.736 174.884 155.811 C 174.154 155.151,173.746 154.492,173.461 153.513 C 173.242 152.758,172.893 152.000,172.685 151.827 C 172.478 151.655,172.121 150.950,171.891 150.259 C 171.662 149.569,171.312 148.869,171.114 148.705 C 170.916 148.540,170.566 147.841,170.337 147.150 C 170.107 146.460,169.750 145.754,169.542 145.581 C 169.100 145.214,169.445 144.646,170.328 144.288 C 171.473 143.824,227.381 143.998,227.850 144.467 M218.247 161.697 C 219.402 162.224,219.408 164.656,218.258 166.023 C 217.933 166.408,217.540 167.198,217.384 167.777 C 217.228 168.356,216.869 169.039,216.586 169.295 C 216.304 169.551,216.003 170.123,215.919 170.567 C 215.441 173.090,215.671 173.057,198.414 173.057 L 183.599 173.057 182.611 171.987 C 182.068 171.398,181.419 170.378,181.170 169.720 C 180.920 169.062,180.450 168.128,180.125 167.645 C 179.800 167.162,179.534 166.637,179.534 166.477 C 179.534 166.318,179.231 165.619,178.861 164.923 C 178.171 163.629,178.147 162.522,178.790 161.747 C 179.181 161.275,217.215 161.227,218.247 161.697 M210.639 178.507 C 211.400 178.914,211.321 180.741,210.495 181.861 C 210.141 182.342,209.780 183.151,209.694 183.660 C 209.608 184.169,209.310 184.908,209.032 185.303 C 208.754 185.697,208.310 186.527,208.044 187.146 C 207.154 189.223,206.485 189.378,198.419 189.378 L 191.561 189.378 190.363 188.148 C 189.668 187.434,189.056 186.512,188.906 185.953 C 188.763 185.423,188.410 184.657,188.121 184.251 C 187.832 183.845,187.458 182.967,187.290 182.300 C 187.122 181.634,186.888 181.088,186.769 181.088 C 186.174 181.088,186.002 179.149,186.555 178.692 C 187.206 178.154,209.658 177.982,210.639 178.507 M202.837 194.294 C 203.825 194.823,203.674 197.362,202.591 198.446 C 202.321 198.716,201.966 199.433,201.803 200.041 C 201.639 200.648,201.338 201.267,201.133 201.417 C 200.929 201.566,200.554 202.387,200.302 203.241 C 199.569 205.714,197.187 204.918,196.727 202.047 C 196.637 201.483,196.229 200.600,195.821 200.086 C 195.412 199.572,195.078 198.885,195.078 198.559 C 195.078 198.234,194.786 197.621,194.430 197.198 C 193.728 196.364,193.554 194.891,194.093 194.352 C 194.478 193.967,202.131 193.916,202.837 194.294 " stroke="none" fill="#1aa658" fill-rule="evenodd"></path><path id="path1" d="M0.000 129.534 L 0.000 259.067 200.000 259.067 L 400.000 259.067 400.000 129.534 L 400.000 0.000 200.000 0.000 L 0.000 0.000 0.000 129.534 M199.863 33.397 C 200.095 34.097,200.432 34.726,200.610 34.794 C 200.789 34.863,201.078 35.540,201.253 36.299 C 201.428 37.058,201.787 37.916,202.049 38.205 C 202.312 38.494,202.672 39.197,202.850 39.767 C 203.027 40.337,203.377 41.036,203.627 41.321 C 203.877 41.606,204.227 42.306,204.404 42.876 C 204.582 43.446,204.933 44.145,205.184 44.430 C 205.435 44.715,205.828 45.606,206.058 46.410 C 206.287 47.214,206.628 47.930,206.815 48.002 C 207.003 48.074,207.305 48.640,207.488 49.261 C 207.672 49.881,208.029 50.622,208.283 50.907 C 208.537 51.192,208.890 51.891,209.068 52.461 C 209.246 53.031,209.551 53.680,209.746 53.904 C 209.940 54.128,210.333 54.989,210.618 55.817 C 210.903 56.646,211.293 57.453,211.484 57.612 C 211.675 57.771,211.975 58.404,212.149 59.017 C 212.323 59.631,212.685 60.353,212.954 60.622 C 213.223 60.891,213.520 61.522,213.614 62.024 C 213.708 62.526,214.064 63.237,214.404 63.605 C 214.745 63.972,215.099 64.745,215.191 65.321 C 215.283 65.898,215.619 66.679,215.936 67.058 C 216.254 67.436,216.596 68.128,216.698 68.594 C 216.800 69.061,217.150 69.760,217.475 70.149 C 217.801 70.537,218.151 71.237,218.253 71.703 C 218.354 72.170,218.709 72.874,219.042 73.269 C 219.374 73.664,219.727 74.423,219.827 74.956 C 219.927 75.488,220.273 76.312,220.595 76.787 C 220.917 77.261,221.318 78.066,221.486 78.576 C 221.654 79.085,222.001 79.771,222.257 80.100 C 222.513 80.430,222.863 81.129,223.034 81.655 C 223.205 82.180,223.568 82.893,223.840 83.238 C 224.111 83.584,224.437 84.320,224.562 84.874 C 224.688 85.428,225.101 86.334,225.479 86.888 C 225.857 87.443,226.168 88.084,226.171 88.313 C 226.173 88.543,226.523 89.244,226.948 89.871 C 227.373 90.498,227.720 91.191,227.720 91.411 C 227.720 91.631,228.022 92.248,228.392 92.781 C 228.761 93.313,229.176 94.250,229.313 94.861 C 229.450 95.473,229.785 96.180,230.057 96.433 C 230.328 96.686,230.671 97.341,230.818 97.888 C 230.966 98.435,231.320 99.152,231.606 99.482 C 231.892 99.812,232.242 100.511,232.383 101.036 C 232.525 101.561,232.872 102.257,233.154 102.583 C 233.437 102.909,233.743 103.598,233.834 104.114 C 233.926 104.630,234.336 105.567,234.747 106.197 C 235.157 106.827,235.494 107.527,235.497 107.752 C 235.500 107.977,235.849 108.674,236.274 109.301 C 236.699 109.928,237.047 110.641,237.047 110.885 C 237.047 111.129,237.285 111.632,237.576 112.002 C 237.867 112.372,238.286 113.291,238.507 114.045 C 238.728 114.798,239.117 115.648,239.371 115.933 C 239.625 116.218,239.978 116.917,240.155 117.487 C 240.333 118.057,240.683 118.756,240.933 119.041 C 241.183 119.326,241.532 120.026,241.710 120.596 C 241.887 121.166,242.243 121.865,242.500 122.150 C 242.758 122.435,243.106 123.220,243.275 123.893 C 243.444 124.567,243.812 125.383,244.094 125.707 C 244.673 126.373,244.601 127.716,243.951 128.366 C 243.741 128.575,243.361 129.303,243.106 129.982 C 242.852 130.662,242.566 131.276,242.472 131.347 C 242.176 131.571,241.451 133.117,241.451 133.525 C 241.451 133.739,241.168 134.332,240.822 134.842 C 240.476 135.351,240.111 136.144,240.011 136.602 C 239.911 137.060,239.563 137.753,239.237 138.141 C 238.911 138.530,238.562 139.229,238.460 139.696 C 238.358 140.162,237.999 140.874,237.661 141.276 C 237.323 141.679,237.047 142.274,237.047 142.597 C 237.047 142.921,236.699 143.699,236.274 144.326 C 235.849 144.953,235.500 145.713,235.497 146.014 C 235.494 146.315,235.142 147.001,234.715 147.539 C 234.288 148.077,233.938 148.783,233.938 149.109 C 233.938 149.435,233.651 150.042,233.300 150.459 C 232.950 150.875,232.552 151.708,232.417 152.309 C 232.282 152.909,231.870 153.837,231.501 154.370 C 231.131 154.903,230.829 155.519,230.829 155.739 C 230.829 155.959,230.481 156.653,230.057 157.280 C 229.632 157.907,229.282 158.606,229.279 158.834 C 229.277 159.062,228.927 159.761,228.502 160.388 C 228.077 161.015,227.728 161.775,227.725 162.075 C 227.722 162.376,227.443 163.030,227.104 163.530 C 226.765 164.029,226.351 164.854,226.183 165.363 C 226.015 165.872,225.668 166.558,225.412 166.888 C 225.155 167.217,224.798 167.940,224.617 168.494 C 224.437 169.047,224.022 169.894,223.695 170.375 C 223.369 170.857,223.025 171.705,222.931 172.260 C 222.837 172.816,222.532 173.477,222.253 173.729 C 221.974 173.982,221.620 174.685,221.468 175.291 C 221.315 175.897,220.968 176.594,220.698 176.839 C 220.427 177.084,220.079 177.761,219.924 178.344 C 219.769 178.927,219.410 179.655,219.126 179.962 C 218.841 180.269,218.499 181.010,218.364 181.608 C 218.230 182.207,217.832 183.074,217.480 183.536 C 217.128 183.998,216.839 184.606,216.839 184.888 C 216.839 185.169,216.493 185.858,216.069 186.418 C 215.646 186.977,215.296 187.677,215.292 187.972 C 215.288 188.267,214.938 188.967,214.515 189.526 C 214.091 190.086,213.742 190.838,213.738 191.196 C 213.734 191.555,213.461 192.255,213.132 192.751 C 212.802 193.247,212.326 194.207,212.074 194.883 C 211.822 195.560,211.524 196.114,211.412 196.114 C 211.301 196.114,210.954 196.813,210.643 197.668 C 210.331 198.523,209.971 199.223,209.844 199.223 C 209.716 199.223,209.409 199.893,209.162 200.712 C 208.914 201.532,208.514 202.435,208.274 202.720 C 208.033 203.005,207.691 203.705,207.513 204.275 C 207.335 204.845,206.986 205.544,206.736 205.829 C 206.486 206.114,206.136 206.813,205.959 207.383 C 205.781 207.953,205.425 208.653,205.168 208.938 C 204.911 209.223,204.558 210.039,204.384 210.751 C 204.211 211.464,203.857 212.251,203.599 212.501 C 203.341 212.750,202.987 213.450,202.813 214.055 C 202.639 214.660,202.289 215.360,202.036 215.609 C 201.782 215.859,201.433 216.559,201.259 217.164 C 201.085 217.769,200.731 218.472,200.473 218.726 C 200.215 218.980,199.932 219.634,199.845 220.180 C 199.579 221.841,199.359 221.989,198.448 221.117 C 198.009 220.696,197.579 220.056,197.493 219.696 C 197.292 218.854,196.664 217.611,196.210 217.157 C 196.015 216.962,195.855 216.640,195.855 216.441 C 195.855 215.949,195.028 214.249,194.789 214.249 C 194.683 214.249,194.416 213.629,194.196 212.871 C 193.976 212.113,193.559 211.221,193.271 210.888 C 192.982 210.556,192.746 210.121,192.746 209.922 C 192.746 209.469,192.019 208.044,191.547 207.572 C 191.351 207.377,191.192 207.045,191.192 206.834 C 191.192 206.363,190.474 204.945,189.992 204.463 C 189.797 204.268,189.637 203.932,189.637 203.718 C 189.637 203.503,189.229 202.479,188.731 201.442 C 188.232 200.405,187.824 199.446,187.824 199.311 C 187.824 199.175,187.534 198.671,187.179 198.191 C 186.825 197.710,186.463 196.937,186.376 196.473 C 186.289 196.009,185.994 195.427,185.720 195.179 C 185.445 194.930,185.043 194.115,184.825 193.367 C 184.608 192.618,184.214 191.731,183.950 191.395 C 183.686 191.060,183.342 190.312,183.187 189.734 C 183.031 189.156,182.682 188.483,182.411 188.238 C 182.140 187.992,181.794 187.296,181.641 186.690 C 181.489 186.083,181.129 185.375,180.842 185.116 C 180.556 184.856,180.242 184.223,180.146 183.708 C 180.050 183.193,179.701 182.362,179.370 181.861 C 179.039 181.360,178.696 180.590,178.608 180.149 C 178.519 179.708,178.170 179.025,177.830 178.629 C 177.491 178.234,177.140 177.522,177.051 177.046 C 176.961 176.571,176.626 175.916,176.305 175.591 C 175.984 175.266,175.644 174.575,175.548 174.055 C 175.453 173.535,175.162 172.835,174.902 172.500 C 174.642 172.165,174.228 171.280,173.982 170.533 C 173.736 169.785,173.386 169.086,173.204 168.978 C 173.022 168.870,172.672 168.171,172.426 167.424 C 172.181 166.677,171.831 165.977,171.649 165.869 C 171.467 165.762,171.112 165.032,170.859 164.249 C 170.606 163.465,170.258 162.649,170.085 162.435 C 169.911 162.222,169.567 161.522,169.319 160.881 C 169.071 160.240,168.719 159.540,168.537 159.326 C 168.355 159.113,167.998 158.380,167.743 157.699 C 167.489 157.017,167.180 156.397,167.056 156.321 C 166.762 156.139,166.063 154.459,166.057 153.919 C 166.055 153.687,165.705 152.984,165.280 152.357 C 164.855 151.730,164.506 151.031,164.503 150.803 C 164.500 150.575,164.151 149.876,163.726 149.249 C 163.301 148.622,162.953 147.909,162.953 147.664 C 162.953 147.420,162.716 146.919,162.427 146.551 C 162.137 146.183,161.742 145.357,161.549 144.716 C 161.357 144.075,160.952 143.237,160.651 142.854 C 160.350 142.471,160.104 141.958,160.104 141.714 C 160.104 141.470,159.756 140.757,159.331 140.130 C 158.906 139.503,158.557 138.806,158.554 138.581 C 158.551 138.356,158.214 137.656,157.804 137.026 C 157.393 136.396,156.983 135.458,156.891 134.941 C 156.799 134.424,156.435 133.689,156.082 133.308 C 155.729 132.927,155.440 132.381,155.440 132.094 C 155.440 131.459,155.051 130.699,154.385 130.032 C 154.110 129.758,153.884 129.330,153.882 129.080 C 153.880 128.831,153.716 128.162,153.519 127.594 C 153.211 126.711,153.212 126.459,153.523 125.858 C 153.722 125.472,153.886 124.990,153.886 124.789 C 153.886 124.587,154.102 124.144,154.366 123.804 C 154.630 123.465,155.055 122.545,155.310 121.762 C 155.565 120.978,155.923 120.249,156.105 120.141 C 156.287 120.033,156.637 119.334,156.882 118.587 C 157.128 117.839,157.477 117.140,157.659 117.032 C 157.842 116.924,158.189 116.225,158.433 115.478 C 158.676 114.731,159.043 113.926,159.248 113.690 C 159.453 113.454,159.775 112.750,159.964 112.125 C 160.152 111.499,160.610 110.539,160.982 109.991 C 161.354 109.443,161.658 108.794,161.658 108.548 C 161.658 108.302,161.897 107.797,162.190 107.425 C 162.482 107.054,162.910 106.196,163.140 105.519 C 163.371 104.842,163.765 104.067,164.016 103.798 C 164.267 103.529,164.547 102.866,164.638 102.325 C 164.730 101.784,165.033 101.135,165.312 100.882 C 165.591 100.630,165.945 99.927,166.097 99.321 C 166.250 98.714,166.591 98.023,166.855 97.783 C 167.120 97.544,167.533 96.750,167.774 96.019 C 168.014 95.287,168.427 94.411,168.691 94.071 C 168.955 93.731,169.171 93.195,169.171 92.880 C 169.171 92.564,169.519 91.793,169.943 91.166 C 170.368 90.539,170.718 89.839,170.721 89.612 C 170.723 89.384,171.073 88.684,171.498 88.057 C 171.923 87.430,172.272 86.729,172.275 86.500 C 172.278 86.270,172.585 85.633,172.958 85.083 C 173.332 84.533,173.807 83.511,174.014 82.813 C 174.222 82.114,174.614 81.303,174.887 81.011 C 175.159 80.718,175.454 80.095,175.542 79.626 C 175.630 79.157,175.978 78.453,176.314 78.061 C 176.651 77.669,176.999 76.995,177.088 76.563 C 177.177 76.131,177.516 75.365,177.841 74.861 C 178.166 74.356,178.517 73.540,178.622 73.047 C 178.726 72.554,179.078 71.859,179.404 71.503 C 179.730 71.146,180.080 70.447,180.181 69.948 C 180.283 69.449,180.632 68.750,180.959 68.394 C 181.285 68.038,181.638 67.339,181.743 66.842 C 181.848 66.345,182.197 65.587,182.519 65.158 C 182.841 64.729,183.190 63.970,183.295 63.472 C 183.401 62.973,183.753 62.247,184.079 61.859 C 184.405 61.470,184.754 60.771,184.856 60.304 C 184.958 59.838,185.308 59.138,185.633 58.750 C 185.959 58.361,186.308 57.662,186.409 57.195 C 186.510 56.729,186.795 56.056,187.042 55.699 C 187.290 55.343,187.690 54.449,187.931 53.712 C 188.173 52.975,188.532 52.237,188.731 52.073 C 188.929 51.908,189.278 51.209,189.508 50.518 C 189.737 49.828,190.085 49.130,190.280 48.968 C 190.476 48.805,190.819 48.136,191.042 47.480 C 191.266 46.823,191.609 46.102,191.805 45.876 C 192.001 45.651,192.369 44.828,192.624 44.047 C 192.878 43.267,193.232 42.482,193.411 42.303 C 193.590 42.125,193.946 41.422,194.203 40.743 C 194.459 40.064,194.809 39.364,194.980 39.189 C 195.151 39.013,195.500 38.314,195.757 37.634 C 196.014 36.955,196.362 36.257,196.532 36.082 C 196.701 35.908,196.994 35.162,197.184 34.423 C 197.445 33.404,197.716 32.966,198.310 32.604 C 199.378 31.953,199.384 31.956,199.863 33.397 M198.386 49.251 C 197.398 49.759,196.632 50.865,196.632 51.781 C 196.632 52.062,196.356 52.621,196.018 53.024 C 195.680 53.427,195.318 54.165,195.212 54.663 C 195.107 55.162,194.749 55.933,194.416 56.377 C 194.082 56.820,193.727 57.520,193.626 57.931 C 193.524 58.342,193.275 58.935,193.072 59.249 C 191.988 60.924,193.352 61.399,199.243 61.399 L 203.848 61.399 204.385 60.716 C 205.079 59.835,205.063 59.677,204.140 58.316 C 203.715 57.689,203.368 56.983,203.368 56.747 C 203.368 56.511,203.089 55.940,202.748 55.478 C 202.407 55.015,201.995 54.109,201.832 53.464 C 201.670 52.819,201.306 52.043,201.023 51.740 C 200.740 51.436,200.394 50.759,200.253 50.236 C 199.878 48.846,199.530 48.662,198.386 49.251 M189.610 66.913 C 189.382 67.088,189.111 67.492,189.009 67.813 C 188.908 68.134,188.552 68.720,188.220 69.115 C 187.888 69.510,187.477 70.354,187.307 70.992 C 187.137 71.629,186.826 72.343,186.616 72.579 C 186.406 72.815,186.080 73.520,185.891 74.145 C 185.703 74.770,185.245 75.730,184.873 76.278 C 184.501 76.826,184.197 77.464,184.197 77.695 C 184.197 77.927,183.966 78.547,183.684 79.073 L 183.171 80.030 183.742 80.429 C 184.627 81.049,213.077 81.032,213.763 80.411 C 214.316 79.911,214.168 78.648,213.462 77.850 C 213.209 77.565,212.892 76.924,212.757 76.425 C 212.621 75.926,212.202 75.065,211.825 74.510 C 211.448 73.956,211.140 73.278,211.140 73.004 C 211.140 72.460,210.679 71.461,210.318 71.225 C 210.194 71.143,209.881 70.502,209.622 69.800 C 209.363 69.098,208.761 68.086,208.284 67.552 L 207.418 66.580 198.722 66.589 C 192.282 66.595,189.918 66.679,189.610 66.913 M179.962 86.743 C 179.727 87.004,179.534 87.331,179.534 87.470 C 179.534 87.609,179.237 88.125,178.874 88.615 C 178.512 89.106,178.090 90.003,177.937 90.609 C 177.784 91.214,177.578 91.710,177.478 91.710 C 177.224 91.710,176.425 93.447,176.425 94.000 C 176.425 94.252,176.136 94.850,175.783 95.328 C 175.431 95.806,175.008 96.616,174.843 97.127 C 174.678 97.639,174.440 98.188,174.314 98.348 C 174.011 98.732,174.296 99.434,174.884 99.748 C 175.179 99.906,184.204 100.000,199.062 100.000 L 222.769 100.000 223.172 99.424 C 223.716 98.648,223.683 98.354,222.953 97.487 C 222.611 97.080,222.203 96.274,222.047 95.695 C 221.891 95.116,221.539 94.438,221.263 94.189 C 220.988 93.940,220.686 93.282,220.593 92.726 C 220.499 92.171,220.166 91.336,219.853 90.871 C 219.540 90.406,219.075 89.475,218.820 88.803 C 218.565 88.130,218.006 87.285,217.578 86.924 L 216.800 86.269 198.595 86.269 C 181.288 86.269,180.370 86.293,179.962 86.743 M172.409 105.351 C 172.124 105.411,171.648 105.512,171.350 105.574 C 171.016 105.645,170.623 106.111,170.321 106.795 C 170.053 107.404,169.694 107.990,169.523 108.097 C 169.352 108.205,169.013 108.905,168.769 109.652 C 168.526 110.399,168.167 111.195,167.971 111.421 C 167.775 111.646,167.434 112.439,167.213 113.183 C 166.992 113.926,166.648 114.597,166.448 114.674 C 166.058 114.824,165.285 117.164,165.285 118.198 C 165.285 118.623,165.501 118.927,165.945 119.129 C 166.939 119.583,231.700 119.560,232.056 119.106 C 232.593 118.422,232.638 117.175,232.142 116.726 C 231.880 116.489,231.520 115.771,231.340 115.130 C 231.161 114.489,230.820 113.708,230.582 113.395 C 230.344 113.081,230.007 112.329,229.832 111.723 C 229.656 111.118,229.306 110.419,229.052 110.169 C 228.799 109.919,228.451 109.225,228.278 108.625 C 228.094 107.983,227.502 107.052,226.837 106.358 L 225.710 105.181 199.319 105.211 C 184.803 105.228,172.694 105.291,172.409 105.351 M162.650 124.515 C 160.925 125.231,160.480 127.757,161.800 129.333 C 162.125 129.722,162.472 130.421,162.571 130.888 C 162.669 131.354,162.959 131.969,163.214 132.254 C 163.470 132.539,163.873 133.352,164.110 134.061 C 164.347 134.770,164.659 135.492,164.804 135.666 C 164.948 135.840,165.320 136.484,165.629 137.098 L 166.192 138.212 198.560 138.278 L 230.928 138.344 231.659 137.644 C 232.075 137.245,232.576 136.325,232.823 135.506 C 233.062 134.715,233.455 133.834,233.695 133.549 C 233.936 133.264,234.278 132.565,234.456 131.995 C 234.634 131.425,234.983 130.725,235.232 130.440 C 235.481 130.155,235.938 129.124,236.248 128.149 C 236.855 126.234,236.890 126.394,235.514 124.812 L 234.888 124.093 199.245 124.107 C 167.918 124.118,163.486 124.168,162.650 124.515 M170.328 144.288 C 169.445 144.646,169.100 145.214,169.542 145.581 C 169.750 145.754,170.107 146.460,170.337 147.150 C 170.566 147.841,170.916 148.540,171.114 148.705 C 171.312 148.869,171.662 149.569,171.891 150.259 C 172.121 150.950,172.478 151.655,172.685 151.827 C 172.893 152.000,173.242 152.758,173.461 153.513 C 173.746 154.492,174.154 155.151,174.884 155.811 L 175.908 156.736 198.408 156.736 C 224.170 156.736,223.174 156.832,223.688 154.287 C 223.773 153.866,224.059 153.284,224.324 152.992 C 224.590 152.700,224.952 151.995,225.130 151.425 C 225.307 150.855,225.657 150.155,225.907 149.870 C 226.157 149.585,226.506 148.886,226.684 148.316 C 226.862 147.746,227.217 147.047,227.474 146.762 C 228.187 145.971,228.351 144.968,227.850 144.467 C 227.381 143.998,171.473 143.824,170.328 144.288 M178.790 161.747 C 178.147 162.522,178.171 163.629,178.861 164.923 C 179.231 165.619,179.534 166.318,179.534 166.477 C 179.534 166.637,179.800 167.162,180.125 167.645 C 180.450 168.128,180.920 169.062,181.170 169.720 C 181.419 170.378,182.068 171.398,182.611 171.987 L 183.599 173.057 198.414 173.057 C 215.671 173.057,215.441 173.090,215.919 170.567 C 216.003 170.123,216.304 169.551,216.586 169.295 C 216.869 169.039,217.228 168.356,217.384 167.777 C 217.540 167.198,217.933 166.408,218.258 166.023 C 219.408 164.656,219.402 162.224,218.247 161.697 C 217.215 161.227,179.181 161.275,178.790 161.747 M186.555 178.692 C 186.002 179.149,186.174 181.088,186.769 181.088 C 186.888 181.088,187.122 181.634,187.290 182.300 C 187.458 182.967,187.832 183.845,188.121 184.251 C 188.410 184.657,188.763 185.423,188.906 185.953 C 189.056 186.512,189.668 187.434,190.363 188.148 L 191.561 189.378 198.419 189.378 C 206.485 189.378,207.154 189.223,208.044 187.146 C 208.310 186.527,208.754 185.697,209.032 185.303 C 209.310 184.908,209.608 184.169,209.694 183.660 C 209.780 183.151,210.141 182.342,210.495 181.861 C 211.321 180.741,211.400 178.914,210.639 178.507 C 209.658 177.982,187.206 178.154,186.555 178.692 M194.093 194.352 C 193.554 194.891,193.728 196.364,194.430 197.198 C 194.786 197.621,195.078 198.234,195.078 198.559 C 195.078 198.885,195.412 199.572,195.821 200.086 C 196.229 200.600,196.637 201.483,196.727 202.047 C 197.187 204.918,199.569 205.714,200.302 203.241 C 200.554 202.387,200.929 201.566,201.133 201.417 C 201.338 201.267,201.639 200.648,201.803 200.041 C 201.966 199.433,202.321 198.716,202.591 198.446 C 203.674 197.362,203.825 194.823,202.837 194.294 C 202.131 193.916,194.478 193.967,194.093 194.352 " stroke="none" fill="#ffffff" fill-rule="evenodd"></path></g></svg>