<svg id="svg" version="1.1" xmlns="http://www.w3.org/2000/svg" xmlns:xlink="http://www.w3.org/1999/xlink" width="400" height="258.91472868217056" viewBox="0, 0, 400,258.91472868217056"><g id="svgg"><path id="path0" d="M85.803 31.658 C 85.632 31.829,85.492 32.161,85.492 32.396 C 85.492 32.631,85.145 33.337,84.720 33.964 C 84.295 34.591,83.945 35.290,83.943 35.518 C 83.940 35.746,83.590 36.445,83.165 37.072 C 82.740 37.699,82.391 38.360,82.388 38.541 C 82.386 38.722,82.034 39.525,81.606 40.326 C 81.179 41.127,80.829 41.925,80.829 42.099 C 80.829 42.273,80.552 42.823,80.213 43.322 C 79.874 43.822,79.460 44.647,79.292 45.156 C 79.124 45.665,78.781 46.351,78.531 46.681 C 78.281 47.010,77.864 47.863,77.605 48.575 C 77.346 49.288,76.917 50.234,76.650 50.678 C 76.384 51.123,76.165 51.647,76.165 51.844 C 76.164 52.041,75.815 52.727,75.389 53.368 C 74.962 54.009,74.613 54.709,74.611 54.922 C 74.610 55.136,74.260 55.835,73.834 56.477 C 73.408 57.118,73.057 57.817,73.054 58.031 C 73.052 58.245,72.885 58.711,72.683 59.067 C 72.020 60.242,71.547 61.260,71.358 61.917 C 71.256 62.273,70.962 62.834,70.705 63.164 C 70.447 63.493,70.099 64.180,69.931 64.689 C 69.763 65.198,69.349 66.023,69.010 66.522 C 68.671 67.021,68.394 67.559,68.394 67.717 C 68.394 67.987,67.212 70.576,66.430 72.021 C 66.237 72.377,65.888 73.076,65.655 73.575 C 65.423 74.074,65.073 74.773,64.878 75.130 C 64.684 75.486,64.335 76.185,64.103 76.684 C 63.871 77.183,63.410 78.174,63.079 78.886 C 62.748 79.598,62.332 80.589,62.155 81.088 C 61.978 81.587,61.639 82.228,61.402 82.513 C 61.165 82.798,60.816 83.525,60.627 84.128 C 60.437 84.732,60.067 85.420,59.804 85.658 C 59.541 85.896,59.326 86.254,59.326 86.455 C 59.326 86.655,58.874 87.773,58.321 88.940 C 57.769 90.107,57.236 91.324,57.138 91.645 C 57.040 91.966,56.865 92.228,56.750 92.228 C 56.634 92.228,56.278 92.927,55.959 93.782 C 55.639 94.637,55.291 95.337,55.185 95.337 C 55.079 95.337,54.784 95.891,54.529 96.567 C 54.273 97.244,53.849 98.076,53.587 98.416 C 53.324 98.756,53.109 99.233,53.109 99.478 C 53.109 99.722,52.351 101.410,51.425 103.228 C 50.499 105.047,49.741 106.641,49.741 106.770 C 49.741 106.899,49.468 107.440,49.135 107.971 C 48.801 108.503,48.444 109.288,48.342 109.715 C 48.239 110.142,47.889 110.900,47.564 111.399 C 47.238 111.898,46.831 112.734,46.659 113.256 C 46.487 113.779,46.184 114.342,45.985 114.507 C 45.787 114.672,45.436 115.374,45.206 116.067 C 44.975 116.761,44.576 117.597,44.318 117.926 C 44.061 118.254,43.764 118.931,43.658 119.430 C 43.553 119.929,43.194 120.700,42.861 121.143 C 42.528 121.587,42.176 122.286,42.078 122.698 C 41.981 123.109,41.616 123.828,41.268 124.296 C 40.360 125.514,40.202 127.551,40.920 128.756 C 41.217 129.255,41.636 130.071,41.851 130.570 C 42.066 131.069,42.420 131.768,42.638 132.124 C 42.855 132.481,43.205 133.180,43.414 133.679 C 43.623 134.177,44.083 135.168,44.436 135.881 C 44.788 136.593,45.245 137.584,45.452 138.083 C 45.658 138.582,46.005 139.281,46.223 139.637 C 46.440 139.994,46.790 140.693,47.000 141.192 C 47.209 141.690,47.550 142.390,47.757 142.746 C 48.583 144.167,49.557 146.308,49.908 147.474 C 50.112 148.151,50.377 148.705,50.497 148.705 C 50.616 148.705,50.976 149.404,51.295 150.259 C 51.615 151.114,51.971 151.813,52.087 151.813 C 52.202 151.813,52.377 152.076,52.475 152.396 C 52.573 152.717,53.105 153.934,53.658 155.101 C 54.211 156.268,54.663 157.387,54.663 157.587 C 54.663 157.787,54.878 158.145,55.141 158.383 C 55.404 158.621,55.774 159.310,55.964 159.913 C 56.153 160.517,56.509 161.244,56.755 161.528 C 57.001 161.813,57.380 162.579,57.597 163.230 C 57.815 163.881,58.222 164.814,58.502 165.303 C 58.782 165.792,59.149 166.629,59.318 167.163 C 59.487 167.698,59.725 168.135,59.846 168.135 C 59.967 168.135,60.310 168.787,60.608 169.583 C 60.907 170.380,61.320 171.202,61.527 171.409 C 61.735 171.616,62.081 172.383,62.298 173.112 C 62.515 173.842,62.853 174.623,63.049 174.849 C 63.245 175.074,63.544 175.689,63.713 176.214 C 63.881 176.740,64.229 177.439,64.485 177.769 C 64.741 178.098,65.091 178.798,65.262 179.323 C 65.433 179.849,65.789 180.552,66.052 180.887 C 66.315 181.221,66.659 181.971,66.815 182.553 C 66.972 183.135,67.326 183.898,67.601 184.248 C 67.877 184.599,68.182 185.226,68.280 185.642 C 68.377 186.058,68.792 186.934,69.203 187.587 C 69.613 188.241,69.948 188.943,69.948 189.146 C 69.948 189.350,70.246 189.956,70.611 190.492 C 70.975 191.028,71.433 191.999,71.629 192.649 C 71.825 193.299,72.148 194.024,72.347 194.260 C 72.547 194.496,72.911 195.234,73.156 195.899 C 73.402 196.565,73.771 197.249,73.977 197.421 C 74.184 197.592,74.352 197.863,74.352 198.024 C 74.352 198.313,75.880 201.603,77.092 203.924 C 77.437 204.586,77.722 205.286,77.725 205.479 C 77.728 205.671,78.077 206.342,78.502 206.969 C 78.927 207.596,79.277 208.296,79.279 208.523 C 79.282 208.751,79.632 209.451,80.057 210.078 C 80.481 210.705,80.829 211.396,80.829 211.613 C 80.829 211.976,82.364 215.415,82.931 216.321 C 83.064 216.535,83.388 217.176,83.650 217.746 C 85.848 222.522,85.992 222.654,87.198 220.984 C 87.661 220.343,88.121 219.469,88.219 219.041 C 88.318 218.614,88.668 217.905,88.998 217.466 C 89.328 217.026,89.679 216.231,89.779 215.698 C 89.879 215.166,90.223 214.418,90.543 214.036 C 90.863 213.654,91.208 212.960,91.310 212.494 C 91.411 212.027,91.759 211.328,92.081 210.939 C 92.403 210.551,92.752 209.883,92.856 209.456 C 92.960 209.028,93.312 208.328,93.639 207.899 C 93.965 207.470,94.316 206.712,94.420 206.215 C 94.523 205.718,94.868 204.903,95.187 204.404 C 95.506 203.905,95.899 203.113,96.060 202.644 C 96.222 202.175,96.574 201.475,96.842 201.090 C 97.110 200.704,97.460 200.005,97.619 199.535 C 97.778 199.066,98.147 198.347,98.438 197.938 C 98.730 197.529,99.045 196.807,99.140 196.333 C 99.235 195.860,99.642 194.953,100.045 194.318 C 100.448 193.683,100.779 192.982,100.782 192.760 C 100.785 192.539,101.134 191.845,101.559 191.217 C 101.984 190.590,102.332 189.878,102.332 189.633 C 102.332 189.389,102.555 188.905,102.827 188.559 C 103.100 188.212,103.528 187.293,103.778 186.516 C 104.029 185.739,104.379 185.016,104.558 184.908 C 104.736 184.800,105.082 184.101,105.328 183.353 C 105.573 182.606,105.923 181.907,106.105 181.799 C 106.287 181.691,106.634 181.007,106.876 180.278 C 107.118 179.549,107.529 178.741,107.789 178.481 C 108.049 178.221,108.340 177.564,108.437 177.022 C 108.533 176.480,108.948 175.521,109.358 174.891 C 109.768 174.261,110.106 173.561,110.108 173.336 C 110.111 173.111,110.461 172.414,110.886 171.787 C 111.310 171.160,111.658 170.454,111.658 170.219 C 111.658 169.983,111.949 169.395,112.306 168.912 C 112.662 168.429,112.953 167.818,112.953 167.553 C 112.953 167.075,113.648 165.532,113.974 165.285 C 114.069 165.214,114.349 164.614,114.597 163.952 C 114.845 163.289,115.276 162.485,115.555 162.163 C 115.834 161.842,116.062 161.380,116.062 161.136 C 116.062 160.893,116.348 160.272,116.698 159.756 C 117.048 159.241,117.468 158.322,117.632 157.715 C 117.795 157.108,118.155 156.294,118.430 155.908 C 118.706 155.521,119.061 154.820,119.220 154.351 C 119.379 153.881,119.729 153.182,119.997 152.796 C 120.266 152.411,120.615 151.711,120.774 151.242 C 120.934 150.773,121.267 150.096,121.515 149.739 C 121.764 149.381,122.093 148.620,122.247 148.048 C 122.402 147.475,122.822 146.609,123.181 146.122 C 123.540 145.635,123.834 145.048,123.834 144.819 C 123.834 144.590,124.165 143.881,124.569 143.244 C 124.973 142.607,125.388 141.746,125.493 141.331 C 125.597 140.915,125.911 140.254,126.192 139.860 C 126.472 139.467,126.864 138.603,127.063 137.942 C 127.262 137.280,127.605 136.540,127.825 136.297 C 128.045 136.054,128.400 135.358,128.615 134.750 C 128.829 134.142,129.232 133.356,129.510 133.002 C 129.788 132.648,130.095 131.986,130.192 131.529 C 130.289 131.073,130.526 130.520,130.718 130.301 C 132.160 128.661,132.174 124.951,130.744 123.364 C 130.528 123.124,130.269 122.578,130.168 122.150 C 130.066 121.723,129.714 121.010,129.384 120.566 C 129.054 120.123,128.704 119.423,128.607 119.012 C 128.509 118.601,128.162 117.905,127.836 117.466 C 127.509 117.026,127.161 116.238,127.063 115.715 C 126.965 115.191,126.662 114.479,126.390 114.134 C 126.118 113.788,125.720 113.008,125.506 112.400 C 125.291 111.792,124.962 111.114,124.774 110.894 C 124.586 110.673,124.230 109.968,123.982 109.326 C 123.734 108.685,123.379 107.986,123.192 107.772 C 123.005 107.558,122.656 106.801,122.418 106.088 C 122.179 105.376,121.829 104.618,121.640 104.404 C 121.452 104.190,121.117 103.476,120.896 102.817 C 120.675 102.158,120.197 101.180,119.833 100.644 C 119.469 100.107,119.171 99.474,119.171 99.237 C 119.171 99.000,118.892 98.427,118.551 97.965 C 118.210 97.502,117.804 96.622,117.649 96.008 C 117.495 95.393,117.197 94.749,116.988 94.576 C 116.780 94.402,116.421 93.696,116.192 93.005 C 115.962 92.315,115.613 91.615,115.415 91.451 C 115.216 91.286,114.867 90.587,114.637 89.896 C 114.408 89.206,114.051 88.500,113.843 88.328 C 113.636 88.156,113.292 87.418,113.079 86.689 C 112.866 85.959,112.460 85.013,112.176 84.585 C 111.893 84.158,111.660 83.633,111.659 83.420 C 111.657 83.206,111.307 82.506,110.881 81.865 C 110.455 81.224,110.105 80.551,110.105 80.370 C 110.104 80.190,109.811 79.578,109.453 79.011 C 109.095 78.444,108.614 77.426,108.385 76.749 C 108.155 76.072,107.748 75.240,107.481 74.900 C 107.213 74.560,106.995 74.083,106.995 73.838 C 106.995 73.594,106.647 72.881,106.222 72.254 C 105.797 71.627,105.448 70.926,105.445 70.697 C 105.443 70.467,105.143 69.841,104.779 69.305 C 104.415 68.768,103.936 67.790,103.715 67.131 C 103.495 66.472,103.171 65.758,102.996 65.544 C 102.821 65.330,102.470 64.573,102.214 63.860 C 101.959 63.148,101.614 62.448,101.447 62.306 C 101.281 62.163,100.929 61.464,100.666 60.751 C 100.403 60.039,100.021 59.263,99.817 59.027 C 99.613 58.791,99.283 58.057,99.084 57.395 C 98.885 56.733,98.502 55.877,98.233 55.492 C 97.964 55.108,97.662 54.456,97.563 54.045 C 97.463 53.634,97.112 52.934,96.782 52.490 C 96.452 52.047,96.102 51.347,96.005 50.936 C 95.907 50.525,95.551 49.825,95.214 49.382 C 94.876 48.938,94.519 48.225,94.420 47.798 C 94.320 47.370,93.976 46.554,93.655 45.984 C 93.334 45.415,92.983 44.657,92.875 44.301 C 92.767 43.944,92.456 43.337,92.185 42.952 C 91.913 42.566,91.561 41.867,91.402 41.397 C 91.243 40.928,90.883 40.215,90.603 39.813 C 90.323 39.411,89.936 38.560,89.744 37.922 C 89.552 37.284,89.174 36.447,88.903 36.062 C 88.632 35.678,88.323 35.071,88.217 34.715 C 88.049 34.151,86.351 31.347,86.178 31.347 C 86.143 31.347,85.974 31.487,85.803 31.658 M198.546 32.189 C 198.308 32.652,198.016 33.095,197.895 33.174 C 197.775 33.252,197.440 34.001,197.152 34.839 C 196.864 35.677,196.472 36.546,196.282 36.770 C 196.091 36.993,195.733 37.701,195.485 38.342 C 195.237 38.983,194.888 39.683,194.710 39.896 C 194.532 40.110,194.232 40.693,194.044 41.192 C 193.856 41.690,193.501 42.448,193.256 42.876 C 193.011 43.303,192.611 44.265,192.369 45.013 C 192.126 45.761,191.830 46.373,191.710 46.373 C 191.591 46.373,191.289 46.927,191.040 47.604 C 190.790 48.280,190.424 49.025,190.227 49.258 C 190.030 49.492,189.632 50.308,189.343 51.072 C 189.054 51.836,188.668 52.636,188.486 52.850 C 188.304 53.063,187.964 53.812,187.731 54.512 C 187.498 55.213,187.152 55.971,186.962 56.196 C 186.772 56.422,186.416 57.151,186.170 57.816 C 185.925 58.482,185.555 59.167,185.349 59.338 C 185.143 59.509,184.974 59.787,184.974 59.956 C 184.974 60.125,184.566 61.072,184.068 62.061 C 183.570 63.051,183.162 64.002,183.161 64.175 C 183.161 64.348,182.811 65.041,182.383 65.715 C 181.956 66.389,181.606 67.089,181.606 67.270 C 181.606 67.451,181.256 68.150,180.829 68.824 C 180.402 69.498,180.052 70.204,180.052 70.393 C 180.052 70.582,179.769 71.171,179.423 71.702 C 179.078 72.234,178.669 73.149,178.516 73.736 C 178.362 74.323,178.026 75.080,177.768 75.420 C 177.510 75.759,177.096 76.581,176.848 77.246 C 176.600 77.912,176.229 78.597,176.023 78.768 C 175.816 78.939,175.648 79.228,175.648 79.410 C 175.648 79.591,175.312 80.379,174.901 81.159 C 174.490 81.940,174.007 83.030,173.827 83.582 C 173.647 84.134,173.290 84.855,173.034 85.185 C 172.778 85.514,172.431 86.200,172.263 86.709 C 172.095 87.219,171.680 88.044,171.341 88.543 C 171.003 89.042,170.725 89.593,170.725 89.767 C 170.725 89.940,170.393 90.711,169.987 91.479 C 169.581 92.247,169.164 93.225,169.061 93.653 C 168.958 94.080,168.663 94.663,168.406 94.948 C 168.150 95.233,167.806 95.885,167.642 96.396 C 167.479 96.907,167.068 97.701,166.730 98.160 C 166.391 98.619,166.041 99.383,165.952 99.860 C 165.862 100.336,165.624 100.862,165.422 101.030 C 165.220 101.198,164.856 101.938,164.613 102.675 C 164.371 103.412,163.963 104.285,163.707 104.615 C 163.451 104.944,163.104 105.644,162.935 106.169 C 162.767 106.694,162.478 107.299,162.295 107.513 C 162.111 107.727,161.758 108.426,161.510 109.067 C 161.262 109.709,160.902 110.418,160.710 110.643 C 160.518 110.869,160.186 111.640,159.973 112.357 C 159.761 113.073,159.375 113.938,159.116 114.278 C 158.858 114.618,158.443 115.441,158.195 116.107 C 157.948 116.772,157.576 117.457,157.370 117.628 C 157.164 117.799,156.995 118.080,156.995 118.252 C 156.995 118.424,156.698 119.139,156.335 119.840 C 155.972 120.540,155.494 121.639,155.272 122.280 C 155.050 122.921,154.715 123.620,154.528 123.834 C 153.300 125.239,153.153 128.603,154.279 129.537 C 154.480 129.704,154.890 130.498,155.191 131.303 C 155.492 132.107,155.836 132.884,155.956 133.029 C 156.076 133.173,156.427 133.932,156.735 134.716 C 157.043 135.499,157.442 136.315,157.623 136.528 C 157.803 136.742,158.153 137.442,158.401 138.083 C 158.649 138.724,159.005 139.424,159.192 139.637 C 159.379 139.851,159.708 140.551,159.924 141.192 C 160.139 141.833,160.616 142.882,160.984 143.523 C 161.351 144.165,161.653 144.875,161.655 145.102 C 161.657 145.330,161.879 145.716,162.149 145.960 C 162.420 146.205,162.766 146.901,162.918 147.507 C 163.071 148.113,163.426 148.818,163.708 149.072 C 163.989 149.327,164.298 149.902,164.394 150.351 C 164.490 150.799,164.905 151.807,165.315 152.591 C 165.725 153.374,166.061 154.145,166.062 154.303 C 166.062 154.461,166.339 154.999,166.678 155.499 C 167.017 155.998,167.432 156.823,167.600 157.332 C 167.768 157.841,168.120 158.531,168.384 158.866 C 168.647 159.201,168.990 159.950,169.147 160.532 C 169.304 161.114,169.648 161.868,169.911 162.207 C 170.175 162.546,170.531 163.254,170.702 163.779 C 170.874 164.305,171.219 165.004,171.469 165.334 C 171.719 165.663,172.127 166.477,172.375 167.143 C 172.622 167.808,172.986 168.487,173.184 168.650 C 173.381 168.814,173.620 169.319,173.715 169.772 C 173.811 170.225,174.226 171.193,174.639 171.923 C 175.051 172.653,175.389 173.417,175.389 173.621 C 175.389 173.825,175.738 174.543,176.166 175.217 C 176.593 175.891,176.944 176.585,176.944 176.758 C 176.945 176.931,177.294 177.597,177.720 178.238 C 178.146 178.880,178.496 179.592,178.496 179.821 C 178.497 180.050,178.847 180.893,179.275 181.694 C 179.702 182.495,180.054 183.299,180.057 183.480 C 180.059 183.660,180.409 184.321,180.834 184.948 C 181.259 185.575,181.608 186.275,181.611 186.503 C 181.614 186.731,181.963 187.430,182.388 188.057 C 182.813 188.684,183.161 189.442,183.162 189.741 C 183.162 190.040,183.512 190.810,183.938 191.451 C 184.364 192.092,184.715 192.791,184.719 193.005 C 184.722 193.219,185.072 193.907,185.497 194.534 C 185.922 195.161,186.269 195.874,186.269 196.118 C 186.269 196.362,186.508 196.865,186.799 197.235 C 187.090 197.605,187.509 198.524,187.731 199.278 C 187.952 200.031,188.287 200.823,188.475 201.036 C 188.663 201.250,189.019 201.949,189.267 202.591 C 189.515 203.232,189.865 203.931,190.044 204.145 C 190.224 204.359,190.577 205.058,190.829 205.699 C 191.082 206.341,191.488 207.157,191.734 207.513 C 191.979 207.869,192.375 208.773,192.613 209.521 C 192.852 210.269,193.140 210.881,193.253 210.881 C 193.367 210.881,193.722 211.580,194.041 212.435 C 194.361 213.290,194.711 213.990,194.819 213.990 C 194.926 213.990,195.276 214.689,195.596 215.544 C 195.916 216.399,196.271 217.098,196.386 217.098 C 196.501 217.098,196.785 217.752,197.017 218.550 C 197.948 221.752,199.516 222.978,200.130 220.984 C 200.239 220.628,200.431 220.271,200.556 220.190 C 200.681 220.110,201.013 219.389,201.295 218.588 C 201.576 217.787,202.099 216.700,202.457 216.172 C 202.816 215.645,203.111 215.025,203.114 214.795 C 203.116 214.566,203.466 213.865,203.891 213.238 C 204.316 212.611,204.663 211.898,204.663 211.654 C 204.663 211.410,204.882 210.932,205.149 210.592 C 205.416 210.252,205.818 209.435,206.042 208.776 C 206.266 208.116,206.746 207.138,207.110 206.602 C 207.474 206.066,207.774 205.439,207.777 205.210 C 207.779 204.980,208.129 204.280,208.554 203.653 C 208.979 203.026,209.326 202.347,209.326 202.144 C 209.326 201.942,209.605 201.289,209.945 200.694 C 210.286 200.098,210.710 199.152,210.889 198.590 C 211.067 198.028,211.417 197.349,211.666 197.082 C 211.915 196.815,212.267 196.069,212.447 195.425 C 212.627 194.780,212.921 194.197,213.099 194.129 C 213.278 194.060,213.620 193.401,213.860 192.663 C 214.099 191.925,214.459 191.138,214.659 190.914 C 214.859 190.690,215.185 189.967,215.384 189.308 C 215.582 188.649,215.991 187.797,216.292 187.414 C 216.593 187.031,216.839 186.518,216.839 186.273 C 216.839 186.029,217.187 185.316,217.612 184.689 C 218.037 184.062,218.388 183.374,218.392 183.161 C 218.396 182.947,218.701 182.247,219.068 181.606 C 219.436 180.965,219.910 179.916,220.123 179.275 C 220.336 178.633,220.651 177.992,220.823 177.850 C 220.995 177.707,221.345 177.035,221.601 176.355 C 221.858 175.676,222.207 174.976,222.378 174.801 C 222.548 174.625,222.898 173.926,223.155 173.247 C 223.412 172.567,223.777 171.856,223.966 171.666 C 224.156 171.477,224.446 170.808,224.610 170.181 C 224.775 169.554,225.172 168.633,225.493 168.135 C 225.815 167.636,226.210 166.844,226.371 166.375 C 226.533 165.905,226.887 165.206,227.159 164.820 C 227.430 164.435,227.741 163.828,227.849 163.472 C 227.957 163.115,228.308 162.358,228.629 161.788 C 228.951 161.218,229.292 160.415,229.387 160.003 C 229.483 159.592,229.831 158.893,230.161 158.449 C 230.491 158.005,230.841 157.306,230.938 156.895 C 231.036 156.483,231.386 155.784,231.716 155.340 C 232.045 154.897,232.397 154.191,232.496 153.772 C 232.596 153.354,232.906 152.689,233.186 152.295 C 233.467 151.902,233.859 151.039,234.058 150.377 C 234.257 149.715,234.600 148.975,234.820 148.732 C 235.040 148.489,235.395 147.793,235.609 147.185 C 235.824 146.578,236.227 145.791,236.505 145.437 C 236.783 145.084,237.092 144.426,237.191 143.975 C 237.290 143.524,237.583 142.859,237.841 142.497 C 238.100 142.135,238.507 141.227,238.745 140.479 C 238.984 139.731,239.276 139.119,239.394 139.119 C 239.513 139.119,239.865 138.420,240.176 137.565 C 240.488 136.710,240.836 136.010,240.949 136.010 C 241.062 136.010,241.405 135.341,241.711 134.524 C 242.017 133.706,242.365 132.919,242.485 132.775 C 242.605 132.630,242.955 131.871,243.263 131.087 C 243.571 130.304,243.980 129.488,244.172 129.275 C 245.239 128.085,245.005 124.720,243.804 123.977 C 243.650 123.882,243.523 123.627,243.523 123.410 C 243.523 123.022,242.040 119.654,241.315 118.394 C 241.110 118.038,240.764 117.338,240.547 116.839 C 240.329 116.341,239.979 115.641,239.769 115.285 C 239.559 114.929,239.201 114.229,238.974 113.731 C 238.746 113.232,238.219 112.115,237.803 111.249 C 237.387 110.383,237.047 109.519,237.047 109.330 C 237.047 109.141,236.761 108.613,236.413 108.156 C 236.064 107.699,235.699 106.988,235.602 106.577 C 235.504 106.166,235.154 105.466,234.824 105.022 C 234.494 104.579,234.145 103.879,234.047 103.468 C 233.949 103.057,233.595 102.196,233.258 101.554 C 232.922 100.913,232.469 99.981,232.252 99.482 C 232.034 98.983,231.684 98.284,231.474 97.927 C 231.264 97.571,230.914 96.872,230.697 96.373 C 230.480 95.874,230.137 95.175,229.936 94.819 C 229.194 93.507,227.720 90.236,227.720 89.902 C 227.720 89.712,227.435 89.183,227.086 88.726 C 226.738 88.269,226.373 87.558,226.275 87.147 C 226.178 86.735,225.837 86.048,225.518 85.619 C 225.200 85.190,224.854 84.433,224.751 83.935 C 224.647 83.438,224.295 82.623,223.967 82.124 C 223.640 81.626,223.237 80.790,223.072 80.267 C 222.906 79.744,222.609 79.181,222.410 79.016 C 222.212 78.851,221.861 78.152,221.632 77.461 C 221.403 76.771,221.053 76.071,220.854 75.906 C 220.655 75.741,220.360 75.178,220.199 74.655 C 220.037 74.133,218.849 71.548,217.559 68.912 C 216.269 66.276,214.863 63.361,214.433 62.435 C 214.004 61.509,213.499 60.460,213.311 60.104 C 213.123 59.747,212.837 59.165,212.675 58.808 C 212.169 57.696,211.655 56.632,211.297 55.959 C 210.650 54.740,209.613 52.462,209.173 51.295 C 208.932 50.654,208.600 50.013,208.437 49.870 C 208.273 49.728,207.929 49.056,207.673 48.376 C 207.417 47.697,207.068 46.997,206.897 46.822 C 206.726 46.646,206.371 45.920,206.108 45.207 C 205.844 44.495,205.485 43.737,205.309 43.523 C 205.133 43.310,204.793 42.532,204.553 41.795 C 204.313 41.057,203.955 40.320,203.756 40.155 C 203.558 39.991,203.209 39.292,202.979 38.601 C 202.750 37.911,202.400 37.211,202.201 37.046 C 202.002 36.881,201.704 36.318,201.539 35.795 C 201.373 35.272,200.976 34.378,200.656 33.808 C 200.335 33.238,199.996 32.451,199.902 32.060 C 199.672 31.103,199.073 31.160,198.546 32.189 M309.132 31.536 C 308.954 31.599,308.808 31.844,308.807 32.081 C 308.807 32.319,308.399 33.322,307.901 34.312 C 307.402 35.301,306.995 36.247,306.995 36.414 C 306.995 36.581,306.759 37.017,306.471 37.383 C 306.183 37.750,305.778 38.531,305.570 39.119 C 305.362 39.708,304.965 40.478,304.687 40.832 C 304.408 41.186,304.100 41.845,304.000 42.298 C 303.901 42.751,303.562 43.532,303.246 44.035 C 302.931 44.537,302.590 45.285,302.489 45.696 C 302.387 46.107,302.034 46.807,301.704 47.250 C 301.374 47.694,301.029 48.375,300.938 48.763 C 300.846 49.151,300.481 49.896,300.126 50.418 C 299.772 50.940,299.482 51.497,299.481 51.655 C 299.481 51.814,299.073 52.752,298.574 53.742 C 298.076 54.731,297.668 55.677,297.668 55.844 C 297.668 56.011,297.455 56.426,297.195 56.766 C 296.935 57.105,296.517 57.908,296.267 58.549 C 296.016 59.190,295.657 59.890,295.468 60.104 C 295.279 60.317,294.927 61.100,294.686 61.843 C 294.445 62.586,294.084 63.328,293.885 63.494 C 293.686 63.659,293.523 63.912,293.523 64.057 C 293.523 64.201,292.659 66.082,291.602 68.235 C 289.299 72.928,288.342 75.014,288.342 75.338 C 288.342 75.470,288.126 75.856,287.862 76.196 C 287.597 76.535,287.241 77.243,287.070 77.769 C 286.898 78.294,286.553 78.994,286.303 79.323 C 286.053 79.653,285.636 80.505,285.376 81.218 C 285.116 81.930,284.759 82.688,284.583 82.902 C 284.407 83.115,284.124 83.720,283.956 84.245 C 283.787 84.771,283.440 85.470,283.184 85.800 C 282.927 86.129,282.578 86.829,282.406 87.354 C 282.235 87.880,281.884 88.579,281.627 88.909 C 281.370 89.238,281.076 89.799,280.974 90.155 C 280.872 90.512,280.462 91.503,280.062 92.358 C 279.662 93.212,279.147 94.320,278.918 94.819 C 278.688 95.317,278.389 95.900,278.252 96.114 C 278.114 96.328,277.762 97.027,277.469 97.668 C 277.176 98.310,276.777 99.126,276.583 99.482 C 275.963 100.619,274.671 103.475,274.473 104.145 C 274.367 104.501,274.071 105.062,273.813 105.392 C 273.556 105.721,273.208 106.408,273.040 106.917 C 272.872 107.426,272.457 108.251,272.119 108.750 C 271.780 109.249,271.503 109.787,271.503 109.945 C 271.502 110.104,271.157 110.874,270.736 111.658 C 270.314 112.442,269.964 113.258,269.957 113.472 C 269.951 113.685,269.597 114.385,269.171 115.026 C 268.745 115.667,268.395 116.367,268.394 116.580 C 268.393 116.794,268.043 117.494,267.617 118.135 C 267.190 118.776,266.841 119.488,266.840 119.717 C 266.840 119.947,266.505 120.763,266.097 121.531 C 265.689 122.299,265.270 123.202,265.165 123.537 C 265.060 123.872,264.694 124.559,264.352 125.063 C 263.494 126.328,263.542 127.563,264.508 129.016 C 264.934 129.657,265.283 130.369,265.284 130.599 C 265.284 130.828,265.571 131.438,265.921 131.953 C 266.271 132.469,266.680 133.344,266.829 133.899 C 266.978 134.453,267.316 135.184,267.580 135.523 C 267.844 135.862,268.200 136.570,268.371 137.095 C 268.542 137.621,268.887 138.320,269.137 138.650 C 269.388 138.979,269.805 139.832,270.065 140.544 C 270.325 141.256,270.687 142.014,270.870 142.228 C 271.053 142.442,271.286 142.966,271.387 143.394 C 271.488 143.821,271.829 144.521,272.145 144.948 C 272.461 145.376,272.860 146.155,273.032 146.681 C 273.205 147.206,273.555 147.906,273.811 148.235 C 274.067 148.565,274.426 149.291,274.608 149.849 C 274.790 150.408,275.144 151.224,275.395 151.663 C 275.645 152.102,275.996 152.927,276.175 153.497 C 276.354 154.067,276.710 154.803,276.966 155.133 C 277.222 155.462,277.569 156.148,277.737 156.658 C 277.905 157.167,278.320 157.992,278.659 158.491 C 278.997 158.990,279.275 159.516,279.275 159.660 C 279.275 159.910,280.508 162.624,281.242 163.990 C 281.433 164.346,281.780 165.045,282.013 165.544 C 282.246 166.043,282.596 166.742,282.790 167.098 C 282.985 167.455,283.336 168.154,283.570 168.653 C 283.804 169.152,284.332 170.216,284.744 171.017 C 285.155 171.819,285.492 172.641,285.492 172.845 C 285.492 173.048,285.842 173.766,286.269 174.440 C 286.697 175.114,287.047 175.820,287.047 176.009 C 287.047 176.198,287.323 176.760,287.661 177.258 C 287.999 177.756,288.475 178.763,288.718 179.496 C 288.962 180.229,289.241 180.829,289.338 180.829 C 289.436 180.829,289.730 181.441,289.993 182.189 C 290.255 182.937,290.623 183.724,290.809 183.938 C 290.996 184.152,291.351 184.851,291.599 185.492 C 291.847 186.133,292.207 186.843,292.399 187.068 C 292.591 187.294,292.939 188.051,293.171 188.752 C 293.404 189.453,293.744 190.201,293.926 190.415 C 294.108 190.628,294.494 191.428,294.783 192.192 C 295.072 192.956,295.475 193.772,295.679 194.006 C 295.882 194.239,296.185 194.855,296.352 195.375 C 296.518 195.895,296.883 196.583,297.162 196.904 C 297.440 197.226,297.668 197.653,297.668 197.853 C 297.668 198.053,298.135 199.194,298.705 200.389 C 299.275 201.583,299.741 202.669,299.741 202.803 C 299.741 202.936,299.915 203.190,300.128 203.367 C 300.341 203.544,300.655 204.170,300.825 204.759 C 300.995 205.347,301.394 206.147,301.711 206.535 C 302.028 206.924,302.371 207.620,302.472 208.083 C 302.574 208.546,302.929 209.355,303.261 209.881 C 303.594 210.407,303.944 211.168,304.039 211.572 C 304.135 211.975,304.483 212.669,304.813 213.112 C 305.143 213.556,305.493 214.255,305.590 214.667 C 305.688 215.078,306.037 215.777,306.367 216.221 C 306.697 216.665,307.050 217.364,307.151 217.775 C 307.332 218.510,308.674 221.312,309.158 221.965 C 309.665 222.649,311.360 220.389,311.773 218.476 C 311.870 218.023,312.111 217.519,312.308 217.355 C 312.505 217.192,312.854 216.494,313.083 215.803 C 313.312 215.113,313.662 214.413,313.860 214.249 C 314.058 214.084,314.408 213.385,314.637 212.694 C 314.867 212.004,315.225 211.297,315.434 211.124 C 315.643 210.950,315.940 210.306,316.095 209.692 C 316.250 209.078,316.655 208.197,316.996 207.735 C 317.337 207.272,317.617 206.701,317.617 206.465 C 317.617 206.229,317.964 205.524,318.389 204.896 C 318.814 204.269,319.164 203.570,319.166 203.342 C 319.169 203.114,319.519 202.415,319.943 201.788 C 320.368 201.161,320.718 200.458,320.721 200.226 C 320.727 199.686,321.425 198.006,321.719 197.824 C 321.843 197.748,322.152 197.128,322.406 196.446 C 322.661 195.765,323.018 195.032,323.200 194.819 C 323.383 194.605,323.733 193.905,323.979 193.264 C 324.225 192.623,324.578 191.974,324.762 191.822 C 324.947 191.670,325.241 190.971,325.416 190.268 C 325.590 189.565,325.990 188.640,326.304 188.212 C 326.618 187.785,326.955 187.099,327.052 186.687 C 327.150 186.276,327.500 185.577,327.830 185.133 C 328.159 184.689,328.510 183.986,328.609 183.570 C 328.708 183.153,329.009 182.533,329.278 182.191 C 329.547 181.849,329.945 180.957,330.162 180.209 C 330.380 179.460,330.780 178.646,331.052 178.400 C 331.324 178.154,331.619 177.590,331.708 177.146 C 331.797 176.702,332.142 175.979,332.474 175.540 C 332.806 175.100,333.164 174.391,333.269 173.964 C 333.374 173.536,333.724 172.837,334.046 172.409 C 334.368 171.982,334.711 171.226,334.808 170.730 C 334.906 170.233,335.274 169.391,335.627 168.857 C 335.981 168.323,336.269 167.795,336.269 167.683 C 336.269 167.572,336.964 166.113,337.813 164.442 C 338.662 162.771,339.483 160.936,339.637 160.365 C 339.790 159.794,340.014 159.326,340.134 159.326 C 340.253 159.326,340.613 158.627,340.933 157.772 C 341.252 156.917,341.602 156.218,341.710 156.218 C 341.818 156.218,342.167 155.518,342.487 154.663 C 342.807 153.808,343.161 153.109,343.275 153.109 C 343.389 153.109,343.677 152.497,343.915 151.749 C 344.154 151.001,344.550 150.097,344.795 149.741 C 345.040 149.385,345.447 148.569,345.699 147.927 C 345.951 147.286,346.304 146.587,346.484 146.373 C 346.664 146.159,347.014 145.460,347.261 144.819 C 347.509 144.177,347.866 143.478,348.054 143.264 C 348.241 143.051,348.576 142.261,348.797 141.509 C 349.018 140.757,349.376 139.965,349.593 139.749 C 349.809 139.532,350.103 138.920,350.247 138.388 C 350.390 137.857,350.801 137.023,351.160 136.536 C 351.519 136.049,351.813 135.456,351.813 135.219 C 351.813 134.982,352.100 134.365,352.450 133.850 C 352.800 133.334,353.208 132.459,353.357 131.904 C 353.507 131.350,353.851 130.614,354.123 130.268 C 355.576 128.421,355.592 125.607,354.162 123.598 C 353.897 123.227,353.541 122.403,353.370 121.768 C 353.199 121.134,352.844 120.340,352.580 120.006 C 352.317 119.671,351.965 118.981,351.796 118.472 C 351.628 117.963,351.222 117.150,350.894 116.666 C 350.565 116.182,350.222 115.448,350.132 115.035 C 350.041 114.622,349.806 114.151,349.609 113.988 C 349.413 113.825,349.003 112.942,348.698 112.027 C 348.394 111.112,348.053 110.363,347.941 110.363 C 347.829 110.363,347.483 109.663,347.171 108.808 C 346.859 107.953,346.510 107.254,346.394 107.254 C 346.278 107.254,345.928 106.554,345.617 105.699 C 345.305 104.845,344.948 104.145,344.823 104.145 C 344.698 104.145,344.403 103.475,344.166 102.655 C 343.930 101.836,343.581 100.991,343.392 100.777 C 343.203 100.563,342.846 99.864,342.598 99.223 C 342.350 98.582,342.001 97.882,341.821 97.668 C 341.641 97.455,341.288 96.755,341.036 96.114 C 340.784 95.473,340.377 94.657,340.132 94.301 C 339.886 93.944,339.491 93.041,339.252 92.293 C 339.014 91.545,338.725 90.933,338.612 90.933 C 338.498 90.933,338.145 90.237,337.827 89.386 C 337.509 88.536,337.094 87.712,336.905 87.555 C 336.716 87.398,336.483 86.899,336.387 86.446 C 336.291 85.993,335.949 85.271,335.628 84.842 C 335.306 84.413,334.958 83.655,334.854 83.158 C 334.751 82.661,334.397 81.846,334.069 81.347 C 333.740 80.848,333.386 80.149,333.282 79.793 C 333.178 79.437,332.871 78.830,332.599 78.444 C 332.328 78.059,331.975 77.359,331.816 76.890 C 331.657 76.420,331.298 75.707,331.017 75.305 C 330.737 74.903,330.351 74.052,330.159 73.414 C 329.967 72.776,329.591 71.939,329.323 71.555 C 329.055 71.170,328.706 70.471,328.547 70.001 C 328.387 69.532,328.038 68.833,327.769 68.447 C 327.501 68.062,327.151 67.362,326.992 66.893 C 326.833 66.423,326.472 65.716,326.191 65.320 C 325.909 64.924,325.541 64.055,325.373 63.388 C 325.205 62.722,324.987 62.176,324.888 62.176 C 324.673 62.176,323.836 60.480,323.829 60.030 C 323.827 59.857,323.477 59.202,323.052 58.575 C 322.627 57.948,322.278 57.249,322.275 57.021 C 322.272 56.793,321.923 56.093,321.498 55.466 C 321.073 54.839,320.725 54.135,320.725 53.902 C 320.725 53.669,319.695 51.443,318.436 48.954 C 317.176 46.466,316.067 44.112,315.971 43.724 C 315.875 43.336,315.507 42.591,315.152 42.069 C 314.798 41.547,314.506 40.932,314.503 40.702 C 314.500 40.473,314.151 39.772,313.726 39.145 C 313.301 38.518,312.953 37.805,312.953 37.561 C 312.953 37.316,312.724 36.825,312.444 36.469 C 312.164 36.113,311.744 35.252,311.511 34.556 C 311.278 33.860,310.866 33.049,310.596 32.755 C 310.325 32.461,310.104 32.095,310.104 31.941 C 310.104 31.602,309.575 31.382,309.132 31.536 M200.329 50.408 C 201.263 52.070,201.813 53.275,201.813 53.659 C 201.813 53.828,202.099 54.341,202.447 54.798 C 202.796 55.255,203.161 55.965,203.259 56.377 C 203.356 56.788,203.695 57.474,204.012 57.902 C 204.800 58.963,205.004 59.726,204.668 60.353 C 204.228 61.176,194.216 61.173,193.776 60.350 C 193.450 59.742,193.821 58.277,194.429 57.773 C 194.628 57.608,194.978 56.908,195.207 56.218 C 195.437 55.527,195.792 54.823,195.998 54.652 C 196.203 54.482,196.534 53.796,196.732 53.128 C 197.179 51.623,198.892 48.897,199.306 49.033 C 199.474 49.088,199.934 49.707,200.329 50.408 M311.771 52.207 C 311.867 52.718,312.289 53.677,312.709 54.339 C 313.128 55.000,313.474 55.723,313.476 55.945 C 313.479 56.166,313.829 56.860,314.253 57.487 C 314.678 58.114,315.026 58.775,315.026 58.956 C 315.026 59.136,315.091 59.453,315.170 59.660 C 315.679 60.985,304.842 61.665,304.140 60.353 C 303.834 59.781,304.029 58.837,304.540 58.421 C 304.715 58.278,305.072 57.578,305.333 56.865 C 305.594 56.153,305.940 55.453,306.102 55.311 C 306.264 55.168,306.544 54.644,306.725 54.145 C 307.223 52.768,308.901 49.378,309.196 49.154 C 309.615 48.835,311.575 51.158,311.771 52.207 M86.832 49.652 C 87.093 49.887,87.306 50.219,87.306 50.389 C 87.306 50.558,87.525 50.896,87.794 51.139 C 88.062 51.382,88.427 52.097,88.603 52.728 C 88.780 53.360,89.084 54.009,89.279 54.170 C 89.474 54.332,89.760 54.946,89.914 55.535 C 90.069 56.124,90.475 57.017,90.818 57.519 C 92.825 60.464,92.242 60.881,86.117 60.881 C 80.150 60.881,80.033 60.823,81.181 58.464 C 81.540 57.727,82.070 56.600,82.361 55.959 C 82.651 55.317,83.003 54.618,83.143 54.404 C 83.282 54.190,83.639 53.491,83.934 52.850 C 85.639 49.156,85.930 48.835,86.832 49.652 M94.914 67.197 C 95.589 67.479,95.894 67.862,96.360 69.010 C 96.685 69.811,97.045 70.466,97.160 70.466 C 97.274 70.466,97.562 71.051,97.799 71.765 C 98.036 72.479,98.373 73.208,98.548 73.384 C 98.722 73.560,99.072 74.340,99.325 75.117 C 99.579 75.894,100.003 76.806,100.268 77.143 C 100.920 77.972,101.228 80.030,100.746 80.336 C 100.142 80.718,71.830 80.632,71.592 80.246 C 71.266 79.719,71.501 78.553,72.168 77.387 C 72.511 76.786,72.793 76.109,72.795 75.881 C 72.797 75.653,73.146 74.954,73.570 74.327 C 73.995 73.700,74.345 72.999,74.348 72.769 C 74.350 72.540,74.618 71.957,74.942 71.474 C 75.266 70.991,75.695 70.094,75.895 69.481 C 76.097 68.861,76.643 68.029,77.127 67.603 L 77.997 66.839 86.028 66.839 C 92.270 66.839,94.249 66.919,94.914 67.197 M208.383 67.619 C 208.872 68.048,209.349 68.719,209.444 69.109 C 209.539 69.499,209.887 70.231,210.216 70.735 C 210.546 71.239,210.901 72.055,211.006 72.549 C 211.111 73.042,211.469 73.809,211.802 74.252 C 212.135 74.696,212.486 75.395,212.581 75.807 C 212.676 76.218,213.023 76.962,213.352 77.461 C 213.983 78.417,214.236 79.703,213.900 80.246 C 213.603 80.726,184.901 80.718,184.503 80.238 C 184.167 79.833,184.566 77.798,185.097 77.206 C 185.290 76.990,185.654 76.289,185.904 75.648 C 186.154 75.006,186.564 74.214,186.815 73.887 C 187.065 73.560,187.349 72.918,187.445 72.462 C 187.541 72.006,187.957 71.035,188.369 70.305 C 188.782 69.575,189.119 68.809,189.119 68.602 C 189.119 68.194,190.046 67.252,190.674 67.022 C 190.887 66.944,194.760 66.871,199.279 66.860 L 207.495 66.839 208.383 67.619 M319.065 67.746 C 319.407 68.174,319.687 68.709,319.688 68.937 C 319.689 69.164,319.908 69.548,320.175 69.790 C 320.443 70.032,320.868 70.886,321.120 71.688 C 321.373 72.490,321.853 73.551,322.188 74.045 C 322.524 74.539,322.798 75.124,322.798 75.346 C 322.798 75.568,323.109 76.198,323.488 76.746 C 324.406 78.069,324.716 79.977,324.071 80.323 C 323.225 80.776,295.202 80.643,294.821 80.185 C 294.442 79.728,294.651 78.690,295.314 77.736 C 295.568 77.371,295.906 76.688,296.065 76.219 C 296.224 75.750,296.576 75.050,296.848 74.665 C 297.119 74.279,297.427 73.672,297.532 73.316 C 297.637 72.960,297.992 72.176,298.321 71.574 C 298.650 70.973,298.998 70.121,299.095 69.682 C 299.191 69.243,299.712 68.419,300.252 67.852 L 301.234 66.819 309.839 66.894 L 318.443 66.969 319.065 67.746 M105.084 87.176 C 105.292 87.461,105.531 87.986,105.615 88.342 C 105.699 88.698,106.037 89.353,106.367 89.796 C 106.697 90.240,107.051 90.939,107.153 91.351 C 107.255 91.762,107.604 92.506,107.928 93.005 C 108.252 93.504,108.596 94.262,108.693 94.689 C 108.789 95.117,109.144 95.877,109.481 96.379 C 110.332 97.648,110.522 98.767,109.979 99.310 C 109.584 99.706,107.625 99.741,86.127 99.741 L 62.706 99.741 62.286 99.100 C 61.884 98.487,61.907 98.375,62.798 96.571 C 63.311 95.534,63.731 94.554,63.731 94.395 C 63.731 94.235,63.899 93.965,64.106 93.794 C 64.312 93.623,64.683 92.938,64.931 92.272 C 65.179 91.607,65.593 90.785,65.851 90.445 C 66.109 90.106,66.448 89.348,66.605 88.762 C 67.229 86.425,66.093 86.547,86.614 86.606 C 104.376 86.657,104.712 86.667,105.084 87.176 M217.298 86.806 C 218.016 87.056,218.912 88.307,218.912 89.059 C 218.912 89.196,219.132 89.589,219.402 89.931 C 219.671 90.273,220.045 91.076,220.233 91.715 C 220.421 92.353,220.900 93.394,221.298 94.027 C 221.695 94.661,222.021 95.323,222.021 95.500 C 222.021 95.676,222.386 96.408,222.832 97.126 C 223.613 98.383,223.628 98.456,223.215 99.086 L 222.786 99.741 199.257 99.741 C 172.289 99.741,174.333 99.928,175.244 97.543 C 175.490 96.899,175.783 96.373,175.897 96.373 C 176.010 96.373,176.364 95.674,176.684 94.819 C 177.004 93.964,177.358 93.264,177.472 93.264 C 177.585 93.264,177.930 92.506,178.238 91.580 C 178.547 90.654,178.904 89.896,179.032 89.896 C 179.160 89.896,179.342 89.576,179.436 89.184 C 179.723 87.985,180.309 87.031,180.907 86.791 C 181.757 86.449,216.314 86.463,217.298 86.806 M327.838 86.783 C 328.206 86.923,328.628 87.360,328.776 87.754 C 328.923 88.149,329.317 88.880,329.650 89.378 C 329.982 89.877,330.329 90.710,330.419 91.230 C 330.510 91.750,330.816 92.471,331.100 92.833 C 331.385 93.194,331.793 93.987,332.007 94.595 C 332.222 95.202,332.557 95.880,332.753 96.101 C 333.611 97.069,333.956 98.436,333.514 99.111 L 333.101 99.741 309.562 99.741 L 286.022 99.741 285.619 99.125 C 285.221 98.518,285.499 97.150,286.020 97.150 C 286.123 97.150,286.467 96.454,286.785 95.604 C 287.103 94.753,287.517 93.929,287.706 93.772 C 287.895 93.616,288.130 93.120,288.229 92.670 C 288.328 92.221,288.676 91.429,289.003 90.911 C 289.330 90.393,289.722 89.508,289.874 88.945 C 290.142 87.948,290.922 87.000,291.710 86.711 C 292.431 86.448,327.136 86.516,327.838 86.783 M113.558 105.942 C 114.195 106.184,117.364 112.040,118.151 114.430 C 118.330 114.972,118.694 115.710,118.960 116.071 C 119.708 117.085,119.881 118.649,119.291 119.080 C 118.549 119.623,53.573 119.598,53.030 119.055 C 52.578 118.604,52.823 116.817,53.431 116.120 C 53.645 115.874,53.958 115.244,54.127 114.718 C 54.296 114.193,54.643 113.493,54.899 113.164 C 55.155 112.834,55.505 112.135,55.677 111.609 C 55.848 111.084,56.203 110.380,56.466 110.046 C 56.730 109.711,57.081 108.932,57.247 108.314 C 57.425 107.655,57.887 106.883,58.366 106.445 L 59.183 105.699 86.051 105.699 C 102.121 105.699,113.176 105.797,113.558 105.942 M226.805 106.257 C 227.194 106.563,227.743 107.350,228.024 108.006 C 228.305 108.661,228.684 109.372,228.866 109.585 C 229.048 109.799,229.398 110.615,229.642 111.399 C 229.887 112.183,230.230 112.940,230.404 113.083 C 230.578 113.225,230.934 113.925,231.195 114.637 C 231.456 115.350,231.840 116.069,232.048 116.236 C 232.570 116.654,232.797 118.543,232.385 119.039 C 232.052 119.441,167.247 119.670,166.213 119.273 C 165.494 118.997,165.691 117.141,166.580 115.803 C 167.007 115.162,167.358 114.462,167.361 114.249 C 167.364 114.035,167.715 113.347,168.139 112.720 C 168.564 112.093,168.912 111.407,168.912 111.195 C 168.912 110.499,171.003 106.493,171.576 106.092 C 172.068 105.747,175.432 105.699,199.116 105.699 L 226.096 105.699 226.805 106.257 M337.371 106.214 C 337.731 106.496,338.103 107.041,338.199 107.424 C 338.295 107.806,338.600 108.406,338.875 108.757 C 339.151 109.107,339.506 109.873,339.663 110.459 C 339.821 111.045,340.175 111.840,340.451 112.227 C 340.726 112.614,341.084 113.314,341.245 113.784 C 341.407 114.253,341.825 115.072,342.174 115.604 C 343.064 116.960,343.247 118.764,342.533 119.146 C 342.150 119.351,332.708 119.413,309.147 119.366 L 276.295 119.301 276.212 118.288 C 276.157 117.605,276.287 117.056,276.614 116.604 C 276.881 116.235,277.303 115.388,277.553 114.722 C 277.802 114.057,278.175 113.372,278.382 113.201 C 278.588 113.030,278.756 112.749,278.756 112.577 C 278.756 112.405,279.053 111.690,279.416 110.990 C 279.779 110.289,280.257 109.190,280.477 108.549 C 280.698 107.908,281.240 107.005,281.682 106.541 L 282.485 105.699 309.601 105.699 C 336.253 105.699,336.729 105.708,337.371 106.214 M123.581 125.907 C 123.951 126.493,123.883 127.535,123.432 128.179 C 123.211 128.495,122.862 129.317,122.658 130.007 C 122.453 130.697,122.051 131.532,121.764 131.862 C 121.478 132.192,121.244 132.616,121.244 132.803 C 121.244 133.288,120.409 134.974,120.169 134.974 C 120.059 134.974,119.846 135.429,119.696 135.986 C 119.546 136.542,119.202 137.271,118.931 137.605 L 118.440 138.212 86.746 138.281 C 50.451 138.359,53.728 138.580,52.738 135.989 C 52.442 135.217,52.000 134.289,51.753 133.926 C 51.507 133.564,51.170 132.864,51.005 132.372 C 50.839 131.880,50.559 131.302,50.382 131.088 C 50.018 130.649,48.446 126.968,48.446 126.555 C 48.446 126.407,48.766 126.086,49.158 125.843 C 50.183 125.205,123.177 125.268,123.581 125.907 M236.612 125.953 C 237.096 126.437,237.170 126.972,236.806 127.345 C 236.674 127.480,236.315 128.232,236.008 129.016 C 235.702 129.799,235.296 130.615,235.107 130.829 C 234.917 131.043,234.559 131.859,234.311 132.642 C 234.063 133.426,233.696 134.259,233.495 134.494 C 233.294 134.728,232.929 135.486,232.684 136.178 C 231.847 138.539,234.820 138.355,198.834 138.279 C 163.690 138.205,166.323 138.355,165.829 136.395 C 165.681 135.809,165.332 135.122,165.053 134.869 C 164.774 134.617,164.469 133.957,164.375 133.403 C 164.282 132.850,163.868 131.898,163.455 131.289 C 163.042 130.680,162.702 130.020,162.699 129.823 C 162.696 129.626,162.476 129.102,162.209 128.658 C 161.406 127.319,161.319 126.505,161.916 125.908 C 162.665 125.158,235.861 125.202,236.612 125.953 M347.011 125.896 C 347.537 126.477,347.398 127.970,346.769 128.491 C 346.567 128.659,346.215 129.357,345.988 130.041 C 345.761 130.726,345.355 131.485,345.086 131.728 C 344.817 131.972,344.518 132.656,344.421 133.248 C 344.324 133.841,343.972 134.689,343.639 135.133 C 343.306 135.577,342.961 136.218,342.874 136.558 C 342.407 138.374,345.652 138.204,309.978 138.282 L 278.009 138.352 277.087 137.543 C 276.580 137.098,276.166 136.620,276.166 136.481 C 276.166 136.343,275.758 135.381,275.259 134.344 C 274.760 133.307,274.352 132.283,274.352 132.069 C 274.352 131.854,274.049 131.231,273.677 130.684 C 272.217 128.532,271.810 125.984,272.860 125.561 C 274.053 125.080,346.569 125.408,347.011 125.896 M114.865 144.694 C 115.302 145.132,114.883 146.824,114.131 147.656 C 113.931 147.876,113.571 148.640,113.330 149.352 C 113.089 150.065,112.690 150.939,112.442 151.295 C 112.195 151.652,111.914 152.270,111.817 152.669 C 111.720 153.069,111.295 153.873,110.872 154.457 C 110.450 155.041,110.104 155.661,110.104 155.836 C 110.104 156.710,108.937 156.750,85.796 156.678 L 62.924 156.606 62.426 155.959 C 62.152 155.602,61.924 155.136,61.918 154.922 C 61.912 154.709,61.560 154.021,61.135 153.394 C 60.710 152.767,60.361 152.067,60.358 151.839 C 60.355 151.611,60.006 150.912,59.581 150.285 C 59.156 149.658,58.808 148.952,58.808 148.716 C 58.808 148.480,58.523 147.900,58.174 147.428 C 57.381 146.353,57.103 145.182,57.522 144.679 C 58.007 144.094,114.280 144.110,114.865 144.694 M227.976 144.813 C 228.264 145.350,227.798 146.912,227.248 147.251 C 227.102 147.342,226.792 147.988,226.560 148.688 C 226.328 149.388,225.969 150.100,225.764 150.270 C 225.558 150.441,225.230 151.120,225.034 151.780 C 224.370 154.010,222.939 156.328,222.114 156.511 C 221.158 156.722,177.004 156.780,176.224 156.571 C 175.550 156.390,174.006 153.933,173.586 152.371 C 173.436 151.817,173.098 151.085,172.835 150.746 C 172.571 150.407,172.215 149.700,172.044 149.174 C 171.872 148.649,171.523 147.949,171.266 147.620 C 170.509 146.645,170.101 145.129,170.475 144.679 C 171.046 143.991,227.607 144.122,227.976 144.813 M338.334 144.680 C 338.697 145.117,338.067 147.403,337.440 147.924 C 337.244 148.086,336.901 148.755,336.678 149.412 C 336.454 150.068,336.108 150.789,335.909 151.015 C 335.709 151.240,335.352 152.008,335.114 152.720 C 334.602 154.251,333.301 156.367,332.739 156.583 C 332.020 156.859,287.761 156.752,286.753 156.471 C 285.951 156.249,285.727 156.010,285.235 154.854 C 284.918 154.108,284.511 153.323,284.331 153.109 C 284.151 152.895,283.805 152.108,283.562 151.360 C 283.318 150.612,283.026 150.000,282.912 150.000 C 282.799 150.000,282.444 149.301,282.124 148.446 C 281.805 147.591,281.450 146.891,281.336 146.891 C 280.909 146.891,280.502 145.083,280.837 144.679 C 281.312 144.107,337.859 144.107,338.334 144.680 M105.381 162.712 C 106.351 163.051,106.587 163.573,106.112 164.327 C 105.915 164.640,105.666 165.186,105.560 165.541 C 105.454 165.895,105.102 166.594,104.779 167.095 C 104.457 167.596,104.108 168.412,104.005 168.909 C 103.902 169.407,103.541 170.175,103.204 170.618 C 102.867 171.060,102.591 171.543,102.591 171.692 C 102.591 172.759,101.997 172.799,86.473 172.772 C 70.378 172.744,70.522 172.754,69.940 171.625 C 69.723 171.201,69.227 170.320,68.839 169.666 C 68.452 169.013,68.135 168.340,68.135 168.172 C 68.135 168.003,67.847 167.410,67.495 166.853 C 66.391 165.103,66.117 163.486,66.827 162.911 C 67.528 162.344,103.787 162.157,105.381 162.712 M219.035 163.031 C 219.438 163.581,218.835 165.549,217.901 166.736 C 217.602 167.116,217.358 167.627,217.358 167.872 C 217.358 168.116,217.010 168.829,216.585 169.456 C 216.160 170.083,215.808 170.771,215.802 170.984 C 215.796 171.198,215.568 171.665,215.294 172.021 L 214.797 172.668 199.664 172.741 C 182.951 172.821,183.410 172.863,182.638 171.182 C 182.359 170.575,182.013 169.903,181.868 169.689 C 181.724 169.475,181.374 168.776,181.091 168.135 C 180.808 167.494,180.464 166.794,180.325 166.580 C 178.836 164.275,178.755 163.102,180.052 162.616 C 181.243 162.171,218.698 162.569,219.035 163.031 M329.714 163.023 C 330.091 163.400,330.115 163.561,329.851 163.930 C 329.513 164.402,329.291 164.838,328.632 166.321 C 328.410 166.820,328.057 167.519,327.847 167.876 C 327.637 168.232,327.289 168.931,327.074 169.430 C 326.859 169.929,326.354 170.861,325.954 171.503 L 325.225 172.668 309.816 172.668 C 292.711 172.668,293.262 172.723,292.914 170.980 C 292.824 170.531,292.512 169.829,292.221 169.420 C 291.929 169.011,291.559 168.292,291.397 167.822 C 291.236 167.353,290.827 166.548,290.490 166.034 C 289.651 164.756,289.456 163.430,290.024 162.863 C 290.715 162.172,329.018 162.326,329.714 163.023 M98.440 178.906 C 98.754 179.220,97.715 182.635,97.078 183.380 C 96.877 183.616,96.510 184.333,96.262 184.974 C 96.014 185.615,95.666 186.315,95.487 186.528 C 95.309 186.742,95.011 187.301,94.826 187.769 C 94.196 189.360,94.104 189.378,86.592 189.378 C 78.619 189.378,78.261 189.303,77.443 187.455 C 77.160 186.815,76.824 186.227,76.697 186.148 C 76.569 186.069,76.216 185.257,75.912 184.343 C 75.608 183.429,75.198 182.547,75.000 182.383 C 74.314 181.814,73.961 179.235,74.513 178.831 C 75.129 178.381,97.986 178.452,98.440 178.906 M210.956 178.868 C 211.466 179.379,211.014 181.976,210.231 183.031 C 209.913 183.459,209.573 184.149,209.474 184.565 C 209.375 184.981,209.065 185.613,208.785 185.970 C 208.504 186.326,208.060 187.103,207.798 187.696 C 207.085 189.307,206.393 189.428,198.416 189.330 C 191.110 189.240,191.176 189.255,190.478 187.565 C 190.272 187.066,189.944 186.477,189.748 186.257 C 189.552 186.036,189.211 185.342,188.990 184.715 C 188.768 184.088,188.401 183.369,188.174 183.118 C 187.946 182.866,187.612 182.045,187.431 181.292 C 187.251 180.538,187.020 179.719,186.918 179.471 C 186.572 178.623,187.766 178.531,199.269 178.514 C 208.757 178.500,210.645 178.557,210.956 178.868 M321.383 178.760 C 321.897 178.956,322.027 179.138,321.892 179.473 C 321.792 179.720,321.508 180.637,321.261 181.510 C 321.014 182.383,320.560 183.419,320.251 183.812 C 319.942 184.205,319.689 184.718,319.689 184.953 C 319.689 185.437,318.211 187.915,317.397 188.795 C 316.705 189.543,303.974 189.713,302.261 188.997 C 301.458 188.662,298.964 184.561,298.964 183.578 C 298.964 183.485,298.691 182.975,298.357 182.443 C 297.527 181.120,297.262 179.127,297.869 178.774 C 298.479 178.418,320.450 178.405,321.383 178.760 M90.163 195.550 L 90.746 196.022 90.171 197.687 C 89.855 198.603,89.450 199.527,89.271 199.741 C 89.092 199.955,88.792 200.538,88.604 201.036 C 88.228 202.031,86.663 204.550,86.267 204.794 C 85.980 204.971,84.977 203.441,84.975 202.825 C 84.975 202.598,84.759 202.217,84.496 201.979 C 84.233 201.742,83.863 201.053,83.674 200.450 C 83.484 199.846,83.138 199.119,82.906 198.834 C 81.879 197.578,81.609 196.148,82.272 195.485 C 82.916 194.841,89.353 194.894,90.163 195.550 M203.234 195.682 C 203.682 196.366,203.432 197.479,202.543 198.757 C 202.275 199.141,201.898 199.978,201.706 200.616 C 201.514 201.254,201.110 202.123,200.808 202.547 C 200.506 202.971,200.259 203.420,200.259 203.545 C 200.259 204.031,199.448 204.893,199.112 204.764 C 198.596 204.566,196.985 201.839,196.758 200.780 C 196.651 200.283,196.288 199.514,195.950 199.071 C 195.613 198.629,195.336 198.103,195.335 197.903 C 195.334 197.703,195.171 197.228,194.973 196.847 C 194.649 196.227,194.664 196.100,195.114 195.617 C 195.929 194.741,202.653 194.796,203.234 195.682 M313.757 195.565 L 314.359 196.052 313.163 198.479 C 312.506 199.814,311.846 201.284,311.698 201.746 C 310.849 204.386,309.109 205.281,308.419 203.433 C 308.167 202.756,307.813 202.027,307.633 201.813 C 307.453 201.600,307.182 200.972,307.032 200.419 C 306.882 199.866,306.473 198.991,306.124 198.476 C 305.252 197.188,305.039 196.034,305.575 195.498 C 306.244 194.829,312.915 194.883,313.757 195.565 " stroke="none" fill="#1ca759" fill-rule="evenodd"></path><path id="path1" d="M0.000 129.534 L 0.000 259.067 200.000 259.067 L 400.000 259.067 400.000 129.534 L 400.000 0.000 200.000 0.000 L 0.000 0.000 0.000 129.534 M87.133 32.707 C 87.623 33.455,88.111 34.359,88.217 34.715 C 88.323 35.071,88.632 35.678,88.903 36.062 C 89.174 36.447,89.552 37.284,89.744 37.922 C 89.936 38.560,90.323 39.411,90.603 39.813 C 90.883 40.215,91.243 40.928,91.402 41.397 C 91.561 41.867,91.913 42.566,92.185 42.952 C 92.456 43.337,92.767 43.944,92.875 44.301 C 92.983 44.657,93.334 45.415,93.655 45.984 C 93.976 46.554,94.320 47.370,94.420 47.798 C 94.519 48.225,94.876 48.938,95.214 49.382 C 95.551 49.825,95.907 50.525,96.005 50.936 C 96.102 51.347,96.452 52.047,96.782 52.490 C 97.112 52.934,97.463 53.634,97.563 54.045 C 97.662 54.456,97.964 55.108,98.233 55.492 C 98.502 55.877,98.885 56.733,99.084 57.395 C 99.283 58.057,99.613 58.791,99.817 59.027 C 100.021 59.263,100.403 60.039,100.666 60.751 C 100.929 61.464,101.281 62.163,101.447 62.306 C 101.614 62.448,101.959 63.148,102.214 63.860 C 102.470 64.573,102.821 65.330,102.996 65.544 C 103.171 65.758,103.495 66.472,103.715 67.131 C 103.936 67.790,104.415 68.768,104.779 69.305 C 105.143 69.841,105.443 70.467,105.445 70.697 C 105.448 70.926,105.797 71.627,106.222 72.254 C 106.647 72.881,106.995 73.594,106.995 73.838 C 106.995 74.083,107.213 74.560,107.481 74.900 C 107.748 75.240,108.155 76.072,108.385 76.749 C 108.614 77.426,109.095 78.444,109.453 79.011 C 109.811 79.578,110.104 80.190,110.105 80.370 C 110.105 80.551,110.455 81.224,110.881 81.865 C 111.307 82.506,111.657 83.206,111.659 83.420 C 111.660 83.633,111.893 84.158,112.176 84.585 C 112.460 85.013,112.866 85.959,113.079 86.689 C 113.292 87.418,113.636 88.156,113.843 88.328 C 114.051 88.500,114.408 89.206,114.637 89.896 C 114.867 90.587,115.216 91.286,115.415 91.451 C 115.613 91.615,115.962 92.315,116.192 93.005 C 116.421 93.696,116.780 94.402,116.988 94.576 C 117.197 94.749,117.495 95.393,117.649 96.008 C 117.804 96.622,118.210 97.502,118.551 97.965 C 118.892 98.427,119.171 99.000,119.171 99.237 C 119.171 99.474,119.469 100.107,119.833 100.644 C 120.197 101.180,120.675 102.158,120.896 102.817 C 121.117 103.476,121.452 104.190,121.640 104.404 C 121.829 104.618,122.179 105.376,122.418 106.088 C 122.656 106.801,123.005 107.558,123.192 107.772 C 123.379 107.986,123.734 108.685,123.982 109.326 C 124.230 109.968,124.586 110.673,124.774 110.894 C 124.962 111.114,125.291 111.792,125.506 112.400 C 125.720 113.008,126.118 113.788,126.390 114.134 C 126.662 114.479,126.965 115.191,127.063 115.715 C 127.161 116.238,127.509 117.026,127.836 117.466 C 128.162 117.905,128.509 118.601,128.607 119.012 C 128.704 119.423,129.054 120.123,129.384 120.566 C 129.714 121.010,130.066 121.723,130.168 122.150 C 130.269 122.578,130.528 123.124,130.744 123.364 C 132.174 124.951,132.160 128.661,130.718 130.301 C 130.526 130.520,130.289 131.073,130.192 131.529 C 130.095 131.986,129.788 132.648,129.510 133.002 C 129.232 133.356,128.829 134.142,128.615 134.750 C 128.400 135.358,128.045 136.054,127.825 136.297 C 127.605 136.540,127.262 137.280,127.063 137.942 C 126.864 138.603,126.472 139.467,126.192 139.860 C 125.911 140.254,125.597 140.915,125.493 141.331 C 125.388 141.746,124.973 142.607,124.569 143.244 C 124.165 143.881,123.834 144.590,123.834 144.819 C 123.834 145.048,123.540 145.635,123.181 146.122 C 122.822 146.609,122.402 147.475,122.247 148.048 C 122.093 148.620,121.764 149.381,121.515 149.739 C 121.267 150.096,120.934 150.773,120.774 151.242 C 120.615 151.711,120.266 152.411,119.997 152.796 C 119.729 153.182,119.379 153.881,119.220 154.351 C 119.061 154.820,118.706 155.521,118.430 155.908 C 118.155 156.294,117.795 157.108,117.632 157.715 C 117.468 158.322,117.048 159.241,116.698 159.756 C 116.348 160.272,116.062 160.893,116.062 161.136 C 116.062 161.380,115.834 161.842,115.555 162.163 C 115.276 162.485,114.845 163.289,114.597 163.952 C 114.349 164.614,114.069 165.214,113.974 165.285 C 113.648 165.532,112.953 167.075,112.953 167.553 C 112.953 167.818,112.662 168.429,112.306 168.912 C 111.949 169.395,111.658 169.983,111.658 170.219 C 111.658 170.454,111.310 171.160,110.886 171.787 C 110.461 172.414,110.111 173.111,110.108 173.336 C 110.106 173.561,109.768 174.261,109.358 174.891 C 108.948 175.521,108.533 176.480,108.437 177.022 C 108.340 177.564,108.049 178.221,107.789 178.481 C 107.529 178.741,107.118 179.549,106.876 180.278 C 106.634 181.007,106.287 181.691,106.105 181.799 C 105.923 181.907,105.573 182.606,105.328 183.353 C 105.082 184.101,104.736 184.800,104.558 184.908 C 104.379 185.016,104.029 185.739,103.778 186.516 C 103.528 187.293,103.100 188.212,102.827 188.559 C 102.555 188.905,102.332 189.389,102.332 189.633 C 102.332 189.878,101.984 190.590,101.559 191.217 C 101.134 191.845,100.785 192.539,100.782 192.760 C 100.779 192.982,100.448 193.683,100.045 194.318 C 99.642 194.953,99.235 195.860,99.140 196.333 C 99.045 196.807,98.730 197.529,98.438 197.938 C 98.147 198.347,97.778 199.066,97.619 199.535 C 97.460 200.005,97.110 200.704,96.842 201.090 C 96.574 201.475,96.222 202.175,96.060 202.644 C 95.899 203.113,95.506 203.905,95.187 204.404 C 94.868 204.903,94.523 205.718,94.420 206.215 C 94.316 206.712,93.965 207.470,93.639 207.899 C 93.312 208.328,92.960 209.028,92.856 209.456 C 92.752 209.883,92.403 210.551,92.081 210.939 C 91.759 211.328,91.411 212.027,91.310 212.494 C 91.208 212.960,90.863 213.654,90.543 214.036 C 90.223 214.418,89.879 215.166,89.779 215.698 C 89.679 216.231,89.328 217.026,88.998 217.466 C 88.668 217.905,88.318 218.614,88.219 219.041 C 88.027 219.873,86.501 222.150,86.135 222.150 C 85.948 222.150,84.909 220.456,84.309 219.171 C 84.209 218.957,83.913 218.316,83.650 217.746 C 83.388 217.176,83.064 216.535,82.931 216.321 C 82.364 215.415,80.829 211.976,80.829 211.613 C 80.829 211.396,80.481 210.705,80.057 210.078 C 79.632 209.451,79.282 208.751,79.279 208.523 C 79.277 208.296,78.927 207.596,78.502 206.969 C 78.077 206.342,77.728 205.671,77.725 205.479 C 77.722 205.286,77.437 204.586,77.092 203.924 C 75.880 201.603,74.352 198.313,74.352 198.024 C 74.352 197.863,74.184 197.592,73.977 197.421 C 73.771 197.249,73.402 196.565,73.156 195.899 C 72.911 195.234,72.547 194.496,72.347 194.260 C 72.148 194.024,71.825 193.299,71.629 192.649 C 71.433 191.999,70.975 191.028,70.611 190.492 C 70.246 189.956,69.948 189.350,69.948 189.146 C 69.948 188.943,69.613 188.241,69.203 187.587 C 68.792 186.934,68.377 186.058,68.280 185.642 C 68.182 185.226,67.877 184.599,67.601 184.248 C 67.326 183.898,66.972 183.135,66.815 182.553 C 66.659 181.971,66.315 181.221,66.052 180.887 C 65.789 180.552,65.433 179.849,65.262 179.323 C 65.091 178.798,64.741 178.098,64.485 177.769 C 64.229 177.439,63.881 176.740,63.713 176.214 C 63.544 175.689,63.245 175.074,63.049 174.849 C 62.853 174.623,62.515 173.842,62.298 173.112 C 62.081 172.383,61.735 171.616,61.527 171.409 C 61.320 171.202,60.907 170.380,60.608 169.583 C 60.310 168.787,59.967 168.135,59.846 168.135 C 59.725 168.135,59.487 167.698,59.318 167.163 C 59.149 166.629,58.782 165.792,58.502 165.303 C 58.222 164.814,57.815 163.881,57.597 163.230 C 57.380 162.579,57.001 161.813,56.755 161.528 C 56.509 161.244,56.153 160.517,55.964 159.913 C 55.774 159.310,55.404 158.621,55.141 158.383 C 54.878 158.145,54.663 157.787,54.663 157.587 C 54.663 157.387,54.211 156.268,53.658 155.101 C 53.105 153.934,52.573 152.717,52.475 152.396 C 52.377 152.076,52.202 151.813,52.087 151.813 C 51.971 151.813,51.615 151.114,51.295 150.259 C 50.976 149.404,50.616 148.705,50.497 148.705 C 50.377 148.705,50.112 148.151,49.908 147.474 C 49.557 146.308,48.583 144.167,47.757 142.746 C 47.550 142.390,47.209 141.690,47.000 141.192 C 46.790 140.693,46.440 139.994,46.223 139.637 C 46.005 139.281,45.658 138.582,45.452 138.083 C 45.245 137.584,44.788 136.593,44.436 135.881 C 44.083 135.168,43.623 134.177,43.414 133.679 C 43.205 133.180,42.855 132.481,42.638 132.124 C 42.420 131.768,42.066 131.069,41.851 130.570 C 41.636 130.071,41.217 129.255,40.920 128.756 C 40.202 127.551,40.360 125.514,41.268 124.296 C 41.616 123.828,41.981 123.109,42.078 122.698 C 42.176 122.286,42.528 121.587,42.861 121.143 C 43.194 120.700,43.553 119.929,43.658 119.430 C 43.764 118.931,44.061 118.254,44.318 117.926 C 44.576 117.597,44.975 116.761,45.206 116.067 C 45.436 115.374,45.787 114.672,45.985 114.507 C 46.184 114.342,46.487 113.779,46.659 113.256 C 46.831 112.734,47.238 111.898,47.564 111.399 C 47.889 110.900,48.239 110.142,48.342 109.715 C 48.444 109.288,48.801 108.503,49.135 107.971 C 49.468 107.440,49.741 106.899,49.741 106.770 C 49.741 106.641,50.499 105.047,51.425 103.228 C 52.351 101.410,53.109 99.722,53.109 99.478 C 53.109 99.233,53.324 98.756,53.587 98.416 C 53.849 98.076,54.273 97.244,54.529 96.567 C 54.784 95.891,55.079 95.337,55.185 95.337 C 55.291 95.337,55.639 94.637,55.959 93.782 C 56.278 92.927,56.634 92.228,56.750 92.228 C 56.865 92.228,57.040 91.966,57.138 91.645 C 57.236 91.324,57.769 90.107,58.321 88.940 C 58.874 87.773,59.326 86.655,59.326 86.455 C 59.326 86.254,59.541 85.896,59.804 85.658 C 60.067 85.420,60.437 84.732,60.627 84.128 C 60.816 83.525,61.165 82.798,61.402 82.513 C 61.639 82.228,61.978 81.587,62.155 81.088 C 62.332 80.589,62.748 79.598,63.079 78.886 C 63.410 78.174,63.871 77.183,64.103 76.684 C 64.335 76.185,64.684 75.486,64.878 75.130 C 65.073 74.773,65.423 74.074,65.655 73.575 C 65.888 73.076,66.237 72.377,66.430 72.021 C 67.212 70.576,68.394 67.987,68.394 67.717 C 68.394 67.559,68.671 67.021,69.010 66.522 C 69.349 66.023,69.763 65.198,69.931 64.689 C 70.099 64.180,70.447 63.493,70.705 63.164 C 70.962 62.834,71.256 62.273,71.358 61.917 C 71.547 61.260,72.020 60.242,72.683 59.067 C 72.885 58.711,73.052 58.245,73.054 58.031 C 73.057 57.817,73.408 57.118,73.834 56.477 C 74.260 55.835,74.610 55.136,74.611 54.922 C 74.613 54.709,74.962 54.009,75.389 53.368 C 75.815 52.727,76.164 52.041,76.165 51.844 C 76.165 51.647,76.384 51.123,76.650 50.678 C 76.917 50.234,77.346 49.288,77.605 48.575 C 77.864 47.863,78.281 47.010,78.531 46.681 C 78.781 46.351,79.124 45.665,79.292 45.156 C 79.460 44.647,79.874 43.822,80.213 43.322 C 80.552 42.823,80.829 42.273,80.829 42.099 C 80.829 41.925,81.179 41.127,81.606 40.326 C 82.034 39.525,82.386 38.722,82.388 38.541 C 82.391 38.360,82.740 37.699,83.165 37.072 C 83.590 36.445,83.940 35.746,83.943 35.518 C 83.945 35.290,84.295 34.591,84.720 33.964 C 85.145 33.337,85.492 32.631,85.492 32.396 C 85.492 32.042,85.946 31.347,86.178 31.347 C 86.213 31.347,86.643 31.959,87.133 32.707 M199.902 32.060 C 199.996 32.451,200.335 33.238,200.656 33.808 C 200.976 34.378,201.373 35.272,201.539 35.795 C 201.704 36.318,202.002 36.881,202.201 37.046 C 202.400 37.211,202.750 37.911,202.979 38.601 C 203.209 39.292,203.558 39.991,203.756 40.155 C 203.955 40.320,204.313 41.057,204.553 41.795 C 204.793 42.532,205.133 43.310,205.309 43.523 C 205.485 43.737,205.844 44.495,206.108 45.207 C 206.371 45.920,206.726 46.646,206.897 46.822 C 207.068 46.997,207.417 47.697,207.673 48.376 C 207.929 49.056,208.273 49.728,208.437 49.870 C 208.600 50.013,208.932 50.654,209.173 51.295 C 209.613 52.462,210.650 54.740,211.297 55.959 C 211.655 56.632,212.169 57.696,212.675 58.808 C 212.837 59.165,213.123 59.747,213.311 60.104 C 213.499 60.460,214.004 61.509,214.433 62.435 C 214.863 63.361,216.269 66.276,217.559 68.912 C 218.849 71.548,220.037 74.133,220.199 74.655 C 220.360 75.178,220.655 75.741,220.854 75.906 C 221.053 76.071,221.403 76.771,221.632 77.461 C 221.861 78.152,222.212 78.851,222.410 79.016 C 222.609 79.181,222.906 79.744,223.072 80.267 C 223.237 80.790,223.640 81.626,223.967 82.124 C 224.295 82.623,224.647 83.438,224.751 83.935 C 224.854 84.433,225.200 85.190,225.518 85.619 C 225.837 86.048,226.178 86.735,226.275 87.147 C 226.373 87.558,226.738 88.269,227.086 88.726 C 227.435 89.183,227.720 89.712,227.720 89.902 C 227.720 90.236,229.194 93.507,229.936 94.819 C 230.137 95.175,230.480 95.874,230.697 96.373 C 230.914 96.872,231.264 97.571,231.474 97.927 C 231.684 98.284,232.034 98.983,232.252 99.482 C 232.469 99.981,232.922 100.913,233.258 101.554 C 233.595 102.196,233.949 103.057,234.047 103.468 C 234.145 103.879,234.494 104.579,234.824 105.022 C 235.154 105.466,235.504 106.166,235.602 106.577 C 235.699 106.988,236.064 107.699,236.413 108.156 C 236.761 108.613,237.047 109.141,237.047 109.330 C 237.047 109.519,237.387 110.383,237.803 111.249 C 238.219 112.115,238.746 113.232,238.974 113.731 C 239.201 114.229,239.559 114.929,239.769 115.285 C 239.979 115.641,240.329 116.341,240.547 116.839 C 240.764 117.338,241.110 118.038,241.315 118.394 C 242.040 119.654,243.523 123.022,243.523 123.410 C 243.523 123.627,243.650 123.882,243.804 123.977 C 245.005 124.720,245.239 128.085,244.172 129.275 C 243.980 129.488,243.571 130.304,243.263 131.087 C 242.955 131.871,242.605 132.630,242.485 132.775 C 242.365 132.919,242.017 133.706,241.711 134.524 C 241.405 135.341,241.062 136.010,240.949 136.010 C 240.836 136.010,240.488 136.710,240.176 137.565 C 239.865 138.420,239.513 139.119,239.394 139.119 C 239.276 139.119,238.984 139.731,238.745 140.479 C 238.507 141.227,238.100 142.135,237.841 142.497 C 237.583 142.859,237.290 143.524,237.191 143.975 C 237.092 144.426,236.783 145.084,236.505 145.437 C 236.227 145.791,235.824 146.578,235.609 147.185 C 235.395 147.793,235.040 148.489,234.820 148.732 C 234.600 148.975,234.257 149.715,234.058 150.377 C 233.859 151.039,233.467 151.902,233.186 152.295 C 232.906 152.689,232.596 153.354,232.496 153.772 C 232.397 154.191,232.045 154.897,231.716 155.340 C 231.386 155.784,231.036 156.483,230.938 156.895 C 230.841 157.306,230.491 158.005,230.161 158.449 C 229.831 158.893,229.483 159.592,229.387 160.003 C 229.292 160.415,228.951 161.218,228.629 161.788 C 228.308 162.358,227.957 163.115,227.849 163.472 C 227.741 163.828,227.430 164.435,227.159 164.820 C 226.887 165.206,226.533 165.905,226.371 166.375 C 226.210 166.844,225.815 167.636,225.493 168.135 C 225.172 168.633,224.775 169.554,224.610 170.181 C 224.446 170.808,224.156 171.477,223.966 171.666 C 223.777 171.856,223.412 172.567,223.155 173.247 C 222.898 173.926,222.548 174.625,222.378 174.801 C 222.207 174.976,221.858 175.676,221.601 176.355 C 221.345 177.035,220.995 177.707,220.823 177.850 C 220.651 177.992,220.336 178.633,220.123 179.275 C 219.910 179.916,219.436 180.965,219.068 181.606 C 218.701 182.247,218.396 182.947,218.392 183.161 C 218.388 183.374,218.037 184.062,217.612 184.689 C 217.187 185.316,216.839 186.029,216.839 186.273 C 216.839 186.518,216.593 187.031,216.292 187.414 C 215.991 187.797,215.582 188.649,215.384 189.308 C 215.185 189.967,214.859 190.690,214.659 190.914 C 214.459 191.138,214.099 191.925,213.860 192.663 C 213.620 193.401,213.278 194.060,213.099 194.129 C 212.921 194.197,212.627 194.780,212.447 195.425 C 212.267 196.069,211.915 196.815,211.666 197.082 C 211.417 197.349,211.067 198.028,210.889 198.590 C 210.710 199.152,210.286 200.098,209.945 200.694 C 209.605 201.289,209.326 201.942,209.326 202.144 C 209.326 202.347,208.979 203.026,208.554 203.653 C 208.129 204.280,207.779 204.980,207.777 205.210 C 207.774 205.439,207.474 206.066,207.110 206.602 C 206.746 207.138,206.266 208.116,206.042 208.776 C 205.818 209.435,205.416 210.252,205.149 210.592 C 204.882 210.932,204.663 211.410,204.663 211.654 C 204.663 211.898,204.316 212.611,203.891 213.238 C 203.466 213.865,203.116 214.566,203.114 214.795 C 203.111 215.025,202.816 215.645,202.457 216.172 C 202.099 216.700,201.576 217.787,201.295 218.588 C 201.013 219.389,200.681 220.110,200.556 220.190 C 200.431 220.271,200.239 220.628,200.130 220.984 C 199.516 222.978,197.948 221.752,197.017 218.550 C 196.785 217.752,196.501 217.098,196.386 217.098 C 196.271 217.098,195.916 216.399,195.596 215.544 C 195.276 214.689,194.926 213.990,194.819 213.990 C 194.711 213.990,194.361 213.290,194.041 212.435 C 193.722 211.580,193.367 210.881,193.253 210.881 C 193.140 210.881,192.852 210.269,192.613 209.521 C 192.375 208.773,191.979 207.869,191.734 207.513 C 191.488 207.157,191.082 206.341,190.829 205.699 C 190.577 205.058,190.224 204.359,190.044 204.145 C 189.865 203.931,189.515 203.232,189.267 202.591 C 189.019 201.949,188.663 201.250,188.475 201.036 C 188.287 200.823,187.952 200.031,187.731 199.278 C 187.509 198.524,187.090 197.605,186.799 197.235 C 186.508 196.865,186.269 196.362,186.269 196.118 C 186.269 195.874,185.922 195.161,185.497 194.534 C 185.072 193.907,184.722 193.219,184.719 193.005 C 184.715 192.791,184.364 192.092,183.938 191.451 C 183.512 190.810,183.162 190.040,183.162 189.741 C 183.161 189.442,182.813 188.684,182.388 188.057 C 181.963 187.430,181.614 186.731,181.611 186.503 C 181.608 186.275,181.259 185.575,180.834 184.948 C 180.409 184.321,180.059 183.660,180.057 183.480 C 180.054 183.299,179.702 182.495,179.275 181.694 C 178.847 180.893,178.497 180.050,178.496 179.821 C 178.496 179.592,178.146 178.880,177.720 178.238 C 177.294 177.597,176.945 176.931,176.944 176.758 C 176.944 176.585,176.593 175.891,176.166 175.217 C 175.738 174.543,175.389 173.825,175.389 173.621 C 175.389 173.417,175.051 172.653,174.639 171.923 C 174.226 171.193,173.811 170.225,173.715 169.772 C 173.620 169.319,173.381 168.814,173.184 168.650 C 172.986 168.487,172.622 167.808,172.375 167.143 C 172.127 166.477,171.719 165.663,171.469 165.334 C 171.219 165.004,170.874 164.305,170.702 163.779 C 170.531 163.254,170.175 162.546,169.911 162.207 C 169.648 161.868,169.304 161.114,169.147 160.532 C 168.990 159.950,168.647 159.201,168.384 158.866 C 168.120 158.531,167.768 157.841,167.600 157.332 C 167.432 156.823,167.017 155.998,166.678 155.499 C 166.339 154.999,166.062 154.461,166.062 154.303 C 166.061 154.145,165.725 153.374,165.315 152.591 C 164.905 151.807,164.490 150.799,164.394 150.351 C 164.298 149.902,163.989 149.327,163.708 149.072 C 163.426 148.818,163.071 148.113,162.918 147.507 C 162.766 146.901,162.420 146.205,162.149 145.960 C 161.879 145.716,161.657 145.330,161.655 145.102 C 161.653 144.875,161.351 144.165,160.984 143.523 C 160.616 142.882,160.139 141.833,159.924 141.192 C 159.708 140.551,159.379 139.851,159.192 139.637 C 159.005 139.424,158.649 138.724,158.401 138.083 C 158.153 137.442,157.803 136.742,157.623 136.528 C 157.442 136.315,157.043 135.499,156.735 134.716 C 156.427 133.932,156.076 133.173,155.956 133.029 C 155.836 132.884,155.492 132.107,155.191 131.303 C 154.890 130.498,154.480 129.704,154.279 129.537 C 153.153 128.603,153.300 125.239,154.528 123.834 C 154.715 123.620,155.050 122.921,155.272 122.280 C 155.494 121.639,155.972 120.540,156.335 119.840 C 156.698 119.139,156.995 118.424,156.995 118.252 C 156.995 118.080,157.164 117.799,157.370 117.628 C 157.576 117.457,157.948 116.772,158.195 116.107 C 158.443 115.441,158.858 114.618,159.116 114.278 C 159.375 113.938,159.761 113.073,159.973 112.357 C 160.186 111.640,160.518 110.869,160.710 110.643 C 160.902 110.418,161.262 109.709,161.510 109.067 C 161.758 108.426,162.111 107.727,162.295 107.513 C 162.478 107.299,162.767 106.694,162.935 106.169 C 163.104 105.644,163.451 104.944,163.707 104.615 C 163.963 104.285,164.371 103.412,164.613 102.675 C 164.856 101.938,165.220 101.198,165.422 101.030 C 165.624 100.862,165.862 100.336,165.952 99.860 C 166.041 99.383,166.391 98.619,166.730 98.160 C 167.068 97.701,167.479 96.907,167.642 96.396 C 167.806 95.885,168.150 95.233,168.406 94.948 C 168.663 94.663,168.958 94.080,169.061 93.653 C 169.164 93.225,169.581 92.247,169.987 91.479 C 170.393 90.711,170.725 89.940,170.725 89.767 C 170.725 89.593,171.003 89.042,171.341 88.543 C 171.680 88.044,172.095 87.219,172.263 86.709 C 172.431 86.200,172.778 85.514,173.034 85.185 C 173.290 84.855,173.647 84.134,173.827 83.582 C 174.007 83.030,174.490 81.940,174.901 81.159 C 175.312 80.379,175.648 79.591,175.648 79.410 C 175.648 79.228,175.816 78.939,176.023 78.768 C 176.229 78.597,176.600 77.912,176.848 77.246 C 177.096 76.581,177.510 75.759,177.768 75.420 C 178.026 75.080,178.362 74.323,178.516 73.736 C 178.669 73.149,179.078 72.234,179.423 71.702 C 179.769 71.171,180.052 70.582,180.052 70.393 C 180.052 70.204,180.402 69.498,180.829 68.824 C 181.256 68.150,181.606 67.451,181.606 67.270 C 181.606 67.089,181.956 66.389,182.383 65.715 C 182.811 65.041,183.161 64.348,183.161 64.175 C 183.162 64.002,183.570 63.051,184.068 62.061 C 184.566 61.072,184.974 60.125,184.974 59.956 C 184.974 59.787,185.143 59.509,185.349 59.338 C 185.555 59.167,185.925 58.482,186.170 57.816 C 186.416 57.151,186.772 56.422,186.962 56.196 C 187.152 55.971,187.498 55.213,187.731 54.512 C 187.964 53.812,188.304 53.063,188.486 52.850 C 188.668 52.636,189.054 51.836,189.343 51.072 C 189.632 50.308,190.030 49.492,190.227 49.258 C 190.424 49.025,190.790 48.280,191.040 47.604 C 191.289 46.927,191.591 46.373,191.710 46.373 C 191.830 46.373,192.126 45.761,192.369 45.013 C 192.611 44.265,193.011 43.303,193.256 42.876 C 193.501 42.448,193.856 41.690,194.044 41.192 C 194.232 40.693,194.532 40.110,194.710 39.896 C 194.888 39.683,195.237 38.983,195.485 38.342 C 195.733 37.701,196.091 36.993,196.282 36.770 C 196.472 36.546,196.864 35.677,197.152 34.839 C 197.440 34.001,197.775 33.252,197.895 33.174 C 198.016 33.095,198.308 32.652,198.546 32.189 C 199.073 31.160,199.672 31.103,199.902 32.060 M310.104 31.941 C 310.104 32.095,310.325 32.461,310.596 32.755 C 310.866 33.049,311.278 33.860,311.511 34.556 C 311.744 35.252,312.164 36.113,312.444 36.469 C 312.724 36.825,312.953 37.316,312.953 37.561 C 312.953 37.805,313.301 38.518,313.726 39.145 C 314.151 39.772,314.500 40.473,314.503 40.702 C 314.506 40.932,314.798 41.547,315.152 42.069 C 315.507 42.591,315.875 43.336,315.971 43.724 C 316.067 44.112,317.176 46.466,318.436 48.954 C 319.695 51.443,320.725 53.669,320.725 53.902 C 320.725 54.135,321.073 54.839,321.498 55.466 C 321.923 56.093,322.272 56.793,322.275 57.021 C 322.278 57.249,322.627 57.948,323.052 58.575 C 323.477 59.202,323.827 59.857,323.829 60.030 C 323.836 60.480,324.673 62.176,324.888 62.176 C 324.987 62.176,325.205 62.722,325.373 63.388 C 325.541 64.055,325.909 64.924,326.191 65.320 C 326.472 65.716,326.833 66.423,326.992 66.893 C 327.151 67.362,327.501 68.062,327.769 68.447 C 328.038 68.833,328.387 69.532,328.547 70.001 C 328.706 70.471,329.055 71.170,329.323 71.555 C 329.591 71.939,329.967 72.776,330.159 73.414 C 330.351 74.052,330.737 74.903,331.017 75.305 C 331.298 75.707,331.657 76.420,331.816 76.890 C 331.975 77.359,332.328 78.059,332.599 78.444 C 332.871 78.830,333.178 79.437,333.282 79.793 C 333.386 80.149,333.740 80.848,334.069 81.347 C 334.397 81.846,334.751 82.661,334.854 83.158 C 334.958 83.655,335.306 84.413,335.628 84.842 C 335.949 85.271,336.291 85.993,336.387 86.446 C 336.483 86.899,336.716 87.398,336.905 87.555 C 337.094 87.712,337.509 88.536,337.827 89.386 C 338.145 90.237,338.498 90.933,338.612 90.933 C 338.725 90.933,339.014 91.545,339.252 92.293 C 339.491 93.041,339.886 93.944,340.132 94.301 C 340.377 94.657,340.784 95.473,341.036 96.114 C 341.288 96.755,341.641 97.455,341.821 97.668 C 342.001 97.882,342.350 98.582,342.598 99.223 C 342.846 99.864,343.203 100.563,343.392 100.777 C 343.581 100.991,343.930 101.836,344.166 102.655 C 344.403 103.475,344.698 104.145,344.823 104.145 C 344.948 104.145,345.305 104.845,345.617 105.699 C 345.928 106.554,346.278 107.254,346.394 107.254 C 346.510 107.254,346.859 107.953,347.171 108.808 C 347.483 109.663,347.829 110.363,347.941 110.363 C 348.053 110.363,348.394 111.112,348.698 112.027 C 349.003 112.942,349.413 113.825,349.609 113.988 C 349.806 114.151,350.041 114.622,350.132 115.035 C 350.222 115.448,350.565 116.182,350.894 116.666 C 351.222 117.150,351.628 117.963,351.796 118.472 C 351.965 118.981,352.317 119.671,352.580 120.006 C 352.844 120.340,353.199 121.134,353.370 121.768 C 353.541 122.403,353.897 123.227,354.162 123.598 C 355.592 125.607,355.576 128.421,354.123 130.268 C 353.851 130.614,353.507 131.350,353.357 131.904 C 353.208 132.459,352.800 133.334,352.450 133.850 C 352.100 134.365,351.813 134.982,351.813 135.219 C 351.813 135.456,351.519 136.049,351.160 136.536 C 350.801 137.023,350.390 137.857,350.247 138.388 C 350.103 138.920,349.809 139.532,349.593 139.749 C 349.376 139.965,349.018 140.757,348.797 141.509 C 348.576 142.261,348.241 143.051,348.054 143.264 C 347.866 143.478,347.509 144.177,347.261 144.819 C 347.014 145.460,346.664 146.159,346.484 146.373 C 346.304 146.587,345.951 147.286,345.699 147.927 C 345.447 148.569,345.040 149.385,344.795 149.741 C 344.550 150.097,344.154 151.001,343.915 151.749 C 343.677 152.497,343.389 153.109,343.275 153.109 C 343.161 153.109,342.807 153.808,342.487 154.663 C 342.167 155.518,341.818 156.218,341.710 156.218 C 341.602 156.218,341.252 156.917,340.933 157.772 C 340.613 158.627,340.253 159.326,340.134 159.326 C 340.014 159.326,339.790 159.794,339.637 160.365 C 339.483 160.936,338.662 162.771,337.813 164.442 C 336.964 166.113,336.269 167.572,336.269 167.683 C 336.269 167.795,335.981 168.323,335.627 168.857 C 335.274 169.391,334.906 170.233,334.808 170.730 C 334.711 171.226,334.368 171.982,334.046 172.409 C 333.724 172.837,333.374 173.536,333.269 173.964 C 333.164 174.391,332.806 175.100,332.474 175.540 C 332.142 175.979,331.797 176.702,331.708 177.146 C 331.619 177.590,331.324 178.154,331.052 178.400 C 330.780 178.646,330.380 179.460,330.162 180.209 C 329.945 180.957,329.547 181.849,329.278 182.191 C 329.009 182.533,328.708 183.153,328.609 183.570 C 328.510 183.986,328.159 184.689,327.830 185.133 C 327.500 185.577,327.150 186.276,327.052 186.687 C 326.955 187.099,326.618 187.785,326.304 188.212 C 325.990 188.640,325.590 189.565,325.416 190.268 C 325.241 190.971,324.947 191.670,324.762 191.822 C 324.578 191.974,324.225 192.623,323.979 193.264 C 323.733 193.905,323.383 194.605,323.200 194.819 C 323.018 195.032,322.661 195.765,322.406 196.446 C 322.152 197.128,321.843 197.748,321.719 197.824 C 321.425 198.006,320.727 199.686,320.721 200.226 C 320.718 200.458,320.368 201.161,319.943 201.788 C 319.519 202.415,319.169 203.114,319.166 203.342 C 319.164 203.570,318.814 204.269,318.389 204.896 C 317.964 205.524,317.617 206.229,317.617 206.465 C 317.617 206.701,317.337 207.272,316.996 207.735 C 316.655 208.197,316.250 209.078,316.095 209.692 C 315.940 210.306,315.643 210.950,315.434 211.124 C 315.225 211.297,314.867 212.004,314.637 212.694 C 314.408 213.385,314.058 214.084,313.860 214.249 C 313.662 214.413,313.312 215.113,313.083 215.803 C 312.854 216.494,312.505 217.192,312.308 217.355 C 312.111 217.519,311.870 218.023,311.773 218.476 C 311.360 220.389,309.665 222.649,309.158 221.965 C 308.674 221.312,307.332 218.510,307.151 217.775 C 307.050 217.364,306.697 216.665,306.367 216.221 C 306.037 215.777,305.688 215.078,305.590 214.667 C 305.493 214.255,305.143 213.556,304.813 213.112 C 304.483 212.669,304.135 211.975,304.039 211.572 C 303.944 211.168,303.594 210.407,303.261 209.881 C 302.929 209.355,302.574 208.546,302.472 208.083 C 302.371 207.620,302.028 206.924,301.711 206.535 C 301.394 206.147,300.995 205.347,300.825 204.759 C 300.655 204.170,300.341 203.544,300.128 203.367 C 299.915 203.190,299.741 202.936,299.741 202.803 C 299.741 202.669,299.275 201.583,298.705 200.389 C 298.135 199.194,297.668 198.053,297.668 197.853 C 297.668 197.653,297.440 197.226,297.162 196.904 C 296.883 196.583,296.518 195.895,296.352 195.375 C 296.185 194.855,295.882 194.239,295.679 194.006 C 295.475 193.772,295.072 192.956,294.783 192.192 C 294.494 191.428,294.108 190.628,293.926 190.415 C 293.744 190.201,293.404 189.453,293.171 188.752 C 292.939 188.051,292.591 187.294,292.399 187.068 C 292.207 186.843,291.847 186.133,291.599 185.492 C 291.351 184.851,290.996 184.152,290.809 183.938 C 290.623 183.724,290.255 182.937,289.993 182.189 C 289.730 181.441,289.436 180.829,289.338 180.829 C 289.241 180.829,288.962 180.229,288.718 179.496 C 288.475 178.763,287.999 177.756,287.661 177.258 C 287.323 176.760,287.047 176.198,287.047 176.009 C 287.047 175.820,286.697 175.114,286.269 174.440 C 285.842 173.766,285.492 173.048,285.492 172.845 C 285.492 172.641,285.155 171.819,284.744 171.017 C 284.332 170.216,283.804 169.152,283.570 168.653 C 283.336 168.154,282.985 167.455,282.790 167.098 C 282.596 166.742,282.246 166.043,282.013 165.544 C 281.780 165.045,281.433 164.346,281.242 163.990 C 280.508 162.624,279.275 159.910,279.275 159.660 C 279.275 159.516,278.997 158.990,278.659 158.491 C 278.320 157.992,277.905 157.167,277.737 156.658 C 277.569 156.148,277.222 155.462,276.966 155.133 C 276.710 154.803,276.354 154.067,276.175 153.497 C 275.996 152.927,275.645 152.102,275.395 151.663 C 275.144 151.224,274.790 150.408,274.608 149.849 C 274.426 149.291,274.067 148.565,273.811 148.235 C 273.555 147.906,273.205 147.206,273.032 146.681 C 272.860 146.155,272.461 145.376,272.145 144.948 C 271.829 144.521,271.488 143.821,271.387 143.394 C 271.286 142.966,271.053 142.442,270.870 142.228 C 270.687 142.014,270.325 141.256,270.065 140.544 C 269.805 139.832,269.388 138.979,269.137 138.650 C 268.887 138.320,268.542 137.621,268.371 137.095 C 268.200 136.570,267.844 135.862,267.580 135.523 C 267.316 135.184,266.978 134.453,266.829 133.899 C 266.680 133.344,266.271 132.469,265.921 131.953 C 265.571 131.438,265.284 130.828,265.284 130.599 C 265.283 130.369,264.934 129.657,264.508 129.016 C 263.542 127.563,263.494 126.328,264.352 125.063 C 264.694 124.559,265.060 123.872,265.165 123.537 C 265.270 123.202,265.689 122.299,266.097 121.531 C 266.505 120.763,266.840 119.947,266.840 119.717 C 266.841 119.488,267.190 118.776,267.617 118.135 C 268.043 117.494,268.393 116.794,268.394 116.580 C 268.395 116.367,268.745 115.667,269.171 115.026 C 269.597 114.385,269.951 113.685,269.957 113.472 C 269.964 113.258,270.314 112.442,270.736 111.658 C 271.157 110.874,271.502 110.104,271.503 109.945 C 271.503 109.787,271.780 109.249,272.119 108.750 C 272.457 108.251,272.872 107.426,273.040 106.917 C 273.208 106.408,273.556 105.721,273.813 105.392 C 274.071 105.062,274.367 104.501,274.473 104.145 C 274.671 103.475,275.963 100.619,276.583 99.482 C 276.777 99.126,277.176 98.310,277.469 97.668 C 277.762 97.027,278.114 96.328,278.252 96.114 C 278.389 95.900,278.688 95.317,278.918 94.819 C 279.147 94.320,279.662 93.212,280.062 92.358 C 280.462 91.503,280.872 90.512,280.974 90.155 C 281.076 89.799,281.370 89.238,281.627 88.909 C 281.884 88.579,282.235 87.880,282.406 87.354 C 282.578 86.829,282.927 86.129,283.184 85.800 C 283.440 85.470,283.787 84.771,283.956 84.245 C 284.124 83.720,284.407 83.115,284.583 82.902 C 284.759 82.688,285.116 81.930,285.376 81.218 C 285.636 80.505,286.053 79.653,286.303 79.323 C 286.553 78.994,286.898 78.294,287.070 77.769 C 287.241 77.243,287.597 76.535,287.862 76.196 C 288.126 75.856,288.342 75.470,288.342 75.338 C 288.342 75.014,289.299 72.928,291.602 68.235 C 292.659 66.082,293.523 64.201,293.523 64.057 C 293.523 63.912,293.686 63.659,293.885 63.494 C 294.084 63.328,294.445 62.586,294.686 61.843 C 294.927 61.100,295.279 60.317,295.468 60.104 C 295.657 59.890,296.016 59.190,296.267 58.549 C 296.517 57.908,296.935 57.105,297.195 56.766 C 297.455 56.426,297.668 56.011,297.668 55.844 C 297.668 55.677,298.076 54.731,298.574 53.742 C 299.073 52.752,299.481 51.814,299.481 51.655 C 299.482 51.497,299.772 50.940,300.126 50.418 C 300.481 49.896,300.846 49.151,300.938 48.763 C 301.029 48.375,301.374 47.694,301.704 47.250 C 302.034 46.807,302.387 46.107,302.489 45.696 C 302.590 45.285,302.931 44.537,303.246 44.035 C 303.562 43.532,303.901 42.751,304.000 42.298 C 304.100 41.845,304.408 41.186,304.687 40.832 C 304.965 40.478,305.362 39.708,305.570 39.119 C 305.778 38.531,306.183 37.750,306.471 37.383 C 306.759 37.017,306.995 36.581,306.995 36.414 C 306.995 36.247,307.402 35.301,307.901 34.312 C 308.399 33.322,308.807 32.319,308.807 32.081 C 308.808 31.610,309.269 31.355,309.780 31.543 C 309.958 31.608,310.104 31.787,310.104 31.941 M198.046 50.423 C 197.522 51.243,196.930 52.460,196.732 53.128 C 196.534 53.796,196.203 54.482,195.998 54.652 C 195.792 54.823,195.437 55.527,195.207 56.218 C 194.978 56.908,194.628 57.608,194.429 57.773 C 193.821 58.277,193.450 59.742,193.776 60.350 C 194.216 61.173,204.228 61.176,204.668 60.353 C 205.004 59.726,204.800 58.963,204.012 57.902 C 203.695 57.474,203.356 56.788,203.259 56.377 C 203.161 55.965,202.796 55.255,202.447 54.798 C 202.099 54.341,201.813 53.828,201.813 53.659 C 201.813 52.948,199.774 49.186,199.306 49.033 C 199.137 48.978,198.571 49.603,198.046 50.423 M309.196 49.154 C 308.901 49.378,307.223 52.768,306.725 54.145 C 306.544 54.644,306.264 55.168,306.102 55.311 C 305.940 55.453,305.594 56.153,305.333 56.865 C 305.072 57.578,304.715 58.278,304.540 58.421 C 304.029 58.837,303.834 59.781,304.140 60.353 C 304.842 61.665,315.679 60.985,315.170 59.660 C 315.091 59.453,315.026 59.136,315.026 58.956 C 315.026 58.775,314.678 58.114,314.253 57.487 C 313.829 56.860,313.479 56.166,313.476 55.945 C 313.474 55.723,313.128 55.000,312.709 54.339 C 312.289 53.677,311.867 52.718,311.771 52.207 C 311.575 51.158,309.615 48.835,309.196 49.154 M85.109 50.453 C 84.759 51.130,84.230 52.209,83.934 52.850 C 83.639 53.491,83.282 54.190,83.143 54.404 C 83.003 54.618,82.651 55.317,82.361 55.959 C 82.070 56.600,81.540 57.727,81.181 58.464 C 80.033 60.823,80.150 60.881,86.117 60.881 C 92.242 60.881,92.825 60.464,90.818 57.519 C 90.475 57.017,90.069 56.124,89.914 55.535 C 89.760 54.946,89.474 54.332,89.279 54.170 C 89.084 54.009,88.780 53.360,88.603 52.728 C 88.427 52.097,88.062 51.382,87.794 51.139 C 87.525 50.896,87.306 50.558,87.306 50.389 C 87.306 50.005,86.465 49.223,86.052 49.223 C 85.884 49.223,85.460 49.777,85.109 50.453 M77.127 67.603 C 76.643 68.029,76.097 68.861,75.895 69.481 C 75.695 70.094,75.266 70.991,74.942 71.474 C 74.618 71.957,74.350 72.540,74.348 72.769 C 74.345 72.999,73.995 73.700,73.570 74.327 C 73.146 74.954,72.797 75.653,72.795 75.881 C 72.793 76.109,72.511 76.786,72.168 77.387 C 71.501 78.553,71.266 79.719,71.592 80.246 C 71.830 80.632,100.142 80.718,100.746 80.336 C 101.228 80.030,100.920 77.972,100.268 77.143 C 100.003 76.806,99.579 75.894,99.325 75.117 C 99.072 74.340,98.722 73.560,98.548 73.384 C 98.373 73.208,98.036 72.479,97.799 71.765 C 97.562 71.051,97.274 70.466,97.160 70.466 C 97.045 70.466,96.685 69.811,96.360 69.010 C 95.474 66.826,95.536 66.839,86.028 66.839 L 77.997 66.839 77.127 67.603 M190.674 67.022 C 190.046 67.252,189.119 68.194,189.119 68.602 C 189.119 68.809,188.782 69.575,188.369 70.305 C 187.957 71.035,187.541 72.006,187.445 72.462 C 187.349 72.918,187.065 73.560,186.815 73.887 C 186.564 74.214,186.154 75.006,185.904 75.648 C 185.654 76.289,185.290 76.990,185.097 77.206 C 184.566 77.798,184.167 79.833,184.503 80.238 C 184.901 80.718,213.603 80.726,213.900 80.246 C 214.236 79.703,213.983 78.417,213.352 77.461 C 213.023 76.962,212.676 76.218,212.581 75.807 C 212.486 75.395,212.135 74.696,211.802 74.252 C 211.469 73.809,211.111 73.042,211.006 72.549 C 210.901 72.055,210.546 71.239,210.216 70.735 C 209.887 70.231,209.539 69.499,209.444 69.109 C 209.349 68.719,208.872 68.048,208.383 67.619 L 207.495 66.839 199.279 66.860 C 194.760 66.871,190.887 66.944,190.674 67.022 M300.252 67.852 C 299.712 68.419,299.191 69.243,299.095 69.682 C 298.998 70.121,298.650 70.973,298.321 71.574 C 297.992 72.176,297.637 72.960,297.532 73.316 C 297.427 73.672,297.119 74.279,296.848 74.665 C 296.576 75.050,296.224 75.750,296.065 76.219 C 295.906 76.688,295.568 77.371,295.314 77.736 C 294.651 78.690,294.442 79.728,294.821 80.185 C 295.202 80.643,323.225 80.776,324.071 80.323 C 324.716 79.977,324.406 78.069,323.488 76.746 C 323.109 76.198,322.798 75.568,322.798 75.346 C 322.798 75.124,322.524 74.539,322.188 74.045 C 321.853 73.551,321.373 72.490,321.120 71.688 C 320.868 70.886,320.443 70.032,320.175 69.790 C 319.908 69.548,319.689 69.164,319.688 68.937 C 319.687 68.709,319.407 68.174,319.065 67.746 L 318.443 66.969 309.839 66.894 L 301.234 66.819 300.252 67.852 M67.996 86.771 C 67.253 87.078,66.932 87.536,66.605 88.762 C 66.448 89.348,66.109 90.106,65.851 90.445 C 65.593 90.785,65.179 91.607,64.931 92.272 C 64.683 92.938,64.312 93.623,64.106 93.794 C 63.899 93.965,63.731 94.235,63.731 94.395 C 63.731 94.554,63.311 95.534,62.798 96.571 C 61.907 98.375,61.884 98.487,62.286 99.100 L 62.706 99.741 86.127 99.741 C 107.625 99.741,109.584 99.706,109.979 99.310 C 110.522 98.767,110.332 97.648,109.481 96.379 C 109.144 95.877,108.789 95.117,108.693 94.689 C 108.596 94.262,108.252 93.504,107.928 93.005 C 107.604 92.506,107.255 91.762,107.153 91.351 C 107.051 90.939,106.697 90.240,106.367 89.796 C 106.037 89.353,105.699 88.698,105.615 88.342 C 105.187 86.521,106.756 86.664,86.614 86.606 C 76.664 86.578,68.286 86.652,67.996 86.771 M180.907 86.791 C 180.309 87.031,179.723 87.985,179.436 89.184 C 179.342 89.576,179.160 89.896,179.032 89.896 C 178.904 89.896,178.547 90.654,178.238 91.580 C 177.930 92.506,177.585 93.264,177.472 93.264 C 177.358 93.264,177.004 93.964,176.684 94.819 C 176.364 95.674,176.010 96.373,175.897 96.373 C 175.783 96.373,175.490 96.899,175.244 97.543 C 174.333 99.928,172.289 99.741,199.257 99.741 L 222.786 99.741 223.215 99.086 C 223.628 98.456,223.613 98.383,222.832 97.126 C 222.386 96.408,222.021 95.676,222.021 95.500 C 222.021 95.323,221.695 94.661,221.298 94.027 C 220.900 93.394,220.421 92.353,220.233 91.715 C 220.045 91.076,219.671 90.273,219.402 89.931 C 219.132 89.589,218.912 89.196,218.912 89.059 C 218.912 88.307,218.016 87.056,217.298 86.806 C 216.314 86.463,181.757 86.449,180.907 86.791 M291.710 86.711 C 290.922 87.000,290.142 87.948,289.874 88.945 C 289.722 89.508,289.330 90.393,289.003 90.911 C 288.676 91.429,288.328 92.221,288.229 92.670 C 288.130 93.120,287.895 93.616,287.706 93.772 C 287.517 93.929,287.103 94.753,286.785 95.604 C 286.467 96.454,286.123 97.150,286.020 97.150 C 285.499 97.150,285.221 98.518,285.619 99.125 L 286.022 99.741 309.562 99.741 L 333.101 99.741 333.514 99.111 C 333.956 98.436,333.611 97.069,332.753 96.101 C 332.557 95.880,332.222 95.202,332.007 94.595 C 331.793 93.987,331.385 93.194,331.100 92.833 C 330.816 92.471,330.510 91.750,330.419 91.230 C 330.329 90.710,329.982 89.877,329.650 89.378 C 329.317 88.880,328.923 88.149,328.776 87.754 C 328.628 87.360,328.206 86.923,327.838 86.783 C 327.136 86.516,292.431 86.448,291.710 86.711 M58.366 106.445 C 57.887 106.883,57.425 107.655,57.247 108.314 C 57.081 108.932,56.730 109.711,56.466 110.046 C 56.203 110.380,55.848 111.084,55.677 111.609 C 55.505 112.135,55.155 112.834,54.899 113.164 C 54.643 113.493,54.296 114.193,54.127 114.718 C 53.958 115.244,53.645 115.874,53.431 116.120 C 52.823 116.817,52.578 118.604,53.030 119.055 C 53.573 119.598,118.549 119.623,119.291 119.080 C 119.881 118.649,119.708 117.085,118.960 116.071 C 118.694 115.710,118.330 114.972,118.151 114.430 C 117.364 112.040,114.195 106.184,113.558 105.942 C 113.176 105.797,102.121 105.699,86.051 105.699 L 59.183 105.699 58.366 106.445 M171.576 106.092 C 171.003 106.493,168.912 110.499,168.912 111.195 C 168.912 111.407,168.564 112.093,168.139 112.720 C 167.715 113.347,167.364 114.035,167.361 114.249 C 167.358 114.462,167.007 115.162,166.580 115.803 C 165.691 117.141,165.494 118.997,166.213 119.273 C 167.247 119.670,232.052 119.441,232.385 119.039 C 232.797 118.543,232.570 116.654,232.048 116.236 C 231.840 116.069,231.456 115.350,231.195 114.637 C 230.934 113.925,230.578 113.225,230.404 113.083 C 230.230 112.940,229.887 112.183,229.642 111.399 C 229.398 110.615,229.048 109.799,228.866 109.585 C 228.684 109.372,228.305 108.661,228.024 108.006 C 227.743 107.350,227.194 106.563,226.805 106.257 L 226.096 105.699 199.116 105.699 C 175.432 105.699,172.068 105.747,171.576 106.092 M281.682 106.541 C 281.240 107.005,280.698 107.908,280.477 108.549 C 280.257 109.190,279.779 110.289,279.416 110.990 C 279.053 111.690,278.756 112.405,278.756 112.577 C 278.756 112.749,278.588 113.030,278.382 113.201 C 278.175 113.372,277.802 114.057,277.553 114.722 C 277.303 115.388,276.881 116.235,276.614 116.604 C 276.287 117.056,276.157 117.605,276.212 118.288 L 276.295 119.301 309.147 119.366 C 332.708 119.413,342.150 119.351,342.533 119.146 C 343.247 118.764,343.064 116.960,342.174 115.604 C 341.825 115.072,341.407 114.253,341.245 113.784 C 341.084 113.314,340.726 112.614,340.451 112.227 C 340.175 111.840,339.821 111.045,339.663 110.459 C 339.506 109.873,339.151 109.107,338.875 108.757 C 338.600 108.406,338.295 107.806,338.199 107.424 C 337.735 105.572,339.857 105.699,309.601 105.699 L 282.485 105.699 281.682 106.541 M49.158 125.843 C 48.766 126.086,48.446 126.407,48.446 126.555 C 48.446 126.968,50.018 130.649,50.382 131.088 C 50.559 131.302,50.839 131.880,51.005 132.372 C 51.170 132.864,51.507 133.564,51.753 133.926 C 52.000 134.289,52.442 135.217,52.738 135.989 C 53.728 138.580,50.451 138.359,86.746 138.281 L 118.440 138.212 118.931 137.605 C 119.202 137.271,119.546 136.542,119.696 135.986 C 119.846 135.429,120.059 134.974,120.169 134.974 C 120.409 134.974,121.244 133.288,121.244 132.803 C 121.244 132.616,121.478 132.192,121.764 131.862 C 122.051 131.532,122.453 130.697,122.658 130.007 C 122.862 129.317,123.211 128.495,123.432 128.179 C 123.883 127.535,123.951 126.493,123.581 125.907 C 123.177 125.268,50.183 125.205,49.158 125.843 M161.916 125.908 C 161.319 126.505,161.406 127.319,162.209 128.658 C 162.476 129.102,162.696 129.626,162.699 129.823 C 162.702 130.020,163.042 130.680,163.455 131.289 C 163.868 131.898,164.282 132.850,164.375 133.403 C 164.469 133.957,164.774 134.617,165.053 134.869 C 165.332 135.122,165.681 135.809,165.829 136.395 C 166.323 138.355,163.690 138.205,198.834 138.279 C 234.820 138.355,231.847 138.539,232.684 136.178 C 232.929 135.486,233.294 134.728,233.495 134.494 C 233.696 134.259,234.063 133.426,234.311 132.642 C 234.559 131.859,234.917 131.043,235.107 130.829 C 235.296 130.615,235.702 129.799,236.008 129.016 C 236.315 128.232,236.674 127.480,236.806 127.345 C 237.170 126.972,237.096 126.437,236.612 125.953 C 235.861 125.202,162.665 125.158,161.916 125.908 M272.860 125.561 C 271.810 125.984,272.217 128.532,273.677 130.684 C 274.049 131.231,274.352 131.854,274.352 132.069 C 274.352 132.283,274.760 133.307,275.259 134.344 C 275.758 135.381,276.166 136.343,276.166 136.481 C 276.166 136.620,276.580 137.098,277.087 137.543 L 278.009 138.352 309.978 138.282 C 345.652 138.204,342.407 138.374,342.874 136.558 C 342.961 136.218,343.306 135.577,343.639 135.133 C 343.972 134.689,344.324 133.841,344.421 133.248 C 344.518 132.656,344.817 131.972,345.086 131.728 C 345.355 131.485,345.761 130.726,345.988 130.041 C 346.215 129.357,346.567 128.659,346.769 128.491 C 347.398 127.970,347.537 126.477,347.011 125.896 C 346.569 125.408,274.053 125.080,272.860 125.561 M57.522 144.679 C 57.103 145.182,57.381 146.353,58.174 147.428 C 58.523 147.900,58.808 148.480,58.808 148.716 C 58.808 148.952,59.156 149.658,59.581 150.285 C 60.006 150.912,60.355 151.611,60.358 151.839 C 60.361 152.067,60.710 152.767,61.135 153.394 C 61.560 154.021,61.912 154.709,61.918 154.922 C 61.924 155.136,62.152 155.602,62.426 155.959 L 62.924 156.606 85.796 156.678 C 108.937 156.750,110.104 156.710,110.104 155.836 C 110.104 155.661,110.450 155.041,110.872 154.457 C 111.295 153.873,111.720 153.069,111.817 152.669 C 111.914 152.270,112.195 151.652,112.442 151.295 C 112.690 150.939,113.089 150.065,113.330 149.352 C 113.571 148.640,113.931 147.876,114.131 147.656 C 114.883 146.824,115.302 145.132,114.865 144.694 C 114.280 144.110,58.007 144.094,57.522 144.679 M170.475 144.679 C 170.101 145.129,170.509 146.645,171.266 147.620 C 171.523 147.949,171.872 148.649,172.044 149.174 C 172.215 149.700,172.571 150.407,172.835 150.746 C 173.098 151.085,173.436 151.817,173.586 152.371 C 174.006 153.933,175.550 156.390,176.224 156.571 C 177.004 156.780,221.158 156.722,222.114 156.511 C 222.939 156.328,224.370 154.010,225.034 151.780 C 225.230 151.120,225.558 150.441,225.764 150.270 C 225.969 150.100,226.328 149.388,226.560 148.688 C 226.792 147.988,227.102 147.342,227.248 147.251 C 227.798 146.912,228.264 145.350,227.976 144.813 C 227.607 144.122,171.046 143.991,170.475 144.679 M280.837 144.679 C 280.502 145.083,280.909 146.891,281.336 146.891 C 281.450 146.891,281.805 147.591,282.124 148.446 C 282.444 149.301,282.799 150.000,282.912 150.000 C 283.026 150.000,283.318 150.612,283.562 151.360 C 283.805 152.108,284.151 152.895,284.331 153.109 C 284.511 153.323,284.918 154.108,285.235 154.854 C 285.727 156.010,285.951 156.249,286.753 156.471 C 287.761 156.752,332.020 156.859,332.739 156.583 C 333.301 156.367,334.602 154.251,335.114 152.720 C 335.352 152.008,335.709 151.240,335.909 151.015 C 336.108 150.789,336.454 150.068,336.678 149.412 C 336.901 148.755,337.244 148.086,337.440 147.924 C 338.067 147.403,338.697 145.117,338.334 144.680 C 337.859 144.107,281.312 144.107,280.837 144.679 M66.827 162.911 C 66.117 163.486,66.391 165.103,67.495 166.853 C 67.847 167.410,68.135 168.003,68.135 168.172 C 68.135 168.340,68.452 169.013,68.839 169.666 C 69.227 170.320,69.723 171.201,69.940 171.625 C 70.522 172.754,70.378 172.744,86.473 172.772 C 101.997 172.799,102.591 172.759,102.591 171.692 C 102.591 171.543,102.867 171.060,103.204 170.618 C 103.541 170.175,103.902 169.407,104.005 168.909 C 104.108 168.412,104.457 167.596,104.779 167.095 C 105.102 166.594,105.454 165.895,105.560 165.541 C 105.666 165.186,105.915 164.640,106.112 164.327 C 106.587 163.573,106.351 163.051,105.381 162.712 C 103.787 162.157,67.528 162.344,66.827 162.911 M180.052 162.616 C 178.755 163.102,178.836 164.275,180.325 166.580 C 180.464 166.794,180.808 167.494,181.091 168.135 C 181.374 168.776,181.724 169.475,181.868 169.689 C 182.013 169.903,182.359 170.575,182.638 171.182 C 183.410 172.863,182.951 172.821,199.664 172.741 L 214.797 172.668 215.294 172.021 C 215.568 171.665,215.796 171.198,215.802 170.984 C 215.808 170.771,216.160 170.083,216.585 169.456 C 217.010 168.829,217.358 168.116,217.358 167.872 C 217.358 167.627,217.602 167.116,217.901 166.736 C 218.835 165.549,219.438 163.581,219.035 163.031 C 218.698 162.569,181.243 162.171,180.052 162.616 M290.024 162.863 C 289.456 163.430,289.651 164.756,290.490 166.034 C 290.827 166.548,291.236 167.353,291.397 167.822 C 291.559 168.292,291.929 169.011,292.221 169.420 C 292.512 169.829,292.824 170.531,292.914 170.980 C 293.262 172.723,292.711 172.668,309.816 172.668 L 325.225 172.668 325.954 171.503 C 326.354 170.861,326.859 169.929,327.074 169.430 C 327.289 168.931,327.637 168.232,327.847 167.876 C 328.057 167.519,328.410 166.820,328.632 166.321 C 329.291 164.838,329.513 164.402,329.851 163.930 C 330.115 163.561,330.091 163.400,329.714 163.023 C 329.018 162.326,290.715 162.172,290.024 162.863 M74.513 178.831 C 73.961 179.235,74.314 181.814,75.000 182.383 C 75.198 182.547,75.608 183.429,75.912 184.343 C 76.216 185.257,76.569 186.069,76.697 186.148 C 76.824 186.227,77.160 186.815,77.443 187.455 C 78.261 189.303,78.619 189.378,86.592 189.378 C 94.104 189.378,94.196 189.360,94.826 187.769 C 95.011 187.301,95.309 186.742,95.487 186.528 C 95.666 186.315,96.014 185.615,96.262 184.974 C 96.510 184.333,96.877 183.616,97.078 183.380 C 97.715 182.635,98.754 179.220,98.440 178.906 C 97.986 178.452,75.129 178.381,74.513 178.831 M187.343 178.775 C 186.899 178.953,186.783 179.141,186.918 179.471 C 187.020 179.719,187.251 180.538,187.431 181.292 C 187.612 182.045,187.946 182.866,188.174 183.118 C 188.401 183.369,188.768 184.088,188.990 184.715 C 189.211 185.342,189.552 186.036,189.748 186.257 C 189.944 186.477,190.272 187.066,190.478 187.565 C 191.176 189.255,191.110 189.240,198.416 189.330 C 206.393 189.428,207.085 189.307,207.798 187.696 C 208.060 187.103,208.504 186.326,208.785 185.970 C 209.065 185.613,209.375 184.981,209.474 184.565 C 209.573 184.149,209.913 183.459,210.231 183.031 C 211.014 181.976,211.466 179.379,210.956 178.868 C 210.515 178.428,188.428 178.340,187.343 178.775 M297.869 178.774 C 297.262 179.127,297.527 181.120,298.357 182.443 C 298.691 182.975,298.964 183.485,298.964 183.578 C 298.964 184.561,301.458 188.662,302.261 188.997 C 303.974 189.713,316.705 189.543,317.397 188.795 C 318.211 187.915,319.689 185.437,319.689 184.953 C 319.689 184.718,319.942 184.205,320.251 183.812 C 320.560 183.419,321.014 182.383,321.261 181.510 C 321.508 180.637,321.792 179.720,321.892 179.473 C 322.027 179.138,321.897 178.956,321.383 178.760 C 320.450 178.405,298.479 178.418,297.869 178.774 M82.272 195.485 C 81.609 196.148,81.879 197.578,82.906 198.834 C 83.138 199.119,83.484 199.846,83.674 200.450 C 83.863 201.053,84.233 201.742,84.496 201.979 C 84.759 202.217,84.975 202.598,84.975 202.825 C 84.977 203.441,85.980 204.971,86.267 204.794 C 86.663 204.550,88.228 202.031,88.604 201.036 C 88.792 200.538,89.092 199.955,89.271 199.741 C 89.450 199.527,89.855 198.603,90.171 197.687 L 90.746 196.022 90.163 195.550 C 89.353 194.894,82.916 194.841,82.272 195.485 M195.114 195.617 C 194.664 196.100,194.649 196.227,194.973 196.847 C 195.171 197.228,195.334 197.703,195.335 197.903 C 195.336 198.103,195.613 198.629,195.950 199.071 C 196.288 199.514,196.651 200.283,196.758 200.780 C 196.985 201.839,198.596 204.566,199.112 204.764 C 199.448 204.893,200.259 204.031,200.259 203.545 C 200.259 203.420,200.506 202.971,200.808 202.547 C 201.110 202.123,201.514 201.254,201.706 200.616 C 201.898 199.978,202.275 199.141,202.543 198.757 C 203.432 197.479,203.682 196.366,203.234 195.682 C 202.653 194.796,195.929 194.741,195.114 195.617 M305.575 195.498 C 305.039 196.034,305.252 197.188,306.124 198.476 C 306.473 198.991,306.882 199.866,307.032 200.419 C 307.182 200.972,307.453 201.600,307.633 201.813 C 307.813 202.027,308.167 202.756,308.419 203.433 C 309.109 205.281,310.849 204.386,311.698 201.746 C 311.846 201.284,312.506 199.814,313.163 198.479 L 314.359 196.052 313.757 195.565 C 312.915 194.883,306.244 194.829,305.575 195.498 " stroke="none" fill="#ffffff" fill-rule="evenodd"></path></g></svg>