<svg id="svg" xmlns="http://www.w3.org/2000/svg" xmlns:xlink="http://www.w3.org/1999/xlink" width="400" height="259" viewBox="0, 0, 400,259" version="1.1"><g id="svgg"><path id="path0" d="M78.886 39.134 C 75.210 39.332,74.904 39.385,70.984 40.508 C 63.985 42.513,54.638 48.672,50.681 53.886 C 50.087 54.670,49.041 56.026,48.358 56.899 C 47.674 57.773,46.919 58.840,46.679 59.271 C 44.092 63.926,42.661 67.037,42.072 69.289 C 41.850 70.138,41.512 71.134,41.320 71.504 C 39.938 74.177,39.706 82.912,39.689 132.902 C 39.674 174.672,39.850 179.693,41.462 183.366 C 41.730 183.978,42.026 184.910,42.120 185.439 C 42.214 185.967,42.554 186.924,42.877 187.565 C 43.199 188.206,43.896 189.663,44.426 190.803 C 45.437 192.980,45.748 193.513,47.805 196.587 C 49.605 199.277,58.034 207.772,58.903 207.772 C 59.038 207.772,59.509 208.041,59.950 208.369 C 62.887 210.558,68.206 212.965,72.702 214.141 C 74.108 214.510,75.725 214.940,76.295 215.098 C 78.396 215.681,90.560 215.482,92.374 214.836 C 93.238 214.528,94.775 214.103,95.789 213.891 C 96.803 213.680,97.903 213.335,98.233 213.126 C 98.564 212.917,99.242 212.660,99.741 212.556 C 100.549 212.387,103.082 211.159,106.477 209.290 C 111.868 206.321,119.772 198.121,122.173 193.005 C 122.407 192.506,122.810 191.800,123.069 191.435 C 123.329 191.070,123.623 190.429,123.724 190.010 C 123.825 189.591,124.122 188.822,124.383 188.300 C 125.131 186.805,126.624 182.125,126.808 180.699 C 126.899 179.987,127.229 178.238,127.541 176.813 L 128.109 174.223 128.109 126.813 C 128.109 83.238,128.074 79.277,127.674 77.837 C 127.435 76.976,127.158 75.518,127.059 74.599 C 126.758 71.817,124.495 65.479,122.377 61.485 C 119.159 55.420,113.512 49.409,107.160 45.289 C 105.376 44.132,102.477 42.575,101.513 42.257 C 101.014 42.092,100.153 41.727,99.600 41.445 C 99.047 41.163,98.447 40.933,98.265 40.933 C 98.084 40.933,96.877 40.581,95.583 40.151 C 92.084 38.989,87.176 38.690,78.886 39.134 M193.653 39.120 C 190.671 39.297,189.599 39.478,187.626 40.134 C 186.306 40.573,185.101 40.933,184.949 40.933 C 183.929 40.933,178.352 43.727,174.870 45.984 C 172.179 47.728,166.454 53.033,164.665 55.440 C 162.109 58.880,159.042 64.223,158.540 66.109 C 158.377 66.724,158.032 67.578,157.775 68.005 C 157.517 68.433,157.164 69.482,156.990 70.337 C 156.817 71.192,156.449 72.466,156.172 73.168 C 155.299 75.390,155.198 80.948,155.196 126.813 C 155.194 171.874,155.314 179.149,156.086 180.989 C 156.318 181.542,156.723 182.869,156.986 183.938 C 157.717 186.907,160.808 193.653,162.151 195.207 C 162.397 195.492,162.813 196.075,163.075 196.503 C 164.287 198.478,167.653 202.319,170.041 204.448 C 172.364 206.520,173.964 207.694,177.202 209.705 C 179.752 211.288,183.488 212.825,187.306 213.860 C 188.517 214.188,190.266 214.663,191.192 214.914 C 193.947 215.662,205.421 215.574,207.858 214.786 C 208.832 214.472,210.251 214.113,211.012 213.989 C 211.772 213.866,213.016 213.481,213.775 213.135 C 214.534 212.790,215.436 212.418,215.780 212.311 C 216.712 212.018,219.160 210.832,220.337 210.102 C 220.907 209.749,221.689 209.284,222.074 209.069 C 226.655 206.520,231.918 201.378,235.981 195.482 C 238.722 191.506,241.792 183.568,242.500 178.627 C 243.232 173.517,243.485 82.245,242.782 76.943 C 242.405 74.106,241.221 69.396,240.541 68.032 C 240.187 67.320,239.896 66.583,239.896 66.395 C 239.896 65.998,238.213 62.473,236.983 60.295 C 231.263 50.168,219.493 41.679,208.161 39.507 C 205.781 39.050,198.217 38.849,193.653 39.120 M309.197 39.138 C 305.864 39.355,305.214 39.475,301.813 40.501 C 299.252 41.274,296.675 42.319,294.301 43.548 C 292.662 44.396,292.157 44.724,288.083 47.584 C 284.168 50.332,278.731 56.555,276.274 61.101 C 275.916 61.764,275.460 62.597,275.261 62.953 C 274.479 64.351,273.328 67.160,273.162 68.077 C 273.066 68.607,272.784 69.449,272.537 69.948 C 272.289 70.447,271.695 72.778,271.218 75.130 L 270.349 79.404 270.344 127.332 L 270.338 175.259 271.186 179.275 C 274.395 194.474,285.320 207.873,298.203 212.408 C 298.978 212.680,299.961 213.083,300.389 213.303 C 300.816 213.522,301.967 213.829,302.947 213.985 C 303.927 214.141,305.143 214.442,305.649 214.654 C 307.800 215.553,319.491 215.831,322.280 215.050 C 322.778 214.910,324.469 214.456,326.036 214.041 C 337.553 210.993,346.893 203.416,353.421 191.824 C 353.949 190.887,354.455 189.866,354.546 189.555 C 354.637 189.244,355.038 188.232,355.436 187.306 C 357.752 181.922,358.457 177.327,358.837 165.155 C 359.180 154.179,358.973 81.878,358.594 80.440 C 358.444 79.870,358.184 78.122,358.017 76.554 C 357.849 74.987,357.376 72.612,356.965 71.276 C 356.554 69.941,356.218 68.694,356.218 68.505 C 356.218 67.753,351.787 59.102,350.731 57.794 C 350.400 57.383,349.642 56.365,349.046 55.532 C 345.595 50.706,336.632 43.711,331.995 42.225 C 331.425 42.042,330.552 41.677,330.056 41.413 C 329.559 41.149,329.030 40.933,328.879 40.933 C 328.729 40.933,327.526 40.582,326.205 40.154 C 322.593 38.984,316.854 38.641,309.197 39.138 M88.744 48.710 C 89.161 48.868,90.412 49.171,91.523 49.381 C 96.641 50.352,102.085 53.364,107.160 58.031 C 110.290 60.910,114.135 66.296,115.021 69.041 C 115.205 69.611,115.588 70.541,115.873 71.107 C 116.158 71.674,116.549 72.839,116.742 73.698 C 116.934 74.557,117.294 75.900,117.542 76.684 C 118.300 79.086,118.389 175.594,117.635 177.391 C 117.350 178.071,116.939 179.416,116.721 180.381 C 115.434 186.096,108.138 196.770,104.087 198.864 C 103.620 199.105,102.830 199.629,102.332 200.028 C 94.874 205.991,79.947 207.306,70.570 202.827 C 69.700 202.412,68.902 202.073,68.795 202.073 C 68.689 202.073,67.884 201.638,67.008 201.107 C 59.337 196.456,52.060 186.924,50.787 179.858 C 50.627 178.968,50.307 177.744,50.076 177.138 C 49.330 175.180,49.221 79.540,49.963 77.503 C 50.257 76.696,50.630 75.395,50.792 74.611 C 50.955 73.828,51.355 72.545,51.682 71.762 C 52.009 70.978,52.465 69.805,52.696 69.155 C 53.896 65.770,60.177 57.712,63.244 55.622 C 64.010 55.100,65.104 54.344,65.674 53.943 C 70.840 50.304,78.422 48.115,85.120 48.329 C 86.696 48.380,88.327 48.551,88.744 48.710 M202.591 48.432 C 217.537 51.190,227.350 59.530,231.871 73.316 C 233.464 78.175,233.504 79.740,233.327 130.440 C 233.179 172.918,233.058 178.732,232.296 179.894 C 232.087 180.214,231.673 181.283,231.376 182.271 C 228.018 193.455,215.893 203.820,204.534 205.215 C 201.325 205.610,192.487 205.364,190.933 204.837 C 183.578 202.343,179.911 200.154,175.257 195.481 C 172.649 192.861,171.877 191.870,169.560 188.163 C 168.694 186.779,167.111 183.450,167.103 182.999 C 167.101 182.839,166.873 182.198,166.597 181.574 C 166.321 180.951,165.772 178.808,165.377 176.813 L 164.659 173.187 164.577 132.254 C 164.467 77.378,164.595 75.296,168.500 68.111 C 168.996 67.198,169.696 65.909,170.055 65.247 C 171.546 62.496,176.273 57.212,178.748 55.532 C 179.251 55.189,180.130 54.556,180.699 54.124 C 181.269 53.692,182.377 53.038,183.161 52.669 C 183.944 52.301,184.760 51.856,184.974 51.680 C 185.188 51.505,185.829 51.212,186.399 51.030 C 186.969 50.848,187.687 50.535,187.995 50.335 C 188.468 50.027,191.800 49.240,195.984 48.448 C 197.402 48.179,201.171 48.171,202.591 48.432 M321.382 49.181 C 331.048 51.430,338.640 56.937,343.736 65.398 C 344.332 66.387,344.819 67.310,344.819 67.450 C 344.819 67.591,344.985 67.889,345.187 68.114 C 346.645 69.732,348.680 77.758,348.969 83.031 C 349.514 92.970,349.270 173.875,348.691 175.542 C 348.398 176.384,347.945 178.063,347.684 179.275 C 345.402 189.873,336.152 200.137,325.588 203.794 C 321.742 205.125,321.199 205.219,316.441 205.366 C 311.189 205.529,307.341 205.191,305.474 204.404 C 304.814 204.126,303.692 203.773,302.979 203.619 C 302.267 203.465,301.409 203.160,301.072 202.940 C 300.736 202.721,299.694 202.142,298.758 201.653 C 297.821 201.165,296.641 200.448,296.135 200.059 C 295.629 199.670,294.748 199.052,294.175 198.686 C 289.611 195.762,283.027 186.286,281.768 180.829 C 281.555 179.903,281.169 178.679,280.910 178.109 C 279.898 175.877,280.123 76.894,281.143 75.337 C 281.359 75.006,281.673 74.096,281.840 73.314 C 283.587 65.114,293.584 53.977,301.864 51.007 C 302.763 50.684,303.731 50.274,304.016 50.093 C 304.301 49.913,305.541 49.590,306.772 49.376 C 308.003 49.161,309.519 48.867,310.140 48.722 C 312.141 48.255,312.521 48.225,315.285 48.311 C 317.144 48.369,319.075 48.644,321.382 49.181 " stroke="none" fill="#21a658" fill-rule="evenodd"></path><path id="path1" d="M0.000 129.534 L 0.000 259.067 200.000 259.067 L 400.000 259.067 400.000 129.534 L 400.000 0.000 200.000 0.000 L 0.000 0.000 0.000 129.534 M89.556 39.119 C 92.492 39.319,93.704 39.527,95.583 40.151 C 96.877 40.581,98.084 40.933,98.265 40.933 C 98.447 40.933,99.047 41.163,99.600 41.445 C 100.153 41.727,101.014 42.092,101.513 42.257 C 103.086 42.776,106.463 44.743,109.775 47.067 C 114.172 50.154,119.754 56.541,122.377 61.485 C 124.495 65.479,126.758 71.817,127.059 74.599 C 127.158 75.518,127.435 76.976,127.674 77.837 C 128.074 79.277,128.109 83.238,128.109 126.813 L 128.109 174.223 127.541 176.813 C 127.229 178.238,126.899 179.987,126.808 180.699 C 126.624 182.125,125.131 186.805,124.383 188.300 C 124.122 188.822,123.825 189.591,123.724 190.010 C 123.623 190.429,123.329 191.070,123.069 191.435 C 122.810 191.800,122.407 192.506,122.173 193.005 C 119.772 198.121,111.868 206.321,106.477 209.290 C 103.082 211.159,100.549 212.387,99.741 212.556 C 99.242 212.660,98.564 212.917,98.233 213.126 C 97.903 213.335,96.803 213.680,95.789 213.891 C 94.775 214.103,93.238 214.528,92.374 214.836 C 90.560 215.482,78.396 215.681,76.295 215.098 C 75.725 214.940,74.108 214.510,72.702 214.141 C 68.206 212.965,62.887 210.558,59.950 208.369 C 59.509 208.041,59.038 207.772,58.903 207.772 C 58.034 207.772,49.605 199.277,47.805 196.587 C 45.748 193.513,45.437 192.980,44.426 190.803 C 43.896 189.663,43.199 188.206,42.877 187.565 C 42.554 186.924,42.214 185.967,42.120 185.439 C 42.026 184.910,41.730 183.978,41.462 183.366 C 39.850 179.693,39.674 174.672,39.689 132.902 C 39.706 82.912,39.938 74.177,41.320 71.504 C 41.512 71.134,41.850 70.138,42.072 69.289 C 42.661 67.037,44.092 63.926,46.679 59.271 C 46.919 58.840,47.674 57.773,48.358 56.899 C 49.041 56.026,50.087 54.670,50.681 53.886 C 54.638 48.672,63.985 42.513,70.984 40.508 C 74.904 39.385,75.210 39.332,78.886 39.134 C 84.275 38.845,85.526 38.844,89.556 39.119 M208.161 39.507 C 219.493 41.679,231.263 50.168,236.983 60.295 C 238.213 62.473,239.896 65.998,239.896 66.395 C 239.896 66.583,240.187 67.320,240.541 68.032 C 241.221 69.396,242.405 74.106,242.782 76.943 C 243.485 82.245,243.232 173.517,242.500 178.627 C 241.792 183.568,238.722 191.506,235.981 195.482 C 231.918 201.378,226.655 206.520,222.074 209.069 C 221.689 209.284,220.907 209.749,220.337 210.102 C 219.160 210.832,216.712 212.018,215.780 212.311 C 215.436 212.418,214.534 212.790,213.775 213.135 C 213.016 213.481,211.772 213.866,211.012 213.989 C 210.251 214.113,208.832 214.472,207.858 214.786 C 205.421 215.574,193.947 215.662,191.192 214.914 C 190.266 214.663,188.517 214.188,187.306 213.860 C 184.367 213.063,182.392 212.341,180.052 211.208 C 174.583 208.561,169.133 204.254,165.482 199.692 C 164.420 198.365,163.337 196.930,163.075 196.503 C 162.813 196.075,162.397 195.492,162.151 195.207 C 160.808 193.653,157.717 186.907,156.986 183.938 C 156.723 182.869,156.318 181.542,156.086 180.989 C 155.314 179.149,155.194 171.874,155.196 126.813 C 155.198 80.948,155.299 75.390,156.172 73.168 C 156.449 72.466,156.817 71.192,156.990 70.337 C 157.164 69.482,157.517 68.433,157.775 68.005 C 158.032 67.578,158.377 66.724,158.540 66.109 C 159.042 64.223,162.109 58.880,164.665 55.440 C 166.454 53.033,172.179 47.728,174.870 45.984 C 178.352 43.727,183.929 40.933,184.949 40.933 C 185.101 40.933,186.306 40.573,187.626 40.134 C 191.378 38.886,203.060 38.529,208.161 39.507 M320.257 39.120 C 322.994 39.318,324.353 39.554,326.205 40.154 C 327.526 40.582,328.729 40.933,328.879 40.933 C 329.030 40.933,329.559 41.149,330.056 41.413 C 330.552 41.677,331.425 42.042,331.995 42.225 C 333.819 42.810,338.396 45.485,340.803 47.375 C 343.364 49.385,347.763 53.739,349.046 55.532 C 349.642 56.365,350.400 57.383,350.731 57.794 C 351.787 59.102,356.218 67.753,356.218 68.505 C 356.218 68.694,356.554 69.941,356.965 71.276 C 357.376 72.612,357.849 74.987,358.017 76.554 C 358.184 78.122,358.444 79.870,358.594 80.440 C 358.973 81.878,359.180 154.179,358.837 165.155 C 358.457 177.327,357.752 181.922,355.436 187.306 C 355.038 188.232,354.637 189.244,354.546 189.555 C 354.455 189.866,353.949 190.887,353.421 191.824 C 346.893 203.416,337.553 210.993,326.036 214.041 C 324.469 214.456,322.778 214.910,322.280 215.050 C 319.491 215.831,307.800 215.553,305.649 214.654 C 305.143 214.442,303.927 214.141,302.947 213.985 C 301.967 213.829,300.816 213.522,300.389 213.303 C 299.961 213.083,298.978 212.680,298.203 212.408 C 285.320 207.873,274.395 194.474,271.186 179.275 L 270.338 175.259 270.344 127.332 L 270.349 79.404 271.218 75.130 C 271.695 72.778,272.289 70.447,272.537 69.948 C 272.784 69.449,273.066 68.607,273.162 68.077 C 273.328 67.160,274.479 64.351,275.261 62.953 C 275.460 62.597,275.916 61.764,276.274 61.101 C 278.731 56.555,284.168 50.332,288.083 47.584 C 292.157 44.724,292.662 44.396,294.301 43.548 C 297.442 41.922,301.413 40.459,305.052 39.588 C 307.555 38.989,315.179 38.754,320.257 39.120 M81.218 48.344 C 80.210 48.448,78.439 48.816,75.259 49.582 C 72.494 50.248,68.046 52.272,65.674 53.943 C 65.104 54.344,64.010 55.100,63.244 55.622 C 60.177 57.712,53.896 65.770,52.696 69.155 C 52.465 69.805,52.009 70.978,51.682 71.762 C 51.355 72.545,50.955 73.828,50.792 74.611 C 50.630 75.395,50.257 76.696,49.963 77.503 C 49.221 79.540,49.330 175.180,50.076 177.138 C 50.307 177.744,50.627 178.968,50.787 179.858 C 52.060 186.924,59.337 196.456,67.008 201.107 C 67.884 201.638,68.689 202.073,68.795 202.073 C 68.902 202.073,69.700 202.412,70.570 202.827 C 79.947 207.306,94.874 205.991,102.332 200.028 C 102.830 199.629,103.620 199.105,104.087 198.864 C 108.138 196.770,115.434 186.096,116.721 180.381 C 116.939 179.416,117.350 178.071,117.635 177.391 C 118.389 175.594,118.300 79.086,117.542 76.684 C 117.294 75.900,116.934 74.557,116.742 73.698 C 116.549 72.839,116.158 71.674,115.873 71.107 C 115.588 70.541,115.205 69.611,115.021 69.041 C 114.135 66.296,110.290 60.910,107.160 58.031 C 102.085 53.364,96.641 50.352,91.523 49.381 C 90.412 49.171,89.161 48.868,88.744 48.710 C 87.942 48.405,82.971 48.164,81.218 48.344 M195.984 48.448 C 191.800 49.240,188.468 50.027,187.995 50.335 C 187.687 50.535,186.969 50.848,186.399 51.030 C 185.829 51.212,185.188 51.505,184.974 51.680 C 184.760 51.856,183.944 52.301,183.161 52.669 C 182.377 53.038,181.269 53.692,180.699 54.124 C 180.130 54.556,179.251 55.189,178.748 55.532 C 176.273 57.212,171.546 62.496,170.055 65.247 C 169.696 65.909,168.996 67.198,168.500 68.111 C 164.595 75.296,164.467 77.378,164.577 132.254 L 164.659 173.187 165.377 176.813 C 165.772 178.808,166.321 180.951,166.597 181.574 C 166.873 182.198,167.101 182.839,167.103 182.999 C 167.111 183.450,168.694 186.779,169.560 188.163 C 171.877 191.870,172.649 192.861,175.257 195.481 C 179.911 200.154,183.578 202.343,190.933 204.837 C 192.487 205.364,201.325 205.610,204.534 205.215 C 215.893 203.820,228.018 193.455,231.376 182.271 C 231.673 181.283,232.087 180.214,232.296 179.894 C 233.058 178.732,233.179 172.918,233.327 130.440 C 233.504 79.740,233.464 78.175,231.871 73.316 C 227.822 60.970,218.472 52.087,206.606 49.314 C 201.659 48.157,198.763 47.921,195.984 48.448 M311.917 48.342 C 311.561 48.406,310.761 48.577,310.140 48.722 C 309.519 48.867,308.003 49.161,306.772 49.376 C 305.541 49.590,304.301 49.913,304.016 50.093 C 303.731 50.274,302.763 50.684,301.864 51.007 C 293.584 53.977,283.587 65.114,281.840 73.314 C 281.673 74.096,281.359 75.006,281.143 75.337 C 280.123 76.894,279.898 175.877,280.910 178.109 C 281.169 178.679,281.555 179.903,281.768 180.829 C 283.027 186.286,289.611 195.762,294.175 198.686 C 294.748 199.052,295.629 199.670,296.135 200.059 C 296.641 200.448,297.821 201.165,298.758 201.653 C 299.694 202.142,300.736 202.721,301.072 202.940 C 301.409 203.160,302.267 203.465,302.979 203.619 C 303.692 203.773,304.814 204.126,305.474 204.404 C 308.127 205.523,319.172 205.803,322.409 204.834 C 335.427 200.938,345.133 191.123,347.684 179.275 C 347.945 178.063,348.398 176.384,348.691 175.542 C 349.270 173.875,349.514 92.970,348.969 83.031 C 348.680 77.758,346.645 69.732,345.187 68.114 C 344.985 67.889,344.819 67.591,344.819 67.450 C 344.819 66.595,341.040 61.229,338.761 58.849 C 332.186 51.982,319.440 46.994,311.917 48.342 " stroke="none" fill="#ffffff" fill-rule="evenodd"></path></g></svg>