<svg id="svg" version="1.1" xmlns="http://www.w3.org/2000/svg" xmlns:xlink="http://www.w3.org/1999/xlink" width="400" height="258.91472868217056" viewBox="0, 0, 400,258.91472868217056"><g id="svgg"><path id="path0" d="M79.145 40.657 C 78.860 40.789,78.192 40.904,77.661 40.914 C 77.129 40.924,76.255 41.104,75.718 41.314 C 75.180 41.523,74.032 41.805,73.165 41.940 C 72.297 42.075,70.873 42.486,69.999 42.854 C 69.125 43.222,68.202 43.524,67.948 43.524 C 67.695 43.525,66.962 43.874,66.321 44.301 C 65.680 44.727,65.003 45.076,64.817 45.077 C 64.452 45.078,61.260 46.888,60.616 47.459 C 60.400 47.651,59.671 48.132,58.997 48.527 C 58.323 48.922,57.772 49.348,57.772 49.475 C 57.772 49.602,57.550 49.776,57.279 49.863 C 56.750 50.030,51.982 54.641,51.235 55.706 C 50.988 56.059,50.201 57.100,49.486 58.020 C 48.771 58.941,48.187 59.824,48.187 59.983 C 48.187 60.142,47.901 60.540,47.552 60.868 C 47.203 61.196,46.846 61.790,46.759 62.188 C 46.672 62.587,46.317 63.218,45.971 63.592 C 45.624 63.965,45.265 64.586,45.171 64.972 C 45.078 65.358,44.669 66.384,44.262 67.253 C 43.856 68.122,43.523 69.033,43.523 69.277 C 43.523 69.521,43.240 70.326,42.893 71.065 C 42.547 71.804,42.125 73.342,41.956 74.482 C 41.787 75.622,41.568 77.079,41.470 77.720 C 41.372 78.361,41.152 79.141,40.983 79.452 C 40.341 80.627,40.560 173.591,41.211 176.492 C 41.506 177.809,41.902 179.829,42.091 180.982 C 42.280 182.135,42.665 183.534,42.948 184.091 C 43.230 184.648,43.543 185.592,43.642 186.190 C 43.742 186.787,43.984 187.410,44.181 187.573 C 44.379 187.737,44.770 188.485,45.050 189.235 C 45.331 189.985,45.860 191.040,46.226 191.579 C 46.592 192.118,46.894 192.689,46.898 192.847 C 46.902 193.005,47.252 193.593,47.676 194.152 C 48.099 194.712,48.446 195.280,48.446 195.414 C 48.446 195.547,48.793 196.080,49.218 196.598 C 49.643 197.115,50.314 197.932,50.708 198.412 C 53.090 201.313,57.217 205.133,59.391 206.449 C 59.926 206.772,60.363 207.135,60.363 207.255 C 60.363 207.375,60.757 207.603,61.238 207.762 C 61.720 207.921,62.321 208.279,62.574 208.559 C 62.827 208.839,63.181 209.067,63.361 209.067 C 63.540 209.067,64.428 209.460,65.333 209.940 C 66.238 210.421,67.371 210.900,67.851 211.005 C 68.330 211.110,69.261 211.461,69.918 211.784 C 70.576 212.107,71.746 212.451,72.519 212.548 C 73.292 212.645,74.156 212.848,74.439 213.000 C 77.000 214.371,90.041 214.383,92.634 213.018 C 92.910 212.873,93.776 212.670,94.560 212.568 C 95.343 212.465,96.522 212.115,97.180 211.789 C 97.838 211.463,98.768 211.110,99.248 211.005 C 99.727 210.900,100.860 210.421,101.765 209.940 C 102.670 209.460,103.562 209.067,103.746 209.067 C 103.931 209.067,104.240 208.877,104.434 208.643 C 104.627 208.410,105.253 208.017,105.825 207.770 C 106.397 207.523,107.087 207.073,107.359 206.769 C 107.630 206.466,107.960 206.218,108.092 206.218 C 108.345 206.218,111.468 203.634,111.615 203.303 C 111.662 203.196,111.837 203.105,112.003 203.100 C 112.441 203.088,116.305 198.662,117.876 196.373 C 118.218 195.874,118.593 195.400,118.709 195.319 C 118.936 195.161,119.763 193.697,120.858 191.516 C 121.233 190.767,121.627 190.155,121.733 190.155 C 121.839 190.155,122.134 189.485,122.389 188.666 C 122.644 187.847,123.073 186.813,123.343 186.368 C 123.613 185.924,123.834 185.323,123.834 185.033 C 123.834 184.744,124.181 183.475,124.606 182.214 C 126.019 178.014,126.005 178.567,126.021 127.720 C 126.037 78.096,125.995 76.085,124.869 73.187 C 124.593 72.474,124.182 71.090,123.958 70.111 C 123.733 69.132,123.381 68.163,123.176 67.958 C 122.971 67.753,122.611 66.922,122.377 66.111 C 122.143 65.300,121.675 64.308,121.338 63.905 C 121.001 63.502,120.725 63.030,120.725 62.855 C 120.725 62.680,120.390 62.077,119.981 61.515 C 119.571 60.952,119.155 60.230,119.057 59.909 C 118.958 59.589,118.776 59.326,118.652 59.326 C 118.528 59.326,118.165 58.860,117.845 58.290 C 117.524 57.720,117.176 57.254,117.072 57.254 C 116.967 57.254,116.615 56.817,116.290 56.282 C 115.530 55.035,111.130 50.626,109.488 49.467 C 106.064 47.050,104.918 46.350,101.580 44.639 C 100.384 44.025,99.240 43.523,99.038 43.523 C 98.837 43.523,98.068 43.239,97.329 42.891 C 96.589 42.543,95.052 42.081,93.912 41.865 C 92.772 41.648,91.082 41.281,90.155 41.051 C 88.219 40.569,79.975 40.274,79.145 40.657 M194.560 40.719 C 193.776 40.849,192.610 41.123,191.969 41.327 C 191.328 41.532,189.929 41.831,188.860 41.993 C 187.791 42.154,186.393 42.565,185.753 42.905 C 185.113 43.245,184.379 43.523,184.121 43.523 C 183.652 43.523,182.109 44.222,181.865 44.544 C 181.794 44.639,181.194 44.919,180.532 45.167 C 179.870 45.415,179.065 45.846,178.744 46.125 C 178.422 46.404,178.018 46.632,177.846 46.632 C 177.673 46.632,177.098 46.977,176.567 47.399 C 176.036 47.821,175.379 48.237,175.105 48.324 C 174.370 48.557,166.062 56.506,166.062 56.976 C 166.062 57.078,165.712 57.552,165.285 58.031 C 164.858 58.510,164.508 59.051,164.508 59.235 C 164.508 59.418,164.174 59.950,163.766 60.418 C 163.357 60.886,162.938 61.544,162.833 61.879 C 162.728 62.214,162.368 62.893,162.032 63.388 C 161.696 63.883,161.344 64.541,161.250 64.851 C 161.156 65.161,160.914 65.603,160.712 65.833 C 160.511 66.062,160.122 67.035,159.848 67.995 C 159.573 68.954,159.221 69.892,159.065 70.081 C 158.909 70.269,158.555 71.546,158.279 72.918 C 158.003 74.290,157.677 75.612,157.555 75.854 C 156.756 77.441,156.696 81.578,156.781 129.404 L 156.865 177.332 157.421 178.799 C 157.726 179.605,158.122 181.121,158.301 182.166 C 158.480 183.212,158.831 184.417,159.082 184.845 C 159.333 185.272,159.672 186.146,159.837 186.788 C 160.001 187.429,160.340 188.245,160.590 188.601 C 160.839 188.957,161.247 189.764,161.496 190.393 C 161.744 191.022,162.174 191.825,162.450 192.177 C 162.727 192.528,162.953 192.954,162.953 193.124 C 162.953 193.293,163.300 193.889,163.723 194.449 C 164.147 195.008,164.497 195.590,164.501 195.742 C 164.505 195.893,164.858 196.352,165.285 196.762 C 165.712 197.171,166.062 197.581,166.062 197.673 C 166.062 198.059,170.651 202.834,172.158 204.016 C 172.703 204.443,173.390 205.026,173.684 205.311 C 174.172 205.783,175.489 206.670,178.593 208.614 C 179.219 209.006,179.903 209.326,180.114 209.326 C 180.325 209.326,180.920 209.613,181.435 209.963 C 181.951 210.313,182.852 210.728,183.437 210.886 C 184.023 211.043,184.941 211.401,185.477 211.680 C 186.013 211.960,187.198 212.317,188.109 212.475 C 189.021 212.633,190.058 212.907,190.415 213.085 C 192.557 214.155,205.283 214.359,207.772 213.363 C 208.413 213.106,209.637 212.783,210.492 212.644 C 211.347 212.506,212.758 212.052,213.627 211.637 C 214.497 211.221,215.429 210.879,215.700 210.876 C 215.970 210.874,216.705 210.524,217.332 210.099 C 217.959 209.674,218.665 209.326,218.901 209.326 C 219.136 209.326,219.710 209.046,220.175 208.703 C 220.639 208.360,221.386 207.928,221.833 207.742 C 222.280 207.557,222.841 207.226,223.079 207.006 C 223.317 206.786,224.535 205.790,225.784 204.793 C 229.234 202.040,234.197 196.698,234.197 195.737 C 234.197 195.547,234.353 195.332,234.545 195.259 C 234.736 195.185,235.104 194.677,235.362 194.130 C 235.620 193.583,236.091 192.785,236.409 192.358 C 236.727 191.930,237.070 191.289,237.172 190.933 C 237.274 190.576,237.625 189.877,237.951 189.378 C 238.278 188.880,238.686 187.859,238.858 187.111 C 239.030 186.363,239.263 185.751,239.375 185.751 C 239.488 185.751,239.772 184.964,240.007 184.003 C 240.242 183.041,240.660 181.554,240.937 180.699 C 241.926 177.644,241.965 175.655,241.967 127.424 C 241.969 80.027,241.898 75.969,241.043 74.316 C 240.834 73.912,240.479 72.676,240.253 71.570 C 240.028 70.464,239.635 69.210,239.381 68.782 C 239.127 68.355,238.836 67.714,238.734 67.358 C 238.318 65.907,235.500 60.564,234.695 59.698 C 234.421 59.404,234.197 59.036,234.197 58.880 C 234.197 58.161,227.278 50.889,224.936 49.147 C 223.035 47.732,220.859 46.396,218.599 45.256 C 217.928 44.918,217.228 44.518,217.044 44.367 C 216.860 44.217,216.076 43.907,215.301 43.679 C 214.526 43.450,213.404 43.027,212.808 42.738 C 212.212 42.450,210.723 42.052,209.499 41.853 C 208.274 41.655,207.148 41.416,206.995 41.321 C 205.785 40.573,197.775 40.185,194.560 40.719 M309.326 40.714 C 308.543 40.842,307.368 41.115,306.717 41.322 C 306.065 41.529,304.709 41.815,303.703 41.958 C 301.948 42.207,301.097 42.462,300.259 42.990 C 300.045 43.124,299.202 43.431,298.384 43.672 C 297.566 43.913,296.765 44.270,296.604 44.465 C 296.442 44.659,296.201 44.819,296.068 44.819 C 295.608 44.819,293.523 45.869,293.523 46.100 C 293.523 46.228,293.123 46.465,292.634 46.626 C 292.145 46.788,291.313 47.263,290.785 47.683 C 290.257 48.102,289.683 48.446,289.508 48.446 C 289.334 48.446,288.973 48.737,288.705 49.093 C 288.438 49.449,288.101 49.741,287.957 49.742 C 287.623 49.744,281.200 56.345,280.234 57.678 C 278.869 59.564,278.249 60.493,277.925 61.140 C 277.747 61.496,277.278 62.242,276.883 62.798 C 276.489 63.354,276.166 63.968,276.166 64.164 C 276.166 64.359,275.880 64.954,275.531 65.485 C 275.181 66.016,274.767 67.034,274.610 67.746 C 274.453 68.459,274.052 69.624,273.719 70.337 C 273.387 71.049,273.029 72.273,272.925 73.057 C 272.820 73.841,272.495 75.065,272.201 75.777 C 271.574 77.298,271.133 117.507,271.319 156.218 L 271.416 176.295 272.077 178.497 C 272.441 179.709,272.864 181.436,273.018 182.337 C 273.171 183.238,273.519 184.345,273.790 184.798 C 274.061 185.251,274.424 186.205,274.596 186.917 C 274.768 187.630,275.063 188.387,275.252 188.601 C 275.440 188.815,275.785 189.561,276.020 190.260 C 276.254 190.959,276.732 191.871,277.083 192.288 C 277.433 192.704,277.720 193.190,277.720 193.367 C 277.720 193.544,278.070 194.081,278.497 194.560 C 278.925 195.038,279.275 195.583,279.275 195.770 C 279.275 195.957,279.624 196.422,280.052 196.802 C 280.479 197.183,280.829 197.600,280.829 197.728 C 280.829 198.185,284.970 202.468,287.306 204.427 C 290.331 206.965,295.496 210.072,298.047 210.888 C 298.611 211.068,299.602 211.476,300.249 211.793 C 300.896 212.111,302.105 212.446,302.937 212.537 C 303.768 212.629,304.759 212.863,305.139 213.056 C 307.278 214.148,319.992 214.376,322.539 213.368 C 323.180 213.114,324.404 212.759,325.259 212.579 C 326.114 212.399,327.539 211.943,328.425 211.566 C 329.311 211.189,330.244 210.879,330.497 210.876 C 330.751 210.874,331.472 210.524,332.099 210.099 C 332.726 209.674,333.445 209.326,333.698 209.326 C 333.950 209.326,334.505 209.033,334.931 208.675 C 335.357 208.317,336.123 207.849,336.635 207.635 C 337.146 207.422,337.565 207.157,337.565 207.047 C 337.565 206.937,337.944 206.629,338.407 206.363 C 338.870 206.096,339.444 205.692,339.683 205.465 C 339.922 205.238,340.621 204.644,341.237 204.145 C 341.853 203.646,343.059 202.539,343.917 201.684 C 345.410 200.197,346.011 199.497,348.035 196.891 C 348.533 196.250,349.131 195.511,349.363 195.249 C 349.596 194.987,349.962 194.346,350.177 193.824 C 350.392 193.303,350.776 192.642,351.031 192.358 C 351.286 192.073,351.583 191.549,351.691 191.195 C 351.799 190.841,352.153 190.141,352.479 189.641 C 352.804 189.140,353.201 188.230,353.361 187.619 C 353.521 187.008,353.938 185.971,354.287 185.314 C 354.637 184.657,354.922 183.736,354.922 183.267 C 354.922 182.798,355.224 181.578,355.592 180.556 C 356.669 177.572,356.720 175.169,356.722 127.202 C 356.724 80.920,356.647 76.864,355.726 74.469 C 355.449 73.750,355.089 72.422,354.925 71.518 C 354.761 70.614,354.470 69.629,354.277 69.329 C 354.084 69.028,353.723 68.141,353.474 67.358 C 353.226 66.574,352.815 65.663,352.562 65.334 C 352.309 65.004,351.964 64.305,351.796 63.779 C 351.628 63.254,351.283 62.591,351.029 62.306 C 350.775 62.021,350.381 61.380,350.152 60.881 C 349.692 59.875,348.721 58.437,347.969 57.642 C 347.699 57.358,347.364 56.909,347.225 56.647 C 346.748 55.744,342.355 51.421,339.508 49.053 C 338.531 48.241,336.089 46.634,335.822 46.627 C 335.712 46.625,335.109 46.275,334.482 45.850 C 333.855 45.425,333.149 45.078,332.913 45.078 C 332.677 45.078,332.097 44.792,331.625 44.444 C 331.152 44.095,330.401 43.732,329.955 43.637 C 329.510 43.542,328.562 43.192,327.850 42.860 C 327.137 42.527,325.738 42.129,324.741 41.974 C 323.744 41.820,322.403 41.529,321.762 41.329 C 318.973 40.457,312.787 40.152,309.326 40.714 M91.192 48.793 C 92.260 49.146,93.587 49.519,94.139 49.623 C 94.692 49.726,95.799 50.143,96.600 50.550 C 97.401 50.956,98.254 51.290,98.495 51.292 C 98.736 51.294,99.007 51.414,99.096 51.559 C 99.186 51.705,99.805 52.117,100.472 52.476 C 102.659 53.654,106.486 56.567,107.366 57.725 C 108.395 59.078,108.899 59.050,83.597 59.059 C 61.003 59.067,59.326 59.015,59.326 58.301 C 59.326 58.033,61.395 55.959,61.661 55.959 C 61.760 55.959,62.164 55.660,62.558 55.295 C 63.709 54.228,66.807 52.252,68.653 51.408 C 69.152 51.180,70.142 50.727,70.855 50.401 C 71.567 50.076,73.025 49.603,74.093 49.351 C 75.162 49.099,76.253 48.781,76.518 48.645 C 78.341 47.707,88.204 47.806,91.192 48.793 M206.606 48.644 C 207.461 48.929,208.802 49.306,209.585 49.483 C 210.369 49.660,211.360 50.009,211.788 50.259 C 212.215 50.509,213.177 50.912,213.925 51.155 C 214.673 51.397,215.285 51.689,215.285 51.803 C 215.285 51.917,215.654 52.162,216.104 52.349 C 216.554 52.535,217.484 53.074,218.170 53.546 C 218.856 54.018,219.498 54.404,219.597 54.404 C 219.695 54.404,220.077 54.691,220.445 55.042 C 220.813 55.392,221.696 56.208,222.408 56.855 C 224.861 59.083,226.511 58.928,199.399 59.004 C 176.646 59.067,175.657 59.051,175.414 58.597 C 175.077 57.968,177.957 55.214,180.089 54.126 C 180.639 53.846,181.088 53.520,181.088 53.402 C 181.088 53.284,181.555 52.977,182.126 52.720 C 182.697 52.462,183.288 52.101,183.441 51.917 C 183.594 51.733,184.322 51.387,185.059 51.148 C 185.796 50.909,186.749 50.509,187.176 50.259 C 187.604 50.009,188.595 49.666,189.378 49.497 C 190.162 49.328,191.277 49.021,191.857 48.814 C 194.741 47.787,203.720 47.683,206.606 48.644 M321.114 48.574 C 321.826 48.806,323.237 49.208,324.248 49.467 C 325.260 49.725,326.367 50.113,326.709 50.328 C 327.052 50.543,327.944 50.916,328.692 51.157 C 329.440 51.399,330.052 51.695,330.052 51.815 C 330.052 51.936,330.664 52.332,331.412 52.696 C 332.160 53.060,333.297 53.767,333.938 54.267 C 334.579 54.767,335.350 55.356,335.652 55.575 C 337.277 56.754,338.426 58.100,338.163 58.516 C 337.762 59.152,290.485 59.166,290.084 58.529 C 289.739 57.982,292.855 55.012,294.819 54.016 C 295.317 53.764,295.819 53.398,295.933 53.203 C 296.047 53.009,296.293 52.850,296.479 52.850 C 296.666 52.850,297.272 52.540,297.827 52.162 C 298.381 51.784,299.458 51.254,300.221 50.985 C 300.984 50.715,301.859 50.338,302.164 50.147 C 302.470 49.956,303.361 49.654,304.145 49.478 C 304.929 49.301,306.063 48.992,306.667 48.792 C 309.522 47.844,318.460 47.710,321.114 48.574 M113.648 65.868 C 114.530 66.800,116.580 70.840,116.580 71.645 C 116.580 71.927,116.796 72.564,117.060 73.061 C 117.876 74.594,118.255 76.623,117.863 77.355 L 117.529 77.979 83.679 77.979 L 49.828 77.979 49.487 77.341 C 49.082 76.584,49.721 72.759,50.372 72.039 C 50.579 71.811,50.862 71.112,51.003 70.486 C 51.144 69.860,51.500 69.021,51.795 68.622 C 52.090 68.223,52.332 67.822,52.332 67.731 C 52.332 67.640,52.522 67.165,52.754 66.675 C 53.577 64.942,51.577 65.048,83.693 65.036 L 112.852 65.026 113.648 65.868 M229.713 65.997 C 230.112 66.532,230.507 67.027,230.592 67.098 C 230.677 67.170,230.939 67.801,231.175 68.502 C 231.411 69.202,231.768 69.960,231.969 70.186 C 232.170 70.411,232.532 71.412,232.774 72.409 C 233.017 73.407,233.359 74.456,233.535 74.741 C 234.093 75.645,234.200 76.823,233.780 77.423 L 233.390 77.979 199.597 77.979 C 160.535 77.979,164.409 78.277,165.301 75.342 C 165.575 74.441,165.800 73.460,165.801 73.160 C 165.802 72.861,166.076 72.103,166.410 71.475 C 166.743 70.848,167.166 69.882,167.348 69.329 C 167.531 68.776,167.957 67.915,168.296 67.416 C 168.635 66.916,168.912 66.388,168.912 66.241 C 168.912 64.966,167.403 65.026,199.379 65.026 L 228.989 65.026 229.713 65.997 M344.681 66.256 C 345.177 66.933,345.712 67.895,345.868 68.394 C 346.025 68.892,346.424 69.825,346.754 70.466 C 347.084 71.108,347.439 72.157,347.543 72.798 C 347.646 73.439,347.938 74.372,348.191 74.872 C 348.803 76.081,348.876 76.696,348.490 77.396 L 348.168 77.979 314.325 77.979 C 283.197 77.979,280.443 77.945,280.007 77.551 C 279.500 77.091,279.392 76.423,279.760 76.023 C 279.885 75.888,280.172 74.936,280.399 73.908 C 280.765 72.244,281.957 69.196,282.656 68.135 C 282.797 67.921,283.096 67.338,283.321 66.839 C 284.223 64.840,281.062 65.026,314.157 65.026 L 343.777 65.026 344.681 66.256 M118.264 84.345 C 118.748 84.711,118.788 85.091,118.863 90.101 C 118.959 96.459,118.891 96.989,117.934 97.384 C 116.833 97.839,49.111 97.661,48.653 97.202 C 48.151 96.700,48.168 84.973,48.672 84.366 C 49.192 83.739,117.434 83.719,118.264 84.345 M234.230 84.366 C 234.870 85.137,234.737 96.822,234.083 97.301 C 233.280 97.888,165.244 97.849,164.656 97.261 C 164.165 96.770,164.041 85.328,164.517 84.439 C 164.905 83.714,233.629 83.643,234.230 84.366 M348.722 84.206 C 349.196 84.460,349.223 84.811,349.223 90.803 C 349.223 96.795,349.196 97.146,348.722 97.400 C 347.642 97.978,279.596 97.750,279.284 97.167 C 279.122 96.864,279.016 94.349,279.016 90.803 C 279.016 87.257,279.122 84.742,279.284 84.439 C 279.596 83.856,347.642 83.628,348.722 84.206 M118.273 104.045 L 118.912 104.464 118.912 110.147 L 118.912 115.830 118.005 116.209 C 116.689 116.758,49.281 116.648,48.615 116.095 C 47.970 115.560,47.970 104.814,48.615 104.101 C 49.241 103.410,117.221 103.356,118.273 104.045 M234.241 104.056 C 235.048 104.786,234.957 115.604,234.139 116.177 C 233.431 116.673,165.670 116.805,164.750 116.312 C 164.172 116.003,163.965 105.159,164.517 104.128 C 164.905 103.403,233.442 103.332,234.241 104.056 M348.912 103.938 C 349.512 104.538,349.336 115.983,348.722 116.312 C 348.024 116.686,280.215 116.686,279.517 116.312 C 278.939 116.003,278.732 105.159,279.284 104.128 C 279.616 103.507,348.294 103.319,348.912 103.938 M118.459 122.899 C 119.222 123.479,119.140 134.170,118.367 134.869 C 117.502 135.651,49.126 135.642,48.554 134.860 C 47.944 134.026,48.021 123.179,48.640 122.819 C 49.391 122.381,117.880 122.460,118.459 122.899 M234.241 122.968 C 235.034 123.685,234.956 134.037,234.152 134.893 L 233.588 135.492 199.326 135.492 C 168.523 135.492,165.022 135.451,164.656 135.085 C 164.127 134.557,164.039 123.370,164.560 122.850 C 165.115 122.295,233.626 122.411,234.241 122.968 M348.912 122.850 C 349.449 123.387,349.342 134.413,348.794 135.018 C 348.160 135.719,280.003 135.763,279.230 135.063 C 278.641 134.530,278.493 123.424,279.067 122.850 C 279.519 122.398,348.460 122.398,348.912 122.850 M118.417 141.933 C 118.869 142.491,118.912 143.013,118.912 147.908 L 118.912 153.271 118.185 153.967 L 117.459 154.663 83.459 154.663 L 49.458 154.663 48.822 154.027 C 48.176 153.381,47.835 145.089,48.349 142.518 C 48.610 141.213,48.029 141.233,84.026 141.278 L 117.921 141.321 118.417 141.933 M233.974 141.687 C 234.873 142.414,235.068 152.442,234.210 153.821 L 233.686 154.663 199.388 154.663 C 167.821 154.663,165.061 154.629,164.734 154.235 C 164.165 153.551,164.073 142.665,164.629 141.816 L 165.038 141.192 199.200 141.192 C 232.440 141.192,233.379 141.205,233.974 141.687 M348.647 141.595 C 349.406 142.127,349.557 153.035,348.820 154.087 L 348.416 154.663 314.005 154.663 L 279.593 154.663 279.175 154.025 C 278.425 152.880,278.561 142.135,279.332 141.595 C 279.846 141.235,283.562 141.192,313.990 141.192 C 344.417 141.192,348.133 141.235,348.647 141.595 M118.185 161.059 L 118.912 161.755 118.912 167.118 C 118.912 172.013,118.869 172.535,118.417 173.093 L 117.921 173.705 84.193 173.772 C 47.876 173.845,48.621 173.871,48.348 172.505 C 47.834 169.936,48.176 161.645,48.822 160.999 L 49.458 160.363 83.459 160.363 L 117.459 160.363 118.185 161.059 M234.210 161.205 C 235.068 162.583,234.873 172.612,233.974 173.339 C 233.379 173.821,232.440 173.834,199.200 173.834 L 165.038 173.834 164.629 173.210 C 164.073 172.361,164.165 161.475,164.734 160.790 C 165.061 160.397,167.821 160.363,199.388 160.363 L 233.686 160.363 234.210 161.205 M348.820 160.938 C 349.557 161.991,349.406 172.899,348.647 173.431 C 348.133 173.791,344.411 173.834,313.928 173.834 L 279.785 173.834 279.272 172.992 C 278.563 171.830,278.484 162.056,279.175 161.001 L 279.593 160.363 314.005 160.363 L 348.416 160.363 348.820 160.938 M116.662 179.832 C 117.498 180.272,117.638 180.628,117.222 181.263 C 117.017 181.576,116.726 182.394,116.576 183.079 C 116.426 183.765,116.083 184.630,115.814 185.001 C 115.545 185.372,115.199 186.146,115.044 186.720 C 114.890 187.294,114.573 187.921,114.341 188.114 C 114.109 188.307,113.701 188.972,113.435 189.592 C 113.170 190.212,112.577 191.117,112.119 191.603 L 111.285 192.487 83.541 192.487 L 55.796 192.487 55.130 191.775 C 54.763 191.383,54.283 190.704,54.062 190.266 C 53.842 189.828,53.485 189.323,53.269 189.144 C 53.053 188.965,52.735 188.391,52.563 187.868 C 52.391 187.345,52.027 186.615,51.754 186.246 C 51.482 185.877,51.144 185.062,51.003 184.436 C 50.862 183.810,50.569 183.101,50.352 182.861 C 49.809 182.261,49.587 180.420,49.998 179.925 C 50.423 179.413,115.694 179.322,116.662 179.832 M232.781 180.061 C 233.183 180.506,233.213 180.720,232.975 181.421 C 232.819 181.879,232.619 182.679,232.531 183.199 C 232.442 183.719,232.197 184.288,231.985 184.464 C 231.774 184.639,231.422 185.399,231.203 186.152 C 230.984 186.905,230.617 187.677,230.388 187.867 C 230.159 188.057,229.811 188.596,229.615 189.065 C 229.419 189.533,228.844 190.495,228.336 191.202 L 227.413 192.487 199.506 192.487 C 169.143 192.487,170.466 192.547,170.466 191.175 C 170.466 191.035,170.087 190.345,169.624 189.642 C 168.024 187.212,167.617 186.492,167.452 185.799 C 167.361 185.417,166.953 184.462,166.545 183.679 C 165.760 182.170,165.561 180.397,166.114 179.845 C 166.754 179.204,232.198 179.417,232.781 180.061 M347.198 179.818 C 347.931 180.211,347.668 182.848,346.757 184.241 C 346.414 184.763,346.056 185.521,345.961 185.925 C 345.865 186.328,345.528 187.008,345.211 187.435 C 344.894 187.863,344.543 188.504,344.431 188.860 C 344.319 189.216,343.894 189.913,343.487 190.409 C 343.079 190.904,342.746 191.408,342.746 191.528 C 342.746 192.496,343.028 192.487,314.138 192.487 C 287.924 192.487,286.245 192.460,285.864 192.034 C 285.128 191.211,284.207 189.784,283.648 188.601 C 283.345 187.960,282.952 187.260,282.776 187.047 C 282.599 186.833,282.240 186.075,281.979 185.363 C 281.717 184.650,281.404 183.998,281.282 183.914 C 280.696 183.508,280.270 180.801,280.691 180.158 L 281.100 179.534 313.883 179.534 C 337.200 179.534,346.820 179.616,347.198 179.818 M104.114 198.932 L 104.732 199.406 104.041 199.897 C 103.661 200.168,102.938 200.703,102.435 201.087 C 101.931 201.471,101.119 201.917,100.630 202.078 C 100.141 202.240,99.741 202.462,99.741 202.571 C 99.741 202.681,99.245 202.977,98.640 203.229 C 98.034 203.481,96.956 203.956,96.244 204.285 C 95.531 204.614,94.540 204.963,94.041 205.061 C 93.543 205.160,92.610 205.488,91.969 205.792 C 90.314 206.575,77.141 206.649,75.651 205.883 C 75.154 205.627,73.957 205.239,72.992 205.019 C 72.027 204.800,71.091 204.473,70.911 204.294 C 70.731 204.114,69.946 203.759,69.165 203.505 C 68.385 203.250,67.571 202.896,67.358 202.718 C 67.144 202.540,66.561 202.189,66.062 201.939 C 65.563 201.689,65.066 201.332,64.957 201.147 C 64.848 200.962,64.234 200.547,63.592 200.227 C 62.332 199.598,62.252 199.274,63.233 198.773 C 64.402 198.177,103.329 198.328,104.114 198.932 M220.013 198.806 C 220.783 199.391,219.593 200.524,216.580 202.076 C 216.224 202.259,215.867 202.510,215.786 202.632 C 215.705 202.755,214.948 203.099,214.102 203.396 C 213.257 203.693,212.495 204.048,212.410 204.186 C 212.325 204.323,211.414 204.652,210.386 204.916 C 209.357 205.181,208.086 205.611,207.561 205.872 C 205.990 206.654,192.855 206.586,191.192 205.788 C 190.551 205.481,189.239 205.030,188.277 204.788 C 187.315 204.545,186.528 204.261,186.528 204.157 C 186.528 204.053,186.033 203.825,185.427 203.650 C 184.822 203.474,183.841 202.990,183.248 202.572 C 182.655 202.155,182.085 201.813,181.982 201.813 C 181.879 201.813,180.973 201.272,179.969 200.611 L 178.143 199.408 178.738 198.927 C 179.517 198.296,219.188 198.180,220.013 198.806 M334.727 198.921 L 335.314 199.397 334.617 199.893 C 334.234 200.165,333.506 200.705,332.999 201.091 C 332.493 201.477,331.827 201.869,331.519 201.963 C 331.211 202.056,330.725 202.340,330.440 202.594 C 330.155 202.849,329.364 203.243,328.683 203.471 C 328.001 203.699,327.185 204.052,326.869 204.256 C 326.554 204.459,325.538 204.819,324.611 205.056 C 323.685 205.293,322.809 205.585,322.664 205.705 C 321.449 206.707,308.048 206.769,305.959 205.781 C 305.317 205.478,304.056 205.086,303.155 204.909 C 302.254 204.733,301.361 204.433,301.171 204.242 C 300.980 204.052,300.175 203.653,299.381 203.356 C 298.587 203.059,297.874 202.714,297.797 202.589 C 297.720 202.464,297.135 202.101,296.497 201.783 C 295.859 201.464,295.337 201.122,295.337 201.022 C 295.337 200.922,294.995 200.699,294.578 200.526 C 293.235 199.970,292.860 199.354,293.565 198.860 C 294.542 198.176,333.878 198.234,334.727 198.921 " stroke="none" fill="#1aa658" fill-rule="evenodd"></path><path id="path1" d="M0.000 129.534 L 0.000 259.067 200.000 259.067 L 400.000 259.067 400.000 129.534 L 400.000 0.000 200.000 0.000 L 0.000 0.000 0.000 129.534 M90.155 41.051 C 91.082 41.281,92.772 41.648,93.912 41.865 C 95.052 42.081,96.589 42.543,97.329 42.891 C 98.068 43.239,98.837 43.523,99.038 43.523 C 99.240 43.523,100.384 44.025,101.580 44.639 C 104.918 46.350,106.064 47.050,109.488 49.467 C 111.130 50.626,115.530 55.035,116.290 56.282 C 116.615 56.817,116.967 57.254,117.072 57.254 C 117.176 57.254,117.524 57.720,117.845 58.290 C 118.165 58.860,118.528 59.326,118.652 59.326 C 118.776 59.326,118.958 59.589,119.057 59.909 C 119.155 60.230,119.571 60.952,119.981 61.515 C 120.390 62.077,120.725 62.680,120.725 62.855 C 120.725 63.030,121.001 63.502,121.338 63.905 C 121.675 64.308,122.143 65.300,122.377 66.111 C 122.611 66.922,122.971 67.753,123.176 67.958 C 123.381 68.163,123.733 69.132,123.958 70.111 C 124.182 71.090,124.593 72.474,124.869 73.187 C 125.995 76.085,126.037 78.096,126.021 127.720 C 126.005 178.567,126.019 178.014,124.606 182.214 C 124.181 183.475,123.834 184.744,123.834 185.033 C 123.834 185.323,123.613 185.924,123.343 186.368 C 123.073 186.813,122.644 187.847,122.389 188.666 C 122.134 189.485,121.839 190.155,121.733 190.155 C 121.627 190.155,121.233 190.767,120.858 191.516 C 119.763 193.697,118.936 195.161,118.709 195.319 C 118.593 195.400,118.218 195.874,117.876 196.373 C 116.305 198.662,112.441 203.088,112.003 203.100 C 111.837 203.105,111.662 203.196,111.615 203.303 C 111.468 203.634,108.345 206.218,108.092 206.218 C 107.960 206.218,107.630 206.466,107.359 206.769 C 107.087 207.073,106.397 207.523,105.825 207.770 C 105.253 208.017,104.627 208.410,104.434 208.643 C 104.240 208.877,103.931 209.067,103.746 209.067 C 103.562 209.067,102.670 209.460,101.765 209.940 C 100.860 210.421,99.727 210.900,99.248 211.005 C 98.768 211.110,97.838 211.463,97.180 211.789 C 96.522 212.115,95.343 212.465,94.560 212.568 C 93.776 212.670,92.910 212.873,92.634 213.018 C 90.041 214.383,77.000 214.371,74.439 213.000 C 74.156 212.848,73.292 212.645,72.519 212.548 C 71.746 212.451,70.576 212.107,69.918 211.784 C 69.261 211.461,68.330 211.110,67.851 211.005 C 67.371 210.900,66.238 210.421,65.333 209.940 C 64.428 209.460,63.540 209.067,63.361 209.067 C 63.181 209.067,62.827 208.839,62.574 208.559 C 62.321 208.279,61.720 207.921,61.238 207.762 C 60.757 207.603,60.363 207.375,60.363 207.255 C 60.363 207.135,59.926 206.772,59.391 206.449 C 57.217 205.133,53.090 201.313,50.708 198.412 C 50.314 197.932,49.643 197.115,49.218 196.598 C 48.793 196.080,48.446 195.547,48.446 195.414 C 48.446 195.280,48.099 194.712,47.676 194.152 C 47.252 193.593,46.902 193.005,46.898 192.847 C 46.894 192.689,46.592 192.118,46.226 191.579 C 45.860 191.040,45.331 189.985,45.050 189.235 C 44.770 188.485,44.379 187.737,44.181 187.573 C 43.984 187.410,43.742 186.787,43.642 186.190 C 43.543 185.592,43.230 184.648,42.948 184.091 C 42.665 183.534,42.280 182.135,42.091 180.982 C 41.902 179.829,41.506 177.809,41.211 176.492 C 40.560 173.591,40.341 80.627,40.983 79.452 C 41.152 79.141,41.372 78.361,41.470 77.720 C 41.568 77.079,41.787 75.622,41.956 74.482 C 42.125 73.342,42.547 71.804,42.893 71.065 C 43.240 70.326,43.523 69.521,43.523 69.277 C 43.523 69.033,43.856 68.122,44.262 67.253 C 44.669 66.384,45.078 65.358,45.171 64.972 C 45.265 64.586,45.624 63.965,45.971 63.592 C 46.317 63.218,46.672 62.587,46.759 62.188 C 46.846 61.790,47.203 61.196,47.552 60.868 C 47.901 60.540,48.187 60.142,48.187 59.983 C 48.187 59.824,48.771 58.941,49.486 58.020 C 50.201 57.100,50.988 56.059,51.235 55.706 C 51.982 54.641,56.750 50.030,57.279 49.863 C 57.550 49.776,57.772 49.602,57.772 49.475 C 57.772 49.348,58.323 48.922,58.997 48.527 C 59.671 48.132,60.400 47.651,60.616 47.459 C 61.260 46.888,64.452 45.078,64.817 45.077 C 65.003 45.076,65.680 44.727,66.321 44.301 C 66.962 43.874,67.695 43.525,67.948 43.524 C 68.202 43.524,69.125 43.222,69.999 42.854 C 70.873 42.486,72.297 42.075,73.165 41.940 C 74.032 41.805,75.180 41.523,75.718 41.314 C 76.255 41.104,77.129 40.924,77.661 40.914 C 78.192 40.904,78.860 40.789,79.145 40.657 C 79.975 40.274,88.219 40.569,90.155 41.051 M204.459 40.783 C 205.701 40.984,206.842 41.227,206.995 41.321 C 207.148 41.416,208.274 41.655,209.499 41.853 C 210.723 42.052,212.212 42.450,212.808 42.738 C 213.404 43.027,214.526 43.450,215.301 43.679 C 216.076 43.907,216.860 44.217,217.044 44.367 C 217.228 44.518,217.928 44.918,218.599 45.256 C 220.859 46.396,223.035 47.732,224.936 49.147 C 227.278 50.889,234.197 58.161,234.197 58.880 C 234.197 59.036,234.421 59.404,234.695 59.698 C 235.500 60.564,238.318 65.907,238.734 67.358 C 238.836 67.714,239.127 68.355,239.381 68.782 C 239.635 69.210,240.028 70.464,240.253 71.570 C 240.479 72.676,240.834 73.912,241.043 74.316 C 241.898 75.969,241.969 80.027,241.967 127.424 C 241.965 175.655,241.926 177.644,240.937 180.699 C 240.660 181.554,240.242 183.041,240.007 184.003 C 239.772 184.964,239.488 185.751,239.375 185.751 C 239.263 185.751,239.030 186.363,238.858 187.111 C 238.686 187.859,238.278 188.880,237.951 189.378 C 237.625 189.877,237.274 190.576,237.172 190.933 C 237.070 191.289,236.727 191.930,236.409 192.358 C 236.091 192.785,235.620 193.583,235.362 194.130 C 235.104 194.677,234.736 195.185,234.545 195.259 C 234.353 195.332,234.197 195.547,234.197 195.737 C 234.197 196.698,229.234 202.040,225.784 204.793 C 224.535 205.790,223.317 206.786,223.079 207.006 C 222.841 207.226,222.280 207.557,221.833 207.742 C 221.386 207.928,220.639 208.360,220.175 208.703 C 219.710 209.046,219.136 209.326,218.901 209.326 C 218.665 209.326,217.959 209.674,217.332 210.099 C 216.705 210.524,215.970 210.874,215.700 210.876 C 215.429 210.879,214.497 211.221,213.627 211.637 C 212.758 212.052,211.347 212.506,210.492 212.644 C 209.637 212.783,208.413 213.106,207.772 213.363 C 205.283 214.359,192.557 214.155,190.415 213.085 C 190.058 212.907,189.021 212.633,188.109 212.475 C 187.198 212.317,186.013 211.960,185.477 211.680 C 184.941 211.401,184.023 211.043,183.437 210.886 C 182.852 210.728,181.951 210.313,181.435 209.963 C 180.920 209.613,180.325 209.326,180.114 209.326 C 179.903 209.326,179.219 209.006,178.593 208.614 C 175.489 206.670,174.172 205.783,173.684 205.311 C 173.390 205.026,172.703 204.443,172.158 204.016 C 170.651 202.834,166.062 198.059,166.062 197.673 C 166.062 197.581,165.712 197.171,165.285 196.762 C 164.858 196.352,164.505 195.893,164.501 195.742 C 164.497 195.590,164.147 195.008,163.723 194.449 C 163.300 193.889,162.953 193.293,162.953 193.124 C 162.953 192.954,162.727 192.528,162.450 192.177 C 162.174 191.825,161.744 191.022,161.496 190.393 C 161.247 189.764,160.839 188.957,160.590 188.601 C 160.340 188.245,160.001 187.429,159.837 186.788 C 159.672 186.146,159.333 185.272,159.082 184.845 C 158.831 184.417,158.480 183.212,158.301 182.166 C 158.122 181.121,157.726 179.605,157.421 178.799 L 156.865 177.332 156.781 129.404 C 156.696 81.578,156.756 77.441,157.555 75.854 C 157.677 75.612,158.003 74.290,158.279 72.918 C 158.555 71.546,158.909 70.269,159.065 70.081 C 159.221 69.892,159.573 68.954,159.848 67.995 C 160.122 67.035,160.511 66.062,160.712 65.833 C 160.914 65.603,161.156 65.161,161.250 64.851 C 161.344 64.541,161.696 63.883,162.032 63.388 C 162.368 62.893,162.728 62.214,162.833 61.879 C 162.938 61.544,163.357 60.886,163.766 60.418 C 164.174 59.950,164.508 59.418,164.508 59.235 C 164.508 59.051,164.858 58.510,165.285 58.031 C 165.712 57.552,166.062 57.078,166.062 56.976 C 166.062 56.506,174.370 48.557,175.105 48.324 C 175.379 48.237,176.036 47.821,176.567 47.399 C 177.098 46.977,177.673 46.632,177.846 46.632 C 178.018 46.632,178.422 46.404,178.744 46.125 C 179.065 45.846,179.870 45.415,180.532 45.167 C 181.194 44.919,181.794 44.639,181.865 44.544 C 182.109 44.222,183.652 43.523,184.121 43.523 C 184.379 43.523,185.113 43.245,185.753 42.905 C 186.393 42.565,187.791 42.154,188.860 41.993 C 189.929 41.831,191.328 41.532,191.969 41.327 C 194.877 40.400,200.569 40.151,204.459 40.783 M318.733 40.690 C 319.757 40.841,321.120 41.128,321.762 41.329 C 322.403 41.529,323.744 41.820,324.741 41.974 C 325.738 42.129,327.137 42.527,327.850 42.860 C 328.562 43.192,329.510 43.542,329.955 43.637 C 330.401 43.732,331.152 44.095,331.625 44.444 C 332.097 44.792,332.677 45.078,332.913 45.078 C 333.149 45.078,333.855 45.425,334.482 45.850 C 335.109 46.275,335.712 46.625,335.822 46.627 C 337.039 46.656,346.200 54.705,347.225 56.647 C 347.364 56.909,347.699 57.358,347.969 57.642 C 348.721 58.437,349.692 59.875,350.152 60.881 C 350.381 61.380,350.775 62.021,351.029 62.306 C 351.283 62.591,351.628 63.254,351.796 63.779 C 351.964 64.305,352.309 65.004,352.562 65.334 C 352.815 65.663,353.226 66.574,353.474 67.358 C 353.723 68.141,354.084 69.028,354.277 69.329 C 354.470 69.629,354.761 70.614,354.925 71.518 C 355.089 72.422,355.449 73.750,355.726 74.469 C 356.647 76.864,356.724 80.920,356.722 127.202 C 356.720 175.169,356.669 177.572,355.592 180.556 C 355.224 181.578,354.922 182.798,354.922 183.267 C 354.922 183.736,354.637 184.657,354.287 185.314 C 353.938 185.971,353.521 187.008,353.361 187.619 C 353.201 188.230,352.804 189.140,352.479 189.641 C 352.153 190.141,351.799 190.841,351.691 191.195 C 351.583 191.549,351.286 192.073,351.031 192.358 C 350.776 192.642,350.392 193.303,350.177 193.824 C 349.962 194.346,349.596 194.987,349.363 195.249 C 349.131 195.511,348.533 196.250,348.035 196.891 C 346.011 199.497,345.410 200.197,343.917 201.684 C 343.059 202.539,341.853 203.646,341.237 204.145 C 340.621 204.644,339.922 205.238,339.683 205.465 C 339.444 205.692,338.870 206.096,338.407 206.363 C 337.944 206.629,337.565 206.937,337.565 207.047 C 337.565 207.157,337.146 207.422,336.635 207.635 C 336.123 207.849,335.357 208.317,334.931 208.675 C 334.505 209.033,333.950 209.326,333.698 209.326 C 333.445 209.326,332.726 209.674,332.099 210.099 C 331.472 210.524,330.751 210.874,330.497 210.876 C 330.244 210.879,329.311 211.189,328.425 211.566 C 327.539 211.943,326.114 212.399,325.259 212.579 C 324.404 212.759,323.180 213.114,322.539 213.368 C 319.992 214.376,307.278 214.148,305.139 213.056 C 304.759 212.863,303.768 212.629,302.937 212.537 C 302.105 212.446,300.896 212.111,300.249 211.793 C 299.602 211.476,298.611 211.068,298.047 210.888 C 295.496 210.072,290.331 206.965,287.306 204.427 C 284.970 202.468,280.829 198.185,280.829 197.728 C 280.829 197.600,280.479 197.183,280.052 196.802 C 279.624 196.422,279.275 195.957,279.275 195.770 C 279.275 195.583,278.925 195.038,278.497 194.560 C 278.070 194.081,277.720 193.544,277.720 193.367 C 277.720 193.190,277.433 192.704,277.083 192.288 C 276.732 191.871,276.254 190.959,276.020 190.260 C 275.785 189.561,275.440 188.815,275.252 188.601 C 275.063 188.387,274.768 187.630,274.596 186.917 C 274.424 186.205,274.061 185.251,273.790 184.798 C 273.519 184.345,273.171 183.238,273.018 182.337 C 272.864 181.436,272.441 179.709,272.077 178.497 L 271.416 176.295 271.319 156.218 C 271.133 117.507,271.574 77.298,272.201 75.777 C 272.495 75.065,272.820 73.841,272.925 73.057 C 273.029 72.273,273.387 71.049,273.719 70.337 C 274.052 69.624,274.453 68.459,274.610 67.746 C 274.767 67.034,275.181 66.016,275.531 65.485 C 275.880 64.954,276.166 64.359,276.166 64.164 C 276.166 63.968,276.489 63.354,276.883 62.798 C 277.278 62.242,277.747 61.496,277.925 61.140 C 278.249 60.493,278.869 59.564,280.234 57.678 C 281.200 56.345,287.623 49.744,287.957 49.742 C 288.101 49.741,288.438 49.449,288.705 49.093 C 288.973 48.737,289.334 48.446,289.508 48.446 C 289.683 48.446,290.257 48.102,290.785 47.683 C 291.313 47.263,292.145 46.788,292.634 46.626 C 293.123 46.465,293.523 46.228,293.523 46.100 C 293.523 45.869,295.608 44.819,296.068 44.819 C 296.201 44.819,296.442 44.659,296.604 44.465 C 296.765 44.270,297.566 43.913,298.384 43.672 C 299.202 43.431,300.045 43.124,300.259 42.990 C 301.097 42.462,301.948 42.207,303.703 41.958 C 304.709 41.815,306.065 41.529,306.717 41.322 C 309.457 40.452,315.107 40.154,318.733 40.690 M78.720 48.178 C 77.773 48.299,76.782 48.509,76.518 48.645 C 76.253 48.781,75.162 49.099,74.093 49.351 C 73.025 49.603,71.567 50.076,70.855 50.401 C 70.142 50.727,69.152 51.180,68.653 51.408 C 66.807 52.252,63.709 54.228,62.558 55.295 C 62.164 55.660,61.760 55.959,61.661 55.959 C 61.395 55.959,59.326 58.033,59.326 58.301 C 59.326 59.015,61.003 59.067,83.597 59.059 C 108.899 59.050,108.395 59.078,107.366 57.725 C 106.486 56.567,102.659 53.654,100.472 52.476 C 99.805 52.117,99.186 51.705,99.096 51.559 C 99.007 51.414,98.736 51.294,98.495 51.292 C 98.254 51.290,97.401 50.956,96.600 50.550 C 95.799 50.143,94.692 49.726,94.139 49.623 C 93.587 49.519,92.260 49.146,91.192 48.793 C 89.020 48.076,82.168 47.738,78.720 48.178 M194.448 48.197 C 193.602 48.330,192.437 48.608,191.857 48.814 C 191.277 49.021,190.162 49.328,189.378 49.497 C 188.595 49.666,187.604 50.009,187.176 50.259 C 186.749 50.509,185.796 50.909,185.059 51.148 C 184.322 51.387,183.594 51.733,183.441 51.917 C 183.288 52.101,182.697 52.462,182.126 52.720 C 181.555 52.977,181.088 53.284,181.088 53.402 C 181.088 53.520,180.639 53.846,180.089 54.126 C 177.957 55.214,175.077 57.968,175.414 58.597 C 175.657 59.051,176.646 59.067,199.399 59.004 C 226.511 58.928,224.861 59.083,222.408 56.855 C 221.696 56.208,220.813 55.392,220.445 55.042 C 220.077 54.691,219.695 54.404,219.597 54.404 C 219.498 54.404,218.856 54.018,218.170 53.546 C 217.484 53.074,216.554 52.535,216.104 52.349 C 215.654 52.162,215.285 51.917,215.285 51.803 C 215.285 51.689,214.673 51.397,213.925 51.155 C 213.177 50.912,212.215 50.509,211.788 50.259 C 211.360 50.009,210.369 49.660,209.585 49.483 C 208.802 49.306,207.461 48.929,206.606 48.644 C 204.813 48.047,197.184 47.766,194.448 48.197 M309.257 48.191 C 308.435 48.321,307.270 48.592,306.667 48.792 C 306.063 48.992,304.929 49.301,304.145 49.478 C 303.361 49.654,302.470 49.956,302.164 50.147 C 301.859 50.338,300.984 50.715,300.221 50.985 C 299.458 51.254,298.381 51.784,297.827 52.162 C 297.272 52.540,296.666 52.850,296.479 52.850 C 296.293 52.850,296.047 53.009,295.933 53.203 C 295.819 53.398,295.317 53.764,294.819 54.016 C 292.855 55.012,289.739 57.982,290.084 58.529 C 290.485 59.166,337.762 59.152,338.163 58.516 C 338.426 58.100,337.277 56.754,335.652 55.575 C 335.350 55.356,334.579 54.767,333.938 54.267 C 333.297 53.767,332.160 53.060,331.412 52.696 C 330.664 52.332,330.052 51.936,330.052 51.815 C 330.052 51.695,329.440 51.399,328.692 51.157 C 327.944 50.916,327.052 50.543,326.709 50.328 C 326.367 50.113,325.260 49.725,324.248 49.467 C 323.237 49.208,321.826 48.806,321.114 48.574 C 319.572 48.072,311.624 47.815,309.257 48.191 M53.855 65.415 C 53.283 65.726,52.332 67.172,52.332 67.731 C 52.332 67.822,52.090 68.223,51.795 68.622 C 51.500 69.021,51.144 69.860,51.003 70.486 C 50.862 71.112,50.579 71.811,50.372 72.039 C 49.721 72.759,49.082 76.584,49.487 77.341 L 49.828 77.979 83.679 77.979 L 117.529 77.979 117.863 77.355 C 118.255 76.623,117.876 74.594,117.060 73.061 C 116.796 72.564,116.580 71.927,116.580 71.645 C 116.580 70.840,114.530 66.800,113.648 65.868 L 112.852 65.026 83.693 65.036 C 58.979 65.045,54.430 65.103,53.855 65.415 M169.341 65.500 C 169.105 65.760,168.912 66.094,168.912 66.241 C 168.912 66.388,168.635 66.916,168.296 67.416 C 167.957 67.915,167.531 68.776,167.348 69.329 C 167.166 69.882,166.743 70.848,166.410 71.475 C 166.076 72.103,165.802 72.861,165.801 73.160 C 165.800 73.460,165.575 74.441,165.301 75.342 C 164.409 78.277,160.535 77.979,199.597 77.979 L 233.390 77.979 233.780 77.423 C 234.200 76.823,234.093 75.645,233.535 74.741 C 233.359 74.456,233.017 73.407,232.774 72.409 C 232.532 71.412,232.170 70.411,231.969 70.186 C 231.768 69.960,231.411 69.202,231.175 68.502 C 230.939 67.801,230.677 67.170,230.592 67.098 C 230.507 67.027,230.112 66.532,229.713 65.997 L 228.989 65.026 199.379 65.026 C 171.023 65.026,169.751 65.046,169.341 65.500 M284.133 65.479 C 283.912 65.729,283.546 66.341,283.321 66.839 C 283.096 67.338,282.797 67.921,282.656 68.135 C 281.957 69.196,280.765 72.244,280.399 73.908 C 280.172 74.936,279.885 75.888,279.760 76.023 C 279.392 76.423,279.500 77.091,280.007 77.551 C 280.443 77.945,283.197 77.979,314.325 77.979 L 348.168 77.979 348.490 77.396 C 348.876 76.696,348.803 76.081,348.191 74.872 C 347.938 74.372,347.646 73.439,347.543 72.798 C 347.439 72.157,347.084 71.108,346.754 70.466 C 346.424 69.825,346.025 68.892,345.868 68.394 C 345.712 67.895,345.177 66.933,344.681 66.256 L 343.777 65.026 314.157 65.026 C 286.273 65.026,284.513 65.052,284.133 65.479 M48.672 84.366 C 48.168 84.973,48.151 96.700,48.653 97.202 C 49.111 97.661,116.833 97.839,117.934 97.384 C 118.891 96.989,118.959 96.459,118.863 90.101 C 118.788 85.091,118.748 84.711,118.264 84.345 C 117.434 83.719,49.192 83.739,48.672 84.366 M164.517 84.439 C 164.041 85.328,164.165 96.770,164.656 97.261 C 165.244 97.849,233.280 97.888,234.083 97.301 C 234.737 96.822,234.870 85.137,234.230 84.366 C 233.629 83.643,164.905 83.714,164.517 84.439 M279.284 84.439 C 279.122 84.742,279.016 87.257,279.016 90.803 C 279.016 94.349,279.122 96.864,279.284 97.167 C 279.596 97.750,347.642 97.978,348.722 97.400 C 349.196 97.146,349.223 96.795,349.223 90.803 C 349.223 84.811,349.196 84.460,348.722 84.206 C 347.642 83.628,279.596 83.856,279.284 84.439 M48.615 104.101 C 47.970 104.814,47.970 115.560,48.615 116.095 C 49.281 116.648,116.689 116.758,118.005 116.209 L 118.912 115.830 118.912 110.147 L 118.912 104.464 118.273 104.045 C 117.221 103.356,49.241 103.410,48.615 104.101 M164.517 104.128 C 163.965 105.159,164.172 116.003,164.750 116.312 C 165.670 116.805,233.431 116.673,234.139 116.177 C 234.957 115.604,235.048 104.786,234.241 104.056 C 233.442 103.332,164.905 103.403,164.517 104.128 M279.284 104.128 C 278.732 105.159,278.939 116.003,279.517 116.312 C 280.215 116.686,348.024 116.686,348.722 116.312 C 349.336 115.983,349.512 104.538,348.912 103.938 C 348.294 103.319,279.616 103.507,279.284 104.128 M48.640 122.819 C 48.021 123.179,47.944 134.026,48.554 134.860 C 49.126 135.642,117.502 135.651,118.367 134.869 C 119.140 134.170,119.222 123.479,118.459 122.899 C 117.880 122.460,49.391 122.381,48.640 122.819 M164.560 122.850 C 164.039 123.370,164.127 134.557,164.656 135.085 C 165.022 135.451,168.523 135.492,199.326 135.492 L 233.588 135.492 234.152 134.893 C 234.956 134.037,235.034 123.685,234.241 122.968 C 233.626 122.411,165.115 122.295,164.560 122.850 M279.067 122.850 C 278.493 123.424,278.641 134.530,279.230 135.063 C 280.003 135.763,348.160 135.719,348.794 135.018 C 349.342 134.413,349.449 123.387,348.912 122.850 C 348.460 122.398,279.519 122.398,279.067 122.850 M49.320 141.472 C 48.251 141.784,48.187 142.174,48.187 148.360 C 48.187 153.357,48.191 153.396,48.822 154.027 L 49.458 154.663 83.459 154.663 L 117.459 154.663 118.185 153.967 L 118.912 153.271 118.912 147.908 C 118.912 143.013,118.869 142.491,118.417 141.933 L 117.921 141.321 84.026 141.278 C 64.247 141.253,49.792 141.334,49.320 141.472 M164.629 141.816 C 164.073 142.665,164.165 153.551,164.734 154.235 C 165.061 154.629,167.821 154.663,199.388 154.663 L 233.686 154.663 234.210 153.821 C 235.068 152.442,234.873 142.414,233.974 141.687 C 233.379 141.205,232.440 141.192,199.200 141.192 L 165.038 141.192 164.629 141.816 M279.332 141.595 C 278.561 142.135,278.425 152.880,279.175 154.025 L 279.593 154.663 314.005 154.663 L 348.416 154.663 348.820 154.087 C 349.557 153.035,349.406 142.127,348.647 141.595 C 348.133 141.235,344.417 141.192,313.990 141.192 C 283.562 141.192,279.846 141.235,279.332 141.595 M48.822 160.999 C 48.176 161.645,47.834 169.936,48.348 172.505 C 48.621 173.871,47.876 173.845,84.193 173.772 L 117.921 173.705 118.417 173.093 C 118.869 172.535,118.912 172.013,118.912 167.118 L 118.912 161.755 118.185 161.059 L 117.459 160.363 83.459 160.363 L 49.458 160.363 48.822 160.999 M164.734 160.790 C 164.165 161.475,164.073 172.361,164.629 173.210 L 165.038 173.834 199.200 173.834 C 232.440 173.834,233.379 173.821,233.974 173.339 C 234.873 172.612,235.068 162.583,234.210 161.205 L 233.686 160.363 199.388 160.363 C 167.821 160.363,165.061 160.397,164.734 160.790 M279.175 161.001 C 278.484 162.056,278.563 171.830,279.272 172.992 L 279.785 173.834 313.928 173.834 C 344.411 173.834,348.133 173.791,348.647 173.431 C 349.406 172.899,349.557 161.991,348.820 160.938 L 348.416 160.363 314.005 160.363 L 279.593 160.363 279.175 161.001 M49.998 179.925 C 49.587 180.420,49.809 182.261,50.352 182.861 C 50.569 183.101,50.862 183.810,51.003 184.436 C 51.144 185.062,51.482 185.877,51.754 186.246 C 52.027 186.615,52.391 187.345,52.563 187.868 C 52.735 188.391,53.053 188.965,53.269 189.144 C 53.485 189.323,53.842 189.828,54.062 190.266 C 54.283 190.704,54.763 191.383,55.130 191.775 L 55.796 192.487 83.541 192.487 L 111.285 192.487 112.119 191.603 C 112.577 191.117,113.170 190.212,113.435 189.592 C 113.701 188.972,114.109 188.307,114.341 188.114 C 114.573 187.921,114.890 187.294,115.044 186.720 C 115.199 186.146,115.545 185.372,115.814 185.001 C 116.083 184.630,116.426 183.765,116.576 183.079 C 116.726 182.394,117.017 181.576,117.222 181.263 C 117.638 180.628,117.498 180.272,116.662 179.832 C 115.694 179.322,50.423 179.413,49.998 179.925 M166.114 179.845 C 165.561 180.397,165.760 182.170,166.545 183.679 C 166.953 184.462,167.361 185.417,167.452 185.799 C 167.617 186.492,168.024 187.212,169.624 189.642 C 170.087 190.345,170.466 191.035,170.466 191.175 C 170.466 192.547,169.143 192.487,199.506 192.487 L 227.413 192.487 228.336 191.202 C 228.844 190.495,229.419 189.533,229.615 189.065 C 229.811 188.596,230.159 188.057,230.388 187.867 C 230.617 187.677,230.984 186.905,231.203 186.152 C 231.422 185.399,231.774 184.639,231.985 184.464 C 232.197 184.288,232.442 183.719,232.531 183.199 C 232.619 182.679,232.819 181.879,232.975 181.421 C 233.213 180.720,233.183 180.506,232.781 180.061 C 232.198 179.417,166.754 179.204,166.114 179.845 M280.691 180.158 C 280.270 180.801,280.696 183.508,281.282 183.914 C 281.404 183.998,281.717 184.650,281.979 185.363 C 282.240 186.075,282.599 186.833,282.776 187.047 C 282.952 187.260,283.345 187.960,283.648 188.601 C 284.207 189.784,285.128 191.211,285.864 192.034 C 286.245 192.460,287.924 192.487,314.138 192.487 C 343.028 192.487,342.746 192.496,342.746 191.528 C 342.746 191.408,343.079 190.904,343.487 190.409 C 343.894 189.913,344.319 189.216,344.431 188.860 C 344.543 188.504,344.894 187.863,345.211 187.435 C 345.528 187.008,345.865 186.328,345.961 185.925 C 346.056 185.521,346.414 184.763,346.757 184.241 C 347.668 182.848,347.931 180.211,347.198 179.818 C 346.820 179.616,337.200 179.534,313.883 179.534 L 281.100 179.534 280.691 180.158 M63.233 198.773 C 62.252 199.274,62.332 199.598,63.592 200.227 C 64.234 200.547,64.848 200.962,64.957 201.147 C 65.066 201.332,65.563 201.689,66.062 201.939 C 66.561 202.189,67.144 202.540,67.358 202.718 C 67.571 202.896,68.385 203.250,69.165 203.505 C 69.946 203.759,70.731 204.114,70.911 204.294 C 71.091 204.473,72.027 204.800,72.992 205.019 C 73.957 205.239,75.154 205.627,75.651 205.883 C 77.141 206.649,90.314 206.575,91.969 205.792 C 92.610 205.488,93.543 205.160,94.041 205.061 C 94.540 204.963,95.531 204.614,96.244 204.285 C 96.956 203.956,98.034 203.481,98.640 203.229 C 99.245 202.977,99.741 202.681,99.741 202.571 C 99.741 202.462,100.141 202.240,100.630 202.078 C 101.119 201.917,101.931 201.471,102.435 201.087 C 102.938 200.703,103.661 200.168,104.041 199.897 L 104.732 199.406 104.114 198.932 C 103.329 198.328,64.402 198.177,63.233 198.773 M178.738 198.927 L 178.143 199.408 179.969 200.611 C 180.973 201.272,181.879 201.813,181.982 201.813 C 182.085 201.813,182.655 202.155,183.248 202.572 C 183.841 202.990,184.822 203.474,185.427 203.650 C 186.033 203.825,186.528 204.053,186.528 204.157 C 186.528 204.261,187.315 204.545,188.277 204.788 C 189.239 205.030,190.551 205.481,191.192 205.788 C 192.855 206.586,205.990 206.654,207.561 205.872 C 208.086 205.611,209.357 205.181,210.386 204.916 C 211.414 204.652,212.325 204.323,212.410 204.186 C 212.495 204.048,213.257 203.693,214.102 203.396 C 214.948 203.099,215.705 202.755,215.786 202.632 C 215.867 202.510,216.224 202.259,216.580 202.076 C 219.593 200.524,220.783 199.391,220.013 198.806 C 219.188 198.180,179.517 198.296,178.738 198.927 M293.565 198.860 C 292.860 199.354,293.235 199.970,294.578 200.526 C 294.995 200.699,295.337 200.922,295.337 201.022 C 295.337 201.122,295.859 201.464,296.497 201.783 C 297.135 202.101,297.720 202.464,297.797 202.589 C 297.874 202.714,298.587 203.059,299.381 203.356 C 300.175 203.653,300.980 204.052,301.171 204.242 C 301.361 204.433,302.254 204.733,303.155 204.909 C 304.056 205.086,305.317 205.478,305.959 205.781 C 308.048 206.769,321.449 206.707,322.664 205.705 C 322.809 205.585,323.685 205.293,324.611 205.056 C 325.538 204.819,326.554 204.459,326.869 204.256 C 327.185 204.052,328.001 203.699,328.683 203.471 C 329.364 203.243,330.155 202.849,330.440 202.594 C 330.725 202.340,331.211 202.056,331.519 201.963 C 331.827 201.869,332.493 201.477,332.999 201.091 C 333.506 200.705,334.234 200.165,334.617 199.893 L 335.314 199.397 334.727 198.921 C 333.878 198.234,294.542 198.176,293.565 198.860 " stroke="none" fill="#ffffff" fill-rule="evenodd"></path></g></svg>