<svg id="svg" version="1.1" xmlns="http://www.w3.org/2000/svg" xmlns:xlink="http://www.w3.org/1999/xlink" width="400" height="258.91472868217056" viewBox="0, 0, 400,258.91472868217056"><g id="svgg"><path id="path0" d="M0.000 0.518 C 0.000 0.967,0.173 1.036,1.295 1.036 C 2.560 1.036,3.627 1.629,3.627 2.332 C 3.627 2.474,4.093 2.591,4.663 2.591 C 5.657 2.591,6.736 3.256,6.736 3.869 C 6.736 4.001,6.976 4.186,7.270 4.280 C 7.563 4.373,7.932 4.730,8.088 5.074 C 8.308 5.557,8.574 5.699,9.256 5.699 C 10.315 5.699,11.140 6.098,11.140 6.609 C 11.140 6.814,11.475 7.155,11.884 7.366 C 12.294 7.578,12.691 7.989,12.767 8.280 C 12.874 8.690,13.117 8.808,13.853 8.808 C 14.972 8.808,15.803 9.196,15.803 9.717 C 15.803 9.923,16.138 10.264,16.547 10.475 C 16.957 10.687,17.354 11.098,17.430 11.389 C 17.537 11.799,17.780 11.917,18.516 11.917 C 19.635 11.917,20.466 12.305,20.466 12.826 C 20.466 13.031,20.801 13.372,21.211 13.584 C 21.620 13.796,22.017 14.207,22.093 14.497 C 22.199 14.903,22.443 15.026,23.141 15.026 C 24.392 15.026,24.870 15.251,25.143 15.968 C 25.328 16.455,25.566 16.580,26.306 16.580 C 27.409 16.580,28.238 16.971,28.238 17.490 C 28.238 17.695,28.573 18.036,28.983 18.247 C 29.392 18.459,29.789 18.870,29.865 19.161 C 29.972 19.571,30.215 19.689,30.951 19.689 C 32.070 19.689,32.902 20.077,32.902 20.598 C 32.902 20.803,33.236 21.144,33.646 21.356 C 34.055 21.568,34.452 21.979,34.528 22.269 C 34.636 22.680,34.878 22.798,35.615 22.798 C 36.733 22.798,37.565 23.186,37.565 23.707 C 37.565 23.912,37.900 24.253,38.309 24.465 C 38.718 24.677,39.116 25.088,39.192 25.378 C 39.302 25.800,39.541 25.907,40.372 25.907 C 41.359 25.907,42.228 26.403,42.228 26.967 C 42.228 27.102,42.507 27.340,42.847 27.495 C 43.188 27.650,43.593 28.056,43.748 28.396 C 43.972 28.889,44.231 29.016,45.007 29.020 C 46.135 29.024,46.437 29.182,46.862 29.987 C 47.100 30.439,47.395 30.570,48.177 30.570 C 49.132 30.570,50.000 31.075,50.000 31.630 C 50.000 31.766,50.279 32.003,50.619 32.158 C 50.960 32.314,51.365 32.719,51.520 33.060 C 51.748 33.560,51.998 33.679,52.826 33.679 C 53.795 33.679,54.663 34.180,54.663 34.739 C 54.663 34.874,54.942 35.112,55.282 35.267 C 55.623 35.422,56.028 35.828,56.183 36.168 C 56.412 36.669,56.661 36.788,57.489 36.788 C 58.458 36.788,59.326 37.289,59.326 37.848 C 59.326 37.983,59.605 38.221,59.946 38.376 C 60.286 38.531,60.692 38.937,60.847 39.277 C 61.075 39.778,61.325 39.896,62.152 39.896 C 63.121 39.896,63.990 40.397,63.990 40.957 C 63.990 41.092,64.268 41.330,64.609 41.485 C 64.949 41.640,65.355 42.046,65.510 42.386 C 65.734 42.878,65.992 43.006,66.769 43.009 C 67.897 43.014,68.199 43.171,68.623 43.977 C 68.861 44.429,69.156 44.560,69.939 44.560 C 70.894 44.560,71.762 45.065,71.762 45.620 C 71.762 45.755,72.040 45.993,72.381 46.148 C 72.721 46.303,73.127 46.709,73.282 47.049 C 73.510 47.550,73.760 47.668,74.587 47.668 C 75.557 47.668,76.425 48.169,76.425 48.729 C 76.425 48.864,76.703 49.102,77.044 49.257 C 77.384 49.412,77.790 49.818,77.945 50.158 C 78.174 50.660,78.423 50.777,79.259 50.777 C 79.865 50.777,80.428 50.940,80.625 51.173 C 82.400 53.273,83.173 53.886,84.050 53.886 C 84.759 53.886,85.085 54.057,85.533 54.663 C 85.983 55.272,86.306 55.440,87.024 55.440 C 87.806 55.440,88.155 55.667,89.419 56.995 C 90.631 58.269,91.049 58.549,91.735 58.549 C 92.421 58.549,92.835 58.828,94.041 60.104 C 95.265 61.397,95.656 61.658,96.373 61.658 C 97.090 61.658,97.481 61.919,98.705 63.212 C 99.928 64.506,100.319 64.767,101.036 64.767 C 101.753 64.767,102.145 65.028,103.368 66.321 C 104.634 67.660,104.967 67.876,105.769 67.876 C 106.508 67.876,106.815 68.036,107.254 68.653 C 107.693 69.270,108.000 69.430,108.739 69.430 C 109.541 69.430,109.874 69.645,111.140 70.984 C 112.363 72.278,112.754 72.539,113.472 72.539 C 114.189 72.539,114.580 72.800,115.803 74.093 C 117.026 75.387,117.418 75.648,118.135 75.648 C 118.852 75.648,119.243 75.908,120.466 77.202 C 121.690 78.496,122.081 78.756,122.798 78.756 C 123.515 78.756,123.906 79.017,125.130 80.311 C 126.396 81.650,126.729 81.865,127.531 81.865 C 128.270 81.865,128.576 82.026,129.016 82.642 C 129.472 83.283,129.750 83.420,130.600 83.420 C 131.473 83.420,131.698 83.538,132.072 84.195 C 132.314 84.622,132.651 84.972,132.819 84.972 C 132.988 84.973,133.370 85.317,133.668 85.737 C 134.098 86.339,134.440 86.516,135.299 86.579 C 136.153 86.641,136.455 86.795,136.703 87.295 C 136.876 87.645,137.260 88.021,137.555 88.130 C 137.849 88.239,138.200 88.616,138.334 88.968 C 138.538 89.506,138.773 89.621,139.813 89.687 C 140.826 89.752,141.107 89.882,141.366 90.404 C 141.540 90.754,141.923 91.130,142.218 91.239 C 142.512 91.348,142.863 91.725,142.997 92.077 C 143.202 92.615,143.436 92.729,144.477 92.796 C 145.490 92.861,145.770 92.991,146.029 93.512 C 146.203 93.863,146.586 94.238,146.881 94.347 C 147.176 94.456,147.526 94.834,147.660 95.186 C 147.865 95.724,148.100 95.838,149.140 95.905 C 150.160 95.971,150.432 96.098,150.696 96.632 C 150.952 97.152,151.259 97.305,152.250 97.409 C 153.234 97.513,153.550 97.668,153.801 98.176 C 153.975 98.526,154.358 98.902,154.653 99.011 C 154.948 99.120,155.298 99.497,155.432 99.849 C 155.637 100.387,155.872 100.501,156.912 100.568 C 157.925 100.633,158.205 100.763,158.464 101.284 C 158.638 101.635,159.021 102.010,159.316 102.119 C 159.611 102.228,159.962 102.606,160.095 102.958 C 160.300 103.496,160.535 103.610,161.575 103.677 C 162.588 103.742,162.869 103.872,163.127 104.393 C 163.301 104.743,163.694 105.123,164.000 105.236 C 164.306 105.349,164.618 105.675,164.692 105.959 C 164.787 106.322,165.045 106.477,165.557 106.477 C 166.687 106.477,167.603 106.924,167.860 107.602 C 167.989 107.942,168.346 108.285,168.652 108.365 C 168.959 108.445,169.273 108.753,169.350 109.048 C 169.450 109.432,169.700 109.585,170.221 109.585 C 171.312 109.585,172.214 110.008,172.405 110.607 C 172.538 111.026,172.792 111.140,173.593 111.140 C 174.553 111.140,175.648 111.808,175.648 112.394 C 175.648 112.513,175.929 112.739,176.273 112.896 C 176.617 113.053,176.974 113.421,177.068 113.715 C 177.201 114.135,177.454 114.249,178.256 114.249 C 179.216 114.249,180.311 114.917,180.311 115.502 C 180.311 115.622,180.592 115.848,180.936 116.005 C 181.280 116.161,181.638 116.530,181.731 116.824 C 181.864 117.244,182.118 117.358,182.919 117.358 C 183.879 117.358,184.974 118.026,184.974 118.611 C 184.974 118.731,185.255 118.957,185.599 119.114 C 185.943 119.270,186.301 119.639,186.394 119.932 C 186.527 120.352,186.781 120.466,187.582 120.466 C 188.571 120.466,189.637 121.138,189.637 121.762 C 189.637 121.904,190.104 122.021,190.674 122.021 C 191.668 122.021,192.746 122.686,192.746 123.299 C 192.746 123.431,192.986 123.616,193.280 123.710 C 193.574 123.803,193.942 124.160,194.099 124.504 C 194.328 125.007,194.578 125.130,195.378 125.130 C 196.343 125.130,197.125 125.617,197.506 126.457 C 197.644 126.759,197.693 126.759,197.830 126.457 C 198.219 125.603,198.992 125.130,200.000 125.130 C 200.570 125.130,201.036 125.013,201.036 124.870 C 201.036 124.255,202.102 123.575,203.067 123.575 C 203.867 123.575,204.118 123.453,204.347 122.950 C 204.503 122.606,204.872 122.248,205.166 122.155 C 205.459 122.062,205.699 121.877,205.699 121.744 C 205.699 121.145,206.777 120.466,207.730 120.466 C 208.530 120.466,208.781 120.344,209.010 119.841 C 209.167 119.497,209.535 119.140,209.829 119.046 C 210.122 118.953,210.363 118.768,210.363 118.635 C 210.363 118.036,211.441 117.358,212.394 117.358 C 213.194 117.358,213.444 117.235,213.673 116.732 C 213.830 116.388,214.198 116.031,214.492 115.938 C 214.786 115.844,215.026 115.659,215.026 115.527 C 215.026 114.919,216.104 114.249,217.081 114.249 C 217.882 114.249,218.136 114.135,218.269 113.716 C 218.458 113.119,219.361 112.694,220.442 112.694 C 220.957 112.694,221.244 112.511,221.455 112.047 C 221.618 111.690,221.925 111.399,222.138 111.399 C 222.351 111.399,222.699 111.064,222.910 110.655 C 223.301 109.899,223.941 109.595,225.153 109.589 C 225.615 109.587,225.915 109.384,226.119 108.938 C 226.281 108.582,226.588 108.290,226.801 108.290 C 227.014 108.290,227.362 107.955,227.574 107.546 C 227.964 106.791,228.604 106.487,229.816 106.480 C 230.278 106.478,230.579 106.275,230.782 105.829 C 230.944 105.473,231.248 105.181,231.457 105.181 C 231.666 105.181,231.990 104.861,232.177 104.469 C 232.461 103.874,232.722 103.735,233.756 103.627 C 234.751 103.523,235.058 103.370,235.315 102.850 C 235.578 102.316,235.851 102.188,236.871 102.123 C 237.911 102.056,238.146 101.942,238.350 101.403 C 238.484 101.051,238.835 100.674,239.129 100.565 C 239.424 100.456,239.808 100.080,239.981 99.730 C 240.240 99.208,240.521 99.079,241.534 99.014 C 242.574 98.947,242.809 98.833,243.013 98.294 C 243.147 97.942,243.498 97.565,243.793 97.456 C 244.087 97.347,244.471 96.971,244.645 96.621 C 244.903 96.100,245.184 95.970,246.197 95.905 C 247.237 95.838,247.472 95.724,247.677 95.186 C 247.810 94.834,248.161 94.456,248.456 94.347 C 248.751 94.238,249.134 93.863,249.308 93.512 C 249.559 93.005,249.875 92.849,250.859 92.746 C 251.849 92.642,252.157 92.489,252.413 91.969 C 252.677 91.435,252.949 91.307,253.969 91.242 C 255.009 91.175,255.244 91.061,255.449 90.522 C 255.582 90.170,255.933 89.793,256.228 89.684 C 256.523 89.575,256.906 89.199,257.080 88.849 C 257.339 88.328,257.619 88.198,258.632 88.133 C 259.672 88.066,259.907 87.952,260.112 87.414 C 260.246 87.062,260.596 86.684,260.891 86.575 C 261.186 86.466,261.569 86.091,261.743 85.740 C 261.994 85.233,262.310 85.077,263.294 84.974 C 264.285 84.870,264.592 84.717,264.848 84.197 C 265.112 83.663,265.384 83.535,266.404 83.470 C 267.444 83.403,267.679 83.289,267.884 82.750 C 268.018 82.398,268.368 82.021,268.663 81.912 C 268.958 81.803,269.341 81.427,269.515 81.077 C 269.769 80.565,270.058 80.425,270.993 80.364 C 271.969 80.300,272.224 80.165,272.594 79.522 C 272.835 79.101,273.184 78.756,273.369 78.755 C 273.554 78.754,273.903 78.404,274.146 77.978 C 274.512 77.335,274.752 77.202,275.548 77.202 C 276.387 77.202,276.697 77.004,277.979 75.648 C 279.245 74.309,279.578 74.093,280.381 74.093 C 281.120 74.093,281.426 73.933,281.865 73.316 C 282.304 72.699,282.611 72.539,283.350 72.539 C 284.152 72.539,284.485 72.323,285.751 70.984 C 286.975 69.691,287.366 69.430,288.083 69.430 C 288.800 69.430,289.191 69.169,290.415 67.876 C 291.638 66.582,292.029 66.321,292.746 66.321 C 293.463 66.321,293.854 66.060,295.078 64.767 C 296.344 63.428,296.677 63.212,297.479 63.212 C 298.218 63.212,298.525 63.052,298.964 62.435 C 299.403 61.818,299.709 61.658,300.448 61.658 C 301.251 61.658,301.584 61.443,302.850 60.104 C 304.073 58.810,304.464 58.549,305.181 58.549 C 305.898 58.549,306.290 58.288,307.513 56.995 C 308.719 55.719,309.133 55.440,309.820 55.440 C 310.506 55.440,310.924 55.160,312.136 53.886 C 313.399 52.558,313.748 52.332,314.531 52.332 C 315.248 52.332,315.571 52.163,316.021 51.554 C 316.471 50.946,316.794 50.777,317.512 50.777 C 318.295 50.777,318.644 50.551,319.908 49.223 C 321.202 47.863,321.508 47.668,322.357 47.668 C 323.129 47.668,323.385 47.542,323.609 47.049 C 323.764 46.709,324.170 46.303,324.510 46.148 C 324.851 45.993,325.130 45.755,325.130 45.620 C 325.130 45.065,325.998 44.560,326.952 44.560 C 327.735 44.560,328.030 44.429,328.268 43.977 C 328.692 43.171,328.994 43.014,330.122 43.009 C 330.899 43.006,331.157 42.878,331.381 42.386 C 331.536 42.046,331.942 41.640,332.282 41.485 C 332.623 41.330,332.902 41.092,332.902 40.957 C 332.902 40.397,333.770 39.896,334.739 39.896 C 335.567 39.896,335.816 39.778,336.044 39.277 C 336.200 38.937,336.605 38.531,336.946 38.376 C 337.286 38.221,337.565 37.983,337.565 37.848 C 337.565 37.289,338.433 36.788,339.402 36.788 C 340.230 36.788,340.480 36.669,340.708 36.168 C 340.863 35.828,341.268 35.422,341.609 35.267 C 341.949 35.112,342.228 34.874,342.228 34.739 C 342.228 34.184,343.096 33.679,344.051 33.679 C 344.833 33.679,345.128 33.548,345.366 33.096 C 345.791 32.291,346.093 32.133,347.221 32.128 C 347.997 32.125,348.255 31.997,348.480 31.505 C 348.635 31.165,349.040 30.759,349.381 30.604 C 349.721 30.449,350.000 30.211,350.000 30.076 C 350.000 29.517,350.868 29.016,351.838 29.016 C 352.665 29.016,352.915 28.897,353.143 28.396 C 353.298 28.056,353.704 27.650,354.044 27.495 C 354.385 27.340,354.663 27.102,354.663 26.967 C 354.663 26.408,355.532 25.907,356.501 25.907 C 357.328 25.907,357.578 25.788,357.806 25.288 C 357.961 24.947,358.367 24.542,358.707 24.386 C 359.048 24.231,359.326 23.994,359.326 23.858 C 359.326 23.299,360.195 22.798,361.165 22.798 C 362.003 22.798,362.231 22.687,362.422 22.186 C 362.694 21.469,363.173 21.244,364.424 21.244 C 365.122 21.244,365.366 21.120,365.472 20.715 C 365.548 20.424,365.945 20.013,366.354 19.802 C 366.764 19.590,367.098 19.249,367.098 19.044 C 367.098 18.522,367.930 18.135,369.049 18.135 C 369.785 18.135,370.028 18.017,370.135 17.606 C 370.211 17.316,370.608 16.904,371.017 16.693 C 371.427 16.481,371.762 16.140,371.762 15.935 C 371.762 15.414,372.593 15.026,373.712 15.026 C 374.448 15.026,374.691 14.908,374.798 14.497 C 374.874 14.207,375.271 13.796,375.681 13.584 C 376.090 13.372,376.425 13.031,376.425 12.826 C 376.425 12.307,377.255 11.917,378.357 11.917 C 379.097 11.917,379.335 11.792,379.520 11.305 C 379.793 10.588,380.271 10.363,381.522 10.363 C 382.220 10.363,382.464 10.240,382.570 9.834 C 382.646 9.544,383.043 9.132,383.453 8.921 C 383.862 8.709,384.197 8.368,384.197 8.163 C 384.197 7.641,385.028 7.254,386.147 7.254 C 386.883 7.254,387.126 7.136,387.233 6.725 C 387.309 6.435,387.706 6.024,388.116 5.812 C 388.525 5.600,388.860 5.259,388.860 5.054 C 388.860 4.535,389.690 4.145,390.792 4.145 C 391.532 4.145,391.770 4.020,391.955 3.533 C 392.224 2.826,392.707 2.591,393.892 2.591 C 394.532 2.591,394.804 2.440,395.020 1.965 C 395.177 1.622,395.545 1.264,395.839 1.171 C 396.136 1.077,396.373 0.779,396.373 0.501 C 396.373 0.006,393.897 0.000,198.187 0.000 C 0.173 0.000,0.000 0.000,0.000 0.518 M398.762 8.915 C 398.605 9.259,398.243 9.615,397.957 9.706 C 397.670 9.797,397.362 10.105,397.271 10.391 C 397.084 10.981,396.174 11.399,395.078 11.399 C 394.556 11.399,394.285 11.557,394.166 11.933 C 394.073 12.227,393.717 12.594,393.376 12.749 C 393.035 12.905,392.686 13.254,392.599 13.526 C 392.421 14.087,391.497 14.508,390.439 14.508 C 389.924 14.508,389.637 14.691,389.425 15.155 C 389.263 15.512,388.956 15.803,388.743 15.803 C 388.530 15.803,388.182 16.138,387.970 16.547 C 387.578 17.307,386.940 17.607,385.704 17.613 C 385.232 17.615,384.955 17.788,384.840 18.150 C 384.650 18.747,383.748 19.171,382.667 19.171 C 382.152 19.171,381.865 19.354,381.653 19.819 C 381.491 20.175,381.184 20.466,380.971 20.466 C 380.758 20.466,380.410 20.801,380.198 21.211 C 379.808 21.966,379.168 22.270,377.956 22.276 C 377.494 22.279,377.193 22.481,376.990 22.927 C 376.828 23.284,376.521 23.575,376.308 23.575 C 376.094 23.575,375.747 23.910,375.535 24.319 C 375.145 25.075,374.505 25.379,373.293 25.385 C 372.831 25.388,372.530 25.590,372.327 26.036 C 372.165 26.392,371.857 26.684,371.644 26.684 C 371.431 26.684,371.076 27.034,370.855 27.461 C 370.500 28.148,370.319 28.238,369.301 28.238 C 368.282 28.238,368.101 28.329,367.746 29.016 C 367.390 29.704,367.212 29.793,366.179 29.793 C 365.170 29.793,364.979 29.881,364.764 30.447 C 364.627 30.807,364.274 31.191,363.979 31.300 C 363.685 31.409,363.301 31.785,363.127 32.135 C 362.869 32.657,362.588 32.786,361.575 32.851 C 360.535 32.918,360.300 33.032,360.095 33.571 C 359.962 33.923,359.611 34.300,359.316 34.409 C 359.021 34.518,358.638 34.894,358.464 35.244 C 358.205 35.766,357.925 35.895,356.912 35.960 C 355.872 36.027,355.637 36.141,355.432 36.680 C 355.298 37.032,354.948 37.409,354.653 37.518 C 354.358 37.627,353.975 38.003,353.801 38.353 C 353.550 38.860,353.234 39.016,352.250 39.119 C 351.259 39.223,350.952 39.377,350.696 39.896 C 350.432 40.431,350.160 40.558,349.140 40.623 C 348.100 40.690,347.865 40.805,347.660 41.343 C 347.526 41.695,347.176 42.072,346.881 42.181 C 346.586 42.290,346.203 42.666,346.029 43.016 C 345.770 43.538,345.490 43.667,344.477 43.732 C 343.436 43.799,343.202 43.913,342.997 44.452 C 342.863 44.804,342.512 45.181,342.218 45.290 C 341.923 45.399,341.540 45.775,341.366 46.125 C 341.107 46.647,340.826 46.776,339.813 46.841 C 338.773 46.908,338.538 47.022,338.334 47.560 C 338.200 47.912,337.849 48.290,337.555 48.399 C 337.260 48.508,336.876 48.883,336.703 49.234 C 336.451 49.741,336.136 49.897,335.152 50.000 C 334.161 50.104,333.854 50.258,333.597 50.777 C 333.334 51.311,333.061 51.439,332.041 51.504 C 331.001 51.571,330.766 51.685,330.562 52.224 C 330.428 52.576,330.077 52.953,329.782 53.062 C 329.488 53.171,329.104 53.547,328.931 53.897 C 328.672 54.419,328.391 54.548,327.378 54.613 C 326.328 54.681,326.104 54.792,325.892 55.351 C 325.754 55.713,325.437 56.062,325.188 56.127 C 324.938 56.193,324.537 56.589,324.296 57.009 C 323.919 57.667,323.705 57.772,322.745 57.774 C 321.781 57.775,321.573 57.879,321.191 58.551 C 320.802 59.234,320.609 59.326,319.572 59.326 C 318.924 59.326,318.394 59.439,318.394 59.577 C 318.394 60.404,315.839 62.435,314.799 62.435 C 314.211 62.435,313.731 62.548,313.731 62.686 C 313.731 63.389,311.184 65.544,310.353 65.544 C 309.648 65.544,309.248 65.812,308.031 67.098 C 306.765 68.437,306.432 68.653,305.630 68.653 C 304.891 68.653,304.584 68.813,304.145 69.430 C 303.706 70.047,303.399 70.207,302.660 70.207 C 301.858 70.207,301.525 70.423,300.259 71.762 C 299.036 73.055,298.645 73.316,297.927 73.316 C 297.210 73.316,296.819 73.577,295.596 74.870 C 294.390 76.146,293.976 76.425,293.289 76.425 C 292.603 76.425,292.185 76.706,290.973 77.979 C 289.710 79.307,289.360 79.534,288.578 79.534 C 287.861 79.534,287.538 79.702,287.088 80.311 C 286.638 80.920,286.314 81.088,285.597 81.088 C 284.814 81.088,284.465 81.314,283.201 82.642 C 281.978 83.928,281.574 84.197,280.869 84.197 C 280.165 84.197,279.761 84.466,278.538 85.751 C 277.315 87.037,276.911 87.306,276.206 87.306 C 275.501 87.306,275.098 87.575,273.875 88.860 C 272.589 90.212,272.271 90.415,271.440 90.415 C 270.713 90.415,270.411 90.554,270.178 90.997 C 269.754 91.803,269.451 91.960,268.323 91.965 C 267.547 91.968,267.289 92.096,267.064 92.588 C 266.909 92.929,266.504 93.334,266.163 93.489 C 265.823 93.644,265.544 93.882,265.544 94.017 C 265.544 94.577,264.676 95.078,263.707 95.078 C 262.879 95.078,262.629 95.196,262.401 95.697 C 262.246 96.037,261.840 96.443,261.500 96.598 C 261.159 96.753,260.881 96.991,260.881 97.126 C 260.881 97.682,260.013 98.187,259.058 98.187 C 258.276 98.187,257.980 98.317,257.742 98.769 C 257.318 99.575,257.016 99.732,255.888 99.737 C 255.112 99.740,254.853 99.868,254.629 100.360 C 254.474 100.701,254.068 101.106,253.728 101.261 C 253.387 101.416,253.109 101.654,253.109 101.789 C 253.109 102.349,252.240 102.850,251.271 102.850 C 250.444 102.850,250.194 102.968,249.966 103.469 C 249.811 103.809,249.405 104.215,249.065 104.370 C 248.724 104.525,248.446 104.763,248.446 104.898 C 248.446 105.457,247.577 105.959,246.608 105.959 C 245.781 105.959,245.531 106.077,245.303 106.578 C 245.148 106.918,244.742 107.324,244.401 107.479 C 244.061 107.634,243.782 107.872,243.782 108.007 C 243.782 108.562,242.914 109.067,241.960 109.067 C 241.177 109.067,240.882 109.198,240.644 109.650 C 240.220 110.456,239.918 110.613,238.790 110.618 C 238.013 110.621,237.755 110.749,237.531 111.241 C 237.376 111.581,236.970 111.987,236.629 112.142 C 236.289 112.297,236.010 112.535,236.010 112.670 C 236.010 113.234,235.142 113.731,234.154 113.731 C 233.323 113.731,233.084 113.838,232.974 114.259 C 232.898 114.550,232.501 114.961,232.091 115.172 C 231.682 115.384,231.347 115.725,231.347 115.930 C 231.347 116.452,230.516 116.839,229.397 116.839 C 228.661 116.839,228.418 116.957,228.311 117.368 C 228.235 117.659,227.838 118.070,227.428 118.281 C 227.019 118.493,226.684 118.834,226.684 119.039 C 226.684 119.558,225.854 119.948,224.752 119.948 C 224.012 119.948,223.774 120.074,223.589 120.561 C 223.316 121.277,222.838 121.503,221.587 121.503 C 220.889 121.503,220.645 121.626,220.539 122.031 C 220.463 122.322,220.066 122.733,219.656 122.944 C 219.247 123.156,218.912 123.497,218.912 123.702 C 218.912 124.224,218.081 124.611,216.962 124.611 C 216.225 124.611,215.983 124.729,215.875 125.140 C 215.799 125.431,215.402 125.842,214.993 126.053 C 214.584 126.265,214.249 126.606,214.249 126.811 C 214.249 127.333,213.417 127.720,212.298 127.720 C 211.562 127.720,211.320 127.838,211.212 128.249 C 211.136 128.539,210.739 128.950,210.330 129.162 C 209.920 129.374,209.585 129.715,209.585 129.920 C 209.585 130.438,208.756 130.829,207.660 130.829 C 206.525 130.829,206.196 132.695,207.270 133.036 C 207.563 133.129,207.932 133.487,208.088 133.831 C 208.305 134.305,208.577 134.456,209.217 134.456 C 210.402 134.456,210.884 134.691,211.153 135.398 C 211.338 135.885,211.577 136.010,212.316 136.010 C 213.419 136.010,214.249 136.401,214.249 136.920 C 214.249 137.125,214.584 137.466,214.993 137.677 C 215.402 137.889,215.799 138.300,215.875 138.591 C 215.983 139.001,216.225 139.119,216.962 139.119 C 218.081 139.119,218.912 139.507,218.912 140.028 C 218.912 140.233,219.247 140.574,219.656 140.786 C 220.066 140.998,220.463 141.409,220.539 141.699 C 220.646 142.110,220.889 142.228,221.625 142.228 C 222.744 142.228,223.575 142.616,223.575 143.137 C 223.575 143.342,223.910 143.683,224.319 143.895 C 224.729 144.107,225.126 144.518,225.202 144.808 C 225.309 145.219,225.552 145.337,226.288 145.337 C 227.407 145.337,228.238 145.724,228.238 146.246 C 228.238 146.451,228.573 146.792,228.983 147.004 C 229.392 147.215,229.789 147.626,229.865 147.917 C 229.971 148.322,230.215 148.446,230.913 148.446 C 232.164 148.446,232.642 148.671,232.915 149.388 C 233.106 149.889,233.334 150.000,234.172 150.000 C 235.133 150.000,236.010 150.500,236.010 151.048 C 236.010 151.177,236.345 151.455,236.755 151.667 C 237.164 151.879,237.561 152.290,237.637 152.580 C 237.747 153.002,237.986 153.109,238.817 153.109 C 239.805 153.109,240.674 153.605,240.674 154.169 C 240.674 154.305,240.952 154.542,241.293 154.697 C 241.633 154.852,242.039 155.258,242.194 155.599 C 242.422 156.099,242.672 156.218,243.499 156.218 C 244.468 156.218,245.337 156.719,245.337 157.278 C 245.337 157.413,245.615 157.651,245.956 157.806 C 246.296 157.961,246.702 158.367,246.857 158.707 C 247.085 159.208,247.335 159.326,248.162 159.326 C 249.132 159.326,250.000 159.827,250.000 160.387 C 250.000 160.522,250.279 160.760,250.619 160.915 C 250.960 161.070,251.365 161.476,251.520 161.816 C 251.745 162.308,252.003 162.436,252.779 162.439 C 253.907 162.444,254.209 162.601,254.634 163.407 C 254.872 163.859,255.167 163.990,255.949 163.990 C 256.904 163.990,257.772 164.495,257.772 165.050 C 257.772 165.185,258.051 165.423,258.391 165.578 C 258.732 165.733,259.137 166.139,259.292 166.479 C 259.520 166.980,259.770 167.098,260.598 167.098 C 261.567 167.098,262.435 167.600,262.435 168.159 C 262.435 168.294,262.714 168.532,263.054 168.687 C 263.395 168.842,263.800 169.248,263.956 169.588 C 264.184 170.089,264.433 170.207,265.261 170.207 C 266.230 170.207,267.098 170.708,267.098 171.268 C 267.098 171.403,267.377 171.641,267.718 171.796 C 268.058 171.951,268.464 172.356,268.619 172.697 C 268.847 173.198,269.097 173.316,269.924 173.316 C 270.893 173.316,271.762 173.817,271.762 174.376 C 271.762 174.512,272.040 174.749,272.381 174.905 C 272.721 175.060,273.127 175.465,273.282 175.806 C 273.506 176.298,273.764 176.426,274.541 176.429 C 275.669 176.433,275.971 176.591,276.395 177.396 C 276.634 177.850,276.928 177.979,277.719 177.979 C 278.312 177.979,278.875 178.144,279.070 178.375 C 280.796 180.416,281.628 181.088,282.432 181.088 C 283.127 181.088,283.538 181.363,284.755 182.642 C 285.978 183.928,286.382 184.197,287.087 184.197 C 287.792 184.197,288.196 184.466,289.419 185.751 C 290.677 187.073,291.033 187.306,291.804 187.306 C 292.516 187.306,292.830 187.473,293.264 188.083 C 293.703 188.700,294.010 188.860,294.749 188.860 C 295.551 188.860,295.884 189.076,297.150 190.415 C 298.374 191.708,298.765 191.969,299.482 191.969 C 300.199 191.969,300.590 192.230,301.813 193.523 C 303.037 194.817,303.428 195.078,304.145 195.078 C 304.862 195.078,305.253 195.338,306.477 196.632 C 307.700 197.926,308.091 198.187,308.808 198.187 C 309.525 198.187,309.917 198.447,311.140 199.741 C 312.406 201.080,312.739 201.295,313.541 201.295 C 314.280 201.295,314.587 201.456,315.026 202.073 C 315.465 202.689,315.772 202.850,316.511 202.850 C 317.313 202.850,317.646 203.065,318.912 204.404 C 320.135 205.698,320.526 205.959,321.244 205.959 C 321.961 205.959,322.352 206.219,323.575 207.513 C 324.858 208.869,325.168 209.067,326.006 209.067 C 326.802 209.067,327.043 209.200,327.408 209.843 C 327.651 210.269,328.001 210.619,328.186 210.620 C 328.370 210.621,328.719 210.966,328.961 211.387 C 329.331 212.031,329.585 212.165,330.566 212.229 C 331.546 212.294,331.786 212.419,332.072 213.018 C 332.259 213.410,332.572 213.731,332.769 213.731 C 332.965 213.731,333.370 214.074,333.668 214.493 C 334.098 215.096,334.440 215.273,335.299 215.335 C 336.159 215.398,336.454 215.550,336.706 216.062 C 336.963 216.582,337.270 216.735,338.261 216.839 C 339.244 216.943,339.560 217.098,339.812 217.606 C 339.985 217.956,340.369 218.332,340.663 218.441 C 340.958 218.550,341.309 218.927,341.443 219.279 C 341.647 219.817,341.882 219.931,342.922 219.998 C 343.935 220.063,344.216 220.193,344.475 220.714 C 344.648 221.065,345.032 221.440,345.327 221.549 C 345.621 221.659,345.972 222.036,346.106 222.388 C 346.310 222.926,346.545 223.040,347.585 223.107 C 348.598 223.172,348.879 223.302,349.138 223.823 C 349.312 224.174,349.695 224.549,349.990 224.658 C 350.285 224.767,350.635 225.145,350.769 225.496 C 350.974 226.035,351.209 226.149,352.249 226.216 C 353.262 226.281,353.542 226.410,353.801 226.932 C 353.975 227.282,354.358 227.658,354.653 227.767 C 354.948 227.876,355.298 228.253,355.432 228.605 C 355.637 229.144,355.872 229.258,356.912 229.325 C 357.932 229.390,358.204 229.518,358.468 230.052 C 358.724 230.571,359.031 230.725,360.022 230.829 C 361.006 230.932,361.322 231.088,361.573 231.595 C 361.747 231.946,362.140 232.325,362.446 232.438 C 362.752 232.551,363.063 232.877,363.138 233.161 C 363.232 233.524,363.491 233.679,364.003 233.679 C 365.133 233.679,366.048 234.126,366.306 234.805 C 366.435 235.144,366.791 235.487,367.098 235.567 C 367.404 235.647,367.718 235.955,367.796 236.250 C 367.893 236.621,368.148 236.789,368.618 236.791 C 369.842 236.797,370.480 237.099,370.872 237.857 C 371.084 238.266,371.431 238.601,371.644 238.601 C 371.857 238.601,372.165 238.892,372.327 239.249 C 372.567 239.776,372.807 239.896,373.617 239.896 C 374.581 239.896,375.648 240.576,375.648 241.192 C 375.648 241.334,375.990 241.451,376.408 241.451 C 377.504 241.451,378.429 241.863,378.610 242.433 C 378.696 242.704,379.046 243.054,379.387 243.209 C 379.728 243.365,380.083 243.732,380.176 244.026 C 380.310 244.446,380.563 244.560,381.365 244.560 C 382.325 244.560,383.420 245.228,383.420 245.813 C 383.420 245.933,383.701 246.159,384.045 246.316 C 384.389 246.472,384.746 246.841,384.840 247.134 C 384.973 247.554,385.226 247.668,386.028 247.668 C 386.988 247.668,388.083 248.336,388.083 248.922 C 388.083 249.042,388.364 249.268,388.708 249.424 C 389.052 249.581,389.410 249.950,389.503 250.243 C 389.636 250.663,389.890 250.777,390.691 250.777 C 391.651 250.777,392.746 251.445,392.746 252.031 C 392.746 252.151,393.027 252.377,393.371 252.533 C 393.715 252.690,394.073 253.058,394.166 253.352 C 394.299 253.772,394.553 253.886,395.354 253.886 C 396.060 253.886,396.524 254.053,396.865 254.430 C 397.482 255.112,397.738 255.368,398.420 255.984 C 398.834 256.359,398.964 256.785,398.964 257.772 C 398.964 258.895,399.033 259.067,399.482 259.067 C 399.999 259.067,400.000 258.895,400.000 133.679 C 400.000 12.110,399.985 8.290,399.523 8.290 C 399.261 8.290,398.919 8.571,398.762 8.915 M0.000 131.088 C 0.000 250.750,0.007 252.332,0.501 252.332 C 0.779 252.332,1.077 252.094,1.171 251.798 C 1.264 251.504,1.622 251.136,1.965 250.979 C 2.309 250.822,2.591 250.596,2.591 250.477 C 2.591 249.891,3.686 249.223,4.646 249.223 C 5.447 249.223,5.701 249.109,5.834 248.689 C 5.927 248.395,6.285 248.027,6.629 247.870 C 6.973 247.713,7.254 247.487,7.254 247.368 C 7.254 246.782,8.349 246.114,9.309 246.114 C 10.110 246.114,10.364 246.000,10.497 245.581 C 10.688 244.979,11.590 244.560,12.694 244.560 C 13.216 244.560,13.487 244.401,13.606 244.026 C 13.699 243.732,14.055 243.365,14.396 243.209 C 14.737 243.054,15.086 242.704,15.173 242.433 C 15.351 241.871,16.276 241.451,17.333 241.451 C 17.848 241.451,18.135 241.267,18.347 240.803 C 18.509 240.447,18.816 240.155,19.029 240.155 C 19.242 240.155,19.590 239.821,19.802 239.411 C 20.192 238.656,20.832 238.352,22.044 238.346 C 22.506 238.343,22.807 238.141,23.010 237.694 C 23.172 237.338,23.479 237.047,23.692 237.047 C 23.906 237.047,24.253 236.712,24.465 236.302 C 24.858 235.543,25.495 235.243,26.731 235.237 C 27.203 235.234,27.480 235.062,27.595 234.700 C 27.785 234.103,28.687 233.679,29.768 233.679 C 30.283 233.679,30.570 233.495,30.782 233.031 C 30.944 232.675,31.248 232.383,31.457 232.383 C 31.666 232.383,31.990 232.063,32.177 231.671 C 32.468 231.062,32.697 230.947,33.758 230.879 C 34.802 230.812,35.037 230.699,35.241 230.160 C 35.375 229.808,35.726 229.431,36.021 229.322 C 36.315 229.212,36.699 228.837,36.873 228.487 C 37.131 227.965,37.412 227.835,38.425 227.770 C 39.465 227.703,39.700 227.589,39.905 227.051 C 40.038 226.699,40.389 226.322,40.684 226.213 C 40.979 226.104,41.362 225.728,41.536 225.378 C 41.787 224.871,42.103 224.715,43.087 224.611 C 44.077 224.507,44.385 224.354,44.641 223.834 C 44.905 223.300,45.177 223.173,46.197 223.107 C 47.237 223.040,47.472 222.926,47.677 222.388 C 47.810 222.036,48.161 221.659,48.456 221.549 C 48.751 221.440,49.134 221.065,49.308 220.714 C 49.567 220.193,49.847 220.063,50.860 219.998 C 51.900 219.931,52.135 219.817,52.340 219.279 C 52.474 218.927,52.824 218.550,53.119 218.441 C 53.414 218.332,53.797 217.956,53.971 217.606 C 54.222 217.098,54.538 216.943,55.522 216.839 C 56.513 216.735,56.820 216.582,57.076 216.062 C 57.340 215.528,57.612 215.401,58.632 215.335 C 59.672 215.268,59.907 215.154,60.112 214.616 C 60.246 214.264,60.596 213.887,60.891 213.777 C 61.186 213.668,61.569 213.293,61.743 212.942 C 62.002 212.421,62.282 212.291,63.295 212.226 C 64.336 212.159,64.570 212.045,64.775 211.507 C 64.909 211.155,65.260 210.778,65.554 210.669 C 65.849 210.560,66.232 210.184,66.406 209.834 C 66.665 209.312,66.946 209.183,67.959 209.117 C 68.999 209.051,69.234 208.936,69.438 208.398 C 69.572 208.046,69.923 207.669,70.218 207.560 C 70.512 207.451,70.896 207.075,71.069 206.725 C 71.324 206.213,71.612 206.073,72.547 206.012 C 73.523 205.947,73.779 205.813,74.148 205.170 C 74.527 204.509,74.740 204.404,75.700 204.403 C 76.665 204.401,76.872 204.297,77.255 203.625 C 77.498 203.199,77.847 202.849,78.032 202.848 C 78.217 202.847,78.566 202.497,78.809 202.071 C 79.175 201.428,79.415 201.295,80.212 201.295 C 81.050 201.295,81.360 201.097,82.642 199.741 C 83.866 198.447,84.257 198.187,84.974 198.187 C 85.691 198.187,86.082 197.926,87.306 196.632 C 88.572 195.293,88.905 195.078,89.707 195.078 C 90.446 195.078,90.753 194.917,91.192 194.301 C 91.631 193.684,91.937 193.523,92.676 193.523 C 93.479 193.523,93.812 193.308,95.078 191.969 C 96.301 190.675,96.692 190.415,97.409 190.415 C 98.126 190.415,98.518 190.154,99.741 188.860 C 100.964 187.566,101.355 187.306,102.073 187.306 C 102.790 187.306,103.181 187.045,104.404 185.751 C 105.670 184.412,106.003 184.197,106.805 184.197 C 107.545 184.197,107.851 184.036,108.290 183.420 C 108.725 182.810,109.039 182.642,109.750 182.642 C 110.521 182.642,110.878 182.410,112.136 181.088 C 113.359 179.803,113.762 179.534,114.467 179.534 C 115.172 179.534,115.576 179.265,116.799 177.979 C 118.022 176.694,118.426 176.425,119.131 176.425 C 119.835 176.425,120.239 176.156,121.462 174.870 C 122.748 173.519,123.066 173.316,123.897 173.316 C 124.624 173.316,124.926 173.177,125.159 172.733 C 125.583 171.928,125.885 171.770,127.013 171.766 C 127.790 171.762,128.048 171.635,128.272 171.143 C 128.428 170.802,128.833 170.397,129.174 170.241 C 129.514 170.086,129.793 169.849,129.793 169.713 C 129.793 169.154,130.661 168.653,131.630 168.653 C 132.458 168.653,132.708 168.534,132.936 168.034 C 133.091 167.693,133.496 167.288,133.837 167.133 C 134.177 166.977,134.456 166.740,134.456 166.604 C 134.456 166.049,135.324 165.544,136.279 165.544 C 137.061 165.544,137.356 165.413,137.594 164.961 C 138.018 164.156,138.321 163.998,139.449 163.994 C 140.225 163.990,140.483 163.863,140.708 163.371 C 140.863 163.030,141.268 162.624,141.609 162.469 C 141.949 162.314,142.228 162.077,142.228 161.941 C 142.228 161.382,143.096 160.881,144.066 160.881 C 144.893 160.881,145.143 160.762,145.371 160.262 C 145.526 159.921,145.932 159.516,146.272 159.361 C 146.613 159.205,146.891 158.968,146.891 158.832 C 146.891 158.273,147.760 157.772,148.729 157.772 C 149.556 157.772,149.806 157.654,150.034 157.153 C 150.189 156.812,150.595 156.407,150.935 156.252 C 151.276 156.097,151.554 155.859,151.554 155.724 C 151.554 155.168,152.423 154.663,153.377 154.663 C 154.160 154.663,154.455 154.532,154.693 154.080 C 155.117 153.275,155.419 153.117,156.547 153.113 C 157.324 153.110,157.582 152.982,157.806 152.490 C 157.961 152.149,158.367 151.744,158.707 151.589 C 159.048 151.433,159.326 151.196,159.326 151.060 C 159.326 150.501,160.195 150.000,161.164 150.000 C 161.991 150.000,162.241 149.882,162.469 149.381 C 162.624 149.040,163.030 148.635,163.371 148.480 C 163.711 148.325,163.990 148.087,163.990 147.952 C 163.990 147.387,164.858 146.891,165.846 146.891 C 166.677 146.891,166.916 146.784,167.026 146.363 C 167.102 146.072,167.499 145.661,167.909 145.449 C 168.318 145.238,168.653 144.897,168.653 144.692 C 168.653 144.173,169.483 143.782,170.585 143.782 C 171.325 143.782,171.563 143.657,171.748 143.170 C 172.021 142.453,172.499 142.228,173.750 142.228 C 174.448 142.228,174.692 142.105,174.798 141.699 C 174.874 141.409,175.271 140.998,175.681 140.786 C 176.090 140.574,176.425 140.233,176.425 140.028 C 176.425 139.507,177.256 139.119,178.375 139.119 C 179.111 139.119,179.354 139.001,179.461 138.591 C 179.537 138.300,179.934 137.889,180.344 137.677 C 180.753 137.466,181.088 137.125,181.088 136.920 C 181.088 136.398,181.919 136.010,183.038 136.010 C 183.775 136.010,184.017 135.892,184.125 135.482 C 184.201 135.191,184.598 134.780,185.007 134.568 C 185.416 134.357,185.751 134.016,185.751 133.811 C 185.751 133.293,186.580 132.902,187.677 132.902 C 188.811 132.902,189.141 131.035,188.068 130.695 C 187.775 130.602,187.428 130.244,187.297 129.900 C 187.109 129.406,186.872 129.275,186.167 129.275 C 184.935 129.275,184.455 129.047,184.183 128.333 C 183.998 127.846,183.760 127.720,183.020 127.720 C 181.918 127.720,181.088 127.330,181.088 126.811 C 181.088 126.606,180.753 126.265,180.344 126.053 C 179.934 125.842,179.537 125.431,179.461 125.140 C 179.354 124.729,179.111 124.611,178.375 124.611 C 177.256 124.611,176.425 124.224,176.425 123.702 C 176.425 123.497,176.090 123.156,175.681 122.944 C 175.271 122.733,174.874 122.322,174.798 122.031 C 174.691 121.621,174.448 121.503,173.712 121.503 C 172.593 121.503,171.762 121.115,171.762 120.593 C 171.762 120.388,171.427 120.047,171.017 119.836 C 170.608 119.624,170.211 119.213,170.135 118.922 C 170.028 118.512,169.785 118.394,169.049 118.394 C 167.921 118.394,167.098 118.005,167.098 117.472 C 167.098 117.261,166.820 116.960,166.479 116.805 C 166.139 116.650,165.733 116.245,165.578 115.904 C 165.354 115.412,165.096 115.284,164.319 115.281 C 163.191 115.276,162.889 115.119,162.465 114.313 C 162.227 113.861,161.932 113.731,161.149 113.731 C 160.195 113.731,159.326 113.226,159.326 112.670 C 159.326 112.535,159.048 112.297,158.707 112.142 C 158.367 111.987,157.961 111.581,157.806 111.241 C 157.578 110.740,157.328 110.622,156.501 110.622 C 155.532 110.622,154.663 110.121,154.663 109.561 C 154.663 109.426,154.385 109.188,154.044 109.033 C 153.704 108.878,153.298 108.473,153.143 108.132 C 152.915 107.631,152.665 107.513,151.838 107.513 C 150.868 107.513,150.000 107.012,150.000 106.453 C 150.000 106.317,149.721 106.080,149.381 105.924 C 149.040 105.769,148.635 105.364,148.480 105.023 C 148.255 104.531,147.997 104.403,147.221 104.400 C 146.093 104.396,145.791 104.238,145.366 103.433 C 145.128 102.981,144.833 102.850,144.051 102.850 C 143.096 102.850,142.228 102.345,142.228 101.789 C 142.228 101.654,141.949 101.416,141.609 101.261 C 141.268 101.106,140.863 100.701,140.708 100.360 C 140.480 99.859,140.230 99.741,139.402 99.741 C 138.433 99.741,137.565 99.240,137.565 98.681 C 137.565 98.545,137.286 98.308,136.946 98.152 C 136.605 97.997,136.200 97.592,136.044 97.251 C 135.816 96.749,135.567 96.632,134.731 96.632 C 134.125 96.632,133.561 96.469,133.365 96.237 C 131.640 94.195,130.808 93.523,130.004 93.523 C 129.308 93.523,128.897 93.249,127.680 91.969 C 126.416 90.641,126.067 90.415,125.284 90.415 C 124.566 90.415,124.243 90.246,123.793 89.637 C 123.343 89.029,123.020 88.860,122.303 88.860 C 121.520 88.860,121.171 88.633,119.908 87.306 C 118.685 86.020,118.281 85.751,117.576 85.751 C 116.871 85.751,116.468 85.482,115.245 84.197 C 114.007 82.897,113.622 82.642,112.892 82.642 C 112.154 82.642,111.799 82.401,110.608 81.091 C 109.412 79.775,109.062 79.538,108.313 79.536 C 107.569 79.534,107.194 79.286,105.959 77.979 C 104.692 76.640,104.360 76.425,103.557 76.425 C 102.818 76.425,102.512 76.264,102.073 75.648 C 101.633 75.031,101.327 74.870,100.588 74.870 C 99.786 74.870,99.453 74.655,98.187 73.316 C 96.963 72.022,96.572 71.762,95.855 71.762 C 95.138 71.762,94.747 71.501,93.523 70.207 C 92.307 68.921,91.907 68.653,91.202 68.653 C 90.371 68.653,87.824 66.498,87.824 65.795 C 87.824 65.657,87.294 65.544,86.646 65.544 C 85.609 65.544,85.415 65.451,85.027 64.768 C 84.784 64.342,84.434 63.992,84.250 63.991 C 84.065 63.990,83.715 63.641,83.472 63.214 C 83.090 62.542,82.882 62.438,81.918 62.437 C 80.954 62.435,80.746 62.332,80.364 61.660 C 79.981 60.988,79.774 60.884,78.809 60.882 C 77.845 60.881,77.637 60.777,77.255 60.105 C 77.012 59.679,76.662 59.329,76.478 59.328 C 76.293 59.327,75.944 58.982,75.702 58.561 C 75.333 57.918,75.077 57.783,74.101 57.719 C 73.167 57.657,72.878 57.518,72.624 57.006 C 72.450 56.656,72.067 56.280,71.772 56.171 C 71.477 56.062,71.127 55.684,70.993 55.333 C 70.788 54.794,70.553 54.680,69.513 54.613 C 68.500 54.548,68.219 54.419,67.961 53.897 C 67.787 53.547,67.403 53.171,67.109 53.062 C 66.814 52.953,66.463 52.576,66.329 52.224 C 66.125 51.685,65.890 51.571,64.850 51.504 C 63.837 51.439,63.556 51.310,63.297 50.788 C 63.124 50.438,62.740 50.062,62.445 49.953 C 62.151 49.844,61.800 49.467,61.666 49.115 C 61.462 48.577,61.227 48.462,60.187 48.396 C 59.167 48.330,58.894 48.203,58.631 47.668 C 58.374 47.149,58.067 46.995,57.076 46.891 C 56.092 46.788,55.777 46.632,55.525 46.125 C 55.352 45.775,54.968 45.399,54.673 45.290 C 54.379 45.181,54.028 44.804,53.894 44.452 C 53.690 43.913,53.455 43.799,52.415 43.732 C 51.402 43.667,51.121 43.538,50.862 43.016 C 50.688 42.666,50.305 42.290,50.010 42.181 C 49.715 42.072,49.365 41.695,49.231 41.343 C 49.026 40.805,48.791 40.690,47.751 40.623 C 46.738 40.558,46.458 40.429,46.199 39.907 C 46.025 39.557,45.642 39.181,45.347 39.072 C 45.052 38.963,44.702 38.586,44.568 38.234 C 44.363 37.696,44.128 37.582,43.088 37.515 C 42.068 37.449,41.796 37.322,41.532 36.788 C 41.276 36.268,40.969 36.114,39.978 36.010 C 38.994 35.907,38.678 35.751,38.427 35.244 C 38.253 34.894,37.870 34.518,37.575 34.409 C 37.280 34.300,36.927 33.916,36.790 33.556 C 36.575 32.990,36.384 32.902,35.376 32.902 C 34.343 32.902,34.165 32.813,33.808 32.124 C 33.587 31.697,33.238 31.347,33.031 31.347 C 32.825 31.347,32.475 30.997,32.254 30.570 C 31.899 29.883,31.718 29.793,30.699 29.793 C 29.681 29.793,29.500 29.702,29.145 29.016 C 28.924 28.588,28.574 28.238,28.368 28.238 C 28.161 28.238,27.812 27.889,27.591 27.461 C 27.235 26.774,27.055 26.684,26.036 26.684 C 25.018 26.684,24.837 26.594,24.482 25.907 C 24.261 25.479,23.906 25.130,23.692 25.130 C 23.479 25.130,23.172 24.838,23.010 24.482 C 22.798 24.018,22.511 23.834,21.996 23.834 C 20.915 23.834,20.013 23.410,19.823 22.813 C 19.708 22.451,19.431 22.279,18.959 22.276 C 17.723 22.270,17.086 21.970,16.693 21.211 C 16.481 20.801,16.134 20.466,15.920 20.466 C 15.707 20.466,15.400 20.175,15.238 19.819 C 15.035 19.372,14.734 19.170,14.272 19.167 C 13.060 19.161,12.420 18.857,12.030 18.102 C 11.818 17.692,11.470 17.358,11.257 17.358 C 11.044 17.358,10.737 17.066,10.575 16.710 C 10.371 16.264,10.071 16.061,9.609 16.059 C 8.397 16.052,7.757 15.748,7.366 14.993 C 7.155 14.584,6.807 14.249,6.594 14.249 C 6.381 14.249,6.074 13.957,5.911 13.601 C 5.708 13.155,5.408 12.952,4.945 12.950 C 3.733 12.943,3.094 12.639,2.703 11.884 C 2.491 11.475,2.144 11.140,1.931 11.140 C 1.718 11.140,1.411 10.848,1.248 10.492 C 1.086 10.136,0.739 9.845,0.477 9.845 C 0.015 9.845,0.000 13.544,0.000 131.088 M197.409 137.306 C 197.409 137.934,196.343 138.601,195.337 138.601 C 194.767 138.601,194.301 138.718,194.301 138.860 C 194.301 139.475,193.234 140.155,192.270 140.155 C 191.470 140.155,191.219 140.278,190.990 140.781 C 190.833 141.124,190.465 141.482,190.171 141.575 C 189.878 141.669,189.637 141.853,189.637 141.986 C 189.637 142.586,188.559 143.264,187.606 143.264 C 186.806 143.264,186.556 143.387,186.327 143.889 C 186.170 144.233,185.802 144.591,185.508 144.684 C 185.214 144.777,184.974 144.962,184.974 145.095 C 184.974 145.695,183.896 146.373,182.943 146.373 C 182.134 146.373,181.894 146.494,181.653 147.021 C 181.491 147.377,181.184 147.668,180.971 147.668 C 180.758 147.668,180.410 148.003,180.198 148.413 C 179.805 149.172,179.168 149.472,177.932 149.478 C 177.460 149.481,177.183 149.653,177.068 150.015 C 176.878 150.612,175.976 151.036,174.895 151.036 C 174.380 151.036,174.093 151.220,173.881 151.684 C 173.719 152.040,173.412 152.332,173.199 152.332 C 172.986 152.332,172.638 152.667,172.426 153.076 C 172.036 153.831,171.396 154.135,170.184 154.142 C 169.722 154.144,169.421 154.347,169.218 154.793 C 169.056 155.149,168.752 155.440,168.543 155.440 C 168.334 155.440,168.010 155.761,167.823 156.153 C 167.532 156.762,167.303 156.877,166.242 156.945 C 165.198 157.012,164.963 157.125,164.759 157.664 C 164.625 158.016,164.274 158.393,163.979 158.502 C 163.685 158.611,163.301 158.987,163.128 159.337 C 162.876 159.845,162.560 160.000,161.577 160.104 C 160.586 160.208,160.279 160.361,160.022 160.881 C 159.759 161.415,159.486 161.542,158.466 161.608 C 157.426 161.675,157.191 161.789,156.987 162.327 C 156.853 162.679,156.502 163.056,156.207 163.166 C 155.913 163.275,155.529 163.650,155.355 164.001 C 155.097 164.522,154.816 164.652,153.803 164.717 C 152.763 164.784,152.528 164.898,152.323 165.436 C 152.190 165.788,151.839 166.165,151.544 166.274 C 151.249 166.383,150.866 166.759,150.692 167.109 C 150.433 167.631,150.153 167.760,149.140 167.826 C 148.100 167.892,147.865 168.007,147.660 168.545 C 147.526 168.897,147.176 169.274,146.881 169.383 C 146.586 169.492,146.203 169.868,146.029 170.218 C 145.778 170.725,145.462 170.881,144.478 170.984 C 143.487 171.088,143.180 171.242,142.924 171.762 C 142.660 172.296,142.388 172.423,141.368 172.489 C 140.328 172.556,140.093 172.670,139.888 173.208 C 139.754 173.560,139.404 173.937,139.109 174.046 C 138.814 174.155,138.431 174.531,138.257 174.881 C 137.998 175.403,137.718 175.532,136.705 175.598 C 135.664 175.664,135.430 175.779,135.225 176.317 C 135.091 176.669,134.740 177.046,134.446 177.155 C 134.151 177.264,133.768 177.640,133.594 177.990 C 133.342 178.497,133.027 178.653,132.043 178.756 C 131.052 178.860,130.745 179.014,130.488 179.534 C 130.225 180.068,129.952 180.195,128.933 180.261 C 127.882 180.328,127.659 180.439,127.446 180.998 C 127.308 181.360,126.992 181.710,126.742 181.775 C 126.493 181.840,126.091 182.237,125.851 182.657 C 125.467 183.325,125.267 183.420,124.235 183.420 C 123.587 183.420,123.057 183.533,123.057 183.671 C 123.057 184.374,120.510 186.528,119.679 186.528 C 118.974 186.528,118.574 186.796,117.358 188.083 C 116.091 189.422,115.758 189.637,114.956 189.637 C 114.217 189.637,113.911 189.798,113.472 190.415 C 113.032 191.031,112.726 191.192,111.987 191.192 C 111.185 191.192,110.852 191.407,109.585 192.746 C 108.362 194.040,107.971 194.301,107.254 194.301 C 106.537 194.301,106.146 194.561,104.922 195.855 C 103.699 197.149,103.308 197.409,102.591 197.409 C 101.874 197.409,101.482 197.670,100.259 198.964 C 98.993 200.303,98.660 200.518,97.858 200.518 C 97.119 200.518,96.812 200.679,96.373 201.295 C 95.931 201.917,95.628 202.073,94.866 202.075 C 94.031 202.077,93.736 202.272,92.501 203.629 C 91.310 204.940,90.955 205.181,90.217 205.181 C 89.486 205.181,89.101 205.436,87.864 206.736 C 86.641 208.021,86.238 208.290,85.533 208.290 C 84.828 208.290,84.424 208.559,83.201 209.845 C 81.938 211.172,81.588 211.399,80.806 211.399 C 80.089 211.399,79.766 211.568,79.316 212.176 C 78.867 212.783,78.542 212.953,77.832 212.953 C 76.956 212.953,76.182 213.566,74.407 215.667 C 74.211 215.899,73.647 216.062,73.041 216.062 C 72.205 216.062,71.956 216.179,71.728 216.681 C 71.572 217.022,71.167 217.427,70.826 217.582 C 70.486 217.738,70.207 217.975,70.207 218.111 C 70.207 218.666,69.339 219.171,68.384 219.171 C 67.602 219.171,67.307 219.302,67.069 219.754 C 66.645 220.559,66.343 220.717,65.215 220.721 C 64.438 220.725,64.180 220.852,63.956 221.344 C 63.800 221.685,63.395 222.091,63.054 222.246 C 62.714 222.401,62.435 222.639,62.435 222.774 C 62.435 223.333,61.567 223.834,60.598 223.834 C 59.770 223.834,59.520 223.953,59.292 224.453 C 59.137 224.794,58.732 225.199,58.391 225.354 C 58.051 225.510,57.772 225.747,57.772 225.883 C 57.772 226.442,56.904 226.943,55.934 226.943 C 55.107 226.943,54.857 227.061,54.629 227.562 C 54.474 227.903,54.068 228.308,53.728 228.463 C 53.387 228.618,53.109 228.856,53.109 228.991 C 53.109 229.547,52.241 230.052,51.286 230.052 C 50.504 230.052,50.208 230.183,49.970 230.635 C 49.546 231.440,49.244 231.598,48.116 231.602 C 47.340 231.605,47.081 231.733,46.857 232.225 C 46.702 232.566,46.296 232.971,45.956 233.126 C 45.615 233.282,45.337 233.519,45.337 233.655 C 45.337 234.214,44.468 234.715,43.499 234.715 C 42.672 234.715,42.422 234.833,42.194 235.334 C 42.039 235.675,41.633 236.080,41.293 236.235 C 40.952 236.390,40.674 236.628,40.674 236.764 C 40.674 237.323,39.805 237.824,38.836 237.824 C 38.009 237.824,37.759 237.942,37.531 238.443 C 37.376 238.783,36.970 239.189,36.629 239.344 C 36.289 239.499,36.010 239.737,36.010 239.872 C 36.010 240.432,35.142 240.933,34.172 240.933 C 33.334 240.933,33.106 241.044,32.915 241.545 C 32.642 242.262,32.164 242.487,30.913 242.487 C 30.215 242.487,29.971 242.610,29.865 243.016 C 29.789 243.306,29.392 243.717,28.983 243.929 C 28.573 244.141,28.238 244.482,28.238 244.687 C 28.238 245.208,27.407 245.596,26.288 245.596 C 25.552 245.596,25.309 245.714,25.202 246.124 C 25.126 246.415,24.729 246.826,24.319 247.038 C 23.910 247.249,23.575 247.590,23.575 247.795 C 23.575 248.317,22.744 248.705,21.625 248.705 C 20.889 248.705,20.646 248.823,20.539 249.233 C 20.463 249.524,20.066 249.935,19.656 250.147 C 19.247 250.358,18.912 250.699,18.912 250.904 C 18.912 251.423,18.082 251.813,16.980 251.813 C 16.240 251.813,16.002 251.939,15.817 252.426 C 15.544 253.143,15.066 253.368,13.815 253.368 C 13.117 253.368,12.873 253.491,12.767 253.896 C 12.691 254.187,12.294 254.598,11.884 254.810 C 11.475 255.021,11.140 255.362,11.140 255.567 C 11.140 256.079,10.315 256.477,9.256 256.477 C 8.574 256.477,8.308 256.619,8.088 257.102 C 7.932 257.446,7.563 257.803,7.270 257.897 C 6.973 257.991,6.736 258.289,6.736 258.567 C 6.736 259.061,9.119 259.067,196.891 259.067 C 386.874 259.067,387.047 259.067,387.047 258.549 C 387.047 258.128,386.874 258.031,386.123 258.031 C 385.026 258.031,384.197 257.640,384.197 257.122 C 384.197 256.917,383.862 256.576,383.453 256.364 C 383.043 256.152,382.646 255.741,382.570 255.451 C 382.463 255.040,382.220 254.922,381.484 254.922 C 380.365 254.922,379.534 254.535,379.534 254.013 C 379.534 253.808,379.199 253.467,378.789 253.255 C 378.380 253.044,377.983 252.633,377.907 252.342 C 377.800 251.931,377.557 251.813,376.821 251.813 C 375.702 251.813,374.870 251.426,374.870 250.904 C 374.870 250.699,374.536 250.358,374.126 250.147 C 373.717 249.935,373.320 249.524,373.244 249.233 C 373.138 248.828,372.894 248.705,372.196 248.705 C 370.945 248.705,370.466 248.480,370.194 247.763 C 370.009 247.276,369.770 247.150,369.031 247.150 C 367.919 247.150,367.098 246.759,367.098 246.229 C 367.098 246.017,366.820 245.717,366.479 245.562 C 366.139 245.407,365.733 245.001,365.578 244.661 C 365.350 244.160,365.100 244.041,364.273 244.041 C 363.304 244.041,362.435 243.540,362.435 242.981 C 362.435 242.846,362.157 242.608,361.816 242.453 C 361.476 242.298,361.070 241.892,360.915 241.552 C 360.687 241.051,360.437 240.933,359.610 240.933 C 358.640 240.933,357.772 240.432,357.772 239.872 C 357.772 239.737,357.493 239.499,357.153 239.344 C 356.812 239.189,356.407 238.783,356.252 238.443 C 356.024 237.942,355.774 237.824,354.946 237.824 C 353.977 237.824,353.109 237.323,353.109 236.764 C 353.109 236.628,352.830 236.390,352.490 236.235 C 352.149 236.080,351.744 235.675,351.589 235.334 C 351.364 234.842,351.106 234.714,350.329 234.711 C 349.202 234.706,348.899 234.549,348.475 233.744 C 348.237 233.291,347.942 233.161,347.160 233.161 C 346.205 233.161,345.337 232.656,345.337 232.100 C 345.337 231.965,345.058 231.727,344.718 231.572 C 344.377 231.417,343.972 231.011,343.817 230.671 C 343.588 230.170,343.339 230.052,342.511 230.052 C 341.542 230.052,340.674 229.551,340.674 228.991 C 340.674 228.856,340.395 228.618,340.054 228.463 C 339.714 228.308,339.308 227.903,339.153 227.562 C 338.925 227.061,338.675 226.943,337.848 226.943 C 336.879 226.943,336.010 226.442,336.010 225.883 C 336.010 225.747,335.732 225.510,335.391 225.354 C 335.051 225.199,334.645 224.794,334.490 224.453 C 334.261 223.951,334.013 223.834,333.174 223.834 C 332.325 223.834,332.037 223.695,331.565 223.057 C 331.115 222.448,330.792 222.280,330.075 222.280 C 329.292 222.280,328.943 222.053,327.680 220.725 C 326.457 219.440,326.053 219.171,325.348 219.171 C 324.643 219.171,324.240 218.902,323.017 217.617 C 321.794 216.331,321.390 216.062,320.685 216.062 C 319.980 216.062,319.576 215.793,318.353 214.508 C 317.130 213.223,316.727 212.953,316.022 212.953 C 315.317 212.953,314.913 212.684,313.690 211.399 C 312.426 210.071,312.078 209.845,311.295 209.845 C 310.577 209.845,310.254 209.676,309.804 209.067 C 309.357 208.463,309.029 208.290,308.329 208.290 C 307.564 208.290,307.206 208.055,305.959 206.736 C 304.735 205.442,304.344 205.181,303.627 205.181 C 302.910 205.181,302.519 204.921,301.295 203.627 C 300.072 202.333,299.681 202.073,298.964 202.073 C 298.247 202.073,297.855 201.812,296.632 200.518 C 295.409 199.225,295.018 198.964,294.301 198.964 C 293.583 198.964,293.192 198.703,291.969 197.409 C 290.703 196.070,290.370 195.855,289.568 195.855 C 288.829 195.855,288.522 195.695,288.083 195.078 C 287.627 194.437,287.348 194.301,286.499 194.301 C 285.625 194.301,285.401 194.182,285.027 193.525 C 284.784 193.098,284.448 192.749,284.279 192.748 C 284.111 192.747,283.724 192.396,283.420 191.969 C 282.964 191.328,282.685 191.192,281.836 191.192 C 280.962 191.192,280.738 191.074,280.364 190.416 C 280.121 189.990,279.771 189.640,279.586 189.639 C 279.402 189.638,279.052 189.288,278.809 188.862 C 278.427 188.190,278.219 188.086,277.255 188.085 C 276.295 188.083,276.081 187.978,275.704 187.320 C 275.463 186.900,275.062 186.503,274.812 186.438 C 274.563 186.373,274.246 186.023,274.108 185.662 C 273.896 185.103,273.672 184.991,272.622 184.924 C 271.609 184.859,271.328 184.729,271.069 184.208 C 270.896 183.858,270.512 183.482,270.218 183.373 C 269.923 183.264,269.572 182.887,269.438 182.535 C 269.234 181.996,268.999 181.882,267.959 181.815 C 266.939 181.750,266.666 181.622,266.403 181.088 C 266.146 180.568,265.839 180.415,264.848 180.311 C 263.864 180.208,263.549 180.052,263.297 179.545 C 263.124 179.194,262.740 178.819,262.445 178.710 C 262.151 178.601,261.800 178.223,261.666 177.871 C 261.462 177.333,261.227 177.219,260.187 177.152 C 259.174 177.087,258.893 176.957,258.634 176.436 C 258.460 176.086,258.077 175.710,257.782 175.601 C 257.488 175.492,257.137 175.115,257.003 174.763 C 256.798 174.224,256.564 174.110,255.523 174.043 C 254.510 173.978,254.230 173.849,253.971 173.327 C 253.797 172.977,253.414 172.601,253.119 172.492 C 252.824 172.383,252.474 172.006,252.340 171.654 C 252.135 171.115,251.900 171.001,250.860 170.934 C 249.840 170.869,249.568 170.741,249.304 170.207 C 249.048 169.688,248.741 169.534,247.750 169.430 C 246.766 169.327,246.450 169.171,246.199 168.664 C 246.025 168.314,245.642 167.938,245.347 167.829 C 245.052 167.720,244.702 167.343,244.568 166.991 C 244.363 166.452,244.128 166.338,243.088 166.271 C 242.075 166.206,241.795 166.077,241.536 165.555 C 241.362 165.205,240.979 164.829,240.684 164.720 C 240.389 164.611,240.038 164.234,239.905 163.882 C 239.700 163.343,239.465 163.229,238.425 163.162 C 237.412 163.097,237.131 162.968,236.873 162.446 C 236.699 162.096,236.315 161.720,236.021 161.611 C 235.726 161.502,235.373 161.118,235.236 160.758 C 235.021 160.192,234.830 160.104,233.821 160.104 C 232.788 160.104,232.610 160.015,232.254 159.326 C 232.033 158.899,231.683 158.549,231.477 158.549 C 231.270 158.549,230.921 158.199,230.699 157.772 C 230.344 157.085,230.164 156.995,229.145 156.995 C 228.127 156.995,227.946 156.904,227.591 156.218 C 227.235 155.531,227.055 155.440,226.036 155.440 C 225.018 155.440,224.837 155.350,224.482 154.663 C 224.261 154.236,223.906 153.886,223.692 153.886 C 223.479 153.886,223.172 153.595,223.010 153.238 C 222.807 152.792,222.506 152.590,222.044 152.587 C 220.832 152.581,220.192 152.277,219.802 151.521 C 219.590 151.112,219.242 150.777,219.029 150.777 C 218.816 150.777,218.509 150.486,218.347 150.130 C 218.143 149.683,217.843 149.481,217.381 149.478 C 216.169 149.472,215.529 149.168,215.138 148.413 C 214.927 148.003,214.579 147.668,214.366 147.668 C 214.153 147.668,213.846 147.377,213.683 147.021 C 213.480 146.575,213.180 146.372,212.717 146.370 C 211.505 146.363,210.866 146.059,210.475 145.304 C 210.264 144.895,209.916 144.560,209.703 144.560 C 209.490 144.560,209.183 144.268,209.020 143.912 C 208.780 143.385,208.540 143.264,207.730 143.264 C 206.766 143.264,205.699 142.584,205.699 141.969 C 205.699 141.826,205.357 141.710,204.939 141.710 C 203.843 141.710,202.918 141.297,202.737 140.728 C 202.651 140.456,202.302 140.107,201.960 139.951 C 201.619 139.796,201.264 139.429,201.171 139.135 C 201.038 138.715,200.784 138.601,199.983 138.601 C 198.994 138.601,197.927 137.929,197.927 137.306 C 197.927 137.163,197.811 137.047,197.668 137.047 C 197.526 137.047,197.409 137.163,197.409 137.306 " stroke="none" fill="#fcfcfc" fill-rule="evenodd"></path><path id="path1" d="M397.150 0.376 C 397.150 1.154,394.596 3.368,393.698 3.368 C 393.093 3.368,392.673 3.583,392.180 4.145 C 391.682 4.712,391.268 4.922,390.647 4.922 C 389.954 4.922,389.546 5.185,388.439 6.347 C 387.330 7.510,386.924 7.772,386.228 7.772 C 385.524 7.772,385.120 8.042,383.897 9.326 C 382.634 10.655,382.285 10.881,381.502 10.881 C 380.784 10.881,380.461 11.049,380.011 11.658 C 379.564 12.262,379.236 12.435,378.536 12.435 C 377.772 12.435,377.414 12.670,376.166 13.990 C 374.942 15.283,374.551 15.544,373.834 15.544 C 373.117 15.544,372.726 15.805,371.503 17.098 C 370.279 18.392,369.888 18.653,369.171 18.653 C 368.454 18.653,368.063 18.914,366.839 20.207 C 365.573 21.546,365.240 21.762,364.438 21.762 C 363.699 21.762,363.393 21.922,362.953 22.539 C 362.514 23.156,362.208 23.316,361.469 23.316 C 360.666 23.316,360.334 23.531,359.067 24.870 C 357.844 26.164,357.453 26.425,356.736 26.425 C 356.019 26.425,355.627 26.686,354.404 27.979 C 353.181 29.273,352.790 29.534,352.073 29.534 C 351.355 29.534,350.964 29.794,349.741 31.088 C 348.475 32.427,348.142 32.642,347.340 32.642 C 346.601 32.642,346.294 32.803,345.855 33.420 C 345.416 34.036,345.109 34.197,344.370 34.197 C 343.568 34.197,343.235 34.412,341.969 35.751 C 340.746 37.045,340.354 37.306,339.637 37.306 C 338.920 37.306,338.529 37.566,337.306 38.860 C 336.082 40.154,335.691 40.415,334.974 40.415 C 334.257 40.415,333.866 40.675,332.642 41.969 C 331.376 43.308,331.043 43.523,330.241 43.523 C 329.502 43.523,329.196 43.684,328.756 44.301 C 328.317 44.917,328.011 45.078,327.272 45.078 C 326.469 45.078,326.137 45.293,324.870 46.632 C 323.647 47.926,323.256 48.187,322.539 48.187 C 321.822 48.187,321.431 48.447,320.207 49.741 C 318.941 51.080,318.608 51.295,317.806 51.295 C 317.067 51.295,316.760 51.456,316.321 52.073 C 315.882 52.689,315.576 52.850,314.836 52.850 C 314.034 52.850,313.701 53.065,312.435 54.404 C 311.229 55.680,310.815 55.959,310.128 55.959 C 309.443 55.959,309.025 56.239,307.812 57.513 C 306.589 58.798,306.186 59.067,305.481 59.067 C 304.776 59.067,304.372 59.337,303.149 60.622 C 301.886 61.950,301.537 62.176,300.754 62.176 C 300.037 62.176,299.714 62.345,299.264 62.953 C 298.814 63.562,298.491 63.731,297.773 63.731 C 296.990 63.731,296.641 63.957,295.377 65.285 C 294.154 66.570,293.750 66.839,293.046 66.839 C 292.341 66.839,291.937 67.109,290.714 68.394 C 289.491 69.679,289.087 69.948,288.382 69.948 C 287.678 69.948,287.274 70.217,286.051 71.503 C 284.787 72.830,284.438 73.057,283.656 73.057 C 282.939 73.057,282.615 73.226,282.165 73.834 C 281.715 74.443,281.392 74.611,280.674 74.611 C 279.891 74.611,279.543 74.838,278.279 76.166 C 277.056 77.451,276.652 77.720,275.947 77.720 C 275.242 77.720,274.839 77.989,273.616 79.275 C 272.393 80.560,271.989 80.829,271.284 80.829 C 270.579 80.829,270.175 81.098,268.952 82.383 C 267.666 83.735,267.349 83.938,266.518 83.938 C 265.791 83.938,265.489 84.077,265.255 84.521 C 264.835 85.320,264.529 85.484,263.451 85.488 C 262.730 85.491,262.446 85.636,262.178 86.136 C 261.989 86.489,261.620 86.847,261.357 86.930 C 261.095 87.013,260.881 87.168,260.881 87.274 C 260.881 87.882,259.752 88.601,258.798 88.601 C 258.234 88.601,257.772 88.698,257.772 88.816 C 257.772 89.474,255.080 91.710,254.287 91.710 C 253.687 91.710,253.259 91.928,252.761 92.487 C 252.261 93.048,251.835 93.264,251.228 93.264 C 250.542 93.264,250.111 93.549,248.877 94.819 C 247.657 96.073,247.207 96.373,246.545 96.373 C 245.883 96.373,245.433 96.673,244.214 97.927 C 242.994 99.182,242.544 99.482,241.882 99.482 C 241.220 99.482,240.770 99.782,239.550 101.036 C 238.326 102.296,237.882 102.591,237.212 102.591 C 236.617 102.591,236.193 102.809,235.703 103.368 C 235.208 103.931,234.790 104.145,234.181 104.145 C 233.495 104.145,233.062 104.431,231.824 105.699 C 230.606 106.949,230.148 107.254,229.493 107.254 C 228.837 107.254,228.380 107.559,227.161 108.808 C 225.942 110.058,225.485 110.363,224.830 110.363 C 224.174 110.363,223.717 110.668,222.498 111.917 C 221.255 113.191,220.829 113.472,220.134 113.472 C 219.516 113.472,219.101 113.682,218.604 114.249 C 218.110 114.812,217.691 115.026,217.082 115.026 C 216.397 115.026,215.963 115.312,214.726 116.580 C 213.507 117.830,213.050 118.135,212.394 118.135 C 211.739 118.135,211.281 118.440,210.063 119.689 C 208.844 120.938,208.386 121.244,207.731 121.244 C 207.076 121.244,206.618 121.549,205.399 122.798 C 204.157 124.072,203.730 124.352,203.036 124.352 C 202.418 124.352,202.003 124.563,201.506 125.130 C 200.987 125.720,200.602 125.907,199.900 125.907 C 199.200 125.907,198.873 126.064,198.551 126.554 C 198.010 127.380,197.327 127.380,196.785 126.554 C 196.468 126.069,196.135 125.907,195.462 125.907 C 194.704 125.907,194.324 125.662,193.046 124.352 C 191.809 123.084,191.375 122.798,190.690 122.798 C 190.081 122.798,189.662 122.584,189.168 122.021 C 188.671 121.454,188.256 121.244,187.638 121.244 C 186.943 121.244,186.517 120.963,185.274 119.689 C 184.055 118.440,183.598 118.135,182.942 118.135 C 182.287 118.135,181.830 117.830,180.611 116.580 C 179.392 115.331,178.935 115.026,178.279 115.026 C 177.624 115.026,177.166 114.721,175.948 113.472 C 174.710 112.203,174.277 111.917,173.591 111.917 C 172.982 111.917,172.564 111.703,172.069 111.140 C 171.572 110.574,171.157 110.363,170.540 110.363 C 169.845 110.363,169.419 110.082,168.176 108.808 C 166.952 107.554,166.501 107.254,165.837 107.254 C 165.169 107.254,164.738 106.962,163.538 105.699 C 162.334 104.433,161.907 104.145,161.234 104.145 C 160.564 104.145,160.120 103.850,158.895 102.591 C 157.676 101.336,157.225 101.036,156.564 101.036 C 155.902 101.036,155.452 100.736,154.232 99.482 C 152.998 98.212,152.567 97.927,151.880 97.927 C 151.274 97.927,150.848 97.712,150.348 97.150 C 149.839 96.580,149.425 96.373,148.789 96.373 C 148.220 96.373,147.768 96.184,147.472 95.823 C 147.224 95.521,146.868 95.142,146.681 94.981 C 146.494 94.821,146.037 94.369,145.666 93.977 C 145.196 93.480,144.734 93.264,144.138 93.264 C 143.354 93.264,142.228 92.482,142.228 91.938 C 142.228 91.832,142.013 91.676,141.749 91.593 C 141.486 91.509,141.139 91.152,140.978 90.798 C 140.738 90.272,140.499 90.155,139.661 90.155 C 138.692 90.155,137.824 89.654,137.824 89.095 C 137.824 88.960,137.545 88.722,137.205 88.567 C 136.864 88.412,136.459 88.006,136.304 87.666 C 136.079 87.173,135.823 87.047,135.051 87.047 C 134.203 87.047,133.896 86.852,132.602 85.492 C 131.338 84.164,130.990 83.938,130.207 83.938 C 129.489 83.938,129.166 83.769,128.716 83.161 C 128.266 82.552,127.942 82.383,127.225 82.383 C 126.443 82.383,126.093 82.157,124.830 80.829 C 123.607 79.544,123.203 79.275,122.498 79.275 C 121.794 79.275,121.390 79.005,120.167 77.720 C 118.944 76.435,118.540 76.166,117.835 76.166 C 117.130 76.166,116.727 75.897,115.504 74.611 C 114.281 73.326,113.877 73.057,113.172 73.057 C 112.467 73.057,112.063 72.788,110.840 71.503 C 109.577 70.174,109.228 69.948,108.445 69.948 C 107.727 69.948,107.404 69.780,106.954 69.171 C 106.504 68.562,106.181 68.394,105.463 68.394 C 104.681 68.394,104.332 68.167,103.068 66.839 C 101.845 65.554,101.442 65.285,100.737 65.285 C 100.032 65.285,99.628 65.016,98.405 63.731 C 97.182 62.445,96.778 62.176,96.074 62.176 C 95.369 62.176,94.965 61.907,93.742 60.622 C 92.530 59.348,92.112 59.067,91.426 59.067 C 90.739 59.067,90.326 58.789,89.119 57.513 C 87.853 56.174,87.520 55.959,86.718 55.959 C 85.979 55.959,85.672 55.798,85.233 55.181 C 84.794 54.565,84.488 54.404,83.748 54.404 C 82.946 54.404,82.613 54.189,81.347 52.850 C 80.124 51.556,79.733 51.295,79.016 51.295 C 78.298 51.295,77.907 51.035,76.684 49.741 C 75.461 48.447,75.069 48.187,74.352 48.187 C 73.635 48.187,73.244 47.926,72.021 46.632 C 70.755 45.293,70.422 45.078,69.619 45.078 C 68.880 45.078,68.574 44.917,68.135 44.301 C 67.696 43.684,67.389 43.523,66.650 43.523 C 65.848 43.523,65.515 43.308,64.249 41.969 C 63.025 40.675,62.634 40.415,61.917 40.415 C 61.200 40.415,60.809 40.154,59.585 38.860 C 58.362 37.566,57.971 37.306,57.254 37.306 C 56.537 37.306,56.146 37.045,54.922 35.751 C 53.699 34.458,53.308 34.197,52.591 34.197 C 51.874 34.197,51.482 33.936,50.259 32.642 C 48.993 31.304,48.660 31.088,47.858 31.088 C 47.119 31.088,46.812 30.928,46.373 30.311 C 45.934 29.694,45.627 29.534,44.888 29.534 C 44.086 29.534,43.753 29.318,42.487 27.979 C 41.264 26.686,40.873 26.425,40.155 26.425 C 39.438 26.425,39.047 26.164,37.824 24.870 C 36.600 23.577,36.209 23.316,35.492 23.316 C 34.775 23.316,34.384 23.055,33.161 21.762 C 31.937 20.468,31.546 20.207,30.829 20.207 C 30.112 20.207,29.721 19.946,28.497 18.653 C 27.231 17.314,26.898 17.098,26.096 17.098 C 25.357 17.098,25.051 16.938,24.611 16.321 C 24.177 15.711,23.863 15.544,23.151 15.544 C 22.381 15.544,22.024 15.312,20.766 13.990 C 19.543 12.704,19.139 12.435,18.434 12.435 C 17.729 12.435,17.326 12.166,16.103 10.881 C 14.880 9.596,14.476 9.326,13.772 9.326 C 13.076 9.326,12.670 9.064,11.561 7.902 C 10.470 6.757,10.041 6.477,9.378 6.477 C 8.710 6.477,8.262 6.180,7.036 4.922 C 5.798 3.654,5.365 3.368,4.679 3.368 C 4.070 3.368,3.652 3.154,3.157 2.591 C 2.578 1.931,2.289 1.813,1.238 1.813 L 0.000 1.813 0.000 5.440 C 0.000 8.486,0.062 9.067,0.387 9.067 C 0.600 9.067,1.457 9.767,2.291 10.622 C 3.509 11.871,3.967 12.176,4.622 12.176 C 5.278 12.176,5.735 12.481,6.954 13.731 C 8.173 14.980,8.630 15.285,9.285 15.285 C 9.941 15.285,10.398 15.590,11.617 16.839 C 12.836 18.089,13.293 18.394,13.949 18.394 C 14.604 18.394,15.062 18.699,16.280 19.948 C 17.518 21.217,17.951 21.503,18.637 21.503 C 19.246 21.503,19.664 21.716,20.159 22.280 C 20.656 22.846,21.071 23.057,21.688 23.057 C 22.383 23.057,22.809 23.337,24.052 24.611 C 25.271 25.861,25.729 26.166,26.384 26.166 C 27.039 26.166,27.497 26.471,28.716 27.720 C 29.934 28.970,30.392 29.275,31.047 29.275 C 31.702 29.275,32.160 29.580,33.379 30.829 C 34.597 32.078,35.055 32.383,35.710 32.383 C 36.366 32.383,36.823 32.688,38.042 33.938 C 39.279 35.206,39.713 35.492,40.398 35.492 C 41.008 35.492,41.426 35.706,41.920 36.269 C 42.411 36.828,42.835 37.047,43.429 37.047 C 44.100 37.047,44.543 37.341,45.768 38.601 C 46.988 39.855,47.438 40.155,48.100 40.155 C 48.761 40.155,49.212 40.456,50.431 41.710 C 51.651 42.964,52.101 43.264,52.763 43.264 C 53.425 43.264,53.875 43.564,55.094 44.819 C 56.329 46.088,56.760 46.373,57.446 46.373 C 58.053 46.373,58.478 46.589,58.979 47.150 C 59.479 47.712,59.904 47.927,60.513 47.927 C 61.201 47.927,61.631 48.211,62.866 49.482 C 64.077 50.726,64.539 51.036,65.186 51.036 C 65.943 51.036,66.965 51.851,68.598 53.756 C 68.782 53.970,69.331 54.145,69.819 54.145 C 70.310 54.145,70.854 54.327,71.039 54.552 C 71.391 54.981,72.012 55.619,72.585 56.140 C 72.773 56.312,73.078 56.632,73.262 56.853 C 73.445 57.073,73.994 57.254,74.482 57.254 C 74.973 57.254,75.517 57.435,75.702 57.661 C 76.054 58.090,76.675 58.728,77.248 59.249 C 77.437 59.421,77.741 59.741,77.925 59.962 C 78.108 60.182,78.659 60.363,79.148 60.363 C 79.835 60.363,80.167 60.539,80.611 61.140 C 81.061 61.749,81.384 61.917,82.101 61.917 C 82.884 61.917,83.233 62.144,84.496 63.472 C 85.719 64.757,86.123 65.026,86.828 65.026 C 87.533 65.026,87.937 65.295,89.160 66.580 C 90.383 67.866,90.786 68.135,91.491 68.135 C 92.196 68.135,92.600 68.404,93.823 69.689 C 95.046 70.974,95.450 71.244,96.154 71.244 C 96.859 71.244,97.263 71.513,98.486 72.798 C 99.750 74.126,100.099 74.352,100.882 74.352 C 101.599 74.352,101.922 74.521,102.373 75.130 C 102.823 75.738,103.146 75.907,103.863 75.907 C 104.645 75.907,104.995 76.133,106.258 77.461 C 107.481 78.746,107.885 79.016,108.590 79.016 C 109.295 79.016,109.698 79.285,110.921 80.570 C 112.133 81.844,112.551 82.124,113.237 82.124 C 113.924 82.124,114.338 82.403,115.544 83.679 C 116.767 84.972,117.159 85.233,117.876 85.233 C 118.593 85.233,118.984 85.494,120.207 86.788 C 121.473 88.127,121.806 88.342,122.609 88.342 C 123.348 88.342,123.654 88.502,124.093 89.119 C 124.532 89.736,124.839 89.896,125.578 89.896 C 126.380 89.896,126.713 90.112,127.979 91.451 C 129.203 92.744,129.594 93.005,130.311 93.005 C 131.028 93.005,131.419 93.266,132.642 94.560 C 133.866 95.853,134.257 96.114,134.974 96.114 C 135.691 96.114,136.082 96.375,137.306 97.668 C 138.529 98.962,138.920 99.223,139.637 99.223 C 140.354 99.223,140.746 99.484,141.969 100.777 C 143.235 102.116,143.568 102.332,144.370 102.332 C 145.109 102.332,145.416 102.492,145.855 103.109 C 146.294 103.726,146.601 103.886,147.340 103.886 C 148.142 103.886,148.475 104.101,149.741 105.440 C 150.964 106.734,151.355 106.995,152.073 106.995 C 152.790 106.995,153.181 107.256,154.404 108.549 C 155.627 109.843,156.019 110.104,156.736 110.104 C 157.453 110.104,157.844 110.364,159.067 111.658 C 160.334 112.997,160.666 113.212,161.469 113.212 C 162.208 113.212,162.514 113.373,162.953 113.990 C 163.393 114.606,163.699 114.767,164.438 114.767 C 165.240 114.767,165.573 114.982,166.839 116.321 C 168.063 117.615,168.454 117.876,169.171 117.876 C 169.888 117.876,170.279 118.136,171.503 119.430 C 172.724 120.721,173.118 120.984,173.831 120.984 C 174.534 120.984,174.935 121.242,176.047 122.409 C 177.134 123.550,177.569 123.834,178.225 123.834 C 178.884 123.834,179.342 124.138,180.570 125.389 C 181.794 126.636,182.257 126.943,182.911 126.943 C 183.492 126.943,183.921 127.166,184.407 127.720 C 184.901 128.283,185.321 128.497,185.926 128.497 C 187.082 128.497,189.378 130.746,189.378 131.878 C 189.378 132.886,188.558 133.679,187.515 133.679 C 186.850 133.679,186.422 133.958,185.330 135.104 C 184.221 136.267,183.815 136.528,183.120 136.528 C 182.415 136.528,182.011 136.798,180.789 138.083 C 179.576 139.357,179.158 139.637,178.473 139.637 C 177.786 139.637,177.372 139.916,176.166 141.192 C 174.900 142.531,174.567 142.746,173.765 142.746 C 173.025 142.746,172.719 142.907,172.280 143.523 C 171.841 144.140,171.534 144.301,170.795 144.301 C 169.993 144.301,169.660 144.516,168.394 145.855 C 167.170 147.149,166.779 147.409,166.062 147.409 C 165.345 147.409,164.954 147.670,163.731 148.964 C 162.507 150.257,162.116 150.518,161.399 150.518 C 160.682 150.518,160.291 150.779,159.067 152.073 C 157.801 153.412,157.468 153.627,156.666 153.627 C 155.927 153.627,155.621 153.787,155.181 154.404 C 154.742 155.021,154.436 155.181,153.697 155.181 C 152.894 155.181,152.562 155.397,151.295 156.736 C 150.072 158.029,149.681 158.290,148.964 158.290 C 148.247 158.290,147.855 158.551,146.632 159.845 C 145.409 161.138,145.018 161.399,144.301 161.399 C 143.583 161.399,143.192 161.660,141.969 162.953 C 140.703 164.292,140.370 164.508,139.568 164.508 C 138.829 164.508,138.522 164.668,138.083 165.285 C 137.644 165.902,137.337 166.062,136.598 166.062 C 135.796 166.062,135.463 166.278,134.197 167.617 C 132.974 168.910,132.582 169.171,131.865 169.171 C 131.148 169.171,130.757 169.432,129.534 170.725 C 128.267 172.064,127.935 172.280,127.132 172.280 C 126.393 172.280,126.087 172.440,125.648 173.057 C 125.208 173.674,124.902 173.834,124.163 173.834 C 123.361 173.834,123.028 174.050,121.762 175.389 C 120.538 176.682,120.147 176.943,119.430 176.943 C 118.713 176.943,118.322 177.204,117.098 178.497 C 115.875 179.791,115.484 180.052,114.767 180.052 C 114.050 180.052,113.659 180.313,112.435 181.606 C 111.187 182.926,110.829 183.161,110.065 183.161 C 109.365 183.161,109.037 183.334,108.590 183.938 C 108.140 184.547,107.817 184.715,107.099 184.715 C 106.316 184.715,105.967 184.941,104.704 186.269 C 103.481 187.555,103.077 187.824,102.372 187.824 C 101.667 187.824,101.263 188.093,100.040 189.378 C 98.817 190.663,98.414 190.933,97.709 190.933 C 97.004 190.933,96.600 191.202,95.377 192.487 C 94.114 193.815,93.765 194.041,92.982 194.041 C 92.265 194.041,91.942 194.210,91.492 194.819 C 91.042 195.427,90.719 195.596,90.001 195.596 C 89.218 195.596,88.869 195.822,87.605 197.150 C 86.382 198.436,85.978 198.705,85.274 198.705 C 84.569 198.705,84.165 198.974,82.942 200.259 C 81.719 201.544,81.315 201.813,80.610 201.813 C 79.906 201.813,79.502 202.083,78.279 203.368 C 77.015 204.696,76.666 204.922,75.884 204.922 C 75.167 204.922,74.843 205.091,74.393 205.699 C 73.922 206.337,73.633 206.477,72.785 206.477 C 71.946 206.477,71.697 206.594,71.468 207.096 C 71.313 207.436,70.908 207.842,70.567 207.997 C 70.227 208.152,69.948 208.390,69.948 208.525 C 69.948 209.081,69.080 209.585,68.125 209.585 C 67.398 209.585,67.043 209.723,66.852 210.080 C 66.234 211.236,64.433 212.694,63.624 212.694 C 62.986 212.694,62.516 213.010,61.312 214.249 C 60.076 215.520,59.647 215.803,58.959 215.803 C 58.350 215.803,57.925 216.018,57.424 216.580 C 56.924 217.142,56.499 217.358,55.892 217.358 C 55.205 217.358,54.774 217.642,53.540 218.912 C 52.320 220.166,51.870 220.466,51.208 220.466 C 50.547 220.466,50.096 220.766,48.877 222.021 C 47.641 223.292,47.212 223.575,46.523 223.575 C 45.915 223.575,45.490 223.790,44.989 224.352 C 44.499 224.902,44.060 225.130,43.488 225.130 C 42.844 225.130,42.363 225.447,41.130 226.684 C 39.914 227.904,39.410 228.238,38.792 228.238 C 38.170 228.238,37.684 228.566,36.488 229.793 C 35.269 231.042,34.811 231.347,34.156 231.347 C 33.501 231.347,33.043 231.652,31.824 232.902 C 30.581 234.176,30.155 234.456,29.460 234.456 C 28.843 234.456,28.428 234.667,27.931 235.233 C 27.436 235.797,27.018 236.010,26.409 236.010 C 25.723 236.010,25.290 236.296,24.052 237.565 C 22.834 238.814,22.376 239.119,21.721 239.119 C 21.065 239.119,20.608 239.424,19.389 240.674 C 18.170 241.923,17.713 242.228,17.058 242.228 C 16.402 242.228,15.945 242.533,14.726 243.782 C 13.483 245.057,13.057 245.337,12.362 245.337 C 11.744 245.337,11.329 245.548,10.832 246.114 C 10.338 246.678,9.919 246.891,9.310 246.891 C 8.625 246.891,8.191 247.177,6.954 248.446 C 5.735 249.695,5.278 250.000,4.622 250.000 C 3.967 250.000,3.509 250.305,2.291 251.554 C 1.457 252.409,0.600 253.109,0.387 253.109 C 0.066 253.109,0.000 253.617,0.000 256.088 L 0.000 259.067 2.979 259.067 C 5.411 259.067,5.959 258.998,5.959 258.691 C 5.959 257.933,8.512 255.699,9.378 255.699 C 10.020 255.699,10.489 255.386,11.699 254.145 C 12.977 252.835,13.357 252.591,14.115 252.591 C 14.788 252.591,15.121 252.428,15.438 251.943 C 15.761 251.450,16.086 251.295,16.798 251.295 C 17.603 251.295,17.937 251.080,19.211 249.741 C 20.424 248.467,20.842 248.187,21.527 248.187 C 22.214 248.187,22.628 247.908,23.834 246.632 C 25.058 245.338,25.449 245.078,26.166 245.078 C 26.883 245.078,27.274 244.817,28.497 243.523 C 29.764 242.184,30.096 241.969,30.899 241.969 C 31.638 241.969,31.944 241.809,32.383 241.192 C 32.823 240.575,33.129 240.415,33.868 240.415 C 34.670 240.415,35.003 240.199,36.269 238.860 C 37.493 237.566,37.884 237.306,38.601 237.306 C 39.318 237.306,39.709 237.045,40.933 235.751 C 42.156 234.458,42.547 234.197,43.264 234.197 C 43.981 234.197,44.373 233.936,45.596 232.642 C 46.862 231.304,47.195 231.088,47.997 231.088 C 48.736 231.088,49.043 230.928,49.482 230.311 C 49.921 229.694,50.227 229.534,50.967 229.534 C 51.769 229.534,52.102 229.318,53.368 227.979 C 54.591 226.686,54.982 226.425,55.699 226.425 C 56.417 226.425,56.808 226.164,58.031 224.870 C 59.254 223.577,59.646 223.316,60.363 223.316 C 61.080 223.316,61.471 223.055,62.694 221.762 C 63.961 220.423,64.293 220.207,65.096 220.207 C 65.835 220.207,66.141 220.047,66.580 219.430 C 67.020 218.813,67.326 218.653,68.065 218.653 C 68.867 218.653,69.200 218.437,70.466 217.098 C 71.690 215.805,72.081 215.544,72.798 215.544 C 73.515 215.544,73.906 215.283,75.130 213.990 C 76.396 212.651,76.729 212.435,77.531 212.435 C 78.270 212.435,78.576 212.275,79.016 211.658 C 79.455 211.041,79.761 210.881,80.500 210.881 C 81.303 210.881,81.635 210.665,82.902 209.326 C 84.125 208.033,84.516 207.772,85.233 207.772 C 85.950 207.772,86.341 207.511,87.565 206.218 C 88.771 204.942,89.185 204.663,89.872 204.663 C 90.557 204.663,90.975 204.383,92.188 203.109 C 93.451 201.781,93.800 201.554,94.583 201.554 C 95.300 201.554,95.623 201.386,96.073 200.777 C 96.523 200.168,96.846 200.000,97.564 200.000 C 98.347 200.000,98.696 199.774,99.960 198.446 C 101.183 197.160,101.586 196.891,102.291 196.891 C 102.996 196.891,103.400 196.622,104.623 195.337 C 105.846 194.052,106.250 193.782,106.954 193.782 C 107.659 193.782,108.063 193.513,109.286 192.228 C 110.549 190.900,110.899 190.674,111.681 190.674 C 112.398 190.674,112.721 190.505,113.171 189.896 C 113.622 189.288,113.945 189.119,114.662 189.119 C 115.445 189.119,115.794 188.893,117.058 187.565 C 118.281 186.280,118.685 186.010,119.390 186.010 C 120.094 186.010,120.498 185.741,121.721 184.456 C 122.944 183.171,123.348 182.902,124.053 182.902 C 124.758 182.902,125.161 182.632,126.384 181.347 C 127.648 180.019,127.997 179.793,128.779 179.793 C 129.497 179.793,129.820 179.624,130.270 179.016 C 130.741 178.378,131.030 178.238,131.879 178.238 C 132.728 178.238,132.965 178.124,133.205 177.596 C 133.367 177.242,133.714 176.885,133.977 176.801 C 134.240 176.717,134.456 176.562,134.456 176.456 C 134.456 175.912,135.582 175.130,136.366 175.130 C 136.962 175.130,137.424 174.914,137.894 174.417 C 138.265 174.025,138.722 173.573,138.909 173.413 C 139.096 173.252,139.452 172.873,139.700 172.571 C 139.996 172.210,140.448 172.021,141.017 172.021 C 141.653 172.021,142.067 171.814,142.576 171.244 C 143.076 170.682,143.501 170.466,144.108 170.466 C 144.795 170.466,145.226 170.182,146.460 168.912 C 147.680 167.658,148.130 167.358,148.792 167.358 C 149.453 167.358,149.904 167.057,151.123 165.803 C 152.343 164.549,152.793 164.249,153.455 164.249 C 154.117 164.249,154.567 163.949,155.786 162.694 C 157.022 161.423,157.451 161.140,158.140 161.140 C 158.749 161.140,159.173 160.925,159.674 160.363 C 160.166 159.811,160.603 159.585,161.181 159.585 C 161.836 159.585,162.294 159.280,163.512 158.031 C 164.731 156.782,165.189 156.477,165.844 156.477 C 166.499 156.477,166.957 156.172,168.176 154.922 C 169.394 153.673,169.852 153.368,170.507 153.368 C 171.163 153.368,171.620 153.063,172.839 151.813 C 174.082 150.539,174.508 150.259,175.203 150.259 C 175.820 150.259,176.236 150.048,176.732 149.482 C 177.227 148.918,177.645 148.705,178.254 148.705 C 178.940 148.705,179.373 148.419,180.611 147.150 C 181.830 145.901,182.287 145.596,182.942 145.596 C 183.598 145.596,184.055 145.291,185.274 144.041 C 186.493 142.792,186.950 142.487,187.606 142.487 C 188.261 142.487,188.719 142.182,189.937 140.933 C 191.180 139.658,191.606 139.378,192.301 139.378 C 192.919 139.378,193.334 139.167,193.831 138.601 C 194.349 138.010,194.734 137.824,195.437 137.824 C 196.137 137.824,196.464 137.667,196.785 137.176 C 197.019 136.820,197.416 136.528,197.668 136.528 C 197.921 136.528,198.318 136.820,198.551 137.176 C 198.869 137.661,199.202 137.824,199.875 137.824 C 200.633 137.824,201.013 138.068,202.291 139.378 C 203.528 140.647,203.961 140.933,204.647 140.933 C 205.256 140.933,205.675 141.146,206.169 141.710 C 206.666 142.276,207.081 142.487,207.699 142.487 C 208.394 142.487,208.820 142.767,210.063 144.041 C 211.281 145.291,211.739 145.596,212.394 145.596 C 213.050 145.596,213.507 145.901,214.726 147.150 C 215.945 148.400,216.402 148.705,217.058 148.705 C 217.713 148.705,218.170 149.010,219.389 150.259 C 220.608 151.508,221.065 151.813,221.721 151.813 C 222.376 151.813,222.834 152.119,224.052 153.368 C 225.290 154.636,225.723 154.922,226.409 154.922 C 227.018 154.922,227.436 155.136,227.931 155.699 C 228.428 156.266,228.843 156.477,229.460 156.477 C 230.155 156.477,230.581 156.757,231.824 158.031 C 233.043 159.280,233.501 159.585,234.156 159.585 C 234.811 159.585,235.269 159.891,236.488 161.140 C 237.706 162.389,238.164 162.694,238.819 162.694 C 239.474 162.694,239.932 162.999,241.151 164.249 C 242.353 165.481,242.832 165.803,243.462 165.803 C 244.093 165.803,244.569 166.124,245.768 167.358 C 247.002 168.627,247.433 168.912,248.120 168.912 C 248.726 168.912,249.152 169.128,249.652 169.689 C 250.153 170.251,250.578 170.466,251.187 170.466 C 251.875 170.466,252.304 170.750,253.540 172.021 C 254.760 173.275,255.210 173.575,255.872 173.575 C 256.533 173.575,256.984 173.875,258.203 175.130 C 259.423 176.384,259.873 176.684,260.535 176.684 C 261.197 176.684,261.647 176.984,262.866 178.238 C 264.089 179.495,264.535 179.793,265.201 179.793 C 265.972 179.793,266.184 179.926,267.044 180.950 C 267.228 181.168,267.773 181.347,268.256 181.347 C 269.060 181.347,269.948 181.878,269.948 182.358 C 269.948 182.466,270.227 182.704,270.567 182.886 C 270.908 183.068,271.313 183.496,271.468 183.837 C 271.697 184.338,271.946 184.456,272.774 184.456 C 273.707 184.456,274.611 184.953,274.611 185.467 C 274.611 185.575,274.890 185.813,275.230 185.995 C 275.571 186.177,275.976 186.605,276.132 186.946 C 276.356 187.438,276.612 187.565,277.384 187.565 C 278.233 187.565,278.539 187.759,279.833 189.119 C 281.056 190.404,281.460 190.674,282.165 190.674 C 282.870 190.674,283.273 190.943,284.496 192.228 C 285.760 193.556,286.109 193.782,286.892 193.782 C 287.610 193.782,287.933 193.951,288.383 194.560 C 288.833 195.168,289.156 195.337,289.873 195.337 C 290.656 195.337,291.005 195.563,292.268 196.891 C 293.491 198.176,293.895 198.446,294.600 198.446 C 295.305 198.446,295.709 198.715,296.932 200.000 C 298.155 201.285,298.558 201.554,299.263 201.554 C 299.968 201.554,300.372 201.824,301.595 203.109 C 302.818 204.394,303.222 204.663,303.926 204.663 C 304.631 204.663,305.035 204.932,306.258 206.218 C 307.522 207.546,307.871 207.772,308.654 207.772 C 309.371 207.772,309.694 207.940,310.145 208.549 C 310.591 209.153,310.920 209.326,311.619 209.326 C 312.384 209.326,312.742 209.561,313.990 210.881 C 315.213 212.174,315.604 212.435,316.321 212.435 C 317.038 212.435,317.430 212.696,318.653 213.990 C 319.876 215.283,320.267 215.544,320.984 215.544 C 321.702 215.544,322.093 215.805,323.316 217.098 C 324.539 218.392,324.931 218.653,325.648 218.653 C 326.365 218.653,326.756 218.914,327.979 220.207 C 329.245 221.546,329.578 221.762,330.381 221.762 C 331.120 221.762,331.426 221.922,331.865 222.539 C 332.304 223.156,332.611 223.316,333.350 223.316 C 334.152 223.316,334.485 223.531,335.751 224.870 C 336.975 226.164,337.366 226.425,338.083 226.425 C 338.800 226.425,339.191 226.686,340.415 227.979 C 341.638 229.273,342.029 229.534,342.746 229.534 C 343.463 229.534,343.854 229.794,345.078 231.088 C 346.344 232.427,346.677 232.642,347.479 232.642 C 348.218 232.642,348.525 232.803,348.964 233.420 C 349.403 234.036,349.709 234.197,350.448 234.197 C 351.251 234.197,351.584 234.412,352.850 235.751 C 354.073 237.045,354.464 237.306,355.181 237.306 C 355.898 237.306,356.290 237.566,357.513 238.860 C 358.736 240.154,359.127 240.415,359.845 240.415 C 360.562 240.415,360.953 240.675,362.176 241.969 C 363.400 243.263,363.791 243.523,364.508 243.523 C 365.225 243.523,365.616 243.784,366.839 245.078 C 368.106 246.417,368.438 246.632,369.241 246.632 C 369.980 246.632,370.286 246.793,370.725 247.409 C 371.165 248.026,371.471 248.187,372.210 248.187 C 373.012 248.187,373.345 248.402,374.611 249.741 C 375.832 251.032,376.227 251.295,376.940 251.295 C 377.643 251.295,378.044 251.553,379.156 252.720 C 380.232 253.849,380.681 254.145,381.318 254.145 C 381.959 254.145,382.428 254.460,383.638 255.699 C 384.858 256.950,385.314 257.254,385.971 257.254 C 386.837 257.254,387.824 258.013,387.824 258.679 C 387.824 259.011,388.572 259.067,393.005 259.067 L 398.187 259.067 398.187 257.871 C 398.187 256.345,396.709 254.663,395.369 254.663 C 394.724 254.663,394.258 254.351,393.046 253.109 C 391.827 251.859,391.370 251.554,390.715 251.554 C 390.059 251.554,389.602 251.249,388.383 250.000 C 387.164 248.751,386.707 248.446,386.051 248.446 C 385.396 248.446,384.938 248.141,383.720 246.891 C 382.501 245.642,382.043 245.337,381.388 245.337 C 380.733 245.337,380.275 245.032,379.056 243.782 C 377.819 242.514,377.386 242.228,376.700 242.228 C 376.091 242.228,375.673 242.014,375.178 241.451 C 374.681 240.885,374.266 240.674,373.648 240.674 C 372.954 240.674,372.527 240.393,371.284 239.119 C 370.066 237.870,369.608 237.565,368.953 237.565 C 368.298 237.565,367.840 237.260,366.621 236.010 C 365.419 234.778,364.940 234.456,364.310 234.456 C 363.679 234.456,363.204 234.135,362.004 232.902 C 360.770 231.632,360.339 231.347,359.652 231.347 C 359.046 231.347,358.620 231.131,358.120 230.570 C 357.619 230.008,357.194 229.793,356.585 229.793 C 355.897 229.793,355.468 229.509,354.232 228.238 C 353.012 226.984,352.562 226.684,351.900 226.684 C 351.239 226.684,350.788 226.384,349.569 225.130 C 348.349 223.875,347.899 223.575,347.237 223.575 C 346.575 223.575,346.125 223.275,344.906 222.021 C 343.683 220.764,343.237 220.466,342.571 220.466 C 341.778 220.466,340.933 219.919,340.933 219.406 C 340.933 219.271,340.654 219.033,340.313 218.878 C 339.973 218.723,339.545 218.317,339.363 217.977 C 339.109 217.502,338.815 217.357,338.104 217.354 C 337.026 217.349,336.720 217.185,336.299 216.386 C 336.060 215.933,335.766 215.803,334.975 215.803 C 334.382 215.803,333.819 215.638,333.624 215.408 C 331.899 213.366,331.067 212.694,330.263 212.694 C 329.567 212.694,329.156 212.419,327.939 211.140 C 326.716 209.855,326.312 209.585,325.607 209.585 C 324.902 209.585,324.499 209.316,323.276 208.031 C 322.053 206.746,321.649 206.477,320.944 206.477 C 320.239 206.477,319.835 206.208,318.612 204.922 C 317.349 203.594,317.000 203.368,316.217 203.368 C 315.499 203.368,315.176 203.199,314.726 202.591 C 314.276 201.982,313.953 201.813,313.235 201.813 C 312.453 201.813,312.104 201.587,310.840 200.259 C 309.617 198.974,309.214 198.705,308.509 198.705 C 307.804 198.705,307.400 198.436,306.177 197.150 C 304.954 195.865,304.550 195.596,303.846 195.596 C 303.141 195.596,302.737 195.327,301.514 194.041 C 300.291 192.756,299.887 192.487,299.182 192.487 C 298.477 192.487,298.074 192.218,296.851 190.933 C 295.587 189.605,295.238 189.378,294.455 189.378 C 293.737 189.378,293.414 189.210,292.964 188.601 C 292.518 187.997,292.189 187.824,291.489 187.824 C 290.725 187.824,290.367 187.589,289.119 186.269 C 287.896 184.976,287.505 184.715,286.788 184.715 C 286.070 184.715,285.679 184.454,284.456 183.161 C 283.233 181.867,282.841 181.606,282.124 181.606 C 281.407 181.606,281.016 181.345,279.793 180.052 C 278.527 178.713,278.194 178.497,277.391 178.497 C 276.652 178.497,276.346 178.337,275.907 177.720 C 275.468 177.103,275.161 176.943,274.422 176.943 C 273.620 176.943,273.287 176.728,272.021 175.389 C 270.797 174.095,270.406 173.834,269.689 173.834 C 268.972 173.834,268.581 173.573,267.358 172.280 C 266.134 170.986,265.743 170.725,265.026 170.725 C 264.309 170.725,263.918 170.465,262.694 169.171 C 261.471 167.877,261.080 167.617,260.363 167.617 C 259.646 167.617,259.254 167.356,258.031 166.062 C 256.765 164.723,256.432 164.508,255.630 164.508 C 254.891 164.508,254.584 164.347,254.145 163.731 C 253.706 163.114,253.399 162.953,252.660 162.953 C 251.858 162.953,251.525 162.738,250.259 161.399 C 249.036 160.105,248.645 159.845,247.927 159.845 C 247.210 159.845,246.819 159.584,245.596 158.290 C 244.373 156.997,243.981 156.736,243.264 156.736 C 242.547 156.736,242.156 156.475,240.933 155.181 C 239.709 153.888,239.318 153.627,238.601 153.627 C 237.884 153.627,237.493 153.366,236.269 152.073 C 235.003 150.734,234.670 150.518,233.868 150.518 C 233.129 150.518,232.823 150.358,232.383 149.741 C 231.944 149.124,231.638 148.964,230.899 148.964 C 230.096 148.964,229.764 148.748,228.497 147.409 C 227.274 146.116,226.883 145.855,226.166 145.855 C 225.449 145.855,225.058 145.594,223.834 144.301 C 222.628 143.025,222.214 142.746,221.527 142.746 C 220.842 142.746,220.424 142.465,219.211 141.192 C 217.988 139.906,217.585 139.637,216.880 139.637 C 216.175 139.637,215.771 139.368,214.548 138.083 C 213.274 136.744,212.940 136.528,212.134 136.528 C 211.423 136.528,211.098 136.374,210.775 135.881 C 210.459 135.398,210.124 135.233,209.462 135.233 C 208.255 135.233,205.959 133.018,205.959 131.853 C 205.959 130.849,206.779 130.052,207.812 130.052 C 208.469 130.052,208.925 129.748,210.145 128.497 C 211.363 127.248,211.821 126.943,212.476 126.943 C 213.131 126.943,213.589 126.638,214.808 125.389 C 216.013 124.153,216.488 123.834,217.122 123.834 C 217.749 123.834,218.220 123.527,219.312 122.409 C 220.470 121.222,220.853 120.984,221.603 120.984 C 222.308 120.984,222.624 120.816,223.057 120.207 C 223.496 119.590,223.803 119.430,224.542 119.430 C 225.344 119.430,225.677 119.215,226.943 117.876 C 228.166 116.582,228.558 116.321,229.275 116.321 C 229.992 116.321,230.383 116.060,231.606 114.767 C 232.830 113.473,233.221 113.212,233.938 113.212 C 234.655 113.212,235.046 112.952,236.269 111.658 C 237.536 110.319,237.868 110.104,238.671 110.104 C 239.410 110.104,239.716 109.943,240.155 109.326 C 240.595 108.710,240.901 108.549,241.640 108.549 C 242.442 108.549,242.775 108.334,244.041 106.995 C 245.265 105.701,245.656 105.440,246.373 105.440 C 247.090 105.440,247.481 105.180,248.705 103.886 C 249.928 102.592,250.319 102.332,251.036 102.332 C 251.753 102.332,252.145 102.071,253.368 100.777 C 254.634 99.438,254.967 99.223,255.769 99.223 C 256.508 99.223,256.815 99.062,257.254 98.446 C 257.693 97.829,258.000 97.668,258.739 97.668 C 259.541 97.668,259.874 97.453,261.140 96.114 C 262.363 94.820,262.754 94.560,263.472 94.560 C 264.189 94.560,264.580 94.299,265.803 93.005 C 267.069 91.666,267.402 91.451,268.204 91.451 C 268.943 91.451,269.250 91.290,269.689 90.674 C 270.128 90.057,270.435 89.896,271.174 89.896 C 271.976 89.896,272.309 89.681,273.575 88.342 C 274.798 87.048,275.190 86.788,275.907 86.788 C 276.624 86.788,277.015 86.527,278.238 85.233 C 279.462 83.940,279.853 83.679,280.570 83.679 C 281.287 83.679,281.678 83.418,282.902 82.124 C 284.168 80.785,284.501 80.570,285.303 80.570 C 286.042 80.570,286.348 80.410,286.788 79.793 C 287.230 79.171,287.532 79.015,288.295 79.013 C 289.129 79.011,289.425 78.817,290.659 77.459 C 291.851 76.148,292.206 75.907,292.944 75.907 C 293.674 75.907,294.059 75.652,295.296 74.352 C 296.519 73.067,296.923 72.798,297.628 72.798 C 298.333 72.798,298.737 72.529,299.960 71.244 C 301.223 69.916,301.572 69.689,302.355 69.689 C 303.072 69.689,303.395 69.521,303.845 68.912 C 304.295 68.303,304.618 68.135,305.336 68.135 C 306.119 68.135,306.468 67.908,307.732 66.580 C 308.955 65.295,309.358 65.026,310.063 65.026 C 310.768 65.026,311.172 64.757,312.395 63.472 C 313.618 62.186,314.022 61.917,314.726 61.917 C 315.431 61.917,315.835 61.648,317.058 60.363 C 318.321 59.035,318.671 58.808,319.453 58.808 C 320.170 58.808,320.494 58.640,320.943 58.031 C 321.415 57.393,321.704 57.254,322.552 57.254 C 323.402 57.254,323.639 57.139,323.879 56.611 C 324.040 56.258,324.366 55.907,324.604 55.831 C 324.842 55.756,325.294 55.346,325.609 54.920 C 326.078 54.285,326.368 54.145,327.215 54.145 C 328.054 54.145,328.303 54.028,328.532 53.526 C 328.687 53.185,329.092 52.780,329.433 52.625 C 329.773 52.470,330.052 52.232,330.052 52.097 C 330.052 51.573,330.905 51.036,331.736 51.036 C 332.549 51.036,332.762 50.906,333.624 49.879 C 333.808 49.661,334.333 49.482,334.790 49.482 C 335.466 49.482,335.905 49.191,337.134 47.927 C 338.353 46.673,338.803 46.373,339.465 46.373 C 340.127 46.373,340.577 46.073,341.797 44.819 C 343.016 43.564,343.467 43.264,344.128 43.264 C 344.790 43.264,345.240 42.964,346.460 41.710 C 347.696 40.439,348.125 40.155,348.813 40.155 C 349.422 40.155,349.847 39.940,350.348 39.378 C 350.848 38.817,351.274 38.601,351.880 38.601 C 352.567 38.601,352.998 38.316,354.232 37.047 C 355.457 35.787,355.900 35.492,356.570 35.492 C 357.244 35.492,357.671 35.204,358.875 33.938 C 360.075 32.675,360.506 32.383,361.174 32.383 C 361.838 32.383,362.288 32.084,363.512 30.829 C 364.755 29.555,365.182 29.275,365.876 29.275 C 366.494 29.275,366.909 29.064,367.406 28.497 C 367.901 27.934,368.319 27.720,368.928 27.720 C 369.614 27.720,370.047 27.434,371.284 26.166 C 372.503 24.916,372.961 24.611,373.616 24.611 C 374.271 24.611,374.729 24.306,375.948 23.057 C 377.166 21.808,377.624 21.503,378.279 21.503 C 378.935 21.503,379.392 21.198,380.611 19.948 C 381.854 18.674,382.280 18.394,382.975 18.394 C 383.592 18.394,384.008 18.183,384.504 17.617 C 384.999 17.053,385.417 16.839,386.027 16.839 C 386.712 16.839,387.145 16.554,388.383 15.285 C 389.602 14.036,390.059 13.731,390.715 13.731 C 391.370 13.731,391.827 13.426,393.046 12.176 C 394.265 10.927,394.722 10.622,395.378 10.622 C 396.033 10.622,396.491 10.317,397.709 9.067 C 398.543 8.212,399.400 7.513,399.613 7.513 C 399.939 7.513,400.000 6.917,400.000 3.756 L 400.000 0.000 398.575 0.000 C 397.502 0.000,397.150 0.093,397.150 0.376 " stroke="none" fill="#040404" fill-rule="evenodd"></path><path id="path2" d="" stroke="none" fill="#bc10080" fill-rule="evenodd"></path><path id="path3" d="" stroke="none" fill="#bc10080" fill-rule="evenodd"></path><path id="path4" d="" stroke="none" fill="#bc10080" fill-rule="evenodd"></path></g></svg>